<?xml version="1.0" encoding="UTF-8" standalone="no"?>
<!-- Created with Inkscape (http://www.inkscape.org/) -->

<svg
   width="98.889999mm"
   height="52.493mm"
   viewBox="0 0 98.889999 52.493"
   version="1.1"
   id="svg876"
   inkscape:version="1.1 (c68e22c387, 2021-05-23)"
   sodipodi:docname="KeyboardBig.svg"
   xmlns:inkscape="http://www.inkscape.org/namespaces/inkscape"
   xmlns:sodipodi="http://sodipodi.sourceforge.net/DTD/sodipodi-0.dtd"
   xmlns="http://www.w3.org/2000/svg"
   xmlns:svg="http://www.w3.org/2000/svg">
  <sodipodi:namedview
     id="namedview878"
     pagecolor="#ffffff"
     bordercolor="#666666"
     borderopacity="1.0"
     inkscape:pageshadow="2"
     inkscape:pageopacity="0.0"
     inkscape:pagecheckerboard="0"
     inkscape:document-units="mm"
     showgrid="false"
     width="98.89mm"
     inkscape:zoom="3.03137"
     inkscape:cx="186.8792"
     inkscape:cy="99.130097"
     inkscape:window-width="1920"
     inkscape:window-height="1057"
     inkscape:window-x="-8"
     inkscape:window-y="1072"
     inkscape:window-maximized="1"
     inkscape:current-layer="layer1" />
  <defs
     id="defs873" />
  <g
     inkscape:label="Layer 1"
     inkscape:groupmode="layer"
     id="layer1">
    <g
       transform="matrix(1.28,0,0,1.28,-35.668479,-218.32576)"
       id="g42"
       style="stroke-width:0.781247">
      <rect
         ry="0.47577962"
         rx="0.47577962"
         width="77.258003"
         height="41.009998"
         x="27.865999"
         y="170.567"
         id="rect38"
         style="fill:#333333;stroke-width:0.781247;paint-order:markers stroke fill" />
      <path
         d="m 45.858,171.897 0.047,18.245 3.398,1.85 V 210.27 H 40.02 v -18.278 l 3.461,-1.85 v -18.245 z m 32.702,0 0.048,18.245 3.397,1.85 v 18.278 h -9.283 v -18.278 l 3.461,-1.85 v -18.245 z m 8.477,0 -0.048,18.245 -3.397,1.85 v 18.278 h 9.282 v -18.278 l -3.46,-1.85 v -18.245 z m -52.049,0 0.048,18.245 3.397,1.85 V 210.27 H 29.15 v -18.278 l -0.008,-20.095 h 3.468 z m 19.34,0 -0.048,18.245 -3.397,1.85 v 18.278 h 9.282 v -18.278 l 0.007,-20.095 h -3.468 z m 13.362,0 0.048,18.245 3.397,1.85 v 18.278 h -9.282 v -18.278 l -0.008,-20.095 h 3.469 z m 30.217,0 -0.048,18.245 -3.397,1.85 v 18.278 h 9.282 v -18.278 l 0.007,-20.095 h -3.468 z"
         id="path40"
         inkscape:connector-curvature="0"
         style="fill:#999999;stroke:#000000;stroke-width:0.207031" />
    </g>
  </g>
</svg>
