<?xml version="1.0" encoding="UTF-8" standalone="no"?>
<!-- Created with Inkscape (http://www.inkscape.org/) -->

<svg
   width="98.889999mm"
   height="52.493mm"
   viewBox="0 0 98.889999 52.493"
   version="1.1"
   id="svg876"
   inkscape:version="1.1 (c68e22c387, 2021-05-23)"
   sodipodi:docname="KeyboardBig.svg"
   xmlns:inkscape="http://www.inkscape.org/namespaces/inkscape"
   xmlns:sodipodi="http://sodipodi.sourceforge.net/DTD/sodipodi-0.dtd"
   xmlns="http://www.w3.org/2000/svg"
   xmlns:svg="http://www.w3.org/2000/svg">
  <sodipodi:namedview
     id="namedview878"
     pagecolor="#ffffff"
     bordercolor="#666666"
     borderopacity="1.0"
     inkscape:pageshadow="2"
     inkscape:pageopacity="0.0"
     inkscape:pagecheckerboard="0"
     inkscape:document-units="mm"
     showgrid="false"
     width="98.89mm"
     inkscape:zoom="3.03137"
     inkscape:cx="88.408871"
     inkscape:cy="126.18057"
     inkscape:window-width="1536"
     inkscape:window-height="801"
     inkscape:window-x="1912"
     inkscape:window-y="-8"
     inkscape:window-maximized="1"
     inkscape:current-layer="layer1" />
  <defs
     id="defs873">
    <inkscape:path-effect
       effect="fillet_chamfer"
       id="path-effect1533"
       is_visible="true"
       lpeversion="1"
       satellites_param="F,0,0,1,0,0.79375,0,1 @ F,0,0,1,0,0.79375,0,1 @ F,0,0,1,0,0.79375,0,1 @ F,0,0,1,0,0.79375,0,1 @ F,0,0,1,0,0.79375,0,1 @ F,0,0,1,0,0.79375,0,1 @ F,0,0,1,0,0.79375,0,1 @ F,0,0,1,0,0.79375,0,1 | F,0,0,1,0,0.79375,0,1 @ F,0,0,1,0,0.79375,0,1 @ F,0,0,1,0,0.79375,0,1 @ F,0,0,1,0,0.79375,0,1 @ F,0,0,1,0,0.79375,0,1 @ F,0,0,1,0,0.79375,0,1 @ F,0,0,1,0,0.79375,0,1 @ F,0,0,1,0,0.79375,0,1 | F,0,0,1,0,0.79375,0,1 @ F,0,0,1,0,0.79375,0,1 @ F,0,0,1,0,0.79375,0,1 @ F,0,0,1,0,0.79375,0,1 @ F,0,0,1,0,0.79375,0,1 @ F,0,0,1,0,0.79375,0,1 @ F,0,0,1,0,0.79375,0,1 @ F,0,0,1,0,0.79375,0,1 | F,0,0,1,0,0.79375,0,1 @ F,0,0,1,0,0.79375,0,1 @ F,0,0,1,0,0.79375,0,1 @ F,0,0,1,0,0.79375,0,1 @ F,0,0,1,0,0.79375,0,1 @ F,0,0,1,0,0.79375,0,1 @ F,0,0,1,0,0.79375,0,1 @ F,0,0,1,0,0.79375,0,1 | F,0,0,1,0,0.79375,0,1 @ F,0,0,1,0,0.79375,0,1 @ F,0,0,1,0,0.79375,0,1 @ F,0,0,1,0,0.79375,0,1 @ F,0,0,1,0,0.79375,0,1 @ F,0,0,1,0,0.79375,0,1 @ F,0,0,1,0,0.79375,0,1 @ F,0,0,1,0,0.79375,0,1 | F,0,0,1,0,0.79375,0,1 @ F,0,0,1,0,0.79375,0,1 @ F,0,0,1,0,0.79375,0,1 @ F,0,0,1,0,0.79375,0,1 @ F,0,0,1,0,0.79375,0,1 @ F,0,0,1,0,0.79375,0,1 @ F,0,0,1,0,0.79375,0,1 @ F,0,0,1,0,0.79375,0,1 | F,0,0,1,0,0.79375,0,1 @ F,0,0,1,0,0.79375,0,1 @ F,0,0,1,0,0.79375,0,1 @ F,0,0,1,0,0.79375,0,1 @ F,0,0,1,0,0.79375,0,1 @ F,0,0,1,0,0.79375,0,1 @ F,0,0,1,0,0.79375,0,1 @ F,0,0,1,0,0.79375,0,1"
       unit="px"
       method="auto"
       mode="F"
       radius="3"
       chamfer_steps="1"
       flexible="false"
       use_knot_distance="true"
       apply_no_radius="true"
       apply_with_radius="true"
       only_selected="false"
       hide_knots="false" />
  </defs>
  <g
     inkscape:label="Layer 1"
     inkscape:groupmode="layer"
     id="layer1">
    <rect
       ry="0.79374999"
       rx="0.79374999"
       width="98.889999"
       height="52.492798"
       x="3.9062513e-09"
       y="1.71875e-06"
       id="rect38"
       style="fill:#333333;stroke-width:0.999996;paint-order:markers stroke fill" />
    <path
       d="m 23.031806,2.4961474 0.05607,21.7661056 a 1.3398391,1.3398391 59.208976 0 0 0.699172,1.17329 l 2.955186,1.608914 a 1.3359123,1.3359123 59.282774 0 1 0.697127,1.173293 v 21.80834 a 0.79375,0.79375 135 0 1 -0.79375,0.79375 h -10.29474 a 0.79375,0.79375 45 0 1 -0.79375,-0.79375 V 28.21775 a 1.3243111,1.3243111 120.93713 0 1 0.70002,-1.16793 l 3.03004,-1.61964 a 1.3243111,1.3243111 120.93713 0 0 0.70002,-1.16793 V 2.49615 a 0.79375,0.79375 135 0 1 0.79375,-0.79375 h 1.45506 a 0.79579737,0.79579737 44.926202 0 1 0.795795,0.7937474 z m 41.858603,-10e-8 0.05726,21.7661057 a 1.3401117,1.3401117 59.210947 0 0 0.699168,1.173376 l 2.954,1.608742 a 1.3361003,1.3361003 59.286315 0 1 0.69708,1.173379 v 21.80834 a 0.79375,0.79375 135 0 1 -0.79375,0.79375 h -10.29474 a 0.79375,0.79375 45 0 1 -0.79375,-0.79375 V 28.21775 a 1.3243111,1.3243111 120.93713 0 1 0.70002,-1.16793 l 3.03004,-1.61964 a 1.3243111,1.3243111 120.93713 0 0 0.70002,-1.16793 V 2.49615 a 0.79375,0.79375 135 0 1 0.79375,-0.79375 l 1.45506,0 a 0.79584099,0.79584099 44.924632 0 1 0.795838,0.7937473 z m 10.846384,0 -0.05726,21.7661057 a 1.3401117,1.3401117 120.78905 0 1 -0.699168,1.173376 l -2.954,1.608742 a 1.3361003,1.3361003 120.71368 0 0 -0.69708,1.173379 v 21.80834 a 0.79375,0.79375 45 0 0 0.79375,0.79375 h 10.29346 a 0.79375,0.79375 135 0 0 0.79375,-0.79375 V 28.21775 a 1.3244915,1.3244915 59.066309 0 0 -0.699975,-1.168014 l -3.02885,-1.619472 A 1.3244915,1.3244915 59.066309 0 1 78.781441,24.26225 V 2.49615 A 0.79375,0.79375 45 0 0 77.987691,1.7024 l -1.45506,0 a 0.79584099,0.79584099 135.07537 0 0 -0.795838,0.7937473 z m -66.6185438,0 0.057264,21.7661057 a 1.3401117,1.3401117 59.210947 0 0 0.6991686,1.173376 l 2.9539996,1.608742 a 1.3361003,1.3361003 59.286315 0 1 0.69708,1.173379 v 21.80834 a 0.79375,0.79375 135 0 1 -0.79375,0.79375 H 2.437271 A 0.79375,0.79375 45 0 1 1.643521,50.02609 V 28.21775 a 3987.6017,3987.6017 89.988595 0 0 -3.16e-4,-1.5875 L 1.633597,2.4961499 A 0.79343406,0.79343406 134.9886 0 1 2.427031,1.7024 h 2.85154 3.04384 a 0.79584099,0.79584099 44.924632 0 1 0.7958382,0.7937473 z m 24.7510238,0 -0.05726,21.7661057 a 1.3401117,1.3401117 120.78905 0 1 -0.699168,1.173376 l -2.954,1.608742 a 1.3361003,1.3361003 120.71368 0 0 -0.69708,1.173379 v 21.80834 a 0.79375,0.79375 45 0 0 0.79375,0.79375 h 10.29346 a 0.79375,0.79375 135 0 0 0.79375,-0.79375 V 28.21775 a 4537.0046,4537.0046 90.010024 0 1 2.78e-4,-1.5875 l 0.0084,-24.1341 A 0.79347232,0.79347232 45.010024 0 0 40.557971,1.7024 h -2.85154 l -3.04132,0 a 0.79584099,0.79584099 135.07537 0 0 -0.795838,0.7937473 z m 17.107536,0 0.05726,21.7661057 a 1.3401117,1.3401117 59.210947 0 0 0.699168,1.173376 l 2.954,1.608742 a 1.3361003,1.3361003 59.286315 0 1 0.69708,1.173379 v 21.80834 a 0.79375,0.79375 135 0 1 -0.79375,0.79375 h -10.29346 a 0.79375,0.79375 45 0 1 -0.79375,-0.79375 V 28.21775 a 3987.6017,3987.6017 89.988595 0 0 -3.16e-4,-1.5875 L 43.493437,2.4961499 A 0.79343406,0.79343406 134.9886 0 1 44.286871,1.7024 h 2.85282 3.04128 a 0.79584099,0.79584099 44.924632 0 1 0.795838,0.7937473 z m 38.673584,0 -0.05726,21.7661057 a 1.3401117,1.3401117 120.78905 0 1 -0.699168,1.173376 l -2.954,1.608742 a 1.3361003,1.3361003 120.71368 0 0 -0.69708,1.173379 v 21.80834 a 0.79375,0.79375 45 0 0 0.79375,0.79375 h 10.29346 a 0.79375,0.79375 135 0 0 0.79375,-0.79375 V 28.21775 a 4537.0046,4537.0046 90.010024 0 1 2.78e-4,-1.5875 l 0.0084,-24.1341 A 0.79347232,0.79347232 45.010024 0 0 96.339091,1.7024 h -2.85154 l -3.04132,0 a 0.79584099,0.79584099 135.07537 0 0 -0.795838,0.7937473 z"
       id="path40"
       inkscape:connector-curvature="0"
       style="fill:#999999;stroke:#000000;stroke-width:0.265"
       inkscape:path-effect="#path-effect1533"
       inkscape:original-d="m 23.029761,1.7024 0.06016,23.3536 4.34944,2.368 V 50.81984 H 15.557121 V 27.424 l 4.43008,-2.368 V 1.7024 Z m 41.85856,0 0.06144,23.3536 4.34816,2.368 V 50.81984 H 57.415681 V 27.424 l 4.43008,-2.368 V 1.7024 Z m 10.85056,0 -0.06144,23.3536 -4.34816,2.368 v 23.39584 h 11.88096 V 27.424 l -4.4288,-2.368 V 1.7024 Z m -66.62272,0 0.06144,23.3536 4.34816,2.368 V 50.81984 H 1.643521 V 27.424 L 1.633281,1.7024 h 4.43904 z m 24.7552,0 -0.06144,23.3536 -4.34816,2.368 v 23.39584 h 11.88096 V 27.424 l 0.009,-25.7216 h -4.43904 z m 17.10336,0 0.06144,23.3536 4.34816,2.368 V 50.81984 H 43.503361 V 27.424 L 43.493121,1.7024 h 4.44032 z m 38.67776,0 -0.06144,23.3536 -4.34816,2.368 v 23.39584 h 11.88096 V 27.424 l 0.009,-25.7216 h -4.43904 z" />
  </g>
</svg>
