<?xml version="1.0" encoding="UTF-8" standalone="no"?>
<!-- Created with Inkscape (http://www.inkscape.org/) -->

<svg
   width="67.732002mm"
   height="28.448mm"
   viewBox="0 0 67.732002 28.448"
   version="1.1"
   id="svg927"
   inkscape:version="1.1.1 (3bf5ae0d25, 2021-09-20)"
   sodipodi:docname="KeyboardMed.svg"
   xmlns:inkscape="http://www.inkscape.org/namespaces/inkscape"
   xmlns:sodipodi="http://sodipodi.sourceforge.net/DTD/sodipodi-0.dtd"
   xmlns="http://www.w3.org/2000/svg"
   xmlns:svg="http://www.w3.org/2000/svg">
  <sodipodi:namedview
     id="namedview929"
     pagecolor="#ffffff"
     bordercolor="#666666"
     borderopacity="1.0"
     inkscape:pageshadow="2"
     inkscape:pageopacity="0.0"
     inkscape:pagecheckerboard="0"
     inkscape:document-units="mm"
     showgrid="false"
     width="67.732mm"
     inkscape:zoom="2.2129279"
     inkscape:cx="106.87199"
     inkscape:cy="29.146905"
     inkscape:window-width="1920"
     inkscape:window-height="1057"
     inkscape:window-x="-8"
     inkscape:window-y="1072"
     inkscape:window-maximized="1"
     inkscape:current-layer="layer1" />
  <defs
     id="defs924">
    <inkscape:path-effect
       effect="fillet_chamfer"
       id="path-effect823"
       is_visible="true"
       lpeversion="1"
       satellites_param="F,0,0,1,0,0.52916667,0,1 @ F,0,0,1,0,0.52916667,0,1 @ F,0,0,1,0,0.52916667,0,1 @ F,0,0,1,0,0.52916667,0,1 @ F,0,0,1,0,0.52916667,0,1 @ F,0,0,1,0,0.52916667,0,1 @ F,0,0,1,0,0.52916667,0,1 @ F,0,0,1,0,0.52916667,0,1 | F,0,0,1,0,0.52916667,0,1 @ F,0,0,1,0,0.52916667,0,1 @ F,0,0,1,0,0.52916667,0,1 @ F,0,0,1,0,0.52916667,0,1 @ F,0,0,1,0,0.52916667,0,1 @ F,0,0,1,0,0.52916667,0,1 @ F,0,0,1,0,0.52916667,0,1 @ F,0,0,1,0,0.52916667,0,1 | F,0,0,1,0,0.52916667,0,1 @ F,0,0,1,0,0.52916667,0,1 @ F,0,0,1,0,0.52916667,0,1 @ F,0,0,1,0,0.52916667,0,1 @ F,0,0,1,0,0.52916667,0,1 @ F,0,0,1,0,0.52916667,0,1 @ F,0,0,1,0,0.52916667,0,1 @ F,0,0,1,0,0.52916667,0,1 | F,0,0,1,0,0.52916667,0,1 @ F,0,0,1,0,0.52916667,0,1 @ F,0,0,1,0,0.52916667,0,1 @ F,0,0,1,0,0.52916667,0,1 @ F,0,0,1,0,0.52916667,0,1 @ F,0,0,1,0,0.52916667,0,1 @ F,0,0,1,0,0.52916667,0,1 @ F,0,0,1,0,0.52916667,0,1 | F,0,0,1,0,0.52916667,0,1 @ F,0,0,1,0,0.52916667,0,1 @ F,0,0,1,0,0.52916667,0,1 @ F,0,0,1,0,0.52916667,0,1 @ F,0,0,1,0,0.52916667,0,1 @ F,0,0,1,0,0.52916667,0,1 @ F,0,0,1,0,0.52916667,0,1 @ F,0,0,1,0,0.52916667,0,1 | F,0,0,1,0,0.52916667,0,1 @ F,0,0,1,0,0.52916667,0,1 @ F,0,0,1,0,0.52916667,0,1 @ F,0,0,1,0,0.52916667,0,1 @ F,0,0,1,0,0.52916667,0,1 @ F,0,0,1,0,0.52916667,0,1 @ F,0,0,1,0,0.52916667,0,1 @ F,0,0,1,0,0.52916667,0,1 | F,0,0,1,0,0.52916667,0,1 @ F,0,0,1,0,0.52916667,0,1 @ F,0,0,1,0,0.52916667,0,1 @ F,0,0,1,0,0.52916667,0,1 @ F,0,0,1,0,0.52916667,0,1 @ F,0,0,1,0,0.52916667,0,1 @ F,0,0,1,0,0.52916667,0,1 @ F,0,0,1,0,0.52916667,0,1"
       unit="px"
       method="auto"
       mode="F"
       radius="2"
       chamfer_steps="1"
       flexible="false"
       use_knot_distance="true"
       apply_no_radius="true"
       apply_with_radius="true"
       only_selected="false"
       hide_knots="false" />
  </defs>
  <g
     inkscape:label="Layer 1"
     inkscape:groupmode="layer"
     id="layer1">
    <rect
       y="0"
       x="0"
       height="28.44788"
       width="67.732193"
       rx="0.6089977"
       ry="0.6089977"
       id="rect24"
       style="fill:#333333;stroke-width:0.999996;paint-order:markers stroke fill" />
    <path
       d="m 15.776428,1.7157156 0.03741,11.1502614 a 0.90184411,0.90184411 59.405037 0 0 0.464584,0.785728 l 2.052929,1.138064 A 0.89838801,0.89838801 59.501151 0 1 18.79416,15.5755 v 11.178415 a 0.52916667,0.52916667 135 0 1 -0.529167,0.529167 H 11.185121 A 0.52916667,0.52916667 45 0 1 10.655954,26.753915 V 15.5755 a 0.89050291,0.89050291 120.7202 0 1 0.464778,-0.782147 l 2.104032,-1.145232 a 0.89050291,0.89050291 120.7202 0 0 0.464778,-0.782147 V 1.7169986 a 0.52949161,0.52949161 134.98241 0 1 0.529167,-0.5294915 l 1.026777,-6.304e-4 a 0.53061917,0.53061917 44.8863 0 1 0.530942,0.5288389 z m 28.669376,-2e-7 0.03858,11.1502616 a 0.90195257,0.90195257 59.402038 0 0 0.46464,0.785728 l 2.052928,1.138064 a 0.89838815,0.89838815 59.501155 0 1 0.462809,0.785731 v 11.178415 a 0.52916667,0.52916667 135 0 1 -0.529167,0.529167 H 39.854441 A 0.52916667,0.52916667 45 0 1 39.325274,26.753915 V 15.5755 a 0.8903235,0.8903235 120.72527 0 1 0.464823,-0.782065 l 2.105221,-1.145396 a 0.8903235,0.8903235 120.72527 0 0 0.464823,-0.782065 V 1.7169986 a 0.52949181,0.52949181 134.9824 0 1 0.529167,-0.5294917 l 1.025498,-6.3e-4 a 0.53067461,0.53067461 44.883286 0 1 0.530998,0.5288385 z m 7.427987,0 -0.03858,11.1502616 a 0.90214066,0.90214066 120.59275 0 1 -0.464594,0.785812 l -2.051742,1.137896 A 0.89857514,0.89857514 120.49363 0 0 48.856114,15.5755 v 11.178415 a 0.52916667,0.52916667 45 0 0 0.529167,0.529167 l 7.078595,0 a 0.52916667,0.52916667 135 0 0 0.529167,-0.529167 V 15.5755 A 0.89050263,0.89050263 59.279792 0 0 56.528265,14.793353 L 54.424231,13.648121 A 0.89050263,0.89050263 59.279792 0 1 53.959453,12.865974 V 1.7169986 A 0.52949181,0.52949181 45.017597 0 0 53.430286,1.1875069 l -1.025497,-6.3e-4 a 0.53067461,0.53067461 135.11671 0 0 -0.530998,0.5288385 z m -45.6281477,0 0.038578,11.1502616 a 0.90195228,0.90195228 59.40203 0 0 0.4646401,0.785728 l 2.0529294,1.138064 A 0.89838786,0.89838786 59.501147 0 1 9.2646005,15.5755 V 26.753915 A 0.52916667,0.52916667 135 0 1 8.7354338,27.283082 H 1.6555602 A 0.52916667,0.52916667 45 0 1 1.1263935,26.753915 V 15.5755 a 1904.9701,1904.9701 89.984084 0 0 -2.94e-4,-1.058334 L 1.1189875,1.7157185 A 0.52887277,0.52887277 134.98408 0 1 1.6478602,1.1865519 h 1.9829336 l 2.083852,0 a 0.53100068,0.53100068 44.900883 0 1 0.5309975,0.5291635 z m 16.9524277,0 -0.03858,11.1502616 a 0.90195228,0.90195228 120.59797 0 1 -0.46464,0.785728 l -2.05293,1.138064 A 0.89838786,0.89838786 120.49885 0 0 20.179114,15.5755 v 11.178415 a 0.52916667,0.52916667 45 0 0 0.529167,0.529167 h 7.079872 A 0.52916667,0.52916667 135 0 0 28.31732,26.753915 V 15.5755 a 2291.7054,2291.7054 90.01323 0 1 2.44e-4,-1.058334 l 0.0059,-12.8001675 A 0.52892235,0.52892235 45.01323 0 0 27.794553,1.1878319 H 25.81162 a 1721.9011,1721.9011 0.01760787 0 1 -1.058334,-3.252e-4 l -1.024217,-6.296e-4 a 0.53067441,0.53067441 135.11673 0 0 -0.530998,0.5288383 z m 11.718172,0 0.03858,11.1502616 a 0.90214066,0.90214066 59.407252 0 0 0.464594,0.785812 l 2.051742,1.137896 A 0.89857514,0.89857514 59.506369 0 1 37.93392,15.5755 l 0,11.178415 a 0.52916667,0.52916667 135 0 1 -0.529167,0.529167 l -7.078592,0 A 0.52916667,0.52916667 45 0 1 29.796994,26.753915 V 15.5755 A 1904.7941,1904.7941 89.984083 0 0 29.7967,14.517166 l -0.0071,-12.8001675 a 0.52887274,0.52887274 134.98408 0 1 0.528873,-0.5291666 h 1.982933 a 1722.9759,1722.9759 179.9824 0 0 1.058334,-3.25e-4 l 1.025517,-6.3e-4 a 0.53067461,0.53067461 44.883286 0 1 0.530998,0.5288385 z m 26.487163,2e-7 -0.03745,11.1502614 a 0.90184705,0.90184705 120.59507 0 1 -0.464586,0.785727 l -2.052932,1.138066 a 0.89838757,0.89838757 120.49886 0 0 -0.462809,0.78573 l 0,11.178415 a 0.52916667,0.52916667 45 0 0 0.529167,0.529167 h 7.078596 a 0.52916667,0.52916667 135 0 0 0.529167,-0.529167 V 15.5755 a 2444.4857,2444.4857 90.012403 0 1 2.29e-4,-1.058334 l 0.0055,-12.8001675 A 0.52893762,0.52893762 45.012403 0 0 65.999396,1.1878319 H 64.01774 A 1722.5948,1722.5948 0.01760078 0 1 62.959406,1.1875068 L 61.93435,1.186877 a 0.53062064,0.53062064 135.11381 0 0 -0.530944,0.5288386 z"
       id="path26"
       inkscape:connector-curvature="0"
       style="fill:#999999;stroke:#000000;stroke-width:0.264999"
       inkscape:path-effect="#path-effect823"
       inkscape:original-d="m 15.774653,1.1865519 0.04096,12.2085891 2.978547,1.651192 V 27.283082 H 10.655954 V 15.046333 l 3.033588,-1.651192 V 1.1878319 Z m 28.66932,0 0.04224,12.2085891 2.978546,1.651192 V 27.283082 H 39.325274 V 15.046333 l 3.034867,-1.651192 V 1.1878319 Z m 7.431649,0 -0.04224,12.2085891 -2.977268,1.651192 v 12.236749 h 8.136929 V 15.046333 l -3.03359,-1.651192 V 1.1878319 Z m -45.6318095,0 0.04224,12.2085891 2.978548,1.651192 V 27.283082 H 1.1263935 V 15.046333 l -0.0077,-13.8597811 h 3.041267 z m 16.9560895,0 -0.04224,12.2085891 -2.978548,1.651192 V 27.283082 H 28.31732 V 15.046333 l 0.0064,-13.8585011 h -3.041267 z m 11.71451,0 0.04224,12.2085891 2.977268,1.651192 V 27.283082 H 29.796994 V 15.046333 l -0.0077,-13.8585011 h 3.041267 z m 26.490771,0 -0.041,12.2085891 -2.97855,1.651192 v 12.236749 h 8.13693 V 15.046333 l 0.006,-13.8585011 h -3.03999 z" />
  </g>
</svg>
