<svg xmlns="http://www.w3.org/2000/svg" width="90" height="380" viewBox="0 0 23.813 100.542"><path d="M0 0h23.813v100.541H0zm0 0" fill="#dcdcdc"/><g style="line-height:1.25"><path style="-inkscape-font-specification:'Arial, Normal';font-variant-ligatures:normal;font-variant-caps:normal;font-variant-numeric:normal;font-feature-settings:normal;text-align:start" d="M12.383 96.87l-1.63.115v-2.06q0-.23.064-.333.064-.104.22-.147.153-.043.348-.002.223.047.356.19.134.146.134.33 0 .186-.158.286-.158.103-.408.05-.082-.018-.143-.044-.064-.027-.205-.11v1.345l1.22-.085v-1.554q0-.225.064-.337.066-.11.226-.151.16-.04.348 0 .223.047.354.19.13.14.13.325 0 .195-.156.294-.156.1-.408.047-.16-.034-.356-.16z" font-size="3.528" aria-label="♫" font-family="Arial" font-weight="400" letter-spacing="0" word-spacing="0" fill="#333"/></g><rect rx="2.34" ry="2.34" y="-22.225" x="-92.952" height="20.638" width="12.965" transform="matrix(0 -1 -1 0 0 0)" fill="#999" paint-order="stroke markers fill"/><text style="line-height:1.25" x="6.615" y="13.309" font-weight="400" font-size="10.584" font-family="sans-serif" letter-spacing="0" word-spacing="0" stroke-width=".265"/><g style="line-height:1.25"><path d="M17.656 83.005q-.003.107-.003.234t-.008.237q-.006.085-.04.11-.03.023-.087.023-.051 0-.08-.02-.025-.017-.04-.076-.01-.062-.013-.178-.003-.12-.003-.316-.093 0-.177.003l-.164.002q-.12 0-.217-.005-.096-.006-.167-.02-.068-.017-.107-.045-.037-.028-.037-.073 0-.063.05-.156.052-.096.128-.206.076-.11.16-.223l.162-.214.096-.124q.065-.082.138-.16.073-.083.147-.142.073-.06.124-.06.048 0 .085.03.036.033.042.145.01.164.014.345.003.178.003.352v.28q.079.005.127.014.048.01.073.025.026.015.034.037.008.023.008.057 0 .07-.064.096-.065.022-.184.028zm-.276-.923l-.212.257-.147.18q-.06.077-.104.13l-.077.096q.13-.006.266-.006l.274-.002z" style="-inkscape-font-specification:'Sniglet, Normal';font-variant-ligatures:normal;font-variant-caps:normal;font-variant-numeric:normal;font-feature-settings:normal;text-align:start" font-size="2.822" aria-label="4" font-weight="400" letter-spacing="0" word-spacing="0" font-family="Sniglet"/></g><g aria-label="QNT" style="line-height:1.25" font-weight="400" font-size="2.822" font-family="Sniglet" letter-spacing="0" word-spacing="0" stroke-width=".265"><path d="M10.236 83.522q-.17 0-.319-.068-.146-.068-.256-.195-.11-.13-.175-.316-.063-.186-.063-.423 0-.223.054-.41.057-.186.164-.321.11-.136.27-.209.162-.076.373-.076.172 0 .328.062.155.062.27.186.12.124.187.31.068.187.068.435 0 .203-.054.384-.05.18-.158.322l.16.132q.032.026.057.065.028.037.028.085 0 .056-.045.09-.045.034-.107.034-.079 0-.166-.079l-.147-.127q-.096.057-.212.088-.116.03-.257.03zm.006-.266q.155 0 .27-.062.117-.065.193-.169.076-.104.113-.24.036-.138.036-.282 0-.175-.048-.31-.045-.139-.124-.232t-.183-.141q-.105-.05-.223-.05-.141 0-.249.058-.104.06-.177.161-.071.102-.108.24-.036.136-.036.29 0 .167.042.306.042.135.113.231.073.096.172.15.099.05.209.05zM12.538 83.36q-.09-.123-.172-.245l-.172-.27q-.09-.147-.21-.325-.115-.18-.279-.42v.38q0 .167-.003.31l-.005.272q-.003.127-.009.254-.002.067-.014.104-.008.037-.025.057-.017.02-.04.022-.02.006-.048.006-.05 0-.084-.034-.034-.037-.04-.153-.014-.31-.017-.62v-.647q0-.189.003-.296.006-.107.02-.161.017-.054.042-.068.028-.014.074-.014.045 0 .118.07.073.068.16.181.088.113.187.26.102.147.2.302.1.155.19.308l.169.276q-.003-.132-.003-.29v-.356q0-.223.003-.367.003-.147.014-.231.014-.085.042-.119.029-.034.08-.034.047 0 .084.031.037.031.042.144l.009.18.006.159q.002.076.002.16v.43q0 .115-.002.228l-.006.229q-.003.116-.009.243-.002.067-.014.104-.008.037-.025.057-.017.02-.04.022-.02.006-.048.006-.048 0-.081-.029-.034-.028-.1-.115zM14.299 81.778q-.08.005-.17.008l-.195.006.006.144.006.132q.002.068.002.141.003.074.003.164v.246q0 .115-.003.234l-.005.234q-.003.119-.009.246-.002.067-.014.104-.008.037-.025.056-.017.02-.04.023-.022.006-.05.006-.051 0-.088-.034-.034-.037-.04-.153-.005-.101-.008-.214 0-.113-.003-.243t-.003-.28v-.335-.271q.003-.116.009-.2h-.116q-.118 0-.203-.003-.082-.003-.135-.014-.054-.014-.08-.043-.022-.028-.022-.079 0-.025.006-.045.005-.022.025-.04.02-.02.054-.03.036-.012.093-.017l.096-.006.084-.006q.043-.002.088-.002h.104q.167 0 .314.002.15.003.316.012.067.005.104.017.037.008.056.025.02.017.023.04.006.022.006.05 0 .051-.037.085-.034.034-.15.04z" style="-inkscape-font-specification:'Sniglet, Normal';font-variant-ligatures:normal;font-variant-caps:normal;font-variant-numeric:normal;font-feature-settings:normal;text-align:start"/></g><rect rx="2.34" ry="2.34" y="-22.225" x="-50.353" height="20.638" width="12.965" transform="matrix(0 -1 -1 0 0 0)" fill="#999" paint-order="stroke markers fill"/><g style="line-height:1.25"><path d="M6.682 40.823q-.005-.1-.008-.21 0-.11-.003-.238-.003-.127-.003-.274v-.686l-.17.088q-.07.045-.112.053-.04.01-.087.01-.043 0-.076-.038-.03-.036-.03-.087 0-.05.032-.088.037-.04.085-.07.062-.043.133-.085.073-.042.14-.076.07-.037.125-.057.06-.022.1-.022.02 0 .04.005.021.006.038.023.02.017.03.054.015.033.018.093l.008.178.006.15q.003.07.003.15v.425q0 .116-.003.228l-.006.23-.008.242q-.003.067-.014.104-.01.037-.026.057-.017.02-.04.022-.02.006-.047.006-.05 0-.085-.034-.034-.037-.04-.152z" style="-inkscape-font-specification:'Sniglet, Normal';font-variant-ligatures:normal;font-variant-caps:normal;font-variant-numeric:normal;font-feature-settings:normal;text-align:start" font-size="2.822" aria-label="1" font-weight="400" letter-spacing="0" word-spacing="0" font-family="Sniglet"/></g><g style="line-height:1.25"><path d="M6.199 81.9q-.09 0-.132-.046-.043-.048-.043-.096 0-.05.048-.082.048-.034.127-.05.08-.02.18-.026.103-.01.207-.01.087 0 .195.01.107.006.2.034.093.025.155.08.062.05.062.14 0 .07-.053.147-.054.076-.124.144-.071.067-.142.12l-.098.074q.299 0 .434.15.136.15.136.43 0 .174-.065.304-.062.13-.17.217-.104.085-.242.127-.136.042-.28.042-.118 0-.234-.02-.113-.02-.203-.067-.09-.05-.147-.133-.053-.084-.053-.21 0-.13.14-.13.043 0 .066.024.025.02.042.05.02.03.04.066.02.037.056.068.04.028.102.05.064.02.169.02.082 0 .16-.017.08-.02.142-.062.062-.042.099-.113.04-.073.04-.18 0-.21-.088-.297-.085-.087-.24-.087-.04 0-.074.014-.034.01-.067.028l-.07.028q-.038.012-.083.012-.045 0-.079-.04-.034-.042-.034-.107 0-.045.043-.105.045-.06.121-.135.079-.076.19-.166.11-.094.245-.2h-.068l-.076.002h-.347q-.102-.003-.187-.003z" style="-inkscape-font-specification:'Sniglet, Normal';font-variant-ligatures:normal;font-variant-caps:normal;font-variant-numeric:normal;font-feature-settings:normal;text-align:start" font-size="2.822" aria-label="3" font-weight="400" letter-spacing="0" word-spacing="0" font-family="Sniglet"/></g><g aria-label="QNT" style="line-height:1.25" font-weight="400" font-size="2.822" font-family="Sniglet" letter-spacing="0" word-spacing="0" stroke-width=".265"><path d="M10.236 40.923q-.17 0-.319-.068-.146-.068-.256-.195-.11-.13-.175-.316-.063-.186-.063-.423 0-.223.054-.41.056-.186.164-.321.11-.135.27-.209.162-.076.373-.076.172 0 .328.062.155.062.27.186.12.125.187.31.068.187.068.435 0 .204-.054.384-.05.18-.158.322l.16.133q.032.025.057.065.028.036.028.084 0 .057-.045.09-.045.034-.107.034-.079 0-.166-.079l-.147-.127q-.096.057-.212.088-.116.03-.257.03zm.006-.265q.155 0 .27-.062.116-.065.193-.17.076-.104.113-.24.036-.138.036-.282 0-.175-.048-.31-.045-.139-.124-.232t-.183-.14q-.105-.052-.223-.052-.141 0-.249.06-.104.059-.177.16-.071.102-.108.24-.036.136-.036.291 0 .166.042.305.042.135.113.231.073.096.172.15.099.05.209.05zM12.538 40.762q-.09-.124-.172-.246l-.173-.27q-.09-.147-.208-.325-.116-.18-.28-.42v.38q0 .167-.003.31l-.005.272q-.003.127-.009.254-.002.068-.014.104-.008.037-.025.057-.017.02-.04.022-.02.006-.048.006-.05 0-.084-.034-.034-.037-.04-.152-.014-.31-.017-.621v-.647q0-.189.003-.296.006-.107.02-.16.017-.054.042-.069.028-.014.074-.014.045 0 .118.07.073.069.16.182.088.112.187.26.102.146.2.301.1.155.19.308l.169.276q-.003-.132-.003-.29v-.356q0-.223.003-.367.003-.147.014-.231.014-.085.042-.119.029-.034.08-.034.047 0 .084.031.037.031.042.144l.009.181.006.158q.002.076.002.16v.43q0 .116-.002.229l-.006.228q-.003.116-.009.243-.002.068-.014.104-.008.037-.025.057-.017.02-.04.022-.02.006-.048.006-.048 0-.081-.028-.034-.029-.1-.116zM14.299 39.179q-.08.005-.17.008l-.195.006.006.144.006.132q.002.068.002.142.003.073.003.163v.246q0 .115-.003.234l-.005.234q-.003.119-.009.246-.002.068-.014.104-.008.037-.025.057-.017.02-.04.022-.022.006-.05.006-.051 0-.088-.034-.034-.037-.04-.152-.005-.102-.008-.215 0-.113-.003-.243t-.003-.28v-.335-.27q.003-.117.009-.201h-.116q-.118 0-.203-.003-.082-.003-.135-.014-.054-.014-.08-.042-.022-.029-.022-.08 0-.025.006-.045.005-.022.025-.04.02-.019.054-.03.036-.011.093-.017l.096-.006.084-.005q.043-.003.088-.003h.104q.167 0 .314.003.15.002.316.011.067.006.104.017.037.008.056.025.02.017.023.04.006.022.006.05 0 .051-.037.085-.034.034-.15.04z" style="-inkscape-font-specification:'Sniglet, Normal';font-variant-ligatures:normal;font-variant-caps:normal;font-variant-numeric:normal;font-feature-settings:normal;text-align:start"/></g><g aria-label="OCT" style="line-height:1.25" font-weight="400" font-size="2.822" font-family="Sniglet" letter-spacing="0" word-spacing="0" stroke-width=".265"><path d="M10.261 68.792q-.17 0-.319-.068-.146-.067-.257-.194-.11-.13-.175-.316-.062-.187-.062-.424 0-.223.054-.409.056-.186.164-.322.11-.135.27-.209.161-.076.373-.076.172 0 .328.062.155.062.27.187.119.124.187.31.067.186.067.435 0 .206-.056.392-.054.186-.166.327-.11.139-.28.223-.17.082-.398.082zm.006-.265q.155 0 .27-.062.116-.065.193-.17.076-.104.113-.24.036-.138.036-.282 0-.175-.048-.31-.045-.138-.124-.232-.079-.093-.183-.14-.105-.051-.223-.051-.141 0-.249.059-.104.06-.178.16-.07.102-.107.24-.036.136-.036.291 0 .167.042.305.042.136.113.232.073.095.172.15.099.05.209.05zM12.266 66.766q.094 0 .187.017.096.014.172.048.076.03.124.079.05.045.05.107 0 .065-.033.099-.034.034-.085.034-.048 0-.084-.014l-.085-.037q-.045-.02-.11-.034-.065-.017-.172-.017-.108 0-.206.056-.096.054-.17.153-.07.096-.113.228-.042.133-.042.288 0 .192.048.33.05.139.13.23.079.087.178.132.101.042.203.042.121 0 .203-.025.082-.026.138-.057.06-.03.102-.056.042-.026.082-.026.048 0 .076.029.028.025.028.093 0 .056-.045.116-.042.056-.127.104-.082.045-.197.076-.116.028-.26.028-.158 0-.316-.062-.155-.062-.28-.183-.12-.124-.197-.308-.076-.186-.076-.432 0-.245.067-.437.071-.192.19-.325.12-.135.279-.206.16-.07.341-.07zM14.18 67.048q-.079.006-.17.009l-.194.005.006.144.005.133q.003.067.003.14.003.074.003.165v.245q0 .116-.003.234l-.006.235q-.002.118-.008.245-.003.068-.014.105-.009.036-.026.056-.016.02-.04.023-.022.005-.05.005-.05 0-.087-.034-.034-.036-.04-.152-.005-.102-.008-.215 0-.112-.003-.242t-.003-.28v-.336-.27q.003-.116.009-.2h-.116q-.119 0-.203-.004-.082-.003-.136-.014-.053-.014-.079-.042-.022-.028-.022-.08 0-.025.005-.044.006-.023.026-.04.02-.02.053-.03.037-.012.093-.018l.096-.005.085-.006q.042-.003.087-.003h.105q.166 0 .313.003.15.003.316.011.068.006.105.017.036.009.056.026.02.017.023.04.005.022.005.05 0 .05-.036.085-.034.033-.15.04z" style="-inkscape-font-specification:'Sniglet, Normal';font-variant-ligatures:normal;font-variant-caps:normal;font-variant-numeric:normal;font-feature-settings:normal;text-align:start"/></g><g style="line-height:1.25"><path d="M17.656 55.488q-.003.107-.003.234t-.008.237q-.006.085-.04.11-.03.023-.087.023-.051 0-.08-.02-.025-.017-.04-.076-.01-.062-.013-.178-.003-.12-.003-.316-.093 0-.177.003l-.164.002q-.12 0-.217-.005-.096-.006-.167-.02-.068-.017-.107-.045-.037-.028-.037-.073 0-.063.05-.156.052-.096.128-.206.076-.11.16-.223l.162-.214.096-.124q.065-.082.138-.161.073-.082.147-.141.073-.06.124-.06.048 0 .085.03.036.033.042.145.01.164.014.345.003.178.003.352v.28q.079.005.127.014.048.009.073.025.026.015.034.037.008.023.008.057 0 .07-.064.096-.065.022-.184.028zm-.276-.923l-.212.257-.147.18q-.06.077-.104.13l-.077.096q.13-.006.266-.006l.274-.002z" style="-inkscape-font-specification:'Sniglet, Normal';font-variant-ligatures:normal;font-variant-caps:normal;font-variant-numeric:normal;font-feature-settings:normal;text-align:start" font-size="2.822" aria-label="4" font-weight="400" letter-spacing="0" word-spacing="0" font-family="Sniglet"/></g><g aria-label="IN" style="line-height:1.25" font-weight="400" font-size="2.822" font-family="Sniglet" letter-spacing="0" word-spacing="0" stroke-width=".265"><path d="M10.912 55.906q-.006-.102-.009-.212 0-.11-.003-.237t-.003-.274v-.333q0-.2.003-.341.003-.144.017-.235.014-.09.043-.132.03-.043.081-.043.026 0 .048.006.023.006.04.025.017.017.028.054.014.034.017.09l.009.181.005.158q.003.076.003.16v.43q0 .116-.003.229l-.005.228q-.003.116-.009.243-.003.068-.014.104-.011.037-.028.057-.017.02-.04.022-.022.006-.05.006-.051 0-.088-.034-.037-.037-.042-.152zM12.676 55.948q-.09-.124-.172-.245l-.172-.271q-.09-.147-.21-.325-.115-.18-.279-.42v.38q0 .167-.002.311l-.006.27q-.003.128-.009.255-.002.068-.014.104-.008.037-.025.057-.017.02-.04.022-.02.006-.048.006-.05 0-.084-.034-.034-.037-.04-.152-.014-.31-.017-.621v-.647q0-.189.003-.296.006-.107.02-.16.017-.054.042-.068.028-.015.074-.015.045 0 .118.071.073.068.161.18.087.114.186.26.102.147.2.302.1.155.19.308l.17.276q-.004-.132-.004-.29v-.356q0-.223.003-.367.003-.146.014-.231.014-.085.042-.119.029-.034.08-.034.047 0 .084.031.037.032.043.144l.008.181.006.158q.002.076.002.16v.43q0 .116-.002.229l-.006.228-.008.243q-.003.068-.015.104-.008.037-.025.057-.017.02-.04.022-.02.006-.047.006-.048 0-.082-.028-.034-.029-.1-.116z" style="-inkscape-font-specification:'Sniglet, Normal';font-variant-ligatures:normal;font-variant-caps:normal;font-variant-numeric:normal;font-feature-settings:normal;text-align:start"/></g><path d="M6.613 65.877v2.116" fill="none" stroke="#000" stroke-width=".132"/><g style="line-height:1.25"><path d="M17.164 39.283q-.1 0-.17.022-.068.02-.113.054t-.073.07l-.05.071q-.023.034-.052.057-.025.02-.065.02-.067 0-.096-.034-.025-.037-.025-.096 0-.125.093-.232.028-.034.076-.07.051-.04.12-.07.07-.032.16-.05.093-.024.21-.024.306 0 .476.15.17.15.17.42 0 .053-.012.118-.009.065-.037.136-.025.07-.073.146-.048.077-.127.156-.07.07-.15.13-.08.06-.164.118l-.178.127q-.09.065-.183.15.09.048.195.062.104.014.234.014.121 0 .195-.006.073-.005.118-.014l.07-.014q.026-.006.054-.006.105 0 .105.096 0 .085-.07.13t-.17.068q-.099.02-.203.023-.105.005-.172.005-.037 0-.105-.005-.065-.003-.14-.015-.077-.01-.156-.03-.076-.023-.14-.057-.063-.037-.103-.088-.04-.053-.04-.127 0-.098.071-.186.074-.09.18-.175.108-.087.232-.172.124-.087.232-.178.107-.093.177-.192.074-.098.074-.214 0-.144-.099-.215-.096-.073-.277-.073z" style="-inkscape-font-specification:'Sniglet, Normal';font-variant-ligatures:normal;font-variant-caps:normal;font-variant-numeric:normal;font-feature-settings:normal;text-align:start" font-size="2.822" aria-label="2" font-weight="400" letter-spacing="0" word-spacing="0" font-family="Sniglet"/></g><g style="line-height:1.25"><path d="M17.164 11.766q-.1 0-.17.022-.068.02-.113.054t-.073.07l-.05.071q-.023.034-.052.057-.025.02-.065.02-.067 0-.096-.034-.025-.037-.025-.096 0-.125.093-.232.028-.034.076-.07.05-.04.12-.07.07-.032.16-.05.093-.024.21-.024.306 0 .476.15.17.15.17.42 0 .053-.012.118-.01.065-.037.136-.025.07-.073.146-.048.077-.127.156-.07.07-.15.13-.08.06-.164.118l-.178.127q-.09.065-.183.15.09.048.195.062.104.014.234.014.12 0 .195-.006.073-.005.118-.014l.07-.014q.026-.006.054-.006.105 0 .105.096 0 .085-.07.13t-.17.068q-.1.02-.203.023-.105.005-.172.005-.037 0-.105-.005-.065-.003-.14-.015-.077-.01-.156-.03-.076-.023-.14-.057-.063-.037-.103-.088-.04-.053-.04-.127 0-.098.07-.186.075-.09.18-.175.109-.087.233-.172.124-.087.232-.178.107-.093.177-.192.074-.098.074-.214 0-.144-.1-.215-.095-.073-.276-.073z" style="-inkscape-font-specification:'Sniglet, Normal';font-variant-ligatures:normal;font-variant-caps:normal;font-variant-numeric:normal;font-feature-settings:normal;text-align:start" font-size="2.822" aria-label="2" font-weight="400" letter-spacing="0" word-spacing="0" font-family="Sniglet"/></g><path d="M17.207 65.882v2.116" fill="none" stroke="#000" stroke-width=".132"/><g aria-label="OCT" style="line-height:1.25" font-weight="400" font-size="2.822" font-family="Sniglet" letter-spacing="0" word-spacing="0" stroke-width=".265"><path d="M10.261 26.193q-.17 0-.319-.067-.146-.068-.257-.195-.11-.13-.175-.316-.062-.186-.062-.424 0-.222.054-.409.056-.186.164-.321.11-.136.27-.21.161-.076.373-.076.172 0 .328.063.155.062.27.186.119.124.187.31.067.187.067.435 0 .206-.056.392-.054.186-.166.328-.11.138-.28.223-.17.081-.398.081zm.006-.265q.155 0 .27-.062.116-.065.193-.17.076-.104.113-.24.036-.138.036-.281 0-.175-.048-.31-.045-.14-.124-.232-.079-.093-.183-.141-.105-.051-.223-.051-.141 0-.249.059-.104.06-.178.16-.07.103-.107.24-.036.136-.036.291 0 .167.042.305.042.136.113.232.073.096.172.15.099.05.209.05zM12.266 24.167q.094 0 .187.017.096.014.172.048.076.031.124.079.05.045.05.107 0 .065-.033.099-.034.034-.085.034-.048 0-.084-.014l-.085-.037q-.045-.02-.11-.034-.065-.017-.172-.017-.108 0-.206.057-.096.053-.17.152-.07.096-.113.229-.042.132-.042.288 0 .191.048.33.05.138.13.228.079.088.178.133.101.042.203.042.121 0 .203-.025.082-.025.138-.056.06-.032.102-.057.042-.025.082-.025.048 0 .076.028.028.025.028.093 0 .056-.045.116-.042.056-.127.104-.082.045-.197.076-.116.029-.26.029-.158 0-.316-.063-.155-.062-.28-.183-.12-.124-.197-.308-.076-.186-.076-.431 0-.246.067-.438.071-.192.19-.324.12-.136.279-.206.16-.071.341-.071zM14.18 24.45q-.079.005-.17.008l-.194.005.006.144.005.133q.003.068.003.141.003.073.003.164v.245q0 .116-.003.235l-.006.234q-.002.118-.008.245-.003.068-.014.105-.009.036-.026.056-.016.02-.04.023-.022.005-.05.005-.05 0-.087-.034-.034-.036-.04-.152-.005-.102-.008-.214 0-.113-.003-.243t-.003-.28v-.335-.271q.003-.116.009-.2h-.116q-.119 0-.203-.004-.082-.002-.136-.014-.053-.014-.079-.042-.022-.028-.022-.079 0-.025.005-.045.006-.023.026-.04.02-.02.053-.03.037-.012.093-.018l.096-.005.085-.006q.042-.003.087-.003h.105q.166 0 .313.003.15.003.316.011.068.006.105.017.036.009.056.026.02.017.023.04.005.022.005.05 0 .05-.036.085-.034.034-.15.04z" style="-inkscape-font-specification:'Sniglet, Normal';font-variant-ligatures:normal;font-variant-caps:normal;font-variant-numeric:normal;font-feature-settings:normal;text-align:start"/></g><g aria-label="IN" style="line-height:1.25" font-weight="400" font-size="2.822" font-family="Sniglet" letter-spacing="0" word-spacing="0" stroke-width=".265"><path d="M10.912 13.307q-.006-.102-.009-.212 0-.11-.003-.237t-.003-.274v-.333q0-.2.003-.341.003-.144.017-.234.014-.09.043-.133.03-.042.081-.042.026 0 .048.005.023.006.04.026.017.017.028.053.014.034.017.09l.009.181.005.158q.003.076.003.161v.429q0 .116-.003.229l-.005.228q-.003.116-.009.243-.003.068-.014.104-.011.037-.028.057-.017.02-.04.023-.022.005-.05.005-.051 0-.088-.034-.037-.036-.042-.152zM12.676 13.35q-.09-.125-.172-.246-.08-.124-.172-.271-.09-.147-.21-.325-.115-.18-.279-.42v.38q0 .167-.002.311l-.006.271q-.003.127-.009.254-.002.068-.014.105-.008.036-.025.056-.017.02-.04.023-.02.005-.048.005-.05 0-.084-.034-.034-.036-.04-.152-.014-.31-.017-.621v-.646q0-.19.003-.297.006-.107.02-.16.017-.054.042-.068.028-.014.074-.014.045 0 .118.07.073.068.161.18.087.114.186.26.102.147.2.302.1.156.19.308l.17.277q-.004-.133-.004-.291v-.356q0-.223.003-.367.003-.146.014-.231.014-.085.042-.119.029-.033.08-.033.047 0 .084.03.037.032.043.145l.008.18.006.158q.002.076.002.161v.429q0 .116-.002.229l-.006.228-.008.243q-.003.068-.015.104-.008.037-.025.057-.017.02-.04.023-.02.005-.047.005-.048 0-.082-.028t-.1-.116z" style="-inkscape-font-specification:'Sniglet, Normal';font-variant-ligatures:normal;font-variant-caps:normal;font-variant-numeric:normal;font-feature-settings:normal;text-align:start"/></g><path d="M6.613 23.278v2.116M17.207 23.284V25.4" fill="none" stroke="#000" stroke-width=".132"/><g style="line-height:1.25"><path d="M6.683 13.306q-.005-.1-.008-.21 0-.11-.003-.238-.003-.127-.003-.274v-.686l-.17.088q-.07.045-.112.053-.04.01-.088.01-.043 0-.076-.038-.03-.036-.03-.087 0-.05.032-.088.037-.04.085-.07.062-.043.134-.085.073-.042.14-.076.07-.037.125-.057.06-.022.1-.022.02 0 .04.005.02.006.038.023.02.017.03.054.015.033.018.093l.008.178.006.15q.003.07.003.15v.425q0 .116-.003.228l-.006.23-.008.242q-.003.067-.014.104-.01.037-.026.057-.017.02-.04.022-.02.006-.047.006-.05 0-.085-.034-.034-.037-.04-.152z" style="-inkscape-font-specification:'Sniglet, Normal';font-variant-ligatures:normal;font-variant-caps:normal;font-variant-numeric:normal;font-feature-settings:normal;text-align:start" font-size="2.822" aria-label="1" font-weight="400" letter-spacing="0" word-spacing="0" font-family="Sniglet"/></g><path d="M6.199 54.382q-.09 0-.132-.045-.043-.048-.043-.096 0-.05.048-.082.048-.034.127-.05.08-.02.18-.026.103-.01.207-.01.087 0 .195.01.107.006.2.034.093.025.155.079.062.05.062.14 0 .07-.053.148-.054.076-.124.144-.071.067-.142.12l-.098.074q.299 0 .434.15.136.15.136.429 0 .175-.065.305-.062.13-.17.217-.104.085-.242.127-.136.042-.28.042-.118 0-.234-.02-.113-.02-.203-.067-.09-.05-.147-.133-.053-.084-.053-.21 0-.13.14-.13.043 0 .066.024.025.02.042.05.02.029.04.066.02.037.056.068.04.028.102.05.064.02.169.02.082 0 .16-.017.08-.02.142-.062.062-.042.099-.113.04-.073.04-.18 0-.21-.088-.297-.085-.087-.24-.087-.04 0-.074.014-.034.01-.067.028l-.07.028q-.038.012-.083.012-.045 0-.079-.04-.034-.042-.034-.107 0-.045.043-.105.045-.06.121-.135.079-.076.19-.166.11-.094.245-.2h-.068l-.076.002h-.347q-.102-.003-.187-.003z" style="line-height:1.25;-inkscape-font-specification:'Sniglet, Normal';font-variant-ligatures:normal;font-variant-caps:normal;font-variant-numeric:normal;font-feature-settings:normal;text-align:start" font-size="2.822" aria-label="3" font-weight="400" letter-spacing="0" word-spacing="0" font-family="Sniglet"/><g aria-label="CHD-X" style="line-height:1.25" font-weight="400" font-size="3.881" font-family="Sniglet" letter-spacing="0" word-spacing="0" stroke-width=".265"><path d="M7.59 5.881q.128 0 .257.024.131.019.236.066.105.042.171.108.07.062.07.148 0 .089-.047.135-.046.047-.116.047-.066 0-.117-.02-.05-.023-.116-.05-.062-.027-.151-.046-.09-.024-.237-.024t-.283.078q-.132.074-.233.21-.097.131-.155.314-.059.182-.059.396 0 .264.066.454.07.19.179.314.109.12.244.182.14.059.28.059.167 0 .28-.035.112-.035.19-.078.08-.043.139-.078.058-.034.113-.034.066 0 .104.038.04.035.04.128 0 .078-.063.16-.058.077-.175.143-.112.062-.271.105-.16.039-.357.039-.218 0-.435-.086-.213-.085-.384-.252-.167-.17-.272-.423-.104-.256-.104-.594 0-.337.093-.601.097-.264.26-.446.167-.187.384-.284.221-.097.47-.097zM10.32 8.388l-.015-.438q-.004-.233-.004-.536l-.263.008h-.606q-.143 0-.256-.004l-.008.473q-.004.226-.015.493-.004.093-.02.144-.011.05-.035.077-.023.028-.054.032-.027.007-.066.007-.07 0-.116-.046-.047-.05-.055-.21-.007-.14-.011-.29 0-.152-.004-.327-.004-.174-.004-.376v-.458q0-.276.004-.47.004-.198.02-.322.019-.124.058-.182.038-.058.108-.058.066 0 .117.042.05.043.058.198.008.132.011.24l.008.21q.004.101.004.21v.24q.291-.011.57-.011.136 0 .272.004.14.004.283.011v-.112q0-.276.004-.47.004-.198.02-.322.02-.124.058-.182.039-.058.109-.058.066 0 .116.042.05.043.058.198.008.14.012.249l.008.217q.004.105.004.221V7.422q0 .159-.004.314l-.008.315q-.004.159-.012.333-.004.093-.02.144-.01.05-.034.077-.023.028-.054.032-.028.007-.066.007-.07 0-.117-.046-.046-.05-.054-.21zM11.948 5.885q.4 0 .64.12.241.12.37.319.127.198.166.45.043.252.043.512 0 .283-.074.536-.07.252-.221.442-.148.186-.38.299-.233.108-.555.108-.256 0-.412-.038-.151-.035-.236-.109-.082-.074-.109-.186-.027-.113-.027-.264v-1.46q0-.166.027-.302.031-.136.116-.229.086-.097.241-.147.16-.05.411-.05zm.016 2.398q.24 0 .396-.085.159-.09.252-.233.093-.143.128-.326.039-.182.039-.372 0-.175-.027-.35-.028-.178-.113-.322-.085-.143-.244-.233-.16-.089-.423-.089-.241 0-.334.07-.093.07-.093.214v1.486q0 .12.085.182.09.058.334.058zM14.852 7.659l-.412.015q-.233.004-.55.004-.133 0-.226-.004t-.151-.02q-.058-.019-.086-.057-.027-.04-.027-.11 0-.034.008-.061.008-.031.035-.055.027-.023.074-.038.05-.02.128-.028.058-.003.1-.007.047-.004.09-.004.043-.004.09-.004h.116q.21 0 .403.004.194 0 .404.011.093.008.143.024.05.011.078.035.027.023.03.054.009.031.009.07 0 .07-.05.116-.047.047-.206.055zM16.328 7.608l-.578.897q-.055.085-.12.128-.063.046-.144.046-.101 0-.144-.05-.038-.047-.038-.12 0-.043.015-.09.02-.046.05-.089l.722-1.032-.721-1.033q-.032-.042-.05-.089-.016-.046-.016-.089 0-.074.038-.12.043-.05.144-.05.081 0 .144.046.065.042.12.128l.578.896.578-.896q.055-.086.117-.128.066-.047.147-.047.101 0 .14.05.043.047.043.121 0 .043-.02.09-.015.046-.046.088l-.722 1.033.722 1.032q.03.043.046.09.02.046.02.088 0 .074-.043.12-.039.051-.14.051-.081 0-.147-.046-.062-.043-.117-.128z" style="-inkscape-font-specification:'Sniglet, Normal';font-variant-ligatures:normal;font-variant-caps:normal;font-variant-numeric:normal;font-feature-settings:normal;text-align:start"/></g></svg>