<?xml version="1.0" encoding="UTF-8" standalone="no"?>
<svg
   xmlns:dc="http://purl.org/dc/elements/1.1/"
   xmlns:cc="http://creativecommons.org/ns#"
   xmlns:rdf="http://www.w3.org/1999/02/22-rdf-syntax-ns#"
   xmlns:svg="http://www.w3.org/2000/svg"
   xmlns="http://www.w3.org/2000/svg"
   xmlns:sodipodi="http://sodipodi.sourceforge.net/DTD/sodipodi-0.dtd"
   xmlns:inkscape="http://www.inkscape.org/namespaces/inkscape"
   width="315"
   height="380"
   viewBox="0 0 83.34375 100.542"
   version="1.1"
   id="svg90"
   sodipodi:docname="ChordKey.svg"
   inkscape:version="0.92.4 (5da689c313, 2019-01-14)">
  <metadata
     id="metadata96">
    <rdf:RDF>
      <cc:Work
         rdf:about="">
        <dc:format>image/svg+xml</dc:format>
        <dc:type
           rdf:resource="http://purl.org/dc/dcmitype/StillImage" />
        <dc:title></dc:title>
      </cc:Work>
    </rdf:RDF>
  </metadata>
  <defs
     id="defs94" />
  <sodipodi:namedview
     pagecolor="#ffffff"
     bordercolor="#666666"
     borderopacity="1"
     objecttolerance="10"
     gridtolerance="10"
     guidetolerance="10"
     inkscape:pageopacity="0"
     inkscape:pageshadow="2"
     inkscape:window-width="1920"
     inkscape:window-height="1017"
     id="namedview92"
     showgrid="false"
     showguides="true"
     inkscape:guide-bbox="true"
     inkscape:zoom="4.4737287"
     inkscape:cx="104.95635"
     inkscape:cy="119.55223"
     inkscape:window-x="-8"
     inkscape:window-y="-8"
     inkscape:window-maximized="1"
     inkscape:current-layer="svg90">
    <sodipodi:guide
       position="41.804167,94.50854"
       orientation="1,0"
       id="guide905"
       inkscape:locked="false"
       inkscape:label=""
       inkscape:color="rgb(0,0,255)" />
    <sodipodi:guide
       position="64.822917,50.625351"
       orientation="1,0"
       id="guide945"
       inkscape:locked="false"
       inkscape:label=""
       inkscape:color="rgb(0,0,255)" />
    <sodipodi:guide
       position="74.6125,68.841014"
       orientation="1,0"
       id="guide947"
       inkscape:locked="false"
       inkscape:label=""
       inkscape:color="rgb(0,0,255)" />
    <sodipodi:guide
       position="52.916667,58.195496"
       orientation="1,0"
       id="guide949"
       inkscape:locked="false"
       inkscape:label=""
       inkscape:color="rgb(0,0,255)" />
    <sodipodi:guide
       position="30.427083,57.367512"
       orientation="1,0"
       id="guide984"
       inkscape:locked="false"
       inkscape:label=""
       inkscape:color="rgb(0,0,255)" />
    <sodipodi:guide
       position="72.787872,45.220831"
       orientation="0,1"
       id="guide986"
       inkscape:locked="false" />
    <sodipodi:guide
       position="13.49375,47.727404"
       orientation="1,0"
       id="guide854"
       inkscape:locked="false"
       inkscape:label=""
       inkscape:color="rgb(0,0,255)" />
    <sodipodi:guide
       position="7.9375,38.264722"
       orientation="1,0"
       id="guide882"
       inkscape:locked="false"
       inkscape:label=""
       inkscape:color="rgb(0,0,255)" />
    <sodipodi:guide
       position="19.05,34.420507"
       orientation="1,0"
       id="guide884"
       inkscape:locked="false"
       inkscape:label=""
       inkscape:color="rgb(0,0,255)" />
  </sodipodi:namedview>
  <path
     d="M 0,0 H 83.344028 V 100.541 H 0 Z m 0,0"
     id="path2"
     inkscape:connector-curvature="0"
     style="fill:#dcdcdc;stroke-width:1" />
  <rect
     rx="2.3399997"
     ry="2.3399997"
     y="52.537437"
     x="59.249744"
     height="40.413559"
     width="21.038887"
     id="rect4"
     style="fill:#999999;stroke-width:0.99999994;paint-order:stroke markers fill" />
  <g
     style="line-height:1.25"
     id="g8"
     transform="translate(1.9844894)">
    <path
       word-spacing="0"
       letter-spacing="0"
       font-weight="400"
       aria-label="♫"
       font-size="3.528"
       style="font-weight:400;font-size:3.52800012px;font-family:Arial;-inkscape-font-specification:'Arial, Normal';font-variant-ligatures:normal;font-variant-caps:normal;font-variant-numeric:normal;font-feature-settings:normal;text-align:start;letter-spacing:0;word-spacing:0;fill:#333333"
       d="m 48.15,96.87 -1.63,0.115 v -2.06 q 0,-0.23 0.065,-0.333 0.064,-0.104 0.22,-0.147 0.153,-0.043 0.348,-0.002 0.223,0.047 0.356,0.19 0.133,0.146 0.133,0.33 0,0.186 -0.157,0.286 -0.158,0.103 -0.408,0.05 -0.082,-0.018 -0.143,-0.044 -0.064,-0.027 -0.205,-0.11 v 1.345 l 1.219,-0.085 v -1.554 q 0,-0.225 0.065,-0.337 0.066,-0.11 0.226,-0.151 0.16,-0.04 0.348,0 0.223,0.047 0.354,0.19 0.13,0.14 0.13,0.325 0,0.195 -0.156,0.294 -0.156,0.1 -0.408,0.047 -0.16,-0.034 -0.357,-0.16 z"
       id="path6"
       inkscape:connector-curvature="0" />
  </g>
  <g
     style="line-height:1.25"
     id="g12"
     transform="translate(1.9844894)">
    <path
       word-spacing="0"
       letter-spacing="0"
       font-size="3.528"
       font-weight="400"
       aria-label="IMPROMPT"
       d="m 30.132,96.698 q -0.007,-0.127 -0.01,-0.265 0,-0.137 -0.004,-0.296 -0.003,-0.159 -0.003,-0.342 v -0.417 q 0,-0.25 0.003,-0.426 0.004,-0.18 0.021,-0.293 0.018,-0.113 0.053,-0.166 0.039,-0.053 0.102,-0.053 0.032,0 0.06,0.007 0.029,0.007 0.05,0.032 0.02,0.02 0.035,0.067 0.018,0.042 0.021,0.113 0.007,0.127 0.01,0.225 l 0.008,0.198 q 0.003,0.095 0.003,0.201 v 0.536 q 0,0.145 -0.003,0.286 l -0.007,0.286 -0.01,0.303 q -0.004,0.085 -0.018,0.13 -0.015,0.047 -0.036,0.071 -0.02,0.025 -0.05,0.028 -0.027,0.007 -0.063,0.007 -0.063,0 -0.109,-0.042 -0.046,-0.046 -0.053,-0.19 z m 1.754,-0.381 q -0.162,-0.357 -0.29,-0.688 -0.123,-0.335 -0.211,-0.596 -0.081,0.437 -0.138,0.882 -0.053,0.444 -0.137,0.85 -0.021,0.092 -0.078,0.123 -0.056,0.028 -0.095,0.028 -0.064,0 -0.102,-0.038 -0.036,-0.04 -0.036,-0.1 0,-0.08 0.018,-0.246 0.021,-0.17 0.05,-0.381 0.031,-0.212 0.07,-0.445 0.039,-0.232 0.078,-0.448 l 0.077,-0.395 q 0.039,-0.176 0.067,-0.271 0.046,-0.163 0.187,-0.163 0.085,0 0.145,0.085 0.06,0.081 0.127,0.254 0.07,0.17 0.166,0.43 0.098,0.262 0.254,0.614 0.151,-0.352 0.243,-0.61 0.095,-0.261 0.159,-0.43 0.067,-0.173 0.127,-0.254 0.06,-0.085 0.148,-0.085 0.081,0 0.123,0.042 0.043,0.039 0.064,0.12 0.025,0.099 0.06,0.275 0.035,0.173 0.074,0.388 0.042,0.212 0.081,0.445 0.039,0.233 0.07,0.444 0.032,0.212 0.05,0.385 0.021,0.17 0.021,0.261 0,0.056 -0.039,0.092 -0.038,0.031 -0.098,0.031 -0.04,0 -0.096,-0.028 -0.056,-0.032 -0.077,-0.123 -0.043,-0.201 -0.078,-0.417 L 32.807,95.915 32.75,95.474 q -0.028,-0.223 -0.06,-0.441 -0.046,0.14 -0.106,0.31 -0.06,0.17 -0.127,0.342 -0.067,0.17 -0.137,0.335 -0.07,0.166 -0.138,0.3 -0.024,0.046 -0.067,0.07 -0.039,0.022 -0.08,0.022 -0.047,0 -0.09,-0.021 -0.038,-0.025 -0.06,-0.074 z m 2.005,0.377 q 0,0.085 -0.018,0.13 -0.014,0.047 -0.039,0.071 -0.02,0.025 -0.053,0.029 -0.028,0.007 -0.056,0.007 -0.095,0 -0.127,-0.043 -0.028,-0.042 -0.039,-0.19 -0.007,-0.078 -0.01,-0.226 -0.004,-0.148 -0.007,-0.353 0,-0.204 -0.004,-0.451 v -0.522 q 0,-0.131 0.032,-0.265 0.032,-0.134 0.12,-0.243 0.091,-0.11 0.25,-0.177 0.162,-0.067 0.42,-0.067 0.18,0 0.342,0.039 0.162,0.039 0.286,0.134 0.123,0.095 0.198,0.254 0.074,0.159 0.074,0.395 0,0.247 -0.082,0.41 -0.08,0.162 -0.229,0.257 -0.148,0.095 -0.353,0.134 -0.204,0.039 -0.448,0.039 h -0.12 q -0.06,0 -0.134,-0.007 z m 1.016,-1.485 q 0,-0.236 -0.134,-0.356 -0.13,-0.12 -0.438,-0.12 -0.116,0 -0.2,0.021 -0.082,0.018 -0.135,0.067 -0.053,0.046 -0.08,0.127 -0.026,0.081 -0.026,0.205 v 0.275 q 0,0.151 0.004,0.286 0.081,0.004 0.18,0.004 h 0.19 q 0.106,0 0.219,-0.015 0.116,-0.014 0.208,-0.063 0.092,-0.053 0.152,-0.152 0.06,-0.102 0.06,-0.278 z m 1.451,0.84 -0.102,0.007 h -0.223 q -0.06,0 -0.134,-0.007 v 0.716 q 0,0.113 -0.056,0.14 -0.053,0.026 -0.134,0.026 -0.042,0 -0.067,-0.007 -0.025,-0.004 -0.042,-0.018 -0.015,-0.018 -0.025,-0.05 -0.007,-0.031 -0.01,-0.088 -0.008,-0.063 -0.011,-0.183 -0.004,-0.123 -0.007,-0.318 0,-0.194 -0.004,-0.469 v -0.652 q 0,-0.145 0.035,-0.279 0.036,-0.138 0.127,-0.24 0.092,-0.106 0.247,-0.17 0.16,-0.063 0.402,-0.063 0.173,0 0.336,0.039 0.165,0.039 0.292,0.134 0.127,0.095 0.205,0.258 0.078,0.162 0.078,0.405 0,0.325 -0.141,0.505 -0.138,0.176 -0.381,0.25 l 0.472,0.65 q 0.064,0.084 0.064,0.172 0,0.07 -0.05,0.11 -0.046,0.042 -0.116,0.042 -0.078,0 -0.134,-0.042 -0.057,-0.046 -0.106,-0.117 z m 0.554,-0.822 q 0,-0.244 -0.148,-0.36 -0.145,-0.12 -0.462,-0.12 -0.117,0 -0.194,0.021 -0.078,0.018 -0.124,0.07 -0.046,0.054 -0.067,0.149 -0.018,0.091 -0.018,0.236 v 0.24 q 0,0.138 0.004,0.25 0.081,0.005 0.18,0.005 h 0.19 q 0.1,0 0.208,-0.011 0.113,-0.014 0.209,-0.064 0.095,-0.052 0.158,-0.148 0.064,-0.099 0.064,-0.268 z m 1.609,1.725 q -0.212,0 -0.398,-0.085 -0.184,-0.085 -0.322,-0.243 -0.137,-0.163 -0.218,-0.395 -0.078,-0.233 -0.078,-0.53 0,-0.278 0.067,-0.511 0.07,-0.233 0.205,-0.402 0.137,-0.17 0.338,-0.261 0.202,-0.096 0.466,-0.096 0.215,0 0.41,0.078 0.193,0.078 0.338,0.233 0.148,0.155 0.233,0.388 0.085,0.233 0.085,0.543 0,0.258 -0.071,0.49 -0.067,0.233 -0.208,0.41 -0.138,0.173 -0.35,0.278 -0.211,0.103 -0.497,0.103 z m 0.007,-0.332 q 0.194,0 0.339,-0.077 0.145,-0.082 0.24,-0.212 0.095,-0.13 0.14,-0.3 0.047,-0.173 0.047,-0.353 0,-0.218 -0.06,-0.388 -0.057,-0.173 -0.155,-0.29 -0.1,-0.115 -0.23,-0.175 -0.13,-0.064 -0.278,-0.064 -0.177,0 -0.31,0.074 -0.131,0.074 -0.223,0.201 -0.088,0.127 -0.134,0.3 -0.046,0.17 -0.046,0.363 0,0.209 0.053,0.381 0.053,0.17 0.141,0.29 0.092,0.12 0.215,0.187 0.124,0.063 0.261,0.063 z m 2.384,-0.303 q -0.162,-0.357 -0.29,-0.688 -0.123,-0.335 -0.21,-0.596 -0.082,0.437 -0.138,0.882 -0.053,0.444 -0.138,0.85 -0.021,0.092 -0.078,0.123 -0.056,0.028 -0.095,0.028 -0.063,0 -0.102,-0.038 -0.036,-0.04 -0.036,-0.1 0,-0.08 0.018,-0.246 0.021,-0.17 0.05,-0.381 0.031,-0.212 0.07,-0.445 0.039,-0.232 0.078,-0.448 l 0.077,-0.395 q 0.04,-0.176 0.067,-0.271 0.046,-0.163 0.187,-0.163 0.085,0 0.145,0.085 0.06,0.081 0.127,0.254 0.07,0.17 0.166,0.43 0.099,0.262 0.254,0.614 0.151,-0.352 0.243,-0.61 0.095,-0.261 0.159,-0.43 0.067,-0.173 0.127,-0.254 0.06,-0.085 0.148,-0.085 0.081,0 0.124,0.042 0.042,0.039 0.063,0.12 0.025,0.099 0.06,0.275 0.035,0.173 0.074,0.388 0.042,0.212 0.081,0.445 0.039,0.233 0.07,0.444 0.033,0.212 0.05,0.385 0.021,0.17 0.021,0.261 0,0.056 -0.038,0.092 -0.04,0.031 -0.1,0.031 -0.038,0 -0.094,-0.028 -0.057,-0.032 -0.078,-0.123 -0.042,-0.201 -0.078,-0.417 l -0.063,-0.433 -0.057,-0.441 q -0.028,-0.223 -0.06,-0.441 -0.045,0.14 -0.105,0.31 -0.06,0.17 -0.127,0.342 -0.067,0.17 -0.138,0.335 -0.07,0.166 -0.138,0.3 -0.024,0.046 -0.067,0.07 -0.038,0.022 -0.08,0.022 -0.047,0 -0.089,-0.021 -0.039,-0.025 -0.06,-0.074 z m 2.005,0.377 q 0,0.085 -0.018,0.13 -0.014,0.047 -0.038,0.071 -0.022,0.025 -0.053,0.029 -0.029,0.007 -0.057,0.007 -0.095,0 -0.127,-0.043 -0.028,-0.042 -0.039,-0.19 -0.007,-0.078 -0.01,-0.226 -0.004,-0.148 -0.007,-0.353 0,-0.204 -0.004,-0.451 v -0.522 q 0,-0.131 0.032,-0.265 0.032,-0.134 0.12,-0.243 0.092,-0.11 0.25,-0.177 0.163,-0.067 0.42,-0.067 0.18,0 0.342,0.039 0.163,0.039 0.286,0.134 0.124,0.095 0.198,0.254 0.074,0.159 0.074,0.395 0,0.247 -0.081,0.41 -0.082,0.162 -0.23,0.257 -0.148,0.095 -0.352,0.134 -0.205,0.039 -0.449,0.039 h -0.12 q -0.06,0 -0.134,-0.007 z m 1.016,-1.485 q 0,-0.236 -0.134,-0.356 -0.13,-0.12 -0.438,-0.12 -0.116,0 -0.2,0.021 -0.082,0.018 -0.135,0.067 -0.053,0.046 -0.08,0.127 -0.025,0.081 -0.025,0.205 v 0.275 q 0,0.151 0.003,0.286 0.081,0.004 0.18,0.004 h 0.19 q 0.106,0 0.22,-0.015 0.116,-0.014 0.207,-0.063 0.092,-0.053 0.152,-0.152 0.06,-0.102 0.06,-0.278 z m 1.974,-0.437 q -0.099,0.007 -0.212,0.01 l -0.243,0.007 0.007,0.18 0.007,0.166 q 0.004,0.085 0.004,0.176 0.003,0.092 0.003,0.205 v 0.307 q 0,0.144 -0.003,0.293 l -0.007,0.292 q -0.004,0.149 -0.011,0.307 -0.003,0.085 -0.018,0.13 -0.01,0.047 -0.031,0.072 -0.022,0.024 -0.05,0.028 -0.028,0.007 -0.063,0.007 -0.064,0 -0.11,-0.043 -0.042,-0.045 -0.049,-0.19 -0.007,-0.127 -0.01,-0.268 0,-0.141 -0.004,-0.304 -0.004,-0.162 -0.004,-0.349 V 95.04 q 0.004,-0.145 0.011,-0.25 h -0.145 q -0.148,0 -0.254,-0.005 -0.102,-0.004 -0.169,-0.017 -0.067,-0.018 -0.099,-0.053 -0.028,-0.036 -0.028,-0.1 0,-0.03 0.007,-0.055 0.007,-0.029 0.032,-0.05 0.025,-0.025 0.067,-0.039 0.046,-0.014 0.116,-0.02 l 0.12,-0.008 0.106,-0.007 q 0.053,-0.004 0.11,-0.004 h 0.13 q 0.208,0 0.392,0.004 0.186,0.004 0.395,0.014 0.084,0.007 0.13,0.021 0.046,0.011 0.07,0.032 0.025,0.021 0.029,0.05 0.007,0.028 0.007,0.063 0,0.064 -0.046,0.106 -0.042,0.042 -0.187,0.05 z"
       style="font-weight:400;font-size:3.52800012px;font-family:Sniglet;-inkscape-font-specification:'Sniglet, Normal';font-variant-ligatures:normal;font-variant-caps:normal;font-variant-numeric:normal;font-feature-settings:normal;text-align:start;letter-spacing:0;word-spacing:0;fill:#333333"
       id="path10"
       inkscape:connector-curvature="0" />
  </g>
  <path
     word-spacing="0"
     letter-spacing="0"
     font-size="2.822"
     font-weight="400"
     style="font-weight:400;font-size:2.82200003px;line-height:1.25;font-family:Sniglet;-inkscape-font-specification:'Sniglet, Normal';font-variant-ligatures:normal;font-variant-caps:normal;font-variant-numeric:normal;font-feature-settings:normal;text-align:start;letter-spacing:0;word-spacing:0"
     d="m 72.476975,54.156169 q 0.094,0 0.192,0.017 0.1,0.017 0.181,0.05 0.082,0.032 0.135,0.08 0.054,0.048 0.054,0.11 0,0.064 -0.034,0.098 -0.034,0.034 -0.085,0.034 -0.048,0 -0.09,-0.017 l -0.09,-0.036 q -0.05,-0.02 -0.122,-0.037 -0.07,-0.017 -0.177,-0.017 -0.119,0 -0.223,0.057 -0.102,0.053 -0.18,0.152 -0.08,0.096 -0.125,0.229 -0.045,0.132 -0.045,0.287 0,0.19 0.048,0.328 0.048,0.138 0.124,0.228 0.08,0.09 0.175,0.136 0.1,0.042 0.197,0.042 0.161,0 0.254,-0.045 0.096,-0.048 0.153,-0.121 0.003,-0.06 0.003,-0.141 v -0.178 q 0,-0.037 -0.006,-0.057 -0.006,-0.022 -0.028,-0.034 -0.023,-0.01 -0.068,-0.014 -0.042,-0.003 -0.116,-0.003 -0.09,0 -0.147,-0.022 -0.056,-0.026 -0.056,-0.105 0,-0.056 0.028,-0.09 0.031,-0.037 0.124,-0.042 h 0.054 q 0.04,-0.003 0.082,-0.003 h 0.155 q 0.085,0 0.136,0.017 0.05,0.014 0.09,0.067 0.02,0.028 0.022,0.1 0.006,0.07 0.006,0.163 v 0.728 q 0,0.076 -0.042,0.113 -0.04,0.036 -0.093,0.036 -0.065,0 -0.107,-0.033 -0.04,-0.031 -0.04,-0.102 v -0.11 q -0.073,0.085 -0.175,0.12 -0.099,0.038 -0.25,0.038 -0.156,0 -0.306,-0.062 -0.15,-0.062 -0.265,-0.184 -0.116,-0.124 -0.19,-0.307 -0.07,-0.186 -0.07,-0.432 0,-0.246 0.07,-0.437 0.074,-0.192 0.198,-0.325 0.125,-0.135 0.291,-0.206 0.167,-0.07 0.36,-0.07 z m 2.114,1.854 q -0.029,-0.068 -0.062,-0.155 -0.03,-0.09 -0.068,-0.19 l -0.178,0.007 h -0.409 q -0.099,0 -0.18,-0.003 l -0.066,0.186 q -0.03,0.087 -0.059,0.155 -0.056,0.144 -0.164,0.144 -0.04,0 -0.076,-0.025 -0.034,-0.026 -0.034,-0.074 0,-0.048 0.017,-0.124 0.017,-0.08 0.042,-0.166 l 0.06,-0.184 q 0.03,-0.096 0.06,-0.178 0.027,-0.09 0.078,-0.228 l 0.113,-0.294 0.118,-0.3 q 0.06,-0.15 0.108,-0.26 0.011,-0.027 0.028,-0.061 0.017,-0.036 0.04,-0.067 0.025,-0.031 0.053,-0.054 0.031,-0.023 0.068,-0.023 0.036,0 0.067,0.026 0.031,0.022 0.054,0.056 0.025,0.034 0.042,0.07 0.02,0.038 0.031,0.066 l 0.102,0.26 q 0.06,0.146 0.116,0.296 0.06,0.15 0.11,0.285 0.05,0.135 0.081,0.228 l 0.057,0.175 q 0.034,0.093 0.062,0.184 0.028,0.09 0.045,0.17 0.02,0.075 0.02,0.123 0,0.048 -0.037,0.074 -0.034,0.025 -0.073,0.025 -0.05,0 -0.093,-0.034 -0.043,-0.036 -0.074,-0.11 z m -0.5,-0.62 0.136,0.002 q 0.067,0 0.135,0.003 l -0.068,-0.197 -0.065,-0.19 -0.053,-0.166 -0.04,-0.138 q -0.01,-0.037 -0.025,-0.06 -0.014,-0.022 -0.037,-0.022 -0.022,0 -0.036,0.025 -0.015,0.023 -0.026,0.06 -0.034,0.115 -0.096,0.3 l -0.127,0.388 q 0.076,-0.003 0.153,-0.003 0.076,-0.003 0.15,-0.003 z m 1.876,-0.952 q -0.08,0.006 -0.17,0.008 l -0.194,0.006 0.006,0.144 0.006,0.133 q 0.003,0.067 0.003,0.14 0.003,0.074 0.003,0.164 v 0.246 q 0,0.116 -0.003,0.234 l -0.006,0.234 -0.008,0.246 q -0.003,0.068 -0.014,0.104 -0.008,0.037 -0.026,0.057 -0.017,0.02 -0.04,0.022 -0.022,0.006 -0.05,0.006 -0.05,0 -0.088,-0.034 -0.034,-0.036 -0.04,-0.152 -0.005,-0.102 -0.007,-0.214 0,-0.113 -0.003,-0.243 -0.003,-0.13 -0.003,-0.28 v -0.606 q 0.003,-0.116 0.008,-0.2 h -0.116 q -0.118,0 -0.203,-0.004 -0.082,-0.003 -0.136,-0.014 -0.053,-0.014 -0.079,-0.042 -0.022,-0.028 -0.022,-0.08 0,-0.024 0.006,-0.044 0.006,-0.023 0.025,-0.04 0.02,-0.02 0.054,-0.03 0.037,-0.012 0.093,-0.018 l 0.096,-0.006 0.085,-0.006 q 0.042,-0.003 0.087,-0.003 h 0.105 q 0.166,0 0.313,0.003 0.15,0.003 0.316,0.012 0.068,0.006 0.104,0.016 0.037,0.008 0.057,0.026 0.02,0.017 0.022,0.04 0.006,0.022 0.006,0.05 0,0.05 -0.036,0.085 -0.034,0.034 -0.15,0.04 z m 0.402,1.287 q -0.006,-0.09 -0.012,-0.246 -0.006,-0.155 -0.006,-0.318 v -0.192 l 0.006,-0.206 q 0.006,-0.21 0.026,-0.328 0.022,-0.118 0.084,-0.178 0.065,-0.06 0.181,-0.073 0.116,-0.014 0.308,-0.014 h 0.06 q 0.06,0 0.14,0.003 0.082,0 0.17,0.003 l 0.15,0.006 q 0.061,0.006 0.098,0.017 0.04,0.008 0.06,0.025 0.02,0.014 0.024,0.037 0.006,0.02 0.006,0.045 0,0.065 -0.036,0.096 -0.037,0.028 -0.15,0.037 -0.056,0.006 -0.166,0.008 h -0.22 q -0.113,0 -0.204,0.003 h -0.113 q -0.073,0.003 -0.104,0.034 -0.028,0.028 -0.028,0.138 l 0.003,0.124 q 0.006,0.096 0.006,0.27 h 0.234 q 0.15,0 0.243,0.007 0.096,0.003 0.146,0.017 0.054,0.014 0.074,0.045 0.02,0.03 0.02,0.082 0,0.025 -0.006,0.048 -0.003,0.02 -0.023,0.037 -0.02,0.014 -0.056,0.025 -0.037,0.008 -0.105,0.014 -0.082,0.006 -0.155,0.008 h -0.378 v 0.344 l 0.006,0.096 q 0.003,0.046 0.011,0.077 0.011,0.03 0.037,0.05 0.028,0.02 0.08,0.029 0.052,0.008 0.14,0.008 h 0.607 q 0.1,0 0.124,0.036 0.025,0.037 0.025,0.1 0,0.05 -0.022,0.078 -0.023,0.026 -0.11,0.037 -0.085,0.014 -0.257,0.017 -0.17,0.003 -0.469,0.003 -0.127,0 -0.208,-0.023 -0.082,-0.022 -0.133,-0.076 -0.05,-0.054 -0.076,-0.138 -0.023,-0.088 -0.03,-0.212 z"
     id="path16"
     inkscape:connector-curvature="0" />
  <path
     word-spacing="0"
     letter-spacing="0"
     font-size="10.667"
     font-weight="400"
     style="font-weight:400;font-size:10.66699982px;line-height:1.25;font-family:Sniglet;-inkscape-font-specification:'Sniglet, Normal';font-variant-ligatures:normal;font-variant-caps:normal;font-variant-numeric:normal;font-feature-settings:normal;text-align:start;letter-spacing:0;word-spacing:0"
     d="m 64.066657,54.241169 q 0.093,0 0.186,0.017 0.096,0.014 0.173,0.048 0.076,0.031 0.124,0.08 0.05,0.044 0.05,0.106 0,0.065 -0.033,0.1 -0.034,0.033 -0.085,0.033 -0.048,0 -0.085,-0.014 -0.036,-0.017 -0.084,-0.037 -0.046,-0.02 -0.11,-0.034 -0.065,-0.017 -0.173,-0.017 -0.107,0 -0.206,0.057 -0.096,0.053 -0.169,0.152 -0.07,0.096 -0.113,0.23 -0.042,0.131 -0.042,0.287 0,0.191 0.048,0.33 0.05,0.138 0.13,0.228 0.08,0.088 0.177,0.133 0.102,0.042 0.204,0.042 0.121,0 0.203,-0.025 0.082,-0.025 0.138,-0.056 0.06,-0.03 0.102,-0.057 0.042,-0.025 0.082,-0.025 0.048,0 0.076,0.028 0.028,0.025 0.028,0.093 0,0.056 -0.045,0.116 -0.043,0.056 -0.127,0.104 -0.082,0.045 -0.198,0.076 -0.116,0.03 -0.26,0.03 -0.157,0 -0.316,-0.064 -0.155,-0.062 -0.279,-0.183 -0.12,-0.124 -0.197,-0.308 -0.077,-0.186 -0.077,-0.43 0,-0.247 0.068,-0.439 0.07,-0.192 0.19,-0.324 0.12,-0.136 0.28,-0.206 0.16,-0.07 0.34,-0.07 z m 1.642,1.885 q -0.037,0.068 -0.068,0.1 -0.028,0.03 -0.073,0.03 -0.046,0 -0.08,-0.03 -0.033,-0.032 -0.073,-0.097 -0.05,-0.085 -0.116,-0.234 -0.062,-0.15 -0.127,-0.325 -0.064,-0.177 -0.127,-0.367 -0.062,-0.189 -0.112,-0.355 -0.048,-0.167 -0.08,-0.29 -0.028,-0.128 -0.028,-0.18 0,-0.058 0.023,-0.086 0.023,-0.028 0.087,-0.028 0.037,0 0.063,0.02 0.028,0.016 0.07,0.101 0.034,0.065 0.073,0.17 0.04,0.104 0.082,0.23 0.045,0.128 0.09,0.27 l 0.09,0.275 0.086,0.266 0.073,0.228 0.076,-0.23 0.088,-0.266 0.09,-0.277 q 0.045,-0.14 0.09,-0.265 l 0.085,-0.229 q 0.04,-0.104 0.07,-0.172 0.04,-0.082 0.068,-0.102 0.031,-0.02 0.062,-0.02 0.065,0 0.088,0.035 0.025,0.03 0.025,0.093 0,0.056 -0.017,0.135 -0.016,0.08 -0.059,0.212 -0.04,0.13 -0.107,0.324 l -0.167,0.477 q -0.025,0.076 -0.059,0.158 -0.03,0.082 -0.065,0.161 -0.03,0.076 -0.062,0.147 -0.03,0.07 -0.06,0.121 z"
     id="path18"
     inkscape:connector-curvature="0" />
  <g
     style="line-height:1.25"
     id="g22"
     transform="translate(-13.932692,-1.1673535)">
    <path
       word-spacing="0"
       letter-spacing="0"
       font-size="2.822"
       font-weight="400"
       aria-label="OCT +1"
       style="font-weight:400;font-size:2.82200003px;font-family:Sniglet;-inkscape-font-specification:'Sniglet, Normal';font-variant-ligatures:normal;font-variant-caps:normal;font-variant-numeric:normal;font-feature-settings:normal;text-align:start;letter-spacing:0;word-spacing:0"
       d="m 65.193,57.197 c -0.113333,0 -0.219667,-0.02267 -0.319,-0.068 -0.098,-0.04533 -0.183667,-0.110333 -0.257,-0.195 -0.07333,-0.08667 -0.131667,-0.192 -0.175,-0.316 -0.04133,-0.124 -0.062,-0.265 -0.062,-0.423 0,-0.148667 0.018,-0.285333 0.054,-0.41 0.03733,-0.124 0.092,-0.231 0.164,-0.321 0.07333,-0.09067 0.163333,-0.160333 0.27,-0.209 0.107333,-0.05067 0.231667,-0.076 0.373,-0.076 0.114667,0 0.223667,0.02067 0.327,0.062 0.104,0.04133 0.194333,0.103333 0.271,0.186 0.08,0.08267 0.142333,0.186 0.187,0.31 0.04467,0.124667 0.067,0.269667 0.067,0.435 0,0.137333 -0.01867,0.268333 -0.056,0.393 -0.036,0.124 -0.09167,0.233 -0.167,0.327 -0.07333,0.092 -0.166333,0.166333 -0.279,0.223 -0.113333,0.05467 -0.246,0.082 -0.398,0.082 z m 0.006,-0.266 c 0.103333,0 0.193667,-0.02067 0.271,-0.062 0.07733,-0.04333 0.141333,-0.1 0.192,-0.17 0.05067,-0.06867 0.08833,-0.148333 0.113,-0.239 0.02467,-0.092 0.037,-0.186 0.037,-0.282 0,-0.116667 -0.016,-0.22 -0.048,-0.31 -0.03067,-0.09267 -0.07233,-0.17 -0.125,-0.232 -0.05267,-0.062 -0.113667,-0.109 -0.183,-0.141 -0.06933,-0.034 -0.143667,-0.051 -0.223,-0.051 -0.09333,0 -0.176,0.02 -0.248,0.06 -0.07,0.03933 -0.129333,0.09267 -0.178,0.16 -0.04667,0.068 -0.08233,0.148 -0.107,0.24 -0.02467,0.09067 -0.037,0.187333 -0.037,0.29 0,0.111333 0.014,0.213333 0.042,0.306 0.028,0.09 0.06567,0.167 0.113,0.231 0.04867,0.064 0.106,0.114 0.172,0.15 0.06667,0.03333 0.136667,0.05 0.21,0.05 z m 2,-1.761 c 0.06133,0 0.123333,0.0057 0.186,0.017 0.064,0.0093 0.121333,0.02533 0.172,0.048 0.05067,0.02067 0.092,0.04733 0.124,0.08 0.03333,0.02933 0.05,0.06467 0.05,0.106 0,0.04333 -0.011,0.07667 -0.033,0.1 -0.02267,0.022 -0.051,0.033 -0.085,0.033 -0.032,0 -0.06033,-0.0047 -0.085,-0.014 -0.024,-0.01133 -0.052,-0.02367 -0.084,-0.037 -0.03,-0.01333 -0.06667,-0.02467 -0.11,-0.034 -0.04333,-0.01067 -0.101,-0.016 -0.173,-0.016 -0.07133,0 -0.14,0.01867 -0.206,0.056 -0.064,0.036 -0.120333,0.08667 -0.169,0.152 -0.04667,0.064 -0.08433,0.140333 -0.113,0.229 -0.028,0.08867 -0.042,0.184667 -0.042,0.288 0,0.128 0.016,0.238 0.048,0.33 0.03333,0.092 0.07667,0.168333 0.13,0.229 0.05333,0.058 0.112667,0.102 0.178,0.132 0.06733,0.02867 0.135,0.043 0.203,0.043 0.08067,0 0.148333,-0.0087 0.203,-0.026 0.05467,-0.01667 0.100667,-0.03533 0.138,-0.056 0.04,-0.02067 0.074,-0.03967 0.102,-0.057 0.028,-0.01667 0.05533,-0.025 0.082,-0.025 0.032,0 0.05733,0.0093 0.076,0.028 0.01867,0.01667 0.028,0.04767 0.028,0.093 0,0.038 -0.015,0.07667 -0.045,0.116 -0.028,0.03733 -0.07033,0.072 -0.127,0.104 -0.05467,0.03067 -0.120667,0.05633 -0.198,0.077 -0.07667,0.01867 -0.163333,0.028 -0.26,0.028 -0.104667,0 -0.209667,-0.02067 -0.315,-0.062 -0.104,-0.04133 -0.197333,-0.102667 -0.28,-0.184 -0.08,-0.08267 -0.145667,-0.185 -0.197,-0.307 -0.05067,-0.124667 -0.076,-0.268667 -0.076,-0.432 0,-0.164 0.02233,-0.31 0.067,-0.438 0.04667,-0.128 0.11,-0.236 0.19,-0.324 0.08,-0.09067 0.173333,-0.159333 0.28,-0.206 0.106667,-0.04667 0.22,-0.07 0.34,-0.07 z m 1.913,0.283 c -0.05267,0.004 -0.109333,0.0067 -0.17,0.008 l -0.194,0.006 0.006,0.143 0.006,0.133 c 0.002,0.04533 0.003,0.09233 0.003,0.141 0.002,0.04933 0.003,0.104 0.003,0.164 v 0.245 c 0,0.07733 -0.001,0.155667 -0.003,0.235 l -0.006,0.234 -0.008,0.245 c -0.002,0.04533 -0.0067,0.08033 -0.014,0.105 -0.0053,0.02467 -0.014,0.04333 -0.026,0.056 -0.01067,0.01333 -0.024,0.021 -0.04,0.023 -0.01467,0.004 -0.03133,0.006 -0.05,0.006 -0.03333,0 -0.06233,-0.01133 -0.087,-0.034 -0.02267,-0.02467 -0.036,-0.07533 -0.04,-0.152 -0.004,-0.068 -0.0067,-0.139667 -0.008,-0.215 0,-0.07533 -10e-4,-0.156333 -0.003,-0.243 -0.002,-0.08667 -0.003,-0.179667 -0.003,-0.279 v -0.606 c 0.002,-0.078 0.0047,-0.145 0.008,-0.201 H 68.37 c -0.07867,0 -0.146333,-10e-4 -0.203,-0.003 -0.05467,-0.002 -0.09967,-0.0067 -0.135,-0.014 -0.036,-0.0093 -0.06267,-0.02367 -0.08,-0.043 -0.01467,-0.01867 -0.022,-0.045 -0.022,-0.079 0,-0.01667 0.002,-0.03167 0.006,-0.045 0.004,-0.01467 0.01267,-0.028 0.026,-0.04 0.01333,-0.01333 0.031,-0.02333 0.053,-0.03 0.02467,-0.008 0.05567,-0.01367 0.093,-0.017 l 0.096,-0.006 0.085,-0.006 c 0.028,-0.002 0.057,-0.003 0.087,-0.003 h 0.105 c 0.110667,0 0.215,0.001 0.313,0.003 0.1,0.002 0.205333,0.0057 0.316,0.011 0.04533,0.004 0.08033,0.0097 0.105,0.017 0.024,0.0053 0.04267,0.01367 0.056,0.025 0.01333,0.01133 0.021,0.02467 0.023,0.04 0.004,0.01467 0.006,0.03133 0.006,0.05 0,0.034 -0.01233,0.06233 -0.037,0.085 -0.02267,0.02267 -0.07267,0.036 -0.15,0.04 z"
       id="path20"
       inkscape:connector-curvature="0"
       sodipodi:nodetypes="scccscccscccscccsccccscscscccscccccccccscscccscccscccscccscscccscccsccsccccccccssccccccscccssccscccsccccccsscccscsccc" />
  </g>
  <g
     transform="translate(-24.823677,-161.307)"
     id="g42">
    <rect
       ry="0.60900003"
       rx="0.60900003"
       width="77.258003"
       height="41.009998"
       x="27.865999"
       y="170.567"
       id="rect38"
       style="fill:#333333;paint-order:markers stroke fill" />
    <path
       d="m 45.858,171.897 0.047,18.245 3.398,1.85 V 210.27 H 40.02 v -18.278 l 3.461,-1.85 v -18.245 z m 32.702,0 0.048,18.245 3.397,1.85 v 18.278 h -9.283 v -18.278 l 3.461,-1.85 v -18.245 z m 8.477,0 -0.048,18.245 -3.397,1.85 v 18.278 h 9.282 v -18.278 l -3.46,-1.85 v -18.245 z m -52.049,0 0.048,18.245 3.397,1.85 V 210.27 H 29.15 v -18.278 l -0.008,-20.095 h 3.468 z m 19.34,0 -0.048,18.245 -3.397,1.85 v 18.278 h 9.282 v -18.278 l 0.007,-20.095 h -3.468 z m 13.362,0 0.048,18.245 3.397,1.85 v 18.278 h -9.282 v -18.278 l -0.008,-20.095 h 3.469 z m 30.217,0 -0.048,18.245 -3.397,1.85 v 18.278 h 9.282 v -18.278 l 0.007,-20.095 h -3.468 z"
       id="path40"
       inkscape:connector-curvature="0"
       style="fill:#999999;stroke:#000000;stroke-width:0.26499999" />
  </g>
  <g
     style="line-height:1.25"
     id="g54"
     transform="translate(5.055117,-1.0645517)">
    <path
       d="m 25.826,56.274 -0.3,0.01 q -0.169,0.004 -0.4,0.004 -0.096,0 -0.164,-0.003 -0.068,-0.003 -0.11,-0.014 -0.042,-0.014 -0.062,-0.043 -0.02,-0.028 -0.02,-0.079 0,-0.025 0.006,-0.045 0.005,-0.022 0.025,-0.04 0.02,-0.016 0.054,-0.028 0.036,-0.014 0.093,-0.02 l 0.073,-0.005 q 0.034,-0.003 0.065,-0.003 0.031,-0.002 0.065,-0.002 h 0.085 q 0.152,0 0.293,0.002 0.141,0 0.294,0.009 0.067,0.005 0.104,0.017 0.037,0.008 0.057,0.025 0.02,0.017 0.022,0.04 0.006,0.022 0.006,0.05 0,0.051 -0.037,0.085 -0.034,0.034 -0.15,0.04 z"
       style="font-weight:400;font-size:2.82200003px;font-family:Sniglet;-inkscape-font-specification:'Sniglet, Normal';font-variant-ligatures:normal;font-variant-caps:normal;font-variant-numeric:normal;font-feature-settings:normal;text-align:start;letter-spacing:0;word-spacing:0;stroke-width:0.26499999"
       font-size="2.822"
       aria-label="-"
       font-weight="400"
       letter-spacing="0"
       word-spacing="0"
       id="path52"
       inkscape:connector-curvature="0" />
  </g>
  <g
     style="line-height:1.25"
     id="g58"
     transform="translate(2.1166736,-1.1174786)">
    <path
       d="m 40.147,56.299 q -0.065,0.005 -0.138,0.008 -0.07,0 -0.155,0.003 v 0.127 q 0,0.096 -0.003,0.164 -0.003,0.067 -0.017,0.11 -0.011,0.042 -0.04,0.062 -0.028,0.02 -0.079,0.02 -0.025,0 -0.048,-0.006 -0.02,-0.006 -0.036,-0.026 -0.017,-0.02 -0.031,-0.053 -0.012,-0.037 -0.017,-0.093 l -0.006,-0.074 -0.005,-0.067 v -0.071 -0.09 q -0.144,0 -0.237,-0.003 -0.09,-0.003 -0.147,-0.014 -0.054,-0.014 -0.076,-0.043 -0.02,-0.028 -0.02,-0.079 0,-0.025 0.005,-0.045 0.006,-0.022 0.026,-0.04 0.02,-0.016 0.053,-0.027 0.037,-0.015 0.094,-0.02 l 0.073,-0.006 q 0.034,-0.003 0.068,-0.003 0.034,-0.002 0.07,-0.002 h 0.09 q 0.003,-0.074 0.003,-0.144 0.003,-0.074 0.009,-0.147 0.003,-0.068 0.014,-0.104 0.011,-0.037 0.028,-0.057 0.017,-0.02 0.04,-0.023 0.022,-0.005 0.05,-0.005 0.051,0 0.085,0.037 0.034,0.033 0.04,0.15 l 0.005,0.137 0.006,0.158 q 0.141,0 0.293,0.009 0.068,0.006 0.105,0.017 0.036,0.008 0.056,0.025 0.02,0.017 0.023,0.04 0.005,0.022 0.005,0.05 0,0.051 -0.036,0.085 -0.034,0.034 -0.15,0.04 z"
       style="font-weight:400;font-size:2.82200003px;font-family:Sniglet;-inkscape-font-specification:'Sniglet, Normal';font-variant-ligatures:normal;font-variant-caps:normal;font-variant-numeric:normal;font-feature-settings:normal;text-align:start;letter-spacing:0;word-spacing:0;stroke-width:0.26499999"
       font-size="2.822"
       aria-label="+"
       font-weight="400"
       letter-spacing="0"
       word-spacing="0"
       id="path56"
       inkscape:connector-curvature="0" />
  </g>
  <path
     d="M 48.154188,60.523784 H 46.831267"
     id="path88"
     inkscape:connector-curvature="0"
     style="fill:none;stroke:#000000;stroke-width:0.132"
     sodipodi:nodetypes="cc" />
  <g
     aria-label="CHORD-KEY"
     style="font-style:normal;font-variant:normal;font-weight:normal;font-stretch:normal;font-size:4.23334742px;line-height:1.25;font-family:Sniglet;-inkscape-font-specification:'Sniglet, Normal';font-variant-ligatures:normal;font-variant-caps:normal;font-variant-numeric:normal;font-feature-settings:normal;text-align:start;letter-spacing:0px;word-spacing:0px;writing-mode:lr-tb;text-anchor:start;fill:#000000;fill-opacity:1;stroke:none;stroke-width:0.26458421"
     id="text909">
    <path
       d="m 32.051071,3.5247908 q 0.139701,0 0.279401,0.0254 0.143934,0.021167 0.258235,0.071967 0.1143,0.046567 0.186267,0.1185337 0.0762,0.067734 0.0762,0.1608672 0,0.097367 -0.0508,0.1481672 -0.0508,0.0508 -0.127001,0.0508 -0.07197,0 -0.127,-0.021167 -0.05503,-0.0254 -0.127,-0.055034 -0.06773,-0.029633 -0.165101,-0.0508 -0.09737,-0.0254 -0.258234,-0.0254 -0.160867,0 -0.309034,0.084667 -0.143934,0.080434 -0.254001,0.2286008 -0.105834,0.1439338 -0.169334,0.3429011 -0.0635,0.1989673 -0.0635,0.4318014 0,0.2878677 0.07197,0.4953017 0.0762,0.207434 0.194734,0.3429011 0.118534,0.1312338 0.266701,0.1989674 0.152401,0.0635 0.304801,0.0635 0.182034,0 0.304801,-0.0381 0.122767,-0.0381 0.207434,-0.084667 0.0889,-0.046567 0.152401,-0.084667 0.0635,-0.0381 0.122767,-0.0381 0.07197,0 0.1143,0.042334 0.04233,0.0381 0.04233,0.1397005 0,0.084667 -0.06773,0.1735672 -0.0635,0.084667 -0.1905,0.1566339 -0.122767,0.067734 -0.296335,0.1143003 -0.173567,0.042333 -0.389468,0.042333 -0.237067,0 -0.474135,-0.093134 Q 31.331402,6.3738336 31.145135,6.1917997 30.963101,6.0055324 30.848801,5.7303648 30.7345,5.4509639 30.7345,5.0826627 q 0,-0.3683013 0.101601,-0.6561689 0.105833,-0.2878676 0.283634,-0.4868349 0.182034,-0.2032007 0.419101,-0.3090344 0.241301,-0.1058337 0.512235,-0.1058337 z"
       style="font-style:normal;font-variant:normal;font-weight:normal;font-stretch:normal;font-size:4.23334742px;font-family:Sniglet;-inkscape-font-specification:'Sniglet, Normal';font-variant-ligatures:normal;font-variant-caps:normal;font-variant-numeric:normal;font-feature-settings:normal;text-align:start;writing-mode:lr-tb;text-anchor:start;stroke-width:0.26458421"
       id="path926"
       inkscape:connector-curvature="0" />
    <path
       d="m 35.029694,6.2595332 q -0.0085,-0.2286007 -0.01693,-0.4783682 -0.0042,-0.2540009 -0.0042,-0.584202 -0.135467,0.00423 -0.287868,0.00847 -0.1524,0 -0.313268,0 -0.1905,0 -0.347134,0 -0.156634,0 -0.279401,-0.00423 -0.0042,0.2667009 -0.0085,0.5164684 -0.0042,0.2455341 -0.01693,0.5376351 -0.0042,0.1016003 -0.02117,0.1566339 -0.0127,0.055034 -0.0381,0.084667 -0.0254,0.029633 -0.05927,0.033867 -0.02963,0.00847 -0.07197,0.00847 -0.0762,0 -0.127,-0.0508 -0.0508,-0.055033 -0.05927,-0.2286008 -0.0085,-0.1524005 -0.0127,-0.317501 0,-0.1651006 -0.0042,-0.3556012 -0.0042,-0.1905006 -0.0042,-0.4106347 0,-0.2243674 0,-0.499535 0,-0.3005677 0.0042,-0.512235 0.0042,-0.2159007 0.02117,-0.3513679 0.02117,-0.1354671 0.0635,-0.1989673 0.04233,-0.0635 0.118534,-0.0635 0.07197,0 0.127001,0.046567 0.05503,0.046567 0.0635,0.2159007 0.0085,0.1439339 0.0127,0.2624676 0.0042,0.1143004 0.0085,0.2286007 0.0042,0.1100671 0.0042,0.2286008 0,0.1185337 0,0.2624675 0.317501,-0.0127 0.622302,-0.0127 0.148167,0 0.296334,0.00423 0.152401,0.00423 0.309035,0.0127 V 4.6762613 q 0,-0.3005677 0.0042,-0.512235 0.0042,-0.2159007 0.02117,-0.3513679 0.02117,-0.1354671 0.0635,-0.1989673 0.04233,-0.0635 0.118534,-0.0635 0.07197,0 0.127,0.046567 0.05503,0.046567 0.0635,0.2159007 0.0085,0.1524006 0.0127,0.2709343 0.0042,0.1185337 0.0085,0.2370674 0.0042,0.1143004 0.0042,0.2413008 0,0.1227671 0,0.279401 0,0.1905006 0,0.3640678 0,0.1735673 -0.0042,0.3429012 -0.0042,0.1693339 -0.0085,0.3429011 -0.0042,0.1735673 -0.0127,0.3640679 -0.0042,0.1016003 -0.02117,0.1566339 -0.0127,0.055034 -0.0381,0.084667 -0.0254,0.029633 -0.05927,0.033867 -0.02963,0.00847 -0.07197,0.00847 -0.0762,0 -0.127001,-0.0508 -0.0508,-0.055033 -0.05927,-0.2286008 z"
       style="font-style:normal;font-variant:normal;font-weight:normal;font-stretch:normal;font-size:4.23334742px;font-family:Sniglet;-inkscape-font-specification:'Sniglet, Normal';font-variant-ligatures:normal;font-variant-caps:normal;font-variant-numeric:normal;font-feature-settings:normal;text-align:start;writing-mode:lr-tb;text-anchor:start;stroke-width:0.26458421"
       id="path928"
       inkscape:connector-curvature="0" />
    <path
       d="m 37.071755,6.5643343 q -0.254,0 -0.478368,-0.1016004 Q 36.373253,6.3611336 36.208153,6.170633 36.043052,5.975899 35.945685,5.696498 q -0.09313,-0.2794009 -0.09313,-0.6350021 0,-0.3344344 0.08043,-0.6138353 0.08467,-0.279401 0.245534,-0.4826016 0.165101,-0.2032007 0.406402,-0.3132678 0.2413,-0.1143003 0.558801,-0.1143003 0.258235,0 0.491069,0.093134 0.232834,0.093134 0.406401,0.2794009 0.177801,0.1862673 0.279401,0.4656682 0.1016,0.279401 0.1016,0.6519356 0,0.3090343 -0.08467,0.5884352 -0.08043,0.279401 -0.249767,0.4910683 -0.165101,0.2074341 -0.419102,0.3344345 -0.254,0.1227671 -0.596902,0.1227671 z m 0.0085,-0.3979347 q 0.232834,0 0.406402,-0.093134 0.173567,-0.097367 0.287867,-0.2540009 0.114301,-0.1566338 0.169334,-0.3598345 0.05503,-0.207434 0.05503,-0.4233348 0,-0.2624675 -0.07197,-0.4656682 -0.06773,-0.207434 -0.186268,-0.3471345 -0.118533,-0.1397004 -0.275167,-0.2116673 -0.156634,-0.0762 -0.334435,-0.0762 -0.211667,0 -0.372534,0.0889 -0.156634,0.0889 -0.266701,0.2413008 -0.105834,0.1524005 -0.160867,0.3598345 -0.05503,0.2032007 -0.05503,0.4360348 0,0.2497675 0.0635,0.4572016 0.0635,0.2032006 0.169334,0.3471344 0.110067,0.1439339 0.258234,0.2243675 0.148168,0.0762 0.313268,0.0762 z"
       style="font-style:normal;font-variant:normal;font-weight:normal;font-stretch:normal;font-size:4.23334742px;font-family:Sniglet;-inkscape-font-specification:'Sniglet, Normal';font-variant-ligatures:normal;font-variant-caps:normal;font-variant-numeric:normal;font-feature-settings:normal;text-align:start;writing-mode:lr-tb;text-anchor:start;stroke-width:0.26458421"
       id="path930"
       inkscape:connector-curvature="0" />
    <path
       d="m 39.825548,5.4805973 q -0.05927,0.00423 -0.122767,0.00847 -0.05927,0 -0.122767,0 -0.07197,0 -0.143934,0 -0.07197,0 -0.160867,-0.00847 v 0.8593696 q 0,0.1354671 -0.06773,0.1693338 -0.0635,0.029634 -0.160868,0.029634 -0.0508,0 -0.08043,-0.00847 -0.02963,-0.00423 -0.0508,-0.021167 -0.01693,-0.021167 -0.02963,-0.059267 -0.0085,-0.0381 -0.0127,-0.1058337 -0.0085,-0.0762 -0.0127,-0.2201341 -0.0042,-0.1481671 -0.0085,-0.3810012 0,-0.2328341 -0.0042,-0.5630352 0,-0.3344345 0,-0.7831693 0,-0.1735673 0.04233,-0.3344345 0.04233,-0.1651005 0.152401,-0.2878676 0.110067,-0.1270004 0.296334,-0.2032007 0.190501,-0.0762 0.482602,-0.0762 0.207434,0 0.402168,0.046567 0.198967,0.046567 0.351368,0.1608672 0.1524,0.1143004 0.245534,0.3090344 0.09313,0.194734 0.09313,0.4868349 0,0.389468 -0.169334,0.6053687 -0.165101,0.2116674 -0.457202,0.3005677 l 0.567269,0.7789359 q 0.0762,0.1016003 0.0762,0.207434 0,0.084667 -0.05927,0.1312338 -0.05503,0.0508 -0.1397,0.0508 -0.09313,0 -0.160868,-0.0508 -0.06773,-0.055033 -0.127,-0.1397005 z m 0.664636,-0.9863699 q 0,-0.292101 -0.177801,-0.4318015 -0.173567,-0.1439338 -0.554568,-0.1439338 -0.139701,0 -0.232834,0.0254 -0.09313,0.021167 -0.148168,0.084667 -0.05503,0.0635 -0.08043,0.1778006 -0.02117,0.110067 -0.02117,0.2836342 0,0.1227671 0,0.2878677 0,0.1651005 0.0042,0.3005676 0.09737,0.00423 0.215901,0.00423 0.122767,0 0.228601,0 0.118534,0 0.249767,-0.0127 0.135468,-0.016933 0.249768,-0.0762 0.1143,-0.0635 0.190501,-0.1778006 0.0762,-0.1185337 0.0762,-0.3217344 z"
       style="font-style:normal;font-variant:normal;font-weight:normal;font-stretch:normal;font-size:4.23334742px;font-family:Sniglet;-inkscape-font-specification:'Sniglet, Normal';font-variant-ligatures:normal;font-variant-caps:normal;font-variant-numeric:normal;font-feature-settings:normal;text-align:start;writing-mode:lr-tb;text-anchor:start;stroke-width:0.26458421"
       id="path932"
       inkscape:connector-curvature="0" />
    <path
       d="m 42.154617,3.5290242 q 0.436035,0 0.698502,0.1312337 0.262468,0.1312338 0.402168,0.3471345 0.139701,0.2159007 0.182034,0.4910683 0.04657,0.2751676 0.04657,0.5588019 0,0.3090343 -0.08043,0.5842019 -0.0762,0.2751676 -0.241301,0.4826016 -0.160867,0.2032007 -0.414868,0.3259678 -0.254,0.1185337 -0.605368,0.1185337 -0.279401,0 -0.448735,-0.042333 -0.165101,-0.0381 -0.258234,-0.1185337 -0.0889,-0.080434 -0.118534,-0.2032007 -0.02963,-0.122767 -0.02963,-0.2878676 V 4.3248935 q 0,-0.182034 0.02963,-0.3302011 0.03387,-0.1481672 0.127,-0.2497675 0.09313,-0.1058337 0.262468,-0.1608672 0.173567,-0.055033 0.448735,-0.055033 z m 0.01693,2.6162087 q 0.262468,0 0.431802,-0.093134 0.173567,-0.097367 0.275167,-0.2540008 0.101601,-0.1566339 0.139701,-0.3556012 0.04233,-0.1989673 0.04233,-0.4064014 0,-0.1905006 -0.02963,-0.3810012 -0.02963,-0.194734 -0.122767,-0.3513679 -0.09313,-0.1566338 -0.266701,-0.2540008 -0.173568,-0.097367 -0.461435,-0.097367 -0.262468,0 -0.364068,0.0762 -0.1016,0.0762 -0.1016,0.2328341 v 1.621372 q 0,0.1312338 0.09313,0.1989674 0.09737,0.0635 0.364068,0.0635 z"
       style="font-style:normal;font-variant:normal;font-weight:normal;font-stretch:normal;font-size:4.23334742px;font-family:Sniglet;-inkscape-font-specification:'Sniglet, Normal';font-variant-ligatures:normal;font-variant-caps:normal;font-variant-numeric:normal;font-feature-settings:normal;text-align:start;writing-mode:lr-tb;text-anchor:start;stroke-width:0.26458421"
       id="path934"
       inkscape:connector-curvature="0" />
    <path
       d="m 45.321756,5.4636639 q -0.194734,0.00847 -0.448735,0.016933 -0.254001,0.00423 -0.601135,0.00423 -0.143934,0 -0.245534,-0.00423 -0.101601,-0.00423 -0.165101,-0.021167 -0.0635,-0.021167 -0.09313,-0.0635 -0.02963,-0.042333 -0.02963,-0.1185338 0,-0.0381 0.0085,-0.067734 0.0085,-0.033867 0.0381,-0.059267 0.02963,-0.0254 0.08043,-0.042333 0.05503,-0.021167 0.1397,-0.029634 0.0635,-0.00423 0.110067,-0.00847 0.0508,-0.00423 0.09737,-0.00423 0.04657,-0.00423 0.09737,-0.00423 0.05503,0 0.127,0 0.228601,0 0.440269,0.00423 0.211667,0 0.440268,0.0127 0.1016,0.00847 0.156634,0.0254 0.05503,0.0127 0.08467,0.0381 0.02963,0.0254 0.03387,0.059267 0.0085,0.033867 0.0085,0.0762 0,0.0762 -0.05503,0.1270005 -0.0508,0.0508 -0.224367,0.059267 z"
       style="font-style:normal;font-variant:normal;font-weight:normal;font-stretch:normal;font-size:4.23334742px;font-family:Sniglet;-inkscape-font-specification:'Sniglet, Normal';font-variant-ligatures:normal;font-variant-caps:normal;font-variant-numeric:normal;font-feature-settings:normal;text-align:start;writing-mode:lr-tb;text-anchor:start;stroke-width:0.26458421"
       id="path936"
       inkscape:connector-curvature="0" />
    <path
       d="m 45.962976,6.2595332 q -0.0085,-0.1524005 -0.0127,-0.317501 0,-0.1651006 -0.0042,-0.3556012 -0.0042,-0.1905006 -0.0042,-0.4106347 0,-0.2243674 0,-0.499535 0,-0.3005677 0.0042,-0.512235 0.0042,-0.2159007 0.02117,-0.3513679 0.02117,-0.1354671 0.0635,-0.1989673 0.04233,-0.0635 0.118534,-0.0635 0.07197,0 0.127,0.046567 0.05503,0.046567 0.0635,0.2159007 0.0085,0.1524006 0.0127,0.2709343 0.0042,0.1185337 0.0085,0.2370674 0.0042,0.1143004 0.0042,0.2413008 0,0.1227671 0,0.279401 v 0.220134 l 0.9059,-1.0371705 q 0.177801,-0.2032007 0.275168,-0.2667009 0.09737,-0.067734 0.169333,-0.067734 0.08467,0 0.122768,0.042333 0.04233,0.042333 0.04233,0.1058337 0,0.0254 -0.0085,0.0508 -0.0085,0.0254 -0.0381,0.071967 -0.0254,0.042334 -0.08043,0.110067 -0.05503,0.0635 -0.148168,0.1651006 l -0.588435,0.6392354 0.927103,1.3208044 q 0.03387,0.046567 0.0508,0.097367 0.02117,0.0508 0.02117,0.097367 0,0.080434 -0.04657,0.1312338 -0.04233,0.055034 -0.1524,0.055034 -0.0889,0 -0.160867,-0.0508 -0.06773,-0.046567 -0.127001,-0.1397004 L 46.724978,5.196963 46.36091,5.5948977 q -0.0042,0.1608672 -0.0085,0.3217344 -0.0042,0.1608672 -0.0127,0.3386678 -0.0042,0.1016003 -0.02117,0.1566339 -0.0127,0.055034 -0.0381,0.084667 -0.0254,0.029633 -0.05927,0.033867 -0.02963,0.00847 -0.07197,0.00847 -0.0762,0 -0.127001,-0.0508 -0.0508,-0.055033 -0.05927,-0.2286008 z"
       style="font-style:normal;font-variant:normal;font-weight:normal;font-stretch:normal;font-size:4.23334742px;font-family:Sniglet;-inkscape-font-specification:'Sniglet, Normal';font-variant-ligatures:normal;font-variant-caps:normal;font-variant-numeric:normal;font-feature-settings:normal;text-align:start;writing-mode:lr-tb;text-anchor:start;stroke-width:0.26458421"
       id="path938"
       inkscape:connector-curvature="0" />
    <path
       d="m 48.381539,5.878532 q -0.0085,-0.1354671 -0.01693,-0.3683012 -0.0085,-0.2328342 -0.0085,-0.4783683 0,-0.1397005 0,-0.2878676 0.0042,-0.1524005 0.0085,-0.3090344 0.0085,-0.3132677 0.0381,-0.4910683 0.03387,-0.1778006 0.127001,-0.2667009 0.09737,-0.0889 0.270934,-0.110067 0.173567,-0.021167 0.461435,-0.021167 0.0042,0 0.0889,0 0.0889,0 0.211667,0.00423 0.122767,0 0.254001,0.00423 0.135467,0.00423 0.224368,0.00847 0.09313,0.00847 0.148167,0.0254 0.05927,0.0127 0.0889,0.0381 0.02963,0.021167 0.0381,0.055033 0.0085,0.029633 0.0085,0.067734 0,0.097367 -0.05503,0.1439338 -0.05503,0.042333 -0.224367,0.055034 -0.08467,0.00847 -0.249768,0.0127 -0.160867,0 -0.330201,0 -0.169334,0 -0.304801,0.00423 -0.135467,0 -0.169334,0 -0.110067,0.00423 -0.156633,0.0508 -0.04233,0.042333 -0.04233,0.207434 0,0.0381 0.0042,0.1862673 0.0085,0.1439338 0.0085,0.4064014 h 0.351368 q 0.224367,0 0.364068,0.00847 0.143934,0.00423 0.220134,0.0254 0.08043,0.021167 0.110067,0.067733 0.02963,0.046567 0.02963,0.1227671 0,0.0381 -0.0085,0.071967 -0.0042,0.029633 -0.03387,0.055034 -0.02963,0.021167 -0.08467,0.0381 -0.05503,0.0127 -0.156634,0.021167 -0.122767,0.00847 -0.232834,0.0127 -0.105834,0 -0.211667,0 h -0.355602 q 0,0.0635 0,0.1524005 0,0.0889 0,0.182034 0,0.093134 0,0.1820339 0.0042,0.0889 0.0085,0.1439338 0.0042,0.067734 0.01693,0.1143004 0.01693,0.046567 0.05503,0.0762 0.04233,0.029633 0.118534,0.042333 0.08043,0.0127 0.211667,0.0127 h 0.91017 q 0.148167,0 0.186267,0.055034 0.0381,0.055033 0.0381,0.1481671 0,0.0762 -0.03387,0.1185338 -0.03387,0.0381 -0.165101,0.055033 -0.127,0.021167 -0.385235,0.0254 -0.254,0.00423 -0.702735,0.00423 -0.190501,0 -0.313268,-0.033867 Q 48.61863,6.4838924 48.54243,6.4034591 48.46623,6.3230251 48.428129,6.196025 48.394259,6.0647913 48.381559,5.878524 Z"
       style="font-style:normal;font-variant:normal;font-weight:normal;font-stretch:normal;font-size:4.23334742px;font-family:Sniglet;-inkscape-font-specification:'Sniglet, Normal';font-variant-ligatures:normal;font-variant-caps:normal;font-variant-numeric:normal;font-feature-settings:normal;text-align:start;writing-mode:lr-tb;text-anchor:start;stroke-width:0.26458421"
       id="path940"
       inkscape:connector-curvature="0" />
    <path
       d="m 51.487097,6.2595332 q -0.0085,-0.2328341 -0.01693,-0.4953016 -0.0042,-0.2667009 -0.0042,-0.6138354 l -0.842436,-1.206504 q -0.03387,-0.046567 -0.05503,-0.097367 -0.01693,-0.0508 -0.01693,-0.097367 0,-0.080434 0.04233,-0.1312337 0.04657,-0.055034 0.156634,-0.055034 0.0889,0 0.156634,0.0508 0.07197,0.046567 0.131234,0.1397005 L 51.669171,4.7566943 52.29994,3.753391 q 0.05927,-0.093134 0.127001,-0.1397005 0.07197,-0.0508 0.160867,-0.0508 0.110067,0 0.1524,0.055034 0.04657,0.0508 0.04657,0.1312337 0,0.046567 -0.02117,0.097367 -0.01693,0.0508 -0.0508,0.097367 l -0.825502,1.1811039 q 0,0.2878677 -0.0085,0.5545686 -0.0042,0.2624675 -0.01693,0.5757352 -0.0042,0.1016003 -0.02117,0.1566339 -0.0127,0.055034 -0.0381,0.084667 -0.0254,0.029633 -0.05927,0.033867 -0.02963,0.00847 -0.07197,0.00847 -0.0762,0 -0.127001,-0.0508 -0.0508,-0.055033 -0.05927,-0.2286008 z"
       style="font-style:normal;font-variant:normal;font-weight:normal;font-stretch:normal;font-size:4.23334742px;font-family:Sniglet;-inkscape-font-specification:'Sniglet, Normal';font-variant-ligatures:normal;font-variant-caps:normal;font-variant-numeric:normal;font-feature-settings:normal;text-align:start;writing-mode:lr-tb;text-anchor:start;stroke-width:0.26458421"
       id="path942"
       inkscape:connector-curvature="0" />
  </g>
  <g
     aria-label="INDEX"
     style="font-style:normal;font-weight:normal;font-size:10.5833683px;line-height:1.25;font-family:sans-serif;letter-spacing:0px;word-spacing:0px;fill:#000000;fill-opacity:1;stroke:none;stroke-width:0.26458421"
     id="text913"
     transform="translate(1.646647,-0.42928741)">
    <path
       d="m 8.2548164,56.247267 q -0.00564,-0.101601 -0.00847,-0.211668 0,-0.110067 -0.00282,-0.237067 -0.00282,-0.127001 -0.00282,-0.273757 0,-0.149578 0,-0.333023 0,-0.200378 0.00282,-0.34149 0.00282,-0.143934 0.016933,-0.234245 0.014111,-0.09031 0.042333,-0.132645 0.031045,-0.04233 0.081845,-0.04233 0.0254,0 0.047978,0.0056 0.022578,0.0056 0.039511,0.0254 0.016933,0.01693 0.028222,0.05362 0.014111,0.03387 0.016933,0.09031 0.00564,0.1016 0.00847,0.180623 0.00282,0.07902 0.00564,0.158045 0.00282,0.0762 0.00282,0.160867 0,0.08185 0,0.186267 0,0.127001 0,0.242712 0,0.115712 -0.00282,0.228601 -0.00282,0.112889 -0.00564,0.228601 -0.00282,0.115711 -0.00847,0.242711 -0.00282,0.06773 -0.014111,0.104423 -0.011289,0.03669 -0.028222,0.05645 -0.016933,0.01975 -0.039511,0.02258 -0.022578,0.0056 -0.0508,0.0056 -0.0508,0 -0.087489,-0.03387 -0.036689,-0.03669 -0.042333,-0.1524 z"
       style="font-style:normal;font-variant:normal;font-weight:normal;font-stretch:normal;font-size:2.82223153px;font-family:Sniglet;-inkscape-font-specification:'Sniglet, Normal';font-variant-ligatures:normal;font-variant-caps:normal;font-variant-numeric:normal;font-feature-settings:normal;text-align:start;writing-mode:lr-tb;text-anchor:start;stroke-width:0.26458421"
       id="path915"
       inkscape:connector-curvature="0" />
    <path
       d="M 10.019108,56.2896 Q 9.9287965,56.165422 9.8469518,56.044066 9.7679293,55.919888 9.6747957,55.773132 9.5844843,55.626376 9.4659505,55.448575 9.350239,55.267952 9.1865496,55.028063 q 0,0.211667 0,0.381001 0,0.166512 -0.00282,0.310445 -0.00282,0.143934 -0.00564,0.270935 -0.00282,0.127 -0.00847,0.254 -0.00282,0.06773 -0.014111,0.104423 -0.00847,0.03669 -0.0254,0.05645 -0.016933,0.01975 -0.039511,0.02258 -0.019756,0.0056 -0.047978,0.0056 -0.0508,0 -0.084667,-0.03387 -0.033867,-0.03669 -0.039511,-0.1524 -0.014111,-0.310446 -0.016933,-0.620891 0,-0.313268 0,-0.646291 0,-0.18909 0.00282,-0.296335 0.00564,-0.107244 0.019756,-0.160867 0.016933,-0.05362 0.042333,-0.06773 0.028222,-0.01411 0.073378,-0.01411 0.045156,0 0.1185337,0.07056 0.073378,0.06773 0.1608672,0.180623 0.087489,0.112889 0.1862673,0.259645 0.1016003,0.146756 0.2003784,0.301979 0.098778,0.155223 0.1890895,0.307623 0.093134,0.152401 0.1693343,0.276579 -0.0028,-0.132645 -0.0028,-0.29069 0,-0.160867 0,-0.355601 0,-0.222956 0.0028,-0.36689 0.0028,-0.146756 0.01411,-0.231423 0.01411,-0.08467 0.04233,-0.118534 0.02822,-0.03387 0.07902,-0.03387 0.04798,0 0.08467,0.03104 0.03669,0.03104 0.04233,0.143934 0.0056,0.1016 0.0085,0.180623 0.0028,0.07902 0.0056,0.158045 0.0028,0.0762 0.0028,0.160867 0,0.08185 0,0.186267 0,0.127001 0,0.242712 0,0.115712 -0.0028,0.228601 -0.0028,0.112889 -0.0056,0.228601 -0.0028,0.115711 -0.0085,0.242711 -0.0028,0.06773 -0.01411,0.104423 -0.0085,0.03669 -0.0254,0.05645 -0.01693,0.01975 -0.03951,0.02258 -0.01976,0.0056 -0.04798,0.0056 -0.04798,0 -0.08184,-0.02822 -0.03387,-0.02822 -0.09878,-0.115712 z"
       style="font-style:normal;font-variant:normal;font-weight:normal;font-stretch:normal;font-size:2.82223153px;font-family:Sniglet;-inkscape-font-specification:'Sniglet, Normal';font-variant-ligatures:normal;font-variant-caps:normal;font-variant-numeric:normal;font-feature-settings:normal;text-align:start;writing-mode:lr-tb;text-anchor:start;stroke-width:0.26458421"
       id="path917"
       inkscape:connector-curvature="0" />
    <path
       d="m 11.260493,54.426927 q 0.29069,0 0.465668,0.08749 0.174979,0.08749 0.268112,0.231422 0.09313,0.143934 0.121356,0.327379 0.03105,0.183445 0.03105,0.372535 0,0.206023 -0.05362,0.389468 -0.0508,0.183445 -0.160867,0.321734 -0.107245,0.135467 -0.276579,0.217312 -0.169334,0.07902 -0.403579,0.07902 -0.186267,0 -0.299156,-0.02822 -0.110067,-0.0254 -0.172156,-0.07902 -0.05927,-0.05362 -0.07902,-0.135467 -0.01975,-0.08185 -0.01975,-0.191912 v -1.061159 q 0,-0.121356 0.01975,-0.220134 0.02258,-0.09878 0.08467,-0.166512 0.06209,-0.07056 0.174978,-0.107245 0.115712,-0.03669 0.299157,-0.03669 z m 0.01129,1.744139 q 0.174978,0 0.287868,-0.06209 0.115711,-0.06491 0.183445,-0.169334 0.06773,-0.104422 0.09313,-0.237067 0.02822,-0.132645 0.02822,-0.270934 0,-0.127001 -0.01976,-0.254001 -0.01976,-0.129823 -0.08184,-0.234245 -0.06209,-0.104423 -0.1778,-0.169334 -0.115712,-0.06491 -0.307624,-0.06491 -0.174978,0 -0.242712,0.0508 -0.06773,0.0508 -0.06773,0.155222 v 1.080915 q 0,0.08749 0.06209,0.132645 0.06491,0.04233 0.242712,0.04233 z"
       style="font-style:normal;font-variant:normal;font-weight:normal;font-stretch:normal;font-size:2.82223153px;font-family:Sniglet;-inkscape-font-specification:'Sniglet, Normal';font-variant-ligatures:normal;font-variant-caps:normal;font-variant-numeric:normal;font-feature-settings:normal;text-align:start;writing-mode:lr-tb;text-anchor:start;stroke-width:0.26458421"
       id="path919"
       inkscape:connector-curvature="0" />
    <path
       d="m 12.446227,55.993266 q -0.0056,-0.09031 -0.01129,-0.245534 -0.0056,-0.155223 -0.0056,-0.318912 0,-0.09313 0,-0.191912 0.0028,-0.101601 0.0056,-0.206023 0.0056,-0.208845 0.0254,-0.327379 0.02258,-0.118534 0.08467,-0.177801 0.06491,-0.05927 0.180623,-0.07338 0.115711,-0.01411 0.307623,-0.01411 0.0028,0 0.05927,0 0.05927,0 0.141112,0.0028 0.08184,0 0.169333,0.0028 0.09031,0.0028 0.149579,0.0056 0.06209,0.0056 0.09878,0.01693 0.03951,0.0085 0.05927,0.0254 0.01975,0.01411 0.0254,0.03669 0.0056,0.01975 0.0056,0.04516 0,0.06491 -0.03669,0.09596 -0.03669,0.02822 -0.149578,0.03669 -0.05645,0.0056 -0.166512,0.0085 -0.107244,0 -0.220134,0 -0.112889,0 -0.2032,0.0028 -0.09031,0 -0.11289,0 -0.07338,0.0028 -0.104422,0.03387 -0.02822,0.02822 -0.02822,0.138289 0,0.0254 0.0028,0.124178 0.0056,0.09596 0.0056,0.270935 h 0.234245 q 0.149579,0 0.242712,0.0056 0.09596,0.0028 0.146756,0.01693 0.05362,0.01411 0.07338,0.04515 0.01976,0.03105 0.01976,0.08185 0,0.0254 -0.0056,0.04798 -0.0028,0.01976 -0.02258,0.03669 -0.01976,0.01411 -0.05645,0.0254 -0.03669,0.0085 -0.104423,0.01411 -0.08184,0.0056 -0.155222,0.0085 -0.07056,0 -0.141112,0 H 12.72275 q 0,0.04233 0,0.1016 0,0.05927 0,0.121356 0,0.06209 0,0.121356 0.0028,0.05927 0.0056,0.09596 0.0028,0.04516 0.01129,0.0762 0.01129,0.03104 0.03669,0.0508 0.02822,0.01976 0.07902,0.02822 0.05362,0.0085 0.141111,0.0085 h 0.60678 q 0.09878,0 0.124178,0.03669 0.0254,0.03669 0.0254,0.09878 0,0.0508 -0.02258,0.07902 -0.02258,0.0254 -0.110067,0.03669 -0.08467,0.01411 -0.256823,0.01693 -0.169334,0.0028 -0.46849,0.0028 -0.127001,0 -0.208845,-0.02258 -0.08184,-0.02258 -0.132645,-0.0762 -0.0508,-0.05362 -0.0762,-0.13829 -0.02258,-0.08749 -0.03104,-0.211667 z"
       style="font-style:normal;font-variant:normal;font-weight:normal;font-stretch:normal;font-size:2.82223153px;font-family:Sniglet;-inkscape-font-specification:'Sniglet, Normal';font-variant-ligatures:normal;font-variant-caps:normal;font-variant-numeric:normal;font-feature-settings:normal;text-align:start;writing-mode:lr-tb;text-anchor:start;stroke-width:0.26458421"
       id="path921"
       inkscape:connector-curvature="0" />
    <path
       d="m 14.666177,55.679998 -0.420513,0.651936 q -0.03951,0.06209 -0.08749,0.09313 -0.04516,0.03387 -0.104423,0.03387 -0.07338,0 -0.104422,-0.03669 -0.02822,-0.03387 -0.02822,-0.08749 0,-0.03104 0.01129,-0.06491 0.01411,-0.03387 0.03669,-0.06491 l 0.524936,-0.750713 -0.524936,-0.750714 q -0.02258,-0.03104 -0.03669,-0.06491 -0.01129,-0.03387 -0.01129,-0.06491 0,-0.05362 0.02822,-0.08749 0.03104,-0.03669 0.104422,-0.03669 0.05927,0 0.104423,0.03387 0.04798,0.03104 0.08749,0.09313 l 0.420513,0.651935 0.420512,-0.651935 q 0.03951,-0.06209 0.08467,-0.09313 0.04798,-0.03387 0.107245,-0.03387 0.07338,0 0.1016,0.03669 0.03105,0.03387 0.03105,0.08749 0,0.03104 -0.01411,0.06491 -0.01129,0.03387 -0.03387,0.06491 l -0.524935,0.750714 0.524935,0.750713 q 0.02258,0.03105 0.03387,0.06491 0.01411,0.03387 0.01411,0.06491 0,0.05362 -0.03105,0.08749 -0.02822,0.03669 -0.1016,0.03669 -0.05927,0 -0.107245,-0.03387 -0.04516,-0.03104 -0.08467,-0.09313 z"
       style="font-style:normal;font-variant:normal;font-weight:normal;font-stretch:normal;font-size:2.82223153px;font-family:Sniglet;-inkscape-font-specification:'Sniglet, Normal';font-variant-ligatures:normal;font-variant-caps:normal;font-variant-numeric:normal;font-feature-settings:normal;text-align:start;writing-mode:lr-tb;text-anchor:start;stroke-width:0.26458421"
       id="path923"
       inkscape:connector-curvature="0" />
  </g>
  <path
     d="M 48.154188,69.519647 H 46.831267"
     id="path88-1"
     inkscape:connector-curvature="0"
     style="fill:none;stroke:#000000;stroke-width:0.132"
     sodipodi:nodetypes="cc" />
  <path
     d="M 48.154188,78.515511 H 46.831267"
     id="path88-6"
     inkscape:connector-curvature="0"
     style="fill:none;stroke:#000000;stroke-width:0.132"
     sodipodi:nodetypes="cc" />
  <path
     d="M 48.154188,87.511374 H 46.831267"
     id="path88-1-6"
     inkscape:connector-curvature="0"
     style="fill:none;stroke:#000000;stroke-width:0.132"
     sodipodi:nodetypes="cc" />
  <g
     aria-label="GATE IN"
     style="font-style:normal;font-weight:normal;font-size:10.5833683px;line-height:1.25;font-family:sans-serif;letter-spacing:0px;word-spacing:0px;fill:#000000;fill-opacity:1;stroke:none;stroke-width:0.26458421"
     id="text858"
     transform="translate(0,3.4707194)">
    <path
       d="m 9.8452075,74.006247 q 0.093134,0 0.1919115,0.01693 0.09878,0.01693 0.180623,0.0508 0.08185,0.03104 0.135467,0.07902 0.05362,0.04798 0.05362,0.110067 0,0.06491 -0.03387,0.09878 -0.03387,0.03387 -0.08467,0.03387 -0.04798,0 -0.09031,-0.01693 -0.03951,-0.01693 -0.09031,-0.03669 -0.0508,-0.01976 -0.1213559,-0.03669 -0.070556,-0.01693 -0.1778006,-0.01693 -0.1185337,0 -0.2229563,0.05644 -0.1016003,0.05362 -0.1806228,0.1524 -0.079023,0.09596 -0.1241782,0.228601 -0.045156,0.132645 -0.045156,0.287868 0,0.189089 0.047978,0.327378 0.047978,0.13829 0.1241782,0.228601 0.079022,0.09031 0.1749783,0.135467 0.098778,0.04233 0.1975562,0.04233 0.1608672,0 0.2540011,-0.04516 0.09596,-0.04798 0.152401,-0.121356 0.0028,-0.05927 0.0028,-0.141111 0,-0.08185 0,-0.177801 0,-0.03669 -0.0056,-0.05644 -0.0056,-0.02258 -0.02822,-0.03387 -0.02258,-0.01129 -0.06773,-0.01411 -0.04233,-0.0028 -0.1157113,-0.0028 -0.090311,0 -0.1467561,-0.02258 -0.056445,-0.0254 -0.056445,-0.104422 0,-0.05644 0.028222,-0.09031 0.031045,-0.03669 0.1241782,-0.04233 0.016933,0 0.053622,0 0.039511,-0.0028 0.081845,-0.0028 0.04516,0 0.08749,0 0.04233,0 0.06773,0 0.08467,0 0.135467,0.01693 0.0508,0.01411 0.09031,0.06773 0.01976,0.02822 0.02258,0.09878 0.0056,0.07056 0.0056,0.163689 v 0.728136 q 0,0.0762 -0.04233,0.112889 -0.03951,0.03669 -0.09313,0.03669 -0.06491,0 -0.107244,-0.03387 -0.03951,-0.03104 -0.03951,-0.1016 v -0.110067 q -0.07338,0.08467 -0.174978,0.121356 -0.098778,0.03669 -0.2511812,0.03669 -0.1552228,0 -0.304801,-0.06209 Q 9.3033215,75.905642 9.18761,75.784287 9.0718985,75.660109 8.9985205,75.476664 q -0.070556,-0.186268 -0.070556,-0.431802 0,-0.245534 0.070556,-0.437446 0.073378,-0.191911 0.1975562,-0.324556 0.1241782,-0.135467 0.2906898,-0.206023 0.1665117,-0.07056 0.3584234,-0.07056 z"
       style="font-style:normal;font-variant:normal;font-weight:normal;font-stretch:normal;font-size:2.82223153px;font-family:Sniglet;-inkscape-font-specification:'Sniglet, Normal';font-variant-ligatures:normal;font-variant-caps:normal;font-variant-numeric:normal;font-feature-settings:normal;text-align:start;writing-mode:lr-tb;text-anchor:start;stroke-width:0.26458421"
       id="path904"
       inkscape:connector-curvature="0" />
    <path
       d="m 11.958397,75.860453 q -0.02822,-0.06773 -0.06209,-0.155223 -0.03104,-0.09031 -0.06773,-0.189089 -0.08467,0.0028 -0.177801,0.0056 -0.09313,0 -0.189089,0 -0.121356,0 -0.220134,0 -0.09878,0 -0.180623,-0.0028 -0.03387,0.09878 -0.06491,0.186267 -0.03104,0.08749 -0.05927,0.155223 -0.05645,0.143934 -0.16369,0.143934 -0.03951,0 -0.0762,-0.0254 -0.03387,-0.0254 -0.03387,-0.07338 0,-0.04798 0.01693,-0.124178 0.01693,-0.07902 0.04233,-0.166512 0.02822,-0.09031 0.05927,-0.183445 0.03104,-0.09596 0.05927,-0.177801 0.02822,-0.09031 0.07902,-0.2286 0.05362,-0.141112 0.11289,-0.293513 0.05927,-0.1524 0.118533,-0.299156 0.05927,-0.149578 0.107245,-0.259645 0.01129,-0.02822 0.02822,-0.06209 0.01693,-0.03669 0.03951,-0.06773 0.0254,-0.03104 0.05362,-0.05362 0.03105,-0.02258 0.06773,-0.02258 0.03669,0 0.06773,0.0254 0.03105,0.02258 0.05362,0.05644 0.0254,0.03387 0.04233,0.07056 0.01976,0.03669 0.03105,0.06491 0.04515,0.112889 0.1016,0.259645 0.05927,0.146756 0.115711,0.296334 0.05927,0.149578 0.110067,0.285046 0.0508,0.135467 0.08185,0.2286 0.0254,0.08184 0.05645,0.174979 0.03387,0.09313 0.06209,0.183445 0.02822,0.09031 0.04516,0.169334 0.01975,0.0762 0.01975,0.124178 0,0.04798 -0.03669,0.07338 -0.03387,0.0254 -0.07338,0.0254 -0.0508,0 -0.09313,-0.03387 -0.04233,-0.03669 -0.07338,-0.110067 z m -0.499535,-0.620891 q 0.06773,0 0.135468,0.0028 0.06773,0 0.135467,0.0028 -0.03387,-0.09878 -0.06773,-0.197557 -0.03387,-0.09878 -0.06491,-0.189089 -0.02822,-0.09031 -0.05362,-0.166512 -0.02258,-0.07902 -0.03951,-0.138289 -0.01129,-0.03669 -0.0254,-0.05927 -0.01411,-0.02258 -0.03669,-0.02258 -0.02258,0 -0.03669,0.0254 -0.01411,0.02258 -0.0254,0.05927 -0.03387,0.115712 -0.09596,0.301979 -0.05927,0.183445 -0.127,0.386646 0.0762,-0.0028 0.1524,-0.0028 0.0762,-0.0028 0.149578,-0.0028 z"
       style="font-style:normal;font-variant:normal;font-weight:normal;font-stretch:normal;font-size:2.82223153px;font-family:Sniglet;-inkscape-font-specification:'Sniglet, Normal';font-variant-ligatures:normal;font-variant-caps:normal;font-variant-numeric:normal;font-feature-settings:normal;text-align:start;writing-mode:lr-tb;text-anchor:start;stroke-width:0.26458421"
       id="path906"
       inkscape:connector-curvature="0" />
    <path
       d="m 13.334456,74.28847 q -0.07902,0.0056 -0.169334,0.0085 -0.08749,0.0028 -0.194734,0.0056 0.0028,0.0762 0.0056,0.143934 0.0028,0.06491 0.0056,0.132645 0.0028,0.06773 0.0028,0.141112 0.0028,0.07338 0.0028,0.163689 0,0.127 0,0.245534 0,0.115712 -0.0028,0.234245 -0.0028,0.115712 -0.0056,0.234246 -0.0028,0.118533 -0.0085,0.245534 -0.0028,0.06773 -0.01411,0.104422 -0.0085,0.03669 -0.0254,0.05644 -0.01693,0.01976 -0.03951,0.02258 -0.02258,0.0056 -0.0508,0.0056 -0.0508,0 -0.08749,-0.03387 -0.03387,-0.03669 -0.03951,-0.1524 -0.0056,-0.1016 -0.0085,-0.21449 0,-0.112889 -0.0028,-0.242712 -0.0028,-0.129822 -0.0028,-0.2794 0,-0.152401 0,-0.335846 0,-0.155223 0,-0.270934 0.0028,-0.115712 0.0085,-0.200379 h -0.115711 q -0.118534,0 -0.203201,-0.0028 -0.08184,-0.0028 -0.135467,-0.01411 -0.05362,-0.01411 -0.07902,-0.04233 -0.02258,-0.02822 -0.02258,-0.07902 0,-0.0254 0.0056,-0.04516 0.0056,-0.02258 0.0254,-0.03951 0.01976,-0.01976 0.05362,-0.03104 0.03669,-0.01129 0.09313,-0.01693 0.05362,-0.0028 0.09596,-0.0056 0.04233,-0.0028 0.08467,-0.0056 0.04233,-0.0028 0.08749,-0.0028 0.04516,0 0.104423,0 0.166512,0 0.313268,0.0028 0.149578,0.0028 0.31609,0.01129 0.06773,0.0056 0.104422,0.01693 0.03669,0.0085 0.05645,0.0254 0.01975,0.01693 0.02258,0.03951 0.0056,0.02258 0.0056,0.0508 0,0.0508 -0.03669,0.08467 -0.03387,0.03387 -0.149578,0.03951 z"
       style="font-style:normal;font-variant:normal;font-weight:normal;font-stretch:normal;font-size:2.82223153px;font-family:Sniglet;-inkscape-font-specification:'Sniglet, Normal';font-variant-ligatures:normal;font-variant-caps:normal;font-variant-numeric:normal;font-feature-settings:normal;text-align:start;writing-mode:lr-tb;text-anchor:start;stroke-width:0.26458421"
       id="path908"
       inkscape:connector-curvature="0" />
    <path
       d="m 13.736315,75.575408 q -0.0056,-0.09031 -0.01129,-0.245534 -0.0056,-0.155223 -0.0056,-0.318913 0,-0.09313 0,-0.191911 0.0028,-0.101601 0.0056,-0.206023 0.0056,-0.208845 0.0254,-0.327379 0.02258,-0.118534 0.08467,-0.177801 0.06491,-0.05927 0.180623,-0.07338 0.115712,-0.01411 0.307623,-0.01411 0.0028,0 0.05927,0 0.05927,0 0.141112,0.0028 0.08184,0 0.169334,0.0028 0.09031,0.0028 0.149578,0.0056 0.06209,0.0056 0.09878,0.01693 0.03951,0.0085 0.05927,0.0254 0.01976,0.01411 0.0254,0.03669 0.0056,0.01976 0.0056,0.04515 0,0.06491 -0.03669,0.09596 -0.03669,0.02822 -0.149578,0.03669 -0.05644,0.0056 -0.166512,0.0085 -0.107244,0 -0.220134,0 -0.112889,0 -0.2032,0.0028 -0.09031,0 -0.11289,0 -0.07338,0.0028 -0.104422,0.03387 -0.02822,0.02822 -0.02822,0.138289 0,0.0254 0.0028,0.124178 0.0056,0.09596 0.0056,0.270935 h 0.234246 q 0.149578,0 0.242711,0.0056 0.09596,0.0028 0.146756,0.01693 0.05362,0.01411 0.07338,0.04516 0.01976,0.03105 0.01976,0.08185 0,0.0254 -0.0056,0.04798 -0.0028,0.01976 -0.02258,0.03669 -0.01976,0.01411 -0.05645,0.0254 -0.03669,0.0085 -0.104422,0.01411 -0.08184,0.0056 -0.155223,0.0085 -0.07056,0 -0.141112,0 h -0.237067 q 0,0.04233 0,0.1016 0,0.05927 0,0.121356 0,0.06209 0,0.121356 0.0028,0.05927 0.0056,0.09596 0.0028,0.04516 0.01129,0.0762 0.01129,0.03105 0.03669,0.0508 0.02822,0.01976 0.07902,0.02822 0.05362,0.0085 0.141111,0.0085 h 0.60678 q 0.09878,0 0.124178,0.03669 0.0254,0.03669 0.0254,0.09878 0,0.0508 -0.02258,0.07902 -0.02258,0.0254 -0.110068,0.03669 -0.08467,0.01411 -0.256823,0.01693 -0.169333,0.0028 -0.46849,0.0028 -0.127,0 -0.208845,-0.02258 -0.08184,-0.02258 -0.132645,-0.0762 -0.0508,-0.05362 -0.0762,-0.138289 -0.02258,-0.08749 -0.03105,-0.211667 z"
       style="font-style:normal;font-variant:normal;font-weight:normal;font-stretch:normal;font-size:2.82223153px;font-family:Sniglet;-inkscape-font-specification:'Sniglet, Normal';font-variant-ligatures:normal;font-variant-caps:normal;font-variant-numeric:normal;font-feature-settings:normal;text-align:start;writing-mode:lr-tb;text-anchor:start;stroke-width:0.26458421"
       id="path910"
       inkscape:connector-curvature="0" />
    <path
       d="m 15.927998,75.829409 q -0.0056,-0.101601 -0.0085,-0.211668 0,-0.110067 -0.0028,-0.237067 -0.0028,-0.127001 -0.0028,-0.273757 0,-0.149578 0,-0.333023 0,-0.200378 0.0028,-0.34149 0.0028,-0.143934 0.01693,-0.234245 0.01411,-0.09031 0.04233,-0.132645 0.03105,-0.04233 0.08185,-0.04233 0.0254,0 0.04798,0.0056 0.02258,0.0056 0.03951,0.0254 0.01693,0.01693 0.02822,0.05362 0.01411,0.03387 0.01693,0.09031 0.0056,0.1016 0.0085,0.180623 0.0028,0.07902 0.0056,0.158045 0.0028,0.0762 0.0028,0.160867 0,0.08184 0,0.186267 0,0.127 0,0.242712 0,0.115711 -0.0028,0.228601 -0.0028,0.112889 -0.0056,0.2286 -0.0028,0.115712 -0.0085,0.242712 -0.0028,0.06773 -0.01411,0.104423 -0.01129,0.03669 -0.02822,0.05644 -0.01693,0.01976 -0.03951,0.02258 -0.02258,0.0056 -0.0508,0.0056 -0.0508,0 -0.08749,-0.03387 -0.03669,-0.03669 -0.04233,-0.1524 z"
       style="font-style:normal;font-variant:normal;font-weight:normal;font-stretch:normal;font-size:2.82223153px;font-family:Sniglet;-inkscape-font-specification:'Sniglet, Normal';font-variant-ligatures:normal;font-variant-caps:normal;font-variant-numeric:normal;font-feature-settings:normal;text-align:start;writing-mode:lr-tb;text-anchor:start;stroke-width:0.26458421"
       id="path912"
       inkscape:connector-curvature="0" />
    <path
       d="m 17.69229,75.871742 q -0.09031,-0.124178 -0.172156,-0.245534 -0.07902,-0.124178 -0.172156,-0.270934 -0.09031,-0.146756 -0.208845,-0.324557 -0.115712,-0.180623 -0.279401,-0.420512 0,0.211667 0,0.381001 0,0.166511 -0.0028,0.310445 -0.0028,0.143934 -0.0056,0.270934 -0.0028,0.127001 -0.0085,0.254001 -0.0028,0.06773 -0.01411,0.104423 -0.0085,0.03669 -0.0254,0.05644 -0.01693,0.01976 -0.03951,0.02258 -0.01976,0.0056 -0.04798,0.0056 -0.0508,0 -0.08467,-0.03387 -0.03387,-0.03669 -0.03951,-0.1524 -0.01411,-0.310446 -0.01693,-0.620891 0,-0.313268 0,-0.646291 0,-0.18909 0.0028,-0.296335 0.0056,-0.107245 0.01975,-0.160867 0.01693,-0.05362 0.04233,-0.06773 0.02822,-0.01411 0.07338,-0.01411 0.04516,0 0.118534,0.07056 0.07338,0.06773 0.160867,0.180623 0.08749,0.112889 0.186267,0.259645 0.1016,0.146756 0.200378,0.301979 0.09878,0.155223 0.18909,0.307623 0.09313,0.152401 0.169334,0.276579 -0.0028,-0.132645 -0.0028,-0.29069 0,-0.160867 0,-0.355601 0,-0.222956 0.0028,-0.36689 0.0028,-0.146756 0.01411,-0.231423 0.01411,-0.08467 0.04233,-0.118534 0.02822,-0.03387 0.07902,-0.03387 0.04798,0 0.08467,0.03105 0.03669,0.03104 0.04233,0.143934 0.0056,0.1016 0.0085,0.180623 0.0028,0.07902 0.0056,0.158045 0.0028,0.0762 0.0028,0.160867 0,0.08184 0,0.186267 0,0.127 0,0.242712 0,0.115711 -0.0028,0.228601 -0.0028,0.112889 -0.0056,0.2286 -0.0028,0.115712 -0.0085,0.242712 -0.0028,0.06773 -0.01411,0.104423 -0.0085,0.03669 -0.0254,0.05644 -0.01693,0.01976 -0.03951,0.02258 -0.01976,0.0056 -0.04798,0.0056 -0.04798,0 -0.08185,-0.02822 -0.03387,-0.02822 -0.09878,-0.115712 z"
       style="font-style:normal;font-variant:normal;font-weight:normal;font-stretch:normal;font-size:2.82223153px;font-family:Sniglet;-inkscape-font-specification:'Sniglet, Normal';font-variant-ligatures:normal;font-variant-caps:normal;font-variant-numeric:normal;font-feature-settings:normal;text-align:start;writing-mode:lr-tb;text-anchor:start;stroke-width:0.26458421"
       id="path914"
       inkscape:connector-curvature="0" />
  </g>
  <g
     aria-label="EXT"
     style="font-style:normal;font-weight:normal;font-size:10.5833683px;line-height:1.25;font-family:sans-serif;letter-spacing:0px;word-spacing:0px;fill:#000000;fill-opacity:1;stroke:none;stroke-width:0.26458421"
     id="text862"
     transform="translate(0,1.8832142)">
    <path
       d="m 5.6894201,80.761687 q -0.00564,-0.09031 -0.011289,-0.245534 -0.00564,-0.155223 -0.00564,-0.318912 0,-0.09313 0,-0.191912 0.00282,-0.1016 0.00564,-0.206023 0.00564,-0.208845 0.0254,-0.327379 0.022578,-0.118534 0.084667,-0.1778 0.064911,-0.05927 0.1806228,-0.07338 0.1157115,-0.01411 0.3076233,-0.01411 0.00282,0 0.059267,0 0.059267,0 0.1411116,0.0028 0.081845,0 0.1693339,0.0028 0.090311,0.0028 0.1495783,0.0056 0.062089,0.0056 0.098778,0.01693 0.039511,0.0085 0.059267,0.0254 0.019756,0.01411 0.0254,0.03669 0.00564,0.01976 0.00564,0.04516 0,0.06491 -0.036689,0.09595 -0.036689,0.02822 -0.1495783,0.03669 -0.056445,0.0056 -0.1665116,0.0085 -0.1072448,0 -0.2201341,0 -0.1128893,0 -0.2032007,0.0028 -0.090311,0 -0.1128892,0 -0.073378,0.0028 -0.1044226,0.03387 -0.028222,0.02822 -0.028222,0.138289 0,0.0254 0.00282,0.124179 0.00564,0.09596 0.00564,0.270934 h 0.2342452 q 0.1495783,0 0.2427119,0.0056 0.095956,0.0028 0.146756,0.01693 0.053622,0.01411 0.073378,0.04515 0.019756,0.03105 0.019756,0.08185 0,0.0254 -0.00564,0.04798 -0.00282,0.01976 -0.022578,0.03669 -0.019756,0.01411 -0.056445,0.0254 -0.036689,0.0085 -0.1044225,0.01411 -0.081845,0.0056 -0.1552228,0.0085 -0.070556,0 -0.1411115,0 h -0.237061 q 0,0.04233 0,0.1016 0,0.05927 0,0.121356 0,0.06209 0,0.121356 0.00282,0.05927 0.00564,0.09596 0.00282,0.04516 0.011289,0.0762 0.011289,0.03105 0.036689,0.0508 0.028222,0.01976 0.079023,0.02822 0.053622,0.0085 0.1411116,0.0085 h 0.6067798 q 0.098778,0 0.1241781,0.03669 0.0254,0.03669 0.0254,0.09878 0,0.0508 -0.022578,0.07902 -0.022578,0.0254 -0.1100671,0.03669 -0.084667,0.01411 -0.256823,0.01693 -0.1693339,0.0028 -0.4684905,0.0028 -0.1270004,0 -0.2088451,-0.02258 -0.081845,-0.02258 -0.1326449,-0.0762 -0.0508,-0.05362 -0.0762,-0.13829 -0.022578,-0.08749 -0.031045,-0.211667 z"
       style="font-style:normal;font-variant:normal;font-weight:normal;font-stretch:normal;font-size:2.82223153px;font-family:Sniglet;-inkscape-font-specification:'Sniglet, Normal';font-variant-ligatures:normal;font-variant-caps:normal;font-variant-numeric:normal;font-feature-settings:normal;text-align:start;writing-mode:lr-tb;text-anchor:start;stroke-width:0.26458421"
       id="path897"
       inkscape:connector-curvature="0" />
    <path
       d="m 7.9093698,80.448419 -0.4205125,0.651936 q -0.039511,0.06209 -0.087489,0.09313 -0.045156,0.03387 -0.1044226,0.03387 -0.073378,0 -0.1044225,-0.03669 -0.028222,-0.03387 -0.028222,-0.08749 0,-0.03105 0.011289,-0.06491 0.014111,-0.03387 0.036689,-0.06491 L 7.7372137,80.222641 7.2122786,79.471927 q -0.022578,-0.03104 -0.036689,-0.06491 -0.011289,-0.03387 -0.011289,-0.06491 0,-0.05362 0.028222,-0.08749 0.031044,-0.03669 0.1044225,-0.03669 0.059267,0 0.1044226,0.03387 0.047978,0.03104 0.087489,0.09313 l 0.4205125,0.651935 0.4205125,-0.651935 q 0.039511,-0.06209 0.084667,-0.09313 0.047978,-0.03387 0.1072448,-0.03387 0.073378,0 0.1016004,0.03669 0.031045,0.03387 0.031045,0.08749 0,0.03104 -0.014111,0.06491 -0.011289,0.03387 -0.033867,0.06491 l -0.5249351,0.750714 0.5249351,0.750713 q 0.022578,0.03105 0.033867,0.06491 0.014111,0.03387 0.014111,0.06491 0,0.05362 -0.031045,0.08749 -0.028222,0.03669 -0.1016004,0.03669 -0.059267,0 -0.1072448,-0.03387 -0.045156,-0.03104 -0.084667,-0.09313 z"
       style="font-style:normal;font-variant:normal;font-weight:normal;font-stretch:normal;font-size:2.82223153px;font-family:Sniglet;-inkscape-font-specification:'Sniglet, Normal';font-variant-ligatures:normal;font-variant-caps:normal;font-variant-numeric:normal;font-feature-settings:normal;text-align:start;writing-mode:lr-tb;text-anchor:start;stroke-width:0.26458421"
       id="path899"
       inkscape:connector-curvature="0" />
    <path
       d="m 10.005979,79.474749 q -0.079022,0.0056 -0.1693337,0.0085 -0.087489,0.0028 -0.194734,0.0056 0.00282,0.0762 0.00564,0.143933 0.00282,0.06491 0.00564,0.132645 0.00282,0.06773 0.00282,0.141112 0.00282,0.07338 0.00282,0.163689 0,0.127001 0,0.245534 0,0.115712 -0.00282,0.234246 -0.00282,0.115711 -0.00564,0.234245 -0.00282,0.118534 -0.00847,0.245534 -0.00282,0.06773 -0.014111,0.104423 -0.00847,0.03669 -0.0254,0.05644 -0.016933,0.01976 -0.039511,0.02258 -0.022578,0.0056 -0.0508,0.0056 -0.0508,0 -0.087489,-0.03387 -0.033867,-0.03669 -0.039511,-0.152401 -0.00564,-0.1016 -0.00847,-0.214489 0,-0.11289 -0.00282,-0.242712 -0.00282,-0.129823 -0.00282,-0.279401 0,-0.152401 0,-0.335846 0,-0.155222 0,-0.270934 0.00282,-0.115711 0.00847,-0.200378 h -0.115707 q -0.1185338,0 -0.2032007,-0.0028 -0.081845,-0.0028 -0.1354671,-0.01411 -0.053622,-0.01411 -0.079022,-0.04233 -0.022578,-0.02822 -0.022578,-0.07902 0,-0.0254 0.00564,-0.04516 0.00564,-0.02258 0.0254,-0.03951 0.019756,-0.01976 0.053622,-0.03104 0.036689,-0.01129 0.093134,-0.01693 0.053622,-0.0028 0.095956,-0.0056 0.042333,-0.0028 0.084667,-0.0056 0.042333,-0.0028 0.087489,-0.0028 0.045156,0 0.1044226,0 0.1665116,0 0.3132677,0.0028 0.1495783,0.0028 0.3160902,0.01129 0.06773,0.0056 0.104422,0.01693 0.03669,0.0085 0.05645,0.0254 0.01976,0.01693 0.02258,0.03951 0.0056,0.02258 0.0056,0.0508 0,0.0508 -0.03669,0.08467 -0.03387,0.03387 -0.149578,0.03951 z"
       style="font-style:normal;font-variant:normal;font-weight:normal;font-stretch:normal;font-size:2.82223153px;font-family:Sniglet;-inkscape-font-specification:'Sniglet, Normal';font-variant-ligatures:normal;font-variant-caps:normal;font-variant-numeric:normal;font-feature-settings:normal;text-align:start;writing-mode:lr-tb;text-anchor:start;stroke-width:0.26458421"
       id="path901"
       inkscape:connector-curvature="0" />
  </g>
  <g
     aria-label="FORCE"
     style="font-style:normal;font-weight:normal;font-size:10.5833683px;line-height:1.25;font-family:sans-serif;letter-spacing:0px;word-spacing:0px;fill:#000000;fill-opacity:1;stroke:none;stroke-width:0.26458421"
     id="text862-8"
     transform="translate(0,1.8832142)">
    <path
       d="m 15.028118,79.881152 q 0,-0.237068 0.01693,-0.369713 0.01693,-0.135467 0.07056,-0.2032 0.05362,-0.06773 0.1524,-0.08185 0.09878,-0.01693 0.259646,-0.01693 0.09031,0 0.163689,0 0.07338,0 0.141112,0.0028 0.07056,0 0.138289,0.0028 0.07056,0.0028 0.1524,0.0056 0.06773,0.0056 0.104423,0.01693 0.03669,0.0085 0.05645,0.0254 0.01975,0.01693 0.02258,0.03951 0.0056,0.02258 0.0056,0.0508 0,0.0508 -0.03669,0.08467 -0.03387,0.03387 -0.149578,0.03951 -0.07056,0.0028 -0.13829,0.0056 -0.06491,0.0028 -0.149578,0.0056 -0.08185,0 -0.186267,0.0028 -0.104423,0 -0.251179,0 -0.0508,0 -0.07056,0.03669 -0.01975,0.03387 -0.01975,0.08749 0,0.04233 0,0.08467 0.0028,0.04233 0.0028,0.09313 0.0028,0.0508 0.0028,0.115712 0.0028,0.06209 0.0028,0.146756 0.104423,0 0.180623,0.0028 0.07902,0 0.135467,0.0028 0.05927,0 0.104423,0.0028 0.04516,0.0028 0.08749,0.0056 0.115712,0.0056 0.149578,0.03951 0.03669,0.03387 0.03669,0.08467 0,0.02822 -0.0056,0.0508 -0.0028,0.02258 -0.02258,0.03951 -0.01976,0.01693 -0.05645,0.02822 -0.03669,0.01129 -0.104422,0.01693 -0.04516,0.0028 -0.08749,0.0056 -0.03951,0 -0.09596,0.0028 -0.05362,0 -0.129823,0 -0.0762,0 -0.191912,0 -0.0028,0.169334 -0.0028,0.347134 0.0028,0.174979 -0.0085,0.361246 -0.0056,0.110067 -0.03951,0.135467 -0.03104,0.02258 -0.09596,0.02258 -0.06209,0 -0.09313,-0.0254 -0.03105,-0.02822 -0.03669,-0.129823 -0.0056,-0.09031 -0.0085,-0.197556 0,-0.110067 -0.0028,-0.248356 -0.0028,-0.141112 -0.0028,-0.31609 0,-0.177801 0,-0.406401 z"
       style="font-style:normal;font-variant:normal;font-weight:normal;font-stretch:normal;font-size:2.82223129px;font-family:Sniglet;-inkscape-font-specification:'Sniglet, Normal';font-variant-ligatures:normal;font-variant-caps:normal;font-variant-numeric:normal;font-feature-settings:normal;text-align:start;writing-mode:lr-tb;text-anchor:start;stroke-width:0.26458421"
       id="path886"
       inkscape:connector-curvature="0" />
    <path
       d="m 17.179055,81.221711 q -0.169334,0 -0.318912,-0.06773 -0.146756,-0.06773 -0.256823,-0.194734 -0.110067,-0.129823 -0.174979,-0.31609 -0.06209,-0.186267 -0.06209,-0.423335 0,-0.222956 0.05362,-0.409223 0.05644,-0.186268 0.163689,-0.321735 0.110067,-0.135467 0.270934,-0.208845 0.160867,-0.0762 0.372535,-0.0762 0.172156,0 0.327379,0.06209 0.155222,0.06209 0.270934,0.186267 0.118533,0.124179 0.186267,0.310446 0.06773,0.186267 0.06773,0.434623 0,0.206023 -0.05645,0.392291 -0.05362,0.186267 -0.166512,0.327378 -0.110067,0.13829 -0.279401,0.222957 -0.169334,0.08184 -0.397934,0.08184 z m 0.0056,-0.265289 q 0.155223,0 0.270934,-0.06209 0.115712,-0.06491 0.191912,-0.169334 0.0762,-0.104423 0.112889,-0.23989 0.03669,-0.138289 0.03669,-0.282223 0,-0.174978 -0.04798,-0.310446 -0.04515,-0.138289 -0.124178,-0.231423 -0.07902,-0.09313 -0.183445,-0.141111 -0.104422,-0.0508 -0.222956,-0.0508 -0.141112,0 -0.248356,0.05927 -0.104423,0.05927 -0.177801,0.160867 -0.07056,0.1016 -0.107245,0.239889 -0.03669,0.135468 -0.03669,0.29069 0,0.166512 0.04233,0.304801 0.04233,0.135467 0.112889,0.231423 0.07338,0.09596 0.172156,0.149578 0.09878,0.0508 0.208845,0.0508 z"
       style="font-style:normal;font-variant:normal;font-weight:normal;font-stretch:normal;font-size:2.82223129px;font-family:Sniglet;-inkscape-font-specification:'Sniglet, Normal';font-variant-ligatures:normal;font-variant-caps:normal;font-variant-numeric:normal;font-feature-settings:normal;text-align:start;writing-mode:lr-tb;text-anchor:start;stroke-width:0.26458421"
       id="path888"
       inkscape:connector-curvature="0" />
    <path
       d="m 19.014916,80.49922 q -0.03951,0.0028 -0.08184,0.0056 -0.03951,0 -0.08184,0 -0.04798,0 -0.09596,0 -0.04798,0 -0.107245,-0.0056 v 0.572913 q 0,0.09031 -0.04516,0.112889 -0.04233,0.01976 -0.107244,0.01976 -0.03387,0 -0.05362,-0.0056 -0.01975,-0.0028 -0.03387,-0.01411 -0.01129,-0.01411 -0.01975,-0.03951 -0.0056,-0.0254 -0.0085,-0.07056 -0.0056,-0.0508 -0.0085,-0.146756 -0.0028,-0.09878 -0.0056,-0.254 0,-0.155223 -0.0028,-0.375357 0,-0.222957 0,-0.522113 0,-0.115712 0.02822,-0.222956 0.02822,-0.110067 0.1016,-0.191912 0.07338,-0.08467 0.197557,-0.135467 0.127,-0.0508 0.321734,-0.0508 0.138289,0 0.268112,0.03104 0.132645,0.03105 0.234245,0.107245 0.1016,0.0762 0.16369,0.206023 0.06209,0.129823 0.06209,0.324557 0,0.259645 -0.11289,0.403579 -0.110067,0.141111 -0.304801,0.200378 l 0.378179,0.519291 q 0.0508,0.06773 0.0508,0.138289 0,0.05645 -0.03951,0.08749 -0.03669,0.03387 -0.09313,0.03387 -0.06209,0 -0.107245,-0.03387 -0.04516,-0.03669 -0.08467,-0.09313 z m 0.443091,-0.65758 q 0,-0.194734 -0.118534,-0.287867 -0.115712,-0.09596 -0.369712,-0.09596 -0.09313,0 -0.155223,0.01693 -0.06209,0.01411 -0.09878,0.05644 -0.03669,0.04233 -0.05362,0.118534 -0.01411,0.07338 -0.01411,0.189089 0,0.08185 0,0.191912 0,0.110067 0.0028,0.200378 0.06491,0.0028 0.143934,0.0028 0.08184,0 0.152401,0 0.07902,0 0.166511,-0.0085 0.09031,-0.01129 0.166512,-0.0508 0.0762,-0.04233 0.127,-0.118534 0.0508,-0.07902 0.0508,-0.21449 z"
       style="font-style:normal;font-variant:normal;font-weight:normal;font-stretch:normal;font-size:2.82223129px;font-family:Sniglet;-inkscape-font-specification:'Sniglet, Normal';font-variant-ligatures:normal;font-variant-caps:normal;font-variant-numeric:normal;font-feature-settings:normal;text-align:start;writing-mode:lr-tb;text-anchor:start;stroke-width:0.26458421"
       id="path890"
       inkscape:connector-curvature="0" />
    <path
       d="m 20.810341,79.195349 q 0.09313,0 0.186267,0.01693 0.09596,0.01411 0.172156,0.04798 0.0762,0.03104 0.124178,0.07902 0.0508,0.04516 0.0508,0.107245 0,0.06491 -0.03387,0.09878 -0.03387,0.03387 -0.08467,0.03387 -0.04798,0 -0.08467,-0.01411 -0.03669,-0.01693 -0.08467,-0.03669 -0.04516,-0.01976 -0.110067,-0.03387 -0.06491,-0.01693 -0.172156,-0.01693 -0.107245,0 -0.206023,0.05645 -0.09596,0.05362 -0.169334,0.152401 -0.07056,0.09596 -0.112889,0.2286 -0.04233,0.132645 -0.04233,0.287868 0,0.191912 0.04798,0.330201 0.0508,0.138289 0.129823,0.228601 0.07902,0.08749 0.1778,0.132645 0.101601,0.04233 0.203201,0.04233 0.121356,0 0.203201,-0.0254 0.08184,-0.0254 0.138289,-0.05644 0.05927,-0.03104 0.1016,-0.05644 0.04233,-0.0254 0.08185,-0.0254 0.04798,0 0.0762,0.02822 0.02822,0.0254 0.02822,0.09313 0,0.05644 -0.04516,0.115711 -0.04233,0.05645 -0.127001,0.104423 -0.08184,0.04515 -0.197556,0.0762 -0.115711,0.02822 -0.259645,0.02822 -0.158045,0 -0.31609,-0.06209 -0.155223,-0.06209 -0.279401,-0.183445 -0.121356,-0.124178 -0.197556,-0.307623 -0.0762,-0.186267 -0.0762,-0.431802 0,-0.245534 0.06773,-0.437445 0.07056,-0.191912 0.18909,-0.324557 0.121356,-0.135467 0.279401,-0.206023 0.160867,-0.07056 0.34149,-0.07056 z"
       style="font-style:normal;font-variant:normal;font-weight:normal;font-stretch:normal;font-size:2.82223129px;font-family:Sniglet;-inkscape-font-specification:'Sniglet, Normal';font-variant-ligatures:normal;font-variant-caps:normal;font-variant-numeric:normal;font-feature-settings:normal;text-align:start;writing-mode:lr-tb;text-anchor:start;stroke-width:0.26458421"
       id="path892"
       inkscape:connector-curvature="0" />
    <path
       d="m 21.698241,80.76451 q -0.0056,-0.09031 -0.01129,-0.245534 -0.0056,-0.155223 -0.0056,-0.318912 0,-0.09313 0,-0.191912 0.0028,-0.1016 0.0056,-0.206023 0.0056,-0.208845 0.0254,-0.327379 0.02258,-0.118533 0.08467,-0.1778 0.06491,-0.05927 0.180623,-0.07338 0.115711,-0.01411 0.307623,-0.01411 0.0028,0 0.05927,0 0.05927,0 0.141111,0.0028 0.08185,0 0.169334,0.0028 0.09031,0.0028 0.149578,0.0056 0.06209,0.0056 0.09878,0.01693 0.03951,0.0085 0.05927,0.0254 0.01976,0.01411 0.0254,0.03669 0.0056,0.01975 0.0056,0.04516 0,0.06491 -0.03669,0.09596 -0.03669,0.02822 -0.149578,0.03669 -0.05645,0.0056 -0.166512,0.0085 -0.107245,0 -0.220134,0 -0.112889,0 -0.203201,0.0028 -0.09031,0 -0.112889,0 -0.07338,0.0028 -0.104423,0.03387 -0.02822,0.02822 -0.02822,0.138289 0,0.0254 0.0028,0.124179 0.0056,0.09596 0.0056,0.270934 h 0.234245 q 0.149578,0 0.242712,0.0056 0.09596,0.0028 0.146756,0.01693 0.05362,0.01411 0.07338,0.04515 0.01976,0.03105 0.01976,0.08185 0,0.0254 -0.0056,0.04798 -0.0028,0.01976 -0.02258,0.03669 -0.01975,0.01411 -0.05644,0.0254 -0.03669,0.0085 -0.104423,0.01411 -0.08184,0.0056 -0.155223,0.0085 -0.07055,0 -0.141111,0 h -0.237068 q 0,0.04233 0,0.1016 0,0.05927 0,0.121356 0,0.06209 0,0.121356 0.0028,0.05927 0.0056,0.09596 0.0028,0.04516 0.01129,0.0762 0.01129,0.03104 0.03669,0.0508 0.02822,0.01976 0.07902,0.02822 0.05362,0.0085 0.141112,0.0085 h 0.606779 q 0.09878,0 0.124179,0.03669 0.0254,0.03669 0.0254,0.09878 0,0.0508 -0.02258,0.07902 -0.02258,0.0254 -0.110067,0.03669 -0.08467,0.01411 -0.256823,0.01693 -0.169334,0.0028 -0.468491,0.0028 -0.127,0 -0.208845,-0.02258 -0.08184,-0.02258 -0.132645,-0.0762 -0.0508,-0.05362 -0.0762,-0.13829 -0.02258,-0.08749 -0.03104,-0.211667 z"
       style="font-style:normal;font-variant:normal;font-weight:normal;font-stretch:normal;font-size:2.82223129px;font-family:Sniglet;-inkscape-font-specification:'Sniglet, Normal';font-variant-ligatures:normal;font-variant-caps:normal;font-variant-numeric:normal;font-feature-settings:normal;text-align:start;writing-mode:lr-tb;text-anchor:start;stroke-width:0.26458421"
       id="path894"
       inkscape:connector-curvature="0" />
  </g>
  <g
     aria-label="0 - 2V"
     style="font-style:normal;font-weight:normal;font-size:10.5833683px;line-height:1.25;font-family:sans-serif;letter-spacing:0px;word-spacing:0px;fill:#000000;fill-opacity:1;stroke:none;stroke-width:0.26458421"
     id="text919"
     transform="translate(0,2.1166736)">
    <path
       d="m 5.1707208,72.986463 q 0,-0.129117 0.023283,-0.264584 0.0254,-0.135467 0.0889,-0.245534 0.0635,-0.110068 0.1714506,-0.179918 0.110067,-0.06985 0.2794009,-0.06985 0.1333504,0 0.2264841,0.04022 0.09525,0.04022 0.1566338,0.105834 0.061384,0.06562 0.09525,0.150283 0.033867,0.08255 0.0508,0.173568 0.016933,0.09102 0.01905,0.179917 0.00423,0.0889 0.00423,0.162984 0,0.148167 -0.035983,0.273051 -0.033867,0.122767 -0.1058337,0.211667 -0.06985,0.0889 -0.1778006,0.1397 -0.1058337,0.04868 -0.2497675,0.04868 -0.1502838,0 -0.2561175,-0.05715 -0.103717,-0.05927 -0.1693339,-0.156634 -0.0635,-0.09948 -0.093134,-0.230718 -0.027517,-0.13335 -0.027517,-0.281517 z m 0.2116674,-0.0042 q 0,0.103717 0.016933,0.198967 0.01905,0.09313 0.059267,0.1651 0.040217,0.06985 0.103717,0.112184 0.065617,0.04233 0.1587506,0.04233 0.0889,0 0.1545171,-0.03598 0.067734,-0.03598 0.1121837,-0.09948 0.04445,-0.06562 0.065617,-0.154517 0.021167,-0.0889 0.021167,-0.192617 0,-0.07832 -0.00635,-0.177801 -0.00635,-0.1016 -0.040217,-0.1905 -0.03175,-0.0889 -0.1016003,-0.150284 -0.06985,-0.06138 -0.194734,-0.06138 -0.1058337,0 -0.1735672,0.0508 -0.065617,0.0508 -0.1058337,0.131233 -0.040217,0.07832 -0.055033,0.175684 -0.014817,0.09525 -0.014817,0.186268 z"
       style="font-style:normal;font-variant:normal;font-weight:normal;font-stretch:normal;font-size:2.11667371px;font-family:Sniglet;-inkscape-font-specification:'Sniglet, Normal';font-variant-ligatures:normal;font-variant-caps:normal;font-variant-numeric:normal;font-feature-settings:normal;text-align:start;writing-mode:lr-tb;text-anchor:start;stroke-width:0.26458421"
       id="path922"
       inkscape:connector-curvature="0" />
    <path
       d="m 7.6480889,73.181197 q -0.097367,0.0042 -0.2243674,0.0085 -0.1270004,0.0021 -0.3005677,0.0021 -0.071967,0 -0.1227671,-0.0021 -0.0508,-0.0021 -0.08255,-0.01058 -0.03175,-0.01058 -0.046567,-0.03175 -0.014817,-0.02117 -0.014817,-0.05927 0,-0.01905 0.00423,-0.03387 0.00423,-0.01693 0.01905,-0.02963 0.014817,-0.0127 0.040217,-0.02117 0.027517,-0.01058 0.06985,-0.01482 0.03175,-0.0021 0.055033,-0.0042 0.0254,-0.0021 0.048684,-0.0021 0.023283,-0.0021 0.048684,-0.0021 0.027517,0 0.0635,0 0.1143004,0 0.2201341,0.0021 0.1058336,0 0.220134,0.0063 0.0508,0.0042 0.078317,0.0127 0.027517,0.0064 0.042333,0.01905 0.014817,0.0127 0.016933,0.02963 0.00423,0.01693 0.00423,0.0381 0,0.0381 -0.027517,0.0635 -0.0254,0.0254 -0.1121837,0.02963 z"
       style="font-style:normal;font-variant:normal;font-weight:normal;font-stretch:normal;font-size:2.11667371px;font-family:Sniglet;-inkscape-font-specification:'Sniglet, Normal';font-variant-ligatures:normal;font-variant-caps:normal;font-variant-numeric:normal;font-feature-settings:normal;text-align:start;writing-mode:lr-tb;text-anchor:start;stroke-width:0.26458421"
       id="path924"
       inkscape:connector-curvature="0" />
    <path
       d="m 8.8407354,72.431894 q -0.0762,0 -0.1270004,0.01693 -0.0508,0.01482 -0.084667,0.04022 -0.033867,0.0254 -0.055034,0.05292 -0.01905,0.02752 -0.0381,0.05292 -0.016933,0.0254 -0.0381,0.04233 -0.01905,0.01482 -0.048683,0.01482 -0.0508,0 -0.071967,-0.0254 -0.01905,-0.02752 -0.01905,-0.07197 0,-0.09313 0.06985,-0.173567 0.021167,-0.0254 0.05715,-0.05292 0.0381,-0.02963 0.0889,-0.05292 0.052917,-0.02328 0.1206504,-0.0381 0.06985,-0.01693 0.1566338,-0.01693 0.2307175,0 0.3577179,0.112184 0.1270004,0.112183 0.1270004,0.315384 0,0.04022 -0.00847,0.0889 -0.00635,0.04868 -0.027517,0.101601 -0.01905,0.05292 -0.055034,0.110067 -0.035984,0.05715 -0.09525,0.116417 -0.052917,0.05292 -0.1121837,0.09737 -0.059267,0.04445 -0.122767,0.0889 -0.0635,0.04445 -0.1333505,0.09525 -0.067734,0.04868 -0.1375838,0.112184 0.067734,0.03598 0.1460505,0.04657 0.078317,0.01058 0.1756839,0.01058 0.091017,0 0.1460505,-0.0042 0.055033,-0.0042 0.0889,-0.01058 0.033867,-0.0063 0.052917,-0.01058 0.01905,-0.0042 0.040217,-0.0042 0.078317,0 0.078317,0.07197 0,0.0635 -0.052917,0.09737 -0.052917,0.03387 -0.1270004,0.0508 -0.074084,0.01482 -0.1524005,0.01693 -0.078317,0.0042 -0.1291171,0.0042 -0.027517,0 -0.078317,-0.0042 -0.048684,-0.0021 -0.1058337,-0.01058 -0.05715,-0.0085 -0.1164171,-0.02328 -0.05715,-0.01693 -0.1058336,-0.04233 -0.046567,-0.02752 -0.0762,-0.06562 -0.029633,-0.04022 -0.029633,-0.09525 0,-0.07408 0.052917,-0.139701 0.055033,-0.06773 0.1354671,-0.131233 0.080434,-0.06562 0.1735673,-0.129117 0.093134,-0.06562 0.1735672,-0.133351 0.080434,-0.06985 0.1333505,-0.143934 0.055034,-0.07408 0.055034,-0.160867 0,-0.10795 -0.074084,-0.160867 -0.071967,-0.05503 -0.207434,-0.05503 z"
       style="font-style:normal;font-variant:normal;font-weight:normal;font-stretch:normal;font-size:2.11667371px;font-family:Sniglet;-inkscape-font-specification:'Sniglet, Normal';font-variant-ligatures:normal;font-variant-caps:normal;font-variant-numeric:normal;font-feature-settings:normal;text-align:start;writing-mode:lr-tb;text-anchor:start;stroke-width:0.26458421"
       id="path927"
       inkscape:connector-curvature="0" />
    <path
       d="m 10.18135,73.625698 q -0.02752,0.0508 -0.0508,0.07408 -0.02117,0.02328 -0.05503,0.02328 -0.03387,0 -0.05927,-0.02328 -0.0254,-0.02328 -0.055034,-0.07197 -0.0381,-0.0635 -0.086784,-0.175684 Q 9.827865,73.33994 9.779182,73.208707 9.730499,73.075356 9.683932,72.933539 9.637365,72.791722 9.599265,72.666838 9.563281,72.541954 9.539998,72.448821 9.518831,72.353571 9.518831,72.313354 q 0,-0.04233 0.016933,-0.0635 0.016933,-0.02117 0.065617,-0.02117 0.027517,0 0.046567,0.01482 0.021167,0.0127 0.052917,0.0762 0.0254,0.04868 0.055034,0.127 0.029633,0.07832 0.061383,0.173567 0.033867,0.09525 0.067734,0.201084 0.033867,0.103717 0.067733,0.207434 0.033867,0.103717 0.0635,0.198968 0.02963,0.09525 0.05503,0.17145 0.0254,-0.07832 0.05715,-0.173567 0.03175,-0.09737 0.06562,-0.198967 0.03387,-0.103717 0.06773,-0.207434 0.03387,-0.105834 0.06773,-0.198968 0.03387,-0.09313 0.0635,-0.17145 0.02963,-0.07832 0.05292,-0.129117 0.02963,-0.06138 0.0508,-0.0762 0.02328,-0.01482 0.04657,-0.01482 0.04868,0 0.06562,0.0254 0.01905,0.02328 0.01905,0.06985 0,0.04233 -0.0127,0.1016 -0.0127,0.05927 -0.04445,0.158751 -0.02963,0.09737 -0.08043,0.243417 -0.0508,0.146051 -0.124884,0.357718 -0.01905,0.05715 -0.04445,0.118534 -0.02328,0.06138 -0.04868,0.12065 -0.02328,0.05715 -0.04657,0.110067 -0.02328,0.05292 -0.04445,0.09102 z"
       style="font-style:normal;font-variant:normal;font-weight:normal;font-stretch:normal;font-size:2.11667371px;font-family:Sniglet;-inkscape-font-specification:'Sniglet, Normal';font-variant-ligatures:normal;font-variant-caps:normal;font-variant-numeric:normal;font-feature-settings:normal;text-align:start;writing-mode:lr-tb;text-anchor:start;stroke-width:0.26458421"
       id="path929"
       inkscape:connector-curvature="0" />
  </g>
</svg>
