<?xml version="1.0" encoding="UTF-8" standalone="no"?>
<svg
   width="30.48mm"
   height="128.5mm"
   viewBox="0 0 30.48064 128.50044"
   version="1.1"
   id="svg78"
   sodipodi:docname="ChordKeyExpander.svg"
   inkscape:version="1.1 (c68e22c387, 2021-05-23)"
   xmlns:inkscape="http://www.inkscape.org/namespaces/inkscape"
   xmlns:sodipodi="http://sodipodi.sourceforge.net/DTD/sodipodi-0.dtd"
   xmlns="http://www.w3.org/2000/svg"
   xmlns:svg="http://www.w3.org/2000/svg"
   xmlns:rdf="http://www.w3.org/1999/02/22-rdf-syntax-ns#"
   xmlns:cc="http://creativecommons.org/ns#"
   xmlns:dc="http://purl.org/dc/elements/1.1/">
  <metadata
     id="metadata84">
    <rdf:RDF>
      <cc:Work
         rdf:about="">
        <dc:format>image/svg+xml</dc:format>
        <dc:type
           rdf:resource="http://purl.org/dc/dcmitype/StillImage" />
        <dc:title />
      </cc:Work>
    </rdf:RDF>
  </metadata>
  <defs
     id="defs82" />
  <sodipodi:namedview
     pagecolor="#ffffff"
     bordercolor="#666666"
     borderopacity="1"
     objecttolerance="10"
     gridtolerance="10"
     guidetolerance="10"
     inkscape:pageopacity="0"
     inkscape:pageshadow="2"
     inkscape:window-width="1920"
     inkscape:window-height="1057"
     id="namedview80"
     showgrid="false"
     inkscape:document-units="mm"
     units="mm"
     inkscape:zoom="1.501713"
     inkscape:cx="3.6624841"
     inkscape:cy="221.41381"
     inkscape:window-x="-8"
     inkscape:window-y="-8"
     inkscape:window-maximized="1"
     inkscape:current-layer="svg78"
     inkscape:pagecheckerboard="0" />
  <g
     style="line-height:1.25;stroke-width:0.78125;fill:#232323;fill-opacity:1"
     id="g6"
     transform="matrix(1.28,0,0,1.28,0,-0.09601883)">
    <path
       style="font-weight:400;font-size:3.52800012px;font-family:Arial;-inkscape-font-specification:'Arial, Normal';font-variant-ligatures:normal;font-variant-caps:normal;font-variant-numeric:normal;font-feature-settings:normal;text-align:start;letter-spacing:0;word-spacing:0;fill:#232323;stroke-width:0.78125;fill-opacity:1"
       d="m 12.383,96.87 -1.63,0.115 v -2.06 q 0,-0.23 0.064,-0.333 0.064,-0.104 0.22,-0.147 0.153,-0.043 0.348,-0.002 0.223,0.047 0.356,0.19 0.134,0.146 0.134,0.33 0,0.186 -0.158,0.286 -0.158,0.103 -0.408,0.05 -0.082,-0.018 -0.143,-0.044 -0.064,-0.027 -0.205,-0.11 v 1.345 l 1.22,-0.085 v -1.554 q 0,-0.225 0.064,-0.337 0.066,-0.11 0.226,-0.151 0.16,-0.04 0.348,0 0.223,0.047 0.354,0.19 0.13,0.14 0.13,0.325 0,0.195 -0.156,0.294 -0.156,0.1 -0.408,0.047 -0.16,-0.034 -0.356,-0.16 z"
       font-size="3.528"
       aria-label="♫"
       font-weight="400"
       letter-spacing="0"
       word-spacing="0"
       id="path4"
       inkscape:connector-curvature="0" />
  </g>
  <rect
     rx="2.3399999"
     ry="2.3399999"
     y="-28.448"
     x="-118.88254"
     height="26.416641"
     width="16.5952"
     transform="matrix(0,-1,-1,0,0,0)"
     id="rect8"
     style="fill:#afafaf;stroke-width:1;paint-order:stroke markers fill;fill-opacity:1" />
  <text
     style="font-weight:400;font-size:13.5475px;line-height:1.25;font-family:sans-serif;letter-spacing:0;word-spacing:0;stroke-width:0.265"
     x="8.4671993"
     y="16.939503"
     font-weight="400"
     font-size="10.584"
     letter-spacing="0"
     word-spacing="0"
     id="text10" />
  <g
     style="line-height:1.25;stroke-width:0.78125;fill:#232323;fill-opacity:1"
     id="g14"
     transform="matrix(1.28,0,0,1.28,0,-0.09601883)">
    <path
       d="m 17.656,83.005 q -0.003,0.107 -0.003,0.234 0,0.127 -0.008,0.237 -0.006,0.085 -0.04,0.11 -0.03,0.023 -0.087,0.023 -0.051,0 -0.08,-0.02 -0.025,-0.017 -0.04,-0.076 -0.01,-0.062 -0.013,-0.178 -0.003,-0.12 -0.003,-0.316 -0.093,0 -0.177,0.003 l -0.164,0.002 q -0.12,0 -0.217,-0.005 -0.096,-0.006 -0.167,-0.02 -0.068,-0.017 -0.107,-0.045 -0.037,-0.028 -0.037,-0.073 0,-0.063 0.05,-0.156 0.052,-0.096 0.128,-0.206 0.076,-0.11 0.16,-0.223 l 0.162,-0.214 0.096,-0.124 q 0.065,-0.082 0.138,-0.16 0.073,-0.083 0.147,-0.142 0.073,-0.06 0.124,-0.06 0.048,0 0.085,0.03 0.036,0.033 0.042,0.145 0.01,0.164 0.014,0.345 0.003,0.178 0.003,0.352 v 0.28 q 0.079,0.005 0.127,0.014 0.048,0.01 0.073,0.025 0.026,0.015 0.034,0.037 0.008,0.023 0.008,0.057 0,0.07 -0.064,0.096 -0.065,0.022 -0.184,0.028 z m -0.276,-0.923 -0.212,0.257 -0.147,0.18 q -0.06,0.077 -0.104,0.13 l -0.077,0.096 q 0.13,-0.006 0.266,-0.006 l 0.274,-0.002 z"
       style="font-weight:400;font-size:2.82200003px;font-family:Sniglet;-inkscape-font-specification:'Sniglet, Normal';font-variant-ligatures:normal;font-variant-caps:normal;font-variant-numeric:normal;font-feature-settings:normal;text-align:start;letter-spacing:0;word-spacing:0;stroke-width:0.78125;fill:#232323;fill-opacity:1"
       font-size="2.822"
       aria-label="4"
       font-weight="400"
       letter-spacing="0"
       word-spacing="0"
       id="path12"
       inkscape:connector-curvature="0" />
  </g>
  <g
     aria-label="QNT"
     style="font-weight:400;font-size:2.82200003px;line-height:1.25;font-family:Sniglet;letter-spacing:0;word-spacing:0;stroke-width:0.20703124;fill:#232323;fill-opacity:1"
     font-weight="400"
     font-size="2.822"
     letter-spacing="0"
     word-spacing="0"
     id="g18"
     transform="matrix(1.28,0,0,1.28,0,-0.09601883)">
    <path
       d="m 10.236,83.522 q -0.17,0 -0.319,-0.068 Q 9.771,83.386 9.661,83.259 9.551,83.129 9.486,82.943 9.423,82.757 9.423,82.52 q 0,-0.223 0.054,-0.41 0.057,-0.186 0.164,-0.321 0.11,-0.136 0.27,-0.209 0.162,-0.076 0.373,-0.076 0.172,0 0.328,0.062 0.155,0.062 0.27,0.186 0.12,0.124 0.187,0.31 0.068,0.187 0.068,0.435 0,0.203 -0.054,0.384 -0.05,0.18 -0.158,0.322 l 0.16,0.132 q 0.032,0.026 0.057,0.065 0.028,0.037 0.028,0.085 0,0.056 -0.045,0.09 -0.045,0.034 -0.107,0.034 -0.079,0 -0.166,-0.079 l -0.147,-0.127 q -0.096,0.057 -0.212,0.088 -0.116,0.03 -0.257,0.03 z m 0.006,-0.266 q 0.155,0 0.27,-0.062 0.117,-0.065 0.193,-0.169 0.076,-0.104 0.113,-0.24 0.036,-0.138 0.036,-0.282 0,-0.175 -0.048,-0.31 -0.045,-0.139 -0.124,-0.232 -0.079,-0.093 -0.183,-0.141 -0.105,-0.05 -0.223,-0.05 -0.141,0 -0.249,0.058 -0.104,0.06 -0.177,0.161 -0.071,0.102 -0.108,0.24 -0.036,0.136 -0.036,0.29 0,0.167 0.042,0.306 0.042,0.135 0.113,0.231 0.073,0.096 0.172,0.15 0.099,0.05 0.209,0.05 z m 2.296,0.104 q -0.09,-0.123 -0.172,-0.245 l -0.172,-0.27 q -0.09,-0.147 -0.21,-0.325 -0.115,-0.18 -0.279,-0.42 v 0.38 q 0,0.167 -0.003,0.31 l -0.005,0.272 q -0.003,0.127 -0.009,0.254 -0.002,0.067 -0.014,0.104 -0.008,0.037 -0.025,0.057 -0.017,0.02 -0.04,0.022 -0.02,0.006 -0.048,0.006 -0.05,0 -0.084,-0.034 -0.034,-0.037 -0.04,-0.153 -0.014,-0.31 -0.017,-0.62 v -0.647 q 0,-0.189 0.003,-0.296 0.006,-0.107 0.02,-0.161 0.017,-0.054 0.042,-0.068 0.028,-0.014 0.074,-0.014 0.045,0 0.118,0.07 0.073,0.068 0.16,0.181 0.088,0.113 0.187,0.26 0.102,0.147 0.2,0.302 0.1,0.155 0.19,0.308 l 0.169,0.276 Q 12.58,82.777 12.58,82.619 v -0.356 q 0,-0.223 0.003,-0.367 0.003,-0.147 0.014,-0.231 0.014,-0.085 0.042,-0.119 0.029,-0.034 0.08,-0.034 0.047,0 0.084,0.031 0.037,0.031 0.042,0.144 l 0.009,0.18 0.006,0.159 q 0.002,0.076 0.002,0.16 v 0.43 q 0,0.115 -0.002,0.228 l -0.006,0.229 q -0.003,0.116 -0.009,0.243 -0.002,0.067 -0.014,0.104 -0.008,0.037 -0.025,0.057 -0.017,0.02 -0.04,0.022 -0.02,0.006 -0.048,0.006 -0.048,0 -0.081,-0.029 -0.034,-0.028 -0.1,-0.115 z m 1.761,-1.582 q -0.08,0.005 -0.17,0.008 l -0.195,0.006 0.006,0.144 0.006,0.132 q 0.002,0.068 0.002,0.141 0.003,0.074 0.003,0.164 v 0.246 q 0,0.115 -0.003,0.234 l -0.005,0.234 q -0.003,0.119 -0.009,0.246 -0.002,0.067 -0.014,0.104 -0.008,0.037 -0.025,0.056 -0.017,0.02 -0.04,0.023 -0.022,0.006 -0.05,0.006 -0.051,0 -0.088,-0.034 -0.034,-0.037 -0.04,-0.153 -0.005,-0.101 -0.008,-0.214 0,-0.113 -0.003,-0.243 -0.003,-0.13 -0.003,-0.28 v -0.335 -0.271 q 0.003,-0.116 0.009,-0.2 h -0.116 q -0.118,0 -0.203,-0.003 -0.082,-0.003 -0.135,-0.014 -0.054,-0.014 -0.08,-0.043 -0.022,-0.028 -0.022,-0.079 0,-0.025 0.006,-0.045 0.005,-0.022 0.025,-0.04 0.02,-0.02 0.054,-0.03 0.036,-0.012 0.093,-0.017 l 0.096,-0.006 0.084,-0.006 q 0.043,-0.002 0.088,-0.002 h 0.104 q 0.167,0 0.314,0.002 0.15,0.003 0.316,0.012 0.067,0.005 0.104,0.017 0.037,0.008 0.056,0.025 0.02,0.017 0.023,0.04 0.006,0.022 0.006,0.05 0,0.051 -0.037,0.085 -0.034,0.034 -0.15,0.04 z"
       style="-inkscape-font-specification:'Sniglet, Normal';font-variant-ligatures:normal;font-variant-caps:normal;font-variant-numeric:normal;font-feature-settings:normal;text-align:start;stroke-width:0.20703124;fill:#232323;fill-opacity:1"
       id="path16"
       inkscape:connector-curvature="0" />
  </g>
  <rect
     rx="2.3399999"
     ry="2.3399999"
     y="-28.448"
     x="-64.355827"
     height="26.416641"
     width="16.5952"
     transform="matrix(0,-1,-1,0,0,0)"
     id="rect20"
     style="fill:#afafaf;stroke-width:1;paint-order:stroke markers fill;fill-opacity:1" />
  <g
     style="line-height:1.25;stroke-width:0.78125;fill:#232323;fill-opacity:1"
     id="g24"
     transform="matrix(1.28,0,0,1.28,0,-0.09601883)">
    <path
       d="m 6.682,40.823 q -0.005,-0.1 -0.008,-0.21 0,-0.11 -0.003,-0.238 -0.003,-0.127 -0.003,-0.274 v -0.686 l -0.17,0.088 q -0.07,0.045 -0.112,0.053 -0.04,0.01 -0.087,0.01 -0.043,0 -0.076,-0.038 -0.03,-0.036 -0.03,-0.087 0,-0.05 0.032,-0.088 0.037,-0.04 0.085,-0.07 0.062,-0.043 0.133,-0.085 0.073,-0.042 0.14,-0.076 0.07,-0.037 0.125,-0.057 0.06,-0.022 0.1,-0.022 0.02,0 0.04,0.005 0.021,0.006 0.038,0.023 0.02,0.017 0.03,0.054 0.015,0.033 0.018,0.093 l 0.008,0.178 0.006,0.15 q 0.003,0.07 0.003,0.15 v 0.425 q 0,0.116 -0.003,0.228 l -0.006,0.23 -0.008,0.242 q -0.003,0.067 -0.014,0.104 -0.01,0.037 -0.026,0.057 -0.017,0.02 -0.04,0.022 -0.02,0.006 -0.047,0.006 -0.05,0 -0.085,-0.034 -0.034,-0.037 -0.04,-0.152 z"
       style="font-weight:400;font-size:2.82200003px;font-family:Sniglet;-inkscape-font-specification:'Sniglet, Normal';font-variant-ligatures:normal;font-variant-caps:normal;font-variant-numeric:normal;font-feature-settings:normal;text-align:start;letter-spacing:0;word-spacing:0;stroke-width:0.78125;fill:#232323;fill-opacity:1"
       font-size="2.822"
       aria-label="1"
       font-weight="400"
       letter-spacing="0"
       word-spacing="0"
       id="path22"
       inkscape:connector-curvature="0" />
  </g>
  <g
     style="line-height:1.25;stroke-width:0.78125;fill:#232323;fill-opacity:1"
     id="g28"
     transform="matrix(1.28,0,0,1.28,0,-0.09601883)">
    <path
       d="m 6.199,81.9 q -0.09,0 -0.132,-0.046 -0.043,-0.048 -0.043,-0.096 0,-0.05 0.048,-0.082 0.048,-0.034 0.127,-0.05 0.08,-0.02 0.18,-0.026 0.103,-0.01 0.207,-0.01 0.087,0 0.195,0.01 0.107,0.006 0.2,0.034 0.093,0.025 0.155,0.08 0.062,0.05 0.062,0.14 0,0.07 -0.053,0.147 -0.054,0.076 -0.124,0.144 -0.071,0.067 -0.142,0.12 l -0.098,0.074 q 0.299,0 0.434,0.15 0.136,0.15 0.136,0.43 0,0.174 -0.065,0.304 -0.062,0.13 -0.17,0.217 -0.104,0.085 -0.242,0.127 -0.136,0.042 -0.28,0.042 -0.118,0 -0.234,-0.02 -0.113,-0.02 -0.203,-0.067 -0.09,-0.05 -0.147,-0.133 -0.053,-0.084 -0.053,-0.21 0,-0.13 0.14,-0.13 0.043,0 0.066,0.024 0.025,0.02 0.042,0.05 0.02,0.03 0.04,0.066 0.02,0.037 0.056,0.068 0.04,0.028 0.102,0.05 0.064,0.02 0.169,0.02 0.082,0 0.16,-0.017 0.08,-0.02 0.142,-0.062 0.062,-0.042 0.099,-0.113 0.04,-0.073 0.04,-0.18 0,-0.21 -0.088,-0.297 -0.085,-0.087 -0.24,-0.087 -0.04,0 -0.074,0.014 -0.034,0.01 -0.067,0.028 l -0.07,0.028 q -0.038,0.012 -0.083,0.012 -0.045,0 -0.079,-0.04 -0.034,-0.042 -0.034,-0.107 0,-0.045 0.043,-0.105 0.045,-0.06 0.121,-0.135 0.079,-0.076 0.19,-0.166 0.11,-0.094 0.245,-0.2 H 6.809 L 6.733,81.902 H 6.386 Q 6.284,81.899 6.199,81.899 Z"
       style="font-weight:400;font-size:2.82200003px;font-family:Sniglet;-inkscape-font-specification:'Sniglet, Normal';font-variant-ligatures:normal;font-variant-caps:normal;font-variant-numeric:normal;font-feature-settings:normal;text-align:start;letter-spacing:0;word-spacing:0;stroke-width:0.78125;fill:#232323;fill-opacity:1"
       font-size="2.822"
       aria-label="3"
       font-weight="400"
       letter-spacing="0"
       word-spacing="0"
       id="path26"
       inkscape:connector-curvature="0" />
  </g>
  <g
     aria-label="QNT"
     style="font-weight:400;font-size:2.82200003px;line-height:1.25;font-family:Sniglet;letter-spacing:0;word-spacing:0;stroke-width:0.20703124;fill:#232323;fill-opacity:1"
     font-weight="400"
     font-size="2.822"
     letter-spacing="0"
     word-spacing="0"
     id="g32"
     transform="matrix(1.28,0,0,1.28,0,-0.09601883)">
    <path
       d="m 10.236,40.923 q -0.17,0 -0.319,-0.068 Q 9.771,40.787 9.661,40.66 9.551,40.53 9.486,40.344 9.423,40.158 9.423,39.921 q 0,-0.223 0.054,-0.41 0.056,-0.186 0.164,-0.321 0.11,-0.135 0.27,-0.209 0.162,-0.076 0.373,-0.076 0.172,0 0.328,0.062 0.155,0.062 0.27,0.186 0.12,0.125 0.187,0.31 0.068,0.187 0.068,0.435 0,0.204 -0.054,0.384 -0.05,0.18 -0.158,0.322 l 0.16,0.133 q 0.032,0.025 0.057,0.065 0.028,0.036 0.028,0.084 0,0.057 -0.045,0.09 -0.045,0.034 -0.107,0.034 -0.079,0 -0.166,-0.079 l -0.147,-0.127 q -0.096,0.057 -0.212,0.088 -0.116,0.03 -0.257,0.03 z m 0.006,-0.265 q 0.155,0 0.27,-0.062 0.116,-0.065 0.193,-0.17 0.076,-0.104 0.113,-0.24 0.036,-0.138 0.036,-0.282 0,-0.175 -0.048,-0.31 -0.045,-0.139 -0.124,-0.232 -0.079,-0.093 -0.183,-0.14 -0.105,-0.052 -0.223,-0.052 -0.141,0 -0.249,0.06 -0.104,0.059 -0.177,0.16 -0.071,0.102 -0.108,0.24 -0.036,0.136 -0.036,0.291 0,0.166 0.042,0.305 0.042,0.135 0.113,0.231 0.073,0.096 0.172,0.15 0.099,0.05 0.209,0.05 z m 2.296,0.104 q -0.09,-0.124 -0.172,-0.246 l -0.173,-0.27 q -0.09,-0.147 -0.208,-0.325 -0.116,-0.18 -0.28,-0.42 v 0.38 q 0,0.167 -0.003,0.31 l -0.005,0.272 q -0.003,0.127 -0.009,0.254 -0.002,0.068 -0.014,0.104 -0.008,0.037 -0.025,0.057 -0.017,0.02 -0.04,0.022 -0.02,0.006 -0.048,0.006 -0.05,0 -0.084,-0.034 -0.034,-0.037 -0.04,-0.152 -0.014,-0.31 -0.017,-0.621 v -0.647 q 0,-0.189 0.003,-0.296 0.006,-0.107 0.02,-0.16 0.017,-0.054 0.042,-0.069 0.028,-0.014 0.074,-0.014 0.045,0 0.118,0.07 0.073,0.069 0.16,0.182 0.088,0.112 0.187,0.26 0.102,0.146 0.2,0.301 0.1,0.155 0.19,0.308 l 0.169,0.276 Q 12.58,40.178 12.58,40.02 v -0.356 q 0,-0.223 0.003,-0.367 0.003,-0.147 0.014,-0.231 0.014,-0.085 0.042,-0.119 0.029,-0.034 0.08,-0.034 0.047,0 0.084,0.031 0.037,0.031 0.042,0.144 l 0.009,0.181 0.006,0.158 q 0.002,0.076 0.002,0.16 v 0.43 q 0,0.116 -0.002,0.229 l -0.006,0.228 q -0.003,0.116 -0.009,0.243 -0.002,0.068 -0.014,0.104 -0.008,0.037 -0.025,0.057 -0.017,0.02 -0.04,0.022 -0.02,0.006 -0.048,0.006 -0.048,0 -0.081,-0.028 -0.034,-0.029 -0.1,-0.116 z m 1.761,-1.583 q -0.08,0.005 -0.17,0.008 l -0.195,0.006 0.006,0.144 0.006,0.132 q 0.002,0.068 0.002,0.142 0.003,0.073 0.003,0.163 v 0.246 q 0,0.115 -0.003,0.234 l -0.005,0.234 q -0.003,0.119 -0.009,0.246 -0.002,0.068 -0.014,0.104 -0.008,0.037 -0.025,0.057 -0.017,0.02 -0.04,0.022 -0.022,0.006 -0.05,0.006 -0.051,0 -0.088,-0.034 -0.034,-0.037 -0.04,-0.152 -0.005,-0.102 -0.008,-0.215 0,-0.113 -0.003,-0.243 -0.003,-0.13 -0.003,-0.28 v -0.335 -0.27 q 0.003,-0.117 0.009,-0.201 h -0.116 q -0.118,0 -0.203,-0.003 -0.082,-0.003 -0.135,-0.014 -0.054,-0.014 -0.08,-0.042 -0.022,-0.029 -0.022,-0.08 0,-0.025 0.006,-0.045 0.005,-0.022 0.025,-0.04 0.02,-0.019 0.054,-0.03 0.036,-0.011 0.093,-0.017 l 0.096,-0.006 0.084,-0.005 q 0.043,-0.003 0.088,-0.003 h 0.104 q 0.167,0 0.314,0.003 0.15,0.002 0.316,0.011 0.067,0.006 0.104,0.017 0.037,0.008 0.056,0.025 0.02,0.017 0.023,0.04 0.006,0.022 0.006,0.05 0,0.051 -0.037,0.085 -0.034,0.034 -0.15,0.04 z"
       style="-inkscape-font-specification:'Sniglet, Normal';font-variant-ligatures:normal;font-variant-caps:normal;font-variant-numeric:normal;font-feature-settings:normal;text-align:start;stroke-width:0.20703124;fill:#232323;fill-opacity:1"
       id="path30"
       inkscape:connector-curvature="0" />
  </g>
  <g
     aria-label="OCT"
     style="font-weight:400;font-size:2.82200003px;line-height:1.25;font-family:Sniglet;letter-spacing:0;word-spacing:0;stroke-width:0.20703124;fill:#232323;fill-opacity:1"
     font-weight="400"
     font-size="2.822"
     letter-spacing="0"
     word-spacing="0"
     id="g36"
     transform="matrix(1.28,0,0,1.28,0,-0.09601883)">
    <path
       d="m 10.261,68.792 q -0.17,0 -0.319,-0.068 Q 9.796,68.657 9.685,68.53 9.575,68.4 9.51,68.214 9.448,68.027 9.448,67.79 q 0,-0.223 0.054,-0.409 0.056,-0.186 0.164,-0.322 0.11,-0.135 0.27,-0.209 0.161,-0.076 0.373,-0.076 0.172,0 0.328,0.062 0.155,0.062 0.27,0.187 0.119,0.124 0.187,0.31 0.067,0.186 0.067,0.435 0,0.206 -0.056,0.392 -0.054,0.186 -0.166,0.327 -0.11,0.139 -0.28,0.223 -0.17,0.082 -0.398,0.082 z m 0.006,-0.265 q 0.155,0 0.27,-0.062 0.116,-0.065 0.193,-0.17 0.076,-0.104 0.113,-0.24 0.036,-0.138 0.036,-0.282 0,-0.175 -0.048,-0.31 -0.045,-0.138 -0.124,-0.232 -0.079,-0.093 -0.183,-0.14 -0.105,-0.051 -0.223,-0.051 -0.141,0 -0.249,0.059 -0.104,0.06 -0.178,0.16 -0.07,0.102 -0.107,0.24 -0.036,0.136 -0.036,0.291 0,0.167 0.042,0.305 0.042,0.136 0.113,0.232 0.073,0.095 0.172,0.15 0.099,0.05 0.209,0.05 z m 1.999,-1.761 q 0.094,0 0.187,0.017 0.096,0.014 0.172,0.048 0.076,0.03 0.124,0.079 0.05,0.045 0.05,0.107 0,0.065 -0.033,0.099 -0.034,0.034 -0.085,0.034 -0.048,0 -0.084,-0.014 l -0.085,-0.037 q -0.045,-0.02 -0.11,-0.034 -0.065,-0.017 -0.172,-0.017 -0.108,0 -0.206,0.056 -0.096,0.054 -0.17,0.153 -0.07,0.096 -0.113,0.228 -0.042,0.133 -0.042,0.288 0,0.192 0.048,0.33 0.05,0.139 0.13,0.23 0.079,0.087 0.178,0.132 0.101,0.042 0.203,0.042 0.121,0 0.203,-0.025 0.082,-0.026 0.138,-0.057 0.06,-0.03 0.102,-0.056 0.042,-0.026 0.082,-0.026 0.048,0 0.076,0.029 0.028,0.025 0.028,0.093 0,0.056 -0.045,0.116 -0.042,0.056 -0.127,0.104 -0.082,0.045 -0.197,0.076 -0.116,0.028 -0.26,0.028 -0.158,0 -0.316,-0.062 -0.155,-0.062 -0.28,-0.183 -0.12,-0.124 -0.197,-0.308 -0.076,-0.186 -0.076,-0.432 0,-0.245 0.067,-0.437 0.071,-0.192 0.19,-0.325 0.12,-0.135 0.279,-0.206 0.16,-0.07 0.341,-0.07 z m 1.914,0.282 q -0.079,0.006 -0.17,0.009 l -0.194,0.005 0.006,0.144 0.005,0.133 q 0.003,0.067 0.003,0.14 0.003,0.074 0.003,0.165 v 0.245 q 0,0.116 -0.003,0.234 l -0.006,0.235 q -0.002,0.118 -0.008,0.245 -0.003,0.068 -0.014,0.105 -0.009,0.036 -0.026,0.056 -0.016,0.02 -0.04,0.023 -0.022,0.005 -0.05,0.005 -0.05,0 -0.087,-0.034 -0.034,-0.036 -0.04,-0.152 -0.005,-0.102 -0.008,-0.215 0,-0.112 -0.003,-0.242 -0.003,-0.13 -0.003,-0.28 v -0.336 -0.27 q 0.003,-0.116 0.009,-0.2 h -0.116 q -0.119,0 -0.203,-0.004 -0.082,-0.003 -0.136,-0.014 -0.053,-0.014 -0.079,-0.042 -0.022,-0.028 -0.022,-0.08 0,-0.025 0.005,-0.044 0.006,-0.023 0.026,-0.04 0.02,-0.02 0.053,-0.03 0.037,-0.012 0.093,-0.018 l 0.096,-0.005 0.085,-0.006 q 0.042,-0.003 0.087,-0.003 h 0.105 q 0.166,0 0.313,0.003 0.15,0.003 0.316,0.011 0.068,0.006 0.105,0.017 0.036,0.009 0.056,0.026 0.02,0.017 0.023,0.04 0.005,0.022 0.005,0.05 0,0.05 -0.036,0.085 -0.034,0.033 -0.15,0.04 z"
       style="-inkscape-font-specification:'Sniglet, Normal';font-variant-ligatures:normal;font-variant-caps:normal;font-variant-numeric:normal;font-feature-settings:normal;text-align:start;stroke-width:0.20703124;fill:#232323;fill-opacity:1"
       id="path34"
       inkscape:connector-curvature="0" />
  </g>
  <g
     style="line-height:1.25;stroke-width:0.78125;fill:#232323;fill-opacity:1"
     id="g40"
     transform="matrix(1.28,0,0,1.28,0,-0.09601883)">
    <path
       d="m 17.656,55.488 q -0.003,0.107 -0.003,0.234 0,0.127 -0.008,0.237 -0.006,0.085 -0.04,0.11 -0.03,0.023 -0.087,0.023 -0.051,0 -0.08,-0.02 -0.025,-0.017 -0.04,-0.076 -0.01,-0.062 -0.013,-0.178 -0.003,-0.12 -0.003,-0.316 -0.093,0 -0.177,0.003 l -0.164,0.002 q -0.12,0 -0.217,-0.005 -0.096,-0.006 -0.167,-0.02 -0.068,-0.017 -0.107,-0.045 -0.037,-0.028 -0.037,-0.073 0,-0.063 0.05,-0.156 0.052,-0.096 0.128,-0.206 0.076,-0.11 0.16,-0.223 l 0.162,-0.214 0.096,-0.124 q 0.065,-0.082 0.138,-0.161 0.073,-0.082 0.147,-0.141 0.073,-0.06 0.124,-0.06 0.048,0 0.085,0.03 0.036,0.033 0.042,0.145 0.01,0.164 0.014,0.345 0.003,0.178 0.003,0.352 v 0.28 q 0.079,0.005 0.127,0.014 0.048,0.009 0.073,0.025 0.026,0.015 0.034,0.037 0.008,0.023 0.008,0.057 0,0.07 -0.064,0.096 -0.065,0.022 -0.184,0.028 z m -0.276,-0.923 -0.212,0.257 -0.147,0.18 q -0.06,0.077 -0.104,0.13 l -0.077,0.096 q 0.13,-0.006 0.266,-0.006 L 17.38,55.22 Z"
       style="font-weight:400;font-size:2.82200003px;font-family:Sniglet;-inkscape-font-specification:'Sniglet, Normal';font-variant-ligatures:normal;font-variant-caps:normal;font-variant-numeric:normal;font-feature-settings:normal;text-align:start;letter-spacing:0;word-spacing:0;stroke-width:0.78125;fill:#232323;fill-opacity:1"
       font-size="2.822"
       aria-label="4"
       font-weight="400"
       letter-spacing="0"
       word-spacing="0"
       id="path38"
       inkscape:connector-curvature="0" />
  </g>
  <g
     aria-label="IN"
     style="font-weight:400;font-size:2.82200003px;line-height:1.25;font-family:Sniglet;letter-spacing:0;word-spacing:0;stroke-width:0.20703124;fill:#232323;fill-opacity:1"
     font-weight="400"
     font-size="2.822"
     letter-spacing="0"
     word-spacing="0"
     id="g44"
     transform="matrix(1.28,0,0,1.28,0,-0.09601883)">
    <path
       d="m 10.912,55.906 q -0.006,-0.102 -0.009,-0.212 0,-0.11 -0.003,-0.237 -0.003,-0.127 -0.003,-0.274 V 54.85 q 0,-0.2 0.003,-0.341 0.003,-0.144 0.017,-0.235 0.014,-0.09 0.043,-0.132 0.03,-0.043 0.081,-0.043 0.026,0 0.048,0.006 0.023,0.006 0.04,0.025 0.017,0.017 0.028,0.054 0.014,0.034 0.017,0.09 l 0.009,0.181 0.005,0.158 q 0.003,0.076 0.003,0.16 v 0.43 q 0,0.116 -0.003,0.229 l -0.005,0.228 q -0.003,0.116 -0.009,0.243 -0.003,0.068 -0.014,0.104 -0.011,0.037 -0.028,0.057 -0.017,0.02 -0.04,0.022 -0.022,0.006 -0.05,0.006 -0.051,0 -0.088,-0.034 -0.037,-0.037 -0.042,-0.152 z m 1.764,0.042 q -0.09,-0.124 -0.172,-0.245 l -0.172,-0.271 q -0.09,-0.147 -0.21,-0.325 -0.115,-0.18 -0.279,-0.42 v 0.38 q 0,0.167 -0.002,0.311 l -0.006,0.27 q -0.003,0.128 -0.009,0.255 -0.002,0.068 -0.014,0.104 -0.008,0.037 -0.025,0.057 -0.017,0.02 -0.04,0.022 -0.02,0.006 -0.048,0.006 -0.05,0 -0.084,-0.034 -0.034,-0.037 -0.04,-0.152 -0.014,-0.31 -0.017,-0.621 v -0.647 q 0,-0.189 0.003,-0.296 0.006,-0.107 0.02,-0.16 0.017,-0.054 0.042,-0.068 0.028,-0.015 0.074,-0.015 0.045,0 0.118,0.071 0.073,0.068 0.161,0.18 0.087,0.114 0.186,0.26 0.102,0.147 0.2,0.302 0.1,0.155 0.19,0.308 l 0.17,0.276 q -0.004,-0.132 -0.004,-0.29 V 54.85 q 0,-0.223 0.003,-0.367 0.003,-0.146 0.014,-0.231 0.014,-0.085 0.042,-0.119 0.029,-0.034 0.08,-0.034 0.047,0 0.084,0.031 0.037,0.032 0.043,0.144 l 0.008,0.181 0.006,0.158 Q 13,54.689 13,54.773 v 0.43 q 0,0.116 -0.002,0.229 l -0.006,0.228 -0.008,0.243 q -0.003,0.068 -0.015,0.104 -0.008,0.037 -0.025,0.057 -0.017,0.02 -0.04,0.022 -0.02,0.006 -0.047,0.006 -0.048,0 -0.082,-0.028 -0.034,-0.029 -0.1,-0.116 z"
       style="-inkscape-font-specification:'Sniglet, Normal';font-variant-ligatures:normal;font-variant-caps:normal;font-variant-numeric:normal;font-feature-settings:normal;text-align:start;stroke-width:0.20703124;fill:#232323;fill-opacity:1"
       id="path42"
       inkscape:connector-curvature="0" />
  </g>
  <path
     d="m 8.46464,84.226541 v 2.70848"
     id="path46"
     inkscape:connector-curvature="0"
     style="fill:none;stroke:#232323;stroke-width:0.132;stroke-opacity:1" />
  <g
     style="line-height:1.25;stroke-width:0.78125;fill:#232323;fill-opacity:1"
     id="g50"
     transform="matrix(1.28,0,0,1.28,0,-0.09601883)">
    <path
       d="m 17.164,39.283 q -0.1,0 -0.17,0.022 -0.068,0.02 -0.113,0.054 -0.045,0.034 -0.073,0.07 l -0.05,0.071 q -0.023,0.034 -0.052,0.057 -0.025,0.02 -0.065,0.02 -0.067,0 -0.096,-0.034 -0.025,-0.037 -0.025,-0.096 0,-0.125 0.093,-0.232 0.028,-0.034 0.076,-0.07 0.051,-0.04 0.12,-0.07 0.07,-0.032 0.16,-0.05 0.093,-0.024 0.21,-0.024 0.306,0 0.476,0.15 0.17,0.15 0.17,0.42 0,0.053 -0.012,0.118 -0.009,0.065 -0.037,0.136 -0.025,0.07 -0.073,0.146 -0.048,0.077 -0.127,0.156 -0.07,0.07 -0.15,0.13 -0.08,0.06 -0.164,0.118 l -0.178,0.127 q -0.09,0.065 -0.183,0.15 0.09,0.048 0.195,0.062 0.104,0.014 0.234,0.014 0.121,0 0.195,-0.006 0.073,-0.005 0.118,-0.014 l 0.07,-0.014 q 0.026,-0.006 0.054,-0.006 0.105,0 0.105,0.096 0,0.085 -0.07,0.13 -0.07,0.045 -0.17,0.068 -0.099,0.02 -0.203,0.023 -0.105,0.005 -0.172,0.005 -0.037,0 -0.105,-0.005 -0.065,-0.003 -0.14,-0.015 -0.077,-0.01 -0.156,-0.03 -0.076,-0.023 -0.14,-0.057 -0.063,-0.037 -0.103,-0.088 -0.04,-0.053 -0.04,-0.127 0,-0.098 0.071,-0.186 0.074,-0.09 0.18,-0.175 0.108,-0.087 0.232,-0.172 0.124,-0.087 0.232,-0.178 0.107,-0.093 0.177,-0.192 0.074,-0.098 0.074,-0.214 0,-0.144 -0.099,-0.215 -0.096,-0.073 -0.277,-0.073 z"
       style="font-weight:400;font-size:2.82200003px;font-family:Sniglet;-inkscape-font-specification:'Sniglet, Normal';font-variant-ligatures:normal;font-variant-caps:normal;font-variant-numeric:normal;font-feature-settings:normal;text-align:start;letter-spacing:0;word-spacing:0;stroke-width:0.78125;fill:#232323;fill-opacity:1"
       font-size="2.822"
       aria-label="2"
       font-weight="400"
       letter-spacing="0"
       word-spacing="0"
       id="path48"
       inkscape:connector-curvature="0" />
  </g>
  <g
     style="line-height:1.25;stroke-width:0.78125;fill:#232323;fill-opacity:1"
     id="g54"
     transform="matrix(1.28,0,0,1.28,0,-0.09601883)">
    <path
       d="m 17.164,11.766 q -0.1,0 -0.17,0.022 -0.068,0.02 -0.113,0.054 -0.045,0.034 -0.073,0.07 l -0.05,0.071 q -0.023,0.034 -0.052,0.057 -0.025,0.02 -0.065,0.02 -0.067,0 -0.096,-0.034 -0.025,-0.037 -0.025,-0.096 0,-0.125 0.093,-0.232 0.028,-0.034 0.076,-0.07 0.05,-0.04 0.12,-0.07 0.07,-0.032 0.16,-0.05 0.093,-0.024 0.21,-0.024 0.306,0 0.476,0.15 0.17,0.15 0.17,0.42 0,0.053 -0.012,0.118 -0.01,0.065 -0.037,0.136 -0.025,0.07 -0.073,0.146 -0.048,0.077 -0.127,0.156 -0.07,0.07 -0.15,0.13 -0.08,0.06 -0.164,0.118 l -0.178,0.127 q -0.09,0.065 -0.183,0.15 0.09,0.048 0.195,0.062 0.104,0.014 0.234,0.014 0.12,0 0.195,-0.006 0.073,-0.005 0.118,-0.014 l 0.07,-0.014 q 0.026,-0.006 0.054,-0.006 0.105,0 0.105,0.096 0,0.085 -0.07,0.13 -0.07,0.045 -0.17,0.068 -0.1,0.02 -0.203,0.023 -0.105,0.005 -0.172,0.005 -0.037,0 -0.105,-0.005 -0.065,-0.003 -0.14,-0.015 -0.077,-0.01 -0.156,-0.03 -0.076,-0.023 -0.14,-0.057 -0.063,-0.037 -0.103,-0.088 -0.04,-0.053 -0.04,-0.127 0,-0.098 0.07,-0.186 0.075,-0.09 0.18,-0.175 0.109,-0.087 0.233,-0.172 0.124,-0.087 0.232,-0.178 0.107,-0.093 0.177,-0.192 0.074,-0.098 0.074,-0.214 0,-0.144 -0.1,-0.215 -0.095,-0.073 -0.276,-0.073 z"
       style="font-weight:400;font-size:2.82200003px;font-family:Sniglet;-inkscape-font-specification:'Sniglet, Normal';font-variant-ligatures:normal;font-variant-caps:normal;font-variant-numeric:normal;font-feature-settings:normal;text-align:start;letter-spacing:0;word-spacing:0;stroke-width:0.78125;fill:#232323;fill-opacity:1"
       font-size="2.822"
       aria-label="2"
       font-weight="400"
       letter-spacing="0"
       word-spacing="0"
       id="path52"
       inkscape:connector-curvature="0" />
  </g>
  <path
     d="m 22.02496,84.232941 v 2.70848"
     id="path56"
     inkscape:connector-curvature="0"
     style="fill:none;stroke:#232323;stroke-width:0.132;stroke-opacity:1" />
  <g
     aria-label="OCT"
     style="font-weight:400;font-size:2.82200003px;line-height:1.25;font-family:Sniglet;letter-spacing:0;word-spacing:0;stroke-width:0.20703124;fill:#232323;fill-opacity:1"
     font-weight="400"
     font-size="2.822"
     letter-spacing="0"
     word-spacing="0"
     id="g60"
     transform="matrix(1.28,0,0,1.28,0,-0.09601883)">
    <path
       d="m 10.261,26.193 q -0.17,0 -0.319,-0.067 Q 9.796,26.058 9.685,25.931 9.575,25.801 9.51,25.615 9.448,25.429 9.448,25.191 q 0,-0.222 0.054,-0.409 0.056,-0.186 0.164,-0.321 0.11,-0.136 0.27,-0.21 0.161,-0.076 0.373,-0.076 0.172,0 0.328,0.063 0.155,0.062 0.27,0.186 0.119,0.124 0.187,0.31 0.067,0.187 0.067,0.435 0,0.206 -0.056,0.392 -0.054,0.186 -0.166,0.328 -0.11,0.138 -0.28,0.223 -0.17,0.081 -0.398,0.081 z m 0.006,-0.265 q 0.155,0 0.27,-0.062 0.116,-0.065 0.193,-0.17 0.076,-0.104 0.113,-0.24 0.036,-0.138 0.036,-0.281 0,-0.175 -0.048,-0.31 -0.045,-0.14 -0.124,-0.232 -0.079,-0.093 -0.183,-0.141 -0.105,-0.051 -0.223,-0.051 -0.141,0 -0.249,0.059 -0.104,0.06 -0.178,0.16 -0.07,0.103 -0.107,0.24 -0.036,0.136 -0.036,0.291 0,0.167 0.042,0.305 0.042,0.136 0.113,0.232 0.073,0.096 0.172,0.15 0.099,0.05 0.209,0.05 z m 1.999,-1.761 q 0.094,0 0.187,0.017 0.096,0.014 0.172,0.048 0.076,0.031 0.124,0.079 0.05,0.045 0.05,0.107 0,0.065 -0.033,0.099 -0.034,0.034 -0.085,0.034 -0.048,0 -0.084,-0.014 L 12.512,24.5 q -0.045,-0.02 -0.11,-0.034 -0.065,-0.017 -0.172,-0.017 -0.108,0 -0.206,0.057 -0.096,0.053 -0.17,0.152 -0.07,0.096 -0.113,0.229 -0.042,0.132 -0.042,0.288 0,0.191 0.048,0.33 0.05,0.138 0.13,0.228 0.079,0.088 0.178,0.133 0.101,0.042 0.203,0.042 0.121,0 0.203,-0.025 0.082,-0.025 0.138,-0.056 0.06,-0.032 0.102,-0.057 0.042,-0.025 0.082,-0.025 0.048,0 0.076,0.028 0.028,0.025 0.028,0.093 0,0.056 -0.045,0.116 -0.042,0.056 -0.127,0.104 -0.082,0.045 -0.197,0.076 -0.116,0.029 -0.26,0.029 -0.158,0 -0.316,-0.063 -0.155,-0.062 -0.28,-0.183 -0.12,-0.124 -0.197,-0.308 -0.076,-0.186 -0.076,-0.431 0,-0.246 0.067,-0.438 0.071,-0.192 0.19,-0.324 0.12,-0.136 0.279,-0.206 0.16,-0.071 0.341,-0.071 z m 1.914,0.283 q -0.079,0.005 -0.17,0.008 l -0.194,0.005 0.006,0.144 0.005,0.133 q 0.003,0.068 0.003,0.141 0.003,0.073 0.003,0.164 v 0.245 q 0,0.116 -0.003,0.235 l -0.006,0.234 q -0.002,0.118 -0.008,0.245 -0.003,0.068 -0.014,0.105 -0.009,0.036 -0.026,0.056 -0.016,0.02 -0.04,0.023 -0.022,0.005 -0.05,0.005 -0.05,0 -0.087,-0.034 -0.034,-0.036 -0.04,-0.152 -0.005,-0.102 -0.008,-0.214 0,-0.113 -0.003,-0.243 -0.003,-0.13 -0.003,-0.28 v -0.335 -0.271 q 0.003,-0.116 0.009,-0.2 h -0.116 q -0.119,0 -0.203,-0.004 -0.082,-0.002 -0.136,-0.014 -0.053,-0.014 -0.079,-0.042 -0.022,-0.028 -0.022,-0.079 0,-0.025 0.005,-0.045 0.006,-0.023 0.026,-0.04 0.02,-0.02 0.053,-0.03 0.037,-0.012 0.093,-0.018 l 0.096,-0.005 0.085,-0.006 q 0.042,-0.003 0.087,-0.003 h 0.105 q 0.166,0 0.313,0.003 0.15,0.003 0.316,0.011 0.068,0.006 0.105,0.017 0.036,0.009 0.056,0.026 0.02,0.017 0.023,0.04 0.005,0.022 0.005,0.05 0,0.05 -0.036,0.085 -0.034,0.034 -0.15,0.04 z"
       style="-inkscape-font-specification:'Sniglet, Normal';font-variant-ligatures:normal;font-variant-caps:normal;font-variant-numeric:normal;font-feature-settings:normal;text-align:start;stroke-width:0.20703124;fill:#232323;fill-opacity:1"
       id="path58"
       inkscape:connector-curvature="0" />
  </g>
  <g
     aria-label="IN"
     style="font-weight:400;font-size:2.82200003px;line-height:1.25;font-family:Sniglet;letter-spacing:0;word-spacing:0;stroke-width:0.20703124;fill:#232323;fill-opacity:1"
     font-weight="400"
     font-size="2.822"
     letter-spacing="0"
     word-spacing="0"
     id="g64"
     transform="matrix(1.28,0,0,1.28,0,-0.09601883)">
    <path
       d="m 10.912,13.307 q -0.006,-0.102 -0.009,-0.212 0,-0.11 -0.003,-0.237 -0.003,-0.127 -0.003,-0.274 v -0.333 q 0,-0.2 0.003,-0.341 0.003,-0.144 0.017,-0.234 0.014,-0.09 0.043,-0.133 0.03,-0.042 0.081,-0.042 0.026,0 0.048,0.005 0.023,0.006 0.04,0.026 0.017,0.017 0.028,0.053 0.014,0.034 0.017,0.09 l 0.009,0.181 0.005,0.158 q 0.003,0.076 0.003,0.161 v 0.429 q 0,0.116 -0.003,0.229 l -0.005,0.228 q -0.003,0.116 -0.009,0.243 -0.003,0.068 -0.014,0.104 -0.011,0.037 -0.028,0.057 -0.017,0.02 -0.04,0.023 -0.022,0.005 -0.05,0.005 -0.051,0 -0.088,-0.034 -0.037,-0.036 -0.042,-0.152 z m 1.764,0.043 q -0.09,-0.125 -0.172,-0.246 -0.08,-0.124 -0.172,-0.271 -0.09,-0.147 -0.21,-0.325 -0.115,-0.18 -0.279,-0.42 v 0.38 q 0,0.167 -0.002,0.311 l -0.006,0.271 q -0.003,0.127 -0.009,0.254 -0.002,0.068 -0.014,0.105 -0.008,0.036 -0.025,0.056 -0.017,0.02 -0.04,0.023 -0.02,0.005 -0.048,0.005 -0.05,0 -0.084,-0.034 -0.034,-0.036 -0.04,-0.152 -0.014,-0.31 -0.017,-0.621 V 12.04 q 0,-0.19 0.003,-0.297 0.006,-0.107 0.02,-0.16 0.017,-0.054 0.042,-0.068 0.028,-0.014 0.074,-0.014 0.045,0 0.118,0.07 0.073,0.068 0.161,0.18 0.087,0.114 0.186,0.26 0.102,0.147 0.2,0.302 0.1,0.156 0.19,0.308 l 0.17,0.277 q -0.004,-0.133 -0.004,-0.291 v -0.356 q 0,-0.223 0.003,-0.367 0.003,-0.146 0.014,-0.231 0.014,-0.085 0.042,-0.119 0.029,-0.033 0.08,-0.033 0.047,0 0.084,0.03 0.037,0.032 0.043,0.145 l 0.008,0.18 0.006,0.158 Q 13,12.09 13,12.175 v 0.429 q 0,0.116 -0.002,0.229 l -0.006,0.228 -0.008,0.243 q -0.003,0.068 -0.015,0.104 -0.008,0.037 -0.025,0.057 -0.017,0.02 -0.04,0.023 -0.02,0.005 -0.047,0.005 -0.048,0 -0.082,-0.028 -0.034,-0.028 -0.1,-0.116 z"
       style="-inkscape-font-specification:'Sniglet, Normal';font-variant-ligatures:normal;font-variant-caps:normal;font-variant-numeric:normal;font-feature-settings:normal;text-align:start;stroke-width:0.20703124;fill:#232323;fill-opacity:1"
       id="path62"
       inkscape:connector-curvature="0" />
  </g>
  <path
     d="m 8.46464,29.699821 v 2.70848 m 13.56032,-2.7008 v 2.70848"
     id="path66"
     inkscape:connector-curvature="0"
     style="fill:none;stroke:#232323;stroke-width:0.132;stroke-opacity:1" />
  <g
     style="line-height:1.25;stroke-width:0.78125;fill:#232323;fill-opacity:1"
     id="g70"
     transform="matrix(1.28,0,0,1.28,0,-0.09601883)">
    <path
       d="m 6.683,13.306 q -0.005,-0.1 -0.008,-0.21 0,-0.11 -0.003,-0.238 -0.003,-0.127 -0.003,-0.274 v -0.686 l -0.17,0.088 q -0.07,0.045 -0.112,0.053 -0.04,0.01 -0.088,0.01 -0.043,0 -0.076,-0.038 -0.03,-0.036 -0.03,-0.087 0,-0.05 0.032,-0.088 0.037,-0.04 0.085,-0.07 0.062,-0.043 0.134,-0.085 0.073,-0.042 0.14,-0.076 0.07,-0.037 0.125,-0.057 0.06,-0.022 0.1,-0.022 0.02,0 0.04,0.005 0.02,0.006 0.038,0.023 0.02,0.017 0.03,0.054 0.015,0.033 0.018,0.093 l 0.008,0.178 0.006,0.15 q 0.003,0.07 0.003,0.15 v 0.425 q 0,0.116 -0.003,0.228 l -0.006,0.23 -0.008,0.242 q -0.003,0.067 -0.014,0.104 -0.01,0.037 -0.026,0.057 -0.017,0.02 -0.04,0.022 -0.02,0.006 -0.047,0.006 -0.05,0 -0.085,-0.034 -0.034,-0.037 -0.04,-0.152 z"
       style="font-weight:400;font-size:2.82200003px;font-family:Sniglet;-inkscape-font-specification:'Sniglet, Normal';font-variant-ligatures:normal;font-variant-caps:normal;font-variant-numeric:normal;font-feature-settings:normal;text-align:start;letter-spacing:0;word-spacing:0;stroke-width:0.78125;fill:#232323;fill-opacity:1"
       font-size="2.822"
       aria-label="1"
       font-weight="400"
       letter-spacing="0"
       word-spacing="0"
       id="path68"
       inkscape:connector-curvature="0" />
  </g>
  <path
     d="m 7.93472,69.512941 q -0.1152,0 -0.16896,-0.0576 -0.05504,-0.06144 -0.05504,-0.12288 0,-0.064 0.06144,-0.10496 0.06144,-0.04352 0.16256,-0.064 0.1024,-0.0256 0.2304,-0.03328 0.13184,-0.0128 0.26496,-0.0128 0.11136,0 0.2496,0.0128 0.13696,0.0077 0.256,0.04352 0.11904,0.032 0.1984,0.10112 0.07936,0.064 0.07936,0.1792 0,0.0896 -0.06784,0.18944 -0.06912,0.09728 -0.15872,0.18432 -0.09088,0.08576 -0.18176,0.1536 l -0.12544,0.09472 q 0.38272,0 0.55552,0.192 0.17408,0.192 0.17408,0.54912 0,0.224 -0.0832,0.3904 -0.07936,0.1664 -0.2176,0.27776 -0.13312,0.1088 -0.30976,0.16256 -0.17408,0.05376 -0.3584,0.05376 -0.15104,0 -0.29952,-0.0256 -0.14464,-0.0256 -0.25984,-0.08576 -0.1152,-0.064 -0.18816,-0.17024 -0.06784,-0.10752 -0.06784,-0.2688 0,-0.1664 0.1792,-0.1664 0.05504,0 0.08448,0.03072 0.032,0.0256 0.05376,0.064 0.0256,0.03712 0.0512,0.08448 0.0256,0.04736 0.07168,0.08704 0.0512,0.03584 0.13056,0.064 0.08192,0.0256 0.21632,0.0256 0.10496,0 0.2048,-0.02176 0.1024,-0.0256 0.18176,-0.07936 0.07936,-0.05376 0.12672,-0.14464 0.0512,-0.09344 0.0512,-0.2304 0,-0.2688 -0.11264,-0.38016 -0.1088,-0.11136 -0.3072,-0.11136 -0.0512,0 -0.09472,0.01792 -0.04352,0.0128 -0.08576,0.03584 l -0.0896,0.03584 q -0.04864,0.01536 -0.10624,0.01536 -0.0576,0 -0.10112,-0.0512 -0.04352,-0.05376 -0.04352,-0.13696 0,-0.0576 0.05504,-0.1344 0.0576,-0.0768 0.15488,-0.1728 0.10112,-0.09728 0.2432,-0.21248 0.1408,-0.12032 0.3136,-0.256 H 8.71552 l -0.09728,0.0026 H 8.17408 q -0.13056,-0.0038 -0.23936,-0.0038 z"
     style="font-weight:400;font-size:2.82200003px;line-height:1.25;font-family:Sniglet;-inkscape-font-specification:'Sniglet, Normal';font-variant-ligatures:normal;font-variant-caps:normal;font-variant-numeric:normal;font-feature-settings:normal;text-align:start;letter-spacing:0;word-spacing:0;stroke-width:1;fill:#232323;fill-opacity:1"
     font-size="2.822"
     aria-label="3"
     font-weight="400"
     letter-spacing="0"
     word-spacing="0"
     id="path72"
     inkscape:connector-curvature="0" />
  <g
     aria-label="CHD-X"
     style="font-weight:400;font-size:3.88100004px;line-height:1.25;font-family:Sniglet;letter-spacing:0;word-spacing:0;stroke-width:0.20703124;fill:#232323;fill-opacity:1"
     font-weight="400"
     font-size="3.881"
     letter-spacing="0"
     word-spacing="0"
     id="g76"
     transform="matrix(1.28,0,0,1.28,0,-0.09601883)">
    <path
       d="m 7.59,5.881 q 0.128,0 0.257,0.024 0.131,0.019 0.236,0.066 0.105,0.042 0.171,0.108 0.07,0.062 0.07,0.148 0,0.089 -0.047,0.135 Q 8.231,6.409 8.161,6.409 8.095,6.409 8.044,6.389 7.994,6.366 7.928,6.339 7.866,6.312 7.777,6.293 7.687,6.269 7.54,6.269 7.393,6.269 7.257,6.347 7.125,6.421 7.024,6.557 6.927,6.688 6.869,6.871 6.81,7.053 6.81,7.267 q 0,0.264 0.066,0.454 0.07,0.19 0.179,0.314 0.109,0.12 0.244,0.182 0.14,0.059 0.28,0.059 0.167,0 0.28,-0.035 Q 7.971,8.206 8.049,8.163 8.129,8.12 8.188,8.085 8.246,8.051 8.301,8.051 q 0.066,0 0.104,0.038 0.04,0.035 0.04,0.128 0,0.078 -0.063,0.16 Q 8.324,8.454 8.207,8.52 8.095,8.582 7.936,8.625 7.776,8.664 7.579,8.664 7.361,8.664 7.144,8.578 6.931,8.493 6.76,8.326 6.593,8.156 6.488,7.903 6.384,7.647 6.384,7.309 6.384,6.972 6.477,6.708 6.574,6.444 6.737,6.262 6.904,6.075 7.121,5.978 7.342,5.881 7.591,5.881 Z M 10.32,8.388 10.305,7.95 Q 10.301,7.717 10.301,7.414 L 10.038,7.422 H 9.432 q -0.143,0 -0.256,-0.004 L 9.168,7.891 Q 9.164,8.117 9.153,8.384 9.149,8.477 9.133,8.528 9.122,8.578 9.098,8.605 9.075,8.633 9.044,8.637 9.017,8.644 8.978,8.644 8.908,8.644 8.862,8.598 8.815,8.548 8.807,8.388 8.8,8.248 8.796,8.098 8.796,7.946 8.792,7.771 8.788,7.597 8.788,7.395 V 6.937 q 0,-0.276 0.004,-0.47 Q 8.796,6.269 8.812,6.145 8.831,6.021 8.87,5.963 8.908,5.905 8.978,5.905 q 0.066,0 0.117,0.042 0.05,0.043 0.058,0.198 0.008,0.132 0.011,0.24 l 0.008,0.21 q 0.004,0.101 0.004,0.21 v 0.24 q 0.291,-0.011 0.57,-0.011 0.136,0 0.272,0.004 0.14,0.004 0.283,0.011 V 6.937 q 0,-0.276 0.004,-0.47 0.004,-0.198 0.02,-0.322 0.02,-0.124 0.058,-0.182 0.039,-0.058 0.109,-0.058 0.066,0 0.116,0.042 0.05,0.043 0.058,0.198 0.008,0.14 0.012,0.249 l 0.008,0.217 q 0.004,0.105 0.004,0.221 v 0.59 q 0,0.159 -0.004,0.314 l -0.008,0.315 q -0.004,0.159 -0.012,0.333 -0.004,0.093 -0.02,0.144 -0.01,0.05 -0.034,0.077 -0.023,0.028 -0.054,0.032 -0.028,0.007 -0.066,0.007 -0.07,0 -0.117,-0.046 -0.046,-0.05 -0.054,-0.21 z m 1.628,-2.503 q 0.4,0 0.64,0.12 0.241,0.12 0.37,0.319 0.127,0.198 0.166,0.45 0.043,0.252 0.043,0.512 0,0.283 -0.074,0.536 -0.07,0.252 -0.221,0.442 -0.148,0.186 -0.38,0.299 -0.233,0.108 -0.555,0.108 -0.256,0 -0.412,-0.038 Q 11.374,8.598 11.289,8.524 11.207,8.45 11.18,8.338 11.153,8.225 11.153,8.074 v -1.46 q 0,-0.166 0.027,-0.302 0.031,-0.136 0.116,-0.229 0.086,-0.097 0.241,-0.147 0.16,-0.05 0.411,-0.05 z m 0.016,2.398 q 0.24,0 0.396,-0.085 0.159,-0.09 0.252,-0.233 0.093,-0.143 0.128,-0.326 0.039,-0.182 0.039,-0.372 0,-0.175 -0.027,-0.35 Q 12.724,6.739 12.639,6.595 12.554,6.452 12.395,6.362 12.235,6.273 11.972,6.273 q -0.241,0 -0.334,0.07 -0.093,0.07 -0.093,0.214 v 1.486 q 0,0.12 0.085,0.182 0.09,0.058 0.334,0.058 z M 14.852,7.659 14.44,7.674 q -0.233,0.004 -0.55,0.004 -0.133,0 -0.226,-0.004 Q 13.571,7.67 13.513,7.654 13.455,7.635 13.427,7.597 13.4,7.557 13.4,7.487 q 0,-0.034 0.008,-0.061 0.008,-0.031 0.035,-0.055 0.027,-0.023 0.074,-0.038 0.05,-0.02 0.128,-0.028 0.058,-0.003 0.1,-0.007 0.047,-0.004 0.09,-0.004 0.043,-0.004 0.09,-0.004 h 0.116 q 0.21,0 0.403,0.004 0.194,0 0.404,0.011 0.093,0.008 0.143,0.024 0.05,0.011 0.078,0.035 0.027,0.023 0.03,0.054 0.009,0.031 0.009,0.07 0,0.07 -0.05,0.116 -0.047,0.047 -0.206,0.055 z M 16.328,7.608 15.75,8.505 q -0.055,0.085 -0.12,0.128 -0.063,0.046 -0.144,0.046 -0.101,0 -0.144,-0.05 -0.038,-0.047 -0.038,-0.12 0,-0.043 0.015,-0.09 0.02,-0.046 0.05,-0.089 L 16.091,7.298 15.37,6.265 Q 15.338,6.223 15.32,6.176 15.304,6.13 15.304,6.087 q 0,-0.074 0.038,-0.12 0.043,-0.05 0.144,-0.05 0.081,0 0.144,0.046 0.065,0.042 0.12,0.128 l 0.578,0.896 0.578,-0.896 q 0.055,-0.086 0.117,-0.128 0.066,-0.047 0.147,-0.047 0.101,0 0.14,0.05 0.043,0.047 0.043,0.121 0,0.043 -0.02,0.09 -0.015,0.046 -0.046,0.088 l -0.722,1.033 0.722,1.032 q 0.03,0.043 0.046,0.09 0.02,0.046 0.02,0.088 0,0.074 -0.043,0.12 -0.039,0.051 -0.14,0.051 -0.081,0 -0.147,-0.046 Q 16.961,8.59 16.906,8.505 Z"
       style="-inkscape-font-specification:'Sniglet, Normal';font-variant-ligatures:normal;font-variant-caps:normal;font-variant-numeric:normal;font-feature-settings:normal;text-align:start;stroke-width:0.20703124;fill:#232323;fill-opacity:1"
       id="path74"
       inkscape:connector-curvature="0" />
  </g>
</svg>
