<?xml version="1.0" encoding="UTF-8" standalone="no"?>
<svg
   xmlns:dc="http://purl.org/dc/elements/1.1/"
   xmlns:cc="http://creativecommons.org/ns#"
   xmlns:rdf="http://www.w3.org/1999/02/22-rdf-syntax-ns#"
   xmlns:svg="http://www.w3.org/2000/svg"
   xmlns="http://www.w3.org/2000/svg"
   xmlns:sodipodi="http://sodipodi.sourceforge.net/DTD/sodipodi-0.dtd"
   xmlns:inkscape="http://www.inkscape.org/namespaces/inkscape"
   width="90"
   height="380"
   viewBox="0 0 23.813 100.542"
   version="1.1"
   id="svg38"
   sodipodi:docname="ChordKeyExpander.svg"
   inkscape:version="0.92.4 (5da689c313, 2019-01-14)">
  <metadata
     id="metadata44">
    <rdf:RDF>
      <cc:Work
         rdf:about="">
        <dc:format>image/svg+xml</dc:format>
        <dc:type
           rdf:resource="http://purl.org/dc/dcmitype/StillImage" />
        <dc:title></dc:title>
      </cc:Work>
    </rdf:RDF>
  </metadata>
  <defs
     id="defs42" />
  <sodipodi:namedview
     pagecolor="#ffffff"
     bordercolor="#666666"
     borderopacity="1"
     objecttolerance="10"
     gridtolerance="10"
     guidetolerance="10"
     inkscape:pageopacity="0"
     inkscape:pageshadow="2"
     inkscape:window-width="1920"
     inkscape:window-height="1017"
     id="namedview40"
     showgrid="false"
     showguides="true"
     inkscape:guide-bbox="true"
     inkscape:zoom="8.9476156"
     inkscape:cx="50.182563"
     inkscape:cy="310.09442"
     inkscape:window-x="-8"
     inkscape:window-y="-8"
     inkscape:window-maximized="1"
     inkscape:current-layer="svg38">
    <sodipodi:guide
       position="11.9065,87.055138"
       orientation="1,0"
       id="guide4558"
       inkscape:locked="false"
       inkscape:label=""
       inkscape:color="rgb(0,0,255)" />
    <sodipodi:guide
       position="9.7288203,87.232561"
       orientation="0,1"
       id="guide4594"
       inkscape:locked="false" />
    <sodipodi:guide
       position="6.6147222,87.557835"
       orientation="1,0"
       id="guide4596"
       inkscape:locked="false"
       inkscape:label=""
       inkscape:color="rgb(0,0,255)" />
    <sodipodi:guide
       position="17.198278,87.912679"
       orientation="1,0"
       id="guide4598"
       inkscape:locked="false"
       inkscape:label=""
       inkscape:color="rgb(0,0,255)" />
  </sodipodi:namedview>
  <path
     d="M0 0h23.813v100.541H0zm0 0"
     fill="#dcdcdc"
     id="path2" />
  <g
     style="line-height:1.25"
     id="g6">
    <path
       style="-inkscape-font-specification:'Arial, Normal';font-variant-ligatures:normal;font-variant-caps:normal;font-variant-numeric:normal;font-feature-settings:normal;text-align:start"
       d="M12.383 96.87l-1.63.115v-2.06q0-.23.064-.333.064-.104.22-.147.153-.043.348-.002.223.047.356.19.134.146.134.33 0 .186-.158.286-.158.103-.408.05-.082-.018-.143-.044-.064-.027-.205-.11v1.345l1.22-.085v-1.554q0-.225.064-.337.066-.11.226-.151.16-.04.348 0 .223.047.354.19.13.14.13.325 0 .195-.156.294-.156.1-.408.047-.16-.034-.356-.16z"
       font-size="3.528"
       aria-label="♫"
       font-family="Arial"
       font-weight="400"
       letter-spacing="0"
       word-spacing="0"
       fill="#333"
       id="path4" />
  </g>
  <rect
     rx="2.3399999"
     ry="2.3399999"
     y="-21.167112"
     x="-92.704002"
     height="18.521223"
     width="19.554861"
     transform="matrix(0,-1,-1,0,0,0)"
     id="rect14"
     style="fill:#999999;stroke-width:1;paint-order:stroke markers fill" />
  <g
     aria-label="CK-X"
     style="font-style:normal;font-weight:normal;font-size:10.58355522px;line-height:1.25;font-family:sans-serif;letter-spacing:0px;word-spacing:0px;fill:#000000;fill-opacity:1;stroke:none;stroke-width:0.26458889"
     id="text4556">
    <path
       d="m 8.6384161,5.6406755 q 0.1397029,0 0.2794059,0.025401 0.1439363,0.021167 0.2582387,0.071968 0.1143024,0.046568 0.1862706,0.1185359 0.076202,0.067735 0.076202,0.16087 0,0.097369 -0.050801,0.1481698 -0.050801,0.050801 -0.1270027,0.050801 -0.071968,0 -0.1270027,-0.021167 -0.055034,-0.0254 -0.1270026,-0.055034 -0.067735,-0.029634 -0.1651035,-0.050801 -0.097369,-0.0254 -0.2582388,-0.0254 -0.16087,0 -0.3090398,0.084668 -0.1439364,0.080435 -0.2540053,0.2286048 -0.1058356,0.1439364 -0.1693369,0.3429072 -0.063501,0.1989709 -0.063501,0.4318091 0,0.2878727 0.071968,0.4953104 0.076202,0.2074377 0.1947374,0.3429072 0.1185359,0.1312361 0.2667056,0.1989708 0.1524032,0.063501 0.3048064,0.063501 0.1820372,0 0.3048065,-0.038101 0.1227692,-0.038101 0.2074376,-0.084668 0.088902,-0.046568 0.1524032,-0.084668 0.063501,-0.038101 0.1227693,-0.038101 0.071968,0 0.1143024,0.042334 0.042334,0.038101 0.042334,0.1397029 0,0.084668 -0.067735,0.1735704 -0.063501,0.084668 -0.190504,0.1566366 -0.1227693,0.067735 -0.2963396,0.1143024 -0.1735703,0.042334 -0.3894749,0.042334 -0.2370716,0 -0.4741432,-0.093135 Q 7.9187343,8.4897687 7.7324637,8.3077316 7.5504266,8.121461 7.4361242,7.8462885 7.3218218,7.5668827 7.3218218,7.1985749 q 0,-0.3683077 0.1016021,-0.6561804 Q 7.5292595,6.2545218 7.7070632,6.0555509 7.8891004,5.8523466 8.126172,5.7465111 8.3674771,5.6406755 8.6384161,5.6406755 Z"
       style="font-style:normal;font-variant:normal;font-weight:normal;font-stretch:normal;font-size:4.23342228px;font-family:Sniglet;-inkscape-font-specification:'Sniglet, Normal';font-variant-ligatures:normal;font-variant-caps:normal;font-variant-numeric:normal;font-feature-settings:normal;text-align:start;writing-mode:lr-tb;text-anchor:start;stroke-width:0.26458889"
       id="path4560" />
    <path
       d="m 9.966057,8.3754663 q -0.00847,-0.1524032 -0.0127,-0.3175067 0,-0.1651034 -0.00423,-0.3556074 -0.00423,-0.190504 -0.00423,-0.410642 0,-0.2243714 0,-0.4995438 0,-0.300573 0.00423,-0.5122441 0.00423,-0.2159045 0.021167,-0.3513741 0.021167,-0.1354695 0.063501,-0.1989708 0.04233,-0.063501 0.118536,-0.063501 0.07197,0 0.127002,0.046568 0.05504,0.046568 0.0635,0.2159045 0.0085,0.1524032 0.0127,0.2709391 0.0042,0.1185358 0.0085,0.2370716 0.0042,0.1143024 0.0042,0.2413051 0,0.1227692 0,0.2794059 v 0.2201379 l 0.905953,-1.0371884 q 0.177803,-0.2032043 0.275172,-0.2667056 0.09737,-0.067735 0.169337,-0.067735 0.08467,0 0.122769,0.042334 0.04233,0.042334 0.04233,0.1058356 0,0.0254 -0.0085,0.050801 -0.0085,0.025401 -0.0381,0.071968 -0.0254,0.042334 -0.08043,0.110069 -0.05504,0.063501 -0.14817,0.1651035 l -0.588446,0.6392467 0.92712,1.3208278 q 0.03387,0.046568 0.0508,0.097369 0.02117,0.050801 0.02117,0.097369 0,0.080435 -0.04657,0.1312361 -0.04233,0.055034 -0.152403,0.055034 -0.0889,0 -0.16087,-0.050801 -0.06773,-0.046568 -0.127003,-0.1397029 L 10.728073,7.3128773 10.363999,7.710819 q -0.0042,0.1608701 -0.0085,0.3217401 -0.0042,0.1608701 -0.0127,0.3386738 -0.0042,0.1016021 -0.02117,0.1566366 -0.0127,0.055034 -0.0381,0.084669 -0.0254,0.029634 -0.05927,0.033867 -0.02963,0.00847 -0.07197,0.00847 -0.0762,0 -0.127003,-0.050801 -0.050801,-0.055034 -0.059268,-0.2286048 z"
       style="font-style:normal;font-variant:normal;font-weight:normal;font-stretch:normal;font-size:4.23342228px;font-family:Sniglet;-inkscape-font-specification:'Sniglet, Normal';font-variant-ligatures:normal;font-variant-caps:normal;font-variant-numeric:normal;font-feature-settings:normal;text-align:start;writing-mode:lr-tb;text-anchor:start;stroke-width:0.26458889"
       id="path4562" />
    <path
       d="m 13.773226,7.5795829 q -0.194737,0.00847 -0.448742,0.016934 -0.254006,0.00423 -0.601146,0.00423 -0.143937,0 -0.245539,-0.00423 -0.101602,-0.00423 -0.165103,-0.021167 -0.0635,-0.021167 -0.09314,-0.063501 -0.02963,-0.042334 -0.02963,-0.1185359 0,-0.038101 0.0085,-0.067735 0.0085,-0.033867 0.0381,-0.059268 0.02963,-0.025401 0.08043,-0.042334 0.05504,-0.021167 0.139703,-0.029634 0.0635,-0.00423 0.110069,-0.00847 0.0508,-0.00423 0.09737,-0.00423 0.04657,-0.00423 0.09737,-0.00423 0.05504,0 0.127003,0 0.228605,0 0.440276,0.00423 0.211671,0 0.440276,0.0127 0.101602,0.00847 0.156637,0.0254 0.05503,0.0127 0.08467,0.038101 0.02963,0.025401 0.03387,0.059268 0.0085,0.033867 0.0085,0.076202 0,0.076202 -0.05503,0.1270027 -0.0508,0.050801 -0.224372,0.059268 z"
       style="font-style:normal;font-variant:normal;font-weight:normal;font-stretch:normal;font-size:4.23342228px;font-family:Sniglet;-inkscape-font-specification:'Sniglet, Normal';font-variant-ligatures:normal;font-variant-caps:normal;font-variant-numeric:normal;font-feature-settings:normal;text-align:start;writing-mode:lr-tb;text-anchor:start;stroke-width:0.26458889"
       id="path4564" />
    <path
       d="m 15.383911,7.5245484 -0.63078,0.9779206 q -0.05927,0.093135 -0.131236,0.1397029 -0.06774,0.050801 -0.156636,0.050801 -0.110069,0 -0.156637,-0.055034 -0.04233,-0.050801 -0.04233,-0.1312361 0,-0.046568 0.01693,-0.097369 0.02117,-0.050801 0.05504,-0.097369 L 15.125672,7.1858747 14.338256,6.0597843 q -0.03387,-0.046568 -0.05504,-0.097369 -0.01693,-0.050801 -0.01693,-0.097369 0,-0.080435 0.04233,-0.1312361 0.04657,-0.055034 0.156637,-0.055034 0.0889,0 0.156636,0.050801 0.07197,0.046568 0.131236,0.1397029 l 0.63078,0.9779206 0.63078,-0.9779206 q 0.05927,-0.093135 0.127003,-0.1397029 0.07197,-0.050801 0.16087,-0.050801 0.110069,0 0.152403,0.055034 0.04657,0.050801 0.04657,0.1312361 0,0.046568 -0.02117,0.097369 -0.01693,0.050801 -0.0508,0.097369 L 15.64215,7.1858747 16.429567,8.311965 q 0.03387,0.046568 0.0508,0.097369 0.02117,0.050801 0.02117,0.097369 0,0.080435 -0.04657,0.1312361 -0.04233,0.055034 -0.152403,0.055034 -0.0889,0 -0.16087,-0.050801 -0.06774,-0.046568 -0.127003,-0.1397029 z"
       style="font-style:normal;font-variant:normal;font-weight:normal;font-stretch:normal;font-size:4.23342228px;font-family:Sniglet;-inkscape-font-specification:'Sniglet, Normal';font-variant-ligatures:normal;font-variant-caps:normal;font-variant-numeric:normal;font-feature-settings:normal;text-align:start;writing-mode:lr-tb;text-anchor:start;stroke-width:0.26458889"
       id="path4566" />
  </g>
</svg>
