<?xml version="1.0" encoding="UTF-8" standalone="no"?>
<svg
   xmlns:dc="http://purl.org/dc/elements/1.1/"
   xmlns:cc="http://creativecommons.org/ns#"
   xmlns:rdf="http://www.w3.org/1999/02/22-rdf-syntax-ns#"
   xmlns:svg="http://www.w3.org/2000/svg"
   xmlns="http://www.w3.org/2000/svg"
   xmlns:sodipodi="http://sodipodi.sourceforge.net/DTD/sodipodi-0.dtd"
   xmlns:inkscape="http://www.inkscape.org/namespaces/inkscape"
   width="150"
   height="380"
   viewBox="0 0 39.688 100.542"
   version="1.1"
   id="svg90"
   sodipodi:docname="Clkd.svg"
   inkscape:version="0.92.2 (5c3e80d, 2017-08-06)">
  <metadata
     id="metadata96">
    <rdf:RDF>
      <cc:Work
         rdf:about="">
        <dc:format>image/svg+xml</dc:format>
        <dc:type
           rdf:resource="http://purl.org/dc/dcmitype/StillImage" />
      </cc:Work>
    </rdf:RDF>
  </metadata>
  <defs
     id="defs94" />
  <sodipodi:namedview
     pagecolor="#ffffff"
     bordercolor="#666666"
     borderopacity="1"
     objecttolerance="10"
     gridtolerance="10"
     guidetolerance="10"
     inkscape:pageopacity="0"
     inkscape:pageshadow="2"
     inkscape:window-width="1366"
     inkscape:window-height="705"
     id="namedview92"
     showgrid="false"
     inkscape:zoom="3.6844693"
     inkscape:cx="106.89788"
     inkscape:cy="285.65702"
     inkscape:window-x="1912"
     inkscape:window-y="300"
     inkscape:window-maximized="1"
     inkscape:current-layer="svg90" />
  <path
     d="M0 0h39.688v100.541H0zm0 0"
     fill="#dcdcdc"
     id="path2" />
  <rect
     rx="2.34"
     ry="2.34"
     y="66.414"
     x="1.887"
     height="25.523"
     width="35.925"
     fill="#999"
     paint-order="stroke markers fill"
     id="rect4" />
  <rect
     rx="2.3399999"
     ry="2.3399999"
     y="31.281345"
     x="25.924999"
     height="12.939"
     width="11.692"
     id="rect6"
     style="fill:#999999;paint-order:stroke markers fill" />
  <g
     style="line-height:1.25"
     id="g10">
    <path
       word-spacing="0"
       letter-spacing="0"
       font-weight="400"
       aria-label="♫"
       font-size="3.528"
       style="-inkscape-font-specification:'Arial, Normal';font-variant-ligatures:normal;font-variant-caps:normal;font-variant-numeric:normal;font-feature-settings:normal;text-align:start"
       d="M28.322 96.87l-1.63.115v-2.06q0-.23.065-.333.064-.104.22-.147.153-.043.348-.002.223.047.356.19.133.146.133.33 0 .186-.157.286-.158.103-.408.05-.082-.018-.143-.044-.064-.027-.205-.11v1.345l1.219-.085v-1.554q0-.225.065-.337.066-.11.226-.151.16-.04.348 0 .223.047.354.19.13.14.13.325 0 .195-.156.294-.156.1-.408.047-.16-.034-.357-.16z"
       font-family="Arial"
       fill="#333"
       id="path8" />
  </g>
  <g
     style="line-height:1.25"
     id="g14">
    <path
       d="M10.304 96.698q-.007-.127-.01-.265 0-.137-.004-.296-.003-.159-.003-.342v-.417q0-.25.003-.426.004-.18.02-.293.019-.113.054-.166.039-.053.102-.053.032 0 .06.007.029.007.05.032.02.02.035.067.018.042.02.113.008.127.01.225l.009.198q.003.095.003.201v.536q0 .145-.003.286l-.007.286-.01.303q-.004.085-.018.13-.015.047-.036.071-.02.025-.05.028-.027.007-.063.007-.063 0-.11-.042-.045-.046-.052-.19zm1.754-.381q-.162-.357-.29-.688-.123-.335-.211-.596-.081.437-.138.882-.053.444-.137.85-.021.092-.078.123-.056.028-.095.028-.064 0-.102-.038-.036-.04-.036-.1 0-.08.018-.246.02-.17.05-.381.03-.212.07-.445.039-.232.078-.448l.077-.395q.039-.176.067-.271.046-.163.187-.163.085 0 .145.085.06.081.127.254.07.17.166.43.098.262.254.614.15-.352.243-.61.095-.261.159-.43.067-.173.127-.254.06-.085.148-.085.08 0 .123.042.043.039.064.12.025.099.06.275.035.173.074.388.042.212.08.445.04.233.07.444.033.212.05.385.022.17.022.261 0 .056-.04.092-.037.031-.097.031-.04 0-.096-.028-.056-.032-.077-.123-.043-.201-.078-.417l-.063-.433-.057-.441q-.028-.223-.06-.441-.046.14-.106.31-.06.17-.127.342-.067.17-.137.335-.07.166-.138.3-.024.046-.067.07-.04.022-.08.022-.047 0-.09-.021-.038-.025-.06-.074zm2.005.377q0 .085-.018.13-.014.047-.04.071-.02.025-.052.029-.028.007-.056.007-.095 0-.127-.043-.028-.042-.04-.19-.006-.078-.01-.226l-.006-.353q0-.204-.004-.451v-.522q0-.131.032-.265t.12-.243q.09-.11.25-.177.162-.067.42-.067.18 0 .342.039.162.039.286.134.123.095.198.254.074.159.074.395 0 .247-.082.41-.08.162-.23.257-.147.095-.352.134-.204.039-.448.039h-.12q-.06 0-.134-.007zm1.016-1.485q0-.236-.134-.356-.13-.12-.438-.12-.116 0-.2.021-.082.018-.135.067-.053.046-.08.127-.026.081-.026.205v.275q0 .151.004.286.08.004.18.004h.19q.106 0 .219-.015.116-.014.208-.063.092-.053.152-.152.06-.102.06-.278zm1.45.84l-.101.007h-.223q-.06 0-.134-.007v.716q0 .113-.056.14-.053.026-.134.026-.042 0-.067-.007-.025-.004-.042-.018-.015-.018-.025-.05-.007-.031-.01-.088-.008-.063-.011-.183-.004-.123-.007-.318 0-.194-.004-.469v-.652q0-.145.035-.279.036-.138.127-.24.092-.106.247-.17.16-.063.402-.063.173 0 .336.039.165.039.292.134.127.095.205.258.078.162.078.405 0 .325-.141.505-.138.176-.381.25l.472.65q.064.084.064.172 0 .07-.05.11-.046.042-.116.042-.078 0-.134-.042-.057-.046-.106-.117zm.555-.822q0-.244-.148-.36-.145-.12-.462-.12-.117 0-.194.021-.078.018-.124.07-.046.054-.067.149-.018.091-.018.236v.24q0 .138.004.25.08.005.18.005h.19q.1 0 .208-.011.113-.014.209-.064.095-.052.158-.148.064-.099.064-.268zm1.609 1.725q-.212 0-.398-.085-.184-.085-.322-.243-.137-.163-.218-.395-.078-.233-.078-.53 0-.278.067-.511.07-.233.205-.402.137-.17.338-.261.202-.096.466-.096.215 0 .41.078.193.078.338.233.148.155.233.388.085.233.085.543 0 .258-.071.49-.067.233-.208.41-.138.173-.35.278-.211.103-.497.103zm.007-.332q.194 0 .339-.077.145-.082.24-.212t.14-.3q.047-.173.047-.353 0-.218-.06-.388-.057-.173-.155-.29-.1-.115-.23-.175-.13-.064-.278-.064-.177 0-.31.074-.131.074-.223.201-.088.127-.134.3-.046.17-.046.363 0 .209.053.381.053.17.14.29.093.12.216.187.124.063.26.063zm2.384-.303q-.162-.357-.29-.688-.123-.335-.21-.596-.082.437-.138.882-.053.444-.138.85-.021.092-.078.123-.056.028-.095.028-.063 0-.102-.038-.036-.04-.036-.1 0-.08.018-.246.02-.17.05-.381.03-.212.07-.445.039-.232.078-.448l.077-.395q.04-.176.067-.271.046-.163.187-.163.085 0 .145.085.06.081.127.254.07.17.166.43.099.262.254.614.15-.352.243-.61.095-.261.159-.43.067-.173.127-.254.06-.085.148-.085.08 0 .124.042.042.039.063.12.025.099.06.275.035.173.074.388.042.212.08.445.04.233.07.444.034.212.05.385.022.17.022.261 0 .056-.038.092-.04.031-.1.031-.038 0-.094-.028-.057-.032-.078-.123-.042-.201-.078-.417l-.063-.433-.057-.441q-.028-.223-.06-.441-.045.14-.105.31-.06.17-.127.342-.067.17-.138.335-.07.166-.138.3-.024.046-.067.07-.038.022-.08.022-.047 0-.09-.021-.038-.025-.06-.074zm2.005.377q0 .085-.018.13-.014.047-.038.071-.022.025-.053.029-.03.007-.057.007-.095 0-.127-.043-.028-.042-.04-.19-.006-.078-.01-.226l-.006-.353q0-.204-.004-.451v-.522q0-.131.032-.265t.12-.243q.092-.11.25-.177.163-.067.42-.067.18 0 .342.039.163.039.286.134.124.095.198.254.074.159.074.395 0 .247-.081.41-.082.162-.23.257-.148.095-.352.134-.205.039-.45.039h-.12q-.06 0-.133-.007zm1.016-1.485q0-.236-.134-.356-.13-.12-.438-.12-.116 0-.2.021-.082.018-.135.067-.053.046-.08.127-.025.081-.025.205v.275q0 .151.003.286.08.004.18.004h.19q.106 0 .22-.015.116-.014.207-.063.092-.053.152-.152.06-.102.06-.278zm1.974-.437q-.1.007-.212.01l-.243.007.007.18.007.166q.004.085.004.176.003.092.003.205v.307q0 .144-.003.293l-.007.292q-.004.149-.011.307-.003.085-.018.13-.01.047-.031.072-.022.024-.05.028-.028.007-.063.007-.064 0-.11-.043-.042-.045-.05-.19-.006-.127-.01-.268 0-.141-.003-.304-.004-.162-.004-.349v-.758q.004-.145.01-.25h-.144q-.148 0-.254-.005-.102-.004-.17-.017-.066-.018-.098-.053-.028-.036-.028-.1 0-.03.007-.055.007-.029.032-.05.025-.025.067-.039.046-.014.116-.02l.12-.008.106-.007q.053-.004.11-.004h.13q.208 0 .392.004.186.004.395.014.084.007.13.021.046.011.07.032.025.021.029.05.007.028.007.063 0 .064-.046.106-.042.042-.187.05z"
       style="-inkscape-font-specification:'Sniglet, Normal';font-variant-ligatures:normal;font-variant-caps:normal;font-variant-numeric:normal;font-feature-settings:normal;text-align:start"
       word-spacing="0"
       letter-spacing="0"
       font-size="3.528"
       font-weight="400"
       aria-label="IMPROMPT"
       font-family="Sniglet"
       fill="#333"
       id="path12" />
  </g>
  <g
     style="line-height:1.25"
     id="g18">
    <path
       style="-inkscape-font-specification:'Sniglet, Normal';font-variant-ligatures:normal;font-variant-caps:normal;font-variant-numeric:normal;font-feature-settings:normal;text-align:start"
       d="M4.802 10.203l-.082.006h-.178q-.048 0-.107-.006v.573q0 .09-.045.113-.042.02-.107.02-.034 0-.054-.006-.02-.003-.034-.014-.011-.014-.02-.04-.005-.025-.008-.07-.006-.051-.008-.147l-.006-.254q0-.155-.003-.375V9.48q0-.116.028-.223.029-.11.102-.192.073-.085.198-.136.127-.05.32-.05.14 0 .269.03.133.03.235.108.1.076.163.206.062.13.062.324 0 .26-.113.404-.11.14-.304.2l.378.52q.05.067.05.138 0 .056-.04.087-.036.034-.092.034-.062 0-.107-.034-.045-.036-.085-.093zm.443-.657q0-.195-.118-.288-.116-.096-.37-.096-.093 0-.155.017-.062.014-.1.056-.036.042-.053.119-.014.073-.014.189v.192q0 .11.003.2.065.003.144.003h.152q.08 0 .167-.008.09-.011.166-.05.077-.043.127-.12.05-.078.05-.214zm.548.923l-.011-.246q-.006-.155-.006-.32v-.191l.006-.206q.005-.21.025-.327.023-.12.085-.178.065-.06.18-.073.116-.015.308-.015h.06q.059 0 .14.003.082 0 .17.003l.15.006q.062.006.098.017.04.008.06.026.02.014.025.036.006.02.006.046 0 .065-.037.096-.037.028-.15.036-.056.006-.166.008h-.22q-.113 0-.204.003H6.2q-.074.003-.105.034-.028.028-.028.138l.003.125q.005.096.005.27h.235q.15 0 .242.007.096.003.147.016.054.015.073.046.02.03.02.08 0 .027-.005.049-.003.02-.023.037-.02.014-.057.026-.036.008-.104.014-.082.006-.155.008H6.07v.344q.002.06.005.096.003.045.012.076.01.03.036.05.028.02.08.03.053.007.14.007h.607q.099 0 .124.037.026.036.026.099 0 .05-.023.079-.022.025-.11.036-.085.014-.257.017-.17.003-.468.003-.127 0-.21-.022-.08-.023-.132-.077-.05-.053-.076-.138-.022-.087-.031-.212zm2.22-1.564q.08 0 .18.014.106.01.196.045.09.03.153.085.062.05.062.127 0 .045-.026.076-.025.03-.082.03-.042 0-.087-.016-.042-.017-.1-.034-.053-.02-.126-.036-.07-.017-.166-.017-.187 0-.277.068-.087.064-.087.18 0 .08.039.133.04.053.104.093.068.037.15.062.085.025.172.048.099.025.195.062.099.037.175.096.076.06.12.15.049.09.049.228 0 .144-.053.26-.054.113-.147.195-.093.079-.223.124-.13.042-.282.042-.085 0-.198-.017-.113-.014-.214-.05-.102-.04-.173-.102-.07-.065-.07-.158 0-.057.028-.09.03-.035.09-.035.048 0 .08.02.03.017.053.04.085.073.192.099.107.025.22.025.065 0 .136-.008.073-.011.132-.042.06-.031.099-.088.04-.06.04-.158 0-.09-.037-.147-.034-.06-.093-.098-.06-.04-.141-.065-.08-.026-.173-.051-.104-.028-.206-.062-.101-.034-.18-.09-.08-.06-.13-.147-.048-.09-.048-.23 0-.137.05-.242.052-.104.14-.175.087-.07.205-.107.12-.037.26-.037zm.972 1.564q-.006-.09-.012-.246-.005-.155-.005-.32v-.191l.005-.206q.006-.21.026-.327.022-.12.084-.178.065-.06.18-.073.117-.015.309-.015h.059q.06 0 .14.003.083 0 .17.003l.15.006q.062.006.099.017.04.008.06.026.019.014.024.036.006.02.006.046 0 .065-.037.096-.036.028-.15.036-.056.006-.166.008h-.22q-.113 0-.203.003H9.39q-.073.003-.104.034-.03.028-.03.138l.004.125q.006.096.006.27H9.5q.15 0 .243.007.096.003.147.016.053.015.073.046.02.03.02.08 0 .027-.006.049-.003.02-.023.037-.02.014-.056.026-.037.008-.104.014-.082.006-.156.008H9.26v.344l.006.096q.003.045.01.076.012.03.038.05.028.02.079.03.053.007.14.007h.608q.098 0 .124.037.025.036.025.099 0 .05-.022.079-.023.025-.11.036-.085.014-.257.017-.17.003-.47.003-.126 0-.208-.022-.081-.023-.132-.077-.051-.053-.076-.138-.023-.087-.031-.212zm2.657-1.287q-.08.006-.17.008l-.194.006.006.144.005.132q.003.068.003.14.003.075.003.165v.245q0 .116-.003.235l-.006.234q-.002.119-.008.246-.003.067-.014.104-.01.037-.026.056-.017.02-.04.023-.022.006-.05.006-.05 0-.087-.034-.034-.037-.04-.152-.006-.102-.008-.215 0-.113-.003-.243t-.003-.28v-.605q.003-.116.008-.201H10.9q-.12 0-.203-.003-.082-.003-.136-.014-.054-.014-.08-.043-.021-.028-.021-.08 0-.024.005-.044.006-.022.026-.04.02-.02.053-.03.037-.012.093-.017l.096-.006.085-.006q.042-.003.087-.003h.105q.166 0 .313.003.15.003.316.01.068.007.105.018.036.008.056.025.02.017.023.04.005.022.005.05 0 .05-.036.085-.034.034-.15.04z"
       word-spacing="0"
       letter-spacing="0"
       font-size="2.822"
       font-weight="400"
       aria-label="RESET"
       font-family="Sniglet"
       id="path16" />
  </g>
  <g
     style="line-height:1.25"
     id="g22">
    <path
       style="-inkscape-font-specification:'Sniglet, Normal';font-variant-ligatures:normal;font-variant-caps:normal;font-variant-numeric:normal;font-feature-settings:normal;text-align:start"
       d="M18.082 10.238l-.082.006h-.177q-.048 0-.108-.006v.573q0 .09-.045.113-.042.02-.107.02-.034 0-.054-.006-.02-.003-.034-.014-.01-.014-.02-.04-.005-.025-.008-.07-.005-.051-.008-.147l-.006-.254q0-.155-.003-.375v-.522q0-.116.028-.223.029-.11.102-.192.073-.085.198-.136.127-.05.32-.05.14 0 .269.03.133.03.235.108.1.076.163.206.062.13.062.324 0 .26-.112.404-.11.14-.305.2l.378.52q.05.067.05.138 0 .056-.04.087-.035.034-.092.034-.062 0-.107-.034-.045-.036-.085-.093zm.443-.657q0-.195-.118-.288-.116-.096-.37-.096-.093 0-.155.017-.062.014-.1.056-.036.042-.053.119-.014.073-.014.189v.192q0 .11.003.2.065.003.144.003h.152q.08 0 .167-.008.09-.011.166-.05.077-.043.127-.12.05-.078.05-.214zm1.212 1.4q-.322 0-.472-.175-.06-.068-.101-.173-.04-.107-.065-.276-.023-.17-.034-.418-.01-.251-.01-.61 0-.115.007-.19.006-.075.022-.117.017-.045.043-.062.028-.017.07-.017.082 0 .116.073.034.074.034.254 0 .062-.003.11v.1q0 .047-.003.106v.144q0 .283.017.469.02.186.065.299.045.11.122.155.079.045.194.045.122 0 .2-.048.083-.05.13-.166.048-.12.068-.313.023-.195.023-.486 0-.127-.003-.217v-.164q0-.104.006-.175.008-.07.022-.11.017-.042.045-.06.029-.016.07-.016.043 0 .07.017.03.017.047.06.017.042.022.118.006.073.006.192 0 .496-.031.818-.031.319-.11.505-.08.184-.218.257-.135.07-.35.07zm2.162-.181q-.09-.124-.172-.246l-.172-.27q-.09-.147-.21-.325-.115-.18-.28-.42v.38l-.001.31-.006.272q-.002.127-.008.254-.003.067-.014.104-.01.037-.026.057-.017.02-.04.022-.02.006-.047.006-.051 0-.085-.034-.034-.036-.04-.152-.013-.31-.016-.621V9.49q0-.19.002-.297.006-.107.02-.16.017-.054.043-.068.028-.014.073-.014t.118.07q.074.068.16.18.089.114.188.26.1.147.2.302.099.156.19.308l.168.277q-.002-.133-.002-.291v-.356q0-.223.002-.366.003-.147.015-.232.014-.085.042-.118.028-.034.079-.034.048 0 .085.03.036.032.042.145l.008.18.006.158q.003.076.003.16v.43q0 .116-.003.229l-.006.228q-.002.116-.008.243-.003.068-.014.104-.01.037-.026.057-.017.02-.04.022-.02.006-.047.006-.048 0-.082-.028t-.1-.115z"
       word-spacing="0"
       letter-spacing="0"
       font-size="2.822"
       font-weight="400"
       aria-label="RUN"
       font-family="Sniglet"
       id="path20" />
  </g>
  <g
     style="line-height:1.25"
     id="g26">
    <path
       style="-inkscape-font-specification:'Sniglet, Normal';font-variant-ligatures:normal;font-variant-caps:normal;font-variant-numeric:normal;font-feature-settings:normal;text-align:start"
       d="M4.749 81.465l-.082.006h-.178q-.048 0-.107-.006v.573q0 .09-.045.113-.042.02-.107.02-.034 0-.054-.006-.02-.003-.034-.014-.011-.014-.02-.04-.005-.025-.008-.07-.006-.051-.01-.147L4.1 81.64q0-.155-.003-.375v-.523q0-.115.028-.222.029-.11.102-.192.073-.085.197-.136.127-.05.322-.05.138 0 .268.03.133.031.235.108.1.076.163.206.062.13.062.324 0 .26-.113.404-.11.14-.304.2l.378.52q.05.067.05.138 0 .056-.04.087-.036.034-.092.034-.062 0-.107-.034-.045-.037-.085-.093zm.443-.657q0-.195-.118-.288-.116-.096-.37-.096-.093 0-.155.017-.062.014-.1.056-.036.042-.053.119-.014.073-.014.189v.192q0 .11.003.2.065.003.144.003h.152q.08 0 .167-.008.09-.011.166-.05.076-.043.127-.12.05-.078.05-.214zm.548.922q-.006-.09-.011-.245-.006-.155-.006-.319v-.192l.006-.206q.005-.209.025-.327.023-.119.085-.178.065-.06.18-.073.116-.015.308-.015h.06q.059 0 .14.003.082 0 .17.003l.15.006q.062.006.098.017.04.008.06.026.02.014.025.036.005.02.005.046 0 .065-.036.096-.037.028-.15.036-.056.006-.166.008h-.22q-.113 0-.204.003h-.113q-.073.003-.104.034-.028.028-.028.138l.003.125q.005.096.005.27h.234q.15 0 .243.007.096.003.147.016.054.015.073.046.02.03.02.081 0 .026-.006.048-.002.02-.022.037-.02.014-.057.026-.036.008-.104.014-.082.006-.155.008h-.378v.343q.002.06.005.097.003.045.012.076.01.031.036.05.028.02.08.029.053.008.14.008h.607q.099 0 .124.037.026.036.026.099 0 .05-.023.079-.022.025-.11.036-.085.014-.257.017-.17.003-.468.003-.127 0-.21-.022-.081-.023-.132-.077-.05-.053-.076-.138-.023-.087-.031-.212zm2.22-1.563q.08 0 .18.014.106.011.196.045.09.031.152.085.063.05.063.127 0 .045-.026.076-.025.031-.082.031-.042 0-.087-.017-.043-.017-.1-.034-.053-.02-.126-.036-.07-.017-.166-.017-.187 0-.277.067-.088.065-.088.181 0 .08.04.133.04.053.104.093.068.037.15.062.085.025.172.048.099.025.195.062.099.037.175.096.076.06.12.15.049.09.049.228 0 .144-.053.26-.054.113-.147.195-.093.079-.223.124-.13.042-.282.042-.085 0-.198-.017-.113-.014-.214-.05-.102-.04-.173-.102-.07-.065-.07-.158 0-.057.028-.09.03-.035.09-.035.048 0 .08.02.03.017.053.04.085.073.192.099.107.025.22.025.065 0 .136-.008.073-.011.132-.042.06-.031.099-.088.04-.06.04-.158 0-.09-.037-.147-.034-.059-.093-.098-.06-.04-.141-.065-.08-.026-.173-.051-.104-.028-.206-.062-.101-.034-.18-.09-.08-.06-.13-.147-.048-.09-.048-.229 0-.138.05-.243.052-.104.139-.175.088-.07.206-.107.12-.037.26-.037zm.972 1.563q-.006-.09-.012-.245-.005-.155-.005-.319v-.192l.005-.206q.006-.209.026-.327.022-.119.084-.178.065-.06.18-.073.117-.015.309-.015h.059q.06 0 .14.003.083 0 .17.003l.15.006q.062.006.099.017.04.008.059.026.02.014.025.036.006.02.006.046 0 .065-.037.096-.036.028-.15.036-.056.006-.166.008h-.22q-.113 0-.203.003h-.113q-.073.003-.104.034-.03.028-.03.138l.004.125q.006.096.006.27h.234q.15 0 .243.007.096.003.146.016.054.015.074.046.02.03.02.081 0 .026-.006.048-.003.02-.023.037-.02.014-.056.026-.037.008-.104.014-.082.006-.156.008h-.378v.343l.006.097q.003.045.01.076.012.031.038.05.028.02.079.029.053.008.14.008h.608q.098 0 .124.037.025.036.025.099 0 .05-.022.079-.023.025-.11.036-.085.014-.257.017-.17.003-.47.003-.126 0-.208-.022-.081-.023-.132-.077-.051-.053-.076-.138-.023-.087-.031-.212zm2.657-1.287q-.08.007-.17.009l-.194.006.006.143.005.133q.003.068.003.141.003.074.003.164v.245q0 .116-.003.235l-.006.234q-.002.118-.008.245-.003.068-.014.105-.01.037-.026.056-.017.02-.04.023-.022.006-.05.006-.05 0-.087-.034-.034-.037-.04-.152-.006-.102-.008-.215 0-.113-.003-.243t-.003-.279v-.606q.003-.116.008-.201h-.115q-.12 0-.203-.003-.082-.003-.136-.014-.054-.014-.08-.043-.022-.028-.022-.079 0-.025.006-.045.006-.022.025-.04.02-.019.054-.03.037-.012.093-.017l.096-.006.085-.006q.042-.003.087-.003h.105q.166 0 .313.003.15.003.316.011.068.006.105.017.036.008.056.025.02.017.023.04.005.022.005.05 0 .051-.037.085-.033.034-.15.04z"
       word-spacing="0"
       letter-spacing="0"
       font-size="2.822"
       font-weight="400"
       aria-label="RESET"
       font-family="Sniglet"
       id="path24" />
  </g>
  <g
     style="line-height:1.25"
     id="g30">
    <path
       style="-inkscape-font-specification:'Sniglet, Normal';font-variant-ligatures:normal;font-variant-caps:normal;font-variant-numeric:normal;font-feature-settings:normal;text-align:start"
       d="M18.015 81.484l-.082.006h-.178q-.048 0-.107-.006v.573q0 .09-.045.113-.043.02-.107.02-.034 0-.054-.006-.02-.003-.034-.014-.01-.014-.02-.04-.005-.025-.008-.07-.006-.051-.009-.147l-.005-.254q0-.155-.003-.376v-.522q0-.115.028-.223.028-.11.102-.191.073-.085.197-.136.127-.05.322-.05.138 0 .268.03.133.031.234.108.102.076.164.206.062.13.062.324 0 .26-.113.404-.11.14-.305.2l.38.52q.05.067.05.138 0 .056-.04.087-.037.034-.093.034-.062 0-.107-.034-.046-.037-.085-.093zm.443-.657q0-.195-.119-.288-.115-.096-.37-.096-.092 0-.155.017-.062.014-.098.056-.037.042-.054.119-.014.073-.014.189v.192q0 .11.003.2.065.003.144.003h.152q.08 0 .167-.008.09-.011.166-.05.076-.043.127-.12.05-.078.05-.214zm1.211 1.399q-.322 0-.47-.175-.06-.067-.103-.172-.04-.107-.065-.276-.022-.17-.034-.418-.008-.251-.008-.61 0-.115.006-.189.005-.076.022-.118.017-.045.042-.062.03-.017.071-.017.082 0 .116.073.034.074.034.254 0 .062-.003.11v.1q0 .047-.003.106v.144q0 .282.017.469.02.186.065.299.045.11.121.155.08.045.195.045.121 0 .2-.048.082-.05.13-.166.048-.119.068-.313.022-.195.022-.486 0-.127-.002-.217v-.164q0-.104.005-.175.01-.07.023-.11.017-.042.045-.06.028-.016.07-.016.043 0 .071.017.028.017.045.06.017.041.023.118.005.073.005.192 0 .496-.03.818-.032.319-.11.505-.08.184-.218.257-.135.07-.35.07zm2.163-.18q-.09-.124-.172-.246l-.172-.27q-.09-.147-.21-.325-.115-.18-.279-.42v.38q0 .167-.002.31l-.006.272q-.003.127-.009.254-.002.067-.014.104-.008.037-.025.056-.017.02-.04.023-.02.006-.048.006-.05 0-.084-.034-.034-.037-.04-.152-.014-.31-.017-.621v-.646q0-.19.003-.297.006-.107.02-.16.017-.054.042-.068.028-.014.074-.014.045 0 .118.07.074.068.161.18.087.114.186.26.102.147.2.302.1.156.19.308l.17.277q-.004-.133-.004-.291v-.356q0-.223.003-.367.003-.146.014-.231.014-.085.043-.119.028-.033.08-.033.047 0 .083.03.037.032.043.144l.008.181.006.158q.002.076.002.161v.429q0 .116-.002.229l-.006.228-.008.243q-.003.068-.015.104-.008.037-.025.057-.017.02-.04.022-.02.006-.047.006-.048 0-.082-.028t-.1-.116z"
       word-spacing="0"
       letter-spacing="0"
       font-size="2.822"
       font-weight="400"
       aria-label="RUN"
       font-family="Sniglet"
       id="path28" />
  </g>
  <g
     style="line-height:1.25"
     id="g34"
     transform="translate(0,1.0583467)">
    <path
       style="font-weight:400;font-size:2.82200003px;font-family:Sniglet;-inkscape-font-specification:'Sniglet, Normal';font-variant-ligatures:normal;font-variant-caps:normal;font-variant-numeric:normal;font-feature-settings:normal;text-align:start;letter-spacing:0;word-spacing:0"
       d="m 30.483,31.564 q 0.093,0 0.186,0.017 0.096,0.014 0.172,0.048 0.076,0.03 0.124,0.08 0.05,0.044 0.05,0.106 0,0.065 -0.033,0.1 -0.033,0.033 -0.084,0.033 -0.048,0 -0.085,-0.014 l -0.085,-0.037 q -0.045,-0.02 -0.11,-0.034 -0.065,-0.017 -0.172,-0.017 -0.107,0 -0.206,0.057 -0.096,0.054 -0.17,0.152 -0.07,0.096 -0.112,0.229 -0.042,0.133 -0.042,0.288 0,0.192 0.048,0.33 0.05,0.138 0.13,0.229 0.078,0.087 0.177,0.132 0.102,0.043 0.203,0.043 0.122,0 0.204,-0.026 0.08,-0.025 0.138,-0.056 0.06,-0.031 0.1,-0.057 0.044,-0.025 0.083,-0.025 0.048,0 0.077,0.028 0.028,0.026 0.028,0.093 0,0.057 -0.045,0.116 -0.043,0.056 -0.127,0.104 -0.082,0.046 -0.198,0.077 -0.116,0.028 -0.26,0.028 -0.158,0 -0.316,-0.062 -0.155,-0.062 -0.28,-0.184 -0.12,-0.124 -0.197,-0.307 -0.076,-0.187 -0.076,-0.432 0,-0.246 0.068,-0.438 0.07,-0.192 0.189,-0.324 0.12,-0.136 0.28,-0.206 0.16,-0.07 0.34,-0.07 z m 1.153,1.21 v 0.162 q 0,0.067 -0.003,0.13 0,0.062 -0.003,0.124 l -0.005,0.138 0.305,-0.037 0.172,-0.022 0.099,-0.012 q 0.036,-0.003 0.084,-0.003 0.124,0 0.124,0.122 0,0.048 -0.05,0.082 -0.048,0.034 -0.125,0.059 -0.073,0.023 -0.166,0.04 -0.09,0.014 -0.178,0.02 -0.085,0.007 -0.155,0.01 -0.068,0.004 -0.096,0.004 -0.102,0 -0.158,-0.015 -0.057,-0.01 -0.085,-0.073 -0.028,-0.065 -0.036,-0.195 -0.006,-0.13 -0.006,-0.367 v -0.406 q 0,-0.178 0.003,-0.32 0.003,-0.14 0.003,-0.25 0.002,-0.11 0.008,-0.2 0.006,-0.116 0.04,-0.15 0.033,-0.037 0.084,-0.037 0.028,0 0.048,0.006 0.023,0.003 0.04,0.023 0.017,0.02 0.025,0.056 0.01,0.037 0.014,0.105 0.012,0.248 0.014,0.49 0.003,0.243 0.003,0.517 z m 1.01,0.613 q -0.005,-0.101 -0.008,-0.211 0,-0.11 -0.003,-0.237 -0.002,-0.127 -0.002,-0.274 v -0.333 q 0,-0.2 0.002,-0.342 0.003,-0.144 0.015,-0.234 0.014,-0.09 0.042,-0.133 0.028,-0.042 0.079,-0.042 0.048,0 0.085,0.03 0.036,0.032 0.042,0.145 0.006,0.102 0.008,0.18 l 0.006,0.159 q 0.003,0.076 0.003,0.16 v 0.335 l 0.604,-0.692 q 0.118,-0.135 0.183,-0.178 0.065,-0.045 0.113,-0.045 0.057,0 0.082,0.028 0.028,0.029 0.028,0.07 0,0.018 -0.005,0.035 -0.006,0.017 -0.026,0.048 -0.017,0.028 -0.053,0.073 -0.037,0.043 -0.1,0.11 l -0.392,0.426 0.619,0.88 q 0.022,0.032 0.033,0.066 0.015,0.034 0.015,0.065 0,0.053 -0.032,0.087 -0.028,0.037 -0.101,0.037 -0.06,0 -0.107,-0.034 -0.046,-0.031 -0.085,-0.093 l -0.536,-0.793 -0.243,0.265 -0.006,0.215 q -0.002,0.107 -0.008,0.226 -0.003,0.067 -0.014,0.104 -0.01,0.037 -0.026,0.056 -0.017,0.02 -0.04,0.023 -0.02,0.006 -0.047,0.006 -0.05,0 -0.085,-0.034 -0.034,-0.037 -0.04,-0.152 z"
       word-spacing="0"
       letter-spacing="0"
       font-size="2.822"
       font-weight="400"
       aria-label="CLK"
       id="path32"
       inkscape:connector-curvature="0" />
  </g>
  <g
     style="line-height:1.25"
     id="g38">
    <path
       style="-inkscape-font-specification:'Sniglet, Normal';font-variant-ligatures:normal;font-variant-caps:normal;font-variant-numeric:normal;font-feature-settings:normal;text-align:start"
       d="M29.688 10.97q-.158 0-.254-.024-.096-.026-.15-.07-.05-.05-.07-.116-.017-.068-.026-.153-.008-.1-.014-.26-.002-.163-.002-.338V9.83l.002-.186.006-.172q.003-.08.008-.136.009-.087.029-.158.02-.07.073-.121.057-.051.155-.076.102-.03.268-.03.379 0 .565.143.189.138.189.395 0 .132-.06.245-.056.113-.197.17.08.014.144.059.065.045.11.11.048.062.07.14.026.077.026.156 0 .102-.042.21-.043.103-.144.19-.102.088-.271.145-.167.056-.415.056zm.59-.61q0-.1-.048-.162-.045-.062-.12-.093-.072-.034-.162-.045-.09-.012-.181-.012h-.147q-.076 0-.14.003-.004.06-.006.122l-.006.118v.153q0 .076.01.127.013.05.044.08.03.032.087.047.06.01.15.01.248 0 .383-.087.136-.087.136-.26zm-.522-1.14q-.093 0-.153.018-.056.014-.087.04-.028.025-.04.062-.008.037-.008.079v.395q.04.003.082.003h.084q.102 0 .198-.014.099-.014.178-.048.079-.034.127-.093.048-.06.048-.153 0-.127-.105-.206-.101-.081-.324-.081zm1.34 1.573q0 .068-.014.105-.011.037-.03.056-.018.02-.043.023-.023.006-.045.006-.076 0-.102-.034-.022-.034-.03-.152-.006-.063-.01-.181l-.005-.282q0-.164-.003-.362v-.417q0-.105.026-.212.025-.107.096-.195.073-.087.2-.14.13-.054.336-.054.144 0 .274.03.13.032.228.108.099.076.158.203.06.127.06.316 0 .198-.065.328t-.184.206q-.118.076-.282.107-.164.03-.36.03h-.094q-.048 0-.108-.005zm.813-1.188q0-.19-.107-.285-.104-.096-.35-.096-.093 0-.16.017-.066.014-.108.054-.042.036-.065.1-.02.066-.02.165v.22q0 .122.003.229.065.003.144.003h.152q.085 0 .175-.012.093-.01.167-.05.073-.043.12-.122.049-.081.049-.223zm1.238.886q-.13-.285-.231-.55-.1-.268-.17-.477-.065.35-.11.706-.042.355-.11.68-.017.073-.062.099-.045.022-.076.022-.051 0-.082-.03-.028-.032-.028-.08 0-.065.014-.197l.04-.305q.025-.17.056-.356.03-.186.062-.358l.062-.316q.03-.141.054-.217.036-.13.15-.13.067 0 .115.067.048.065.102.204.056.135.132.344.08.209.203.49.122-.281.195-.487.076-.21.127-.345.054-.138.102-.203.048-.067.118-.067.065 0 .099.033.034.03.05.096.02.08.049.22.028.139.059.31.034.17.065.357l.056.355q.026.17.04.308.017.135.017.209 0 .045-.031.073-.031.025-.08.025-.03 0-.075-.022-.046-.026-.063-.1-.033-.16-.062-.332l-.05-.347-.046-.353q-.022-.178-.048-.353-.036.113-.084.249-.048.135-.102.273-.053.136-.11.269-.056.132-.11.24-.02.036-.054.056-.03.017-.064.017-.037 0-.071-.017-.031-.02-.048-.06z"
       word-spacing="0"
       letter-spacing="0"
       font-size="2.822"
       font-weight="400"
       aria-label="BPM"
       font-family="Sniglet"
       id="path36" />
  </g>
  <g
     style="line-height:1.25"
     id="g42">
    <path
       style="-inkscape-font-specification:'Sniglet, Normal';font-variant-ligatures:normal;font-variant-caps:normal;font-variant-numeric:normal;font-feature-settings:normal;text-align:start"
       d="M29.69 82.197q-.158 0-.254-.025t-.15-.07q-.05-.048-.07-.116-.017-.068-.026-.153-.008-.098-.014-.26-.003-.163-.003-.338v-.178q.003-.096.003-.186l.006-.172q.003-.08.008-.136.01-.087.028-.158.02-.07.074-.12.056-.052.155-.077.102-.028.268-.028.378 0 .565.14.19.14.19.396 0 .133-.06.245-.057.113-.198.17.08.014.144.06.065.044.11.11.048.061.07.14.026.076.026.155 0 .102-.042.21-.043.104-.144.191-.102.088-.27.144-.168.057-.416.057zm.59-.61q0-.1-.048-.163-.045-.062-.119-.093-.073-.034-.164-.045-.09-.011-.18-.011h-.147q-.076 0-.14.003l-.007.121-.005.119v.152q0 .076.011.127.011.05.042.082.031.03.088.045.06.011.15.011.248 0 .383-.087.136-.088.136-.26zm-.522-1.14q-.094 0-.153.018-.056.014-.087.04-.029.025-.04.061-.008.037-.008.08v.394q.04.003.081.003h.085q.102 0 .198-.014.098-.014.178-.048.08-.034.127-.093.047-.06.047-.152 0-.127-.104-.206-.102-.082-.324-.082zM31.1 82.02q0 .067-.015.104-.01.037-.03.057-.018.02-.043.022-.023.006-.045.006-.077 0-.102-.034-.023-.034-.03-.152-.007-.062-.01-.18l-.005-.283q0-.164-.003-.361v-.418q0-.104.025-.212.026-.107.096-.194.074-.088.2-.141.13-.054.337-.054.144 0 .273.03.13.032.23.108.098.076.157.203.06.127.06.316 0 .198-.066.328-.065.13-.183.206-.119.076-.282.107-.164.031-.359.031h-.096q-.048 0-.107-.006zm.812-1.188q0-.19-.107-.286-.105-.096-.35-.096-.093 0-.16.017-.066.014-.108.054-.043.037-.065.102-.02.064-.02.163v.22q0 .122.003.229.065.003.144.003h.152q.085 0 .175-.011.093-.012.167-.051.073-.042.121-.121.048-.082.048-.223zm1.238.886q-.13-.285-.232-.55-.098-.269-.169-.478-.065.35-.11.706-.042.356-.11.68-.017.074-.062.099-.045.023-.076.023-.05 0-.082-.031-.028-.031-.028-.08 0-.064.014-.197l.04-.305q.025-.17.056-.355.03-.187.062-.359l.062-.316q.03-.141.053-.217.037-.13.15-.13.068 0 .116.068.048.065.101.203.057.135.133.344.08.209.203.491.122-.282.195-.488.076-.209.127-.344.054-.139.101-.204.048-.067.12-.067.064 0 .098.034.034.03.05.096.02.079.05.22.027.138.058.31.034.17.065.356l.056.355q.026.17.04.308.017.136.017.209 0 .045-.03.073-.032.026-.08.026-.03 0-.077-.023-.045-.025-.062-.099-.034-.16-.062-.333l-.05-.347-.046-.353q-.022-.177-.048-.352-.036.112-.084.248-.048.135-.102.274-.054.135-.11.268-.057.132-.11.24-.02.036-.054.056-.03.017-.065.017-.036 0-.07-.017-.03-.02-.048-.06z"
       word-spacing="0"
       letter-spacing="0"
       font-size="2.822"
       font-weight="400"
       aria-label="BPM"
       font-family="Sniglet"
       id="path40" />
  </g>
  <g
     style="line-height:1.25"
     id="g46">
    <path
       style="-inkscape-font-specification:'Sniglet, Normal';font-variant-ligatures:normal;font-variant-caps:normal;font-variant-numeric:normal;font-feature-settings:normal;text-align:start"
       d="M5.957 67.969q.093 0 .186.016.096.015.172.048.076.03.124.08.051.045.051.107 0 .065-.034.098-.034.034-.084.034-.048 0-.085-.014-.037-.017-.085-.036-.045-.02-.11-.034-.065-.017-.172-.017-.107 0-.206.056-.096.054-.17.153-.07.096-.112.228-.043.133-.043.288 0 .192.048.33.051.139.13.229.08.087.178.133.102.042.203.042.122 0 .203-.026.082-.025.14-.056.058-.031.1-.056.043-.026.082-.026.048 0 .076.028.03.026.03.094 0 .056-.047.115-.042.057-.127.105-.08.045-.197.076-.116.028-.26.028-.158 0-.316-.062-.155-.062-.28-.184-.12-.124-.197-.307-.076-.186-.076-.432 0-.245.068-.437.07-.192.19-.325.12-.135.28-.206.16-.07.34-.07zm1.153 1.21v.16q0 .069-.003.13 0 .063-.003.125l-.005.138.304-.036.173-.023.098-.011q.037-.003.085-.003.124 0 .124.12 0 .049-.05.083-.049.034-.125.06-.073.022-.166.039-.09.014-.178.02-.085.008-.155.01-.068.004-.096.004-.102 0-.158-.014-.057-.011-.085-.074-.028-.064-.037-.194-.005-.13-.005-.367v-.407q0-.177.003-.32l.002-.25q.003-.11.01-.2.004-.116.04-.15.032-.036.083-.036.028 0 .048.006.023.003.04.022.016.02.025.057.011.036.014.104.011.248.014.49.003.244.003.518zm1.011.612q-.006-.1-.009-.211 0-.11-.003-.237t-.003-.274v-.333q0-.2.003-.341.003-.144.014-.235.014-.09.043-.132.028-.042.08-.042.047 0 .083.03.037.032.043.144l.008.18.006.159q.003.076.003.16v.334l.604-.691q.118-.136.183-.178.065-.045.113-.045.056 0 .082.028.028.028.028.07 0 .017-.006.034-.005.017-.025.048-.017.028-.054.074-.036.042-.098.11l-.393.426.618.88q.023.03.034.065.014.034.014.065 0 .054-.03.088-.029.036-.102.036-.06 0-.108-.033-.045-.031-.084-.094l-.536-.793-.243.266-.006.214-.008.226q-.003.068-.014.104-.009.037-.026.057-.017.02-.04.022-.019.006-.047.006-.05 0-.085-.034-.034-.036-.04-.152zm2.563 0q-.006-.1-.009-.211l-.002-.237q-.003-.127-.003-.274v-.686l-.17.088q-.07.045-.112.054-.04.008-.088.008-.042 0-.076-.037-.03-.037-.03-.088 0-.05.033-.087.036-.04.084-.07.063-.043.133-.085.073-.043.141-.077.068-.036.124-.056.06-.023.1-.023.02 0 .04.006.021.006.04.023.018.017.03.054.013.033.016.093l.01.177.004.15q.003.07.003.15v.426q0 .115-.003.228l-.005.229q-.003.116-.009.243-.003.067-.014.104-.008.037-.025.056-.017.02-.04.023-.02.006-.048.006-.05 0-.085-.034-.033-.037-.039-.152z"
       word-spacing="0"
       letter-spacing="0"
       font-size="2.822"
       font-weight="400"
       aria-label="CLK 1"
       font-family="Sniglet"
       id="path44" />
  </g>
  <g
     style="line-height:1.25"
     id="g50">
    <path
       style="-inkscape-font-specification:'Sniglet, Normal';font-variant-ligatures:normal;font-variant-caps:normal;font-variant-numeric:normal;font-feature-settings:normal;text-align:start"
       d="M17.473 67.914q.093 0 .187.017.096.014.172.048.076.03.124.079.05.045.05.107 0 .065-.033.099-.034.034-.085.034-.048 0-.085-.014-.036-.017-.084-.037-.045-.02-.11-.034-.065-.017-.172-.017-.108 0-.206.057-.096.053-.17.152-.07.096-.113.229-.042.132-.042.288 0 .192.048.33.05.138.13.228.079.088.178.133.101.042.203.042.121 0 .203-.025.082-.025.138-.056.06-.032.102-.057.042-.025.082-.025.048 0 .076.028.028.025.028.093 0 .056-.045.116-.042.056-.127.104-.082.045-.198.076-.115.028-.26.028-.157 0-.315-.062-.155-.062-.28-.183-.121-.124-.197-.308-.076-.186-.076-.431 0-.246.067-.438.07-.192.19-.324.12-.136.279-.207.16-.07.341-.07zm1.154 1.21v.16q0 .069-.003.13 0 .064-.003.126l-.006.138.305-.037.172-.022.099-.012q.037-.003.085-.003.124 0 .124.122 0 .048-.05.082-.049.033-.125.059-.073.022-.167.04-.09.013-.177.02-.085.007-.156.01l-.096.003q-.101 0-.158-.014-.056-.011-.084-.073-.029-.065-.037-.195-.006-.13-.006-.367v-.406q0-.178.003-.32.003-.14.003-.25.003-.11.008-.2.006-.116.04-.15.034-.037.085-.037.028 0 .048.006.022.003.04.023.016.02.025.056.01.037.014.105.011.248.014.49.003.243.003.517zm1.01.613q-.005-.101-.008-.211 0-.11-.003-.237t-.003-.274v-.333q0-.2.003-.342.003-.144.014-.234.014-.09.042-.133.029-.042.08-.042.047 0 .084.03.037.032.042.145l.009.18.005.159q.003.076.003.16v.335l.604-.692q.119-.135.184-.178.065-.045.113-.045.056 0 .081.028.029.028.029.07 0 .018-.006.035-.006.017-.025.048-.017.028-.054.073l-.099.11-.392.426.618.88q.023.032.034.066.014.034.014.065 0 .053-.031.087-.028.037-.102.037-.059 0-.107-.034-.045-.031-.085-.093l-.536-.793-.243.265-.005.215q-.003.107-.009.225-.002.068-.014.105-.008.037-.025.056-.017.02-.04.023-.02.006-.048.006-.05 0-.084-.034-.034-.037-.04-.152zm2.772-1.53q-.101 0-.169.023-.068.02-.113.054t-.073.07l-.051.07q-.023.035-.05.057-.026.02-.066.02-.067 0-.096-.034-.025-.037-.025-.096 0-.124.093-.231.028-.034.076-.07.051-.04.119-.071.07-.031.16-.051.094-.023.21-.023.307 0 .477.15.169.15.169.42 0 .054-.011.119-.008.065-.037.135-.026.07-.074.147-.048.076-.127.155-.07.07-.15.13-.078.06-.163.119l-.178.127q-.09.065-.183.15.09.047.195.06.104.015.234.015.121 0 .195-.006.073-.006.118-.014l.07-.014q.026-.006.054-.006.105 0 .105.096 0 .085-.07.13-.071.045-.17.068-.1.02-.204.022-.104.006-.172.006-.036 0-.104-.006-.065-.003-.141-.014-.076-.011-.155-.03-.077-.023-.142-.057-.062-.037-.101-.088-.04-.053-.04-.127 0-.098.07-.186.074-.09.182-.175.107-.087.23-.172.125-.087.232-.178.108-.093.178-.192.074-.1.074-.214 0-.144-.1-.215-.095-.073-.276-.073z"
       word-spacing="0"
       letter-spacing="0"
       font-size="2.822"
       font-weight="400"
       aria-label="CLK 2"
       font-family="Sniglet"
       id="path48" />
  </g>
  <g
     style="line-height:1.25"
     id="g54">
    <path
       style="-inkscape-font-specification:'Sniglet, Normal';font-variant-ligatures:normal;font-variant-caps:normal;font-variant-numeric:normal;font-feature-settings:normal;text-align:start"
       d="M29.371 67.97q.093 0 .186.018.096.014.173.048.076.03.124.079.05.045.05.107 0 .065-.033.099-.034.034-.085.034-.048 0-.085-.015l-.084-.036q-.046-.02-.11-.034-.065-.017-.173-.017-.107 0-.206.056-.096.054-.169.153-.07.096-.113.228-.042.133-.042.288 0 .192.048.33.05.139.13.229.08.087.177.133.102.042.204.042.121 0 .203-.025.082-.026.138-.057.06-.03.102-.056.042-.026.082-.026.048 0 .076.029.028.025.028.093 0 .056-.045.115-.043.057-.127.105-.082.045-.198.076-.115.028-.26.028-.157 0-.315-.062-.156-.062-.28-.183-.12-.125-.197-.308-.077-.186-.077-.432 0-.245.068-.437.07-.192.19-.325.12-.135.28-.206.16-.07.34-.07zm1.153 1.21v.162q0 .068-.003.13l-.002.124-.006.139.305-.037.172-.023.1-.011q.035-.003.083-.003.125 0 .125.12 0 .049-.05.083-.049.034-.125.06-.074.022-.167.039-.09.014-.178.02-.084.008-.155.01l-.096.004q-.1 0-.158-.014-.056-.011-.085-.073-.028-.065-.036-.195-.006-.13-.006-.367v-.406q0-.178.003-.32.003-.14.003-.25.003-.11.008-.201.006-.116.04-.15.034-.036.084-.036.03 0 .048.006.023.003.04.022.017.02.025.057.012.036.014.104.012.249.015.49.002.244.002.518zm1.011.614q-.006-.102-.009-.212l-.002-.237q-.003-.127-.003-.274v-.333q0-.2.003-.341.002-.144.014-.234.014-.09.042-.133.028-.042.08-.042.047 0 .084.03.037.032.042.145l.01.18.004.158q.003.076.003.16v.334l.604-.691q.12-.136.183-.178.065-.045.113-.045.057 0 .082.028.028.028.028.07 0 .017-.005.034-.006.017-.026.048-.017.028-.053.074l-.099.11-.392.426.618.88q.022.03.034.065.014.034.014.065 0 .054-.03.088-.03.036-.103.036-.06 0-.107-.033-.045-.031-.085-.094l-.536-.793-.243.266-.005.214q-.003.107-.009.226-.003.068-.014.104-.008.037-.025.057-.017.02-.04.022-.02.006-.048.006-.05 0-.085-.034-.033-.036-.039-.152zm2.371-1.52q-.09 0-.132-.044-.042-.048-.042-.096 0-.05.047-.082.048-.034.127-.05.08-.02.181-.026.102-.008.206-.008.088 0 .195.008.107.006.2.034.093.025.155.08.063.05.063.14 0 .07-.054.147-.054.076-.124.144-.07.068-.14.12l-.1.075q.3 0 .434.15.136.149.136.428 0 .175-.065.305-.062.13-.17.217-.104.085-.242.127-.135.043-.28.043-.118 0-.234-.02-.113-.02-.203-.068-.09-.05-.147-.132-.053-.085-.053-.21 0-.13.14-.13.043 0 .066.024.025.02.042.05.02.029.04.065.02.037.056.068.04.028.102.05.065.02.17.02.081 0 .16-.016.08-.02.141-.063.062-.042.1-.112.04-.074.04-.181 0-.21-.089-.296-.085-.088-.24-.088-.04 0-.073.014-.034.01-.068.028l-.07.029q-.037.01-.083.01-.045 0-.079-.04-.033-.041-.033-.106 0-.045.042-.104.045-.06.121-.136.08-.076.19-.166.11-.093.245-.2h-.068l-.076.002h-.347q-.102-.003-.186-.003z"
       word-spacing="0"
       letter-spacing="0"
       font-size="2.822"
       font-weight="400"
       aria-label="CLK 3"
       font-family="Sniglet"
       id="path52" />
  </g>
  <path
     d="m 7.937,64.134 v 1.285 M 31.75,19.758539 v 1.322"
     id="path56"
     inkscape:connector-curvature="0"
     style="fill:none;stroke:#000000;stroke-width:0.132"
     sodipodi:nodetypes="cccc" />
  <g
     aria-label="CLKD"
     style="line-height:1.25"
     font-weight="400"
     font-size="4.233"
     font-family="Sniglet"
     letter-spacing="0"
     word-spacing="0"
     stroke-width=".265"
     id="g60">
    <path
       d="M16.525 3.525q.14 0 .28.025.143.021.257.072.115.047.187.119.076.067.076.16 0 .098-.051.149-.05.05-.127.05-.072 0-.127-.02-.055-.026-.127-.056-.068-.03-.165-.05-.097-.026-.258-.026t-.31.085q-.143.08-.253.228-.106.144-.17.343-.063.2-.063.432 0 .288.072.495.076.208.195.343.118.132.266.2.153.063.305.063.182 0 .305-.038t.207-.085q.09-.047.153-.085.063-.038.122-.038.072 0 .115.043.042.038.042.14 0 .084-.068.173-.063.085-.19.156-.123.068-.297.115-.173.042-.389.042-.237 0-.474-.093-.233-.093-.42-.275-.181-.186-.296-.462-.114-.279-.114-.647 0-.369.102-.657.106-.287.283-.486.182-.204.42-.31.24-.105.512-.105zM18.254 5.34v.242q0 .102-.004.195 0 .093-.004.186l-.008.208q.292-.034.457-.055l.258-.034q.097-.013.148-.017.055-.004.127-.004.186 0 .186.182 0 .072-.076.122-.072.051-.186.09-.11.033-.25.059-.135.02-.266.03-.127.012-.233.016-.102.004-.144.004-.153 0-.237-.02-.085-.018-.127-.11-.043-.098-.055-.293-.009-.195-.009-.55v-.61q0-.267.004-.478.005-.212.005-.377.004-.165.012-.3.009-.174.06-.225.05-.055.127-.055.042 0 .072.008.033.005.059.034.025.03.038.085.017.055.021.157.017.372.021.736t.004.775zM19.77 6.26q-.008-.153-.012-.318 0-.165-.004-.356-.005-.19-.005-.41v-.5q0-.3.005-.512.004-.216.02-.351.022-.136.064-.2.043-.063.119-.063.072 0 .127.047.055.046.063.216.009.152.013.27l.009.238q.004.114.004.241v.5l.906-1.038q.178-.203.275-.266.097-.068.17-.068.084 0 .122.042.042.043.042.106 0 .025-.008.05-.009.026-.038.073-.026.042-.08.11l-.149.165-.588.64.927 1.32q.034.047.05.097.022.051.022.098 0 .08-.047.131-.042.055-.152.055-.09 0-.161-.05-.068-.047-.127-.14l-.804-1.19-.365.398-.008.322q-.004.16-.013.338-.004.102-.02.157-.014.055-.039.085-.025.03-.06.033-.029.009-.071.009-.076 0-.127-.05-.051-.056-.06-.23zM23.032 3.529q.436 0 .698.131.263.131.402.347.14.216.182.491.047.276.047.56 0 .308-.08.583-.077.276-.242.483-.16.203-.415.326-.254.119-.605.119-.28 0-.449-.043-.165-.038-.258-.118-.089-.08-.119-.203-.03-.123-.03-.288V4.325q0-.182.03-.33.034-.148.127-.25.093-.106.263-.16.173-.056.449-.056zm.016 2.616q.263 0 .432-.093.174-.097.275-.254.102-.157.14-.356.042-.198.042-.406 0-.19-.03-.38-.029-.196-.122-.352-.093-.157-.267-.254-.173-.098-.461-.098-.263 0-.364.077-.102.076-.102.232v1.622q0 .131.093.199.098.063.364.063z"
       style="-inkscape-font-specification:'Sniglet, Normal';font-variant-ligatures:normal;font-variant-caps:normal;font-variant-numeric:normal;font-feature-settings:normal;text-align:start"
       id="path58" />
  </g>
  <path
     d="m 19.844,64.134 v 1.285 M 31.75,64.083 v 1.285 M 19.844,19.758539 v 1.322 m -11.907,-1.322 v 1.322"
     id="path62"
     inkscape:connector-curvature="0"
     style="fill:none;stroke:#000000;stroke-width:0.132"
     sodipodi:nodetypes="cccccccc" />
  <g
     aria-label="DISPLAY"
     style="font-weight:400;font-size:2.82200003px;line-height:1.25;font-family:Sniglet;letter-spacing:0;word-spacing:0;stroke-width:0.26499999"
     font-weight="400"
     font-size="2.822"
     letter-spacing="0"
     word-spacing="0"
     id="g66"
     transform="translate(0,1.0583467)">
    <path
       d="m 5.814,45.863 q 0.29,0 0.466,0.088 0.175,0.087 0.268,0.231 0.093,0.144 0.121,0.328 0.031,0.183 0.031,0.372 0,0.206 -0.054,0.39 -0.05,0.183 -0.16,0.321 -0.108,0.136 -0.277,0.218 -0.17,0.079 -0.404,0.079 -0.186,0 -0.299,-0.028 -0.11,-0.026 -0.172,-0.08 -0.06,-0.053 -0.079,-0.135 -0.02,-0.082 -0.02,-0.192 v -1.061 q 0,-0.121 0.02,-0.22 Q 5.278,46.075 5.34,46.007 5.402,45.937 5.515,45.9 5.63,45.863 5.814,45.863 Z m 0.011,1.745 q 0.175,0 0.288,-0.063 0.116,-0.064 0.184,-0.169 0.067,-0.104 0.093,-0.237 0.028,-0.133 0.028,-0.27 0,-0.128 -0.02,-0.255 Q 6.378,46.484 6.316,46.38 6.254,46.275 6.138,46.21 6.023,46.146 5.831,46.146 q -0.175,0 -0.243,0.05 -0.068,0.051 -0.068,0.156 v 1.08 q 0,0.088 0.062,0.133 0.065,0.043 0.243,0.043 z m 1.2,0.076 q -0.006,-0.102 -0.008,-0.212 0,-0.11 -0.003,-0.237 -0.003,-0.127 -0.003,-0.274 v -0.333 q 0,-0.2 0.003,-0.341 0.003,-0.144 0.017,-0.235 0.014,-0.09 0.042,-0.132 0.031,-0.043 0.082,-0.043 0.025,0 0.048,0.006 0.022,0.006 0.04,0.025 0.016,0.017 0.028,0.054 0.014,0.034 0.017,0.09 l 0.008,0.181 0.006,0.158 q 0.002,0.076 0.002,0.161 v 0.429 q 0,0.116 -0.002,0.229 l -0.006,0.228 -0.008,0.243 q -0.003,0.068 -0.015,0.104 -0.01,0.037 -0.028,0.057 -0.017,0.02 -0.04,0.022 -0.022,0.006 -0.05,0.006 -0.05,0 -0.088,-0.034 -0.036,-0.037 -0.042,-0.152 z m 1.291,-1.818 q 0.08,0 0.18,0.014 0.105,0.012 0.196,0.045 0.09,0.032 0.152,0.085 0.062,0.05 0.062,0.127 0,0.045 -0.025,0.076 -0.026,0.031 -0.082,0.031 -0.042,0 -0.088,-0.017 Q 8.669,46.211 8.613,46.194 8.559,46.174 8.486,46.157 8.415,46.14 8.319,46.14 q -0.186,0 -0.276,0.068 -0.088,0.065 -0.088,0.18 0,0.08 0.04,0.133 0.039,0.054 0.104,0.093 0.068,0.037 0.15,0.062 0.084,0.026 0.172,0.048 0.098,0.026 0.194,0.062 0.1,0.037 0.175,0.096 0.077,0.06 0.122,0.15 0.048,0.09 0.048,0.228 0,0.144 -0.054,0.26 -0.054,0.113 -0.147,0.195 -0.093,0.079 -0.223,0.124 -0.13,0.042 -0.282,0.042 -0.084,0 -0.197,-0.017 Q 7.944,47.85 7.842,47.814 7.741,47.774 7.67,47.712 7.6,47.647 7.6,47.554 q 0,-0.057 0.028,-0.09 0.03,-0.034 0.09,-0.034 0.048,0 0.079,0.02 0.031,0.016 0.054,0.039 0.084,0.073 0.192,0.099 0.107,0.025 0.22,0.025 0.065,0 0.135,-0.008 0.073,-0.012 0.133,-0.043 0.059,-0.03 0.099,-0.087 0.039,-0.06 0.039,-0.158 0,-0.09 -0.037,-0.147 Q 8.598,47.11 8.539,47.071 8.48,47.031 8.399,47.006 8.319,46.981 8.226,46.956 8.122,46.927 8.02,46.893 7.918,46.86 7.84,46.803 7.76,46.743 7.71,46.656 7.662,46.566 7.662,46.428 q 0,-0.138 0.05,-0.243 0.051,-0.104 0.139,-0.175 0.087,-0.07 0.206,-0.107 0.121,-0.037 0.26,-0.037 z m 1.236,1.814 q 0,0.069 -0.014,0.105 -0.01,0.037 -0.03,0.057 Q 9.49,47.862 9.465,47.864 9.442,47.87 9.42,47.87 9.344,47.87 9.318,47.836 9.296,47.802 9.288,47.684 9.282,47.622 9.278,47.504 L 9.273,47.221 q 0,-0.164 -0.003,-0.361 v -0.418 q 0,-0.105 0.026,-0.212 0.025,-0.107 0.096,-0.195 0.073,-0.087 0.2,-0.14 0.13,-0.054 0.336,-0.054 0.144,0 0.274,0.03 0.13,0.032 0.228,0.108 0.099,0.076 0.158,0.203 0.06,0.127 0.06,0.316 0,0.198 -0.065,0.328 -0.065,0.13 -0.184,0.206 -0.118,0.076 -0.282,0.107 Q 9.953,47.17 9.759,47.17 H 9.663 q -0.048,0 -0.108,-0.006 z m 0.813,-1.187 q 0,-0.19 -0.107,-0.285 -0.104,-0.096 -0.35,-0.096 -0.093,0 -0.16,0.017 -0.066,0.014 -0.108,0.053 -0.042,0.037 -0.065,0.102 -0.02,0.065 -0.02,0.164 v 0.22 q 0,0.121 0.003,0.228 0.065,0.003 0.144,0.003 h 0.152 q 0.085,0 0.175,-0.011 0.094,-0.011 0.167,-0.051 0.073,-0.042 0.121,-0.121 0.048,-0.082 0.048,-0.223 z m 0.792,0.578 v 0.161 q 0,0.068 -0.003,0.13 0,0.062 -0.003,0.124 l -0.006,0.138 q 0.195,-0.022 0.305,-0.036 l 0.172,-0.023 0.099,-0.011 q 0.037,-0.003 0.085,-0.003 0.124,0 0.124,0.121 0,0.048 -0.051,0.082 -0.048,0.034 -0.124,0.06 -0.074,0.022 -0.167,0.04 -0.09,0.013 -0.177,0.019 -0.085,0.008 -0.156,0.011 l -0.096,0.003 q -0.101,0 -0.158,-0.014 -0.056,-0.011 -0.084,-0.074 -0.029,-0.064 -0.037,-0.194 -0.006,-0.13 -0.006,-0.367 v -0.407 q 0,-0.177 0.003,-0.319 0.003,-0.14 0.003,-0.25 0.003,-0.11 0.008,-0.201 0.006,-0.116 0.04,-0.15 0.034,-0.036 0.085,-0.036 0.028,0 0.048,0.005 0.022,0.003 0.04,0.023 0.016,0.02 0.025,0.056 0.01,0.037 0.014,0.105 0.01,0.248 0.014,0.49 0.003,0.243 0.003,0.517 z m 2.179,0.644 Q 13.307,47.647 13.274,47.56 13.243,47.47 13.206,47.37 l -0.178,0.006 h -0.41 q -0.098,0 -0.18,-0.003 l -0.065,0.187 q -0.03,0.087 -0.059,0.155 -0.056,0.144 -0.164,0.144 -0.04,0 -0.076,-0.026 -0.034,-0.025 -0.034,-0.073 0,-0.048 0.017,-0.124 0.017,-0.08 0.043,-0.167 l 0.059,-0.183 q 0.03,-0.096 0.06,-0.178 0.027,-0.09 0.078,-0.229 l 0.113,-0.293 0.118,-0.3 q 0.06,-0.149 0.108,-0.259 0.011,-0.028 0.028,-0.062 0.017,-0.037 0.04,-0.068 0.025,-0.03 0.053,-0.053 0.031,-0.023 0.068,-0.023 0.037,0 0.068,0.025 0.03,0.023 0.053,0.057 0.026,0.034 0.042,0.07 0.02,0.037 0.032,0.065 0.045,0.113 0.101,0.26 0.06,0.147 0.116,0.296 0.06,0.15 0.11,0.285 0.05,0.136 0.082,0.229 0.025,0.082 0.056,0.175 0.034,0.093 0.062,0.183 0.029,0.09 0.045,0.17 0.02,0.076 0.02,0.124 0,0.048 -0.036,0.073 -0.034,0.026 -0.074,0.026 -0.05,0 -0.093,-0.034 -0.042,-0.037 -0.073,-0.11 z m -0.5,-0.621 q 0.068,0 0.136,0.003 l 0.135,0.002 -0.068,-0.197 -0.065,-0.19 -0.053,-0.166 -0.04,-0.138 q -0.011,-0.037 -0.025,-0.06 -0.014,-0.022 -0.037,-0.022 -0.022,0 -0.036,0.026 -0.015,0.022 -0.026,0.059 -0.034,0.116 -0.096,0.302 l -0.127,0.386 q 0.076,-0.002 0.153,-0.002 0.076,-0.003 0.15,-0.003 z m 1.344,0.59 -0.011,-0.33 q -0.003,-0.178 -0.003,-0.41 L 13.604,46.14 q -0.022,-0.031 -0.037,-0.065 -0.01,-0.034 -0.01,-0.065 0,-0.053 0.027,-0.087 0.031,-0.037 0.105,-0.037 0.059,0 0.104,0.034 0.048,0.03 0.088,0.093 l 0.42,0.669 0.42,-0.669 q 0.04,-0.062 0.085,-0.093 0.048,-0.034 0.108,-0.034 0.073,0 0.101,0.037 0.031,0.034 0.031,0.087 0,0.031 -0.014,0.065 -0.011,0.034 -0.034,0.065 l -0.55,0.787 q 0,0.192 -0.006,0.37 -0.002,0.175 -0.011,0.384 -0.003,0.068 -0.014,0.104 -0.009,0.037 -0.025,0.057 -0.017,0.02 -0.04,0.022 -0.02,0.006 -0.048,0.006 -0.05,0 -0.085,-0.034 -0.033,-0.037 -0.04,-0.152 z"
       style="-inkscape-font-specification:'Sniglet, Normal';font-variant-ligatures:normal;font-variant-caps:normal;font-variant-numeric:normal;font-feature-settings:normal;text-align:start"
       id="path64"
       inkscape:connector-curvature="0" />
  </g>
  <path
     style="font-weight:400;font-size:2.82200003px;line-height:1.25;font-family:Sniglet;-inkscape-font-specification:'Sniglet, Normal';font-variant-ligatures:normal;font-variant-caps:normal;font-variant-numeric:normal;font-feature-settings:normal;text-align:start;letter-spacing:0;word-spacing:0"
     d="m 5.192,33.794346 q -0.158,0 -0.254,-0.026 -0.096,-0.025 -0.15,-0.07 -0.05,-0.048 -0.07,-0.116 -0.017,-0.068 -0.025,-0.152 -0.009,-0.099 -0.015,-0.26 -0.002,-0.164 -0.002,-0.339 v -0.177 l 0.002,-0.187 0.006,-0.172 q 0.003,-0.079 0.009,-0.135 0.008,-0.088 0.028,-0.158 0.02,-0.07 0.073,-0.122 0.057,-0.05 0.155,-0.076 0.102,-0.028 0.268,-0.028 0.379,0 0.565,0.141 0.189,0.138 0.189,0.395 0,0.133 -0.06,0.246 -0.056,0.113 -0.197,0.17 0.08,0.013 0.144,0.058 0.065,0.045 0.11,0.11 0.048,0.062 0.07,0.142 0.026,0.076 0.026,0.155 0,0.101 -0.042,0.209 -0.043,0.104 -0.144,0.191 -0.102,0.088 -0.271,0.144 -0.167,0.057 -0.415,0.057 z m 0.59,-0.61 q 0,-0.101 -0.048,-0.163 -0.045,-0.063 -0.119,-0.094 -0.073,-0.033 -0.163,-0.045 -0.09,-0.011 -0.18,-0.011 H 5.124 q -0.076,0 -0.14,0.003 -0.004,0.06 -0.006,0.121 l -0.006,0.119 v 0.152 q 0,0.076 0.011,0.127 0.012,0.05 0.043,0.082 0.03,0.031 0.087,0.045 0.06,0.011 0.15,0.011 0.248,0 0.383,-0.087 0.136,-0.088 0.136,-0.26 z m -0.522,-1.14 q -0.093,0 -0.153,0.017 -0.056,0.014 -0.087,0.04 -0.028,0.025 -0.04,0.062 -0.008,0.036 -0.008,0.079 v 0.395 q 0.04,0.003 0.082,0.003 h 0.084 q 0.102,0 0.198,-0.015 0.099,-0.014 0.178,-0.048 0.079,-0.033 0.127,-0.093 0.048,-0.059 0.048,-0.152 0,-0.127 -0.105,-0.206 -0.101,-0.082 -0.324,-0.082 z m 1.34,1.572 q 0,0.068 -0.014,0.104 -0.01,0.037 -0.03,0.057 -0.018,0.02 -0.043,0.023 -0.023,0.005 -0.045,0.005 -0.076,0 -0.102,-0.034 -0.022,-0.034 -0.03,-0.152 -0.006,-0.062 -0.01,-0.18 l -0.005,-0.283 q 0,-0.164 -0.003,-0.361 v -0.418 q 0,-0.104 0.026,-0.212 0.025,-0.107 0.096,-0.194 0.073,-0.088 0.2,-0.141 0.13,-0.054 0.336,-0.054 0.144,0 0.274,0.031 0.13,0.031 0.228,0.107 0.099,0.076 0.158,0.203 0.06,0.127 0.06,0.316 0,0.198 -0.065,0.328 -0.065,0.13 -0.184,0.206 -0.118,0.076 -0.282,0.107 -0.164,0.031 -0.359,0.031 H 6.711 q -0.048,0 -0.108,-0.005 z m 0.813,-1.188 q 0,-0.19 -0.107,-0.285 -0.104,-0.096 -0.35,-0.096 -0.093,0 -0.16,0.017 -0.066,0.014 -0.108,0.053 -0.042,0.037 -0.065,0.102 -0.02,0.065 -0.02,0.164 v 0.22 q 0,0.121 0.003,0.228 0.065,0.003 0.144,0.003 h 0.152 q 0.085,0 0.175,-0.011 0.094,-0.011 0.167,-0.05 0.073,-0.043 0.121,-0.122 0.048,-0.082 0.048,-0.223 z m 1.238,0.886 q -0.13,-0.285 -0.231,-0.55 -0.1,-0.268 -0.17,-0.477 -0.065,0.35 -0.11,0.705 -0.042,0.356 -0.11,0.68 -0.017,0.074 -0.062,0.1 -0.045,0.022 -0.076,0.022 -0.05,0 -0.082,-0.031 -0.028,-0.031 -0.028,-0.08 0,-0.064 0.014,-0.197 l 0.04,-0.305 q 0.025,-0.169 0.056,-0.355 0.03,-0.186 0.062,-0.359 l 0.062,-0.316 q 0.031,-0.14 0.054,-0.217 0.036,-0.13 0.15,-0.13 0.067,0 0.115,0.068 0.048,0.065 0.102,0.203 0.056,0.136 0.132,0.344 0.08,0.21 0.203,0.492 0.122,-0.283 0.195,-0.489 0.076,-0.209 0.127,-0.344 0.054,-0.138 0.102,-0.203 0.048,-0.068 0.118,-0.068 0.065,0 0.1,0.034 0.033,0.03 0.05,0.096 0.02,0.079 0.048,0.22 0.028,0.138 0.06,0.31 0.033,0.17 0.064,0.356 0.031,0.186 0.056,0.356 0.026,0.169 0.04,0.307 0.017,0.136 0.017,0.21 0,0.044 -0.031,0.072 -0.031,0.026 -0.08,0.026 -0.03,0 -0.075,-0.023 -0.046,-0.025 -0.062,-0.098 -0.034,-0.161 -0.063,-0.333 l -0.05,-0.348 -0.045,-0.352 q -0.023,-0.178 -0.048,-0.353 -0.037,0.113 -0.085,0.248 -0.048,0.136 -0.102,0.274 -0.053,0.135 -0.11,0.268 -0.056,0.133 -0.11,0.24 -0.02,0.037 -0.053,0.056 -0.032,0.017 -0.065,0.017 -0.037,0 -0.071,-0.017 -0.031,-0.02 -0.048,-0.059 z m 1.611,0.308 0.08,-0.263 0.098,-0.327 0.119,-0.373 q 0.065,-0.194 0.13,-0.398 l 0.098,-0.299 q 0.046,-0.13 0.082,-0.211 0.04,-0.082 0.074,-0.122 0.036,-0.042 0.079,-0.042 0.042,0 0.076,0.028 0.037,0.028 0.037,0.088 0,0.02 -0.003,0.042 -0.003,0.023 -0.012,0.054 -0.132,0.468 -0.287,0.948 -0.156,0.477 -0.33,0.95 -0.034,0.091 -0.066,0.122 -0.03,0.031 -0.062,0.031 -0.05,0 -0.09,-0.028 -0.04,-0.028 -0.04,-0.093 0,-0.04 0.018,-0.107 z m 2.032,-0.522 -0.082,0.005 h -0.177 q -0.048,0 -0.108,-0.005 v 0.573 q 0,0.09 -0.045,0.112 -0.042,0.02 -0.107,0.02 -0.034,0 -0.054,-0.005 -0.02,-0.003 -0.033,-0.015 -0.012,-0.014 -0.02,-0.04 -0.006,-0.024 -0.009,-0.07 -0.005,-0.05 -0.008,-0.146 l -0.006,-0.254 q 0,-0.156 -0.003,-0.376 v -0.522 q 0,-0.116 0.029,-0.223 0.028,-0.11 0.101,-0.192 0.074,-0.084 0.198,-0.135 0.127,-0.051 0.321,-0.051 0.139,0 0.269,0.031 0.132,0.031 0.234,0.107 0.101,0.077 0.164,0.206 0.062,0.13 0.062,0.325 0,0.26 -0.113,0.403 -0.11,0.142 -0.305,0.2 l 0.378,0.52 q 0.05,0.068 0.05,0.138 0,0.057 -0.039,0.088 -0.036,0.034 -0.093,0.034 -0.062,0 -0.107,-0.034 -0.045,-0.037 -0.085,-0.093 z m 0.443,-0.658 q 0,-0.195 -0.118,-0.288 -0.116,-0.096 -0.37,-0.096 -0.093,0 -0.155,0.017 -0.062,0.014 -0.099,0.057 -0.037,0.042 -0.053,0.118 -0.015,0.073 -0.015,0.19 v 0.191 q 0,0.11 0.003,0.2 0.065,0.003 0.144,0.003 h 0.153 q 0.079,0 0.166,-0.008 0.09,-0.012 0.167,-0.051 0.076,-0.042 0.127,-0.119 0.05,-0.079 0.05,-0.214 z m 1.731,1.208 q -0.029,-0.068 -0.063,-0.155 -0.03,-0.09 -0.067,-0.19 l -0.178,0.006 h -0.41 q -0.098,0 -0.18,-0.003 l -0.065,0.187 q -0.03,0.087 -0.06,0.155 -0.056,0.144 -0.163,0.144 -0.04,0 -0.076,-0.026 -0.034,-0.025 -0.034,-0.073 0,-0.048 0.017,-0.124 0.017,-0.08 0.042,-0.167 l 0.06,-0.183 q 0.03,-0.096 0.059,-0.178 0.028,-0.09 0.079,-0.228 l 0.113,-0.294 0.118,-0.3 q 0.06,-0.149 0.108,-0.259 0.01,-0.028 0.028,-0.062 0.017,-0.037 0.04,-0.068 0.025,-0.03 0.053,-0.053 0.031,-0.023 0.068,-0.023 0.036,0 0.067,0.026 0.031,0.022 0.054,0.056 0.025,0.034 0.042,0.07 0.02,0.037 0.031,0.066 0.046,0.112 0.102,0.26 0.06,0.146 0.116,0.295 0.059,0.15 0.11,0.286 0.05,0.135 0.082,0.228 0.025,0.082 0.056,0.175 0.034,0.093 0.062,0.184 0.028,0.09 0.045,0.169 0.02,0.076 0.02,0.124 0,0.048 -0.037,0.073 -0.033,0.026 -0.073,0.026 -0.05,0 -0.093,-0.034 -0.042,-0.037 -0.073,-0.11 z m -0.5,-0.621 q 0.068,0 0.135,0.003 0.068,0 0.136,0.003 l -0.068,-0.198 -0.065,-0.189 -0.053,-0.167 -0.04,-0.138 q -0.011,-0.036 -0.025,-0.06 -0.014,-0.022 -0.037,-0.022 -0.023,0 -0.037,0.026 -0.014,0.022 -0.025,0.059 -0.034,0.116 -0.096,0.302 l -0.127,0.387 q 0.076,-0.003 0.152,-0.003 0.077,-0.003 0.15,-0.003 z m 1.876,-0.951 q -0.08,0.006 -0.17,0.008 l -0.194,0.006 0.005,0.144 0.006,0.133 q 0.003,0.067 0.003,0.14 0.002,0.074 0.002,0.164 v 0.246 l -0.002,0.234 -0.006,0.234 q -0.003,0.119 -0.009,0.246 -0.002,0.068 -0.014,0.104 -0.008,0.037 -0.025,0.057 -0.017,0.02 -0.04,0.022 -0.022,0.006 -0.05,0.006 -0.051,0 -0.088,-0.034 -0.034,-0.037 -0.04,-0.152 -0.005,-0.102 -0.008,-0.215 0,-0.113 -0.003,-0.242 -0.002,-0.13 -0.002,-0.28 v -0.336 -0.27 q 0.002,-0.116 0.008,-0.201 h -0.116 q -0.118,0 -0.203,-0.003 -0.082,-0.003 -0.135,-0.014 -0.054,-0.014 -0.08,-0.042 -0.022,-0.028 -0.022,-0.08 0,-0.025 0.006,-0.044 0.005,-0.023 0.025,-0.04 0.02,-0.02 0.054,-0.031 0.036,-0.011 0.093,-0.017 l 0.096,-0.005 0.084,-0.006 q 0.043,-0.003 0.088,-0.003 h 0.104 q 0.167,0 0.314,0.003 0.15,0.003 0.316,0.011 0.067,0.006 0.104,0.017 0.037,0.009 0.057,0.026 0.02,0.016 0.022,0.039 0.006,0.023 0.006,0.05 0,0.052 -0.037,0.086 -0.034,0.033 -0.15,0.039 z m 0.482,1.54 q -0.006,-0.1 -0.009,-0.21 l -0.002,-0.238 q -0.003,-0.127 -0.003,-0.274 v -0.333 q 0,-0.2 0.003,-0.341 0.002,-0.144 0.017,-0.234 0.014,-0.09 0.042,-0.133 0.031,-0.042 0.082,-0.042 0.025,0 0.048,0.005 0.022,0.006 0.04,0.026 0.016,0.017 0.027,0.053 0.015,0.034 0.017,0.09 l 0.009,0.181 0.006,0.158 q 0.002,0.076 0.002,0.161 v 0.429 q 0,0.116 -0.002,0.229 l -0.006,0.228 q -0.003,0.116 -0.009,0.243 -0.002,0.068 -0.014,0.104 -0.011,0.037 -0.028,0.057 -0.017,0.02 -0.04,0.022 -0.022,0.006 -0.05,0.006 -0.051,0 -0.088,-0.034 -0.036,-0.036 -0.042,-0.152 z m 1.403,0.204 q -0.17,0 -0.319,-0.068 -0.147,-0.067 -0.257,-0.194 -0.11,-0.13 -0.175,-0.316 -0.062,-0.187 -0.062,-0.424 0,-0.223 0.054,-0.409 0.056,-0.186 0.164,-0.322 0.11,-0.135 0.27,-0.209 0.161,-0.076 0.373,-0.076 0.172,0 0.327,0.062 0.156,0.062 0.271,0.187 0.119,0.124 0.187,0.31 0.067,0.186 0.067,0.435 0,0.206 -0.056,0.392 -0.054,0.186 -0.167,0.327 -0.11,0.139 -0.28,0.223 -0.168,0.082 -0.397,0.082 z m 0.006,-0.265 q 0.155,0 0.27,-0.062 0.116,-0.065 0.192,-0.17 0.077,-0.104 0.113,-0.24 0.037,-0.138 0.037,-0.282 0,-0.175 -0.048,-0.31 -0.045,-0.138 -0.124,-0.232 -0.08,-0.093 -0.184,-0.14 -0.104,-0.052 -0.223,-0.052 -0.14,0 -0.248,0.06 -0.104,0.059 -0.178,0.16 -0.07,0.102 -0.107,0.24 -0.037,0.136 -0.037,0.291 0,0.167 0.043,0.305 0.042,0.135 0.113,0.231 0.073,0.096 0.172,0.15 0.099,0.05 0.209,0.05 z"
     font-weight="400"
     font-size="2.822"
     letter-spacing="0"
     word-spacing="0"
     id="path68"
     inkscape:connector-curvature="0" />
  <g
     style="line-height:1.25"
     id="g72"
     transform="translate(0,1.0583467)">
    <path
       d="m 26.867,47.379 q -0.13,-0.285 -0.23,-0.55 -0.1,-0.268 -0.17,-0.477 -0.066,0.35 -0.11,0.705 -0.043,0.356 -0.11,0.68 -0.018,0.074 -0.063,0.1 -0.045,0.022 -0.076,0.022 -0.05,0 -0.082,-0.031 -0.028,-0.031 -0.028,-0.08 0,-0.064 0.014,-0.197 l 0.04,-0.305 q 0.025,-0.17 0.056,-0.355 0.031,-0.186 0.062,-0.36 l 0.062,-0.315 q 0.031,-0.14 0.054,-0.217 0.036,-0.13 0.15,-0.13 0.067,0 0.115,0.068 0.048,0.065 0.102,0.203 0.056,0.136 0.132,0.344 0.08,0.21 0.203,0.492 0.122,-0.283 0.195,-0.49 l 0.127,-0.343 q 0.054,-0.138 0.102,-0.203 0.048,-0.068 0.118,-0.068 0.065,0 0.1,0.034 0.033,0.03 0.05,0.096 0.02,0.079 0.048,0.22 0.028,0.138 0.06,0.31 0.033,0.17 0.064,0.356 0.031,0.186 0.057,0.356 0.025,0.169 0.04,0.307 0.016,0.136 0.016,0.21 0,0.044 -0.03,0.073 -0.032,0.025 -0.08,0.025 -0.03,0 -0.076,-0.023 -0.045,-0.025 -0.062,-0.098 -0.034,-0.161 -0.062,-0.333 l -0.05,-0.348 -0.046,-0.352 q -0.023,-0.178 -0.048,-0.353 -0.037,0.113 -0.085,0.248 -0.048,0.136 -0.102,0.274 -0.053,0.135 -0.11,0.268 -0.056,0.133 -0.11,0.24 -0.02,0.037 -0.053,0.056 -0.03,0.017 -0.065,0.017 -0.037,0 -0.07,-0.017 -0.032,-0.02 -0.049,-0.06 z m 2.051,0.508 q -0.17,0 -0.32,-0.068 -0.146,-0.067 -0.256,-0.194 -0.11,-0.13 -0.175,-0.316 -0.062,-0.187 -0.062,-0.424 0,-0.223 0.053,-0.41 0.057,-0.185 0.164,-0.321 0.11,-0.135 0.271,-0.21 0.16,-0.075 0.373,-0.075 0.172,0 0.327,0.062 0.155,0.062 0.27,0.187 0.12,0.124 0.187,0.31 0.068,0.186 0.068,0.435 0,0.206 -0.057,0.392 -0.053,0.186 -0.166,0.327 -0.11,0.139 -0.28,0.223 -0.169,0.082 -0.397,0.082 z m 0.005,-0.265 q 0.155,0 0.271,-0.062 0.116,-0.065 0.192,-0.17 0.076,-0.104 0.113,-0.24 0.037,-0.138 0.037,-0.282 0,-0.175 -0.048,-0.31 -0.045,-0.138 -0.125,-0.232 -0.079,-0.093 -0.183,-0.14 -0.104,-0.052 -0.223,-0.052 -0.14,0 -0.248,0.06 -0.105,0.059 -0.178,0.16 -0.07,0.102 -0.107,0.24 -0.037,0.136 -0.037,0.29 0,0.168 0.042,0.306 0.043,0.135 0.113,0.23 0.074,0.097 0.172,0.15 0.1,0.05 0.21,0.05 z m 1.757,-1.758 q 0.29,0 0.466,0.087 0.175,0.088 0.268,0.23 0.093,0.145 0.121,0.329 0.031,0.183 0.031,0.372 0,0.206 -0.053,0.39 -0.05,0.183 -0.16,0.322 -0.108,0.135 -0.278,0.217 -0.17,0.079 -0.403,0.079 -0.187,0 -0.3,-0.028 -0.11,-0.026 -0.172,-0.08 -0.059,-0.053 -0.079,-0.135 -0.02,-0.082 -0.02,-0.192 v -1.06 q 0,-0.122 0.02,-0.221 0.023,-0.1 0.085,-0.167 0.062,-0.07 0.175,-0.107 0.116,-0.036 0.3,-0.036 z m 0.011,1.744 q 0.175,0 0.288,-0.062 0.116,-0.065 0.184,-0.17 0.067,-0.104 0.093,-0.237 0.028,-0.132 0.028,-0.27 0,-0.128 -0.02,-0.255 -0.02,-0.13 -0.082,-0.234 -0.062,-0.104 -0.177,-0.17 -0.116,-0.064 -0.308,-0.064 -0.175,0 -0.243,0.05 -0.067,0.05 -0.067,0.156 v 1.08 q 0,0.088 0.062,0.133 0.065,0.043 0.242,0.043 z m 1.175,-0.178 q -0.006,-0.09 -0.01,-0.246 -0.007,-0.155 -0.007,-0.32 v -0.19 l 0.006,-0.206 q 0.005,-0.21 0.025,-0.328 0.023,-0.118 0.085,-0.178 0.065,-0.06 0.18,-0.073 0.116,-0.014 0.308,-0.014 h 0.06 q 0.058,0 0.14,0.003 l 0.17,0.002 0.15,0.006 q 0.061,0.006 0.098,0.017 0.04,0.008 0.06,0.025 0.02,0.014 0.025,0.037 0.005,0.02 0.005,0.045 0,0.065 -0.036,0.096 -0.037,0.028 -0.15,0.037 -0.057,0.005 -0.167,0.008 h -0.22 q -0.113,0 -0.203,0.003 h -0.113 q -0.073,0.003 -0.104,0.034 -0.028,0.028 -0.028,0.138 l 0.002,0.125 q 0.006,0.095 0.006,0.27 h 0.234 q 0.15,0 0.243,0.006 0.096,0.003 0.147,0.017 0.053,0.014 0.073,0.045 0.02,0.03 0.02,0.082 0,0.025 -0.006,0.048 -0.003,0.02 -0.022,0.037 -0.02,0.014 -0.057,0.025 -0.037,0.009 -0.104,0.014 -0.082,0.006 -0.155,0.009 h -0.379 v 0.344 l 0.006,0.096 q 0.003,0.045 0.011,0.076 0.012,0.03 0.037,0.05 0.028,0.02 0.08,0.03 0.053,0.008 0.14,0.008 h 0.607 q 0.1,0 0.124,0.036 0.025,0.037 0.025,0.1 0,0.05 -0.022,0.078 -0.023,0.026 -0.11,0.037 -0.085,0.014 -0.257,0.017 -0.17,0.003 -0.469,0.003 -0.127,0 -0.208,-0.023 -0.082,-0.023 -0.133,-0.076 -0.05,-0.054 -0.076,-0.14 -0.023,-0.086 -0.03,-0.21 z"
       style="font-weight:400;font-size:2.82200003px;font-family:Sniglet;-inkscape-font-specification:'Sniglet, Normal';font-variant-ligatures:normal;font-variant-caps:normal;font-variant-numeric:normal;font-feature-settings:normal;text-align:start;letter-spacing:0;word-spacing:0"
       aria-label="MODE"
       font-weight="400"
       font-size="2.822"
       letter-spacing="0"
       word-spacing="0"
       id="path70"
       inkscape:connector-curvature="0" />
  </g>
  <g
     style="line-height:1.25"
     id="g76"
     transform="translate(0,1.0583467)">
    <path
       word-spacing="0"
       letter-spacing="0"
       font-weight="400"
       aria-label="+"
       font-size="2.822"
       style="font-weight:400;font-size:2.82200003px;font-family:Sniglet;-inkscape-font-specification:'Sniglet, Normal';font-variant-ligatures:normal;font-variant-caps:normal;font-variant-numeric:normal;font-feature-settings:normal;text-align:start;letter-spacing:0;word-spacing:0"
       d="m 35.041,46.968 q -0.065,0.006 -0.138,0.008 -0.07,0 -0.155,0.003 v 0.127 q 0,0.095 -0.003,0.163 -0.003,0.068 -0.017,0.11 -0.01,0.043 -0.04,0.062 -0.028,0.02 -0.078,0.02 -0.026,0 -0.048,-0.006 -0.02,-0.006 -0.037,-0.025 -0.017,-0.02 -0.03,-0.054 -0.012,-0.037 -0.018,-0.093 L 34.471,47.21 34.466,47.142 v -0.16 q -0.144,0 -0.237,-0.004 -0.09,-0.003 -0.147,-0.014 -0.054,-0.014 -0.076,-0.042 -0.02,-0.03 -0.02,-0.08 0,-0.025 0.006,-0.045 0.005,-0.022 0.025,-0.04 0.02,-0.016 0.054,-0.027 0.036,-0.014 0.093,-0.02 l 0.073,-0.006 q 0.034,-0.003 0.068,-0.003 0.034,-0.003 0.07,-0.003 h 0.09 q 0.003,-0.073 0.003,-0.144 0.003,-0.073 0.01,-0.147 0.002,-0.067 0.013,-0.104 0.011,-0.037 0.028,-0.057 0.017,-0.02 0.04,-0.022 0.022,-0.006 0.05,-0.006 0.051,0 0.085,0.036 0.034,0.034 0.04,0.15 l 0.005,0.138 0.006,0.158 q 0.141,0 0.293,0.008 0.068,0.006 0.105,0.017 0.037,0.008 0.056,0.026 0.02,0.017 0.023,0.04 0.006,0.022 0.006,0.05 0,0.05 -0.037,0.085 -0.034,0.034 -0.15,0.04 z"
       id="path74"
       inkscape:connector-curvature="0" />
  </g>
  <g
     style="line-height:1.25"
     id="g80"
     transform="translate(0,1.0583467)">
    <path
       word-spacing="0"
       letter-spacing="0"
       font-weight="400"
       aria-label="-"
       font-size="2.822"
       style="font-weight:400;font-size:2.82200003px;font-family:Sniglet;-inkscape-font-specification:'Sniglet, Normal';font-variant-ligatures:normal;font-variant-caps:normal;font-variant-numeric:normal;font-feature-settings:normal;text-align:start;letter-spacing:0;word-spacing:0"
       d="m 24.904,46.98 q -0.13,0.006 -0.3,0.01 -0.168,0.004 -0.4,0.004 -0.095,0 -0.163,-0.003 -0.068,-0.003 -0.11,-0.014 -0.042,-0.014 -0.062,-0.042 -0.02,-0.03 -0.02,-0.08 0,-0.025 0.006,-0.045 0.005,-0.022 0.025,-0.04 0.02,-0.016 0.054,-0.027 0.036,-0.014 0.093,-0.02 L 24.1,46.717 q 0.034,-0.003 0.065,-0.003 0.03,-0.003 0.065,-0.003 h 0.085 q 0.152,0 0.293,0.003 0.14,0 0.294,0.008 0.068,0.006 0.104,0.017 0.037,0.008 0.057,0.025 0.02,0.017 0.022,0.04 0.006,0.022 0.006,0.05 0,0.05 -0.037,0.085 -0.034,0.034 -0.15,0.04 z"
       id="path78"
       inkscape:connector-curvature="0" />
  </g>
  <g
     style="line-height:1.25"
     id="g84"
     transform="translate(0,1.0583467)">
    <path
       word-spacing="0"
       letter-spacing="0"
       font-weight="400"
       aria-label="+"
       font-size="2.822"
       style="font-weight:400;font-size:2.82200003px;font-family:Sniglet;-inkscape-font-specification:'Sniglet, Normal';font-variant-ligatures:normal;font-variant-caps:normal;font-variant-numeric:normal;font-feature-settings:normal;text-align:start;letter-spacing:0;word-spacing:0"
       d="m 16.798,46.968 q -0.065,0.006 -0.138,0.008 -0.07,0 -0.155,0.003 v 0.127 q 0,0.095 -0.003,0.163 -0.003,0.068 -0.017,0.11 -0.01,0.043 -0.04,0.062 -0.028,0.02 -0.078,0.02 -0.026,0 -0.048,-0.006 -0.02,-0.006 -0.037,-0.025 -0.017,-0.02 -0.03,-0.054 -0.012,-0.037 -0.018,-0.093 L 16.228,47.21 16.223,47.142 v -0.16 q -0.144,0 -0.237,-0.004 -0.09,-0.003 -0.147,-0.014 -0.054,-0.014 -0.076,-0.042 -0.02,-0.03 -0.02,-0.08 0,-0.025 0.006,-0.045 0.005,-0.022 0.025,-0.04 0.02,-0.016 0.054,-0.027 0.036,-0.014 0.093,-0.02 l 0.073,-0.006 q 0.034,-0.003 0.068,-0.003 0.034,-0.003 0.07,-0.003 h 0.09 q 0.003,-0.073 0.003,-0.144 0.003,-0.073 0.01,-0.147 0.002,-0.067 0.013,-0.104 0.011,-0.037 0.028,-0.057 0.017,-0.02 0.04,-0.022 0.022,-0.006 0.05,-0.006 0.051,0 0.085,0.036 0.034,0.034 0.04,0.15 l 0.005,0.138 0.006,0.158 q 0.141,0 0.293,0.008 0.068,0.006 0.105,0.017 0.037,0.008 0.056,0.026 0.02,0.017 0.023,0.04 0.006,0.022 0.006,0.05 0,0.05 -0.037,0.085 -0.034,0.034 -0.15,0.04 z"
       id="path82"
       inkscape:connector-curvature="0" />
  </g>
  <g
     style="line-height:1.25"
     id="g88"
     transform="translate(0,1.0583467)">
    <path
       word-spacing="0"
       letter-spacing="0"
       font-weight="400"
       aria-label="-"
       font-size="2.822"
       style="font-weight:400;font-size:2.82200003px;font-family:Sniglet;-inkscape-font-specification:'Sniglet, Normal';font-variant-ligatures:normal;font-variant-caps:normal;font-variant-numeric:normal;font-feature-settings:normal;text-align:start;letter-spacing:0;word-spacing:0"
       d="m 4.11,46.98 q -0.13,0.006 -0.3,0.01 -0.167,0.004 -0.4,0.004 -0.094,0 -0.162,-0.003 -0.068,-0.003 -0.11,-0.014 -0.042,-0.014 -0.062,-0.042 -0.02,-0.03 -0.02,-0.08 0,-0.025 0.006,-0.045 0.005,-0.022 0.025,-0.04 0.02,-0.016 0.054,-0.027 0.036,-0.014 0.093,-0.02 l 0.073,-0.006 q 0.034,-0.003 0.065,-0.003 0.03,-0.003 0.065,-0.003 h 0.085 q 0.152,0 0.293,0.003 0.14,0 0.294,0.008 0.068,0.006 0.104,0.017 0.037,0.008 0.057,0.025 0.02,0.017 0.022,0.04 0.006,0.022 0.006,0.05 0,0.05 -0.037,0.085 -0.034,0.034 -0.15,0.04 z"
       id="path86"
       inkscape:connector-curvature="0" />
  </g>
</svg>
