<?xml version="1.0" encoding="UTF-8" standalone="no"?>
<svg
   xmlns:dc="http://purl.org/dc/elements/1.1/"
   xmlns:cc="http://creativecommons.org/ns#"
   xmlns:rdf="http://www.w3.org/1999/02/22-rdf-syntax-ns#"
   xmlns:svg="http://www.w3.org/2000/svg"
   xmlns="http://www.w3.org/2000/svg"
   xmlns:sodipodi="http://sodipodi.sourceforge.net/DTD/sodipodi-0.dtd"
   xmlns:inkscape="http://www.inkscape.org/namespaces/inkscape"
   width="150"
   height="380"
   viewBox="0 0 39.6875 100.542"
   version="1.1"
   id="svg154"
   sodipodi:docname="Clkd.svg"
   inkscape:version="0.92.2 (5c3e80d, 2017-08-06)">
  <metadata
     id="metadata160">
    <rdf:RDF>
      <cc:Work
         rdf:about="">
        <dc:format>image/svg+xml</dc:format>
        <dc:type
           rdf:resource="http://purl.org/dc/dcmitype/StillImage" />
        <dc:title />
      </cc:Work>
    </rdf:RDF>
  </metadata>
  <defs
     id="defs158" />
  <sodipodi:namedview
     pagecolor="#ffffff"
     bordercolor="#666666"
     borderopacity="1"
     objecttolerance="10"
     gridtolerance="10"
     guidetolerance="10"
     inkscape:pageopacity="0"
     inkscape:pageshadow="2"
     inkscape:window-width="1366"
     inkscape:window-height="705"
     id="namedview156"
     showgrid="false"
     showguides="true"
     inkscape:guide-bbox="true"
     inkscape:zoom="3.0033729"
     inkscape:cx="114.08782"
     inkscape:cy="186.27602"
     inkscape:window-x="1912"
     inkscape:window-y="300"
     inkscape:window-maximized="1"
     inkscape:current-layer="svg154">
    <sodipodi:guide
       position="19.84375,76.745051"
       orientation="1,0"
       id="guide975"
       inkscape:locked="false"
       inkscape:label=""
       inkscape:color="rgb(0,0,255)" />
    <sodipodi:guide
       position="7.9375,79.112187"
       orientation="1,0"
       id="guide977"
       inkscape:locked="false"
       inkscape:label=""
       inkscape:color="rgb(0,0,255)" />
    <sodipodi:guide
       position="31.75,61.545544"
       orientation="1,0"
       id="guide979"
       inkscape:locked="false"
       inkscape:label=""
       inkscape:color="rgb(0,0,255)" />
    <sodipodi:guide
       position="37.616735,31.27397"
       orientation="1,0"
       id="guide872"
       inkscape:locked="false" />
  </sodipodi:namedview>
  <path
     d="M 0,0 H 39.687632 V 100.541 H 0 Z m 0,0"
     id="path2"
     inkscape:connector-curvature="0"
     style="fill:#dcdcdc;stroke-width:1" />
  <rect
     rx="2.3399999"
     ry="2.3399999"
     y="66.414383"
     x="1.8868315"
     height="25.522612"
     width="35.924999"
     id="rect4"
     style="fill:#999999;stroke-width:1;paint-order:stroke markers fill" />
  <rect
     rx="2.3400002"
     ry="2.3399999"
     y="30.222702"
     x="25.924673"
     height="12.939"
     width="11.692122"
     id="rect6"
     style="fill:#999999;stroke-width:0.99999994;paint-order:stroke markers fill" />
  <g
     style="line-height:1.25"
     id="g10"
     transform="translate(-19.828396)">
    <path
       word-spacing="0"
       letter-spacing="0"
       font-weight="400"
       aria-label="♫"
       font-size="3.528"
       style="font-weight:400;font-size:3.52800012px;font-family:Arial;-inkscape-font-specification:'Arial, Normal';font-variant-ligatures:normal;font-variant-caps:normal;font-variant-numeric:normal;font-feature-settings:normal;text-align:start;letter-spacing:0;word-spacing:0;fill:#333333"
       d="m 48.15,96.87 -1.63,0.115 v -2.06 q 0,-0.23 0.065,-0.333 0.064,-0.104 0.22,-0.147 0.153,-0.043 0.348,-0.002 0.223,0.047 0.356,0.19 0.133,0.146 0.133,0.33 0,0.186 -0.157,0.286 -0.158,0.103 -0.408,0.05 -0.082,-0.018 -0.143,-0.044 -0.064,-0.027 -0.205,-0.11 v 1.345 l 1.219,-0.085 v -1.554 q 0,-0.225 0.065,-0.337 0.066,-0.11 0.226,-0.151 0.16,-0.04 0.348,0 0.223,0.047 0.354,0.19 0.13,0.14 0.13,0.325 0,0.195 -0.156,0.294 -0.156,0.1 -0.408,0.047 -0.16,-0.034 -0.357,-0.16 z"
       id="path8"
       inkscape:connector-curvature="0" />
  </g>
  <g
     style="line-height:1.25"
     id="g14"
     transform="translate(-19.828396)">
    <path
       d="m 30.132,96.698 q -0.007,-0.127 -0.01,-0.265 0,-0.137 -0.004,-0.296 -0.003,-0.159 -0.003,-0.342 v -0.417 q 0,-0.25 0.003,-0.426 0.004,-0.18 0.021,-0.293 0.018,-0.113 0.053,-0.166 0.039,-0.053 0.102,-0.053 0.032,0 0.06,0.007 0.029,0.007 0.05,0.032 0.02,0.02 0.035,0.067 0.018,0.042 0.021,0.113 0.007,0.127 0.01,0.225 l 0.008,0.198 q 0.003,0.095 0.003,0.201 v 0.536 q 0,0.145 -0.003,0.286 l -0.007,0.286 -0.01,0.303 q -0.004,0.085 -0.018,0.13 -0.015,0.047 -0.036,0.071 -0.02,0.025 -0.05,0.028 -0.027,0.007 -0.063,0.007 -0.063,0 -0.109,-0.042 -0.046,-0.046 -0.053,-0.19 z m 1.754,-0.381 q -0.162,-0.357 -0.29,-0.688 -0.123,-0.335 -0.211,-0.596 -0.081,0.437 -0.138,0.882 -0.053,0.444 -0.137,0.85 -0.021,0.092 -0.078,0.123 -0.056,0.028 -0.095,0.028 -0.064,0 -0.102,-0.038 -0.036,-0.04 -0.036,-0.1 0,-0.08 0.018,-0.246 0.021,-0.17 0.05,-0.381 0.031,-0.212 0.07,-0.445 0.039,-0.232 0.078,-0.448 l 0.077,-0.395 q 0.039,-0.176 0.067,-0.271 0.046,-0.163 0.187,-0.163 0.085,0 0.145,0.085 0.06,0.081 0.127,0.254 0.07,0.17 0.166,0.43 0.098,0.262 0.254,0.614 0.151,-0.352 0.243,-0.61 0.095,-0.261 0.159,-0.43 0.067,-0.173 0.127,-0.254 0.06,-0.085 0.148,-0.085 0.081,0 0.123,0.042 0.043,0.039 0.064,0.12 0.025,0.099 0.06,0.275 0.035,0.173 0.074,0.388 0.042,0.212 0.081,0.445 0.039,0.233 0.07,0.444 0.032,0.212 0.05,0.385 0.021,0.17 0.021,0.261 0,0.056 -0.039,0.092 -0.038,0.031 -0.098,0.031 -0.04,0 -0.096,-0.028 -0.056,-0.032 -0.077,-0.123 -0.043,-0.201 -0.078,-0.417 L 32.807,95.915 32.75,95.474 q -0.028,-0.223 -0.06,-0.441 -0.046,0.14 -0.106,0.31 -0.06,0.17 -0.127,0.342 -0.067,0.17 -0.137,0.335 -0.07,0.166 -0.138,0.3 -0.024,0.046 -0.067,0.07 -0.039,0.022 -0.08,0.022 -0.047,0 -0.09,-0.021 -0.038,-0.025 -0.06,-0.074 z m 2.005,0.377 q 0,0.085 -0.018,0.13 -0.014,0.047 -0.039,0.071 -0.02,0.025 -0.053,0.029 -0.028,0.007 -0.056,0.007 -0.095,0 -0.127,-0.043 -0.028,-0.042 -0.039,-0.19 -0.007,-0.078 -0.01,-0.226 -0.004,-0.148 -0.007,-0.353 0,-0.204 -0.004,-0.451 v -0.522 q 0,-0.131 0.032,-0.265 0.032,-0.134 0.12,-0.243 0.091,-0.11 0.25,-0.177 0.162,-0.067 0.42,-0.067 0.18,0 0.342,0.039 0.162,0.039 0.286,0.134 0.123,0.095 0.198,0.254 0.074,0.159 0.074,0.395 0,0.247 -0.082,0.41 -0.08,0.162 -0.229,0.257 -0.148,0.095 -0.353,0.134 -0.204,0.039 -0.448,0.039 h -0.12 q -0.06,0 -0.134,-0.007 z m 1.016,-1.485 q 0,-0.236 -0.134,-0.356 -0.13,-0.12 -0.438,-0.12 -0.116,0 -0.2,0.021 -0.082,0.018 -0.135,0.067 -0.053,0.046 -0.08,0.127 -0.026,0.081 -0.026,0.205 v 0.275 q 0,0.151 0.004,0.286 0.081,0.004 0.18,0.004 h 0.19 q 0.106,0 0.219,-0.015 0.116,-0.014 0.208,-0.063 0.092,-0.053 0.152,-0.152 0.06,-0.102 0.06,-0.278 z m 1.451,0.84 -0.102,0.007 h -0.223 q -0.06,0 -0.134,-0.007 v 0.716 q 0,0.113 -0.056,0.14 -0.053,0.026 -0.134,0.026 -0.042,0 -0.067,-0.007 -0.025,-0.004 -0.042,-0.018 -0.015,-0.018 -0.025,-0.05 -0.007,-0.031 -0.01,-0.088 -0.008,-0.063 -0.011,-0.183 -0.004,-0.123 -0.007,-0.318 0,-0.194 -0.004,-0.469 v -0.652 q 0,-0.145 0.035,-0.279 0.036,-0.138 0.127,-0.24 0.092,-0.106 0.247,-0.17 0.16,-0.063 0.402,-0.063 0.173,0 0.336,0.039 0.165,0.039 0.292,0.134 0.127,0.095 0.205,0.258 0.078,0.162 0.078,0.405 0,0.325 -0.141,0.505 -0.138,0.176 -0.381,0.25 l 0.472,0.65 q 0.064,0.084 0.064,0.172 0,0.07 -0.05,0.11 -0.046,0.042 -0.116,0.042 -0.078,0 -0.134,-0.042 -0.057,-0.046 -0.106,-0.117 z m 0.554,-0.822 q 0,-0.244 -0.148,-0.36 -0.145,-0.12 -0.462,-0.12 -0.117,0 -0.194,0.021 -0.078,0.018 -0.124,0.07 -0.046,0.054 -0.067,0.149 -0.018,0.091 -0.018,0.236 v 0.24 q 0,0.138 0.004,0.25 0.081,0.005 0.18,0.005 h 0.19 q 0.1,0 0.208,-0.011 0.113,-0.014 0.209,-0.064 0.095,-0.052 0.158,-0.148 0.064,-0.099 0.064,-0.268 z m 1.609,1.725 q -0.212,0 -0.398,-0.085 -0.184,-0.085 -0.322,-0.243 -0.137,-0.163 -0.218,-0.395 -0.078,-0.233 -0.078,-0.53 0,-0.278 0.067,-0.511 0.07,-0.233 0.205,-0.402 0.137,-0.17 0.338,-0.261 0.202,-0.096 0.466,-0.096 0.215,0 0.41,0.078 0.193,0.078 0.338,0.233 0.148,0.155 0.233,0.388 0.085,0.233 0.085,0.543 0,0.258 -0.071,0.49 -0.067,0.233 -0.208,0.41 -0.138,0.173 -0.35,0.278 -0.211,0.103 -0.497,0.103 z m 0.007,-0.332 q 0.194,0 0.339,-0.077 0.145,-0.082 0.24,-0.212 0.095,-0.13 0.14,-0.3 0.047,-0.173 0.047,-0.353 0,-0.218 -0.06,-0.388 -0.057,-0.173 -0.155,-0.29 -0.1,-0.115 -0.23,-0.175 -0.13,-0.064 -0.278,-0.064 -0.177,0 -0.31,0.074 -0.131,0.074 -0.223,0.201 -0.088,0.127 -0.134,0.3 -0.046,0.17 -0.046,0.363 0,0.209 0.053,0.381 0.053,0.17 0.141,0.29 0.092,0.12 0.215,0.187 0.124,0.063 0.261,0.063 z m 2.384,-0.303 q -0.162,-0.357 -0.29,-0.688 -0.123,-0.335 -0.21,-0.596 -0.082,0.437 -0.138,0.882 -0.053,0.444 -0.138,0.85 -0.021,0.092 -0.078,0.123 -0.056,0.028 -0.095,0.028 -0.063,0 -0.102,-0.038 -0.036,-0.04 -0.036,-0.1 0,-0.08 0.018,-0.246 0.021,-0.17 0.05,-0.381 0.031,-0.212 0.07,-0.445 0.039,-0.232 0.078,-0.448 l 0.077,-0.395 q 0.04,-0.176 0.067,-0.271 0.046,-0.163 0.187,-0.163 0.085,0 0.145,0.085 0.06,0.081 0.127,0.254 0.07,0.17 0.166,0.43 0.099,0.262 0.254,0.614 0.151,-0.352 0.243,-0.61 0.095,-0.261 0.159,-0.43 0.067,-0.173 0.127,-0.254 0.06,-0.085 0.148,-0.085 0.081,0 0.124,0.042 0.042,0.039 0.063,0.12 0.025,0.099 0.06,0.275 0.035,0.173 0.074,0.388 0.042,0.212 0.081,0.445 0.039,0.233 0.07,0.444 0.033,0.212 0.05,0.385 0.021,0.17 0.021,0.261 0,0.056 -0.038,0.092 -0.04,0.031 -0.1,0.031 -0.038,0 -0.094,-0.028 -0.057,-0.032 -0.078,-0.123 -0.042,-0.201 -0.078,-0.417 l -0.063,-0.433 -0.057,-0.441 q -0.028,-0.223 -0.06,-0.441 -0.045,0.14 -0.105,0.31 -0.06,0.17 -0.127,0.342 -0.067,0.17 -0.138,0.335 -0.07,0.166 -0.138,0.3 -0.024,0.046 -0.067,0.07 -0.038,0.022 -0.08,0.022 -0.047,0 -0.089,-0.021 -0.039,-0.025 -0.06,-0.074 z m 2.005,0.377 q 0,0.085 -0.018,0.13 -0.014,0.047 -0.038,0.071 -0.022,0.025 -0.053,0.029 -0.029,0.007 -0.057,0.007 -0.095,0 -0.127,-0.043 -0.028,-0.042 -0.039,-0.19 -0.007,-0.078 -0.01,-0.226 -0.004,-0.148 -0.007,-0.353 0,-0.204 -0.004,-0.451 v -0.522 q 0,-0.131 0.032,-0.265 0.032,-0.134 0.12,-0.243 0.092,-0.11 0.25,-0.177 0.163,-0.067 0.42,-0.067 0.18,0 0.342,0.039 0.163,0.039 0.286,0.134 0.124,0.095 0.198,0.254 0.074,0.159 0.074,0.395 0,0.247 -0.081,0.41 -0.082,0.162 -0.23,0.257 -0.148,0.095 -0.352,0.134 -0.205,0.039 -0.449,0.039 h -0.12 q -0.06,0 -0.134,-0.007 z m 1.016,-1.485 q 0,-0.236 -0.134,-0.356 -0.13,-0.12 -0.438,-0.12 -0.116,0 -0.2,0.021 -0.082,0.018 -0.135,0.067 -0.053,0.046 -0.08,0.127 -0.025,0.081 -0.025,0.205 v 0.275 q 0,0.151 0.003,0.286 0.081,0.004 0.18,0.004 h 0.19 q 0.106,0 0.22,-0.015 0.116,-0.014 0.207,-0.063 0.092,-0.053 0.152,-0.152 0.06,-0.102 0.06,-0.278 z m 1.974,-0.437 q -0.099,0.007 -0.212,0.01 l -0.243,0.007 0.007,0.18 0.007,0.166 q 0.004,0.085 0.004,0.176 0.003,0.092 0.003,0.205 v 0.307 q 0,0.144 -0.003,0.293 l -0.007,0.292 q -0.004,0.149 -0.011,0.307 -0.003,0.085 -0.018,0.13 -0.01,0.047 -0.031,0.072 -0.022,0.024 -0.05,0.028 -0.028,0.007 -0.063,0.007 -0.064,0 -0.11,-0.043 -0.042,-0.045 -0.049,-0.19 -0.007,-0.127 -0.01,-0.268 0,-0.141 -0.004,-0.304 -0.004,-0.162 -0.004,-0.349 V 95.04 q 0.004,-0.145 0.011,-0.25 h -0.145 q -0.148,0 -0.254,-0.005 -0.102,-0.004 -0.169,-0.017 -0.067,-0.018 -0.099,-0.053 -0.028,-0.036 -0.028,-0.1 0,-0.03 0.007,-0.055 0.007,-0.029 0.032,-0.05 0.025,-0.025 0.067,-0.039 0.046,-0.014 0.116,-0.02 l 0.12,-0.008 0.106,-0.007 q 0.053,-0.004 0.11,-0.004 h 0.13 q 0.208,0 0.392,0.004 0.186,0.004 0.395,0.014 0.084,0.007 0.13,0.021 0.046,0.011 0.07,0.032 0.025,0.021 0.029,0.05 0.007,0.028 0.007,0.063 0,0.064 -0.046,0.106 -0.042,0.042 -0.187,0.05 z"
       style="font-weight:400;font-size:3.52800012px;font-family:Sniglet;-inkscape-font-specification:'Sniglet, Normal';font-variant-ligatures:normal;font-variant-caps:normal;font-variant-numeric:normal;font-feature-settings:normal;text-align:start;letter-spacing:0;word-spacing:0;fill:#333333"
       word-spacing="0"
       letter-spacing="0"
       font-size="3.528"
       font-weight="400"
       aria-label="IMPROMPT"
       id="path12"
       inkscape:connector-curvature="0" />
  </g>
  <g
     style="line-height:1.25"
     id="g24"
     transform="translate(-0.24917224,-1.0583368)">
    <path
       style="font-weight:400;font-size:2.82200003px;font-family:Sniglet;-inkscape-font-specification:'Sniglet, Normal';font-variant-ligatures:normal;font-variant-caps:normal;font-variant-numeric:normal;font-feature-settings:normal;text-align:start;letter-spacing:0;word-spacing:0"
       d="M 5.051,11.261 4.969,11.267 H 4.791 q -0.048,0 -0.107,-0.006 v 0.573 q 0,0.09 -0.045,0.113 -0.042,0.02 -0.107,0.02 -0.034,0 -0.054,-0.006 Q 4.458,11.958 4.444,11.947 4.433,11.933 4.424,11.907 4.419,11.882 4.416,11.837 4.41,11.786 4.408,11.69 L 4.402,11.436 q 0,-0.155 -0.003,-0.375 v -0.522 q 0,-0.116 0.028,-0.223 0.029,-0.11 0.102,-0.192 0.073,-0.085 0.198,-0.136 0.127,-0.05 0.321,-0.05 0.139,0 0.268,0.03 0.133,0.031 0.235,0.108 0.101,0.076 0.163,0.206 0.062,0.13 0.062,0.324 0,0.26 -0.113,0.404 -0.11,0.14 -0.304,0.2 l 0.378,0.52 q 0.05,0.067 0.05,0.138 0,0.056 -0.039,0.087 -0.037,0.034 -0.093,0.034 -0.062,0 -0.107,-0.034 -0.045,-0.036 -0.085,-0.093 z m 0.443,-0.657 q 0,-0.195 -0.118,-0.288 -0.116,-0.096 -0.37,-0.096 -0.093,0 -0.155,0.017 -0.062,0.014 -0.1,0.056 -0.036,0.042 -0.053,0.119 -0.014,0.073 -0.014,0.189 v 0.192 q 0,0.11 0.003,0.2 0.065,0.003 0.144,0.003 h 0.152 q 0.08,0 0.167,-0.008 0.09,-0.011 0.166,-0.05 0.077,-0.043 0.127,-0.12 0.051,-0.078 0.051,-0.214 z M 6.042,11.527 6.031,11.281 Q 6.025,11.126 6.025,10.962 V 10.77 L 6.031,10.564 Q 6.036,10.355 6.056,10.237 6.079,10.118 6.141,10.059 6.206,9.999 6.321,9.986 6.437,9.971 6.629,9.971 h 0.06 q 0.059,0 0.14,0.003 0.082,0 0.17,0.003 l 0.15,0.006 Q 7.211,9.989 7.247,10 q 0.04,0.008 0.06,0.026 0.02,0.014 0.025,0.036 0.006,0.02 0.006,0.046 0,0.065 -0.037,0.096 -0.037,0.028 -0.15,0.036 -0.056,0.006 -0.166,0.008 h -0.22 q -0.113,0 -0.204,0.003 H 6.449 q -0.074,0.003 -0.105,0.034 -0.028,0.028 -0.028,0.138 l 0.003,0.125 q 0.005,0.096 0.005,0.27 h 0.235 q 0.15,0 0.242,0.007 0.096,0.003 0.147,0.016 0.054,0.015 0.073,0.046 0.02,0.03 0.02,0.081 0,0.026 -0.005,0.048 -0.003,0.02 -0.023,0.037 -0.02,0.014 -0.057,0.026 Q 6.92,11.087 6.852,11.093 6.77,11.099 6.697,11.101 H 6.319 v 0.344 q 0.002,0.06 0.005,0.096 0.003,0.045 0.012,0.076 0.01,0.031 0.036,0.05 0.028,0.02 0.08,0.03 0.053,0.007 0.14,0.007 h 0.607 q 0.099,0 0.124,0.037 0.026,0.036 0.026,0.099 0,0.05 -0.023,0.079 -0.022,0.025 -0.11,0.036 -0.085,0.014 -0.257,0.017 -0.17,0.003 -0.468,0.003 -0.127,0 -0.21,-0.022 Q 6.201,11.93 6.149,11.876 6.099,11.823 6.073,11.738 6.051,11.651 6.042,11.526 Z M 8.263,9.963 q 0.079,0 0.18,0.014 0.105,0.011 0.195,0.045 0.09,0.031 0.153,0.085 0.062,0.05 0.062,0.127 0,0.045 -0.026,0.076 -0.025,0.031 -0.082,0.031 -0.042,0 -0.087,-0.017 Q 8.616,10.307 8.559,10.29 8.505,10.27 8.432,10.254 8.362,10.237 8.266,10.237 q -0.187,0 -0.277,0.068 -0.087,0.064 -0.087,0.18 0,0.08 0.039,0.133 0.04,0.053 0.104,0.093 0.068,0.037 0.15,0.062 0.085,0.025 0.172,0.048 0.099,0.025 0.195,0.062 0.099,0.037 0.175,0.096 0.076,0.06 0.121,0.15 0.048,0.09 0.048,0.228 0,0.144 -0.053,0.26 -0.054,0.113 -0.147,0.195 -0.093,0.079 -0.223,0.124 -0.13,0.042 -0.282,0.042 -0.085,0 -0.198,-0.017 -0.113,-0.014 -0.214,-0.05 -0.102,-0.04 -0.173,-0.102 -0.07,-0.065 -0.07,-0.158 0,-0.057 0.028,-0.09 0.031,-0.035 0.09,-0.035 0.048,0 0.08,0.02 0.03,0.017 0.053,0.04 0.085,0.073 0.192,0.099 0.107,0.025 0.22,0.025 0.065,0 0.136,-0.008 0.073,-0.011 0.132,-0.042 0.06,-0.031 0.099,-0.088 0.04,-0.06 0.04,-0.158 0,-0.09 -0.037,-0.147 Q 8.545,11.208 8.486,11.169 8.426,11.129 8.345,11.104 8.265,11.078 8.172,11.053 8.068,11.025 7.966,10.991 q -0.101,-0.034 -0.18,-0.09 -0.08,-0.06 -0.13,-0.147 -0.048,-0.09 -0.048,-0.229 0,-0.138 0.05,-0.243 Q 7.71,10.178 7.798,10.107 7.885,10.037 8.003,10 8.124,9.963 8.263,9.963 Z m 0.971,1.564 Q 9.228,11.437 9.222,11.281 9.217,11.126 9.217,10.962 V 10.77 L 9.222,10.564 Q 9.228,10.355 9.248,10.237 9.27,10.118 9.332,10.059 9.397,9.999 9.513,9.986 9.629,9.971 9.821,9.971 H 9.88 q 0.06,0 0.141,0.003 0.082,0 0.17,0.003 l 0.149,0.006 q 0.062,0.006 0.099,0.017 0.04,0.008 0.06,0.026 0.019,0.014 0.024,0.036 0.006,0.02 0.006,0.046 0,0.065 -0.037,0.096 -0.036,0.028 -0.15,0.036 -0.056,0.006 -0.166,0.008 h -0.22 q -0.113,0 -0.203,0.003 H 9.64 q -0.073,0.003 -0.104,0.034 -0.029,0.028 -0.029,0.138 l 0.003,0.125 q 0.006,0.096 0.006,0.27 H 9.75 q 0.15,0 0.243,0.007 0.096,0.003 0.147,0.016 0.053,0.015 0.073,0.046 0.02,0.03 0.02,0.081 0,0.026 -0.006,0.048 -0.003,0.02 -0.023,0.037 -0.02,0.014 -0.056,0.026 -0.037,0.008 -0.104,0.014 -0.082,0.006 -0.156,0.008 H 9.51 v 0.344 l 0.006,0.096 q 0.003,0.045 0.011,0.076 0.011,0.031 0.037,0.05 0.028,0.02 0.079,0.03 0.053,0.007 0.14,0.007 h 0.608 q 0.098,0 0.124,0.037 0.025,0.036 0.025,0.099 0,0.05 -0.022,0.079 -0.023,0.025 -0.11,0.036 -0.085,0.014 -0.257,0.017 -0.17,0.003 -0.469,0.003 -0.127,0 -0.209,-0.022 Q 9.392,11.93 9.341,11.876 9.29,11.823 9.265,11.738 9.242,11.651 9.234,11.526 Z m 2.657,-1.287 q -0.079,0.006 -0.17,0.008 l -0.194,0.006 0.006,0.144 0.005,0.132 q 0.003,0.068 0.003,0.141 0.003,0.074 0.003,0.164 v 0.245 q 0,0.116 -0.003,0.235 l -0.006,0.234 q -0.002,0.119 -0.008,0.246 -0.003,0.067 -0.014,0.104 -0.009,0.037 -0.026,0.056 -0.017,0.02 -0.04,0.023 -0.022,0.006 -0.05,0.006 -0.05,0 -0.087,-0.034 -0.034,-0.037 -0.04,-0.152 -0.006,-0.102 -0.008,-0.215 0,-0.113 -0.003,-0.243 -0.003,-0.13 -0.003,-0.279 v -0.606 q 0.003,-0.116 0.008,-0.201 h -0.115 q -0.119,0 -0.203,-0.003 -0.082,-0.003 -0.136,-0.014 -0.054,-0.014 -0.079,-0.043 -0.022,-0.028 -0.022,-0.079 0,-0.025 0.005,-0.045 0.006,-0.022 0.026,-0.04 0.02,-0.019 0.053,-0.03 0.037,-0.012 0.093,-0.017 l 0.096,-0.006 0.085,-0.006 q 0.042,-0.003 0.087,-0.003 h 0.105 q 0.166,0 0.313,0.003 0.15,0.003 0.316,0.011 0.068,0.006 0.105,0.017 0.036,0.008 0.056,0.025 0.02,0.017 0.023,0.04 0.005,0.022 0.005,0.05 0,0.051 -0.036,0.085 -0.034,0.034 -0.15,0.04 z"
       word-spacing="0"
       letter-spacing="0"
       font-size="2.822"
       font-weight="400"
       aria-label="RESET"
       id="path22"
       inkscape:connector-curvature="0" />
  </g>
  <g
     style="line-height:1.25"
     id="g28"
     transform="translate(-0.52916842,-1.0583368)">
    <path
       style="font-weight:400;font-size:2.82200003px;font-family:Sniglet;-inkscape-font-specification:'Sniglet, Normal';font-variant-ligatures:normal;font-variant-caps:normal;font-variant-numeric:normal;font-feature-settings:normal;text-align:start;letter-spacing:0;word-spacing:0"
       d="m 18.611,11.296 -0.082,0.006 h -0.177 q -0.048,0 -0.108,-0.006 v 0.573 q 0,0.09 -0.045,0.113 -0.042,0.02 -0.107,0.02 -0.034,0 -0.054,-0.006 -0.02,-0.003 -0.034,-0.014 -0.01,-0.014 -0.02,-0.04 -0.005,-0.025 -0.008,-0.07 -0.005,-0.051 -0.008,-0.147 l -0.006,-0.254 q 0,-0.155 -0.003,-0.375 v -0.522 q 0,-0.116 0.028,-0.223 0.029,-0.11 0.102,-0.192 0.073,-0.085 0.198,-0.136 0.127,-0.05 0.321,-0.05 0.139,0 0.268,0.03 0.133,0.031 0.235,0.108 0.101,0.076 0.163,0.206 0.062,0.13 0.062,0.324 0,0.26 -0.112,0.404 -0.11,0.14 -0.305,0.2 l 0.378,0.52 q 0.05,0.067 0.05,0.138 0,0.056 -0.039,0.087 -0.036,0.034 -0.093,0.034 -0.062,0 -0.107,-0.034 -0.045,-0.036 -0.085,-0.093 z m 0.443,-0.657 q 0,-0.195 -0.118,-0.288 -0.116,-0.096 -0.37,-0.096 -0.093,0 -0.155,0.017 -0.062,0.014 -0.099,0.056 -0.037,0.042 -0.054,0.119 -0.014,0.073 -0.014,0.189 v 0.192 q 0,0.11 0.003,0.2 0.065,0.003 0.144,0.003 h 0.152 q 0.08,0 0.167,-0.008 0.09,-0.011 0.166,-0.05 0.077,-0.043 0.127,-0.12 0.051,-0.078 0.051,-0.214 z m 1.212,1.4 q -0.322,0 -0.472,-0.175 -0.06,-0.068 -0.101,-0.173 -0.04,-0.107 -0.065,-0.276 -0.023,-0.17 -0.034,-0.418 -0.009,-0.251 -0.009,-0.61 0,-0.115 0.006,-0.189 0.006,-0.076 0.022,-0.118 0.017,-0.045 0.043,-0.062 0.028,-0.017 0.07,-0.017 0.082,0 0.116,0.073 0.034,0.074 0.034,0.254 0,0.062 -0.003,0.11 v 0.1 q 0,0.047 -0.003,0.106 v 0.144 q 0,0.283 0.017,0.469 0.02,0.186 0.065,0.299 0.045,0.11 0.122,0.155 0.079,0.045 0.194,0.045 0.122,0 0.2,-0.048 0.083,-0.05 0.13,-0.166 0.048,-0.119 0.068,-0.313 0.023,-0.195 0.023,-0.486 0,-0.127 -0.003,-0.217 v -0.164 q 0,-0.104 0.006,-0.175 0.008,-0.07 0.022,-0.11 0.017,-0.042 0.045,-0.06 0.029,-0.016 0.07,-0.016 0.043,0 0.071,0.017 0.029,0.017 0.046,0.06 0.017,0.042 0.022,0.118 0.006,0.073 0.006,0.192 0,0.496 -0.031,0.818 -0.031,0.319 -0.11,0.505 -0.08,0.184 -0.218,0.257 -0.135,0.07 -0.35,0.07 z m 2.162,-0.181 q -0.09,-0.124 -0.172,-0.246 l -0.172,-0.27 q -0.09,-0.147 -0.209,-0.325 -0.116,-0.18 -0.28,-0.42 v 0.38 q 0,0.167 -0.002,0.31 l -0.006,0.272 q -0.002,0.127 -0.008,0.254 -0.003,0.067 -0.014,0.104 -0.009,0.037 -0.026,0.057 -0.017,0.02 -0.04,0.022 -0.019,0.006 -0.047,0.006 -0.051,0 -0.085,-0.034 -0.034,-0.036 -0.04,-0.152 -0.013,-0.31 -0.016,-0.621 v -0.646 q 0,-0.19 0.002,-0.297 0.006,-0.107 0.02,-0.16 0.017,-0.054 0.043,-0.068 0.028,-0.014 0.073,-0.014 0.045,0 0.118,0.07 0.074,0.068 0.161,0.18 0.088,0.114 0.187,0.26 0.101,0.147 0.2,0.302 0.099,0.156 0.19,0.308 l 0.168,0.277 Q 22.471,11.274 22.471,11.116 V 10.76 q 0,-0.223 0.002,-0.366 0.003,-0.147 0.015,-0.232 0.014,-0.085 0.042,-0.118 0.028,-0.034 0.079,-0.034 0.048,0 0.085,0.03 0.036,0.032 0.042,0.145 l 0.008,0.18 0.006,0.158 q 0.003,0.076 0.003,0.161 v 0.429 q 0,0.116 -0.003,0.229 l -0.006,0.228 q -0.002,0.116 -0.008,0.243 -0.003,0.068 -0.014,0.104 -0.009,0.037 -0.026,0.057 -0.017,0.02 -0.04,0.022 -0.019,0.006 -0.047,0.006 -0.048,0 -0.082,-0.028 -0.034,-0.028 -0.099,-0.115 z"
       word-spacing="0"
       letter-spacing="0"
       font-size="2.822"
       font-weight="400"
       aria-label="RUN"
       id="path26"
       inkscape:connector-curvature="0" />
  </g>
  <g
     style="line-height:1.25"
     id="g36"
     transform="translate(-0.24917224)">
    <path
       style="font-weight:400;font-size:2.82200003px;font-family:Sniglet;-inkscape-font-specification:'Sniglet, Normal';font-variant-ligatures:normal;font-variant-caps:normal;font-variant-numeric:normal;font-feature-settings:normal;text-align:start;letter-spacing:0;word-spacing:0"
       d="M 4.998,81.465 4.916,81.471 H 4.738 q -0.048,0 -0.107,-0.006 v 0.573 q 0,0.09 -0.045,0.113 -0.042,0.02 -0.107,0.02 -0.034,0 -0.054,-0.006 Q 4.405,82.162 4.391,82.151 4.38,82.137 4.371,82.111 4.366,82.086 4.363,82.041 4.357,81.99 4.354,81.894 L 4.349,81.64 q 0,-0.155 -0.003,-0.375 v -0.523 q 0,-0.115 0.028,-0.222 0.029,-0.11 0.102,-0.192 0.073,-0.085 0.197,-0.136 0.127,-0.05 0.322,-0.05 0.138,0 0.268,0.03 0.133,0.031 0.235,0.108 0.101,0.076 0.163,0.206 0.062,0.13 0.062,0.324 0,0.26 -0.113,0.404 -0.11,0.14 -0.304,0.2 l 0.378,0.52 q 0.05,0.067 0.05,0.138 0,0.056 -0.039,0.087 -0.037,0.034 -0.093,0.034 -0.062,0 -0.107,-0.034 Q 5.45,82.122 5.41,82.066 Z m 0.443,-0.657 q 0,-0.195 -0.118,-0.288 -0.116,-0.096 -0.37,-0.096 -0.093,0 -0.155,0.017 -0.062,0.014 -0.1,0.056 -0.036,0.042 -0.053,0.119 -0.014,0.073 -0.014,0.189 v 0.192 q 0,0.11 0.003,0.2 Q 4.699,81.2 4.778,81.2 H 4.93 q 0.08,0 0.167,-0.008 0.09,-0.011 0.166,-0.05 0.076,-0.043 0.127,-0.12 0.051,-0.078 0.051,-0.214 z M 5.989,81.73 Q 5.983,81.64 5.978,81.485 5.972,81.33 5.972,81.166 v -0.192 l 0.006,-0.206 q 0.005,-0.209 0.025,-0.327 0.023,-0.119 0.085,-0.178 0.065,-0.06 0.18,-0.073 0.116,-0.015 0.308,-0.015 h 0.06 q 0.059,0 0.14,0.003 0.082,0 0.17,0.003 l 0.15,0.006 q 0.062,0.006 0.098,0.017 0.04,0.008 0.06,0.026 0.02,0.014 0.025,0.036 0.005,0.02 0.005,0.046 0,0.065 -0.036,0.096 -0.037,0.028 -0.15,0.036 -0.056,0.006 -0.166,0.008 h -0.22 q -0.113,0 -0.204,0.003 H 6.395 q -0.073,0.003 -0.104,0.034 -0.028,0.028 -0.028,0.138 l 0.003,0.125 q 0.005,0.096 0.005,0.27 h 0.234 q 0.15,0 0.243,0.007 0.096,0.003 0.147,0.016 0.054,0.015 0.073,0.046 0.02,0.03 0.02,0.081 0,0.026 -0.006,0.048 Q 6.98,81.24 6.96,81.257 6.94,81.271 6.903,81.283 6.867,81.291 6.799,81.297 6.717,81.303 6.644,81.305 H 6.266 v 0.343 q 0.002,0.06 0.005,0.097 0.003,0.045 0.012,0.076 0.01,0.031 0.036,0.05 0.028,0.02 0.08,0.029 0.053,0.008 0.14,0.008 h 0.607 q 0.099,0 0.124,0.037 0.026,0.036 0.026,0.099 0,0.05 -0.023,0.079 -0.022,0.025 -0.11,0.036 -0.085,0.014 -0.257,0.017 -0.17,0.003 -0.468,0.003 -0.127,0 -0.21,-0.022 Q 6.147,82.134 6.096,82.08 6.046,82.027 6.02,81.942 5.997,81.855 5.989,81.73 Z M 8.21,80.167 q 0.079,0 0.18,0.014 0.105,0.011 0.195,0.045 0.09,0.031 0.152,0.085 0.063,0.05 0.063,0.127 0,0.045 -0.026,0.076 -0.025,0.031 -0.082,0.031 -0.042,0 -0.087,-0.017 -0.043,-0.017 -0.099,-0.034 -0.054,-0.02 -0.127,-0.036 -0.07,-0.017 -0.166,-0.017 -0.187,0 -0.277,0.067 -0.088,0.065 -0.088,0.181 0,0.08 0.04,0.133 0.04,0.053 0.104,0.093 0.068,0.037 0.15,0.062 0.085,0.025 0.172,0.048 0.099,0.025 0.195,0.062 0.099,0.037 0.175,0.096 0.076,0.06 0.121,0.15 0.048,0.09 0.048,0.228 0,0.144 -0.053,0.26 -0.054,0.113 -0.147,0.195 -0.093,0.079 -0.223,0.124 -0.13,0.042 -0.282,0.042 -0.085,0 -0.198,-0.017 -0.113,-0.014 -0.214,-0.05 -0.102,-0.04 -0.173,-0.102 -0.07,-0.065 -0.07,-0.158 0,-0.057 0.028,-0.09 0.031,-0.035 0.09,-0.035 0.048,0 0.08,0.02 0.03,0.017 0.053,0.04 0.085,0.073 0.192,0.099 0.107,0.025 0.22,0.025 0.065,0 0.136,-0.008 0.073,-0.011 0.132,-0.042 0.06,-0.031 0.099,-0.088 0.04,-0.06 0.04,-0.158 0,-0.09 -0.037,-0.147 Q 8.492,81.412 8.433,81.373 8.373,81.333 8.292,81.308 8.212,81.282 8.119,81.257 8.015,81.229 7.913,81.195 q -0.101,-0.034 -0.18,-0.09 -0.08,-0.06 -0.13,-0.147 -0.048,-0.09 -0.048,-0.229 0,-0.138 0.05,-0.243 0.052,-0.104 0.139,-0.175 0.088,-0.07 0.206,-0.107 0.121,-0.037 0.26,-0.037 z M 9.181,81.73 Q 9.175,81.64 9.169,81.485 9.164,81.33 9.164,81.166 V 80.974 L 9.169,80.768 Q 9.175,80.559 9.195,80.441 9.217,80.322 9.279,80.263 9.344,80.203 9.46,80.19 9.576,80.175 9.768,80.175 h 0.059 q 0.06,0 0.141,0.003 0.082,0 0.17,0.003 l 0.149,0.006 q 0.062,0.006 0.099,0.017 0.04,0.008 0.059,0.026 0.02,0.014 0.025,0.036 0.006,0.02 0.006,0.046 0,0.065 -0.037,0.096 -0.036,0.028 -0.15,0.036 -0.056,0.006 -0.166,0.008 h -0.22 q -0.113,0 -0.203,0.003 H 9.587 q -0.073,0.003 -0.104,0.034 -0.029,0.028 -0.029,0.138 l 0.003,0.125 q 0.006,0.096 0.006,0.27 h 0.234 q 0.15,0 0.243,0.007 0.096,0.003 0.146,0.016 0.054,0.015 0.074,0.046 0.02,0.03 0.02,0.081 0,0.026 -0.006,0.048 -0.003,0.02 -0.023,0.037 -0.02,0.014 -0.056,0.026 -0.037,0.008 -0.104,0.014 -0.082,0.006 -0.156,0.008 H 9.457 v 0.343 l 0.006,0.097 q 0.003,0.045 0.011,0.076 0.011,0.031 0.037,0.05 0.028,0.02 0.079,0.029 0.053,0.008 0.14,0.008 h 0.608 q 0.098,0 0.124,0.037 0.025,0.036 0.025,0.099 0,0.05 -0.022,0.079 -0.023,0.025 -0.11,0.036 -0.085,0.014 -0.257,0.017 -0.17,0.003 -0.469,0.003 -0.127,0 -0.209,-0.022 Q 9.339,82.134 9.288,82.08 9.237,82.027 9.212,81.942 9.189,81.855 9.181,81.73 Z m 2.657,-1.287 q -0.079,0.007 -0.17,0.009 l -0.194,0.006 0.006,0.143 0.005,0.133 q 0.003,0.068 0.003,0.141 0.003,0.074 0.003,0.164 v 0.245 q 0,0.116 -0.003,0.235 l -0.006,0.234 q -0.002,0.118 -0.008,0.245 -0.003,0.068 -0.014,0.105 -0.009,0.037 -0.026,0.056 -0.017,0.02 -0.04,0.023 -0.022,0.006 -0.05,0.006 -0.05,0 -0.087,-0.034 -0.034,-0.037 -0.04,-0.152 -0.006,-0.102 -0.008,-0.215 0,-0.113 -0.003,-0.243 -0.003,-0.13 -0.003,-0.279 v -0.606 q 0.003,-0.116 0.008,-0.201 h -0.115 q -0.119,0 -0.203,-0.003 -0.082,-0.003 -0.136,-0.014 -0.054,-0.014 -0.079,-0.043 -0.023,-0.028 -0.023,-0.079 0,-0.025 0.006,-0.045 0.006,-0.022 0.025,-0.04 0.02,-0.019 0.054,-0.03 0.037,-0.012 0.093,-0.017 l 0.096,-0.006 0.085,-0.006 q 0.042,-0.003 0.087,-0.003 h 0.105 q 0.166,0 0.313,0.003 0.15,0.003 0.316,0.011 0.068,0.006 0.105,0.017 0.036,0.008 0.056,0.025 0.02,0.017 0.023,0.04 0.005,0.022 0.005,0.05 0,0.051 -0.037,0.085 -0.033,0.034 -0.15,0.04 z"
       word-spacing="0"
       letter-spacing="0"
       font-size="2.822"
       font-weight="400"
       aria-label="RESET"
       id="path34"
       inkscape:connector-curvature="0" />
  </g>
  <g
     style="line-height:1.25"
     id="g48"
     transform="translate(-0.65375454)">
    <path
       style="font-weight:400;font-size:2.82200003px;font-family:Sniglet;-inkscape-font-specification:'Sniglet, Normal';font-variant-ligatures:normal;font-variant-caps:normal;font-variant-numeric:normal;font-feature-settings:normal;text-align:start;letter-spacing:0;word-spacing:0"
       d="m 18.669,81.484 -0.082,0.006 h -0.178 q -0.048,0 -0.107,-0.006 v 0.573 q 0,0.09 -0.045,0.113 -0.043,0.02 -0.107,0.02 -0.034,0 -0.054,-0.006 -0.02,-0.003 -0.034,-0.014 -0.011,-0.014 -0.02,-0.04 -0.005,-0.025 -0.008,-0.07 -0.006,-0.051 -0.009,-0.147 L 18.02,81.659 q 0,-0.155 -0.003,-0.376 v -0.522 q 0,-0.115 0.028,-0.223 0.028,-0.11 0.102,-0.191 0.073,-0.085 0.197,-0.136 0.127,-0.05 0.322,-0.05 0.138,0 0.268,0.03 0.133,0.031 0.234,0.108 0.102,0.076 0.164,0.206 0.062,0.13 0.062,0.324 0,0.26 -0.113,0.404 -0.11,0.14 -0.305,0.2 l 0.379,0.52 q 0.05,0.067 0.05,0.138 0,0.056 -0.04,0.087 -0.036,0.034 -0.092,0.034 -0.062,0 -0.107,-0.034 -0.046,-0.037 -0.085,-0.093 z m 0.443,-0.657 q 0,-0.195 -0.119,-0.288 -0.115,-0.096 -0.37,-0.096 -0.092,0 -0.155,0.017 -0.062,0.014 -0.098,0.056 -0.037,0.042 -0.054,0.119 -0.014,0.073 -0.014,0.189 v 0.192 q 0,0.11 0.003,0.2 0.065,0.003 0.144,0.003 h 0.152 q 0.08,0 0.167,-0.008 0.09,-0.011 0.166,-0.05 0.076,-0.043 0.127,-0.12 0.05,-0.078 0.05,-0.214 z m 1.211,1.399 q -0.322,0 -0.471,-0.175 -0.06,-0.067 -0.102,-0.172 -0.04,-0.107 -0.065,-0.276 -0.022,-0.17 -0.034,-0.418 -0.008,-0.251 -0.008,-0.61 0,-0.115 0.006,-0.189 0.005,-0.076 0.022,-0.118 0.017,-0.045 0.042,-0.062 0.029,-0.017 0.071,-0.017 0.082,0 0.116,0.073 0.034,0.074 0.034,0.254 0,0.062 -0.003,0.11 v 0.1 q 0,0.047 -0.003,0.106 v 0.144 q 0,0.282 0.017,0.469 0.02,0.186 0.065,0.299 0.045,0.11 0.121,0.155 0.08,0.045 0.195,0.045 0.121,0 0.2,-0.048 0.082,-0.05 0.13,-0.166 0.048,-0.119 0.068,-0.313 0.022,-0.195 0.022,-0.486 0,-0.127 -0.002,-0.217 V 80.55 q 0,-0.104 0.005,-0.175 0.009,-0.07 0.023,-0.11 0.017,-0.042 0.045,-0.06 0.028,-0.016 0.07,-0.016 0.043,0 0.071,0.017 0.028,0.017 0.045,0.06 0.017,0.041 0.023,0.118 0.005,0.073 0.005,0.192 0,0.496 -0.03,0.818 -0.032,0.319 -0.11,0.505 -0.08,0.184 -0.218,0.257 -0.135,0.07 -0.35,0.07 z m 2.163,-0.18 Q 22.396,81.922 22.314,81.8 l -0.172,-0.27 q -0.09,-0.147 -0.21,-0.325 -0.115,-0.18 -0.279,-0.42 v 0.38 q 0,0.167 -0.002,0.31 l -0.006,0.272 q -0.003,0.127 -0.009,0.254 -0.002,0.067 -0.014,0.104 -0.008,0.037 -0.025,0.056 -0.017,0.02 -0.04,0.023 -0.02,0.006 -0.048,0.006 -0.05,0 -0.084,-0.034 -0.034,-0.037 -0.04,-0.152 -0.014,-0.31 -0.017,-0.621 v -0.646 q 0,-0.19 0.003,-0.297 0.006,-0.107 0.02,-0.16 0.017,-0.054 0.042,-0.068 0.028,-0.014 0.074,-0.014 0.045,0 0.118,0.07 0.074,0.068 0.161,0.18 0.087,0.114 0.186,0.26 0.102,0.147 0.2,0.302 0.1,0.156 0.19,0.308 l 0.17,0.277 q -0.004,-0.133 -0.004,-0.291 v -0.356 q 0,-0.223 0.003,-0.367 0.003,-0.146 0.014,-0.231 0.014,-0.085 0.043,-0.119 0.028,-0.033 0.079,-0.033 0.048,0 0.084,0.03 0.037,0.032 0.043,0.144 l 0.008,0.181 0.006,0.158 q 0.002,0.076 0.002,0.161 v 0.429 q 0,0.116 -0.002,0.229 l -0.006,0.228 -0.008,0.243 q -0.003,0.068 -0.015,0.104 -0.008,0.037 -0.025,0.057 -0.017,0.02 -0.04,0.022 -0.02,0.006 -0.047,0.006 -0.048,0 -0.082,-0.028 -0.034,-0.028 -0.1,-0.116 z"
       word-spacing="0"
       letter-spacing="0"
       font-size="2.822"
       font-weight="400"
       aria-label="RUN"
       id="path46"
       inkscape:connector-curvature="0" />
  </g>
  <g
     style="line-height:1.25"
     id="g52"
     transform="translate(-39.762168,6.9806966)">
    <path
       style="font-weight:400;font-size:2.82200003px;font-family:Sniglet;-inkscape-font-specification:'Sniglet, Normal';font-variant-ligatures:normal;font-variant-caps:normal;font-variant-numeric:normal;font-feature-settings:normal;text-align:start;letter-spacing:0;word-spacing:0"
       d="m 70.245,24.583 q 0.093,0 0.186,0.017 0.096,0.014 0.172,0.048 0.076,0.031 0.124,0.08 0.051,0.044 0.051,0.106 0,0.065 -0.034,0.1 -0.033,0.033 -0.084,0.033 -0.048,0 -0.085,-0.014 L 70.49,24.916 q -0.045,-0.02 -0.11,-0.034 -0.065,-0.017 -0.172,-0.017 -0.107,0 -0.206,0.057 -0.096,0.054 -0.17,0.152 -0.07,0.096 -0.112,0.229 -0.042,0.133 -0.042,0.288 0,0.192 0.048,0.33 0.05,0.138 0.13,0.229 0.078,0.087 0.177,0.132 0.102,0.043 0.203,0.043 0.122,0 0.204,-0.026 0.081,-0.025 0.138,-0.056 0.06,-0.031 0.101,-0.057 0.043,-0.025 0.082,-0.025 0.048,0 0.077,0.028 0.028,0.026 0.028,0.093 0,0.057 -0.045,0.116 -0.043,0.056 -0.127,0.104 -0.082,0.046 -0.198,0.077 -0.116,0.028 -0.26,0.028 -0.158,0 -0.316,-0.062 -0.155,-0.062 -0.28,-0.184 -0.12,-0.124 -0.197,-0.307 -0.076,-0.187 -0.076,-0.432 0,-0.246 0.068,-0.438 0.07,-0.192 0.189,-0.324 0.121,-0.136 0.28,-0.206 0.16,-0.07 0.34,-0.07 z m 1.153,1.21 v 0.162 q 0,0.067 -0.003,0.13 0,0.062 -0.003,0.124 l -0.005,0.138 0.305,-0.037 0.172,-0.022 0.099,-0.012 q 0.036,-0.003 0.084,-0.003 0.124,0 0.124,0.122 0,0.048 -0.05,0.082 -0.048,0.034 -0.125,0.059 -0.073,0.023 -0.166,0.04 -0.09,0.014 -0.178,0.02 -0.085,0.007 -0.155,0.01 -0.068,0.004 -0.096,0.004 -0.102,0 -0.158,-0.015 -0.057,-0.01 -0.085,-0.073 -0.028,-0.065 -0.036,-0.195 -0.006,-0.13 -0.006,-0.367 v -0.406 q 0,-0.178 0.003,-0.319 0.003,-0.141 0.003,-0.251 0.002,-0.11 0.008,-0.2 0.006,-0.116 0.04,-0.15 0.033,-0.037 0.084,-0.037 0.028,0 0.048,0.006 0.023,0.003 0.04,0.023 0.017,0.02 0.025,0.056 0.011,0.037 0.014,0.105 0.012,0.248 0.014,0.49 0.003,0.243 0.003,0.517 z m 1.011,0.613 q -0.006,-0.101 -0.009,-0.211 0,-0.11 -0.003,-0.237 -0.002,-0.127 -0.002,-0.274 v -0.333 q 0,-0.2 0.002,-0.342 0.003,-0.144 0.015,-0.234 0.014,-0.09 0.042,-0.133 0.028,-0.042 0.079,-0.042 0.048,0 0.085,0.031 0.036,0.031 0.042,0.144 0.006,0.102 0.008,0.18 l 0.006,0.159 q 0.003,0.076 0.003,0.16 v 0.335 l 0.604,-0.692 q 0.118,-0.135 0.183,-0.178 0.065,-0.045 0.113,-0.045 0.057,0 0.082,0.028 0.028,0.029 0.028,0.071 0,0.017 -0.005,0.034 -0.006,0.017 -0.026,0.048 -0.017,0.028 -0.053,0.073 -0.037,0.043 -0.1,0.11 l -0.392,0.426 0.619,0.881 q 0.022,0.031 0.033,0.065 0.015,0.034 0.015,0.065 0,0.053 -0.032,0.087 -0.028,0.037 -0.101,0.037 -0.06,0 -0.107,-0.034 -0.046,-0.031 -0.085,-0.093 l -0.536,-0.793 -0.243,0.265 -0.006,0.215 q -0.002,0.107 -0.008,0.226 -0.003,0.067 -0.014,0.104 -0.009,0.037 -0.026,0.056 -0.017,0.02 -0.04,0.023 -0.019,0.006 -0.047,0.006 -0.05,0 -0.085,-0.034 -0.034,-0.037 -0.04,-0.152 z"
       word-spacing="0"
       letter-spacing="0"
       font-size="2.822"
       font-weight="400"
       aria-label="CLK"
       id="path50"
       inkscape:connector-curvature="0" />
  </g>
  <g
     style="line-height:1.25"
     id="g88"
     transform="translate(-1.0583368,-1.0583368)">
    <path
       style="font-weight:400;font-size:2.82200003px;font-family:Sniglet;-inkscape-font-specification:'Sniglet, Normal';font-variant-ligatures:normal;font-variant-caps:normal;font-variant-numeric:normal;font-feature-settings:normal;text-align:start;letter-spacing:0;word-spacing:0"
       d="m 30.746,12.029 q -0.158,0 -0.254,-0.025 -0.096,-0.026 -0.15,-0.07 -0.05,-0.049 -0.07,-0.116 -0.017,-0.068 -0.026,-0.153 -0.008,-0.099 -0.014,-0.26 -0.002,-0.163 -0.002,-0.338 v -0.178 l 0.002,-0.186 0.006,-0.172 q 0.003,-0.08 0.008,-0.136 0.009,-0.087 0.029,-0.158 0.02,-0.07 0.073,-0.121 0.057,-0.051 0.155,-0.076 0.102,-0.029 0.268,-0.029 0.379,0 0.565,0.142 0.189,0.138 0.189,0.395 0,0.132 -0.06,0.245 -0.056,0.113 -0.197,0.17 0.08,0.014 0.144,0.059 0.065,0.045 0.11,0.11 0.048,0.062 0.07,0.141 0.026,0.076 0.026,0.155 0,0.102 -0.042,0.21 -0.043,0.103 -0.144,0.191 -0.102,0.087 -0.271,0.144 -0.167,0.056 -0.415,0.056 z m 0.59,-0.61 q 0,-0.101 -0.048,-0.163 -0.045,-0.062 -0.119,-0.093 -0.073,-0.034 -0.163,-0.045 -0.09,-0.012 -0.181,-0.012 h -0.147 q -0.076,0 -0.14,0.003 -0.004,0.06 -0.006,0.122 l -0.006,0.118 v 0.153 q 0,0.076 0.011,0.127 0.012,0.05 0.043,0.081 0.03,0.031 0.087,0.046 0.06,0.011 0.15,0.011 0.248,0 0.383,-0.088 0.136,-0.087 0.136,-0.26 z m -0.522,-1.14 q -0.093,0 -0.153,0.017 -0.056,0.014 -0.087,0.04 -0.028,0.025 -0.04,0.062 -0.008,0.037 -0.008,0.079 v 0.395 q 0.04,0.003 0.082,0.003 h 0.084 q 0.102,0 0.198,-0.014 0.099,-0.014 0.178,-0.048 0.079,-0.034 0.127,-0.093 0.048,-0.06 0.048,-0.153 0,-0.127 -0.105,-0.206 -0.101,-0.081 -0.324,-0.081 z m 1.34,1.572 q 0,0.068 -0.014,0.105 -0.011,0.037 -0.03,0.056 -0.018,0.02 -0.043,0.023 -0.023,0.006 -0.045,0.006 -0.076,0 -0.102,-0.034 -0.022,-0.034 -0.03,-0.152 -0.006,-0.063 -0.01,-0.181 l -0.005,-0.282 q 0,-0.164 -0.003,-0.362 v -0.417 q 0,-0.105 0.026,-0.212 0.025,-0.107 0.096,-0.195 0.073,-0.087 0.2,-0.14 0.13,-0.054 0.336,-0.054 0.144,0 0.274,0.03 0.13,0.032 0.228,0.108 0.099,0.076 0.158,0.203 0.06,0.127 0.06,0.316 0,0.198 -0.065,0.328 -0.065,0.13 -0.184,0.206 -0.118,0.076 -0.282,0.107 -0.164,0.03 -0.359,0.03 h -0.095 q -0.048,0 -0.108,-0.005 z m 0.813,-1.188 q 0,-0.189 -0.107,-0.285 -0.104,-0.096 -0.35,-0.096 -0.093,0 -0.16,0.017 -0.066,0.014 -0.108,0.054 -0.042,0.036 -0.065,0.101 -0.02,0.065 -0.02,0.164 v 0.22 q 0,0.122 0.003,0.229 0.065,0.003 0.144,0.003 h 0.152 q 0.085,0 0.175,-0.012 0.093,-0.01 0.167,-0.05 0.073,-0.043 0.121,-0.122 0.048,-0.081 0.048,-0.223 z m 1.238,0.886 q -0.13,-0.285 -0.231,-0.55 -0.1,-0.268 -0.17,-0.477 -0.065,0.35 -0.11,0.706 -0.042,0.355 -0.11,0.68 -0.017,0.073 -0.062,0.099 -0.045,0.022 -0.076,0.022 -0.051,0 -0.082,-0.03 -0.028,-0.032 -0.028,-0.08 0,-0.065 0.014,-0.197 l 0.04,-0.305 q 0.025,-0.17 0.056,-0.356 0.03,-0.186 0.062,-0.358 l 0.062,-0.316 q 0.031,-0.141 0.054,-0.217 0.036,-0.13 0.15,-0.13 0.067,0 0.115,0.067 0.048,0.065 0.102,0.204 0.056,0.135 0.132,0.344 0.08,0.209 0.203,0.491 0.122,-0.282 0.195,-0.488 0.076,-0.21 0.127,-0.345 0.054,-0.138 0.102,-0.203 0.048,-0.067 0.118,-0.067 0.065,0 0.099,0.033 0.034,0.031 0.05,0.096 0.02,0.08 0.049,0.22 0.028,0.139 0.059,0.311 0.034,0.17 0.065,0.356 0.031,0.186 0.056,0.355 0.026,0.17 0.04,0.308 0.017,0.135 0.017,0.209 0,0.045 -0.031,0.073 -0.031,0.025 -0.08,0.025 -0.03,0 -0.075,-0.022 -0.046,-0.026 -0.063,-0.099 -0.033,-0.16 -0.062,-0.333 l -0.05,-0.347 -0.046,-0.353 q -0.022,-0.178 -0.048,-0.353 -0.036,0.113 -0.084,0.249 -0.048,0.135 -0.102,0.273 -0.053,0.136 -0.11,0.269 -0.056,0.132 -0.11,0.24 -0.02,0.036 -0.054,0.056 -0.03,0.017 -0.064,0.017 -0.037,0 -0.071,-0.017 -0.031,-0.02 -0.048,-0.06 z"
       word-spacing="0"
       letter-spacing="0"
       font-size="2.822"
       font-weight="400"
       aria-label="BPM"
       id="path86"
       inkscape:connector-curvature="0" />
  </g>
  <g
     style="line-height:1.25"
     id="g92"
     transform="translate(-1.0275129)">
    <path
       style="font-weight:400;font-size:2.82200003px;font-family:Sniglet;-inkscape-font-specification:'Sniglet, Normal';font-variant-ligatures:normal;font-variant-caps:normal;font-variant-numeric:normal;font-feature-settings:normal;text-align:start;letter-spacing:0;word-spacing:0"
       d="m 30.717,82.197 q -0.157,0 -0.253,-0.025 -0.096,-0.025 -0.15,-0.07 -0.05,-0.048 -0.07,-0.116 -0.017,-0.068 -0.026,-0.153 -0.008,-0.098 -0.014,-0.26 -0.003,-0.163 -0.003,-0.338 v -0.178 q 0.003,-0.096 0.003,-0.186 l 0.006,-0.172 q 0.003,-0.08 0.008,-0.136 0.009,-0.087 0.028,-0.158 0.02,-0.07 0.074,-0.12 0.056,-0.052 0.155,-0.077 0.102,-0.028 0.268,-0.028 0.378,0 0.565,0.14 0.189,0.14 0.189,0.396 0,0.133 -0.06,0.245 -0.056,0.113 -0.197,0.17 0.079,0.014 0.144,0.06 0.065,0.044 0.11,0.11 0.048,0.061 0.07,0.14 0.026,0.076 0.026,0.155 0,0.102 -0.042,0.21 -0.043,0.104 -0.144,0.191 -0.102,0.088 -0.271,0.144 -0.167,0.057 -0.415,0.057 z m 0.59,-0.61 q 0,-0.1 -0.047,-0.163 -0.045,-0.062 -0.119,-0.093 -0.073,-0.034 -0.164,-0.045 -0.09,-0.011 -0.18,-0.011 H 30.65 q -0.076,0 -0.141,0.003 l -0.006,0.121 -0.005,0.119 v 0.152 q 0,0.076 0.011,0.127 0.011,0.05 0.042,0.082 0.031,0.03 0.088,0.045 0.06,0.011 0.15,0.011 0.248,0 0.383,-0.087 0.136,-0.088 0.136,-0.26 z m -0.521,-1.14 q -0.094,0 -0.153,0.018 -0.056,0.014 -0.087,0.04 -0.029,0.025 -0.04,0.061 -0.008,0.037 -0.008,0.08 v 0.394 q 0.04,0.003 0.081,0.003 h 0.085 q 0.102,0 0.198,-0.014 0.098,-0.014 0.178,-0.048 0.079,-0.034 0.127,-0.093 0.047,-0.06 0.047,-0.152 0,-0.127 -0.104,-0.206 -0.102,-0.082 -0.324,-0.082 z m 1.341,1.573 q 0,0.067 -0.015,0.104 -0.011,0.037 -0.031,0.057 -0.017,0.02 -0.042,0.022 -0.023,0.006 -0.045,0.006 -0.077,0 -0.102,-0.034 -0.023,-0.034 -0.031,-0.152 -0.006,-0.062 -0.009,-0.18 L 31.847,81.56 q 0,-0.164 -0.003,-0.361 v -0.418 q 0,-0.104 0.025,-0.212 0.026,-0.107 0.096,-0.194 0.074,-0.088 0.2,-0.141 0.13,-0.054 0.337,-0.054 0.144,0 0.273,0.03 0.13,0.032 0.229,0.108 0.099,0.076 0.158,0.203 0.06,0.127 0.06,0.316 0,0.198 -0.066,0.328 -0.065,0.13 -0.183,0.206 -0.119,0.076 -0.282,0.107 -0.164,0.031 -0.359,0.031 h -0.096 q -0.048,0 -0.107,-0.006 z m 0.812,-1.188 q 0,-0.19 -0.107,-0.286 -0.105,-0.096 -0.35,-0.096 -0.093,0 -0.161,0.017 -0.065,0.014 -0.107,0.054 -0.043,0.037 -0.065,0.102 -0.02,0.064 -0.02,0.163 v 0.22 q 0,0.122 0.003,0.229 0.065,0.003 0.144,0.003 h 0.152 q 0.085,0 0.175,-0.011 0.093,-0.012 0.167,-0.051 0.073,-0.042 0.121,-0.121 0.048,-0.082 0.048,-0.223 z m 1.238,0.886 q -0.13,-0.285 -0.232,-0.55 -0.098,-0.269 -0.169,-0.478 -0.065,0.35 -0.11,0.706 -0.042,0.356 -0.11,0.68 -0.017,0.074 -0.062,0.099 -0.045,0.023 -0.076,0.023 -0.051,0 -0.082,-0.031 -0.028,-0.031 -0.028,-0.08 0,-0.064 0.014,-0.197 l 0.04,-0.305 q 0.025,-0.17 0.056,-0.355 0.03,-0.187 0.062,-0.359 l 0.062,-0.316 q 0.03,-0.141 0.053,-0.217 0.037,-0.13 0.15,-0.13 0.068,0 0.116,0.068 0.048,0.065 0.101,0.203 0.057,0.135 0.133,0.344 0.079,0.209 0.203,0.491 0.122,-0.282 0.195,-0.488 0.076,-0.209 0.127,-0.344 0.054,-0.139 0.101,-0.204 0.048,-0.067 0.119,-0.067 0.065,0 0.099,0.034 0.034,0.03 0.05,0.096 0.02,0.079 0.049,0.22 0.028,0.138 0.059,0.31 0.034,0.17 0.065,0.356 l 0.056,0.355 q 0.026,0.17 0.04,0.308 0.017,0.136 0.017,0.209 0,0.045 -0.031,0.073 -0.031,0.026 -0.08,0.026 -0.03,0 -0.076,-0.023 -0.045,-0.025 -0.062,-0.099 -0.034,-0.16 -0.062,-0.333 l -0.05,-0.347 -0.046,-0.353 q -0.022,-0.177 -0.048,-0.352 -0.036,0.112 -0.084,0.248 -0.048,0.135 -0.102,0.274 -0.054,0.135 -0.11,0.268 -0.057,0.132 -0.11,0.24 -0.02,0.036 -0.054,0.056 -0.03,0.017 -0.065,0.017 -0.036,0 -0.07,-0.017 -0.031,-0.02 -0.048,-0.06 z"
       word-spacing="0"
       letter-spacing="0"
       font-size="2.822"
       font-weight="400"
       aria-label="BPM"
       id="path90"
       inkscape:connector-curvature="0" />
  </g>
  <g
     style="line-height:1.25"
     id="g128"
     transform="translate(-38.341702,-12.272379)">
    <path
       style="font-weight:400;font-size:2.82200003px;font-family:Sniglet;-inkscape-font-specification:'Sniglet, Normal';font-variant-ligatures:normal;font-variant-caps:normal;font-variant-numeric:normal;font-feature-settings:normal;text-align:start;letter-spacing:0;word-spacing:0"
       d="m 44.299,80.241 q 0.093,0 0.186,0.016 0.096,0.015 0.172,0.048 0.076,0.031 0.124,0.08 0.051,0.045 0.051,0.107 0,0.065 -0.034,0.098 -0.034,0.034 -0.084,0.034 -0.048,0 -0.085,-0.014 -0.037,-0.017 -0.085,-0.036 -0.045,-0.02 -0.11,-0.034 -0.065,-0.017 -0.172,-0.017 -0.107,0 -0.206,0.056 -0.096,0.054 -0.17,0.153 -0.07,0.096 -0.112,0.228 -0.043,0.133 -0.043,0.288 0,0.192 0.048,0.33 0.051,0.139 0.13,0.229 0.08,0.087 0.178,0.133 0.102,0.042 0.203,0.042 0.122,0 0.203,-0.026 0.082,-0.025 0.139,-0.056 0.059,-0.031 0.101,-0.056 0.043,-0.026 0.082,-0.026 0.048,0 0.076,0.028 0.029,0.026 0.029,0.094 0,0.056 -0.046,0.115 -0.042,0.057 -0.127,0.105 -0.081,0.045 -0.197,0.076 -0.116,0.028 -0.26,0.028 -0.158,0 -0.316,-0.062 -0.155,-0.062 -0.28,-0.184 -0.12,-0.124 -0.197,-0.307 -0.076,-0.186 -0.076,-0.432 0,-0.245 0.068,-0.437 0.07,-0.192 0.189,-0.325 0.121,-0.135 0.28,-0.206 0.16,-0.07 0.34,-0.07 z m 1.153,1.21 v 0.161 q 0,0.068 -0.003,0.13 0,0.062 -0.003,0.124 l -0.005,0.138 0.304,-0.036 0.173,-0.023 0.098,-0.011 q 0.037,-0.003 0.085,-0.003 0.124,0 0.124,0.121 0,0.048 -0.05,0.082 -0.049,0.034 -0.125,0.06 -0.073,0.022 -0.166,0.039 -0.09,0.014 -0.178,0.02 -0.085,0.008 -0.155,0.01 -0.068,0.004 -0.096,0.004 -0.102,0 -0.158,-0.014 -0.057,-0.011 -0.085,-0.074 -0.028,-0.064 -0.037,-0.194 -0.005,-0.13 -0.005,-0.367 v -0.407 q 0,-0.177 0.003,-0.319 l 0.002,-0.25 q 0.003,-0.11 0.009,-0.201 0.005,-0.116 0.04,-0.15 0.033,-0.036 0.084,-0.036 0.028,0 0.048,0.006 0.023,0.003 0.04,0.022 0.016,0.02 0.025,0.057 0.011,0.036 0.014,0.104 0.011,0.248 0.014,0.491 0.003,0.243 0.003,0.517 z m 1.011,0.612 q -0.006,-0.1 -0.009,-0.211 0,-0.11 -0.003,-0.237 -0.003,-0.127 -0.003,-0.274 v -0.333 q 0,-0.2 0.003,-0.341 0.003,-0.144 0.014,-0.235 0.014,-0.09 0.043,-0.132 0.028,-0.042 0.079,-0.042 0.048,0 0.084,0.03 0.037,0.032 0.043,0.144 l 0.008,0.181 0.006,0.158 q 0.003,0.076 0.003,0.161 v 0.333 l 0.604,-0.691 q 0.118,-0.136 0.183,-0.178 0.065,-0.045 0.113,-0.045 0.056,0 0.082,0.028 0.028,0.028 0.028,0.07 0,0.017 -0.006,0.034 -0.005,0.017 -0.025,0.048 -0.017,0.028 -0.054,0.074 -0.036,0.042 -0.098,0.11 l -0.393,0.426 0.618,0.88 q 0.023,0.031 0.034,0.065 0.014,0.034 0.014,0.065 0,0.054 -0.03,0.088 -0.029,0.036 -0.102,0.036 -0.06,0 -0.108,-0.033 -0.045,-0.031 -0.084,-0.094 l -0.536,-0.793 -0.243,0.266 -0.006,0.214 -0.008,0.226 q -0.003,0.068 -0.014,0.104 -0.009,0.037 -0.026,0.057 -0.017,0.02 -0.04,0.022 -0.019,0.006 -0.047,0.006 -0.051,0 -0.085,-0.034 -0.034,-0.036 -0.04,-0.152 z m 2.563,0 q -0.006,-0.1 -0.009,-0.211 l -0.002,-0.237 q -0.003,-0.127 -0.003,-0.274 v -0.686 l -0.17,0.088 q -0.07,0.045 -0.112,0.054 -0.04,0.008 -0.088,0.008 -0.042,0 -0.076,-0.037 -0.031,-0.037 -0.031,-0.088 0,-0.05 0.034,-0.087 0.036,-0.04 0.084,-0.07 0.063,-0.043 0.133,-0.085 0.073,-0.043 0.141,-0.077 0.068,-0.036 0.124,-0.056 0.06,-0.023 0.1,-0.023 0.019,0 0.039,0.006 0.022,0.006 0.04,0.023 0.019,0.017 0.03,0.054 0.014,0.033 0.017,0.093 l 0.009,0.177 0.005,0.15 q 0.003,0.07 0.003,0.15 v 0.426 q 0,0.115 -0.003,0.228 l -0.005,0.229 q -0.003,0.116 -0.009,0.243 -0.003,0.067 -0.014,0.104 -0.008,0.037 -0.025,0.056 -0.017,0.02 -0.04,0.023 -0.02,0.006 -0.048,0.006 -0.05,0 -0.085,-0.034 -0.033,-0.037 -0.039,-0.152 z"
       word-spacing="0"
       letter-spacing="0"
       font-size="2.822"
       font-weight="400"
       aria-label="CLK 1"
       id="path126"
       inkscape:connector-curvature="0" />
  </g>
  <g
     style="line-height:1.25"
     id="g132"
     transform="translate(-39.120042,-12.272379)">
    <path
       style="font-weight:400;font-size:2.82200003px;font-family:Sniglet;-inkscape-font-specification:'Sniglet, Normal';font-variant-ligatures:normal;font-variant-caps:normal;font-variant-numeric:normal;font-feature-settings:normal;text-align:start;letter-spacing:0;word-spacing:0"
       d="m 56.593,80.186 q 0.093,0 0.187,0.017 0.096,0.014 0.172,0.048 0.076,0.031 0.124,0.079 0.05,0.045 0.05,0.107 0,0.065 -0.033,0.099 -0.034,0.034 -0.085,0.034 -0.048,0 -0.085,-0.014 -0.036,-0.017 -0.084,-0.037 -0.045,-0.02 -0.11,-0.034 -0.065,-0.017 -0.172,-0.017 -0.108,0 -0.206,0.057 -0.096,0.053 -0.17,0.152 -0.07,0.096 -0.113,0.229 -0.042,0.132 -0.042,0.288 0,0.192 0.048,0.33 0.05,0.138 0.13,0.228 0.079,0.088 0.178,0.133 0.101,0.042 0.203,0.042 0.121,0 0.203,-0.025 0.082,-0.025 0.138,-0.056 0.06,-0.032 0.102,-0.057 0.042,-0.025 0.082,-0.025 0.048,0 0.076,0.028 0.028,0.025 0.028,0.093 0,0.056 -0.045,0.116 -0.042,0.056 -0.127,0.104 -0.082,0.045 -0.198,0.076 -0.115,0.028 -0.26,0.028 -0.157,0 -0.315,-0.062 -0.155,-0.062 -0.28,-0.183 -0.121,-0.124 -0.197,-0.308 -0.076,-0.186 -0.076,-0.431 0,-0.246 0.067,-0.438 0.07,-0.192 0.19,-0.324 0.12,-0.136 0.279,-0.207 0.16,-0.07 0.341,-0.07 z m 1.154,1.211 v 0.16 q 0,0.068 -0.003,0.13 0,0.063 -0.003,0.125 l -0.006,0.138 0.305,-0.037 0.172,-0.022 0.099,-0.012 q 0.037,-0.003 0.085,-0.003 0.124,0 0.124,0.122 0,0.048 -0.05,0.082 -0.049,0.033 -0.125,0.059 -0.073,0.022 -0.167,0.04 -0.09,0.013 -0.177,0.02 -0.085,0.007 -0.156,0.01 l -0.096,0.003 q -0.101,0 -0.158,-0.014 Q 57.535,82.187 57.507,82.125 57.478,82.06 57.47,81.93 57.464,81.8 57.464,81.563 v -0.406 q 0,-0.178 0.003,-0.319 0.003,-0.141 0.003,-0.251 0.003,-0.11 0.008,-0.2 0.006,-0.116 0.04,-0.15 0.034,-0.037 0.085,-0.037 0.028,0 0.048,0.006 0.022,0.003 0.04,0.023 0.016,0.02 0.025,0.056 0.01,0.037 0.014,0.105 0.011,0.248 0.014,0.49 0.003,0.243 0.003,0.517 z m 1.01,0.612 q -0.005,-0.101 -0.008,-0.211 0,-0.11 -0.003,-0.237 -0.003,-0.127 -0.003,-0.274 v -0.333 q 0,-0.2 0.003,-0.342 0.003,-0.144 0.014,-0.234 0.014,-0.09 0.042,-0.133 0.029,-0.042 0.08,-0.042 0.047,0 0.084,0.031 0.037,0.031 0.042,0.144 l 0.009,0.18 0.005,0.159 q 0.003,0.076 0.003,0.16 v 0.335 l 0.604,-0.692 q 0.119,-0.135 0.184,-0.178 0.065,-0.045 0.113,-0.045 0.056,0 0.081,0.028 0.029,0.028 0.029,0.07 0,0.018 -0.006,0.035 -0.006,0.017 -0.025,0.048 -0.017,0.028 -0.054,0.073 l -0.099,0.11 -0.392,0.426 0.618,0.88 q 0.023,0.032 0.034,0.066 0.014,0.034 0.014,0.065 0,0.053 -0.031,0.087 -0.028,0.037 -0.102,0.037 -0.059,0 -0.107,-0.034 -0.045,-0.031 -0.085,-0.093 l -0.536,-0.793 -0.243,0.265 -0.005,0.215 q -0.003,0.107 -0.009,0.225 -0.002,0.068 -0.014,0.105 -0.008,0.037 -0.025,0.056 -0.017,0.02 -0.04,0.023 -0.02,0.006 -0.048,0.006 -0.05,0 -0.084,-0.034 -0.034,-0.037 -0.04,-0.152 z m 2.772,-1.529 q -0.101,0 -0.169,0.022 -0.068,0.02 -0.113,0.054 -0.045,0.034 -0.073,0.07 l -0.051,0.07 q -0.023,0.035 -0.05,0.057 -0.026,0.02 -0.066,0.02 -0.067,0 -0.096,-0.034 -0.025,-0.037 -0.025,-0.096 0,-0.124 0.093,-0.231 0.028,-0.034 0.076,-0.07 0.051,-0.04 0.119,-0.071 0.07,-0.031 0.16,-0.051 0.094,-0.023 0.21,-0.023 0.307,0 0.477,0.15 0.169,0.15 0.169,0.42 0,0.054 -0.011,0.119 -0.008,0.065 -0.037,0.135 -0.026,0.07 -0.074,0.147 -0.048,0.076 -0.127,0.155 -0.07,0.07 -0.15,0.13 -0.078,0.06 -0.163,0.119 l -0.178,0.127 q -0.09,0.065 -0.183,0.15 0.09,0.047 0.195,0.061 0.104,0.014 0.234,0.014 0.121,0 0.195,-0.006 0.073,-0.006 0.118,-0.014 l 0.07,-0.014 q 0.026,-0.006 0.054,-0.006 0.105,0 0.105,0.096 0,0.085 -0.07,0.13 -0.071,0.045 -0.17,0.068 -0.1,0.02 -0.204,0.022 -0.104,0.006 -0.172,0.006 -0.036,0 -0.104,-0.006 -0.065,-0.003 -0.141,-0.014 -0.076,-0.011 -0.155,-0.03 -0.077,-0.023 -0.142,-0.057 -0.062,-0.037 -0.101,-0.088 -0.04,-0.053 -0.04,-0.127 0,-0.098 0.07,-0.186 0.074,-0.09 0.182,-0.175 0.107,-0.087 0.23,-0.172 0.125,-0.087 0.232,-0.178 0.108,-0.093 0.178,-0.192 0.074,-0.099 0.074,-0.214 0,-0.144 -0.1,-0.215 -0.095,-0.073 -0.276,-0.073 z"
       word-spacing="0"
       letter-spacing="0"
       font-size="2.822"
       font-weight="400"
       aria-label="CLK 2"
       id="path130"
       inkscape:connector-curvature="0" />
  </g>
  <g
     style="line-height:1.25"
     id="g136"
     transform="translate(-39.867558,-12.272379)">
    <path
       style="font-weight:400;font-size:2.82200003px;font-family:Sniglet;-inkscape-font-specification:'Sniglet, Normal';font-variant-ligatures:normal;font-variant-caps:normal;font-variant-numeric:normal;font-feature-settings:normal;text-align:start;letter-spacing:0;word-spacing:0"
       d="m 69.239,80.243 q 0.093,0 0.186,0.017 0.096,0.014 0.173,0.048 0.076,0.03 0.124,0.079 0.05,0.045 0.05,0.107 0,0.065 -0.033,0.099 -0.034,0.034 -0.085,0.034 -0.048,0 -0.085,-0.015 l -0.084,-0.036 q -0.046,-0.02 -0.11,-0.034 -0.065,-0.017 -0.173,-0.017 -0.107,0 -0.206,0.056 -0.096,0.054 -0.169,0.153 -0.07,0.096 -0.113,0.228 -0.042,0.133 -0.042,0.288 0,0.192 0.048,0.33 0.05,0.139 0.13,0.229 0.079,0.087 0.177,0.133 0.102,0.042 0.204,0.042 0.121,0 0.203,-0.025 0.082,-0.026 0.138,-0.057 0.06,-0.03 0.102,-0.056 0.042,-0.026 0.082,-0.026 0.048,0 0.076,0.029 0.028,0.025 0.028,0.093 0,0.056 -0.045,0.115 -0.043,0.057 -0.127,0.105 -0.082,0.045 -0.198,0.076 -0.115,0.028 -0.26,0.028 -0.157,0 -0.315,-0.062 -0.156,-0.062 -0.28,-0.183 -0.121,-0.125 -0.197,-0.308 -0.077,-0.186 -0.077,-0.432 0,-0.245 0.068,-0.437 0.07,-0.192 0.19,-0.325 0.12,-0.135 0.279,-0.206 0.16,-0.07 0.341,-0.07 z m 1.153,1.21 v 0.161 q 0,0.068 -0.003,0.13 l -0.002,0.124 -0.006,0.139 0.305,-0.037 0.172,-0.023 0.099,-0.011 q 0.036,-0.003 0.084,-0.003 0.125,0 0.125,0.121 0,0.048 -0.051,0.082 -0.048,0.034 -0.124,0.06 -0.074,0.022 -0.167,0.039 -0.09,0.014 -0.178,0.02 -0.084,0.008 -0.155,0.011 l -0.096,0.003 q -0.101,0 -0.158,-0.014 -0.056,-0.011 -0.085,-0.073 -0.028,-0.065 -0.036,-0.195 -0.006,-0.13 -0.006,-0.367 v -0.406 q 0,-0.178 0.003,-0.32 0.003,-0.14 0.003,-0.25 0.003,-0.11 0.008,-0.201 0.006,-0.116 0.04,-0.15 0.034,-0.036 0.084,-0.036 0.029,0 0.048,0.006 0.023,0.003 0.04,0.022 0.017,0.02 0.025,0.057 0.012,0.036 0.014,0.104 0.012,0.249 0.015,0.491 0.002,0.243 0.002,0.517 z m 1.011,0.613 Q 71.397,81.964 71.394,81.854 L 71.392,81.617 Q 71.389,81.49 71.389,81.343 V 81.01 q 0,-0.2 0.003,-0.341 0.002,-0.144 0.014,-0.234 0.014,-0.09 0.042,-0.133 0.028,-0.042 0.08,-0.042 0.047,0 0.084,0.03 0.037,0.032 0.042,0.145 l 0.009,0.18 0.005,0.158 q 0.003,0.076 0.003,0.161 v 0.333 l 0.604,-0.691 q 0.119,-0.136 0.183,-0.178 0.065,-0.045 0.113,-0.045 0.057,0 0.082,0.028 0.028,0.028 0.028,0.07 0,0.017 -0.005,0.034 -0.006,0.017 -0.026,0.048 -0.017,0.028 -0.053,0.074 l -0.099,0.11 -0.392,0.426 0.618,0.88 q 0.022,0.031 0.034,0.065 0.014,0.034 0.014,0.065 0,0.054 -0.031,0.088 -0.029,0.036 -0.102,0.036 -0.06,0 -0.107,-0.033 -0.045,-0.031 -0.085,-0.094 l -0.536,-0.793 -0.243,0.266 -0.005,0.214 q -0.003,0.107 -0.009,0.226 -0.003,0.068 -0.014,0.104 -0.008,0.037 -0.025,0.057 -0.017,0.02 -0.04,0.022 -0.02,0.006 -0.048,0.006 -0.05,0 -0.085,-0.034 -0.033,-0.036 -0.039,-0.152 z m 2.371,-1.519 q -0.09,0 -0.132,-0.045 -0.042,-0.048 -0.042,-0.096 0,-0.05 0.047,-0.082 0.048,-0.034 0.127,-0.05 0.08,-0.02 0.181,-0.026 0.102,-0.008 0.206,-0.008 0.088,0 0.195,0.008 0.107,0.006 0.2,0.034 0.093,0.025 0.155,0.08 0.063,0.05 0.063,0.14 0,0.07 -0.054,0.147 -0.054,0.076 -0.124,0.144 -0.07,0.068 -0.141,0.121 l -0.1,0.074 q 0.3,0 0.435,0.15 0.136,0.149 0.136,0.428 0,0.175 -0.065,0.305 -0.062,0.13 -0.17,0.217 -0.104,0.085 -0.242,0.127 -0.135,0.043 -0.28,0.043 -0.118,0 -0.234,-0.02 -0.113,-0.02 -0.203,-0.068 -0.09,-0.05 -0.147,-0.132 -0.053,-0.085 -0.053,-0.21 0,-0.13 0.14,-0.13 0.043,0 0.066,0.024 0.025,0.02 0.042,0.05 0.02,0.029 0.04,0.065 0.02,0.037 0.056,0.068 0.04,0.028 0.102,0.05 0.065,0.02 0.169,0.02 0.082,0 0.16,-0.016 0.08,-0.02 0.142,-0.063 0.062,-0.042 0.099,-0.112 0.04,-0.074 0.04,-0.181 0,-0.209 -0.088,-0.296 -0.085,-0.088 -0.24,-0.088 -0.04,0 -0.073,0.014 -0.034,0.011 -0.068,0.028 l -0.07,0.029 q -0.037,0.01 -0.083,0.01 -0.045,0 -0.079,-0.039 -0.033,-0.042 -0.033,-0.107 0,-0.045 0.042,-0.104 0.045,-0.06 0.121,-0.136 0.08,-0.076 0.19,-0.166 0.11,-0.093 0.245,-0.2 h -0.068 l -0.076,0.002 h -0.347 q -0.102,-0.003 -0.186,-0.003 z"
       word-spacing="0"
       letter-spacing="0"
       font-size="2.822"
       font-weight="400"
       aria-label="CLK 3"
       id="path134"
       inkscape:connector-curvature="0" />
  </g>
  <path
     d="m 7.9373145,64.133956 v 1.285"
     id="path138"
     inkscape:connector-curvature="0"
     style="fill:none;stroke:#000000;stroke-width:0.132"
     sodipodi:nodetypes="cc" />
  <g
     style="line-height:1.25"
     id="g142"
     transform="translate(-3.3517961,21.376742)">
    <path
       d="m 30.043,26.002 q -0.13,-0.285 -0.231,-0.55 -0.1,-0.268 -0.17,-0.477 -0.065,0.35 -0.11,0.705 -0.042,0.356 -0.11,0.68 -0.017,0.074 -0.062,0.1 -0.045,0.022 -0.076,0.022 -0.05,0 -0.082,-0.031 -0.028,-0.031 -0.028,-0.08 0,-0.064 0.014,-0.197 l 0.04,-0.305 q 0.025,-0.169 0.056,-0.355 0.031,-0.186 0.062,-0.359 l 0.062,-0.316 q 0.031,-0.14 0.054,-0.217 0.036,-0.13 0.15,-0.13 0.067,0 0.115,0.068 0.048,0.065 0.102,0.203 0.056,0.136 0.132,0.344 0.08,0.21 0.203,0.492 0.122,-0.283 0.195,-0.489 0.076,-0.209 0.127,-0.344 0.054,-0.138 0.102,-0.203 0.048,-0.068 0.118,-0.068 0.065,0 0.1,0.034 0.033,0.031 0.05,0.096 0.02,0.079 0.048,0.22 0.028,0.138 0.06,0.31 0.033,0.17 0.064,0.356 0.031,0.186 0.057,0.356 0.025,0.169 0.039,0.307 0.017,0.136 0.017,0.21 0,0.044 -0.031,0.073 -0.031,0.025 -0.08,0.025 -0.03,0 -0.075,-0.023 Q 30.91,26.434 30.893,26.361 30.859,26.2 30.831,26.028 L 30.78,25.68 30.735,25.328 q -0.023,-0.178 -0.048,-0.353 -0.037,0.113 -0.085,0.248 -0.048,0.136 -0.102,0.274 -0.053,0.135 -0.11,0.268 -0.056,0.133 -0.11,0.24 -0.02,0.037 -0.053,0.056 -0.031,0.017 -0.065,0.017 -0.037,0 -0.07,-0.017 -0.032,-0.02 -0.049,-0.059 z m 2.051,0.508 q -0.17,0 -0.32,-0.068 -0.146,-0.067 -0.256,-0.194 -0.11,-0.13 -0.175,-0.316 -0.062,-0.187 -0.062,-0.424 0,-0.223 0.053,-0.409 0.057,-0.186 0.164,-0.322 0.11,-0.135 0.271,-0.209 0.16,-0.076 0.373,-0.076 0.172,0 0.327,0.062 0.155,0.062 0.27,0.187 0.12,0.124 0.187,0.31 0.068,0.186 0.068,0.435 0,0.206 -0.057,0.392 -0.053,0.186 -0.166,0.327 -0.11,0.139 -0.28,0.223 -0.169,0.082 -0.397,0.082 z m 0.005,-0.265 q 0.155,0 0.271,-0.062 0.116,-0.065 0.192,-0.17 0.076,-0.104 0.113,-0.24 0.037,-0.138 0.037,-0.282 0,-0.175 -0.048,-0.31 -0.045,-0.138 -0.125,-0.232 -0.079,-0.093 -0.183,-0.14 -0.104,-0.052 -0.223,-0.052 -0.141,0 -0.248,0.06 -0.105,0.059 -0.178,0.16 -0.07,0.102 -0.107,0.24 -0.037,0.136 -0.037,0.291 0,0.167 0.042,0.305 0.043,0.135 0.113,0.231 0.074,0.096 0.172,0.15 0.1,0.05 0.21,0.05 z m 1.757,-1.758 q 0.29,0 0.466,0.087 0.175,0.088 0.268,0.231 0.093,0.144 0.121,0.328 0.031,0.183 0.031,0.372 0,0.206 -0.053,0.39 -0.051,0.183 -0.161,0.322 -0.107,0.135 -0.277,0.217 -0.17,0.079 -0.403,0.079 -0.187,0 -0.3,-0.028 -0.11,-0.026 -0.172,-0.08 -0.059,-0.053 -0.079,-0.135 -0.02,-0.082 -0.02,-0.192 v -1.06 q 0,-0.122 0.02,-0.221 0.023,-0.099 0.085,-0.167 0.062,-0.07 0.175,-0.107 0.116,-0.036 0.3,-0.036 z m 0.011,1.744 q 0.175,0 0.288,-0.062 0.116,-0.065 0.184,-0.17 0.067,-0.104 0.093,-0.237 0.028,-0.132 0.028,-0.27 0,-0.128 -0.02,-0.255 -0.02,-0.13 -0.082,-0.234 -0.062,-0.104 -0.177,-0.17 -0.116,-0.064 -0.308,-0.064 -0.175,0 -0.243,0.05 -0.067,0.051 -0.067,0.156 v 1.08 q 0,0.088 0.062,0.133 0.065,0.043 0.242,0.043 z m 1.175,-0.178 q -0.006,-0.09 -0.011,-0.246 -0.006,-0.155 -0.006,-0.319 v -0.191 l 0.006,-0.206 q 0.005,-0.21 0.025,-0.328 0.023,-0.118 0.085,-0.178 0.065,-0.059 0.18,-0.073 0.116,-0.014 0.308,-0.014 h 0.06 q 0.058,0 0.14,0.003 l 0.17,0.002 0.15,0.006 q 0.061,0.006 0.098,0.017 0.04,0.008 0.06,0.025 0.019,0.014 0.025,0.037 0.005,0.02 0.005,0.045 0,0.065 -0.036,0.096 -0.037,0.028 -0.15,0.037 -0.057,0.005 -0.167,0.008 h -0.22 q -0.113,0 -0.203,0.003 h -0.113 q -0.073,0.003 -0.104,0.034 -0.028,0.028 -0.028,0.138 l 0.002,0.125 q 0.006,0.095 0.006,0.27 h 0.234 q 0.15,0 0.243,0.006 0.096,0.003 0.147,0.017 0.053,0.014 0.073,0.045 0.02,0.031 0.02,0.082 0,0.025 -0.006,0.048 -0.003,0.02 -0.022,0.037 -0.02,0.014 -0.057,0.025 -0.037,0.009 -0.104,0.014 -0.082,0.006 -0.155,0.009 h -0.379 v 0.344 l 0.006,0.096 q 0.003,0.045 0.011,0.076 0.012,0.031 0.037,0.05 0.028,0.02 0.079,0.03 0.054,0.008 0.141,0.008 h 0.607 q 0.099,0 0.124,0.036 0.025,0.037 0.025,0.1 0,0.05 -0.022,0.078 -0.023,0.026 -0.11,0.037 -0.085,0.014 -0.257,0.017 -0.17,0.003 -0.469,0.003 -0.127,0 -0.208,-0.023 -0.082,-0.023 -0.133,-0.076 -0.05,-0.054 -0.076,-0.139 -0.023,-0.087 -0.031,-0.211 z"
       style="font-weight:400;font-size:2.82200003px;font-family:Sniglet;-inkscape-font-specification:'Sniglet, Normal';font-variant-ligatures:normal;font-variant-caps:normal;font-variant-numeric:normal;font-feature-settings:normal;text-align:start;letter-spacing:0;word-spacing:0"
       aria-label="MODE"
       font-weight="400"
       font-size="2.822"
       letter-spacing="0"
       word-spacing="0"
       id="path140"
       inkscape:connector-curvature="0" />
  </g>
  <path
     d="m 31.749893,19.493527 v 1.322921"
     id="path144"
     inkscape:connector-curvature="0"
     style="fill:none;stroke:#000000;stroke-width:0.132" />
  <g
     aria-label="CLKD"
     style="font-style:normal;font-weight:normal;font-size:10.5833683px;line-height:1.25;font-family:sans-serif;letter-spacing:0px;word-spacing:0px;fill:#000000;fill-opacity:1;stroke:none;stroke-width:0.26458421"
     id="text969">
    <path
       d="m 16.524706,3.5247908 q 0.139701,0 0.279401,0.0254 0.143934,0.021167 0.258234,0.071967 0.114301,0.046567 0.186268,0.1185337 0.0762,0.067734 0.0762,0.1608672 0,0.097367 -0.0508,0.1481672 -0.0508,0.0508 -0.127001,0.0508 -0.07197,0 -0.127,-0.021167 -0.05503,-0.0254 -0.127001,-0.055034 -0.06773,-0.029633 -0.1651,-0.0508 -0.09737,-0.0254 -0.258234,-0.0254 -0.160868,0 -0.309035,0.084667 -0.143934,0.080434 -0.254001,0.2286008 -0.105833,0.1439338 -0.169333,0.3429011 -0.0635,0.1989673 -0.0635,0.4318014 0,0.2878677 0.07197,0.4953017 0.0762,0.207434 0.194734,0.3429011 0.118534,0.1312338 0.266701,0.1989674 0.152401,0.0635 0.304801,0.0635 0.182034,0 0.304801,-0.0381 0.122767,-0.0381 0.207434,-0.084667 0.0889,-0.046567 0.152401,-0.084667 0.0635,-0.0381 0.122767,-0.0381 0.07197,0 0.1143,0.042334 0.04233,0.0381 0.04233,0.1397005 0,0.084667 -0.06773,0.1735672 -0.0635,0.084667 -0.190501,0.1566339 -0.122767,0.067734 -0.296334,0.1143003 -0.173567,0.042333 -0.389468,0.042333 -0.237067,0 -0.474135,-0.093134 -0.232834,-0.093134 -0.419101,-0.2751676 -0.182034,-0.1862673 -0.296335,-0.4614349 -0.1143,-0.2794009 -0.1143,-0.6477021 0,-0.3683013 0.1016,-0.6561689 0.105834,-0.2878676 0.283635,-0.4868349 0.182034,-0.2032007 0.419101,-0.3090344 0.241301,-0.1058337 0.512235,-0.1058337 z"
       style="font-style:normal;font-variant:normal;font-weight:normal;font-stretch:normal;font-size:4.23334742px;font-family:Sniglet;-inkscape-font-specification:'Sniglet, Normal';font-variant-ligatures:normal;font-variant-caps:normal;font-variant-numeric:normal;font-feature-settings:normal;text-align:start;writing-mode:lr-tb;text-anchor:start;stroke-width:0.26458421"
       id="path981" />
    <path
       d="m 18.254492,5.3408969 q 0,0.1354671 0,0.2413008 0,0.1016003 -0.0042,0.1947339 0,0.093134 -0.0042,0.1862673 -0.0042,0.093134 -0.0085,0.2074341 0.292101,-0.033867 0.457202,-0.055034 0.1651,-0.021167 0.258234,-0.033867 0.09737,-0.0127 0.148167,-0.016933 0.05503,-0.00423 0.127001,-0.00423 0.186267,0 0.186267,0.182034 0,0.071967 -0.0762,0.122767 -0.07197,0.0508 -0.186268,0.0889 -0.110067,0.033867 -0.249767,0.059267 -0.135467,0.021167 -0.266701,0.029633 -0.127001,0.0127 -0.232834,0.016933 -0.101601,0.00423 -0.143934,0.00423 -0.152401,0 -0.237067,-0.021167 -0.08467,-0.016933 -0.127001,-0.110067 -0.04233,-0.097367 -0.05503,-0.292101 -0.0085,-0.194734 -0.0085,-0.5503351 0,-0.3429012 0,-0.6096021 0,-0.2667009 0.0042,-0.4783682 0.0042,-0.2116674 0.0042,-0.3767679 0.0042,-0.1651006 0.0127,-0.3005677 0.0085,-0.1735673 0.05927,-0.2243674 0.0508,-0.055033 0.127,-0.055033 0.04233,0 0.07197,0.00847 0.03387,0.00423 0.05927,0.033867 0.0254,0.029634 0.0381,0.084667 0.01693,0.055033 0.02117,0.1566338 0.01693,0.3725346 0.02117,0.7366025 0.0042,0.3640679 0.0042,0.7747026 z"
       style="font-style:normal;font-variant:normal;font-weight:normal;font-stretch:normal;font-size:4.23334742px;font-family:Sniglet;-inkscape-font-specification:'Sniglet, Normal';font-variant-ligatures:normal;font-variant-caps:normal;font-variant-numeric:normal;font-feature-settings:normal;text-align:start;writing-mode:lr-tb;text-anchor:start;stroke-width:0.26458421"
       id="path983" />
    <path
       d="m 19.770559,6.2595332 q -0.0085,-0.1524005 -0.0127,-0.317501 0,-0.1651006 -0.0042,-0.3556012 -0.0042,-0.1905006 -0.0042,-0.4106347 0,-0.2243674 0,-0.499535 0,-0.3005677 0.0042,-0.512235 0.0042,-0.2159007 0.02117,-0.3513679 0.02117,-0.1354671 0.0635,-0.1989673 0.04233,-0.0635 0.118534,-0.0635 0.07197,0 0.127,0.046567 0.05503,0.046567 0.0635,0.2159007 0.0085,0.1524006 0.0127,0.2709343 0.0042,0.1185337 0.0085,0.2370674 0.0042,0.1143004 0.0042,0.2413008 0,0.1227671 0,0.279401 v 0.220134 l 0.905937,-1.0371701 q 0.1778,-0.2032007 0.275167,-0.2667009 0.09737,-0.067734 0.169334,-0.067734 0.08467,0 0.122767,0.042333 0.04233,0.042333 0.04233,0.1058337 0,0.0254 -0.0085,0.0508 -0.0085,0.0254 -0.0381,0.071967 -0.0254,0.042334 -0.08043,0.110067 -0.05503,0.0635 -0.148167,0.1651006 l -0.588435,0.6392354 0.927103,1.3208044 q 0.03387,0.046567 0.0508,0.097367 0.02117,0.0508 0.02117,0.097367 0,0.080434 -0.04657,0.1312338 -0.04233,0.055034 -0.1524,0.055034 -0.0889,0 -0.160868,-0.0508 -0.06773,-0.046567 -0.127,-0.1397004 L 20.532562,5.196963 20.168494,5.5948977 q -0.0042,0.1608672 -0.0085,0.3217344 -0.0042,0.1608672 -0.0127,0.3386678 -0.0042,0.1016003 -0.02117,0.1566339 -0.0127,0.055034 -0.0381,0.084667 -0.0254,0.029633 -0.05927,0.033867 -0.02963,0.00847 -0.07197,0.00847 -0.0762,0 -0.127001,-0.0508 -0.0508,-0.055033 -0.05927,-0.2286008 z"
       style="font-style:normal;font-variant:normal;font-weight:normal;font-stretch:normal;font-size:4.23334742px;font-family:Sniglet;-inkscape-font-specification:'Sniglet, Normal';font-variant-ligatures:normal;font-variant-caps:normal;font-variant-numeric:normal;font-feature-settings:normal;text-align:start;writing-mode:lr-tb;text-anchor:start;stroke-width:0.26458421"
       id="path985" />
    <path
       d="m 23.031559,3.5290242 q 0.436035,0 0.698503,0.1312337 0.262467,0.1312338 0.402168,0.3471345 0.1397,0.2159007 0.182034,0.4910683 0.04657,0.2751676 0.04657,0.5588019 0,0.3090343 -0.08043,0.5842019 -0.0762,0.2751676 -0.241301,0.4826016 -0.160867,0.2032007 -0.414868,0.3259678 -0.254001,0.1185337 -0.605369,0.1185337 -0.279401,0 -0.448734,-0.042333 -0.165101,-0.0381 -0.258235,-0.1185337 -0.0889,-0.080434 -0.118533,-0.2032007 -0.02963,-0.122767 -0.02963,-0.2878676 V 4.3248935 q 0,-0.182034 0.02963,-0.3302011 0.03387,-0.1481672 0.127,-0.2497675 0.09313,-0.1058337 0.262468,-0.1608672 0.173567,-0.055033 0.448734,-0.055033 z m 0.01693,2.6162087 q 0.262467,0 0.431801,-0.093134 0.173567,-0.097367 0.275168,-0.2540008 0.1016,-0.1566339 0.1397,-0.3556012 0.04233,-0.1989673 0.04233,-0.4064014 0,-0.1905006 -0.02963,-0.3810012 -0.02963,-0.194734 -0.122767,-0.3513679 -0.09313,-0.1566338 -0.266701,-0.2540008 -0.173567,-0.097367 -0.461435,-0.097367 -0.262467,0 -0.364067,0.0762 -0.101601,0.0762 -0.101601,0.2328341 v 1.621372 q 0,0.1312338 0.09313,0.1989674 0.09737,0.0635 0.364068,0.0635 z"
       style="font-style:normal;font-variant:normal;font-weight:normal;font-stretch:normal;font-size:4.23334742px;font-family:Sniglet;-inkscape-font-specification:'Sniglet, Normal';font-variant-ligatures:normal;font-variant-caps:normal;font-variant-numeric:normal;font-feature-settings:normal;text-align:start;writing-mode:lr-tb;text-anchor:start;stroke-width:0.26458421"
       id="path987" />
  </g>
  <path
     d="m 19.843604,64.133975 v 1.285"
     id="path138-7"
     inkscape:connector-curvature="0"
     style="fill:none;stroke:#000000;stroke-width:0.132"
     sodipodi:nodetypes="cc" />
  <path
     d="m 31.749893,64.082902 v 1.285"
     id="path138-7-2"
     inkscape:connector-curvature="0"
     style="fill:none;stroke:#000000;stroke-width:0.132"
     sodipodi:nodetypes="cc" />
  <path
     d="m 19.843604,19.493506 v 1.322921"
     id="path144-2"
     inkscape:connector-curvature="0"
     style="fill:none;stroke:#000000;stroke-width:0.132" />
  <path
     d="m 7.9373145,19.493506 v 1.322921"
     id="path144-8"
     inkscape:connector-curvature="0"
     style="fill:none;stroke:#000000;stroke-width:0.132" />
  <g
     aria-label="DISPLAY"
     style="font-style:normal;font-weight:normal;font-size:10.5833683px;line-height:1.25;font-family:sans-serif;letter-spacing:0px;word-spacing:0px;fill:#000000;fill-opacity:1;stroke:none;stroke-width:0.26458421"
     id="text1043"
     transform="translate(2.3815549,0.26458411)">
    <path
       d="m 3.6085586,45.598795 q 0.2906898,0 0.4656682,0.08749 0.1749783,0.08749 0.268112,0.231423 0.093134,0.143934 0.1213559,0.327379 0.031045,0.183445 0.031045,0.372534 0,0.206023 -0.053622,0.389468 -0.0508,0.183445 -0.1608672,0.321735 -0.1072448,0.135467 -0.2765787,0.217311 -0.1693339,0.07902 -0.4035791,0.07902 -0.1862673,0 -0.2991566,-0.02822 -0.110067,-0.0254 -0.1721561,-0.07902 -0.059267,-0.05362 -0.079022,-0.135467 -0.019756,-0.08184 -0.019756,-0.191912 v -1.061159 q 0,-0.121356 0.019756,-0.220134 0.022578,-0.09878 0.084667,-0.166511 0.062089,-0.07056 0.1749783,-0.107245 0.1157115,-0.03669 0.2991566,-0.03669 z m 0.011289,1.744139 q 0.1749784,0 0.2878676,-0.06209 0.1157115,-0.06491 0.1834451,-0.169334 0.067734,-0.104423 0.093134,-0.237068 0.028222,-0.132645 0.028222,-0.270934 0,-0.127 -0.019756,-0.254001 -0.019756,-0.129822 -0.081845,-0.234245 -0.062089,-0.104422 -0.1778006,-0.169334 -0.1157115,-0.06491 -0.3076232,-0.06491 -0.1749784,0 -0.2427119,0.0508 -0.067734,0.0508 -0.067734,0.155223 v 1.080914 q 0,0.08749 0.062089,0.132645 0.064911,0.04233 0.2427119,0.04233 z"
       style="font-style:normal;font-variant:normal;font-weight:normal;font-stretch:normal;font-size:2.82223153px;font-family:Sniglet;-inkscape-font-specification:'Sniglet, Normal';font-variant-ligatures:normal;font-variant-caps:normal;font-variant-numeric:normal;font-feature-settings:normal;text-align:start;writing-mode:lr-tb;text-anchor:start;stroke-width:0.26458421"
       id="path1063"
       inkscape:connector-curvature="0" />
    <path
       d="m 4.8196928,47.419134 q -0.00564,-0.1016 -0.00847,-0.211667 0,-0.110067 -0.00282,-0.237068 -0.00282,-0.127 -0.00282,-0.273756 0,-0.149579 0,-0.333024 0,-0.200378 0.00282,-0.34149 0.00282,-0.143933 0.016933,-0.234245 0.014111,-0.09031 0.042333,-0.132645 0.031045,-0.04233 0.081845,-0.04233 0.0254,0 0.047978,0.0056 0.022578,0.0056 0.039511,0.0254 0.016933,0.01693 0.028222,0.05362 0.014111,0.03387 0.016933,0.09031 0.00564,0.101601 0.00847,0.180623 0.00282,0.07902 0.00564,0.158045 0.00282,0.0762 0.00282,0.160867 0,0.08185 0,0.186267 0,0.127001 0,0.242712 0,0.115712 -0.00282,0.228601 -0.00282,0.112889 -0.00564,0.228601 -0.00282,0.115711 -0.00847,0.242712 -0.00282,0.06773 -0.014111,0.104422 -0.011289,0.03669 -0.028222,0.05645 -0.016933,0.01976 -0.039511,0.02258 -0.022578,0.0056 -0.0508,0.0056 -0.0508,0 -0.087489,-0.03387 -0.036689,-0.03669 -0.042333,-0.152401 z"
       style="font-style:normal;font-variant:normal;font-weight:normal;font-stretch:normal;font-size:2.82223153px;font-family:Sniglet;-inkscape-font-specification:'Sniglet, Normal';font-variant-ligatures:normal;font-variant-caps:normal;font-variant-numeric:normal;font-feature-settings:normal;text-align:start;writing-mode:lr-tb;text-anchor:start;stroke-width:0.26458421"
       id="path1065"
       inkscape:connector-curvature="0" />
    <path
       d="m 6.1109079,45.601617 q 0.079022,0 0.1806228,0.01411 0.1044225,0.01129 0.194734,0.04516 0.090311,0.03104 0.1524005,0.08467 0.062089,0.0508 0.062089,0.127 0,0.04516 -0.0254,0.0762 -0.0254,0.03104 -0.081845,0.03104 -0.042333,0 -0.087489,-0.01693 -0.042334,-0.01693 -0.098778,-0.03387 -0.053622,-0.01976 -0.1270004,-0.03669 -0.070556,-0.01693 -0.1665117,-0.01693 -0.1862673,0 -0.2765787,0.06773 -0.087489,0.06491 -0.087489,0.180623 0,0.07902 0.039511,0.132645 0.039511,0.05362 0.1044225,0.09313 0.067734,0.03669 0.1495783,0.06209 0.084667,0.0254 0.1721561,0.04798 0.098778,0.0254 0.194734,0.06209 0.098778,0.03669 0.1749784,0.09596 0.0762,0.05927 0.1213559,0.149579 0.047978,0.09031 0.047978,0.2286 0,0.143934 -0.053622,0.259646 -0.053622,0.112889 -0.1467561,0.194734 -0.093134,0.07902 -0.2229563,0.124178 -0.1298226,0.04233 -0.2822231,0.04233 -0.084667,0 -0.1975562,-0.01693 -0.1128893,-0.01411 -0.2144896,-0.0508 -0.1016004,-0.03951 -0.1721562,-0.101601 -0.070556,-0.06491 -0.070556,-0.158045 0,-0.05644 0.028222,-0.09031 0.031044,-0.03387 0.090311,-0.03387 0.047978,0 0.079023,0.01976 0.031045,0.01693 0.053622,0.03951 0.084667,0.07338 0.1919117,0.09878 0.1072448,0.0254 0.2201341,0.0254 0.064911,0 0.1354671,-0.0085 0.073378,-0.01129 0.1326449,-0.04233 0.059267,-0.03104 0.098778,-0.08749 0.039511,-0.05927 0.039511,-0.158045 0,-0.09031 -0.036689,-0.146756 -0.033867,-0.05927 -0.093134,-0.09878 -0.059267,-0.03951 -0.1411116,-0.06491 -0.079023,-0.0254 -0.1721561,-0.0508 -0.1044226,-0.02822 -0.2060229,-0.06209 -0.1016004,-0.03387 -0.1806229,-0.09031 -0.079022,-0.05927 -0.1298226,-0.146756 -0.047978,-0.09031 -0.047978,-0.228601 0,-0.138289 0.0508,-0.242712 0.0508,-0.104422 0.1382894,-0.174978 0.087489,-0.07056 0.2060229,-0.107245 0.1213559,-0.03669 0.2596453,-0.03669 z"
       style="font-style:normal;font-variant:normal;font-weight:normal;font-stretch:normal;font-size:2.82223153px;font-family:Sniglet;-inkscape-font-specification:'Sniglet, Normal';font-variant-ligatures:normal;font-variant-caps:normal;font-variant-numeric:normal;font-feature-settings:normal;text-align:start;writing-mode:lr-tb;text-anchor:start;stroke-width:0.26458421"
       id="path1067"
       inkscape:connector-curvature="0" />
    <path
       d="m 7.3471335,47.416312 q 0,0.06773 -0.014111,0.104422 -0.011289,0.03669 -0.031045,0.05645 -0.016933,0.01976 -0.042334,0.02258 -0.022578,0.0056 -0.045156,0.0056 -0.0762,0 -0.1016003,-0.03387 -0.022578,-0.03387 -0.031045,-0.152401 -0.00564,-0.06209 -0.00847,-0.180623 -0.00282,-0.118534 -0.00564,-0.282223 0,-0.163689 -0.00282,-0.361246 0,-0.197556 0,-0.41769 0,-0.104422 0.0254,-0.211667 0.0254,-0.107245 0.095956,-0.194734 0.073378,-0.08749 0.2003785,-0.141112 0.1298226,-0.05362 0.3358455,-0.05362 0.1439338,0 0.2737565,0.03104 0.1298226,0.03104 0.2286007,0.107245 0.098778,0.0762 0.158045,0.203201 0.059267,0.127 0.059267,0.31609 0,0.197556 -0.064911,0.327379 -0.064911,0.129822 -0.183445,0.206023 -0.1185337,0.0762 -0.2822232,0.107244 -0.1636894,0.03104 -0.3584234,0.03104 -0.047978,0 -0.095956,0 -0.047978,0 -0.1072448,-0.0056 z m 0.8128027,-1.18816 q 0,-0.189089 -0.1072448,-0.285045 -0.1044226,-0.09596 -0.3499567,-0.09596 -0.093134,0 -0.1608672,0.01693 -0.064911,0.01411 -0.1072448,0.05362 -0.042334,0.03669 -0.064911,0.1016 -0.019756,0.06491 -0.019756,0.16369 0,0.09596 0,0.220134 0,0.121356 0.00282,0.2286 0.064911,0.0028 0.1439338,0.0028 0.081845,0 0.1524005,0 0.084667,0 0.1749784,-0.01129 0.093134,-0.01129 0.1665116,-0.0508 0.073378,-0.04233 0.121356,-0.121356 0.047978,-0.08185 0.047978,-0.222957 z"
       style="font-style:normal;font-variant:normal;font-weight:normal;font-stretch:normal;font-size:2.82223153px;font-family:Sniglet;-inkscape-font-specification:'Sniglet, Normal';font-variant-ligatures:normal;font-variant-caps:normal;font-variant-numeric:normal;font-feature-settings:normal;text-align:start;writing-mode:lr-tb;text-anchor:start;stroke-width:0.26458421"
       id="path1069"
       inkscape:connector-curvature="0" />
    <path
       d="m 8.9511751,46.80671 q 0,0.09031 0,0.160867 0,0.06773 -0.00282,0.129823 0,0.06209 -0.00282,0.124178 -0.00282,0.06209 -0.00564,0.138289 0.1947339,-0.02258 0.304801,-0.03669 0.110067,-0.01411 0.1721561,-0.02258 0.064911,-0.0085 0.098778,-0.01129 0.036689,-0.0028 0.084667,-0.0028 0.1241781,0 0.1241781,0.121356 0,0.04798 -0.0508,0.08185 -0.047978,0.03387 -0.1241782,0.05927 -0.073378,0.02258 -0.1665117,0.03951 -0.090311,0.01411 -0.1778006,0.01976 -0.084667,0.0085 -0.1552227,0.01129 -0.067734,0.0028 -0.095956,0.0028 -0.1016003,0 -0.1580449,-0.01411 -0.056445,-0.01129 -0.084667,-0.07338 -0.028222,-0.06491 -0.036689,-0.194734 -0.00564,-0.129823 -0.00564,-0.366891 0,-0.2286 0,-0.406401 0,-0.1778 0.00282,-0.318912 0.00282,-0.141112 0.00282,-0.251179 0.00282,-0.110067 0.00847,-0.200378 0.00564,-0.115712 0.039511,-0.149578 0.033867,-0.03669 0.084667,-0.03669 0.028222,0 0.047978,0.0056 0.022578,0.0028 0.039511,0.02258 0.016933,0.01976 0.0254,0.05644 0.011289,0.03669 0.014111,0.104422 0.011289,0.248357 0.014111,0.491068 0.00282,0.242712 0.00282,0.516469 z"
       style="font-style:normal;font-variant:normal;font-weight:normal;font-stretch:normal;font-size:2.82223153px;font-family:Sniglet;-inkscape-font-specification:'Sniglet, Normal';font-variant-ligatures:normal;font-variant-caps:normal;font-variant-numeric:normal;font-feature-settings:normal;text-align:start;writing-mode:lr-tb;text-anchor:start;stroke-width:0.26458421"
       id="path1071"
       inkscape:connector-curvature="0" />
    <path
       d="m 11.130291,47.450179 q -0.02822,-0.06773 -0.06209,-0.155223 -0.03104,-0.09031 -0.06773,-0.18909 -0.08467,0.0028 -0.1778,0.0056 -0.09313,0 -0.18909,0 -0.121356,0 -0.220134,0 -0.09878,0 -0.180623,-0.0028 -0.03387,0.09878 -0.06491,0.186267 -0.03104,0.08749 -0.05927,0.155223 -0.05645,0.143933 -0.1636894,0.143933 -0.039511,0 -0.0762,-0.0254 -0.033867,-0.0254 -0.033867,-0.07338 0,-0.04798 0.016933,-0.124178 0.016933,-0.07902 0.042333,-0.166512 0.028222,-0.09031 0.059267,-0.183445 0.031045,-0.09596 0.059267,-0.1778 0.02822,-0.09031 0.07902,-0.228601 0.05362,-0.141112 0.112889,-0.293512 0.05927,-0.152401 0.118534,-0.299157 0.05927,-0.149578 0.107244,-0.259645 0.01129,-0.02822 0.02822,-0.06209 0.01693,-0.03669 0.03951,-0.06773 0.0254,-0.03104 0.05362,-0.05362 0.03104,-0.02258 0.06773,-0.02258 0.03669,0 0.06773,0.0254 0.03104,0.02258 0.05362,0.05644 0.0254,0.03387 0.04233,0.07056 0.01976,0.03669 0.03105,0.06491 0.04516,0.112889 0.1016,0.259645 0.05927,0.146756 0.115712,0.296335 0.05927,0.149578 0.110067,0.285045 0.0508,0.135467 0.08184,0.228601 0.0254,0.08185 0.05645,0.174978 0.03387,0.09313 0.06209,0.183445 0.02822,0.09031 0.04516,0.169334 0.01975,0.0762 0.01975,0.124178 0,0.04798 -0.03669,0.07338 -0.03387,0.0254 -0.07338,0.0254 -0.0508,0 -0.09313,-0.03387 -0.04233,-0.03669 -0.07338,-0.110067 z m -0.499535,-0.620891 q 0.06773,0 0.135467,0.0028 0.06773,0 0.135467,0.0028 -0.03387,-0.09878 -0.06773,-0.197556 -0.03387,-0.09878 -0.06491,-0.18909 -0.02822,-0.09031 -0.05362,-0.166511 -0.02258,-0.07902 -0.03951,-0.13829 -0.01129,-0.03669 -0.0254,-0.05927 -0.01411,-0.02258 -0.03669,-0.02258 -0.02258,0 -0.03669,0.0254 -0.01411,0.02258 -0.0254,0.05927 -0.03387,0.115711 -0.09596,0.301978 -0.05927,0.183445 -0.127,0.386646 0.0762,-0.0028 0.152401,-0.0028 0.0762,-0.0028 0.149578,-0.0028 z"
       style="font-style:normal;font-variant:normal;font-weight:normal;font-stretch:normal;font-size:2.82223153px;font-family:Sniglet;-inkscape-font-specification:'Sniglet, Normal';font-variant-ligatures:normal;font-variant-caps:normal;font-variant-numeric:normal;font-feature-settings:normal;text-align:start;writing-mode:lr-tb;text-anchor:start;stroke-width:0.26458421"
       id="path1073"
       inkscape:connector-curvature="0" />
    <path
       d="m 11.974446,47.419134 q -0.0056,-0.155223 -0.01129,-0.330201 -0.0028,-0.177801 -0.0028,-0.409224 l -0.561624,-0.804336 q -0.02258,-0.03104 -0.03669,-0.06491 -0.01129,-0.03387 -0.01129,-0.06491 0,-0.05362 0.02822,-0.08749 0.03104,-0.03669 0.104422,-0.03669 0.05927,0 0.104423,0.03387 0.04798,0.03104 0.08749,0.09313 l 0.420512,0.668869 0.420513,-0.668869 q 0.03951,-0.06209 0.08467,-0.09313 0.04798,-0.03387 0.107245,-0.03387 0.07338,0 0.1016,0.03669 0.03104,0.03387 0.03104,0.08749 0,0.03104 -0.01411,0.06491 -0.01129,0.03387 -0.03387,0.06491 l -0.550336,0.787403 q 0,0.191912 -0.0056,0.369712 -0.0028,0.174979 -0.01129,0.383824 -0.0028,0.06773 -0.01411,0.104422 -0.0085,0.03669 -0.0254,0.05645 -0.01693,0.01976 -0.03951,0.02258 -0.01976,0.0056 -0.04798,0.0056 -0.0508,0 -0.08467,-0.03387 -0.03387,-0.03669 -0.03951,-0.152401 z"
       style="font-style:normal;font-variant:normal;font-weight:normal;font-stretch:normal;font-size:2.82223153px;font-family:Sniglet;-inkscape-font-specification:'Sniglet, Normal';font-variant-ligatures:normal;font-variant-caps:normal;font-variant-numeric:normal;font-feature-settings:normal;text-align:start;writing-mode:lr-tb;text-anchor:start;stroke-width:0.26458421"
       id="path1075"
       inkscape:connector-curvature="0" />
  </g>
  <g
     aria-label="BPM/RATIO"
     style="font-style:normal;font-weight:normal;font-size:10.5833683px;line-height:1.25;font-family:sans-serif;letter-spacing:0px;word-spacing:0px;fill:#000000;fill-opacity:1;stroke:none;stroke-width:0.26458421"
     id="text1043-0"
     transform="translate(3.7041788,0.52916842)">
    <path
       d="m 1.7521784,32.471367 q -0.1580449,0 -0.2540008,-0.0254 -0.095956,-0.0254 -0.1495783,-0.07056 -0.0508,-0.04798 -0.070556,-0.115711 -0.016933,-0.06773 -0.0254,-0.152401 -0.00847,-0.09878 -0.014111,-0.259645 -0.00282,-0.16369 -0.00282,-0.338668 0,-0.08467 0,-0.177801 0.00282,-0.09596 0.00282,-0.186267 0.00282,-0.09313 0.00564,-0.172156 0.00282,-0.07902 0.00847,-0.135467 0.00847,-0.08749 0.028222,-0.158045 0.019756,-0.07056 0.073378,-0.121356 0.056445,-0.0508 0.1552227,-0.0762 0.1016003,-0.02822 0.268112,-0.02822 0.378179,0 0.5644463,0.141111 0.1890895,0.138289 0.1890895,0.395112 0,0.132645 -0.059267,0.245535 -0.056445,0.112889 -0.1975562,0.169333 0.079023,0.01411 0.1439338,0.05927 0.064911,0.04516 0.110067,0.110067 0.047978,0.06209 0.070556,0.141112 0.0254,0.0762 0.0254,0.155223 0,0.1016 -0.042333,0.208845 -0.042334,0.104422 -0.1439338,0.191911 -0.1016003,0.08749 -0.2709342,0.143934 -0.1665116,0.05645 -0.414868,0.05645 z m 0.5898464,-0.609602 q 0,-0.1016 -0.047978,-0.163689 -0.045156,-0.06209 -0.1185337,-0.09313 -0.073378,-0.03387 -0.1636894,-0.04516 -0.090311,-0.01129 -0.1806228,-0.01129 -0.070556,0 -0.146756,0 -0.0762,0 -0.1411116,0.0028 -0.00282,0.05927 -0.00564,0.121356 -0.00282,0.06209 -0.00564,0.118534 0,0.05362 0,0.09596 0,0.03951 0,0.05645 0,0.0762 0.011289,0.127 0.011289,0.0508 0.042334,0.08185 0.031044,0.03104 0.087489,0.04515 0.059267,0.01129 0.1495783,0.01129 0.2483563,0 0.3838235,-0.08749 0.1354671,-0.08749 0.1354671,-0.259645 z M 1.819912,30.721583 q -0.093134,0 -0.1524005,0.01693 -0.056445,0.01411 -0.087489,0.03951 -0.028222,0.0254 -0.039511,0.06209 -0.00847,0.03669 -0.00847,0.07902 v 0.395112 q 0.039511,0.0028 0.081845,0.0028 0.045156,0 0.084667,0 0.1016003,0 0.1975562,-0.01411 0.098778,-0.01411 0.1778006,-0.04798 0.079023,-0.03387 0.1270004,-0.09313 0.047978,-0.05927 0.047978,-0.152401 0,-0.127 -0.1044225,-0.206023 -0.1016004,-0.08185 -0.3245566,-0.08185 z"
       style="font-style:normal;font-variant:normal;font-weight:normal;font-stretch:normal;font-size:2.82223129px;font-family:Sniglet;-inkscape-font-specification:'Sniglet, Normal';font-variant-ligatures:normal;font-variant-caps:normal;font-variant-numeric:normal;font-feature-settings:normal;text-align:start;writing-mode:lr-tb;text-anchor:start;stroke-width:0.26458421"
       id="path1078"
       inkscape:connector-curvature="0" />
    <path
       d="m 3.16056,32.293566 q 0,0.06773 -0.014111,0.104423 -0.011289,0.03669 -0.031045,0.05644 -0.016933,0.01976 -0.042333,0.02258 -0.022578,0.0056 -0.045156,0.0056 -0.0762,0 -0.1016003,-0.03387 -0.022578,-0.03387 -0.031045,-0.1524 -0.00564,-0.06209 -0.00847,-0.180623 -0.00282,-0.118534 -0.00564,-0.282223 0,-0.16369 -0.00282,-0.361246 0,-0.197556 0,-0.41769 0,-0.104423 0.0254,-0.211668 0.0254,-0.107244 0.095956,-0.194734 0.073378,-0.08749 0.2003784,-0.141111 0.1298227,-0.05362 0.3358455,-0.05362 0.1439338,0 0.2737565,0.03104 0.1298226,0.03105 0.2286007,0.107245 0.098778,0.0762 0.158045,0.2032 0.059267,0.127001 0.059267,0.31609 0,0.197557 -0.064911,0.327379 -0.064911,0.129823 -0.183445,0.206023 -0.1185337,0.0762 -0.2822232,0.107245 -0.1636894,0.03104 -0.3584233,0.03104 -0.047978,0 -0.095956,0 -0.047978,0 -0.1072448,-0.0056 z m 0.8128026,-1.188159 q 0,-0.18909 -0.1072448,-0.285045 -0.1044226,-0.09596 -0.3499567,-0.09596 -0.093134,0 -0.1608672,0.01693 -0.064911,0.01411 -0.1072448,0.05362 -0.042333,0.03669 -0.064911,0.101601 -0.019756,0.06491 -0.019756,0.163689 0,0.09596 0,0.220134 0,0.121356 0.00282,0.228601 0.064911,0.0028 0.1439338,0.0028 0.081845,0 0.1524005,0 0.084667,0 0.1749784,-0.01129 0.093134,-0.01129 0.1665116,-0.0508 0.073378,-0.04233 0.121356,-0.121356 0.047978,-0.08184 0.047978,-0.222956 z"
       style="font-style:normal;font-variant:normal;font-weight:normal;font-stretch:normal;font-size:2.82223129px;font-family:Sniglet;-inkscape-font-specification:'Sniglet, Normal';font-variant-ligatures:normal;font-variant-caps:normal;font-variant-numeric:normal;font-feature-settings:normal;text-align:start;writing-mode:lr-tb;text-anchor:start;stroke-width:0.26458421"
       id="path1080"
       inkscape:connector-curvature="0" />
    <path
       d="M 5.2111757,31.991588 Q 5.0813531,31.706542 4.9797527,31.441252 4.8809746,31.17314 4.8104189,30.964295 q -0.064911,0.349957 -0.1100671,0.705558 -0.042333,0.355601 -0.110067,0.680158 -0.016933,0.07338 -0.062089,0.09878 -0.045156,0.02258 -0.0762,0.02258 -0.0508,0 -0.081845,-0.03104 -0.028222,-0.03104 -0.028222,-0.07902 0,-0.06491 0.014111,-0.197556 0.016933,-0.135467 0.039511,-0.304801 0.0254,-0.169334 0.056445,-0.355601 0.031045,-0.186268 0.062089,-0.358424 0.033867,-0.174978 0.062089,-0.31609 0.031045,-0.141111 0.053622,-0.217312 0.036689,-0.129822 0.1495782,-0.129822 0.067734,0 0.1157115,0.06773 0.047978,0.06491 0.1016003,0.203201 0.056445,0.135467 0.1326449,0.344312 0.079023,0.208845 0.2032006,0.491068 0.121356,-0.282223 0.194734,-0.488246 0.0762,-0.208845 0.1270004,-0.344312 0.053622,-0.138289 0.1016003,-0.2032 0.047978,-0.06773 0.1185338,-0.06773 0.064911,0 0.098778,0.03387 0.033867,0.03104 0.0508,0.09596 0.019756,0.07902 0.047978,0.220134 0.028222,0.138289 0.059267,0.310445 0.033867,0.169334 0.064911,0.355601 0.031045,0.186268 0.056445,0.355601 0.0254,0.169334 0.039511,0.307624 0.016933,0.135467 0.016933,0.208845 0,0.04516 -0.031045,0.07338 -0.031044,0.0254 -0.079022,0.0254 -0.031045,0 -0.0762,-0.02258 -0.045156,-0.0254 -0.062089,-0.09878 -0.033867,-0.160867 -0.062089,-0.333023 -0.0254,-0.172156 -0.0508,-0.347135 -0.022578,-0.1778 -0.045156,-0.352779 -0.022578,-0.1778 -0.047978,-0.352779 -0.036689,0.11289 -0.084667,0.248357 -0.047978,0.135467 -0.1016003,0.273756 -0.053622,0.135467 -0.110067,0.268112 -0.056445,0.132645 -0.1100671,0.23989 -0.019756,0.03669 -0.053622,0.05644 -0.031045,0.01693 -0.064911,0.01693 -0.036689,0 -0.070556,-0.01693 -0.031045,-0.01976 -0.047978,-0.05927 z"
       style="font-style:normal;font-variant:normal;font-weight:normal;font-stretch:normal;font-size:2.82223129px;font-family:Sniglet;-inkscape-font-specification:'Sniglet, Normal';font-variant-ligatures:normal;font-variant-caps:normal;font-variant-numeric:normal;font-feature-settings:normal;text-align:start;writing-mode:lr-tb;text-anchor:start;stroke-width:0.26458421"
       id="path1082"
       inkscape:connector-curvature="0" />
    <path
       d="m 6.5583061,32.299211 q 0.033867,-0.112889 0.079022,-0.262468 0.045156,-0.1524 0.098778,-0.327379 0.056445,-0.1778 0.1185337,-0.372534 0.064911,-0.194734 0.1298226,-0.397935 0.056445,-0.172156 0.098778,-0.299156 0.045156,-0.129823 0.081845,-0.211668 0.039511,-0.08184 0.073378,-0.121356 0.036689,-0.04233 0.079022,-0.04233 0.042334,0 0.0762,0.02822 0.036689,0.02822 0.036689,0.08749 0,0.01976 -0.00282,0.04233 -0.00282,0.02258 -0.011289,0.05362 -0.1326449,0.468491 -0.2878676,0.94827 -0.1552227,0.476957 -0.3302011,0.951092 -0.033867,0.09031 -0.064911,0.121356 -0.031044,0.03104 -0.062089,0.03104 -0.0508,0 -0.090311,-0.02822 -0.039511,-0.02822 -0.039511,-0.09313 0,-0.03951 0.016933,-0.107245 z"
       style="font-style:normal;font-variant:normal;font-weight:normal;font-stretch:normal;font-size:2.82223129px;font-family:Sniglet;-inkscape-font-specification:'Sniglet, Normal';font-variant-ligatures:normal;font-variant-caps:normal;font-variant-numeric:normal;font-feature-settings:normal;text-align:start;writing-mode:lr-tb;text-anchor:start;stroke-width:0.26458421"
       id="path1084"
       inkscape:connector-curvature="0" />
    <path
       d="m 8.3258608,31.777098 q -0.039511,0.0028 -0.081845,0.0056 -0.039511,0 -0.081845,0 -0.047978,0 -0.095956,0 -0.047978,0 -0.1072448,-0.0056 v 0.572913 q 0,0.09031 -0.045156,0.112889 -0.042333,0.01976 -0.1072448,0.01976 -0.033867,0 -0.053622,-0.0056 -0.019756,-0.0028 -0.033867,-0.01411 -0.011289,-0.01411 -0.019756,-0.03951 -0.00564,-0.0254 -0.00847,-0.07056 -0.00564,-0.0508 -0.00847,-0.146756 -0.00282,-0.09878 -0.00564,-0.254001 0,-0.155222 -0.00282,-0.375356 0,-0.222957 0,-0.522113 0,-0.115712 0.028222,-0.222956 0.028222,-0.110068 0.1016003,-0.191912 0.073378,-0.08467 0.1975562,-0.135467 0.1270004,-0.0508 0.3217343,-0.0508 0.1382894,0 0.268112,0.03104 0.1326449,0.03105 0.2342452,0.107245 0.1016003,0.0762 0.1636894,0.206023 0.062089,0.129822 0.062089,0.324556 0,0.259646 -0.1128892,0.403579 -0.1100671,0.141112 -0.304801,0.200379 l 0.378179,0.51929 q 0.0508,0.06773 0.0508,0.13829 0,0.05644 -0.039511,0.08749 -0.036689,0.03387 -0.093134,0.03387 -0.062089,0 -0.1072448,-0.03387 -0.045156,-0.03669 -0.084667,-0.09313 z m 0.4430903,-0.65758 q 0,-0.194734 -0.1185337,-0.287867 -0.1157115,-0.09596 -0.3697123,-0.09596 -0.093134,0 -0.1552228,0.01693 -0.062089,0.01411 -0.098778,0.05645 -0.036689,0.04233 -0.053622,0.118533 -0.014111,0.07338 -0.014111,0.18909 0,0.08184 0,0.191912 0,0.110067 0.00282,0.200378 0.064911,0.0028 0.1439338,0.0028 0.081845,0 0.1524005,0 0.079022,0 0.1665117,-0.0085 0.090311,-0.01129 0.1665116,-0.0508 0.0762,-0.04233 0.1270004,-0.118533 0.0508,-0.07902 0.0508,-0.21449 z"
       style="font-style:normal;font-variant:normal;font-weight:normal;font-stretch:normal;font-size:2.82223129px;font-family:Sniglet;-inkscape-font-specification:'Sniglet, Normal';font-variant-ligatures:normal;font-variant-caps:normal;font-variant-numeric:normal;font-feature-settings:normal;text-align:start;writing-mode:lr-tb;text-anchor:start;stroke-width:0.26458421"
       id="path1086"
       inkscape:connector-curvature="0" />
    <path
       d="m 10.499067,32.327433 q -0.02822,-0.06773 -0.06209,-0.155223 -0.03105,-0.09031 -0.06773,-0.189089 -0.08467,0.0028 -0.1778,0.0056 -0.09313,0 -0.18909,0 -0.1213556,0 -0.2201337,0 -0.098778,0 -0.1806228,-0.0028 -0.033867,0.09878 -0.064911,0.186267 -0.031045,0.08749 -0.059267,0.155223 -0.056445,0.143934 -0.1636894,0.143934 -0.039511,0 -0.0762,-0.0254 -0.033867,-0.0254 -0.033867,-0.07338 0,-0.04798 0.016933,-0.124178 0.016933,-0.07902 0.042334,-0.166512 0.028222,-0.09031 0.059267,-0.183445 0.031045,-0.09596 0.059267,-0.177801 0.028222,-0.09031 0.079023,-0.2286 0.053622,-0.141112 0.1128893,-0.293512 0.059267,-0.152401 0.1185337,-0.299157 0.059267,-0.149578 0.1072448,-0.259645 0.011289,-0.02822 0.028222,-0.06209 0.016933,-0.03669 0.039511,-0.06773 0.0254,-0.03104 0.053622,-0.05362 0.031044,-0.02258 0.067734,-0.02258 0.036689,0 0.067734,0.0254 0.03104,0.02258 0.05362,0.05645 0.0254,0.03387 0.04233,0.07055 0.01975,0.03669 0.03104,0.06491 0.04516,0.112889 0.1016,0.259645 0.05927,0.146756 0.115712,0.296334 0.05927,0.149579 0.110067,0.285046 0.0508,0.135467 0.08184,0.2286 0.0254,0.08185 0.05644,0.174979 0.03387,0.09313 0.06209,0.183445 0.02822,0.09031 0.04516,0.169334 0.01976,0.0762 0.01976,0.124178 0,0.04798 -0.03669,0.07338 -0.03387,0.0254 -0.07338,0.0254 -0.0508,0 -0.09313,-0.03387 -0.04233,-0.03669 -0.07338,-0.110067 z M 9.9995321,31.706542 q 0.067734,0 0.1354669,0.0028 0.06773,0 0.135467,0.0028 -0.03387,-0.09878 -0.06773,-0.197557 -0.03387,-0.09878 -0.06491,-0.189089 -0.02822,-0.09031 -0.05362,-0.166512 -0.02258,-0.07902 -0.03951,-0.138289 -0.01129,-0.03669 -0.0254,-0.05927 -0.01411,-0.02258 -0.036689,-0.02258 -0.022578,0 -0.036689,0.0254 -0.014111,0.02258 -0.0254,0.05927 -0.033867,0.115712 -0.095956,0.301979 -0.059267,0.183445 -0.1270004,0.386646 0.0762,-0.0028 0.1524005,-0.0028 0.0762,-0.0028 0.1495783,-0.0028 z"
       style="font-style:normal;font-variant:normal;font-weight:normal;font-stretch:normal;font-size:2.82223129px;font-family:Sniglet;-inkscape-font-specification:'Sniglet, Normal';font-variant-ligatures:normal;font-variant-caps:normal;font-variant-numeric:normal;font-feature-settings:normal;text-align:start;writing-mode:lr-tb;text-anchor:start;stroke-width:0.26458421"
       id="path1088"
       inkscape:connector-curvature="0" />
    <path
       d="m 11.875125,30.75545 q -0.07902,0.0056 -0.169334,0.0085 -0.08749,0.0028 -0.194734,0.0056 0.0028,0.0762 0.0056,0.143934 0.0028,0.06491 0.0056,0.132645 0.0028,0.06773 0.0028,0.141112 0.0028,0.07338 0.0028,0.163689 0,0.127 0,0.245534 0,0.115712 -0.0028,0.234245 -0.0028,0.115712 -0.0056,0.234246 -0.0028,0.118533 -0.0085,0.245534 -0.0028,0.06773 -0.01411,0.104422 -0.0085,0.03669 -0.0254,0.05645 -0.01693,0.01976 -0.03951,0.02258 -0.02258,0.0056 -0.0508,0.0056 -0.0508,0 -0.08749,-0.03387 -0.03387,-0.03669 -0.03951,-0.1524 -0.0056,-0.1016 -0.0085,-0.21449 0,-0.112889 -0.0028,-0.242712 -0.0028,-0.129822 -0.0028,-0.2794 0,-0.152401 0,-0.335846 0,-0.155223 0,-0.270934 0.0028,-0.115712 0.0085,-0.200379 h -0.115712 q -0.118534,0 -0.203201,-0.0028 -0.08184,-0.0028 -0.135467,-0.01411 -0.05362,-0.01411 -0.07902,-0.04233 -0.02258,-0.02822 -0.02258,-0.07902 0,-0.0254 0.0056,-0.04516 0.0056,-0.02258 0.0254,-0.03951 0.01975,-0.01975 0.05362,-0.03104 0.03669,-0.01129 0.09313,-0.01693 0.05362,-0.0028 0.09596,-0.0056 0.04233,-0.0028 0.08467,-0.0056 0.04233,-0.0028 0.08749,-0.0028 0.04516,0 0.104422,0 0.166512,0 0.313268,0.0028 0.149578,0.0028 0.31609,0.01129 0.06773,0.0056 0.104422,0.01693 0.03669,0.0085 0.05645,0.0254 0.01975,0.01693 0.02258,0.03951 0.0056,0.02258 0.0056,0.0508 0,0.0508 -0.03669,0.08467 -0.03387,0.03387 -0.149578,0.03951 z"
       style="font-style:normal;font-variant:normal;font-weight:normal;font-stretch:normal;font-size:2.82223129px;font-family:Sniglet;-inkscape-font-specification:'Sniglet, Normal';font-variant-ligatures:normal;font-variant-caps:normal;font-variant-numeric:normal;font-feature-settings:normal;text-align:start;writing-mode:lr-tb;text-anchor:start;stroke-width:0.26458421"
       id="path1090"
       inkscape:connector-curvature="0" />
    <path
       d="m 12.357507,32.296389 q -0.0056,-0.101601 -0.0085,-0.211668 0,-0.110067 -0.0028,-0.237067 -0.0028,-0.127001 -0.0028,-0.273757 0,-0.149578 0,-0.333023 0,-0.200378 0.0028,-0.34149 0.0028,-0.143934 0.01693,-0.234245 0.01411,-0.09031 0.04233,-0.132645 0.03105,-0.04233 0.08185,-0.04233 0.0254,0 0.04798,0.0056 0.02258,0.0056 0.03951,0.0254 0.01693,0.01693 0.02822,0.05362 0.01411,0.03387 0.01693,0.09031 0.0056,0.1016 0.0085,0.180623 0.0028,0.07902 0.0056,0.158045 0.0028,0.0762 0.0028,0.160867 0,0.08184 0,0.186267 0,0.127 0,0.242712 0,0.115711 -0.0028,0.228601 -0.0028,0.112889 -0.0056,0.2286 -0.0028,0.115712 -0.0085,0.242712 -0.0028,0.06773 -0.01411,0.104423 -0.01129,0.03669 -0.02822,0.05644 -0.01693,0.01976 -0.03951,0.02258 -0.02258,0.0056 -0.0508,0.0056 -0.0508,0 -0.08749,-0.03387 -0.03669,-0.03669 -0.04233,-0.1524 z"
       style="font-style:normal;font-variant:normal;font-weight:normal;font-stretch:normal;font-size:2.82223129px;font-family:Sniglet;-inkscape-font-specification:'Sniglet, Normal';font-variant-ligatures:normal;font-variant-caps:normal;font-variant-numeric:normal;font-feature-settings:normal;text-align:start;writing-mode:lr-tb;text-anchor:start;stroke-width:0.26458421"
       id="path1092"
       inkscape:connector-curvature="0" />
    <path
       d="m 13.760552,32.499589 q -0.169334,0 -0.318912,-0.06773 -0.146756,-0.06773 -0.256823,-0.194734 -0.110067,-0.129823 -0.174978,-0.31609 -0.06209,-0.186267 -0.06209,-0.423335 0,-0.222956 0.05362,-0.409223 0.05645,-0.186268 0.163689,-0.321735 0.110067,-0.135467 0.270935,-0.208845 0.160867,-0.0762 0.372534,-0.0762 0.172156,0 0.327379,0.06209 0.155223,0.06209 0.270934,0.186267 0.118534,0.124178 0.186267,0.310446 0.06773,0.186267 0.06773,0.434623 0,0.206023 -0.05645,0.39229 -0.05362,0.186268 -0.166511,0.327379 -0.110067,0.13829 -0.279401,0.222956 -0.169334,0.08185 -0.397935,0.08185 z m 0.0056,-0.26529 q 0.155222,0 0.270934,-0.06209 0.115711,-0.06491 0.191912,-0.169334 0.0762,-0.104422 0.112889,-0.239889 0.03669,-0.13829 0.03669,-0.282223 0,-0.174979 -0.04798,-0.310446 -0.04516,-0.138289 -0.124178,-0.231423 -0.07902,-0.09313 -0.183445,-0.141111 -0.104423,-0.0508 -0.222957,-0.0508 -0.141111,0 -0.248356,0.05927 -0.104422,0.05927 -0.1778,0.160868 -0.07056,0.1016 -0.107245,0.239889 -0.03669,0.135467 -0.03669,0.29069 0,0.166512 0.04233,0.304801 0.04233,0.135467 0.112889,0.231423 0.07338,0.09596 0.172157,0.149578 0.09878,0.0508 0.208845,0.0508 z"
       style="font-style:normal;font-variant:normal;font-weight:normal;font-stretch:normal;font-size:2.82223129px;font-family:Sniglet;-inkscape-font-specification:'Sniglet, Normal';font-variant-ligatures:normal;font-variant-caps:normal;font-variant-numeric:normal;font-feature-settings:normal;text-align:start;writing-mode:lr-tb;text-anchor:start;stroke-width:0.26458421"
       id="path1094"
       inkscape:connector-curvature="0" />
  </g>
</svg>
