<svg xmlns="http://www.w3.org/2000/svg" width="435" height="380" viewBox="0 0 115.094 100.542"><path d="M0 .001h115.094v100.541H0zm0 0" fill="#dcdcdc"/><g word-spacing="0" letter-spacing="0" font-weight="400" fill="#333"><g style="line-height:1.25"><path aria-label="♫" font-size="3.528" d="M66.176 96.87l-1.631.115v-2.06q0-.23.065-.333.064-.104.22-.147.153-.043.348-.002.223.047.356.19.134.146.134.33 0 .186-.158.286-.158.103-.408.05-.082-.018-.143-.044-.064-.027-.205-.11v1.345l1.219-.085v-1.554q0-.225.065-.337.066-.11.226-.151.16-.04.348 0 .223.047.354.19.13.14.13.325 0 .195-.156.294-.156.1-.408.047-.16-.034-.356-.16z" style="-inkscape-font-specification:'Arial, Normal';font-variant-ligatures:normal;font-variant-caps:normal;font-variant-numeric:normal;font-feature-settings:normal;text-align:start" font-family="Arial"/></g><g style="line-height:1.25"><path font-size="3.528" aria-label="IMPROMPT" style="-inkscape-font-specification:'Sniglet, Normal';font-variant-ligatures:normal;font-variant-caps:normal;font-variant-numeric:normal;font-feature-settings:normal;text-align:start" d="M48.157 96.698q-.007-.127-.01-.265 0-.137-.004-.296-.003-.159-.003-.342v-.417q0-.25.003-.426.004-.18.02-.293.019-.113.054-.166.04-.053.103-.053.03 0 .06.007.028.007.049.032.02.02.035.067.018.042.02.113.009.127.012.225l.007.198q.004.095.004.201v.536q0 .145-.004.286l-.007.286-.01.303q-.004.085-.018.13-.014.047-.036.071-.02.025-.05.028-.027.007-.062.007-.064 0-.11-.042-.046-.046-.053-.19zm1.754-.381q-.162-.357-.29-.688-.123-.335-.21-.596-.082.437-.138.882-.053.444-.138.85-.021.092-.078.123-.056.028-.095.028-.063 0-.102-.038-.035-.04-.035-.1 0-.08.017-.246.02-.17.05-.381.03-.212.07-.445.039-.232.078-.448l.077-.395q.04-.176.067-.271.046-.163.187-.163.085 0 .145.085.06.081.127.254.07.17.166.43.099.262.254.614.15-.352.243-.61.095-.261.159-.43.067-.173.127-.254.06-.085.148-.085.08 0 .124.042.042.039.063.12.025.099.06.275.035.173.074.388.042.212.08.445.04.233.07.444.034.212.05.385.022.17.022.261 0 .056-.038.092-.04.031-.1.031-.038 0-.094-.028-.057-.032-.078-.123-.042-.201-.078-.417l-.063-.433-.057-.441q-.028-.223-.06-.441-.045.14-.105.31-.06.17-.127.342-.067.17-.138.335-.07.166-.138.3-.024.046-.067.07-.038.022-.08.022-.047 0-.09-.021-.038-.025-.06-.074zm2.005.377q0 .085-.018.13-.014.047-.038.071-.022.025-.053.029-.03.007-.057.007-.095 0-.127-.043-.028-.042-.04-.19-.006-.078-.01-.226l-.006-.353q0-.204-.004-.451v-.522q0-.131.032-.265t.12-.243q.092-.11.25-.177.163-.067.42-.067.18 0 .342.039.163.039.286.134.124.095.198.254.074.159.074.395 0 .247-.081.41-.082.162-.23.257-.148.095-.352.134-.205.039-.448.039h-.12q-.06 0-.134-.007zm1.016-1.485q0-.236-.134-.356-.13-.12-.437-.12-.117 0-.202.021-.08.018-.134.067-.053.046-.08.127-.025.081-.025.205v.275q0 .151.003.286.08.004.18.004h.19q.106 0 .22-.015.116-.014.207-.063.092-.053.152-.152.06-.102.06-.278zm1.45.84l-.101.007h-.222q-.06 0-.134-.007v.716q0 .113-.057.14-.053.026-.134.026-.042 0-.067-.007-.025-.004-.042-.018-.014-.018-.025-.05-.007-.031-.01-.088-.008-.063-.011-.183-.004-.123-.007-.318 0-.194-.004-.469v-.652q0-.145.036-.279.035-.138.127-.24.09-.106.246-.17.16-.063.403-.063.173 0 .335.039.166.039.293.134.127.095.204.258.078.162.078.405 0 .325-.141.505-.138.176-.381.25l.472.65q.064.084.064.172 0 .07-.05.11-.045.042-.116.042-.077 0-.134-.042-.056-.046-.106-.117zm.555-.822q0-.244-.148-.36-.145-.12-.462-.12-.117 0-.194.021-.078.018-.124.07-.046.054-.067.149-.017.091-.017.236v.24q0 .138.003.25.08.005.18.005h.19q.1 0 .209-.011.113-.014.208-.064.095-.052.159-.148.063-.099.063-.268zm1.609 1.725q-.211 0-.398-.085-.184-.085-.321-.243-.138-.163-.22-.395-.077-.233-.077-.53 0-.278.067-.511.07-.233.205-.402.138-.17.339-.261.2-.096.465-.096.216 0 .41.078.194.078.338.233.148.155.233.388.085.233.085.543 0 .258-.07.49-.068.233-.21.41-.137.173-.35.278-.21.103-.496.103zm.007-.332q.194 0 .34-.077.144-.082.239-.212t.14-.3q.047-.173.047-.353 0-.218-.06-.388-.056-.173-.155-.29-.1-.115-.23-.175-.13-.064-.278-.064-.177 0-.31.074-.131.074-.223.201-.088.127-.134.3-.046.17-.046.363 0 .209.053.381.053.17.14.29.093.12.216.187.124.063.26.063zm2.384-.303q-.162-.357-.29-.688-.123-.335-.211-.596-.08.437-.137.882-.053.444-.138.85-.021.092-.077.123-.057.028-.096.028-.063 0-.102-.038-.035-.04-.035-.1 0-.08.017-.246.02-.17.05-.381.03-.212.07-.445l.078-.448.077-.395q.04-.176.068-.271.045-.163.186-.163.085 0 .145.085.06.081.127.254.07.17.166.43.099.262.254.614.152-.352.243-.61.096-.261.16-.43.066-.173.126-.254.06-.085.148-.085.08 0 .124.042.042.039.063.12.025.099.06.275.035.173.074.388.043.212.08.445.04.233.072.444.032.212.05.385.02.17.02.261 0 .056-.038.092-.04.031-.1.031-.038 0-.094-.028-.057-.032-.078-.123-.042-.201-.078-.417l-.063-.433-.056-.441-.06-.441q-.046.14-.106.31-.06.17-.127.342-.067.17-.138.335-.07.166-.137.3-.025.046-.067.07-.04.022-.082.022-.045 0-.088-.021-.04-.025-.06-.074zm2.006.377q0 .085-.018.13-.015.047-.04.071-.02.025-.052.029-.028.007-.057.007-.095 0-.127-.043-.028-.042-.038-.19-.008-.078-.011-.226-.004-.148-.007-.353 0-.204-.004-.451v-.522q0-.131.032-.265t.12-.243q.092-.11.25-.177.163-.067.42-.067.18 0 .343.039.162.039.285.134.124.095.198.254.074.159.074.395 0 .247-.081.41-.081.162-.23.257-.148.095-.352.134-.205.039-.448.039h-.12q-.06 0-.134-.007zm1.015-1.485q0-.236-.134-.356-.13-.12-.437-.12-.117 0-.201.021-.082.018-.134.067-.053.046-.082.127-.024.081-.024.205v.275q0 .151.003.286.08.004.18.004h.19q.106 0 .22-.015.116-.014.207-.063.092-.053.152-.152.06-.102.06-.278zm1.975-.437q-.1.007-.212.01l-.244.007.007.18.007.166q.004.085.004.176.003.092.003.205v.307q0 .144-.003.293l-.007.292-.01.307q-.004.085-.018.13-.011.047-.032.072-.021.024-.05.028-.028.007-.063.007-.064 0-.11-.043-.042-.045-.05-.19-.006-.127-.01-.268 0-.141-.003-.304-.003-.162-.003-.349v-.758q.003-.145.01-.25h-.145q-.148 0-.254-.005-.102-.004-.17-.017-.066-.018-.098-.053-.028-.036-.028-.1 0-.03.007-.055.007-.029.032-.05.025-.025.067-.039.046-.014.116-.02l.12-.008.106-.007q.053-.004.11-.004h.13q.208 0 .392.004.187.004.395.014.084.007.13.021.046.011.07.032.026.021.03.05.006.028.006.063 0 .064-.046.106-.042.042-.187.05z" font-family="Sniglet"/></g></g><rect rx="2.34" ry="2.34" y="39.765" x="88.9" height="52.005" width="22.754" fill="#999" paint-order="stroke markers fill"/><rect ry=".845" rx=".845" y="26.194" x="19.05" height="10.583" width="10.583" fill="#a0a0a0" stroke="#646464" stroke-width=".529" paint-order="stroke markers fill"/><g style="line-height:1.25"><path d="M51.952 3.532q.14 0 .279.026.144.02.258.072.115.046.187.118.076.068.076.161 0 .097-.051.148-.05.05-.127.05-.072 0-.127-.02-.055-.026-.127-.055-.068-.03-.165-.051-.098-.025-.258-.025-.161 0-.31.084-.143.08-.253.229-.106.144-.17.343-.063.199-.063.432 0 .287.072.495.076.207.194.343.119.13.267.199.153.063.305.063.182 0 .305-.038t.207-.085q.09-.046.153-.084.063-.038.122-.038.072 0 .115.042.042.038.042.14 0 .084-.068.173-.063.085-.19.157-.123.068-.297.114-.173.043-.39.043-.236 0-.473-.094-.233-.093-.42-.275-.181-.186-.296-.461-.114-.28-.114-.648t.102-.656q.106-.288.283-.487.182-.203.42-.309.24-.106.512-.106zm2.462 2.828q-.055.102-.102.148-.042.047-.11.047t-.118-.047q-.051-.046-.11-.144-.077-.127-.174-.351-.093-.224-.19-.487-.098-.267-.191-.55-.093-.284-.17-.534-.071-.25-.118-.436-.042-.19-.042-.27 0-.085.034-.128.034-.042.13-.042.056 0 .094.03.042.025.106.152.05.097.11.254t.123.347q.067.19.135.402l.136.415.127.398q.059.19.11.343.05-.157.114-.347.063-.195.131-.398l.136-.415q.067-.211.135-.398l.127-.343q.06-.156.106-.258.06-.123.102-.152.046-.03.093-.03.097 0 .13.05.039.047.039.14 0 .085-.025.204-.026.118-.09.317-.059.195-.16.487l-.25.716q-.038.114-.089.237-.046.122-.097.24-.047.115-.093.221-.047.106-.09.182zm2.648-.889q-.195.009-.45.017-.253.004-.6.004-.144 0-.246-.004-.101-.004-.165-.021-.063-.021-.093-.064-.03-.042-.03-.118 0-.038.009-.068.008-.034.038-.06.03-.025.08-.042.055-.02.14-.03.064-.003.11-.008.05-.004.097-.004.047-.004.098-.004h.127q.228 0 .44.004.212 0 .44.013.102.008.157.025.055.013.085.038.03.026.034.06.008.033.008.076 0 .076-.055.127-.05.05-.224.06zm1.043.792q0 .101-.021.156-.017.055-.047.085-.025.03-.063.034-.034.008-.068.008-.114 0-.152-.05-.034-.051-.047-.23-.008-.092-.013-.27l-.008-.423q0-.246-.004-.542v-.627q0-.156.038-.317t.144-.292q.11-.132.3-.212.195-.08.504-.08.216 0 .41.046.195.047.344.161.148.114.237.305.088.19.088.474 0 .296-.097.491t-.275.309q-.178.114-.423.16-.246.047-.538.047h-.144q-.072 0-.16-.008zm1.22-1.783q0-.283-.162-.427-.156-.144-.525-.144-.14 0-.241.025-.097.022-.16.08-.064.056-.098.153-.03.098-.03.246v.33q0 .182.004.343.098.004.216.004h.229q.127 0 .262-.017.14-.017.25-.076.11-.064.182-.182.072-.123.072-.335zm2.412 1.834q-.042-.102-.093-.233-.046-.136-.101-.284l-.267.009h-.614q-.148 0-.27-.005l-.098.28q-.047.13-.089.233-.085.215-.246.215-.059 0-.114-.038-.05-.038-.05-.11 0-.072.025-.186.025-.119.063-.25.043-.135.09-.275.046-.144.088-.267.042-.135.119-.343l.169-.44q.089-.228.178-.449.089-.224.16-.389.017-.042.043-.093.025-.055.06-.102.037-.046.08-.08.046-.034.101-.034.055 0 .102.038.046.034.08.085.038.05.064.106.03.055.046.097.068.17.153.39.089.22.173.444.09.224.165.427.077.204.123.343.038.123.085.263.05.14.093.275.042.135.068.254.03.114.03.186t-.056.11q-.05.038-.11.038-.076 0-.14-.05-.063-.055-.11-.165zm-.749-.932q.102 0 .203.004.102 0 .204.005l-.102-.297-.097-.283-.08-.25-.06-.208q-.017-.055-.038-.088-.021-.034-.055-.034t-.055.038q-.021.034-.038.089-.051.173-.144.453l-.19.58q.113-.005.228-.005.114-.004.224-.004zm2.332-1.846q.436 0 .699.132.262.13.402.347.14.216.182.49.047.276.047.56 0 .309-.08.584-.077.275-.242.482-.161.204-.415.326-.254.119-.605.119-.28 0-.45-.042-.164-.038-.257-.119-.09-.08-.119-.203-.03-.123-.03-.288V4.332q0-.182.03-.33.034-.148.127-.25.093-.105.263-.16.173-.056.448-.056zm.017 2.617q.263 0 .432-.093.174-.098.275-.254.102-.157.14-.356.042-.2.042-.406 0-.191-.03-.381-.03-.195-.122-.352-.093-.156-.267-.254-.174-.097-.461-.097-.263 0-.364.076-.102.076-.102.233V5.89q0 .131.093.2.097.063.364.063z" style="-inkscape-font-specification:'Sniglet, Normal';font-variant-ligatures:normal;font-variant-caps:normal;font-variant-numeric:normal;font-feature-settings:normal;text-align:start" aria-label="CV-PAD" font-weight="400" font-size="4.233" font-family="Sniglet" letter-spacing="0" word-spacing="0" stroke-width=".265"/></g><rect ry=".845" rx=".845" y="44.186" x="19.05" height="10.583" width="10.583" fill="#a0a0a0" stroke="#646464" stroke-width=".529" paint-order="stroke markers fill"/><rect ry=".845" rx=".845" y="62.177" x="19.05" height="10.583" width="10.583" fill="#a0a0a0" stroke="#646464" stroke-width=".529" paint-order="stroke markers fill"/><rect ry=".845" rx=".845" y="80.169" x="19.05" height="10.583" width="10.583" fill="#a0a0a0" stroke="#646464" stroke-width=".529" paint-order="stroke markers fill"/><rect ry=".845" rx=".845" y="26.194" x="37.042" height="10.583" width="10.583" fill="#a0a0a0" stroke="#646464" stroke-width=".529" paint-order="stroke markers fill"/><rect ry=".845" rx=".845" y="44.186" x="37.042" height="10.583" width="10.583" fill="#a0a0a0" stroke="#646464" stroke-width=".529" paint-order="stroke markers fill"/><rect ry=".845" rx=".845" y="62.177" x="37.042" height="10.583" width="10.583" fill="#a0a0a0" stroke="#646464" stroke-width=".529" paint-order="stroke markers fill"/><rect ry=".845" rx=".845" y="80.169" x="37.042" height="10.583" width="10.583" fill="#a0a0a0" stroke="#646464" stroke-width=".529" paint-order="stroke markers fill"/><rect ry=".845" rx=".845" y="26.194" x="55.034" height="10.583" width="10.583" fill="#a0a0a0" stroke="#646464" stroke-width=".529" paint-order="stroke markers fill"/><rect ry=".845" rx=".845" y="44.186" x="55.034" height="10.583" width="10.583" fill="#a0a0a0" stroke="#646464" stroke-width=".529" paint-order="stroke markers fill"/><rect ry=".845" rx=".845" y="62.177" x="55.034" height="10.583" width="10.583" fill="#a0a0a0" stroke="#646464" stroke-width=".529" paint-order="stroke markers fill"/><rect ry=".845" rx=".845" y="80.169" x="55.034" height="10.583" width="10.583" fill="#a0a0a0" stroke="#646464" stroke-width=".529" paint-order="stroke markers fill"/><rect ry=".845" rx=".845" y="26.194" x="73.025" height="10.583" width="10.583" fill="#a0a0a0" stroke="#646464" stroke-width=".529" paint-order="stroke markers fill"/><rect ry=".845" rx=".845" y="44.186" x="73.025" height="10.583" width="10.583" fill="#a0a0a0" stroke="#646464" stroke-width=".529" paint-order="stroke markers fill"/><rect ry=".845" rx=".845" y="62.177" x="73.025" height="10.583" width="10.583" fill="#a0a0a0" stroke="#646464" stroke-width=".529" paint-order="stroke markers fill"/><rect ry=".845" rx=".845" y="80.169" x="73.025" height="10.583" width="10.583" fill="#a0a0a0" stroke="#646464" stroke-width=".529" paint-order="stroke markers fill"/><g style="line-height:1.25"><path d="M94.042 42.928q.093 0 .186.017.096.014.173.048.076.03.124.079.05.045.05.107 0 .065-.033.099-.034.034-.085.034-.048 0-.085-.015l-.084-.036q-.046-.02-.11-.034-.065-.017-.173-.017-.107 0-.206.056-.096.054-.169.153-.07.096-.113.228-.042.133-.042.288 0 .192.048.33.05.139.13.23.079.087.177.132.102.042.204.042.121 0 .203-.025.082-.026.138-.057.06-.03.102-.056.042-.026.082-.026.048 0 .076.029.028.025.028.093 0 .056-.045.115-.043.057-.127.105-.082.045-.198.076-.116.028-.26.028-.158 0-.316-.062-.155-.062-.279-.183-.121-.124-.198-.308-.076-.186-.076-.432 0-.245.068-.437.07-.192.19-.325.12-.135.278-.206.161-.07.342-.07zm1.642 1.885q-.037.068-.068.099-.028.03-.073.03-.046 0-.08-.03-.033-.031-.073-.096-.05-.085-.116-.234-.062-.15-.127-.325-.064-.178-.127-.367-.062-.189-.112-.355-.048-.167-.08-.291-.028-.127-.028-.18 0-.057.023-.085.023-.029.087-.029.037 0 .063.02.028.017.07.102.034.065.073.169.04.104.082.231.046.127.09.269l.09.276q.046.138.086.265l.073.229.076-.231.088-.266.09-.276q.045-.141.09-.266l.085-.228q.04-.105.07-.172.04-.082.068-.102.031-.02.062-.02.065 0 .088.034.025.031.025.093 0 .057-.017.136-.016.079-.059.211-.04.13-.107.325l-.167.477q-.025.076-.059.158-.03.082-.065.16-.03.077-.062.148-.031.07-.06.121z" style="-inkscape-font-specification:'Sniglet, Normal';font-variant-ligatures:normal;font-variant-caps:normal;font-variant-numeric:normal;font-feature-settings:normal;text-align:start" aria-label="CV" font-weight="400" font-size="2.822" font-family="Sniglet" letter-spacing="0" word-spacing="0" stroke-width=".265"/></g><g style="line-height:1.25"><path d="M103.471 42.84q.093 0 .192.017t.18.051q.082.031.136.079.054.048.054.11 0 .065-.034.099t-.085.034q-.048 0-.09-.017l-.09-.037q-.051-.02-.122-.037-.07-.016-.178-.016-.118 0-.223.056-.101.054-.18.152-.08.096-.125.229t-.045.288q0 .189.048.327.048.139.125.229.079.09.175.135.098.043.197.043.161 0 .254-.046.096-.048.152-.12.003-.06.003-.142v-.178q0-.037-.006-.056-.006-.023-.028-.034-.022-.011-.067-.014-.043-.003-.116-.003-.09 0-.147-.023-.056-.025-.056-.104 0-.056.028-.09.03-.037.124-.043h.054q.04-.002.082-.002h.155q.084 0 .135.016.051.015.09.068.02.028.023.099.006.07.006.164v.728q0 .076-.042.113-.04.036-.093.036-.065 0-.108-.034-.04-.03-.04-.101v-.11q-.072.085-.174.121-.099.037-.251.037-.155 0-.305-.062t-.265-.184q-.116-.124-.19-.307-.07-.187-.07-.432 0-.246.07-.438.074-.191.198-.324.124-.136.29-.206.167-.07.36-.07zm2.113 1.854q-.028-.067-.062-.155-.03-.09-.068-.189l-.177.006h-.41q-.098 0-.18-.003l-.065.186q-.031.088-.06.155-.056.144-.163.144-.04 0-.076-.025-.034-.025-.034-.073 0-.048.017-.125.017-.079.042-.166.028-.09.06-.184.03-.095.059-.177.028-.09.079-.229l.112-.293.119-.3q.06-.15.107-.26l.028-.061q.017-.037.04-.068.025-.031.054-.054.03-.022.067-.022.037 0 .068.025.031.023.054.057.025.033.042.07.02.037.03.065.046.113.102.26.06.146.116.296.06.15.11.285.051.136.082.229l.057.175q.033.093.062.183.028.09.045.17.02.076.02.124t-.037.073q-.034.025-.073.025-.051 0-.094-.033-.042-.037-.073-.11zm-.5-.62l.136.002q.068 0 .136.003l-.068-.197-.065-.19q-.028-.09-.054-.166l-.04-.138q-.01-.037-.025-.06-.014-.022-.036-.022-.023 0-.037.025-.014.023-.025.06-.034.115-.096.302l-.127.386q.076-.003.152-.003l.15-.002zm1.876-.951q-.079.005-.17.008l-.194.006.006.144.006.132q.003.068.003.141.003.074.003.164v.246q0 .115-.003.234l-.006.234-.008.246q-.003.067-.014.104-.008.037-.025.056-.017.02-.04.023-.022.006-.05.006-.051 0-.088-.034-.034-.037-.04-.153-.006-.101-.008-.214 0-.113-.003-.243t-.003-.28V43.337q.003-.116.008-.2h-.115q-.119 0-.204-.003-.081-.003-.135-.014-.054-.014-.079-.043-.023-.028-.023-.079 0-.025.006-.045.006-.022.026-.04.02-.02.053-.03.037-.012.094-.017l.096-.006.084-.006q.043-.002.088-.002h.104q.167 0 .313.002.15.003.316.012.068.005.105.017.037.008.056.025.02.017.023.04.006.022.006.05 0 .051-.037.085-.034.034-.15.04zm.402 1.287q-.006-.09-.011-.246-.006-.155-.006-.319v-.192l.006-.206q.006-.209.025-.327.023-.119.085-.178.065-.06.18-.073.116-.015.308-.015h.06q.059 0 .14.003.082 0 .17.003l.15.006q.062.005.098.017.04.008.06.025.02.014.025.037.006.02.006.045 0 .065-.037.096-.036.028-.15.036-.056.006-.166.009h-.22q-.113 0-.203.003h-.113q-.073.003-.104.034-.029.028-.029.138l.003.124q.006.096.006.271h.235q.15 0 .242.006.096.002.147.017.054.014.073.045.02.03.02.082 0 .025-.006.048-.003.02-.022.036-.02.014-.057.026-.036.008-.104.014l-.155.008h-.379v.345l.006.095q.003.046.012.077.011.03.036.05.029.02.08.029.053.008.14.008h.607q.1 0 .125.037.025.037.025.099 0 .05-.023.079-.022.025-.11.036-.084.014-.257.017-.169.003-.468.003-.127 0-.209-.022-.082-.023-.133-.077-.05-.053-.076-.138-.022-.087-.03-.212z" style="-inkscape-font-specification:'Sniglet, Normal';font-variant-ligatures:normal;font-variant-caps:normal;font-variant-numeric:normal;font-feature-settings:normal;text-align:start" aria-label="GATE" font-weight="400" font-size="2.822" font-family="Sniglet" letter-spacing="0" word-spacing="0" stroke-width=".265"/></g><g style="line-height:1.25"><path d="M90.47 8.898q-.159 0-.255-.026-.096-.025-.15-.07-.05-.048-.07-.116-.017-.068-.025-.152-.009-.1-.014-.26-.003-.164-.003-.339v-.178q.003-.095.003-.186l.005-.172q.003-.079.009-.135.008-.088.028-.158.02-.071.074-.122.056-.05.155-.076.101-.028.268-.028.378 0 .564.14.19.14.19.396 0 .133-.06.246-.056.112-.197.169.079.014.143.06.065.044.11.11.049.061.071.14.026.076.026.156 0 .101-.043.208-.042.105-.144.192-.101.088-.27.144-.167.057-.416.057zm.59-.61q0-.102-.049-.164-.045-.062-.118-.093-.074-.034-.164-.045-.09-.011-.18-.011h-.147q-.076 0-.141.003l-.006.12-.006.12v.152q0 .076.012.127.01.05.042.082.031.03.087.045.06.011.15.011.248 0 .384-.087.135-.088.135-.26zm-.523-1.14q-.093 0-.152.017-.057.014-.088.04-.028.025-.04.061-.008.037-.008.08v.395q.04.002.082.002h.085q.101 0 .197-.014.1-.014.178-.048.08-.034.127-.093.048-.06.048-.152 0-.127-.104-.206-.102-.082-.325-.082zm2.241 1.606l-.062-.156q-.031-.09-.068-.189l-.178.006h-.409q-.099 0-.18-.003l-.065.186q-.031.088-.06.156-.056.144-.163.144-.04 0-.076-.026-.034-.025-.034-.073 0-.048.017-.124.017-.08.042-.167.028-.09.06-.183.03-.096.059-.178.028-.09.079-.229l.112-.293.119-.3q.06-.149.107-.259.011-.028.028-.062.017-.037.04-.068.025-.03.054-.053.03-.023.067-.023.037 0 .068.025.031.023.054.057.025.034.042.07.02.037.031.065l.102.26q.059.147.115.296.06.15.11.285.051.136.082.229l.057.175q.034.093.062.183.028.09.045.17.02.076.02.124t-.037.073q-.034.026-.073.026-.051 0-.094-.034-.042-.037-.073-.11zm-.5-.621q.068 0 .136.003l.136.002-.068-.197-.065-.19q-.028-.09-.054-.166l-.04-.138q-.01-.037-.025-.06-.014-.022-.036-.022-.023 0-.037.026-.014.022-.025.059-.034.116-.096.302l-.127.386.152-.002q.076-.003.15-.003zm2.094.632q-.09-.124-.172-.246l-.172-.27q-.09-.147-.209-.325-.116-.18-.28-.42v.38q0 .167-.002.31l-.006.272q-.002.127-.008.254-.003.068-.014.104-.009.037-.026.057-.017.02-.04.022-.019.006-.047.006-.05 0-.085-.034-.034-.037-.04-.152-.013-.31-.016-.621v-.647q0-.189.003-.296.005-.107.02-.16.016-.054.042-.068.028-.015.073-.015t.119.071q.073.068.16.18.088.113.187.26.101.147.2.302t.19.308l.169.276q-.003-.132-.003-.29v-.356q0-.223.003-.367.002-.147.014-.231.014-.085.042-.119.028-.034.079-.034.048 0 .085.031.036.032.042.144.006.102.008.181l.006.158q.003.076.003.16v.43q0 .116-.003.229l-.006.228q-.002.116-.008.243-.003.068-.014.104-.009.037-.026.057-.016.02-.039.022-.02.006-.048.006-.048 0-.082-.028-.034-.029-.099-.116zm.678-.042q-.006-.102-.01-.212l-.002-.237q-.003-.127-.003-.274v-.333q0-.2.003-.341.003-.144.014-.235.014-.09.042-.132.029-.043.08-.043.047 0 .084.031.037.032.042.144l.009.181.006.158q.002.076.002.16v.335l.604-.691q.119-.136.184-.178.065-.045.113-.045.056 0 .081.028.029.028.029.07 0 .017-.006.034-.005.017-.025.048-.017.028-.054.074l-.099.11-.392.426.618.88q.023.031.034.065.014.034.014.065 0 .054-.031.088-.028.036-.102.036-.059 0-.107-.034-.045-.03-.084-.093l-.537-.793-.242.266-.006.214q-.003.107-.009.226-.002.068-.014.104-.008.037-.025.057-.017.02-.04.022-.02.006-.048.006-.05 0-.084-.034-.034-.037-.04-.152z" style="-inkscape-font-specification:'Sniglet, Normal';font-variant-ligatures:normal;font-variant-caps:normal;font-variant-numeric:normal;font-feature-settings:normal;text-align:start" aria-label="BANK" font-weight="400" font-size="2.822" font-family="Sniglet" letter-spacing="0" word-spacing="0" stroke-width=".265"/></g><g style="line-height:1.25"><path d="M6.397 50.771q.017-.04.051-.065.037-.025.076-.025.037 0 .07.025.035.023.054.062.108.22.212.477.105.254.19.483.047-.35.104-.706.056-.355.127-.68.008-.036.025-.059.017-.025.037-.037.02-.014.04-.02.022-.005.036-.005.048 0 .079.028.031.026.031.07 0 .052-.017.181-.017.127-.045.3-.028.169-.065.36-.034.193-.068.37-.034.178-.065.325-.03.147-.05.223-.017.065-.051.099-.034.03-.099.03-.068 0-.116-.058-.045-.063-.101-.192-.054-.13-.13-.33-.076-.204-.198-.486-.124.282-.203.485-.076.204-.133.333-.053.13-.101.192-.048.06-.113.06-.113 0-.15-.13-.022-.076-.053-.22-.031-.147-.065-.325l-.065-.367q-.034-.192-.06-.361l-.042-.296q-.014-.13-.014-.181 0-.048.031-.079t.088-.031q.04 0 .076.025.037.023.054.096.067.325.118.68.054.356.113.706.087-.206.175-.437.087-.232.217-.52zm2.023.745l-.082.006h-.177q-.048 0-.108-.006v.573q0 .09-.045.113-.042.02-.107.02-.034 0-.054-.006-.02-.003-.034-.014-.01-.014-.02-.04-.005-.025-.008-.07-.005-.05-.008-.147l-.006-.254q0-.155-.003-.375v-.522q0-.116.028-.223.029-.11.102-.192.073-.085.198-.135.127-.051.321-.051.139 0 .268.03.133.032.235.108.101.076.163.206t.062.325q0 .26-.112.403-.11.141-.305.2l.378.52q.05.068.05.138 0 .057-.039.088-.036.034-.093.034-.062 0-.107-.034-.045-.037-.085-.093zm.443-.657q0-.195-.118-.288-.116-.096-.37-.096-.093 0-.155.017-.062.014-.099.056-.037.043-.054.119-.014.073-.014.189v.192q0 .11.003.2.065.003.144.003h.152q.08 0 .167-.009.09-.01.166-.05.077-.043.127-.119.051-.079.051-.214zm.574 1.177q-.006-.102-.009-.212 0-.11-.003-.237-.002-.127-.002-.274v-.333q0-.2.002-.341.003-.144.017-.235.014-.09.043-.132.03-.043.081-.043.026 0 .048.006.023.006.04.025.017.017.028.054.014.034.017.09l.009.18.005.159q.003.076.003.16v.43q0 .116-.003.228l-.005.229q-.003.116-.009.243-.003.067-.014.104-.011.037-.028.057-.017.02-.04.022-.022.006-.05.006-.051 0-.088-.034-.037-.037-.042-.152zm1.717-1.541q-.08.005-.17.008l-.194.006.005.144.006.132q.003.068.003.141.002.074.002.164v.246l-.002.234-.006.234q-.003.119-.009.246-.002.067-.014.104-.008.037-.025.057-.017.02-.04.022-.022.006-.05.006-.051 0-.088-.034-.034-.037-.04-.153-.005-.101-.008-.214 0-.113-.003-.243-.002-.13-.002-.28v-.605q.002-.117.008-.201h-.116q-.118 0-.203-.003-.082-.003-.135-.014-.054-.014-.08-.043-.022-.028-.022-.079 0-.025.006-.045.005-.022.025-.04.02-.019.054-.03.036-.012.093-.017l.096-.006.084-.005q.043-.003.088-.003h.104q.167 0 .314.003.15.002.316.01.067.007.104.018.037.008.057.025.02.017.022.04.006.022.006.05 0 .051-.037.085-.034.034-.15.04zm.401 1.287q-.005-.09-.01-.246-.006-.155-.006-.319v-.192l.005-.206q.006-.209.026-.327.022-.119.084-.178.065-.06.18-.073.117-.014.309-.014h.059l.14.002q.083 0 .17.003l.15.006q.062.005.099.017.04.008.059.025.02.014.025.037.006.02.006.045 0 .065-.037.096-.037.028-.15.037-.056.005-.166.008h-.22q-.113 0-.203.003h-.113q-.074.003-.105.034-.028.028-.028.138l.003.124q.006.096.006.271h.234q.15 0 .243.006.096.003.146.017.054.014.074.045.02.03.02.082 0 .025-.006.048-.003.02-.023.036-.02.014-.056.026-.037.008-.105.014l-.155.008h-.378v.345l.006.096q.002.045.01.076.012.03.038.05.028.02.079.029.053.008.14.008h.608q.098 0 .124.037.025.037.025.099 0 .05-.022.079-.023.025-.11.037-.085.014-.257.016-.17.003-.469.003-.127 0-.209-.022-.082-.023-.132-.077-.051-.053-.077-.138-.022-.087-.03-.211z" style="-inkscape-font-specification:'Sniglet, Normal';font-variant-ligatures:normal;font-variant-caps:normal;font-variant-numeric:normal;font-feature-settings:normal;text-align:start" aria-label="WRITE" font-weight="400" font-size="2.822" font-family="Sniglet" letter-spacing="0" word-spacing="0" stroke-width=".265"/></g><g style="line-height:1.25"><path d="M7.086 78.94q.093 0 .186.016.096.014.172.048.076.031.124.08.051.044.051.106 0 .065-.034.1-.034.033-.084.033-.048 0-.085-.014l-.085-.037q-.045-.02-.11-.034-.065-.017-.172-.017-.107 0-.206.057-.096.054-.17.152-.07.096-.112.229-.043.133-.043.288 0 .192.048.33.051.138.13.229.08.087.178.132.102.043.203.043.122 0 .203-.026.082-.025.139-.056.059-.031.101-.057.043-.025.082-.025.048 0 .076.028.029.026.029.093 0 .057-.046.116-.042.056-.127.104-.081.046-.197.077-.116.028-.26.028-.158 0-.316-.062-.155-.062-.28-.184-.12-.124-.197-.307-.076-.187-.076-.432 0-.246.068-.438.07-.192.189-.324.121-.136.28-.206.16-.07.34-.07zm1.641 1.885q-.037.067-.068.098-.028.031-.073.031t-.079-.03q-.034-.032-.073-.097-.051-.084-.116-.234-.062-.15-.127-.324-.065-.178-.127-.367-.062-.19-.113-.356-.048-.166-.079-.29-.028-.128-.028-.181 0-.057.022-.085.023-.028.088-.028.037 0 .062.02.028.017.07.101.034.065.074.17.04.104.082.23.045.128.09.27l.09.276q.046.138.085.265l.073.229.077-.232.087-.265.09-.277q.046-.14.09-.265l.085-.229q.04-.104.07-.172.04-.082.069-.101.03-.02.062-.02.065 0 .087.034.026.03.026.093 0 .056-.017.135-.017.08-.06.212-.04.13-.107.325l-.166.476q-.026.077-.06.159-.03.081-.064.16l-.063.147q-.03.07-.059.122zm1.455-.063q-.006-.101-.009-.211l-.002-.237q-.003-.127-.003-.274v-.333q0-.2.003-.342.002-.144.016-.234.015-.09.043-.132.03-.043.082-.043.025 0 .048.006.022.005.04.025.016.017.027.054.014.034.017.09l.009.18.005.159q.003.076.003.16v.43q0 .115-.003.228l-.005.229q-.003.116-.009.243-.003.067-.014.104-.011.037-.028.056-.017.02-.04.023-.022.006-.05.006-.051 0-.088-.034-.037-.037-.042-.153zm1.764.043q-.09-.124-.172-.246l-.172-.27q-.09-.147-.209-.325-.116-.18-.28-.42v.38q0 .167-.002.31l-.006.272-.008.254q-.003.067-.014.104-.009.037-.026.056-.017.02-.04.023-.02.006-.047.006-.051 0-.085-.034-.034-.037-.04-.153-.014-.31-.016-.62v-.647q0-.189.002-.296.006-.107.02-.161.017-.054.042-.068.029-.014.074-.014t.118.07q.074.068.161.181.088.113.186.26.102.147.2.302.1.155.19.308l.17.276q-.003-.132-.003-.29v-.356q0-.223.002-.367.003-.147.014-.231.015-.085.043-.119.028-.034.079-.034.048 0 .084.031.037.031.043.144l.008.18.006.159q.003.076.003.16v.43q0 .115-.003.228l-.006.229-.008.243q-.003.067-.014.104-.009.037-.026.056-.017.02-.04.023-.019.006-.047.006-.048 0-.082-.029-.034-.028-.099-.115z" style="-inkscape-font-specification:'Sniglet, Normal';font-variant-ligatures:normal;font-variant-caps:normal;font-variant-numeric:normal;font-feature-settings:normal;text-align:start" aria-label="CV IN" font-weight="400" font-size="2.822" font-family="Sniglet" letter-spacing="0" word-spacing="0" stroke-width=".265"/></g><g style="line-height:1.25"><path d="M32.66 6.91q.093 0 .186.018.096.014.172.048.076.03.124.079.05.045.05.107 0 .065-.033.099-.034.033-.085.033-.048 0-.084-.014-.037-.017-.085-.036-.045-.02-.11-.034-.065-.017-.172-.017-.107 0-.206.056-.096.054-.17.153-.07.096-.112.228-.043.133-.043.288 0 .192.048.33.051.139.13.229.08.088.178.133.101.042.203.042.121 0 .203-.025.082-.026.139-.057.059-.03.101-.056.042-.026.082-.026.048 0 .076.029.028.025.028.093 0 .056-.045.115-.042.057-.127.105-.082.045-.197.076-.116.028-.26.028-.158 0-.316-.062-.155-.062-.28-.183-.12-.125-.197-.308-.076-.186-.076-.432 0-.245.068-.437.07-.192.189-.325.121-.135.279-.206.16-.07.342-.07zm1.641 1.886q-.037.068-.068.099-.028.03-.073.03t-.08-.03q-.033-.031-.073-.096-.05-.085-.115-.234-.062-.15-.127-.325-.065-.178-.127-.367t-.113-.356q-.048-.166-.08-.29-.027-.127-.027-.18 0-.057.022-.086.023-.028.088-.028.036 0 .062.02.028.017.07.102.034.065.074.169.04.104.082.231.045.127.09.268l.09.277.085.265.073.229.076-.231.088-.266.09-.276q.045-.141.09-.266l.085-.228q.04-.105.07-.172.04-.082.068-.102.032-.02.063-.02.064 0 .087.034.025.031.025.093 0 .057-.016.136-.017.079-.06.211-.04.13-.107.325l-.166.477q-.026.076-.06.158-.03.082-.065.16-.03.077-.062.148-.03.07-.059.12z" style="-inkscape-font-specification:'Sniglet, Normal';font-variant-ligatures:normal;font-variant-caps:normal;font-variant-numeric:normal;font-feature-settings:normal;text-align:start" aria-label="CV" font-weight="400" font-size="2.822" font-family="Sniglet" letter-spacing="0" word-spacing="0" stroke-width=".265"/></g><path d="M4.001 9.967q-.17 0-.319-.068-.147-.068-.257-.195-.11-.13-.175-.316-.062-.186-.062-.423 0-.223.054-.41.056-.186.164-.321.11-.136.27-.209.161-.076.373-.076.172 0 .327.062.156.062.271.186.119.124.187.31.067.187.067.435 0 .203-.053.384-.051.18-.158.322l.16.132q.032.026.057.065.028.037.028.085 0 .056-.045.09-.045.034-.107.034-.08 0-.167-.079l-.146-.127q-.096.057-.212.088-.116.03-.257.03zm.006-.266q.155 0 .27-.062.116-.065.193-.169.076-.104.112-.24.037-.138.037-.282 0-.175-.048-.31-.045-.139-.124-.232t-.183-.141q-.105-.05-.223-.05-.142 0-.249.058-.104.06-.178.161-.07.102-.107.24-.037.136-.037.29 0 .167.043.306.042.135.113.231.073.096.172.15.099.05.209.05zm1.858.285q-.322 0-.471-.175-.06-.067-.102-.172-.04-.107-.065-.276-.022-.17-.034-.418-.008-.251-.008-.61 0-.115.006-.189.005-.076.022-.118.017-.045.043-.062.028-.017.07-.017.082 0 .116.073.034.074.034.254 0 .062-.003.11v.099q0 .048-.003.107v.144q0 .282.017.469.02.186.065.299.045.11.121.155.08.045.195.045.121 0 .2-.048.082-.05.13-.166.048-.119.068-.314.022-.194.022-.485 0-.127-.002-.217V8.31q0-.104.005-.175.009-.07.023-.11.017-.042.045-.06.028-.016.07-.016.043 0 .071.017.028.017.045.059.017.042.023.119.006.073.006.191 0 .497-.032.819-.03.319-.11.505-.079.184-.217.257-.135.07-.35.07zm2.145-.191l-.062-.156q-.031-.09-.068-.189l-.177.006h-.41q-.098 0-.18-.003l-.065.186q-.031.088-.06.156-.056.143-.163.143-.04 0-.076-.025-.034-.025-.034-.073 0-.048.017-.124.017-.08.042-.167.028-.09.06-.183.03-.096.059-.178.028-.09.079-.229l.112-.293.119-.3q.06-.15.107-.26l.028-.061q.017-.037.04-.068.025-.031.054-.054.03-.022.067-.022.037 0 .068.025.031.023.054.057.025.034.042.07.02.037.031.065l.102.26q.059.147.115.296.06.15.11.285.051.136.082.229l.057.175q.034.093.062.183.028.09.045.17.02.076.02.124t-.037.073q-.034.025-.073.025-.051 0-.093-.033-.043-.037-.074-.11zm-.5-.621l.136.002q.068 0 .136.003l-.068-.197-.065-.19q-.028-.09-.054-.166l-.04-.138q-.01-.037-.025-.06-.014-.022-.036-.022-.023 0-.037.025-.014.023-.025.06-.034.115-.096.302l-.127.386q.076-.003.152-.003l.15-.002zm2.094.632q-.09-.124-.172-.246l-.172-.27q-.09-.147-.209-.325-.115-.18-.28-.42v.38q0 .167-.002.31l-.006.272q-.002.127-.008.254-.003.067-.014.104-.009.037-.026.057-.017.02-.04.022-.019.006-.047.006-.05 0-.085-.034-.034-.037-.04-.153-.013-.31-.016-.62v-.647q0-.189.003-.296.005-.107.02-.16.016-.055.042-.069.028-.014.073-.014t.119.07q.073.069.16.181.088.113.187.26.101.147.2.302t.19.308l.169.276q-.003-.132-.003-.29v-.356q0-.223.003-.367.002-.147.014-.231.014-.085.042-.119.028-.034.079-.034.048 0 .085.031.036.031.042.144.006.102.008.18l.006.159q.003.076.003.16v.43q0 .115-.003.228l-.006.229q-.002.116-.008.243-.003.067-.014.104-.009.037-.025.057-.017.02-.04.022-.02.006-.048.006-.048 0-.082-.029-.034-.028-.099-.115zm1.761-1.583q-.079.005-.17.008l-.194.006.006.144.005.132q.003.068.003.141.003.074.003.164v.246q0 .115-.003.234l-.006.234q-.002.119-.008.246-.003.067-.014.104-.009.037-.026.056-.017.02-.04.023-.022.006-.05.006-.05 0-.087-.034-.034-.037-.04-.153-.006-.101-.008-.214 0-.113-.003-.243t-.003-.28V8.437q.003-.116.008-.2h-.115q-.119 0-.203-.003-.082-.003-.136-.014-.054-.014-.079-.043-.023-.028-.023-.079 0-.025.006-.045.006-.022.026-.04.02-.02.053-.03.037-.012.093-.017l.096-.006.085-.005q.042-.003.087-.003h.105q.166 0 .313.003.15.002.316.01.068.006.105.018.036.008.056.025.02.017.023.04.005.022.005.05 0 .051-.036.085-.034.034-.15.04zm.482 1.541q-.005-.102-.008-.212 0-.11-.003-.237t-.003-.274v-.333q0-.2.003-.342.003-.143.017-.234.014-.09.042-.132.031-.043.082-.043.026 0 .048.006.023.005.04.025.017.017.028.054.014.034.017.09l.008.18.006.159q.003.076.003.16v.43q0 .115-.003.228l-.006.229q-.002.116-.008.243-.003.067-.014.104-.012.037-.028.057-.017.02-.04.022-.023.006-.05.006-.052 0-.088-.034-.037-.037-.043-.153zm1.694.169q-.05.005-.127.008-.073.006-.16.009l-.181.005q-.093.003-.18.003-.153 0-.25-.003-.092-.002-.146-.014-.05-.008-.07-.028-.018-.02-.018-.054 0-.062.034-.143.034-.085.08-.17.047-.084.095-.158l.074-.118.626-1.02q-.053 0-.073.004l-.045.002h-.257q-.175 0-.28-.002-.101-.006-.155-.02-.05-.014-.067-.04-.015-.025-.015-.07 0-.07.034-.099.034-.031.144-.042l.102-.006q.056-.006.116-.006l.12-.002q.06-.003.11-.003.052 0 .097.003l.096.002q.05 0 .107.003l.13.006q.023 0 .056.005.037.003.068.012.034.008.057.028.022.017.022.048 0 .05-.048.155-.045.102-.124.237-.076.133-.178.29l-.203.32-.206.319q-.102.158-.183.293.05-.003.146-.003l.184-.002.206.002q.127.003.26.015.067.005.104.014.036.008.056.025.02.014.023.037.005.022.005.056 0 .023-.002.04-.003.017-.02.03-.017.012-.057.02-.036.006-.107.012zM14 9.51q-.006-.09-.012-.246-.006-.155-.006-.319v-.192l.006-.206q.006-.209.025-.327.023-.119.085-.178.065-.06.18-.073.116-.015.308-.015h.06q.059 0 .14.003.083 0 .17.003l.15.006q.062.005.098.017.04.008.06.025.02.014.025.037.006.02.006.045 0 .065-.037.096-.037.028-.15.036-.056.006-.166.009h-.22q-.113 0-.203.003h-.113q-.074.003-.105.034-.028.028-.028.138l.003.124q.005.096.005.271h.235q.15 0 .242.006.096.002.147.017.054.014.074.045.02.03.02.082 0 .025-.006.048-.003.02-.023.036-.02.014-.056.026-.037.008-.105.014l-.155.008h-.378v.345l.005.096q.003.045.012.076.011.03.036.05.029.02.08.029.053.008.14.008h.607q.1 0 .125.037.025.037.025.099 0 .05-.023.079-.022.025-.11.036-.084.015-.257.017-.169.003-.468.003-.127 0-.209-.022-.082-.023-.133-.077-.05-.053-.076-.138-.022-.087-.03-.212z" style="line-height:1.25;-inkscape-font-specification:'Sniglet, Normal';font-variant-ligatures:normal;font-variant-caps:normal;font-variant-numeric:normal;font-feature-settings:normal;text-align:start" font-weight="400" font-size="2.822" font-family="Sniglet" letter-spacing="0" word-spacing="0"/><g word-spacing="0" letter-spacing="0" font-weight="400"><path font-size="3.528" d="M96.54 28.496h.08l.009.009v.523l.205-.103.005.003v.243q-.005.012-.21.115v.643l.21-.095v.233q-.002.007-.21.122v.512l-.01.007h-.08l-.008-.007v-.47l-.496.24v.597l-.01.007h-.071l-.01-.007v-.553l-.221.103v-.245q0-.01.222-.113v-.653h-.003l-.22.096v-.24l.223-.111v-.494l.01-.007h.072l.009.007v.45l.496-.23v-.574zm-.504 1.073v.65l.496-.24v-.64zm-.102 2.019h.078l.009.01v1.655h.005q.292-.408.542-.408.39.005.426.448-.05.732-1.065.884l-.005-.005v-2.574zm.086 1.85v.61q.72-.17.72-.695l.002-.043q0-.255-.256-.268-.205 0-.465.396z" style="line-height:1.25;-inkscape-font-specification:'Sniglet, Normal';font-variant-ligatures:normal;font-variant-caps:normal;font-variant-numeric:normal;font-feature-settings:normal;text-align:start" font-family="Sniglet"/><g style="line-height:1.25;-inkscape-font-specification:'Sniglet, Normal';font-variant-ligatures:normal;font-variant-caps:normal;font-variant-numeric:normal;font-feature-settings:normal;text-align:start"><path font-size="2.822" aria-label="CV IN" style="-inkscape-font-specification:'Sniglet, Normal';font-variant-ligatures:normal;font-variant-caps:normal;font-variant-numeric:normal;font-feature-settings:normal;text-align:start" d="M96.496 27.573q-.037.068-.068.099-.028.03-.074.03-.045 0-.08-.03-.032-.031-.072-.096-.05-.085-.116-.234-.062-.15-.127-.325-.065-.178-.127-.367-.062-.19-.113-.355-.048-.167-.08-.291-.027-.127-.027-.18 0-.057.023-.085.022-.03.087-.03.037 0 .062.02.029.018.07.103.035.065.074.169.04.104.082.23.045.128.09.27l.09.276q.046.138.085.265l.074.229.076-.231.087-.266.09-.276q.046-.141.09-.266l.086-.228q.04-.105.07-.172.04-.082.068-.102.03-.02.062-.02.065 0 .088.034.025.03.025.093 0 .057-.017.136-.017.079-.06.21-.04.13-.106.326l-.167.477q-.025.076-.06.158-.03.082-.064.16-.031.077-.062.148-.031.07-.06.12z" font-family="Sniglet"/></g></g><g font-weight="400" font-size="2.822" font-family="Sniglet" letter-spacing="0" word-spacing="0" stroke-width=".07"><g style="line-height:1.25"><path style="-inkscape-font-specification:'Sniglet, Normal';font-variant-ligatures:normal;font-variant-caps:normal;font-variant-numeric:normal;font-feature-settings:normal;text-align:start" d="M107.43 27.112q-.002.107-.002.234t-.008.237q-.006.085-.04.11-.031.023-.087.023-.051 0-.08-.02-.025-.017-.039-.076-.011-.062-.014-.178-.003-.118-.003-.316-.093 0-.178.003-.084.003-.163.003-.119 0-.218-.006-.096-.005-.166-.02-.068-.016-.107-.045-.037-.028-.037-.073 0-.062.05-.155.051-.096.128-.206.076-.11.16-.223l.161-.215.096-.124q.065-.082.139-.16.073-.083.146-.142.074-.06.125-.06.048 0 .084.032.037.03.043.144.01.163.014.344.003.178.003.353v.28q.079.005.127.013.047.009.073.026.025.014.034.036.008.023.008.057 0 .07-.065.096-.065.022-.183.028zm-.276-.923l-.211.257-.147.18q-.06.077-.105.13l-.076.096q.13-.005.266-.005.138-.003.273-.003zm1.321 1.016l-.217.229q-.088.093-.15.155-.062.06-.104.088-.04.028-.074.028-.04 0-.079-.034-.036-.034-.036-.073 0-.034.048-.102.048-.07.118-.155.07-.085.153-.175l.15-.175q-.091-.105-.173-.203-.08-.1-.138-.184-.06-.085-.096-.15-.034-.064-.034-.101 0-.037.037-.062.036-.028.067-.028.026 0 .088.056.062.054.138.133.079.076.158.163l.147.156.138-.153q.08-.087.155-.163.077-.077.141-.13.065-.054.102-.054.031 0 .062.023.031.022.031.059t-.037.102q-.033.064-.093.15-.059.084-.14.183-.08.098-.17.203l.152.172q.082.09.153.178.07.084.115.155.048.068.048.102 0 .039-.04.073-.036.034-.075.034-.037 0-.1-.045-.058-.048-.135-.119-.073-.073-.155-.16l-.155-.176zm1.915-.093q-.002.107-.002.234t-.008.237q-.006.085-.04.11-.031.023-.087.023-.051 0-.08-.02-.025-.017-.039-.076-.011-.062-.014-.178-.003-.118-.003-.316-.093 0-.178.003-.084.003-.163.003-.119 0-.218-.006-.096-.005-.166-.02-.068-.016-.107-.045-.037-.028-.037-.073 0-.062.05-.155.052-.096.128-.206.076-.11.16-.223l.161-.215.096-.124q.065-.082.139-.16.073-.083.146-.142.074-.06.125-.06.048 0 .084.032.037.03.043.144.01.163.014.344.003.178.003.353v.28q.079.005.127.013.048.009.073.026.025.014.034.036.008.023.008.057 0 .07-.065.096-.065.022-.183.028zm-.276-.923l-.211.257-.147.18q-.06.077-.105.13l-.076.096q.13-.005.266-.005.138-.003.273-.003z" aria-label="4x4"/></g><g style="line-height:1.25"><path style="-inkscape-font-specification:'Sniglet, Normal';font-variant-ligatures:normal;font-variant-caps:normal;font-variant-numeric:normal;font-feature-settings:normal;text-align:start" d="M106.931 29.136q-.101 0-.169.022-.068.02-.113.054t-.073.07l-.051.071q-.023.034-.05.056-.026.02-.066.02-.068 0-.096-.034-.025-.036-.025-.096 0-.124.093-.231.028-.034.076-.07.051-.04.119-.071.07-.031.16-.051.094-.023.21-.023.307 0 .476.15.17.15.17.42 0 .054-.012.12-.008.064-.036.135-.026.07-.074.146-.048.076-.127.156-.07.07-.15.13-.078.059-.163.118l-.178.127q-.09.065-.183.15.09.047.195.062.104.014.234.014.121 0 .195-.006.073-.006.118-.014l.07-.014q.026-.006.054-.006.105 0 .105.096 0 .085-.07.13-.071.045-.17.068-.099.02-.203.022-.105.006-.173.006-.036 0-.104-.006-.065-.002-.141-.014-.076-.011-.155-.03-.077-.023-.141-.057-.063-.037-.102-.088-.04-.053-.04-.127 0-.099.071-.186.073-.09.18-.175.108-.088.232-.172.124-.088.231-.178.108-.093.178-.192.074-.099.074-.214 0-.144-.1-.215-.095-.073-.276-.073zm1.559 1.214l-.217.228q-.088.093-.15.155-.062.06-.104.088-.04.028-.073.028-.04 0-.08-.034-.036-.034-.036-.073 0-.034.048-.102.048-.07.118-.155.07-.085.153-.175.082-.093.15-.175-.091-.105-.173-.203-.079-.1-.138-.184-.06-.085-.096-.15-.034-.064-.034-.101 0-.037.037-.062.036-.028.067-.028.026 0 .088.056.062.054.138.133.08.076.158.163l.147.156.138-.153q.08-.087.156-.163.076-.077.14-.13.066-.054.102-.054.031 0 .062.023.031.022.031.059t-.036.102q-.034.064-.093.15-.06.084-.142.183-.079.098-.169.203l.153.172q.081.09.152.178.07.084.116.155.048.068.048.102 0 .039-.04.073-.037.034-.076.034-.037 0-.099-.045-.06-.048-.135-.119-.074-.073-.156-.16l-.155-.176zm1.518-1.52q.138 0 .246.046.107.042.18.119.074.073.11.169.037.093.037.195 0 .107-.042.208-.04.1-.122.173.136.07.206.2.074.127.074.313 0 .144-.043.263-.042.115-.13.2-.087.082-.217.127-.13.048-.302.048-.175 0-.304-.048-.13-.045-.215-.13-.085-.084-.127-.2-.04-.116-.04-.254 0-.18.068-.31.07-.133.215-.207-.085-.073-.127-.175-.043-.101-.043-.208 0-.102.037-.195.037-.096.11-.17.074-.076.18-.118.108-.045.25-.045zm.003 1.801q.102 0 .178-.028.076-.03.124-.082.05-.05.076-.118.026-.068.026-.141 0-.065-.023-.133-.02-.068-.07-.121-.049-.054-.128-.088-.079-.034-.191-.034-.195 0-.3.102-.101.099-.101.262 0 .173.107.277.107.104.302.104zm.003-.985q.07 0 .124-.028.056-.028.093-.07.04-.045.057-.096.02-.054.02-.102 0-.099-.08-.166-.076-.07-.22-.07-.144 0-.217.07-.074.067-.074.163 0 .048.017.102.02.054.057.099.04.042.093.07.056.028.13.028z" aria-label="2x8"/></g><g style="line-height:1.25"><path style="-inkscape-font-specification:'Sniglet, Normal';font-variant-ligatures:normal;font-variant-caps:normal;font-variant-numeric:normal;font-feature-settings:normal;text-align:start" d="M106.779 33.877q-.006-.102-.009-.212l-.002-.237q-.003-.127-.003-.273v-.686l-.17.087q-.07.045-.112.054-.04.008-.088.008-.042 0-.076-.036-.031-.037-.031-.088 0-.05.034-.087.036-.04.084-.07.063-.043.133-.086.073-.042.141-.076.068-.036.124-.056.06-.023.1-.023.019 0 .039.006.022.005.04.022.019.017.03.054.014.034.017.093l.009.178.005.15q.003.07.003.15v.425q0 .116-.003.229l-.005.228q-.003.116-.009.243-.003.068-.014.105-.008.036-.025.056-.017.02-.04.023-.02.005-.048.005-.05 0-.085-.034-.033-.036-.04-.152zm1.151-.317l-.218.23q-.088.093-.15.155-.062.059-.104.087-.04.028-.073.028-.04 0-.08-.033-.036-.034-.036-.074 0-.034.048-.101.048-.071.118-.156.071-.084.153-.175.082-.093.15-.175-.09-.104-.173-.203-.079-.099-.138-.183-.06-.085-.096-.15-.034-.065-.034-.101 0-.037.037-.062.036-.029.068-.029.025 0 .087.057.062.053.138.132.08.077.158.164.082.088.147.155l.138-.152q.08-.088.156-.164.076-.076.14-.13.066-.053.102-.053.031 0 .062.022.031.023.031.06 0 .036-.036.101-.034.065-.093.15-.06.084-.141.183-.08.099-.17.203l.153.173q.081.09.152.177.07.085.116.156.048.067.048.101 0 .04-.04.074-.037.033-.076.033-.037 0-.099-.045-.06-.048-.135-.118-.074-.074-.155-.161l-.156-.175zm1.263.317q-.005-.102-.008-.212 0-.11-.003-.237t-.003-.273v-.686l-.17.087q-.07.045-.112.054-.04.008-.088.008-.042 0-.076-.036-.03-.037-.03-.088 0-.05.033-.087.037-.04.085-.07.062-.043.132-.086.074-.042.142-.076.067-.036.124-.056.059-.023.098-.023.02 0 .04.006.023.005.04.022.02.017.03.054.015.034.017.093l.009.178.006.15q.002.07.002.15v.425q0 .116-.002.229l-.006.228q-.003.116-.009.243-.002.068-.014.105-.008.036-.025.056-.017.02-.04.023-.02.005-.048.005-.05 0-.084-.034-.034-.036-.04-.152zm.552-.615q0-.237.082-.452.082-.217.203-.38.122-.167.257-.263.136-.099.243-.099.045 0 .09.023.048.02.048.064 0 .04-.045.088l-.141.141q-.05.05-.11.116-.057.065-.11.138-.054.073-.096.152-.043.08-.062.156.096-.085.214-.116.119-.031.21-.031.112 0 .216.042.105.04.184.122.079.079.124.2.048.119.048.277 0 .138-.045.254-.045.112-.13.197-.082.082-.2.13-.116.045-.26.045-.141 0-.274-.034-.13-.036-.228-.127-.1-.09-.158-.245-.06-.156-.06-.398zm.322.163q0 .187.096.283.099.096.294.096.07 0 .135-.02t.116-.065q.05-.048.079-.124.03-.076.03-.19 0-.07-.027-.132-.026-.062-.077-.107-.048-.048-.115-.074-.068-.028-.147-.028-.18 0-.282.099-.102.099-.102.262z" aria-label="1x16"/></g></g><g style="line-height:1.25"><path d="M4.17 38.226q-.029-.068-.062-.156l-.068-.189-.178.006h-.41q-.098 0-.18-.003l-.065.186q-.03.088-.059.156-.056.144-.164.144-.04 0-.076-.026-.034-.025-.034-.073 0-.048.017-.124.017-.08.042-.167l.06-.183q.03-.096.059-.178.028-.09.079-.229l.113-.293.118-.3q.06-.149.108-.259.011-.028.028-.062.017-.037.04-.068.025-.03.053-.053.031-.023.068-.023.036 0 .068.025.03.023.053.057.026.034.042.07.02.037.032.065.045.113.101.26.06.147.116.296.06.15.11.285.05.136.082.229.025.082.056.175.034.093.062.183.029.09.045.17.02.076.02.124t-.036.073q-.034.026-.074.026-.05 0-.093-.034-.042-.037-.073-.11zm-.5-.621q.068 0 .136.003l.135.002-.068-.197-.065-.19-.053-.166-.04-.138q-.011-.037-.025-.06-.014-.022-.037-.022-.022 0-.037.026-.014.022-.025.059-.034.116-.096.302l-.127.386q.076-.002.153-.002.076-.003.15-.003zm1.601.813q-.321 0-.471-.175-.06-.068-.102-.173-.04-.107-.065-.276-.022-.17-.033-.418-.009-.251-.009-.61 0-.115.006-.188.005-.077.022-.119.017-.045.043-.062.028-.017.07-.017.082 0 .116.073.034.074.034.254 0 .062-.003.11v.1q0 .047-.003.106v.144q0 .283.017.469.02.186.065.299.045.11.121.155.08.045.195.045.121 0 .2-.048.082-.05.13-.166.048-.119.068-.313.023-.195.023-.486 0-.127-.003-.217v-.164q0-.104.005-.175.009-.07.023-.11.017-.042.045-.06.028-.016.07-.016.043 0 .071.017.029.017.045.06.017.042.023.118.006.073.006.192 0 .496-.031.818-.031.319-.11.505-.08.184-.218.257-.135.07-.35.07zm2.143-1.764q-.079.005-.169.008l-.195.006.006.144.006.132q.002.068.002.142.003.073.003.163v.246q0 .115-.003.234l-.005.234q-.003.119-.009.246-.003.067-.014.104-.008.037-.025.057-.017.02-.04.022-.022.006-.05.006-.051 0-.088-.034-.034-.037-.04-.152-.005-.102-.008-.215 0-.113-.003-.243t-.003-.28v-.605q.003-.117.009-.201h-.116q-.118 0-.203-.003-.082-.003-.136-.014-.053-.014-.079-.042-.022-.029-.022-.08 0-.025.005-.045.006-.022.026-.04.02-.019.053-.03.037-.011.094-.017l.096-.006.084-.005q.043-.003.088-.003h.104q.167 0 .313.003.15.002.316.011.068.006.105.017.037.008.056.025.02.017.023.04.006.022.006.05 0 .051-.037.085-.034.034-.15.04zm1.053 1.744q-.169 0-.319-.068-.146-.068-.256-.195-.11-.13-.175-.316-.062-.186-.062-.423 0-.223.053-.41.057-.186.164-.321.11-.135.27-.209.162-.076.373-.076.173 0 .328.062.155.062.27.186.12.125.187.31.068.187.068.435 0 .206-.057.393-.053.186-.166.327-.11.138-.28.223-.169.082-.398.082zm.006-.265q.155 0 .271-.063.116-.064.192-.169.076-.104.113-.24.036-.138.036-.282 0-.175-.048-.31-.045-.139-.124-.232t-.183-.14q-.105-.052-.223-.052-.141 0-.248.06-.105.059-.178.16-.07.102-.108.24-.036.136-.036.291 0 .166.042.305.042.135.113.231.073.096.172.15.099.05.209.05zm1.784-1.756q.08 0 .18.014.105.012.196.045.09.031.152.085.062.05.062.127 0 .045-.025.076-.026.031-.082.031-.042 0-.088-.017-.042-.017-.098-.033-.054-.02-.127-.037-.071-.017-.167-.017-.186 0-.276.068-.088.065-.088.18 0 .08.04.133.039.054.104.093.068.037.15.062.084.026.172.048.098.026.194.062.1.037.175.096.077.06.122.15.048.09.048.228 0 .144-.054.26-.054.113-.147.195-.093.079-.223.124-.13.042-.282.042-.084 0-.197-.017-.113-.014-.215-.05-.101-.04-.172-.102-.07-.065-.07-.158 0-.057.028-.09.03-.034.09-.034.048 0 .079.02.031.016.054.039.084.073.192.099.107.025.22.025.065 0 .135-.008.073-.012.133-.043.059-.03.099-.087.039-.06.039-.158 0-.09-.037-.147-.034-.06-.093-.099-.059-.04-.14-.065-.08-.025-.173-.05-.104-.029-.206-.063-.102-.033-.18-.09-.08-.06-.13-.147-.048-.09-.048-.228 0-.139.05-.243.051-.104.139-.175.087-.07.206-.107.121-.037.26-.037zm2.053.277q-.08.005-.17.008l-.195.006.006.144.005.132q.003.068.003.142.003.073.003.163v.246q0 .115-.003.234l-.006.234q-.002.119-.008.246-.003.067-.014.104-.009.037-.026.057-.016.02-.04.022-.022.006-.05.006-.05 0-.087-.034-.034-.037-.04-.152-.005-.102-.008-.215 0-.113-.003-.243t-.003-.28v-.605q.003-.117.009-.201h-.116q-.119 0-.203-.003-.082-.003-.136-.014-.053-.014-.079-.042-.022-.029-.022-.08 0-.025.005-.045.006-.022.026-.04.02-.019.053-.03.037-.011.093-.017l.096-.006.085-.005q.042-.003.087-.003h.105q.166 0 .313.003.15.002.316.011.068.006.105.017.036.008.056.025.02.017.023.04.005.022.005.05 0 .051-.036.085-.034.034-.15.04zm.401 1.286q-.006-.09-.011-.245-.006-.155-.006-.319v-.192l.006-.206q.005-.209.025-.327.023-.119.085-.178.065-.06.18-.073.116-.014.308-.014h.06l.14.002q.082 0 .17.003l.15.006q.061.005.098.017.04.008.06.025.02.014.025.037.005.02.005.045 0 .065-.036.096-.037.028-.15.037-.056.005-.166.008h-.22q-.113 0-.204.003h-.113q-.073.003-.104.034-.028.028-.028.138l.002.124q.006.096.006.271h.234q.15 0 .243.006.096.003.147.017.053.014.073.045.02.03.02.082 0 .025-.006.048-.002.02-.022.036-.02.015-.057.026-.036.008-.104.014-.082.006-.155.008h-.379v.345l.006.096q.003.045.011.076.012.03.037.05.028.02.08.029.053.008.14.008h.607q.099 0 .124.037.026.037.026.099 0 .05-.023.079-.023.025-.11.037-.085.014-.257.017-.17.002-.468.002-.127 0-.21-.022-.081-.023-.132-.076-.05-.054-.076-.139-.023-.087-.031-.211zm1.842.252q0 .068-.014.104-.012.037-.031.057-.017.02-.043.022-.022.006-.045.006-.076 0-.102-.034-.022-.034-.03-.152-.006-.062-.009-.181l-.006-.282-.002-.361v-.418q0-.105.025-.212t.096-.195q.073-.087.2-.14.13-.054.336-.054.144 0 .274.03.13.032.228.108.1.076.159.203t.059.316q0 .198-.065.328t-.184.206q-.118.076-.282.107-.163.031-.358.031h-.096q-.048 0-.107-.006zm.813-1.188q0-.19-.108-.285-.104-.096-.35-.096-.093 0-.16.017-.065.014-.108.053-.042.037-.065.102-.02.065-.02.164v.22q0 .121.003.228.065.003.144.003h.153q.084 0 .175-.011.093-.012.166-.051.074-.042.122-.121.048-.082.048-.223z" style="-inkscape-font-specification:'Sniglet, Normal';font-variant-ligatures:normal;font-variant-caps:normal;font-variant-numeric:normal;font-feature-settings:normal;text-align:start" aria-label="AUTOSTEP" font-weight="400" font-size="2.822" font-family="Sniglet" letter-spacing="0" word-spacing="0" stroke-width=".265"/></g><path d="M87.296 14.486h-2.484m15.754 0h-2.484m-45.449 0H50.15" fill="none" stroke="#000" stroke-width=".132"/><g style="line-height:1.25"><path d="M5.934 24.064l-.062-.155q-.031-.09-.068-.19l-.178.006h-.409q-.099 0-.18-.003l-.065.187q-.031.087-.06.155-.056.144-.163.144-.04 0-.077-.026-.033-.025-.033-.073 0-.048.016-.124.017-.08.043-.167.028-.09.06-.183.03-.096.058-.178.029-.09.08-.229l.112-.293.119-.3q.059-.149.107-.259.011-.028.028-.062.017-.037.04-.068.025-.03.053-.053.031-.023.068-.023.037 0 .068.025.03.023.053.057.026.034.043.07.02.037.03.065.046.113.102.26.06.147.116.296.06.15.11.285.051.136.082.229.025.082.057.175.033.093.062.183.028.09.045.17.02.076.02.124t-.037.073q-.034.026-.074.026-.05 0-.093-.034-.042-.037-.073-.11zm-.5-.621q.068 0 .136.003.068 0 .135.003l-.067-.198-.065-.19-.054-.166-.04-.138q-.01-.037-.025-.06-.014-.022-.037-.022-.022 0-.036.026-.014.022-.026.059-.033.116-.096.302-.059.183-.127.387.077-.003.153-.003.076-.003.15-.003zm1.876-.951q-.079.005-.17.008l-.194.006.006.144.005.133q.003.067.003.14.003.074.003.164v.246q0 .116-.003.234l-.006.234q-.002.119-.008.246-.003.068-.014.104-.009.037-.026.057-.017.02-.04.022-.022.006-.05.006-.05 0-.087-.034-.034-.037-.04-.152-.006-.102-.008-.215 0-.113-.003-.243t-.003-.279V22.707q.003-.116.008-.201h-.115q-.119 0-.203-.003-.082-.003-.136-.014-.054-.014-.079-.042-.023-.029-.023-.08 0-.025.006-.045.006-.022.026-.039.02-.02.053-.031.037-.011.093-.017l.096-.006.085-.005q.042-.003.087-.003h.105q.166 0 .313.003.15.003.316.011.068.006.105.017.036.009.056.025.02.017.023.04.005.022.005.05 0 .052-.036.085-.034.034-.15.04zm1.538 0q-.08.005-.17.008l-.194.006.005.144.006.133q.003.067.003.14.003.074.003.164v.246q0 .116-.003.234l-.006.234-.008.246q-.003.068-.014.104-.009.037-.026.057-.017.02-.04.022-.022.006-.05.006-.05 0-.088-.034-.033-.037-.039-.152-.006-.102-.008-.215 0-.113-.003-.243t-.003-.279V22.707q.003-.116.008-.201h-.115q-.119 0-.204-.003-.081-.003-.135-.014-.054-.014-.079-.042-.023-.029-.023-.08 0-.025.006-.045.006-.022.025-.039.02-.02.054-.031.037-.011.093-.017l.096-.006.085-.005q.042-.003.087-.003h.105q.166 0 .313.003.15.003.316.011.068.006.104.017.037.009.057.025.02.017.023.04.005.022.005.05 0 .052-.037.085-.033.034-.15.04zm1.396 1.572l-.062-.155q-.03-.09-.067-.19l-.178.006h-.41q-.098 0-.18-.003l-.065.187q-.031.087-.06.155-.056.144-.163.144-.04 0-.076-.026-.034-.025-.034-.073 0-.048.017-.124.017-.08.042-.167l.06-.183q.03-.096.059-.178.028-.09.079-.229l.113-.293.118-.3q.06-.149.108-.259.01-.028.028-.062.017-.037.04-.068.025-.03.053-.053.03-.023.068-.023.036 0 .067.025.031.023.054.057.025.034.042.07.02.037.031.065.046.113.102.26.06.147.116.296.059.15.11.285.05.136.082.229.025.082.056.175.034.093.062.183.028.09.045.17.02.076.02.124t-.037.073q-.034.026-.073.026-.05 0-.093-.034-.043-.037-.074-.11zm-.5-.621q.069 0 .136.003.068 0 .136.003l-.068-.198-.065-.19-.053-.166-.04-.138q-.011-.037-.025-.06-.014-.022-.037-.022t-.037.026q-.014.022-.025.059-.034.116-.096.302l-.127.387q.076-.003.152-.003.077-.003.15-.003zm1.754-1.233q.093 0 .187.017.095.014.172.048.076.03.124.079.05.045.05.107 0 .065-.033.099-.034.033-.085.033-.048 0-.085-.014-.036-.017-.084-.036-.045-.02-.11-.034-.065-.017-.172-.017-.108 0-.206.056-.096.054-.17.153-.07.096-.113.228-.042.133-.042.288 0 .192.048.33.05.139.13.229.079.087.178.133.101.042.203.042.121 0 .203-.025.082-.026.138-.057.06-.031.102-.056.042-.026.082-.026.048 0 .076.028.028.026.028.094 0 .056-.045.115-.042.057-.127.105-.082.045-.198.076-.115.028-.26.028-.157 0-.315-.062-.156-.062-.28-.183-.121-.125-.197-.308-.076-.186-.076-.432 0-.245.067-.437.07-.192.19-.325.12-.135.279-.206.16-.07.341-.07zm1.986 1.823l-.011-.32q-.003-.168-.003-.389l-.192.006h-.44q-.105 0-.187-.003l-.005.345q-.003.163-.011.358-.003.068-.015.104-.008.037-.025.057-.017.02-.04.022-.02.006-.047.006-.051 0-.085-.034-.034-.037-.04-.152-.005-.102-.008-.212 0-.11-.003-.237t-.003-.274v-.333q0-.2.003-.341.003-.144.014-.235.014-.09.043-.132.028-.043.079-.043.048 0 .084.032.037.03.043.143l.008.175.006.153q.002.073.002.152v.175q.212-.008.415-.008.1 0 .198.003.101.002.206.008v-.082q0-.2.003-.341.003-.144.014-.235.014-.09.042-.132.028-.043.08-.043.047 0 .084.031.037.032.042.144l.009.181.005.158q.003.076.003.161v.429q0 .116-.003.229l-.005.228q-.003.116-.009.243-.003.068-.014.104-.008.037-.025.057-.017.02-.04.022-.02.006-.048.006-.05 0-.084-.034-.034-.037-.04-.152z" style="-inkscape-font-specification:'Sniglet, Normal';font-variant-ligatures:normal;font-variant-caps:normal;font-variant-numeric:normal;font-feature-settings:normal;text-align:start" aria-label="ATTACH" font-weight="400" font-size="2.822" font-family="Sniglet" letter-spacing="0" word-spacing="0" stroke-width=".265"/></g><path d="M9.288 65.194V62.71" fill="none" stroke="#000" stroke-width=".132"/></svg>