<?xml version="1.0" encoding="UTF-8" standalone="no"?>
<svg
   width="132.08mm"
   height="128.5mm"
   viewBox="0 0 132.07936 128.50044"
   version="1.1"
   id="svg118"
   sodipodi:docname="CvPad.svg"
   inkscape:version="1.1 (c68e22c387, 2021-05-23)"
   xmlns:inkscape="http://www.inkscape.org/namespaces/inkscape"
   xmlns:sodipodi="http://sodipodi.sourceforge.net/DTD/sodipodi-0.dtd"
   xmlns="http://www.w3.org/2000/svg"
   xmlns:svg="http://www.w3.org/2000/svg"
   xmlns:rdf="http://www.w3.org/1999/02/22-rdf-syntax-ns#"
   xmlns:cc="http://creativecommons.org/ns#"
   xmlns:dc="http://purl.org/dc/elements/1.1/">
  <metadata
     id="metadata124">
    <rdf:RDF>
      <cc:Work
         rdf:about="">
        <dc:format>image/svg+xml</dc:format>
        <dc:type
           rdf:resource="http://purl.org/dc/dcmitype/StillImage" />
        <dc:title />
      </cc:Work>
    </rdf:RDF>
  </metadata>
  <defs
     id="defs122" />
  <sodipodi:namedview
     pagecolor="#ffffff"
     bordercolor="#666666"
     borderopacity="1"
     objecttolerance="10"
     gridtolerance="10"
     guidetolerance="10"
     inkscape:pageopacity="0"
     inkscape:pageshadow="2"
     inkscape:window-width="1271"
     inkscape:window-height="1016"
     id="namedview120"
     showgrid="false"
     inkscape:document-units="mm"
     units="mm"
     inkscape:zoom="1.8767005"
     inkscape:cx="247.77528"
     inkscape:cy="157.72362"
     inkscape:window-x="425"
     inkscape:window-y="0"
     inkscape:window-maximized="0"
     inkscape:current-layer="svg118"
     inkscape:pagecheckerboard="0" />
  <g
     word-spacing="0"
     letter-spacing="0"
     font-weight="400"
     id="g12"
     style="font-weight:400;letter-spacing:0;word-spacing:0;fill:#232323;stroke-width:0.78125107;fill-opacity:1"
     transform="matrix(1.2799982,0,0,1.2799982,0,-0.0972094)">
    <g
       style="line-height:1.25;stroke-width:0.78125107;fill:#232323;fill-opacity:1"
       id="g6">
      <path
         aria-label="♫"
         font-size="3.528"
         d="m 60.21,96.87 -1.631,0.115 v -2.06 q 0,-0.23 0.065,-0.333 0.064,-0.104 0.22,-0.147 0.153,-0.043 0.348,-0.002 0.223,0.047 0.356,0.19 0.134,0.146 0.134,0.33 0,0.186 -0.158,0.286 -0.158,0.103 -0.408,0.05 -0.082,-0.018 -0.143,-0.044 -0.064,-0.027 -0.205,-0.11 v 1.345 l 1.219,-0.085 v -1.554 q 0,-0.225 0.065,-0.337 0.066,-0.11 0.226,-0.151 0.16,-0.04 0.348,0 0.223,0.047 0.354,0.19 0.13,0.14 0.13,0.325 0,0.195 -0.156,0.294 -0.156,0.1 -0.408,0.047 -0.16,-0.034 -0.356,-0.16 z"
         style="font-size:3.52800012px;font-family:Arial;-inkscape-font-specification:'Arial, Normal';font-variant-ligatures:normal;font-variant-caps:normal;font-variant-numeric:normal;font-feature-settings:normal;text-align:start;stroke-width:0.78125107;fill:#232323;fill-opacity:1"
         id="path4"
         inkscape:connector-curvature="0" />
    </g>
    <g
       style="line-height:1.25;stroke-width:0.78125107;fill:#232323;fill-opacity:1"
       id="g10">
      <path
         font-size="3.528"
         aria-label="IMPROMPT"
         style="font-size:3.52800012px;font-family:Sniglet;-inkscape-font-specification:'Sniglet, Normal';font-variant-ligatures:normal;font-variant-caps:normal;font-variant-numeric:normal;font-feature-settings:normal;text-align:start;stroke-width:0.78125107;fill:#232323;fill-opacity:1"
         d="m 42.19,96.698 q -0.006,-0.127 -0.01,-0.265 0,-0.137 -0.003,-0.296 -0.003,-0.159 -0.003,-0.342 v -0.417 q 0,-0.25 0.003,-0.426 0.004,-0.18 0.02,-0.293 0.019,-0.113 0.054,-0.166 0.04,-0.053 0.103,-0.053 0.03,0 0.06,0.007 0.028,0.007 0.049,0.032 0.02,0.02 0.035,0.067 0.018,0.042 0.02,0.113 0.009,0.127 0.012,0.225 l 0.007,0.198 q 0.004,0.095 0.004,0.201 v 0.536 q 0,0.145 -0.004,0.286 l -0.007,0.286 -0.01,0.303 q -0.004,0.085 -0.018,0.13 -0.014,0.047 -0.036,0.071 -0.02,0.025 -0.05,0.028 -0.027,0.007 -0.062,0.007 -0.064,0 -0.11,-0.042 -0.046,-0.046 -0.053,-0.19 z m 1.755,-0.381 q -0.162,-0.357 -0.29,-0.688 -0.123,-0.335 -0.21,-0.596 -0.082,0.437 -0.138,0.882 -0.053,0.444 -0.138,0.85 -0.021,0.092 -0.078,0.123 -0.056,0.028 -0.095,0.028 -0.063,0 -0.102,-0.038 -0.035,-0.04 -0.035,-0.1 0,-0.08 0.017,-0.246 0.02,-0.17 0.05,-0.381 0.03,-0.212 0.07,-0.445 0.039,-0.232 0.078,-0.448 l 0.077,-0.395 q 0.04,-0.176 0.067,-0.271 0.046,-0.163 0.187,-0.163 0.085,0 0.145,0.085 0.06,0.081 0.127,0.254 0.07,0.17 0.166,0.43 0.099,0.262 0.254,0.614 0.15,-0.352 0.243,-0.61 0.095,-0.261 0.159,-0.43 0.067,-0.173 0.127,-0.254 0.06,-0.085 0.148,-0.085 0.08,0 0.124,0.042 0.042,0.039 0.063,0.12 0.025,0.099 0.06,0.275 0.035,0.173 0.074,0.388 0.042,0.212 0.08,0.445 0.04,0.233 0.07,0.444 0.034,0.212 0.05,0.385 0.022,0.17 0.022,0.261 0,0.056 -0.038,0.092 -0.04,0.031 -0.1,0.031 -0.038,0 -0.094,-0.028 -0.057,-0.032 -0.078,-0.123 -0.042,-0.201 -0.078,-0.417 l -0.063,-0.433 -0.057,-0.441 q -0.028,-0.223 -0.06,-0.441 -0.045,0.14 -0.105,0.31 -0.06,0.17 -0.127,0.342 -0.067,0.17 -0.138,0.335 -0.07,0.166 -0.138,0.3 -0.024,0.046 -0.067,0.07 -0.038,0.022 -0.08,0.022 -0.047,0 -0.09,-0.021 -0.038,-0.025 -0.06,-0.074 z m 2.005,0.377 q 0,0.085 -0.018,0.13 -0.014,0.047 -0.038,0.071 -0.022,0.025 -0.053,0.029 -0.03,0.007 -0.057,0.007 -0.095,0 -0.127,-0.043 -0.028,-0.042 -0.04,-0.19 -0.006,-0.078 -0.01,-0.226 l -0.006,-0.353 q 0,-0.204 -0.004,-0.451 v -0.522 q 0,-0.131 0.032,-0.265 0.032,-0.134 0.12,-0.243 0.092,-0.11 0.25,-0.177 0.163,-0.067 0.42,-0.067 0.18,0 0.342,0.039 0.163,0.039 0.286,0.134 0.124,0.095 0.198,0.254 0.074,0.159 0.074,0.395 0,0.247 -0.081,0.41 -0.082,0.162 -0.23,0.257 -0.148,0.095 -0.352,0.134 -0.205,0.039 -0.448,0.039 h -0.12 q -0.06,0 -0.134,-0.007 z m 1.016,-1.485 q 0,-0.236 -0.134,-0.356 -0.13,-0.12 -0.437,-0.12 -0.117,0 -0.202,0.021 -0.08,0.018 -0.134,0.067 -0.053,0.046 -0.08,0.127 -0.025,0.081 -0.025,0.205 v 0.275 q 0,0.151 0.003,0.286 0.08,0.004 0.18,0.004 h 0.19 q 0.106,0 0.22,-0.015 0.116,-0.014 0.207,-0.063 0.092,-0.053 0.152,-0.152 0.06,-0.102 0.06,-0.278 z m 1.45,0.84 -0.101,0.007 h -0.222 q -0.06,0 -0.134,-0.007 v 0.716 q 0,0.113 -0.057,0.14 -0.053,0.026 -0.134,0.026 -0.042,0 -0.067,-0.007 -0.025,-0.004 -0.042,-0.018 -0.014,-0.018 -0.025,-0.05 -0.007,-0.031 -0.01,-0.088 -0.008,-0.063 -0.011,-0.183 -0.004,-0.123 -0.007,-0.318 0,-0.194 -0.004,-0.469 v -0.652 q 0,-0.145 0.036,-0.279 0.035,-0.138 0.127,-0.24 0.09,-0.106 0.246,-0.17 0.16,-0.063 0.403,-0.063 0.173,0 0.335,0.039 0.166,0.039 0.293,0.134 0.127,0.095 0.204,0.258 0.078,0.162 0.078,0.405 0,0.325 -0.141,0.505 -0.138,0.176 -0.381,0.25 l 0.472,0.65 q 0.064,0.084 0.064,0.172 0,0.07 -0.05,0.11 -0.045,0.042 -0.116,0.042 -0.077,0 -0.134,-0.042 -0.056,-0.046 -0.106,-0.117 z m 0.555,-0.822 q 0,-0.244 -0.148,-0.36 -0.145,-0.12 -0.462,-0.12 -0.117,0 -0.194,0.021 -0.078,0.018 -0.124,0.07 -0.046,0.054 -0.067,0.149 -0.017,0.091 -0.017,0.236 v 0.24 q 0,0.138 0.003,0.25 0.08,0.005 0.18,0.005 h 0.19 q 0.1,0 0.209,-0.011 0.113,-0.014 0.208,-0.064 0.095,-0.052 0.159,-0.148 0.063,-0.099 0.063,-0.268 z m 1.609,1.725 q -0.211,0 -0.398,-0.085 -0.184,-0.085 -0.321,-0.243 -0.138,-0.163 -0.22,-0.395 -0.077,-0.233 -0.077,-0.53 0,-0.278 0.067,-0.511 0.07,-0.233 0.205,-0.402 0.138,-0.17 0.339,-0.261 0.2,-0.096 0.465,-0.096 0.216,0 0.41,0.078 0.194,0.078 0.338,0.233 0.148,0.155 0.233,0.388 0.085,0.233 0.085,0.543 0,0.258 -0.07,0.49 -0.068,0.233 -0.21,0.41 -0.137,0.173 -0.35,0.278 -0.21,0.103 -0.496,0.103 z m 0.007,-0.332 q 0.194,0 0.34,-0.077 0.144,-0.082 0.239,-0.212 0.095,-0.13 0.14,-0.3 0.047,-0.173 0.047,-0.353 0,-0.218 -0.06,-0.388 -0.056,-0.173 -0.155,-0.29 -0.1,-0.115 -0.23,-0.175 -0.13,-0.064 -0.278,-0.064 -0.177,0 -0.31,0.074 -0.131,0.074 -0.223,0.201 -0.088,0.127 -0.134,0.3 -0.046,0.17 -0.046,0.363 0,0.209 0.053,0.381 0.053,0.17 0.14,0.29 0.093,0.12 0.216,0.187 0.124,0.063 0.26,0.063 z m 2.384,-0.303 q -0.162,-0.357 -0.29,-0.688 -0.123,-0.335 -0.211,-0.596 -0.08,0.437 -0.137,0.882 -0.053,0.444 -0.138,0.85 -0.021,0.092 -0.077,0.123 -0.057,0.028 -0.096,0.028 -0.063,0 -0.102,-0.038 -0.035,-0.04 -0.035,-0.1 0,-0.08 0.017,-0.246 0.02,-0.17 0.05,-0.381 0.03,-0.212 0.07,-0.445 l 0.078,-0.448 0.077,-0.395 q 0.04,-0.176 0.068,-0.271 0.045,-0.163 0.186,-0.163 0.085,0 0.145,0.085 0.06,0.081 0.127,0.254 0.07,0.17 0.166,0.43 0.099,0.262 0.254,0.614 0.152,-0.352 0.243,-0.61 0.096,-0.261 0.16,-0.43 0.066,-0.173 0.126,-0.254 0.06,-0.085 0.148,-0.085 0.08,0 0.124,0.042 0.042,0.039 0.063,0.12 0.025,0.099 0.06,0.275 0.035,0.173 0.074,0.388 0.043,0.212 0.08,0.445 0.04,0.233 0.072,0.444 0.032,0.212 0.05,0.385 0.02,0.17 0.02,0.261 0,0.056 -0.038,0.092 -0.04,0.031 -0.1,0.031 -0.038,0 -0.094,-0.028 -0.057,-0.032 -0.078,-0.123 -0.042,-0.201 -0.078,-0.417 l -0.063,-0.433 -0.056,-0.441 -0.06,-0.441 q -0.046,0.14 -0.106,0.31 -0.06,0.17 -0.127,0.342 -0.067,0.17 -0.138,0.335 -0.07,0.166 -0.137,0.3 -0.025,0.046 -0.067,0.07 -0.04,0.022 -0.082,0.022 -0.045,0 -0.088,-0.021 -0.04,-0.025 -0.06,-0.074 z m 2.006,0.377 q 0,0.085 -0.018,0.13 -0.015,0.047 -0.04,0.071 -0.02,0.025 -0.052,0.029 -0.028,0.007 -0.057,0.007 -0.095,0 -0.127,-0.043 -0.028,-0.042 -0.038,-0.19 -0.008,-0.078 -0.011,-0.226 -0.004,-0.148 -0.007,-0.353 0,-0.204 -0.004,-0.451 v -0.522 q 0,-0.131 0.032,-0.265 0.032,-0.134 0.12,-0.243 0.092,-0.11 0.25,-0.177 0.163,-0.067 0.42,-0.067 0.18,0 0.343,0.039 0.162,0.039 0.285,0.134 0.124,0.095 0.198,0.254 0.074,0.159 0.074,0.395 0,0.247 -0.081,0.41 -0.081,0.162 -0.23,0.257 -0.148,0.095 -0.352,0.134 -0.205,0.039 -0.448,0.039 h -0.12 q -0.06,0 -0.134,-0.007 z m 1.015,-1.485 q 0,-0.236 -0.134,-0.356 -0.13,-0.12 -0.437,-0.12 -0.117,0 -0.201,0.021 -0.082,0.018 -0.134,0.067 -0.053,0.046 -0.082,0.127 -0.024,0.081 -0.024,0.205 v 0.275 q 0,0.151 0.003,0.286 0.08,0.004 0.18,0.004 h 0.19 q 0.106,0 0.22,-0.015 0.116,-0.014 0.207,-0.063 0.092,-0.053 0.152,-0.152 0.06,-0.102 0.06,-0.278 z m 1.975,-0.437 q -0.1,0.007 -0.212,0.01 l -0.244,0.007 0.007,0.18 0.007,0.166 q 0.004,0.085 0.004,0.176 0.003,0.092 0.003,0.205 v 0.307 q 0,0.144 -0.003,0.293 l -0.007,0.292 -0.01,0.307 q -0.004,0.085 -0.018,0.13 -0.011,0.047 -0.032,0.072 -0.021,0.024 -0.05,0.028 -0.028,0.007 -0.063,0.007 -0.064,0 -0.11,-0.043 -0.042,-0.045 -0.05,-0.19 -0.006,-0.127 -0.01,-0.268 0,-0.141 -0.003,-0.304 -0.003,-0.162 -0.003,-0.349 V 95.04 q 0.003,-0.145 0.01,-0.25 h -0.145 q -0.148,0 -0.254,-0.005 -0.102,-0.004 -0.17,-0.017 -0.066,-0.018 -0.098,-0.053 -0.028,-0.036 -0.028,-0.1 0,-0.03 0.007,-0.055 0.007,-0.029 0.032,-0.05 0.025,-0.025 0.067,-0.039 0.046,-0.014 0.116,-0.02 l 0.12,-0.008 0.106,-0.007 q 0.053,-0.004 0.11,-0.004 h 0.13 q 0.208,0 0.392,0.004 0.187,0.004 0.395,0.014 0.084,0.007 0.13,0.021 0.046,0.011 0.07,0.032 0.026,0.021 0.03,0.05 0.006,0.028 0.006,0.063 0,0.064 -0.046,0.106 -0.042,0.042 -0.187,0.05 z"
         id="path8"
         inkscape:connector-curvature="0" />
    </g>
  </g>
  <rect
     rx="2.3399999"
     ry="2.3399999"
     y="50.801914"
     x="99.567223"
     height="66.566307"
     width="29.125078"
     id="rect14"
     style="fill:#afafaf;stroke-width:0.99999994;paint-order:stroke markers fill;fill-opacity:1" />
  <g
     style="line-height:1.25;stroke-width:0.78125107;fill:#232323;fill-opacity:1"
     id="g20"
     transform="matrix(1.2799982,0,0,1.2799982,0,-0.0972094)">
    <path
       d="m 45.986,3.532 q 0.14,0 0.279,0.026 0.144,0.02 0.258,0.072 0.115,0.046 0.187,0.118 0.076,0.068 0.076,0.161 0,0.097 -0.051,0.148 -0.05,0.05 -0.127,0.05 -0.072,0 -0.127,-0.02 Q 46.426,4.061 46.354,4.032 46.286,4.002 46.189,3.981 46.091,3.956 45.931,3.956 q -0.161,0 -0.31,0.084 -0.143,0.08 -0.253,0.229 -0.106,0.144 -0.17,0.343 -0.063,0.199 -0.063,0.432 0,0.287 0.072,0.495 0.076,0.207 0.194,0.343 0.119,0.13 0.267,0.199 0.153,0.063 0.305,0.063 0.182,0 0.305,-0.038 0.123,-0.038 0.207,-0.085 0.09,-0.046 0.153,-0.084 0.063,-0.038 0.122,-0.038 0.072,0 0.115,0.042 0.042,0.038 0.042,0.14 0,0.084 -0.068,0.173 -0.063,0.085 -0.19,0.157 -0.123,0.068 -0.297,0.114 -0.173,0.043 -0.39,0.043 -0.236,0 -0.473,-0.094 Q 45.266,6.381 45.079,6.199 44.898,6.013 44.783,5.738 44.669,5.458 44.669,5.09 q 0,-0.368 0.102,-0.656 0.106,-0.288 0.283,-0.487 0.182,-0.203 0.42,-0.309 0.24,-0.106 0.512,-0.106 z m 2.462,2.828 q -0.055,0.102 -0.102,0.148 -0.042,0.047 -0.11,0.047 -0.068,0 -0.118,-0.047 Q 48.067,6.462 48.008,6.364 47.931,6.237 47.834,6.013 47.741,5.789 47.644,5.526 47.546,5.259 47.453,4.976 47.36,4.692 47.283,4.442 47.212,4.192 47.165,4.006 q -0.042,-0.19 -0.042,-0.27 0,-0.085 0.034,-0.128 0.034,-0.042 0.13,-0.042 0.056,0 0.094,0.03 0.042,0.025 0.106,0.152 0.05,0.097 0.11,0.254 0.06,0.157 0.123,0.347 0.067,0.19 0.135,0.402 l 0.136,0.415 0.127,0.398 q 0.059,0.19 0.11,0.343 0.05,-0.157 0.114,-0.347 l 0.13,-0.398 0.137,-0.415 q 0.067,-0.211 0.135,-0.398 l 0.127,-0.343 q 0.06,-0.156 0.106,-0.258 0.06,-0.123 0.102,-0.152 0.046,-0.03 0.093,-0.03 0.097,0 0.13,0.05 0.039,0.047 0.039,0.14 0,0.085 -0.025,0.204 -0.026,0.118 -0.09,0.317 -0.06,0.195 -0.16,0.487 l -0.25,0.716 q -0.038,0.114 -0.09,0.237 -0.045,0.122 -0.096,0.24 -0.047,0.115 -0.093,0.221 -0.047,0.106 -0.09,0.182 z m 2.648,-0.889 q -0.195,0.009 -0.45,0.017 -0.253,0.004 -0.6,0.004 -0.144,0 -0.246,-0.004 -0.101,-0.004 -0.165,-0.021 -0.063,-0.021 -0.093,-0.064 -0.03,-0.042 -0.03,-0.118 0,-0.038 0.009,-0.068 0.008,-0.034 0.038,-0.06 0.03,-0.025 0.08,-0.042 0.055,-0.02 0.14,-0.03 0.064,-0.003 0.11,-0.008 0.05,-0.004 0.097,-0.004 0.047,-0.004 0.098,-0.004 h 0.127 q 0.228,0 0.44,0.004 0.212,0 0.44,0.013 0.102,0.008 0.157,0.025 0.055,0.013 0.085,0.038 0.03,0.026 0.034,0.06 0.008,0.033 0.008,0.076 0,0.076 -0.055,0.127 -0.05,0.05 -0.224,0.06 z m 1.043,0.792 q 0,0.101 -0.021,0.156 -0.017,0.055 -0.047,0.085 -0.025,0.03 -0.063,0.034 -0.034,0.008 -0.068,0.008 -0.114,0 -0.152,-0.05 Q 51.754,6.445 51.741,6.266 51.733,6.174 51.728,5.996 L 51.72,5.573 q 0,-0.246 -0.004,-0.542 V 4.404 q 0,-0.156 0.038,-0.317 0.038,-0.161 0.144,-0.292 0.11,-0.132 0.3,-0.212 0.195,-0.08 0.504,-0.08 0.216,0 0.41,0.046 0.195,0.047 0.344,0.161 0.148,0.114 0.237,0.305 0.088,0.19 0.088,0.474 0,0.296 -0.097,0.491 -0.097,0.195 -0.275,0.309 -0.178,0.114 -0.423,0.16 -0.246,0.047 -0.538,0.047 h -0.144 q -0.072,0 -0.16,-0.008 z m 1.22,-1.783 q 0,-0.283 -0.162,-0.427 -0.156,-0.144 -0.525,-0.144 -0.14,0 -0.241,0.025 -0.097,0.022 -0.16,0.08 -0.064,0.056 -0.098,0.153 -0.03,0.098 -0.03,0.246 v 0.33 q 0,0.182 0.004,0.343 0.098,0.004 0.216,0.004 h 0.229 q 0.127,0 0.262,-0.017 0.14,-0.017 0.25,-0.076 0.11,-0.064 0.182,-0.182 0.072,-0.123 0.072,-0.335 z m 2.412,1.834 Q 55.729,6.212 55.678,6.081 55.632,5.945 55.577,5.797 L 55.31,5.806 h -0.614 q -0.148,0 -0.27,-0.005 l -0.098,0.28 q -0.047,0.13 -0.09,0.233 -0.084,0.215 -0.245,0.215 -0.06,0 -0.114,-0.038 -0.05,-0.038 -0.05,-0.11 0,-0.072 0.025,-0.186 0.025,-0.119 0.063,-0.25 Q 53.96,5.81 54.007,5.67 54.053,5.526 54.095,5.403 54.137,5.268 54.214,5.06 l 0.169,-0.44 q 0.089,-0.228 0.178,-0.449 0.089,-0.224 0.16,-0.389 0.017,-0.042 0.043,-0.093 0.025,-0.055 0.06,-0.102 0.037,-0.046 0.08,-0.08 0.046,-0.034 0.1,-0.034 0.056,0 0.103,0.038 0.046,0.034 0.08,0.085 0.038,0.05 0.064,0.106 0.03,0.055 0.046,0.097 0.068,0.17 0.153,0.39 0.089,0.22 0.173,0.444 0.09,0.224 0.165,0.427 0.077,0.204 0.123,0.343 0.038,0.123 0.085,0.263 0.05,0.14 0.093,0.275 0.042,0.135 0.068,0.254 0.03,0.114 0.03,0.186 0,0.072 -0.056,0.11 -0.05,0.038 -0.11,0.038 -0.076,0 -0.14,-0.05 -0.063,-0.055 -0.11,-0.165 z m -0.75,-0.932 q 0.103,0 0.204,0.004 0.102,0 0.204,0.005 L 55.327,5.094 55.23,4.811 55.15,4.561 55.09,4.353 Q 55.073,4.298 55.052,4.265 55.031,4.231 54.997,4.231 q -0.034,0 -0.055,0.038 -0.021,0.034 -0.038,0.089 -0.051,0.173 -0.144,0.453 l -0.19,0.58 q 0.113,-0.005 0.228,-0.005 0.114,-0.004 0.224,-0.004 z m 2.333,-1.846 q 0.436,0 0.699,0.132 0.262,0.13 0.402,0.347 0.14,0.216 0.182,0.49 0.047,0.276 0.047,0.56 0,0.309 -0.08,0.584 -0.077,0.275 -0.242,0.482 -0.161,0.204 -0.415,0.326 -0.254,0.119 -0.605,0.119 -0.28,0 -0.45,-0.042 -0.164,-0.038 -0.257,-0.119 -0.09,-0.08 -0.12,-0.203 -0.03,-0.123 -0.03,-0.288 V 4.332 q 0,-0.182 0.03,-0.33 0.035,-0.148 0.128,-0.25 0.093,-0.105 0.263,-0.16 0.173,-0.056 0.448,-0.056 z m 0.017,2.617 q 0.263,0 0.432,-0.093 Q 57.977,5.962 58.078,5.806 58.18,5.649 58.218,5.45 58.26,5.25 58.26,5.044 58.26,4.853 58.23,4.663 58.2,4.468 58.108,4.311 58.015,4.155 57.841,4.057 57.667,3.96 57.38,3.96 q -0.263,0 -0.364,0.076 -0.102,0.076 -0.102,0.233 V 5.89 q 0,0.131 0.093,0.2 0.097,0.063 0.364,0.063 z"
       style="font-weight:400;font-size:4.2329998px;font-family:Sniglet;-inkscape-font-specification:'Sniglet, Normal';font-variant-ligatures:normal;font-variant-caps:normal;font-variant-numeric:normal;font-feature-settings:normal;text-align:start;letter-spacing:0;word-spacing:0;stroke-width:0.78125107;fill:#232323;fill-opacity:1"
       aria-label="CV-PAD"
       font-weight="400"
       font-size="4.233"
       letter-spacing="0"
       word-spacing="0"
       id="path18"
       inkscape:connector-curvature="0" />
  </g>
  <g
     style="line-height:1.25;stroke-width:0.78125107;fill:#232323;fill-opacity:1"
     id="g54"
     transform="matrix(1.2799982,0,0,1.2799982,0,-0.0972094)">
    <path
       d="m 82.93,42.928 q 0.092,0 0.185,0.017 0.096,0.014 0.173,0.048 0.076,0.03 0.124,0.079 0.05,0.045 0.05,0.107 0,0.065 -0.033,0.099 -0.034,0.034 -0.085,0.034 -0.048,0 -0.085,-0.015 L 83.175,43.261 Q 83.129,43.241 83.065,43.227 83,43.21 82.892,43.21 q -0.107,0 -0.206,0.056 -0.096,0.054 -0.169,0.153 -0.07,0.096 -0.113,0.228 -0.042,0.133 -0.042,0.288 0,0.192 0.048,0.33 0.05,0.139 0.13,0.23 0.08,0.087 0.177,0.132 0.102,0.042 0.204,0.042 0.121,0 0.203,-0.025 0.082,-0.026 0.138,-0.057 0.06,-0.03 0.102,-0.056 0.042,-0.026 0.082,-0.026 0.048,0 0.076,0.029 0.028,0.025 0.028,0.093 0,0.056 -0.045,0.115 -0.043,0.057 -0.127,0.105 -0.082,0.045 -0.198,0.076 -0.116,0.028 -0.26,0.028 -0.158,0 -0.316,-0.062 -0.155,-0.062 -0.279,-0.183 -0.12,-0.124 -0.198,-0.308 -0.076,-0.186 -0.076,-0.432 0,-0.245 0.068,-0.437 0.07,-0.192 0.19,-0.325 0.12,-0.135 0.278,-0.206 0.161,-0.07 0.342,-0.07 z m 1.641,1.885 q -0.037,0.068 -0.068,0.099 -0.028,0.03 -0.073,0.03 -0.046,0 -0.08,-0.03 -0.033,-0.031 -0.073,-0.096 -0.05,-0.085 -0.116,-0.234 -0.062,-0.15 -0.127,-0.325 -0.064,-0.178 -0.127,-0.367 -0.062,-0.189 -0.112,-0.355 -0.048,-0.167 -0.08,-0.291 -0.028,-0.127 -0.028,-0.18 0,-0.057 0.023,-0.085 0.023,-0.029 0.087,-0.029 0.037,0 0.063,0.02 0.028,0.017 0.07,0.102 0.034,0.065 0.073,0.169 0.04,0.104 0.082,0.231 0.046,0.127 0.09,0.269 l 0.09,0.276 q 0.046,0.138 0.086,0.265 l 0.073,0.229 0.076,-0.231 0.088,-0.266 0.09,-0.276 q 0.045,-0.141 0.09,-0.266 l 0.085,-0.228 q 0.04,-0.105 0.07,-0.172 0.04,-0.082 0.068,-0.102 0.031,-0.02 0.062,-0.02 0.065,0 0.088,0.034 0.025,0.031 0.025,0.093 0,0.057 -0.017,0.136 -0.016,0.079 -0.059,0.211 -0.04,0.13 -0.107,0.325 l -0.167,0.477 q -0.025,0.076 -0.059,0.158 -0.03,0.082 -0.065,0.16 -0.03,0.077 -0.062,0.148 -0.03,0.07 -0.06,0.121 z"
       style="font-weight:400;font-size:2.82200003px;font-family:Sniglet;-inkscape-font-specification:'Sniglet, Normal';font-variant-ligatures:normal;font-variant-caps:normal;font-variant-numeric:normal;font-feature-settings:normal;text-align:start;letter-spacing:0;word-spacing:0;stroke-width:0.78125107;fill:#232323;fill-opacity:1"
       aria-label="CV"
       font-weight="400"
       font-size="2.822"
       letter-spacing="0"
       word-spacing="0"
       id="path52"
       inkscape:connector-curvature="0" />
  </g>
  <g
     style="line-height:1.25;stroke-width:0.78125107;fill:#232323;fill-opacity:1"
     id="g58"
     transform="matrix(1.2799982,0,0,1.2799982,0,-0.0972094)">
    <path
       d="m 92.358,42.84 q 0.093,0 0.192,0.017 0.1,0.017 0.18,0.051 0.082,0.031 0.136,0.079 0.054,0.048 0.054,0.11 0,0.065 -0.034,0.099 -0.034,0.034 -0.085,0.034 -0.048,0 -0.09,-0.017 l -0.09,-0.037 q -0.05,-0.02 -0.122,-0.037 -0.07,-0.016 -0.178,-0.016 -0.118,0 -0.223,0.056 -0.1,0.054 -0.18,0.152 -0.08,0.096 -0.125,0.229 -0.045,0.133 -0.045,0.288 0,0.189 0.048,0.327 0.048,0.139 0.125,0.229 0.08,0.09 0.175,0.135 0.098,0.043 0.197,0.043 0.161,0 0.254,-0.046 0.096,-0.048 0.152,-0.12 0.003,-0.06 0.003,-0.142 v -0.178 q 0,-0.037 -0.006,-0.056 -0.006,-0.023 -0.028,-0.034 -0.022,-0.011 -0.067,-0.014 -0.043,-0.003 -0.116,-0.003 -0.09,0 -0.147,-0.023 -0.056,-0.025 -0.056,-0.104 0,-0.056 0.028,-0.09 0.03,-0.037 0.124,-0.043 h 0.054 q 0.04,-0.002 0.082,-0.002 h 0.155 q 0.084,0 0.135,0.016 0.051,0.015 0.09,0.068 0.02,0.028 0.023,0.099 0.006,0.07 0.006,0.164 v 0.728 q 0,0.076 -0.042,0.113 -0.04,0.036 -0.093,0.036 -0.065,0 -0.108,-0.034 -0.04,-0.03 -0.04,-0.101 v -0.11 q -0.072,0.085 -0.174,0.121 -0.099,0.037 -0.25,0.037 -0.156,0 -0.306,-0.062 -0.15,-0.062 -0.265,-0.184 -0.116,-0.124 -0.19,-0.307 -0.07,-0.187 -0.07,-0.432 0,-0.246 0.07,-0.438 0.074,-0.191 0.198,-0.324 0.124,-0.136 0.29,-0.206 0.167,-0.07 0.36,-0.07 z m 2.113,1.854 q -0.028,-0.067 -0.062,-0.155 -0.03,-0.09 -0.068,-0.189 l -0.177,0.006 h -0.41 q -0.098,0 -0.18,-0.003 l -0.065,0.186 q -0.03,0.088 -0.06,0.155 -0.056,0.144 -0.163,0.144 -0.04,0 -0.076,-0.025 -0.034,-0.025 -0.034,-0.073 0,-0.048 0.017,-0.125 0.017,-0.079 0.042,-0.166 0.028,-0.09 0.06,-0.184 0.03,-0.095 0.06,-0.177 0.027,-0.09 0.078,-0.229 l 0.112,-0.293 0.12,-0.3 q 0.06,-0.15 0.106,-0.26 l 0.028,-0.061 q 0.017,-0.037 0.04,-0.068 0.025,-0.031 0.054,-0.054 0.03,-0.022 0.067,-0.022 0.037,0 0.068,0.025 0.031,0.023 0.054,0.057 0.025,0.033 0.042,0.07 0.02,0.037 0.03,0.065 0.046,0.113 0.102,0.26 0.06,0.146 0.116,0.296 0.06,0.15 0.11,0.285 0.051,0.136 0.082,0.229 l 0.057,0.175 q 0.033,0.093 0.062,0.183 0.028,0.09 0.045,0.17 0.02,0.076 0.02,0.124 0,0.048 -0.037,0.073 -0.034,0.025 -0.073,0.025 -0.05,0 -0.094,-0.033 -0.042,-0.037 -0.073,-0.11 z m -0.5,-0.62 0.136,0.002 q 0.068,0 0.136,0.003 l -0.068,-0.197 -0.065,-0.19 q -0.028,-0.09 -0.054,-0.166 l -0.04,-0.138 q -0.01,-0.037 -0.025,-0.06 -0.014,-0.022 -0.036,-0.022 -0.023,0 -0.037,0.025 -0.014,0.023 -0.025,0.06 -0.034,0.115 -0.096,0.302 l -0.127,0.386 q 0.076,-0.003 0.152,-0.003 l 0.15,-0.002 z m 1.876,-0.951 q -0.079,0.005 -0.17,0.008 l -0.194,0.006 0.006,0.144 0.006,0.132 q 0.003,0.068 0.003,0.141 0.003,0.074 0.003,0.164 v 0.246 q 0,0.115 -0.003,0.234 l -0.006,0.234 -0.008,0.246 q -0.003,0.067 -0.014,0.104 -0.008,0.037 -0.025,0.056 -0.017,0.02 -0.04,0.023 -0.022,0.006 -0.05,0.006 -0.05,0 -0.088,-0.034 -0.034,-0.037 -0.04,-0.153 -0.006,-0.101 -0.008,-0.214 0,-0.113 -0.003,-0.243 -0.003,-0.13 -0.003,-0.28 v -0.606 q 0.003,-0.116 0.008,-0.2 h -0.115 q -0.119,0 -0.204,-0.003 -0.08,-0.003 -0.135,-0.014 -0.054,-0.014 -0.079,-0.043 -0.023,-0.028 -0.023,-0.079 0,-0.025 0.006,-0.045 0.006,-0.022 0.026,-0.04 0.02,-0.02 0.053,-0.03 0.037,-0.012 0.094,-0.017 l 0.096,-0.006 0.084,-0.006 q 0.043,-0.002 0.088,-0.002 h 0.104 q 0.167,0 0.313,0.002 0.15,0.003 0.316,0.012 0.068,0.005 0.105,0.017 0.037,0.008 0.056,0.025 0.02,0.017 0.023,0.04 0.006,0.022 0.006,0.05 0,0.051 -0.037,0.085 -0.034,0.034 -0.15,0.04 z m 0.402,1.287 q -0.006,-0.09 -0.01,-0.246 -0.007,-0.155 -0.007,-0.319 v -0.192 l 0.006,-0.206 q 0.006,-0.209 0.025,-0.327 0.023,-0.119 0.085,-0.178 0.065,-0.06 0.18,-0.073 0.116,-0.015 0.308,-0.015 h 0.06 q 0.06,0 0.14,0.003 0.082,0 0.17,0.003 l 0.15,0.006 q 0.062,0.005 0.098,0.017 0.04,0.008 0.06,0.025 0.02,0.014 0.025,0.037 0.006,0.02 0.006,0.045 0,0.065 -0.037,0.096 -0.036,0.028 -0.15,0.036 -0.056,0.006 -0.166,0.009 h -0.22 q -0.113,0 -0.203,0.003 h -0.113 q -0.073,0.003 -0.104,0.034 -0.029,0.028 -0.029,0.138 l 0.003,0.124 q 0.006,0.096 0.006,0.271 h 0.235 q 0.15,0 0.242,0.006 0.096,0.002 0.147,0.017 0.054,0.014 0.073,0.045 0.02,0.03 0.02,0.082 0,0.025 -0.006,0.048 -0.003,0.02 -0.022,0.036 -0.02,0.014 -0.057,0.026 -0.036,0.008 -0.104,0.014 l -0.155,0.008 h -0.379 v 0.345 l 0.006,0.095 q 0.003,0.046 0.012,0.077 0.011,0.03 0.036,0.05 0.03,0.02 0.08,0.029 0.053,0.008 0.14,0.008 h 0.607 q 0.1,0 0.125,0.037 0.025,0.037 0.025,0.099 0,0.05 -0.023,0.079 -0.022,0.025 -0.11,0.036 -0.084,0.014 -0.257,0.017 -0.169,0.003 -0.468,0.003 -0.127,0 -0.209,-0.022 -0.082,-0.023 -0.133,-0.077 -0.05,-0.053 -0.076,-0.138 -0.022,-0.087 -0.03,-0.212 z"
       style="font-weight:400;font-size:2.82200003px;font-family:Sniglet;-inkscape-font-specification:'Sniglet, Normal';font-variant-ligatures:normal;font-variant-caps:normal;font-variant-numeric:normal;font-feature-settings:normal;text-align:start;letter-spacing:0;word-spacing:0;stroke-width:0.78125107;fill:#232323;fill-opacity:1"
       aria-label="GATE"
       font-weight="400"
       font-size="2.822"
       letter-spacing="0"
       word-spacing="0"
       id="path56"
       inkscape:connector-curvature="0" />
  </g>
  <g
     style="line-height:1.25;stroke-width:0.78125107;fill:#232323;fill-opacity:1"
     id="g62"
     transform="matrix(1.2799982,0,0,1.2799982,0,-0.0972094)">
    <path
       d="m 79.357,10.221 q -0.159,0 -0.255,-0.026 -0.096,-0.025 -0.15,-0.07 -0.05,-0.048 -0.07,-0.116 Q 78.865,9.941 78.857,9.857 78.848,9.757 78.843,9.597 78.84,9.433 78.84,9.258 V 9.08 q 0.003,-0.095 0.003,-0.186 l 0.005,-0.172 q 0.003,-0.079 0.01,-0.135 0.007,-0.088 0.027,-0.158 0.02,-0.07 0.074,-0.122 0.056,-0.05 0.155,-0.076 0.101,-0.028 0.268,-0.028 0.378,0 0.564,0.14 0.19,0.14 0.19,0.396 0,0.133 -0.06,0.246 -0.056,0.112 -0.197,0.17 0.08,0.013 0.143,0.06 0.065,0.043 0.11,0.11 0.05,0.06 0.071,0.14 0.026,0.075 0.026,0.155 0,0.101 -0.043,0.208 -0.042,0.105 -0.144,0.192 -0.1,0.088 -0.27,0.144 -0.167,0.057 -0.416,0.057 z m 0.59,-0.61 q 0,-0.102 -0.049,-0.164 Q 79.853,9.385 79.78,9.354 79.706,9.32 79.616,9.309 q -0.09,-0.01 -0.18,-0.01 h -0.147 q -0.076,0 -0.14,0.002 l -0.007,0.12 -0.006,0.12 v 0.152 q 0,0.076 0.012,0.127 0.01,0.05 0.042,0.082 0.031,0.03 0.087,0.045 0.06,0.011 0.15,0.011 0.248,0 0.384,-0.087 0.135,-0.088 0.135,-0.26 z m -0.523,-1.14 q -0.093,0 -0.152,0.017 -0.057,0.014 -0.088,0.04 -0.028,0.025 -0.04,0.061 -0.008,0.037 -0.008,0.08 v 0.395 q 0.04,0.002 0.082,0.002 h 0.085 q 0.101,0 0.197,-0.014 0.1,-0.014 0.178,-0.048 0.08,-0.034 0.127,-0.093 0.048,-0.06 0.048,-0.152 0,-0.127 -0.104,-0.206 -0.102,-0.082 -0.325,-0.082 z m 2.241,1.606 -0.062,-0.156 q -0.03,-0.09 -0.068,-0.189 l -0.178,0.006 h -0.409 q -0.099,0 -0.18,-0.003 l -0.065,0.186 q -0.03,0.088 -0.06,0.156 -0.056,0.144 -0.163,0.144 -0.04,0 -0.076,-0.026 -0.034,-0.025 -0.034,-0.073 0,-0.048 0.017,-0.124 0.017,-0.08 0.042,-0.167 0.028,-0.09 0.06,-0.183 0.03,-0.096 0.06,-0.178 0.027,-0.09 0.078,-0.229 l 0.112,-0.293 0.12,-0.3 0.106,-0.259 q 0.011,-0.028 0.028,-0.062 0.017,-0.037 0.04,-0.068 0.025,-0.03 0.054,-0.053 0.03,-0.023 0.067,-0.023 0.037,0 0.068,0.025 0.031,0.023 0.054,0.057 0.025,0.034 0.042,0.07 0.02,0.037 0.031,0.065 l 0.102,0.26 q 0.06,0.147 0.115,0.296 0.06,0.15 0.11,0.285 0.051,0.136 0.082,0.23 l 0.057,0.174 q 0.034,0.093 0.062,0.183 0.028,0.09 0.045,0.17 0.02,0.076 0.02,0.124 0,0.048 -0.037,0.073 -0.034,0.026 -0.073,0.026 -0.05,0 -0.094,-0.034 -0.042,-0.037 -0.073,-0.11 z m -0.5,-0.62 0.136,0.002 0.136,0.002 -0.068,-0.197 -0.065,-0.19 Q 81.276,8.984 81.25,8.908 L 81.21,8.77 Q 81.2,8.733 81.185,8.71 81.171,8.688 81.149,8.688 q -0.023,0 -0.037,0.026 -0.014,0.022 -0.025,0.06 -0.034,0.115 -0.096,0.301 l -0.127,0.386 0.152,-0.002 q 0.076,-0.003 0.15,-0.003 z m 2.094,0.631 Q 83.169,9.964 83.087,9.842 L 82.915,9.572 Q 82.825,9.425 82.706,9.247 82.59,9.067 82.426,8.827 v 0.38 q 0,0.167 -0.002,0.31 l -0.006,0.272 q -0.002,0.127 -0.008,0.254 -0.003,0.068 -0.014,0.104 -0.009,0.037 -0.026,0.057 -0.017,0.02 -0.04,0.022 -0.019,0.006 -0.047,0.006 -0.05,0 -0.085,-0.034 -0.034,-0.037 -0.04,-0.152 -0.013,-0.31 -0.016,-0.62 V 8.778 q 0,-0.189 0.003,-0.296 0.005,-0.107 0.02,-0.16 0.016,-0.054 0.042,-0.068 0.028,-0.015 0.073,-0.015 0.045,0 0.12,0.071 0.072,0.068 0.16,0.18 0.087,0.113 0.186,0.26 0.101,0.147 0.2,0.302 0.1,0.155 0.19,0.308 l 0.17,0.276 Q 83.302,9.504 83.302,9.346 V 8.99 q 0,-0.223 0.003,-0.367 0.002,-0.147 0.014,-0.23 0.014,-0.086 0.042,-0.12 0.028,-0.034 0.08,-0.034 0.047,0 0.084,0.031 0.036,0.032 0.042,0.144 0.006,0.102 0.008,0.181 l 0.006,0.158 q 0.003,0.076 0.003,0.16 v 0.43 q 0,0.116 -0.003,0.23 L 83.575,9.8 q -0.002,0.116 -0.008,0.243 -0.003,0.068 -0.014,0.104 -0.009,0.037 -0.026,0.057 -0.016,0.02 -0.039,0.022 -0.02,0.006 -0.048,0.006 -0.048,0 -0.082,-0.028 -0.034,-0.029 -0.099,-0.116 z m 0.678,-0.042 Q 83.931,9.944 83.927,9.834 L 83.925,9.597 Q 83.922,9.47 83.922,9.323 V 8.99 q 0,-0.2 0.003,-0.34 0.003,-0.145 0.014,-0.236 0.014,-0.09 0.042,-0.132 0.03,-0.043 0.08,-0.043 0.047,0 0.084,0.031 0.037,0.032 0.042,0.144 l 0.01,0.181 0.005,0.158 q 0.002,0.076 0.002,0.16 v 0.335 l 0.604,-0.69 q 0.12,-0.137 0.184,-0.179 0.065,-0.045 0.113,-0.045 0.056,0 0.081,0.028 0.03,0.028 0.03,0.07 0,0.017 -0.007,0.034 -0.005,0.017 -0.025,0.048 -0.017,0.028 -0.054,0.074 l -0.099,0.11 -0.392,0.426 0.618,0.88 q 0.023,0.031 0.034,0.065 0.014,0.034 0.014,0.065 0,0.054 -0.03,0.088 -0.029,0.036 -0.103,0.036 -0.059,0 -0.107,-0.034 -0.045,-0.03 -0.084,-0.093 L 84.444,9.338 84.202,9.604 84.196,9.818 q -0.003,0.107 -0.009,0.226 -0.002,0.068 -0.014,0.104 -0.008,0.037 -0.025,0.057 -0.017,0.02 -0.04,0.022 -0.02,0.006 -0.048,0.006 -0.05,0 -0.084,-0.034 -0.034,-0.037 -0.04,-0.152 z"
       style="font-weight:400;font-size:2.82200003px;font-family:Sniglet;-inkscape-font-specification:'Sniglet, Normal';font-variant-ligatures:normal;font-variant-caps:normal;font-variant-numeric:normal;font-feature-settings:normal;text-align:start;letter-spacing:0;word-spacing:0;stroke-width:0.78125107;fill:#232323;fill-opacity:1"
       aria-label="BANK"
       font-weight="400"
       font-size="2.822"
       letter-spacing="0"
       word-spacing="0"
       id="path60"
       inkscape:connector-curvature="0" />
  </g>
  <g
     style="line-height:1.25;stroke-width:0.78125107;fill:#232323;fill-opacity:1"
     id="g66"
     transform="matrix(1.2799982,0,0,1.2799982,0,-0.0972094)">
    <path
       d="m 5.339,52.094 q 0.017,-0.04 0.05,-0.065 0.038,-0.025 0.077,-0.025 0.037,0 0.07,0.025 0.035,0.023 0.054,0.062 0.108,0.22 0.212,0.477 0.105,0.254 0.19,0.483 0.047,-0.35 0.104,-0.706 0.056,-0.355 0.127,-0.68 0.008,-0.036 0.025,-0.059 0.017,-0.025 0.037,-0.037 0.02,-0.014 0.04,-0.02 0.022,-0.005 0.036,-0.005 0.048,0 0.079,0.028 0.03,0.026 0.03,0.07 0,0.052 -0.016,0.181 -0.017,0.127 -0.045,0.3 -0.028,0.169 -0.065,0.36 -0.034,0.193 -0.068,0.37 -0.034,0.178 -0.065,0.325 -0.03,0.147 -0.05,0.223 Q 6.144,53.466 6.11,53.5 6.076,53.53 6.01,53.53 5.943,53.53 5.895,53.472 5.85,53.409 5.794,53.28 5.74,53.15 5.664,52.95 5.588,52.746 5.466,52.464 5.342,52.746 5.263,52.949 5.187,53.153 5.13,53.282 q -0.053,0.13 -0.101,0.192 -0.048,0.06 -0.113,0.06 -0.113,0 -0.15,-0.13 Q 4.744,53.328 4.713,53.184 4.682,53.037 4.648,52.859 L 4.583,52.492 Q 4.549,52.3 4.523,52.131 L 4.481,51.835 q -0.014,-0.13 -0.014,-0.181 0,-0.048 0.03,-0.079 0.032,-0.031 0.089,-0.031 0.04,0 0.076,0.025 0.037,0.023 0.054,0.096 0.067,0.325 0.118,0.68 0.054,0.356 0.113,0.706 0.087,-0.206 0.175,-0.437 0.087,-0.232 0.217,-0.52 z M 7.362,52.839 7.28,52.845 H 7.103 q -0.048,0 -0.108,-0.006 v 0.573 q 0,0.09 -0.045,0.113 -0.042,0.02 -0.107,0.02 -0.034,0 -0.054,-0.006 Q 6.769,53.536 6.755,53.525 6.745,53.511 6.735,53.485 6.73,53.46 6.727,53.415 6.722,53.365 6.719,53.268 L 6.713,53.014 q 0,-0.155 -0.003,-0.375 v -0.522 q 0,-0.116 0.028,-0.223 0.029,-0.11 0.102,-0.192 0.073,-0.085 0.198,-0.135 0.127,-0.051 0.32,-0.051 0.14,0 0.269,0.03 0.133,0.032 0.235,0.108 0.1,0.076 0.163,0.206 0.062,0.13 0.062,0.325 0,0.26 -0.112,0.403 -0.11,0.141 -0.305,0.2 l 0.378,0.52 q 0.05,0.068 0.05,0.138 0,0.057 -0.04,0.088 -0.035,0.034 -0.092,0.034 -0.062,0 -0.107,-0.034 -0.045,-0.037 -0.085,-0.093 z m 0.443,-0.657 q 0,-0.195 -0.118,-0.288 -0.116,-0.096 -0.37,-0.096 -0.093,0 -0.155,0.017 -0.062,0.014 -0.1,0.056 -0.036,0.043 -0.053,0.119 -0.014,0.073 -0.014,0.189 v 0.192 q 0,0.11 0.003,0.2 0.065,0.003 0.144,0.003 h 0.152 q 0.08,0 0.167,-0.009 0.09,-0.01 0.166,-0.05 0.077,-0.043 0.127,-0.119 0.05,-0.079 0.05,-0.214 z m 0.574,1.177 Q 8.373,53.257 8.369,53.147 L 8.367,52.91 Q 8.365,52.783 8.365,52.636 v -0.333 q 0,-0.2 0.002,-0.341 0.003,-0.144 0.017,-0.235 0.014,-0.09 0.043,-0.132 0.03,-0.043 0.08,-0.043 0.027,0 0.049,0.006 0.023,0.006 0.04,0.025 0.017,0.017 0.028,0.054 0.014,0.034 0.017,0.09 l 0.009,0.18 0.005,0.159 q 0.003,0.076 0.003,0.16 v 0.43 q 0,0.116 -0.003,0.228 L 8.65,53.113 q -0.003,0.116 -0.01,0.243 -0.002,0.067 -0.013,0.104 -0.011,0.037 -0.028,0.057 -0.017,0.02 -0.04,0.022 -0.022,0.006 -0.05,0.006 -0.051,0 -0.088,-0.034 -0.037,-0.037 -0.042,-0.152 z m 1.717,-1.541 q -0.08,0.005 -0.17,0.008 l -0.194,0.006 0.005,0.144 0.006,0.132 q 0.003,0.068 0.003,0.141 0.002,0.074 0.002,0.164 v 0.246 L 9.746,52.893 9.74,53.127 q -0.003,0.119 -0.01,0.246 -0.001,0.067 -0.013,0.104 -0.008,0.037 -0.025,0.057 -0.017,0.02 -0.04,0.022 -0.022,0.006 -0.05,0.006 -0.051,0 -0.088,-0.034 -0.034,-0.037 -0.04,-0.153 -0.005,-0.101 -0.008,-0.214 0,-0.113 -0.003,-0.243 -0.002,-0.13 -0.002,-0.28 V 52.033 Q 9.463,51.916 9.469,51.832 H 9.353 Q 9.235,51.832 9.15,51.829 9.068,51.826 9.015,51.815 8.961,51.801 8.935,51.772 8.913,51.744 8.913,51.693 q 0,-0.025 0.006,-0.045 0.005,-0.022 0.025,-0.04 0.02,-0.019 0.054,-0.03 0.036,-0.012 0.093,-0.017 L 9.187,51.555 9.271,51.55 q 0.043,-0.003 0.088,-0.003 h 0.104 q 0.167,0 0.314,0.003 0.15,0.002 0.316,0.01 0.067,0.007 0.104,0.018 0.037,0.008 0.057,0.025 0.02,0.017 0.022,0.04 0.006,0.022 0.006,0.05 0,0.051 -0.037,0.085 -0.034,0.034 -0.15,0.04 z m 0.4,1.287 -0.01,-0.246 Q 10.481,52.704 10.481,52.54 v -0.192 l 0.005,-0.206 q 0.006,-0.209 0.026,-0.327 0.022,-0.119 0.084,-0.178 0.065,-0.06 0.18,-0.073 0.117,-0.014 0.309,-0.014 h 0.059 l 0.14,0.002 q 0.083,0 0.17,0.003 l 0.15,0.006 q 0.062,0.005 0.099,0.017 0.04,0.008 0.059,0.025 0.02,0.014 0.025,0.037 0.006,0.02 0.006,0.045 0,0.065 -0.037,0.096 -0.037,0.028 -0.15,0.037 -0.056,0.005 -0.166,0.008 h -0.22 q -0.113,0 -0.203,0.003 h -0.113 q -0.074,0.003 -0.105,0.034 -0.028,0.028 -0.028,0.138 l 0.003,0.124 q 0.006,0.096 0.006,0.271 h 0.234 q 0.15,0 0.243,0.006 0.096,0.003 0.146,0.017 0.054,0.014 0.074,0.045 0.02,0.03 0.02,0.082 0,0.025 -0.006,0.048 -0.003,0.02 -0.023,0.036 -0.02,0.014 -0.056,0.026 -0.037,0.008 -0.105,0.014 l -0.155,0.008 h -0.378 v 0.345 l 0.006,0.096 q 0.002,0.045 0.01,0.076 0.012,0.03 0.038,0.05 0.028,0.02 0.079,0.029 0.053,0.008 0.14,0.008 h 0.608 q 0.098,0 0.124,0.037 0.025,0.037 0.025,0.099 0,0.05 -0.022,0.079 -0.023,0.025 -0.11,0.037 -0.085,0.014 -0.257,0.016 -0.17,0.003 -0.47,0.003 -0.126,0 -0.208,-0.022 -0.082,-0.023 -0.132,-0.077 -0.051,-0.053 -0.077,-0.138 -0.022,-0.087 -0.03,-0.211 z"
       style="font-weight:400;font-size:2.82200003px;font-family:Sniglet;-inkscape-font-specification:'Sniglet, Normal';font-variant-ligatures:normal;font-variant-caps:normal;font-variant-numeric:normal;font-feature-settings:normal;text-align:start;letter-spacing:0;word-spacing:0;stroke-width:0.78125107;fill:#232323;fill-opacity:1"
       aria-label="WRITE"
       font-weight="400"
       font-size="2.822"
       letter-spacing="0"
       word-spacing="0"
       id="path64"
       inkscape:connector-curvature="0" />
  </g>
  <g
     style="line-height:1.25;stroke-width:0.78125107;fill:#232323;fill-opacity:1"
     id="g70"
     transform="matrix(1.2799982,0,0,1.2799982,0,-0.0972094)">
    <path
       d="m 6.028,78.94 q 0.093,0 0.186,0.016 0.096,0.014 0.172,0.048 0.076,0.031 0.124,0.08 0.05,0.044 0.05,0.106 0,0.065 -0.033,0.1 -0.034,0.033 -0.084,0.033 -0.048,0 -0.085,-0.014 L 6.273,79.272 q -0.045,-0.02 -0.11,-0.034 -0.065,-0.017 -0.172,-0.017 -0.107,0 -0.206,0.057 -0.096,0.054 -0.17,0.152 -0.07,0.096 -0.112,0.229 -0.043,0.133 -0.043,0.288 0,0.192 0.048,0.33 0.05,0.138 0.13,0.229 0.08,0.087 0.178,0.132 0.102,0.043 0.203,0.043 0.122,0 0.203,-0.026 0.082,-0.025 0.139,-0.056 0.059,-0.031 0.1,-0.057 0.044,-0.025 0.083,-0.025 0.048,0 0.076,0.028 0.029,0.026 0.029,0.093 0,0.057 -0.046,0.116 -0.042,0.056 -0.127,0.104 -0.081,0.046 -0.197,0.077 -0.116,0.028 -0.26,0.028 -0.158,0 -0.316,-0.062 Q 5.548,80.839 5.423,80.717 5.303,80.593 5.226,80.41 5.15,80.223 5.15,79.978 q 0,-0.246 0.068,-0.438 0.07,-0.192 0.189,-0.324 0.12,-0.136 0.28,-0.206 0.16,-0.07 0.34,-0.07 z m 1.64,1.885 q -0.036,0.067 -0.067,0.098 -0.028,0.031 -0.073,0.031 -0.045,0 -0.08,-0.03 Q 7.415,80.892 7.376,80.827 7.325,80.743 7.26,80.593 7.198,80.443 7.133,80.269 7.068,80.091 7.006,79.902 6.944,79.712 6.893,79.546 6.845,79.38 6.813,79.256 6.786,79.128 6.786,79.075 q 0,-0.057 0.022,-0.085 0.023,-0.028 0.088,-0.028 0.037,0 0.062,0.02 0.028,0.017 0.07,0.101 0.034,0.065 0.074,0.17 0.04,0.104 0.082,0.23 0.045,0.128 0.09,0.27 l 0.09,0.276 q 0.046,0.138 0.085,0.265 l 0.073,0.229 0.077,-0.232 0.087,-0.265 0.09,-0.277 q 0.046,-0.14 0.09,-0.265 l 0.085,-0.229 q 0.04,-0.104 0.07,-0.172 0.04,-0.082 0.069,-0.101 0.03,-0.02 0.062,-0.02 0.065,0 0.087,0.034 0.026,0.03 0.026,0.093 0,0.056 -0.017,0.135 -0.017,0.08 -0.06,0.212 -0.04,0.13 -0.107,0.325 l -0.166,0.476 q -0.026,0.077 -0.06,0.159 -0.03,0.081 -0.064,0.16 l -0.063,0.147 q -0.03,0.07 -0.06,0.122 z M 9.124,80.762 Q 9.118,80.661 9.114,80.551 L 9.113,80.314 Q 9.11,80.187 9.11,80.04 v -0.333 q 0,-0.2 0.003,-0.342 0.002,-0.144 0.016,-0.234 0.015,-0.09 0.043,-0.132 0.03,-0.043 0.082,-0.043 0.025,0 0.048,0.006 0.022,0.005 0.04,0.025 0.016,0.017 0.027,0.054 0.014,0.034 0.017,0.09 l 0.009,0.18 0.005,0.159 q 0.003,0.076 0.003,0.16 v 0.43 q 0,0.115 -0.003,0.228 l -0.005,0.229 q -0.003,0.116 -0.01,0.243 -0.002,0.067 -0.013,0.104 -0.011,0.037 -0.028,0.056 -0.017,0.02 -0.04,0.023 -0.022,0.006 -0.05,0.006 -0.051,0 -0.088,-0.034 -0.037,-0.037 -0.042,-0.153 z m 1.764,0.043 q -0.09,-0.124 -0.172,-0.246 l -0.172,-0.27 q -0.09,-0.147 -0.21,-0.325 -0.115,-0.18 -0.28,-0.42 v 0.38 l -10e-4,0.31 -0.006,0.272 -0.008,0.254 q -0.003,0.067 -0.014,0.104 -0.01,0.037 -0.026,0.056 -0.017,0.02 -0.04,0.023 -0.02,0.006 -0.047,0.006 -0.051,0 -0.085,-0.034 -0.034,-0.037 -0.04,-0.153 -0.014,-0.31 -0.016,-0.62 v -0.647 q 0,-0.189 0.002,-0.296 0.006,-0.107 0.02,-0.161 0.017,-0.054 0.042,-0.068 0.029,-0.014 0.074,-0.014 0.045,0 0.118,0.07 0.074,0.068 0.16,0.181 0.089,0.113 0.187,0.26 0.102,0.147 0.2,0.302 0.1,0.155 0.19,0.308 l 0.17,0.276 q -0.003,-0.132 -0.003,-0.29 v -0.356 q 0,-0.223 0.002,-0.367 0.003,-0.147 0.014,-0.231 0.015,-0.085 0.043,-0.119 0.028,-0.034 0.079,-0.034 0.048,0 0.084,0.031 0.037,0.031 0.043,0.144 l 0.008,0.18 0.006,0.159 q 0.003,0.076 0.003,0.16 v 0.43 q 0,0.115 -0.003,0.228 l -0.006,0.229 -0.008,0.243 q -0.003,0.067 -0.014,0.104 -0.01,0.037 -0.026,0.056 -0.017,0.02 -0.04,0.023 -0.02,0.006 -0.047,0.006 -0.048,0 -0.082,-0.029 -0.034,-0.028 -0.1,-0.115 z"
       style="font-weight:400;font-size:2.82200003px;font-family:Sniglet;-inkscape-font-specification:'Sniglet, Normal';font-variant-ligatures:normal;font-variant-caps:normal;font-variant-numeric:normal;font-feature-settings:normal;text-align:start;letter-spacing:0;word-spacing:0;stroke-width:0.78125107;fill:#232323;fill-opacity:1"
       aria-label="CV IN"
       font-weight="400"
       font-size="2.822"
       letter-spacing="0"
       word-spacing="0"
       id="path68"
       inkscape:connector-curvature="0" />
  </g>
  <g
     style="line-height:1.25;stroke-width:0.78125107;fill:#232323;fill-opacity:1"
     id="g74"
     transform="matrix(1.2799982,0,0,1.2799982,0,-0.0972094)">
    <path
       d="m 29.089,8.233 q 0.092,0 0.185,0.018 0.096,0.014 0.172,0.048 0.076,0.03 0.124,0.08 0.05,0.044 0.05,0.106 0,0.065 -0.033,0.1 -0.034,0.032 -0.085,0.032 -0.048,0 -0.084,-0.014 -0.037,-0.017 -0.085,-0.036 -0.045,-0.02 -0.11,-0.034 -0.065,-0.017 -0.172,-0.017 -0.107,0 -0.206,0.056 -0.096,0.054 -0.17,0.153 -0.07,0.096 -0.112,0.228 -0.043,0.133 -0.043,0.288 0,0.192 0.048,0.33 0.05,0.14 0.13,0.23 0.08,0.087 0.178,0.132 0.1,0.042 0.203,0.042 0.12,0 0.203,-0.025 0.082,-0.026 0.14,-0.057 0.058,-0.03 0.1,-0.056 0.042,-0.026 0.082,-0.026 0.048,0 0.076,0.03 0.028,0.024 0.028,0.092 0,0.056 -0.045,0.115 -0.042,0.057 -0.127,0.105 -0.082,0.045 -0.197,0.076 -0.116,0.028 -0.26,0.028 -0.158,0 -0.316,-0.062 -0.155,-0.062 -0.28,-0.183 Q 28.363,9.887 28.286,9.704 28.21,9.518 28.21,9.272 q 0,-0.245 0.068,-0.437 0.07,-0.192 0.19,-0.325 0.12,-0.135 0.278,-0.206 0.16,-0.07 0.342,-0.07 z m 1.64,1.886 q -0.037,0.068 -0.068,0.1 -0.028,0.03 -0.073,0.03 -0.045,0 -0.08,-0.03 Q 30.475,10.187 30.435,10.122 30.385,10.037 30.32,9.888 30.258,9.738 30.193,9.563 30.128,9.385 30.066,9.196 30.004,9.007 29.953,8.84 29.905,8.674 29.873,8.55 29.846,8.423 29.846,8.37 q 0,-0.057 0.022,-0.086 0.023,-0.028 0.088,-0.028 0.036,0 0.062,0.02 0.028,0.017 0.07,0.102 0.034,0.065 0.074,0.17 0.04,0.103 0.082,0.23 0.045,0.127 0.09,0.268 l 0.09,0.277 0.085,0.265 0.073,0.23 0.076,-0.232 0.088,-0.266 0.09,-0.276 q 0.045,-0.14 0.09,-0.266 L 31.011,8.55 q 0.04,-0.105 0.07,-0.172 0.04,-0.082 0.068,-0.102 0.032,-0.02 0.063,-0.02 0.064,0 0.087,0.034 0.025,0.031 0.025,0.093 0,0.057 -0.016,0.136 -0.017,0.08 -0.06,0.211 -0.04,0.13 -0.107,0.325 l -0.166,0.477 q -0.026,0.076 -0.06,0.158 -0.03,0.082 -0.065,0.16 -0.03,0.077 -0.062,0.148 -0.03,0.07 -0.06,0.12 z"
       style="font-weight:400;font-size:2.82200003px;font-family:Sniglet;-inkscape-font-specification:'Sniglet, Normal';font-variant-ligatures:normal;font-variant-caps:normal;font-variant-numeric:normal;font-feature-settings:normal;text-align:start;letter-spacing:0;word-spacing:0;stroke-width:0.78125107;fill:#232323;fill-opacity:1"
       aria-label="CV"
       font-weight="400"
       font-size="2.822"
       letter-spacing="0"
       word-spacing="0"
       id="path72"
       inkscape:connector-curvature="0" />
  </g>
  <path
     d="m 3.7670347,14.35397 q -0.2175997,0 -0.4095994,-0.08704 -0.1868798,-0.08704 -0.3276796,-0.2496 -0.1407998,-0.166399 -0.2239996,-0.404479 -0.07936,-0.23808 -0.07936,-0.541439 0,-0.28544 0.06912,-0.524799 0.07168,-0.23808 0.2099197,-0.4096 0.1407998,-0.17536 0.3455995,-0.2688 0.2047997,-0.09728 0.4774393,-0.09728 0.2201597,0 0.4185594,0.07936 0.1996797,0.07936 0.3455995,0.238079 0.1535998,0.15872 0.2406397,0.3968 0.08576,0.239359 0.08576,0.556799 0,0.259839 -0.06784,0.491519 -0.06528,0.2304 -0.2022397,0.41216 l 0.2047997,0.168959 q 0.04096,0.03328 0.07296,0.0832 0.03584,0.04736 0.03584,0.1088 0,0.07168 -0.0576,0.1152 -0.0576,0.04352 -0.1369598,0.04352 -0.1023999,0 -0.2137597,-0.10112 L 4.367354,14.201649 q -0.1228799,0.07296 -0.2713597,0.11264 -0.1484798,0.0384 -0.3289595,0.0384 z m 0.00768,-0.34048 q 0.1983997,0 0.3455995,-0.07936 0.1484798,-0.0832 0.2470397,-0.21632 0.09728,-0.13312 0.1433598,-0.3072 0.04736,-0.176639 0.04736,-0.360959 0,-0.224 -0.06144,-0.3968 -0.0576,-0.177919 -0.1587198,-0.296959 -0.1023999,-0.11904 -0.2342397,-0.1792 -0.1343998,-0.064 -0.2854396,-0.064 -0.1817597,0 -0.3199995,0.07296 -0.1318398,0.0768 -0.2265597,0.20608 -0.0896,0.13056 -0.1369598,0.307199 -0.04736,0.17408 -0.04736,0.3712 0,0.213759 0.05504,0.391679 0.05376,0.1728 0.1446398,0.29568 0.09344,0.12288 0.2201597,0.192 0.1267198,0.064 0.2675196,0.064 z m 2.3782366,0.3648 q -0.4121594,0 -0.6028791,-0.224 -0.0768,-0.08576 -0.1305598,-0.220159 -0.0512,-0.13696 -0.0832,-0.35328 -0.02816,-0.2176 -0.04352,-0.535039 -0.01024,-0.32 -0.01024,-0.780799 0,-0.1472 0.00768,-0.24192 0.0064,-0.09728 0.02816,-0.15104 0.02176,-0.0576 0.05504,-0.07936 0.03584,-0.02176 0.0896,-0.02176 0.1049599,0 0.1484798,0.09344 0.04352,0.09472 0.04352,0.32512 0,0.07936 -0.00384,0.1408 v 0.128 q 0,0.06016 -0.00384,0.135679 v 0.18432 q 0,0.36096 0.02176,0.601599 0.0256,0.2368 0.0832,0.38144 0.0576,0.1408 0.1535998,0.1984 0.1023999,0.0576 0.2508796,0.0576 0.1535998,0 0.2559997,-0.06144 0.1049598,-0.064 0.1663997,-0.21248 0.06144,-0.15232 0.08704,-0.40192 0.02816,-0.248319 0.02816,-0.620799 0,-0.162559 -0.00256,-0.277759 v -0.20992 q 0,-0.13312 0.0064,-0.224 0.01152,-0.0896 0.02944,-0.1408 0.02176,-0.05376 0.0576,-0.0768 0.03584,-0.02048 0.0896,-0.02048 0.05504,0 0.0896,0.02176 0.03712,0.02176 0.05888,0.0768 0.02176,0.05248 0.02944,0.15104 0.00768,0.09344 0.00768,0.24448 0,0.636159 -0.04096,1.049598 -0.0384,0.40704 -0.1407998,0.64512 -0.1023998,0.235519 -0.2777596,0.328959 -0.1727997,0.0896 -0.4480003,0.0896 z m 2.7455962,-0.2432 -0.07936,-0.200959 q -0.03968,-0.1152 -0.08704,-0.24192 l -0.2265597,0.0077 h -0.524799 q -0.1254398,0 -0.2303997,-0.0038 l -0.0832,0.23808 q -0.03968,0.112639 -0.0768,0.199679 -0.07168,0.18304 -0.2086397,0.18304 -0.0512,0 -0.09728,-0.032 -0.04352,-0.032 -0.04352,-0.09344 0,-0.06144 0.02176,-0.15872 0.02176,-0.102399 0.05376,-0.213759 0.03584,-0.1152 0.0768,-0.23424 0.0384,-0.12288 0.07552,-0.22784 0.03584,-0.115199 0.1011199,-0.293119 l 0.1433598,-0.37504 0.1523197,-0.383999 q 0.0768,-0.192 0.1369598,-0.3328 l 0.03584,-0.0768 q 0.02176,-0.04864 0.0512,-0.08832 0.032,-0.0384 0.06912,-0.06912 0.0384,-0.02816 0.08576,-0.02816 0.04736,0 0.08704,0.032 0.0384,0.02944 0.06912,0.07296 0.032,0.04352 0.05376,0.0896 0.0256,0.04736 0.0384,0.0832 l 0.1318398,0.3328 q 0.07552,0.18816 0.1471998,0.378879 0.0768,0.192 0.1407998,0.3648 0.064,0.17408 0.1049598,0.294399 l 0.07296,0.22272 q 0.04352,0.11904 0.07936,0.23424 0.03584,0.1152 0.0576,0.217599 0.0256,0.09728 0.0256,0.15872 0,0.06144 -0.04736,0.09344 -0.04352,0.032 -0.09344,0.032 -0.06528,0 -0.1190398,-0.04224 -0.05504,-0.04736 -0.09472,-0.1408 z m -0.6399991,-0.796159 0.1740797,0.0026 q 0.08704,0 0.1740798,0.0038 l -0.08704,-0.252159 -0.0832,-0.2432 q -0.03584,-0.1152 -0.06912,-0.21248 l -0.0512,-0.176639 q -0.0128,-0.04736 -0.032,-0.0768 -0.01792,-0.02816 -0.04608,-0.02816 -0.02944,0 -0.04736,0.032 -0.01792,0.02944 -0.032,0.0768 -0.04352,0.147199 -0.1228798,0.386559 l -0.1625598,0.494079 q 0.09728,-0.0038 0.1945598,-0.0038 l 0.1919997,-0.0026 z m 2.6803166,0.808959 q -0.1152,-0.158719 -0.22016,-0.314879 l -0.22016,-0.3456 q -0.1152,-0.18816 -0.268799,-0.415999 -0.14592,-0.2304 -0.3583999,-0.537599 v 0.486399 l -0.00128,0.396799 -0.00768,0.34816 q -0.00256,0.16256 -0.01024,0.325119 -0.00384,0.08576 -0.01792,0.13312 -0.0128,0.04736 -0.03328,0.07296 -0.02176,0.0256 -0.0512,0.02816 -0.0256,0.0077 -0.06016,0.0077 -0.064,0 -0.1087999,-0.04352 -0.04352,-0.04736 -0.0512,-0.19584 -0.01664,-0.396799 -0.02048,-0.793599 v -0.826878 q 0,-0.24192 0.00384,-0.37888 0.0064,-0.13696 0.0256,-0.2048 0.02048,-0.0704 0.05376,-0.08832 0.03584,-0.01792 0.09344,-0.01792 0.0576,0 0.1523198,0.0896 0.09344,0.0896 0.2048,0.23168 0.11264,0.14464 0.23936,0.3328 0.127999,0.188159 0.255999,0.386559 0.12672,0.1984 0.2432,0.39424 l 0.21632,0.353279 q -0.0038,-0.16896 -0.0038,-0.371199 v -0.4557 q 0,-0.285439 0.0038,-0.469759 0.0026,-0.18816 0.01792,-0.2944 0.01792,-0.11008 0.05376,-0.153599 0.03584,-0.04352 0.10112,-0.04352 0.06144,0 0.1088,0.03968 0.04608,0.03968 0.05376,0.184319 0.0077,0.13056 0.01024,0.2304 l 0.0077,0.2048 q 0.0038,0.096 0.0038,0.204799 v 0.5504 q 0,0.145919 -0.0038,0.290559 l -0.0077,0.2944 q -0.0026,0.1472 -0.01024,0.309759 -0.0038,0.08576 -0.01792,0.13312 -0.0128,0.04736 -0.032,0.07296 -0.02176,0.0256 -0.0512,0.02816 -0.0256,0.0077 -0.06144,0.0077 -0.06144,0 -0.10496,-0.03712 -0.04352,-0.03584 -0.127999,-0.1472 z m 2.252796,-2.026237 q -0.09984,0.0064 -0.217599,0.01024 l -0.24704,0.0077 0.0077,0.18432 0.0064,0.16896 q 0.0038,0.08704 0.0038,0.180479 0.0038,0.09472 0.0038,0.20992 v 0.31488 q 0,0.147199 -0.0038,0.299519 l -0.0077,0.29952 q -0.0026,0.1536 -0.01024,0.314879 -0.0038,0.08576 -0.01792,0.13312 -0.0128,0.04736 -0.03328,0.07168 -0.02176,0.0256 -0.0512,0.02944 -0.02816,0.0077 -0.064,0.0077 -0.064,0 -0.11136,-0.04352 -0.04352,-0.04736 -0.0512,-0.19584 -0.0077,-0.127999 -0.01024,-0.273919 0,-0.14464 -0.0038,-0.31104 -0.0038,-0.1664 -0.0038,-0.358399 v -0.775679 q 0.0038,-0.14848 0.01024,-0.256 h -0.1472 q -0.1536,0 -0.25984,-0.0038 -0.10496,-0.0038 -0.17408,-0.01792 -0.06912,-0.01792 -0.102399,-0.05504 -0.02816,-0.03584 -0.02816,-0.10112 0,-0.032 0.0077,-0.0576 0.0077,-0.02816 0.03328,-0.0512 0.0256,-0.0256 0.06784,-0.0384 0.04736,-0.01536 0.11904,-0.02176 l 0.12288,-0.0077 0.1088,-0.0064 q 0.05376,-0.0038 0.11136,-0.0038 h 0.1344 q 0.212479,0 0.400639,0.0038 0.192,0.0026 0.404479,0.0128 0.08704,0.0077 0.1344,0.02304 0.04608,0.01024 0.07168,0.032 0.0256,0.02176 0.02944,0.0512 0.0064,0.02816 0.0064,0.064 0,0.06528 -0.04608,0.1088 -0.04352,0.04352 -0.192,0.0512 z m 0.61824,1.972477 q -0.0064,-0.130559 -0.01024,-0.271359 0,-0.1408 -0.0038,-0.30336 -0.0038,-0.16256 -0.0038,-0.350719 v -0.42624 q 0,-0.255999 0.0038,-0.437759 0.0038,-0.18304 0.02176,-0.29952 0.01792,-0.1152 0.05376,-0.168959 0.0384,-0.05504 0.10496,-0.05504 0.03328,0 0.06144,0.0077 0.02944,0.0064 0.0512,0.032 0.02176,0.02176 0.03584,0.06912 0.01792,0.04352 0.02176,0.1152 l 0.01024,0.2304 0.0077,0.2048 q 0.0038,0.096 0.0038,0.204799 v 0.5504 q 0,0.145919 -0.0038,0.290559 l -0.0077,0.2944 q -0.0026,0.1472 -0.01024,0.309759 -0.0038,0.08576 -0.01792,0.13312 -0.01536,0.04736 -0.03584,0.07296 -0.02176,0.0256 -0.0512,0.02816 -0.02944,0.0077 -0.064,0.0077 -0.06656,0 -0.112639,-0.04352 -0.04736,-0.04736 -0.05504,-0.19584 z m 2.168317,0.2176 q -0.064,0.0051 -0.16256,0.009 -0.09344,0.0077 -0.2048,0.0128 l -0.23168,0.0051 q -0.119039,0.0038 -0.230399,0.0038 -0.19584,0 -0.32,-0.0038 -0.11776,-0.0026 -0.18688,-0.01792 -0.064,-0.01024 -0.0896,-0.03584 -0.02304,-0.0256 -0.02304,-0.06912 0,-0.07936 0.04352,-0.18304 0.04352,-0.108799 0.102399,-0.217599 0.06016,-0.10752 0.1216,-0.20224 l 0.09472,-0.15104 0.801279,-1.305598 q -0.06784,0 -0.09344,0.0051 l -0.0576,0.0026 h -0.328959 q -0.224,0 -0.3584,-0.0026 -0.12928,-0.0077 -0.1984,-0.0256 -0.064,-0.01792 -0.08576,-0.0512 -0.0192,-0.032 -0.0192,-0.0896 0,-0.0896 0.04352,-0.12672 0.04352,-0.0384 0.18432,-0.05376 l 0.13056,-0.0077 q 0.07168,-0.0077 0.14848,-0.0077 l 0.1536,-0.0026 q 0.0768,-0.0038 0.140799,-0.0038 0.06656,0 0.12416,0.0038 l 0.12288,0.0026 q 0.064,0 0.13696,0.0038 l 0.1664,0.0077 q 0.02944,0 0.07168,0.0064 0.04736,0.0038 0.08704,0.01536 0.04352,0.01024 0.07296,0.03584 0.02816,0.02176 0.02816,0.06144 0,0.064 -0.06144,0.1984 -0.0576,0.13056 -0.158719,0.30336 -0.09728,0.170239 -0.22784,0.371199 l -0.25984,0.4096 -0.263679,0.409599 q -0.13056,0.20096 -0.23424,0.373759 0.064,-0.0038 0.18688,-0.0038 l 0.235519,-0.0026 0.26368,0.0026 q 0.16256,0.0038 0.3328,0.0192 0.08576,0.0064 0.133119,0.01792 0.04608,0.01024 0.07168,0.032 0.0256,0.01792 0.02944,0.04736 0.0064,0.02816 0.0064,0.07168 0,0.02944 -0.0026,0.0512 -0.0038,0.02176 -0.0256,0.0384 -0.02176,0.01536 -0.07296,0.0256 -0.04608,0.0077 -0.136959,0.01536 z m 0.587519,-0.542719 q -0.0077,-0.1152 -0.01536,-0.31488 -0.0077,-0.198399 -0.0077,-0.408319 v -0.24576 l 0.0077,-0.263679 q 0.0077,-0.26752 0.032,-0.41856 0.02944,-0.15232 0.1088,-0.22784 0.0832,-0.0768 0.230399,-0.09344 0.14848,-0.0192 0.39424,-0.0192 h 0.0768 q 0.07552,0 0.179199,0.0038 0.10624,0 0.2176,0.0038 l 0.192,0.0077 q 0.07936,0.0064 0.12544,0.02176 0.0512,0.01024 0.0768,0.032 0.0256,0.01792 0.032,0.04736 0.0077,0.0256 0.0077,0.0576 0,0.0832 -0.04736,0.12288 -0.04736,0.03584 -0.191999,0.04608 -0.07168,0.0077 -0.21248,0.0128 h -0.2816 q -0.144639,0 -0.259839,0.0026 h -0.14464 q -0.09472,0.0038 -0.1344,0.04352 -0.03584,0.03584 -0.03584,0.17664 l 0.0038,0.15872 q 0.0064,0.122879 0.0064,0.346879 h 0.3008 q 0.192,0 0.309759,0.0077 0.12288,0.0026 0.18816,0.02176 0.06912,0.01792 0.09472,0.0576 0.0256,0.0384 0.0256,0.10496 0,0.032 -0.0077,0.06144 -0.0038,0.0256 -0.02944,0.04608 -0.0256,0.01792 -0.07168,0.03328 -0.04736,0.01024 -0.1344,0.01792 l -0.198399,0.01024 h -0.48384 v 0.441599 l 0.0064,0.12288 q 0.0038,0.0576 0.01536,0.09728 0.0128,0.0384 0.04608,0.064 0.03712,0.0256 0.1024,0.0384 0.06784,0.009 0.1792,0.009 h 0.776959 q 0.127999,0 0.159999,0.04736 0.032,0.04736 0.032,0.128 0,0.064 -0.02944,0.09984 -0.02816,0.032 -0.140799,0.04608 -0.10752,0.0192 -0.32896,0.02176 -0.2176,0.0038 -0.599039,0.0038 -0.16256,0 -0.2688,-0.02816 -0.10368,-0.02944 -0.168959,-0.09856 -0.064,-0.06784 -0.09728,-0.17664 -0.02816,-0.111359 -0.0384,-0.271359 z"
     style="font-weight:400;font-size:2.82200003px;line-height:1.25;font-family:Sniglet;-inkscape-font-specification:'Sniglet, Normal';font-variant-ligatures:normal;font-variant-caps:normal;font-variant-numeric:normal;font-feature-settings:normal;text-align:start;letter-spacing:0;word-spacing:0;stroke-width:0.99999994;fill:#232323;fill-opacity:1"
     font-weight="400"
     font-size="2.822"
     letter-spacing="0"
     word-spacing="0"
     id="path76"
     inkscape:connector-curvature="0" />
  <g
     word-spacing="0"
     letter-spacing="0"
     font-weight="400"
     id="g84"
     style="font-weight:400;letter-spacing:0;word-spacing:0;stroke-width:0.78125107;fill:#232323;fill-opacity:1"
     transform="matrix(1.2799982,0,0,1.2799982,0,-0.0972094)">
    <path
       font-size="3.528"
       d="m 85.427,28.496 h 0.08 l 0.01,0.009 v 0.523 l 0.204,-0.103 0.005,0.003 v 0.243 q -0.005,0.012 -0.21,0.115 v 0.643 l 0.21,-0.095 v 0.233 q -0.002,0.007 -0.21,0.122 v 0.512 l -0.01,0.007 h -0.08 l -0.008,-0.007 v -0.47 l -0.496,0.24 v 0.597 l -0.01,0.007 h -0.07 l -0.01,-0.007 v -0.553 l -0.222,0.103 v -0.245 q 0,-0.01 0.222,-0.113 v -0.653 h -0.003 l -0.22,0.096 v -0.24 l 0.223,-0.111 v -0.494 l 0.01,-0.007 h 0.072 l 0.01,0.007 v 0.45 l 0.495,-0.23 v -0.574 z m -0.504,1.073 v 0.65 l 0.496,-0.24 v -0.64 z m -0.102,2.019 h 0.078 l 0.01,0.01 v 1.655 h 0.004 q 0.292,-0.408 0.542,-0.408 0.39,0.005 0.426,0.448 -0.05,0.732 -1.065,0.884 l -0.005,-0.005 v -2.574 z m 0.086,1.85 v 0.61 q 0.72,-0.17 0.72,-0.695 l 0.002,-0.043 q 0,-0.255 -0.256,-0.268 -0.205,0 -0.465,0.396 z"
       style="font-size:3.52800012px;line-height:1.25;font-family:Sniglet;-inkscape-font-specification:'Sniglet, Normal';font-variant-ligatures:normal;font-variant-caps:normal;font-variant-numeric:normal;font-feature-settings:normal;text-align:start;stroke-width:0.78125107;fill:#232323;fill-opacity:1"
       id="path78"
       inkscape:connector-curvature="0" />
    <g
       style="line-height:1.25;-inkscape-font-specification:'Sniglet, Normal';font-variant-ligatures:normal;font-variant-caps:normal;font-variant-numeric:normal;font-feature-settings:normal;text-align:start;stroke-width:0.78125107;fill:#232323;fill-opacity:1"
       id="g82">
      <path
         font-size="2.822"
         aria-label="CV IN"
         style="font-size:2.82200003px;font-family:Sniglet;-inkscape-font-specification:'Sniglet, Normal';font-variant-ligatures:normal;font-variant-caps:normal;font-variant-numeric:normal;font-feature-settings:normal;text-align:start;stroke-width:0.78125107;fill:#232323;fill-opacity:1"
         d="m 85.383,27.573 q -0.037,0.068 -0.068,0.099 -0.028,0.03 -0.074,0.03 -0.045,0 -0.08,-0.03 -0.032,-0.031 -0.072,-0.096 -0.05,-0.085 -0.116,-0.234 -0.062,-0.15 -0.127,-0.325 -0.065,-0.178 -0.127,-0.367 -0.062,-0.19 -0.113,-0.355 -0.048,-0.167 -0.08,-0.291 -0.027,-0.127 -0.027,-0.18 0,-0.057 0.023,-0.085 0.022,-0.03 0.087,-0.03 0.037,0 0.062,0.02 0.03,0.018 0.07,0.103 0.035,0.065 0.074,0.169 0.04,0.104 0.082,0.23 0.045,0.128 0.09,0.27 l 0.09,0.276 q 0.046,0.138 0.085,0.265 l 0.074,0.229 0.076,-0.231 0.087,-0.266 0.09,-0.276 q 0.046,-0.141 0.09,-0.266 l 0.086,-0.228 q 0.04,-0.105 0.07,-0.172 0.04,-0.082 0.068,-0.102 0.03,-0.02 0.062,-0.02 0.065,0 0.088,0.034 0.025,0.03 0.025,0.093 0,0.057 -0.017,0.136 -0.017,0.079 -0.06,0.21 -0.04,0.13 -0.106,0.326 l -0.167,0.477 q -0.025,0.076 -0.06,0.158 -0.03,0.082 -0.064,0.16 -0.03,0.077 -0.062,0.148 -0.03,0.07 -0.06,0.12 z"
         id="path80"
         inkscape:connector-curvature="0" />
    </g>
  </g>
  <g
     font-weight="400"
     font-size="2.822"
     letter-spacing="0"
     word-spacing="0"
     id="g98"
     style="font-weight:400;font-size:2.82200003px;font-family:Sniglet;letter-spacing:0;word-spacing:0;stroke-width:0.05468758;fill:#232323;fill-opacity:1"
     transform="matrix(1.2799982,0,0,1.2799982,0,-0.0972094)">
    <g
       style="line-height:1.25;stroke-width:0.05468758;fill:#232323;fill-opacity:1"
       id="g88">
      <path
         style="-inkscape-font-specification:'Sniglet, Normal';font-variant-ligatures:normal;font-variant-caps:normal;font-variant-numeric:normal;font-feature-settings:normal;text-align:start;stroke-width:0.05468758;fill:#232323;fill-opacity:1"
         d="m 96.317,27.112 q -0.002,0.107 -0.002,0.234 0,0.127 -0.008,0.237 -0.006,0.085 -0.04,0.11 -0.03,0.023 -0.087,0.023 -0.05,0 -0.08,-0.02 -0.025,-0.017 -0.039,-0.076 -0.01,-0.062 -0.014,-0.178 -0.003,-0.118 -0.003,-0.316 -0.093,0 -0.178,0.003 -0.084,0.003 -0.163,0.003 -0.119,0 -0.218,-0.006 -0.096,-0.005 -0.166,-0.02 -0.068,-0.016 -0.107,-0.045 -0.037,-0.028 -0.037,-0.073 0,-0.062 0.05,-0.155 0.051,-0.096 0.128,-0.206 0.076,-0.11 0.16,-0.223 l 0.161,-0.215 0.096,-0.124 q 0.065,-0.082 0.14,-0.16 0.072,-0.083 0.145,-0.142 0.074,-0.06 0.125,-0.06 0.048,0 0.084,0.032 0.037,0.03 0.043,0.144 0.01,0.163 0.014,0.344 0.003,0.178 0.003,0.353 v 0.28 q 0.08,0.005 0.127,0.013 0.047,0.009 0.073,0.026 0.025,0.014 0.034,0.036 0.008,0.023 0.008,0.057 0,0.07 -0.065,0.096 -0.065,0.022 -0.183,0.028 z m -0.276,-0.923 -0.21,0.257 -0.148,0.18 q -0.06,0.077 -0.105,0.13 l -0.076,0.096 q 0.13,-0.005 0.266,-0.005 0.138,-0.003 0.273,-0.003 z m 1.321,1.016 -0.217,0.229 q -0.088,0.093 -0.15,0.155 -0.062,0.06 -0.104,0.088 -0.04,0.028 -0.074,0.028 -0.04,0 -0.079,-0.034 -0.036,-0.034 -0.036,-0.073 0,-0.034 0.048,-0.102 0.048,-0.07 0.118,-0.155 0.07,-0.085 0.153,-0.175 l 0.15,-0.175 -0.173,-0.203 q -0.08,-0.1 -0.138,-0.184 -0.06,-0.085 -0.096,-0.15 -0.034,-0.064 -0.034,-0.101 0,-0.037 0.037,-0.062 0.036,-0.028 0.067,-0.028 0.026,0 0.088,0.056 0.062,0.054 0.138,0.133 0.08,0.076 0.158,0.163 l 0.147,0.156 0.138,-0.153 q 0.08,-0.087 0.155,-0.163 0.077,-0.077 0.141,-0.13 0.065,-0.054 0.102,-0.054 0.031,0 0.062,0.023 0.031,0.022 0.031,0.059 0,0.037 -0.037,0.102 -0.033,0.064 -0.093,0.15 -0.059,0.084 -0.14,0.183 -0.08,0.098 -0.17,0.203 l 0.152,0.172 q 0.082,0.09 0.153,0.178 0.07,0.084 0.115,0.155 0.048,0.068 0.048,0.102 0,0.039 -0.04,0.073 -0.036,0.034 -0.075,0.034 -0.037,0 -0.1,-0.045 -0.058,-0.048 -0.135,-0.119 -0.073,-0.073 -0.155,-0.16 z m 1.915,-0.093 q -0.002,0.107 -0.002,0.234 0,0.127 -0.008,0.237 -0.006,0.085 -0.04,0.11 -0.03,0.023 -0.087,0.023 -0.05,0 -0.08,-0.02 -0.025,-0.017 -0.039,-0.076 -0.01,-0.062 -0.014,-0.178 -0.003,-0.118 -0.003,-0.316 -0.093,0 -0.178,0.003 -0.084,0.003 -0.163,0.003 -0.119,0 -0.218,-0.006 -0.096,-0.005 -0.166,-0.02 -0.068,-0.016 -0.107,-0.045 -0.037,-0.028 -0.037,-0.073 0,-0.062 0.05,-0.155 0.052,-0.096 0.128,-0.206 0.076,-0.11 0.16,-0.223 l 0.161,-0.215 0.096,-0.124 q 0.065,-0.082 0.14,-0.16 0.072,-0.083 0.145,-0.142 0.074,-0.06 0.125,-0.06 0.048,0 0.084,0.032 0.037,0.03 0.043,0.144 0.01,0.163 0.014,0.344 0.003,0.178 0.003,0.353 v 0.28 q 0.08,0.005 0.127,0.013 0.048,0.009 0.073,0.026 0.025,0.014 0.034,0.036 0.008,0.023 0.008,0.057 0,0.07 -0.065,0.096 -0.065,0.022 -0.183,0.028 z m -0.276,-0.923 -0.21,0.257 -0.148,0.18 q -0.06,0.077 -0.105,0.13 l -0.076,0.096 q 0.13,-0.005 0.266,-0.005 0.138,-0.003 0.273,-0.003 z"
         aria-label="4x4"
         id="path86"
         inkscape:connector-curvature="0" />
    </g>
    <g
       style="line-height:1.25;stroke-width:0.05468758;fill:#232323;fill-opacity:1"
       id="g92">
      <path
         style="-inkscape-font-specification:'Sniglet, Normal';font-variant-ligatures:normal;font-variant-caps:normal;font-variant-numeric:normal;font-feature-settings:normal;text-align:start;stroke-width:0.05468758;fill:#232323;fill-opacity:1"
         d="m 95.818,29.136 q -0.1,0 -0.169,0.022 -0.068,0.02 -0.113,0.054 -0.045,0.034 -0.073,0.07 l -0.05,0.071 q -0.024,0.034 -0.05,0.056 -0.027,0.02 -0.067,0.02 -0.068,0 -0.096,-0.034 -0.025,-0.036 -0.025,-0.096 0,-0.124 0.093,-0.231 0.028,-0.034 0.076,-0.07 0.051,-0.04 0.12,-0.071 0.07,-0.031 0.16,-0.051 0.093,-0.023 0.21,-0.023 0.306,0 0.475,0.15 0.17,0.15 0.17,0.42 0,0.054 -0.012,0.12 -0.008,0.064 -0.036,0.135 -0.026,0.07 -0.074,0.146 -0.048,0.076 -0.127,0.156 -0.07,0.07 -0.15,0.13 -0.078,0.059 -0.163,0.118 l -0.178,0.127 q -0.09,0.065 -0.183,0.15 0.09,0.047 0.195,0.062 0.104,0.014 0.234,0.014 0.121,0 0.195,-0.006 0.073,-0.006 0.118,-0.014 l 0.07,-0.014 q 0.026,-0.006 0.054,-0.006 0.105,0 0.105,0.096 0,0.085 -0.07,0.13 -0.07,0.045 -0.17,0.068 -0.099,0.02 -0.203,0.022 -0.105,0.006 -0.173,0.006 -0.036,0 -0.104,-0.006 -0.065,-0.002 -0.14,-0.014 -0.077,-0.011 -0.156,-0.03 -0.077,-0.023 -0.14,-0.057 -0.064,-0.037 -0.103,-0.088 -0.04,-0.053 -0.04,-0.127 0,-0.099 0.071,-0.186 0.073,-0.09 0.18,-0.175 0.108,-0.088 0.232,-0.172 0.124,-0.088 0.231,-0.178 0.108,-0.093 0.178,-0.192 0.074,-0.099 0.074,-0.214 0,-0.144 -0.1,-0.215 -0.095,-0.073 -0.276,-0.073 z m 1.56,1.214 -0.218,0.228 q -0.088,0.093 -0.15,0.155 -0.062,0.06 -0.104,0.088 -0.04,0.028 -0.073,0.028 -0.04,0 -0.08,-0.034 -0.036,-0.034 -0.036,-0.073 0,-0.034 0.048,-0.102 0.048,-0.07 0.118,-0.155 0.07,-0.085 0.153,-0.175 0.082,-0.093 0.15,-0.175 l -0.173,-0.203 q -0.079,-0.1 -0.138,-0.184 -0.06,-0.085 -0.096,-0.15 -0.034,-0.064 -0.034,-0.101 0,-0.037 0.037,-0.062 0.036,-0.028 0.067,-0.028 0.026,0 0.088,0.056 0.062,0.054 0.138,0.133 0.08,0.076 0.158,0.163 l 0.147,0.156 0.138,-0.153 q 0.08,-0.087 0.156,-0.163 0.076,-0.077 0.14,-0.13 0.066,-0.054 0.102,-0.054 0.031,0 0.062,0.023 0.031,0.022 0.031,0.059 0,0.037 -0.036,0.102 -0.034,0.064 -0.093,0.15 -0.06,0.084 -0.142,0.183 -0.079,0.098 -0.169,0.203 l 0.153,0.172 q 0.081,0.09 0.152,0.178 0.07,0.084 0.116,0.155 0.048,0.068 0.048,0.102 0,0.039 -0.04,0.073 -0.037,0.034 -0.076,0.034 -0.037,0 -0.099,-0.045 -0.06,-0.048 -0.135,-0.119 -0.074,-0.073 -0.156,-0.16 l -0.155,-0.176 z m 1.517,-1.52 q 0.138,0 0.246,0.046 0.107,0.042 0.18,0.119 0.074,0.073 0.11,0.169 0.037,0.093 0.037,0.195 0,0.107 -0.042,0.208 -0.04,0.1 -0.122,0.173 0.136,0.07 0.206,0.2 0.074,0.127 0.074,0.313 0,0.144 -0.043,0.263 -0.042,0.115 -0.13,0.2 -0.087,0.082 -0.217,0.127 -0.13,0.048 -0.302,0.048 -0.175,0 -0.304,-0.048 -0.13,-0.045 -0.215,-0.13 -0.085,-0.084 -0.127,-0.2 -0.04,-0.116 -0.04,-0.254 0,-0.18 0.068,-0.31 0.07,-0.133 0.215,-0.207 -0.085,-0.073 -0.127,-0.175 -0.043,-0.101 -0.043,-0.208 0,-0.102 0.037,-0.195 0.037,-0.096 0.11,-0.17 0.074,-0.076 0.18,-0.118 0.108,-0.045 0.25,-0.045 z m 0.003,1.801 q 0.102,0 0.178,-0.028 0.076,-0.03 0.124,-0.082 0.05,-0.05 0.076,-0.118 0.026,-0.068 0.026,-0.141 0,-0.065 -0.023,-0.133 -0.02,-0.068 -0.07,-0.121 -0.049,-0.054 -0.128,-0.088 -0.079,-0.034 -0.19,-0.034 -0.196,0 -0.3,0.102 -0.102,0.099 -0.102,0.262 0,0.173 0.107,0.277 0.107,0.104 0.302,0.104 z m 0.003,-0.985 q 0.07,0 0.124,-0.028 0.056,-0.028 0.093,-0.07 0.04,-0.045 0.057,-0.096 0.02,-0.054 0.02,-0.102 0,-0.099 -0.08,-0.166 -0.076,-0.07 -0.22,-0.07 -0.144,0 -0.217,0.07 -0.074,0.067 -0.074,0.163 0,0.048 0.017,0.102 0.02,0.054 0.057,0.099 0.04,0.042 0.093,0.07 0.056,0.028 0.13,0.028 z"
         aria-label="2x8"
         id="path90"
         inkscape:connector-curvature="0" />
    </g>
    <g
       style="line-height:1.25;stroke-width:0.05468758;fill:#232323;fill-opacity:1"
       id="g96">
      <path
         style="-inkscape-font-specification:'Sniglet, Normal';font-variant-ligatures:normal;font-variant-caps:normal;font-variant-numeric:normal;font-feature-settings:normal;text-align:start;stroke-width:0.05468758;fill:#232323;fill-opacity:1"
         d="M 95.666,33.877 Q 95.66,33.775 95.657,33.665 l -0.002,-0.237 q -0.003,-0.127 -0.003,-0.273 v -0.686 l -0.17,0.087 q -0.07,0.045 -0.112,0.054 -0.04,0.008 -0.088,0.008 -0.042,0 -0.076,-0.036 -0.03,-0.037 -0.03,-0.088 0,-0.05 0.033,-0.087 0.036,-0.04 0.084,-0.07 0.063,-0.043 0.133,-0.086 0.073,-0.042 0.141,-0.076 0.068,-0.036 0.124,-0.056 0.06,-0.023 0.1,-0.023 0.02,0 0.04,0.006 0.021,0.005 0.04,0.022 0.018,0.017 0.03,0.054 0.013,0.034 0.016,0.093 l 0.01,0.178 0.004,0.15 q 0.003,0.07 0.003,0.15 v 0.425 q 0,0.116 -0.003,0.229 l -0.005,0.228 q -0.003,0.116 -0.009,0.243 -0.003,0.068 -0.014,0.105 -0.008,0.036 -0.025,0.056 -0.017,0.02 -0.04,0.023 -0.02,0.005 -0.048,0.005 -0.05,0 -0.085,-0.034 -0.033,-0.036 -0.04,-0.152 z m 1.151,-0.317 -0.218,0.23 q -0.088,0.093 -0.15,0.155 -0.062,0.059 -0.104,0.087 -0.04,0.028 -0.073,0.028 -0.04,0 -0.08,-0.033 -0.036,-0.034 -0.036,-0.074 0,-0.034 0.048,-0.101 0.048,-0.071 0.118,-0.156 0.071,-0.084 0.153,-0.175 0.082,-0.093 0.15,-0.175 -0.09,-0.104 -0.173,-0.203 -0.079,-0.099 -0.138,-0.183 -0.06,-0.085 -0.096,-0.15 -0.034,-0.065 -0.034,-0.101 0,-0.037 0.037,-0.062 0.036,-0.029 0.068,-0.029 0.025,0 0.087,0.057 0.062,0.053 0.138,0.132 0.08,0.077 0.158,0.164 0.082,0.088 0.147,0.155 l 0.138,-0.152 q 0.08,-0.088 0.156,-0.164 0.076,-0.076 0.14,-0.13 0.066,-0.053 0.102,-0.053 0.031,0 0.062,0.022 0.031,0.023 0.031,0.06 0,0.036 -0.036,0.101 -0.034,0.065 -0.093,0.15 -0.06,0.084 -0.14,0.183 -0.08,0.099 -0.17,0.203 l 0.152,0.173 q 0.081,0.09 0.152,0.177 0.07,0.085 0.116,0.156 0.048,0.067 0.048,0.101 0,0.04 -0.04,0.074 -0.037,0.033 -0.076,0.033 -0.037,0 -0.099,-0.045 -0.06,-0.048 -0.135,-0.118 -0.074,-0.074 -0.155,-0.161 l -0.156,-0.175 z m 1.263,0.317 q -0.005,-0.102 -0.008,-0.212 0,-0.11 -0.003,-0.237 -0.003,-0.127 -0.003,-0.273 v -0.686 l -0.17,0.087 q -0.07,0.045 -0.112,0.054 -0.04,0.008 -0.088,0.008 -0.042,0 -0.076,-0.036 -0.03,-0.037 -0.03,-0.088 0,-0.05 0.033,-0.087 0.037,-0.04 0.085,-0.07 0.062,-0.043 0.132,-0.086 0.074,-0.042 0.142,-0.076 0.067,-0.036 0.124,-0.056 0.06,-0.023 0.098,-0.023 0.02,0 0.04,0.006 0.023,0.005 0.04,0.022 0.02,0.017 0.03,0.054 0.015,0.034 0.017,0.093 l 0.01,0.178 0.005,0.15 q 0.002,0.07 0.002,0.15 v 0.425 q 0,0.116 -0.002,0.229 l -0.006,0.228 q -0.003,0.116 -0.009,0.243 -0.002,0.068 -0.014,0.105 -0.008,0.036 -0.025,0.056 -0.017,0.02 -0.04,0.023 -0.02,0.005 -0.048,0.005 -0.05,0 -0.084,-0.034 -0.034,-0.036 -0.04,-0.152 z m 0.552,-0.615 q 0,-0.237 0.082,-0.452 0.082,-0.217 0.203,-0.38 0.122,-0.167 0.257,-0.263 0.136,-0.099 0.243,-0.099 0.045,0 0.09,0.023 0.048,0.02 0.048,0.064 0,0.04 -0.045,0.088 l -0.14,0.141 q -0.05,0.05 -0.11,0.116 -0.058,0.065 -0.11,0.138 -0.055,0.073 -0.097,0.152 -0.043,0.08 -0.062,0.156 0.096,-0.085 0.214,-0.116 0.12,-0.031 0.21,-0.031 0.112,0 0.216,0.042 0.105,0.04 0.184,0.122 0.08,0.079 0.124,0.2 0.048,0.119 0.048,0.277 0,0.138 -0.045,0.254 -0.045,0.112 -0.13,0.197 -0.082,0.082 -0.2,0.13 -0.116,0.045 -0.26,0.045 -0.14,0 -0.274,-0.034 -0.13,-0.036 -0.228,-0.127 -0.1,-0.09 -0.158,-0.245 -0.06,-0.156 -0.06,-0.398 z m 0.322,0.163 q 0,0.187 0.096,0.283 0.1,0.096 0.294,0.096 0.07,0 0.135,-0.02 0.065,-0.02 0.116,-0.065 0.05,-0.048 0.08,-0.124 0.03,-0.076 0.03,-0.19 0,-0.07 -0.028,-0.132 -0.026,-0.062 -0.077,-0.107 -0.048,-0.048 -0.115,-0.074 -0.068,-0.028 -0.147,-0.028 -0.18,0 -0.282,0.099 -0.102,0.099 -0.102,0.262 z"
         aria-label="1x16"
         id="path94"
         inkscape:connector-curvature="0" />
    </g>
  </g>
  <g
     style="line-height:1.25;stroke-width:0.78125107;fill:#232323;fill-opacity:1"
     id="g102"
     transform="matrix(1.2799982,0,0,1.2799982,0,-0.0972094)">
    <path
       d="M 3.112,39.549 Q 3.082,39.481 3.05,39.393 L 2.982,39.204 2.804,39.21 h -0.41 q -0.098,0 -0.18,-0.003 l -0.065,0.186 q -0.03,0.088 -0.06,0.156 -0.055,0.144 -0.163,0.144 -0.04,0 -0.076,-0.026 -0.034,-0.025 -0.034,-0.073 0,-0.048 0.017,-0.124 0.017,-0.08 0.042,-0.167 l 0.06,-0.183 q 0.03,-0.096 0.059,-0.178 0.028,-0.09 0.079,-0.229 l 0.113,-0.293 0.118,-0.3 q 0.06,-0.149 0.108,-0.259 0.01,-0.028 0.028,-0.062 0.017,-0.037 0.04,-0.068 0.025,-0.03 0.053,-0.053 0.03,-0.023 0.068,-0.023 0.036,0 0.068,0.025 0.03,0.023 0.053,0.057 0.026,0.034 0.042,0.07 0.02,0.037 0.032,0.065 0.045,0.113 0.1,0.26 0.06,0.147 0.117,0.296 0.06,0.15 0.11,0.285 0.05,0.136 0.082,0.229 0.025,0.082 0.056,0.175 0.034,0.093 0.062,0.183 0.029,0.09 0.045,0.17 0.02,0.076 0.02,0.124 0,0.048 -0.036,0.073 -0.034,0.026 -0.074,0.026 -0.05,0 -0.093,-0.034 -0.042,-0.037 -0.073,-0.11 z m -0.5,-0.621 q 0.068,0 0.136,0.003 L 2.883,38.933 2.815,38.736 2.75,38.546 2.697,38.38 2.657,38.242 Q 2.646,38.205 2.632,38.182 2.618,38.16 2.595,38.16 q -0.022,0 -0.037,0.026 -0.014,0.022 -0.025,0.059 -0.034,0.116 -0.096,0.302 L 2.31,38.933 q 0.076,-0.002 0.153,-0.002 0.076,-0.003 0.15,-0.003 z m 1.6,0.813 q -0.32,0 -0.47,-0.175 Q 3.682,39.498 3.64,39.393 3.6,39.286 3.575,39.117 3.553,38.947 3.542,38.699 q -0.01,-0.251 -0.01,-0.61 0,-0.115 0.007,-0.188 0.005,-0.077 0.022,-0.119 0.017,-0.045 0.043,-0.062 0.028,-0.017 0.07,-0.017 0.082,0 0.116,0.073 0.034,0.074 0.034,0.254 0,0.062 -0.003,0.11 v 0.1 q 0,0.047 -0.003,0.106 v 0.144 q 0,0.283 0.017,0.469 0.02,0.186 0.065,0.299 0.045,0.11 0.12,0.155 0.08,0.045 0.196,0.045 0.12,0 0.2,-0.048 0.082,-0.05 0.13,-0.166 0.048,-0.119 0.068,-0.313 0.023,-0.195 0.023,-0.486 0,-0.127 -0.003,-0.217 v -0.164 q 0,-0.104 0.005,-0.175 0.009,-0.07 0.023,-0.11 0.017,-0.042 0.045,-0.06 0.028,-0.016 0.07,-0.016 0.043,0 0.07,0.017 0.03,0.017 0.046,0.06 0.017,0.042 0.023,0.118 0.006,0.073 0.006,0.192 0,0.496 -0.031,0.818 -0.031,0.319 -0.11,0.505 -0.08,0.184 -0.218,0.257 -0.135,0.07 -0.35,0.07 z m 2.144,-1.764 q -0.08,0.005 -0.17,0.008 l -0.194,0.006 0.006,0.144 0.006,0.132 q 0.002,0.068 0.002,0.142 0.003,0.073 0.003,0.163 v 0.246 q 0,0.115 -0.003,0.234 L 6,39.286 q -0.003,0.119 -0.01,0.246 -0.002,0.067 -0.013,0.104 -0.008,0.037 -0.025,0.057 -0.017,0.02 -0.04,0.022 -0.022,0.006 -0.05,0.006 -0.051,0 -0.088,-0.034 Q 5.74,39.65 5.734,39.535 5.729,39.433 5.726,39.32 5.726,39.207 5.723,39.077 5.72,38.947 5.72,38.797 V 38.192 Q 5.723,38.075 5.729,37.991 H 5.613 Q 5.495,37.991 5.41,37.988 5.328,37.985 5.274,37.974 5.221,37.96 5.194,37.932 5.173,37.903 5.173,37.852 q 0,-0.025 0.005,-0.045 0.006,-0.022 0.026,-0.04 0.02,-0.019 0.053,-0.03 0.037,-0.011 0.094,-0.017 l 0.096,-0.006 0.084,-0.005 q 0.043,-0.003 0.088,-0.003 h 0.104 q 0.167,0 0.313,0.003 0.15,0.002 0.316,0.011 0.068,0.006 0.105,0.017 0.037,0.008 0.056,0.025 0.02,0.017 0.023,0.04 0.006,0.022 0.006,0.05 0,0.051 -0.037,0.085 -0.034,0.034 -0.15,0.04 z m 1.053,1.744 q -0.17,0 -0.32,-0.068 -0.145,-0.068 -0.255,-0.195 -0.11,-0.13 -0.175,-0.316 -0.062,-0.186 -0.062,-0.423 0,-0.223 0.053,-0.41 0.057,-0.186 0.164,-0.321 0.11,-0.135 0.27,-0.209 0.162,-0.076 0.373,-0.076 0.173,0 0.328,0.062 0.155,0.062 0.27,0.186 0.12,0.125 0.187,0.31 0.068,0.187 0.068,0.435 0,0.206 -0.057,0.393 -0.053,0.186 -0.166,0.327 -0.11,0.138 -0.28,0.223 -0.17,0.082 -0.398,0.082 z m 0.006,-0.265 q 0.155,0 0.27,-0.063 0.117,-0.064 0.193,-0.169 0.076,-0.104 0.113,-0.24 0.036,-0.138 0.036,-0.282 0,-0.175 -0.048,-0.31 Q 7.934,38.253 7.855,38.16 7.775,38.067 7.672,38.02 7.567,37.968 7.449,37.968 q -0.141,0 -0.248,0.06 -0.105,0.059 -0.178,0.16 -0.07,0.102 -0.108,0.24 -0.036,0.136 -0.036,0.291 0,0.166 0.042,0.305 0.042,0.135 0.113,0.231 0.073,0.096 0.172,0.15 0.099,0.05 0.209,0.05 z M 9.199,37.7 q 0.08,0 0.18,0.014 0.105,0.012 0.196,0.045 0.09,0.031 0.152,0.085 0.062,0.05 0.062,0.127 0,0.045 -0.025,0.076 -0.026,0.031 -0.082,0.031 -0.042,0 -0.088,-0.017 Q 9.552,38.044 9.496,38.028 9.442,38.008 9.369,37.991 9.298,37.974 9.202,37.974 q -0.186,0 -0.276,0.068 -0.088,0.065 -0.088,0.18 0,0.08 0.04,0.133 0.039,0.054 0.104,0.093 0.068,0.037 0.15,0.062 0.084,0.026 0.172,0.048 0.098,0.026 0.194,0.062 0.1,0.037 0.175,0.096 0.077,0.06 0.122,0.15 0.048,0.09 0.048,0.228 0,0.144 -0.054,0.26 -0.054,0.113 -0.147,0.195 -0.093,0.079 -0.223,0.124 -0.13,0.042 -0.282,0.042 -0.084,0 -0.197,-0.017 -0.113,-0.014 -0.215,-0.05 -0.101,-0.04 -0.172,-0.102 -0.07,-0.065 -0.07,-0.158 0,-0.057 0.028,-0.09 0.03,-0.034 0.09,-0.034 0.048,0 0.079,0.02 0.03,0.016 0.054,0.039 0.084,0.073 0.192,0.099 0.107,0.025 0.22,0.025 0.065,0 0.135,-0.008 0.073,-0.012 0.133,-0.043 0.059,-0.03 0.099,-0.087 0.039,-0.06 0.039,-0.158 0,-0.09 -0.037,-0.147 Q 9.481,38.944 9.422,38.905 9.362,38.865 9.282,38.84 9.202,38.815 9.109,38.79 9.005,38.761 8.903,38.727 8.801,38.694 8.723,38.637 8.643,38.577 8.593,38.49 8.545,38.4 8.545,38.262 q 0,-0.139 0.05,-0.243 0.05,-0.104 0.139,-0.175 Q 8.821,37.774 8.94,37.737 9.06,37.7 9.2,37.7 Z m 2.053,0.277 q -0.08,0.005 -0.17,0.008 l -0.195,0.006 0.006,0.144 0.005,0.132 q 0.003,0.068 0.003,0.142 0.003,0.073 0.003,0.163 v 0.246 q 0,0.115 -0.003,0.234 l -0.006,0.234 q -0.002,0.119 -0.008,0.246 -0.003,0.067 -0.014,0.104 -0.01,0.037 -0.026,0.057 -0.016,0.02 -0.04,0.022 -0.022,0.006 -0.05,0.006 -0.05,0 -0.087,-0.034 -0.034,-0.037 -0.04,-0.152 -0.005,-0.102 -0.008,-0.215 0,-0.113 -0.003,-0.243 -0.003,-0.13 -0.003,-0.28 v -0.605 q 0.003,-0.117 0.009,-0.201 h -0.116 q -0.12,0 -0.203,-0.003 -0.082,-0.003 -0.136,-0.014 -0.053,-0.014 -0.08,-0.042 -0.021,-0.029 -0.021,-0.08 0,-0.025 0.005,-0.045 0.006,-0.022 0.026,-0.04 0.02,-0.019 0.053,-0.03 0.037,-0.011 0.093,-0.017 l 0.096,-0.006 0.085,-0.005 q 0.042,-0.003 0.087,-0.003 h 0.105 q 0.166,0 0.313,0.003 0.15,0.002 0.316,0.011 0.068,0.006 0.105,0.017 0.036,0.008 0.056,0.025 0.02,0.017 0.023,0.04 0.005,0.022 0.005,0.05 0,0.051 -0.036,0.085 -0.034,0.034 -0.15,0.04 z m 0.4,1.286 q -0.005,-0.09 -0.01,-0.245 -0.006,-0.155 -0.006,-0.319 v -0.192 l 0.006,-0.206 q 0.005,-0.209 0.025,-0.327 0.023,-0.119 0.085,-0.178 0.065,-0.06 0.18,-0.073 0.116,-0.014 0.308,-0.014 h 0.06 l 0.14,0.002 q 0.082,0 0.17,0.003 l 0.15,0.006 q 0.06,0.005 0.098,0.017 0.04,0.008 0.06,0.025 0.02,0.014 0.025,0.037 0.005,0.02 0.005,0.045 0,0.065 -0.036,0.096 -0.037,0.028 -0.15,0.037 -0.056,0.005 -0.166,0.008 h -0.22 q -0.113,0 -0.204,0.003 h -0.113 q -0.073,0.003 -0.104,0.034 -0.028,0.028 -0.028,0.138 l 0.002,0.124 q 0.006,0.096 0.006,0.271 h 0.234 q 0.15,0 0.243,0.006 0.096,0.003 0.147,0.017 0.053,0.014 0.073,0.045 0.02,0.03 0.02,0.082 0,0.025 -0.006,0.048 -0.002,0.02 -0.022,0.036 -0.02,0.015 -0.057,0.026 -0.036,0.008 -0.104,0.014 -0.082,0.006 -0.155,0.008 h -0.38 v 0.345 l 0.007,0.096 q 0.003,0.045 0.01,0.076 0.013,0.03 0.038,0.05 0.028,0.02 0.08,0.029 0.053,0.008 0.14,0.008 h 0.607 q 0.099,0 0.124,0.037 0.026,0.037 0.026,0.099 0,0.05 -0.023,0.079 -0.023,0.025 -0.11,0.037 -0.085,0.014 -0.257,0.017 -0.17,0.002 -0.468,0.002 -0.127,0 -0.21,-0.022 -0.081,-0.023 -0.132,-0.076 -0.05,-0.054 -0.076,-0.139 -0.023,-0.087 -0.031,-0.211 z m 1.843,0.252 q 0,0.068 -0.014,0.104 -0.012,0.037 -0.031,0.057 -0.017,0.02 -0.043,0.022 -0.022,0.006 -0.045,0.006 -0.076,0 -0.102,-0.034 -0.022,-0.034 -0.03,-0.152 -0.006,-0.062 -0.01,-0.181 l -0.005,-0.282 -0.002,-0.361 v -0.418 q 0,-0.105 0.025,-0.212 0.025,-0.107 0.096,-0.195 0.073,-0.087 0.2,-0.14 0.13,-0.054 0.336,-0.054 0.144,0 0.274,0.03 0.13,0.032 0.228,0.108 0.1,0.076 0.159,0.203 0.059,0.127 0.059,0.316 0,0.198 -0.065,0.328 -0.065,0.13 -0.184,0.206 -0.118,0.076 -0.282,0.107 -0.163,0.031 -0.358,0.031 h -0.096 q -0.048,0 -0.107,-0.006 z m 0.813,-1.188 q 0,-0.19 -0.108,-0.285 -0.104,-0.096 -0.35,-0.096 -0.093,0 -0.16,0.017 -0.065,0.014 -0.108,0.053 -0.042,0.037 -0.065,0.102 -0.02,0.065 -0.02,0.164 v 0.22 q 0,0.121 0.003,0.228 0.065,0.003 0.144,0.003 h 0.153 q 0.084,0 0.175,-0.011 0.093,-0.012 0.166,-0.051 0.074,-0.042 0.122,-0.121 0.048,-0.082 0.048,-0.223 z"
       style="font-weight:400;font-size:2.82200003px;font-family:Sniglet;-inkscape-font-specification:'Sniglet, Normal';font-variant-ligatures:normal;font-variant-caps:normal;font-variant-numeric:normal;font-feature-settings:normal;text-align:start;letter-spacing:0;word-spacing:0;stroke-width:0.78125107;fill:#232323;fill-opacity:1"
       aria-label="AUTOSTEP"
       font-weight="400"
       font-size="2.822"
       letter-spacing="0"
       word-spacing="0"
       id="path100"
       inkscape:connector-curvature="0" />
  </g>
  <path
     d="M 59.637308,20.139562 H 57.136191"
     id="path104"
     inkscape:connector-curvature="0"
     style="fill:none;stroke:#232323;stroke-width:0.132;stroke-opacity:1" />
  <g
     style="line-height:1.25;stroke-width:0.78125107;fill:#232323;fill-opacity:1"
     id="g108"
     transform="matrix(1.2799982,0,0,1.2799982,0,-0.0972094)">
    <path
       d="M 4.876,25.387 4.814,25.232 q -0.031,-0.09 -0.068,-0.19 l -0.178,0.006 h -0.41 q -0.098,0 -0.18,-0.003 l -0.064,0.187 q -0.031,0.087 -0.06,0.155 -0.056,0.144 -0.163,0.144 -0.04,0 -0.077,-0.026 -0.033,-0.025 -0.033,-0.073 0,-0.048 0.016,-0.124 0.017,-0.08 0.043,-0.167 0.028,-0.09 0.06,-0.183 0.03,-0.096 0.058,-0.178 0.029,-0.09 0.08,-0.229 l 0.112,-0.293 0.119,-0.3 q 0.059,-0.149 0.107,-0.259 0.01,-0.028 0.028,-0.062 0.017,-0.037 0.04,-0.068 0.025,-0.03 0.053,-0.053 0.03,-0.023 0.068,-0.023 0.037,0 0.068,0.025 0.03,0.023 0.053,0.057 0.026,0.034 0.043,0.07 0.02,0.037 0.03,0.065 0.046,0.113 0.102,0.26 0.06,0.147 0.116,0.296 0.06,0.15 0.11,0.285 0.05,0.136 0.082,0.229 0.025,0.082 0.057,0.175 0.033,0.093 0.062,0.183 0.028,0.09 0.045,0.17 0.02,0.076 0.02,0.124 0,0.048 -0.037,0.073 -0.034,0.026 -0.074,0.026 -0.05,0 -0.093,-0.034 -0.042,-0.037 -0.073,-0.11 z m -0.5,-0.621 q 0.068,0 0.136,0.003 0.068,0 0.135,0.003 L 4.58,24.574 4.515,24.384 4.461,24.218 4.421,24.08 Q 4.411,24.043 4.396,24.02 4.382,23.998 4.359,23.998 q -0.022,0 -0.036,0.026 -0.014,0.022 -0.026,0.059 -0.033,0.116 -0.096,0.302 l -0.127,0.387 q 0.077,-0.003 0.153,-0.003 0.076,-0.003 0.15,-0.003 z m 1.876,-0.951 q -0.08,0.005 -0.17,0.008 l -0.194,0.006 0.006,0.144 0.005,0.133 q 0.003,0.067 0.003,0.14 0.003,0.074 0.003,0.164 v 0.246 q 0,0.116 -0.003,0.234 l -0.006,0.234 q -0.002,0.119 -0.008,0.246 -0.003,0.068 -0.014,0.104 -0.01,0.037 -0.026,0.057 -0.017,0.02 -0.04,0.022 -0.022,0.006 -0.05,0.006 -0.05,0 -0.087,-0.034 Q 5.637,25.488 5.631,25.373 5.625,25.271 5.623,25.158 5.623,25.045 5.62,24.915 5.617,24.785 5.617,24.636 V 24.03 Q 5.62,23.914 5.625,23.829 H 5.51 q -0.12,0 -0.203,-0.003 Q 5.225,23.823 5.171,23.812 5.117,23.798 5.091,23.77 5.069,23.741 5.069,23.69 q 0,-0.025 0.006,-0.045 0.006,-0.022 0.026,-0.039 0.02,-0.02 0.053,-0.031 0.037,-0.011 0.093,-0.017 L 5.343,23.552 5.428,23.547 Q 5.47,23.544 5.515,23.544 H 5.62 q 0.166,0 0.313,0.003 0.15,0.003 0.316,0.011 0.068,0.006 0.105,0.017 0.036,0.009 0.056,0.025 0.02,0.017 0.023,0.04 0.005,0.022 0.005,0.05 0,0.052 -0.036,0.085 -0.034,0.034 -0.15,0.04 z m 1.538,0 Q 7.71,23.82 7.62,23.823 l -0.194,0.006 0.005,0.144 0.006,0.133 q 0.003,0.067 0.003,0.14 0.003,0.074 0.003,0.164 v 0.246 q 0,0.116 -0.003,0.234 L 7.434,25.124 7.426,25.37 q -0.003,0.068 -0.014,0.104 -0.01,0.037 -0.026,0.057 -0.017,0.02 -0.04,0.022 -0.022,0.006 -0.05,0.006 -0.05,0 -0.088,-0.034 -0.033,-0.037 -0.04,-0.152 -0.005,-0.102 -0.007,-0.215 0,-0.113 -0.003,-0.243 -0.003,-0.13 -0.003,-0.279 V 24.03 Q 7.158,23.914 7.163,23.829 H 7.048 q -0.12,0 -0.204,-0.003 Q 6.763,23.823 6.709,23.812 6.655,23.798 6.629,23.77 6.607,23.741 6.607,23.69 q 0,-0.025 0.006,-0.045 0.006,-0.022 0.025,-0.039 0.02,-0.02 0.054,-0.031 0.037,-0.011 0.093,-0.017 l 0.096,-0.006 0.085,-0.005 q 0.042,-0.003 0.087,-0.003 h 0.105 q 0.166,0 0.313,0.003 0.15,0.003 0.316,0.011 0.068,0.006 0.104,0.017 0.037,0.009 0.057,0.025 0.02,0.017 0.023,0.04 0.005,0.022 0.005,0.05 0,0.052 -0.037,0.085 -0.033,0.034 -0.15,0.04 z m 1.396,1.572 -0.062,-0.155 q -0.03,-0.09 -0.067,-0.19 l -0.178,0.006 h -0.41 q -0.098,0 -0.18,-0.003 l -0.065,0.187 q -0.031,0.087 -0.06,0.155 -0.056,0.144 -0.163,0.144 -0.04,0 -0.076,-0.026 -0.034,-0.025 -0.034,-0.073 0,-0.048 0.017,-0.124 0.017,-0.08 0.042,-0.167 L 8.01,24.958 Q 8.04,24.862 8.069,24.78 8.097,24.69 8.148,24.551 l 0.113,-0.293 0.118,-0.3 q 0.06,-0.149 0.108,-0.259 0.01,-0.028 0.028,-0.062 0.017,-0.037 0.04,-0.068 0.025,-0.03 0.053,-0.053 0.03,-0.023 0.068,-0.023 0.036,0 0.067,0.025 0.03,0.023 0.054,0.057 0.025,0.034 0.042,0.07 0.02,0.037 0.03,0.065 0.047,0.113 0.103,0.26 0.06,0.147 0.116,0.296 0.059,0.15 0.11,0.285 0.05,0.136 0.082,0.229 0.025,0.082 0.056,0.175 0.034,0.093 0.062,0.183 0.028,0.09 0.045,0.17 0.02,0.076 0.02,0.124 0,0.048 -0.037,0.073 -0.034,0.026 -0.073,0.026 -0.05,0 -0.093,-0.034 -0.043,-0.037 -0.074,-0.11 z m -0.5,-0.621 q 0.069,0 0.136,0.003 0.068,0 0.136,0.003 L 8.89,24.574 8.825,24.384 8.772,24.218 8.732,24.08 Q 8.721,24.043 8.707,24.02 8.693,23.998 8.67,23.998 q -0.023,0 -0.037,0.026 -0.014,0.022 -0.025,0.059 -0.034,0.116 -0.096,0.302 l -0.127,0.387 q 0.076,-0.003 0.152,-0.003 0.077,-0.003 0.15,-0.003 z m 1.754,-1.233 q 0.093,0 0.187,0.017 0.095,0.014 0.172,0.048 0.076,0.03 0.124,0.079 0.05,0.045 0.05,0.107 0,0.065 -0.033,0.099 -0.034,0.033 -0.085,0.033 -0.048,0 -0.085,-0.014 -0.036,-0.017 -0.084,-0.036 -0.045,-0.02 -0.11,-0.034 -0.065,-0.017 -0.172,-0.017 -0.108,0 -0.206,0.056 -0.096,0.054 -0.17,0.153 -0.07,0.096 -0.113,0.228 -0.042,0.133 -0.042,0.288 0,0.192 0.048,0.33 0.05,0.139 0.13,0.229 0.079,0.087 0.178,0.133 0.1,0.042 0.203,0.042 0.12,0 0.203,-0.025 0.082,-0.026 0.138,-0.057 0.06,-0.031 0.102,-0.056 0.042,-0.026 0.082,-0.026 0.048,0 0.076,0.028 0.028,0.026 0.028,0.094 0,0.056 -0.045,0.115 -0.042,0.057 -0.127,0.105 -0.082,0.045 -0.198,0.076 -0.115,0.028 -0.26,0.028 -0.157,0 -0.315,-0.062 Q 9.96,25.432 9.836,25.311 9.715,25.186 9.639,25.003 9.563,24.817 9.563,24.571 q 0,-0.245 0.067,-0.437 0.07,-0.192 0.19,-0.325 0.12,-0.135 0.279,-0.206 0.16,-0.07 0.34,-0.07 z m 1.986,1.823 -0.011,-0.32 q -0.003,-0.168 -0.003,-0.389 l -0.192,0.006 h -0.44 q -0.105,0 -0.187,-0.003 l -0.005,0.345 q -0.003,0.163 -0.011,0.358 -0.003,0.068 -0.015,0.104 -0.008,0.037 -0.025,0.057 -0.017,0.02 -0.04,0.022 -0.02,0.006 -0.047,0.006 -0.051,0 -0.085,-0.034 -0.034,-0.037 -0.04,-0.152 -0.005,-0.102 -0.008,-0.212 0,-0.11 -0.003,-0.237 -0.003,-0.127 -0.003,-0.274 V 24.3 q 0,-0.2 0.003,-0.341 0.003,-0.144 0.014,-0.235 0.014,-0.09 0.043,-0.132 0.028,-0.043 0.079,-0.043 0.048,0 0.084,0.032 0.037,0.03 0.043,0.143 l 0.008,0.175 0.006,0.153 q 0.002,0.073 0.002,0.152 v 0.175 q 0.212,-0.008 0.415,-0.008 0.1,0 0.198,0.003 0.1,0.002 0.206,0.008 V 24.3 q 0,-0.2 0.003,-0.341 0.003,-0.144 0.014,-0.235 0.014,-0.09 0.042,-0.132 0.028,-0.043 0.08,-0.043 0.047,0 0.084,0.031 0.037,0.032 0.042,0.144 l 0.009,0.181 0.005,0.158 q 0.003,0.076 0.003,0.161 v 0.429 q 0,0.116 -0.003,0.229 l -0.005,0.228 q -0.003,0.116 -0.01,0.243 -0.002,0.068 -0.013,0.104 -0.008,0.037 -0.025,0.057 -0.017,0.02 -0.04,0.022 -0.02,0.006 -0.048,0.006 -0.05,0 -0.084,-0.034 -0.034,-0.037 -0.04,-0.152 z"
       style="font-weight:400;font-size:2.82200003px;font-family:Sniglet;-inkscape-font-specification:'Sniglet, Normal';font-variant-ligatures:normal;font-variant-caps:normal;font-variant-numeric:normal;font-feature-settings:normal;text-align:start;letter-spacing:0;word-spacing:0;stroke-width:0.78125107;fill:#232323;fill-opacity:1"
       aria-label="ATTACH"
       font-weight="400"
       font-size="2.822"
       letter-spacing="0"
       word-spacing="0"
       id="path106"
       inkscape:connector-curvature="0" />
  </g>
  <path
     d="M 10.534385,84.536271 V 82.033875"
     id="path110"
     inkscape:connector-curvature="0"
     style="fill:none;stroke:#232323;stroke-width:0.132;stroke-opacity:1" />
  <g
     style="line-height:1.25;stroke-width:0.78125107;fill:#232323;fill-opacity:1"
     id="g114"
     transform="matrix(1.2799982,0,0,1.2799982,0,-0.0972094)">
    <path
       d="m 23.649,21.412 q 0.033,-0.07 0.073,-0.131 0.04,-0.064 0.082,-0.108 0.043,-0.047 0.087,-0.072 0.045,-0.028 0.087,-0.028 0.02,0 0.038,0.005 0.02,0.004 0.038,0.014 0.017,0.009 0.028,0.026 0.01,0.015 0.01,0.036 0,0.055 -0.05,0.082 -0.098,0.057 -0.16,0.157 -0.06,0.1 -0.092,0.216 -0.034,0.114 -0.047,0.235 -0.013,0.12 -0.013,0.222 0,0.178 0.028,0.298 0.027,0.121 0.072,0.204 0.044,0.082 0.1,0.135 0.056,0.053 0.114,0.093 0.02,0.015 0.038,0.036 0.017,0.024 0.017,0.064 0,0.036 -0.032,0.048 -0.032,0.015 -0.076,0.015 -0.045,0 -0.09,-0.023 -0.046,-0.023 -0.09,-0.066 -0.045,-0.04 -0.085,-0.093 -0.04,-0.055 -0.072,-0.118 -0.042,-0.085 -0.07,-0.172 -0.025,-0.087 -0.04,-0.17 -0.013,-0.082 -0.017,-0.156 -0.004,-0.074 -0.004,-0.133 0,-0.14 0.023,-0.296 0.026,-0.157 0.102,-0.32 z m 1.087,0.851 -0.062,0.004 h -0.133 q -0.036,0 -0.08,-0.004 v 0.43 q 0,0.067 -0.034,0.084 -0.032,0.015 -0.08,0.015 -0.026,0 -0.04,-0.004 -0.016,-0.002 -0.026,-0.01 -0.01,-0.011 -0.015,-0.03 -0.004,-0.02 -0.007,-0.053 -0.004,-0.038 -0.006,-0.11 l -0.004,-0.19 -0.002,-0.282 v -0.392 q 0,-0.087 0.02,-0.167 0.022,-0.083 0.077,-0.144 0.055,-0.064 0.148,-0.102 0.096,-0.038 0.242,-0.038 0.103,0 0.2,0.024 0.1,0.023 0.176,0.08 0.077,0.057 0.123,0.154 0.047,0.098 0.047,0.244 0,0.195 -0.085,0.303 -0.082,0.105 -0.228,0.15 l 0.283,0.39 q 0.038,0.05 0.038,0.103 0,0.042 -0.03,0.066 -0.027,0.025 -0.07,0.025 -0.046,0 -0.08,-0.025 -0.034,-0.028 -0.063,-0.07 z m 0.332,-0.493 q 0,-0.146 -0.09,-0.216 -0.086,-0.072 -0.276,-0.072 -0.07,0 -0.117,0.013 -0.046,0.01 -0.074,0.042 -0.027,0.032 -0.04,0.089 -0.01,0.055 -0.01,0.142 v 0.144 q 0,0.082 0.002,0.15 0.048,0.002 0.108,0.002 h 0.114 q 0.06,0 0.125,-0.006 0.068,-0.009 0.125,-0.038 0.057,-0.032 0.095,-0.09 0.038,-0.059 0.038,-0.16 z m 0.43,0.882 Q 25.494,22.576 25.492,22.494 L 25.49,22.316 q -0.002,-0.095 -0.002,-0.205 v -0.25 q 0,-0.15 0.002,-0.256 0.002,-0.108 0.012,-0.176 0.01,-0.068 0.032,-0.1 0.023,-0.031 0.06,-0.031 0.02,0 0.037,0.004 0.017,0.004 0.03,0.019 0.013,0.013 0.02,0.04 0.01,0.026 0.014,0.068 l 0.006,0.135 0.005,0.119 q 0.002,0.057 0.002,0.12 v 0.322 q 0,0.087 -0.002,0.172 l -0.005,0.171 -0.006,0.182 q -0.002,0.051 -0.01,0.079 -0.01,0.027 -0.022,0.042 -0.013,0.015 -0.03,0.017 -0.016,0.004 -0.038,0.004 -0.038,0 -0.065,-0.025 -0.028,-0.028 -0.032,-0.115 z m 1.13,-1.367 q 0.07,0 0.145,0.013 0.074,0.012 0.135,0.038 0.062,0.023 0.102,0.06 0.04,0.035 0.04,0.082 0,0.048 -0.025,0.074 -0.026,0.025 -0.064,0.025 -0.036,0 -0.068,-0.013 l -0.067,-0.027 q -0.04,-0.015 -0.09,-0.028 -0.054,-0.012 -0.135,-0.012 -0.09,0 -0.167,0.042 -0.076,0.04 -0.135,0.114 -0.06,0.072 -0.094,0.172 -0.033,0.1 -0.033,0.216 0,0.141 0.036,0.245 0.036,0.104 0.093,0.172 0.06,0.067 0.13,0.101 0.075,0.032 0.15,0.032 0.12,0 0.19,-0.034 0.072,-0.036 0.114,-0.09 0.002,-0.045 0.002,-0.107 v -0.133 q 0,-0.028 -0.004,-0.042 -0.004,-0.017 -0.02,-0.026 -0.018,-0.008 -0.052,-0.01 -0.032,-0.002 -0.087,-0.002 -0.068,0 -0.11,-0.017 -0.042,-0.02 -0.042,-0.079 0,-0.042 0.02,-0.067 0.024,-0.028 0.094,-0.032 h 0.04 q 0.03,-0.002 0.062,-0.002 h 0.115 q 0.064,0 0.103,0.012 0.038,0.011 0.067,0.051 0.015,0.021 0.017,0.074 0.004,0.053 0.004,0.123 v 0.546 q 0,0.057 -0.03,0.085 -0.03,0.027 -0.07,0.027 -0.05,0 -0.08,-0.025 -0.03,-0.023 -0.03,-0.076 v -0.083 q -0.056,0.064 -0.133,0.091 -0.074,0.028 -0.188,0.028 -0.116,0 -0.228,-0.047 -0.113,-0.046 -0.2,-0.137 -0.086,-0.094 -0.14,-0.231 -0.054,-0.14 -0.054,-0.324 0,-0.184 0.053,-0.328 0.055,-0.144 0.148,-0.244 0.093,-0.101 0.218,-0.154 0.125,-0.053 0.27,-0.053 z m 1.534,1.367 -0.008,-0.239 q -0.002,-0.127 -0.002,-0.292 l -0.144,0.004 h -0.33 q -0.078,0 -0.14,-0.002 l -0.004,0.258 q -0.002,0.123 -0.008,0.27 -0.002,0.05 -0.01,0.078 -0.007,0.027 -0.02,0.042 -0.013,0.015 -0.03,0.017 -0.014,0.004 -0.036,0.004 -0.038,0 -0.063,-0.025 -0.025,-0.028 -0.03,-0.115 -0.004,-0.076 -0.006,-0.158 L 27.329,22.316 Q 27.327,22.221 27.327,22.11 v -0.25 q 0,-0.15 0.002,-0.255 0.002,-0.108 0.01,-0.176 0.01,-0.068 0.032,-0.1 0.02,-0.031 0.06,-0.031 0.035,0 0.063,0.023 0.027,0.023 0.032,0.108 l 0.006,0.131 0.004,0.114 q 0.002,0.055 0.002,0.115 v 0.131 q 0.16,-0.006 0.312,-0.006 l 0.148,0.002 0.154,0.006 v -0.061 q 0,-0.15 0.002,-0.257 0.002,-0.107 0.01,-0.175 0.01,-0.068 0.033,-0.1 0.02,-0.031 0.06,-0.031 0.035,0 0.062,0.023 0.028,0.023 0.032,0.108 l 0.006,0.135 0.005,0.119 q 0.002,0.057 0.002,0.12 v 0.322 q 0,0.087 -0.002,0.172 l -0.005,0.171 -0.006,0.182 q -0.002,0.05 -0.01,0.078 -0.007,0.028 -0.02,0.043 -0.012,0.015 -0.03,0.017 -0.014,0.004 -0.035,0.004 -0.038,0 -0.064,-0.026 -0.025,-0.027 -0.03,-0.114 z m 1.278,-1.155 q -0.06,0.004 -0.127,0.006 l -0.146,0.004 0.004,0.108 0.004,0.1 q 0.002,0.05 0.002,0.106 0.003,0.055 0.003,0.122 v 0.184 q 0,0.087 -0.003,0.176 l -0.004,0.176 -0.006,0.184 q -0.002,0.05 -0.01,0.078 -0.007,0.028 -0.02,0.043 -0.012,0.014 -0.03,0.017 -0.016,0.004 -0.037,0.004 -0.04,0 -0.066,-0.026 -0.025,-0.027 -0.03,-0.114 -0.004,-0.076 -0.006,-0.16 l -0.002,-0.183 q -0.002,-0.097 -0.002,-0.21 v -0.454 q 0.002,-0.087 0.006,-0.15 h -0.087 q -0.09,0 -0.152,-0.003 -0.06,-0.002 -0.102,-0.01 -0.04,-0.011 -0.06,-0.032 -0.016,-0.021 -0.016,-0.06 0,-0.019 0.004,-0.033 0.005,-0.017 0.02,-0.03 0.014,-0.015 0.04,-0.023 0.027,-0.009 0.07,-0.013 l 0.07,-0.004 0.065,-0.004 q 0.032,-0.002 0.066,-0.002 h 0.078 q 0.125,0 0.235,0.002 0.112,0.002 0.237,0.008 0.05,0.004 0.078,0.013 0.028,0.006 0.043,0.019 0.014,0.013 0.016,0.03 0.005,0.016 0.005,0.038 0,0.038 -0.028,0.063 -0.025,0.026 -0.112,0.03 z m 1.388,-0.212 q 0.07,0 0.14,0.013 0.072,0.01 0.13,0.036 0.056,0.023 0.092,0.059 0.038,0.034 0.038,0.08 0,0.05 -0.025,0.074 -0.025,0.026 -0.064,0.026 -0.036,0 -0.063,-0.01 L 31.012,21.535 Q 30.979,21.52 30.93,21.509 30.88,21.497 30.8,21.497 q -0.08,0 -0.154,0.042 -0.072,0.04 -0.127,0.114 -0.053,0.072 -0.084,0.172 -0.032,0.1 -0.032,0.216 0,0.144 0.036,0.247 0.038,0.104 0.097,0.172 0.06,0.065 0.134,0.1 0.076,0.031 0.152,0.031 0.09,0 0.152,-0.02 0.062,-0.018 0.104,-0.041 0.045,-0.024 0.076,-0.043 0.032,-0.019 0.062,-0.019 0.036,0 0.057,0.021 0.02,0.02 0.02,0.07 0,0.043 -0.033,0.087 -0.032,0.042 -0.095,0.078 -0.062,0.034 -0.148,0.057 -0.087,0.022 -0.195,0.022 -0.12,0 -0.237,-0.047 -0.117,-0.046 -0.21,-0.137 -0.09,-0.094 -0.148,-0.231 -0.057,-0.14 -0.057,-0.324 0,-0.184 0.05,-0.328 0.054,-0.144 0.143,-0.244 0.09,-0.101 0.21,-0.154 0.12,-0.053 0.255,-0.053 z m 0.865,0.908 v 0.12 q 0,0.052 -0.002,0.098 0,0.047 -0.002,0.093 l -0.004,0.104 0.228,-0.028 0.13,-0.017 0.074,-0.008 q 0.027,-0.002 0.063,-0.002 0.093,0 0.093,0.09 0,0.037 -0.038,0.062 -0.036,0.026 -0.093,0.045 -0.055,0.017 -0.125,0.03 -0.068,0.01 -0.133,0.014 -0.064,0.007 -0.117,0.009 l -0.072,0.002 q -0.076,0 -0.118,-0.01 -0.042,-0.01 -0.064,-0.056 -0.02,-0.049 -0.027,-0.146 -0.004,-0.097 -0.004,-0.275 v -0.305 q 0,-0.133 0.002,-0.239 l 0.002,-0.188 q 0.002,-0.083 0.006,-0.15 0.004,-0.087 0.03,-0.113 0.025,-0.027 0.063,-0.027 0.02,0 0.036,0.004 0.017,0.002 0.03,0.017 0.013,0.015 0.02,0.042 0.007,0.028 0.01,0.078 0.008,0.187 0.01,0.369 0.002,0.182 0.002,0.387 z m 0.78,0.459 q -0.005,-0.076 -0.007,-0.158 l -0.002,-0.178 q -0.002,-0.095 -0.002,-0.205 v -0.25 q 0,-0.15 0.002,-0.256 0.002,-0.108 0.013,-0.176 0.01,-0.068 0.03,-0.1 0.025,-0.031 0.063,-0.031 0.02,0 0.036,0.004 0.017,0.004 0.03,0.019 0.012,0.013 0.02,0.04 0.01,0.026 0.013,0.068 l 0.007,0.135 0.004,0.119 q 0.002,0.057 0.002,0.12 v 0.322 q 0,0.087 -0.002,0.172 l -0.004,0.171 q -0.002,0.087 -0.007,0.182 -0.002,0.051 -0.01,0.079 -0.01,0.027 -0.022,0.042 -0.012,0.015 -0.03,0.017 -0.016,0.004 -0.037,0.004 -0.038,0 -0.066,-0.025 -0.027,-0.028 -0.032,-0.115 z m 1.1,-1.367 q 0.07,0 0.14,0.013 0.072,0.01 0.13,0.036 0.056,0.023 0.092,0.059 0.038,0.034 0.038,0.08 0,0.05 -0.025,0.074 -0.025,0.026 -0.063,0.026 -0.036,0 -0.064,-0.01 l -0.063,-0.028 q -0.034,-0.015 -0.083,-0.026 -0.05,-0.012 -0.13,-0.012 -0.08,0 -0.154,0.042 -0.072,0.04 -0.127,0.114 -0.053,0.072 -0.084,0.172 -0.032,0.1 -0.032,0.216 0,0.144 0.036,0.247 0.038,0.104 0.097,0.172 0.06,0.065 0.134,0.1 0.076,0.031 0.152,0.031 0.09,0 0.152,-0.02 0.062,-0.018 0.104,-0.041 0.045,-0.024 0.076,-0.043 0.032,-0.019 0.062,-0.019 0.036,0 0.057,0.021 0.02,0.02 0.02,0.07 0,0.043 -0.033,0.087 -0.032,0.042 -0.095,0.078 -0.06,0.034 -0.148,0.057 -0.087,0.022 -0.195,0.022 -0.12,0 -0.237,-0.047 -0.116,-0.046 -0.21,-0.137 -0.09,-0.094 -0.148,-0.231 -0.057,-0.14 -0.057,-0.324 0,-0.184 0.05,-0.328 0.054,-0.144 0.143,-0.244 0.09,-0.101 0.21,-0.154 0.12,-0.053 0.255,-0.053 z m 0.664,1.367 q -0.004,-0.076 -0.006,-0.158 l -0.002,-0.178 q -0.002,-0.095 -0.002,-0.205 v -0.25 q 0,-0.15 0.002,-0.256 0.002,-0.108 0.01,-0.176 0.01,-0.068 0.032,-0.1 0.02,-0.031 0.06,-0.031 0.035,0 0.063,0.023 0.027,0.023 0.032,0.108 l 0.006,0.135 0.004,0.119 q 0.002,0.057 0.002,0.12 v 0.25 l 0.453,-0.518 q 0.09,-0.102 0.138,-0.134 0.05,-0.033 0.085,-0.033 0.042,0 0.06,0.02 0.022,0.022 0.022,0.054 0,0.012 -0.004,0.025 -0.004,0.013 -0.02,0.036 -0.012,0.021 -0.04,0.055 l -0.073,0.083 -0.295,0.32 0.464,0.66 q 0.017,0.023 0.025,0.048 0.01,0.026 0.01,0.049 0,0.04 -0.022,0.066 -0.022,0.027 -0.077,0.027 -0.044,0 -0.08,-0.025 -0.034,-0.024 -0.064,-0.07 l -0.402,-0.595 -0.182,0.2 -0.004,0.16 -0.006,0.17 q -0.002,0.05 -0.01,0.078 -0.007,0.027 -0.02,0.042 -0.013,0.015 -0.03,0.017 -0.014,0.004 -0.036,0.004 -0.038,0 -0.063,-0.025 -0.025,-0.028 -0.03,-0.115 z m 1.542,-1.24 q 0.076,0.163 0.1,0.32 0.025,0.156 0.025,0.296 0,0.06 -0.005,0.133 -0.004,0.074 -0.02,0.157 -0.011,0.082 -0.04,0.17 -0.024,0.086 -0.067,0.17 -0.03,0.064 -0.072,0.12 -0.04,0.052 -0.084,0.092 -0.045,0.043 -0.09,0.066 -0.046,0.023 -0.09,0.023 -0.045,0 -0.076,-0.015 -0.032,-0.012 -0.032,-0.048 0,-0.04 0.017,-0.064 0.017,-0.02 0.038,-0.036 0.057,-0.04 0.112,-0.093 0.057,-0.053 0.102,-0.135 0.044,-0.083 0.072,-0.203 0.027,-0.121 0.027,-0.299 0,-0.102 -0.012,-0.222 -0.013,-0.12 -0.047,-0.235 -0.034,-0.117 -0.095,-0.216 -0.06,-0.1 -0.157,-0.157 -0.05,-0.027 -0.05,-0.082 0,-0.021 0.01,-0.036 0.01,-0.017 0.027,-0.026 0.017,-0.01 0.036,-0.014 0.022,-0.005 0.04,-0.005 0.043,0 0.087,0.028 0.045,0.025 0.087,0.072 0.042,0.044 0.083,0.108 0.04,0.061 0.074,0.131 z"
       style="font-weight:400;font-size:2.1170001px;font-family:Sniglet;-inkscape-font-specification:'Sniglet, Normal';font-variant-ligatures:normal;font-variant-caps:normal;font-variant-numeric:normal;font-feature-settings:normal;text-align:start;letter-spacing:0;word-spacing:0;fill:#232323;stroke-width:0.78125107;fill-opacity:1"
       aria-label="(RIGHT CLICK)"
       font-weight="400"
       font-size="2.117"
       letter-spacing="0"
       word-spacing="0"
       id="path112"
       inkscape:connector-curvature="0" />
  </g>
  <path
     d="m 97.853302,20.139562 h -2.502396 m 19.150054,-0.0013 h -2.5024"
     id="path116"
     inkscape:connector-curvature="0"
     style="fill:none;stroke:#232323;stroke-width:0.132;stroke-opacity:1" />
</svg>
