<?xml version="1.0" encoding="UTF-8" standalone="no"?>
<svg
   xmlns:dc="http://purl.org/dc/elements/1.1/"
   xmlns:cc="http://creativecommons.org/ns#"
   xmlns:rdf="http://www.w3.org/1999/02/22-rdf-syntax-ns#"
   xmlns:svg="http://www.w3.org/2000/svg"
   xmlns="http://www.w3.org/2000/svg"
   xmlns:sodipodi="http://sodipodi.sourceforge.net/DTD/sodipodi-0.dtd"
   xmlns:inkscape="http://www.inkscape.org/namespaces/inkscape"
   width="420"
   height="380"
   viewBox="0 0 111.12524 100.542"
   version="1.1"
   id="svg112"
   sodipodi:docname="CvPad.svg"
   inkscape:version="0.92.4 (5da689c313, 2019-01-14)">
  <metadata
     id="metadata118">
    <rdf:RDF>
      <cc:Work
         rdf:about="">
        <dc:format>image/svg+xml</dc:format>
        <dc:type
           rdf:resource="http://purl.org/dc/dcmitype/StillImage" />
        <dc:title></dc:title>
      </cc:Work>
    </rdf:RDF>
  </metadata>
  <defs
     id="defs116" />
  <sodipodi:namedview
     pagecolor="#ffffff"
     bordercolor="#666666"
     borderopacity="1"
     objecttolerance="10"
     gridtolerance="10"
     guidetolerance="10"
     inkscape:pageopacity="0"
     inkscape:pageshadow="2"
     inkscape:window-width="1920"
     inkscape:window-height="1017"
     id="namedview114"
     showgrid="false"
     inkscape:zoom="2.2368644"
     inkscape:cx="248.6595"
     inkscape:cy="228.77234"
     inkscape:window-x="-8"
     inkscape:window-y="-8"
     inkscape:window-maximized="1"
     inkscape:current-layer="svg112"
     showguides="true"
     inkscape:guide-bbox="true">
    <sodipodi:guide
       position="55.56262,95.456"
       orientation="1,0"
       id="guide925"
       inkscape:locked="false"
       inkscape:label=""
       inkscape:color="rgb(0,0,255)" />
  </sodipodi:namedview>
  <path
     d="M 0,0.001 H 111.12537 V 100.542 H 0 Z m 0,0"
     id="path2"
     inkscape:connector-curvature="0"
     style="fill:#dcdcdc;stroke-width:1" />
  <g
     word-spacing="0"
     letter-spacing="0"
     font-weight="400"
     id="g12"
     style="font-weight:400;letter-spacing:0;word-spacing:0;fill:#333333"
     transform="translate(-1.9983901)">
    <g
       style="line-height:1.25"
       id="g6">
      <path
         aria-label="♫"
         font-size="3.528"
         d="m 66.176,96.87 -1.631,0.115 v -2.06 q 0,-0.23 0.065,-0.333 0.064,-0.104 0.22,-0.147 0.153,-0.043 0.348,-0.002 0.223,0.047 0.356,0.19 0.134,0.146 0.134,0.33 0,0.186 -0.158,0.286 -0.158,0.103 -0.408,0.05 -0.082,-0.018 -0.143,-0.044 -0.064,-0.027 -0.205,-0.11 v 1.345 l 1.219,-0.085 v -1.554 q 0,-0.225 0.065,-0.337 0.066,-0.11 0.226,-0.151 0.16,-0.04 0.348,0 0.223,0.047 0.354,0.19 0.13,0.14 0.13,0.325 0,0.195 -0.156,0.294 -0.156,0.1 -0.408,0.047 -0.16,-0.034 -0.356,-0.16 z"
         style="font-size:3.52800012px;font-family:Arial;-inkscape-font-specification:'Arial, Normal';font-variant-ligatures:normal;font-variant-caps:normal;font-variant-numeric:normal;font-feature-settings:normal;text-align:start"
         id="path4"
         inkscape:connector-curvature="0" />
    </g>
    <g
       style="line-height:1.25"
       id="g10">
      <path
         font-size="3.528"
         aria-label="IMPROMPT"
         style="font-size:3.52800012px;font-family:Sniglet;-inkscape-font-specification:'Sniglet, Normal';font-variant-ligatures:normal;font-variant-caps:normal;font-variant-numeric:normal;font-feature-settings:normal;text-align:start"
         d="m 48.157,96.698 q -0.007,-0.127 -0.01,-0.265 0,-0.137 -0.004,-0.296 -0.003,-0.159 -0.003,-0.342 v -0.417 q 0,-0.25 0.003,-0.426 0.004,-0.18 0.02,-0.293 0.019,-0.113 0.054,-0.166 0.04,-0.053 0.103,-0.053 0.03,0 0.06,0.007 0.028,0.007 0.049,0.032 0.02,0.02 0.035,0.067 0.018,0.042 0.02,0.113 0.009,0.127 0.012,0.225 l 0.007,0.198 q 0.004,0.095 0.004,0.201 v 0.536 q 0,0.145 -0.004,0.286 l -0.007,0.286 -0.01,0.303 q -0.004,0.085 -0.018,0.13 -0.014,0.047 -0.036,0.071 -0.02,0.025 -0.05,0.028 -0.027,0.007 -0.062,0.007 -0.064,0 -0.11,-0.042 -0.046,-0.046 -0.053,-0.19 z m 1.754,-0.381 q -0.162,-0.357 -0.29,-0.688 -0.123,-0.335 -0.21,-0.596 -0.082,0.437 -0.138,0.882 -0.053,0.444 -0.138,0.85 -0.021,0.092 -0.078,0.123 -0.056,0.028 -0.095,0.028 -0.063,0 -0.102,-0.038 -0.035,-0.04 -0.035,-0.1 0,-0.08 0.017,-0.246 0.02,-0.17 0.05,-0.381 0.03,-0.212 0.07,-0.445 0.039,-0.232 0.078,-0.448 l 0.077,-0.395 q 0.04,-0.176 0.067,-0.271 0.046,-0.163 0.187,-0.163 0.085,0 0.145,0.085 0.06,0.081 0.127,0.254 0.07,0.17 0.166,0.43 0.099,0.262 0.254,0.614 0.15,-0.352 0.243,-0.61 0.095,-0.261 0.159,-0.43 0.067,-0.173 0.127,-0.254 0.06,-0.085 0.148,-0.085 0.08,0 0.124,0.042 0.042,0.039 0.063,0.12 0.025,0.099 0.06,0.275 0.035,0.173 0.074,0.388 0.042,0.212 0.08,0.445 0.04,0.233 0.07,0.444 0.034,0.212 0.05,0.385 0.022,0.17 0.022,0.261 0,0.056 -0.038,0.092 -0.04,0.031 -0.1,0.031 -0.038,0 -0.094,-0.028 -0.057,-0.032 -0.078,-0.123 -0.042,-0.201 -0.078,-0.417 l -0.063,-0.433 -0.057,-0.441 q -0.028,-0.223 -0.06,-0.441 -0.045,0.14 -0.105,0.31 -0.06,0.17 -0.127,0.342 -0.067,0.17 -0.138,0.335 -0.07,0.166 -0.138,0.3 -0.024,0.046 -0.067,0.07 -0.038,0.022 -0.08,0.022 -0.047,0 -0.09,-0.021 -0.038,-0.025 -0.06,-0.074 z m 2.005,0.377 q 0,0.085 -0.018,0.13 -0.014,0.047 -0.038,0.071 -0.022,0.025 -0.053,0.029 -0.03,0.007 -0.057,0.007 -0.095,0 -0.127,-0.043 -0.028,-0.042 -0.04,-0.19 -0.006,-0.078 -0.01,-0.226 l -0.006,-0.353 q 0,-0.204 -0.004,-0.451 v -0.522 q 0,-0.131 0.032,-0.265 0.032,-0.134 0.12,-0.243 0.092,-0.11 0.25,-0.177 0.163,-0.067 0.42,-0.067 0.18,0 0.342,0.039 0.163,0.039 0.286,0.134 0.124,0.095 0.198,0.254 0.074,0.159 0.074,0.395 0,0.247 -0.081,0.41 -0.082,0.162 -0.23,0.257 -0.148,0.095 -0.352,0.134 -0.205,0.039 -0.448,0.039 h -0.12 q -0.06,0 -0.134,-0.007 z m 1.016,-1.485 q 0,-0.236 -0.134,-0.356 -0.13,-0.12 -0.437,-0.12 -0.117,0 -0.202,0.021 -0.08,0.018 -0.134,0.067 -0.053,0.046 -0.08,0.127 -0.025,0.081 -0.025,0.205 v 0.275 q 0,0.151 0.003,0.286 0.08,0.004 0.18,0.004 h 0.19 q 0.106,0 0.22,-0.015 0.116,-0.014 0.207,-0.063 0.092,-0.053 0.152,-0.152 0.06,-0.102 0.06,-0.278 z m 1.45,0.84 -0.101,0.007 h -0.222 q -0.06,0 -0.134,-0.007 v 0.716 q 0,0.113 -0.057,0.14 -0.053,0.026 -0.134,0.026 -0.042,0 -0.067,-0.007 -0.025,-0.004 -0.042,-0.018 -0.014,-0.018 -0.025,-0.05 -0.007,-0.031 -0.01,-0.088 -0.008,-0.063 -0.011,-0.183 -0.004,-0.123 -0.007,-0.318 0,-0.194 -0.004,-0.469 v -0.652 q 0,-0.145 0.036,-0.279 0.035,-0.138 0.127,-0.24 0.09,-0.106 0.246,-0.17 0.16,-0.063 0.403,-0.063 0.173,0 0.335,0.039 0.166,0.039 0.293,0.134 0.127,0.095 0.204,0.258 0.078,0.162 0.078,0.405 0,0.325 -0.141,0.505 -0.138,0.176 -0.381,0.25 l 0.472,0.65 q 0.064,0.084 0.064,0.172 0,0.07 -0.05,0.11 -0.045,0.042 -0.116,0.042 -0.077,0 -0.134,-0.042 -0.056,-0.046 -0.106,-0.117 z m 0.555,-0.822 q 0,-0.244 -0.148,-0.36 -0.145,-0.12 -0.462,-0.12 -0.117,0 -0.194,0.021 -0.078,0.018 -0.124,0.07 -0.046,0.054 -0.067,0.149 -0.017,0.091 -0.017,0.236 v 0.24 q 0,0.138 0.003,0.25 0.08,0.005 0.18,0.005 h 0.19 q 0.1,0 0.209,-0.011 0.113,-0.014 0.208,-0.064 0.095,-0.052 0.159,-0.148 0.063,-0.099 0.063,-0.268 z m 1.609,1.725 q -0.211,0 -0.398,-0.085 -0.184,-0.085 -0.321,-0.243 -0.138,-0.163 -0.22,-0.395 -0.077,-0.233 -0.077,-0.53 0,-0.278 0.067,-0.511 0.07,-0.233 0.205,-0.402 0.138,-0.17 0.339,-0.261 0.2,-0.096 0.465,-0.096 0.216,0 0.41,0.078 0.194,0.078 0.338,0.233 0.148,0.155 0.233,0.388 0.085,0.233 0.085,0.543 0,0.258 -0.07,0.49 -0.068,0.233 -0.21,0.41 -0.137,0.173 -0.35,0.278 -0.21,0.103 -0.496,0.103 z m 0.007,-0.332 q 0.194,0 0.34,-0.077 0.144,-0.082 0.239,-0.212 0.095,-0.13 0.14,-0.3 0.047,-0.173 0.047,-0.353 0,-0.218 -0.06,-0.388 -0.056,-0.173 -0.155,-0.29 -0.1,-0.115 -0.23,-0.175 -0.13,-0.064 -0.278,-0.064 -0.177,0 -0.31,0.074 -0.131,0.074 -0.223,0.201 -0.088,0.127 -0.134,0.3 -0.046,0.17 -0.046,0.363 0,0.209 0.053,0.381 0.053,0.17 0.14,0.29 0.093,0.12 0.216,0.187 0.124,0.063 0.26,0.063 z m 2.384,-0.303 q -0.162,-0.357 -0.29,-0.688 -0.123,-0.335 -0.211,-0.596 -0.08,0.437 -0.137,0.882 -0.053,0.444 -0.138,0.85 -0.021,0.092 -0.077,0.123 -0.057,0.028 -0.096,0.028 -0.063,0 -0.102,-0.038 -0.035,-0.04 -0.035,-0.1 0,-0.08 0.017,-0.246 0.02,-0.17 0.05,-0.381 0.03,-0.212 0.07,-0.445 l 0.078,-0.448 0.077,-0.395 q 0.04,-0.176 0.068,-0.271 0.045,-0.163 0.186,-0.163 0.085,0 0.145,0.085 0.06,0.081 0.127,0.254 0.07,0.17 0.166,0.43 0.099,0.262 0.254,0.614 0.152,-0.352 0.243,-0.61 0.096,-0.261 0.16,-0.43 0.066,-0.173 0.126,-0.254 0.06,-0.085 0.148,-0.085 0.08,0 0.124,0.042 0.042,0.039 0.063,0.12 0.025,0.099 0.06,0.275 0.035,0.173 0.074,0.388 0.043,0.212 0.08,0.445 0.04,0.233 0.072,0.444 0.032,0.212 0.05,0.385 0.02,0.17 0.02,0.261 0,0.056 -0.038,0.092 -0.04,0.031 -0.1,0.031 -0.038,0 -0.094,-0.028 -0.057,-0.032 -0.078,-0.123 -0.042,-0.201 -0.078,-0.417 l -0.063,-0.433 -0.056,-0.441 -0.06,-0.441 q -0.046,0.14 -0.106,0.31 -0.06,0.17 -0.127,0.342 -0.067,0.17 -0.138,0.335 -0.07,0.166 -0.137,0.3 -0.025,0.046 -0.067,0.07 -0.04,0.022 -0.082,0.022 -0.045,0 -0.088,-0.021 -0.04,-0.025 -0.06,-0.074 z m 2.006,0.377 q 0,0.085 -0.018,0.13 -0.015,0.047 -0.04,0.071 -0.02,0.025 -0.052,0.029 -0.028,0.007 -0.057,0.007 -0.095,0 -0.127,-0.043 -0.028,-0.042 -0.038,-0.19 -0.008,-0.078 -0.011,-0.226 -0.004,-0.148 -0.007,-0.353 0,-0.204 -0.004,-0.451 v -0.522 q 0,-0.131 0.032,-0.265 0.032,-0.134 0.12,-0.243 0.092,-0.11 0.25,-0.177 0.163,-0.067 0.42,-0.067 0.18,0 0.343,0.039 0.162,0.039 0.285,0.134 0.124,0.095 0.198,0.254 0.074,0.159 0.074,0.395 0,0.247 -0.081,0.41 -0.081,0.162 -0.23,0.257 -0.148,0.095 -0.352,0.134 -0.205,0.039 -0.448,0.039 h -0.12 q -0.06,0 -0.134,-0.007 z m 1.015,-1.485 q 0,-0.236 -0.134,-0.356 -0.13,-0.12 -0.437,-0.12 -0.117,0 -0.201,0.021 -0.082,0.018 -0.134,0.067 -0.053,0.046 -0.082,0.127 -0.024,0.081 -0.024,0.205 v 0.275 q 0,0.151 0.003,0.286 0.08,0.004 0.18,0.004 h 0.19 q 0.106,0 0.22,-0.015 0.116,-0.014 0.207,-0.063 0.092,-0.053 0.152,-0.152 0.06,-0.102 0.06,-0.278 z m 1.975,-0.437 q -0.1,0.007 -0.212,0.01 l -0.244,0.007 0.007,0.18 0.007,0.166 q 0.004,0.085 0.004,0.176 0.003,0.092 0.003,0.205 v 0.307 q 0,0.144 -0.003,0.293 l -0.007,0.292 -0.01,0.307 q -0.004,0.085 -0.018,0.13 -0.011,0.047 -0.032,0.072 -0.021,0.024 -0.05,0.028 -0.028,0.007 -0.063,0.007 -0.064,0 -0.11,-0.043 -0.042,-0.045 -0.05,-0.19 -0.006,-0.127 -0.01,-0.268 0,-0.141 -0.003,-0.304 -0.003,-0.162 -0.003,-0.349 V 95.04 q 0.003,-0.145 0.01,-0.25 h -0.145 q -0.148,0 -0.254,-0.005 -0.102,-0.004 -0.17,-0.017 -0.066,-0.018 -0.098,-0.053 -0.028,-0.036 -0.028,-0.1 0,-0.03 0.007,-0.055 0.007,-0.029 0.032,-0.05 0.025,-0.025 0.067,-0.039 0.046,-0.014 0.116,-0.02 l 0.12,-0.008 0.106,-0.007 q 0.053,-0.004 0.11,-0.004 h 0.13 q 0.208,0 0.392,0.004 0.187,0.004 0.395,0.014 0.084,0.007 0.13,0.021 0.046,0.011 0.07,0.032 0.026,0.021 0.03,0.05 0.006,0.028 0.006,0.063 0,0.064 -0.046,0.106 -0.042,0.042 -0.187,0.05 z"
         id="path8"
         inkscape:connector-curvature="0" />
    </g>
  </g>
  <rect
     rx="2.3399999"
     ry="2.3399999"
     y="39.764999"
     x="84.931198"
     height="52.005001"
     width="22.754"
     id="rect14"
     style="fill:#999999;paint-order:stroke markers fill" />
  <rect
     ry="0.84500003"
     rx="0.84500003"
     y="29.897646"
     x="19.049999"
     height="10.054368"
     width="10.054368"
     id="rect16"
     style="fill:#a0a0a0;stroke:#646464;stroke-width:0.52899998;paint-order:stroke markers fill" />
  <g
     style="line-height:1.25"
     id="g20"
     transform="translate(-1.9983901)">
    <path
       d="m 51.952,3.532 q 0.14,0 0.279,0.026 0.144,0.02 0.258,0.072 0.115,0.046 0.187,0.118 0.076,0.068 0.076,0.161 0,0.097 -0.051,0.148 -0.05,0.05 -0.127,0.05 -0.072,0 -0.127,-0.02 Q 52.392,4.061 52.32,4.032 52.252,4.002 52.155,3.981 52.057,3.956 51.897,3.956 q -0.161,0 -0.31,0.084 -0.143,0.08 -0.253,0.229 -0.106,0.144 -0.17,0.343 -0.063,0.199 -0.063,0.432 0,0.287 0.072,0.495 0.076,0.207 0.194,0.343 0.119,0.13 0.267,0.199 0.153,0.063 0.305,0.063 0.182,0 0.305,-0.038 0.123,-0.038 0.207,-0.085 0.09,-0.046 0.153,-0.084 0.063,-0.038 0.122,-0.038 0.072,0 0.115,0.042 0.042,0.038 0.042,0.14 0,0.084 -0.068,0.173 -0.063,0.085 -0.19,0.157 -0.123,0.068 -0.297,0.114 -0.173,0.043 -0.39,0.043 -0.236,0 -0.473,-0.094 Q 51.232,6.381 51.045,6.199 50.864,6.013 50.749,5.738 50.635,5.458 50.635,5.09 q 0,-0.368 0.102,-0.656 0.106,-0.288 0.283,-0.487 0.182,-0.203 0.42,-0.309 0.24,-0.106 0.512,-0.106 z m 2.462,2.828 q -0.055,0.102 -0.102,0.148 -0.042,0.047 -0.11,0.047 -0.068,0 -0.118,-0.047 Q 54.033,6.462 53.974,6.364 53.897,6.237 53.8,6.013 53.707,5.789 53.61,5.526 53.512,5.259 53.419,4.976 53.326,4.692 53.249,4.442 53.178,4.192 53.131,4.006 q -0.042,-0.19 -0.042,-0.27 0,-0.085 0.034,-0.128 0.034,-0.042 0.13,-0.042 0.056,0 0.094,0.03 0.042,0.025 0.106,0.152 0.05,0.097 0.11,0.254 0.06,0.157 0.123,0.347 0.067,0.19 0.135,0.402 l 0.136,0.415 0.127,0.398 q 0.059,0.19 0.11,0.343 0.05,-0.157 0.114,-0.347 0.063,-0.195 0.131,-0.398 L 54.575,4.747 Q 54.642,4.536 54.71,4.349 l 0.127,-0.343 q 0.06,-0.156 0.106,-0.258 0.06,-0.123 0.102,-0.152 0.046,-0.03 0.093,-0.03 0.097,0 0.13,0.05 0.039,0.047 0.039,0.14 0,0.085 -0.025,0.204 -0.026,0.118 -0.09,0.317 -0.059,0.195 -0.16,0.487 l -0.25,0.716 q -0.038,0.114 -0.089,0.237 -0.046,0.122 -0.097,0.24 -0.047,0.115 -0.093,0.221 -0.047,0.106 -0.09,0.182 z m 2.648,-0.889 q -0.195,0.009 -0.45,0.017 -0.253,0.004 -0.6,0.004 -0.144,0 -0.246,-0.004 -0.101,-0.004 -0.165,-0.021 -0.063,-0.021 -0.093,-0.064 -0.03,-0.042 -0.03,-0.118 0,-0.038 0.009,-0.068 0.008,-0.034 0.038,-0.06 0.03,-0.025 0.08,-0.042 0.055,-0.02 0.14,-0.03 0.064,-0.003 0.11,-0.008 0.05,-0.004 0.097,-0.004 0.047,-0.004 0.098,-0.004 h 0.127 q 0.228,0 0.44,0.004 0.212,0 0.44,0.013 0.102,0.008 0.157,0.025 0.055,0.013 0.085,0.038 0.03,0.026 0.034,0.06 0.008,0.033 0.008,0.076 0,0.076 -0.055,0.127 -0.05,0.05 -0.224,0.06 z m 1.043,0.792 q 0,0.101 -0.021,0.156 -0.017,0.055 -0.047,0.085 -0.025,0.03 -0.063,0.034 -0.034,0.008 -0.068,0.008 -0.114,0 -0.152,-0.05 Q 57.72,6.445 57.707,6.266 57.699,6.174 57.694,5.996 L 57.686,5.573 q 0,-0.246 -0.004,-0.542 V 4.404 q 0,-0.156 0.038,-0.317 0.038,-0.161 0.144,-0.292 0.11,-0.132 0.3,-0.212 0.195,-0.08 0.504,-0.08 0.216,0 0.41,0.046 0.195,0.047 0.344,0.161 0.148,0.114 0.237,0.305 0.088,0.19 0.088,0.474 0,0.296 -0.097,0.491 -0.097,0.195 -0.275,0.309 -0.178,0.114 -0.423,0.16 -0.246,0.047 -0.538,0.047 H 58.27 q -0.072,0 -0.16,-0.008 z m 1.22,-1.783 q 0,-0.283 -0.162,-0.427 -0.156,-0.144 -0.525,-0.144 -0.14,0 -0.241,0.025 -0.097,0.022 -0.16,0.08 -0.064,0.056 -0.098,0.153 -0.03,0.098 -0.03,0.246 v 0.33 q 0,0.182 0.004,0.343 0.098,0.004 0.216,0.004 h 0.229 q 0.127,0 0.262,-0.017 0.14,-0.017 0.25,-0.076 0.11,-0.064 0.182,-0.182 0.072,-0.123 0.072,-0.335 z m 2.412,1.834 Q 61.695,6.212 61.644,6.081 61.598,5.945 61.543,5.797 l -0.267,0.009 h -0.614 q -0.148,0 -0.27,-0.005 l -0.098,0.28 q -0.047,0.13 -0.089,0.233 -0.085,0.215 -0.246,0.215 -0.059,0 -0.114,-0.038 -0.05,-0.038 -0.05,-0.11 0,-0.072 0.025,-0.186 0.025,-0.119 0.063,-0.25 Q 59.926,5.81 59.973,5.67 60.019,5.526 60.061,5.403 60.103,5.268 60.18,5.06 l 0.169,-0.44 q 0.089,-0.228 0.178,-0.449 0.089,-0.224 0.16,-0.389 0.017,-0.042 0.043,-0.093 0.025,-0.055 0.06,-0.102 0.037,-0.046 0.08,-0.08 0.046,-0.034 0.101,-0.034 0.055,0 0.102,0.038 0.046,0.034 0.08,0.085 0.038,0.05 0.064,0.106 0.03,0.055 0.046,0.097 0.068,0.17 0.153,0.39 0.089,0.22 0.173,0.444 0.09,0.224 0.165,0.427 0.077,0.204 0.123,0.343 0.038,0.123 0.085,0.263 0.05,0.14 0.093,0.275 0.042,0.135 0.068,0.254 0.03,0.114 0.03,0.186 0,0.072 -0.056,0.11 -0.05,0.038 -0.11,0.038 -0.076,0 -0.14,-0.05 -0.063,-0.055 -0.11,-0.165 z M 60.988,5.382 q 0.102,0 0.203,0.004 0.102,0 0.204,0.005 L 61.293,5.094 61.196,4.811 61.116,4.561 61.056,4.353 Q 61.039,4.298 61.018,4.265 60.997,4.231 60.963,4.231 q -0.034,0 -0.055,0.038 -0.021,0.034 -0.038,0.089 -0.051,0.173 -0.144,0.453 l -0.19,0.58 Q 60.649,5.386 60.764,5.386 60.878,5.382 60.988,5.382 Z M 63.32,3.536 q 0.436,0 0.699,0.132 0.262,0.13 0.402,0.347 0.14,0.216 0.182,0.49 0.047,0.276 0.047,0.56 0,0.309 -0.08,0.584 -0.077,0.275 -0.242,0.482 -0.161,0.204 -0.415,0.326 -0.254,0.119 -0.605,0.119 -0.28,0 -0.45,-0.042 Q 62.694,6.496 62.601,6.415 62.511,6.335 62.482,6.212 62.452,6.089 62.452,5.924 V 4.332 q 0,-0.182 0.03,-0.33 0.034,-0.148 0.127,-0.25 0.093,-0.105 0.263,-0.16 0.173,-0.056 0.448,-0.056 z m 0.017,2.617 q 0.263,0 0.432,-0.093 0.174,-0.098 0.275,-0.254 0.102,-0.157 0.14,-0.356 0.042,-0.2 0.042,-0.406 0,-0.191 -0.03,-0.381 Q 64.166,4.468 64.074,4.311 63.981,4.155 63.807,4.057 63.633,3.96 63.346,3.96 63.083,3.96 62.982,4.036 62.88,4.112 62.88,4.269 V 5.89 q 0,0.131 0.093,0.2 0.097,0.063 0.364,0.063 z"
       style="font-weight:400;font-size:4.2329998px;font-family:Sniglet;-inkscape-font-specification:'Sniglet, Normal';font-variant-ligatures:normal;font-variant-caps:normal;font-variant-numeric:normal;font-feature-settings:normal;text-align:start;letter-spacing:0;word-spacing:0;stroke-width:0.26499999"
       aria-label="CV-PAD"
       font-weight="400"
       font-size="4.233"
       letter-spacing="0"
       word-spacing="0"
       id="path18"
       inkscape:connector-curvature="0" />
  </g>
  <rect
     ry="0.84500003"
     rx="0.84500003"
     y="46.831303"
     x="19.049999"
     height="10.054368"
     width="10.054368"
     id="rect22"
     style="fill:#a0a0a0;stroke:#646464;stroke-width:0.52899998;paint-order:stroke markers fill" />
  <rect
     ry="0.84500003"
     rx="0.84500003"
     y="63.763966"
     x="19.049999"
     height="10.054368"
     width="10.054368"
     id="rect24"
     style="fill:#a0a0a0;stroke:#646464;stroke-width:0.52899998;paint-order:stroke markers fill" />
  <rect
     ry="0.84500003"
     rx="0.84500003"
     y="80.697632"
     x="19.049999"
     height="10.054368"
     width="10.054355"
     id="rect26"
     style="fill:#a0a0a0;stroke:#646464;stroke-width:0.52899998;paint-order:stroke markers fill" />
  <rect
     ry="0.84500003"
     rx="0.84500003"
     y="29.897646"
     x="35.983665"
     height="10.054368"
     width="10.054368"
     id="rect28"
     style="fill:#a0a0a0;stroke:#646464;stroke-width:0.52899998;paint-order:stroke markers fill" />
  <rect
     ry="0.84500003"
     rx="0.84500003"
     y="46.831303"
     x="35.983665"
     height="10.054368"
     width="10.054368"
     id="rect30"
     style="fill:#a0a0a0;stroke:#646464;stroke-width:0.52899998;paint-order:stroke markers fill" />
  <rect
     ry="0.84500003"
     rx="0.84500003"
     y="63.763966"
     x="35.983665"
     height="10.054368"
     width="10.054368"
     id="rect32"
     style="fill:#a0a0a0;stroke:#646464;stroke-width:0.52899998;paint-order:stroke markers fill" />
  <rect
     ry="0.84500003"
     rx="0.84500003"
     y="80.697632"
     x="35.983643"
     height="10.054368"
     width="10.054355"
     id="rect34"
     style="fill:#a0a0a0;stroke:#646464;stroke-width:0.52899998;paint-order:stroke markers fill" />
  <rect
     ry="0.84500003"
     rx="0.84500003"
     y="29.897646"
     x="52.917332"
     height="10.054368"
     width="10.054368"
     id="rect36"
     style="fill:#a0a0a0;stroke:#646464;stroke-width:0.52899998;paint-order:stroke markers fill" />
  <rect
     ry="0.84500003"
     rx="0.84500003"
     y="46.831303"
     x="52.917332"
     height="10.054368"
     width="10.054368"
     id="rect38"
     style="fill:#a0a0a0;stroke:#646464;stroke-width:0.52899998;paint-order:stroke markers fill" />
  <rect
     ry="0.84500003"
     rx="0.84500003"
     y="63.763966"
     x="52.917332"
     height="10.054368"
     width="10.054368"
     id="rect40"
     style="fill:#a0a0a0;stroke:#646464;stroke-width:0.52899998;paint-order:stroke markers fill" />
  <rect
     ry="0.84500003"
     rx="0.84500003"
     y="80.697632"
     x="52.917282"
     height="10.054368"
     width="10.054355"
     id="rect42"
     style="fill:#a0a0a0;stroke:#646464;stroke-width:0.52899998;paint-order:stroke markers fill" />
  <rect
     ry="0.84500003"
     rx="0.84500003"
     y="29.897646"
     x="69.849998"
     height="10.054368"
     width="10.054368"
     id="rect44"
     style="fill:#a0a0a0;stroke:#646464;stroke-width:0.52899998;paint-order:stroke markers fill" />
  <rect
     ry="0.84500003"
     rx="0.84500003"
     y="46.831303"
     x="69.849998"
     height="10.054368"
     width="10.054368"
     id="rect46"
     style="fill:#a0a0a0;stroke:#646464;stroke-width:0.52899998;paint-order:stroke markers fill" />
  <rect
     ry="0.84500003"
     rx="0.84500003"
     y="63.763966"
     x="69.849998"
     height="10.054368"
     width="10.054368"
     id="rect48"
     style="fill:#a0a0a0;stroke:#646464;stroke-width:0.52899998;paint-order:stroke markers fill" />
  <rect
     ry="0.84500003"
     rx="0.84500003"
     y="80.697632"
     x="69.849922"
     height="10.054368"
     width="10.054355"
     id="rect50"
     style="fill:#a0a0a0;stroke:#646464;stroke-width:0.52899998;paint-order:stroke markers fill" />
  <g
     style="line-height:1.25"
     id="g54"
     transform="translate(-3.9688089)">
    <path
       d="m 94.042,42.928 q 0.093,0 0.186,0.017 0.096,0.014 0.173,0.048 0.076,0.03 0.124,0.079 0.05,0.045 0.05,0.107 0,0.065 -0.033,0.099 -0.034,0.034 -0.085,0.034 -0.048,0 -0.085,-0.015 l -0.084,-0.036 q -0.046,-0.02 -0.11,-0.034 -0.065,-0.017 -0.173,-0.017 -0.107,0 -0.206,0.056 -0.096,0.054 -0.169,0.153 -0.07,0.096 -0.113,0.228 -0.042,0.133 -0.042,0.288 0,0.192 0.048,0.33 0.05,0.139 0.13,0.23 0.079,0.087 0.177,0.132 0.102,0.042 0.204,0.042 0.121,0 0.203,-0.025 0.082,-0.026 0.138,-0.057 0.06,-0.03 0.102,-0.056 0.042,-0.026 0.082,-0.026 0.048,0 0.076,0.029 0.028,0.025 0.028,0.093 0,0.056 -0.045,0.115 -0.043,0.057 -0.127,0.105 -0.082,0.045 -0.198,0.076 -0.116,0.028 -0.26,0.028 -0.158,0 -0.316,-0.062 -0.155,-0.062 -0.279,-0.183 -0.121,-0.124 -0.198,-0.308 -0.076,-0.186 -0.076,-0.432 0,-0.245 0.068,-0.437 0.07,-0.192 0.19,-0.325 0.12,-0.135 0.278,-0.206 0.161,-0.07 0.342,-0.07 z m 1.642,1.885 q -0.037,0.068 -0.068,0.099 -0.028,0.03 -0.073,0.03 -0.046,0 -0.08,-0.03 Q 95.43,44.881 95.39,44.816 95.34,44.731 95.274,44.582 95.212,44.432 95.147,44.257 95.083,44.079 95.02,43.89 94.958,43.701 94.908,43.535 94.86,43.368 94.828,43.244 94.8,43.117 94.8,43.064 q 0,-0.057 0.023,-0.085 0.023,-0.029 0.087,-0.029 0.037,0 0.063,0.02 0.028,0.017 0.07,0.102 0.034,0.065 0.073,0.169 0.04,0.104 0.082,0.231 0.046,0.127 0.09,0.269 l 0.09,0.276 q 0.046,0.138 0.086,0.265 l 0.073,0.229 0.076,-0.231 0.088,-0.266 0.09,-0.276 q 0.045,-0.141 0.09,-0.266 l 0.085,-0.228 q 0.04,-0.105 0.07,-0.172 0.04,-0.082 0.068,-0.102 0.031,-0.02 0.062,-0.02 0.065,0 0.088,0.034 0.025,0.031 0.025,0.093 0,0.057 -0.017,0.136 -0.016,0.079 -0.059,0.211 -0.04,0.13 -0.107,0.325 l -0.167,0.477 q -0.025,0.076 -0.059,0.158 -0.03,0.082 -0.065,0.16 -0.03,0.077 -0.062,0.148 -0.031,0.07 -0.06,0.121 z"
       style="font-weight:400;font-size:2.82200003px;font-family:Sniglet;-inkscape-font-specification:'Sniglet, Normal';font-variant-ligatures:normal;font-variant-caps:normal;font-variant-numeric:normal;font-feature-settings:normal;text-align:start;letter-spacing:0;word-spacing:0;stroke-width:0.26499999"
       aria-label="CV"
       font-weight="400"
       font-size="2.822"
       letter-spacing="0"
       word-spacing="0"
       id="path52"
       inkscape:connector-curvature="0" />
  </g>
  <g
     style="line-height:1.25"
     id="g58"
     transform="translate(-3.9688089)">
    <path
       d="m 103.471,42.84 q 0.093,0 0.192,0.017 0.099,0.017 0.18,0.051 0.082,0.031 0.136,0.079 0.054,0.048 0.054,0.11 0,0.065 -0.034,0.099 -0.034,0.034 -0.085,0.034 -0.048,0 -0.09,-0.017 l -0.09,-0.037 q -0.051,-0.02 -0.122,-0.037 -0.07,-0.016 -0.178,-0.016 -0.118,0 -0.223,0.056 -0.101,0.054 -0.18,0.152 -0.08,0.096 -0.125,0.229 -0.045,0.133 -0.045,0.288 0,0.189 0.048,0.327 0.048,0.139 0.125,0.229 0.079,0.09 0.175,0.135 0.098,0.043 0.197,0.043 0.161,0 0.254,-0.046 0.096,-0.048 0.152,-0.12 0.003,-0.06 0.003,-0.142 v -0.178 q 0,-0.037 -0.006,-0.056 -0.006,-0.023 -0.028,-0.034 -0.022,-0.011 -0.067,-0.014 -0.043,-0.003 -0.116,-0.003 -0.09,0 -0.147,-0.023 -0.056,-0.025 -0.056,-0.104 0,-0.056 0.028,-0.09 0.03,-0.037 0.124,-0.043 h 0.054 q 0.04,-0.002 0.082,-0.002 h 0.155 q 0.084,0 0.135,0.016 0.051,0.015 0.09,0.068 0.02,0.028 0.023,0.099 0.006,0.07 0.006,0.164 v 0.728 q 0,0.076 -0.042,0.113 -0.04,0.036 -0.093,0.036 -0.065,0 -0.108,-0.034 -0.04,-0.03 -0.04,-0.101 v -0.11 q -0.072,0.085 -0.174,0.121 -0.099,0.037 -0.251,0.037 -0.155,0 -0.305,-0.062 -0.15,-0.062 -0.265,-0.184 -0.116,-0.124 -0.19,-0.307 -0.07,-0.187 -0.07,-0.432 0,-0.246 0.07,-0.438 0.074,-0.191 0.198,-0.324 0.124,-0.136 0.29,-0.206 0.167,-0.07 0.36,-0.07 z m 2.113,1.854 q -0.028,-0.067 -0.062,-0.155 -0.03,-0.09 -0.068,-0.189 l -0.177,0.006 h -0.41 q -0.098,0 -0.18,-0.003 l -0.065,0.186 q -0.031,0.088 -0.06,0.155 -0.056,0.144 -0.163,0.144 -0.04,0 -0.076,-0.025 -0.034,-0.025 -0.034,-0.073 0,-0.048 0.017,-0.125 0.017,-0.079 0.042,-0.166 0.028,-0.09 0.06,-0.184 0.03,-0.095 0.059,-0.177 0.028,-0.09 0.079,-0.229 l 0.112,-0.293 0.119,-0.3 q 0.06,-0.15 0.107,-0.26 l 0.028,-0.061 q 0.017,-0.037 0.04,-0.068 0.025,-0.031 0.054,-0.054 0.03,-0.022 0.067,-0.022 0.037,0 0.068,0.025 0.031,0.023 0.054,0.057 0.025,0.033 0.042,0.07 0.02,0.037 0.03,0.065 0.046,0.113 0.102,0.26 0.06,0.146 0.116,0.296 0.06,0.15 0.11,0.285 0.051,0.136 0.082,0.229 l 0.057,0.175 q 0.033,0.093 0.062,0.183 0.028,0.09 0.045,0.17 0.02,0.076 0.02,0.124 0,0.048 -0.037,0.073 -0.034,0.025 -0.073,0.025 -0.051,0 -0.094,-0.033 -0.042,-0.037 -0.073,-0.11 z m -0.5,-0.62 0.136,0.002 q 0.068,0 0.136,0.003 l -0.068,-0.197 -0.065,-0.19 q -0.028,-0.09 -0.054,-0.166 l -0.04,-0.138 q -0.01,-0.037 -0.025,-0.06 -0.014,-0.022 -0.036,-0.022 -0.023,0 -0.037,0.025 -0.014,0.023 -0.025,0.06 -0.034,0.115 -0.096,0.302 l -0.127,0.386 q 0.076,-0.003 0.152,-0.003 l 0.15,-0.002 z m 1.876,-0.951 q -0.079,0.005 -0.17,0.008 l -0.194,0.006 0.006,0.144 0.006,0.132 q 0.003,0.068 0.003,0.141 0.003,0.074 0.003,0.164 v 0.246 q 0,0.115 -0.003,0.234 l -0.006,0.234 -0.008,0.246 q -0.003,0.067 -0.014,0.104 -0.008,0.037 -0.025,0.056 -0.017,0.02 -0.04,0.023 -0.022,0.006 -0.05,0.006 -0.051,0 -0.088,-0.034 -0.034,-0.037 -0.04,-0.153 -0.006,-0.101 -0.008,-0.214 0,-0.113 -0.003,-0.243 -0.003,-0.13 -0.003,-0.28 v -0.606 q 0.003,-0.116 0.008,-0.2 h -0.115 q -0.119,0 -0.204,-0.003 -0.081,-0.003 -0.135,-0.014 -0.054,-0.014 -0.079,-0.043 -0.023,-0.028 -0.023,-0.079 0,-0.025 0.006,-0.045 0.006,-0.022 0.026,-0.04 0.02,-0.02 0.053,-0.03 0.037,-0.012 0.094,-0.017 l 0.096,-0.006 0.084,-0.006 q 0.043,-0.002 0.088,-0.002 h 0.104 q 0.167,0 0.313,0.002 0.15,0.003 0.316,0.012 0.068,0.005 0.105,0.017 0.037,0.008 0.056,0.025 0.02,0.017 0.023,0.04 0.006,0.022 0.006,0.05 0,0.051 -0.037,0.085 -0.034,0.034 -0.15,0.04 z m 0.402,1.287 q -0.006,-0.09 -0.011,-0.246 -0.006,-0.155 -0.006,-0.319 v -0.192 l 0.006,-0.206 q 0.006,-0.209 0.025,-0.327 0.023,-0.119 0.085,-0.178 0.065,-0.06 0.18,-0.073 0.116,-0.015 0.308,-0.015 h 0.06 q 0.059,0 0.14,0.003 0.082,0 0.17,0.003 l 0.15,0.006 q 0.062,0.005 0.098,0.017 0.04,0.008 0.06,0.025 0.02,0.014 0.025,0.037 0.006,0.02 0.006,0.045 0,0.065 -0.037,0.096 -0.036,0.028 -0.15,0.036 -0.056,0.006 -0.166,0.009 h -0.22 q -0.113,0 -0.203,0.003 h -0.113 q -0.073,0.003 -0.104,0.034 -0.029,0.028 -0.029,0.138 l 0.003,0.124 q 0.006,0.096 0.006,0.271 h 0.235 q 0.15,0 0.242,0.006 0.096,0.002 0.147,0.017 0.054,0.014 0.073,0.045 0.02,0.03 0.02,0.082 0,0.025 -0.006,0.048 -0.003,0.02 -0.022,0.036 -0.02,0.014 -0.057,0.026 -0.036,0.008 -0.104,0.014 l -0.155,0.008 h -0.379 v 0.345 l 0.006,0.095 q 0.003,0.046 0.012,0.077 0.011,0.03 0.036,0.05 0.029,0.02 0.08,0.029 0.053,0.008 0.14,0.008 h 0.607 q 0.1,0 0.125,0.037 0.025,0.037 0.025,0.099 0,0.05 -0.023,0.079 -0.022,0.025 -0.11,0.036 -0.084,0.014 -0.257,0.017 -0.169,0.003 -0.468,0.003 -0.127,0 -0.209,-0.022 -0.082,-0.023 -0.133,-0.077 -0.05,-0.053 -0.076,-0.138 -0.022,-0.087 -0.03,-0.212 z"
       style="font-weight:400;font-size:2.82200003px;font-family:Sniglet;-inkscape-font-specification:'Sniglet, Normal';font-variant-ligatures:normal;font-variant-caps:normal;font-variant-numeric:normal;font-feature-settings:normal;text-align:start;letter-spacing:0;word-spacing:0;stroke-width:0.26499999"
       aria-label="GATE"
       font-weight="400"
       font-size="2.822"
       letter-spacing="0"
       word-spacing="0"
       id="path56"
       inkscape:connector-curvature="0" />
  </g>
  <g
     style="line-height:1.25"
     id="g62"
     transform="translate(-3.9687521,1.3230526)">
    <path
       d="m 90.47,8.898 q -0.159,0 -0.255,-0.026 Q 90.119,8.847 90.065,8.802 90.015,8.754 89.995,8.686 89.978,8.618 89.97,8.534 89.961,8.434 89.956,8.274 89.953,8.11 89.953,7.935 V 7.757 q 0.003,-0.095 0.003,-0.186 l 0.005,-0.172 q 0.003,-0.079 0.009,-0.135 0.008,-0.088 0.028,-0.158 0.02,-0.071 0.074,-0.122 0.056,-0.05 0.155,-0.076 0.101,-0.028 0.268,-0.028 0.378,0 0.564,0.14 0.19,0.14 0.19,0.396 0,0.133 -0.06,0.246 -0.056,0.112 -0.197,0.169 0.079,0.014 0.143,0.06 0.065,0.044 0.11,0.11 0.049,0.061 0.071,0.14 0.026,0.076 0.026,0.156 0,0.101 -0.043,0.208 -0.042,0.105 -0.144,0.192 -0.101,0.088 -0.27,0.144 -0.167,0.057 -0.416,0.057 z m 0.59,-0.61 Q 91.06,8.186 91.011,8.124 90.966,8.062 90.893,8.031 90.819,7.997 90.729,7.986 90.639,7.975 90.549,7.975 h -0.147 q -0.076,0 -0.141,0.003 l -0.006,0.12 -0.006,0.12 V 8.37 q 0,0.076 0.012,0.127 0.01,0.05 0.042,0.082 0.031,0.03 0.087,0.045 0.06,0.011 0.15,0.011 0.248,0 0.384,-0.087 0.135,-0.088 0.135,-0.26 z m -0.523,-1.14 q -0.093,0 -0.152,0.017 -0.057,0.014 -0.088,0.04 -0.028,0.025 -0.04,0.061 -0.008,0.037 -0.008,0.08 v 0.395 q 0.04,0.002 0.082,0.002 h 0.085 q 0.101,0 0.197,-0.014 0.1,-0.014 0.178,-0.048 0.08,-0.034 0.127,-0.093 0.048,-0.06 0.048,-0.152 0,-0.127 -0.104,-0.206 Q 90.76,7.148 90.537,7.148 Z M 92.778,8.754 92.716,8.598 Q 92.685,8.508 92.648,8.409 L 92.47,8.415 h -0.409 q -0.099,0 -0.18,-0.003 l -0.065,0.186 q -0.031,0.088 -0.06,0.156 -0.056,0.144 -0.163,0.144 -0.04,0 -0.076,-0.026 -0.034,-0.025 -0.034,-0.073 0,-0.048 0.017,-0.124 0.017,-0.08 0.042,-0.167 0.028,-0.09 0.06,-0.183 0.03,-0.096 0.059,-0.178 0.028,-0.09 0.079,-0.229 l 0.112,-0.293 0.119,-0.3 q 0.06,-0.149 0.107,-0.259 0.011,-0.028 0.028,-0.062 0.017,-0.037 0.04,-0.068 0.025,-0.03 0.054,-0.053 0.03,-0.023 0.067,-0.023 0.037,0 0.068,0.025 0.031,0.023 0.054,0.057 0.025,0.034 0.042,0.07 0.02,0.037 0.031,0.065 l 0.102,0.26 q 0.059,0.147 0.115,0.296 0.06,0.15 0.11,0.285 0.051,0.136 0.082,0.229 l 0.057,0.175 q 0.034,0.093 0.062,0.183 0.028,0.09 0.045,0.17 0.02,0.076 0.02,0.124 0,0.048 -0.037,0.073 -0.034,0.026 -0.073,0.026 -0.051,0 -0.094,-0.034 -0.042,-0.037 -0.073,-0.11 z m -0.5,-0.621 q 0.068,0 0.136,0.003 L 92.55,8.138 92.482,7.941 92.417,7.751 Q 92.389,7.661 92.363,7.585 L 92.323,7.447 Q 92.313,7.41 92.298,7.387 92.284,7.365 92.262,7.365 92.239,7.365 92.225,7.391 92.211,7.413 92.2,7.45 92.166,7.566 92.104,7.752 l -0.127,0.386 0.152,-0.002 q 0.076,-0.003 0.15,-0.003 z m 2.094,0.632 Q 94.282,8.641 94.2,8.519 l -0.172,-0.27 q -0.09,-0.147 -0.209,-0.325 -0.116,-0.18 -0.28,-0.42 v 0.38 q 0,0.167 -0.002,0.31 L 93.531,8.466 Q 93.529,8.593 93.523,8.72 93.52,8.788 93.509,8.824 93.5,8.861 93.483,8.881 q -0.017,0.02 -0.04,0.022 -0.019,0.006 -0.047,0.006 -0.05,0 -0.085,-0.034 Q 93.277,8.838 93.271,8.723 93.258,8.413 93.255,8.102 V 7.455 q 0,-0.189 0.003,-0.296 0.005,-0.107 0.02,-0.16 0.016,-0.054 0.042,-0.068 0.028,-0.015 0.073,-0.015 0.045,0 0.119,0.071 0.073,0.068 0.16,0.18 0.088,0.113 0.187,0.26 0.101,0.147 0.2,0.302 0.099,0.155 0.19,0.308 l 0.169,0.276 Q 94.415,8.181 94.415,8.023 V 7.667 q 0,-0.223 0.003,-0.367 0.002,-0.147 0.014,-0.231 0.014,-0.085 0.042,-0.119 0.028,-0.034 0.079,-0.034 0.048,0 0.085,0.031 0.036,0.032 0.042,0.144 0.006,0.102 0.008,0.181 l 0.006,0.158 q 0.003,0.076 0.003,0.16 v 0.43 q 0,0.116 -0.003,0.229 L 94.688,8.477 Q 94.686,8.593 94.68,8.72 94.677,8.788 94.666,8.824 94.657,8.861 94.64,8.881 q -0.016,0.02 -0.039,0.022 -0.02,0.006 -0.048,0.006 -0.048,0 -0.082,-0.028 Q 94.437,8.852 94.372,8.765 Z M 95.05,8.723 Q 95.044,8.621 95.04,8.511 L 95.038,8.274 Q 95.035,8.147 95.035,8 V 7.667 q 0,-0.2 0.003,-0.341 0.003,-0.144 0.014,-0.235 0.014,-0.09 0.042,-0.132 0.029,-0.043 0.08,-0.043 0.047,0 0.084,0.031 0.037,0.032 0.042,0.144 l 0.009,0.181 0.006,0.158 q 0.002,0.076 0.002,0.16 v 0.335 l 0.604,-0.691 q 0.119,-0.136 0.184,-0.178 0.065,-0.045 0.113,-0.045 0.056,0 0.081,0.028 0.029,0.028 0.029,0.07 0,0.017 -0.006,0.034 -0.005,0.017 -0.025,0.048 -0.017,0.028 -0.054,0.074 l -0.099,0.11 -0.392,0.426 0.618,0.88 q 0.023,0.031 0.034,0.065 0.014,0.034 0.014,0.065 0,0.054 -0.031,0.088 -0.028,0.036 -0.102,0.036 -0.059,0 -0.107,-0.034 -0.045,-0.03 -0.084,-0.093 L 95.557,8.015 95.315,8.281 95.309,8.495 q -0.003,0.107 -0.009,0.226 -0.002,0.068 -0.014,0.104 -0.008,0.037 -0.025,0.057 -0.017,0.02 -0.04,0.022 -0.02,0.006 -0.048,0.006 -0.05,0 -0.084,-0.034 -0.034,-0.037 -0.04,-0.152 z"
       style="font-weight:400;font-size:2.82200003px;font-family:Sniglet;-inkscape-font-specification:'Sniglet, Normal';font-variant-ligatures:normal;font-variant-caps:normal;font-variant-numeric:normal;font-feature-settings:normal;text-align:start;letter-spacing:0;word-spacing:0;stroke-width:0.26499999"
       aria-label="BANK"
       font-weight="400"
       font-size="2.822"
       letter-spacing="0"
       word-spacing="0"
       id="path60"
       inkscape:connector-curvature="0" />
  </g>
  <g
     style="line-height:1.25"
     id="g66"
     transform="translate(0,1.3229838)">
    <path
       d="m 6.397,50.771 q 0.017,-0.04 0.051,-0.065 0.037,-0.025 0.076,-0.025 0.037,0 0.07,0.025 0.035,0.023 0.054,0.062 0.108,0.22 0.212,0.477 0.105,0.254 0.19,0.483 0.047,-0.35 0.104,-0.706 0.056,-0.355 0.127,-0.68 0.008,-0.036 0.025,-0.059 0.017,-0.025 0.037,-0.037 0.02,-0.014 0.04,-0.02 0.022,-0.005 0.036,-0.005 0.048,0 0.079,0.028 0.031,0.026 0.031,0.07 0,0.052 -0.017,0.181 -0.017,0.127 -0.045,0.3 -0.028,0.169 -0.065,0.36 -0.034,0.193 -0.068,0.37 -0.034,0.178 -0.065,0.325 -0.03,0.147 -0.05,0.223 -0.017,0.065 -0.051,0.099 -0.034,0.03 -0.099,0.03 -0.068,0 -0.116,-0.058 Q 6.908,52.086 6.852,51.957 6.798,51.827 6.722,51.627 6.646,51.423 6.524,51.141 6.4,51.423 6.321,51.626 6.245,51.83 6.188,51.959 q -0.053,0.13 -0.101,0.192 -0.048,0.06 -0.113,0.06 -0.113,0 -0.15,-0.13 Q 5.802,52.005 5.771,51.861 5.74,51.714 5.706,51.536 L 5.641,51.169 Q 5.607,50.977 5.581,50.808 L 5.539,50.512 q -0.014,-0.13 -0.014,-0.181 0,-0.048 0.031,-0.079 0.031,-0.031 0.088,-0.031 0.04,0 0.076,0.025 0.037,0.023 0.054,0.096 0.067,0.325 0.118,0.68 0.054,0.356 0.113,0.706 0.087,-0.206 0.175,-0.437 0.087,-0.232 0.217,-0.52 z M 8.42,51.516 8.338,51.522 H 8.161 q -0.048,0 -0.108,-0.006 v 0.573 q 0,0.09 -0.045,0.113 -0.042,0.02 -0.107,0.02 -0.034,0 -0.054,-0.006 Q 7.827,52.213 7.813,52.202 7.803,52.188 7.793,52.162 7.788,52.137 7.785,52.092 7.78,52.042 7.777,51.945 L 7.771,51.691 q 0,-0.155 -0.003,-0.375 v -0.522 q 0,-0.116 0.028,-0.223 0.029,-0.11 0.102,-0.192 0.073,-0.085 0.198,-0.135 0.127,-0.051 0.321,-0.051 0.139,0 0.268,0.03 0.133,0.032 0.235,0.108 0.101,0.076 0.163,0.206 0.062,0.13 0.062,0.325 0,0.26 -0.112,0.403 -0.11,0.141 -0.305,0.2 l 0.378,0.52 q 0.05,0.068 0.05,0.138 0,0.057 -0.039,0.088 -0.036,0.034 -0.093,0.034 -0.062,0 -0.107,-0.034 -0.045,-0.037 -0.085,-0.093 z m 0.443,-0.657 q 0,-0.195 -0.118,-0.288 -0.116,-0.096 -0.37,-0.096 -0.093,0 -0.155,0.017 -0.062,0.014 -0.099,0.056 -0.037,0.043 -0.054,0.119 -0.014,0.073 -0.014,0.189 v 0.192 q 0,0.11 0.003,0.2 0.065,0.003 0.144,0.003 h 0.152 q 0.08,0 0.167,-0.009 0.09,-0.01 0.166,-0.05 0.077,-0.043 0.127,-0.119 0.051,-0.079 0.051,-0.214 z m 0.574,1.177 Q 9.431,51.934 9.428,51.824 9.428,51.714 9.425,51.587 9.423,51.46 9.423,51.313 V 50.98 q 0,-0.2 0.002,-0.341 0.003,-0.144 0.017,-0.235 0.014,-0.09 0.043,-0.132 0.03,-0.043 0.081,-0.043 0.026,0 0.048,0.006 0.023,0.006 0.04,0.025 0.017,0.017 0.028,0.054 0.014,0.034 0.017,0.09 l 0.009,0.18 0.005,0.159 q 0.003,0.076 0.003,0.16 v 0.43 q 0,0.116 -0.003,0.228 L 9.708,51.79 q -0.003,0.116 -0.009,0.243 -0.003,0.067 -0.014,0.104 -0.011,0.037 -0.028,0.057 -0.017,0.02 -0.04,0.022 -0.022,0.006 -0.05,0.006 -0.051,0 -0.088,-0.034 -0.037,-0.037 -0.042,-0.152 z m 1.717,-1.541 q -0.08,0.005 -0.17,0.008 l -0.194,0.006 0.005,0.144 0.006,0.132 q 0.003,0.068 0.003,0.141 0.002,0.074 0.002,0.164 v 0.246 l -0.002,0.234 -0.006,0.234 q -0.003,0.119 -0.009,0.246 -0.002,0.067 -0.014,0.104 -0.008,0.037 -0.025,0.057 -0.017,0.02 -0.04,0.022 -0.022,0.006 -0.05,0.006 -0.051,0 -0.088,-0.034 -0.034,-0.037 -0.04,-0.153 -0.005,-0.101 -0.008,-0.214 0,-0.113 -0.003,-0.243 -0.002,-0.13 -0.002,-0.28 V 50.71 q 0.002,-0.117 0.008,-0.201 h -0.116 q -0.118,0 -0.203,-0.003 -0.082,-0.003 -0.135,-0.014 -0.054,-0.014 -0.08,-0.043 -0.022,-0.028 -0.022,-0.079 0,-0.025 0.006,-0.045 0.005,-0.022 0.025,-0.04 0.02,-0.019 0.054,-0.03 0.036,-0.012 0.093,-0.017 l 0.096,-0.006 0.084,-0.005 q 0.043,-0.003 0.088,-0.003 h 0.104 q 0.167,0 0.314,0.003 0.15,0.002 0.316,0.01 0.067,0.007 0.104,0.018 0.037,0.008 0.057,0.025 0.02,0.017 0.022,0.04 0.006,0.022 0.006,0.05 0,0.051 -0.037,0.085 -0.034,0.034 -0.15,0.04 z m 0.401,1.287 q -0.005,-0.09 -0.01,-0.246 -0.006,-0.155 -0.006,-0.319 v -0.192 l 0.005,-0.206 q 0.006,-0.209 0.026,-0.327 0.022,-0.119 0.084,-0.178 0.065,-0.06 0.18,-0.073 0.117,-0.014 0.309,-0.014 h 0.059 l 0.14,0.002 q 0.083,0 0.17,0.003 l 0.15,0.006 q 0.062,0.005 0.099,0.017 0.04,0.008 0.059,0.025 0.02,0.014 0.025,0.037 0.006,0.02 0.006,0.045 0,0.065 -0.037,0.096 -0.037,0.028 -0.15,0.037 -0.056,0.005 -0.166,0.008 h -0.22 q -0.113,0 -0.203,0.003 h -0.113 q -0.074,0.003 -0.105,0.034 -0.028,0.028 -0.028,0.138 l 0.003,0.124 q 0.006,0.096 0.006,0.271 h 0.234 q 0.15,0 0.243,0.006 0.096,0.003 0.146,0.017 0.054,0.014 0.074,0.045 0.02,0.03 0.02,0.082 0,0.025 -0.006,0.048 -0.003,0.02 -0.023,0.036 -0.02,0.014 -0.056,0.026 -0.037,0.008 -0.105,0.014 L 12.21,51.355 H 11.832 V 51.7 l 0.006,0.096 q 0.002,0.045 0.01,0.076 0.012,0.03 0.038,0.05 0.028,0.02 0.079,0.029 0.053,0.008 0.14,0.008 h 0.608 q 0.098,0 0.124,0.037 0.025,0.037 0.025,0.099 0,0.05 -0.022,0.079 -0.023,0.025 -0.11,0.037 -0.085,0.014 -0.257,0.016 -0.17,0.003 -0.469,0.003 -0.127,0 -0.209,-0.022 -0.082,-0.023 -0.132,-0.077 -0.051,-0.053 -0.077,-0.138 -0.022,-0.087 -0.03,-0.211 z"
       style="font-weight:400;font-size:2.82200003px;font-family:Sniglet;-inkscape-font-specification:'Sniglet, Normal';font-variant-ligatures:normal;font-variant-caps:normal;font-variant-numeric:normal;font-feature-settings:normal;text-align:start;letter-spacing:0;word-spacing:0;stroke-width:0.26499999"
       aria-label="WRITE"
       font-weight="400"
       font-size="2.822"
       letter-spacing="0"
       word-spacing="0"
       id="path64"
       inkscape:connector-curvature="0" />
  </g>
  <g
     style="line-height:1.25"
     id="g70">
    <path
       d="m 7.086,78.94 q 0.093,0 0.186,0.016 0.096,0.014 0.172,0.048 0.076,0.031 0.124,0.08 0.051,0.044 0.051,0.106 0,0.065 -0.034,0.1 -0.034,0.033 -0.084,0.033 -0.048,0 -0.085,-0.014 L 7.331,79.272 q -0.045,-0.02 -0.11,-0.034 -0.065,-0.017 -0.172,-0.017 -0.107,0 -0.206,0.057 -0.096,0.054 -0.17,0.152 -0.07,0.096 -0.112,0.229 -0.043,0.133 -0.043,0.288 0,0.192 0.048,0.33 0.051,0.138 0.13,0.229 0.08,0.087 0.178,0.132 0.102,0.043 0.203,0.043 0.122,0 0.203,-0.026 0.082,-0.025 0.139,-0.056 0.059,-0.031 0.101,-0.057 0.043,-0.025 0.082,-0.025 0.048,0 0.076,0.028 0.029,0.026 0.029,0.093 0,0.057 -0.046,0.116 -0.042,0.056 -0.127,0.104 -0.081,0.046 -0.197,0.077 -0.116,0.028 -0.26,0.028 -0.158,0 -0.316,-0.062 Q 6.606,80.839 6.481,80.717 6.361,80.593 6.284,80.41 6.208,80.223 6.208,79.978 q 0,-0.246 0.068,-0.438 0.07,-0.192 0.189,-0.324 0.121,-0.136 0.28,-0.206 0.16,-0.07 0.34,-0.07 z m 1.641,1.885 q -0.037,0.067 -0.068,0.098 -0.028,0.031 -0.073,0.031 -0.045,0 -0.079,-0.03 Q 8.473,80.892 8.434,80.827 8.383,80.743 8.318,80.593 8.256,80.443 8.191,80.269 8.126,80.091 8.064,79.902 8.002,79.712 7.951,79.546 7.903,79.38 7.872,79.256 7.844,79.128 7.844,79.075 q 0,-0.057 0.022,-0.085 0.023,-0.028 0.088,-0.028 0.037,0 0.062,0.02 0.028,0.017 0.07,0.101 0.034,0.065 0.074,0.17 0.04,0.104 0.082,0.23 0.045,0.128 0.09,0.27 l 0.09,0.276 q 0.046,0.138 0.085,0.265 l 0.073,0.229 0.077,-0.232 0.087,-0.265 0.09,-0.277 q 0.046,-0.14 0.09,-0.265 l 0.085,-0.229 q 0.04,-0.104 0.07,-0.172 0.04,-0.082 0.069,-0.101 0.03,-0.02 0.062,-0.02 0.065,0 0.087,0.034 0.026,0.03 0.026,0.093 0,0.056 -0.017,0.135 -0.017,0.08 -0.06,0.212 -0.04,0.13 -0.107,0.325 l -0.166,0.476 q -0.026,0.077 -0.06,0.159 -0.03,0.081 -0.064,0.16 l -0.063,0.147 q -0.03,0.07 -0.059,0.122 z m 1.455,-0.063 Q 10.176,80.661 10.173,80.551 L 10.171,80.314 Q 10.168,80.187 10.168,80.04 v -0.333 q 0,-0.2 0.003,-0.342 0.002,-0.144 0.016,-0.234 0.015,-0.09 0.043,-0.132 0.03,-0.043 0.082,-0.043 0.025,0 0.048,0.006 0.022,0.005 0.04,0.025 0.016,0.017 0.027,0.054 0.014,0.034 0.017,0.09 l 0.009,0.18 0.005,0.159 q 0.003,0.076 0.003,0.16 v 0.43 q 0,0.115 -0.003,0.228 l -0.005,0.229 q -0.003,0.116 -0.009,0.243 -0.003,0.067 -0.014,0.104 -0.011,0.037 -0.028,0.056 -0.017,0.02 -0.04,0.023 -0.022,0.006 -0.05,0.006 -0.051,0 -0.088,-0.034 -0.037,-0.037 -0.042,-0.153 z m 1.764,0.043 q -0.09,-0.124 -0.172,-0.246 l -0.172,-0.27 q -0.09,-0.147 -0.209,-0.325 -0.116,-0.18 -0.28,-0.42 v 0.38 q 0,0.167 -0.002,0.31 l -0.006,0.272 -0.008,0.254 q -0.003,0.067 -0.014,0.104 -0.009,0.037 -0.026,0.056 -0.017,0.02 -0.04,0.023 -0.02,0.006 -0.047,0.006 -0.051,0 -0.085,-0.034 -0.034,-0.037 -0.04,-0.153 -0.014,-0.31 -0.016,-0.62 v -0.647 q 0,-0.189 0.002,-0.296 0.006,-0.107 0.02,-0.161 0.017,-0.054 0.042,-0.068 0.029,-0.014 0.074,-0.014 0.045,0 0.118,0.07 0.074,0.068 0.161,0.181 0.088,0.113 0.186,0.26 0.102,0.147 0.2,0.302 0.1,0.155 0.19,0.308 l 0.17,0.276 q -0.003,-0.132 -0.003,-0.29 v -0.356 q 0,-0.223 0.002,-0.367 0.003,-0.147 0.014,-0.231 0.015,-0.085 0.043,-0.119 0.028,-0.034 0.079,-0.034 0.048,0 0.084,0.031 0.037,0.031 0.043,0.144 l 0.008,0.18 0.006,0.159 q 0.003,0.076 0.003,0.16 v 0.43 q 0,0.115 -0.003,0.228 l -0.006,0.229 -0.008,0.243 q -0.003,0.067 -0.014,0.104 -0.009,0.037 -0.026,0.056 -0.017,0.02 -0.04,0.023 -0.019,0.006 -0.047,0.006 -0.048,0 -0.082,-0.029 -0.034,-0.028 -0.099,-0.115 z"
       style="font-weight:400;font-size:2.82200003px;font-family:Sniglet;-inkscape-font-specification:'Sniglet, Normal';font-variant-ligatures:normal;font-variant-caps:normal;font-variant-numeric:normal;font-feature-settings:normal;text-align:start;letter-spacing:0;word-spacing:0;stroke-width:0.26499999"
       aria-label="CV IN"
       font-weight="400"
       font-size="2.822"
       letter-spacing="0"
       word-spacing="0"
       id="path68"
       inkscape:connector-curvature="0" />
  </g>
  <g
     style="line-height:1.25"
     id="g74"
     transform="translate(0.79380837,1.3230526)">
    <path
       d="m 32.66,6.91 q 0.093,0 0.186,0.018 0.096,0.014 0.172,0.048 0.076,0.03 0.124,0.079 0.05,0.045 0.05,0.107 0,0.065 -0.033,0.099 -0.034,0.033 -0.085,0.033 -0.048,0 -0.084,-0.014 Q 32.953,7.263 32.905,7.244 32.86,7.224 32.795,7.21 32.73,7.193 32.623,7.193 q -0.107,0 -0.206,0.056 -0.096,0.054 -0.17,0.153 -0.07,0.096 -0.112,0.228 -0.043,0.133 -0.043,0.288 0,0.192 0.048,0.33 0.051,0.139 0.13,0.229 0.08,0.088 0.178,0.133 0.101,0.042 0.203,0.042 0.121,0 0.203,-0.025 0.082,-0.026 0.139,-0.057 0.059,-0.03 0.101,-0.056 0.042,-0.026 0.082,-0.026 0.048,0 0.076,0.029 0.028,0.025 0.028,0.093 0,0.056 -0.045,0.115 -0.042,0.057 -0.127,0.105 -0.082,0.045 -0.197,0.076 -0.116,0.028 -0.26,0.028 -0.158,0 -0.316,-0.062 Q 32.18,8.81 32.055,8.689 31.935,8.564 31.858,8.381 31.782,8.195 31.782,7.949 q 0,-0.245 0.068,-0.437 0.07,-0.192 0.189,-0.325 0.121,-0.135 0.279,-0.206 0.16,-0.07 0.342,-0.07 z m 1.641,1.886 q -0.037,0.068 -0.068,0.099 -0.028,0.03 -0.073,0.03 -0.045,0 -0.08,-0.03 Q 34.047,8.864 34.007,8.799 33.957,8.714 33.892,8.565 33.83,8.415 33.765,8.24 33.7,8.062 33.638,7.873 33.576,7.684 33.525,7.517 33.477,7.351 33.445,7.227 33.418,7.1 33.418,7.047 q 0,-0.057 0.022,-0.086 0.023,-0.028 0.088,-0.028 0.036,0 0.062,0.02 0.028,0.017 0.07,0.102 0.034,0.065 0.074,0.169 0.04,0.104 0.082,0.231 0.045,0.127 0.09,0.268 l 0.09,0.277 0.085,0.265 0.073,0.229 0.076,-0.231 0.088,-0.266 0.09,-0.276 q 0.045,-0.141 0.09,-0.266 l 0.085,-0.228 q 0.04,-0.105 0.07,-0.172 0.04,-0.082 0.068,-0.102 0.032,-0.02 0.063,-0.02 0.064,0 0.087,0.034 0.025,0.031 0.025,0.093 0,0.057 -0.016,0.136 -0.017,0.079 -0.06,0.211 -0.04,0.13 -0.107,0.325 l -0.166,0.477 q -0.026,0.076 -0.06,0.158 -0.03,0.082 -0.065,0.16 -0.03,0.077 -0.062,0.148 -0.03,0.07 -0.059,0.12 z"
       style="font-weight:400;font-size:2.82200003px;font-family:Sniglet;-inkscape-font-specification:'Sniglet, Normal';font-variant-ligatures:normal;font-variant-caps:normal;font-variant-numeric:normal;font-feature-settings:normal;text-align:start;letter-spacing:0;word-spacing:0;stroke-width:0.26499999"
       aria-label="CV"
       font-weight="400"
       font-size="2.822"
       letter-spacing="0"
       word-spacing="0"
       id="path72"
       inkscape:connector-curvature="0" />
  </g>
  <path
     d="m 4.001,11.290053 q -0.17,0 -0.319,-0.068 -0.147,-0.068 -0.257,-0.195 -0.11,-0.13 -0.175,-0.316 -0.062,-0.186 -0.062,-0.423 0,-0.223 0.054,-0.4100004 0.056,-0.186 0.164,-0.321 0.11,-0.136 0.27,-0.209 0.161,-0.076 0.373,-0.076 0.172,0 0.327,0.062 0.156,0.062 0.271,0.186 0.119,0.124 0.187,0.31 0.067,0.1870004 0.067,0.4350004 0,0.203 -0.053,0.384 -0.051,0.18 -0.158,0.322 l 0.16,0.132 q 0.032,0.026 0.057,0.065 0.028,0.037 0.028,0.085 0,0.056 -0.045,0.09 -0.045,0.034 -0.107,0.034 -0.08,0 -0.167,-0.079 l -0.146,-0.127 q -0.096,0.057 -0.212,0.088 -0.116,0.03 -0.257,0.03 z m 0.006,-0.266 q 0.155,0 0.27,-0.062 0.116,-0.065 0.193,-0.169 0.076,-0.104 0.112,-0.24 0.037,-0.138 0.037,-0.282 0,-0.175 -0.048,-0.3100004 -0.045,-0.139 -0.124,-0.232 -0.079,-0.093 -0.183,-0.141 -0.105,-0.05 -0.223,-0.05 -0.142,0 -0.249,0.058 -0.104,0.06 -0.178,0.161 -0.07,0.102 -0.107,0.24 -0.037,0.1360004 -0.037,0.2900004 0,0.167 0.043,0.306 0.042,0.135 0.113,0.231 0.073,0.096 0.172,0.15 0.099,0.05 0.209,0.05 z m 1.858,0.285 q -0.322,0 -0.471,-0.175 -0.06,-0.067 -0.102,-0.172 -0.04,-0.107 -0.065,-0.276 -0.022,-0.17 -0.034,-0.418 -0.008,-0.251 -0.008,-0.6100004 0,-0.115 0.006,-0.189 0.005,-0.076 0.022,-0.118 0.017,-0.045 0.043,-0.062 0.028,-0.017 0.07,-0.017 0.082,0 0.116,0.073 0.034,0.074 0.034,0.254 0,0.062 -0.003,0.11 v 0.099 q 0,0.048 -0.003,0.107 v 0.1440004 q 0,0.282 0.017,0.469 0.02,0.186 0.065,0.299 0.045,0.11 0.121,0.155 0.08,0.045 0.195,0.045 0.121,0 0.2,-0.048 0.082,-0.05 0.13,-0.166 0.048,-0.119 0.068,-0.314 0.022,-0.194 0.022,-0.485 0,-0.1270004 -0.002,-0.2170004 v -0.164 q 0,-0.104 0.005,-0.175 0.009,-0.07 0.023,-0.11 0.017,-0.042 0.045,-0.06 0.028,-0.016 0.07,-0.016 0.043,0 0.071,0.017 0.028,0.017 0.045,0.059 0.017,0.042 0.023,0.119 0.006,0.073 0.006,0.191 0,0.4970004 -0.032,0.8190004 -0.03,0.319 -0.11,0.505 -0.079,0.184 -0.217,0.257 -0.135,0.07 -0.35,0.07 z m 2.145,-0.191 -0.062,-0.156 q -0.031,-0.09 -0.068,-0.189 l -0.177,0.006 h -0.41 q -0.098,0 -0.18,-0.003 l -0.065,0.186 q -0.031,0.088 -0.06,0.156 -0.056,0.143 -0.163,0.143 -0.04,0 -0.076,-0.025 -0.034,-0.025 -0.034,-0.073 0,-0.048 0.017,-0.124 0.017,-0.08 0.042,-0.167 0.028,-0.09 0.06,-0.183 0.03,-0.096 0.059,-0.178 0.028,-0.09 0.079,-0.229 l 0.112,-0.2930004 0.119,-0.3 q 0.06,-0.15 0.107,-0.26 l 0.028,-0.061 q 0.017,-0.037 0.04,-0.068 0.025,-0.031 0.054,-0.054 0.03,-0.022 0.067,-0.022 0.037,0 0.068,0.025 0.031,0.023 0.054,0.057 0.025,0.034 0.042,0.07 0.02,0.037 0.031,0.065 l 0.102,0.26 q 0.059,0.147 0.115,0.296 0.06,0.1500004 0.11,0.2850004 0.051,0.136 0.082,0.229 l 0.057,0.175 q 0.034,0.093 0.062,0.183 0.028,0.09 0.045,0.17 0.02,0.076 0.02,0.124 0,0.048 -0.037,0.073 -0.034,0.025 -0.073,0.025 -0.051,0 -0.093,-0.033 -0.043,-0.037 -0.074,-0.11 z m -0.5,-0.621 0.136,0.002 q 0.068,0 0.136,0.003 l -0.068,-0.197 -0.065,-0.19 q -0.028,-0.09 -0.054,-0.1660004 l -0.04,-0.138 q -0.01,-0.037 -0.025,-0.06 -0.014,-0.022 -0.036,-0.022 -0.023,0 -0.037,0.025 -0.014,0.023 -0.025,0.06 -0.034,0.115 -0.096,0.3020004 l -0.127,0.386 q 0.076,-0.003 0.152,-0.003 l 0.15,-0.002 z m 2.094,0.632 q -0.09,-0.124 -0.172,-0.246 l -0.172,-0.27 q -0.09,-0.147 -0.209,-0.325 -0.115,-0.18 -0.28,-0.4200004 v 0.3800004 q 0,0.167 -0.002,0.31 l -0.006,0.272 q -0.002,0.127 -0.008,0.254 -0.003,0.067 -0.014,0.104 -0.009,0.037 -0.026,0.057 -0.017,0.02 -0.04,0.022 -0.019,0.006 -0.047,0.006 -0.05,0 -0.085,-0.034 -0.034,-0.037 -0.04,-0.153 -0.013,-0.31 -0.016,-0.62 V 9.8190526 q 0,-0.189 0.003,-0.296 0.005,-0.107 0.02,-0.16 0.016,-0.055 0.042,-0.069 0.028,-0.014 0.073,-0.014 0.045,0 0.119,0.07 0.073,0.069 0.16,0.181 0.088,0.113 0.187,0.26 0.101,0.147 0.2,0.3020004 0.099,0.155 0.19,0.308 l 0.169,0.276 q -0.003,-0.132 -0.003,-0.29 v -0.356 q 0,-0.2230004 0.003,-0.3670004 0.002,-0.147 0.014,-0.231 0.014,-0.085 0.042,-0.119 0.028,-0.034 0.079,-0.034 0.048,0 0.085,0.031 0.036,0.031 0.042,0.144 0.006,0.102 0.008,0.18 l 0.006,0.159 q 0.003,0.076 0.003,0.16 v 0.4300004 q 0,0.115 -0.003,0.228 l -0.006,0.229 q -0.002,0.116 -0.008,0.243 -0.003,0.067 -0.014,0.104 -0.009,0.037 -0.025,0.057 -0.017,0.02 -0.04,0.022 -0.02,0.006 -0.048,0.006 -0.048,0 -0.082,-0.029 -0.034,-0.028 -0.099,-0.115 z m 1.761,-1.5830004 q -0.079,0.005 -0.17,0.008 l -0.194,0.006 0.006,0.144 0.005,0.132 q 0.003,0.068 0.003,0.141 0.003,0.074 0.003,0.1640004 v 0.246 q 0,0.115 -0.003,0.234 l -0.006,0.234 q -0.002,0.119 -0.008,0.246 -0.003,0.067 -0.014,0.104 -0.009,0.037 -0.026,0.056 -0.017,0.02 -0.04,0.023 -0.022,0.006 -0.05,0.006 -0.05,0 -0.087,-0.034 -0.034,-0.037 -0.04,-0.153 -0.006,-0.101 -0.008,-0.214 0,-0.113 -0.003,-0.243 -0.003,-0.13 -0.003,-0.28 V 9.7600526 q 0.003,-0.116 0.008,-0.2 h -0.115 q -0.119,0 -0.203,-0.003 -0.082,-0.003 -0.136,-0.014 -0.054,-0.014 -0.079,-0.043 -0.023,-0.028 -0.023,-0.079 0,-0.025 0.006,-0.045 0.006,-0.022 0.026,-0.04 0.02,-0.02 0.053,-0.03 0.037,-0.012 0.093,-0.017 l 0.096,-0.006 0.085,-0.005 q 0.042,-0.003 0.087,-0.003 h 0.105 q 0.166,0 0.313,0.003 0.15,0.002 0.316,0.01 0.068,0.006 0.105,0.018 0.036,0.008 0.056,0.025 0.02,0.017 0.023,0.04 0.005,0.022 0.005,0.05 0,0.051 -0.036,0.085 -0.034,0.034 -0.15,0.04 z m 0.482,1.5410004 q -0.005,-0.102 -0.008,-0.212 0,-0.11 -0.003,-0.237 -0.003,-0.127 -0.003,-0.274 v -0.333 q 0,-0.2000004 0.003,-0.3420004 0.003,-0.143 0.017,-0.234 0.014,-0.09 0.042,-0.132 0.031,-0.043 0.082,-0.043 0.026,0 0.048,0.006 0.023,0.005 0.04,0.025 0.017,0.017 0.028,0.054 0.014,0.034 0.017,0.09 l 0.008,0.18 0.006,0.159 q 0.003,0.076 0.003,0.16 v 0.4300004 q 0,0.115 -0.003,0.228 l -0.006,0.229 q -0.002,0.116 -0.008,0.243 -0.003,0.067 -0.014,0.104 -0.012,0.037 -0.028,0.057 -0.017,0.02 -0.04,0.022 -0.023,0.006 -0.05,0.006 -0.052,0 -0.088,-0.034 -0.037,-0.037 -0.043,-0.153 z m 1.694,0.169 q -0.05,0.005 -0.127,0.008 -0.073,0.006 -0.16,0.009 l -0.181,0.005 q -0.093,0.003 -0.18,0.003 -0.153,0 -0.25,-0.003 -0.092,-0.002 -0.146,-0.014 -0.05,-0.008 -0.07,-0.028 -0.018,-0.02 -0.018,-0.054 0,-0.062 0.034,-0.143 0.034,-0.085 0.08,-0.17 0.047,-0.084 0.095,-0.158 l 0.074,-0.118 0.626,-1.0200004 q -0.053,0 -0.073,0.004 l -0.045,0.002 h -0.257 q -0.175,0 -0.28,-0.002 -0.101,-0.006 -0.155,-0.02 -0.05,-0.014 -0.067,-0.04 -0.015,-0.025 -0.015,-0.07 0,-0.07 0.034,-0.099 0.034,-0.031 0.144,-0.042 l 0.102,-0.006 q 0.056,-0.006 0.116,-0.006 l 0.12,-0.002 q 0.06,-0.003 0.11,-0.003 0.052,0 0.097,0.003 l 0.096,0.002 q 0.05,0 0.107,0.003 l 0.13,0.006 q 0.023,0 0.056,0.005 0.037,0.003 0.068,0.012 0.034,0.008 0.057,0.028 0.022,0.017 0.022,0.048 0,0.05 -0.048,0.155 -0.045,0.102 -0.124,0.237 -0.076,0.133 -0.178,0.2900004 l -0.203,0.32 -0.206,0.319 q -0.102,0.158 -0.183,0.293 0.05,-0.003 0.146,-0.003 l 0.184,-0.002 0.206,0.002 q 0.127,0.003 0.26,0.015 0.067,0.005 0.104,0.014 0.036,0.008 0.056,0.025 0.02,0.014 0.023,0.037 0.005,0.022 0.005,0.056 0,0.023 -0.002,0.04 -0.003,0.017 -0.02,0.03 -0.017,0.012 -0.057,0.02 -0.036,0.006 -0.107,0.012 z m 0.459,-0.423 q -0.006,-0.09 -0.012,-0.246 -0.006,-0.155 -0.006,-0.319 v -0.192 l 0.006,-0.2060004 q 0.006,-0.209 0.025,-0.327 0.023,-0.119 0.085,-0.178 0.065,-0.06 0.18,-0.073 0.116,-0.015 0.308,-0.015 h 0.06 q 0.059,0 0.14,0.003 0.083,0 0.17,0.003 l 0.15,0.006 q 0.062,0.005 0.098,0.017 0.04,0.008 0.06,0.025 0.02,0.014 0.025,0.037 0.006,0.02 0.006,0.045 0,0.065 -0.037,0.096 -0.037,0.028 -0.15,0.036 -0.056,0.006 -0.166,0.009 h -0.22 q -0.113,0 -0.203,0.003 h -0.113 q -0.074,0.003 -0.105,0.034 -0.028,0.028 -0.028,0.138 l 0.003,0.124 q 0.005,0.096 0.005,0.2710004 h 0.235 q 0.15,0 0.242,0.006 0.096,0.002 0.147,0.017 0.054,0.014 0.074,0.045 0.02,0.03 0.02,0.082 0,0.025 -0.006,0.048 -0.003,0.02 -0.023,0.036 -0.02,0.014 -0.056,0.026 -0.037,0.008 -0.105,0.014 l -0.155,0.008 h -0.378 v 0.345 l 0.005,0.096 q 0.003,0.045 0.012,0.076 0.011,0.03 0.036,0.05 0.029,0.02 0.08,0.029 0.053,0.008 0.14,0.008 h 0.607 q 0.1,0 0.125,0.037 0.025,0.037 0.025,0.099 0,0.05 -0.023,0.079 -0.022,0.025 -0.11,0.036 -0.084,0.015 -0.257,0.017 -0.169,0.003 -0.468,0.003 -0.127,0 -0.209,-0.022 -0.082,-0.023 -0.133,-0.077 -0.05,-0.053 -0.076,-0.138 -0.022,-0.087 -0.03,-0.212 z"
     style="font-weight:400;font-size:2.82200003px;line-height:1.25;font-family:Sniglet;-inkscape-font-specification:'Sniglet, Normal';font-variant-ligatures:normal;font-variant-caps:normal;font-variant-numeric:normal;font-feature-settings:normal;text-align:start;letter-spacing:0;word-spacing:0"
     font-weight="400"
     font-size="2.822"
     letter-spacing="0"
     word-spacing="0"
     id="path76"
     inkscape:connector-curvature="0" />
  <g
     word-spacing="0"
     letter-spacing="0"
     font-weight="400"
     id="g84"
     transform="translate(-3.9688089)"
     style="font-weight:400;letter-spacing:0;word-spacing:0">
    <path
       font-size="3.528"
       d="m 96.54,28.496 h 0.08 l 0.009,0.009 v 0.523 l 0.205,-0.103 0.005,0.003 v 0.243 q -0.005,0.012 -0.21,0.115 v 0.643 l 0.21,-0.095 v 0.233 q -0.002,0.007 -0.21,0.122 v 0.512 l -0.01,0.007 h -0.08 l -0.008,-0.007 v -0.47 l -0.496,0.24 v 0.597 l -0.01,0.007 h -0.071 l -0.01,-0.007 v -0.553 l -0.221,0.103 v -0.245 q 0,-0.01 0.222,-0.113 v -0.653 h -0.003 l -0.22,0.096 v -0.24 l 0.223,-0.111 v -0.494 l 0.01,-0.007 h 0.072 l 0.009,0.007 v 0.45 l 0.496,-0.23 v -0.574 z m -0.504,1.073 v 0.65 l 0.496,-0.24 v -0.64 z m -0.102,2.019 h 0.078 l 0.009,0.01 v 1.655 h 0.005 q 0.292,-0.408 0.542,-0.408 0.39,0.005 0.426,0.448 -0.05,0.732 -1.065,0.884 l -0.005,-0.005 v -2.574 z m 0.086,1.85 v 0.61 q 0.72,-0.17 0.72,-0.695 l 0.002,-0.043 q 0,-0.255 -0.256,-0.268 -0.205,0 -0.465,0.396 z"
       style="font-size:3.52800012px;line-height:1.25;font-family:Sniglet;-inkscape-font-specification:'Sniglet, Normal';font-variant-ligatures:normal;font-variant-caps:normal;font-variant-numeric:normal;font-feature-settings:normal;text-align:start"
       id="path78"
       inkscape:connector-curvature="0" />
    <g
       style="line-height:1.25;-inkscape-font-specification:'Sniglet, Normal';font-variant-ligatures:normal;font-variant-caps:normal;font-variant-numeric:normal;font-feature-settings:normal;text-align:start"
       id="g82">
      <path
         font-size="2.822"
         aria-label="CV IN"
         style="font-size:2.82200003px;font-family:Sniglet;-inkscape-font-specification:'Sniglet, Normal';font-variant-ligatures:normal;font-variant-caps:normal;font-variant-numeric:normal;font-feature-settings:normal;text-align:start"
         d="m 96.496,27.573 q -0.037,0.068 -0.068,0.099 -0.028,0.03 -0.074,0.03 -0.045,0 -0.08,-0.03 -0.032,-0.031 -0.072,-0.096 -0.05,-0.085 -0.116,-0.234 -0.062,-0.15 -0.127,-0.325 -0.065,-0.178 -0.127,-0.367 -0.062,-0.19 -0.113,-0.355 -0.048,-0.167 -0.08,-0.291 -0.027,-0.127 -0.027,-0.18 0,-0.057 0.023,-0.085 0.022,-0.03 0.087,-0.03 0.037,0 0.062,0.02 0.029,0.018 0.07,0.103 0.035,0.065 0.074,0.169 0.04,0.104 0.082,0.23 0.045,0.128 0.09,0.27 l 0.09,0.276 q 0.046,0.138 0.085,0.265 l 0.074,0.229 0.076,-0.231 0.087,-0.266 0.09,-0.276 q 0.046,-0.141 0.09,-0.266 l 0.086,-0.228 q 0.04,-0.105 0.07,-0.172 0.04,-0.082 0.068,-0.102 0.03,-0.02 0.062,-0.02 0.065,0 0.088,0.034 0.025,0.03 0.025,0.093 0,0.057 -0.017,0.136 -0.017,0.079 -0.06,0.21 -0.04,0.13 -0.106,0.326 l -0.167,0.477 q -0.025,0.076 -0.06,0.158 -0.03,0.082 -0.064,0.16 -0.031,0.077 -0.062,0.148 -0.031,0.07 -0.06,0.12 z"
         id="path80"
         inkscape:connector-curvature="0" />
    </g>
  </g>
  <g
     font-weight="400"
     font-size="2.822"
     letter-spacing="0"
     word-spacing="0"
     id="g98"
     transform="translate(-3.9688089)"
     style="font-weight:400;font-size:2.82200003px;font-family:Sniglet;letter-spacing:0;word-spacing:0;stroke-width:0.07">
    <g
       style="line-height:1.25"
       id="g88">
      <path
         style="-inkscape-font-specification:'Sniglet, Normal';font-variant-ligatures:normal;font-variant-caps:normal;font-variant-numeric:normal;font-feature-settings:normal;text-align:start"
         d="m 107.43,27.112 q -0.002,0.107 -0.002,0.234 0,0.127 -0.008,0.237 -0.006,0.085 -0.04,0.11 -0.031,0.023 -0.087,0.023 -0.051,0 -0.08,-0.02 -0.025,-0.017 -0.039,-0.076 -0.011,-0.062 -0.014,-0.178 -0.003,-0.118 -0.003,-0.316 -0.093,0 -0.178,0.003 -0.084,0.003 -0.163,0.003 -0.119,0 -0.218,-0.006 -0.096,-0.005 -0.166,-0.02 -0.068,-0.016 -0.107,-0.045 -0.037,-0.028 -0.037,-0.073 0,-0.062 0.05,-0.155 0.051,-0.096 0.128,-0.206 0.076,-0.11 0.16,-0.223 l 0.161,-0.215 0.096,-0.124 q 0.065,-0.082 0.139,-0.16 0.073,-0.083 0.146,-0.142 0.074,-0.06 0.125,-0.06 0.048,0 0.084,0.032 0.037,0.03 0.043,0.144 0.01,0.163 0.014,0.344 0.003,0.178 0.003,0.353 v 0.28 q 0.079,0.005 0.127,0.013 0.047,0.009 0.073,0.026 0.025,0.014 0.034,0.036 0.008,0.023 0.008,0.057 0,0.07 -0.065,0.096 -0.065,0.022 -0.183,0.028 z m -0.276,-0.923 -0.211,0.257 -0.147,0.18 q -0.06,0.077 -0.105,0.13 l -0.076,0.096 q 0.13,-0.005 0.266,-0.005 0.138,-0.003 0.273,-0.003 z m 1.321,1.016 -0.217,0.229 q -0.088,0.093 -0.15,0.155 -0.062,0.06 -0.104,0.088 -0.04,0.028 -0.074,0.028 -0.04,0 -0.079,-0.034 -0.036,-0.034 -0.036,-0.073 0,-0.034 0.048,-0.102 0.048,-0.07 0.118,-0.155 0.07,-0.085 0.153,-0.175 l 0.15,-0.175 q -0.091,-0.105 -0.173,-0.203 -0.08,-0.1 -0.138,-0.184 -0.06,-0.085 -0.096,-0.15 -0.034,-0.064 -0.034,-0.101 0,-0.037 0.037,-0.062 0.036,-0.028 0.067,-0.028 0.026,0 0.088,0.056 0.062,0.054 0.138,0.133 0.079,0.076 0.158,0.163 l 0.147,0.156 0.138,-0.153 q 0.08,-0.087 0.155,-0.163 0.077,-0.077 0.141,-0.13 0.065,-0.054 0.102,-0.054 0.031,0 0.062,0.023 0.031,0.022 0.031,0.059 0,0.037 -0.037,0.102 -0.033,0.064 -0.093,0.15 -0.059,0.084 -0.14,0.183 -0.08,0.098 -0.17,0.203 l 0.152,0.172 q 0.082,0.09 0.153,0.178 0.07,0.084 0.115,0.155 0.048,0.068 0.048,0.102 0,0.039 -0.04,0.073 -0.036,0.034 -0.075,0.034 -0.037,0 -0.1,-0.045 -0.058,-0.048 -0.135,-0.119 -0.073,-0.073 -0.155,-0.16 z m 1.915,-0.093 q -0.002,0.107 -0.002,0.234 0,0.127 -0.008,0.237 -0.006,0.085 -0.04,0.11 -0.031,0.023 -0.087,0.023 -0.051,0 -0.08,-0.02 -0.025,-0.017 -0.039,-0.076 -0.011,-0.062 -0.014,-0.178 -0.003,-0.118 -0.003,-0.316 -0.093,0 -0.178,0.003 -0.084,0.003 -0.163,0.003 -0.119,0 -0.218,-0.006 -0.096,-0.005 -0.166,-0.02 -0.068,-0.016 -0.107,-0.045 -0.037,-0.028 -0.037,-0.073 0,-0.062 0.05,-0.155 0.052,-0.096 0.128,-0.206 0.076,-0.11 0.16,-0.223 l 0.161,-0.215 0.096,-0.124 q 0.065,-0.082 0.139,-0.16 0.073,-0.083 0.146,-0.142 0.074,-0.06 0.125,-0.06 0.048,0 0.084,0.032 0.037,0.03 0.043,0.144 0.01,0.163 0.014,0.344 0.003,0.178 0.003,0.353 v 0.28 q 0.079,0.005 0.127,0.013 0.048,0.009 0.073,0.026 0.025,0.014 0.034,0.036 0.008,0.023 0.008,0.057 0,0.07 -0.065,0.096 -0.065,0.022 -0.183,0.028 z m -0.276,-0.923 -0.211,0.257 -0.147,0.18 q -0.06,0.077 -0.105,0.13 l -0.076,0.096 q 0.13,-0.005 0.266,-0.005 0.138,-0.003 0.273,-0.003 z"
         aria-label="4x4"
         id="path86"
         inkscape:connector-curvature="0" />
    </g>
    <g
       style="line-height:1.25"
       id="g92">
      <path
         style="-inkscape-font-specification:'Sniglet, Normal';font-variant-ligatures:normal;font-variant-caps:normal;font-variant-numeric:normal;font-feature-settings:normal;text-align:start"
         d="m 106.931,29.136 q -0.101,0 -0.169,0.022 -0.068,0.02 -0.113,0.054 -0.045,0.034 -0.073,0.07 l -0.051,0.071 q -0.023,0.034 -0.05,0.056 -0.026,0.02 -0.066,0.02 -0.068,0 -0.096,-0.034 -0.025,-0.036 -0.025,-0.096 0,-0.124 0.093,-0.231 0.028,-0.034 0.076,-0.07 0.051,-0.04 0.119,-0.071 0.07,-0.031 0.16,-0.051 0.094,-0.023 0.21,-0.023 0.307,0 0.476,0.15 0.17,0.15 0.17,0.42 0,0.054 -0.012,0.12 -0.008,0.064 -0.036,0.135 -0.026,0.07 -0.074,0.146 -0.048,0.076 -0.127,0.156 -0.07,0.07 -0.15,0.13 -0.078,0.059 -0.163,0.118 l -0.178,0.127 q -0.09,0.065 -0.183,0.15 0.09,0.047 0.195,0.062 0.104,0.014 0.234,0.014 0.121,0 0.195,-0.006 0.073,-0.006 0.118,-0.014 l 0.07,-0.014 q 0.026,-0.006 0.054,-0.006 0.105,0 0.105,0.096 0,0.085 -0.07,0.13 -0.071,0.045 -0.17,0.068 -0.099,0.02 -0.203,0.022 -0.105,0.006 -0.173,0.006 -0.036,0 -0.104,-0.006 -0.065,-0.002 -0.141,-0.014 -0.076,-0.011 -0.155,-0.03 -0.077,-0.023 -0.141,-0.057 -0.063,-0.037 -0.102,-0.088 -0.04,-0.053 -0.04,-0.127 0,-0.099 0.071,-0.186 0.073,-0.09 0.18,-0.175 0.108,-0.088 0.232,-0.172 0.124,-0.088 0.231,-0.178 0.108,-0.093 0.178,-0.192 0.074,-0.099 0.074,-0.214 0,-0.144 -0.1,-0.215 -0.095,-0.073 -0.276,-0.073 z m 1.559,1.214 -0.217,0.228 q -0.088,0.093 -0.15,0.155 -0.062,0.06 -0.104,0.088 -0.04,0.028 -0.073,0.028 -0.04,0 -0.08,-0.034 -0.036,-0.034 -0.036,-0.073 0,-0.034 0.048,-0.102 0.048,-0.07 0.118,-0.155 0.07,-0.085 0.153,-0.175 0.082,-0.093 0.15,-0.175 -0.091,-0.105 -0.173,-0.203 -0.079,-0.1 -0.138,-0.184 -0.06,-0.085 -0.096,-0.15 -0.034,-0.064 -0.034,-0.101 0,-0.037 0.037,-0.062 0.036,-0.028 0.067,-0.028 0.026,0 0.088,0.056 0.062,0.054 0.138,0.133 0.08,0.076 0.158,0.163 l 0.147,0.156 0.138,-0.153 q 0.08,-0.087 0.156,-0.163 0.076,-0.077 0.14,-0.13 0.066,-0.054 0.102,-0.054 0.031,0 0.062,0.023 0.031,0.022 0.031,0.059 0,0.037 -0.036,0.102 -0.034,0.064 -0.093,0.15 -0.06,0.084 -0.142,0.183 -0.079,0.098 -0.169,0.203 l 0.153,0.172 q 0.081,0.09 0.152,0.178 0.07,0.084 0.116,0.155 0.048,0.068 0.048,0.102 0,0.039 -0.04,0.073 -0.037,0.034 -0.076,0.034 -0.037,0 -0.099,-0.045 -0.06,-0.048 -0.135,-0.119 -0.074,-0.073 -0.156,-0.16 l -0.155,-0.176 z m 1.518,-1.52 q 0.138,0 0.246,0.046 0.107,0.042 0.18,0.119 0.074,0.073 0.11,0.169 0.037,0.093 0.037,0.195 0,0.107 -0.042,0.208 -0.04,0.1 -0.122,0.173 0.136,0.07 0.206,0.2 0.074,0.127 0.074,0.313 0,0.144 -0.043,0.263 -0.042,0.115 -0.13,0.2 -0.087,0.082 -0.217,0.127 -0.13,0.048 -0.302,0.048 -0.175,0 -0.304,-0.048 -0.13,-0.045 -0.215,-0.13 -0.085,-0.084 -0.127,-0.2 -0.04,-0.116 -0.04,-0.254 0,-0.18 0.068,-0.31 0.07,-0.133 0.215,-0.207 -0.085,-0.073 -0.127,-0.175 -0.043,-0.101 -0.043,-0.208 0,-0.102 0.037,-0.195 0.037,-0.096 0.11,-0.17 0.074,-0.076 0.18,-0.118 0.108,-0.045 0.25,-0.045 z m 0.003,1.801 q 0.102,0 0.178,-0.028 0.076,-0.03 0.124,-0.082 0.05,-0.05 0.076,-0.118 0.026,-0.068 0.026,-0.141 0,-0.065 -0.023,-0.133 -0.02,-0.068 -0.07,-0.121 -0.049,-0.054 -0.128,-0.088 -0.079,-0.034 -0.191,-0.034 -0.195,0 -0.3,0.102 -0.101,0.099 -0.101,0.262 0,0.173 0.107,0.277 0.107,0.104 0.302,0.104 z m 0.003,-0.985 q 0.07,0 0.124,-0.028 0.056,-0.028 0.093,-0.07 0.04,-0.045 0.057,-0.096 0.02,-0.054 0.02,-0.102 0,-0.099 -0.08,-0.166 -0.076,-0.07 -0.22,-0.07 -0.144,0 -0.217,0.07 -0.074,0.067 -0.074,0.163 0,0.048 0.017,0.102 0.02,0.054 0.057,0.099 0.04,0.042 0.093,0.07 0.056,0.028 0.13,0.028 z"
         aria-label="2x8"
         id="path90"
         inkscape:connector-curvature="0" />
    </g>
    <g
       style="line-height:1.25"
       id="g96">
      <path
         style="-inkscape-font-specification:'Sniglet, Normal';font-variant-ligatures:normal;font-variant-caps:normal;font-variant-numeric:normal;font-feature-settings:normal;text-align:start"
         d="m 106.779,33.877 q -0.006,-0.102 -0.009,-0.212 l -0.002,-0.237 q -0.003,-0.127 -0.003,-0.273 v -0.686 l -0.17,0.087 q -0.07,0.045 -0.112,0.054 -0.04,0.008 -0.088,0.008 -0.042,0 -0.076,-0.036 -0.031,-0.037 -0.031,-0.088 0,-0.05 0.034,-0.087 0.036,-0.04 0.084,-0.07 0.063,-0.043 0.133,-0.086 0.073,-0.042 0.141,-0.076 0.068,-0.036 0.124,-0.056 0.06,-0.023 0.1,-0.023 0.019,0 0.039,0.006 0.022,0.005 0.04,0.022 0.019,0.017 0.03,0.054 0.014,0.034 0.017,0.093 l 0.009,0.178 0.005,0.15 q 0.003,0.07 0.003,0.15 v 0.425 q 0,0.116 -0.003,0.229 l -0.005,0.228 q -0.003,0.116 -0.009,0.243 -0.003,0.068 -0.014,0.105 -0.008,0.036 -0.025,0.056 -0.017,0.02 -0.04,0.023 -0.02,0.005 -0.048,0.005 -0.05,0 -0.085,-0.034 -0.033,-0.036 -0.04,-0.152 z m 1.151,-0.317 -0.218,0.23 q -0.088,0.093 -0.15,0.155 -0.062,0.059 -0.104,0.087 -0.04,0.028 -0.073,0.028 -0.04,0 -0.08,-0.033 -0.036,-0.034 -0.036,-0.074 0,-0.034 0.048,-0.101 0.048,-0.071 0.118,-0.156 0.071,-0.084 0.153,-0.175 0.082,-0.093 0.15,-0.175 -0.09,-0.104 -0.173,-0.203 -0.079,-0.099 -0.138,-0.183 -0.06,-0.085 -0.096,-0.15 -0.034,-0.065 -0.034,-0.101 0,-0.037 0.037,-0.062 0.036,-0.029 0.068,-0.029 0.025,0 0.087,0.057 0.062,0.053 0.138,0.132 0.08,0.077 0.158,0.164 0.082,0.088 0.147,0.155 l 0.138,-0.152 q 0.08,-0.088 0.156,-0.164 0.076,-0.076 0.14,-0.13 0.066,-0.053 0.102,-0.053 0.031,0 0.062,0.022 0.031,0.023 0.031,0.06 0,0.036 -0.036,0.101 -0.034,0.065 -0.093,0.15 -0.06,0.084 -0.141,0.183 -0.08,0.099 -0.17,0.203 l 0.153,0.173 q 0.081,0.09 0.152,0.177 0.07,0.085 0.116,0.156 0.048,0.067 0.048,0.101 0,0.04 -0.04,0.074 -0.037,0.033 -0.076,0.033 -0.037,0 -0.099,-0.045 -0.06,-0.048 -0.135,-0.118 -0.074,-0.074 -0.155,-0.161 l -0.156,-0.175 z m 1.263,0.317 q -0.005,-0.102 -0.008,-0.212 0,-0.11 -0.003,-0.237 -0.003,-0.127 -0.003,-0.273 v -0.686 l -0.17,0.087 q -0.07,0.045 -0.112,0.054 -0.04,0.008 -0.088,0.008 -0.042,0 -0.076,-0.036 -0.03,-0.037 -0.03,-0.088 0,-0.05 0.033,-0.087 0.037,-0.04 0.085,-0.07 0.062,-0.043 0.132,-0.086 0.074,-0.042 0.142,-0.076 0.067,-0.036 0.124,-0.056 0.059,-0.023 0.098,-0.023 0.02,0 0.04,0.006 0.023,0.005 0.04,0.022 0.02,0.017 0.03,0.054 0.015,0.034 0.017,0.093 l 0.009,0.178 0.006,0.15 q 0.002,0.07 0.002,0.15 v 0.425 q 0,0.116 -0.002,0.229 l -0.006,0.228 q -0.003,0.116 -0.009,0.243 -0.002,0.068 -0.014,0.105 -0.008,0.036 -0.025,0.056 -0.017,0.02 -0.04,0.023 -0.02,0.005 -0.048,0.005 -0.05,0 -0.084,-0.034 -0.034,-0.036 -0.04,-0.152 z m 0.552,-0.615 q 0,-0.237 0.082,-0.452 0.082,-0.217 0.203,-0.38 0.122,-0.167 0.257,-0.263 0.136,-0.099 0.243,-0.099 0.045,0 0.09,0.023 0.048,0.02 0.048,0.064 0,0.04 -0.045,0.088 l -0.141,0.141 q -0.05,0.05 -0.11,0.116 -0.057,0.065 -0.11,0.138 -0.054,0.073 -0.096,0.152 -0.043,0.08 -0.062,0.156 0.096,-0.085 0.214,-0.116 0.119,-0.031 0.21,-0.031 0.112,0 0.216,0.042 0.105,0.04 0.184,0.122 0.079,0.079 0.124,0.2 0.048,0.119 0.048,0.277 0,0.138 -0.045,0.254 -0.045,0.112 -0.13,0.197 -0.082,0.082 -0.2,0.13 -0.116,0.045 -0.26,0.045 -0.141,0 -0.274,-0.034 -0.13,-0.036 -0.228,-0.127 -0.1,-0.09 -0.158,-0.245 -0.06,-0.156 -0.06,-0.398 z m 0.322,0.163 q 0,0.187 0.096,0.283 0.099,0.096 0.294,0.096 0.07,0 0.135,-0.02 0.065,-0.02 0.116,-0.065 0.05,-0.048 0.079,-0.124 0.03,-0.076 0.03,-0.19 0,-0.07 -0.027,-0.132 -0.026,-0.062 -0.077,-0.107 -0.048,-0.048 -0.115,-0.074 -0.068,-0.028 -0.147,-0.028 -0.18,0 -0.282,0.099 -0.102,0.099 -0.102,0.262 z"
         aria-label="1x16"
         id="path94"
         inkscape:connector-curvature="0" />
    </g>
  </g>
  <g
     style="line-height:1.25"
     id="g102"
     transform="translate(0,1.3229838)">
    <path
       d="M 4.17,38.226 Q 4.141,38.158 4.108,38.07 L 4.04,37.881 3.862,37.887 h -0.41 q -0.098,0 -0.18,-0.003 L 3.207,38.07 q -0.03,0.088 -0.059,0.156 -0.056,0.144 -0.164,0.144 -0.04,0 -0.076,-0.026 -0.034,-0.025 -0.034,-0.073 0,-0.048 0.017,-0.124 0.017,-0.08 0.042,-0.167 l 0.06,-0.183 q 0.03,-0.096 0.059,-0.178 0.028,-0.09 0.079,-0.229 l 0.113,-0.293 0.118,-0.3 q 0.06,-0.149 0.108,-0.259 0.011,-0.028 0.028,-0.062 0.017,-0.037 0.04,-0.068 0.025,-0.03 0.053,-0.053 0.031,-0.023 0.068,-0.023 0.036,0 0.068,0.025 0.03,0.023 0.053,0.057 0.026,0.034 0.042,0.07 0.02,0.037 0.032,0.065 0.045,0.113 0.101,0.26 0.06,0.147 0.116,0.296 0.06,0.15 0.11,0.285 0.05,0.136 0.082,0.229 0.025,0.082 0.056,0.175 0.034,0.093 0.062,0.183 0.029,0.09 0.045,0.17 0.02,0.076 0.02,0.124 0,0.048 -0.036,0.073 -0.034,0.026 -0.074,0.026 -0.05,0 -0.093,-0.034 -0.042,-0.037 -0.073,-0.11 z m -0.5,-0.621 q 0.068,0 0.136,0.003 L 3.941,37.61 3.873,37.413 3.808,37.223 3.755,37.057 3.715,36.919 Q 3.704,36.882 3.69,36.859 3.676,36.837 3.653,36.837 q -0.022,0 -0.037,0.026 -0.014,0.022 -0.025,0.059 -0.034,0.116 -0.096,0.302 L 3.368,37.61 q 0.076,-0.002 0.153,-0.002 0.076,-0.003 0.15,-0.003 z m 1.601,0.813 Q 4.95,38.418 4.8,38.243 4.74,38.175 4.698,38.07 4.658,37.963 4.633,37.794 4.611,37.624 4.6,37.376 4.591,37.125 4.591,36.766 q 0,-0.115 0.006,-0.188 0.005,-0.077 0.022,-0.119 0.017,-0.045 0.043,-0.062 0.028,-0.017 0.07,-0.017 0.082,0 0.116,0.073 0.034,0.074 0.034,0.254 0,0.062 -0.003,0.11 v 0.1 q 0,0.047 -0.003,0.106 v 0.144 q 0,0.283 0.017,0.469 0.02,0.186 0.065,0.299 0.045,0.11 0.121,0.155 0.08,0.045 0.195,0.045 0.121,0 0.2,-0.048 0.082,-0.05 0.13,-0.166 0.048,-0.119 0.068,-0.313 0.023,-0.195 0.023,-0.486 0,-0.127 -0.003,-0.217 v -0.164 q 0,-0.104 0.005,-0.175 0.009,-0.07 0.023,-0.11 0.017,-0.042 0.045,-0.06 0.028,-0.016 0.07,-0.016 0.043,0 0.071,0.017 0.029,0.017 0.045,0.06 0.017,0.042 0.023,0.118 0.006,0.073 0.006,0.192 0,0.496 -0.031,0.818 -0.031,0.319 -0.11,0.505 -0.08,0.184 -0.218,0.257 -0.135,0.07 -0.35,0.07 z m 2.143,-1.764 q -0.079,0.005 -0.169,0.008 l -0.195,0.006 0.006,0.144 0.006,0.132 q 0.002,0.068 0.002,0.142 0.003,0.073 0.003,0.163 v 0.246 q 0,0.115 -0.003,0.234 L 7.059,37.963 Q 7.056,38.082 7.05,38.209 7.047,38.276 7.036,38.313 7.028,38.35 7.011,38.37 q -0.017,0.02 -0.04,0.022 -0.022,0.006 -0.05,0.006 -0.051,0 -0.088,-0.034 -0.034,-0.037 -0.04,-0.152 -0.005,-0.102 -0.008,-0.215 0,-0.113 -0.003,-0.243 -0.003,-0.13 -0.003,-0.28 V 36.869 Q 6.782,36.752 6.788,36.668 H 6.672 q -0.118,0 -0.203,-0.003 Q 6.387,36.662 6.333,36.651 6.28,36.637 6.254,36.609 6.232,36.58 6.232,36.529 q 0,-0.025 0.005,-0.045 0.006,-0.022 0.026,-0.04 0.02,-0.019 0.053,-0.03 0.037,-0.011 0.094,-0.017 L 6.506,36.391 6.59,36.386 q 0.043,-0.003 0.088,-0.003 h 0.104 q 0.167,0 0.313,0.003 0.15,0.002 0.316,0.011 0.068,0.006 0.105,0.017 0.037,0.008 0.056,0.025 0.02,0.017 0.023,0.04 0.006,0.022 0.006,0.05 0,0.051 -0.037,0.085 -0.034,0.034 -0.15,0.04 z m 1.053,1.744 q -0.169,0 -0.319,-0.068 -0.146,-0.068 -0.256,-0.195 -0.11,-0.13 -0.175,-0.316 -0.062,-0.186 -0.062,-0.423 0,-0.223 0.053,-0.41 0.057,-0.186 0.164,-0.321 0.11,-0.135 0.27,-0.209 0.162,-0.076 0.373,-0.076 0.173,0 0.328,0.062 0.155,0.062 0.27,0.186 0.12,0.125 0.187,0.31 0.068,0.187 0.068,0.435 0,0.206 -0.057,0.393 -0.053,0.186 -0.166,0.327 -0.11,0.138 -0.28,0.223 -0.169,0.082 -0.398,0.082 z m 0.006,-0.265 q 0.155,0 0.271,-0.063 0.116,-0.064 0.192,-0.169 0.076,-0.104 0.113,-0.24 0.036,-0.138 0.036,-0.282 0,-0.175 -0.048,-0.31 Q 8.992,36.93 8.913,36.837 8.834,36.744 8.73,36.697 8.625,36.645 8.507,36.645 q -0.141,0 -0.248,0.06 -0.105,0.059 -0.178,0.16 -0.07,0.102 -0.108,0.24 -0.036,0.136 -0.036,0.291 0,0.166 0.042,0.305 0.042,0.135 0.113,0.231 0.073,0.096 0.172,0.15 0.099,0.05 0.209,0.05 z m 1.784,-1.756 q 0.08,0 0.18,0.014 0.105,0.012 0.196,0.045 0.09,0.031 0.152,0.085 0.062,0.05 0.062,0.127 0,0.045 -0.025,0.076 -0.026,0.031 -0.082,0.031 -0.042,0 -0.088,-0.017 -0.042,-0.017 -0.098,-0.033 -0.054,-0.02 -0.127,-0.037 -0.071,-0.017 -0.167,-0.017 -0.186,0 -0.276,0.068 -0.088,0.065 -0.088,0.18 0,0.08 0.04,0.133 0.039,0.054 0.104,0.093 0.068,0.037 0.15,0.062 0.084,0.026 0.172,0.048 0.098,0.026 0.194,0.062 0.1,0.037 0.175,0.096 0.077,0.06 0.122,0.15 0.048,0.09 0.048,0.228 0,0.144 -0.054,0.26 -0.054,0.113 -0.147,0.195 -0.093,0.079 -0.223,0.124 -0.13,0.042 -0.282,0.042 -0.084,0 -0.197,-0.017 -0.113,-0.014 -0.215,-0.05 -0.101,-0.04 -0.172,-0.102 -0.07,-0.065 -0.07,-0.158 0,-0.057 0.028,-0.09 0.03,-0.034 0.09,-0.034 0.048,0 0.079,0.02 0.031,0.016 0.054,0.039 0.084,0.073 0.192,0.099 0.107,0.025 0.22,0.025 0.065,0 0.135,-0.008 0.073,-0.012 0.133,-0.043 0.059,-0.03 0.099,-0.087 0.039,-0.06 0.039,-0.158 0,-0.09 -0.037,-0.147 -0.034,-0.06 -0.093,-0.099 -0.059,-0.04 -0.14,-0.065 -0.08,-0.025 -0.173,-0.05 -0.104,-0.029 -0.206,-0.063 -0.102,-0.033 -0.18,-0.09 -0.08,-0.06 -0.13,-0.147 -0.048,-0.09 -0.048,-0.228 0,-0.139 0.05,-0.243 0.051,-0.104 0.139,-0.175 0.087,-0.07 0.206,-0.107 0.121,-0.037 0.26,-0.037 z m 2.053,0.277 q -0.08,0.005 -0.17,0.008 l -0.195,0.006 0.006,0.144 0.005,0.132 q 0.003,0.068 0.003,0.142 0.003,0.073 0.003,0.163 v 0.246 q 0,0.115 -0.003,0.234 l -0.006,0.234 q -0.002,0.119 -0.008,0.246 -0.003,0.067 -0.014,0.104 -0.009,0.037 -0.026,0.057 -0.016,0.02 -0.04,0.022 -0.022,0.006 -0.05,0.006 -0.05,0 -0.087,-0.034 -0.034,-0.037 -0.04,-0.152 -0.005,-0.102 -0.008,-0.215 0,-0.113 -0.003,-0.243 -0.003,-0.13 -0.003,-0.28 v -0.605 q 0.003,-0.117 0.009,-0.201 h -0.116 q -0.119,0 -0.203,-0.003 -0.082,-0.003 -0.136,-0.014 -0.053,-0.014 -0.079,-0.042 -0.022,-0.029 -0.022,-0.08 0,-0.025 0.005,-0.045 0.006,-0.022 0.026,-0.04 0.02,-0.019 0.053,-0.03 0.037,-0.011 0.093,-0.017 l 0.096,-0.006 0.085,-0.005 q 0.042,-0.003 0.087,-0.003 h 0.105 q 0.166,0 0.313,0.003 0.15,0.002 0.316,0.011 0.068,0.006 0.105,0.017 0.036,0.008 0.056,0.025 0.02,0.017 0.023,0.04 0.005,0.022 0.005,0.05 0,0.051 -0.036,0.085 -0.034,0.034 -0.15,0.04 z m 0.401,1.286 Q 12.705,37.85 12.7,37.695 12.694,37.54 12.694,37.376 V 37.184 L 12.7,36.978 q 0.005,-0.209 0.025,-0.327 0.023,-0.119 0.085,-0.178 0.065,-0.06 0.18,-0.073 0.116,-0.014 0.308,-0.014 h 0.06 l 0.14,0.002 q 0.082,0 0.17,0.003 l 0.15,0.006 q 0.061,0.005 0.098,0.017 0.04,0.008 0.06,0.025 0.02,0.014 0.025,0.037 0.005,0.02 0.005,0.045 0,0.065 -0.036,0.096 -0.037,0.028 -0.15,0.037 -0.056,0.005 -0.166,0.008 h -0.22 q -0.113,0 -0.204,0.003 h -0.113 q -0.073,0.003 -0.104,0.034 -0.028,0.028 -0.028,0.138 l 0.002,0.124 q 0.006,0.096 0.006,0.271 h 0.234 q 0.15,0 0.243,0.006 0.096,0.003 0.147,0.017 0.053,0.014 0.073,0.045 0.02,0.03 0.02,0.082 0,0.025 -0.006,0.048 -0.002,0.02 -0.022,0.036 -0.02,0.015 -0.057,0.026 -0.036,0.008 -0.104,0.014 -0.082,0.006 -0.155,0.008 h -0.379 v 0.345 l 0.006,0.096 q 0.003,0.045 0.011,0.076 0.012,0.03 0.037,0.05 0.028,0.02 0.08,0.029 0.053,0.008 0.14,0.008 h 0.607 q 0.099,0 0.124,0.037 0.026,0.037 0.026,0.099 0,0.05 -0.023,0.079 -0.023,0.025 -0.11,0.037 -0.085,0.014 -0.257,0.017 -0.17,0.002 -0.468,0.002 -0.127,0 -0.21,-0.022 -0.081,-0.023 -0.132,-0.076 -0.05,-0.054 -0.076,-0.139 -0.023,-0.087 -0.031,-0.211 z m 1.842,0.252 q 0,0.068 -0.014,0.104 -0.012,0.037 -0.031,0.057 -0.017,0.02 -0.043,0.022 -0.022,0.006 -0.045,0.006 -0.076,0 -0.102,-0.034 -0.022,-0.034 -0.03,-0.152 -0.006,-0.062 -0.009,-0.181 l -0.006,-0.282 -0.002,-0.361 v -0.418 q 0,-0.105 0.025,-0.212 0.025,-0.107 0.096,-0.195 0.073,-0.087 0.2,-0.14 0.13,-0.054 0.336,-0.054 0.144,0 0.274,0.03 0.13,0.032 0.228,0.108 0.1,0.076 0.159,0.203 0.059,0.127 0.059,0.316 0,0.198 -0.065,0.328 -0.065,0.13 -0.184,0.206 -0.118,0.076 -0.282,0.107 -0.163,0.031 -0.358,0.031 h -0.096 q -0.048,0 -0.107,-0.006 z m 0.813,-1.188 q 0,-0.19 -0.108,-0.285 -0.104,-0.096 -0.35,-0.096 -0.093,0 -0.16,0.017 -0.065,0.014 -0.108,0.053 -0.042,0.037 -0.065,0.102 -0.02,0.065 -0.02,0.164 v 0.22 q 0,0.121 0.003,0.228 0.065,0.003 0.144,0.003 h 0.153 q 0.084,0 0.175,-0.011 0.093,-0.012 0.166,-0.051 0.074,-0.042 0.122,-0.121 0.048,-0.082 0.048,-0.223 z"
       style="font-weight:400;font-size:2.82200003px;font-family:Sniglet;-inkscape-font-specification:'Sniglet, Normal';font-variant-ligatures:normal;font-variant-caps:normal;font-variant-numeric:normal;font-feature-settings:normal;text-align:start;letter-spacing:0;word-spacing:0;stroke-width:0.26499999"
       aria-label="AUTOSTEP"
       font-weight="400"
       font-size="2.822"
       letter-spacing="0"
       word-spacing="0"
       id="path100"
       inkscape:connector-curvature="0" />
  </g>
  <path
     d="m 83.856481,15.809053 h -2.484 m 15.489395,0 h -2.484 m -43.86155,0 h -2.483"
     id="path104"
     inkscape:connector-curvature="0"
     style="fill:none;stroke:#000000;stroke-width:0.132"
     sodipodi:nodetypes="cccccc" />
  <g
     style="line-height:1.25"
     id="g108"
     transform="translate(0,1.3229838)">
    <path
       d="M 5.934,24.064 5.872,23.909 Q 5.841,23.819 5.804,23.719 L 5.626,23.725 H 5.217 q -0.099,0 -0.18,-0.003 l -0.065,0.187 q -0.031,0.087 -0.06,0.155 -0.056,0.144 -0.163,0.144 -0.04,0 -0.077,-0.026 -0.033,-0.025 -0.033,-0.073 0,-0.048 0.016,-0.124 0.017,-0.08 0.043,-0.167 0.028,-0.09 0.06,-0.183 0.03,-0.096 0.058,-0.178 0.029,-0.09 0.08,-0.229 l 0.112,-0.293 0.119,-0.3 q 0.059,-0.149 0.107,-0.259 0.011,-0.028 0.028,-0.062 0.017,-0.037 0.04,-0.068 0.025,-0.03 0.053,-0.053 0.031,-0.023 0.068,-0.023 0.037,0 0.068,0.025 0.03,0.023 0.053,0.057 0.026,0.034 0.043,0.07 0.02,0.037 0.03,0.065 0.046,0.113 0.102,0.26 0.06,0.147 0.116,0.296 0.06,0.15 0.11,0.285 0.051,0.136 0.082,0.229 0.025,0.082 0.057,0.175 0.033,0.093 0.062,0.183 0.028,0.09 0.045,0.17 0.02,0.076 0.02,0.124 0,0.048 -0.037,0.073 -0.034,0.026 -0.074,0.026 -0.05,0 -0.093,-0.034 -0.042,-0.037 -0.073,-0.11 z m -0.5,-0.621 q 0.068,0 0.136,0.003 0.068,0 0.135,0.003 L 5.638,23.251 5.573,23.061 5.519,22.895 5.479,22.757 Q 5.469,22.72 5.454,22.697 5.44,22.675 5.417,22.675 5.395,22.675 5.381,22.701 5.367,22.723 5.355,22.76 5.322,22.876 5.259,23.062 5.2,23.245 5.132,23.449 5.209,23.446 5.285,23.446 5.361,23.443 5.435,23.443 Z M 7.31,22.492 Q 7.231,22.497 7.14,22.5 l -0.194,0.006 0.006,0.144 0.005,0.133 q 0.003,0.067 0.003,0.14 0.003,0.074 0.003,0.164 v 0.246 q 0,0.116 -0.003,0.234 l -0.006,0.234 q -0.002,0.119 -0.008,0.246 -0.003,0.068 -0.014,0.104 -0.009,0.037 -0.026,0.057 -0.017,0.02 -0.04,0.022 -0.022,0.006 -0.05,0.006 -0.05,0 -0.087,-0.034 Q 6.695,24.165 6.689,24.05 6.683,23.948 6.681,23.835 6.681,23.722 6.678,23.592 6.675,23.462 6.675,23.313 V 22.707 Q 6.678,22.591 6.683,22.506 H 6.568 q -0.119,0 -0.203,-0.003 Q 6.283,22.5 6.229,22.489 6.175,22.475 6.15,22.447 6.127,22.418 6.127,22.367 q 0,-0.025 0.006,-0.045 0.006,-0.022 0.026,-0.039 0.02,-0.02 0.053,-0.031 0.037,-0.011 0.093,-0.017 l 0.096,-0.006 0.085,-0.005 q 0.042,-0.003 0.087,-0.003 h 0.105 q 0.166,0 0.313,0.003 0.15,0.003 0.316,0.011 0.068,0.006 0.105,0.017 0.036,0.009 0.056,0.025 0.02,0.017 0.023,0.04 0.005,0.022 0.005,0.05 0,0.052 -0.036,0.085 -0.034,0.034 -0.15,0.04 z m 1.538,0 q -0.08,0.005 -0.17,0.008 l -0.194,0.006 0.005,0.144 0.006,0.133 q 0.003,0.067 0.003,0.14 0.003,0.074 0.003,0.164 v 0.246 q 0,0.116 -0.003,0.234 l -0.006,0.234 -0.008,0.246 q -0.003,0.068 -0.014,0.104 -0.009,0.037 -0.026,0.057 -0.017,0.02 -0.04,0.022 -0.022,0.006 -0.05,0.006 -0.05,0 -0.088,-0.034 Q 8.233,24.165 8.227,24.05 8.221,23.948 8.219,23.835 8.219,23.722 8.216,23.592 8.213,23.462 8.213,23.313 V 22.707 Q 8.216,22.591 8.221,22.506 H 8.106 q -0.119,0 -0.204,-0.003 Q 7.821,22.5 7.767,22.489 7.713,22.475 7.688,22.447 7.665,22.418 7.665,22.367 q 0,-0.025 0.006,-0.045 0.006,-0.022 0.025,-0.039 0.02,-0.02 0.054,-0.031 0.037,-0.011 0.093,-0.017 l 0.096,-0.006 0.085,-0.005 q 0.042,-0.003 0.087,-0.003 h 0.105 q 0.166,0 0.313,0.003 0.15,0.003 0.316,0.011 0.068,0.006 0.104,0.017 0.037,0.009 0.057,0.025 0.02,0.017 0.023,0.04 0.005,0.022 0.005,0.05 0,0.052 -0.037,0.085 -0.033,0.034 -0.15,0.04 z m 1.396,1.572 -0.062,-0.155 q -0.03,-0.09 -0.067,-0.19 l -0.178,0.006 h -0.41 q -0.098,0 -0.18,-0.003 l -0.065,0.187 q -0.031,0.087 -0.06,0.155 -0.056,0.144 -0.163,0.144 -0.04,0 -0.076,-0.026 -0.034,-0.025 -0.034,-0.073 0,-0.048 0.017,-0.124 0.017,-0.08 0.042,-0.167 l 0.06,-0.183 q 0.03,-0.096 0.059,-0.178 0.028,-0.09 0.079,-0.229 l 0.113,-0.293 0.118,-0.3 q 0.06,-0.149 0.108,-0.259 0.01,-0.028 0.028,-0.062 0.017,-0.037 0.04,-0.068 0.025,-0.03 0.053,-0.053 0.03,-0.023 0.068,-0.023 0.036,0 0.067,0.025 0.031,0.023 0.054,0.057 0.025,0.034 0.042,0.07 0.02,0.037 0.031,0.065 0.046,0.113 0.102,0.26 0.06,0.147 0.116,0.296 0.059,0.15 0.11,0.285 0.05,0.136 0.082,0.229 0.025,0.082 0.056,0.175 0.034,0.093 0.062,0.183 0.028,0.09 0.045,0.17 0.02,0.076 0.02,0.124 0,0.048 -0.037,0.073 -0.034,0.026 -0.073,0.026 -0.05,0 -0.093,-0.034 -0.043,-0.037 -0.074,-0.11 z m -0.5,-0.621 q 0.069,0 0.136,0.003 0.068,0 0.136,0.003 L 9.948,23.251 9.883,23.061 9.83,22.895 9.79,22.757 Q 9.779,22.72 9.765,22.697 9.751,22.675 9.728,22.675 q -0.023,0 -0.037,0.026 -0.014,0.022 -0.025,0.059 -0.034,0.116 -0.096,0.302 l -0.127,0.387 q 0.076,-0.003 0.152,-0.003 0.077,-0.003 0.15,-0.003 z m 1.754,-1.233 q 0.093,0 0.187,0.017 0.095,0.014 0.172,0.048 0.076,0.03 0.124,0.079 0.05,0.045 0.05,0.107 0,0.065 -0.033,0.099 -0.034,0.033 -0.085,0.033 -0.048,0 -0.085,-0.014 -0.036,-0.017 -0.084,-0.036 -0.045,-0.02 -0.11,-0.034 -0.065,-0.017 -0.172,-0.017 -0.108,0 -0.206,0.056 -0.096,0.054 -0.17,0.153 -0.07,0.096 -0.113,0.228 -0.042,0.133 -0.042,0.288 0,0.192 0.048,0.33 0.05,0.139 0.13,0.229 0.079,0.087 0.178,0.133 0.101,0.042 0.203,0.042 0.121,0 0.203,-0.025 0.082,-0.026 0.138,-0.057 0.06,-0.031 0.102,-0.056 0.042,-0.026 0.082,-0.026 0.048,0 0.076,0.028 0.028,0.026 0.028,0.094 0,0.056 -0.045,0.115 -0.042,0.057 -0.127,0.105 -0.082,0.045 -0.198,0.076 -0.115,0.028 -0.26,0.028 -0.157,0 -0.315,-0.062 -0.156,-0.062 -0.28,-0.183 -0.121,-0.125 -0.197,-0.308 -0.076,-0.186 -0.076,-0.432 0,-0.245 0.067,-0.437 0.07,-0.192 0.19,-0.325 0.12,-0.135 0.279,-0.206 0.16,-0.07 0.341,-0.07 z m 1.986,1.823 -0.011,-0.32 Q 13.47,23.545 13.47,23.324 l -0.192,0.006 h -0.44 q -0.105,0 -0.187,-0.003 l -0.005,0.345 q -0.003,0.163 -0.011,0.358 -0.003,0.068 -0.015,0.104 -0.008,0.037 -0.025,0.057 -0.017,0.02 -0.04,0.022 -0.02,0.006 -0.047,0.006 -0.051,0 -0.085,-0.034 -0.034,-0.037 -0.04,-0.152 -0.005,-0.102 -0.008,-0.212 0,-0.11 -0.003,-0.237 -0.003,-0.127 -0.003,-0.274 v -0.333 q 0,-0.2 0.003,-0.341 0.003,-0.144 0.014,-0.235 0.014,-0.09 0.043,-0.132 0.028,-0.043 0.079,-0.043 0.048,0 0.084,0.032 0.037,0.03 0.043,0.143 l 0.008,0.175 0.006,0.153 q 0.002,0.073 0.002,0.152 v 0.175 q 0.212,-0.008 0.415,-0.008 0.1,0 0.198,0.003 0.101,0.002 0.206,0.008 v -0.082 q 0,-0.2 0.003,-0.341 0.003,-0.144 0.014,-0.235 0.014,-0.09 0.042,-0.132 0.028,-0.043 0.08,-0.043 0.047,0 0.084,0.031 0.037,0.032 0.042,0.144 l 0.009,0.181 0.005,0.158 q 0.003,0.076 0.003,0.161 v 0.429 q 0,0.116 -0.003,0.229 l -0.005,0.228 q -0.003,0.116 -0.009,0.243 -0.003,0.068 -0.014,0.104 -0.008,0.037 -0.025,0.057 -0.017,0.02 -0.04,0.022 -0.02,0.006 -0.048,0.006 -0.05,0 -0.084,-0.034 -0.034,-0.037 -0.04,-0.152 z"
       style="font-weight:400;font-size:2.82200003px;font-family:Sniglet;-inkscape-font-specification:'Sniglet, Normal';font-variant-ligatures:normal;font-variant-caps:normal;font-variant-numeric:normal;font-feature-settings:normal;text-align:start;letter-spacing:0;word-spacing:0;stroke-width:0.26499999"
       aria-label="ATTACH"
       font-weight="400"
       font-size="2.822"
       letter-spacing="0"
       word-spacing="0"
       id="path106"
       inkscape:connector-curvature="0" />
  </g>
  <path
     d="m 9.288,66.384707 v -2.484"
     id="path110"
     inkscape:connector-curvature="0"
     style="fill:none;stroke:#000000;stroke-width:0.132" />
</svg>
