<?xml version="1.0" encoding="UTF-8" standalone="no"?>
<svg
   xmlns:dc="http://purl.org/dc/elements/1.1/"
   xmlns:cc="http://creativecommons.org/ns#"
   xmlns:rdf="http://www.w3.org/1999/02/22-rdf-syntax-ns#"
   xmlns:svg="http://www.w3.org/2000/svg"
   xmlns="http://www.w3.org/2000/svg"
   xmlns:sodipodi="http://sodipodi.sourceforge.net/DTD/sodipodi-0.dtd"
   xmlns:inkscape="http://www.inkscape.org/namespaces/inkscape"
   width="435"
   height="380"
   viewBox="0 0 115.09418 100.542"
   version="1.1"
   id="svg154"
   sodipodi:docname="CvPad.svg"
   inkscape:version="0.92.4 (5da689c313, 2019-01-14)">
  <metadata
     id="metadata160">
    <rdf:RDF>
      <cc:Work
         rdf:about="">
        <dc:format>image/svg+xml</dc:format>
        <dc:type
           rdf:resource="http://purl.org/dc/dcmitype/StillImage" />
        <dc:title></dc:title>
      </cc:Work>
    </rdf:RDF>
  </metadata>
  <defs
     id="defs158" />
  <sodipodi:namedview
     pagecolor="#ffffff"
     bordercolor="#666666"
     borderopacity="1"
     objecttolerance="10"
     gridtolerance="10"
     guidetolerance="10"
     inkscape:pageopacity="0"
     inkscape:pageshadow="2"
     inkscape:window-width="1920"
     inkscape:window-height="1017"
     id="namedview156"
     showgrid="false"
     inkscape:zoom="2.2368647"
     inkscape:cx="217.50001"
     inkscape:cy="189.99808"
     inkscape:window-x="-8"
     inkscape:window-y="-8"
     inkscape:window-maximized="1"
     inkscape:current-layer="svg154"
     showguides="true"
     inkscape:guide-bbox="true">
    <sodipodi:guide
       position="57.547078,79.122561"
       orientation="1,0"
       id="guide1137"
       inkscape:locked="false"
       inkscape:label=""
       inkscape:color="rgb(0,0,255)" />
    <sodipodi:guide
       position="115.09415,81.852184"
       orientation="1,0"
       id="guide951"
       inkscape:locked="false"
       inkscape:label=""
       inkscape:color="rgb(0,0,255)" />
    <sodipodi:guide
       position="124.88377,84.809272"
       orientation="1,0"
       id="guide953"
       inkscape:locked="false"
       inkscape:label=""
       inkscape:color="rgb(0,0,255)" />
    <sodipodi:guide
       position="8.762415,37.807932"
       orientation="1,0"
       id="guide862"
       inkscape:locked="false"
       inkscape:label=""
       inkscape:color="rgb(0,0,255)" />
    <sodipodi:guide
       position="34.041108,21.578884"
       orientation="0,1"
       id="guide960"
       inkscape:locked="false" />
    <sodipodi:guide
       position="33.337618,89.067483"
       orientation="1,0"
       id="guide875"
       inkscape:locked="false"
       inkscape:label=""
       inkscape:color="rgb(0,0,255)" />
    <sodipodi:guide
       position="78.316943,82.325323"
       orientation="1,0"
       id="guide877"
       inkscape:locked="false"
       inkscape:label=""
       inkscape:color="rgb(0,0,255)" />
    <sodipodi:guide
       position="94.721167,67.185034"
       orientation="1,0"
       id="guide910"
       inkscape:locked="false"
       inkscape:label=""
       inkscape:color="rgb(0,0,255)" />
    <sodipodi:guide
       position="105.83371,65.529064"
       orientation="1,0"
       id="guide912"
       inkscape:locked="false"
       inkscape:label=""
       inkscape:color="rgb(0,0,255)" />
    <sodipodi:guide
       position="100.27744,80.19622"
       orientation="1,0"
       id="guide919"
       inkscape:locked="false"
       inkscape:label=""
       inkscape:color="rgb(0,0,255)" />
  </sodipodi:namedview>
  <path
     style="fill:#dcdcdc;stroke-width:1"
     inkscape:connector-curvature="0"
     id="path2"
     d="M 0,0.00101561 H 115.09416 V 100.54202 H 0 Z m 0,0" />
  <g
     style="font-weight:400;letter-spacing:0;word-spacing:0;fill:#333333"
     id="g12"
     word-spacing="0"
     letter-spacing="0"
     font-weight="400"
     transform="translate(-2.6757342,-161.307)">
    <g
       id="g6"
       style="line-height:1.25">
      <path
         inkscape:connector-curvature="0"
         id="path4"
         aria-label="♫"
         font-size="3.528"
         d="m 68.733,258.177 -1.631,0.115 v -2.06 q 0,-0.23 0.065,-0.333 0.064,-0.104 0.22,-0.147 0.153,-0.043 0.348,-0.002 0.223,0.047 0.356,0.19 0.134,0.146 0.134,0.33 0,0.186 -0.158,0.286 -0.158,0.103 -0.408,0.05 -0.082,-0.018 -0.143,-0.044 -0.064,-0.027 -0.205,-0.11 v 1.345 l 1.219,-0.085 v -1.554 q 0,-0.225 0.065,-0.337 0.066,-0.11 0.226,-0.151 0.16,-0.04 0.348,0 0.223,0.047 0.354,0.19 0.13,0.14 0.13,0.325 0,0.195 -0.156,0.294 -0.156,0.1 -0.408,0.047 -0.16,-0.034 -0.356,-0.16 z"
         style="font-size:3.52800012px;font-family:Arial;-inkscape-font-specification:'Arial, Normal';font-variant-ligatures:normal;font-variant-caps:normal;font-variant-numeric:normal;font-feature-settings:normal;text-align:start" />
    </g>
    <g
       id="g10"
       style="line-height:1.25">
      <path
         inkscape:connector-curvature="0"
         id="path8"
         font-size="3.528"
         aria-label="IMPROMPT"
         style="font-size:3.52800012px;font-family:Sniglet;-inkscape-font-specification:'Sniglet, Normal';font-variant-ligatures:normal;font-variant-caps:normal;font-variant-numeric:normal;font-feature-settings:normal;text-align:start"
         d="m 50.714,258.005 q -0.007,-0.127 -0.01,-0.265 0,-0.137 -0.004,-0.296 -0.003,-0.159 -0.003,-0.342 v -0.417 q 0,-0.25 0.003,-0.426 0.004,-0.18 0.021,-0.293 0.018,-0.113 0.053,-0.166 0.04,-0.053 0.103,-0.053 0.031,0 0.06,0.007 0.028,0.007 0.049,0.032 0.021,0.02 0.035,0.067 0.018,0.042 0.021,0.113 0.008,0.127 0.011,0.225 l 0.007,0.198 q 0.004,0.095 0.004,0.201 v 0.536 q 0,0.145 -0.004,0.286 l -0.007,0.286 -0.01,0.303 q -0.004,0.085 -0.018,0.13 -0.014,0.047 -0.036,0.071 -0.02,0.025 -0.049,0.028 -0.028,0.007 -0.063,0.007 -0.064,0 -0.11,-0.042 -0.046,-0.046 -0.053,-0.19 z m 1.754,-0.381 q -0.162,-0.357 -0.29,-0.688 -0.123,-0.335 -0.21,-0.596 -0.082,0.437 -0.138,0.882 -0.053,0.444 -0.138,0.85 -0.021,0.092 -0.078,0.123 -0.056,0.028 -0.095,0.028 -0.063,0 -0.102,-0.038 -0.035,-0.04 -0.035,-0.1 0,-0.08 0.017,-0.246 0.021,-0.17 0.05,-0.381 0.031,-0.212 0.07,-0.445 0.039,-0.232 0.078,-0.448 l 0.077,-0.395 q 0.04,-0.176 0.067,-0.271 0.046,-0.163 0.187,-0.163 0.085,0 0.145,0.085 0.06,0.081 0.127,0.254 0.07,0.17 0.166,0.43 0.099,0.262 0.254,0.614 0.151,-0.352 0.243,-0.61 0.095,-0.261 0.159,-0.43 0.067,-0.173 0.127,-0.254 0.06,-0.085 0.148,-0.085 0.081,0 0.124,0.042 0.042,0.039 0.063,0.12 0.025,0.099 0.06,0.275 0.035,0.173 0.074,0.388 0.042,0.212 0.081,0.445 0.04,0.233 0.07,0.444 0.033,0.212 0.05,0.385 0.021,0.17 0.021,0.261 0,0.056 -0.038,0.092 -0.04,0.031 -0.1,0.031 -0.038,0 -0.094,-0.028 -0.057,-0.032 -0.078,-0.123 -0.042,-0.201 -0.078,-0.417 l -0.063,-0.433 -0.057,-0.441 q -0.028,-0.223 -0.06,-0.441 -0.045,0.14 -0.105,0.31 -0.06,0.17 -0.127,0.342 -0.067,0.17 -0.138,0.335 -0.07,0.166 -0.138,0.3 -0.024,0.046 -0.067,0.07 -0.038,0.022 -0.08,0.022 -0.047,0 -0.089,-0.021 -0.039,-0.025 -0.06,-0.074 z m 2.005,0.377 q 0,0.085 -0.018,0.13 -0.014,0.047 -0.038,0.071 -0.022,0.025 -0.053,0.029 -0.029,0.007 -0.057,0.007 -0.095,0 -0.127,-0.043 -0.028,-0.042 -0.039,-0.19 -0.007,-0.078 -0.01,-0.226 -0.004,-0.148 -0.007,-0.353 0,-0.204 -0.004,-0.451 v -0.522 q 0,-0.131 0.032,-0.265 0.032,-0.134 0.12,-0.243 0.092,-0.11 0.25,-0.177 0.163,-0.067 0.42,-0.067 0.18,0 0.342,0.039 0.163,0.039 0.286,0.134 0.124,0.095 0.198,0.254 0.074,0.159 0.074,0.395 0,0.247 -0.081,0.41 -0.082,0.162 -0.23,0.257 -0.148,0.095 -0.352,0.134 -0.205,0.039 -0.448,0.039 h -0.12 q -0.06,0 -0.134,-0.007 z m 1.016,-1.485 q 0,-0.236 -0.134,-0.356 -0.13,-0.12 -0.437,-0.12 -0.117,0 -0.202,0.021 -0.08,0.018 -0.134,0.067 -0.053,0.046 -0.08,0.127 -0.025,0.081 -0.025,0.205 v 0.275 q 0,0.151 0.003,0.286 0.081,0.004 0.18,0.004 h 0.19 q 0.106,0 0.22,-0.015 0.116,-0.014 0.207,-0.063 0.092,-0.053 0.152,-0.152 0.06,-0.102 0.06,-0.278 z m 1.451,0.84 -0.102,0.007 h -0.222 q -0.06,0 -0.134,-0.007 v 0.716 q 0,0.113 -0.057,0.14 -0.053,0.026 -0.134,0.026 -0.042,0 -0.067,-0.007 -0.025,-0.004 -0.042,-0.018 -0.014,-0.018 -0.025,-0.05 -0.007,-0.031 -0.01,-0.088 -0.008,-0.063 -0.011,-0.183 -0.004,-0.123 -0.007,-0.318 0,-0.194 -0.004,-0.469 v -0.652 q 0,-0.145 0.036,-0.279 0.035,-0.138 0.127,-0.24 0.091,-0.106 0.246,-0.17 0.16,-0.063 0.403,-0.063 0.173,0 0.335,0.039 0.166,0.039 0.293,0.134 0.127,0.095 0.204,0.258 0.078,0.162 0.078,0.405 0,0.325 -0.141,0.505 -0.138,0.176 -0.381,0.25 l 0.472,0.65 q 0.064,0.084 0.064,0.172 0,0.07 -0.05,0.11 -0.045,0.042 -0.116,0.042 -0.077,0 -0.134,-0.042 -0.056,-0.046 -0.106,-0.117 z m 0.554,-0.822 q 0,-0.244 -0.148,-0.36 -0.145,-0.12 -0.462,-0.12 -0.117,0 -0.194,0.021 -0.078,0.018 -0.124,0.07 -0.046,0.054 -0.067,0.149 -0.017,0.091 -0.017,0.236 v 0.24 q 0,0.138 0.003,0.25 0.081,0.005 0.18,0.005 h 0.19 q 0.1,0 0.209,-0.011 0.113,-0.014 0.208,-0.064 0.095,-0.052 0.159,-0.148 0.063,-0.099 0.063,-0.268 z m 1.609,1.725 q -0.211,0 -0.398,-0.085 -0.184,-0.085 -0.321,-0.243 -0.138,-0.163 -0.219,-0.395 -0.078,-0.233 -0.078,-0.53 0,-0.278 0.067,-0.511 0.07,-0.233 0.205,-0.402 0.138,-0.17 0.339,-0.261 0.2,-0.096 0.465,-0.096 0.216,0 0.41,0.078 0.194,0.078 0.338,0.233 0.148,0.155 0.233,0.388 0.085,0.233 0.085,0.543 0,0.258 -0.07,0.49 -0.068,0.233 -0.209,0.41 -0.138,0.173 -0.35,0.278 -0.21,0.103 -0.497,0.103 z m 0.007,-0.332 q 0.194,0 0.34,-0.077 0.144,-0.082 0.239,-0.212 0.095,-0.13 0.141,-0.3 0.046,-0.173 0.046,-0.353 0,-0.218 -0.06,-0.388 -0.056,-0.173 -0.155,-0.29 -0.099,-0.115 -0.23,-0.175 -0.13,-0.064 -0.278,-0.064 -0.177,0 -0.31,0.074 -0.131,0.074 -0.223,0.201 -0.088,0.127 -0.134,0.3 -0.046,0.17 -0.046,0.363 0,0.209 0.053,0.381 0.053,0.17 0.141,0.29 0.092,0.12 0.215,0.187 0.124,0.063 0.261,0.063 z m 2.384,-0.303 q -0.162,-0.357 -0.289,-0.688 -0.124,-0.335 -0.212,-0.596 -0.08,0.437 -0.137,0.882 -0.053,0.444 -0.138,0.85 -0.021,0.092 -0.077,0.123 -0.057,0.028 -0.096,0.028 -0.063,0 -0.102,-0.038 -0.035,-0.04 -0.035,-0.1 0,-0.08 0.017,-0.246 0.021,-0.17 0.05,-0.381 0.031,-0.212 0.07,-0.445 l 0.078,-0.448 0.077,-0.395 q 0.04,-0.176 0.068,-0.271 0.045,-0.163 0.186,-0.163 0.085,0 0.145,0.085 0.06,0.081 0.127,0.254 0.07,0.17 0.166,0.43 0.099,0.262 0.254,0.614 0.152,-0.352 0.243,-0.61 0.096,-0.261 0.16,-0.43 0.066,-0.173 0.126,-0.254 0.06,-0.085 0.148,-0.085 0.081,0 0.124,0.042 0.042,0.039 0.063,0.12 0.025,0.099 0.06,0.275 0.035,0.173 0.074,0.388 0.043,0.212 0.081,0.445 0.04,0.233 0.071,0.444 0.032,0.212 0.05,0.385 0.02,0.17 0.02,0.261 0,0.056 -0.038,0.092 -0.04,0.031 -0.099,0.031 -0.039,0 -0.095,-0.028 -0.057,-0.032 -0.078,-0.123 -0.042,-0.201 -0.078,-0.417 l -0.063,-0.433 -0.056,-0.441 q -0.029,-0.223 -0.06,-0.441 -0.046,0.14 -0.106,0.31 -0.06,0.17 -0.127,0.342 -0.067,0.17 -0.138,0.335 -0.07,0.166 -0.137,0.3 -0.025,0.046 -0.067,0.07 -0.04,0.022 -0.082,0.022 -0.045,0 -0.088,-0.021 -0.039,-0.025 -0.06,-0.074 z m 2.006,0.377 q 0,0.085 -0.018,0.13 -0.015,0.047 -0.04,0.071 -0.02,0.025 -0.052,0.029 -0.028,0.007 -0.057,0.007 -0.095,0 -0.127,-0.043 -0.028,-0.042 -0.038,-0.19 -0.008,-0.078 -0.011,-0.226 -0.004,-0.148 -0.007,-0.353 0,-0.204 -0.004,-0.451 v -0.522 q 0,-0.131 0.032,-0.265 0.032,-0.134 0.12,-0.243 0.092,-0.11 0.25,-0.177 0.163,-0.067 0.42,-0.067 0.18,0 0.343,0.039 0.162,0.039 0.285,0.134 0.124,0.095 0.198,0.254 0.074,0.159 0.074,0.395 0,0.247 -0.081,0.41 -0.081,0.162 -0.23,0.257 -0.148,0.095 -0.352,0.134 -0.205,0.039 -0.448,0.039 h -0.12 q -0.06,0 -0.134,-0.007 z m 1.015,-1.485 q 0,-0.236 -0.134,-0.356 -0.13,-0.12 -0.437,-0.12 -0.117,0 -0.201,0.021 -0.082,0.018 -0.134,0.067 -0.053,0.046 -0.082,0.127 -0.024,0.081 -0.024,0.205 v 0.275 q 0,0.151 0.003,0.286 0.081,0.004 0.18,0.004 h 0.19 q 0.106,0 0.22,-0.015 0.116,-0.014 0.207,-0.063 0.092,-0.053 0.152,-0.152 0.06,-0.102 0.06,-0.278 z m 1.975,-0.437 q -0.1,0.007 -0.212,0.01 l -0.244,0.007 0.007,0.18 0.007,0.166 q 0.004,0.085 0.004,0.176 0.003,0.092 0.003,0.205 v 0.307 q 0,0.144 -0.003,0.293 l -0.007,0.292 -0.01,0.307 q -0.004,0.085 -0.018,0.13 -0.011,0.047 -0.032,0.072 -0.021,0.024 -0.05,0.028 -0.028,0.007 -0.063,0.007 -0.064,0 -0.11,-0.043 -0.042,-0.045 -0.049,-0.19 -0.007,-0.127 -0.01,-0.268 0,-0.141 -0.004,-0.304 -0.003,-0.162 -0.003,-0.349 v -0.758 q 0.003,-0.145 0.01,-0.25 h -0.145 q -0.148,0 -0.254,-0.005 -0.102,-0.004 -0.169,-0.017 -0.067,-0.018 -0.099,-0.053 -0.028,-0.036 -0.028,-0.1 0,-0.03 0.007,-0.055 0.007,-0.029 0.032,-0.05 0.025,-0.025 0.067,-0.039 0.046,-0.014 0.116,-0.02 l 0.12,-0.008 0.106,-0.007 q 0.053,-0.004 0.11,-0.004 h 0.13 q 0.208,0 0.392,0.004 0.187,0.004 0.395,0.014 0.084,0.007 0.13,0.021 0.046,0.011 0.07,0.032 0.026,0.021 0.03,0.05 0.006,0.028 0.006,0.063 0,0.064 -0.046,0.106 -0.042,0.042 -0.187,0.05 z" />
    </g>
  </g>
  <rect
     style="fill:#999999;stroke-width:0.99999994;paint-order:stroke markers fill"
     id="rect58"
     rx="2.3399997"
     ry="2.3399999"
     y="39.765034"
     x="88.90033"
     height="52.004692"
     width="22.754248" />
  <rect
     ry="0.84500003"
     rx="0.84500003"
     y="26.193846"
     x="19.050068"
     height="10.58337"
     width="10.58337"
     id="rect42-0-3"
     style="fill:#a0a0a0;stroke:#646464;stroke-width:0.52916855;stroke-miterlimit:4;stroke-dasharray:none;paint-order:stroke markers fill" />
  <g
     aria-label="CV-PAD"
     style="font-style:normal;font-weight:normal;font-size:10.58337021px;line-height:1.25;font-family:sans-serif;letter-spacing:0px;word-spacing:0px;fill:#000000;fill-opacity:1;stroke:none;stroke-width:0.26458427"
     id="text1141"
     transform="translate(-9.8595895)">
    <path
       d="m 61.692948,3.5321997 q 0.1397,0 0.279401,0.0254 0.143934,0.021167 0.258234,0.071967 0.114301,0.046567 0.186268,0.1185338 0.0762,0.067734 0.0762,0.1608672 0,0.097367 -0.0508,0.1481672 -0.0508,0.0508 -0.127001,0.0508 -0.07197,0 -0.127,-0.021167 -0.05503,-0.0254 -0.127001,-0.055034 -0.06773,-0.029633 -0.1651,-0.0508 -0.09737,-0.0254 -0.258235,-0.0254 -0.160867,0 -0.309034,0.084667 -0.143934,0.080434 -0.254001,0.2286008 -0.105834,0.1439339 -0.169334,0.3429013 -0.0635,0.1989673 -0.0635,0.4318015 0,0.2878677 0.07197,0.4953017 0.0762,0.2074341 0.194734,0.3429013 0.118534,0.1312338 0.266701,0.1989673 0.1524,0.0635 0.304801,0.0635 0.182034,0 0.304801,-0.0381 0.122767,-0.0381 0.207434,-0.084667 0.0889,-0.046567 0.152401,-0.084667 0.0635,-0.0381 0.122767,-0.0381 0.07197,0 0.1143,0.042333 0.04233,0.0381 0.04233,0.1397005 0,0.084667 -0.06773,0.1735673 -0.0635,0.084667 -0.190501,0.1566339 -0.122767,0.067734 -0.296334,0.1143004 -0.173567,0.042333 -0.389468,0.042333 -0.237068,0 -0.474135,-0.093134 Q 60.973282,6.3812409 60.787014,6.1992073 60.60498,6.01294 60.49068,5.7377723 60.37638,5.4583713 60.37638,5.09007 q 0,-0.3683013 0.1016,-0.656169 0.105834,-0.2878677 0.283634,-0.486835 0.182034,-0.2032008 0.419102,-0.3090345 0.241301,-0.1058337 0.512235,-0.1058337 z"
       style="font-style:normal;font-variant:normal;font-weight:normal;font-stretch:normal;font-size:4.23334837px;font-family:Sniglet;-inkscape-font-specification:'Sniglet, Normal';font-variant-ligatures:normal;font-variant-caps:normal;font-variant-numeric:normal;font-feature-settings:normal;text-align:start;writing-mode:lr-tb;text-anchor:start;stroke-width:0.26458427"
       id="path1143"
       inkscape:connector-curvature="0" />
    <path
       d="m 64.155103,6.3600764 q -0.05503,0.1016004 -0.1016,0.1481672 -0.04233,0.046567 -0.110067,0.046567 -0.06773,0 -0.118534,-0.046567 -0.0508,-0.046567 -0.110067,-0.1439338 Q 63.638635,6.2373093 63.541268,6.0129419 63.448134,5.7885744 63.350767,5.5261068 63.2534,5.2594059 63.160266,4.9757715 63.067133,4.6921372 62.990932,4.4423696 62.918965,4.1926021 62.872398,4.0063347 q -0.04233,-0.1905006 -0.04233,-0.2709343 0,-0.084667 0.03387,-0.1270004 0.03387,-0.042334 0.131234,-0.042334 0.05503,0 0.09313,0.029633 0.04233,0.0254 0.105834,0.1524006 0.0508,0.097367 0.110067,0.2540009 0.05927,0.1566339 0.122767,0.3471346 0.06773,0.1905006 0.135467,0.402168 0.06773,0.2074341 0.135467,0.4148682 0.06773,0.2074341 0.127001,0.3979347 0.05927,0.1905007 0.110067,0.3429013 0.0508,-0.1566339 0.1143,-0.3471346 0.0635,-0.194734 0.131234,-0.3979348 0.06773,-0.207434 0.135467,-0.4148681 0.06773,-0.2116674 0.135467,-0.3979347 0.06773,-0.1862674 0.127001,-0.3429013 0.05927,-0.1566339 0.105834,-0.2582342 0.05927,-0.1227671 0.1016,-0.1524006 0.04657,-0.029633 0.09313,-0.029633 0.09737,0 0.131233,0.0508 0.0381,0.046567 0.0381,0.1397005 0,0.084667 -0.0254,0.2032007 -0.0254,0.1185338 -0.0889,0.3175011 -0.05927,0.1947341 -0.160867,0.4868351 -0.1016,0.292101 -0.249768,0.7154359 -0.0381,0.1143004 -0.0889,0.2370675 -0.04657,0.1227671 -0.09737,0.2413008 -0.04657,0.1143004 -0.09313,0.2201341 -0.04657,0.1058338 -0.0889,0.1820347 z"
       style="font-style:normal;font-variant:normal;font-weight:normal;font-stretch:normal;font-size:4.23334837px;font-family:Sniglet;-inkscape-font-specification:'Sniglet, Normal';font-variant-ligatures:normal;font-variant-caps:normal;font-variant-numeric:normal;font-feature-settings:normal;text-align:start;writing-mode:lr-tb;text-anchor:start;stroke-width:0.26458427"
       id="path1145"
       inkscape:connector-curvature="0" />
    <path
       d="m 66.802864,5.4710733 q -0.194734,0.00847 -0.448735,0.016933 -0.254001,0.00423 -0.601135,0.00423 -0.143934,0 -0.245534,-0.00423 -0.101601,-0.00423 -0.165101,-0.021167 -0.0635,-0.021167 -0.09313,-0.0635 -0.02963,-0.042333 -0.02963,-0.1185338 0,-0.0381 0.0085,-0.067734 0.0085,-0.033867 0.0381,-0.059267 0.02963,-0.0254 0.08043,-0.042334 0.05503,-0.021167 0.139701,-0.029633 0.0635,-0.00423 0.110067,-0.00847 0.0508,-0.00423 0.09737,-0.00423 0.04657,-0.00423 0.09737,-0.00423 0.05503,0 0.127,0 0.228601,0 0.440269,0.00423 0.211667,0 0.440268,0.0127 0.1016,0.00847 0.156634,0.0254 0.05503,0.0127 0.08467,0.0381 0.02963,0.0254 0.03387,0.059267 0.0085,0.033867 0.0085,0.0762 0,0.0762 -0.05503,0.1270005 -0.0508,0.0508 -0.224368,0.059267 z"
       style="font-style:normal;font-variant:normal;font-weight:normal;font-stretch:normal;font-size:4.23334837px;font-family:Sniglet;-inkscape-font-specification:'Sniglet, Normal';font-variant-ligatures:normal;font-variant-caps:normal;font-variant-numeric:normal;font-feature-settings:normal;text-align:start;writing-mode:lr-tb;text-anchor:start;stroke-width:0.26458427"
       id="path1147"
       inkscape:connector-curvature="0" />
    <path
       d="m 67.846252,6.2627094 q 0,0.1016004 -0.02117,0.1566339 -0.01693,0.055033 -0.04657,0.084667 -0.0254,0.029633 -0.0635,0.033867 -0.03387,0.00847 -0.06773,0.00847 -0.114301,0 -0.152401,-0.0508 -0.03387,-0.0508 -0.04657,-0.2286008 -0.0085,-0.093134 -0.0127,-0.2709343 -0.0042,-0.1778007 -0.0085,-0.4233349 0,-0.2455342 -0.0042,-0.5418686 0,-0.2963343 0,-0.6265355 0,-0.1566339 0.0381,-0.3175011 0.0381,-0.1608673 0.143934,-0.2921011 0.110067,-0.1312338 0.300568,-0.2116674 0.194734,-0.080434 0.503768,-0.080434 0.215901,0 0.410635,0.046567 0.194734,0.046567 0.342901,0.1608672 0.148168,0.1143005 0.237068,0.3048011 0.0889,0.1905007 0.0889,0.474135 0,0.2963344 -0.09737,0.4910685 -0.09737,0.194734 -0.275168,0.3090344 -0.1778,0.1143004 -0.423334,0.1608672 -0.245535,0.046567 -0.537636,0.046567 -0.07197,0 -0.143933,0 -0.07197,0 -0.160868,-0.00847 z m 1.219204,-1.7822396 q 0,-0.2836344 -0.160867,-0.4275682 -0.156634,-0.1439339 -0.524935,-0.1439339 -0.139701,0 -0.241301,0.0254 -0.09737,0.021167 -0.160867,0.080434 -0.0635,0.055034 -0.09737,0.1524006 -0.02963,0.097367 -0.02963,0.2455342 0,0.1439338 0,0.3302012 0,0.1820339 0.0042,0.3429012 0.09737,0.00423 0.2159,0.00423 0.122768,0 0.228601,0 0.127001,0 0.262468,-0.016933 0.1397,-0.016933 0.249767,-0.0762 0.110067,-0.0635 0.182034,-0.182034 0.07197,-0.1227671 0.07197,-0.3344345 z"
       style="font-style:normal;font-variant:normal;font-weight:normal;font-stretch:normal;font-size:4.23334837px;font-family:Sniglet;-inkscape-font-specification:'Sniglet, Normal';font-variant-ligatures:normal;font-variant-caps:normal;font-variant-numeric:normal;font-feature-settings:normal;text-align:start;writing-mode:lr-tb;text-anchor:start;stroke-width:0.26458427"
       id="path1149"
       inkscape:connector-curvature="0" />
    <path
       d="m 71.478729,6.3135096 q -0.04233,-0.1016004 -0.09313,-0.2328342 -0.04657,-0.1354671 -0.101601,-0.2836343 -0.127,0.00423 -0.266701,0.00847 -0.1397,0 -0.283634,0 -0.182034,0 -0.330201,0 -0.148167,0 -0.270935,-0.00423 -0.0508,0.1481672 -0.09737,0.279401 -0.04657,0.1312338 -0.0889,0.2328342 -0.08467,0.2159008 -0.245534,0.2159008 -0.05927,0 -0.1143,-0.0381 -0.0508,-0.0381 -0.0508,-0.110067 0,-0.071967 0.0254,-0.1862674 0.0254,-0.1185337 0.0635,-0.2497675 0.04233,-0.1354672 0.0889,-0.2751677 0.04657,-0.1439338 0.0889,-0.2667009 0.04233,-0.1354672 0.118534,-0.3429012 0.08043,-0.2116674 0.169334,-0.4402683 0.0889,-0.2286008 0.177801,-0.4487349 0.0889,-0.2243674 0.160867,-0.389468 0.01693,-0.042333 0.04233,-0.093134 0.0254,-0.055033 0.05927,-0.1016004 0.0381,-0.046567 0.08043,-0.080434 0.04657,-0.033867 0.1016,-0.033867 0.05503,0 0.101601,0.0381 0.04657,0.033867 0.08043,0.084667 0.0381,0.0508 0.0635,0.1058338 0.02963,0.055033 0.04657,0.097367 0.06773,0.1693339 0.152401,0.389468 0.0889,0.2201341 0.173567,0.4445016 0.0889,0.2243675 0.165101,0.4275682 0.0762,0.2032007 0.122767,0.3429012 0.0381,0.1227671 0.08467,0.2624676 0.0508,0.1397005 0.09313,0.2751676 0.04233,0.1354672 0.06773,0.2540009 0.02963,0.1143004 0.02963,0.1862674 0,0.071967 -0.05503,0.110067 -0.0508,0.0381 -0.110067,0.0381 -0.0762,0 -0.139701,-0.0508 -0.0635,-0.055034 -0.110067,-0.1651006 z M 70.729427,5.382173 q 0.1016,0 0.2032,0.00423 0.101601,0 0.203201,0.00423 -0.0508,-0.1481672 -0.1016,-0.2963344 -0.0508,-0.1481672 -0.09737,-0.2836344 -0.04233,-0.1354671 -0.08043,-0.2497675 -0.03387,-0.1185338 -0.05927,-0.2074341 -0.01693,-0.055034 -0.0381,-0.0889 -0.02117,-0.033867 -0.05503,-0.033867 -0.03387,0 -0.05503,0.0381 -0.02117,0.033867 -0.0381,0.0889 -0.0508,0.1735673 -0.143934,0.4529683 -0.0889,0.2751677 -0.190501,0.5799688 0.114301,-0.00423 0.228601,-0.00423 0.114301,-0.00423 0.224368,-0.00423 z"
       style="font-style:normal;font-variant:normal;font-weight:normal;font-stretch:normal;font-size:4.23334837px;font-family:Sniglet;-inkscape-font-specification:'Sniglet, Normal';font-variant-ligatures:normal;font-variant-caps:normal;font-variant-numeric:normal;font-feature-settings:normal;text-align:start;writing-mode:lr-tb;text-anchor:start;stroke-width:0.26458427"
       id="path1151"
       inkscape:connector-curvature="0" />
    <path
       d="m 73.061538,3.5364331 q 0.436035,0 0.698503,0.1312338 0.262467,0.1312338 0.402168,0.3471345 0.1397,0.2159008 0.182034,0.4910684 0.04657,0.2751677 0.04657,0.558802 0,0.3090345 -0.08043,0.5842021 -0.0762,0.2751676 -0.241301,0.4826017 -0.160867,0.2032007 -0.414868,0.3259678 -0.254001,0.1185338 -0.605369,0.1185338 -0.279401,0 -0.448735,-0.042333 -0.1651,-0.0381 -0.258234,-0.1185337 -0.0889,-0.080434 -0.118534,-0.2032008 -0.02963,-0.1227671 -0.02963,-0.2878677 V 4.3323026 q 0,-0.182034 0.02963,-0.3302012 0.03387,-0.1481672 0.127001,-0.2497676 0.09313,-0.1058337 0.262467,-0.1608672 0.173568,-0.055033 0.448735,-0.055033 z m 0.01693,2.6162093 q 0.262467,0 0.431801,-0.093134 0.173568,-0.097367 0.275168,-0.2540009 0.1016,-0.1566339 0.1397,-0.3556013 0.04233,-0.1989673 0.04233,-0.4064014 0,-0.1905007 -0.02963,-0.3810014 -0.02963,-0.194734 -0.122768,-0.3513679 -0.09313,-0.1566339 -0.266701,-0.2540009 -0.173567,-0.097367 -0.461435,-0.097367 -0.262467,0 -0.364067,0.0762 -0.101601,0.0762 -0.101601,0.2328341 v 1.6213725 q 0,0.1312338 0.09313,0.1989673 0.09737,0.0635 0.364068,0.0635 z"
       style="font-style:normal;font-variant:normal;font-weight:normal;font-stretch:normal;font-size:4.23334837px;font-family:Sniglet;-inkscape-font-specification:'Sniglet, Normal';font-variant-ligatures:normal;font-variant-caps:normal;font-variant-numeric:normal;font-feature-settings:normal;text-align:start;writing-mode:lr-tb;text-anchor:start;stroke-width:0.26458427"
       id="path1153"
       inkscape:connector-curvature="0" />
  </g>
  <rect
     ry="0.84500003"
     rx="0.84500003"
     y="44.185547"
     x="19.050068"
     height="10.58337"
     width="10.58337"
     id="rect42-0-3-0"
     style="fill:#a0a0a0;stroke:#646464;stroke-width:0.52916855;stroke-miterlimit:4;stroke-dasharray:none;paint-order:stroke markers fill" />
  <rect
     ry="0.84500003"
     rx="0.84500003"
     y="62.177284"
     x="19.050068"
     height="10.58337"
     width="10.58337"
     id="rect42-0-3-2"
     style="fill:#a0a0a0;stroke:#646464;stroke-width:0.52916855;stroke-miterlimit:4;stroke-dasharray:none;paint-order:stroke markers fill" />
  <rect
     ry="0.84500003"
     rx="0.84500003"
     y="80.169022"
     x="19.050068"
     height="10.58337"
     width="10.58337"
     id="rect42-0-3-8"
     style="fill:#a0a0a0;stroke:#646464;stroke-width:0.52916855;stroke-miterlimit:4;stroke-dasharray:none;paint-order:stroke markers fill" />
  <rect
     ry="0.84500003"
     rx="0.84500003"
     y="26.19384"
     x="37.041798"
     height="10.58337"
     width="10.58337"
     id="rect42-0-3-3"
     style="fill:#a0a0a0;stroke:#646464;stroke-width:0.52916855;stroke-miterlimit:4;stroke-dasharray:none;paint-order:stroke markers fill" />
  <rect
     ry="0.84500003"
     rx="0.84500003"
     y="44.185539"
     x="37.041798"
     height="10.58337"
     width="10.58337"
     id="rect42-0-3-0-4"
     style="fill:#a0a0a0;stroke:#646464;stroke-width:0.52916855;stroke-miterlimit:4;stroke-dasharray:none;paint-order:stroke markers fill" />
  <rect
     ry="0.84500003"
     rx="0.84500003"
     y="62.177277"
     x="37.041798"
     height="10.58337"
     width="10.58337"
     id="rect42-0-3-2-2"
     style="fill:#a0a0a0;stroke:#646464;stroke-width:0.52916855;stroke-miterlimit:4;stroke-dasharray:none;paint-order:stroke markers fill" />
  <rect
     ry="0.84500003"
     rx="0.84500003"
     y="80.169022"
     x="37.041798"
     height="10.58337"
     width="10.58337"
     id="rect42-0-3-8-4"
     style="fill:#a0a0a0;stroke:#646464;stroke-width:0.52916855;stroke-miterlimit:4;stroke-dasharray:none;paint-order:stroke markers fill" />
  <rect
     ry="0.84500003"
     rx="0.84500003"
     y="26.19384"
     x="55.033531"
     height="10.58337"
     width="10.58337"
     id="rect42-0-3-35"
     style="fill:#a0a0a0;stroke:#646464;stroke-width:0.52916855;stroke-miterlimit:4;stroke-dasharray:none;paint-order:stroke markers fill" />
  <rect
     ry="0.84500003"
     rx="0.84500003"
     y="44.185543"
     x="55.033531"
     height="10.58337"
     width="10.58337"
     id="rect42-0-3-0-2"
     style="fill:#a0a0a0;stroke:#646464;stroke-width:0.52916855;stroke-miterlimit:4;stroke-dasharray:none;paint-order:stroke markers fill" />
  <rect
     ry="0.84500003"
     rx="0.84500003"
     y="62.17728"
     x="55.033531"
     height="10.58337"
     width="10.58337"
     id="rect42-0-3-2-5"
     style="fill:#a0a0a0;stroke:#646464;stroke-width:0.52916855;stroke-miterlimit:4;stroke-dasharray:none;paint-order:stroke markers fill" />
  <rect
     ry="0.84500003"
     rx="0.84500003"
     y="80.169022"
     x="55.033531"
     height="10.58337"
     width="10.58337"
     id="rect42-0-3-8-7"
     style="fill:#a0a0a0;stroke:#646464;stroke-width:0.52916855;stroke-miterlimit:4;stroke-dasharray:none;paint-order:stroke markers fill" />
  <rect
     ry="0.84500003"
     rx="0.84500003"
     y="26.193836"
     x="73.025276"
     height="10.58337"
     width="10.58337"
     id="rect42-0-3-3-6"
     style="fill:#a0a0a0;stroke:#646464;stroke-width:0.52916855;stroke-miterlimit:4;stroke-dasharray:none;paint-order:stroke markers fill" />
  <rect
     ry="0.84500003"
     rx="0.84500003"
     y="44.185535"
     x="73.025276"
     height="10.58337"
     width="10.58337"
     id="rect42-0-3-0-4-3"
     style="fill:#a0a0a0;stroke:#646464;stroke-width:0.52916855;stroke-miterlimit:4;stroke-dasharray:none;paint-order:stroke markers fill" />
  <rect
     ry="0.84500003"
     rx="0.84500003"
     y="62.177269"
     x="73.025276"
     height="10.58337"
     width="10.58337"
     id="rect42-0-3-2-2-0"
     style="fill:#a0a0a0;stroke:#646464;stroke-width:0.52916855;stroke-miterlimit:4;stroke-dasharray:none;paint-order:stroke markers fill" />
  <rect
     ry="0.84500003"
     rx="0.84500003"
     y="80.169022"
     x="73.025276"
     height="10.58337"
     width="10.58337"
     id="rect42-0-3-8-4-9"
     style="fill:#a0a0a0;stroke:#646464;stroke-width:0.52916855;stroke-miterlimit:4;stroke-dasharray:none;paint-order:stroke markers fill" />
  <g
     aria-label="CV"
     style="font-style:normal;font-weight:normal;font-size:10.58337021px;line-height:1.25;font-family:sans-serif;letter-spacing:0px;word-spacing:0px;fill:#000000;fill-opacity:1;stroke:none;stroke-width:0.26458427"
     id="text949"
     transform="translate(-20.372973,25.400103)">
    <path
       d="m 114.41516,17.291111 q 0.0931,0 0.18627,0.01693 0.096,0.01411 0.17216,0.04798 0.0762,0.03104 0.12418,0.07902 0.0508,0.04516 0.0508,0.107245 0,0.06491 -0.0339,0.09878 -0.0339,0.03387 -0.0847,0.03387 -0.048,0 -0.0847,-0.01411 -0.0367,-0.01693 -0.0847,-0.03669 -0.0452,-0.01975 -0.11007,-0.03387 -0.0649,-0.01693 -0.17215,-0.01693 -0.10725,0 -0.20603,0.05645 -0.096,0.05362 -0.16933,0.1524 -0.0706,0.09596 -0.11289,0.228601 -0.0423,0.132645 -0.0423,0.287868 0,0.191912 0.048,0.330201 0.0508,0.138289 0.12983,0.228601 0.079,0.08749 0.1778,0.132645 0.1016,0.04233 0.2032,0.04233 0.12135,0 0.2032,-0.0254 0.0818,-0.0254 0.13829,-0.05644 0.0593,-0.03104 0.1016,-0.05644 0.0423,-0.0254 0.0818,-0.0254 0.048,0 0.0762,0.02822 0.0282,0.0254 0.0282,0.09313 0,0.05644 -0.0452,0.115711 -0.0423,0.05645 -0.127,0.104423 -0.0819,0.04516 -0.19756,0.0762 -0.11571,0.02822 -0.25964,0.02822 -0.15805,0 -0.31609,-0.06209 -0.15523,-0.06209 -0.2794,-0.183445 -0.12136,-0.124178 -0.19756,-0.307623 -0.0762,-0.186267 -0.0762,-0.431802 0,-0.245534 0.0677,-0.437446 0.0706,-0.191911 0.18909,-0.324556 0.12136,-0.135467 0.2794,-0.206023 0.16087,-0.07056 0.34149,-0.07056 z"
       style="font-style:normal;font-variant:normal;font-weight:normal;font-stretch:normal;font-size:2.82223225px;font-family:Sniglet;-inkscape-font-specification:'Sniglet, Normal';font-variant-ligatures:normal;font-variant-caps:normal;font-variant-numeric:normal;font-feature-settings:normal;text-align:start;writing-mode:lr-tb;text-anchor:start;stroke-width:0.26458427"
       id="path982"
       inkscape:connector-curvature="0" />
    <path
       d="m 116.0566,19.176362 q -0.0367,0.06773 -0.0677,0.09878 -0.0282,0.03104 -0.0734,0.03104 -0.0452,0 -0.079,-0.03104 -0.0339,-0.03104 -0.0734,-0.09596 -0.0508,-0.08467 -0.11571,-0.234245 -0.0621,-0.149578 -0.127,-0.324557 -0.0649,-0.1778 -0.127,-0.36689 -0.0621,-0.189089 -0.11289,-0.355601 -0.048,-0.166512 -0.079,-0.29069 -0.0282,-0.127001 -0.0282,-0.180623 0,-0.05645 0.0226,-0.08467 0.0226,-0.02822 0.0875,-0.02822 0.0367,0 0.0621,0.01975 0.0282,0.01693 0.0705,0.101601 0.0339,0.06491 0.0734,0.169334 0.0395,0.104422 0.0819,0.231423 0.0452,0.127 0.0903,0.268112 0.0451,0.138289 0.0903,0.276579 0.0452,0.138289 0.0847,0.265289 0.0395,0.127001 0.0734,0.228601 0.0339,-0.104422 0.0762,-0.231423 0.0423,-0.129823 0.0875,-0.26529 0.0452,-0.138289 0.0903,-0.276578 0.0452,-0.141112 0.0903,-0.26529 0.0452,-0.124178 0.0847,-0.228601 0.0395,-0.104423 0.0706,-0.172156 0.0395,-0.08184 0.0677,-0.101601 0.0311,-0.01975 0.0621,-0.01975 0.0649,0 0.0875,0.03387 0.0254,0.03104 0.0254,0.09313 0,0.05645 -0.0169,0.135467 -0.0169,0.07902 -0.0593,0.211668 -0.0395,0.129822 -0.10724,0.324556 -0.0677,0.194735 -0.16652,0.476958 -0.0254,0.0762 -0.0593,0.158045 -0.031,0.08184 -0.0649,0.160867 -0.031,0.0762 -0.0621,0.146756 -0.0311,0.07056 -0.0593,0.121356 z"
       style="font-style:normal;font-variant:normal;font-weight:normal;font-stretch:normal;font-size:2.82223225px;font-family:Sniglet;-inkscape-font-specification:'Sniglet, Normal';font-variant-ligatures:normal;font-variant-caps:normal;font-variant-numeric:normal;font-feature-settings:normal;text-align:start;writing-mode:lr-tb;text-anchor:start;stroke-width:0.26458427"
       id="path984"
       inkscape:connector-curvature="0" />
  </g>
  <g
     aria-label="GATE"
     style="font-style:normal;font-weight:normal;font-size:10.58337021px;line-height:1.25;font-family:sans-serif;letter-spacing:0px;word-spacing:0px;fill:#000000;fill-opacity:1;stroke:none;stroke-width:0.26458427"
     id="text949-8"
     transform="translate(-18.785467,25.400103)">
    <path
       d="m 122.25647,17.203621 q 0.0931,0 0.19191,0.01693 0.0988,0.01693 0.18063,0.0508 0.0818,0.03105 0.13546,0.07902 0.0536,0.04798 0.0536,0.110067 0,0.06491 -0.0339,0.09878 -0.0339,0.03387 -0.0847,0.03387 -0.048,0 -0.0903,-0.01693 -0.0395,-0.01693 -0.0903,-0.03669 -0.0508,-0.01975 -0.12136,-0.03669 -0.0706,-0.01693 -0.1778,-0.01693 -0.11853,0 -0.22295,0.05645 -0.1016,0.05362 -0.18063,0.1524 -0.079,0.09596 -0.12418,0.228601 -0.0451,0.132645 -0.0451,0.287868 0,0.189089 0.048,0.327379 0.048,0.138289 0.12418,0.2286 0.079,0.09031 0.17497,0.135468 0.0988,0.04233 0.19756,0.04233 0.16087,0 0.254,-0.04516 0.096,-0.04798 0.1524,-0.121356 0.003,-0.05927 0.003,-0.141111 0,-0.08185 0,-0.177801 0,-0.03669 -0.006,-0.05644 -0.006,-0.02258 -0.0282,-0.03387 -0.0226,-0.01129 -0.0677,-0.01411 -0.0423,-0.0028 -0.11571,-0.0028 -0.0903,0 -0.14675,-0.02258 -0.0565,-0.0254 -0.0565,-0.104422 0,-0.05645 0.0282,-0.09031 0.0311,-0.03669 0.12418,-0.04233 0.0169,0 0.0536,0 0.0395,-0.0028 0.0819,-0.0028 0.0451,0 0.0875,0 0.0423,0 0.0677,0 0.0847,0 0.13547,0.01693 0.0508,0.01411 0.0903,0.06773 0.0198,0.02822 0.0226,0.09878 0.006,0.07056 0.006,0.163689 v 0.728136 q 0,0.0762 -0.0423,0.11289 -0.0395,0.03669 -0.0931,0.03669 -0.0649,0 -0.10725,-0.03387 -0.0395,-0.03104 -0.0395,-0.101601 v -0.110067 q -0.0734,0.08467 -0.17498,0.121356 -0.0988,0.03669 -0.25118,0.03669 -0.15522,0 -0.3048,-0.06209 -0.14958,-0.06209 -0.26529,-0.183445 -0.11571,-0.124178 -0.18909,-0.307623 -0.0705,-0.186268 -0.0705,-0.431802 0,-0.245534 0.0705,-0.437446 0.0734,-0.191912 0.19756,-0.324556 0.12418,-0.135468 0.29069,-0.206023 0.16651,-0.07056 0.35842,-0.07056 z"
       style="font-style:normal;font-variant:normal;font-weight:normal;font-stretch:normal;font-size:2.82223225px;font-family:Sniglet;-inkscape-font-specification:'Sniglet, Normal';font-variant-ligatures:normal;font-variant-caps:normal;font-variant-numeric:normal;font-feature-settings:normal;text-align:start;writing-mode:lr-tb;text-anchor:start;stroke-width:0.26458427"
       id="path973"
       inkscape:connector-curvature="0" />
    <path
       d="m 124.36966,19.057827 q -0.0282,-0.06773 -0.0621,-0.155222 -0.031,-0.09031 -0.0677,-0.18909 -0.0847,0.0028 -0.1778,0.0056 -0.0931,0 -0.18909,0 -0.12136,0 -0.22014,0 -0.0988,0 -0.18062,-0.0028 -0.0339,0.09878 -0.0649,0.186268 -0.031,0.08749 -0.0593,0.155222 -0.0564,0.143934 -0.16369,0.143934 -0.0395,0 -0.0762,-0.0254 -0.0339,-0.0254 -0.0339,-0.07338 0,-0.04798 0.0169,-0.124178 0.0169,-0.07902 0.0423,-0.166512 0.0282,-0.09031 0.0593,-0.183445 0.031,-0.09596 0.0593,-0.177801 0.0282,-0.09031 0.079,-0.2286 0.0536,-0.141112 0.11289,-0.293512 0.0593,-0.152401 0.11853,-0.299157 0.0593,-0.149578 0.10725,-0.259645 0.0113,-0.02822 0.0282,-0.06209 0.0169,-0.03669 0.0395,-0.06773 0.0254,-0.03105 0.0536,-0.05362 0.031,-0.02258 0.0677,-0.02258 0.0367,0 0.0677,0.0254 0.0311,0.02258 0.0536,0.05644 0.0254,0.03387 0.0423,0.07056 0.0198,0.03669 0.031,0.06491 0.0452,0.11289 0.1016,0.259646 0.0593,0.146756 0.11571,0.296334 0.0593,0.149579 0.11007,0.285046 0.0508,0.135467 0.0819,0.2286 0.0254,0.08185 0.0564,0.174979 0.0339,0.09313 0.0621,0.183445 0.0282,0.09031 0.0452,0.169334 0.0198,0.0762 0.0198,0.124178 0,0.04798 -0.0367,0.07338 -0.0339,0.0254 -0.0734,0.0254 -0.0508,0 -0.0931,-0.03387 -0.0423,-0.03669 -0.0734,-0.110067 z m -0.49953,-0.620891 q 0.0677,0 0.13546,0.0028 0.0677,0 0.13547,0.0028 -0.0339,-0.09878 -0.0677,-0.197556 -0.0339,-0.09878 -0.0649,-0.18909 -0.0282,-0.09031 -0.0536,-0.166512 -0.0226,-0.07902 -0.0395,-0.138289 -0.0113,-0.03669 -0.0254,-0.05927 -0.0141,-0.02258 -0.0367,-0.02258 -0.0226,0 -0.0367,0.0254 -0.0141,0.02258 -0.0254,0.05927 -0.0339,0.115712 -0.096,0.301979 -0.0593,0.183445 -0.127,0.386646 0.0762,-0.0028 0.1524,-0.0028 0.0762,-0.0028 0.14958,-0.0028 z"
       style="font-style:normal;font-variant:normal;font-weight:normal;font-stretch:normal;font-size:2.82223225px;font-family:Sniglet;-inkscape-font-specification:'Sniglet, Normal';font-variant-ligatures:normal;font-variant-caps:normal;font-variant-numeric:normal;font-feature-settings:normal;text-align:start;writing-mode:lr-tb;text-anchor:start;stroke-width:0.26458427"
       id="path975"
       inkscape:connector-curvature="0" />
    <path
       d="m 125.74572,17.485844 q -0.079,0.0056 -0.16933,0.0085 -0.0875,0.0028 -0.19474,0.0056 0.003,0.0762 0.006,0.143934 0.003,0.06491 0.006,0.132645 0.003,0.06773 0.003,0.141112 0.003,0.07338 0.003,0.163689 0,0.127 0,0.245534 0,0.115712 -0.003,0.234246 -0.003,0.115711 -0.006,0.234245 -0.003,0.118534 -0.008,0.245534 -0.003,0.06773 -0.0141,0.104423 -0.008,0.03669 -0.0254,0.05644 -0.0169,0.01976 -0.0395,0.02258 -0.0226,0.0056 -0.0508,0.0056 -0.0508,0 -0.0875,-0.03387 -0.0339,-0.03669 -0.0395,-0.152401 -0.006,-0.1016 -0.008,-0.214489 0,-0.11289 -0.003,-0.242712 -0.003,-0.129823 -0.003,-0.279401 0,-0.152401 0,-0.335846 0,-0.155223 0,-0.270934 0.003,-0.115712 0.008,-0.200379 h -0.11571 q -0.11853,0 -0.2032,-0.0028 -0.0818,-0.0028 -0.13546,-0.01411 -0.0536,-0.01411 -0.079,-0.04233 -0.0226,-0.02822 -0.0226,-0.07902 0,-0.0254 0.006,-0.04516 0.006,-0.02258 0.0254,-0.03951 0.0198,-0.01976 0.0536,-0.03104 0.0367,-0.01129 0.0931,-0.01693 0.0536,-0.0028 0.096,-0.0056 0.0423,-0.0028 0.0847,-0.0056 0.0423,-0.0028 0.0875,-0.0028 0.0452,0 0.10442,0 0.16651,0 0.31327,0.0028 0.14958,0.0028 0.31609,0.01129 0.0677,0.0056 0.10442,0.01693 0.0367,0.0085 0.0564,0.0254 0.0198,0.01693 0.0226,0.03951 0.006,0.02258 0.006,0.0508 0,0.0508 -0.0367,0.08467 -0.0339,0.03387 -0.14958,0.03951 z"
       style="font-style:normal;font-variant:normal;font-weight:normal;font-stretch:normal;font-size:2.82223225px;font-family:Sniglet;-inkscape-font-specification:'Sniglet, Normal';font-variant-ligatures:normal;font-variant-caps:normal;font-variant-numeric:normal;font-feature-settings:normal;text-align:start;writing-mode:lr-tb;text-anchor:start;stroke-width:0.26458427"
       id="path977"
       inkscape:connector-curvature="0" />
    <path
       d="m 126.14758,18.772782 q -0.006,-0.09031 -0.0113,-0.245534 -0.006,-0.155223 -0.006,-0.318913 0,-0.09313 0,-0.191911 0.003,-0.101601 0.006,-0.206023 0.006,-0.208845 0.0254,-0.327379 0.0226,-0.118534 0.0847,-0.177801 0.0649,-0.05927 0.18062,-0.07338 0.11571,-0.01411 0.30762,-0.01411 0.003,0 0.0593,0 0.0593,0 0.14111,0.0028 0.0819,0 0.16934,0.0028 0.0903,0.0028 0.14957,0.0056 0.0621,0.0056 0.0988,0.01693 0.0395,0.0085 0.0593,0.0254 0.0198,0.01411 0.0254,0.03669 0.006,0.01976 0.006,0.04516 0,0.06491 -0.0367,0.09596 -0.0367,0.02822 -0.14958,0.03669 -0.0564,0.0056 -0.16651,0.0085 -0.10725,0 -0.22014,0 -0.11289,0 -0.2032,0.0028 -0.0903,0 -0.11289,0 -0.0734,0.0028 -0.10442,0.03387 -0.0282,0.02822 -0.0282,0.138289 0,0.0254 0.003,0.124178 0.006,0.09596 0.006,0.270935 h 0.23425 q 0.14958,0 0.24271,0.0056 0.096,0.0028 0.14676,0.01693 0.0536,0.01411 0.0734,0.04516 0.0198,0.03104 0.0198,0.08184 0,0.0254 -0.006,0.04798 -0.003,0.01976 -0.0226,0.03669 -0.0198,0.01411 -0.0564,0.0254 -0.0367,0.0085 -0.10442,0.01411 -0.0818,0.0056 -0.15522,0.0085 -0.0706,0 -0.14111,0 h -0.23707 q 0,0.04233 0,0.1016 0,0.05927 0,0.121356 0,0.06209 0,0.121356 0.003,0.05927 0.006,0.09596 0.003,0.04516 0.0113,0.0762 0.0113,0.03105 0.0367,0.0508 0.0282,0.01975 0.079,0.02822 0.0536,0.0085 0.14111,0.0085 h 0.60678 q 0.0988,0 0.12418,0.03669 0.0254,0.03669 0.0254,0.09878 0,0.0508 -0.0226,0.07902 -0.0226,0.0254 -0.11007,0.03669 -0.0847,0.01411 -0.25682,0.01693 -0.16934,0.0028 -0.4685,0.0028 -0.127,0 -0.20884,-0.02258 -0.0818,-0.02258 -0.13265,-0.0762 -0.0508,-0.05362 -0.0762,-0.13829 -0.0226,-0.08749 -0.031,-0.211667 z"
       style="font-style:normal;font-variant:normal;font-weight:normal;font-stretch:normal;font-size:2.82223225px;font-family:Sniglet;-inkscape-font-specification:'Sniglet, Normal';font-variant-ligatures:normal;font-variant-caps:normal;font-variant-numeric:normal;font-feature-settings:normal;text-align:start;writing-mode:lr-tb;text-anchor:start;stroke-width:0.26458427"
       id="path979"
       inkscape:connector-curvature="0" />
  </g>
  <g
     aria-label="BANK"
     style="font-style:normal;font-weight:normal;font-size:10.58337116px;line-height:1.25;font-family:sans-serif;letter-spacing:0px;word-spacing:0px;fill:#000000;fill-opacity:1;stroke:none;stroke-width:0.26458427"
     id="text866"
     transform="translate(68.910245,2.1166741)">
    <path
       d="m 6.6241779,7.3101368 q -0.158045,0 -0.2540009,-0.0254 -0.095956,-0.0254 -0.1495783,-0.070556 -0.0508,-0.047978 -0.070556,-0.1157115 -0.016933,-0.067734 -0.0254,-0.1524006 -0.00847,-0.098778 -0.014111,-0.2596453 -0.00282,-0.1636895 -0.00282,-0.3386679 0,-0.084667 0,-0.1778006 0.00282,-0.095956 0.00282,-0.1862674 0.00282,-0.093134 0.00564,-0.1721561 0.00282,-0.079022 0.00847,-0.1354672 0.00847,-0.087489 0.028222,-0.158045 0.019756,-0.070556 0.073378,-0.121356 0.056445,-0.0508 0.1552227,-0.0762 0.1016004,-0.028222 0.2681121,-0.028222 0.3781791,0 0.5644464,0.1411117 0.1890896,0.1382893 0.1890896,0.3951125 0,0.1326449 -0.059267,0.2455342 -0.056445,0.1128893 -0.1975562,0.1693339 0.079022,0.014111 0.1439338,0.059267 0.064911,0.045156 0.1100671,0.110067 0.047978,0.062089 0.070556,0.1411117 0.0254,0.0762 0.0254,0.1552227 0,0.1016004 -0.042333,0.2088452 Q 7.4115807,7.0222691 7.3099803,7.1097583 7.20838,7.1972475 7.039046,7.2536922 6.8725343,7.3101368 6.6241779,7.3101368 Z M 7.2140244,6.7005346 q 0,-0.1016003 -0.047978,-0.1636894 -0.045156,-0.062089 -0.1185338,-0.093134 -0.073378,-0.033867 -0.1636894,-0.045156 -0.090312,-0.011289 -0.1806229,-0.011289 -0.070556,0 -0.1467561,0 -0.0762,0 -0.1411116,0.00282 -0.00282,0.059267 -0.00564,0.121356 -0.00282,0.062089 -0.00564,0.1185337 0,0.053622 0,0.095956 0,0.039511 0,0.056445 0,0.0762 0.011289,0.1270004 0.011289,0.0508 0.042333,0.081845 0.031045,0.031045 0.087489,0.045156 0.059267,0.011289 0.1495783,0.011289 0.2483565,0 0.3838236,-0.087489 0.1354671,-0.087489 0.1354671,-0.2596454 z M 6.6919115,5.5603528 q -0.093134,0 -0.1524006,0.016933 -0.056445,0.014111 -0.087489,0.039511 -0.028222,0.0254 -0.039511,0.062089 -0.00847,0.036689 -0.00847,0.079022 v 0.3951125 q 0.039511,0.00282 0.081845,0.00282 0.045156,0 0.084667,0 0.1016004,0 0.1975563,-0.014111 0.098778,-0.014111 0.1778006,-0.047978 0.079022,-0.033867 0.1270004,-0.093134 0.047978,-0.059267 0.047978,-0.1524005 0,-0.1270005 -0.1044226,-0.206023 -0.1016004,-0.081845 -0.3245567,-0.081845 z"
       style="font-style:normal;font-variant:normal;font-weight:normal;font-stretch:normal;font-size:2.82223225px;font-family:Sniglet;-inkscape-font-specification:'Sniglet, Normal';font-variant-ligatures:normal;font-variant-caps:normal;font-variant-numeric:normal;font-feature-settings:normal;text-align:start;writing-mode:lr-tb;text-anchor:start;stroke-width:0.26458427"
       id="path951"
       inkscape:connector-curvature="0" />
    <path
       d="M 8.9328521,7.166203 Q 8.9046298,7.0984694 8.870763,7.0109802 8.8397184,6.9206687 8.8030294,6.8218906 q -0.084667,0.00282 -0.1778006,0.00564 -0.093134,0 -0.1890896,0 -0.121356,0 -0.2201341,0 -0.098778,0 -0.1806229,-0.00282 -0.033867,0.098778 -0.064911,0.1862674 -0.031045,0.087489 -0.059267,0.1552228 -0.056445,0.1439338 -0.1636895,0.1439338 -0.039511,0 -0.0762,-0.0254 -0.033867,-0.0254 -0.033867,-0.073378 0,-0.047978 0.016933,-0.1241783 0.016933,-0.079023 0.042334,-0.1665117 0.028222,-0.090311 0.059267,-0.1834451 0.031045,-0.095956 0.059267,-0.1778006 0.028222,-0.090311 0.079022,-0.2286008 Q 7.9478927,6.1897085 8.00716,6.037308 8.066427,5.8849074 8.1256938,5.7381513 8.1849608,5.588573 8.2329386,5.478506 q 0.011289,-0.028222 0.028222,-0.062089 0.016933,-0.036689 0.039511,-0.067734 0.0254,-0.031045 0.053622,-0.053622 0.031045,-0.022578 0.067733,-0.022578 0.036689,0 0.067734,0.0254 0.031045,0.022578 0.053622,0.056445 0.0254,0.033867 0.042333,0.070556 0.019756,0.036689 0.031045,0.064911 0.045156,0.1128893 0.1016003,0.2596454 0.059267,0.146756 0.1157115,0.2963343 0.059267,0.1495784 0.1100671,0.2850455 0.0508,0.1354672 0.081845,0.2286008 0.0254,0.081845 0.056445,0.1749784 0.033867,0.093134 0.062089,0.1834451 0.028222,0.090311 0.045156,0.1693339 0.019756,0.0762 0.019756,0.1241783 0,0.047978 -0.036689,0.073378 -0.033867,0.0254 -0.073378,0.0254 -0.0508,0 -0.093134,-0.033867 Q 8.9638966,7.239581 8.9328521,7.166203 Z M 8.433317,6.5453119 q 0.067733,0 0.1354671,0.00282 0.067734,0 0.1354672,0.00282 Q 8.6703845,6.4521782 8.6365177,6.3534001 8.6026509,6.2546219 8.5716063,6.1643105 8.543384,6.0739991 8.5179839,5.9977988 8.4954061,5.9187763 8.4784727,5.8595094 q -0.011289,-0.036689 -0.0254,-0.059267 -0.014111,-0.022578 -0.036689,-0.022578 -0.022578,0 -0.036689,0.0254 -0.014111,0.022578 -0.0254,0.059267 -0.033867,0.1157115 -0.095956,0.3019788 -0.059267,0.1834451 -0.1270005,0.3866458 0.0762,-0.00282 0.1524006,-0.00282 0.0762,-0.00282 0.1495783,-0.00282 z"
       style="font-style:normal;font-variant:normal;font-weight:normal;font-stretch:normal;font-size:2.82223225px;font-family:Sniglet;-inkscape-font-specification:'Sniglet, Normal';font-variant-ligatures:normal;font-variant-caps:normal;font-variant-numeric:normal;font-feature-settings:normal;text-align:start;writing-mode:lr-tb;text-anchor:start;stroke-width:0.26458427"
       id="path953"
       inkscape:connector-curvature="0" />
    <path
       d="M 10.527105,7.1774919 Q 10.436793,7.0533137 10.354948,6.9319577 10.275926,6.8077795 10.182792,6.6610234 10.092481,6.5142673 9.973947,6.3364667 9.8582355,6.1558438 9.6945461,5.9159541 q 0,0.2116674 0,0.3810013 0,0.1665117 -0.00282,0.3104456 -0.00282,0.1439338 -0.00564,0.2709343 -0.00282,0.1270004 -0.00847,0.2540009 -0.00282,0.067734 -0.014111,0.1044226 -0.00847,0.036689 -0.0254,0.056445 -0.016933,0.019756 -0.039511,0.022578 -0.019756,0.00564 -0.047978,0.00564 -0.0508,0 -0.084667,-0.033867 -0.033867,-0.036689 -0.039511,-0.1524005 -0.014111,-0.3104456 -0.016933,-0.6208911 0,-0.3132678 0,-0.6462912 0,-0.1890895 0.00282,-0.2963344 0.00564,-0.1072448 0.019756,-0.1608672 0.016933,-0.053622 0.042333,-0.067734 0.028222,-0.014111 0.073378,-0.014111 0.045156,0 0.1185337,0.070556 0.073378,0.067734 0.1608673,0.1806228 0.087489,0.1128893 0.1862669,0.2596454 0.101601,0.1467561 0.200379,0.3019788 0.09878,0.1552228 0.189089,0.3076234 0.09313,0.1524005 0.169334,0.2765787 -0.0028,-0.1326449 -0.0028,-0.2906899 0,-0.1608672 0,-0.3556013 0,-0.2229563 0.0028,-0.3668902 0.0028,-0.146756 0.01411,-0.231423 0.01411,-0.084667 0.04233,-0.1185338 0.02822,-0.033867 0.07902,-0.033867 0.04798,0 0.08467,0.031045 0.03669,0.031045 0.04233,0.1439339 0.0056,0.1016003 0.0085,0.1806228 0.0028,0.079023 0.0056,0.158045 0.0028,0.0762 0.0028,0.1608673 0,0.081845 0,0.1862673 0,0.1270004 0,0.242712 0,0.1157115 -0.0028,0.2286008 -0.0028,0.1128893 -0.0056,0.2286008 -0.0028,0.1157115 -0.0085,0.242712 -0.0028,0.067734 -0.01411,0.1044226 -0.0085,0.036689 -0.0254,0.056445 -0.01693,0.019756 -0.03951,0.022578 -0.01975,0.00564 -0.04798,0.00564 -0.04798,0 -0.08184,-0.028222 -0.03387,-0.028222 -0.09878,-0.1157115 z"
       style="font-style:normal;font-variant:normal;font-weight:normal;font-stretch:normal;font-size:2.82223225px;font-family:Sniglet;-inkscape-font-specification:'Sniglet, Normal';font-variant-ligatures:normal;font-variant-caps:normal;font-variant-numeric:normal;font-feature-settings:normal;text-align:start;writing-mode:lr-tb;text-anchor:start;stroke-width:0.26458427"
       id="path955"
       inkscape:connector-curvature="0" />
    <path
       d="m 11.204044,7.1351584 q -0.0056,-0.1016004 -0.0085,-0.2116674 0,-0.1100671 -0.0028,-0.2370675 -0.0028,-0.1270005 -0.0028,-0.2737566 0,-0.1495783 0,-0.3330234 0,-0.2003785 0.0028,-0.3414901 0.0028,-0.1439338 0.01411,-0.2342452 0.01411,-0.090311 0.04233,-0.132645 0.02822,-0.042333 0.07902,-0.042333 0.04798,0 0.08467,0.031045 0.03669,0.031045 0.04233,0.1439339 0.0056,0.1016003 0.0085,0.1806228 0.0028,0.079023 0.0056,0.158045 0.0028,0.0762 0.0028,0.1608673 0,0.081845 0,0.1862673 v 0.1467561 l 0.603957,-0.6914469 q 0.118534,-0.1354672 0.183445,-0.1778007 0.06491,-0.045156 0.11289,-0.045156 0.05644,0 0.08184,0.028222 0.02822,0.028222 0.02822,0.070556 0,0.016933 -0.0056,0.033867 -0.0056,0.016933 -0.0254,0.047978 -0.01693,0.028222 -0.05362,0.073378 -0.03669,0.042333 -0.09878,0.1100671 l -0.392291,0.4261571 0.618069,0.8805364 q 0.02258,0.031045 0.03387,0.064911 0.01411,0.033867 0.01411,0.064911 0,0.053622 -0.03104,0.087489 -0.02822,0.036689 -0.101601,0.036689 -0.05927,0 -0.107245,-0.033867 -0.04515,-0.031045 -0.08467,-0.093134 L 11.712045,6.4267781 11.469333,6.6920679 q -0.0028,0.1072449 -0.0056,0.2144897 -0.0028,0.1072448 -0.0085,0.2257786 -0.0028,0.067734 -0.01411,0.1044226 -0.0085,0.036689 -0.0254,0.056445 -0.01693,0.019756 -0.03951,0.022578 -0.01976,0.00564 -0.04798,0.00564 -0.0508,0 -0.08467,-0.033867 -0.03387,-0.036689 -0.03951,-0.1524005 z"
       style="font-style:normal;font-variant:normal;font-weight:normal;font-stretch:normal;font-size:2.82223225px;font-family:Sniglet;-inkscape-font-specification:'Sniglet, Normal';font-variant-ligatures:normal;font-variant-caps:normal;font-variant-numeric:normal;font-feature-settings:normal;text-align:start;writing-mode:lr-tb;text-anchor:start;stroke-width:0.26458427"
       id="path957"
       inkscape:connector-curvature="0" />
  </g>
  <g
     aria-label="WRITE"
     style="font-style:normal;font-weight:normal;font-size:10.58337021px;line-height:1.25;font-family:sans-serif;letter-spacing:0px;word-spacing:0px;fill:#000000;fill-opacity:1;stroke:none;stroke-width:0.26458427"
     id="text866-2"
     transform="translate(96.444688,-33.369417)">
    <path
       d="m 6.5737544,41.359551 q 0.016933,-0.03951 0.0508,-0.06491 0.036689,-0.0254 0.0762,-0.0254 0.036689,0 0.070556,0.0254 0.033867,0.02258 0.053622,0.06209 0.1072449,0.220135 0.2116674,0.476958 0.1044226,0.254001 0.1890896,0.482601 0.047978,-0.349956 0.1044226,-0.705558 0.056445,-0.355601 0.1270005,-0.680158 0.00847,-0.03669 0.0254,-0.05927 0.016933,-0.0254 0.036689,-0.03669 0.019756,-0.01411 0.039511,-0.01976 0.022578,-0.0056 0.036689,-0.0056 0.047978,0 0.079022,0.02822 0.031045,0.0254 0.031045,0.07056 0,0.0508 -0.016933,0.180622 -0.016933,0.127001 -0.045156,0.299157 -0.028222,0.169334 -0.064911,0.361246 -0.033867,0.191912 -0.067734,0.369712 -0.033867,0.177801 -0.064911,0.324557 -0.031045,0.146756 -0.0508,0.222956 -0.016933,0.06491 -0.0508,0.09878 -0.033867,0.03104 -0.098778,0.03104 -0.067734,0 -0.1157115,-0.05927 Q 7.084578,42.674744 7.0281336,42.544922 6.9745116,42.4151 6.898311,42.214721 6.822111,42.01152 6.7007547,41.729297 6.5765765,42.01152 6.497554,42.214721 q -0.0762,0.203201 -0.1326449,0.333023 -0.053622,0.129823 -0.1016004,0.191912 -0.047978,0.05927 -0.1128893,0.05927 -0.1128893,0 -0.1495783,-0.129823 -0.022578,-0.0762 -0.053622,-0.220134 -0.031045,-0.146756 -0.064911,-0.324556 -0.031045,-0.177801 -0.064911,-0.366891 -0.033867,-0.191911 -0.059267,-0.361245 -0.0254,-0.169334 -0.042333,-0.296335 -0.014111,-0.129822 -0.014111,-0.180623 0,-0.04798 0.031045,-0.07902 0.031045,-0.03104 0.087489,-0.03104 0.039511,0 0.0762,0.0254 0.036689,0.02258 0.053622,0.09596 0.067734,0.324557 0.1185338,0.680158 0.053622,0.355602 0.1128893,0.705558 0.087489,-0.206023 0.1749784,-0.437446 0.087489,-0.231423 0.2173119,-0.51929 z"
       style="font-style:normal;font-variant:normal;font-weight:normal;font-stretch:normal;font-size:2.82223225px;font-family:Sniglet;-inkscape-font-specification:'Sniglet, Normal';font-variant-ligatures:normal;font-variant-caps:normal;font-variant-numeric:normal;font-feature-settings:normal;text-align:start;writing-mode:lr-tb;text-anchor:start;stroke-width:0.26458427"
       id="path940"
       inkscape:connector-curvature="0" />
    <path
       d="m 8.5966335,42.10462 q -0.039511,0.0028 -0.081845,0.0056 -0.039511,0 -0.081845,0 -0.047978,0 -0.095956,0 -0.047978,0 -0.1072448,-0.0056 v 0.572913 q 0,0.09031 -0.045156,0.112889 -0.042333,0.01976 -0.1072448,0.01976 -0.033867,0 -0.053622,-0.0056 -0.019756,-0.0028 -0.033867,-0.01411 -0.011289,-0.01411 -0.019756,-0.03951 -0.00564,-0.0254 -0.00847,-0.07056 -0.00564,-0.0508 -0.00847,-0.146756 -0.00282,-0.09878 -0.00564,-0.254001 0,-0.155222 -0.00282,-0.375356 0,-0.222957 0,-0.522113 0,-0.115712 0.028222,-0.222957 0.028222,-0.110067 0.1016003,-0.191912 0.073378,-0.08467 0.1975563,-0.135467 0.1270004,-0.0508 0.3217345,-0.0508 0.1382894,0 0.268112,0.03104 0.132645,0.03104 0.2342453,0.107244 0.1016004,0.0762 0.1636895,0.206023 0.062089,0.129823 0.062089,0.324557 0,0.259646 -0.1128893,0.403579 -0.1100671,0.141112 -0.3048011,0.200379 l 0.3781791,0.519291 q 0.0508,0.06773 0.0508,0.138289 0,0.05645 -0.039511,0.08749 -0.036689,0.03387 -0.093134,0.03387 -0.062089,0 -0.1072448,-0.03387 -0.045156,-0.03669 -0.084667,-0.09313 z M 9.039724,41.44704 q 0,-0.194734 -0.1185338,-0.287868 -0.1157115,-0.09596 -0.3697124,-0.09596 -0.093134,0 -0.1552228,0.01693 -0.062089,0.01411 -0.098778,0.05644 -0.036689,0.04233 -0.053622,0.118534 -0.014111,0.07338 -0.014111,0.18909 0,0.08184 0,0.191911 0,0.110068 0.00282,0.200379 0.064911,0.0028 0.1439339,0.0028 0.081845,0 0.1524005,0 0.079022,0 0.1665117,-0.0085 0.090312,-0.01129 0.1665117,-0.0508 0.0762,-0.04233 0.1270005,-0.118533 0.0508,-0.07902 0.0508,-0.21449 z"
       style="font-style:normal;font-variant:normal;font-weight:normal;font-stretch:normal;font-size:2.82223225px;font-family:Sniglet;-inkscape-font-specification:'Sniglet, Normal';font-variant-ligatures:normal;font-variant-caps:normal;font-variant-numeric:normal;font-feature-settings:normal;text-align:start;writing-mode:lr-tb;text-anchor:start;stroke-width:0.26458427"
       id="path942"
       inkscape:connector-curvature="0" />
    <path
       d="m 9.6131223,42.623911 q -0.00564,-0.101601 -0.00847,-0.211668 0,-0.110067 -0.00282,-0.237067 -0.00282,-0.127001 -0.00282,-0.273757 0,-0.149578 0,-0.333023 0,-0.200379 0.00282,-0.34149 0.00282,-0.143934 0.016933,-0.234245 0.014111,-0.09031 0.042333,-0.132645 0.031045,-0.04233 0.081845,-0.04233 0.0254,0 0.047978,0.0056 0.022578,0.0056 0.039511,0.0254 0.016933,0.01693 0.028222,0.05362 0.014111,0.03387 0.016933,0.09031 0.00564,0.1016 0.00847,0.180622 0.00282,0.07902 0.00564,0.158045 0.00282,0.0762 0.00282,0.160868 0,0.08184 0,0.186267 0,0.127 0,0.242712 0,0.115711 -0.00282,0.228601 -0.00282,0.112889 -0.00564,0.228601 -0.00282,0.115711 -0.00847,0.242712 -0.00282,0.06773 -0.014111,0.104422 -0.011289,0.03669 -0.028222,0.05645 -0.016933,0.01975 -0.039511,0.02258 -0.022578,0.0056 -0.0508,0.0056 -0.0508,0 -0.087489,-0.03387 -0.036689,-0.03669 -0.042333,-0.1524 z"
       style="font-style:normal;font-variant:normal;font-weight:normal;font-stretch:normal;font-size:2.82223225px;font-family:Sniglet;-inkscape-font-specification:'Sniglet, Normal';font-variant-ligatures:normal;font-variant-caps:normal;font-variant-numeric:normal;font-feature-settings:normal;text-align:start;writing-mode:lr-tb;text-anchor:start;stroke-width:0.26458427"
       id="path944"
       inkscape:connector-curvature="0" />
    <path
       d="m 11.330098,41.082972 q -0.07902,0.0056 -0.169334,0.0085 -0.08749,0.0028 -0.194734,0.0056 0.0028,0.0762 0.0056,0.143934 0.0028,0.06491 0.0056,0.132645 0.0028,0.06773 0.0028,0.141111 0.0028,0.07338 0.0028,0.16369 0,0.127 0,0.245534 0,0.115712 -0.0028,0.234245 -0.0028,0.115712 -0.0056,0.234246 -0.0028,0.118533 -0.0085,0.245534 -0.0028,0.06773 -0.01411,0.104423 -0.0085,0.03669 -0.0254,0.05644 -0.01693,0.01976 -0.03951,0.02258 -0.02258,0.0056 -0.0508,0.0056 -0.0508,0 -0.08749,-0.03387 -0.03387,-0.03669 -0.03951,-0.152401 -0.0056,-0.1016 -0.0085,-0.214489 0,-0.11289 -0.0028,-0.242712 -0.0028,-0.129823 -0.0028,-0.279401 0,-0.152401 0,-0.335846 0,-0.155223 0,-0.270934 0.0028,-0.115712 0.0085,-0.200379 h -0.115711 q -0.118534,0 -0.203201,-0.0028 -0.08185,-0.0028 -0.135467,-0.01411 -0.05362,-0.01411 -0.07902,-0.04233 -0.02258,-0.02822 -0.02258,-0.07902 0,-0.0254 0.0056,-0.04516 0.0056,-0.02258 0.0254,-0.03951 0.01975,-0.01976 0.05362,-0.03104 0.03669,-0.01129 0.09313,-0.01693 0.05362,-0.0028 0.09596,-0.0056 0.04233,-0.0028 0.08467,-0.0056 0.04233,-0.0028 0.08749,-0.0028 0.04516,0 0.104423,0 0.166511,0 0.313267,0.0028 0.149579,0.0028 0.31609,0.01129 0.06773,0.0056 0.104423,0.01693 0.03669,0.0085 0.05645,0.0254 0.01975,0.01693 0.02258,0.03951 0.0056,0.02258 0.0056,0.0508 0,0.0508 -0.03669,0.08467 -0.03387,0.03387 -0.149578,0.03951 z"
       style="font-style:normal;font-variant:normal;font-weight:normal;font-stretch:normal;font-size:2.82223225px;font-family:Sniglet;-inkscape-font-specification:'Sniglet, Normal';font-variant-ligatures:normal;font-variant-caps:normal;font-variant-numeric:normal;font-feature-settings:normal;text-align:start;writing-mode:lr-tb;text-anchor:start;stroke-width:0.26458427"
       id="path946"
       inkscape:connector-curvature="0" />
    <path
       d="m 11.731957,42.36991 q -0.0056,-0.09031 -0.01129,-0.245534 -0.0056,-0.155223 -0.0056,-0.318913 0,-0.09313 0,-0.191911 0.0028,-0.101601 0.0056,-0.206023 0.0056,-0.208846 0.0254,-0.327379 0.02258,-0.118534 0.08467,-0.177801 0.06491,-0.05927 0.180622,-0.07338 0.115712,-0.01411 0.307624,-0.01411 0.0028,0 0.05927,0 0.05927,0 0.141111,0.0028 0.08184,0 0.169334,0.0028 0.09031,0.0028 0.149578,0.0056 0.06209,0.0056 0.09878,0.01693 0.03951,0.0085 0.05927,0.0254 0.01976,0.01411 0.0254,0.03669 0.0056,0.01976 0.0056,0.04516 0,0.06491 -0.03669,0.09596 -0.03669,0.02822 -0.149578,0.03669 -0.05645,0.0056 -0.166512,0.0085 -0.107245,0 -0.220134,0 -0.112889,0 -0.203201,0.0028 -0.09031,0 -0.112889,0 -0.07338,0.0028 -0.104423,0.03387 -0.02822,0.02822 -0.02822,0.138289 0,0.0254 0.0028,0.124178 0.0056,0.09596 0.0056,0.270935 h 0.234245 q 0.149578,0 0.242712,0.0056 0.09596,0.0028 0.146756,0.01693 0.05362,0.01411 0.07338,0.04516 0.01976,0.03104 0.01976,0.08184 0,0.0254 -0.0056,0.04798 -0.0028,0.01976 -0.02258,0.03669 -0.01975,0.01411 -0.05644,0.0254 -0.03669,0.0085 -0.104423,0.01411 -0.08184,0.0056 -0.155223,0.0085 -0.07056,0 -0.141111,0 h -0.237068 q 0,0.04233 0,0.1016 0,0.05927 0,0.121356 0,0.06209 0,0.121356 0.0028,0.05927 0.0056,0.09596 0.0028,0.04516 0.01129,0.0762 0.01129,0.03105 0.03669,0.0508 0.02822,0.01976 0.07902,0.02822 0.05362,0.0085 0.141112,0.0085 h 0.60678 q 0.09878,0 0.124178,0.03669 0.0254,0.03669 0.0254,0.09878 0,0.0508 -0.02258,0.07902 -0.02258,0.0254 -0.110067,0.03669 -0.08467,0.01411 -0.256823,0.01693 -0.169334,0.0028 -0.468491,0.0028 -0.127,0 -0.208845,-0.02258 -0.08184,-0.02258 -0.132645,-0.0762 -0.0508,-0.05362 -0.0762,-0.13829 -0.02258,-0.08749 -0.03105,-0.211667 z"
       style="font-style:normal;font-variant:normal;font-weight:normal;font-stretch:normal;font-size:2.82223225px;font-family:Sniglet;-inkscape-font-specification:'Sniglet, Normal';font-variant-ligatures:normal;font-variant-caps:normal;font-variant-numeric:normal;font-feature-settings:normal;text-align:start;writing-mode:lr-tb;text-anchor:start;stroke-width:0.26458427"
       id="path948"
       inkscape:connector-curvature="0" />
  </g>
  <g
     aria-label="CV IN"
     style="font-style:normal;font-weight:normal;font-size:10.58336926px;line-height:1.25;font-family:sans-serif;letter-spacing:0px;word-spacing:0px;fill:#000000;fill-opacity:1;stroke:none;stroke-width:0.26458427"
     id="text866-2-2"
     transform="translate(96.569185,-34.812645)">
    <path
       d="m 7.1209775,58.718382 q 0.093134,0 0.1862673,0.01693 0.095956,0.01411 0.1721562,0.04798 0.0762,0.03104 0.1241782,0.07902 0.0508,0.04516 0.0508,0.107244 0,0.06491 -0.033867,0.09878 -0.033867,0.03387 -0.084667,0.03387 -0.047978,0 -0.084667,-0.01411 -0.036689,-0.01693 -0.084667,-0.03669 -0.045156,-0.01976 -0.1100671,-0.03387 -0.064911,-0.01693 -0.1721561,-0.01693 -0.1072449,0 -0.206023,0.05644 -0.095956,0.05362 -0.1693339,0.1524 -0.070556,0.09596 -0.1128893,0.228601 -0.042333,0.132645 -0.042333,0.287868 0,0.191911 0.047978,0.330201 0.0508,0.138289 0.1298227,0.228601 0.079022,0.08749 0.1778007,0.132645 0.1016003,0.04233 0.2032007,0.04233 0.121356,0 0.2032007,-0.0254 0.081845,-0.0254 0.1382894,-0.05645 0.059267,-0.03104 0.1016003,-0.05644 0.042333,-0.0254 0.081845,-0.0254 0.047978,0 0.0762,0.02822 0.028222,0.0254 0.028222,0.09313 0,0.05644 -0.045156,0.115711 -0.042333,0.05645 -0.1270005,0.104423 -0.081845,0.04515 -0.1975563,0.0762 -0.1157115,0.02822 -0.2596453,0.02822 -0.158045,0 -0.31609,-0.06209 -0.1552228,-0.06209 -0.279401,-0.183445 -0.121356,-0.124178 -0.1975563,-0.307623 -0.0762,-0.186268 -0.0762,-0.431802 0,-0.245534 0.067734,-0.437446 0.070556,-0.191912 0.1890896,-0.324556 0.121356,-0.135468 0.279401,-0.206023 0.1608672,-0.07056 0.3414901,-0.07056 z"
       style="font-style:normal;font-variant:normal;font-weight:normal;font-stretch:normal;font-size:2.82223225px;font-family:Sniglet;-inkscape-font-specification:'Sniglet, Normal';font-variant-ligatures:normal;font-variant-caps:normal;font-variant-numeric:normal;font-feature-settings:normal;text-align:start;writing-mode:lr-tb;text-anchor:start;stroke-width:0.26458427"
       id="path931"
       inkscape:connector-curvature="0" />
    <path
       d="m 8.7624142,60.603633 q -0.036689,0.06773 -0.067734,0.09878 -0.028222,0.03104 -0.073378,0.03104 -0.045156,0 -0.079023,-0.03104 -0.033867,-0.03104 -0.073378,-0.09596 -0.0508,-0.08467 -0.1157115,-0.234245 -0.062089,-0.149578 -0.1270004,-0.324557 -0.064911,-0.1778 -0.1270005,-0.36689 -0.062089,-0.18909 -0.1128893,-0.355601 -0.047978,-0.166512 -0.079022,-0.29069 -0.028222,-0.127001 -0.028222,-0.180623 0,-0.05644 0.022578,-0.08467 0.022578,-0.02822 0.087489,-0.02822 0.036689,0 0.062089,0.01975 0.028222,0.01693 0.070556,0.101601 0.033867,0.06491 0.073378,0.169334 0.039511,0.104422 0.081845,0.231423 0.045156,0.127 0.090312,0.268112 0.045156,0.138289 0.090311,0.276578 0.045156,0.13829 0.084667,0.26529 0.039511,0.127001 0.073378,0.228601 0.033867,-0.104423 0.0762,-0.231423 0.042334,-0.129823 0.087489,-0.26529 0.045156,-0.138289 0.090311,-0.276579 0.045156,-0.141111 0.090312,-0.265289 0.045156,-0.124179 0.084667,-0.228601 0.039511,-0.104423 0.070556,-0.172156 0.039511,-0.08185 0.067734,-0.101601 0.031045,-0.01975 0.062089,-0.01975 0.064911,0 0.087489,0.03387 0.0254,0.03105 0.0254,0.09313 0,0.05645 -0.016933,0.135467 -0.016933,0.07902 -0.059267,0.211668 -0.039511,0.129822 -0.1072448,0.324556 -0.067734,0.194734 -0.1665117,0.476958 -0.0254,0.0762 -0.059267,0.158045 -0.031045,0.08184 -0.064911,0.160867 -0.031045,0.0762 -0.062089,0.146756 -0.031045,0.07056 -0.059267,0.121356 z"
       style="font-style:normal;font-variant:normal;font-weight:normal;font-stretch:normal;font-size:2.82223225px;font-family:Sniglet;-inkscape-font-specification:'Sniglet, Normal';font-variant-ligatures:normal;font-variant-caps:normal;font-variant-numeric:normal;font-feature-settings:normal;text-align:start;writing-mode:lr-tb;text-anchor:start;stroke-width:0.26458427"
       id="path933"
       inkscape:connector-curvature="0" />
    <path
       d="m 10.217099,60.541544 q -0.0056,-0.101601 -0.0085,-0.211668 0,-0.110067 -0.0028,-0.237067 -0.0028,-0.127001 -0.0028,-0.273757 0,-0.149578 0,-0.333023 0,-0.200379 0.0028,-0.34149 0.0028,-0.143934 0.01693,-0.234245 0.01411,-0.09031 0.04233,-0.132645 0.03104,-0.04233 0.08184,-0.04233 0.0254,0 0.04798,0.0056 0.02258,0.0056 0.03951,0.0254 0.01693,0.01693 0.02822,0.05362 0.01411,0.03387 0.01693,0.09031 0.0056,0.1016 0.0085,0.180622 0.0028,0.07902 0.0056,0.158045 0.0028,0.0762 0.0028,0.160868 0,0.08184 0,0.186267 0,0.127 0,0.242712 0,0.115712 -0.0028,0.228601 -0.0028,0.112889 -0.0056,0.228601 -0.0028,0.115711 -0.0085,0.242712 -0.0028,0.06773 -0.01411,0.104422 -0.01129,0.03669 -0.02822,0.05645 -0.01693,0.01975 -0.03951,0.02258 -0.02258,0.0056 -0.0508,0.0056 -0.0508,0 -0.08749,-0.03387 -0.03669,-0.03669 -0.04233,-0.1524 z"
       style="font-style:normal;font-variant:normal;font-weight:normal;font-stretch:normal;font-size:2.82223225px;font-family:Sniglet;-inkscape-font-specification:'Sniglet, Normal';font-variant-ligatures:normal;font-variant-caps:normal;font-variant-numeric:normal;font-feature-settings:normal;text-align:start;writing-mode:lr-tb;text-anchor:start;stroke-width:0.26458427"
       id="path935"
       inkscape:connector-curvature="0" />
    <path
       d="m 11.981391,60.583877 q -0.09031,-0.124178 -0.172157,-0.245534 -0.07902,-0.124178 -0.172156,-0.270934 -0.09031,-0.146756 -0.208845,-0.324557 -0.115711,-0.180623 -0.279401,-0.420513 0,0.211668 0,0.381002 0,0.166512 -0.0028,0.310445 -0.0028,0.143934 -0.0056,0.270935 -0.0028,0.127 -0.0085,0.254001 -0.0028,0.06773 -0.01411,0.104422 -0.0085,0.03669 -0.0254,0.05645 -0.01693,0.01975 -0.03951,0.02258 -0.01975,0.0056 -0.04798,0.0056 -0.0508,0 -0.08467,-0.03387 -0.03387,-0.03669 -0.03951,-0.1524 -0.01411,-0.310446 -0.01693,-0.620891 0,-0.313268 0,-0.646291 0,-0.18909 0.0028,-0.296335 0.0056,-0.107245 0.01976,-0.160867 0.01693,-0.05362 0.04233,-0.06773 0.02822,-0.01411 0.07338,-0.01411 0.04516,0 0.118534,0.07056 0.07338,0.06773 0.160867,0.180623 0.08749,0.112889 0.186267,0.259645 0.101601,0.146756 0.200379,0.301979 0.09878,0.155223 0.189089,0.307623 0.09313,0.152401 0.169334,0.276579 -0.0028,-0.132645 -0.0028,-0.29069 0,-0.160867 0,-0.355601 0,-0.222956 0.0028,-0.36689 0.0028,-0.146756 0.01411,-0.231423 0.01411,-0.08467 0.04233,-0.118534 0.02822,-0.03387 0.07902,-0.03387 0.04798,0 0.08467,0.03104 0.03669,0.03104 0.04233,0.143934 0.0056,0.1016 0.0085,0.180622 0.0028,0.07902 0.0056,0.158045 0.0028,0.0762 0.0028,0.160868 0,0.08184 0,0.186267 0,0.127 0,0.242712 0,0.115712 -0.0028,0.228601 -0.0028,0.112889 -0.0056,0.228601 -0.0028,0.115711 -0.0085,0.242712 -0.0028,0.06773 -0.01411,0.104422 -0.0085,0.03669 -0.0254,0.05645 -0.01693,0.01975 -0.03951,0.02258 -0.01975,0.0056 -0.04798,0.0056 -0.04798,0 -0.08184,-0.02822 -0.03387,-0.02822 -0.09878,-0.115712 z"
       style="font-style:normal;font-variant:normal;font-weight:normal;font-stretch:normal;font-size:2.82223225px;font-family:Sniglet;-inkscape-font-specification:'Sniglet, Normal';font-variant-ligatures:normal;font-variant-caps:normal;font-variant-numeric:normal;font-feature-settings:normal;text-align:start;writing-mode:lr-tb;text-anchor:start;stroke-width:0.26458427"
       id="path937"
       inkscape:connector-curvature="0" />
  </g>
  <g
     aria-label="BANK"
     style="font-style:normal;font-weight:normal;font-size:10.58336926px;line-height:1.25;font-family:sans-serif;letter-spacing:0px;word-spacing:0px;fill:#000000;fill-opacity:1;stroke:none;stroke-width:0.26458427"
     id="text866-2-2-4"
     transform="translate(85.338463,-52.802347)">
    <path
       d="m 6.5745921,78.694916 q -0.158045,0 -0.2540009,-0.0254 -0.095956,-0.0254 -0.1495783,-0.07056 -0.0508,-0.04798 -0.070556,-0.115712 -0.016933,-0.06773 -0.0254,-0.1524 -0.00847,-0.09878 -0.014111,-0.259646 -0.00282,-0.163689 -0.00282,-0.338667 0,-0.08467 0,-0.177801 0.00282,-0.09596 0.00282,-0.186267 0.00282,-0.09313 0.00564,-0.172157 0.00282,-0.07902 0.00847,-0.135467 0.00847,-0.08749 0.028222,-0.158045 0.019756,-0.07056 0.073378,-0.121356 0.056445,-0.0508 0.1552228,-0.0762 0.1016004,-0.02822 0.2681121,-0.02822 0.3781791,0 0.5644464,0.141111 0.1890896,0.13829 0.1890896,0.395113 0,0.132645 -0.059267,0.245534 -0.056445,0.112889 -0.1975562,0.169334 0.079022,0.01411 0.1439338,0.05927 0.064911,0.04516 0.1100671,0.110067 0.047978,0.06209 0.070556,0.141112 0.0254,0.0762 0.0254,0.155222 0,0.101601 -0.042333,0.208845 -0.042333,0.104423 -0.1439339,0.191912 -0.1016003,0.08749 -0.2709343,0.143934 -0.1665117,0.05645 -0.4148681,0.05645 z m 0.5898465,-0.609602 q 0,-0.101601 -0.047978,-0.16369 -0.045156,-0.06209 -0.1185338,-0.09313 -0.073378,-0.03387 -0.1636894,-0.04516 -0.090312,-0.01129 -0.1806229,-0.01129 -0.070556,0 -0.1467561,0 -0.0762,0 -0.1411116,0.0028 -0.00282,0.05927 -0.00564,0.121356 -0.00282,0.06209 -0.00564,0.118534 0,0.05362 0,0.09596 0,0.03951 0,0.05644 0,0.0762 0.011289,0.127001 0.011289,0.0508 0.042333,0.08185 0.031045,0.03104 0.087489,0.04516 0.059267,0.01129 0.1495783,0.01129 0.2483564,0 0.3838236,-0.08749 0.1354671,-0.08749 0.1354671,-0.259645 z M 6.6423257,76.945132 q -0.093134,0 -0.1524006,0.01693 -0.056445,0.01411 -0.087489,0.03951 -0.028222,0.0254 -0.039511,0.06209 -0.00847,0.03669 -0.00847,0.07902 v 0.395113 q 0.039511,0.0028 0.081845,0.0028 0.045156,0 0.084667,0 0.1016003,0 0.1975562,-0.01411 0.098778,-0.01411 0.1778007,-0.04798 0.079022,-0.03387 0.1270004,-0.09313 0.047978,-0.05927 0.047978,-0.152401 0,-0.127 -0.1044226,-0.206022 -0.1016004,-0.08185 -0.3245567,-0.08185 z"
       style="font-style:normal;font-variant:normal;font-weight:normal;font-stretch:normal;font-size:2.82223225px;font-family:Sniglet;-inkscape-font-specification:'Sniglet, Normal';font-variant-ligatures:normal;font-variant-caps:normal;font-variant-numeric:normal;font-feature-settings:normal;text-align:start;writing-mode:lr-tb;text-anchor:start;stroke-width:0.26458427"
       id="path922"
       inkscape:connector-curvature="0" />
    <path
       d="m 8.8832663,78.550982 q -0.028222,-0.06773 -0.062089,-0.155223 -0.031045,-0.09031 -0.067733,-0.189089 -0.084667,0.0028 -0.1778007,0.0056 -0.093134,0 -0.1890895,0 -0.121356,0 -0.2201341,0 -0.098778,0 -0.1806229,-0.0028 -0.033867,0.09878 -0.064911,0.186267 -0.031045,0.08749 -0.059267,0.155223 -0.056445,0.143934 -0.1636895,0.143934 -0.039511,0 -0.0762,-0.0254 -0.033867,-0.0254 -0.033867,-0.07338 0,-0.04798 0.016933,-0.124179 0.016933,-0.07902 0.042333,-0.166511 0.028222,-0.09031 0.059267,-0.183445 0.031045,-0.09596 0.059267,-0.177801 0.028222,-0.09031 0.079022,-0.228601 0.053622,-0.141111 0.1128893,-0.293512 0.059267,-0.152401 0.1185337,-0.299157 0.059267,-0.149578 0.1072449,-0.259645 0.011289,-0.02822 0.028222,-0.06209 0.016933,-0.03669 0.039511,-0.06773 0.0254,-0.03104 0.053622,-0.05362 0.031045,-0.02258 0.067734,-0.02258 0.036689,0 0.067734,0.0254 0.031045,0.02258 0.053622,0.05644 0.0254,0.03387 0.042333,0.07056 0.019756,0.03669 0.031045,0.06491 0.045156,0.112889 0.1016004,0.259645 0.059267,0.146756 0.1157115,0.296335 0.059267,0.149578 0.1100671,0.285045 0.0508,0.135467 0.081845,0.228601 0.0254,0.08185 0.056445,0.174978 0.033867,0.09313 0.062089,0.183445 0.028222,0.09031 0.045156,0.169334 0.019756,0.0762 0.019756,0.124179 0,0.04798 -0.036689,0.07338 -0.033867,0.0254 -0.073378,0.0254 -0.0508,0 -0.093134,-0.03387 -0.042333,-0.03669 -0.073378,-0.110067 z M 8.3837312,77.930091 q 0.067734,0 0.1354671,0.0028 0.067734,0 0.1354671,0.0028 -0.033867,-0.09878 -0.067734,-0.197556 -0.033867,-0.09878 -0.064911,-0.18909 -0.028222,-0.09031 -0.053622,-0.166511 -0.022578,-0.07902 -0.039511,-0.13829 -0.011289,-0.03669 -0.0254,-0.05927 -0.014111,-0.02258 -0.036689,-0.02258 -0.022578,0 -0.036689,0.0254 -0.014111,0.02258 -0.0254,0.05927 -0.033867,0.115711 -0.095956,0.301978 -0.059267,0.183446 -0.1270005,0.386646 0.0762,-0.0028 0.1524005,-0.0028 0.0762,-0.0028 0.1495784,-0.0028 z"
       style="font-style:normal;font-variant:normal;font-weight:normal;font-stretch:normal;font-size:2.82223225px;font-family:Sniglet;-inkscape-font-specification:'Sniglet, Normal';font-variant-ligatures:normal;font-variant-caps:normal;font-variant-numeric:normal;font-feature-settings:normal;text-align:start;writing-mode:lr-tb;text-anchor:start;stroke-width:0.26458427"
       id="path924"
       inkscape:connector-curvature="0" />
    <path
       d="m 10.477519,78.562271 q -0.09031,-0.124178 -0.172156,-0.245534 -0.07902,-0.124179 -0.172157,-0.270935 -0.09031,-0.146756 -0.2088448,-0.324556 -0.1157115,-0.180623 -0.279401,-0.420513 0,0.211667 0,0.381001 0,0.166512 -0.00282,0.310446 -0.00282,0.143934 -0.00564,0.270934 -0.00282,0.127001 -0.00847,0.254001 -0.00282,0.06773 -0.014111,0.104423 -0.00847,0.03669 -0.0254,0.05644 -0.016933,0.01976 -0.039511,0.02258 -0.019756,0.0056 -0.047978,0.0056 -0.0508,0 -0.084667,-0.03387 -0.033867,-0.03669 -0.039511,-0.152401 -0.014111,-0.310445 -0.016933,-0.620891 0,-0.313268 0,-0.646291 0,-0.189089 0.00282,-0.296334 0.00564,-0.107245 0.019756,-0.160868 0.016933,-0.05362 0.042333,-0.06773 0.028222,-0.01411 0.073378,-0.01411 0.045156,0 0.1185337,0.07056 0.073378,0.06773 0.1608673,0.180622 0.087489,0.11289 0.1862673,0.259646 0.1016005,0.146756 0.2003785,0.301979 0.09878,0.155222 0.18909,0.307623 0.09313,0.1524 0.169333,0.276579 -0.0028,-0.132645 -0.0028,-0.29069 0,-0.160867 0,-0.355601 0,-0.222957 0.0028,-0.366891 0.0028,-0.146756 0.01411,-0.231423 0.01411,-0.08467 0.04233,-0.118533 0.02822,-0.03387 0.07902,-0.03387 0.04798,0 0.08467,0.03104 0.03669,0.03104 0.04233,0.143934 0.0056,0.1016 0.0085,0.180623 0.0028,0.07902 0.0056,0.158045 0.0028,0.0762 0.0028,0.160867 0,0.08185 0,0.186268 0,0.127 0,0.242712 0,0.115711 -0.0028,0.2286 -0.0028,0.11289 -0.0056,0.228601 -0.0028,0.115712 -0.0085,0.242712 -0.0028,0.06773 -0.01411,0.104423 -0.0085,0.03669 -0.0254,0.05644 -0.01693,0.01976 -0.03951,0.02258 -0.01976,0.0056 -0.04798,0.0056 -0.04798,0 -0.08184,-0.02822 -0.03387,-0.02822 -0.09878,-0.115711 z"
       style="font-style:normal;font-variant:normal;font-weight:normal;font-stretch:normal;font-size:2.82223225px;font-family:Sniglet;-inkscape-font-specification:'Sniglet, Normal';font-variant-ligatures:normal;font-variant-caps:normal;font-variant-numeric:normal;font-feature-settings:normal;text-align:start;writing-mode:lr-tb;text-anchor:start;stroke-width:0.26458427"
       id="path926"
       inkscape:connector-curvature="0" />
    <path
       d="m 11.154458,78.519937 q -0.0056,-0.1016 -0.0085,-0.211667 0,-0.110067 -0.0028,-0.237068 -0.0028,-0.127 -0.0028,-0.273756 0,-0.149578 0,-0.333023 0,-0.200379 0.0028,-0.341491 0.0028,-0.143933 0.01411,-0.234245 0.01411,-0.09031 0.04233,-0.132645 0.02822,-0.04233 0.07902,-0.04233 0.04798,0 0.08467,0.03104 0.03669,0.03104 0.04233,0.143934 0.0056,0.1016 0.0085,0.180623 0.0028,0.07902 0.0056,0.158045 0.0028,0.0762 0.0028,0.160867 0,0.08185 0,0.186268 v 0.146756 l 0.603957,-0.691447 q 0.118534,-0.135467 0.183446,-0.177801 0.06491,-0.04516 0.112889,-0.04516 0.05644,0 0.08184,0.02822 0.02822,0.02822 0.02822,0.07056 0,0.01693 -0.0056,0.03387 -0.0056,0.01693 -0.0254,0.04798 -0.01693,0.02822 -0.05362,0.07338 -0.03669,0.04233 -0.09878,0.110067 l -0.39229,0.426157 0.618068,0.880537 q 0.02258,0.03104 0.03387,0.06491 0.01411,0.03387 0.01411,0.06491 0,0.05362 -0.03104,0.08749 -0.02822,0.03669 -0.101601,0.03669 -0.05927,0 -0.107244,-0.03387 -0.04516,-0.03105 -0.08467,-0.09313 l -0.536225,-0.793047 -0.242711,0.26529 q -0.0028,0.107245 -0.0056,0.21449 -0.0028,0.107244 -0.0085,0.225778 -0.0028,0.06773 -0.01411,0.104423 -0.0085,0.03669 -0.0254,0.05644 -0.01693,0.01976 -0.03951,0.02258 -0.01976,0.0056 -0.04798,0.0056 -0.0508,0 -0.08467,-0.03387 -0.03387,-0.03669 -0.03951,-0.152401 z"
       style="font-style:normal;font-variant:normal;font-weight:normal;font-stretch:normal;font-size:2.82223225px;font-family:Sniglet;-inkscape-font-specification:'Sniglet, Normal';font-variant-ligatures:normal;font-variant-caps:normal;font-variant-numeric:normal;font-feature-settings:normal;text-align:start;writing-mode:lr-tb;text-anchor:start;stroke-width:0.26458427"
       id="path928"
       inkscape:connector-curvature="0" />
  </g>
  <g
     aria-label="CV"
     style="font-style:normal;font-weight:normal;font-size:10.58337116px;line-height:1.25;font-family:sans-serif;letter-spacing:0px;word-spacing:0px;fill:#000000;fill-opacity:1;stroke:none;stroke-width:0.26458427"
     id="text908"
     transform="translate(0,-1.0583371)">
    <path
       d="m 32.659522,8.4981822 q 0.09313,0 0.186267,0.016933 0.09596,0.014111 0.172157,0.047978 0.0762,0.031045 0.124178,0.079022 0.0508,0.045156 0.0508,0.1072449 0,0.064911 -0.03387,0.098778 -0.03387,0.033867 -0.08467,0.033867 -0.04798,0 -0.08467,-0.014111 -0.03669,-0.016933 -0.08467,-0.036689 -0.04516,-0.019756 -0.110067,-0.033867 -0.06491,-0.016933 -0.172156,-0.016933 -0.107245,0 -0.206023,0.056445 -0.09596,0.053622 -0.169334,0.1524005 -0.07056,0.095956 -0.112889,0.2286008 -0.04233,0.1326449 -0.04233,0.2878677 0,0.1919118 0.04798,0.3302012 0.0508,0.1382894 0.129823,0.2286007 0.07902,0.08749 0.177801,0.132645 0.1016,0.04233 0.2032,0.04233 0.121356,0 0.203201,-0.0254 0.08185,-0.0254 0.13829,-0.05644 0.05927,-0.03105 0.1016,-0.05645 0.04233,-0.0254 0.08185,-0.0254 0.04798,0 0.0762,0.02822 0.02822,0.0254 0.02822,0.09313 0,0.05645 -0.04516,0.115712 -0.04233,0.05644 -0.127001,0.104422 -0.08185,0.04516 -0.197556,0.0762 -0.115712,0.02822 -0.259646,0.02822 -0.158045,0 -0.31609,-0.06209 Q 32.179735,10.39753 32.055556,10.276175 31.9342,10.151996 31.858,9.9685512 31.7818,9.7822839 31.7818,9.5367497 q 0,-0.2455342 0.06773,-0.437446 0.07056,-0.1919118 0.18909,-0.3245567 0.121356,-0.1354672 0.279401,-0.206023 0.160867,-0.070556 0.34149,-0.070556 z"
       style="font-style:normal;font-variant:normal;font-weight:normal;font-stretch:normal;font-size:2.82223225px;font-family:Sniglet;-inkscape-font-specification:'Sniglet, Normal';font-variant-ligatures:normal;font-variant-caps:normal;font-variant-numeric:normal;font-feature-settings:normal;text-align:start;writing-mode:lr-tb;text-anchor:start;stroke-width:0.26458427"
       id="path914"
       inkscape:connector-curvature="0" />
    <path
       d="m 34.300959,10.383433 q -0.03669,0.06773 -0.06773,0.09878 -0.02822,0.03105 -0.07338,0.03105 -0.04516,0 -0.07902,-0.03105 -0.03387,-0.03104 -0.07338,-0.09596 -0.0508,-0.08467 -0.115712,-0.234246 -0.06209,-0.149578 -0.127,-0.3245564 Q 33.699823,9.649653 33.637734,9.4605634 33.575645,9.2714738 33.524845,9.1049621 33.476867,8.9384504 33.445822,8.8142722 33.4176,8.6872718 33.4176,8.6336493 q 0,-0.056445 0.02258,-0.084667 0.02258,-0.028222 0.08749,-0.028222 0.03669,0 0.06209,0.019756 0.02822,0.016933 0.07056,0.1016003 0.03387,0.064911 0.07338,0.169334 0.03951,0.1044226 0.08184,0.231423 0.04516,0.1270005 0.09031,0.2681121 0.04516,0.1382894 0.09031,0.2765787 0.04516,0.1382894 0.08467,0.2652899 0.03951,0.1270004 0.07338,0.2286007 0.03387,-0.1044225 0.0762,-0.231423 0.04233,-0.1298226 0.08749,-0.2652898 0.04516,-0.1382894 0.09031,-0.2765787 0.04516,-0.1411117 0.09031,-0.2652899 0.04516,-0.1241782 0.08467,-0.2286008 0.03951,-0.1044226 0.07056,-0.1721562 0.03951,-0.081845 0.06773,-0.1016003 0.03104,-0.019756 0.06209,-0.019756 0.06491,0 0.08749,0.033867 0.0254,0.031045 0.0254,0.093134 0,0.056445 -0.01693,0.1354672 -0.01693,0.079023 -0.05927,0.2116674 -0.03951,0.1298227 -0.107245,0.3245567 -0.06773,0.194734 -0.166512,0.4769572 -0.0254,0.0762 -0.05927,0.158045 -0.03104,0.081845 -0.06491,0.1608672 -0.03104,0.0762 -0.06209,0.146756 -0.03104,0.07056 -0.05927,0.121356 z"
       style="font-style:normal;font-variant:normal;font-weight:normal;font-stretch:normal;font-size:2.82223225px;font-family:Sniglet;-inkscape-font-specification:'Sniglet, Normal';font-variant-ligatures:normal;font-variant-caps:normal;font-variant-numeric:normal;font-feature-settings:normal;text-align:start;writing-mode:lr-tb;text-anchor:start;stroke-width:0.26458427"
       id="path916"
       inkscape:connector-curvature="0" />
  </g>
</svg>
