<svg xmlns="http://www.w3.org/2000/svg" width="150" height="380" viewBox="0 0 39.688 100.542"><path d="M0 0h39.688v100.542H0zm0 0" fill="#dcdcdc"/><g style="line-height:1.25"><path word-spacing="0" letter-spacing="0" font-weight="400" aria-label="♫" font-size="3.528" style="-inkscape-font-specification:'Arial, Normal';font-variant-ligatures:normal;font-variant-caps:normal;font-variant-numeric:normal;font-feature-settings:normal;text-align:start" d="M20.505 97.252l-1.63.115v-2.06q0-.23.065-.333.064-.104.22-.147.153-.043.348-.002.223.047.356.19.133.146.133.33 0 .186-.158.286-.157.103-.407.05-.082-.018-.144-.044-.063-.026-.205-.11v1.345l1.22-.085v-1.554q0-.224.065-.337.066-.11.225-.15.16-.041.35-.001.222.047.353.19.13.14.13.325 0 .195-.157.294-.155.1-.407.047-.16-.034-.357-.16z" font-family="Arial" fill="#333"/></g><g style="line-height:1.25;-inkscape-font-specification:'Sniglet, Normal';font-variant-ligatures:normal;font-variant-caps:normal;font-variant-numeric:normal;font-feature-settings:normal;text-align:start"><path d="M8.7 70.918l-.061-.155q-.03-.09-.067-.19l-.178.006h-.41q-.098 0-.18-.003l-.065.187q-.03.087-.06.155-.056.144-.163.144-.04 0-.076-.026-.034-.025-.034-.073 0-.048.017-.124.017-.08.042-.167l.06-.183q.03-.096.059-.178.028-.09.079-.228l.113-.294.118-.3q.06-.149.108-.259.01-.028.028-.062.017-.037.04-.068.025-.03.053-.053.03-.023.068-.023.036 0 .067.026.03.022.054.056.025.034.042.07.02.037.03.066.047.112.103.26.06.146.116.295.059.15.11.286.05.135.082.228.025.082.056.175.034.093.062.184.028.09.045.169.02.076.02.124t-.037.073q-.034.026-.073.026-.05 0-.093-.034-.043-.037-.074-.11zm-.5-.62q.07 0 .137.002.068 0 .136.003l-.068-.198-.065-.189-.053-.167-.04-.138q-.011-.036-.025-.06-.014-.022-.037-.022t-.037.026q-.014.022-.025.059-.034.116-.096.302l-.127.387q.076-.003.152-.003.077-.003.15-.003z" style="-inkscape-font-specification:'Sniglet, Normal';font-variant-ligatures:normal;font-variant-caps:normal;font-variant-numeric:normal;font-feature-settings:normal;text-align:start" aria-label="A" font-weight="400" font-size="2.822" letter-spacing="0" word-spacing="0" font-family="Sniglet"/></g><g style="line-height:1.25;-inkscape-font-specification:'Sniglet, Normal';font-variant-ligatures:normal;font-variant-caps:normal;font-variant-numeric:normal;font-feature-settings:normal;text-align:start"><path d="M8.036 84.058q-.16 0-.254-.026-.096-.025-.15-.07-.05-.048-.07-.116-.018-.068-.026-.152-.01-.1-.014-.26-.003-.164-.003-.339v-.178q.003-.096.003-.186l.005-.172q.003-.079.009-.135.008-.088.028-.159.02-.07.074-.12.056-.052.155-.077.1-.028.268-.028.378 0 .564.14.19.14.19.396 0 .133-.06.245-.056.113-.197.17.079.014.144.06.064.044.11.11.048.061.07.14.026.076.026.155 0 .102-.043.21-.042.104-.144.191-.101.088-.27.144-.167.057-.415.057zm.59-.61q0-.102-.05-.164-.044-.062-.117-.093-.074-.034-.164-.045-.09-.011-.18-.011h-.147q-.076 0-.141.003l-.006.12-.006.12v.152q0 .076.012.127.01.05.042.082.03.03.088.045.059.011.15.011.248 0 .383-.087.135-.088.135-.26zm-.523-1.14q-.093 0-.152.017-.057.014-.088.04-.028.025-.04.061-.008.037-.008.08v.394q.04.003.082.003h.085q.1 0 .197-.014.1-.014.178-.048.08-.034.127-.093.048-.06.048-.152 0-.127-.104-.206-.102-.082-.325-.082z" style="-inkscape-font-specification:'Sniglet, Normal';font-variant-ligatures:normal;font-variant-caps:normal;font-variant-numeric:normal;font-feature-settings:normal;text-align:start" aria-label="B" font-weight="400" font-size="2.822" letter-spacing="0" word-spacing="0" font-family="Sniglet"/></g><g style="line-height:1.25;-inkscape-font-specification:'Sniglet, Normal';font-variant-ligatures:normal;font-variant-caps:normal;font-variant-numeric:normal;font-feature-settings:normal;text-align:start"><path d="M19.929 69.038q.093 0 .186.017.096.014.172.048.076.031.124.08.05.044.05.106 0 .065-.033.1-.034.033-.085.033-.048 0-.084-.014l-.085-.037q-.045-.02-.11-.034-.065-.017-.172-.017-.107 0-.206.057-.096.054-.17.152-.07.096-.112.229-.043.133-.043.288 0 .192.048.33.05.138.13.229.08.087.178.132.102.043.203.043.12 0 .203-.026.082-.025.139-.056.059-.031.1-.057.044-.025.083-.025.048 0 .076.028.028.025.028.093 0 .057-.045.116-.042.056-.127.104-.082.046-.197.077-.116.028-.26.028-.158 0-.316-.062-.155-.062-.28-.184-.12-.124-.197-.307-.076-.187-.076-.432 0-.246.068-.438.07-.192.189-.324.12-.136.28-.206.16-.07.34-.07z" style="-inkscape-font-specification:'Sniglet, Normal';font-variant-ligatures:normal;font-variant-caps:normal;font-variant-numeric:normal;font-feature-settings:normal;text-align:start" aria-label="C" font-weight="400" font-size="2.822" letter-spacing="0" word-spacing="0" font-family="Sniglet"/></g><g style="line-height:1.25;-inkscape-font-specification:'Sniglet, Normal';font-variant-ligatures:normal;font-variant-caps:normal;font-variant-numeric:normal;font-feature-settings:normal;text-align:start"><path d="M19.717 82.031q.29 0 .466.088.175.087.268.231.093.144.12.328.032.183.032.372 0 .206-.054.39-.05.183-.16.321-.108.136-.277.218-.17.079-.404.079-.186 0-.3-.029-.11-.025-.171-.079-.06-.053-.08-.135-.02-.082-.02-.192v-1.061q0-.122.02-.22.024-.1.086-.167.062-.07.175-.107.115-.037.299-.037zm.01 1.744q.176 0 .289-.062.116-.065.184-.169.067-.104.093-.237.028-.133.028-.271 0-.127-.02-.254-.02-.13-.082-.234-.062-.105-.178-.17-.115-.065-.307-.065-.175 0-.243.051t-.068.155V83.6q0 .088.062.133.065.042.243.042z" style="-inkscape-font-specification:'Sniglet, Normal';font-variant-ligatures:normal;font-variant-caps:normal;font-variant-numeric:normal;font-feature-settings:normal;text-align:start" aria-label="D" font-weight="400" font-size="2.822" letter-spacing="0" word-spacing="0" font-family="Sniglet"/></g><g font-weight="400" font-size="2.822" letter-spacing="0" word-spacing="0" font-family="Sniglet" stroke-width=".265"><g style="line-height:1.25"><path style="-inkscape-font-specification:'Sniglet, Normal';font-variant-ligatures:normal;font-variant-caps:normal;font-variant-numeric:normal;font-feature-settings:normal;text-align:start" d="M12.994 73.99q-.006-.1-.008-.21 0-.11-.003-.239-.003-.127-.003-.274v-.333q0-.2.003-.34.003-.145.017-.235.014-.09.042-.133.03-.042.082-.042.026 0 .048.005.023.006.04.026.017.017.028.053.014.034.017.09.006.102.008.181l.006.158q.003.076.003.161v.43q0 .115-.003.228l-.006.228-.008.243q-.003.068-.014.104-.011.037-.028.057-.017.02-.04.022-.022.006-.05.006-.051 0-.088-.034-.037-.037-.042-.152zm1.765.042q-.09-.124-.173-.245l-.172-.27q-.09-.148-.21-.326-.114-.18-.278-.42v.38q0 .167-.003.311l-.006.271-.008.254q-.003.068-.014.104-.008.037-.026.057-.016.02-.04.022-.02.006-.047.006-.05 0-.085-.034-.034-.037-.04-.152-.013-.31-.016-.62v-.647q0-.19.003-.297.006-.107.02-.16.016-.054.042-.068.028-.014.073-.014t.119.07q.073.068.16.18.088.114.187.26.102.147.2.302.1.156.19.308l.169.277q-.003-.133-.003-.29v-.357q0-.223.003-.367.003-.146.014-.23.014-.086.042-.12.028-.033.08-.033.047 0 .084.03.037.032.042.145.006.101.008.18l.006.158q.003.076.003.161v.43q0 .115-.003.228l-.006.228-.008.243q-.003.068-.014.104-.008.037-.025.057-.017.02-.04.022-.02.006-.048.006-.048 0-.082-.028t-.098-.116z" aria-label="CV2 IN"/></g><g style="line-height:1.25"><path style="-inkscape-font-specification:'Sniglet, Normal';font-variant-ligatures:normal;font-variant-caps:normal;font-variant-numeric:normal;font-feature-settings:normal;text-align:start" d="M12.584 69.037q.092 0 .185.017.096.014.173.048.076.031.124.08.05.044.05.106 0 .065-.033.1-.034.033-.085.033-.048 0-.085-.014-.036-.017-.084-.037-.045-.02-.11-.034-.065-.017-.173-.017-.107 0-.206.057-.096.054-.17.152-.07.096-.112.23-.042.132-.042.287 0 .192.048.33.05.138.13.23.079.086.177.131.102.043.204.043.12 0 .203-.026.082-.025.138-.056.06-.03.102-.057.042-.025.082-.025.048 0 .076.028.028.025.028.093 0 .057-.045.116-.042.056-.127.104-.082.046-.198.077-.115.028-.26.028-.157 0-.315-.062-.156-.062-.28-.184-.121-.124-.197-.307-.077-.187-.077-.432 0-.246.068-.438.07-.192.19-.324.12-.136.279-.206.16-.07.34-.07zm1.64 1.885q-.036.068-.067.1-.028.03-.074.03-.045 0-.08-.03-.032-.032-.072-.097-.05-.084-.116-.234-.062-.15-.127-.325-.065-.177-.127-.366-.062-.19-.113-.356-.048-.167-.08-.29-.027-.128-.027-.18 0-.058.023-.086.022-.028.087-.028.037 0 .062.02.029.016.07.101.035.065.074.17.04.104.082.23.045.128.09.27.046.137.09.276.046.138.085.265.04.127.074.228l.076-.23.088-.266.09-.277q.045-.14.09-.265l.085-.229q.04-.104.07-.172.04-.082.068-.1.03-.02.062-.02.065 0 .088.033.025.03.025.093 0 .056-.017.135-.017.08-.06.212-.04.13-.106.324l-.167.477q-.025.077-.06.158-.03.082-.064.161-.031.077-.062.147-.031.07-.06.121zm1.41-1.59q-.101 0-.17.021-.067.02-.112.054t-.073.07l-.051.071q-.023.034-.051.057-.025.02-.065.02-.068 0-.096-.035-.025-.036-.025-.096 0-.124.093-.23.028-.035.076-.07.05-.04.119-.072.07-.03.16-.05.094-.023.21-.023.307 0 .476.15.17.15.17.42 0 .053-.012.118-.008.065-.036.136-.026.07-.074.146-.048.077-.127.156-.07.07-.15.13-.078.06-.163.118l-.178.127q-.09.065-.183.15.09.047.194.062.105.014.235.014.12 0 .194-.006.074-.005.119-.014l.07-.014q.026-.006.054-.006.105 0 .105.096 0 .085-.071.13-.07.045-.17.068-.098.02-.203.022-.104.006-.172.006-.036 0-.104-.006-.065-.002-.141-.014-.076-.01-.155-.03-.077-.023-.142-.057-.062-.037-.101-.088-.04-.053-.04-.127 0-.098.07-.186.074-.09.18-.175.109-.087.233-.172.124-.088.23-.178.109-.093.179-.192.074-.099.074-.214 0-.144-.1-.215-.095-.073-.276-.073z" aria-label="CV2"/></g></g><path style="line-height:1.25;-inkscape-font-specification:'Sniglet, Normal';font-variant-ligatures:normal;font-variant-caps:normal;font-variant-numeric:normal;font-feature-settings:normal;text-align:start" d="M27.774 72.528q.093 0 .186.017.096.014.173.048.076.03.124.079.05.045.05.107 0 .065-.033.099-.034.034-.085.034-.048 0-.085-.015l-.084-.036q-.046-.02-.11-.034-.065-.017-.173-.017-.107 0-.206.056-.096.054-.17.153-.07.096-.112.228-.042.133-.042.288 0 .192.048.33.05.139.13.229.08.087.177.133.102.042.204.042.12 0 .203-.025.082-.026.138-.057.06-.03.102-.056.042-.026.081-.026.048 0 .077.029.028.025.028.093 0 .056-.045.115-.043.057-.127.105-.082.045-.198.076-.116.028-.26.028-.158 0-.316-.062-.155-.062-.279-.183-.12-.125-.198-.308-.076-.186-.076-.432 0-.245.068-.437.07-.192.19-.325.12-.135.28-.206.16-.07.34-.07zm1.642 1.885q-.037.068-.068.099-.028.03-.074.03-.045 0-.079-.03-.033-.031-.073-.096-.05-.085-.116-.235-.062-.15-.127-.324-.065-.178-.127-.367-.062-.19-.113-.356-.048-.166-.079-.29-.028-.127-.028-.18 0-.057.023-.086.022-.028.087-.028.037 0 .062.02.03.017.07.102.035.065.074.169.04.104.082.23.045.128.09.269l.09.277q.046.138.086.265l.073.229.076-.231.088-.266.09-.276q.045-.141.09-.266.045-.124.085-.228.04-.105.07-.172.04-.082.068-.102.031-.02.062-.02.065 0 .088.034.025.03.025.093 0 .057-.017.136-.017.079-.059.21-.04.13-.107.326l-.167.477q-.025.076-.059.158-.03.082-.065.16-.03.077-.062.148-.03.07-.06.12z" word-spacing="0" letter-spacing="0" font-size="10.667" font-weight="400" font-family="Sniglet"/><g style="line-height:1.25"><path d="M33.093 72.465q.093 0 .186.017.096.014.173.048.076.03.124.079.05.045.05.107 0 .065-.033.099-.034.034-.085.034-.048 0-.085-.014-.036-.017-.084-.037-.045-.02-.11-.034-.065-.017-.172-.017-.108 0-.207.057-.095.053-.169.152-.07.096-.113.229-.042.132-.042.288 0 .192.048.33.05.138.13.228.08.088.178.133.101.042.203.042.121 0 .203-.025.082-.025.138-.056.06-.031.102-.057.042-.025.082-.025.048 0 .076.028.028.025.028.093 0 .057-.045.116-.042.056-.127.104-.082.045-.198.076-.115.029-.26.029-.157 0-.315-.062-.156-.063-.28-.184-.12-.124-.197-.308-.076-.186-.076-.431 0-.246.067-.438.07-.192.19-.324.12-.136.28-.206.16-.07.34-.07zm1.642 1.886q-.037.067-.068.098-.028.03-.073.03-.046 0-.08-.03-.033-.031-.073-.096-.05-.085-.116-.234-.062-.15-.127-.325-.064-.177-.127-.367-.062-.19-.112-.355-.048-.167-.08-.29-.028-.128-.028-.181 0-.057.023-.085.022-.028.087-.028.037 0 .062.02.03.016.071.1.034.066.073.17.04.105.082.23.045.129.09.27l.09.276q.046.139.086.266l.073.228.076-.231q.042-.13.088-.265l.09-.277q.045-.141.09-.265l.085-.23q.04-.103.07-.171.04-.082.068-.102.031-.02.062-.02.065 0 .088.035.025.03.025.093 0 .056-.017.135-.017.08-.059.212-.04.13-.107.324l-.167.477q-.025.077-.06.158-.03.082-.064.16l-.062.148q-.03.07-.06.12zm1.41-1.592q-.102 0-.17.022-.068.02-.113.054t-.073.07l-.05.07q-.024.035-.052.057-.025.02-.065.02-.068 0-.096-.034-.025-.036-.025-.096 0-.124.093-.231.028-.034.076-.07.05-.04.12-.071.07-.031.16-.051.093-.023.21-.023.306 0 .475.15.17.15.17.42 0 .054-.012.119-.008.065-.036.135-.026.07-.074.147-.048.076-.127.155-.07.07-.15.13-.078.06-.163.119l-.178.127q-.09.065-.183.15.09.047.194.06.105.016.235.016.121 0 .194-.006.074-.006.12-.014l.07-.014q.025-.006.053-.006.105 0 .105.096 0 .085-.07.13t-.17.068q-.099.02-.203.022-.105.006-.173.006-.036 0-.104-.006-.065-.003-.14-.014-.077-.011-.156-.03-.077-.023-.142-.057-.062-.037-.1-.088-.04-.053-.04-.127 0-.1.07-.186.073-.09.181-.175.107-.088.231-.172.124-.088.231-.178.108-.093.178-.192.074-.1.074-.214 0-.144-.1-.215-.095-.073-.276-.073z" style="-inkscape-font-specification:'Sniglet, Normal';font-variant-ligatures:normal;font-variant-caps:normal;font-variant-numeric:normal;font-feature-settings:normal;text-align:start" aria-label="CV2" font-weight="400" font-size="2.822" letter-spacing="0" word-spacing="0" font-family="Sniglet"/></g><g style="line-height:1.25"><path style="-inkscape-font-specification:'Sniglet, Normal';font-variant-ligatures:normal;font-variant-caps:normal;font-variant-numeric:normal;font-feature-settings:normal;text-align:start" d="M28.684 69.589q.017-.04.05-.065.038-.025.077-.025.037 0 .07.025.035.023.054.062.108.22.212.477.104.254.19.483.047-.35.103-.706.057-.356.127-.68.01-.037.026-.06.017-.025.037-.036.02-.014.04-.02.022-.006.036-.006.048 0 .08.028.03.026.03.071 0 .05-.017.18-.017.128-.045.3-.028.17-.065.361-.034.192-.068.37-.034.177-.065.324-.03.147-.05.223-.018.065-.05.099-.035.031-.1.031-.068 0-.116-.06-.045-.061-.1-.191-.055-.13-.13-.33-.078-.204-.199-.486-.124.282-.203.486-.076.203-.133.333-.053.13-.1.192-.049.059-.114.059-.113 0-.15-.13-.022-.076-.053-.22l-.065-.325-.065-.366q-.034-.192-.06-.362l-.042-.296q-.014-.13-.014-.18 0-.049.03-.08.032-.03.09-.03.04 0 .075.025.037.022.053.096.068.324.12.68.053.355.112.705.087-.206.175-.437.087-.231.217-.52zm2.023.745l-.082.006h-.178q-.048 0-.107-.006v.573q0 .09-.045.113-.042.02-.107.02-.034 0-.054-.007-.02-.003-.034-.014-.01-.014-.02-.04-.005-.025-.008-.07-.006-.05-.01-.146l-.004-.254q0-.156-.003-.376v-.522q0-.116.028-.223.028-.11.102-.192.073-.084.197-.135.127-.051.322-.051.138 0 .268.031.133.031.235.107.1.076.163.206.062.13.062.325 0 .26-.113.403-.11.142-.304.2l.378.52q.05.068.05.138 0 .057-.04.088-.036.034-.092.034-.062 0-.107-.034-.045-.037-.085-.093zm.443-.658q0-.194-.118-.288-.116-.096-.37-.096-.093 0-.155.017-.062.014-.1.057-.036.042-.053.118-.014.074-.014.19v.191q0 .11.003.2.065.004.144.004h.152q.08 0 .167-.008.09-.012.166-.051.076-.042.127-.119.05-.079.05-.214zm.573 1.177q-.005-.101-.008-.212 0-.11-.003-.237t-.003-.273v-.333q0-.2.003-.342.003-.144.017-.234.014-.09.042-.133.03-.042.082-.042.026 0 .048.006.023.006.04.025.017.017.028.054.014.034.017.09.006.102.008.18l.006.159q.003.076.003.16v.43q0 .115-.003.228l-.006.229q-.002.116-.008.243-.003.067-.014.104-.01.037-.028.057-.017.02-.04.022-.022.006-.05.006-.052 0-.088-.034-.037-.036-.043-.152zm1.717-1.541q-.08.006-.17.008l-.194.006.006.144.006.133q.002.068.002.14.003.074.003.165v.245q0 .116-.003.234l-.005.235q-.003.118-.01.245-.002.068-.013.105-.008.036-.025.056-.017.02-.04.023-.022.006-.05.006-.05 0-.088-.034-.034-.037-.04-.153-.005-.101-.008-.214 0-.113-.003-.243t-.003-.28v-.606q.003-.116.01-.2h-.117q-.118 0-.203-.003-.082-.003-.136-.014-.053-.015-.08-.043-.02-.028-.02-.079 0-.025.004-.045.006-.023.026-.04.02-.02.054-.03.036-.012.093-.017l.096-.006.084-.006q.043-.003.088-.003h.104q.167 0 .313.003.15.003.317.01.067.007.104.018.037.008.056.025.02.017.023.04.006.022.006.05 0 .051-.037.085-.034.034-.15.04zm.402 1.288l-.01-.246q-.007-.156-.007-.32v-.191l.006-.206q.006-.21.025-.328.023-.118.085-.177.065-.06.18-.074.116-.014.308-.014h.06q.06 0 .14.003.083 0 .17.003l.15.006q.062.006.098.017.04.008.06.025.02.015.025.037.006.02.006.045 0 .065-.037.096-.037.029-.15.037-.056.006-.166.008h-.22q-.113 0-.203.003h-.113q-.074.003-.105.034-.028.028-.028.138l.003.124q.005.096.005.271h.235q.15 0 .242.006.096.003.147.017.054.014.074.045.02.031.02.082 0 .026-.006.048-.003.02-.023.037-.02.014-.056.025-.037.008-.105.014-.082.006-.155.008h-.378v.345l.005.096q.003.045.012.076.01.03.036.05.03.02.08.029.053.008.14.008H35q.1 0 .125.037.025.036.025.098 0 .051-.023.08-.022.025-.11.036-.084.014-.257.017-.17.003-.468.003-.127 0-.21-.023-.08-.022-.132-.076-.05-.053-.076-.138-.022-.088-.03-.212z" word-spacing="0" letter-spacing="0" font-size="2.822" font-weight="400" aria-label="WRITE" font-family="Sniglet"/></g><path d="M31.486 83.255v1.322" fill="none" stroke="#000" stroke-width=".132"/><g style="line-height:1.25;-inkscape-font-specification:'Sniglet, Normal';font-variant-ligatures:normal;font-variant-caps:normal;font-variant-numeric:normal;font-feature-settings:normal;text-align:start"><path d="M8.7 13.67l-.061-.154q-.03-.09-.067-.19l-.178.006h-.41q-.098 0-.18-.003l-.065.187q-.03.087-.06.155-.056.144-.163.144-.04 0-.076-.026-.034-.025-.034-.073 0-.048.017-.124.017-.08.042-.167l.06-.183q.03-.096.059-.178.028-.09.079-.228l.113-.294.118-.3q.06-.15.108-.26.01-.027.028-.061.017-.037.04-.068.025-.03.053-.053.03-.023.068-.023.036 0 .067.026.03.022.054.056.025.034.042.07.02.037.03.066.047.112.103.26.06.146.116.295.059.15.11.286.05.135.082.228.025.082.056.175.034.093.062.184.028.09.045.169.02.076.02.124t-.037.073q-.034.026-.073.026-.05 0-.093-.034-.043-.037-.074-.11zm-.5-.62q.07 0 .137.003.068 0 .136.003l-.068-.198-.065-.19-.053-.166-.04-.138q-.011-.036-.025-.06-.014-.022-.037-.022t-.037.026q-.014.022-.025.059-.034.116-.096.302l-.127.387q.076-.003.152-.003.077-.003.15-.003z" style="-inkscape-font-specification:'Sniglet, Normal';font-variant-ligatures:normal;font-variant-caps:normal;font-variant-numeric:normal;font-feature-settings:normal;text-align:start" aria-label="A" font-weight="400" font-size="2.822" letter-spacing="0" word-spacing="0" font-family="Sniglet"/></g><g style="line-height:1.25;-inkscape-font-specification:'Sniglet, Normal';font-variant-ligatures:normal;font-variant-caps:normal;font-variant-numeric:normal;font-feature-settings:normal;text-align:start"><path d="M8.036 26.81q-.16 0-.254-.025-.096-.025-.15-.07-.05-.048-.07-.116-.018-.068-.026-.152-.01-.1-.014-.26-.003-.164-.003-.34v-.177q.003-.096.003-.186l.005-.172q.003-.08.009-.135.008-.088.028-.16.02-.07.074-.12.056-.051.155-.076.1-.028.268-.028.378 0 .564.14.19.14.19.396 0 .133-.06.245-.056.113-.197.17.079.014.144.06.064.044.11.11.048.06.07.14.026.076.026.155 0 .102-.043.21-.042.104-.144.19-.101.089-.27.145-.167.057-.415.057zm.59-.61q0-.101-.05-.163-.044-.062-.117-.093-.074-.034-.164-.045-.09-.011-.18-.011h-.147q-.076 0-.141.003l-.006.12-.006.12v.152q0 .076.012.127.01.05.042.082.03.03.088.045.059.01.15.01.248 0 .383-.086.135-.088.135-.26zm-.523-1.14q-.093 0-.152.018-.057.014-.088.04-.028.025-.04.06-.008.038-.008.08v.395q.04.003.082.003h.085q.1 0 .197-.014.1-.014.178-.048.08-.034.127-.093.048-.06.048-.152 0-.127-.104-.206-.102-.082-.325-.082z" style="-inkscape-font-specification:'Sniglet, Normal';font-variant-ligatures:normal;font-variant-caps:normal;font-variant-numeric:normal;font-feature-settings:normal;text-align:start" aria-label="B" font-weight="400" font-size="2.822" letter-spacing="0" word-spacing="0" font-family="Sniglet"/></g><g style="line-height:1.25;-inkscape-font-specification:'Sniglet, Normal';font-variant-ligatures:normal;font-variant-caps:normal;font-variant-numeric:normal;font-feature-settings:normal;text-align:start"><path d="M19.929 11.79q.093 0 .186.018.096.014.172.048.076.03.124.08.05.044.05.106 0 .065-.033.1-.034.033-.085.033-.048 0-.084-.014l-.085-.037q-.045-.02-.11-.034-.065-.017-.172-.017-.107 0-.206.057-.096.054-.17.152-.07.096-.112.229-.043.133-.043.288 0 .192.048.33.05.138.13.229.08.087.178.132.102.043.203.043.12 0 .203-.026.082-.025.139-.056.059-.031.1-.057.044-.025.083-.025.048 0 .076.028.028.025.028.093 0 .057-.045.116-.042.056-.127.104-.082.046-.197.077-.116.028-.26.028-.158 0-.316-.062-.155-.062-.28-.184-.12-.124-.197-.307-.076-.187-.076-.432 0-.246.068-.438.07-.192.189-.324.12-.136.28-.206.16-.07.34-.07z" style="-inkscape-font-specification:'Sniglet, Normal';font-variant-ligatures:normal;font-variant-caps:normal;font-variant-numeric:normal;font-feature-settings:normal;text-align:start" aria-label="C" font-weight="400" font-size="2.822" letter-spacing="0" word-spacing="0" font-family="Sniglet"/></g><g style="line-height:1.25;-inkscape-font-specification:'Sniglet, Normal';font-variant-ligatures:normal;font-variant-caps:normal;font-variant-numeric:normal;font-feature-settings:normal;text-align:start"><path d="M19.717 24.784q.29 0 .466.088.175.087.268.23.093.145.12.329.032.183.032.372 0 .206-.054.39-.05.183-.16.32-.108.137-.277.219-.17.079-.404.079-.186 0-.3-.03-.11-.024-.171-.078-.06-.053-.08-.135-.02-.082-.02-.192v-1.061q0-.122.02-.22.024-.1.086-.167.062-.07.175-.107.115-.037.299-.037zm.01 1.744q.176 0 .289-.062.116-.065.184-.17.067-.103.093-.236.028-.133.028-.271 0-.127-.02-.254-.02-.13-.082-.234-.062-.105-.178-.17-.115-.065-.307-.065-.175 0-.243.05-.068.052-.068.156v1.08q0 .089.062.134.065.042.243.042z" style="-inkscape-font-specification:'Sniglet, Normal';font-variant-ligatures:normal;font-variant-caps:normal;font-variant-numeric:normal;font-feature-settings:normal;text-align:start" aria-label="D" font-weight="400" font-size="2.822" letter-spacing="0" word-spacing="0" font-family="Sniglet"/></g><g style="line-height:1.25"><path d="M11.698 11.707q.08 0 .18.014.105.01.196.045.09.03.152.084.062.051.062.127 0 .046-.025.077-.026.03-.082.03-.042 0-.088-.016-.042-.017-.098-.034-.054-.02-.127-.037-.071-.017-.167-.017-.186 0-.277.068-.087.065-.087.18 0 .08.04.133.039.054.104.093.068.037.15.063.084.025.172.047.098.026.194.063.1.036.175.096.076.059.122.15.048.09.048.228 0 .144-.054.26-.054.112-.147.194-.093.08-.223.124-.13.043-.282.043-.085 0-.197-.017-.113-.014-.215-.051-.102-.04-.172-.102-.07-.065-.07-.158 0-.056.028-.09.03-.034.09-.034.048 0 .079.02.03.017.053.04.085.073.192.098.108.025.22.025.065 0 .136-.008.073-.011.133-.042.059-.031.098-.088.04-.06.04-.158 0-.09-.037-.147-.034-.059-.093-.098-.06-.04-.141-.065-.079-.026-.172-.051-.105-.028-.206-.062-.102-.034-.18-.09-.08-.06-.13-.147-.049-.09-.049-.229 0-.138.051-.243.051-.104.138-.175.088-.07.207-.107.12-.037.26-.037zm.972 1.563q-.007-.09-.012-.245-.006-.156-.006-.32v-.191l.006-.206q.006-.21.025-.328.023-.118.085-.178.065-.059.18-.073.116-.014.308-.014h.06q.059 0 .14.003.082 0 .17.003l.15.005q.062.006.098.017.04.009.06.026.02.014.025.036.006.02.006.045 0 .065-.037.096-.036.029-.15.037-.056.006-.166.009h-.22q-.113 0-.203.002h-.113q-.073.003-.104.034-.029.028-.029.138l.003.125q.006.096.006.27h.235q.15 0 .242.006.096.003.147.017.054.014.073.045.02.031.02.082 0 .026-.006.048-.003.02-.022.037-.02.014-.057.025-.036.009-.104.014-.082.006-.155.009h-.379v.344l.006.096q.003.045.012.076.011.031.036.051.029.02.08.028.053.009.14.009h.607q.1 0 .124.036.026.037.026.1 0 .05-.023.078-.022.026-.11.037-.084.014-.257.017-.169.003-.468.003-.127 0-.209-.023-.082-.022-.133-.076-.05-.054-.076-.138-.022-.088-.03-.212zm2.232.457q-.169 0-.319-.067-.146-.068-.256-.195-.11-.13-.175-.316-.062-.187-.062-.424 0-.223.053-.409.056-.186.164-.322.11-.135.27-.208.162-.077.373-.077.172 0 .328.062.155.063.27.187.12.124.187.31.068.186.068.435 0 .203-.054.384-.05.18-.158.321l.16.133q.032.025.057.065.028.037.028.085 0 .056-.045.09-.045.034-.107.034-.079 0-.166-.08l-.147-.126q-.096.056-.212.087-.116.031-.257.031zm.006-.265q.156 0 .271-.062.116-.065.192-.17.076-.104.113-.24.037-.138.037-.282 0-.175-.048-.31-.045-.138-.124-.231-.08-.094-.184-.142-.104-.05-.223-.05-.141 0-.248.059-.105.06-.178.16-.07.102-.107.24-.037.136-.037.291 0 .167.042.305.043.136.113.232.074.096.172.15.1.05.21.05zm2.389-.344l-.02.124q-.028.175-.065.254-.036.079-.096.079-.05 0-.082-.026-.03-.025-.03-.13 0-.047.005-.124.006-.076.02-.172-.104 0-.214.003H16.6l-.017.116q-.025.175-.064.254-.037.079-.096.079-.051 0-.082-.026-.031-.025-.031-.13 0-.047.006-.12.006-.077.02-.173-.082 0-.142-.003-.056-.003-.093-.017-.036-.014-.053-.042-.017-.028-.017-.076 0-.034.011-.06.014-.025.05-.042.038-.02.105-.028.068-.011.178-.011l.023-.158.028-.158q-.07 0-.121-.006-.048-.006-.082-.02-.031-.014-.045-.04-.015-.027-.015-.073 0-.022.006-.042.006-.023.026-.04.02-.02.053-.03.037-.015.094-.02l.132-.009.042-.228q.02-.088.04-.136.02-.05.042-.068.026-.016.062-.016.068 0 .1.036.03.034.03.088l-.003.011q0 .008-.006.04-.003.03-.014.095l-.028.175h.212q.107 0 .217.003l.042-.228q.02-.088.04-.136.02-.05.042-.068.025-.017.062-.017.065 0 .096.037.034.034.034.085 0 .005-.003.014 0 .008-.006.04-.003.03-.014.095-.008.065-.028.184.09 0 .146.008.057.009.088.026.03.017.042.042.012.026.012.06 0 .047-.037.084-.034.034-.15.04l-.144.005-.05.33q.076 0 .124.009.048.005.073.022.028.015.037.043.011.025.011.062 0 .05-.037.085-.033.033-.15.039zm-.229-.271l.023-.158.028-.161q-.099 0-.206.003h-.217l-.051.313q.096 0 .2.003h.223z" style="-inkscape-font-specification:'Sniglet, Normal';font-variant-ligatures:normal;font-variant-caps:normal;font-variant-numeric:normal;font-feature-settings:normal;text-align:start" aria-label="SEQ#" font-weight="400" font-size="2.822" font-family="Sniglet" letter-spacing="0" word-spacing="0"/></g><g style="line-height:1.25"><path d="M25.9 24.703q.08 0 .18.014.105.011.196.045.09.03.152.085.062.05.062.127 0 .045-.025.076-.026.03-.082.03-.043 0-.088-.016-.042-.017-.099-.034-.053-.02-.127-.037-.07-.017-.166-.017-.186 0-.277.068-.087.065-.087.18 0 .08.04.133.039.054.104.094.067.036.15.062.084.025.171.048.1.025.195.062.099.036.175.096.076.059.122.15.048.09.048.228 0 .144-.054.26-.054.112-.147.194-.093.08-.223.124-.13.043-.282.043-.085 0-.198-.017-.112-.014-.214-.051-.102-.04-.172-.102-.07-.065-.07-.158 0-.056.027-.09.031-.034.09-.034.049 0 .08.02.03.017.053.04.085.073.192.098.107.026.22.026.065 0 .136-.009.073-.011.132-.042.06-.031.1-.088.039-.059.039-.158 0-.09-.037-.147-.034-.059-.093-.098-.06-.04-.141-.065-.08-.026-.172-.051-.105-.028-.206-.062-.102-.034-.18-.09-.08-.06-.13-.147-.049-.09-.049-.229 0-.138.051-.242.05-.105.138-.175.088-.071.206-.108.122-.036.26-.036zm1.465 1.817l-.011-.33q-.003-.178-.003-.41l-.562-.804q-.023-.03-.037-.065-.01-.033-.01-.064 0-.054.027-.088.031-.037.105-.037.059 0 .104.034.048.031.088.093l.42.67.42-.67q.04-.062.085-.093.048-.034.108-.034.073 0 .101.037.031.034.031.088 0 .03-.014.064-.011.034-.034.065l-.55.788q0 .192-.006.37-.003.174-.011.383-.003.068-.015.105-.008.036-.025.056-.017.02-.04.023-.02.005-.047.005-.051 0-.085-.033-.034-.037-.04-.153zm2.211.042q-.09-.124-.172-.245l-.173-.271q-.09-.147-.208-.325-.116-.18-.28-.42v.38q0 .167-.003.311l-.006.271-.008.254q-.003.068-.014.105-.008.036-.025.056-.017.02-.04.023-.02.005-.048.005-.05 0-.084-.033-.034-.037-.04-.153-.014-.31-.017-.62v-.647q0-.19.003-.296.006-.108.02-.161.017-.054.042-.068.028-.014.074-.014.045 0 .118.07.073.068.16.181.088.113.187.26.102.146.2.302.1.155.19.307l.169.277q-.003-.133-.003-.29v-.356q0-.223.003-.367.003-.147.014-.232.014-.084.042-.118.029-.034.08-.034.047 0 .084.03.037.032.042.145.006.101.008.18l.006.159q.003.076.003.16v.429q0 .116-.003.229l-.006.229-.008.242q-.003.068-.014.105-.008.036-.025.056-.017.02-.04.023-.02.005-.048.005-.048 0-.081-.028-.034-.028-.1-.116zm1.484-1.865q.093 0 .186.017.096.014.172.048.077.03.124.079.051.045.051.107 0 .065-.034.099t-.084.034q-.048 0-.085-.014l-.085-.037q-.045-.02-.11-.034-.065-.017-.172-.017-.107 0-.206.057-.096.053-.17.152-.07.096-.112.229-.042.132-.042.288 0 .191.048.33.05.138.13.228.078.088.177.133.102.042.203.042.122 0 .204-.025.081-.026.138-.057.06-.03.101-.056.043-.025.082-.025.048 0 .076.028.029.025.029.093 0 .056-.046.116-.042.056-.127.104-.081.045-.197.076-.116.029-.26.029-.158 0-.316-.063-.155-.062-.28-.183-.12-.124-.197-.308-.076-.186-.076-.431 0-.246.068-.438.07-.192.189-.324.121-.136.28-.206.16-.071.34-.071zm2.15.006q.078 0 .18.014.104.011.195.045.09.03.152.085.062.05.062.127 0 .045-.025.076-.026.03-.082.03-.042 0-.088-.016-.042-.017-.098-.034-.054-.02-.127-.037-.07-.017-.167-.017-.186 0-.276.068-.088.065-.088.18 0 .08.04.133.04.054.104.094.068.036.15.062.084.025.172.048.099.025.194.062.1.036.175.096.077.059.122.15.048.09.048.228 0 .144-.054.26-.053.112-.147.194-.093.08-.223.124-.13.043-.282.043-.084 0-.197-.017-.113-.014-.215-.051-.101-.04-.172-.102-.07-.065-.07-.158 0-.056.028-.09.03-.034.09-.034.048 0 .079.02.031.017.054.04.084.073.191.098.108.026.22.026.066 0 .136-.009.073-.011.133-.042.059-.031.099-.088.039-.059.039-.158 0-.09-.037-.147-.034-.059-.093-.098-.06-.04-.14-.065-.08-.026-.173-.051-.104-.028-.206-.062t-.18-.09q-.08-.06-.13-.147-.049-.09-.049-.229 0-.138.051-.242.051-.105.139-.175.087-.071.206-.108.121-.036.26-.036zm1.71 2.02q-.17 0-.32-.067-.146-.068-.256-.195-.11-.13-.175-.316-.062-.186-.062-.424 0-.222.053-.409.057-.186.164-.321.11-.136.271-.21.16-.076.373-.076.172 0 .327.063.155.062.27.186.12.124.187.31.068.187.068.435 0 .203-.054.384-.05.18-.158.321l.161.133q.031.025.057.065.028.037.028.085 0 .056-.045.09-.046.034-.108.034-.079 0-.166-.08l-.147-.126q-.096.056-.212.087-.115.031-.256.031zm.006-.265q.155 0 .27-.062.116-.065.193-.17.076-.104.112-.24.037-.138.037-.281 0-.175-.048-.31-.045-.14-.124-.232-.08-.093-.184-.141-.104-.051-.222-.051-.142 0-.249.059-.104.06-.178.16-.07.102-.107.24-.037.136-.037.291 0 .167.043.305.042.136.113.232.073.096.172.15.099.05.209.05zm2.388-.344l-.02.124q-.028.175-.064.254-.037.079-.096.079-.051 0-.082-.025-.031-.026-.031-.13 0-.048.006-.124.006-.077.02-.173-.105 0-.215.003h-.214l-.017.116q-.026.175-.065.254-.037.079-.096.079-.051 0-.082-.025-.031-.026-.031-.13 0-.048.006-.122.006-.076.02-.172-.082 0-.141-.003-.057-.002-.093-.017-.037-.014-.054-.042-.017-.028-.017-.076 0-.034.011-.06.015-.025.051-.042.037-.02.105-.028.067-.011.177-.011l.023-.158.028-.158q-.07 0-.121-.006-.048-.005-.082-.02-.03-.014-.045-.04-.014-.027-.014-.073 0-.022.006-.042.006-.022.025-.04.02-.02.054-.03.036-.015.093-.02l.133-.009.042-.228q.02-.088.04-.136.02-.05.042-.067.025-.017.062-.017.067 0 .099.036.03.034.03.088l-.002.011q0 .009-.006.04-.003.03-.015.096l-.028.175h.212l.217.002.043-.228q.02-.088.039-.136.02-.05.042-.067.026-.017.062-.017.065 0 .096.036.034.034.034.085 0 .006-.003.014 0 .009-.006.04-.003.03-.014.096-.008.064-.028.183.09 0 .147.008.056.009.087.026.031.017.042.042.012.026.012.06 0 .047-.037.084-.034.034-.15.04l-.143.005-.051.33q.076 0 .124.009.048.006.073.023.029.014.037.042.011.025.011.062 0 .05-.036.085-.034.034-.15.04zm-.228-.271l.022-.158.029-.161q-.1 0-.207.003h-.217l-.05.313q.095 0 .2.003h.223z" style="-inkscape-font-specification:'Sniglet, Normal';font-variant-ligatures:normal;font-variant-caps:normal;font-variant-numeric:normal;font-feature-settings:normal;text-align:start" aria-label="SYNC SQ#" font-weight="400" font-size="2.822" font-family="Sniglet" letter-spacing="0" word-spacing="0"/></g><rect rx=".99" ry=".99" y="39.747" x="3.421" height="3.043" width="9.54" fill="#333" stroke="#8c8c8c" stroke-width=".132" paint-order="stroke markers fill"/><g style="line-height:1.25"><path style="-inkscape-font-specification:'Sniglet, Normal';font-variant-ligatures:normal;font-variant-caps:normal;font-variant-numeric:normal;font-feature-settings:normal;text-align:start" d="M5.99 40.213c.062 0 .126.006.192.017a.888.888 0 0 1 .18.05c.055.021.1.048.136.08a.143.143 0 0 1 .053.11c0 .043-.011.075-.034.098a.112.112 0 0 1-.084.034.238.238 0 0 1-.09-.017l-.09-.036a.773.773 0 0 0-.3-.054.463.463 0 0 0-.223.056.566.566 0 0 0-.18.153.71.71 0 0 0-.125.228.893.893 0 0 0-.045.288 1 1 0 0 0 .048.328.712.712 0 0 0 .124.228.58.58 0 0 0 .175.136.596.596 0 0 0 .452-.003.43.43 0 0 0 .152-.12 2.93 2.93 0 0 0 .003-.143v-.177a.209.209 0 0 0-.006-.057c-.003-.015-.012-.026-.028-.034a.188.188 0 0 0-.068-.014 1.706 1.706 0 0 0-.115-.003.413.413 0 0 1-.147-.022c-.037-.017-.056-.052-.056-.105 0-.037.01-.067.028-.09.02-.025.062-.039.124-.042h.054l.08-.003h.157a.44.44 0 0 1 .135.017c.034.01.064.032.09.067.014.02.02.052.023.1.004.046.006.1.006.163v.728c0 .05-.014.088-.043.113a.135.135 0 0 1-.093.036.168.168 0 0 1-.107-.033c-.026-.02-.04-.055-.04-.102v-.11a.406.406 0 0 1-.175.121.717.717 0 0 1-.25.037.794.794 0 0 1-.57-.246.97.97 0 0 1-.19-.307 1.228 1.228 0 0 1-.07-.432c0-.164.024-.31.07-.438a.975.975 0 0 1 .198-.324.82.82 0 0 1 .29-.206.92.92 0 0 1 .36-.07zm2.113 1.854l-.062-.155a8.927 8.927 0 0 0-.068-.19l-.178.007h-.41a4.9 4.9 0 0 1-.18-.003l-.064.186c-.021.058-.041.11-.06.155-.037.096-.091.144-.163.144a.135.135 0 0 1-.077-.025.089.089 0 0 1-.033-.074c0-.032.005-.073.016-.124a2.19 2.19 0 0 1 .043-.166l.06-.184a7.1 7.1 0 0 1 .06-.178c.018-.06.044-.136.077-.228l.113-.294.12-.299a7.714 7.714 0 0 1 .134-.322.396.396 0 0 1 .04-.067.37.37 0 0 1 .053-.054.112.112 0 0 1 .068-.023c.025 0 .048.01.068.026a.388.388 0 0 1 .096.126.46.46 0 0 1 .03.066c.03.075.065.162.102.26.04.097.079.196.116.296a11.73 11.73 0 0 1 .192.513 7.134 7.134 0 0 0 .12.36 1.89 1.89 0 0 1 .064.292.085.085 0 0 1-.037.074.122.122 0 0 1-.074.025.147.147 0 0 1-.093-.034.301.301 0 0 1-.073-.11zm-.5-.62c.046 0 .09 0 .136.002.046 0 .09.001.135.003l-.067-.198-.065-.189-.054-.166-.04-.138a.22.22 0 0 0-.025-.06.042.042 0 0 0-.037-.022c-.014 0-.026.008-.036.025a.306.306 0 0 0-.026.06 31.551 31.551 0 0 1-.223.688l.153-.003.15-.003zm1.876-.952c-.053.004-.11.007-.17.008l-.194.006.005.144.006.133c.002.045.003.091.003.14.002.05.003.104.003.164v.246c0 .077 0 .155-.003.234l-.006.234-.008.246a.462.462 0 0 1-.014.104.138.138 0 0 1-.026.057.058.058 0 0 1-.04.022.19.19 0 0 1-.05.006.128.128 0 0 1-.088-.034c-.022-.024-.035-.075-.04-.152a6.709 6.709 0 0 1-.008-.214l-.002-.243c-.002-.087-.003-.18-.003-.28v-.606a7.22 7.22 0 0 1 .008-.2h-.115a4.02 4.02 0 0 1-.204-.004.855.855 0 0 1-.135-.014.156.156 0 0 1-.08-.042.123.123 0 0 1-.022-.08c0-.017.002-.03.006-.044a.08.08 0 0 1 .025-.04.124.124 0 0 1 .054-.03.47.47 0 0 1 .093-.018l.096-.006.085-.006c.028-.002.057-.003.087-.003h.105a9.274 9.274 0 0 1 .629.015c.046.004.08.01.104.016a.122.122 0 0 1 .057.026.055.055 0 0 1 .022.04.19.19 0 0 1 .006.05.11.11 0 0 1-.037.085c-.022.023-.072.036-.15.04zm.402 1.287a8.25 8.25 0 0 1-.017-.565v-.19l.006-.207c.003-.14.012-.25.025-.328a.328.328 0 0 1 .085-.178.318.318 0 0 1 .18-.073c.078-.01.18-.014.308-.014h.06l.14.003.17.003.15.006c.04.004.074.01.098.017a.132.132 0 0 1 .06.025c.013.01.02.022.025.037a.204.204 0 0 1 .005.045c0 .043-.012.075-.037.096-.024.02-.074.031-.15.037a2.025 2.025 0 0 1-.166.008h-.22c-.075 0-.143.001-.203.003h-.113c-.048.002-.083.013-.104.034-.018.02-.028.065-.028.138l.002.124c.004.064.006.154.006.271h.234c.1 0 .18.002.243.006a.67.67 0 0 1 .147.017c.036.01.06.024.073.045a.19.19 0 0 1 .014.13.06.06 0 0 1-.022.037.2.2 0 0 1-.057.025.91.91 0 0 1-.104.014 3.363 3.363 0 0 1-.155.008h-.38v.345l.007.096a.46.46 0 0 0 .01.076.12.12 0 0 0 .038.05.194.194 0 0 0 .08.03c.035.004.082.007.14.007h.607c.066 0 .108.012.124.036a.176.176 0 0 1 .025.1c0 .033-.007.06-.022.078-.015.017-.052.03-.11.037a1.81 1.81 0 0 1-.257.017c-.113.002-.27.003-.47.003a.78.78 0 0 1-.207-.023.277.277 0 0 1-.133-.076.353.353 0 0 1-.076-.138 1.14 1.14 0 0 1-.03-.212z" word-spacing="0" letter-spacing="0" font-size="2.822" font-weight="400" aria-label="GATE 1" font-family="Sniglet" fill="#fff"/></g><g transform="translate(-151.58 27.965)"><rect width="8.425" height="3.043" x="167.141" y="11.774" ry=".99" rx=".99" fill="#333" stroke="#8c8c8c" stroke-width=".132" paint-order="stroke markers fill"/><g style="line-height:1.25"><path aria-label="TIED" font-weight="400" font-size="2.822" letter-spacing="0" word-spacing="0" d="M169.938 12.54q-.08.008-.17.01l-.194.006.005.143.006.133q.003.068.003.14.002.075.002.165v.245l-.002.235-.006.234q-.003.118-.009.245-.002.068-.014.105-.008.037-.025.056-.017.02-.04.023-.022.006-.05.006-.051 0-.088-.034-.034-.037-.04-.152-.005-.102-.008-.215 0-.113-.003-.243-.002-.13-.002-.28v-.605q.002-.116.008-.201h-.116q-.118 0-.203-.003-.082-.003-.135-.014-.054-.014-.08-.043-.022-.028-.022-.08 0-.024.006-.044.005-.022.025-.04.02-.02.054-.03.036-.012.093-.017l.096-.006.084-.006q.043-.003.088-.003h.104q.167 0 .314.003.15.003.316.01.067.007.104.018.037.008.057.025.02.017.022.04.006.022.006.05 0 .05-.037.085-.034.034-.15.04zm.482 1.542q-.006-.101-.009-.211l-.002-.237q-.003-.127-.003-.274v-.333q0-.2.003-.342.002-.143.017-.234.014-.09.042-.132.031-.043.082-.043.025 0 .048.006.022.006.04.026.016.017.027.053.015.034.017.09l.009.18.006.159q.002.076.002.16v.43q0 .116-.002.229l-.006.228q-.003.116-.009.243-.002.068-.014.104-.011.037-.028.057-.017.02-.04.022-.022.006-.05.006-.051 0-.088-.033-.036-.037-.042-.153zm.664-.254q-.006-.09-.012-.245-.005-.155-.005-.32v-.191l.005-.206q.006-.21.026-.327.022-.12.084-.178.065-.06.181-.073.116-.015.308-.015h.059q.06 0 .141.003.082 0 .17.003l.149.006q.062.006.099.017.04.008.059.026.02.014.025.036.006.02.006.046 0 .065-.037.096-.036.028-.15.036-.056.006-.166.008h-.22q-.113 0-.203.003h-.113q-.073.003-.104.034-.029.028-.029.138l.003.125q.006.096.006.27h.234q.15 0 .243.007.096.003.146.016.054.015.074.046.02.03.02.08 0 .027-.006.049-.003.02-.023.037-.02.014-.056.026-.037.008-.104.014-.082.006-.156.008h-.378v.343l.006.097q.003.045.011.076.011.03.037.05.028.02.079.03.053.007.14.007h.608q.098 0 .124.037.025.037.025.099 0 .05-.022.079-.023.025-.11.036-.085.014-.257.017-.17.003-.469.003-.127 0-.209-.022-.081-.023-.132-.077-.051-.053-.076-.138-.023-.087-.031-.212zm2.138-1.566q.29 0 .465.088.175.087.268.23.094.145.122.328.03.184.03.373 0 .206-.053.39-.05.183-.16.32-.108.137-.277.218-.17.08-.404.08-.186 0-.299-.03-.11-.024-.172-.078-.06-.053-.08-.135-.019-.082-.019-.192v-1.061q0-.122.02-.22.022-.1.085-.167.062-.07.175-.107.115-.037.299-.037zm.011 1.744q.175 0 .288-.062.116-.065.183-.17.068-.104.093-.236.029-.133.029-.271 0-.127-.02-.254-.02-.13-.082-.234-.062-.105-.178-.17-.115-.065-.307-.065-.175 0-.243.05t-.068.156v1.08q0 .089.062.134.065.042.243.042z" style="-inkscape-font-specification:'Sniglet, Normal';font-variant-ligatures:normal;font-variant-caps:normal;font-variant-numeric:normal;font-feature-settings:normal;text-align:start" font-family="Sniglet" fill="#fff"/></g></g><g transform="translate(-127.305 -11.564)"><rect width="9.829" height="3.043" x="153.802" y="51.275" ry=".99" rx=".99" fill="#333" stroke="#8c8c8c" stroke-width=".132" paint-order="stroke markers fill"/><g style="line-height:1.25"><path aria-label="SLIDE" font-weight="400" font-size="2.822" letter-spacing="0" word-spacing="0" d="M156.1 51.766q.079 0 .18.014.105.011.195.045.09.031.152.085.063.05.063.127 0 .045-.026.076-.025.031-.082.031-.042 0-.087-.017-.043-.017-.1-.034-.053-.02-.126-.036-.07-.017-.167-.017-.186 0-.276.067-.088.065-.088.181 0 .08.04.133.04.053.104.093.068.037.15.062.085.025.172.048.099.025.195.062.099.037.175.096.076.06.12.15.049.09.049.228 0 .144-.054.26-.053.113-.146.194-.093.08-.223.125-.13.042-.282.042-.085 0-.198-.017-.113-.014-.214-.05-.102-.04-.173-.102-.07-.065-.07-.158 0-.057.028-.09.03-.035.09-.035.048 0 .08.02.03.017.053.04.085.073.192.099.107.025.22.025.065 0 .135-.008.074-.011.133-.042.06-.031.099-.088.04-.06.04-.158 0-.09-.037-.147-.034-.059-.093-.098-.06-.04-.142-.065-.08-.026-.172-.051-.104-.028-.206-.062-.101-.034-.18-.09-.08-.06-.13-.147-.048-.09-.048-.229 0-.138.05-.243.05-.104.139-.175.087-.07.206-.107.12-.037.26-.037zm1.236 1.205v.16q0 .069-.003.13 0 .063-.003.125l-.005.138.304-.036.173-.023.098-.011q.037-.003.085-.003.124 0 .124.121 0 .048-.05.082t-.125.06q-.073.022-.166.039-.09.014-.178.02-.085.007-.155.01-.068.004-.096.004-.102 0-.158-.015-.057-.01-.085-.073-.028-.065-.037-.195-.005-.13-.005-.367v-.406q0-.178.003-.319l.002-.251q.003-.11.009-.2.005-.116.04-.15.033-.037.084-.037.028 0 .048.006.023.003.04.023.016.02.025.056.01.037.014.105.01.248.014.49.003.244.003.517zm1.039.612q-.006-.101-.01-.211l-.001-.237q-.003-.127-.003-.274v-.333q0-.2.003-.342.002-.143.016-.234.015-.09.043-.132.03-.043.082-.043.025 0 .048.006.022.006.04.026.016.017.027.053.014.034.017.09l.009.181.005.158q.003.076.003.161v.429q0 .116-.003.229l-.005.228q-.003.116-.01.243-.002.068-.013.104-.011.037-.028.057-.017.02-.04.022-.022.006-.05.006-.051 0-.088-.033-.037-.037-.042-.153zm1.225-1.82q.29 0 .466.088.175.087.268.231.093.144.12.327.032.184.032.373 0 .206-.053.39-.051.183-.161.321-.108.136-.277.217-.17.08-.403.08-.187 0-.3-.029-.11-.025-.172-.079-.06-.053-.08-.135-.02-.082-.02-.192v-1.061q0-.122.02-.22.024-.1.086-.167.062-.07.175-.107.116-.037.3-.037zm.01 1.744q.176 0 .289-.062.116-.065.184-.17.067-.104.093-.236.028-.133.028-.271 0-.127-.02-.254-.02-.13-.082-.234-.062-.105-.177-.17-.116-.065-.308-.065-.175 0-.243.051-.067.05-.067.155v1.081q0 .088.062.133.065.042.242.042zm1.176-.178q-.006-.09-.012-.245-.005-.155-.005-.319v-.192l.005-.206q.006-.209.026-.327.022-.119.085-.178.064-.06.18-.073.116-.015.308-.015h.06q.058 0 .14.003.082 0 .17.003l.15.006q.06.006.098.017.04.008.06.026.019.014.025.036.005.02.005.046 0 .065-.037.096-.036.028-.15.036-.056.006-.166.008h-.22q-.113 0-.203.003h-.113q-.073.003-.104.034-.028.028-.028.138l.002.125q.006.096.006.27h.234q.15 0 .243.007.096.003.147.016.053.015.073.046.02.03.02.081 0 .026-.006.048-.003.02-.022.037-.02.014-.057.026-.037.008-.104.014-.082.006-.156.008h-.378v.343l.006.097q.003.045.01.076.012.031.038.05.028.02.079.03.054.007.14.007h.608q.099 0 .124.037.025.037.025.099 0 .05-.022.079-.023.025-.11.036-.085.014-.257.017-.17.003-.47.003-.126 0-.207-.022-.082-.023-.133-.077-.05-.053-.076-.138-.023-.087-.031-.212z" style="-inkscape-font-specification:'Sniglet, Normal';font-variant-ligatures:normal;font-variant-caps:normal;font-variant-numeric:normal;font-feature-settings:normal;text-align:start" font-family="Sniglet" fill="#fff"/></g></g><g transform="translate(-196.217 .598)"><rect width="10.523" height="3.043" x="199.152" y="52.149" ry=".99" rx=".99" fill="#333" stroke="#8c8c8c" stroke-width=".132" paint-order="stroke markers fill"/><g style="line-height:1.25"><path aria-label="GATE 2" font-weight="400" font-size="2.822" letter-spacing="0" word-spacing="0" d="M201.412 52.634c.062 0 .126.006.192.017a.803.803 0 0 1 .18.05c.055.022.1.048.136.08a.144.144 0 0 1 .054.11c0 .044-.011.077-.034.099a.115.115 0 0 1-.085.034.238.238 0 0 1-.09-.017l-.09-.037a.814.814 0 0 0-.3-.053.463.463 0 0 0-.222.056.571.571 0 0 0-.18.152.707.707 0 0 0-.125.23.884.884 0 0 0-.045.287c0 .126.016.235.048.327a.71.71 0 0 0 .124.23.491.491 0 0 0 .372.178.58.58 0 0 0 .254-.047.445.445 0 0 0 .153-.12c.002-.04.003-.087.003-.142v-.178a.204.204 0 0 0-.006-.056.051.051 0 0 0-.028-.034.195.195 0 0 0-.068-.014 1.727 1.727 0 0 0-.116-.003.39.39 0 0 1-.146-.023c-.038-.016-.057-.05-.057-.104 0-.038.01-.068.028-.09.02-.024.062-.04.125-.043h.053c.027-.002.054-.003.082-.003h.155c.057 0 .102.006.136.017.033.01.063.032.09.068.013.02.02.052.023.1.003.046.005.1.005.162v.728c0 .052-.014.09-.042.113a.133.133 0 0 1-.093.037.165.165 0 0 1-.107-.034c-.027-.02-.04-.053-.04-.1v-.11a.41.41 0 0 1-.175.12.708.708 0 0 1-.25.037.781.781 0 0 1-.57-.246.981.981 0 0 1-.19-.308 1.22 1.22 0 0 1-.07-.43c0-.165.022-.31.07-.44a.982.982 0 0 1 .197-.323.82.82 0 0 1 .29-.206.91.91 0 0 1 .36-.07zm2.114 1.855a5.102 5.102 0 0 1-.063-.156 5.523 5.523 0 0 0-.067-.19l-.178.007h-.41c-.065 0-.125 0-.18-.003l-.065.186c-.02.06-.04.11-.06.156-.037.096-.092.144-.163.144a.128.128 0 0 1-.076-.026.085.085 0 0 1-.034-.073.62.62 0 0 1 .017-.124 2.04 2.04 0 0 1 .042-.167l.06-.183c.02-.064.04-.123.06-.178.018-.06.044-.136.078-.23l.113-.292.118-.3a9.96 9.96 0 0 1 .136-.32.38.38 0 0 1 .04-.07.398.398 0 0 1 .053-.052.112.112 0 0 1 .068-.023.11.11 0 0 1 .067.025.419.419 0 0 1 .096.127.607.607 0 0 1 .03.065c.03.076.066.162.103.26.04.098.079.197.116.296a11.971 11.971 0 0 1 .192.514 7.134 7.134 0 0 0 .118.358 1.89 1.89 0 0 1 .065.294.082.082 0 0 1-.037.073.115.115 0 0 1-.073.026.147.147 0 0 1-.093-.034.301.301 0 0 1-.073-.11zm-.5-.62c.045 0 .09 0 .135.002l.136.003-.068-.198-.065-.19-.053-.166-.04-.138a.246.246 0 0 0-.025-.06.042.042 0 0 0-.037-.022c-.015 0-.027.01-.037.026a.249.249 0 0 0-.025.06 9.2 9.2 0 0 1-.096.3l-.127.388c.05-.002.1-.003.152-.003l.15-.003zm1.876-.952c-.053.004-.11.007-.17.008l-.194.006.005.143.006.133a7.916 7.916 0 0 1 .005.305v.245l-.002.235-.006.234-.01.245a.381.381 0 0 1-.013.105.119.119 0 0 1-.025.056.062.062 0 0 1-.04.023.19.19 0 0 1-.05.006.126.126 0 0 1-.088-.034c-.023-.024-.036-.075-.04-.152a12.123 12.123 0 0 1-.013-.737v-.606a3.46 3.46 0 0 1 .008-.2h-.116a5.87 5.87 0 0 1-.203-.004.837.837 0 0 1-.135-.014.157.157 0 0 1-.08-.043.125.125 0 0 1-.022-.08c0-.015.002-.03.006-.044a.075.075 0 0 1 .025-.04.124.124 0 0 1 .054-.03.416.416 0 0 1 .093-.017l.096-.006.084-.006c.029-.002.058-.003.088-.003h.104a15.436 15.436 0 0 1 .63.014c.045.004.08.01.104.017a.129.129 0 0 1 .057.025c.013.012.02.025.022.04a.19.19 0 0 1 .006.05.11.11 0 0 1-.037.085c-.023.023-.073.036-.15.04zm.4 1.286a11.142 11.142 0 0 1-.015-.564v-.192l.005-.206c.004-.14.013-.248.026-.327a.319.319 0 0 1 .084-.178.309.309 0 0 1 .18-.073c.078-.01.18-.015.308-.015h.06l.14.003.17.003.15.006a.62.62 0 0 1 .1.017.118.118 0 0 1 .058.026c.013.01.022.022.025.036a.16.16 0 0 1 .006.046c0 .044-.012.076-.037.096-.025.02-.075.03-.15.036a2.025 2.025 0 0 1-.166.008h-.22c-.075 0-.143 0-.203.003h-.113c-.05.002-.084.014-.105.034-.02.02-.028.065-.028.138l.003.125c.004.064.006.154.006.27h.234c.1 0 .18.003.243.007a.716.716 0 0 1 .146.016c.036.01.06.026.074.046.013.02.02.047.02.08a.182.182 0 0 1-.006.049.063.063 0 0 1-.023.037.222.222 0 0 1-.056.026.914.914 0 0 1-.105.014 3.269 3.269 0 0 1-.155.008h-.378v.343l.006.097a.37.37 0 0 0 .01.076.11.11 0 0 0 .038.05.204.204 0 0 0 .08.03c.034.005.08.007.14.007h.606c.067 0 .108.013.125.037a.174.174 0 0 1 .025.1.12.12 0 0 1-.023.078c-.015.017-.051.03-.11.036a1.91 1.91 0 0 1-.256.017c-.113.002-.27.003-.47.003a.824.824 0 0 1-.208-.022.277.277 0 0 1-.132-.077.337.337 0 0 1-.077-.138 1.183 1.183 0 0 1-.03-.212z" style="-inkscape-font-specification:'Sniglet, Normal';font-variant-ligatures:normal;font-variant-caps:normal;font-variant-numeric:normal;font-feature-settings:normal;text-align:start" font-family="Sniglet" fill="#fff"/></g><g style="line-height:1.25;-inkscape-font-specification:'Times New Roman, Italic';font-variant-ligatures:normal;font-variant-caps:normal;font-variant-numeric:normal;font-feature-settings:normal;text-align:start"><path style="-inkscape-font-specification:'Times New Roman, Italic';font-variant-ligatures:normal;font-variant-caps:normal;font-variant-numeric:normal;font-feature-settings:normal;text-align:start" d="M207.728 52.757l-.095.317q.15-.176.267-.246.12-.07.242-.07t.21.097q.086.097.086.252 0 .303-.247.618-.246.312-.574.312-.07 0-.123-.015-.052-.015-.12-.053l-.1.355q-.03.105-.03.137 0 .03.016.05.016.023.052.034.036.012.142.012l-.012.05h-.65l.014-.05q.128-.006.174-.044.044-.04.094-.214l.348-1.207q.032-.114.032-.142 0-.037-.022-.058-.02-.02-.065-.02-.04 0-.11.01v-.054zm-.32 1.103q.085.102.23.102.07 0 .145-.04.075-.04.145-.12.072-.077.128-.18.057-.103.1-.242.046-.14.046-.275 0-.11-.05-.17-.05-.058-.118-.058-.15 0-.295.17-.144.17-.212.4z" aria-label="p" font-style="italic" font-weight="400" font-size="2.822" letter-spacing="0" word-spacing="0" font-family="Times New Roman" fill="#fff"/></g></g><g transform="translate(-127.27 -66.569)"><rect rx=".99" ry=".99" y="77.734" x="153.819" height="3.043" width="9.829" fill="#333" stroke="#8c8c8c" stroke-width=".132" paint-order="stroke markers fill"/><g style="line-height:1.25"><path word-spacing="0" letter-spacing="0" font-size="2.822" font-weight="400" aria-label="TRACK" d="M155.986 78.492q-.079.006-.17.009l-.194.006.006.143.006.133q.003.068.003.141.003.074.003.164v.245q0 .116-.003.235l-.006.234-.008.245q-.003.068-.014.105-.008.037-.025.056-.017.02-.04.023-.022.005-.05.005-.051 0-.088-.033-.034-.037-.04-.153-.006-.101-.008-.214 0-.113-.003-.243t-.003-.28v-.606q.003-.116.008-.2h-.115q-.119 0-.204-.003-.081-.003-.135-.014-.054-.015-.079-.043-.023-.028-.023-.079 0-.025.006-.045.006-.023.026-.04.02-.02.053-.03.037-.012.094-.017l.096-.006.084-.006q.043-.002.088-.002h.104q.167 0 .313.002.15.003.316.012.068.005.105.017.037.008.056.025.02.017.023.04.006.022.006.05 0 .051-.037.085-.034.034-.15.04zm1.037 1.022l-.082.006h-.178q-.048 0-.107-.006v.573q0 .09-.045.113-.042.02-.107.02-.034 0-.054-.006-.02-.003-.034-.014-.011-.014-.02-.04-.006-.025-.008-.07-.006-.05-.008-.147l-.006-.254q0-.155-.003-.375v-.522q0-.116.029-.223.028-.11.101-.192.074-.085.198-.136.127-.05.322-.05.138 0 .268.03.132.032.234.108.101.076.164.206.062.13.062.324 0 .26-.113.404-.11.141-.305.2l.378.52q.051.067.051.138 0 .056-.04.087-.036.034-.093.034-.062 0-.107-.034-.045-.036-.085-.093zm.443-.658q0-.194-.118-.287-.116-.096-.37-.096-.093 0-.155.017-.062.014-.099.056-.037.042-.054.119-.014.073-.014.189v.192q0 .11.003.2.065.003.144.003h.153q.079 0 .166-.009.09-.011.167-.05.076-.043.127-.12.05-.078.05-.214zm1.73 1.208q-.028-.067-.062-.155-.03-.09-.067-.189l-.178.006h-.41q-.098 0-.18-.003l-.065.186q-.031.088-.06.155-.056.144-.163.144-.04 0-.076-.025-.034-.025-.034-.073 0-.048.017-.125.017-.079.042-.166.028-.09.06-.184.03-.096.059-.177.028-.09.079-.229.053-.141.113-.294l.118-.299q.06-.15.107-.26.012-.028.029-.061.016-.037.04-.068.024-.031.053-.054.03-.022.067-.022.037 0 .068.025.031.023.054.056.025.034.042.071.02.037.031.065l.102.26q.059.146.115.296.06.15.11.285.051.135.082.229l.057.175q.034.093.062.183.028.09.045.17.02.076.02.124t-.037.073q-.034.025-.073.025-.051 0-.093-.034-.043-.036-.074-.11zm-.5-.62l.136.002q.068 0 .136.003l-.068-.197-.065-.19-.053-.166-.04-.138q-.011-.037-.025-.06-.014-.022-.037-.022t-.037.025q-.014.023-.025.06-.034.115-.096.301l-.127.387q.076-.003.152-.003l.15-.002zm1.754-1.234q.093 0 .186.017.096.014.173.048.076.031.124.08.05.044.05.106 0 .065-.033.1-.034.033-.085.033-.048 0-.085-.014-.036-.017-.084-.037-.046-.02-.11-.034-.065-.017-.173-.017-.107 0-.206.057-.096.053-.169.152-.07.096-.113.229-.042.132-.042.288 0 .192.048.33.05.138.13.229.079.087.177.132.102.042.204.042.121 0 .203-.025.082-.025.138-.056.06-.031.102-.057.042-.025.082-.025.048 0 .076.028.028.025.028.093 0 .057-.045.116-.043.056-.127.104-.082.045-.198.076-.116.029-.26.029-.158 0-.316-.062-.155-.062-.279-.184-.121-.124-.198-.307-.076-.187-.076-.432 0-.246.068-.438.07-.192.189-.324.121-.136.28-.206.16-.07.34-.07zm.885 1.823q-.006-.101-.008-.211 0-.11-.003-.237t-.003-.274v-.333q0-.2.003-.342.003-.144.014-.234.014-.09.043-.133.028-.042.079-.042.048 0 .084.031.037.031.043.144.006.102.008.18l.006.159q.003.076.003.16v.335l.604-.692q.118-.135.183-.178.065-.045.113-.045.056 0 .082.028.028.029.028.071 0 .017-.006.034t-.025.048q-.017.028-.054.073-.037.043-.099.11l-.392.426.618.881q.022.031.034.065.014.034.014.065 0 .053-.031.087-.028.037-.102.037-.06 0-.107-.034-.045-.03-.085-.093l-.536-.793-.243.265-.006.215-.008.226q-.003.067-.014.104-.008.037-.025.056-.017.02-.04.023-.02.006-.048.006-.05 0-.084-.034-.034-.037-.04-.153z" style="-inkscape-font-specification:'Sniglet, Normal';font-variant-ligatures:normal;font-variant-caps:normal;font-variant-numeric:normal;font-feature-settings:normal;text-align:start" font-family="Sniglet" fill="#fff"/></g></g><rect rx=".99" ry=".99" y="52.744" x="14.569" height="3.043" width="10.523" fill="#333" stroke="#8c8c8c" stroke-width=".132" paint-order="stroke markers fill"/><path d="M16.67 53.26q.08 0 .182.013.104.012.194.046.09.03.153.084.062.051.062.127 0 .045-.026.077-.025.03-.081.03-.043 0-.088-.016-.042-.017-.099-.034-.053-.02-.127-.037-.07-.017-.166-.017-.186 0-.277.068-.087.065-.087.18 0 .08.04.133.039.054.104.093.067.037.15.062.084.026.171.048.1.026.195.062.099.037.175.096.076.06.121.15.048.09.048.229 0 .144-.053.26-.054.112-.147.194-.093.079-.223.124-.13.042-.282.042-.085 0-.198-.016-.113-.015-.214-.051-.102-.04-.172-.102-.07-.065-.07-.158 0-.056.027-.09.031-.034.09-.034.049 0 .08.02.03.017.053.04.085.073.192.098.107.025.22.025.065 0 .136-.008.073-.011.132-.042.06-.032.1-.088.039-.06.039-.158 0-.09-.037-.147-.034-.059-.093-.099-.06-.04-.141-.064-.08-.026-.172-.051-.105-.028-.206-.062-.102-.034-.181-.09-.079-.06-.13-.147-.048-.09-.048-.229 0-.138.05-.243.052-.104.14-.175.087-.07.205-.107.122-.037.26-.037zm2.053.276q-.08.006-.17.008l-.194.006.006.144.006.133q.003.067.003.14.003.074.003.164v.246q0 .116-.003.234l-.006.234-.008.246q-.003.068-.014.104-.008.037-.026.057-.017.02-.04.022-.022.006-.05.006-.05 0-.088-.034-.033-.037-.04-.152-.005-.102-.007-.215 0-.113-.003-.242-.003-.13-.003-.28v-.606q.003-.116.008-.201h-.116q-.118 0-.203-.003-.082-.003-.135-.014-.054-.014-.08-.042-.022-.028-.022-.08 0-.025.006-.044.006-.023.025-.04.02-.02.054-.031.037-.011.093-.017l.096-.005.085-.006q.042-.003.087-.003h.105q.166 0 .313.003.15.003.316.011.068.006.104.017.037.009.057.026.02.016.022.039.006.023.006.05 0 .052-.036.086-.034.033-.15.039zm.402 1.287q-.006-.09-.012-.246-.006-.155-.006-.319v-.191l.006-.206q.006-.21.026-.328.022-.118.084-.178.065-.059.181-.073.116-.014.308-.014h.059q.06 0 .141.003l.17.002.149.006q.062.006.099.017.04.008.06.025.019.014.025.037.006.02.006.045 0 .065-.037.096-.037.028-.15.037-.056.005-.166.008h-.22q-.113 0-.204.003h-.112q-.074.003-.105.034-.028.028-.028.138l.003.125q.006.095.006.27h.234q.15 0 .243.006.096.003.147.017.053.014.073.045.02.031.02.082 0 .025-.006.048-.003.02-.023.037-.02.014-.056.025-.037.009-.105.014-.082.006-.155.009h-.378v.344l.006.096q.003.045.011.076.011.031.037.05.028.02.079.03.053.008.141.008h.607q.099 0 .124.036.025.037.025.1 0 .05-.022.078-.023.026-.11.037-.085.014-.257.017-.17.003-.469.003-.127 0-.208-.023-.082-.023-.133-.076-.05-.054-.076-.139-.023-.087-.031-.211zm1.841.251q0 .068-.014.104-.011.037-.03.057-.018.02-.043.023-.023.005-.045.005-.076 0-.102-.034-.022-.034-.03-.152-.007-.062-.009-.18l-.006-.283q0-.164-.003-.361v-.418q0-.104.026-.212.025-.107.096-.194.073-.088.2-.141.13-.054.336-.054.144 0 .274.031.13.031.228.107.099.076.158.203.06.127.06.317 0 .197-.065.327t-.184.206q-.118.076-.282.107-.164.031-.358.031h-.096q-.048 0-.108-.005zm.813-1.188q0-.19-.107-.285-.104-.096-.35-.096-.093 0-.16.017-.066.014-.108.053-.042.037-.065.102-.02.065-.02.164v.22q0 .121.003.228.065.003.144.003h.153q.084 0 .175-.011.093-.011.166-.05.073-.043.121-.122.048-.082.048-.223zm1.836-.059c-.34.256-.264.584 0 .773a1.1 1.1 0 0 1 .084.076c.027.023.04.05.04.082a.12.12 0 0 1-.031.079.188.188 0 0 1-.04.031.09.09 0 0 1-.045.011.18.18 0 0 1-.062-.014.778.778 0 0 1-.093-.053 18.836 18.836 0 0 0-.316-.192 4.366 4.366 0 0 1-.234-.153.846.846 0 0 1-.144-.127.206.206 0 0 1-.048-.127c0-.043.016-.084.048-.124a.748.748 0 0 1 .14-.127c.065-.047.143-.098.235-.152l.319-.195a.532.532 0 0 1 .093-.05.155.155 0 0 1 .062-.018.09.09 0 0 1 .045.012.186.186 0 0 1 .04.03.113.113 0 0 1-.009.164 2.018 2.018 0 0 1-.084.074z" style="line-height:1.25;-inkscape-font-specification:'Sniglet, Normal';font-variant-ligatures:normal;font-variant-caps:normal;font-variant-numeric:normal;font-feature-settings:normal;text-align:start" fill="#fff" font-weight="400" font-size="2.822" font-family="Sniglet" letter-spacing="0" word-spacing="0"/><rect rx=".99" ry=".99" y="52.744" x="26.194" height="3.043" width="10.523" fill="#333" stroke="#8c8c8c" stroke-width=".132" paint-order="stroke markers fill"/><g style="line-height:1.25"><path style="-inkscape-font-specification:'Sniglet, Normal';font-variant-ligatures:normal;font-variant-caps:normal;font-variant-numeric:normal;font-feature-settings:normal;text-align:start" d="M28.316 53.312q.08 0 .18.014.105.012.196.046.09.03.152.084.062.051.062.127 0 .045-.025.076-.026.031-.082.031-.042 0-.088-.016-.042-.017-.098-.034-.054-.02-.127-.037-.07-.017-.167-.017-.186 0-.276.068-.088.065-.088.18 0 .08.04.133.039.054.104.093.068.037.15.062.084.026.172.048.098.026.194.062.1.037.175.096.077.06.122.15.048.09.048.228 0 .144-.054.26-.053.113-.147.195-.093.079-.223.124-.13.042-.282.042-.084 0-.197-.017-.113-.014-.215-.05-.101-.04-.172-.102-.07-.065-.07-.158 0-.056.028-.09.03-.034.09-.034.048 0 .079.02.03.017.054.04.084.072.191.098.108.025.22.025.065 0 .136-.008.073-.012.133-.043.059-.03.098-.087.04-.06.04-.158 0-.09-.037-.147-.034-.06-.093-.099-.06-.04-.14-.065-.08-.025-.173-.05-.104-.029-.206-.062-.102-.034-.18-.09-.08-.06-.13-.147-.049-.09-.049-.23 0-.137.051-.242.051-.104.139-.175.087-.07.206-.107.12-.037.26-.037zm2.052.277q-.079.005-.17.008l-.194.006.006.144.006.133q.003.067.003.14.003.074.003.164v.246q0 .116-.003.234l-.006.234-.008.246q-.003.068-.014.104-.008.037-.025.057-.017.02-.04.022-.023.006-.05.006-.052 0-.088-.034-.034-.037-.04-.152-.006-.102-.008-.215 0-.113-.003-.243t-.003-.279v-.606q.003-.116.008-.201h-.115q-.119 0-.204-.003-.081-.003-.135-.014-.054-.014-.08-.042-.022-.029-.022-.08 0-.025.006-.044.006-.023.026-.04.02-.02.053-.031.037-.011.093-.017l.096-.006.085-.005q.042-.003.088-.003h.104q.166 0 .313.003.15.003.316.011.068.006.105.017.036.009.056.025.02.017.023.04.006.023.006.05 0 .052-.037.085-.034.034-.15.04zm.402 1.287q-.006-.09-.011-.246-.006-.155-.006-.319v-.192l.006-.206q.006-.208.025-.327.023-.118.085-.178.065-.059.18-.073.116-.014.308-.014h.06q.059 0 .14.003l.17.002.15.006q.061.006.098.017.04.008.06.025.02.014.025.037.006.02.006.045 0 .065-.037.096-.037.028-.15.037-.056.005-.166.008h-.22q-.113 0-.203.003h-.113q-.074.003-.105.034-.028.028-.028.138l.003.124q.006.096.006.271h.234q.15 0 .243.006.096.003.147.017.054.014.073.045.02.031.02.082 0 .025-.006.048-.003.02-.022.037-.02.014-.057.025-.037.008-.104.014-.082.006-.156.009h-.378v.343l.006.097q.003.045.012.076.01.031.036.05.028.02.08.03.053.008.14.008h.607q.099 0 .124.036.026.037.026.1 0 .05-.023.078-.022.025-.11.037-.085.014-.257.017-.17.002-.468.002-.127 0-.21-.022-.081-.023-.132-.076-.05-.054-.076-.139-.023-.087-.03-.211zm1.842.251q0 .068-.014.104-.012.037-.031.057-.017.02-.043.022-.022.006-.045.006-.076 0-.101-.034-.023-.034-.031-.152-.006-.062-.008-.18l-.006-.283q0-.164-.003-.361v-.418q0-.104.025-.212.025-.107.096-.194.073-.088.2-.142.13-.053.336-.053.144 0 .274.03.13.032.228.108.1.076.158.203.06.127.06.316 0 .198-.065.328t-.184.206q-.118.076-.282.107-.163.031-.358.031h-.096q-.048 0-.107-.005zm.813-1.188q0-.19-.108-.285-.104-.096-.35-.096-.093 0-.16.017-.065.014-.108.053-.042.037-.065.102-.02.065-.02.164v.22q0 .121.004.228.064.003.143.003h.153q.085 0 .175-.011.093-.011.166-.05.074-.043.122-.122.048-.082.048-.223zm1.07-.059a5.55 5.55 0 0 1-.087-.074.116.116 0 0 1-.006-.163.192.192 0 0 1 .04-.032.09.09 0 0 1 .045-.01c.017 0 .037.005.062.016.024.01.055.026.093.05l.319.196c.092.054.17.105.231.152a.723.723 0 0 1 .144.127c.032.04.048.081.048.124a.2.2 0 0 1-.05.127.722.722 0 0 1-.145.127 3.873 3.873 0 0 1-.231.153 18.73 18.73 0 0 0-.316.192.778.778 0 0 1-.093.053.18.18 0 0 1-.062.014.09.09 0 0 1-.046-.011.187.187 0 0 1-.039-.031.12.12 0 0 1-.031-.08c0-.031.012-.058.037-.08.026-.025.055-.05.087-.077.337-.273.257-.59 0-.773z" aria-label="STEP &gt;" font-weight="400" font-size="2.822" font-family="Sniglet" letter-spacing="0" word-spacing="0" fill="#fff"/></g><g style="line-height:1.25"><path d="M9.818 5.332q0-.326.024-.508.023-.186.097-.28.074-.092.21-.112.135-.023.356-.023h.225q.101 0 .194.004.097 0 .19.004l.21.007q.093.008.144.024.05.011.077.035.028.023.031.054.008.031.008.07 0 .07-.05.116-.047.047-.206.055l-.19.007-.206.008q-.112 0-.256.004h-.345q-.07 0-.097.05-.027.047-.027.12v.117q.004.058.004.128.003.07.003.16.004.085.004.201.144 0 .249.004.108 0 .186.004.081 0 .144.004l.12.007q.159.008.205.055.05.046.05.116 0 .039-.007.07-.004.031-.03.054-.028.024-.079.04-.05.015-.143.022l-.12.008q-.055 0-.132.004h-.443q-.004.233-.004.477.004.241-.011.497-.008.151-.055.186-.042.031-.132.031-.085 0-.128-.034-.042-.04-.05-.179-.008-.124-.012-.272 0-.151-.004-.341-.003-.194-.003-.435v-.559zm2.958 1.844q-.233 0-.438-.093-.202-.094-.354-.268-.15-.179-.24-.435-.086-.256-.086-.582 0-.306.074-.563.078-.256.225-.442.152-.186.373-.287.221-.105.512-.105.237 0 .45.085.214.086.373.257.163.17.256.426.093.257.093.598 0 .283-.078.54-.073.256-.229.45-.15.19-.384.306-.233.113-.547.113zm.008-.365q.213 0 .372-.085.16-.09.264-.233.105-.144.156-.33.05-.19.05-.388 0-.24-.066-.427-.062-.19-.17-.318-.11-.128-.253-.194-.144-.07-.307-.07-.194 0-.341.081-.144.082-.245.222-.097.14-.147.33-.05.186-.05.4 0 .228.058.418.058.187.155.318.1.132.237.206.136.07.287.07zm2.556.392q-.443 0-.649-.24-.081-.094-.14-.237-.054-.148-.089-.38-.03-.234-.046-.575-.012-.345-.012-.838 0-.16.008-.26.008-.105.03-.163.024-.062.059-.086.039-.023.097-.023.113 0 .16.101.046.1.046.35 0 .085-.004.15v.136q0 .066-.004.148v.198q0 .388.023.644.027.256.09.411.062.152.166.214.109.062.268.062.167 0 .276-.066.112-.07.178-.23.066-.162.093-.43.031-.268.031-.667 0-.175-.004-.3v-.224q0-.144.008-.24.012-.098.031-.152.024-.058.062-.082.04-.023.097-.023.059 0 .097.023.04.024.062.082.024.058.032.163.007.1.007.264 0 .683-.042 1.125-.043.439-.152.695-.108.252-.299.353-.186.097-.48.097zm2.973-.248q-.124-.171-.237-.338l-.236-.373q-.125-.201-.288-.446-.159-.248-.384-.578v.524q0 .229-.004.427l-.007.372q-.004.175-.012.35-.004.093-.02.143-.011.05-.034.078-.024.027-.055.03-.027.008-.066.008-.07 0-.116-.046-.047-.05-.054-.21-.02-.427-.024-.853v-.89q0-.26.004-.407.008-.147.027-.22.024-.074.059-.094.038-.02.1-.02.062 0 .163.098.101.093.222.248.12.155.256.357.14.202.275.415.136.214.26.423l.233.38q-.004-.182-.004-.4v-.488q0-.307.004-.504.004-.202.02-.319.019-.116.058-.163.038-.046.108-.046.066 0 .117.042.05.043.058.198.008.14.012.249l.007.217q.004.105.004.221v.59q0 .16-.004.314l-.007.315q-.004.159-.012.333-.004.094-.02.144-.011.05-.034.078-.024.027-.055.03-.027.008-.066.008-.066 0-.112-.038-.047-.04-.136-.16zm1.707-2.562q.4 0 .64.12t.369.319q.128.198.167.45.042.252.042.512 0 .284-.073.536-.07.252-.221.442-.148.186-.38.299-.234.109-.556.109-.256 0-.411-.04-.151-.034-.237-.108-.081-.074-.108-.186-.028-.113-.028-.264v-1.46q0-.166.028-.302.03-.136.116-.229.085-.097.24-.147.16-.05.412-.05zm.015 2.399q.241 0 .396-.086.16-.09.253-.233.093-.143.128-.326.038-.182.038-.372 0-.175-.027-.35-.027-.178-.112-.322-.086-.143-.245-.232-.159-.09-.423-.09-.24 0-.334.07-.093.07-.093.214V6.55q0 .12.086.182.089.059.333.059zm2.488-.61l-.112.008h-.245q-.066 0-.147-.008v.788q0 .124-.062.155-.058.027-.148.027-.046 0-.073-.007-.027-.004-.047-.02-.015-.02-.027-.054-.008-.035-.012-.097-.007-.07-.011-.202l-.008-.35q0-.213-.004-.515v-.718q0-.16.039-.307.039-.151.14-.264.1-.116.271-.186.175-.07.443-.07.19 0 .368.043.183.043.322.147.14.105.225.284.086.178.086.446 0 .357-.155.555-.152.194-.42.275l.52.714q.07.094.07.19 0 .078-.054.12-.05.048-.128.048-.085 0-.148-.047-.062-.05-.116-.128zm.61-.904q0-.268-.163-.396-.16-.132-.509-.132-.128 0-.213.024-.085.02-.136.077-.05.058-.074.163-.019.101-.019.26v.264q0 .151.004.276.09.004.198.004h.21q.108 0 .228-.012.125-.016.23-.07.104-.058.174-.163.07-.109.07-.295zm1.357 1.618l-.016-.454q-.004-.244-.004-.562l-.772-1.106q-.031-.043-.05-.09-.016-.046-.016-.089 0-.074.039-.12.042-.05.143-.05.082 0 .144.046.066.043.12.128l.578.92.579-.92q.054-.085.116-.128.066-.047.147-.047.101 0 .14.05.043.047.043.121 0 .043-.02.09-.015.046-.046.089l-.757 1.082q0 .264-.008.509-.004.24-.015.527-.004.094-.02.144-.011.05-.034.078-.024.027-.055.03-.027.008-.066.008-.07 0-.116-.046-.047-.05-.055-.21zm2.799-.729q-.179.008-.411.015-.233.004-.552.004-.131 0-.225-.004-.093-.004-.151-.02-.058-.018-.085-.057-.027-.04-.027-.109 0-.035.007-.062.008-.031.035-.054.027-.024.074-.04.05-.019.128-.026l.1-.008q.048-.004.09-.004.043-.004.09-.004h.116q.21 0 .403.004.194 0 .404.012.093.007.144.023.05.012.077.035.027.023.031.054.008.031.008.07 0 .07-.05.116-.047.047-.206.055zm1.476-.051l-.578.897q-.054.085-.12.128-.062.046-.144.046-.1 0-.143-.05-.04-.047-.04-.12 0-.043.016-.09.02-.046.05-.089l.723-1.032-.722-1.032q-.031-.043-.05-.09-.016-.046-.016-.089 0-.074.039-.12.042-.05.143-.05.082 0 .144.046.066.043.12.128l.578.896.579-.896q.054-.085.116-.128.066-.047.147-.047.101 0 .14.05.043.047.043.121 0 .043-.02.09-.015.046-.046.089l-.722 1.032.722 1.032q.03.043.046.09.02.046.02.089 0 .073-.043.12-.039.05-.14.05-.081 0-.147-.046-.062-.043-.116-.128z" style="-inkscape-font-specification:'Sniglet, Normal';font-variant-ligatures:normal;font-variant-caps:normal;font-variant-numeric:normal;font-feature-settings:normal;text-align:start" aria-label="FOUNDRY-X" font-weight="400" font-size="3.881" font-family="Sniglet" letter-spacing="0" word-spacing="0" stroke-width=".265"/></g></svg>