<svg xmlns="http://www.w3.org/2000/svg" width="120" height="380" viewBox="0 0 31.75 100.542"><path d="M0 0h31.75v100.541H0zm0 0" fill="#dcdcdc"/><rect rx="2.34" ry="2.34" y="66.159" x="17.462" height="25.439" width="11.642" fill="#999" paint-order="stroke markers fill"/><g style="line-height:1.25"><path word-spacing="0" letter-spacing="0" font-weight="400" aria-label="♫" font-size="3.528" style="-inkscape-font-specification:'Arial, Normal';font-variant-ligatures:normal;font-variant-caps:normal;font-variant-numeric:normal;font-feature-settings:normal;text-align:start" d="M16.218 96.87l-1.63.115v-2.06q0-.23.065-.333.064-.104.22-.147.153-.043.347-.002.224.047.357.19.133.146.133.33 0 .186-.158.286-.157.103-.407.05-.082-.018-.144-.044-.063-.027-.205-.11v1.345l1.22-.085v-1.554q0-.225.065-.337.065-.11.225-.151.16-.04.349 0 .223.047.354.19.129.14.129.325 0 .195-.156.294-.155.1-.407.047-.16-.034-.357-.16z" font-family="Arial" fill="#333"/></g><g style="line-height:1.25"><path d="M11.002 5.803q-.004.161-.004.351 0 .191-.013.356-.009.127-.06.165-.046.034-.13.034-.077 0-.12-.03-.037-.025-.058-.114-.017-.093-.022-.267-.004-.177-.004-.474-.14 0-.267.005-.127.004-.245.004-.178 0-.326-.009-.144-.008-.25-.03-.101-.025-.16-.067-.056-.042-.056-.11 0-.093.077-.233.076-.144.19-.309t.241-.334l.242-.322q.05-.068.144-.186.097-.123.207-.242.11-.123.22-.211.11-.09.186-.09.072 0 .127.047.055.047.064.216.017.246.021.517.004.266.004.529v.419q.119.008.19.021.073.013.11.038.039.021.052.055.012.034.012.085 0 .106-.097.144-.097.034-.275.042zm-.415-1.384l-.318.385-.22.271q-.089.114-.156.195l-.115.144q.195-.009.398-.009.208-.004.41-.004zm2.583 1.202q-.196.009-.45.017-.254.004-.6.004-.145 0-.246-.004-.102-.004-.165-.021-.064-.021-.094-.064-.03-.042-.03-.118 0-.038.01-.068.008-.034.037-.06.03-.025.08-.042.056-.02.14-.03.064-.003.11-.008.051-.004.098-.004.047-.004.097-.004h.127q.229 0 .44.004.212 0 .44.013.103.008.158.025.055.013.084.038.03.026.034.06.009.033.009.076 0 .076-.055.127-.051.05-.225.06zm1.775.889q-.055.102-.102.148-.042.047-.11.047t-.118-.047q-.051-.046-.11-.144-.077-.127-.174-.351-.093-.224-.19-.487-.098-.267-.191-.55-.093-.284-.17-.534-.071-.25-.118-.436-.042-.19-.042-.27 0-.085.034-.128.034-.042.13-.042.056 0 .094.03.042.025.106.152.05.097.11.254t.123.347q.067.19.135.402l.136.415.127.398q.059.19.11.343.05-.157.114-.347l.131-.398.136-.415q.067-.211.135-.398l.127-.343q.06-.156.106-.258.06-.123.102-.152.046-.03.093-.03.097 0 .131.05.038.047.038.14 0 .085-.025.204-.026.118-.09.317-.058.195-.16.487l-.25.716q-.038.114-.089.237-.046.122-.097.24-.047.115-.093.221-.047.106-.09.182zm1.297-.093q-.008-.152-.013-.318 0-.165-.004-.355-.004-.19-.004-.41v-.5q0-.3.004-.513.004-.215.026-.35.02-.136.063-.2.047-.063.123-.063.038 0 .072.008.034.009.06.038.025.026.042.08.02.051.025.136l.013.271.008.237q.004.114.004.241v.644q0 .173-.004.343l-.008.343q-.005.173-.013.364-.004.101-.021.156-.017.055-.043.085-.025.03-.059.034-.034.008-.076.008-.076 0-.131-.05-.055-.055-.064-.229zm.996-.381q-.009-.136-.017-.368-.009-.233-.009-.479v-.288l.009-.309q.008-.313.038-.49.034-.178.127-.267.097-.09.27-.11.174-.022.462-.022h.09q.088 0 .21.005.123 0 .255.004l.224.008q.093.009.148.026.06.012.09.038.029.021.037.055.009.03.009.068 0 .097-.055.144-.055.042-.225.055-.084.008-.25.012h-.33q-.169 0-.304.004h-.17q-.11.005-.156.051-.043.043-.043.208l.004.186q.009.144.009.406h.351q.225 0 .364.009.144.004.22.025.081.021.11.068.03.047.03.123 0 .038-.008.072-.004.03-.034.055-.03.02-.085.038-.055.013-.156.021-.123.008-.233.013h-.568v.516l.009.144q.004.068.017.114.017.047.055.077.042.03.118.042.08.013.212.013h.91q.148 0 .187.055.038.055.038.148 0 .076-.034.118-.034.038-.165.055-.127.022-.386.026-.254.004-.702.004-.19 0-.314-.034-.122-.034-.198-.114-.077-.08-.115-.208-.034-.13-.046-.317zm3.499-1.516q.025-.059.076-.097.055-.038.114-.038.055 0 .106.038.051.034.08.093.162.33.318.716.157.38.284.724.072-.525.156-1.059.085-.533.19-1.02.014-.055.039-.089.025-.038.055-.055.03-.021.06-.03.033-.008.054-.008.072 0 .119.042.046.038.046.106 0 .076-.025.271-.025.19-.068.449-.042.254-.097.542-.05.287-.102.554-.05.267-.097.487-.047.22-.076.334-.026.098-.076.149-.051.046-.149.046-.101 0-.173-.089-.068-.093-.153-.288-.08-.194-.194-.495-.115-.305-.297-.728-.186.423-.304.728-.115.305-.2.5-.08.194-.152.288-.072.088-.17.088-.168 0-.224-.194-.033-.115-.08-.33-.047-.22-.097-.487l-.098-.55q-.05-.289-.089-.543-.038-.254-.063-.444-.021-.195-.021-.271 0-.072.046-.119.047-.046.132-.046.059 0 .114.038.055.034.08.144.102.487.178 1.02.08.534.17 1.059.13-.31.262-.657.131-.347.326-.779z" style="-inkscape-font-specification:'Sniglet, Normal';font-variant-ligatures:normal;font-variant-caps:normal;font-variant-numeric:normal;font-feature-settings:normal;text-align:start" aria-label="4-VIEW" font-weight="400" font-size="4.233" font-family="Sniglet" letter-spacing="0" word-spacing="0"/></g><g style="line-height:1.25"><path d="M13.922 62.594q-.079.006-.169.009l-.195.005.006.144.006.133q.002.068.002.14.003.074.003.165v.245q0 .116-.003.235l-.005.234q-.003.118-.009.245-.003.068-.014.105-.008.036-.025.056-.017.02-.04.023-.022.005-.05.005-.05 0-.088-.034-.034-.036-.04-.152-.005-.102-.008-.214 0-.113-.003-.243t-.003-.28v-.606q.003-.116.01-.2h-.117q-.118 0-.203-.003-.082-.003-.136-.015-.053-.014-.079-.042-.022-.028-.022-.08 0-.024.005-.044.006-.023.026-.04.02-.02.054-.03.036-.012.093-.018l.096-.005.084-.006q.043-.003.088-.003h.104q.167 0 .313.003.15.003.317.01.067.007.104.018.037.009.056.026.02.017.023.04.006.022.006.05 0 .05-.037.085-.034.034-.15.04zm1.5 1.54l-.01-.318q-.004-.17-.004-.39-.09.004-.192.006h-.44q-.105 0-.186-.002l-.006.344q-.003.164-.01.358-.004.068-.015.105-.009.036-.026.056-.017.02-.04.023-.019.005-.047.005-.05 0-.085-.033-.034-.037-.04-.153-.005-.101-.008-.212 0-.11-.003-.237t-.003-.273v-.333q0-.2.003-.342.003-.144.014-.234.014-.09.043-.133.028-.042.08-.042.047 0 .083.03.037.032.043.145l.008.175.006.152q.003.074.003.153v.175q.211-.01.414-.01.1 0 .198.004l.206.008v-.081q0-.2.003-.342.003-.144.014-.234.014-.09.042-.133.03-.042.08-.042.047 0 .084.03.037.032.042.145l.01.18.004.159q.003.076.003.16v.429q0 .116-.003.229l-.005.229q-.003.115-.009.242-.002.068-.014.105-.008.036-.025.056-.017.02-.04.023-.02.005-.048.005-.05 0-.084-.034-.034-.036-.04-.152zm1.257-.518l-.082.005h-.178q-.048 0-.107-.005v.573q0 .09-.045.113-.042.02-.107.02-.034 0-.054-.006-.02-.003-.034-.014-.01-.014-.02-.04-.005-.025-.008-.07-.006-.051-.008-.147l-.006-.254q0-.155-.003-.375v-.523q0-.115.028-.223.03-.11.102-.191.073-.085.198-.136.127-.05.321-.05.14 0 .268.03.133.03.235.108.101.076.163.206t.062.324q0 .26-.112.404-.11.14-.305.2l.378.52q.05.067.05.138 0 .056-.039.087-.036.034-.093.034-.062 0-.107-.034-.045-.036-.085-.093zm.443-.658q0-.194-.118-.288-.116-.096-.37-.096-.093 0-.155.017-.062.015-.099.057-.037.042-.054.118-.014.074-.014.19v.19q0 .11.003.2.065.005.144.005h.152q.08 0 .167-.01.09-.01.166-.05.077-.042.127-.12.051-.077.051-.213zm1.211 1.4q-.32 0-.47-.175-.06-.068-.102-.172-.04-.107-.065-.277-.023-.17-.034-.417-.009-.251-.009-.61 0-.116.006-.19.005-.075.022-.117.017-.046.043-.063.028-.017.07-.017.082 0 .116.074.034.073.034.254 0 .062-.003.11v.099q0 .048-.003.107v.144q0 .282.017.468.02.187.065.3.045.11.121.155.08.045.195.045.122 0 .2-.048.082-.05.13-.167.048-.118.068-.313.023-.195.023-.485 0-.127-.003-.218v-.162q0-.105.006-.175.008-.07.022-.11.017-.043.045-.06.028-.017.07-.017.043 0 .071.017.03.017.046.06.016.042.022.118.006.074.006.192 0 .497-.03.819-.032.318-.11.505-.08.183-.219.257-.135.07-.35.07z" style="-inkscape-font-specification:'Sniglet, Normal';font-variant-ligatures:normal;font-variant-caps:normal;font-variant-numeric:normal;font-feature-settings:normal;text-align:start" aria-label="THRU" font-weight="400" font-size="2.822" letter-spacing="0" word-spacing="0" font-family="Sniglet"/></g><g style="line-height:1.25"><path d="M7.529 11.292q-.006-.102-.01-.212l-.001-.237q-.003-.127-.003-.273v-.686l-.17.087q-.07.045-.112.054-.04.008-.088.008-.042 0-.076-.036-.031-.037-.031-.088 0-.05.034-.087.036-.04.084-.07.062-.043.133-.086.073-.042.14-.076.069-.036.125-.056.06-.023.099-.023.02 0 .04.006.022.005.04.022.019.017.03.054.014.034.017.093l.009.178.005.15q.003.07.003.15v.425q0 .116-.003.23l-.005.227q-.003.116-.01.243-.002.068-.013.105-.01.036-.025.056-.017.02-.04.023-.02.005-.048.005-.05 0-.085-.034-.033-.036-.04-.152z" style="-inkscape-font-specification:'Sniglet, Normal';font-variant-ligatures:normal;font-variant-caps:normal;font-variant-numeric:normal;font-feature-settings:normal;text-align:start" font-size="2.822" aria-label="1" font-weight="400" letter-spacing="0" word-spacing="0" font-family="Sniglet"/></g><g style="line-height:1.25"><path d="M7.408 22.451q-.102 0-.17.022-.067.02-.112.054t-.074.07l-.05.071q-.023.034-.05.057-.027.02-.066.02-.068 0-.096-.034-.025-.037-.025-.096 0-.125.093-.232.028-.034.076-.07.05-.04.118-.07.071-.032.161-.05.093-.024.21-.024.307 0 .476.15.17.15.17.42 0 .053-.012.118-.008.065-.037.136-.025.07-.073.146-.048.077-.127.156-.07.07-.15.13-.079.06-.163.118l-.178.127q-.09.065-.183.15.09.048.194.062.105.014.235.014.12 0 .194-.006.074-.005.12-.014l.07-.014q.025-.006.053-.006.104 0 .104.096 0 .085-.07.13t-.17.068q-.098.02-.203.023-.104.005-.172.005-.037 0-.104-.005-.065-.003-.14-.015-.078-.01-.157-.03-.076-.023-.14-.057-.063-.037-.102-.088-.04-.053-.04-.127 0-.098.07-.186.074-.09.181-.175.108-.087.232-.172.124-.087.231-.178.107-.093.178-.192.073-.098.073-.214 0-.144-.098-.215-.096-.073-.277-.073z" style="-inkscape-font-specification:'Sniglet, Normal';font-variant-ligatures:normal;font-variant-caps:normal;font-variant-numeric:normal;font-feature-settings:normal;text-align:start" font-size="2.822" aria-label="2" font-weight="400" letter-spacing="0" word-spacing="0" font-family="Sniglet"/></g><g style="line-height:1.25"><path d="M6.945 35.167q-.09 0-.132-.045-.043-.048-.043-.096 0-.05.048-.082.048-.033.127-.05.08-.02.18-.026.103-.008.207-.008.087 0 .195.008.107.006.2.034.093.026.155.08.062.05.062.14 0 .07-.053.147-.054.076-.124.144-.071.068-.142.121l-.098.074q.299 0 .434.15.136.15.136.428 0 .175-.065.305-.062.13-.17.217-.104.085-.242.127-.136.043-.28.043-.118 0-.234-.02-.113-.02-.203-.068-.09-.05-.147-.132-.053-.085-.053-.21 0-.13.14-.13.043 0 .066.023.025.02.042.051.02.028.04.065.02.037.056.068.04.028.102.05.064.02.169.02.082 0 .16-.016.08-.02.142-.063.062-.042.099-.112.04-.074.04-.18 0-.21-.088-.297-.085-.088-.24-.088-.04 0-.074.014-.034.012-.067.028l-.07.03q-.038.01-.083.01-.045 0-.08-.04-.033-.042-.033-.107 0-.045.043-.104.045-.06.12-.136.08-.076.19-.166.11-.093.246-.2h-.068l-.076.002h-.347q-.102-.003-.187-.003z" style="-inkscape-font-specification:'Sniglet, Normal';font-variant-ligatures:normal;font-variant-caps:normal;font-variant-numeric:normal;font-feature-settings:normal;text-align:start" font-size="2.822" aria-label="3" font-weight="400" letter-spacing="0" word-spacing="0" font-family="Sniglet"/></g><g style="line-height:1.25"><path d="M7.8 48.974q-.002.107-.002.234t-.01.237q-.004.085-.04.11-.03.023-.086.023-.05 0-.08-.02-.024-.017-.04-.076-.01-.062-.012-.178-.003-.118-.003-.316-.093 0-.178.003-.085.003-.164.003-.118 0-.217-.006-.096-.005-.166-.02-.068-.017-.108-.045-.036-.028-.036-.073 0-.062.05-.155.05-.096.127-.206.077-.11.16-.223l.162-.215.096-.124q.065-.082.138-.16.074-.083.147-.142.073-.06.124-.06.048 0 .085.032.037.03.042.144.012.163.014.344.003.178.003.353v.28q.08.005.127.013.048.01.074.026.025.014.033.036.009.023.009.057 0 .07-.065.096-.065.022-.183.028zm-.276-.923l-.212.257-.146.18q-.06.077-.105.13l-.076.096q.13-.005.265-.005.139-.003.274-.003z" style="-inkscape-font-specification:'Sniglet, Normal';font-variant-ligatures:normal;font-variant-caps:normal;font-variant-numeric:normal;font-feature-settings:normal;text-align:start" font-size="2.822" aria-label="4" font-weight="400" letter-spacing="0" word-spacing="0" font-family="Sniglet"/></g><rect rx="2.34" ry="2.34" y="66.159" x="2.645" height="25.439" width="11.642" fill="#999" paint-order="stroke markers fill"/><g style="line-height:1.25"><path d="M8.54 69.626q-.005-.101-.008-.211 0-.11-.003-.237t-.003-.274v-.686l-.17.088q-.07.045-.112.053-.04.009-.087.009-.043 0-.076-.037-.031-.036-.031-.087t.033-.088q.037-.04.085-.07.062-.043.133-.085.073-.042.14-.076.069-.037.125-.057.06-.022.099-.022.02 0 .04.005.022.006.039.023.02.017.03.054.015.033.018.093l.008.178.006.15q.003.07.003.149v.426q0 .116-.003.228l-.006.23-.008.242q-.003.067-.014.104-.01.037-.026.057-.017.02-.04.022-.02.006-.047.006-.051 0-.085-.034-.034-.037-.04-.152z" style="-inkscape-font-specification:'Sniglet, Normal';font-variant-ligatures:normal;font-variant-caps:normal;font-variant-numeric:normal;font-feature-settings:normal;text-align:start" font-size="2.822" aria-label="1" font-weight="400" letter-spacing="0" word-spacing="0" font-family="Sniglet"/></g><g style="line-height:1.25"><path d="M8.437 80.376q-.1 0-.169.022-.068.02-.113.054t-.073.07l-.05.071q-.023.034-.052.057-.025.02-.065.02-.067 0-.096-.034-.025-.037-.025-.096 0-.125.093-.232.028-.034.076-.07.051-.04.12-.07.07-.032.16-.05.093-.024.21-.024.306 0 .476.15.17.15.17.42 0 .053-.012.118-.009.065-.037.136-.025.07-.073.146-.048.077-.127.156-.07.07-.15.13-.08.06-.164.118l-.178.127q-.09.065-.183.15.09.048.195.062.104.014.234.014.121 0 .195-.006.073-.005.118-.014l.07-.014q.026-.006.054-.006.105 0 .105.096 0 .085-.07.13t-.17.068q-.099.02-.203.023-.105.005-.172.005-.037 0-.105-.005-.065-.003-.14-.015-.077-.01-.156-.03-.076-.023-.14-.057-.063-.037-.103-.088-.04-.053-.04-.127 0-.098.071-.186.074-.09.18-.175.108-.087.232-.172.124-.087.232-.178.107-.093.177-.192.074-.098.074-.214 0-.144-.099-.215-.096-.073-.277-.073z" style="-inkscape-font-specification:'Sniglet, Normal';font-variant-ligatures:normal;font-variant-caps:normal;font-variant-numeric:normal;font-feature-settings:normal;text-align:start" font-size="2.822" aria-label="2" font-weight="400" letter-spacing="0" word-spacing="0" font-family="Sniglet"/></g><g style="line-height:1.25"><path d="M22.873 68.14q-.09 0-.132-.045-.043-.048-.043-.096 0-.05.048-.082.048-.034.127-.05.08-.02.18-.026.103-.01.207-.01.087 0 .195.01.107.006.2.034.093.025.155.079.062.05.062.14 0 .07-.053.148-.054.076-.124.144-.071.067-.142.12l-.098.074q.299 0 .434.15.136.15.136.429 0 .175-.065.305-.062.13-.17.217-.104.085-.242.127-.136.042-.28.042-.118 0-.234-.02-.113-.02-.203-.067-.09-.05-.147-.133-.053-.084-.053-.21 0-.13.14-.13.043 0 .066.024.025.02.042.05.02.029.04.066.02.037.056.068.04.028.102.05.064.02.169.02.082 0 .16-.017.08-.02.142-.062.062-.042.099-.113.04-.073.04-.18 0-.21-.088-.297-.085-.087-.24-.087-.04 0-.074.014-.034.01-.067.028l-.07.028q-.038.012-.083.012-.045 0-.079-.04-.034-.042-.034-.107 0-.045.043-.105.045-.06.121-.135.079-.076.19-.166.11-.094.245-.2h-.068l-.076.002h-.347q-.102-.003-.187-.003z" style="-inkscape-font-specification:'Sniglet, Normal';font-variant-ligatures:normal;font-variant-caps:normal;font-variant-numeric:normal;font-feature-settings:normal;text-align:start" font-size="2.822" aria-label="3" font-weight="400" letter-spacing="0" word-spacing="0" font-family="Sniglet"/></g><g style="line-height:1.25"><path d="M23.746 81.449q-.003.107-.003.234t-.008.237q-.006.085-.04.11-.03.023-.087.023-.051 0-.08-.02-.025-.017-.039-.076-.011-.062-.014-.178-.003-.12-.003-.316-.093 0-.177.003l-.164.002q-.119 0-.217-.005-.096-.006-.167-.02-.068-.017-.107-.045-.037-.028-.037-.073 0-.063.05-.156.052-.096.128-.206.076-.11.16-.223l.162-.214.096-.124q.065-.082.138-.161.073-.082.147-.141.073-.06.124-.06.048 0 .085.03.036.033.042.145.011.164.014.345.003.178.003.352v.28q.079.005.127.014.048.009.073.025.026.015.034.037.008.023.008.057 0 .07-.064.096-.065.022-.184.028zm-.276-.923l-.212.257-.147.18q-.06.077-.104.13l-.077.096q.13-.006.266-.006l.274-.002z" style="-inkscape-font-specification:'Sniglet, Normal';font-variant-ligatures:normal;font-variant-caps:normal;font-variant-numeric:normal;font-feature-settings:normal;text-align:start" font-size="2.822" aria-label="4" font-weight="400" letter-spacing="0" word-spacing="0" font-family="Sniglet"/></g><g fill="none" stroke="#000" stroke-width=".132"><path d="M12.965 15.81h-1.323M12.965 28.51h-1.323M12.965 41.21h-1.323M12.965 53.91h-1.323"/></g></svg>