<svg xmlns="http://www.w3.org/2000/svg" width="120" height="380" viewBox="0 0 31.75 100.542"><path d="M0 0h31.75v100.541H0zm0 0" fill="#dcdcdc"/><rect rx="2.34" ry="2.34" y="67.482" x="3.043" height="25.439" width="25.665" fill="#999" paint-order="stroke markers fill"/><path d="M16.244 96.87l-1.63.114v-2.06q0-.23.065-.333.064-.104.22-.147.153-.043.347-.002.224.047.357.19.133.146.133.33 0 .186-.158.286-.157.103-.407.05-.082-.018-.144-.044-.063-.027-.205-.11v1.345l1.22-.085V94.85q0-.225.065-.337.065-.11.225-.15.16-.04.35 0 .222.046.353.19.13.14.13.324 0 .195-.157.294-.155.1-.407.047-.16-.034-.357-.16z" style="line-height:1.25;-inkscape-font-specification:'Arial, Normal';font-variant-ligatures:normal;font-variant-caps:normal;font-variant-numeric:normal;font-feature-settings:normal;text-align:start" font-size="3.528" aria-label="♫" font-weight="400" letter-spacing="0" word-spacing="0" font-family="Arial" fill="#333"/><g style="line-height:1.25"><path d="M13.948 69.396q-.079.006-.169.009l-.195.005.006.144.006.133q.002.068.002.14.003.074.003.165v.245q0 .116-.003.235l-.005.234q-.003.118-.009.245-.003.068-.014.105-.008.036-.025.056-.017.02-.04.023-.022.005-.05.005-.05 0-.088-.034-.034-.036-.04-.152-.005-.102-.008-.214 0-.113-.003-.243t-.003-.28v-.606q.003-.116.01-.2h-.117q-.118 0-.203-.003-.082-.003-.136-.015-.053-.014-.079-.042-.022-.028-.022-.08 0-.024.005-.044.006-.023.026-.04.02-.02.054-.03.036-.012.093-.018l.096-.005.084-.006q.043-.003.088-.003h.104q.167 0 .313.003.15.003.317.01.067.007.104.018.037.009.056.026.02.017.023.04.006.022.006.05 0 .05-.037.085-.034.034-.15.04zm1.5 1.54l-.01-.318q-.004-.17-.004-.39-.09.004-.192.006h-.44q-.105 0-.186-.002l-.006.344q-.003.164-.01.358-.004.068-.015.105-.009.036-.026.056-.017.02-.04.023-.019.005-.047.005-.05 0-.085-.033-.034-.037-.04-.153-.005-.101-.008-.212 0-.11-.003-.237t-.003-.273v-.333q0-.2.003-.342.003-.144.014-.234.014-.09.043-.133.028-.042.08-.042.047 0 .083.03.037.032.043.145l.008.175.006.152q.003.074.003.153v.175q.211-.01.414-.01.1 0 .198.004l.206.008v-.081q0-.2.003-.342.003-.144.014-.234.014-.09.042-.133.03-.042.08-.042.047 0 .084.03.037.032.042.145l.01.18.004.159q.003.076.003.16v.429q0 .116-.003.229l-.005.229q-.003.115-.009.242-.002.068-.014.105-.008.036-.025.056-.017.02-.04.023-.02.005-.048.005-.05 0-.084-.034-.034-.036-.04-.152zm1.257-.518l-.082.005h-.178q-.048 0-.107-.005v.573q0 .09-.045.113-.042.02-.107.02-.034 0-.054-.006-.02-.003-.034-.014-.01-.014-.02-.04-.005-.025-.008-.07-.006-.051-.008-.147l-.006-.254q0-.155-.003-.375v-.523q0-.115.028-.223.03-.11.102-.191.073-.085.198-.136.127-.05.321-.05.14 0 .268.03.133.03.235.108.101.076.163.206t.062.324q0 .26-.112.404-.11.14-.305.2l.378.52q.05.067.05.138 0 .056-.039.087-.036.034-.093.034-.062 0-.107-.034-.045-.036-.085-.093zm.443-.658q0-.194-.118-.288-.116-.096-.37-.096-.093 0-.155.017-.062.015-.099.057-.037.042-.054.118-.014.074-.014.19v.19q0 .11.003.2.065.005.144.005h.152q.08 0 .167-.01.09-.01.166-.05.077-.042.127-.12.051-.077.051-.213zm1.211 1.4q-.32 0-.47-.175-.06-.068-.102-.172-.04-.107-.065-.277-.023-.17-.034-.417-.009-.251-.009-.61 0-.116.006-.19.005-.075.022-.117.017-.046.043-.063.028-.017.07-.017.082 0 .116.074.034.073.034.254 0 .062-.003.11v.099q0 .048-.003.107v.144q0 .282.017.468.02.187.065.3.045.11.121.155.08.045.195.045.122 0 .2-.048.082-.05.13-.167.048-.118.068-.313.023-.195.023-.485 0-.127-.003-.218v-.162q0-.105.006-.175.008-.07.022-.11.017-.043.045-.06.028-.017.07-.017.043 0 .071.017.03.017.046.06.016.042.022.118.006.074.006.192 0 .497-.03.819-.032.318-.11.505-.08.183-.219.257-.135.07-.35.07z" style="-inkscape-font-specification:'Sniglet, Normal';font-variant-ligatures:normal;font-variant-caps:normal;font-variant-numeric:normal;font-feature-settings:normal;text-align:start" aria-label="THRU" font-weight="400" font-size="2.822" letter-spacing="0" word-spacing="0" font-family="Sniglet"/></g><g style="line-height:1.25"><path d="M2.766 18.296q-.006-.102-.01-.212v-.237q-.004-.127-.004-.273v-.686l-.17.087q-.07.045-.112.054-.04.008-.088.008-.042 0-.076-.036-.03-.037-.03-.088 0-.05.033-.087.036-.04.084-.07.062-.043.133-.086.073-.042.14-.076.07-.036.125-.056.06-.023.1-.023.02 0 .04.006.021.005.04.022.018.017.03.054.013.034.016.093l.01.178.004.15q.003.07.003.15v.425q0 .116-.003.23l-.005.227q-.003.116-.01.243-.002.068-.013.105-.01.036-.025.056-.017.02-.04.023-.02.005-.048.005-.05 0-.085-.034-.033-.036-.04-.152z" style="-inkscape-font-specification:'Sniglet, Normal';font-variant-ligatures:normal;font-variant-caps:normal;font-variant-numeric:normal;font-feature-settings:normal;text-align:start" font-size="2.822" aria-label="1" font-weight="400" letter-spacing="0" word-spacing="0" font-family="Sniglet"/></g><g style="line-height:1.25"><path d="M2.645 28.397q-.102 0-.17.022-.067.02-.112.054t-.074.07l-.05.07q-.023.035-.05.058-.027.02-.066.02-.068 0-.096-.034-.025-.037-.025-.096 0-.125.093-.232.028-.034.076-.07.05-.04.118-.07.071-.032.161-.05.093-.024.21-.024.307 0 .476.15.17.15.17.42 0 .053-.012.118-.008.065-.037.136-.025.07-.073.146-.048.077-.127.156-.07.07-.15.13-.079.06-.163.118l-.178.127q-.09.065-.183.15.09.048.194.062.105.014.235.014.12 0 .194-.006.074-.005.12-.014l.07-.014q.025-.006.053-.006.104 0 .104.096 0 .085-.07.13t-.17.068q-.098.02-.203.023-.104.005-.172.005-.037 0-.104-.005-.065-.003-.14-.015-.078-.01-.157-.03-.076-.023-.14-.057-.063-.037-.102-.088-.04-.053-.04-.127 0-.098.07-.186.074-.09.181-.175.108-.087.232-.172.124-.087.231-.178.107-.093.178-.192.073-.098.073-.214 0-.144-.098-.215-.096-.073-.277-.073z" style="-inkscape-font-specification:'Sniglet, Normal';font-variant-ligatures:normal;font-variant-caps:normal;font-variant-numeric:normal;font-feature-settings:normal;text-align:start" font-size="2.822" aria-label="2" font-weight="400" letter-spacing="0" word-spacing="0" font-family="Sniglet"/></g><g style="line-height:1.25"><path d="M2.182 40.055q-.09 0-.132-.045-.043-.048-.043-.096 0-.05.048-.082.048-.033.127-.05.08-.02.18-.026.103-.008.207-.008.087 0 .195.008.107.006.2.034.093.026.155.08.062.05.062.14 0 .07-.053.147-.054.076-.124.144-.07.068-.142.12l-.098.075q.3 0 .434.15.136.15.136.428 0 .175-.065.305-.062.13-.17.217-.104.085-.242.127-.136.043-.28.043-.118 0-.234-.02-.113-.02-.203-.068-.09-.05-.147-.132-.053-.085-.053-.21 0-.13.14-.13.043 0 .066.023.025.02.042.05.02.029.04.066.02.037.056.068.04.028.102.05.064.02.17.02.081 0 .16-.016.08-.02.141-.063.062-.042.1-.112.04-.074.04-.18 0-.21-.089-.297-.085-.088-.24-.088-.04 0-.074.014-.034.012-.067.028l-.07.03q-.038.01-.083.01-.045 0-.08-.04-.033-.042-.033-.107 0-.045.043-.104.045-.06.12-.136.08-.076.19-.166.11-.093.246-.2h-.068l-.076.002h-.347q-.102-.003-.187-.003z" style="-inkscape-font-specification:'Sniglet, Normal';font-variant-ligatures:normal;font-variant-caps:normal;font-variant-numeric:normal;font-feature-settings:normal;text-align:start" font-size="2.822" aria-label="3" font-weight="400" letter-spacing="0" word-spacing="0" font-family="Sniglet"/></g><g style="line-height:1.25"><path d="M3.037 52.803q-.002.107-.002.234t-.01.237q-.004.085-.04.11-.03.023-.086.023-.05 0-.08-.02-.024-.017-.04-.076-.01-.062-.012-.178-.003-.118-.003-.316-.093 0-.178.003-.085.003-.164.003-.118 0-.217-.006-.096-.005-.166-.02-.068-.017-.108-.045-.036-.028-.036-.073 0-.062.05-.155.05-.096.127-.206.077-.11.16-.223l.162-.215.096-.124q.065-.082.138-.16.074-.083.147-.142.073-.06.124-.06.048 0 .085.032.037.03.042.144.012.163.014.344.003.178.003.353v.28q.08.005.127.013.048.01.074.026.025.014.033.036.01.023.01.057 0 .07-.066.096-.065.022-.183.028zm-.276-.923l-.212.257-.146.18q-.06.077-.105.13l-.076.096q.13-.005.265-.005.14-.003.274-.003z" style="-inkscape-font-specification:'Sniglet, Normal';font-variant-ligatures:normal;font-variant-caps:normal;font-variant-numeric:normal;font-feature-settings:normal;text-align:start" font-size="2.822" aria-label="4" font-weight="400" letter-spacing="0" word-spacing="0" font-family="Sniglet"/></g><g style="line-height:1.25"><path d="M9.069 70.949q-.005-.101-.008-.211 0-.11-.003-.237t-.003-.274v-.686l-.17.088q-.07.045-.112.053-.04.009-.087.009-.043 0-.076-.037-.03-.036-.03-.087t.032-.088q.037-.04.085-.07.062-.043.133-.085.073-.042.14-.076.07-.037.125-.057.06-.022.1-.022.02 0 .04.005.02.006.038.023.02.017.03.054.015.033.018.093l.008.178.006.15q.003.07.003.149v.426q0 .116-.003.228l-.006.23-.008.242q-.003.067-.014.104-.01.037-.026.057-.017.02-.04.022-.02.006-.047.006-.05 0-.085-.034-.034-.037-.04-.152z" style="-inkscape-font-specification:'Sniglet, Normal';font-variant-ligatures:normal;font-variant-caps:normal;font-variant-numeric:normal;font-feature-settings:normal;text-align:start" font-size="2.822" aria-label="1" font-weight="400" letter-spacing="0" word-spacing="0" font-family="Sniglet"/></g><g style="line-height:1.25"><path d="M22.777 69.432q-.1 0-.17.022-.068.02-.113.054t-.073.07l-.05.07q-.023.035-.052.058-.025.02-.065.02-.067 0-.096-.034-.025-.037-.025-.096 0-.125.093-.232.028-.034.076-.07.05-.04.12-.07.07-.032.16-.05.093-.024.21-.024.306 0 .476.15.17.15.17.42 0 .053-.012.118-.01.065-.037.136-.025.07-.073.146-.048.077-.127.156-.07.07-.15.13-.08.06-.164.118l-.178.127q-.09.065-.183.15.09.048.195.062.104.014.234.014.12 0 .195-.006.073-.005.118-.014l.07-.014q.026-.006.054-.006.105 0 .105.096 0 .085-.07.13t-.17.068q-.1.02-.203.023-.105.005-.172.005-.037 0-.105-.005-.065-.003-.14-.015-.077-.01-.156-.03-.076-.023-.14-.057-.063-.037-.103-.088-.04-.053-.04-.127 0-.098.07-.186.075-.09.18-.175.109-.087.233-.172.124-.087.232-.178.107-.093.177-.192.074-.098.074-.214 0-.144-.1-.215-.095-.073-.276-.073z" style="-inkscape-font-specification:'Sniglet, Normal';font-variant-ligatures:normal;font-variant-caps:normal;font-variant-numeric:normal;font-feature-settings:normal;text-align:start" font-size="2.822" aria-label="2" font-weight="400" letter-spacing="0" word-spacing="0" font-family="Sniglet"/></g><g style="line-height:1.25"><path d="M8.552 81.708q-.09 0-.132-.045-.043-.048-.043-.096 0-.05.048-.082.048-.034.127-.05.08-.02.18-.026.103-.01.207-.01.087 0 .195.01.107.006.2.034.093.025.155.08.062.05.062.14 0 .07-.053.147-.054.076-.124.144-.07.067-.142.12l-.098.074q.3 0 .434.15.136.15.136.43 0 .174-.065.304-.062.13-.17.217-.104.085-.242.127-.136.042-.28.042-.118 0-.234-.02-.113-.02-.203-.067-.09-.05-.147-.133-.053-.084-.053-.21 0-.13.14-.13.043 0 .066.024.025.02.042.05.02.03.04.066.02.037.056.068.04.028.102.05.064.02.17.02.08 0 .16-.017.08-.02.14-.062.063-.042.1-.113.04-.073.04-.18 0-.21-.088-.297-.085-.087-.24-.087-.04 0-.074.014-.034.01-.067.028l-.07.028q-.038.012-.083.012-.045 0-.08-.04-.033-.042-.033-.107 0-.045.043-.105.045-.06.12-.135.08-.076.19-.166.11-.094.246-.2h-.068l-.076.002h-.347q-.102-.003-.187-.003z" style="-inkscape-font-specification:'Sniglet, Normal';font-variant-ligatures:normal;font-variant-caps:normal;font-variant-numeric:normal;font-feature-settings:normal;text-align:start" font-size="2.822" aria-label="3" font-weight="400" letter-spacing="0" word-spacing="0" font-family="Sniglet"/></g><g style="line-height:1.25"><path d="M23.217 82.772q-.003.107-.003.234t-.008.237q-.006.085-.04.11-.03.023-.087.023-.051 0-.08-.02-.025-.017-.04-.076-.01-.062-.013-.178-.003-.12-.003-.316-.093 0-.177.003l-.164.002q-.12 0-.217-.005-.096-.006-.167-.02-.068-.017-.107-.045-.037-.028-.037-.073 0-.063.05-.156.052-.096.128-.206.076-.11.16-.223l.162-.214.096-.124q.065-.082.138-.161.073-.082.147-.141.073-.06.124-.06.048 0 .085.03.036.033.042.145.01.164.014.345.003.178.003.352v.28q.079.005.127.014.048.009.073.025.026.015.034.037.008.023.008.057 0 .07-.064.096-.065.022-.184.028zm-.276-.923l-.212.257-.147.18q-.06.077-.104.13l-.077.096q.13-.006.266-.006l.274-.002z" style="-inkscape-font-specification:'Sniglet, Normal';font-variant-ligatures:normal;font-variant-caps:normal;font-variant-numeric:normal;font-feature-settings:normal;text-align:start" font-size="2.822" aria-label="4" font-weight="400" letter-spacing="0" word-spacing="0" font-family="Sniglet"/></g><g aria-label="FOUR-VIEW" style="line-height:1.25" font-weight="400" font-size="4.233" font-family="Sniglet" letter-spacing="0" word-spacing="0" stroke-width=".265"><path d="M5.553 6.653q0-.355.026-.554.025-.203.105-.305.08-.101.229-.123.148-.025.39-.025h.245q.11 0 .212.004.106 0 .207.004l.229.009q.101.008.156.025.055.013.085.038.03.026.034.06.008.034.008.076 0 .076-.055.127-.05.05-.224.06-.106.003-.207.008l-.225.008q-.123 0-.28.004h-.376q-.076 0-.106.055-.03.051-.03.132v.127q.005.063.005.14.004.075.004.173.004.093.004.22.157 0 .271.004.119 0 .203.004.09 0 .157.005l.131.008q.174.009.225.06.055.05.055.126 0 .043-.009.077-.004.033-.034.059-.03.025-.084.042-.055.017-.157.026l-.131.008q-.06 0-.144.004h-.483q-.004.254-.004.521.004.262-.013.542-.008.165-.059.203-.047.034-.144.034-.093 0-.14-.038-.046-.043-.055-.195-.008-.135-.012-.296 0-.165-.005-.373-.004-.211-.004-.474v-.61zM8.78 8.664q-.254 0-.479-.101-.22-.102-.385-.292-.165-.195-.262-.474-.094-.28-.094-.635 0-.335.08-.614.085-.28.246-.483.165-.203.407-.313.241-.115.559-.115.258 0 .49.094.233.093.407.279.178.186.28.466.101.28.101.652 0 .309-.085.588-.08.28-.25.491-.165.208-.419.335-.254.122-.596.122zm.008-.398q.233 0 .406-.093.174-.097.288-.254.115-.156.17-.36.055-.207.055-.423 0-.262-.072-.466-.068-.207-.187-.347-.118-.14-.275-.211-.156-.077-.334-.077-.212 0-.373.09-.156.088-.266.24-.106.153-.161.36-.055.204-.055.437 0 .25.063.457.064.203.17.347.11.144.258.224.148.076.313.076zM11.576 8.694q-.483 0-.707-.262-.09-.102-.153-.259-.059-.16-.097-.415-.034-.254-.05-.626-.014-.377-.014-.915 0-.173.009-.283.008-.114.034-.178.025-.068.063-.093.043-.026.106-.026.123 0 .174.11.05.11.05.382 0 .093-.004.165v.148q0 .072-.004.16v.217q0 .423.026.702.03.28.097.45.068.164.182.232.118.068.292.068.182 0 .3-.072.123-.077.195-.25.072-.178.102-.47.034-.292.034-.728 0-.19-.004-.326v-.246q0-.156.008-.262.013-.106.034-.165.025-.064.068-.09.042-.025.106-.025.063 0 .105.026.043.025.068.089.026.063.034.178.008.11.008.287 0 .746-.046 1.228-.047.479-.165.758-.119.275-.326.385-.203.106-.525.106zM14.121 7.58L14 7.59h-.267q-.072 0-.161-.01v.86q0 .135-.068.17-.063.029-.16.029-.051 0-.081-.009-.03-.004-.05-.02-.018-.022-.03-.06-.009-.038-.013-.106-.009-.076-.013-.22l-.008-.38q0-.234-.005-.564v-.783q0-.174.043-.335.042-.165.152-.287.11-.127.297-.204.19-.076.482-.076.208 0 .402.047.2.046.352.16.152.115.245.31.093.194.093.486 0 .39-.169.606-.165.211-.457.3l.567.78q.076.1.076.207 0 .084-.059.131-.055.05-.14.05-.093 0-.16-.05-.068-.055-.128-.14zm.665-.986q0-.292-.178-.432-.173-.144-.554-.144-.14 0-.233.026-.093.021-.148.085-.055.063-.08.177-.022.11-.022.284v.288q0 .165.004.3.098.005.216.005h.229q.118 0 .25-.013.135-.017.25-.076.114-.064.19-.178.076-.119.076-.322zM16.996 7.564l-.448.017q-.254.004-.601.004-.144 0-.246-.004-.102-.005-.165-.022-.064-.02-.093-.063-.03-.042-.03-.119 0-.038.009-.067.008-.034.038-.06.03-.025.08-.042.055-.021.14-.03l.11-.008q.05-.004.097-.004.047-.004.098-.004h.127q.228 0 .44.004.212 0 .44.012.102.009.157.026.055.013.085.038.03.025.033.06.009.033.009.075 0 .077-.055.127-.05.051-.224.06zM18.772 8.453q-.055.101-.101.148-.043.046-.11.046-.068 0-.119-.046-.05-.047-.11-.144-.076-.127-.174-.351-.093-.225-.19-.487-.097-.267-.19-.55-.094-.284-.17-.534-.072-.25-.118-.436-.043-.19-.043-.271 0-.085.034-.127.034-.042.131-.042.055 0 .093.03.043.025.106.152.051.097.11.254.06.156.123.347.068.19.136.402l.135.415q.068.207.127.398l.11.343q.05-.157.114-.347l.132-.398.135-.415q.068-.212.136-.398.067-.186.127-.343.059-.157.105-.258.06-.123.102-.153.047-.03.093-.03.098 0 .131.051.038.047.038.14 0 .085-.025.203-.025.119-.089.318-.06.195-.16.487l-.25.715q-.039.114-.09.237-.046.123-.097.242-.046.114-.093.22-.046.105-.089.182zM20.07 8.36q-.009-.153-.013-.318 0-.165-.004-.356-.005-.19-.005-.41v-.5q0-.3.005-.512.004-.216.025-.351.021-.136.064-.2.046-.063.122-.063.038 0 .072.009.034.008.06.038.025.025.042.08.021.051.025.136.009.152.013.27l.009.238q.004.114.004.241v.643q0 .174-.004.343l-.009.343q-.004.174-.013.364-.004.102-.02.157-.018.055-.043.085-.026.03-.06.033-.033.009-.076.009-.076 0-.13-.05-.056-.056-.064-.23zM21.065 7.979q-.008-.136-.017-.369-.008-.233-.008-.478v-.288l.008-.309q.009-.313.038-.491.034-.178.127-.267.098-.089.271-.11.174-.021.462-.021h.088q.09 0 .212.004.123 0 .254.004l.224.009q.094.008.149.025.059.013.089.038.03.022.038.055.008.03.008.068 0 .098-.055.144-.055.042-.224.055-.085.009-.25.013h-.33q-.17 0-.305.004h-.17q-.11.004-.156.05-.042.043-.042.208l.004.187q.008.143.008.406h.352q.224 0 .364.008.144.005.22.026.08.021.11.068.03.046.03.122 0 .038-.009.072-.004.03-.034.055-.03.021-.084.038-.055.013-.157.022-.123.008-.233.012h-.567V7.856l.008.144q.005.067.017.114.017.047.055.076.043.03.119.043.08.012.212.012h.91q.148 0 .186.055.038.055.038.148 0 .077-.034.119-.034.038-.165.055-.127.021-.385.025-.254.005-.703.005-.19 0-.313-.034t-.2-.115q-.075-.08-.113-.207-.034-.131-.047-.317zM24.564 6.463q.026-.06.076-.097.055-.038.115-.038.055 0 .106.038.05.033.08.093.16.33.318.715.156.381.283.724.072-.525.157-1.058.084-.534.19-1.02.013-.056.038-.09.026-.037.055-.054.03-.022.06-.03.034-.009.055-.009.072 0 .118.043.047.038.047.106 0 .076-.026.27-.025.191-.067.45-.043.253-.098.541-.05.288-.101.555-.051.266-.098.487-.046.22-.076.334-.025.097-.076.148-.05.047-.148.047-.102 0-.174-.09-.067-.092-.152-.287-.08-.195-.195-.495-.114-.305-.296-.728-.187.423-.305.728-.114.304-.199.5-.08.194-.152.287-.072.089-.17.089-.17 0-.224-.195-.034-.114-.08-.33-.047-.22-.098-.487l-.097-.55q-.051-.288-.09-.542l-.063-.444q-.02-.195-.02-.271 0-.072.046-.119t.131-.047q.06 0 .114.039.055.033.08.144.102.486.178 1.02.08.533.17 1.058.131-.309.262-.656.132-.347.326-.779z" style="-inkscape-font-specification:'Sniglet, Normal';font-variant-ligatures:normal;font-variant-caps:normal;font-variant-numeric:normal;font-feature-settings:normal;text-align:start"/></g><g aria-label="NOTES" style="line-height:1.25" font-weight="400" font-size="2.822" font-family="Sniglet" letter-spacing="0" word-spacing="0" stroke-width=".265"><path d="M3.778 62.784q-.09-.124-.172-.245-.08-.124-.172-.271-.09-.147-.21-.325-.115-.18-.278-.42v.38q0 .167-.003.311l-.006.271-.008.254q-.003.068-.015.105-.008.036-.025.056-.017.02-.04.023-.02.005-.047.005-.051 0-.085-.034-.034-.036-.04-.152-.014-.31-.017-.621v-.646q0-.19.003-.297.006-.107.02-.16.017-.054.042-.068.029-.014.074-.014t.118.07q.074.068.161.18.088.114.186.26.102.147.2.302.1.156.19.308l.17.277q-.004-.133-.004-.291v-.356q0-.223.003-.367.003-.146.014-.23.014-.086.043-.12.028-.033.079-.033.048 0 .084.03.037.032.043.145l.008.18.006.158q.003.076.003.161v.429q0 .116-.003.229l-.006.228-.008.243q-.003.068-.014.104-.009.037-.026.057-.017.02-.04.023-.02.005-.047.005-.048 0-.082-.028t-.099-.116zM5.197 62.945q-.17 0-.319-.068-.146-.067-.256-.194-.11-.13-.175-.316-.063-.187-.063-.424 0-.223.054-.409.057-.186.164-.322.11-.135.27-.209.162-.076.373-.076.172 0 .328.062.155.062.27.187.12.124.187.31.068.186.068.435 0 .206-.057.392-.054.186-.166.327-.11.139-.28.223-.17.082-.398.082zm.006-.265q.155 0 .27-.062.117-.065.193-.17.076-.104.113-.24.036-.138.036-.282 0-.175-.048-.31-.045-.138-.124-.232-.079-.093-.183-.14-.105-.051-.223-.051-.141 0-.249.059-.104.059-.177.16-.071.102-.108.24-.036.136-.036.291 0 .167.042.305.042.135.113.231.073.096.172.15.099.05.209.05zM7.336 61.201q-.08.006-.17.008l-.194.006.005.144.006.133q.003.067.003.14.003.074.003.164v.246q0 .116-.003.234l-.006.234-.008.246q-.003.068-.014.104-.009.037-.026.057-.017.02-.04.022-.022.006-.05.006-.051 0-.088-.034-.034-.037-.04-.152-.005-.102-.008-.215l-.002-.242q-.003-.13-.003-.28v-.336-.27q.003-.116.008-.201h-.116q-.118 0-.203-.003-.082-.003-.135-.014-.054-.014-.08-.042-.022-.028-.022-.08 0-.025.006-.044.005-.023.025-.04.02-.02.054-.03.037-.012.093-.018l.096-.005.085-.006q.042-.003.087-.003h.105q.166 0 .313.003.15.003.316.011.068.006.104.017.037.009.057.026.02.016.022.04.006.022.006.05 0 .05-.037.085-.034.033-.15.039zM7.738 62.488q-.006-.09-.012-.246-.005-.155-.005-.319v-.191l.005-.206q.006-.21.026-.328.022-.118.084-.178.065-.059.181-.073.116-.014.308-.014h.059q.06 0 .141.003l.17.002.149.006q.062.006.099.017.04.008.059.025.02.015.025.037.006.02.006.045 0 .065-.037.096-.036.028-.15.037-.056.005-.166.008h-.22q-.113 0-.203.003h-.113q-.073.003-.104.034-.029.028-.029.138l.003.125q.006.095.006.27h.234q.15 0 .243.006.096.003.146.017.054.014.074.045.02.031.02.082 0 .025-.006.048-.003.02-.023.037-.02.014-.056.025-.037.009-.104.014-.082.006-.156.009h-.378v.344l.006.096q.003.045.011.076.011.031.037.05.028.02.079.03.053.008.14.008h.608q.098 0 .124.036.025.037.025.1 0 .05-.022.078-.023.026-.11.037-.085.014-.257.017-.17.003-.469.003-.127 0-.209-.023-.081-.023-.132-.076-.051-.054-.076-.138-.023-.088-.031-.212zM9.958 60.924q.08 0 .18.015.105.01.196.045.09.03.152.084.062.051.062.127 0 .045-.025.077-.026.03-.082.03-.043 0-.088-.016-.042-.017-.098-.034-.054-.02-.127-.037-.071-.017-.167-.017-.186 0-.277.068-.087.065-.087.18 0 .08.04.133.039.054.104.093.068.037.15.062.084.026.172.048.098.026.194.062.1.037.175.096.077.06.122.15.048.09.048.229 0 .144-.054.26-.054.112-.147.194-.093.079-.223.124-.13.042-.282.042-.085 0-.197-.016-.113-.015-.215-.051-.102-.04-.172-.102-.07-.065-.07-.158 0-.056.028-.09.03-.034.09-.034.048 0 .079.02.03.017.054.04.084.073.191.098.108.025.22.025.065 0 .136-.008.073-.011.133-.042.059-.032.098-.088.04-.06.04-.158 0-.09-.037-.147-.034-.059-.093-.099-.06-.039-.141-.064-.079-.026-.172-.051-.105-.028-.206-.062-.102-.034-.18-.09-.08-.06-.13-.147-.049-.09-.049-.229 0-.138.051-.243.051-.104.139-.175.087-.07.206-.107.12-.037.26-.037z" style="-inkscape-font-specification:'Sniglet, Normal';font-variant-ligatures:normal;font-variant-caps:normal;font-variant-numeric:normal;font-feature-settings:normal;text-align:start"/></g><g aria-label="CHORD" style="line-height:1.25" font-weight="400" font-size="2.822" font-family="Sniglet" letter-spacing="0" word-spacing="0" stroke-width=".265"><path d="M22.016 60.904q.093 0 .186.017.096.014.172.048.076.031.124.08.05.044.05.106 0 .065-.033.1-.034.033-.085.033-.048 0-.084-.014l-.085-.037q-.045-.02-.11-.034-.065-.017-.172-.017-.107 0-.206.057-.096.053-.17.152-.07.096-.112.229-.043.133-.043.288 0 .192.048.33.051.138.13.229.08.087.178.132.101.043.203.043.121 0 .203-.026.082-.025.139-.056.059-.031.101-.057.042-.025.082-.025.048 0 .076.028.028.025.028.093 0 .057-.045.116-.042.056-.127.104-.082.045-.197.076-.116.029-.26.029-.158 0-.316-.062-.155-.062-.28-.184-.12-.124-.197-.307-.076-.187-.076-.432 0-.246.068-.438.07-.192.189-.324.121-.136.279-.206.16-.07.341-.07zM24.001 62.727l-.011-.319q-.003-.169-.003-.389l-.192.006h-.44q-.104 0-.186-.003l-.006.344q-.003.164-.011.359-.003.067-.014.104-.009.037-.026.056-.017.02-.04.023-.019.006-.047.006-.051 0-.085-.034-.034-.037-.04-.153-.005-.101-.008-.211 0-.11-.003-.237-.002-.127-.002-.274v-.333q0-.2.002-.342.003-.144.014-.234.015-.09.043-.133.028-.042.079-.042.048 0 .084.031.037.031.043.144l.008.175.006.152q.003.074.003.153v.175q.211-.009.415-.009.098 0 .197.003.102.003.206.009v-.082q0-.2.003-.342.003-.144.014-.234.014-.09.042-.133.029-.042.08-.042.047 0 .084.031.037.031.042.144l.009.18.006.159q.002.076.002.16v.43q0 .115-.002.228l-.006.229q-.003.115-.009.242-.002.068-.014.105-.008.037-.025.056-.017.02-.04.023-.02.005-.048.005-.05 0-.084-.033-.034-.037-.04-.153zM25.363 62.93q-.17 0-.32-.067-.146-.068-.256-.195-.11-.13-.175-.316-.062-.186-.062-.423 0-.223.053-.41.057-.186.164-.321.11-.136.271-.21.16-.075.373-.075.172 0 .327.062.155.062.27.186.12.124.187.31.068.187.068.435 0 .206-.057.392-.053.187-.166.328-.11.138-.28.223-.169.082-.397.082zm.005-.265q.155 0 .271-.062.116-.065.192-.17.076-.104.113-.239.037-.138.037-.282 0-.175-.048-.31-.045-.139-.124-.232-.08-.093-.184-.141-.104-.051-.223-.051-.141 0-.248.06-.105.058-.178.16-.07.102-.107.24-.037.135-.037.29 0 .167.042.305.043.136.113.232.074.096.172.15.1.05.21.05zM27.198 62.208l-.081.006h-.178q-.048 0-.107-.006v.573q0 .09-.046.113-.042.02-.107.02-.034 0-.053-.006-.02-.003-.034-.014-.012-.014-.02-.04-.006-.025-.009-.07-.005-.051-.008-.147l-.006-.254-.002-.375v-.522q0-.116.028-.223.028-.11.101-.192.074-.085.198-.136.127-.05.322-.05.138 0 .268.03.132.032.234.108.102.076.164.206.062.13.062.324 0 .26-.113.404-.11.141-.305.2l.378.52q.051.067.051.138 0 .056-.04.087-.036.034-.093.034-.062 0-.107-.034-.045-.036-.084-.093zm.444-.658q0-.194-.119-.287-.116-.096-.37-.096-.093 0-.155.017-.062.014-.099.056-.036.042-.053.119-.014.073-.014.189v.192q0 .11.002.2.065.003.144.003h.153q.079 0 .166-.009.09-.011.167-.05.076-.043.127-.12.05-.078.05-.214zM28.751 60.907q.29 0 .466.088.175.087.268.23.093.145.121.328.031.184.031.373 0 .206-.053.39-.051.183-.161.321-.107.136-.277.217-.169.08-.403.08-.187 0-.3-.029-.11-.025-.172-.079-.059-.053-.079-.135-.02-.082-.02-.192v-1.061q0-.122.02-.22.023-.1.085-.167.062-.07.175-.107.116-.037.3-.037zm.011 1.744q.175 0 .288-.062.116-.065.184-.17.068-.104.093-.236.028-.133.028-.271 0-.127-.02-.254-.02-.13-.081-.235-.063-.104-.178-.169-.116-.065-.308-.065-.175 0-.243.051-.067.05-.067.155v1.081q0 .088.062.133.065.042.242.042z" style="-inkscape-font-specification:'Sniglet, Normal';font-variant-ligatures:normal;font-variant-caps:normal;font-variant-numeric:normal;font-feature-settings:normal;text-align:start"/></g></svg>