<?xml version="1.0" encoding="UTF-8" standalone="no"?>
<svg
   xmlns:dc="http://purl.org/dc/elements/1.1/"
   xmlns:cc="http://creativecommons.org/ns#"
   xmlns:rdf="http://www.w3.org/1999/02/22-rdf-syntax-ns#"
   xmlns:svg="http://www.w3.org/2000/svg"
   xmlns="http://www.w3.org/2000/svg"
   xmlns:sodipodi="http://sodipodi.sourceforge.net/DTD/sodipodi-0.dtd"
   xmlns:inkscape="http://www.inkscape.org/namespaces/inkscape"
   width="105"
   height="380"
   viewBox="0 0 27.781 100.542"
   version="1.1"
   id="svg50"
   sodipodi:docname="FourView.svg"
   inkscape:version="0.92.4 (5da689c313, 2019-01-14)">
  <metadata
     id="metadata56">
    <rdf:RDF>
      <cc:Work
         rdf:about="">
        <dc:format>image/svg+xml</dc:format>
        <dc:type
           rdf:resource="http://purl.org/dc/dcmitype/StillImage" />
        <dc:title></dc:title>
      </cc:Work>
    </rdf:RDF>
  </metadata>
  <defs
     id="defs54" />
  <sodipodi:namedview
     pagecolor="#ffffff"
     bordercolor="#666666"
     borderopacity="1"
     objecttolerance="10"
     gridtolerance="10"
     guidetolerance="10"
     inkscape:pageopacity="0"
     inkscape:pageshadow="2"
     inkscape:window-width="1920"
     inkscape:window-height="1017"
     id="namedview52"
     showgrid="false"
     inkscape:zoom="6.0067457"
     inkscape:cx="62.722214"
     inkscape:cy="80.881253"
     inkscape:window-x="-8"
     inkscape:window-y="-8"
     inkscape:window-maximized="1"
     inkscape:current-layer="svg50"
     showguides="true"
     inkscape:guide-bbox="true">
    <sodipodi:guide
       position="12.993955,30.393014"
       orientation="0,1"
       id="guide835"
       inkscape:locked="false" />
    <sodipodi:guide
       position="14.029066,18.125689"
       orientation="0,1"
       id="guide837"
       inkscape:locked="false" />
    <sodipodi:guide
       position="8.6112479,30.393014"
       orientation="1,0"
       id="guide839"
       inkscape:locked="false" />
    <sodipodi:guide
       position="19.226648,32.485287"
       orientation="1,0"
       id="guide841"
       inkscape:locked="false" />
  </sodipodi:namedview>
  <path
     d="M0 0h27.781v100.541H0zm0 0"
     fill="#dcdcdc"
     id="path2" />
  <rect
     rx="2.3399999"
     ry="2.3399999"
     y="67.481918"
     x="2.6459999"
     height="25.438999"
     width="22.49"
     id="rect4"
     style="fill:#999999;paint-order:stroke markers fill" />
  <g
     style="line-height:1.25"
     id="g8">
    <path
       word-spacing="0"
       letter-spacing="0"
       font-weight="400"
       aria-label="♫"
       font-size="3.528"
       style="-inkscape-font-specification:'Arial, Normal';font-variant-ligatures:normal;font-variant-caps:normal;font-variant-numeric:normal;font-feature-settings:normal;text-align:start"
       d="M14.26 96.87l-1.63.115v-2.06q0-.23.065-.333.064-.104.22-.147.153-.043.347-.002.224.047.357.19.133.146.133.33 0 .186-.158.286-.157.103-.407.05-.082-.018-.144-.044-.063-.027-.205-.11v1.345l1.22-.085v-1.554q0-.225.065-.337.065-.11.225-.151.16-.04.35 0 .222.047.353.19.13.14.13.325 0 .195-.157.294-.155.1-.407.047-.16-.034-.357-.16z"
       font-family="Arial"
       fill="#333"
       id="path6" />
  </g>
  <g
     style="line-height:1.25"
     id="g12"
     transform="translate(0,1.455708)">
    <path
       d="M 9.044,6.332 Q 9.04,6.493 9.04,6.683 9.04,6.874 9.027,7.039 9.018,7.166 8.967,7.204 8.921,7.238 8.837,7.238 8.76,7.238 8.717,7.208 8.68,7.183 8.659,7.094 8.642,7.001 8.637,6.827 8.633,6.65 8.633,6.353 8.493,6.353 8.366,6.358 8.239,6.362 8.121,6.362 7.943,6.362 7.795,6.353 7.651,6.345 7.545,6.323 7.445,6.298 7.385,6.256 7.329,6.214 7.329,6.146 7.329,6.053 7.406,5.913 7.482,5.769 7.596,5.604 7.71,5.439 7.837,5.27 L 8.079,4.948 Q 8.129,4.88 8.223,4.762 8.32,4.639 8.43,4.52 8.54,4.397 8.65,4.31 8.76,4.22 8.836,4.22 q 0.072,0 0.127,0.046 0.055,0.047 0.064,0.216 0.017,0.246 0.021,0.517 0.004,0.266 0.004,0.53 v 0.418 q 0.12,0.008 0.19,0.021 0.073,0.013 0.11,0.038 0.04,0.021 0.052,0.055 0.012,0.034 0.012,0.085 0,0.106 -0.097,0.144 Q 9.222,6.324 9.044,6.332 Z M 8.63,4.948 8.312,5.333 8.092,5.604 Q 8.003,5.718 7.936,5.799 L 7.821,5.943 Q 8.016,5.934 8.219,5.934 8.427,5.93 8.629,5.93 Z m 2.583,1.202 q -0.196,0.01 -0.45,0.017 -0.254,0.004 -0.6,0.004 -0.145,0 -0.246,-0.004 Q 9.815,6.163 9.752,6.147 9.688,6.125 9.658,6.082 9.628,6.04 9.628,5.964 9.628,5.926 9.638,5.896 9.646,5.862 9.675,5.836 9.705,5.811 9.755,5.794 9.811,5.774 9.895,5.764 9.959,5.761 10.005,5.756 10.056,5.752 10.103,5.752 10.15,5.748 10.2,5.748 h 0.127 q 0.23,0 0.44,0.004 0.212,0 0.44,0.013 0.103,0.008 0.158,0.025 0.055,0.013 0.084,0.038 0.03,0.026 0.034,0.06 0.01,0.033 0.01,0.076 0,0.076 -0.056,0.127 -0.05,0.05 -0.225,0.06 z m 1.775,0.89 q -0.055,0.101 -0.102,0.147 -0.042,0.047 -0.11,0.047 -0.068,0 -0.118,-0.047 Q 12.608,7.141 12.548,7.043 12.471,6.916 12.374,6.693 12.281,6.468 12.184,6.205 12.086,5.938 11.994,5.655 11.9,5.371 11.824,5.121 11.752,4.871 11.705,4.685 q -0.042,-0.19 -0.042,-0.27 0,-0.085 0.034,-0.128 0.034,-0.042 0.13,-0.042 0.056,0 0.094,0.03 0.042,0.025 0.106,0.152 0.05,0.097 0.11,0.254 0.06,0.157 0.123,0.347 0.067,0.19 0.135,0.402 l 0.136,0.415 0.127,0.398 0.11,0.343 q 0.05,-0.157 0.114,-0.347 l 0.131,-0.398 0.136,-0.415 q 0.067,-0.21 0.135,-0.398 l 0.127,-0.343 q 0.06,-0.156 0.106,-0.258 0.06,-0.123 0.102,-0.152 0.046,-0.03 0.093,-0.03 0.097,0 0.131,0.05 0.038,0.047 0.038,0.14 0,0.085 -0.025,0.204 -0.026,0.118 -0.09,0.317 -0.058,0.195 -0.16,0.487 l -0.25,0.716 q -0.038,0.114 -0.089,0.237 -0.046,0.122 -0.097,0.24 -0.047,0.115 -0.093,0.221 -0.047,0.106 -0.09,0.182 z m 1.297,-0.094 q -0.008,-0.152 -0.013,-0.318 0,-0.165 -0.004,-0.355 -0.004,-0.19 -0.004,-0.41 v -0.5 q 0,-0.3 0.004,-0.513 0.004,-0.215 0.026,-0.35 0.02,-0.136 0.063,-0.2 0.047,-0.063 0.123,-0.063 0.038,0 0.072,0.008 0.034,0.01 0.06,0.038 0.025,0.026 0.042,0.08 0.02,0.051 0.025,0.136 L 14.692,4.77 14.7,5.007 q 0.004,0.114 0.004,0.241 v 0.644 q 0,0.173 -0.004,0.343 l -0.008,0.343 q -0.005,0.173 -0.013,0.364 -0.004,0.101 -0.02,0.156 -0.018,0.055 -0.044,0.085 -0.025,0.03 -0.059,0.034 -0.034,0.008 -0.076,0.008 -0.076,0 -0.13,-0.05 Q 14.294,7.12 14.285,6.946 Z m 0.996,-0.38 Q 15.272,6.429 15.264,6.197 15.255,5.964 15.255,5.718 V 5.43 l 0.01,-0.309 q 0.007,-0.313 0.037,-0.49 0.034,-0.178 0.127,-0.267 0.097,-0.09 0.27,-0.11 0.174,-0.022 0.462,-0.022 h 0.09 q 0.088,0 0.21,0.005 0.123,0 0.255,0.004 l 0.224,0.008 q 0.093,0.01 0.148,0.026 0.06,0.012 0.09,0.038 0.03,0.021 0.037,0.055 0.01,0.03 0.01,0.068 0,0.097 -0.056,0.144 -0.055,0.042 -0.225,0.055 -0.084,0.008 -0.25,0.012 h -0.33 q -0.169,0 -0.304,0.004 H 15.89 Q 15.78,4.656 15.734,4.702 15.691,4.745 15.691,4.91 l 0.004,0.186 q 0.01,0.144 0.01,0.406 h 0.35 q 0.225,0 0.364,0.01 0.144,0.003 0.22,0.024 0.081,0.021 0.11,0.068 0.03,0.047 0.03,0.123 0,0.038 -0.008,0.072 -0.004,0.03 -0.034,0.055 -0.03,0.02 -0.085,0.038 -0.055,0.013 -0.156,0.021 -0.123,0.008 -0.233,0.013 h -0.568 v 0.516 l 0.01,0.144 q 0.003,0.068 0.016,0.114 0.017,0.047 0.055,0.077 0.042,0.03 0.118,0.042 0.08,0.013 0.212,0.013 h 0.91 q 0.148,0 0.187,0.055 0.038,0.055 0.038,0.148 0,0.076 -0.034,0.118 -0.034,0.038 -0.165,0.055 -0.127,0.022 -0.386,0.026 -0.254,0.004 -0.702,0.004 -0.19,0 -0.314,-0.034 Q 15.518,7.17 15.442,7.09 15.365,7.01 15.327,6.882 15.293,6.752 15.281,6.565 Z m 3.5,-1.517 q 0.024,-0.059 0.075,-0.097 0.055,-0.038 0.114,-0.038 0.055,0 0.106,0.038 0.051,0.034 0.08,0.093 0.162,0.33 0.318,0.716 0.157,0.38 0.284,0.724 0.072,-0.525 0.156,-1.059 0.085,-0.533 0.19,-1.02 0.014,-0.055 0.04,-0.089 0.024,-0.038 0.054,-0.055 0.03,-0.02 0.06,-0.03 0.033,-0.008 0.054,-0.008 0.072,0 0.12,0.042 0.045,0.038 0.045,0.106 0,0.076 -0.025,0.271 -0.025,0.19 -0.068,0.45 -0.042,0.253 -0.097,0.541 -0.05,0.287 -0.102,0.554 -0.05,0.267 -0.097,0.487 -0.047,0.22 -0.076,0.334 -0.026,0.098 -0.076,0.15 -0.05,0.045 -0.149,0.045 -0.1,0 -0.173,-0.089 Q 19.546,7.022 19.461,6.827 19.381,6.633 19.267,6.332 19.152,6.027 18.97,5.604 q -0.186,0.423 -0.304,0.728 -0.115,0.305 -0.2,0.5 -0.08,0.194 -0.152,0.288 -0.072,0.088 -0.17,0.088 -0.168,0 -0.224,-0.194 Q 17.887,6.899 17.84,6.684 17.793,6.464 17.743,6.197 L 17.645,5.647 Q 17.595,5.358 17.556,5.104 17.518,4.85 17.493,4.66 q -0.02,-0.195 -0.02,-0.27 0,-0.073 0.045,-0.12 0.047,-0.046 0.132,-0.046 0.06,0 0.114,0.038 0.055,0.034 0.08,0.144 0.102,0.487 0.178,1.02 0.08,0.534 0.17,1.06 0.13,-0.31 0.262,-0.658 0.131,-0.347 0.326,-0.779 z"
       style="font-weight:400;font-size:4.2329998px;font-family:Sniglet;-inkscape-font-specification:'Sniglet, Normal';font-variant-ligatures:normal;font-variant-caps:normal;font-variant-numeric:normal;font-feature-settings:normal;text-align:start;letter-spacing:0;word-spacing:0"
       aria-label="4-VIEW"
       font-weight="400"
       font-size="4.233"
       letter-spacing="0"
       word-spacing="0"
       id="path10"
       inkscape:connector-curvature="0" />
  </g>
  <g
     style="line-height:1.25"
     id="g16"
     transform="translate(0,1.3230474)">
    <path
       d="m 11.964,62.594 q -0.079,0.006 -0.169,0.009 l -0.195,0.005 0.006,0.144 0.006,0.133 q 0.002,0.068 0.002,0.14 0.003,0.074 0.003,0.165 v 0.245 q 0,0.116 -0.003,0.235 l -0.005,0.234 q -0.003,0.118 -0.009,0.245 -0.003,0.068 -0.014,0.105 -0.008,0.036 -0.025,0.056 -0.017,0.02 -0.04,0.023 -0.022,0.005 -0.05,0.005 -0.05,0 -0.088,-0.034 -0.034,-0.036 -0.04,-0.152 -0.005,-0.102 -0.008,-0.214 0,-0.113 -0.003,-0.243 -0.003,-0.13 -0.003,-0.28 v -0.606 q 0.003,-0.116 0.01,-0.2 h -0.117 q -0.118,0 -0.203,-0.003 -0.082,-0.003 -0.136,-0.015 -0.053,-0.014 -0.079,-0.042 -0.022,-0.028 -0.022,-0.08 0,-0.024 0.005,-0.044 0.006,-0.023 0.026,-0.04 0.02,-0.02 0.054,-0.03 0.036,-0.012 0.093,-0.018 l 0.096,-0.005 0.084,-0.006 q 0.043,-0.003 0.088,-0.003 h 0.104 q 0.167,0 0.313,0.003 0.15,0.003 0.317,0.01 0.067,0.007 0.104,0.018 0.037,0.009 0.056,0.026 0.02,0.017 0.023,0.04 0.006,0.022 0.006,0.05 0,0.05 -0.037,0.085 -0.034,0.034 -0.15,0.04 z m 1.5,1.54 -0.01,-0.318 q -0.004,-0.17 -0.004,-0.39 -0.09,0.004 -0.192,0.006 h -0.44 q -0.105,0 -0.186,-0.002 l -0.006,0.344 q -0.003,0.164 -0.01,0.358 -0.004,0.068 -0.015,0.105 -0.009,0.036 -0.026,0.056 -0.017,0.02 -0.04,0.023 -0.019,0.005 -0.047,0.005 -0.05,0 -0.085,-0.033 -0.034,-0.037 -0.04,-0.153 -0.005,-0.101 -0.008,-0.212 0,-0.11 -0.003,-0.237 -0.003,-0.127 -0.003,-0.273 V 63.08 q 0,-0.2 0.003,-0.342 0.003,-0.144 0.014,-0.234 0.014,-0.09 0.043,-0.133 0.028,-0.042 0.08,-0.042 0.047,0 0.083,0.03 0.037,0.032 0.043,0.145 l 0.008,0.175 0.006,0.152 q 0.003,0.074 0.003,0.153 v 0.175 q 0.211,-0.01 0.414,-0.01 0.1,0 0.198,0.004 l 0.206,0.008 V 63.08 q 0,-0.2 0.003,-0.342 0.003,-0.144 0.014,-0.234 0.014,-0.09 0.042,-0.133 0.03,-0.042 0.08,-0.042 0.047,0 0.084,0.03 0.037,0.032 0.042,0.145 l 0.01,0.18 0.004,0.159 q 0.003,0.076 0.003,0.16 v 0.429 q 0,0.116 -0.003,0.229 l -0.005,0.229 q -0.003,0.115 -0.009,0.242 -0.002,0.068 -0.014,0.105 -0.008,0.036 -0.025,0.056 -0.017,0.02 -0.04,0.023 -0.02,0.005 -0.048,0.005 -0.05,0 -0.084,-0.034 -0.034,-0.036 -0.04,-0.152 z m 1.257,-0.518 -0.082,0.005 h -0.178 q -0.048,0 -0.107,-0.005 v 0.573 q 0,0.09 -0.045,0.113 -0.042,0.02 -0.107,0.02 -0.034,0 -0.054,-0.006 -0.02,-0.003 -0.034,-0.014 -0.01,-0.014 -0.02,-0.04 -0.005,-0.025 -0.008,-0.07 -0.006,-0.051 -0.008,-0.147 l -0.006,-0.254 q 0,-0.155 -0.003,-0.375 v -0.523 q 0,-0.115 0.028,-0.223 0.03,-0.11 0.102,-0.191 0.073,-0.085 0.198,-0.136 0.127,-0.05 0.321,-0.05 0.14,0 0.268,0.03 0.133,0.03 0.235,0.108 0.101,0.076 0.163,0.206 0.062,0.13 0.062,0.324 0,0.26 -0.112,0.404 -0.11,0.14 -0.305,0.2 l 0.378,0.52 q 0.05,0.067 0.05,0.138 0,0.056 -0.039,0.087 -0.036,0.034 -0.093,0.034 -0.062,0 -0.107,-0.034 -0.045,-0.036 -0.085,-0.093 z m 0.443,-0.658 q 0,-0.194 -0.118,-0.288 -0.116,-0.096 -0.37,-0.096 -0.093,0 -0.155,0.017 -0.062,0.015 -0.099,0.057 -0.037,0.042 -0.054,0.118 -0.014,0.074 -0.014,0.19 v 0.19 q 0,0.11 0.003,0.2 0.065,0.005 0.144,0.005 h 0.152 q 0.08,0 0.167,-0.01 0.09,-0.01 0.166,-0.05 0.077,-0.042 0.127,-0.12 0.051,-0.077 0.051,-0.213 z m 1.211,1.4 q -0.32,0 -0.47,-0.175 -0.06,-0.068 -0.102,-0.172 -0.04,-0.107 -0.065,-0.277 -0.023,-0.17 -0.034,-0.417 -0.009,-0.251 -0.009,-0.61 0,-0.116 0.006,-0.19 0.005,-0.075 0.022,-0.117 0.017,-0.046 0.043,-0.063 0.028,-0.017 0.07,-0.017 0.082,0 0.116,0.074 0.034,0.073 0.034,0.254 0,0.062 -0.003,0.11 v 0.099 q 0,0.048 -0.003,0.107 v 0.144 q 0,0.282 0.017,0.468 0.02,0.187 0.065,0.3 0.045,0.11 0.121,0.155 0.08,0.045 0.195,0.045 0.122,0 0.2,-0.048 0.082,-0.05 0.13,-0.167 0.048,-0.118 0.068,-0.313 0.023,-0.195 0.023,-0.485 0,-0.127 -0.003,-0.218 v -0.162 q 0,-0.105 0.006,-0.175 0.008,-0.07 0.022,-0.11 0.017,-0.043 0.045,-0.06 0.028,-0.017 0.07,-0.017 0.043,0 0.071,0.017 0.03,0.017 0.046,0.06 0.016,0.042 0.022,0.118 0.006,0.074 0.006,0.192 0,0.497 -0.03,0.819 -0.032,0.318 -0.11,0.505 -0.08,0.183 -0.219,0.257 -0.135,0.07 -0.35,0.07 z"
       style="font-weight:400;font-size:2.82200003px;font-family:Sniglet;-inkscape-font-specification:'Sniglet, Normal';font-variant-ligatures:normal;font-variant-caps:normal;font-variant-numeric:normal;font-feature-settings:normal;text-align:start;letter-spacing:0;word-spacing:0"
       aria-label="THRU"
       font-weight="400"
       font-size="2.822"
       letter-spacing="0"
       word-spacing="0"
       id="path14"
       inkscape:connector-curvature="0" />
  </g>
  <g
     style="line-height:1.25"
     id="g20"
     transform="translate(0,1.5875592)">
    <path
       d="M 5.941,11.292 Q 5.935,11.19 5.931,11.08 V 10.843 Q 5.927,10.716 5.927,10.57 V 9.884 l -0.17,0.087 q -0.07,0.045 -0.112,0.054 -0.04,0.008 -0.088,0.008 -0.042,0 -0.076,-0.036 Q 5.451,9.96 5.451,9.909 5.451,9.859 5.484,9.822 5.52,9.782 5.568,9.752 5.63,9.709 5.701,9.666 5.774,9.624 5.841,9.59 5.911,9.554 5.966,9.534 q 0.06,-0.023 0.1,-0.023 0.02,0 0.04,0.006 0.021,0.005 0.04,0.022 0.018,0.017 0.03,0.054 0.013,0.034 0.016,0.093 l 0.01,0.178 0.004,0.15 q 0.003,0.07 0.003,0.15 v 0.425 q 0,0.116 -0.003,0.23 l -0.005,0.227 q -0.003,0.116 -0.01,0.243 -0.002,0.068 -0.013,0.105 -0.01,0.036 -0.025,0.056 -0.017,0.02 -0.04,0.023 -0.02,0.005 -0.048,0.005 -0.05,0 -0.085,-0.034 -0.033,-0.036 -0.04,-0.152 z"
       style="font-weight:400;font-size:2.82200003px;font-family:Sniglet;-inkscape-font-specification:'Sniglet, Normal';font-variant-ligatures:normal;font-variant-caps:normal;font-variant-numeric:normal;font-feature-settings:normal;text-align:start;letter-spacing:0;word-spacing:0"
       font-size="2.822"
       aria-label="1"
       font-weight="400"
       letter-spacing="0"
       word-spacing="0"
       id="path18"
       inkscape:connector-curvature="0" />
  </g>
  <g
     style="line-height:1.25"
     id="g24"
     transform="translate(0,1.5875592)">
    <path
       d="m 5.82,22.451 q -0.102,0 -0.17,0.022 -0.067,0.02 -0.112,0.054 -0.045,0.034 -0.074,0.07 l -0.05,0.071 q -0.023,0.034 -0.05,0.057 -0.027,0.02 -0.066,0.02 -0.068,0 -0.096,-0.034 -0.025,-0.037 -0.025,-0.096 0,-0.125 0.093,-0.232 0.028,-0.034 0.076,-0.07 0.05,-0.04 0.118,-0.07 0.071,-0.032 0.161,-0.05 0.093,-0.024 0.21,-0.024 0.307,0 0.476,0.15 0.17,0.15 0.17,0.42 0,0.053 -0.012,0.118 -0.008,0.065 -0.037,0.136 -0.025,0.07 -0.073,0.146 -0.048,0.077 -0.127,0.156 -0.07,0.07 -0.15,0.13 -0.079,0.06 -0.163,0.118 L 5.741,23.67 q -0.09,0.065 -0.183,0.15 0.09,0.048 0.194,0.062 0.105,0.014 0.235,0.014 0.12,0 0.194,-0.006 0.074,-0.005 0.12,-0.014 l 0.07,-0.014 q 0.025,-0.006 0.053,-0.006 0.104,0 0.104,0.096 0,0.085 -0.07,0.13 -0.07,0.045 -0.17,0.068 -0.098,0.02 -0.203,0.023 -0.104,0.005 -0.172,0.005 -0.037,0 -0.104,-0.005 Q 5.744,24.17 5.669,24.158 5.591,24.148 5.512,24.128 5.436,24.105 5.372,24.071 5.309,24.034 5.27,23.983 5.23,23.93 5.23,23.856 5.23,23.758 5.3,23.67 5.374,23.58 5.481,23.495 5.589,23.408 5.713,23.323 5.837,23.236 5.944,23.145 6.051,23.052 6.122,22.953 6.195,22.855 6.195,22.739 6.195,22.595 6.097,22.524 6.001,22.451 5.82,22.451 Z"
       style="font-weight:400;font-size:2.82200003px;font-family:Sniglet;-inkscape-font-specification:'Sniglet, Normal';font-variant-ligatures:normal;font-variant-caps:normal;font-variant-numeric:normal;font-feature-settings:normal;text-align:start;letter-spacing:0;word-spacing:0"
       font-size="2.822"
       aria-label="2"
       font-weight="400"
       letter-spacing="0"
       word-spacing="0"
       id="path22"
       inkscape:connector-curvature="0" />
  </g>
  <g
     style="line-height:1.25"
     id="g28"
     transform="translate(0,1.5875592)">
    <path
       d="m 5.357,35.167 q -0.09,0 -0.132,-0.045 -0.043,-0.048 -0.043,-0.096 0,-0.05 0.048,-0.082 0.048,-0.033 0.127,-0.05 0.08,-0.02 0.18,-0.026 0.103,-0.008 0.207,-0.008 0.087,0 0.195,0.008 0.107,0.006 0.2,0.034 0.093,0.026 0.155,0.08 0.062,0.05 0.062,0.14 0,0.07 -0.053,0.147 -0.054,0.076 -0.124,0.144 -0.07,0.068 -0.142,0.121 l -0.098,0.074 q 0.3,0 0.434,0.15 0.136,0.15 0.136,0.428 0,0.175 -0.065,0.305 -0.062,0.13 -0.17,0.217 -0.104,0.085 -0.242,0.127 -0.136,0.043 -0.28,0.043 -0.118,0 -0.234,-0.02 -0.113,-0.02 -0.203,-0.068 -0.09,-0.05 -0.147,-0.132 -0.053,-0.085 -0.053,-0.21 0,-0.13 0.14,-0.13 0.043,0 0.066,0.023 0.025,0.02 0.042,0.051 0.02,0.028 0.04,0.065 0.02,0.037 0.056,0.068 0.04,0.028 0.102,0.05 0.064,0.02 0.17,0.02 0.081,0 0.16,-0.016 0.08,-0.02 0.141,-0.063 0.062,-0.042 0.1,-0.112 0.04,-0.074 0.04,-0.18 0,-0.21 -0.089,-0.297 -0.085,-0.088 -0.24,-0.088 -0.04,0 -0.074,0.014 -0.034,0.012 -0.067,0.028 l -0.07,0.03 q -0.038,0.01 -0.083,0.01 -0.045,0 -0.08,-0.04 -0.033,-0.042 -0.033,-0.107 0,-0.045 0.043,-0.104 0.045,-0.06 0.12,-0.136 0.08,-0.076 0.19,-0.166 0.11,-0.093 0.246,-0.2 H 5.967 L 5.891,35.17 H 5.544 Q 5.442,35.167 5.357,35.167 Z"
       style="font-weight:400;font-size:2.82200003px;font-family:Sniglet;-inkscape-font-specification:'Sniglet, Normal';font-variant-ligatures:normal;font-variant-caps:normal;font-variant-numeric:normal;font-feature-settings:normal;text-align:start;letter-spacing:0;word-spacing:0"
       font-size="2.822"
       aria-label="3"
       font-weight="400"
       letter-spacing="0"
       word-spacing="0"
       id="path26"
       inkscape:connector-curvature="0" />
  </g>
  <g
     style="line-height:1.25"
     id="g32"
     transform="translate(0,1.5875592)">
    <path
       d="m 6.212,48.974 q -0.002,0.107 -0.002,0.234 0,0.127 -0.01,0.237 -0.004,0.085 -0.04,0.11 -0.03,0.023 -0.086,0.023 -0.05,0 -0.08,-0.02 Q 5.97,49.541 5.954,49.482 5.944,49.42 5.942,49.304 5.939,49.186 5.939,48.988 q -0.093,0 -0.178,0.003 -0.085,0.003 -0.164,0.003 -0.118,0 -0.217,-0.006 Q 5.284,48.983 5.214,48.968 5.146,48.951 5.106,48.923 5.07,48.895 5.07,48.85 q 0,-0.062 0.05,-0.155 0.05,-0.096 0.127,-0.206 0.077,-0.11 0.16,-0.223 l 0.162,-0.215 0.096,-0.124 q 0.065,-0.082 0.138,-0.16 0.074,-0.083 0.147,-0.142 0.073,-0.06 0.124,-0.06 0.048,0 0.085,0.032 0.037,0.03 0.042,0.144 0.012,0.163 0.014,0.344 0.003,0.178 0.003,0.353 v 0.28 q 0.08,0.005 0.127,0.013 0.048,0.01 0.074,0.026 0.025,0.014 0.033,0.036 0.01,0.023 0.01,0.057 0,0.07 -0.066,0.096 -0.065,0.022 -0.183,0.028 z m -0.276,-0.923 -0.212,0.257 -0.146,0.18 q -0.06,0.077 -0.105,0.13 l -0.076,0.096 q 0.13,-0.005 0.265,-0.005 0.14,-0.003 0.274,-0.003 z"
       style="font-weight:400;font-size:2.82200003px;font-family:Sniglet;-inkscape-font-specification:'Sniglet, Normal';font-variant-ligatures:normal;font-variant-caps:normal;font-variant-numeric:normal;font-feature-settings:normal;text-align:start;letter-spacing:0;word-spacing:0"
       font-size="2.822"
       aria-label="4"
       font-weight="400"
       letter-spacing="0"
       word-spacing="0"
       id="path30"
       inkscape:connector-curvature="0" />
  </g>
  <g
     style="line-height:1.25"
     id="g36"
     transform="translate(0,1.3230474)">
    <path
       d="m 8.672,69.626 q -0.005,-0.101 -0.008,-0.211 0,-0.11 -0.003,-0.237 -0.003,-0.127 -0.003,-0.274 v -0.686 l -0.17,0.088 q -0.07,0.045 -0.112,0.053 -0.04,0.009 -0.087,0.009 -0.043,0 -0.076,-0.037 -0.03,-0.036 -0.03,-0.087 0,-0.051 0.032,-0.088 0.037,-0.04 0.085,-0.07 0.062,-0.043 0.133,-0.085 0.073,-0.042 0.14,-0.076 0.07,-0.037 0.125,-0.057 0.06,-0.022 0.1,-0.022 0.02,0 0.04,0.005 0.021,0.006 0.038,0.023 0.02,0.017 0.03,0.054 0.015,0.033 0.018,0.093 l 0.008,0.178 0.006,0.15 q 0.003,0.07 0.003,0.149 v 0.426 q 0,0.116 -0.003,0.228 l -0.006,0.23 -0.008,0.242 q -0.003,0.067 -0.014,0.104 -0.01,0.037 -0.026,0.057 -0.017,0.02 -0.04,0.022 -0.02,0.006 -0.047,0.006 -0.05,0 -0.085,-0.034 -0.034,-0.037 -0.04,-0.152 z"
       style="font-weight:400;font-size:2.82200003px;font-family:Sniglet;-inkscape-font-specification:'Sniglet, Normal';font-variant-ligatures:normal;font-variant-caps:normal;font-variant-numeric:normal;font-feature-settings:normal;text-align:start;letter-spacing:0;word-spacing:0"
       font-size="2.822"
       aria-label="1"
       font-weight="400"
       letter-spacing="0"
       word-spacing="0"
       id="path34"
       inkscape:connector-curvature="0" />
  </g>
  <g
     style="line-height:1.25"
     id="g40"
     transform="translate(10.63469,-10.944277)">
    <path
       d="m 8.57,80.376 q -0.1,0 -0.17,0.022 -0.068,0.02 -0.113,0.054 -0.045,0.034 -0.073,0.07 l -0.05,0.071 Q 8.141,80.627 8.112,80.65 8.087,80.67 8.047,80.67 7.98,80.67 7.951,80.636 7.926,80.599 7.926,80.54 q 0,-0.125 0.093,-0.232 0.028,-0.034 0.076,-0.07 0.051,-0.04 0.12,-0.07 0.07,-0.032 0.16,-0.05 0.093,-0.024 0.21,-0.024 0.306,0 0.476,0.15 0.17,0.15 0.17,0.42 0,0.053 -0.012,0.118 -0.009,0.065 -0.037,0.136 -0.025,0.07 -0.073,0.146 -0.048,0.077 -0.127,0.156 -0.07,0.07 -0.15,0.13 -0.08,0.06 -0.164,0.118 L 8.49,81.595 q -0.09,0.065 -0.183,0.15 0.09,0.048 0.195,0.062 0.104,0.014 0.234,0.014 0.121,0 0.195,-0.006 0.073,-0.005 0.118,-0.014 l 0.07,-0.014 q 0.026,-0.006 0.054,-0.006 0.105,0 0.105,0.096 0,0.085 -0.07,0.13 -0.07,0.045 -0.17,0.068 -0.099,0.02 -0.203,0.023 -0.105,0.005 -0.172,0.005 -0.037,0 -0.105,-0.005 Q 8.493,82.095 8.418,82.083 8.341,82.073 8.262,82.053 8.186,82.03 8.122,81.996 8.059,81.959 8.019,81.908 7.979,81.855 7.979,81.781 7.979,81.683 8.05,81.595 8.124,81.505 8.23,81.42 8.338,81.333 8.462,81.248 8.586,81.161 8.694,81.07 8.801,80.977 8.871,80.878 8.945,80.78 8.945,80.664 8.945,80.52 8.846,80.449 8.75,80.376 8.569,80.376 Z"
       style="font-weight:400;font-size:2.82200003px;font-family:Sniglet;-inkscape-font-specification:'Sniglet, Normal';font-variant-ligatures:normal;font-variant-caps:normal;font-variant-numeric:normal;font-feature-settings:normal;text-align:start;letter-spacing:0;word-spacing:0"
       font-size="2.822"
       aria-label="2"
       font-weight="400"
       letter-spacing="0"
       word-spacing="0"
       id="path38"
       inkscape:connector-curvature="0" />
  </g>
  <g
     style="line-height:1.25"
     id="g44"
     transform="translate(-10.616865,13.568287)">
    <path
       d="m 18.772,68.14 q -0.09,0 -0.132,-0.045 -0.043,-0.048 -0.043,-0.096 0,-0.05 0.048,-0.082 0.048,-0.034 0.127,-0.05 0.08,-0.02 0.18,-0.026 0.103,-0.01 0.207,-0.01 0.087,0 0.195,0.01 0.107,0.006 0.2,0.034 0.093,0.025 0.155,0.079 0.062,0.05 0.062,0.14 0,0.07 -0.053,0.148 -0.054,0.076 -0.124,0.144 -0.071,0.067 -0.142,0.12 l -0.098,0.074 q 0.299,0 0.434,0.15 0.136,0.15 0.136,0.429 0,0.175 -0.065,0.305 -0.062,0.13 -0.17,0.217 -0.104,0.085 -0.242,0.127 -0.136,0.042 -0.28,0.042 -0.118,0 -0.234,-0.02 -0.113,-0.02 -0.203,-0.067 -0.09,-0.05 -0.147,-0.133 -0.053,-0.084 -0.053,-0.21 0,-0.13 0.14,-0.13 0.043,0 0.066,0.024 0.025,0.02 0.042,0.05 0.02,0.029 0.04,0.066 0.02,0.037 0.056,0.068 0.04,0.028 0.102,0.05 0.064,0.02 0.169,0.02 0.082,0 0.16,-0.017 0.08,-0.02 0.142,-0.062 0.062,-0.042 0.099,-0.113 0.04,-0.073 0.04,-0.18 0,-0.21 -0.088,-0.297 -0.085,-0.087 -0.24,-0.087 -0.04,0 -0.074,0.014 -0.034,0.01 -0.067,0.028 l -0.07,0.028 q -0.038,0.012 -0.083,0.012 -0.045,0 -0.079,-0.04 -0.034,-0.042 -0.034,-0.107 0,-0.045 0.043,-0.105 0.045,-0.06 0.121,-0.135 0.079,-0.076 0.19,-0.166 0.11,-0.094 0.245,-0.2 h -0.068 l -0.076,0.002 H 18.959 Q 18.857,68.14 18.772,68.14 Z"
       style="font-weight:400;font-size:2.82200003px;font-family:Sniglet;-inkscape-font-specification:'Sniglet, Normal';font-variant-ligatures:normal;font-variant-caps:normal;font-variant-numeric:normal;font-feature-settings:normal;text-align:start;letter-spacing:0;word-spacing:0"
       font-size="2.822"
       aria-label="3"
       font-weight="400"
       letter-spacing="0"
       word-spacing="0"
       id="path42"
       inkscape:connector-curvature="0" />
  </g>
  <g
     style="line-height:1.25"
     id="g48"
     transform="translate(0,1.3230474)">
    <path
       d="m 19.645,81.449 q -0.003,0.107 -0.003,0.234 0,0.127 -0.008,0.237 -0.006,0.085 -0.04,0.11 -0.03,0.023 -0.087,0.023 -0.051,0 -0.08,-0.02 -0.025,-0.017 -0.039,-0.076 -0.011,-0.062 -0.014,-0.178 -0.003,-0.12 -0.003,-0.316 -0.093,0 -0.177,0.003 l -0.164,0.002 q -0.119,0 -0.217,-0.005 -0.096,-0.006 -0.167,-0.02 -0.068,-0.017 -0.107,-0.045 -0.037,-0.028 -0.037,-0.073 0,-0.063 0.05,-0.156 0.052,-0.096 0.128,-0.206 0.076,-0.11 0.16,-0.223 l 0.162,-0.214 0.096,-0.124 q 0.065,-0.082 0.138,-0.161 0.073,-0.082 0.147,-0.141 0.073,-0.06 0.124,-0.06 0.048,0 0.085,0.03 0.036,0.033 0.042,0.145 0.011,0.164 0.014,0.345 0.003,0.178 0.003,0.352 v 0.28 q 0.079,0.005 0.127,0.014 0.048,0.009 0.073,0.025 0.026,0.015 0.034,0.037 0.008,0.023 0.008,0.057 0,0.07 -0.064,0.096 -0.065,0.022 -0.184,0.028 z m -0.276,-0.923 -0.212,0.257 -0.147,0.18 q -0.06,0.077 -0.104,0.13 l -0.077,0.096 q 0.13,-0.006 0.266,-0.006 l 0.274,-0.002 z"
       style="font-weight:400;font-size:2.82200003px;font-family:Sniglet;-inkscape-font-specification:'Sniglet, Normal';font-variant-ligatures:normal;font-variant-caps:normal;font-variant-numeric:normal;font-feature-settings:normal;text-align:start;letter-spacing:0;word-spacing:0"
       font-size="2.822"
       aria-label="4"
       font-weight="400"
       letter-spacing="0"
       word-spacing="0"
       id="path46"
       inkscape:connector-curvature="0" />
  </g>
</svg>
