<svg xmlns="http://www.w3.org/2000/svg" width="60" height="380" viewBox="0 0 15.875 100.542"><path d="M0 0h15.875v100.541H0zm0 0" fill="#dcdcdc"/><g style="line-height:1.25"><path word-spacing="0" letter-spacing="0" font-weight="400" aria-label="♫" font-size="3.528" style="-inkscape-font-specification:'Arial, Normal';font-variant-ligatures:normal;font-variant-caps:normal;font-variant-numeric:normal;font-feature-settings:normal;text-align:start" d="M8.664 93.893l-1.63.115v-2.06q0-.23.065-.333.063-.104.22-.147.153-.043.347-.002.224.047.357.19.133.146.133.33 0 .186-.158.287-.157.102-.407.049-.082-.018-.144-.044-.063-.026-.205-.11v1.345l1.22-.085v-1.554q0-.224.065-.337.065-.11.225-.15.16-.041.349-.001.223.047.354.19.129.14.129.325 0 .195-.156.294-.155.1-.407.047-.16-.034-.357-.16z" font-family="Arial" fill="#333"/></g><rect rx=".99" ry=".99" y="11.588" x="2.891" height="3.043" width="10.089" fill="#333" stroke="#8c8c8c" stroke-width=".132" paint-order="stroke markers fill"/><rect rx=".99" ry=".99" y="24.817" x="2.212" height="3.043" width="11.492" fill="#333" stroke="#8c8c8c" stroke-width=".132" paint-order="stroke markers fill"/><g style="line-height:1.25" aria-label="GATE 1"><path style="-inkscape-font-specification:'Sniglet, Normal';font-variant-ligatures:normal;font-variant-caps:normal;font-variant-numeric:normal;font-feature-settings:normal;text-align:start" d="M4.324 25.291q.093 0 .192.017.098.017.18.05.082.031.136.08.053.047.053.11 0 .064-.034.098t-.084.034q-.048 0-.09-.017l-.09-.036q-.052-.02-.122-.037-.07-.017-.178-.017-.12 0-.223.056-.102.054-.18.153-.08.096-.125.228-.045.133-.045.288 0 .19.048.328t.124.228q.08.09.175.136.099.042.198.042.16 0 .254-.045.096-.048.152-.122.003-.059.003-.14v-.178q0-.037-.006-.057-.005-.023-.028-.034-.023-.01-.068-.014-.042-.003-.115-.003-.09 0-.147-.023-.057-.025-.057-.104 0-.056.029-.09.03-.037.124-.043h.053q.04-.003.082-.003h.155q.085 0 .136.017.05.014.09.068.02.028.023.1.005.07.005.163v.728q0 .076-.042.113-.04.036-.093.036-.065 0-.107-.034-.04-.03-.04-.1v-.11q-.073.083-.175.12-.1.037-.25.037-.156 0-.306-.062t-.265-.184q-.116-.124-.19-.307-.07-.187-.07-.432 0-.246.07-.438.074-.192.198-.324.125-.136.29-.206.168-.07.36-.07zm2.113 1.854l-.062-.155q-.031-.09-.068-.19l-.178.007h-.41q-.098 0-.18-.003l-.065.186q-.03.087-.06.155-.055.144-.163.144-.04 0-.076-.025-.034-.026-.034-.074t.017-.124q.017-.079.043-.166l.059-.184q.03-.096.06-.178.027-.09.078-.228l.113-.294.119-.299q.059-.15.107-.26.01-.028.028-.062.017-.036.04-.067.025-.03.053-.054.03-.023.068-.023.037 0 .068.026.03.022.053.056.026.034.043.07.02.038.03.066.046.113.102.26.06.146.116.296.06.15.11.285.05.135.082.228.025.082.056.175.034.093.062.184.029.09.046.17.02.075.02.123t-.037.074q-.034.025-.074.025-.05 0-.093-.034-.042-.037-.073-.11zm-.5-.62l.136.002q.067 0 .135.003l-.068-.197-.064-.19-.054-.166-.04-.138q-.01-.037-.025-.06-.014-.022-.037-.022-.022 0-.036.025-.014.023-.026.06-.034.115-.096.301l-.127.387q.076-.003.153-.003.076-.003.15-.003zm1.876-.952q-.08.006-.17.008l-.194.006.005.144.006.133q.003.067.003.14.003.074.003.164v.246q0 .116-.003.234l-.006.234-.008.246q-.003.068-.014.104-.01.037-.026.057-.017.02-.04.022-.022.006-.05.006-.051 0-.088-.034-.034-.036-.04-.152-.005-.102-.008-.214l-.002-.243q-.003-.13-.003-.28v-.606q.003-.116.008-.2H7.07q-.12 0-.204-.004-.082-.003-.135-.014-.054-.014-.08-.042-.022-.028-.022-.08 0-.025.006-.044.005-.023.025-.04.02-.02.054-.03.037-.012.093-.018l.096-.006.085-.006q.042-.003.087-.003h.105q.166 0 .313.003.15.003.316.012.068.006.104.016.037.008.057.026.02.017.022.04.006.022.006.05 0 .051-.037.085-.034.034-.15.04zm.402 1.286q-.006-.09-.012-.245-.005-.155-.005-.319v-.19l.005-.207q.006-.21.026-.328.022-.118.084-.178.065-.059.18-.073.117-.014.309-.014h.059q.06 0 .14.003.083 0 .17.003l.15.006q.062.006.099.017.04.008.06.025.019.014.024.037.006.02.006.045 0 .065-.037.096-.036.028-.15.037-.056.006-.166.008h-.22q-.113 0-.203.003H8.62q-.073.003-.104.034-.03.028-.03.138l.004.124q.006.096.006.271h.234q.15 0 .243.006.096.003.147.017.053.014.073.045.02.031.02.082 0 .025-.006.048-.003.02-.023.037-.02.014-.056.025-.037.008-.104.014-.082.006-.156.008H8.49v.344l.006.096q.003.045.01.076.012.031.038.051.028.02.079.028.053.008.14.008h.608q.098 0 .124.037.025.037.025.1 0 .05-.022.078-.023.025-.11.037-.085.014-.257.017-.17.003-.47.003-.126 0-.208-.023-.081-.023-.132-.076-.051-.054-.076-.139-.023-.087-.031-.21zm2.192.255q-.006-.102-.01-.212l-.002-.237q-.003-.127-.003-.274v-.333q0-.2.003-.34.003-.145.017-.235.014-.09.042-.133.03-.042.082-.042.026 0 .048.006.023.006.04.025.017.017.028.054.014.034.017.09l.008.18.006.16q.003.075.003.16v.43q0 .114-.003.227l-.006.23q-.002.114-.008.241-.003.068-.014.105-.012.037-.03.056-.015.02-.038.023-.023.006-.05.006-.052 0-.088-.034-.037-.037-.043-.152zm1.764.042q-.09-.124-.173-.245l-.172-.27q-.09-.148-.21-.326-.114-.18-.278-.42v.38q0 .167-.003.311l-.005.271q-.003.127-.01.254-.002.068-.013.105-.008.036-.025.056-.017.02-.04.023-.02.006-.048.006-.05 0-.084-.034-.034-.037-.04-.153-.014-.31-.017-.62v-.647q0-.189.003-.296.005-.107.02-.16.017-.055.042-.069.028-.014.073-.014.046 0 .119.07.073.068.16.181.088.113.187.26.102.147.2.302.1.155.19.308l.169.276q-.003-.132-.003-.29v-.356q0-.223.003-.367.003-.147.014-.23.014-.086.042-.12.028-.034.08-.034.047 0 .084.031.037.031.042.144l.009.18.005.16q.003.075.003.16v.43q0 .114-.003.227l-.005.23q-.003.115-.01.242-.002.067-.013.104-.008.037-.025.056-.017.02-.04.023-.02.006-.048.006-.048 0-.082-.028-.033-.028-.098-.116z" word-spacing="0" letter-spacing="0" font-weight="400" font-size="2.822" aria-label="GATE IN" font-family="Sniglet" fill="#fff"/></g><g style="line-height:1.25;-inkscape-font-specification:'Sniglet, Normal';font-variant-ligatures:normal;font-variant-caps:normal;font-variant-numeric:normal;font-feature-settings:normal;text-align:start"><path style="-inkscape-font-specification:'Sniglet, Normal';font-variant-ligatures:normal;font-variant-caps:normal;font-variant-numeric:normal;font-feature-settings:normal;text-align:start" d="M4.862 5.843q.129 0 .264.023.136.023.249.07.112.042.186.108t.074.152q0 .089-.047.136-.046.046-.116.046-.066 0-.124-.023l-.125-.05q-.07-.028-.166-.051-.098-.023-.245-.023-.163 0-.307.077-.14.074-.248.21-.11.132-.17.314-.063.182-.063.396 0 .26.066.45t.17.314q.11.125.24.187.137.058.273.058.22 0 .35-.062.13-.066.209-.167.004-.082.004-.194v-.245q0-.05-.008-.077-.008-.031-.04-.047-.03-.015-.092-.02-.058-.003-.16-.003-.123 0-.201-.031-.077-.035-.077-.144 0-.077.038-.124.043-.05.17-.058h.075q.054-.004.113-.004h.213q.116 0 .186.023.07.02.124.093.028.039.03.136.009.097.009.225v1.001q0 .105-.058.155-.054.05-.128.05-.09 0-.148-.046-.054-.042-.054-.14v-.15q-.1.116-.24.166-.136.05-.346.05-.213 0-.42-.085-.205-.085-.364-.252-.16-.17-.26-.423Q3.6 7.608 3.6 7.27q0-.337.097-.601.1-.264.272-.447.17-.186.4-.283.229-.097.492-.097zm2.189.007q.109 0 .248.02.144.015.268.062.124.042.21.116.085.07.085.175 0 .062-.035.105-.035.042-.112.042-.06 0-.12-.023T7.459 6.3q-.074-.027-.175-.05-.097-.023-.23-.023-.255 0-.38.093-.12.089-.12.248 0 .109.055.183.054.073.143.128.093.05.206.085.116.035.237.066.136.035.267.085.136.05.24.132.106.082.168.206.066.124.066.314 0 .198-.074.357-.074.156-.202.268-.128.109-.306.17-.18.059-.388.059-.117 0-.272-.023-.155-.02-.295-.07-.14-.054-.237-.14-.097-.09-.097-.217 0-.078.04-.124Q6.147 8 6.228 8q.066 0 .11.027.042.024.073.055.116.1.264.135.147.035.302.035.09 0 .187-.011.1-.016.182-.059.082-.042.136-.12.054-.081.054-.217 0-.124-.05-.202-.047-.081-.128-.136-.082-.054-.194-.089-.11-.035-.237-.07-.144-.039-.283-.085-.14-.047-.25-.124-.107-.082-.177-.202-.066-.124-.066-.315 0-.19.07-.333.07-.144.19-.24.12-.098.283-.148.167-.05.357-.05zm2.608 1.77q-.18.008-.411.015-.233.004-.551.004-.132 0-.225-.004-.094-.004-.152-.02-.058-.018-.085-.057-.027-.04-.027-.109 0-.035.007-.062.008-.031.035-.054.028-.024.074-.04.05-.019.128-.026l.1-.008q.048-.004.09-.004.043-.004.09-.004h.116q.21 0 .404.004.194 0 .403.011.093.008.144.024.05.011.077.035.027.023.03.054.009.031.009.07 0 .07-.05.116-.047.047-.206.054zm1.476-.051l-.578.897q-.054.085-.12.128-.062.046-.144.046-.1 0-.143-.05-.04-.047-.04-.12 0-.043.016-.09.02-.046.05-.089l.723-1.032-.722-1.032q-.031-.043-.05-.09-.016-.046-.016-.089 0-.073.039-.12.042-.05.143-.05.082 0 .144.046.066.043.12.128l.578.897.579-.897q.054-.085.116-.128.066-.046.147-.046.1 0 .14.05.043.047.043.12 0 .043-.02.09-.015.046-.046.089l-.722 1.032.722 1.032q.03.043.046.09.02.046.02.089 0 .073-.043.12-.04.05-.14.05-.081 0-.147-.046-.062-.043-.116-.128z" word-spacing="0" letter-spacing="0" font-size="3.881" font-weight="400" aria-label="GS-X" font-family="Sniglet"/></g><g style="line-height:1.25" aria-label="GATE 1"><path style="-inkscape-font-specification:'Sniglet, Normal';font-variant-ligatures:normal;font-variant-caps:normal;font-variant-numeric:normal;font-feature-settings:normal;text-align:start" d="M5.148 12.595q.017-.04.05-.066.038-.025.077-.025.037 0 .07.025.035.023.054.062.108.22.212.477.104.254.19.483.047-.35.104-.706.056-.355.127-.68.008-.036.025-.059.017-.025.037-.037.02-.014.04-.02.022-.005.036-.005.048 0 .079.028.03.025.03.07 0 .051-.016.18-.017.128-.045.3-.028.17-.065.361-.034.192-.068.37t-.065.325q-.03.146-.05.222-.018.065-.051.1-.034.03-.1.03-.067 0-.115-.059-.045-.062-.101-.192-.054-.13-.13-.33-.076-.203-.198-.486-.124.283-.203.486-.076.203-.133.333-.053.13-.101.192-.048.06-.113.06-.113 0-.15-.13-.022-.077-.053-.22-.031-.148-.065-.325l-.065-.367q-.034-.192-.06-.362-.025-.169-.042-.296-.014-.13-.014-.18 0-.049.03-.08.032-.03.089-.03.04 0 .076.025.037.022.053.096.068.324.119.68.054.356.113.705.087-.206.175-.437.087-.23.217-.52zm2.023.744l-.082.006H6.91q-.048 0-.107-.006v.573q0 .09-.045.113-.042.02-.107.02-.034 0-.054-.006-.02-.003-.034-.014-.011-.014-.02-.04-.005-.025-.008-.07-.006-.05-.01-.147l-.004-.254q0-.155-.003-.375v-.523q0-.115.028-.222.029-.11.102-.192.073-.085.197-.136.127-.05.322-.05.138 0 .268.03.133.031.235.108.1.076.163.206.062.13.062.324 0 .26-.113.404-.11.141-.304.2l.378.52q.05.067.05.138 0 .056-.04.087-.036.034-.092.034-.062 0-.107-.034-.045-.036-.085-.093zm.443-.657q0-.195-.118-.288-.116-.096-.37-.096-.093 0-.155.017-.062.014-.1.056-.036.042-.053.12-.014.072-.014.188v.192q0 .11.003.2.065.003.144.003h.152q.08 0 .167-.008.09-.01.166-.05.076-.043.127-.12.05-.078.05-.214zm.573 1.177q-.005-.102-.008-.212 0-.11-.003-.237t-.003-.274v-.333q0-.2.003-.34.003-.145.017-.236.014-.09.042-.132.032-.043.082-.043.026 0 .048.006.023.006.04.026.017.017.028.053.014.034.017.09.006.102.008.181l.006.158q.003.077.003.161v.43q0 .115-.003.228l-.006.228q-.002.116-.008.243-.003.068-.014.105-.011.036-.028.056-.017.02-.04.023-.022.006-.05.006-.051 0-.088-.034-.037-.037-.043-.153zm1.717-1.54q-.08.005-.17.007l-.194.006.006.144.006.132q.002.068.002.141.003.074.003.164v.246q0 .115-.003.234l-.005.234q-.003.12-.01.246-.001.067-.013.104-.008.037-.025.056-.017.02-.04.023-.022.006-.05.006-.051 0-.088-.034-.034-.037-.04-.152-.005-.102-.008-.215 0-.113-.003-.242-.003-.13-.003-.28v-.606q.003-.116.009-.2h-.116q-.118 0-.203-.004-.082-.003-.135-.014-.054-.014-.08-.042-.022-.029-.022-.08 0-.025.006-.045.005-.022.025-.04.02-.019.054-.03.036-.01.093-.017l.096-.006.084-.006q.043-.003.088-.003h.104q.167 0 .313.003.15.003.317.011.067.006.104.017.037.008.056.026.02.016.023.04.006.022.006.05 0 .05-.037.085-.034.033-.15.04zm.403 1.286q-.006-.09-.012-.246-.006-.155-.006-.319v-.192l.006-.206q.006-.209.025-.327.023-.119.085-.178.065-.06.18-.073.116-.014.308-.014h.06q.059 0 .14.003.083 0 .17.003l.15.006q.062.006.098.016.04.008.06.026.02.014.025.037.006.02.006.045 0 .065-.037.096-.037.028-.15.036-.056.006-.166.008h-.22q-.113 0-.203.003h-.113q-.074.003-.105.034-.028.028-.028.14l.003.123q.005.096.005.27h.235q.15 0 .242.007.096.003.147.017.054.014.074.045.02.03.02.082 0 .025-.006.048-.003.02-.023.036-.02.014-.056.026-.037.008-.105.014-.082.006-.155.008h-.378v.344l.005.096q.003.045.012.076.01.031.036.051.029.02.08.028.053.008.14.008h.607q.1 0 .125.037.025.037.025.1 0 .05-.023.078-.022.025-.11.036-.084.014-.257.017-.17.003-.468.003-.127 0-.21-.022-.081-.023-.132-.077-.05-.053-.076-.138-.022-.087-.03-.21z" word-spacing="0" letter-spacing="0" font-weight="400" font-size="2.822" aria-label="WRITE" font-family="Sniglet" fill="#fff"/></g><rect rx=".99" ry=".99" y="51.275" x="1.999" height="3.043" width="11.799" fill="#333" stroke="#8c8c8c" stroke-width=".132" paint-order="stroke markers fill"/><path word-spacing="0" letter-spacing="0" font-size="2.822" font-weight="400" style="line-height:1.25;-inkscape-font-specification:'Sniglet, Normal';font-variant-ligatures:normal;font-variant-caps:normal;font-variant-numeric:normal;font-feature-settings:normal;text-align:start" d="M4.073 52.281q.016-.039.05-.065.037-.025.077-.025.036 0 .07.025.034.023.054.062.107.22.21.477.106.254.19.483.048-.35.105-.706.056-.355.127-.68.008-.037.025-.059.017-.025.037-.037.02-.014.04-.02.022-.01.036-.01.048 0 .08.028.03.025.03.071 0 .051-.017.18-.017.128-.045.3-.028.17-.065.361-.034.192-.068.37-.033.178-.064.324-.032.147-.051.223-.017.065-.051.1-.034.03-.1.03-.067 0-.115-.059-.045-.062-.101-.192-.054-.13-.13-.33-.076-.203-.197-.485-.125.282-.204.485-.076.203-.132.333-.054.13-.102.192-.048.06-.113.06-.113 0-.15-.13-.022-.077-.053-.22-.031-.147-.065-.325-.03-.178-.065-.367-.034-.192-.06-.361-.025-.17-.041-.297-.015-.13-.015-.18 0-.048.03-.08.032-.03.089-.03.04 0 .076.025.037.023.054.096.067.324.118.68.054.355.113.705.088-.206.175-.437.088-.231.218-.52zm2.022.746q-.04 0-.081.01h-.178q-.048 0-.107-.01v.572q0 .09-.046.113-.042.02-.107.02-.034 0-.054-.01-.02 0-.033-.014-.012-.014-.02-.039-.006-.025-.008-.07-.006-.052-.008-.148l-.006-.254q0-.155-.003-.375V52.3q0-.116.028-.223.028-.11.102-.192.073-.085.197-.135.127-.051.322-.051.138 0 .268.03.133.032.234.108.102.076.164.206.062.13.062.324 0 .26-.113.404-.11.141-.305.2l.379.52q.05.068.05.138 0 .056-.04.088-.036.034-.092.034-.062 0-.108-.034-.045-.037-.084-.093zm.443-.658q0-.195-.118-.288-.116-.096-.37-.096-.093 0-.155.017-.062.014-.1.056-.035.042-.052.118-.014.073-.014.19v.191q0 .11.003.2h.296q.079 0 .166-.01.09-.01.167-.05.076-.042.127-.119.05-.079.05-.214zm.574 1.177q-.006-.102-.008-.212 0-.11-.003-.237t-.003-.274v-.333q0-.2.003-.341.003-.144.017-.235.014-.09.042-.132.03-.042.082-.042.025 0 .048.01.022.01.04.025.016.017.028.054.014.034.016.09.006.101.008.18l.006.158q.003.076.003.161v.429q0 .116-.003.229l-.006.229-.008.242q-.003.068-.014.105-.01.037-.028.057-.017.02-.04.023-.022.01-.05.01-.05 0-.088-.034-.036-.037-.042-.153zm1.717-1.541q-.08.01-.17.01-.087 0-.194.01l.006.144.006.132q.003.068.003.141.003.073.003.164v.246q0 .115-.003.234l-.006.234-.008.246q-.003.068-.014.104-.008.037-.026.056-.017.02-.04.023-.022.01-.05.01-.05 0-.088-.034-.033-.037-.04-.152-.005-.102-.007-.215 0-.113-.003-.243t-.003-.279v-.606q.003-.116.008-.201h-.32q-.081 0-.134-.014-.054-.014-.08-.042-.022-.028-.022-.08 0-.024.006-.044.006-.023.025-.04.02-.02.054-.031.037-.011.093-.017.054 0 .096-.01.042 0 .085-.01h.505q.15 0 .316.01.068.01.104.018.037.01.057.025.02.017.022.04.006.023.006.05 0 .052-.036.086-.034.034-.15.039zm.402 1.287q-.006-.09-.012-.246-.006-.155-.006-.319v-.192l.006-.206q.006-.209.026-.327.022-.119.084-.178.065-.059.18-.073.117-.014.309-.014h.37q.09 0 .15.01l.098.017q.04.01.06.025.019.014.025.037.006.02.006.045 0 .065-.037.096-.037.028-.15.037-.056.01-.166.01h-.536q-.074 0-.105.034-.028.028-.028.138l.003.125q.006.096.006.27h.234q.15 0 .243.01.096 0 .147.017.053.014.073.045.02.031.02.082 0 .025-.006.048-.003.02-.023.037-.02.014-.056.025-.037.01-.105.014-.081.01-.155.01h-.378v.345l.006.096q.003.045.01.076.013.03.038.05.028.02.079.029.054.01.14.01h.608q.099 0 .124.037.025.037.025.099 0 .05-.022.079-.023.025-.11.037-.085.014-.257.017H9.68q-.127 0-.21-.023-.081-.023-.132-.076-.05-.054-.076-.139-.023-.088-.031-.211zm2.804-1.261q.16 0 .288.051.127.048.214.139.09.09.138.22.048.13.048.29 0 .178-.056.32-.054.14-.152.24-.096.098-.232.152-.132.054-.29.054-.173 0-.305-.06-.13-.058-.22-.16-.088-.102-.133-.235-.045-.132-.045-.279 0-.16.05-.293.054-.136.15-.232.099-.099.237-.152.138-.054.308-.054zm-.031 1.205q.116 0 .197-.039.082-.042.133-.11.054-.068.076-.152.026-.088.026-.18 0-.097-.026-.178-.022-.085-.073-.147-.048-.062-.127-.096-.076-.037-.184-.037-.11 0-.192.037-.081.037-.138.101-.053.062-.082.15-.028.088-.028.189 0 .206.105.336.107.127.313.127z" font-family="Sniglet" fill="#fff"/><rect rx=".99" ry=".99" y="64.504" x="2.054" height="3.043" width="11.799" fill="#333" stroke="#8c8c8c" stroke-width=".132" paint-order="stroke markers fill"/><path word-spacing="0" letter-spacing="0" font-size="2.822" font-weight="400" style="line-height:1.25;-inkscape-font-specification:'Sniglet, Normal';font-variant-ligatures:normal;font-variant-caps:normal;font-variant-numeric:normal;font-feature-settings:normal;text-align:start" d="M4.127 65.51q.017-.04.05-.065.038-.025.078-.025.036 0 .07.025.034.023.054.062.107.22.21.477.106.254.19.483.049-.35.105-.706.056-.355.127-.68.008-.037.025-.06.017-.024.037-.036.02-.014.04-.02.022-.01.036-.01.048 0 .08.028.03.025.03.07 0 .052-.017.18-.017.129-.045.3-.028.17-.065.362l-.067.37q-.034.178-.065.324-.031.147-.051.223-.017.065-.051.1-.034.03-.1.03t-.114-.06q-.046-.061-.102-.191-.054-.13-.13-.33-.076-.203-.197-.485-.125.282-.204.485-.076.203-.132.333-.054.13-.102.192-.048.06-.113.06-.113 0-.15-.13-.022-.077-.053-.22-.031-.147-.065-.325l-.065-.367q-.034-.192-.06-.361l-.041-.297q-.014-.13-.014-.18 0-.048.03-.08.032-.03.088-.03.04 0 .076.025.037.023.054.096.068.324.118.68.054.355.113.705.088-.206.175-.437.088-.231.218-.52zm2.023.745q-.04 0-.081.01H5.89q-.048 0-.108-.01v.573q0 .09-.045.113-.042.02-.107.02-.034 0-.054-.01-.02 0-.033-.014-.012-.014-.02-.04-.006-.024-.008-.07-.006-.051-.008-.147l-.006-.254q0-.155-.003-.375v-.522q0-.116.028-.223.028-.11.102-.192.073-.085.197-.135.127-.051.322-.051.138 0 .268.03.133.032.234.108.102.076.164.206.062.13.062.324 0 .26-.113.404-.11.14-.305.2l.378.52q.05.068.05.138 0 .056-.04.088-.035.034-.091.034-.062 0-.108-.034-.045-.037-.084-.093zm.444-.657q0-.195-.12-.288-.115-.096-.37-.096-.092 0-.154.017-.062.014-.1.056-.035.042-.052.118-.014.073-.014.19v.19q0 .11.003.2h.296q.079 0 .166-.01.09-.01.167-.05.076-.041.127-.118.05-.08.05-.214zm.573 1.177q-.006-.102-.01-.212l-.002-.237q-.003-.127-.003-.274v-.333q0-.2.003-.341.003-.144.017-.235.014-.09.042-.132.03-.042.082-.042.025 0 .048.01t.04.025q.016.017.028.054.014.034.017.09.006.1.008.18l.006.158q.003.076.003.16v.43q0 .116-.003.229l-.006.229-.008.242q-.003.068-.015.105-.01.037-.028.057-.017.02-.04.023-.022.01-.05.01-.05 0-.088-.034-.036-.037-.042-.153zm1.717-1.541q-.08.01-.17.01-.087 0-.194.01l.006.144.006.132q.003.068.003.14.003.074.003.165v.246q0 .115-.003.234l-.006.234-.008.246q-.003.068-.014.104-.008.037-.026.056-.017.02-.04.023-.022.01-.05.01-.05 0-.087-.034-.034-.037-.04-.152-.006-.102-.008-.215 0-.113-.003-.243t-.003-.28v-.605q.003-.116.008-.201h-.32q-.081 0-.134-.014-.054-.014-.08-.042-.022-.028-.022-.08 0-.024.006-.044.006-.023.025-.04.02-.02.054-.031.037-.011.093-.017.054 0 .096-.01.042 0 .085-.01h.505q.15 0 .316.01.068.01.105.018.036.01.056.025.02.017.023.04.006.023.006.05 0 .052-.037.086-.034.034-.15.039zm.402 1.287q-.006-.09-.012-.246-.006-.155-.006-.32v-.191l.006-.206q.006-.21.026-.327.022-.12.085-.178.064-.06.18-.073.116-.014.308-.014h.37q.09 0 .15.01l.098.017q.04.01.06.025.019.014.025.037.006.02.006.045 0 .065-.037.096-.037.028-.15.037-.056.01-.166.01h-.536q-.074 0-.105.034-.028.028-.028.138l.003.125q.006.096.006.27h.234q.15 0 .243.01.096 0 .147.017.053.014.073.045.02.03.02.082 0 .025-.006.048-.003.02-.023.037-.02.014-.056.025-.037.01-.105.014-.081.01-.155.01h-.38v.345l.007.096q.003.045.012.076.01.03.036.05.028.02.08.029.053.01.14.01h.607q.099 0 .124.037.026.037.026.099 0 .05-.023.079-.022.025-.11.037-.085.014-.257.017h-.468q-.127 0-.21-.023-.08-.023-.132-.076-.05-.054-.076-.14-.023-.087-.03-.21z" font-family="Sniglet" fill="#fff"/><ellipse ry=".723" rx=".714" cy="65.968" cx="12.076" fill="#fff" paint-order="markers stroke fill"/><rect rx=".99" ry=".99" y="38.046" x="1.661" height="3.043" width="12.574" fill="#333" stroke="#8c8c8c" stroke-width=".132" paint-order="stroke markers fill"/><g aria-label="GATE 1"><g style="line-height:1.25" aria-label="GATE IN"><path style="-inkscape-font-specification:'Sniglet, Normal';font-variant-ligatures:normal;font-variant-caps:normal;font-variant-numeric:normal;font-feature-settings:normal;text-align:start" d="M3.429 40.348q0 .067-.014.104-.011.037-.03.057-.018.02-.043.022-.023.006-.045.006-.077 0-.102-.034-.023-.034-.031-.152-.006-.062-.01-.18l-.004-.283q0-.164-.003-.361v-.418q0-.104.025-.212.026-.107.096-.194.074-.088.2-.141.13-.054.337-.054.144 0 .273.03.13.032.229.108t.158.203q.06.127.06.316 0 .198-.066.328-.064.13-.183.206-.12.076-.282.107-.164.031-.36.031H3.54q-.048 0-.107-.006zm.813-1.188q0-.19-.107-.286-.105-.095-.35-.095-.093 0-.161.016-.065.015-.107.054-.043.037-.065.102-.02.065-.02.163v.22q0 .122.003.23.065.002.144.002h.152q.085 0 .175-.011.093-.011.167-.051.073-.042.12-.121.049-.082.049-.223zm1.16.671l-.081.006h-.178q-.048 0-.107-.006v.573q0 .09-.045.113-.042.02-.107.02-.034 0-.054-.006-.02-.003-.034-.014-.011-.014-.02-.04-.005-.025-.008-.07-.006-.051-.008-.147l-.006-.254q0-.155-.003-.376v-.522q0-.115.028-.223.029-.11.102-.192.073-.084.197-.135.127-.05.322-.05.138 0 .268.03.133.031.235.107.1.077.163.206.062.13.062.325 0 .26-.113.404-.11.14-.304.2l.378.52q.05.067.05.138 0 .056-.04.087-.036.034-.092.034-.062 0-.107-.034-.045-.037-.085-.093zm.444-.657q0-.195-.118-.288-.116-.096-.37-.096-.093 0-.155.017-.062.014-.1.056-.036.042-.053.119-.014.073-.014.189v.192q0 .11.003.2.065.003.144.003h.152q.08 0 .167-.008.09-.011.166-.05.076-.043.127-.12.05-.078.05-.214zm1.288 1.379q-.17 0-.32-.067-.146-.068-.256-.195-.11-.13-.175-.316-.062-.186-.062-.423 0-.223.053-.41.057-.186.164-.321.11-.136.27-.209.16-.076.374-.076.172 0 .327.062.155.062.27.186.12.124.187.31.068.187.068.435 0 .206-.057.393-.053.186-.166.327-.11.138-.28.223-.17.082-.397.082zm.005-.265q.155 0 .27-.062.117-.065.193-.169.076-.104.113-.24.037-.138.037-.282 0-.175-.048-.31-.046-.139-.125-.232-.08-.093-.183-.141-.104-.05-.223-.05-.141 0-.248.058-.105.06-.178.161-.07.102-.107.24-.037.136-.037.29 0 .167.042.306.043.135.113.231.074.096.172.15.1.05.21.05zm1.695.237q-.158 0-.254-.025t-.15-.07q-.05-.048-.07-.116-.017-.068-.026-.153-.008-.098-.014-.26-.003-.163-.003-.338v-.178q.003-.096.003-.186l.006-.172q.003-.08.008-.136.009-.087.029-.158.02-.07.073-.12.056-.052.155-.077.102-.028.268-.028.378 0 .565.14.189.14.189.396 0 .133-.06.245-.056.113-.197.17.079.014.144.06.065.044.11.11.048.061.07.14.026.076.026.155 0 .102-.042.21-.043.104-.144.191-.102.088-.271.144-.167.057-.415.057zm.59-.61q0-.1-.048-.163-.045-.062-.12-.093-.072-.034-.162-.045-.09-.011-.181-.011h-.147q-.076 0-.14.003l-.007.12-.005.12v.152q0 .076.01.127.012.05.043.082.032.03.088.045.06.011.15.011.248 0 .383-.087.136-.088.136-.26zm-.522-1.14q-.093 0-.153.018-.056.014-.087.04-.028.025-.04.061-.008.037-.008.08v.394q.04.003.082.003h.084q.102 0 .198-.014.099-.014.178-.048.079-.034.127-.093.048-.06.048-.152 0-.127-.105-.206-.101-.082-.324-.082zm1.69 1.576q-.005-.102-.008-.212 0-.11-.003-.237t-.003-.274v-.333q0-.2.003-.341.003-.144.017-.235.014-.09.042-.132.03-.043.082-.043.025 0 .048.006t.04.026q.016.017.028.053.014.034.017.09l.008.181.006.158q.003.076.003.161v.429q0 .116-.003.229l-.006.228-.008.243q-.003.068-.014.104-.012.037-.03.057-.016.02-.04.022-.021.006-.05.006-.05 0-.086-.033-.037-.037-.043-.153zm1.765.042q-.09-.124-.173-.246l-.172-.27q-.09-.147-.21-.325-.114-.18-.28-.42v.38l-.001.31-.005.272q-.003.127-.01.254-.002.067-.013.104-.01.037-.025.057-.017.02-.04.022-.02.006-.048.006-.05 0-.085-.034-.034-.036-.04-.152-.013-.31-.016-.621v-.646q0-.19.003-.297.005-.107.02-.16.016-.054.042-.068.028-.014.073-.014t.119.07q.073.068.16.18.088.114.187.26.1.147.2.302.099.156.19.308l.169.277q-.003-.133-.003-.291v-.356q0-.223.003-.367.002-.146.014-.23.014-.086.042-.12.028-.033.08-.033.047 0 .084.03.036.032.042.145l.009.18.005.158q.003.076.003.161v.429q0 .116-.003.229l-.005.228q-.003.116-.01.243-.002.068-.013.104-.008.037-.025.057-.017.02-.04.022-.02.006-.048.006-.048 0-.082-.028t-.098-.115z" font-size="2.822" aria-label="PROB IN" word-spacing="0" letter-spacing="0" font-weight="400" font-family="Sniglet" fill="#fff"/></g></g><rect rx=".99" ry=".99" y="77.734" x="4.965" height="3.043" width="5.745" fill="#333" stroke="#8c8c8c" stroke-width=".132" paint-order="stroke markers fill"/><path word-spacing="0" letter-spacing="0" font-size="3.528" font-weight="400" d="M8.163 78.788l.11-.092a.145.145 0 0 0 .006-.205.235.235 0 0 0-.05-.038.116.116 0 0 0-.056-.014.192.192 0 0 0-.077.02.658.658 0 0 0-.117.065l-.398.243a3.1 3.1 0 0 0-.29.19.902.902 0 0 0-.18.16.244.244 0 0 0-.06.154c.002.06.024.116.064.16a.9.9 0 0 0 .18.158c.078.056.174.12.29.19l.394.24c.048.03.086.053.117.067.03.012.056.018.077.018.022 0 .04-.005.057-.014a.223.223 0 0 0 .05-.04.15.15 0 0 0 .038-.098.134.134 0 0 0-.046-.102 2.423 2.423 0 0 0-.11-.095c-.3-.315-.287-.754 0-.967z" style="line-height:1.25;-inkscape-font-specification:'Sniglet, Normal';font-variant-ligatures:normal;font-variant-caps:normal;font-variant-numeric:normal;font-feature-settings:normal;text-align:start" font-family="Sniglet" fill="#fff"/></svg>