<?xml version="1.0" encoding="UTF-8" standalone="no"?>
<svg
   xmlns:dc="http://purl.org/dc/elements/1.1/"
   xmlns:cc="http://creativecommons.org/ns#"
   xmlns:rdf="http://www.w3.org/1999/02/22-rdf-syntax-ns#"
   xmlns:svg="http://www.w3.org/2000/svg"
   xmlns="http://www.w3.org/2000/svg"
   xmlns:sodipodi="http://sodipodi.sourceforge.net/DTD/sodipodi-0.dtd"
   xmlns:inkscape="http://www.inkscape.org/namespaces/inkscape"
   width="60"
   height="380"
   viewBox="0 0 15.875059 100.542"
   version="1.1"
   id="svg154"
   sodipodi:docname="Hotkey.svg"
   inkscape:version="0.92.4 (5da689c313, 2019-01-14)">
  <metadata
     id="metadata160">
    <rdf:RDF>
      <cc:Work
         rdf:about="">
        <dc:format>image/svg+xml</dc:format>
        <dc:type
           rdf:resource="http://purl.org/dc/dcmitype/StillImage" />
        <dc:title></dc:title>
      </cc:Work>
    </rdf:RDF>
  </metadata>
  <defs
     id="defs158" />
  <sodipodi:namedview
     pagecolor="#ffffff"
     bordercolor="#666666"
     borderopacity="1"
     objecttolerance="10"
     gridtolerance="10"
     guidetolerance="10"
     inkscape:pageopacity="0"
     inkscape:pageshadow="2"
     inkscape:window-width="1920"
     inkscape:window-height="1017"
     id="namedview156"
     showgrid="false"
     showguides="true"
     inkscape:guide-bbox="true"
     inkscape:zoom="4.968421"
     inkscape:cx="-30.875486"
     inkscape:cy="140.99267"
     inkscape:window-x="-8"
     inkscape:window-y="-8"
     inkscape:window-maximized="1"
     inkscape:current-layer="svg154">
    <sodipodi:guide
       position="7.9375279,104.64514"
       orientation="1,0"
       id="guide4757"
       inkscape:locked="false"
       inkscape:label=""
       inkscape:color="rgb(0,0,255)" />
  </sodipodi:namedview>
  <path
     style="fill:#dcdcdc;stroke-width:1"
     inkscape:connector-curvature="0"
     id="path2"
     d="M 0,0 H 15.875055 V 100.541 H 0 Z m 0,0" />
  <g
     style="font-weight:400;line-height:1.25;letter-spacing:0;word-spacing:0;fill:#333333"
     id="g6"
     transform="translate(-60.409816,-162.89451)">
    <path
       style="font-size:3.52800012px;font-family:Arial;-inkscape-font-specification:'Arial, Normal';font-variant-ligatures:normal;font-variant-caps:normal;font-variant-numeric:normal;font-feature-settings:normal;text-align:start"
       d="m 68.733,258.177 -1.631,0.115 v -2.06 q 0,-0.23 0.065,-0.333 0.064,-0.104 0.22,-0.147 0.153,-0.043 0.348,-0.002 0.223,0.047 0.356,0.19 0.134,0.146 0.134,0.33 0,0.186 -0.158,0.286 -0.158,0.103 -0.408,0.05 -0.082,-0.018 -0.143,-0.044 -0.064,-0.027 -0.205,-0.11 v 1.345 l 1.219,-0.085 v -1.554 q 0,-0.225 0.065,-0.337 0.066,-0.11 0.226,-0.151 0.16,-0.04 0.348,0 0.223,0.047 0.354,0.19 0.13,0.14 0.13,0.325 0,0.195 -0.156,0.294 -0.156,0.1 -0.408,0.047 -0.16,-0.034 -0.356,-0.16 z"
       font-size="3.528"
       aria-label="♫"
       id="path4"
       inkscape:connector-curvature="0" />
  </g>
  <rect
     style="fill:#999999;stroke-width:0.99999994;paint-order:stroke markers fill"
     id="rect18"
     rx="2.3399999"
     ry="2.3399999"
     y="67.726555"
     x="2.977772"
     height="13.601772"
     width="9.9108057" />
  <g
     aria-label="HK"
     style="font-style:normal;font-weight:normal;font-size:10.58337021px;line-height:1.25;font-family:sans-serif;letter-spacing:0px;word-spacing:0px;fill:#000000;fill-opacity:1;stroke:none;stroke-width:0.26458427"
     id="text4755"
     transform="translate(0,-1.5102055)">
    <path
       d="M 7.300865,8.9043176 Q 7.292395,8.6757168 7.283932,8.4259493 7.279702,8.1719484 7.279702,7.8417472 q -0.1354672,0.00423 -0.2878677,0.00847 -0.1524006,0 -0.3132678,0 -0.1905007,0 -0.3471346,0 -0.1566339,0 -0.279401,-0.00423 -0.00423,0.266701 -0.00847,0.5164685 -0.00423,0.2455343 -0.016933,0.5376353 -0.00423,0.1016004 -0.021167,0.1566339 -0.0127,0.055033 -0.0381,0.084667 -0.0254,0.029633 -0.059267,0.033867 -0.029634,0.00847 -0.071967,0.00847 -0.0762,0 -0.1270005,-0.0508 -0.0508,-0.055034 -0.059267,-0.2286009 -0.00847,-0.1524005 -0.0127,-0.3175011 0,-0.1651006 -0.00423,-0.3556012 -0.00423,-0.1905007 -0.00423,-0.4106348 0,-0.2243675 0,-0.4995351 0,-0.3005678 0.00423,-0.5122352 0.00423,-0.2159008 0.021167,-0.3513679 0.021167,-0.1354672 0.0635,-0.1989674 0.042333,-0.0635 0.1185338,-0.0635 0.071967,0 0.1270004,0.046567 0.055034,0.046567 0.0635,0.2159008 0.00847,0.1439338 0.0127,0.2624676 0.00423,0.1143004 0.00847,0.2286008 0.00423,0.1100671 0.00423,0.2286008 0,0.1185338 0,0.2624676 0.3175012,-0.0127 0.6223022,-0.0127 0.1481672,0 0.2963344,0.00423 0.1524006,0.00423 0.3090345,0.0127 V 7.3210454 q 0,-0.3005678 0.00423,-0.5122352 0.00423,-0.2159008 0.021167,-0.3513679 0.021167,-0.1354672 0.0635,-0.1989674 0.042333,-0.0635 0.1185337,-0.0635 0.071967,0 0.1270005,0.046567 0.055033,0.046567 0.0635,0.2159008 0.00847,0.1524005 0.0127,0.2709343 0.00423,0.1185337 0.00847,0.2370675 0.00423,0.1143004 0.00423,0.2413008 0,0.1227671 0,0.279401 0,0.1905007 0,0.364068 0,0.1735673 -0.00423,0.3429012 -0.00423,0.1693339 -0.00847,0.3429012 -0.00423,0.1735673 -0.0127,0.364068 -0.00423,0.1016004 -0.021167,0.1566339 -0.0127,0.055033 -0.0381,0.084667 -0.0254,0.029633 -0.059267,0.033867 -0.029633,0.00847 -0.071967,0.00847 -0.0762,0 -0.1270004,-0.0508 -0.0508,-0.055034 -0.059267,-0.2286009 z"
       style="font-style:normal;font-variant:normal;font-weight:normal;font-stretch:normal;font-size:4.23334837px;font-family:Sniglet;-inkscape-font-specification:'Sniglet, Normal';font-variant-ligatures:normal;font-variant-caps:normal;font-variant-numeric:normal;font-feature-settings:normal;text-align:start;writing-mode:lr-tb;text-anchor:start;stroke-width:0.26458427"
       id="path824"
       inkscape:connector-curvature="0" />
    <path
       d="m 8.2295558,8.9043176 q -0.00847,-0.1524005 -0.0127,-0.3175011 0,-0.1651006 -0.00423,-0.3556012 -0.00423,-0.1905007 -0.00423,-0.4106348 0,-0.2243675 0,-0.4995351 0,-0.3005678 0.00423,-0.5122352 0.00423,-0.2159008 0.021167,-0.3513679 0.021167,-0.1354672 0.0635,-0.1989674 0.042333,-0.0635 0.1185337,-0.0635 0.071967,0 0.1270005,0.046567 0.055034,0.046567 0.0635,0.2159008 0.00847,0.1524005 0.0127,0.2709343 0.00423,0.1185337 0.00847,0.2370675 0.00423,0.1143004 0.00423,0.2413008 0,0.1227671 0,0.279401 V 7.7062801 L 9.5376604,6.6691097 Q 9.7154611,6.465909 9.8128281,6.4024088 q 0.097367,-0.067734 0.1693339,-0.067734 0.084667,0 0.122767,0.042333 0.04233,0.042333 0.04233,0.1058337 0,0.0254 -0.0085,0.0508 -0.0085,0.0254 -0.0381,0.071967 -0.0254,0.042333 -0.08043,0.110067 -0.055033,0.0635 -0.148167,0.1651006 L 9.2836595,7.5200127 10.210763,8.8408174 q 0.03387,0.046567 0.0508,0.097367 0.02117,0.0508 0.02117,0.097367 0,0.080434 -0.04657,0.1312338 -0.04233,0.055034 -0.152401,0.055034 -0.0889,0 -0.1608669,-0.0508 Q 9.8551616,9.1244518 9.7958947,9.0313181 L 8.9915585,7.8417472 8.6274905,8.2396819 q -0.00423,0.1608673 -0.00847,0.3217345 -0.00423,0.1608673 -0.0127,0.3386679 -0.00423,0.1016004 -0.021167,0.1566339 -0.0127,0.055033 -0.0381,0.084667 -0.0254,0.029633 -0.059267,0.033867 -0.029633,0.00847 -0.071967,0.00847 -0.0762,0 -0.1270004,-0.0508 -0.0508,-0.055034 -0.059267,-0.2286009 z"
       style="font-style:normal;font-variant:normal;font-weight:normal;font-stretch:normal;font-size:4.23334837px;font-family:Sniglet;-inkscape-font-specification:'Sniglet, Normal';font-variant-ligatures:normal;font-variant-caps:normal;font-variant-numeric:normal;font-feature-settings:normal;text-align:start;writing-mode:lr-tb;text-anchor:start;stroke-width:0.26458427"
       id="path826"
       inkscape:connector-curvature="0" />
  </g>
  <g
     aria-label="TRIG"
     style="font-style:normal;font-weight:normal;font-size:10.58337021px;line-height:1.25;font-family:sans-serif;letter-spacing:0px;word-spacing:0px;fill:#000000;fill-opacity:1;stroke:none;stroke-width:0.26458427"
     id="text822"
     transform="translate(-0.21301276,-3.1750111)">
    <path
       d="m 6.5350012,72.768366 q -0.079022,0.0056 -0.1693339,0.0085 -0.087489,0.0028 -0.1947341,0.0056 0.00282,0.0762 0.00564,0.143934 0.00282,0.06491 0.00564,0.132645 0.00282,0.06773 0.00282,0.141112 0.00282,0.07338 0.00282,0.163689 0,0.127001 0,0.245534 0,0.115712 -0.00282,0.234246 -0.00282,0.115711 -0.00564,0.234245 -0.00282,0.118534 -0.00847,0.245534 -0.00282,0.06773 -0.014111,0.104423 -0.00847,0.03669 -0.0254,0.05644 -0.016933,0.01976 -0.039511,0.02258 -0.022578,0.0056 -0.0508,0.0056 -0.0508,0 -0.087489,-0.03387 -0.033867,-0.03669 -0.039511,-0.152401 -0.00564,-0.1016 -0.00847,-0.214489 0,-0.112889 -0.00282,-0.242712 -0.00282,-0.129823 -0.00282,-0.279401 0,-0.152401 0,-0.335846 0,-0.155223 0,-0.270934 0.00282,-0.115712 0.00847,-0.200379 H 5.7927541 q -0.1185337,0 -0.2032007,-0.0028 -0.081845,-0.0028 -0.1354671,-0.01411 -0.053623,-0.01411 -0.079022,-0.04233 -0.022578,-0.02822 -0.022578,-0.07902 0,-0.0254 0.00564,-0.04516 0.00564,-0.02258 0.0254,-0.03951 0.019756,-0.01976 0.053623,-0.03104 0.036689,-0.01129 0.093134,-0.01693 0.053622,-0.0028 0.095956,-0.0056 0.042333,-0.0028 0.084667,-0.0056 0.042333,-0.0028 0.087489,-0.0028 0.045156,0 0.1044226,0 0.1665117,0 0.3132678,0.0028 0.1495783,0.0028 0.31609,0.01129 0.067734,0.0056 0.1044226,0.01693 0.036689,0.0085 0.056445,0.0254 0.019756,0.01693 0.022578,0.03951 0.00564,0.02258 0.00564,0.0508 0,0.0508 -0.036689,0.08467 -0.033867,0.03387 -0.1495783,0.03951 z"
       style="font-style:normal;font-variant:normal;font-weight:normal;font-stretch:normal;font-size:2.82223225px;font-family:Sniglet;-inkscape-font-specification:'Sniglet, Normal';font-variant-ligatures:normal;font-variant-caps:normal;font-variant-numeric:normal;font-feature-settings:normal;text-align:start;writing-mode:lr-tb;text-anchor:start;stroke-width:0.26458427"
       id="path829"
       inkscape:connector-curvature="0" />
    <path
       d="m 7.5718629,73.790014 q -0.039511,0.0028 -0.081845,0.0056 -0.039511,0 -0.081845,0 -0.047978,0 -0.095956,0 -0.047978,0 -0.1072448,-0.0056 v 0.572913 q 0,0.09031 -0.045156,0.11289 -0.042334,0.01975 -0.1072448,0.01975 -0.033867,0 -0.053623,-0.0056 -0.019756,-0.0028 -0.033867,-0.01411 -0.011289,-0.01411 -0.019756,-0.03951 -0.00564,-0.0254 -0.00847,-0.07055 -0.00564,-0.0508 -0.00847,-0.146756 -0.00282,-0.09878 -0.00564,-0.254001 0,-0.155223 -0.00282,-0.375357 0,-0.222957 0,-0.522113 0,-0.115712 0.028222,-0.222956 0.028222,-0.110068 0.1016003,-0.191912 0.073378,-0.08467 0.1975563,-0.135467 0.1270004,-0.0508 0.3217345,-0.0508 0.1382893,0 0.268112,0.03105 0.1326449,0.03104 0.2342453,0.107245 0.1016004,0.0762 0.1636895,0.206023 0.062089,0.129822 0.062089,0.324556 0,0.259646 -0.1128893,0.40358 Q 8.0742178,73.68 7.8794838,73.739267 l 0.3781791,0.519291 q 0.0508,0.06773 0.0508,0.138289 0,0.05644 -0.039511,0.08749 -0.036689,0.03387 -0.093134,0.03387 -0.062089,0 -0.1072448,-0.03387 -0.045156,-0.03669 -0.084667,-0.09313 z m 0.4430905,-0.65758 q 0,-0.194734 -0.1185338,-0.287867 -0.1157115,-0.09596 -0.3697124,-0.09596 -0.093134,0 -0.1552228,0.01693 -0.062089,0.01411 -0.098778,0.05644 -0.036689,0.04233 -0.053622,0.118533 -0.014111,0.07338 -0.014111,0.18909 0,0.08185 0,0.191912 0,0.110067 0.00282,0.200378 0.064911,0.0028 0.1439339,0.0028 0.081845,0 0.1524005,0 0.079023,0 0.1665117,-0.0085 0.090311,-0.01129 0.1665117,-0.0508 0.0762,-0.04233 0.1270005,-0.118534 0.0508,-0.07902 0.0508,-0.21449 z"
       style="font-style:normal;font-variant:normal;font-weight:normal;font-stretch:normal;font-size:2.82223225px;font-family:Sniglet;-inkscape-font-specification:'Sniglet, Normal';font-variant-ligatures:normal;font-variant-caps:normal;font-variant-numeric:normal;font-feature-settings:normal;text-align:start;writing-mode:lr-tb;text-anchor:start;stroke-width:0.26458427"
       id="path831"
       inkscape:connector-curvature="0" />
    <path
       d="m 8.5883516,74.309305 q -0.00564,-0.1016 -0.00847,-0.211667 0,-0.110067 -0.00282,-0.237068 -0.00282,-0.127 -0.00282,-0.273756 0,-0.149579 0,-0.333024 0,-0.200378 0.00282,-0.34149 0.00282,-0.143934 0.016933,-0.234245 0.014111,-0.09031 0.042333,-0.132645 0.031045,-0.04233 0.081845,-0.04233 0.0254,0 0.047978,0.0056 0.022578,0.0056 0.039511,0.0254 0.016933,0.01693 0.028222,0.05362 0.014111,0.03387 0.016933,0.09031 0.00564,0.1016 0.00847,0.180623 0.00282,0.07902 0.00564,0.158045 0.00282,0.0762 0.00282,0.160867 0,0.08185 0,0.186267 0,0.127001 0,0.242712 0,0.115712 -0.00282,0.228601 -0.00282,0.112889 -0.00564,0.228601 -0.00282,0.115711 -0.00847,0.242712 -0.00282,0.06773 -0.014111,0.104422 -0.011289,0.03669 -0.028222,0.05644 -0.016933,0.01976 -0.039511,0.02258 -0.022578,0.0056 -0.0508,0.0056 -0.0508,0 -0.087489,-0.03387 -0.036689,-0.03669 -0.042334,-0.152401 z"
       style="font-style:normal;font-variant:normal;font-weight:normal;font-stretch:normal;font-size:2.82223225px;font-family:Sniglet;-inkscape-font-specification:'Sniglet, Normal';font-variant-ligatures:normal;font-variant-caps:normal;font-variant-numeric:normal;font-feature-settings:normal;text-align:start;writing-mode:lr-tb;text-anchor:start;stroke-width:0.26458427"
       id="path833"
       inkscape:connector-curvature="0" />
    <path
       d="m 10.095821,72.486143 q 0.09313,0 0.191911,0.01693 0.09878,0.01693 0.180623,0.0508 0.08184,0.03104 0.135467,0.07902 0.05362,0.04798 0.05362,0.110067 0,0.06491 -0.03387,0.09878 -0.03387,0.03387 -0.08467,0.03387 -0.04798,0 -0.09031,-0.01693 -0.03951,-0.01693 -0.09031,-0.03669 -0.0508,-0.01976 -0.121356,-0.03669 -0.07056,-0.01693 -0.1778,-0.01693 -0.1185342,0 -0.2229568,0.05644 -0.1016004,0.05362 -0.1806229,0.1524 -0.079023,0.09596 -0.1241782,0.228601 -0.045156,0.132645 -0.045156,0.287868 0,0.189089 0.047978,0.327379 0.047978,0.138289 0.1241782,0.228601 0.079023,0.09031 0.1749784,0.135467 0.098778,0.04233 0.1975563,0.04233 0.160867,0 0.254001,-0.04515 0.09596,-0.04798 0.152401,-0.121356 0.0028,-0.05927 0.0028,-0.141112 0,-0.08185 0,-0.177801 0,-0.03669 -0.0056,-0.05644 -0.0056,-0.02258 -0.02822,-0.03387 -0.02258,-0.01129 -0.06773,-0.01411 -0.04233,-0.0028 -0.115712,-0.0028 -0.09031,0 -0.146756,-0.02258 -0.05645,-0.0254 -0.05645,-0.104423 0,-0.05644 0.02822,-0.09031 0.03104,-0.03669 0.124178,-0.04233 0.01693,0 0.05362,0 0.03951,-0.0028 0.08184,-0.0028 0.04516,0 0.08749,0 0.04233,0 0.06773,0 0.08467,0 0.135467,0.01693 0.0508,0.01411 0.09031,0.06773 0.01976,0.02822 0.02258,0.09878 0.0056,0.07056 0.0056,0.16369 v 0.728135 q 0,0.0762 -0.04233,0.11289 -0.03951,0.03669 -0.09313,0.03669 -0.06491,0 -0.107244,-0.03387 -0.03951,-0.03104 -0.03951,-0.1016 v -0.110067 q -0.07338,0.08467 -0.174978,0.121356 -0.09878,0.03669 -0.251179,0.03669 -0.1552226,0 -0.3048009,-0.06209 -0.1495783,-0.06209 -0.2652899,-0.183445 -0.1157115,-0.124178 -0.1890895,-0.307623 -0.070556,-0.186267 -0.070556,-0.431802 0,-0.245534 0.070556,-0.437446 0.073378,-0.191911 0.1975562,-0.324556 0.1241782,-0.135467 0.29069,-0.206023 0.1665117,-0.07056 0.3584241,-0.07056 z"
       style="font-style:normal;font-variant:normal;font-weight:normal;font-stretch:normal;font-size:2.82223225px;font-family:Sniglet;-inkscape-font-specification:'Sniglet, Normal';font-variant-ligatures:normal;font-variant-caps:normal;font-variant-numeric:normal;font-feature-settings:normal;text-align:start;writing-mode:lr-tb;text-anchor:start;stroke-width:0.26458427"
       id="path835"
       inkscape:connector-curvature="0" />
  </g>
</svg>
