<svg xmlns="http://www.w3.org/2000/svg" width="45" height="380" viewBox="0 0 11.906 100.542"><path d="M0 0h11.906v100.541H0zm0 0" fill="#dcdcdc"/><g style="line-height:1.25"><path style="-inkscape-font-specification:'Arial, Normal';font-variant-ligatures:normal;font-variant-caps:normal;font-variant-numeric:normal;font-feature-settings:normal;text-align:start" d="M6.339 95.282l-1.631.115v-2.06q0-.23.065-.333.064-.104.22-.147.153-.043.348-.002.223.047.356.19.134.146.134.33 0 .186-.158.286-.158.103-.408.05-.082-.018-.143-.044-.064-.027-.205-.11v1.345l1.219-.085v-1.554q0-.225.065-.337.066-.11.226-.15.16-.04.348 0 .223.046.354.19.13.14.13.324 0 .195-.156.294-.156.1-.408.047-.16-.034-.356-.16z" font-size="3.528" aria-label="♫" font-family="Arial" font-weight="400" letter-spacing="0" word-spacing="0" fill="#333"/></g><rect rx="2.34" ry="2.34" y="67.727" x=".994" height="13.602" width="9.911" fill="#999" paint-order="stroke markers fill"/><g aria-label="HK" style="line-height:1.25" font-weight="400" font-size="4.233" font-family="Sniglet" letter-spacing="0" word-spacing="0" stroke-width=".265"><path d="M5.317 7.394L5.3 6.916q-.005-.254-.005-.584l-.287.008h-.661q-.157 0-.28-.004l-.008.516q-.004.246-.017.538-.004.101-.02.157-.014.055-.039.084-.025.03-.06.034-.029.009-.071.009-.076 0-.127-.051-.051-.055-.06-.229-.008-.152-.012-.317 0-.165-.004-.356-.005-.19-.005-.41v-.5q0-.3.005-.512.004-.216.02-.352.022-.135.064-.199.043-.063.119-.063.072 0 .127.046.055.047.063.216.009.144.013.263l.008.228q.005.11.005.229v.262q.317-.012.622-.012.148 0 .296.004.153.004.31.013V5.81q0-.3.004-.512.004-.216.02-.352.022-.135.064-.199.043-.063.119-.063.072 0 .127.046.055.047.063.216.009.153.013.271l.008.237q.005.115.005.242v.643q0 .174-.005.343l-.008.343q-.004.173-.013.364-.004.101-.02.157-.014.055-.039.084-.025.03-.06.034-.029.009-.071.009-.076 0-.127-.051-.051-.055-.06-.229zM6.245 7.394q-.008-.152-.012-.317 0-.165-.005-.356-.004-.19-.004-.41v-.5q0-.3.004-.512.005-.216.021-.352.022-.135.064-.199.042-.063.119-.063.071 0 .127.046.055.047.063.216l.013.271.008.237q.004.115.004.242v.499l.906-1.037q.178-.203.276-.267.097-.068.169-.068.085 0 .123.043.042.042.042.106 0 .025-.009.05-.008.026-.038.072-.025.043-.08.11-.055.064-.148.166l-.589.639.927 1.32q.034.047.051.098.021.05.021.097 0 .08-.046.132-.042.055-.153.055-.088 0-.16-.051-.068-.047-.127-.14l-.805-1.19-.364.398-.008.322q-.005.161-.013.339-.004.101-.021.157-.013.055-.038.084-.026.03-.06.034-.03.009-.071.009-.077 0-.127-.051-.051-.055-.06-.229z" style="-inkscape-font-specification:'Sniglet, Normal';font-variant-ligatures:normal;font-variant-caps:normal;font-variant-numeric:normal;font-feature-settings:normal;text-align:start"/></g><g aria-label="TRIG" style="line-height:1.25" font-weight="400" font-size="2.822" font-family="Sniglet" letter-spacing="0" word-spacing="0" stroke-width=".265"><path d="M4.338 69.593q-.08.006-.17.009l-.194.005.005.144.006.133q.003.068.003.141.003.074.003.164v.245q0 .116-.003.235l-.006.234-.008.245q-.003.068-.014.105-.009.037-.026.056-.017.02-.04.023-.022.005-.05.005-.051 0-.088-.033-.034-.037-.04-.153-.005-.101-.008-.214l-.002-.243q-.003-.13-.003-.28v-.335-.271q.003-.116.008-.2h-.116q-.118 0-.203-.003-.082-.003-.135-.015-.054-.014-.08-.042-.022-.028-.022-.079 0-.025.006-.045.005-.023.025-.04.02-.02.054-.03.037-.012.093-.017l.096-.006.085-.006q.042-.002.087-.002h.105q.166 0 .313.002.15.003.316.012.068.005.104.017.037.008.057.025.02.017.022.04.006.022.006.05 0 .051-.037.085-.034.034-.15.04zM5.375 70.615l-.082.006h-.178q-.048 0-.107-.006v.573q0 .09-.045.113-.043.02-.108.02-.034 0-.053-.006-.02-.003-.034-.014-.011-.014-.02-.04-.006-.025-.008-.07-.006-.051-.009-.147l-.006-.254-.002-.375v-.522q0-.116.028-.223.028-.11.101-.192.074-.085.198-.136.127-.05.322-.05.138 0 .268.03.133.032.234.108.102.076.164.206.062.13.062.324 0 .26-.113.404-.11.141-.305.2l.378.52q.051.067.051.138 0 .056-.04.087-.036.034-.092.034-.063 0-.108-.034-.045-.036-.084-.093zm.443-.658q0-.194-.119-.287-.116-.096-.37-.096-.093 0-.155.017-.062.014-.099.056-.036.042-.053.118-.014.074-.014.19v.192q0 .11.003.2.064.003.143.003h.153q.079 0 .166-.009.09-.011.167-.05.076-.043.127-.12.05-.078.05-.214zM6.391 71.134q-.006-.101-.008-.211 0-.11-.003-.237t-.003-.274v-.333q0-.2.003-.342.003-.144.017-.234.014-.09.042-.133.031-.042.082-.042.025 0 .048.006.022.005.04.025.016.017.028.054.014.034.017.09l.008.18.006.159q.002.076.002.16v.43q0 .115-.002.228l-.006.229-.008.242q-.003.068-.015.105-.01.037-.028.056-.017.02-.04.023-.022.005-.05.005-.05 0-.088-.033-.036-.037-.042-.153zM7.899 69.311q.093 0 .191.017.1.017.181.05.082.032.136.08.053.048.053.11 0 .065-.034.099t-.084.034q-.048 0-.09-.017l-.091-.037q-.05-.02-.121-.037-.07-.017-.178-.017-.119 0-.223.057-.102.053-.18.152-.08.096-.125.229-.045.132-.045.288 0 .189.048.327t.124.229q.08.09.175.135.099.042.198.042.16 0 .254-.045.096-.048.152-.121.003-.06.003-.141v-.178q0-.037-.006-.056-.005-.023-.028-.034-.023-.012-.068-.014-.042-.003-.115-.003-.09 0-.147-.023-.057-.025-.057-.104 0-.057.029-.09.03-.037.124-.043h.053q.04-.003.082-.003h.155q.085 0 .136.017.05.014.09.068.02.028.023.099.005.07.005.163v.729q0 .076-.042.113-.04.036-.093.036-.065 0-.107-.034-.04-.03-.04-.101v-.11q-.073.084-.175.121-.099.037-.251.037-.155 0-.305-.062t-.265-.184q-.116-.124-.19-.307-.07-.187-.07-.432 0-.246.07-.438.074-.192.198-.324.125-.136.291-.206.167-.07.359-.07z" style="-inkscape-font-specification:'Sniglet, Normal';font-variant-ligatures:normal;font-variant-caps:normal;font-variant-numeric:normal;font-feature-settings:normal;text-align:start"/></g><g aria-label="DELAY" style="line-height:1.25" font-weight="400" font-size="2.822" font-family="Sniglet" letter-spacing="0" word-spacing="0" stroke-width=".265"><path d="M2.758 51.172q.29 0 .465.087.175.088.268.231.094.144.122.328.03.183.03.372 0 .206-.053.39-.05.183-.16.322-.108.135-.277.217-.17.079-.404.079-.186 0-.299-.028-.11-.026-.172-.08-.06-.053-.08-.135-.019-.082-.019-.192v-1.06q0-.122.02-.221.022-.099.084-.167.063-.07.175-.107.116-.036.3-.036zm.01 1.744q.176 0 .289-.062.115-.065.183-.17.068-.104.093-.237.029-.132.029-.27 0-.128-.02-.255-.02-.13-.082-.234-.062-.104-.178-.17-.116-.064-.307-.064-.175 0-.243.05-.068.051-.068.156v1.08q0 .088.062.133.065.043.243.043zM3.943 52.738q-.005-.09-.01-.246-.007-.155-.007-.319v-.191l.006-.206q.006-.21.025-.328.023-.118.085-.178.065-.059.18-.073.116-.014.308-.014h.06q.059 0 .14.003l.17.002.15.006q.062.006.098.017.04.008.06.025.02.014.025.037.006.02.006.045 0 .065-.037.096-.037.028-.15.037-.056.005-.166.008h-.22q-.113 0-.203.003H4.35q-.074.003-.105.034-.028.028-.028.138l.003.124q.006.096.006.271h.234q.15 0 .243.006.095.003.146.017.054.014.074.045.02.031.02.082 0 .025-.006.048-.003.02-.023.037-.02.014-.056.025-.037.009-.105.014-.082.006-.155.009H4.22v.344l.006.096q.002.045.01.076.012.031.038.05.028.02.079.03.053.008.14.008H5.1q.1 0 .125.036.025.037.025.1 0 .05-.023.078-.022.026-.11.037-.084.014-.256.017-.17.003-.469.003-.127 0-.209-.023-.082-.023-.132-.076-.051-.054-.077-.139-.022-.087-.03-.211zM5.785 52.38v.16q0 .068-.003.13 0 .062-.003.124l-.005.139.305-.037.172-.023q.065-.008.099-.01.036-.004.084-.004.124 0 .124.122 0 .048-.05.081-.048.034-.125.06-.073.022-.166.04-.09.013-.178.019-.085.008-.155.011l-.096.003q-.102 0-.158-.014-.057-.011-.085-.073-.028-.065-.036-.195-.006-.13-.006-.367v-.406q0-.178.003-.32.003-.14.003-.25.002-.11.008-.2.006-.117.04-.15.033-.037.084-.037.028 0 .048.005.023.003.04.023t.025.056q.011.037.014.105.011.248.014.49.003.244.003.517zM7.964 53.023l-.062-.155q-.03-.09-.068-.19l-.177.006H7.247q-.098 0-.18-.003l-.065.187q-.031.087-.06.155-.056.144-.163.144-.04 0-.076-.026-.034-.025-.034-.073 0-.048.017-.124.017-.08.042-.167.028-.09.06-.183.03-.096.059-.178.028-.09.079-.228.053-.142.113-.294l.118-.3q.06-.149.107-.259l.029-.062q.016-.037.04-.068.024-.03.053-.053.03-.023.067-.023.037 0 .068.026.031.022.054.056.025.034.042.07.02.037.031.066l.102.26q.059.146.115.295.06.15.11.286.051.135.082.228l.057.175q.034.093.062.184.028.09.045.169.02.076.02.124t-.037.073q-.034.026-.073.026-.051 0-.093-.034-.043-.037-.074-.11zm-.5-.621q.068 0 .136.003.068 0 .136.003l-.068-.198-.065-.189q-.028-.09-.054-.167l-.04-.138q-.01-.037-.025-.06-.014-.022-.036-.022-.023 0-.037.026-.014.022-.025.059-.034.116-.096.302l-.127.387q.076-.003.152-.003.076-.003.15-.003zM8.808 52.992l-.01-.33q-.004-.178-.004-.41l-.561-.804q-.023-.03-.037-.065-.011-.034-.011-.065 0-.053.028-.087.031-.037.104-.037.06 0 .105.034.048.031.087.093l.42.669.421-.669q.04-.062.085-.093.048-.034.107-.034.074 0 .102.037.03.034.03.087 0 .031-.013.065-.012.034-.034.065l-.55.788q0 .191-.006.37-.003.174-.011.383-.003.068-.014.104-.009.037-.026.057-.017.02-.04.023-.02.005-.047.005-.051 0-.085-.034-.034-.036-.04-.152z" style="-inkscape-font-specification:'Sniglet, Normal';font-variant-ligatures:normal;font-variant-caps:normal;font-variant-numeric:normal;font-feature-settings:normal;text-align:start"/></g><g aria-label="SET" style="line-height:1.25" font-weight="400" font-size="2.822" font-family="Sniglet" letter-spacing="0" word-spacing="0" stroke-width=".265"><path d="M4.386 14.39q.08 0 .18.013.105.012.195.046.09.03.153.084.062.051.062.127 0 .045-.025.076-.026.031-.082.031-.043 0-.088-.016-.042-.017-.099-.034-.053-.02-.127-.037-.07-.017-.166-.017-.186 0-.277.068-.087.065-.087.18 0 .08.04.133.039.054.104.093.068.037.15.062.084.026.172.048.098.026.194.062.1.037.175.096.076.06.122.15.048.09.048.228 0 .144-.054.26-.054.113-.147.195-.093.079-.223.124-.13.042-.282.042-.085 0-.198-.017-.112-.014-.214-.05-.102-.04-.172-.102-.07-.065-.07-.158 0-.056.027-.09.032-.034.09-.034.049 0 .08.02.03.017.053.04.085.072.192.098.108.025.22.025.065 0 .136-.008.073-.012.133-.043.059-.03.098-.087.04-.06.04-.158 0-.09-.037-.147-.034-.06-.093-.099-.06-.04-.141-.065-.08-.025-.172-.05-.105-.029-.206-.062-.102-.034-.18-.09-.08-.06-.13-.147-.049-.09-.049-.23 0-.137.051-.242.051-.104.138-.175.088-.07.206-.107.122-.037.26-.037zM5.357 15.953q-.006-.09-.011-.246-.006-.155-.006-.319v-.192l.006-.206q.005-.208.025-.327.023-.118.085-.178.065-.059.18-.073.116-.014.308-.014h.06q.059 0 .14.003l.17.002.15.006q.061.006.098.017.04.008.06.025.02.014.025.037.005.02.005.045 0 .065-.036.096-.037.028-.15.037-.056.005-.166.008h-.22q-.113 0-.204.003h-.113q-.073.003-.104.034-.028.028-.028.138l.003.124q.005.096.005.271h.235q.15 0 .242.006.096.003.147.017.054.014.073.045.02.031.02.082 0 .025-.006.048-.002.02-.022.037-.02.014-.057.025-.036.008-.104.014-.082.006-.155.009h-.378V15.87q.002.06.005.097.003.045.012.076.01.031.036.05.028.02.08.03.053.008.14.008h.607q.099 0 .124.036.026.037.026.099 0 .05-.023.08-.022.024-.11.036-.085.014-.257.017-.17.002-.468.002-.127 0-.21-.022-.08-.023-.132-.076-.05-.054-.076-.139-.022-.087-.03-.211zM8.014 14.666q-.079.005-.169.008l-.195.006.006.144.006.133q.002.067.002.14.003.074.003.164v.246q0 .116-.003.234l-.005.234q-.003.119-.009.246-.002.068-.014.104-.008.037-.025.057-.017.02-.04.022-.022.006-.05.006-.051 0-.088-.034-.034-.037-.04-.152-.005-.102-.008-.215 0-.113-.003-.242-.003-.13-.003-.28v-.336-.27q.003-.116.009-.201h-.116q-.118 0-.203-.003-.082-.003-.135-.014-.054-.014-.08-.042-.022-.029-.022-.08 0-.025.006-.044.005-.023.025-.04.02-.02.054-.031.036-.011.093-.017l.096-.006.084-.005q.043-.003.088-.003h.104q.167 0 .314.003.15.003.316.011.067.006.104.017.037.009.057.025.02.017.022.04.006.023.006.05 0 .052-.037.085-.034.034-.15.04z" style="-inkscape-font-specification:'Sniglet, Normal';font-variant-ligatures:normal;font-variant-caps:normal;font-variant-numeric:normal;font-feature-settings:normal;text-align:start"/></g><g style="line-height:1.25"><path d="M2.421 62.774q0-.129.023-.264.026-.136.09-.246.063-.11.17-.18.11-.07.28-.07.133 0 .227.04.095.04.156.106.062.066.095.15.034.083.051.174.017.091.02.18.004.089.004.163 0 .148-.036.273-.034.123-.106.212-.07.089-.178.14-.106.048-.25.048-.15 0-.256-.057-.104-.06-.17-.157-.063-.099-.092-.23-.028-.134-.028-.282zm.212-.004q0 .104.017.199.019.093.059.165.04.07.104.112.065.043.158.043.09 0 .155-.036.068-.036.112-.1.045-.065.066-.154.02-.09.02-.193 0-.078-.005-.178-.007-.101-.04-.19-.032-.09-.102-.15-.07-.062-.195-.062-.106 0-.174.05-.065.052-.105.132-.04.078-.055.176-.015.095-.015.186z" style="-inkscape-font-specification:'Sniglet, Normal';font-variant-ligatures:normal;font-variant-caps:normal;font-variant-numeric:normal;font-feature-settings:normal;text-align:start" font-size="2.117" font-family="Sniglet" aria-label="0" font-weight="400" letter-spacing="0" word-spacing="0" stroke-width=".265"/></g><g aria-label="1 s" style="line-height:1.25" font-weight="400" font-size="2.117" font-family="Sniglet" letter-spacing="0" word-spacing="0" stroke-width=".265"><path d="M8.192 63.333q-.004-.076-.006-.159l-.002-.178q-.002-.095-.002-.205v-.514l-.127.065q-.053.034-.085.04-.03.007-.066.007-.031 0-.057-.028-.023-.027-.023-.065 0-.038.025-.066.028-.03.064-.053.046-.032.1-.063.054-.032.105-.057.051-.028.093-.043.045-.017.074-.017.015 0 .03.005.017.004.03.016.015.013.023.04.01.026.013.07l.006.134.004.112q.002.053.002.112v.32q0 .087-.002.171l-.004.172-.006.182q-.002.05-.01.078-.007.028-.02.042-.013.015-.03.017-.014.005-.036.005-.038 0-.063-.026-.025-.027-.03-.114zM9.466 62.36q.044 0 .112.008.068.006.129.027.061.02.106.055.044.036.044.091 0 .032-.019.055-.017.024-.055.024-.027 0-.063-.009l-.076-.019q-.04-.013-.09-.021-.046-.009-.099-.009-.089 0-.146.028-.055.028-.055.087 0 .034.02.057t.054.042q.036.017.083.03.048.013.101.025.066.017.13.038.065.022.116.06.05.036.082.093.032.055.032.137 0 .157-.118.25-.119.091-.35.091-.05 0-.12-.008-.07-.007-.132-.028-.06-.019-.105-.055-.043-.038-.043-.1 0-.042.02-.063.02-.023.05-.023.023 0 .049.015.025.015.061.031.036.017.087.032.05.015.125.015l.072-.002q.044-.004.087-.02.044-.014.074-.04.031-.027.031-.076 0-.038-.02-.063-.022-.028-.058-.047-.036-.019-.085-.031-.046-.015-.099-.03-.061-.017-.125-.038-.061-.021-.112-.055-.05-.034-.083-.085-.031-.053-.031-.129 0-.072.03-.133.029-.064.084-.11.055-.047.131-.072.078-.026.174-.026z" style="-inkscape-font-specification:'Sniglet, Normal';font-variant-ligatures:normal;font-variant-caps:normal;font-variant-numeric:normal;font-feature-settings:normal;text-align:start"/></g></svg>