<?xml version="1.0" encoding="UTF-8" standalone="no"?>
<svg
   width="15.24mm"
   height="128.5mm"
   viewBox="0 0 15.23968 128.50044"
   version="1.1"
   id="svg34"
   sodipodi:docname="Hotkey.svg"
   inkscape:version="1.1 (c68e22c387, 2021-05-23)"
   xmlns:inkscape="http://www.inkscape.org/namespaces/inkscape"
   xmlns:sodipodi="http://sodipodi.sourceforge.net/DTD/sodipodi-0.dtd"
   xmlns="http://www.w3.org/2000/svg"
   xmlns:svg="http://www.w3.org/2000/svg"
   xmlns:rdf="http://www.w3.org/1999/02/22-rdf-syntax-ns#"
   xmlns:cc="http://creativecommons.org/ns#"
   xmlns:dc="http://purl.org/dc/elements/1.1/">
  <metadata
     id="metadata40">
    <rdf:RDF>
      <cc:Work
         rdf:about="">
        <dc:format>image/svg+xml</dc:format>
        <dc:type
           rdf:resource="http://purl.org/dc/dcmitype/StillImage" />
        <dc:title />
      </cc:Work>
    </rdf:RDF>
  </metadata>
  <defs
     id="defs38" />
  <sodipodi:namedview
     pagecolor="#ffffff"
     bordercolor="#666666"
     borderopacity="1"
     objecttolerance="10"
     gridtolerance="10"
     guidetolerance="10"
     inkscape:pageopacity="0"
     inkscape:pageshadow="2"
     inkscape:window-width="1920"
     inkscape:window-height="1057"
     id="namedview36"
     showgrid="false"
     units="mm"
     inkscape:document-units="mm"
     inkscape:zoom="1.4142136"
     inkscape:cx="-200.46477"
     inkscape:cy="251.37646"
     inkscape:window-x="-8"
     inkscape:window-y="1072"
     inkscape:window-maximized="1"
     inkscape:current-layer="svg34"
     inkscape:pagecheckerboard="0" />
  <g
     style="line-height:1.25;stroke-width:0.78123093;fill:#232323;fill-opacity:1"
     id="g6"
     transform="matrix(1.2800313,0,0,1.2800313,0,-0.09759246)">
    <path
       style="font-weight:400;font-size:3.52800012px;font-family:Arial;-inkscape-font-specification:'Arial, Normal';font-variant-ligatures:normal;font-variant-caps:normal;font-variant-numeric:normal;font-feature-settings:normal;text-align:start;letter-spacing:0;word-spacing:0;fill:#232323;stroke-width:0.78123093;fill-opacity:1"
       d="m 6.339,93.893 -1.631,0.115 v -2.06 q 0,-0.23 0.065,-0.333 0.064,-0.104 0.22,-0.147 0.153,-0.043 0.348,-0.002 0.223,0.047 0.356,0.19 0.134,0.146 0.134,0.33 0,0.186 -0.158,0.286 -0.158,0.103 -0.408,0.05 Q 5.183,92.304 5.122,92.278 5.058,92.251 4.917,92.168 v 1.345 l 1.219,-0.085 v -1.554 q 0,-0.225 0.065,-0.337 0.066,-0.11 0.226,-0.15 0.16,-0.04 0.348,0 0.223,0.046 0.354,0.19 0.13,0.14 0.13,0.324 0,0.195 -0.156,0.294 -0.156,0.1 -0.408,0.047 -0.16,-0.034 -0.356,-0.16 z"
       font-size="3.528"
       aria-label="♫"
       font-weight="400"
       letter-spacing="0"
       word-spacing="0"
       id="path4"
       inkscape:connector-curvature="0" />
  </g>
  <rect
     rx="2.3399999"
     ry="2.3399999"
     y="86.595078"
     x="1.2723511"
     height="17.410986"
     width="12.686391"
     id="rect8"
     style="fill:#afafaf;stroke-width:1;paint-order:stroke markers fill;fill-opacity:1" />
  <g
     style="line-height:1.25;stroke-width:0.78123093;fill:#232323;fill-opacity:1"
     id="g12"
     transform="matrix(1.2800313,0,0,1.2800313,0,-0.09759246)">
    <path
       d="M 5.317,8.376 5.3,7.898 Q 5.295,7.644 5.295,7.314 L 5.008,7.322 H 4.347 q -0.157,0 -0.28,-0.004 L 4.059,7.834 Q 4.055,8.08 4.042,8.372 4.038,8.472 4.022,8.529 4.008,8.584 3.983,8.613 3.958,8.643 3.923,8.647 3.894,8.656 3.852,8.656 3.776,8.656 3.725,8.605 3.674,8.55 3.665,8.375 3.657,8.224 3.653,8.059 3.653,7.894 3.649,7.703 3.644,7.513 3.644,7.293 v -0.5 q 0,-0.3 0.005,-0.512 0.004,-0.216 0.02,-0.352 0.022,-0.135 0.064,-0.2 0.043,-0.062 0.119,-0.062 0.072,0 0.127,0.046 0.055,0.047 0.063,0.216 0.009,0.144 0.013,0.263 L 4.063,6.42 Q 4.068,6.53 4.068,6.649 V 6.911 Q 4.385,6.899 4.69,6.899 q 0.148,0 0.296,0.004 0.153,0.004 0.31,0.013 V 6.792 Q 5.296,6.492 5.3,6.28 5.304,6.064 5.32,5.928 5.342,5.793 5.384,5.728 5.427,5.666 5.503,5.666 q 0.072,0 0.127,0.046 0.055,0.047 0.063,0.216 0.009,0.153 0.013,0.27 l 0.008,0.238 q 0.005,0.115 0.005,0.242 v 0.643 q 0,0.174 -0.005,0.343 L 5.706,8.007 Q 5.702,8.18 5.693,8.371 5.689,8.471 5.673,8.528 5.659,8.583 5.634,8.612 5.609,8.642 5.574,8.646 5.545,8.655 5.503,8.655 5.427,8.655 5.376,8.604 5.325,8.549 5.316,8.374 Z m 0.928,0 Q 6.237,8.224 6.233,8.059 6.233,7.894 6.228,7.703 6.224,7.513 6.224,7.293 v -0.5 q 0,-0.3 0.004,-0.512 0.005,-0.216 0.021,-0.352 0.022,-0.135 0.064,-0.2 0.042,-0.062 0.119,-0.062 0.071,0 0.127,0.046 0.055,0.047 0.063,0.216 l 0.013,0.27 0.008,0.238 Q 6.647,6.552 6.647,6.679 V 7.178 L 7.553,6.141 Q 7.731,5.938 7.829,5.874 7.926,5.806 7.998,5.806 q 0.085,0 0.123,0.043 0.042,0.042 0.042,0.106 0,0.025 -0.009,0.05 Q 8.146,6.031 8.116,6.077 8.091,6.12 8.036,6.187 7.981,6.251 7.888,6.353 L 7.299,6.992 8.226,8.312 Q 8.26,8.359 8.277,8.41 8.298,8.46 8.298,8.507 8.298,8.587 8.252,8.639 8.21,8.694 8.099,8.694 8.011,8.694 7.939,8.643 7.871,8.596 7.812,8.503 L 7.007,7.313 6.643,7.711 6.635,8.033 Q 6.63,8.193 6.622,8.372 6.618,8.472 6.601,8.529 6.588,8.584 6.563,8.613 6.537,8.643 6.503,8.647 6.473,8.656 6.432,8.656 6.355,8.656 6.305,8.605 6.254,8.55 6.245,8.375 Z"
       style="font-weight:400;font-size:4.2329998px;font-family:Sniglet;-inkscape-font-specification:'Sniglet, Normal';font-variant-ligatures:normal;font-variant-caps:normal;font-variant-numeric:normal;font-feature-settings:normal;text-align:start;letter-spacing:0;word-spacing:0;stroke-width:0.20702618;fill:#232323;fill-opacity:1"
       aria-label="HK"
       font-weight="400"
       font-size="4.233"
       letter-spacing="0"
       word-spacing="0"
       id="path10"
       inkscape:connector-curvature="0" />
  </g>
  <g
     style="line-height:1.25;stroke-width:0.78123093;fill:#232323;fill-opacity:1"
     id="g16"
     transform="matrix(1.2800313,0,0,1.2800313,0,-0.09759246)">
    <path
       d="m 4.338,69.593 q -0.08,0.006 -0.17,0.009 l -0.194,0.005 0.005,0.144 0.006,0.133 q 0.003,0.068 0.003,0.141 0.003,0.074 0.003,0.164 v 0.245 q 0,0.116 -0.003,0.235 l -0.006,0.234 -0.008,0.245 q -0.003,0.068 -0.014,0.105 -0.009,0.037 -0.026,0.056 -0.017,0.02 -0.04,0.023 -0.022,0.005 -0.05,0.005 -0.051,0 -0.088,-0.033 Q 3.722,71.267 3.716,71.151 3.711,71.05 3.708,70.937 L 3.706,70.694 q -0.003,-0.13 -0.003,-0.28 v -0.606 q 0.003,-0.116 0.008,-0.2 H 3.595 q -0.118,0 -0.203,-0.003 Q 3.31,69.602 3.257,69.59 3.203,69.576 3.177,69.548 3.155,69.52 3.155,69.469 q 0,-0.025 0.006,-0.045 0.005,-0.023 0.025,-0.04 0.02,-0.02 0.054,-0.03 0.037,-0.012 0.093,-0.017 l 0.096,-0.006 0.085,-0.006 q 0.042,-0.002 0.087,-0.002 h 0.105 q 0.166,0 0.313,0.002 0.15,0.003 0.316,0.012 0.068,0.005 0.104,0.017 0.037,0.008 0.057,0.025 0.02,0.017 0.022,0.04 0.006,0.022 0.006,0.05 0,0.051 -0.037,0.085 -0.034,0.034 -0.15,0.04 z m 1.037,1.022 -0.082,0.006 H 5.115 q -0.048,0 -0.107,-0.006 v 0.573 q 0,0.09 -0.045,0.113 -0.043,0.02 -0.108,0.02 -0.034,0 -0.053,-0.006 Q 4.782,71.312 4.768,71.301 4.757,71.287 4.748,71.261 4.742,71.236 4.74,71.191 4.734,71.14 4.731,71.044 L 4.725,70.79 4.723,70.415 v -0.522 q 0,-0.116 0.028,-0.223 0.028,-0.11 0.101,-0.192 0.074,-0.085 0.198,-0.136 0.127,-0.05 0.322,-0.05 0.138,0 0.268,0.03 0.133,0.032 0.234,0.108 0.102,0.076 0.164,0.206 0.062,0.13 0.062,0.324 0,0.26 -0.113,0.404 -0.11,0.141 -0.305,0.2 l 0.378,0.52 q 0.051,0.067 0.051,0.138 0,0.056 -0.04,0.087 -0.036,0.034 -0.092,0.034 -0.063,0 -0.108,-0.034 -0.045,-0.036 -0.084,-0.093 z m 0.443,-0.658 q 0,-0.194 -0.119,-0.287 -0.116,-0.096 -0.37,-0.096 -0.093,0 -0.155,0.017 -0.062,0.014 -0.099,0.056 -0.036,0.042 -0.053,0.118 -0.014,0.074 -0.014,0.19 v 0.192 q 0,0.11 0.003,0.2 0.064,0.003 0.143,0.003 h 0.153 q 0.079,0 0.166,-0.009 0.09,-0.011 0.167,-0.05 0.076,-0.043 0.127,-0.12 0.05,-0.078 0.05,-0.214 z m 0.573,1.177 Q 6.385,71.033 6.383,70.923 6.383,70.813 6.38,70.686 6.377,70.559 6.377,70.412 v -0.333 q 0,-0.2 0.003,-0.342 0.003,-0.144 0.017,-0.234 0.014,-0.09 0.042,-0.133 0.031,-0.042 0.082,-0.042 0.025,0 0.048,0.006 0.022,0.005 0.04,0.025 0.016,0.017 0.028,0.054 0.014,0.034 0.017,0.09 l 0.008,0.18 0.006,0.159 q 0.002,0.076 0.002,0.16 v 0.43 q 0,0.115 -0.002,0.228 l -0.006,0.229 -0.008,0.242 q -0.003,0.068 -0.015,0.105 -0.01,0.037 -0.028,0.056 -0.017,0.02 -0.04,0.023 -0.022,0.005 -0.05,0.005 -0.05,0 -0.088,-0.033 Q 6.397,71.25 6.391,71.134 Z m 1.508,-1.823 q 0.093,0 0.191,0.017 0.1,0.017 0.181,0.05 0.082,0.032 0.136,0.08 0.053,0.048 0.053,0.11 0,0.065 -0.034,0.099 -0.034,0.034 -0.084,0.034 -0.048,0 -0.09,-0.017 L 8.161,69.647 Q 8.111,69.627 8.04,69.61 7.97,69.593 7.862,69.593 q -0.119,0 -0.223,0.057 -0.102,0.053 -0.18,0.152 -0.08,0.096 -0.125,0.229 -0.045,0.132 -0.045,0.288 0,0.189 0.048,0.327 0.048,0.138 0.124,0.229 0.08,0.09 0.175,0.135 0.099,0.042 0.198,0.042 0.16,0 0.254,-0.045 0.096,-0.048 0.152,-0.121 0.003,-0.06 0.003,-0.141 V 70.567 Q 8.243,70.53 8.237,70.511 8.232,70.488 8.209,70.477 8.186,70.465 8.141,70.463 8.099,70.46 8.026,70.46 q -0.09,0 -0.147,-0.023 -0.057,-0.025 -0.057,-0.104 0,-0.057 0.029,-0.09 0.03,-0.037 0.124,-0.043 h 0.053 q 0.04,-0.003 0.082,-0.003 h 0.155 q 0.085,0 0.136,0.017 0.05,0.014 0.09,0.068 0.02,0.028 0.023,0.099 0.005,0.07 0.005,0.163 v 0.729 q 0,0.076 -0.042,0.113 -0.04,0.036 -0.093,0.036 -0.065,0 -0.107,-0.034 -0.04,-0.03 -0.04,-0.101 v -0.11 q -0.073,0.084 -0.175,0.121 -0.099,0.037 -0.251,0.037 -0.155,0 -0.305,-0.062 -0.15,-0.062 -0.265,-0.184 -0.116,-0.124 -0.19,-0.307 -0.07,-0.187 -0.07,-0.432 0,-0.246 0.07,-0.438 0.074,-0.192 0.198,-0.324 0.125,-0.136 0.291,-0.206 0.167,-0.07 0.359,-0.07 z"
       style="font-weight:400;font-size:2.82200003px;font-family:Sniglet;-inkscape-font-specification:'Sniglet, Normal';font-variant-ligatures:normal;font-variant-caps:normal;font-variant-numeric:normal;font-feature-settings:normal;text-align:start;letter-spacing:0;word-spacing:0;stroke-width:0.20702618;fill:#232323;fill-opacity:1"
       aria-label="TRIG"
       font-weight="400"
       font-size="2.822"
       letter-spacing="0"
       word-spacing="0"
       id="path14"
       inkscape:connector-curvature="0" />
  </g>
  <g
     style="line-height:1.25;stroke-width:0.78123093;fill:#232323;fill-opacity:1"
     id="g20"
     transform="matrix(1.2800313,0,0,1.2800313,0,-0.09759246)">
    <path
       d="m 2.758,51.172 q 0.29,0 0.465,0.087 0.175,0.088 0.268,0.231 0.094,0.144 0.122,0.328 0.03,0.183 0.03,0.372 0,0.206 -0.053,0.39 -0.05,0.183 -0.16,0.322 -0.108,0.135 -0.277,0.217 -0.17,0.079 -0.404,0.079 -0.186,0 -0.299,-0.028 Q 2.34,53.144 2.278,53.09 2.218,53.037 2.198,52.955 2.179,52.873 2.179,52.763 v -1.06 q 0,-0.122 0.02,-0.221 0.022,-0.099 0.084,-0.167 0.063,-0.07 0.175,-0.107 0.116,-0.036 0.3,-0.036 z m 0.01,1.744 q 0.176,0 0.289,-0.062 0.115,-0.065 0.183,-0.17 0.068,-0.104 0.093,-0.237 0.029,-0.132 0.029,-0.27 0,-0.128 -0.02,-0.255 -0.02,-0.13 -0.082,-0.234 -0.062,-0.104 -0.178,-0.17 -0.116,-0.064 -0.307,-0.064 -0.175,0 -0.243,0.05 -0.068,0.051 -0.068,0.156 v 1.08 q 0,0.088 0.062,0.133 0.065,0.043 0.243,0.043 z M 3.943,52.738 Q 3.938,52.648 3.933,52.492 3.926,52.337 3.926,52.173 V 51.982 L 3.932,51.776 Q 3.938,51.566 3.957,51.448 3.98,51.33 4.042,51.27 4.107,51.211 4.222,51.197 4.338,51.183 4.53,51.183 h 0.06 q 0.059,0 0.14,0.003 l 0.17,0.002 0.15,0.006 q 0.062,0.006 0.098,0.017 0.04,0.008 0.06,0.025 0.02,0.014 0.025,0.037 0.006,0.02 0.006,0.045 0,0.065 -0.037,0.096 -0.037,0.028 -0.15,0.037 -0.056,0.005 -0.166,0.008 h -0.22 q -0.113,0 -0.203,0.003 H 4.35 q -0.074,0.003 -0.105,0.034 -0.028,0.028 -0.028,0.138 l 0.003,0.124 q 0.006,0.096 0.006,0.271 H 4.46 q 0.15,0 0.243,0.006 0.095,0.003 0.146,0.017 0.054,0.014 0.074,0.045 0.02,0.031 0.02,0.082 0,0.025 -0.006,0.048 -0.003,0.02 -0.023,0.037 -0.02,0.014 -0.056,0.025 -0.037,0.009 -0.105,0.014 -0.082,0.006 -0.155,0.009 H 4.22 v 0.344 l 0.006,0.096 q 0.002,0.045 0.01,0.076 0.012,0.031 0.038,0.05 0.028,0.02 0.079,0.03 0.053,0.008 0.14,0.008 H 5.1 q 0.1,0 0.125,0.036 0.025,0.037 0.025,0.1 0,0.05 -0.023,0.078 -0.022,0.026 -0.11,0.037 -0.084,0.014 -0.256,0.017 -0.17,0.003 -0.469,0.003 -0.127,0 -0.209,-0.023 Q 4.101,53.141 4.051,53.088 4,53.034 3.974,52.949 3.952,52.862 3.944,52.738 Z M 5.785,52.38 v 0.16 q 0,0.068 -0.003,0.13 0,0.062 -0.003,0.124 l -0.005,0.139 0.305,-0.037 0.172,-0.023 q 0.065,-0.008 0.099,-0.01 0.036,-0.004 0.084,-0.004 0.124,0 0.124,0.122 0,0.048 -0.05,0.081 -0.048,0.034 -0.125,0.06 -0.073,0.022 -0.166,0.04 -0.09,0.013 -0.178,0.019 -0.085,0.008 -0.155,0.011 L 5.788,53.195 Q 5.686,53.195 5.63,53.181 5.573,53.17 5.545,53.108 5.517,53.043 5.509,52.913 5.503,52.783 5.503,52.546 V 52.14 q 0,-0.178 0.003,-0.32 0.003,-0.14 0.003,-0.25 0.002,-0.11 0.008,-0.2 0.006,-0.117 0.04,-0.15 0.033,-0.037 0.084,-0.037 0.028,0 0.048,0.005 0.023,0.003 0.04,0.023 0.017,0.02 0.025,0.056 0.011,0.037 0.014,0.105 0.011,0.248 0.014,0.49 0.003,0.244 0.003,0.517 z m 2.179,0.643 -0.062,-0.155 q -0.03,-0.09 -0.068,-0.19 l -0.177,0.006 h -0.41 q -0.098,0 -0.18,-0.003 l -0.065,0.187 q -0.031,0.087 -0.06,0.155 -0.056,0.144 -0.163,0.144 -0.04,0 -0.076,-0.026 -0.034,-0.025 -0.034,-0.073 0,-0.048 0.017,-0.124 0.017,-0.08 0.042,-0.167 0.028,-0.09 0.06,-0.183 0.03,-0.096 0.059,-0.178 0.028,-0.09 0.079,-0.228 0.053,-0.142 0.113,-0.294 l 0.118,-0.3 q 0.06,-0.149 0.107,-0.259 l 0.029,-0.062 q 0.016,-0.037 0.04,-0.068 0.024,-0.03 0.053,-0.053 0.03,-0.023 0.067,-0.023 0.037,0 0.068,0.026 0.031,0.022 0.054,0.056 0.025,0.034 0.042,0.07 0.02,0.037 0.031,0.066 l 0.102,0.26 q 0.059,0.146 0.115,0.295 0.06,0.15 0.11,0.286 0.051,0.135 0.082,0.228 l 0.057,0.175 q 0.034,0.093 0.062,0.184 0.028,0.09 0.045,0.169 0.02,0.076 0.02,0.124 0,0.048 -0.037,0.073 -0.034,0.026 -0.073,0.026 -0.051,0 -0.093,-0.034 -0.043,-0.037 -0.074,-0.11 z m -0.5,-0.621 q 0.068,0 0.136,0.003 0.068,0 0.136,0.003 L 7.668,52.21 7.603,52.021 Q 7.575,51.931 7.549,51.854 L 7.509,51.716 Q 7.499,51.679 7.484,51.656 7.47,51.634 7.448,51.634 q -0.023,0 -0.037,0.026 -0.014,0.022 -0.025,0.059 -0.034,0.116 -0.096,0.302 l -0.127,0.387 q 0.076,-0.003 0.152,-0.003 0.076,-0.003 0.15,-0.003 z m 1.344,0.59 -0.01,-0.33 Q 8.794,52.484 8.794,52.252 L 8.233,51.448 Q 8.21,51.418 8.196,51.383 8.185,51.349 8.185,51.318 q 0,-0.053 0.028,-0.087 0.031,-0.037 0.104,-0.037 0.06,0 0.105,0.034 0.048,0.031 0.087,0.093 l 0.42,0.669 0.421,-0.669 q 0.04,-0.062 0.085,-0.093 0.048,-0.034 0.107,-0.034 0.074,0 0.102,0.037 0.03,0.034 0.03,0.087 0,0.031 -0.013,0.065 -0.012,0.034 -0.034,0.065 l -0.55,0.788 q 0,0.191 -0.006,0.37 Q 9.068,52.78 9.06,52.989 9.057,53.057 9.046,53.093 9.037,53.13 9.02,53.15 q -0.017,0.02 -0.04,0.023 -0.02,0.005 -0.047,0.005 -0.051,0 -0.085,-0.034 -0.034,-0.036 -0.04,-0.152 z"
       style="font-weight:400;font-size:2.82200003px;font-family:Sniglet;-inkscape-font-specification:'Sniglet, Normal';font-variant-ligatures:normal;font-variant-caps:normal;font-variant-numeric:normal;font-feature-settings:normal;text-align:start;letter-spacing:0;word-spacing:0;stroke-width:0.20702618;fill:#232323;fill-opacity:1"
       aria-label="DELAY"
       font-weight="400"
       font-size="2.822"
       letter-spacing="0"
       word-spacing="0"
       id="path18"
       inkscape:connector-curvature="0" />
  </g>
  <g
     style="line-height:1.25;stroke-width:0.78123093;fill:#232323;fill-opacity:1"
     id="g24"
     transform="matrix(1.2800313,0,0,1.2800313,0,-0.09759246)">
    <path
       d="m 4.386,15.448 q 0.08,0 0.18,0.013 0.105,0.012 0.195,0.046 0.09,0.03 0.153,0.084 0.062,0.051 0.062,0.127 0,0.045 -0.025,0.076 -0.026,0.031 -0.082,0.031 -0.043,0 -0.088,-0.016 -0.042,-0.017 -0.099,-0.034 -0.053,-0.02 -0.127,-0.037 -0.07,-0.017 -0.166,-0.017 -0.186,0 -0.277,0.068 -0.087,0.065 -0.087,0.18 0,0.08 0.04,0.133 0.039,0.054 0.104,0.093 0.068,0.037 0.15,0.062 0.084,0.026 0.172,0.048 0.098,0.026 0.194,0.062 0.1,0.037 0.175,0.096 0.076,0.06 0.122,0.15 0.048,0.09 0.048,0.228 0,0.144 -0.054,0.26 -0.054,0.113 -0.147,0.195 -0.093,0.08 -0.223,0.124 -0.13,0.042 -0.282,0.042 -0.085,0 -0.198,-0.017 Q 4.014,17.431 3.912,17.395 3.81,17.355 3.74,17.293 3.67,17.228 3.67,17.135 q 0,-0.056 0.027,-0.09 0.032,-0.034 0.09,-0.034 0.049,0 0.08,0.02 0.03,0.017 0.053,0.04 0.085,0.072 0.192,0.098 0.108,0.025 0.22,0.025 0.065,0 0.136,-0.008 0.073,-0.012 0.133,-0.043 0.059,-0.03 0.098,-0.087 0.04,-0.06 0.04,-0.158 0,-0.09 -0.037,-0.147 Q 4.668,16.691 4.609,16.652 4.549,16.612 4.468,16.587 4.388,16.562 4.296,16.537 4.191,16.508 4.09,16.475 3.988,16.441 3.91,16.385 3.83,16.325 3.78,16.238 q -0.049,-0.09 -0.049,-0.23 0,-0.137 0.051,-0.242 0.051,-0.104 0.138,-0.175 0.088,-0.07 0.206,-0.107 0.122,-0.037 0.26,-0.037 z m 0.971,1.563 Q 5.351,16.921 5.346,16.765 5.34,16.61 5.34,16.446 V 16.254 L 5.346,16.048 Q 5.351,15.84 5.371,15.721 5.394,15.603 5.456,15.543 5.521,15.484 5.636,15.47 5.752,15.456 5.944,15.456 h 0.06 q 0.059,0 0.14,0.003 l 0.17,0.002 0.15,0.006 q 0.061,0.006 0.098,0.017 0.04,0.008 0.06,0.025 0.02,0.014 0.025,0.037 0.005,0.02 0.005,0.045 0,0.065 -0.036,0.096 -0.037,0.028 -0.15,0.037 Q 6.41,15.729 6.3,15.732 H 6.08 q -0.113,0 -0.204,0.003 H 5.763 Q 5.69,15.738 5.659,15.769 5.631,15.797 5.631,15.907 l 0.003,0.124 q 0.005,0.096 0.005,0.271 h 0.235 q 0.15,0 0.242,0.006 0.096,0.003 0.147,0.017 0.054,0.014 0.073,0.045 0.02,0.031 0.02,0.082 0,0.025 -0.006,0.048 -0.002,0.02 -0.022,0.037 -0.02,0.014 -0.057,0.025 -0.036,0.008 -0.104,0.014 l -0.155,0.01 H 5.634 v 0.342 q 0.002,0.06 0.005,0.097 0.003,0.045 0.012,0.076 0.01,0.031 0.036,0.05 0.028,0.02 0.08,0.03 0.053,0.008 0.14,0.008 h 0.607 q 0.099,0 0.124,0.036 0.026,0.037 0.026,0.1 0,0.05 -0.023,0.08 -0.022,0.023 -0.11,0.035 -0.085,0.014 -0.257,0.017 -0.17,0.002 -0.468,0.002 -0.127,0 -0.21,-0.022 -0.08,-0.023 -0.132,-0.076 -0.05,-0.054 -0.076,-0.139 -0.022,-0.087 -0.03,-0.21 z m 2.657,-1.287 q -0.079,0.005 -0.169,0.008 l -0.195,0.006 0.006,0.144 0.006,0.133 q 0.002,0.067 0.002,0.14 0.003,0.074 0.003,0.164 v 0.246 q 0,0.116 -0.003,0.234 l -0.005,0.234 q -0.003,0.12 -0.009,0.246 -0.002,0.068 -0.014,0.104 -0.008,0.037 -0.025,0.057 -0.017,0.02 -0.04,0.022 -0.022,0.006 -0.05,0.006 -0.051,0 -0.088,-0.034 -0.034,-0.037 -0.04,-0.152 -0.005,-0.102 -0.008,-0.215 0,-0.113 -0.003,-0.242 -0.003,-0.13 -0.003,-0.28 V 15.94 q 0.003,-0.116 0.009,-0.2 H 7.272 Q 7.154,15.74 7.069,15.736 6.987,15.733 6.934,15.722 6.88,15.708 6.854,15.68 6.832,15.651 6.832,15.6 q 0,-0.025 0.006,-0.044 0.005,-0.023 0.025,-0.04 0.02,-0.02 0.054,-0.03 0.036,-0.012 0.093,-0.018 L 7.106,15.462 7.19,15.457 q 0.043,-0.003 0.088,-0.003 h 0.104 q 0.167,0 0.314,0.003 0.15,0.003 0.316,0.011 0.067,0.006 0.104,0.017 0.037,0.01 0.057,0.025 0.02,0.017 0.022,0.04 0.006,0.023 0.006,0.05 0,0.052 -0.037,0.085 -0.034,0.034 -0.15,0.04 z"
       style="font-weight:400;font-size:2.82200003px;font-family:Sniglet;-inkscape-font-specification:'Sniglet, Normal';font-variant-ligatures:normal;font-variant-caps:normal;font-variant-numeric:normal;font-feature-settings:normal;text-align:start;letter-spacing:0;word-spacing:0;stroke-width:0.20702618;fill:#232323;fill-opacity:1"
       aria-label="SET"
       font-weight="400"
       font-size="2.822"
       letter-spacing="0"
       word-spacing="0"
       id="path22"
       inkscape:connector-curvature="0" />
  </g>
  <g
     style="line-height:1.25;stroke-width:0.78123093;fill:#232323;fill-opacity:1"
     id="g28"
     transform="matrix(1.2800313,0,0,1.2800313,0,-0.09759246)">
    <path
       d="m 2.421,62.774 q 0,-0.129 0.023,-0.264 0.026,-0.136 0.09,-0.246 0.063,-0.11 0.17,-0.18 0.11,-0.07 0.28,-0.07 0.133,0 0.227,0.04 0.095,0.04 0.156,0.106 0.062,0.066 0.095,0.15 0.034,0.083 0.051,0.174 0.017,0.091 0.02,0.18 0.004,0.089 0.004,0.163 0,0.148 -0.036,0.273 -0.034,0.123 -0.106,0.212 -0.07,0.089 -0.178,0.14 Q 3.111,63.5 2.967,63.5 2.817,63.5 2.711,63.443 2.607,63.383 2.541,63.286 2.478,63.187 2.449,63.056 2.421,62.922 2.421,62.774 Z M 2.633,62.77 q 0,0.104 0.017,0.199 0.019,0.093 0.059,0.165 0.04,0.07 0.104,0.112 0.065,0.043 0.158,0.043 0.09,0 0.155,-0.036 0.068,-0.036 0.112,-0.1 0.045,-0.065 0.066,-0.154 0.02,-0.09 0.02,-0.193 0,-0.078 -0.005,-0.178 -0.007,-0.101 -0.04,-0.19 -0.032,-0.09 -0.102,-0.15 -0.07,-0.062 -0.195,-0.062 -0.106,0 -0.174,0.05 -0.065,0.052 -0.105,0.132 -0.04,0.078 -0.055,0.176 -0.015,0.095 -0.015,0.186 z"
       style="font-weight:400;font-size:2.1170001px;font-family:Sniglet;-inkscape-font-specification:'Sniglet, Normal';font-variant-ligatures:normal;font-variant-caps:normal;font-variant-numeric:normal;font-feature-settings:normal;text-align:start;letter-spacing:0;word-spacing:0;stroke-width:0.78123093;fill:#232323;fill-opacity:1"
       font-size="2.117"
       aria-label="0"
       font-weight="400"
       letter-spacing="0"
       word-spacing="0"
       id="path26"
       inkscape:connector-curvature="0" />
  </g>
  <g
     style="line-height:1.25;stroke-width:0.78123093;fill:#232323;fill-opacity:1"
     id="g32"
     transform="matrix(1.2800313,0,0,1.2800313,0,-0.09759246)">
    <path
       d="M 8.192,63.333 Q 8.188,63.257 8.186,63.174 L 8.184,62.996 Q 8.182,62.901 8.182,62.791 v -0.514 l -0.127,0.065 q -0.053,0.034 -0.085,0.04 -0.03,0.007 -0.066,0.007 -0.031,0 -0.057,-0.028 -0.023,-0.027 -0.023,-0.065 0,-0.038 0.025,-0.066 0.028,-0.03 0.064,-0.053 0.046,-0.032 0.1,-0.063 0.054,-0.032 0.105,-0.057 0.051,-0.028 0.093,-0.043 0.045,-0.017 0.074,-0.017 0.015,0 0.03,0.005 0.017,0.004 0.03,0.016 0.015,0.013 0.023,0.04 0.01,0.026 0.013,0.07 l 0.006,0.134 0.004,0.112 q 0.002,0.053 0.002,0.112 v 0.32 q 0,0.087 -0.002,0.171 l -0.004,0.172 -0.006,0.182 q -0.002,0.05 -0.01,0.078 -0.007,0.028 -0.02,0.042 -0.013,0.015 -0.03,0.017 -0.014,0.005 -0.036,0.005 -0.038,0 -0.063,-0.026 Q 8.197,63.42 8.192,63.333 Z M 9.466,62.36 q 0.044,0 0.112,0.008 0.068,0.006 0.129,0.027 0.061,0.02 0.106,0.055 0.044,0.036 0.044,0.091 0,0.032 -0.019,0.055 -0.017,0.024 -0.055,0.024 -0.027,0 -0.063,-0.009 L 9.644,62.592 q -0.04,-0.013 -0.09,-0.021 -0.046,-0.009 -0.099,-0.009 -0.089,0 -0.146,0.028 -0.055,0.028 -0.055,0.087 0,0.034 0.02,0.057 0.02,0.023 0.054,0.042 0.036,0.017 0.083,0.03 0.048,0.013 0.101,0.025 0.066,0.017 0.13,0.038 0.065,0.022 0.116,0.06 0.05,0.036 0.082,0.093 0.032,0.055 0.032,0.137 0,0.157 -0.118,0.25 -0.119,0.091 -0.35,0.091 -0.05,0 -0.12,-0.008 -0.07,-0.007 -0.132,-0.028 -0.06,-0.019 -0.105,-0.055 -0.043,-0.038 -0.043,-0.1 0,-0.042 0.02,-0.063 0.02,-0.023 0.05,-0.023 0.023,0 0.049,0.015 0.025,0.015 0.061,0.031 0.036,0.017 0.087,0.032 0.05,0.015 0.125,0.015 L 9.468,63.314 Q 9.512,63.31 9.555,63.294 9.599,63.28 9.629,63.254 9.66,63.227 9.66,63.178 9.66,63.14 9.64,63.115 9.618,63.087 9.582,63.068 9.546,63.049 9.497,63.037 9.451,63.022 9.398,63.007 9.337,62.99 9.273,62.969 9.212,62.948 9.161,62.914 9.111,62.88 9.078,62.829 9.047,62.776 9.047,62.7 q 0,-0.072 0.03,-0.133 0.029,-0.064 0.084,-0.11 0.055,-0.047 0.131,-0.072 0.078,-0.026 0.174,-0.026 z"
       style="font-weight:400;font-size:2.1170001px;font-family:Sniglet;-inkscape-font-specification:'Sniglet, Normal';font-variant-ligatures:normal;font-variant-caps:normal;font-variant-numeric:normal;font-feature-settings:normal;text-align:start;letter-spacing:0;word-spacing:0;stroke-width:0.20702618;fill:#232323;fill-opacity:1"
       aria-label="1 s"
       font-weight="400"
       font-size="2.117"
       letter-spacing="0"
       word-spacing="0"
       id="path30"
       inkscape:connector-curvature="0" />
  </g>
</svg>
