<svg xmlns="http://www.w3.org/2000/svg" width="60" height="380" viewBox="0 0 15.875 100.542"><path d="M0 0h15.875v100.541H0zm0 0" fill="#dcdcdc"/><rect rx=".99" ry=".99" y="76.266" x="2.612" height="3.043" width="10.661" fill="#333" stroke="#8c8c8c" stroke-width=".132" paint-order="stroke markers fill"/><g style="line-height:1.25"><path style="-inkscape-font-specification:'Sniglet, Normal';font-variant-ligatures:normal;font-variant-caps:normal;font-variant-numeric:normal;font-feature-settings:normal;text-align:start" d="M5.124 78.258q-.13-.285-.23-.55-.1-.268-.17-.477-.066.35-.11.705-.043.356-.11.68-.018.074-.063.1-.045.022-.076.022-.05 0-.082-.031-.028-.031-.028-.08 0-.064.014-.197l.04-.305q.025-.169.056-.355.03-.186.062-.359l.062-.316q.031-.14.054-.217.036-.13.15-.13.067 0 .115.068.048.065.101.203.057.136.133.344.08.21.203.492.122-.283.195-.489.076-.209.127-.344.054-.138.102-.203.048-.068.118-.068.065 0 .1.034.033.031.05.096.02.079.048.22.028.138.06.31.033.17.064.356.031.186.056.356.026.169.04.307.017.136.017.21 0 .044-.03.073-.032.025-.08.025-.03 0-.076-.023-.046-.025-.063-.098-.033-.161-.062-.334l-.05-.347-.046-.352q-.022-.178-.048-.353-.036.113-.084.248-.048.136-.102.274-.053.135-.11.268-.056.133-.11.24-.02.037-.054.056-.03.017-.065.017-.036 0-.07-.017-.03-.02-.048-.059zm2.05.508q-.169 0-.318-.068-.147-.067-.257-.194-.11-.13-.175-.317-.062-.186-.062-.423 0-.223.053-.41.057-.185.164-.32.11-.136.27-.21.162-.076.373-.076.173 0 .328.062.155.062.27.187.12.124.187.31.068.186.068.435 0 .206-.057.392-.053.186-.166.327-.11.139-.28.223-.169.082-.398.082zm.006-.265q.155 0 .271-.062.116-.065.192-.17.076-.104.113-.24.036-.138.036-.282 0-.175-.047-.31-.046-.139-.125-.232t-.183-.14q-.105-.052-.223-.052-.14 0-.248.06-.105.059-.178.16-.07.102-.107.24-.037.136-.037.291 0 .167.042.305.043.135.113.231.073.096.172.15.1.05.21.05zm1.757-1.758q.29 0 .466.087.175.087.268.231.093.144.121.328.031.183.031.372 0 .206-.053.39-.05.183-.16.322-.109.135-.278.217-.17.079-.404.079-.186 0-.299-.028-.11-.026-.172-.08-.06-.053-.079-.135-.02-.082-.02-.192v-1.06q0-.122.02-.221.023-.099.085-.167.062-.07.175-.107.116-.037.3-.037zm.011 1.744q.175 0 .288-.062.116-.065.184-.17.067-.104.093-.237.028-.133.028-.27 0-.128-.02-.255-.02-.13-.082-.234-.062-.104-.177-.17-.116-.064-.308-.064-.175 0-.243.05-.068.051-.068.156v1.08q0 .088.063.133.064.043.242.043zm1.175-.178q-.006-.09-.012-.246-.005-.155-.005-.319v-.192l.005-.206q.006-.208.026-.327.022-.118.084-.178.065-.06.181-.073.116-.014.308-.014h.06q.06 0 .14.003.082 0 .17.003l.15.006q.061.006.098.017.04.008.06.025.02.014.024.037.006.02.006.045 0 .065-.037.096-.036.028-.15.037-.056.006-.166.008h-.22q-.113 0-.203.003h-.113q-.073.003-.104.034-.029.028-.029.138l.003.124q.006.096.006.27h.234q.15 0 .243.007.096.003.147.017.053.014.073.045.02.031.02.082 0 .025-.006.048-.003.02-.023.037-.02.014-.056.025-.037.008-.104.014-.082.006-.156.008H10.4v.344l.006.096q.003.046.011.077.011.03.037.05.028.02.08.029.052.008.14.008h.607q.098 0 .124.036.025.037.025.1 0 .05-.022.078-.023.025-.11.037-.085.014-.257.017-.17.003-.469.003-.127 0-.209-.023-.08-.023-.132-.076-.05-.054-.076-.138-.023-.088-.03-.212z" word-spacing="0" letter-spacing="0" font-size="2.822" font-weight="400" aria-label="MODE" font-family="Sniglet" fill="#fff"/></g><g style="line-height:1.25"><path word-spacing="0" letter-spacing="0" font-weight="400" aria-label="♫" font-size="3.528" style="-inkscape-font-specification:'Arial, Normal';font-variant-ligatures:normal;font-variant-caps:normal;font-variant-numeric:normal;font-feature-settings:normal;text-align:start" d="M8.664 93.893l-1.63.115v-2.06q0-.23.065-.333.063-.104.22-.147.152-.043.347-.002.223.047.357.19.133.146.133.33 0 .186-.158.286-.158.103-.408.05-.082-.018-.143-.044-.064-.026-.205-.11v1.345l1.22-.085v-1.554q0-.224.064-.337.066-.11.226-.15.16-.041.348-.001.223.047.355.19.13.14.13.325 0 .195-.157.294-.156.1-.408.047-.16-.034-.356-.16z" font-family="Arial" fill="#333"/></g><rect rx=".99" ry=".99" y="28.641" x="2.169" height="3.043" width="11.487" fill="#333" stroke="#8c8c8c" stroke-width=".132" paint-order="stroke markers fill"/><g style="line-height:1.25"><path style="-inkscape-font-specification:'Sniglet, Normal';font-variant-ligatures:normal;font-variant-caps:normal;font-variant-numeric:normal;font-feature-settings:normal;text-align:start" d="M4.683 29.126q.093 0 .192.017.1.017.18.051.082.031.136.079.053.048.053.11 0 .065-.033.099-.034.034-.085.034-.048 0-.09-.017l-.09-.037q-.05-.02-.122-.037-.07-.016-.178-.016-.118 0-.223.056-.1.054-.18.152-.08.096-.125.23-.045.132-.045.287 0 .189.048.327.048.139.124.229.08.09.175.135.1.043.198.043.16 0 .254-.046.096-.048.152-.12.003-.06.003-.142v-.178q0-.036-.005-.056-.006-.023-.029-.034-.022-.011-.067-.014-.043-.003-.116-.003-.09 0-.147-.023-.056-.025-.056-.104 0-.057.028-.09.031-.037.124-.043h.054q.04-.003.082-.003h.155q.084 0 .135.017.051.014.09.068.02.028.023.099.006.07.006.163v.728q0 .077-.043.113-.04.037-.093.037-.065 0-.107-.034-.04-.03-.04-.101v-.11q-.073.084-.174.12-.1.038-.252.038-.155 0-.304-.063-.15-.062-.266-.183-.115-.124-.189-.308-.07-.186-.07-.431 0-.246.07-.438.074-.192.198-.324.124-.136.29-.206.167-.071.36-.071zm2.113 1.855l-.062-.156q-.03-.09-.068-.189l-.178.006H6.08q-.099 0-.18-.003l-.065.186q-.03.088-.06.156-.056.144-.163.144-.04 0-.076-.026-.034-.025-.034-.073 0-.048.017-.124.017-.08.042-.167.028-.09.06-.183.03-.096.058-.178.03-.09.08-.229l.112-.293.12-.3.106-.259q.011-.028.028-.062.017-.037.04-.068.025-.03.053-.053.032-.023.068-.023.037 0 .068.025.031.023.054.057.025.034.042.07.02.037.03.065.046.113.103.26.06.147.115.296.06.15.11.285.051.136.082.229l.057.175q.033.093.062.183.028.09.045.17.02.076.02.124t-.037.073q-.034.026-.073.026-.05 0-.094-.034-.042-.037-.073-.11zm-.5-.621q.068 0 .136.003.068 0 .135.003l-.067-.198-.065-.189q-.028-.09-.054-.167l-.04-.138q-.01-.037-.025-.06-.014-.022-.036-.022-.023 0-.037.026-.014.022-.025.059-.034.116-.096.302l-.127.387q.076-.003.152-.003.076-.003.15-.003zm1.876-.951q-.079.006-.17.008l-.194.006.006.143.005.133q.003.068.003.141.003.074.003.164v.245q0 .116-.003.235l-.006.234q-.002.118-.008.245-.003.068-.014.105-.009.037-.026.056-.017.02-.04.023-.022.006-.05.006-.05 0-.087-.034-.034-.037-.04-.152-.005-.102-.008-.215 0-.113-.003-.243t-.003-.279v-.606q.003-.116.01-.201H7.43q-.119 0-.203-.003-.082-.003-.136-.014-.053-.014-.079-.043-.022-.028-.022-.079 0-.025.005-.045.006-.022.026-.04.02-.02.053-.03.037-.012.093-.017l.096-.006.085-.006q.042-.003.087-.003h.105q.166 0 .313.003.15.003.316.011.068.006.105.017.036.008.056.025.02.017.023.04.005.022.005.05 0 .051-.036.085-.034.034-.15.04zm.402 1.286q-.006-.09-.01-.245-.007-.155-.007-.319v-.192l.006-.206q.005-.209.025-.327.023-.119.085-.178.065-.06.18-.073.116-.015.308-.015h.06q.06 0 .14.003.082 0 .17.003l.15.006q.061.006.098.017.04.008.06.026.02.014.025.036.005.02.005.046 0 .065-.036.096-.037.028-.15.036-.056.006-.166.008h-.22q-.113 0-.204.003H8.98q-.073.003-.104.034-.028.028-.028.138l.002.125q.006.096.006.27h.234q.15 0 .243.007.096.003.147.016.053.015.073.046.02.03.02.081 0 .026-.006.048-.002.02-.022.037-.02.014-.057.026-.036.008-.104.014-.082.006-.155.008H8.85v.343l.006.097q.003.045.011.076.012.031.037.05.028.02.08.03.053.007.14.007h.607q.1 0 .124.037.026.037.026.099 0 .05-.023.079-.023.025-.11.036-.085.014-.257.017-.17.003-.468.003-.127 0-.21-.022-.08-.023-.132-.077-.05-.053-.076-.138-.023-.087-.03-.212zm2.736-1.275q-.1 0-.169.022-.068.02-.113.054t-.073.07l-.05.071q-.024.034-.05.057-.027.02-.067.02-.068 0-.096-.035-.025-.036-.025-.096 0-.124.093-.231.028-.034.076-.07.051-.04.12-.071.07-.031.16-.05.093-.023.21-.023.306 0 .475.15.17.149.17.42 0 .053-.012.118-.008.065-.036.136-.026.07-.074.146-.048.077-.127.156-.07.07-.15.13-.078.059-.163.118l-.178.127q-.09.065-.183.15.09.048.195.062.104.014.234.014.121 0 .195-.006.073-.006.118-.014l.07-.014q.026-.006.054-.006.105 0 .105.095 0 .085-.07.13t-.17.068q-.099.02-.203.023-.105.006-.173.006-.036 0-.104-.006-.065-.003-.14-.015-.077-.01-.156-.03-.077-.023-.14-.057-.064-.037-.103-.087-.04-.054-.04-.127 0-.1.071-.187.073-.09.18-.175.108-.087.232-.172.124-.087.232-.178.107-.093.177-.192.074-.098.074-.214 0-.144-.1-.215-.095-.073-.276-.073z" word-spacing="0" letter-spacing="0" font-size="2.822" font-weight="400" aria-label="GATE 2" font-family="Sniglet" fill="#fff"/></g><rect rx=".99" ry=".99" y="12.766" x="2.528" height="3.043" width="10.725" fill="#333" stroke="#8c8c8c" stroke-width=".132" paint-order="stroke markers fill"/><g style="line-height:1.25"><path style="-inkscape-font-specification:'Sniglet, Normal';font-variant-ligatures:normal;font-variant-caps:normal;font-variant-numeric:normal;font-feature-settings:normal;text-align:start" d="M5.045 13.232q.093 0 .192.017.1.017.18.05.083.032.136.08.054.047.054.11 0 .064-.034.098t-.085.034q-.048 0-.09-.017l-.09-.036q-.05-.02-.122-.037-.07-.017-.177-.017-.119 0-.223.056-.102.054-.18.153-.08.096-.125.228-.045.133-.045.288 0 .19.048.328t.124.228q.08.09.175.136.1.042.197.042.161 0 .254-.045.096-.048.153-.121.003-.06.003-.142v-.177q0-.037-.006-.057-.006-.022-.028-.034-.023-.011-.068-.014-.042-.003-.116-.003-.09 0-.147-.022-.056-.026-.056-.105 0-.056.028-.09.031-.037.124-.042h.054q.04-.003.082-.003h.155q.085 0 .136.017.05.014.09.067.02.028.022.099.006.07.006.164v.728q0 .076-.042.113-.04.036-.093.036-.065 0-.108-.033-.04-.031-.04-.102v-.11q-.073.085-.174.121-.099.037-.25.037-.157 0-.306-.062-.15-.062-.265-.184-.116-.124-.19-.307-.07-.187-.07-.432 0-.246.07-.438.074-.191.198-.324.124-.136.29-.206.167-.07.36-.07zm2.113 1.854l-.062-.155q-.03-.09-.067-.19l-.178.007h-.41q-.098 0-.18-.003l-.065.186q-.03.087-.06.155-.056.144-.163.144-.04 0-.076-.025-.034-.026-.034-.074t.017-.124q.017-.079.042-.166.028-.09.06-.184.03-.096.06-.178.027-.09.078-.228.053-.141.113-.294l.118-.299q.06-.15.107-.26l.03-.062q.016-.036.04-.067.024-.031.052-.054.03-.023.068-.023.036 0 .067.026.031.022.054.056.025.034.042.07.02.037.031.066l.102.26q.06.146.116.296.06.15.11.285.05.135.082.228.025.082.056.175.034.093.062.184.028.09.045.17.02.075.02.123t-.037.074q-.034.025-.073.025-.05 0-.093-.034-.043-.037-.074-.11zm-.5-.621q.07 0 .136.003.068 0 .136.003l-.068-.198-.065-.189-.053-.166-.04-.138q-.01-.037-.025-.06-.014-.022-.037-.022t-.037.025q-.014.023-.025.06-.034.115-.096.301l-.127.387q.076-.003.152-.003.076-.003.15-.003zm1.876-.951q-.079.006-.169.008l-.195.006.006.144.006.133q.002.067.002.14.003.074.003.164v.246q0 .116-.003.234l-.005.234q-.003.119-.009.246-.003.068-.014.104-.008.037-.025.057-.017.02-.04.022-.022.006-.05.006-.05 0-.088-.034-.034-.036-.04-.152-.005-.102-.008-.214 0-.113-.003-.243t-.003-.28v-.606q.003-.116.01-.2h-.117q-.118 0-.203-.004-.082-.003-.136-.014-.053-.014-.079-.042-.022-.028-.022-.08 0-.025.005-.044.006-.023.026-.04.02-.02.054-.03.036-.012.093-.018l.096-.006.084-.006q.043-.003.088-.003h.104q.167 0 .313.003.15.003.317.012.067.006.104.016.037.008.056.026.02.017.023.04.006.022.006.05 0 .051-.037.085-.034.034-.15.04zm.402 1.287l-.01-.246q-.007-.155-.007-.319v-.191l.006-.206q.006-.21.025-.328.023-.118.085-.178.065-.059.18-.073.116-.014.308-.014h.06q.06 0 .14.003.083 0 .17.003l.15.006q.062.006.098.017.04.008.06.025.02.014.025.037.006.02.006.045 0 .065-.037.096-.037.028-.15.037-.056.006-.166.008h-.22q-.113 0-.203.003h-.113q-.074.003-.105.034-.028.028-.028.138l.003.124q.005.096.005.271h.235q.15 0 .242.006.096.003.147.017.054.014.074.045.02.031.02.082 0 .025-.006.048-.003.02-.023.037-.02.014-.056.025-.037.008-.105.014-.082.006-.155.008h-.378v.345l.005.096q.003.045.012.076.011.03.036.05.03.02.08.029.053.008.14.008h.607q.1 0 .125.036.025.037.025.1 0 .05-.023.078-.022.026-.11.037-.084.014-.257.017-.169.003-.468.003-.127 0-.209-.023-.082-.022-.133-.076-.05-.054-.076-.138-.022-.088-.03-.212zm2.528.254q-.006-.102-.009-.212l-.002-.237q-.003-.127-.003-.274v-.685l-.17.087q-.07.045-.112.054-.04.008-.088.008-.042 0-.076-.037-.03-.037-.03-.087 0-.051.033-.088.036-.04.084-.07.062-.043.133-.085.073-.043.141-.076.068-.037.124-.057.06-.022.1-.022.02 0 .04.006.021.006.04.022.018.017.03.054.013.034.016.093l.01.178.004.15q.003.07.003.149v.426q0 .116-.003.229l-.005.228q-.003.116-.009.243-.003.068-.014.104-.009.037-.025.057-.017.02-.04.022-.02.006-.048.006-.05 0-.085-.034-.034-.036-.04-.152z" word-spacing="0" letter-spacing="0" font-size="2.822" font-weight="400" aria-label="GATE 1" font-family="Sniglet" fill="#fff"/></g><rect rx=".99" ry=".99" y="44.516" x="3.642" height="3.043" width="8.425" fill="#333" stroke="#8c8c8c" stroke-width=".132" paint-order="stroke markers fill"/><g style="line-height:1.25"><path style="-inkscape-font-specification:'Sniglet, Normal';font-variant-ligatures:normal;font-variant-caps:normal;font-variant-numeric:normal;font-feature-settings:normal;text-align:start" d="M6.438 45.283q-.079.007-.17.009l-.194.006.006.143.005.133q.003.068.003.141.003.074.003.164v.245q0 .116-.003.235l-.006.234q-.002.118-.008.245-.003.068-.014.105-.009.037-.026.056-.017.02-.04.023-.022.006-.05.006-.05 0-.087-.034-.034-.037-.04-.152-.005-.102-.008-.215 0-.113-.003-.243t-.003-.279v-.606q.003-.116.01-.201h-.117q-.119 0-.203-.003-.082-.003-.136-.014-.053-.014-.079-.043-.022-.028-.022-.079 0-.025.005-.045.006-.022.026-.04.02-.02.053-.03.037-.012.093-.017l.096-.006.085-.006q.042-.003.087-.003h.105q.166 0 .313.003.15.003.316.011.068.006.105.017.036.008.056.025.02.017.023.04.005.022.005.05 0 .051-.036.085-.034.034-.15.04zm.482 1.541q-.005-.101-.008-.211 0-.11-.003-.237t-.003-.274v-.333q0-.2.003-.342.003-.143.017-.234.014-.09.042-.132.031-.043.082-.043.026 0 .048.006.023.006.04.026.017.017.028.053.014.034.017.09.006.102.008.181l.006.158q.003.076.003.161v.429q0 .116-.003.229l-.006.228q-.002.116-.008.243-.003.068-.014.104-.01.037-.028.057-.017.02-.04.022-.023.006-.05.006-.052 0-.088-.033-.037-.037-.043-.153zm.664-.254q-.006-.09-.01-.245-.007-.155-.007-.319v-.192l.006-.206q.005-.209.025-.327.023-.119.085-.178.065-.06.18-.073.116-.015.308-.015h.06q.06 0 .14.003.082 0 .17.003l.15.006q.061.006.098.017.04.008.06.026.02.014.025.036.005.02.005.046 0 .065-.036.096-.037.028-.15.036-.056.006-.166.008h-.22q-.113 0-.204.003H7.99q-.073.003-.104.034-.028.028-.028.138l.003.125q.005.096.005.27H8.1q.15 0 .243.007.096.003.147.016.054.015.073.046.02.03.02.081 0 .026-.006.048-.002.02-.022.037-.02.014-.057.026-.036.008-.104.014-.082.006-.155.008h-.378v.343q.002.06.005.097.003.045.012.076.01.031.036.05.028.02.08.03.053.007.14.007h.607q.1 0 .124.037.026.037.026.099 0 .05-.023.079-.022.025-.11.036-.085.014-.257.017-.17.003-.468.003-.127 0-.21-.022-.08-.023-.132-.077-.05-.053-.076-.138-.023-.087-.03-.212zm2.138-1.566q.29 0 .466.088.175.087.268.231.093.144.121.327.031.184.031.373 0 .206-.053.39-.05.183-.16.321-.108.136-.278.217-.169.08-.403.08-.187 0-.3-.029-.11-.025-.172-.079-.059-.053-.079-.135-.02-.082-.02-.192v-1.061q0-.122.02-.22.023-.1.085-.167.062-.07.175-.107.116-.037.3-.037zm.011 1.744q.175 0 .288-.062.116-.065.184-.17.068-.104.093-.236.028-.133.028-.271 0-.127-.02-.254-.02-.13-.08-.234-.064-.105-.179-.17-.116-.065-.308-.065-.175 0-.243.051-.067.05-.067.155v1.081q0 .088.062.133.065.042.242.042z" word-spacing="0" letter-spacing="0" font-size="2.822" font-weight="400" aria-label="TIED" font-family="Sniglet" fill="#fff"/></g><rect rx=".99" ry=".99" y="60.391" x="2.989" height="3.043" width="9.829" fill="#333" stroke="#8c8c8c" stroke-width=".132" paint-order="stroke markers fill"/><g style="line-height:1.25"><path style="-inkscape-font-specification:'Sniglet, Normal';font-variant-ligatures:normal;font-variant-caps:normal;font-variant-numeric:normal;font-feature-settings:normal;text-align:start" d="M5.286 60.882q.08 0 .18.014.105.011.196.045.09.031.152.085.062.05.062.127 0 .045-.025.076-.026.031-.082.031-.043 0-.088-.017-.042-.017-.099-.034-.053-.02-.127-.036-.07-.017-.166-.017-.186 0-.277.067-.087.065-.087.181 0 .08.04.133.04.053.104.093.068.037.15.062.084.025.172.048.098.025.194.062.1.037.175.096.076.06.122.15.048.09.048.228 0 .144-.054.26-.054.113-.147.194-.093.08-.223.125-.13.042-.282.042-.085 0-.197-.017-.113-.014-.215-.05-.102-.04-.172-.102-.07-.065-.07-.158 0-.057.028-.09.03-.035.09-.035.048 0 .08.02.03.017.052.04.085.073.192.099.108.025.22.025.065 0 .136-.008.073-.011.133-.042.06-.031.098-.088.04-.06.04-.158 0-.09-.037-.147-.034-.059-.093-.098-.06-.04-.14-.065-.08-.026-.173-.051-.105-.028-.206-.062-.102-.034-.18-.09-.08-.06-.13-.147-.049-.09-.049-.229 0-.138.051-.243.051-.104.138-.175.088-.07.207-.107.12-.037.26-.037zm1.236 1.205v.16q0 .069-.002.13 0 .063-.003.125l-.006.138q.195-.022.305-.036l.172-.023.1-.011q.036-.003.084-.003.124 0 .124.121 0 .048-.05.082-.049.034-.125.06-.074.022-.167.039-.09.014-.178.02-.084.007-.155.01-.067.004-.096.004-.1 0-.158-.015-.056-.01-.084-.073-.029-.065-.037-.195-.006-.13-.006-.367v-.406q0-.178.003-.319.003-.141.003-.251.003-.11.008-.2.006-.116.04-.15.034-.037.085-.037.028 0 .048.006.022.003.04.023.016.02.024.056.012.037.015.105.01.248.014.49.002.244.002.517zm1.04.612q-.006-.101-.009-.211 0-.11-.003-.237t-.003-.274v-.333q0-.2.003-.342.003-.143.017-.234.014-.09.042-.132.031-.043.082-.043.026 0 .048.006.023.006.04.026.017.017.028.053.014.034.017.09l.008.181.006.158q.003.076.003.161v.429q0 .116-.003.229l-.006.228-.008.243q-.003.068-.014.104-.012.037-.029.057-.017.02-.04.022-.022.006-.05.006-.05 0-.087-.033-.037-.037-.043-.153zm1.225-1.82q.29 0 .465.088.175.087.268.231.093.144.122.327.03.184.03.373 0 .206-.053.39-.05.183-.16.321-.108.136-.277.217-.17.08-.404.08-.186 0-.3-.029-.11-.025-.17-.079-.06-.053-.08-.135-.02-.082-.02-.192V61.41q0-.122.02-.22.022-.1.084-.167.063-.07.175-.107.116-.037.3-.037zm.01 1.744q.176 0 .29-.062.114-.065.182-.17.068-.104.093-.236.03-.133.03-.271 0-.127-.02-.254-.02-.13-.083-.234-.062-.105-.178-.17-.116-.065-.308-.065-.174 0-.242.051-.068.05-.068.155v1.081q0 .088.062.133.065.042.243.042zm1.175-.178l-.01-.245q-.007-.155-.007-.319v-.192l.006-.206q.006-.209.025-.327.023-.119.085-.178.065-.06.18-.073.116-.015.308-.015h.06q.06 0 .14.003.083 0 .17.003l.15.006q.062.006.098.017.04.008.06.026.02.014.025.036.006.02.006.046 0 .065-.037.096-.037.028-.15.036-.056.006-.166.008h-.22q-.113 0-.203.003h-.113q-.074.003-.105.034-.028.028-.028.138l.003.125q.005.096.005.27h.235q.15 0 .242.007.096.003.147.016.054.015.073.046.02.03.02.081 0 .026-.005.048-.003.02-.023.037-.02.014-.056.026-.037.008-.105.014-.082.006-.155.008h-.378v.343l.005.097q.003.045.012.076.011.031.036.05.03.02.08.03.053.007.14.007h.607q.1 0 .124.037.026.037.026.099 0 .05-.023.079-.022.025-.11.036-.084.014-.257.017-.169.003-.468.003-.127 0-.209-.022-.082-.023-.133-.077-.05-.053-.076-.138-.022-.087-.03-.212z" word-spacing="0" letter-spacing="0" font-size="2.822" font-weight="400" aria-label="SLIDE" font-family="Sniglet" fill="#fff"/></g><g style="line-height:1.25;-inkscape-font-specification:'Sniglet, Normal';font-variant-ligatures:normal;font-variant-caps:normal;font-variant-numeric:normal;font-feature-settings:normal;text-align:start"><path style="-inkscape-font-specification:'Sniglet, Normal';font-variant-ligatures:normal;font-variant-caps:normal;font-variant-numeric:normal;font-feature-settings:normal;text-align:start" d="M4.13 8.45q0 .093-.02.144-.015.05-.042.077-.024.027-.059.031-.03.008-.062.008-.104 0-.14-.046-.03-.047-.042-.21-.008-.085-.012-.248l-.008-.388q0-.225-.003-.497v-.574q0-.144.034-.291.035-.148.132-.268.101-.12.276-.194.178-.074.462-.074.198 0 .376.043.18.043.314.147.136.105.218.28.081.174.081.434 0 .272-.089.45-.09.179-.252.284-.163.105-.388.147-.225.043-.493.043h-.132q-.066 0-.148-.008zm1.117-1.634q0-.26-.147-.392-.144-.131-.48-.131-.129 0-.223.023-.089.02-.147.074-.058.05-.09.14-.026.089-.026.224v.303q0 .167.003.314.09.004.198.004h.21q.116 0 .24-.015.13-.016.23-.07.1-.058.166-.167.066-.113.066-.307zm1.571-.861q.11 0 .25.02.142.015.266.061.125.043.21.117.085.07.085.174 0 .063-.035.105-.035.043-.112.043-.058 0-.12-.023-.059-.024-.136-.047-.074-.027-.175-.05-.097-.024-.229-.024-.256 0-.38.093-.12.09-.12.249 0 .108.054.182t.143.128q.094.05.206.086.117.035.237.066.136.035.268.085.135.05.24.132.105.081.167.206.066.124.066.314 0 .198-.074.357-.073.155-.202.268-.128.108-.306.17-.179.059-.388.059-.117 0-.272-.024-.155-.019-.295-.07-.14-.054-.236-.14-.097-.088-.097-.217 0-.077.038-.124.043-.046.125-.046.066 0 .108.027.043.023.074.054.116.101.264.136.147.035.303.035.09 0 .186-.012.1-.015.182-.058.082-.043.136-.12.054-.082.054-.218 0-.124-.05-.201-.047-.082-.128-.136-.082-.054-.194-.09-.109-.034-.237-.07-.144-.038-.283-.085-.14-.046-.249-.124-.108-.081-.178-.202-.066-.124-.066-.314t.07-.334q.07-.143.19-.24t.283-.148q.167-.05.357-.05zm2.608 1.769q-.178.008-.41.016-.234.004-.552.004-.132 0-.225-.004t-.152-.02q-.058-.019-.085-.058-.027-.038-.027-.108 0-.035.008-.062.007-.032.034-.055.028-.023.074-.039.05-.019.128-.027l.101-.008q.047-.004.09-.004.042-.004.09-.004h.115q.21 0 .404.004.194 0 .403.012.093.008.144.023.05.012.077.035.028.023.031.054.008.031.008.07 0 .07-.05.117-.047.046-.206.054zm1.477-.05l-.579.896q-.054.086-.12.128-.062.047-.144.047-.1 0-.143-.05-.039-.047-.039-.12 0-.043.016-.09.02-.046.05-.089l.722-1.032-.722-1.033q-.03-.042-.05-.089-.016-.046-.016-.089 0-.074.04-.12.042-.05.142-.05.082 0 .144.046.066.042.12.128l.58.896.577-.896q.054-.086.116-.128.066-.047.148-.047.1 0 .14.05.042.047.042.121 0 .043-.02.09-.015.046-.046.088l-.722 1.033.722 1.032q.031.043.047.09.02.046.02.088 0 .074-.044.12-.039.051-.14.051-.08 0-.147-.047-.062-.042-.116-.128z" word-spacing="0" letter-spacing="0" font-size="3.881" font-weight="400" aria-label="PS-X" font-family="Sniglet"/></g></svg>