<?xml version="1.0" encoding="UTF-8" standalone="no"?>
<svg
   width="20.32mm"
   height="128.5mm"
   viewBox="0 0 20.32 128.50044"
   version="1.1"
   id="svg42"
   sodipodi:docname="PhraseSeqExpander.svg"
   inkscape:version="1.1 (c68e22c387, 2021-05-23)"
   xmlns:inkscape="http://www.inkscape.org/namespaces/inkscape"
   xmlns:sodipodi="http://sodipodi.sourceforge.net/DTD/sodipodi-0.dtd"
   xmlns="http://www.w3.org/2000/svg"
   xmlns:svg="http://www.w3.org/2000/svg"
   xmlns:rdf="http://www.w3.org/1999/02/22-rdf-syntax-ns#"
   xmlns:cc="http://creativecommons.org/ns#"
   xmlns:dc="http://purl.org/dc/elements/1.1/">
  <metadata
     id="metadata48">
    <rdf:RDF>
      <cc:Work
         rdf:about="">
        <dc:format>image/svg+xml</dc:format>
        <dc:type
           rdf:resource="http://purl.org/dc/dcmitype/StillImage" />
        <dc:title />
      </cc:Work>
    </rdf:RDF>
  </metadata>
  <defs
     id="defs46" />
  <sodipodi:namedview
     pagecolor="#ffffff"
     bordercolor="#666666"
     borderopacity="1"
     objecttolerance="10"
     gridtolerance="10"
     guidetolerance="10"
     inkscape:pageopacity="0"
     inkscape:pageshadow="2"
     inkscape:window-width="1920"
     inkscape:window-height="1057"
     id="namedview44"
     showgrid="false"
     inkscape:document-units="mm"
     units="mm"
     inkscape:zoom="2.4842106"
     inkscape:cx="76.68432"
     inkscape:cy="232.06567"
     inkscape:window-x="-8"
     inkscape:window-y="1072"
     inkscape:window-maximized="1"
     inkscape:current-layer="svg42"
     inkscape:pagecheckerboard="0" />
  <rect
     rx="0.98999995"
     ry="0.98999995"
     y="97.524582"
     x="3.3433714"
     height="3.8950534"
     width="13.646128"
     id="rect4"
     style="fill:#333333;stroke:#8c8c8c;stroke-width:0.132;paint-order:stroke markers fill" />
  <g
     style="line-height:1.25;stroke-width:0.78124732;fill:#dcdcdc;fill-opacity:1"
     id="g8"
     transform="matrix(1.2800044,0,0,1.2800044,0,-0.09623859)">
    <path
       style="font-weight:400;font-size:2.82200003px;font-family:Sniglet;-inkscape-font-specification:'Sniglet, Normal';font-variant-ligatures:normal;font-variant-caps:normal;font-variant-numeric:normal;font-feature-settings:normal;text-align:start;letter-spacing:0;word-spacing:0;fill:#dcdcdc;stroke-width:0.78124732;fill-opacity:1"
       d="m 5.124,78.258 q -0.13,-0.285 -0.23,-0.55 -0.1,-0.268 -0.17,-0.477 -0.066,0.35 -0.11,0.705 -0.043,0.356 -0.11,0.68 -0.018,0.074 -0.063,0.1 -0.045,0.022 -0.076,0.022 -0.05,0 -0.082,-0.031 -0.028,-0.031 -0.028,-0.08 0,-0.064 0.014,-0.197 l 0.04,-0.305 q 0.025,-0.169 0.056,-0.355 0.03,-0.186 0.062,-0.359 l 0.062,-0.316 q 0.031,-0.14 0.054,-0.217 0.036,-0.13 0.15,-0.13 0.067,0 0.115,0.068 0.048,0.065 0.101,0.203 0.057,0.136 0.133,0.344 0.08,0.21 0.203,0.492 0.122,-0.283 0.195,-0.489 0.076,-0.209 0.127,-0.344 0.054,-0.138 0.102,-0.203 0.048,-0.068 0.118,-0.068 0.065,0 0.1,0.034 0.033,0.031 0.05,0.096 0.02,0.079 0.048,0.22 0.028,0.138 0.06,0.31 0.033,0.17 0.064,0.356 0.031,0.186 0.056,0.356 0.026,0.169 0.04,0.307 0.017,0.136 0.017,0.21 0,0.044 -0.03,0.073 -0.032,0.025 -0.08,0.025 -0.03,0 -0.076,-0.023 Q 5.99,78.69 5.973,78.617 5.94,78.456 5.911,78.283 L 5.861,77.936 5.815,77.584 q -0.022,-0.178 -0.048,-0.353 -0.036,0.113 -0.084,0.248 -0.048,0.136 -0.102,0.274 -0.053,0.135 -0.11,0.268 -0.056,0.133 -0.11,0.24 -0.02,0.037 -0.054,0.056 -0.03,0.017 -0.065,0.017 -0.036,0 -0.07,-0.017 -0.03,-0.02 -0.048,-0.059 z m 2.05,0.508 q -0.169,0 -0.318,-0.068 -0.147,-0.067 -0.257,-0.194 -0.11,-0.13 -0.175,-0.317 -0.062,-0.186 -0.062,-0.423 0,-0.223 0.053,-0.41 0.057,-0.185 0.164,-0.32 0.11,-0.136 0.27,-0.21 0.162,-0.076 0.373,-0.076 0.173,0 0.328,0.062 0.155,0.062 0.27,0.187 0.12,0.124 0.187,0.31 0.068,0.186 0.068,0.435 0,0.206 -0.057,0.392 -0.053,0.186 -0.166,0.327 -0.11,0.139 -0.28,0.223 -0.169,0.082 -0.398,0.082 z M 7.18,78.501 q 0.155,0 0.271,-0.062 0.116,-0.065 0.192,-0.17 0.076,-0.104 0.113,-0.24 0.036,-0.138 0.036,-0.282 0,-0.175 -0.047,-0.31 Q 7.699,77.298 7.62,77.205 7.541,77.112 7.437,77.065 7.332,77.013 7.214,77.013 q -0.14,0 -0.248,0.06 -0.105,0.059 -0.178,0.16 -0.07,0.102 -0.107,0.24 -0.037,0.136 -0.037,0.291 0,0.167 0.042,0.305 0.043,0.135 0.113,0.231 0.073,0.096 0.172,0.15 0.1,0.05 0.21,0.05 z m 1.757,-1.758 q 0.29,0 0.466,0.087 0.175,0.087 0.268,0.231 0.093,0.144 0.121,0.328 0.031,0.183 0.031,0.372 0,0.206 -0.053,0.39 -0.05,0.183 -0.16,0.322 -0.109,0.135 -0.278,0.217 -0.17,0.079 -0.404,0.079 -0.186,0 -0.299,-0.028 -0.11,-0.026 -0.172,-0.08 -0.06,-0.053 -0.079,-0.135 -0.02,-0.082 -0.02,-0.192 v -1.06 q 0,-0.122 0.02,-0.221 0.023,-0.099 0.085,-0.167 0.062,-0.07 0.175,-0.107 0.116,-0.037 0.3,-0.037 z m 0.011,1.744 q 0.175,0 0.288,-0.062 0.116,-0.065 0.184,-0.17 0.067,-0.104 0.093,-0.237 0.028,-0.133 0.028,-0.27 0,-0.128 -0.02,-0.255 -0.02,-0.13 -0.082,-0.234 -0.062,-0.104 -0.177,-0.17 -0.116,-0.064 -0.308,-0.064 -0.175,0 -0.243,0.05 -0.068,0.051 -0.068,0.156 v 1.08 q 0,0.088 0.063,0.133 0.064,0.043 0.242,0.043 z m 1.175,-0.178 q -0.006,-0.09 -0.012,-0.246 -0.005,-0.155 -0.005,-0.319 v -0.192 l 0.005,-0.206 q 0.006,-0.208 0.026,-0.327 0.022,-0.118 0.084,-0.178 0.065,-0.06 0.181,-0.073 0.116,-0.014 0.308,-0.014 h 0.06 q 0.06,0 0.14,0.003 0.082,0 0.17,0.003 l 0.15,0.006 q 0.061,0.006 0.098,0.017 0.04,0.008 0.06,0.025 0.02,0.014 0.024,0.037 0.006,0.02 0.006,0.045 0,0.065 -0.037,0.096 -0.036,0.028 -0.15,0.037 -0.056,0.006 -0.166,0.008 h -0.22 q -0.113,0 -0.203,0.003 h -0.113 q -0.073,0.003 -0.104,0.034 -0.029,0.028 -0.029,0.138 l 0.003,0.124 q 0.006,0.096 0.006,0.27 h 0.234 q 0.15,0 0.243,0.007 0.096,0.003 0.147,0.017 0.053,0.014 0.073,0.045 0.02,0.031 0.02,0.082 0,0.025 -0.006,0.048 -0.003,0.02 -0.023,0.037 -0.02,0.014 -0.056,0.025 -0.037,0.008 -0.104,0.014 -0.082,0.006 -0.156,0.008 H 10.4 v 0.344 l 0.006,0.096 q 0.003,0.046 0.011,0.077 0.011,0.03 0.037,0.05 0.028,0.02 0.08,0.029 0.052,0.008 0.14,0.008 h 0.607 q 0.098,0 0.124,0.036 0.025,0.037 0.025,0.1 0,0.05 -0.022,0.078 -0.023,0.025 -0.11,0.037 -0.085,0.014 -0.257,0.017 -0.17,0.003 -0.469,0.003 -0.127,0 -0.209,-0.023 -0.08,-0.023 -0.132,-0.076 -0.05,-0.054 -0.076,-0.138 -0.023,-0.088 -0.03,-0.212 z"
       word-spacing="0"
       letter-spacing="0"
       font-size="2.822"
       font-weight="400"
       aria-label="MODE"
       id="path6"
       inkscape:connector-curvature="0" />
  </g>
  <g
     style="line-height:1.25;stroke-width:0.78124732;fill:#232323;fill-opacity:1"
     id="g12"
     transform="matrix(1.2800044,0,0,1.2800044,0,-0.09623859)">
    <path
       word-spacing="0"
       letter-spacing="0"
       font-weight="400"
       aria-label="♫"
       font-size="3.528"
       style="font-weight:400;font-size:3.52800012px;font-family:Arial;-inkscape-font-specification:'Arial, Normal';font-variant-ligatures:normal;font-variant-caps:normal;font-variant-numeric:normal;font-feature-settings:normal;text-align:start;letter-spacing:0;word-spacing:0;fill:#232323;stroke-width:0.78124732;fill-opacity:1"
       d="m 8.664,93.893 -1.63,0.115 v -2.06 q 0,-0.23 0.065,-0.333 0.063,-0.104 0.22,-0.147 0.152,-0.043 0.347,-0.002 0.223,0.047 0.357,0.19 0.133,0.146 0.133,0.33 0,0.186 -0.158,0.286 Q 7.84,92.375 7.59,92.322 7.508,92.304 7.447,92.278 7.383,92.252 7.242,92.168 v 1.345 l 1.22,-0.085 v -1.554 q 0,-0.224 0.064,-0.337 0.066,-0.11 0.226,-0.15 0.16,-0.041 0.348,-0.001 0.223,0.047 0.355,0.19 0.13,0.14 0.13,0.325 0,0.195 -0.157,0.294 -0.156,0.1 -0.408,0.047 -0.16,-0.034 -0.356,-0.16 z"
       id="path10"
       inkscape:connector-curvature="0" />
  </g>
  <rect
     rx="0.98999995"
     ry="0.98999995"
     y="36.564365"
     x="2.7763295"
     height="3.8950534"
     width="14.703411"
     id="rect14"
     style="fill:#333333;stroke:#8c8c8c;stroke-width:0.132;paint-order:stroke markers fill" />
  <g
     style="line-height:1.25;stroke-width:0.78124732;fill:#dcdcdc;fill-opacity:1"
     id="g18"
     transform="matrix(1.2800044,0,0,1.2800044,0,-0.09623859)">
    <path
       style="font-weight:400;font-size:2.82200003px;font-family:Sniglet;-inkscape-font-specification:'Sniglet, Normal';font-variant-ligatures:normal;font-variant-caps:normal;font-variant-numeric:normal;font-feature-settings:normal;text-align:start;letter-spacing:0;word-spacing:0;fill:#dcdcdc;stroke-width:0.78124732;fill-opacity:1"
       d="m 4.683,29.126 q 0.093,0 0.192,0.017 0.1,0.017 0.18,0.051 0.082,0.031 0.136,0.079 0.053,0.048 0.053,0.11 0,0.065 -0.033,0.099 -0.034,0.034 -0.085,0.034 -0.048,0 -0.09,-0.017 l -0.09,-0.037 q -0.05,-0.02 -0.122,-0.037 -0.07,-0.016 -0.178,-0.016 -0.118,0 -0.223,0.056 -0.1,0.054 -0.18,0.152 -0.08,0.096 -0.125,0.23 -0.045,0.132 -0.045,0.287 0,0.189 0.048,0.327 0.048,0.139 0.124,0.229 0.08,0.09 0.175,0.135 0.1,0.043 0.198,0.043 0.16,0 0.254,-0.046 0.096,-0.048 0.152,-0.12 0.003,-0.06 0.003,-0.142 v -0.178 q 0,-0.036 -0.005,-0.056 Q 5.016,30.303 4.993,30.292 4.971,30.281 4.926,30.278 4.883,30.275 4.81,30.275 q -0.09,0 -0.147,-0.023 -0.056,-0.025 -0.056,-0.104 0,-0.057 0.028,-0.09 0.031,-0.037 0.124,-0.043 h 0.054 q 0.04,-0.003 0.082,-0.003 H 5.05 q 0.084,0 0.135,0.017 0.051,0.014 0.09,0.068 0.02,0.028 0.023,0.099 0.006,0.07 0.006,0.163 v 0.728 q 0,0.077 -0.043,0.113 -0.04,0.037 -0.093,0.037 -0.065,0 -0.107,-0.034 -0.04,-0.03 -0.04,-0.101 v -0.11 Q 4.948,31.076 4.847,31.112 4.747,31.15 4.595,31.15 4.44,31.15 4.291,31.087 4.141,31.025 4.025,30.904 3.91,30.78 3.836,30.596 3.766,30.41 3.766,30.165 q 0,-0.246 0.07,-0.438 0.074,-0.192 0.198,-0.324 0.124,-0.136 0.29,-0.206 0.167,-0.071 0.36,-0.071 z M 6.796,30.981 6.734,30.825 Q 6.704,30.735 6.666,30.636 L 6.488,30.642 H 6.08 q -0.099,0 -0.18,-0.003 l -0.065,0.186 q -0.03,0.088 -0.06,0.156 -0.056,0.144 -0.163,0.144 -0.04,0 -0.076,-0.026 -0.034,-0.025 -0.034,-0.073 0,-0.048 0.017,-0.124 0.017,-0.08 0.042,-0.167 0.028,-0.09 0.06,-0.183 0.03,-0.096 0.058,-0.178 0.03,-0.09 0.08,-0.229 l 0.112,-0.293 0.12,-0.3 0.106,-0.259 q 0.011,-0.028 0.028,-0.062 0.017,-0.037 0.04,-0.068 0.025,-0.03 0.053,-0.053 0.032,-0.023 0.068,-0.023 0.037,0 0.068,0.025 0.031,0.023 0.054,0.057 0.025,0.034 0.042,0.07 0.02,0.037 0.03,0.065 0.046,0.113 0.103,0.26 0.06,0.147 0.115,0.296 0.06,0.15 0.11,0.285 0.051,0.136 0.082,0.229 l 0.057,0.175 q 0.033,0.093 0.062,0.183 0.028,0.09 0.045,0.17 0.02,0.076 0.02,0.124 0,0.048 -0.037,0.073 -0.034,0.026 -0.073,0.026 -0.05,0 -0.094,-0.034 -0.042,-0.037 -0.073,-0.11 z m -0.5,-0.621 q 0.068,0 0.136,0.003 0.068,0 0.135,0.003 L 6.5,30.168 6.435,29.979 Q 6.407,29.889 6.381,29.812 L 6.341,29.674 Q 6.331,29.637 6.316,29.614 6.302,29.592 6.28,29.592 q -0.023,0 -0.037,0.026 -0.014,0.022 -0.025,0.059 -0.034,0.116 -0.096,0.302 L 5.995,30.366 Q 6.071,30.363 6.147,30.363 6.223,30.36 6.297,30.36 Z m 1.876,-0.951 q -0.079,0.006 -0.17,0.008 l -0.194,0.006 0.006,0.143 0.005,0.133 q 0.003,0.068 0.003,0.141 0.003,0.074 0.003,0.164 v 0.245 q 0,0.116 -0.003,0.235 l -0.006,0.234 q -0.002,0.118 -0.008,0.245 -0.003,0.068 -0.014,0.105 -0.009,0.037 -0.026,0.056 -0.017,0.02 -0.04,0.023 -0.022,0.006 -0.05,0.006 -0.05,0 -0.087,-0.034 Q 7.557,31.082 7.551,30.967 7.546,30.865 7.543,30.752 7.543,30.639 7.54,30.509 7.537,30.379 7.537,30.23 V 29.624 Q 7.54,29.508 7.547,29.423 H 7.43 Q 7.311,29.423 7.227,29.42 7.145,29.417 7.091,29.406 7.038,29.392 7.012,29.363 6.99,29.335 6.99,29.284 q 0,-0.025 0.005,-0.045 0.006,-0.022 0.026,-0.04 0.02,-0.02 0.053,-0.03 0.037,-0.012 0.093,-0.017 L 7.263,29.146 7.348,29.14 Q 7.39,29.137 7.435,29.137 H 7.54 q 0.166,0 0.313,0.003 0.15,0.003 0.316,0.011 0.068,0.006 0.105,0.017 0.036,0.008 0.056,0.025 0.02,0.017 0.023,0.04 0.005,0.022 0.005,0.05 0,0.051 -0.036,0.085 -0.034,0.034 -0.15,0.04 z m 0.402,1.286 Q 8.568,30.605 8.564,30.45 8.557,30.295 8.557,30.131 v -0.192 l 0.006,-0.206 q 0.005,-0.209 0.025,-0.327 0.023,-0.119 0.085,-0.178 0.065,-0.06 0.18,-0.073 0.116,-0.015 0.308,-0.015 h 0.06 q 0.06,0 0.14,0.003 0.082,0 0.17,0.003 l 0.15,0.006 q 0.061,0.006 0.098,0.017 0.04,0.008 0.06,0.026 0.02,0.014 0.025,0.036 0.005,0.02 0.005,0.046 0,0.065 -0.036,0.096 -0.037,0.028 -0.15,0.036 -0.056,0.006 -0.166,0.008 h -0.22 q -0.113,0 -0.204,0.003 H 8.98 q -0.073,0.003 -0.104,0.034 -0.028,0.028 -0.028,0.138 l 0.002,0.125 q 0.006,0.096 0.006,0.27 H 9.09 q 0.15,0 0.243,0.007 0.096,0.003 0.147,0.016 0.053,0.015 0.073,0.046 0.02,0.03 0.02,0.081 0,0.026 -0.006,0.048 -0.002,0.02 -0.022,0.037 -0.02,0.014 -0.057,0.026 -0.036,0.008 -0.104,0.014 -0.082,0.006 -0.155,0.008 H 8.85 v 0.343 l 0.006,0.097 q 0.003,0.045 0.011,0.076 0.012,0.031 0.037,0.05 0.028,0.02 0.08,0.03 0.053,0.007 0.14,0.007 h 0.607 q 0.1,0 0.124,0.037 0.026,0.037 0.026,0.099 0,0.05 -0.023,0.079 -0.023,0.025 -0.11,0.036 -0.085,0.014 -0.257,0.017 -0.17,0.003 -0.468,0.003 -0.127,0 -0.21,-0.022 Q 8.733,31.099 8.681,31.045 8.631,30.992 8.605,30.907 8.582,30.82 8.575,30.695 Z M 11.31,29.42 q -0.1,0 -0.169,0.022 -0.068,0.02 -0.113,0.054 -0.045,0.034 -0.073,0.07 l -0.05,0.071 q -0.024,0.034 -0.05,0.057 -0.027,0.02 -0.067,0.02 -0.068,0 -0.096,-0.035 -0.025,-0.036 -0.025,-0.096 0,-0.124 0.093,-0.231 0.028,-0.034 0.076,-0.07 0.051,-0.04 0.12,-0.071 0.07,-0.031 0.16,-0.05 0.093,-0.023 0.21,-0.023 0.306,0 0.475,0.15 0.17,0.149 0.17,0.42 0,0.053 -0.012,0.118 -0.008,0.065 -0.036,0.136 -0.026,0.07 -0.074,0.146 -0.048,0.077 -0.127,0.156 -0.07,0.07 -0.15,0.13 -0.078,0.059 -0.163,0.118 l -0.178,0.127 q -0.09,0.065 -0.183,0.15 0.09,0.048 0.195,0.062 0.104,0.014 0.234,0.014 0.121,0 0.195,-0.006 0.073,-0.006 0.118,-0.014 l 0.07,-0.014 q 0.026,-0.006 0.054,-0.006 0.105,0 0.105,0.095 0,0.085 -0.07,0.13 -0.07,0.045 -0.17,0.068 -0.099,0.02 -0.203,0.023 -0.105,0.006 -0.173,0.006 -0.036,0 -0.104,-0.006 -0.065,-0.003 -0.14,-0.015 -0.077,-0.01 -0.156,-0.03 -0.077,-0.023 -0.14,-0.057 -0.064,-0.037 -0.103,-0.087 -0.04,-0.054 -0.04,-0.127 0,-0.1 0.071,-0.187 0.073,-0.09 0.18,-0.175 0.108,-0.087 0.232,-0.172 0.124,-0.087 0.232,-0.178 0.107,-0.093 0.177,-0.192 0.074,-0.098 0.074,-0.214 0,-0.144 -0.1,-0.215 -0.095,-0.073 -0.276,-0.073 z"
       word-spacing="0"
       letter-spacing="0"
       font-size="2.822"
       font-weight="400"
       aria-label="GATE 2"
       id="path16"
       inkscape:connector-curvature="0" />
  </g>
  <rect
     rx="0.98999995"
     ry="0.98999995"
     y="16.244297"
     x="3.2358513"
     height="3.8950534"
     width="13.728047"
     id="rect20"
     style="fill:#333333;stroke:#8c8c8c;stroke-width:0.132;paint-order:stroke markers fill" />
  <g
     style="line-height:1.25;stroke-width:0.78124732;fill:#dcdcdc;fill-opacity:1"
     id="g24"
     transform="matrix(1.2800044,0,0,1.2800044,0,-0.09623859)">
    <path
       style="font-weight:400;font-size:2.82200003px;font-family:Sniglet;-inkscape-font-specification:'Sniglet, Normal';font-variant-ligatures:normal;font-variant-caps:normal;font-variant-numeric:normal;font-feature-settings:normal;text-align:start;letter-spacing:0;word-spacing:0;fill:#dcdcdc;stroke-width:0.78124732;fill-opacity:1"
       d="m 5.045,13.232 q 0.093,0 0.192,0.017 0.1,0.017 0.18,0.05 0.083,0.032 0.136,0.08 0.054,0.047 0.054,0.11 0,0.064 -0.034,0.098 -0.034,0.034 -0.085,0.034 -0.048,0 -0.09,-0.017 l -0.09,-0.036 q -0.05,-0.02 -0.122,-0.037 -0.07,-0.017 -0.177,-0.017 -0.119,0 -0.223,0.056 -0.102,0.054 -0.18,0.153 -0.08,0.096 -0.125,0.228 -0.045,0.133 -0.045,0.288 0,0.19 0.048,0.328 0.048,0.138 0.124,0.228 0.08,0.09 0.175,0.136 0.1,0.042 0.197,0.042 0.161,0 0.254,-0.045 Q 5.33,14.88 5.387,14.807 5.39,14.747 5.39,14.665 V 14.488 Q 5.39,14.451 5.384,14.431 5.378,14.409 5.356,14.397 5.333,14.386 5.288,14.383 5.246,14.38 5.172,14.38 q -0.09,0 -0.147,-0.022 -0.056,-0.026 -0.056,-0.105 0,-0.056 0.028,-0.09 0.031,-0.037 0.124,-0.042 h 0.054 q 0.04,-0.003 0.082,-0.003 h 0.155 q 0.085,0 0.136,0.017 0.05,0.014 0.09,0.067 0.02,0.028 0.022,0.099 0.006,0.07 0.006,0.164 v 0.728 q 0,0.076 -0.042,0.113 -0.04,0.036 -0.093,0.036 -0.065,0 -0.108,-0.033 -0.04,-0.031 -0.04,-0.102 v -0.11 q -0.073,0.085 -0.174,0.121 -0.099,0.037 -0.25,0.037 -0.157,0 -0.306,-0.062 -0.15,-0.062 -0.265,-0.184 -0.116,-0.124 -0.19,-0.307 -0.07,-0.187 -0.07,-0.432 0,-0.246 0.07,-0.438 0.074,-0.191 0.198,-0.324 0.124,-0.136 0.29,-0.206 0.167,-0.07 0.36,-0.07 z m 2.113,1.854 -0.062,-0.155 q -0.03,-0.09 -0.067,-0.19 l -0.178,0.007 h -0.41 q -0.098,0 -0.18,-0.003 l -0.065,0.186 q -0.03,0.087 -0.06,0.155 -0.056,0.144 -0.163,0.144 -0.04,0 -0.076,-0.025 -0.034,-0.026 -0.034,-0.074 0,-0.048 0.017,-0.124 0.017,-0.079 0.042,-0.166 0.028,-0.09 0.06,-0.184 0.03,-0.096 0.06,-0.178 0.027,-0.09 0.078,-0.228 0.053,-0.141 0.113,-0.294 l 0.118,-0.299 q 0.06,-0.15 0.107,-0.26 l 0.03,-0.062 q 0.016,-0.036 0.04,-0.067 0.024,-0.031 0.052,-0.054 0.03,-0.023 0.068,-0.023 0.036,0 0.067,0.026 0.031,0.022 0.054,0.056 0.025,0.034 0.042,0.07 0.02,0.037 0.031,0.066 l 0.102,0.26 q 0.06,0.146 0.116,0.296 0.06,0.15 0.11,0.285 0.05,0.135 0.082,0.228 0.025,0.082 0.056,0.175 0.034,0.093 0.062,0.184 0.028,0.09 0.045,0.17 0.02,0.075 0.02,0.123 0,0.048 -0.037,0.074 -0.034,0.025 -0.073,0.025 -0.05,0 -0.093,-0.034 -0.043,-0.037 -0.074,-0.11 z m -0.5,-0.621 q 0.07,0 0.136,0.003 0.068,0 0.136,0.003 L 6.862,14.273 6.797,14.084 6.744,13.918 6.704,13.78 Q 6.694,13.743 6.679,13.72 6.665,13.698 6.642,13.698 q -0.023,0 -0.037,0.025 -0.014,0.023 -0.025,0.06 -0.034,0.115 -0.096,0.301 l -0.127,0.387 q 0.076,-0.003 0.152,-0.003 0.076,-0.003 0.15,-0.003 z M 8.534,13.514 Q 8.455,13.52 8.365,13.522 l -0.195,0.006 0.006,0.144 0.006,0.133 q 0.002,0.067 0.002,0.14 0.003,0.074 0.003,0.164 v 0.246 q 0,0.116 -0.003,0.234 L 8.179,14.823 Q 8.176,14.942 8.17,15.069 8.167,15.137 8.156,15.173 8.148,15.21 8.131,15.23 q -0.017,0.02 -0.04,0.022 -0.022,0.006 -0.05,0.006 -0.05,0 -0.088,-0.034 -0.034,-0.036 -0.04,-0.152 -0.005,-0.102 -0.008,-0.214 0,-0.113 -0.003,-0.243 -0.003,-0.13 -0.003,-0.28 v -0.606 q 0.003,-0.116 0.01,-0.2 H 7.792 q -0.118,0 -0.203,-0.004 Q 7.507,13.522 7.453,13.511 7.4,13.497 7.374,13.469 7.352,13.441 7.352,13.389 q 0,-0.025 0.005,-0.044 0.006,-0.023 0.026,-0.04 0.02,-0.02 0.054,-0.03 0.036,-0.012 0.093,-0.018 L 7.626,13.251 7.71,13.245 q 0.043,-0.003 0.088,-0.003 h 0.104 q 0.167,0 0.313,0.003 0.15,0.003 0.317,0.012 0.067,0.006 0.104,0.016 0.037,0.008 0.056,0.026 0.02,0.017 0.023,0.04 0.006,0.022 0.006,0.05 0,0.051 -0.037,0.085 -0.034,0.034 -0.15,0.04 z m 0.402,1.287 -0.01,-0.246 Q 8.919,14.4 8.919,14.236 V 14.045 L 8.925,13.839 Q 8.931,13.629 8.95,13.511 8.973,13.393 9.035,13.333 9.1,13.274 9.215,13.26 9.331,13.246 9.523,13.246 h 0.06 q 0.06,0 0.14,0.003 0.083,0 0.17,0.003 l 0.15,0.006 q 0.062,0.006 0.098,0.017 0.04,0.008 0.06,0.025 0.02,0.014 0.025,0.037 0.006,0.02 0.006,0.045 0,0.065 -0.037,0.096 -0.037,0.028 -0.15,0.037 -0.056,0.006 -0.166,0.008 h -0.22 q -0.113,0 -0.203,0.003 H 9.343 Q 9.269,13.529 9.238,13.56 9.21,13.588 9.21,13.698 l 0.003,0.124 q 0.005,0.096 0.005,0.271 h 0.235 q 0.15,0 0.242,0.006 0.096,0.003 0.147,0.017 0.054,0.014 0.074,0.045 0.02,0.031 0.02,0.082 0,0.025 -0.006,0.048 -0.003,0.02 -0.023,0.037 -0.02,0.014 -0.056,0.025 -0.037,0.008 -0.105,0.014 -0.082,0.006 -0.155,0.008 H 9.213 v 0.345 l 0.005,0.096 q 0.003,0.045 0.012,0.076 0.011,0.03 0.036,0.05 0.03,0.02 0.08,0.029 0.053,0.008 0.14,0.008 h 0.607 q 0.1,0 0.125,0.036 0.025,0.037 0.025,0.1 0,0.05 -0.023,0.078 -0.022,0.026 -0.11,0.037 -0.084,0.014 -0.257,0.017 Q 9.684,15.25 9.385,15.25 9.258,15.25 9.176,15.227 9.094,15.205 9.043,15.151 8.993,15.097 8.967,15.013 8.945,14.925 8.937,14.801 Z m 2.528,0.254 Q 11.458,14.953 11.455,14.843 L 11.453,14.606 Q 11.45,14.479 11.45,14.332 v -0.685 l -0.17,0.087 q -0.07,0.045 -0.112,0.054 -0.04,0.008 -0.088,0.008 -0.042,0 -0.076,-0.037 -0.03,-0.037 -0.03,-0.087 0,-0.051 0.033,-0.088 0.036,-0.04 0.084,-0.07 0.062,-0.043 0.133,-0.085 0.073,-0.043 0.141,-0.076 0.068,-0.037 0.124,-0.057 0.06,-0.022 0.1,-0.022 0.02,0 0.04,0.006 0.021,0.006 0.04,0.022 0.018,0.017 0.03,0.054 0.013,0.034 0.016,0.093 l 0.01,0.178 0.004,0.15 q 0.003,0.07 0.003,0.149 v 0.426 q 0,0.116 -0.003,0.229 l -0.005,0.228 q -0.003,0.116 -0.009,0.243 -0.003,0.068 -0.014,0.104 -0.009,0.037 -0.025,0.057 -0.017,0.02 -0.04,0.022 -0.02,0.006 -0.048,0.006 -0.05,0 -0.085,-0.034 -0.034,-0.036 -0.04,-0.152 z"
       word-spacing="0"
       letter-spacing="0"
       font-size="2.822"
       font-weight="400"
       aria-label="GATE 1"
       id="path22"
       inkscape:connector-curvature="0" />
  </g>
  <rect
     rx="0.98999995"
     ry="0.98999995"
     y="56.884434"
     x="4.6617761"
     height="3.8950534"
     width="10.784038"
     id="rect26"
     style="fill:#333333;stroke:#8c8c8c;stroke-width:0.132;paint-order:stroke markers fill" />
  <g
     style="line-height:1.25;stroke-width:0.78124732;fill:#dcdcdc;fill-opacity:1"
     id="g30"
     transform="matrix(1.2800044,0,0,1.2800044,0,-0.09623859)">
    <path
       style="font-weight:400;font-size:2.82200003px;font-family:Sniglet;-inkscape-font-specification:'Sniglet, Normal';font-variant-ligatures:normal;font-variant-caps:normal;font-variant-numeric:normal;font-feature-settings:normal;text-align:start;letter-spacing:0;word-spacing:0;fill:#dcdcdc;stroke-width:0.78124732;fill-opacity:1"
       d="m 6.438,45.283 q -0.079,0.007 -0.17,0.009 l -0.194,0.006 0.006,0.143 0.005,0.133 q 0.003,0.068 0.003,0.141 0.003,0.074 0.003,0.164 v 0.245 q 0,0.116 -0.003,0.235 L 6.082,46.593 Q 6.08,46.711 6.074,46.838 6.071,46.906 6.06,46.943 6.051,46.98 6.034,46.999 q -0.017,0.02 -0.04,0.023 -0.022,0.006 -0.05,0.006 -0.05,0 -0.087,-0.034 -0.034,-0.037 -0.04,-0.152 -0.005,-0.102 -0.008,-0.215 0,-0.113 -0.003,-0.243 -0.003,-0.13 -0.003,-0.279 v -0.606 q 0.003,-0.116 0.01,-0.201 H 5.696 q -0.119,0 -0.203,-0.003 Q 5.411,45.292 5.357,45.281 5.304,45.267 5.278,45.238 5.256,45.21 5.256,45.159 q 0,-0.025 0.005,-0.045 0.006,-0.022 0.026,-0.04 0.02,-0.02 0.053,-0.03 0.037,-0.012 0.093,-0.017 l 0.096,-0.006 0.085,-0.006 q 0.042,-0.003 0.087,-0.003 h 0.105 q 0.166,0 0.313,0.003 0.15,0.003 0.316,0.011 0.068,0.006 0.105,0.017 0.036,0.008 0.056,0.025 0.02,0.017 0.023,0.04 0.005,0.022 0.005,0.05 0,0.051 -0.036,0.085 -0.034,0.034 -0.15,0.04 z m 0.482,1.541 q -0.005,-0.101 -0.008,-0.211 0,-0.11 -0.003,-0.237 -0.003,-0.127 -0.003,-0.274 v -0.333 q 0,-0.2 0.003,-0.342 0.003,-0.143 0.017,-0.234 0.014,-0.09 0.042,-0.132 0.031,-0.043 0.082,-0.043 0.026,0 0.048,0.006 0.023,0.006 0.04,0.026 0.017,0.017 0.028,0.053 0.014,0.034 0.017,0.09 0.006,0.102 0.008,0.181 l 0.006,0.158 Q 7.2,45.608 7.2,45.693 v 0.429 q 0,0.116 -0.003,0.229 l -0.006,0.228 q -0.002,0.116 -0.008,0.243 -0.003,0.068 -0.014,0.104 -0.01,0.037 -0.028,0.057 -0.017,0.02 -0.04,0.022 -0.023,0.006 -0.05,0.006 -0.052,0 -0.088,-0.033 Q 6.926,46.941 6.92,46.825 Z M 7.584,46.57 Q 7.578,46.48 7.574,46.325 7.567,46.17 7.567,46.006 v -0.192 l 0.006,-0.206 q 0.005,-0.209 0.025,-0.327 0.023,-0.119 0.085,-0.178 0.065,-0.06 0.18,-0.073 0.116,-0.015 0.308,-0.015 h 0.06 q 0.06,0 0.14,0.003 0.082,0 0.17,0.003 l 0.15,0.006 q 0.061,0.006 0.098,0.017 0.04,0.008 0.06,0.026 0.02,0.014 0.025,0.036 0.005,0.02 0.005,0.046 0,0.065 -0.036,0.096 -0.037,0.028 -0.15,0.036 -0.056,0.006 -0.166,0.008 h -0.22 q -0.113,0 -0.204,0.003 H 7.99 q -0.073,0.003 -0.104,0.034 -0.028,0.028 -0.028,0.138 l 0.003,0.125 q 0.005,0.096 0.005,0.27 H 8.1 q 0.15,0 0.243,0.007 0.096,0.003 0.147,0.016 0.054,0.015 0.073,0.046 0.02,0.03 0.02,0.081 0,0.026 -0.006,0.048 -0.002,0.02 -0.022,0.037 -0.02,0.014 -0.057,0.026 -0.036,0.008 -0.104,0.014 -0.082,0.006 -0.155,0.008 H 7.861 v 0.343 q 0.002,0.06 0.005,0.097 0.003,0.045 0.012,0.076 0.01,0.031 0.036,0.05 0.028,0.02 0.08,0.03 0.053,0.007 0.14,0.007 h 0.607 q 0.1,0 0.124,0.037 0.026,0.037 0.026,0.099 0,0.05 -0.023,0.079 -0.022,0.025 -0.11,0.036 -0.085,0.014 -0.257,0.017 -0.17,0.003 -0.468,0.003 -0.127,0 -0.21,-0.022 Q 7.743,46.974 7.691,46.92 7.641,46.867 7.615,46.782 7.592,46.695 7.585,46.57 Z m 2.138,-1.566 q 0.29,0 0.466,0.088 0.175,0.087 0.268,0.231 0.093,0.144 0.121,0.327 0.031,0.184 0.031,0.373 0,0.206 -0.053,0.39 -0.05,0.183 -0.16,0.321 -0.108,0.136 -0.278,0.217 -0.169,0.08 -0.403,0.08 -0.187,0 -0.3,-0.029 Q 9.304,46.977 9.242,46.923 9.183,46.87 9.163,46.788 9.143,46.706 9.143,46.596 v -1.061 q 0,-0.122 0.02,-0.22 0.023,-0.1 0.085,-0.167 0.062,-0.07 0.175,-0.107 0.116,-0.037 0.3,-0.037 z m 0.011,1.744 q 0.175,0 0.288,-0.062 0.116,-0.065 0.184,-0.17 0.068,-0.104 0.093,-0.236 0.028,-0.133 0.028,-0.271 0,-0.127 -0.02,-0.254 -0.02,-0.13 -0.08,-0.234 -0.064,-0.105 -0.179,-0.17 -0.116,-0.065 -0.308,-0.065 -0.175,0 -0.243,0.051 -0.067,0.05 -0.067,0.155 v 1.081 q 0,0.088 0.062,0.133 0.065,0.042 0.242,0.042 z"
       word-spacing="0"
       letter-spacing="0"
       font-size="2.822"
       font-weight="400"
       aria-label="TIED"
       id="path28"
       inkscape:connector-curvature="0" />
  </g>
  <rect
     rx="0.98999995"
     ry="0.98999995"
     y="77.204506"
     x="3.8259332"
     height="3.8950534"
     width="12.581163"
     id="rect32"
     style="fill:#333333;stroke:#8c8c8c;stroke-width:0.132;paint-order:stroke markers fill" />
  <g
     style="line-height:1.25;stroke-width:0.78124732;fill:#dcdcdc;fill-opacity:1"
     id="g36"
     transform="matrix(1.2800044,0,0,1.2800044,0,-0.09623859)">
    <path
       style="font-weight:400;font-size:2.82200003px;font-family:Sniglet;-inkscape-font-specification:'Sniglet, Normal';font-variant-ligatures:normal;font-variant-caps:normal;font-variant-numeric:normal;font-feature-settings:normal;text-align:start;letter-spacing:0;word-spacing:0;fill:#dcdcdc;stroke-width:0.78124732;fill-opacity:1"
       d="m 5.286,60.882 q 0.08,0 0.18,0.014 0.105,0.011 0.196,0.045 0.09,0.031 0.152,0.085 0.062,0.05 0.062,0.127 0,0.045 -0.025,0.076 -0.026,0.031 -0.082,0.031 -0.043,0 -0.088,-0.017 -0.042,-0.017 -0.099,-0.034 -0.053,-0.02 -0.127,-0.036 -0.07,-0.017 -0.166,-0.017 -0.186,0 -0.277,0.067 -0.087,0.065 -0.087,0.181 0,0.08 0.04,0.133 0.04,0.053 0.104,0.093 0.068,0.037 0.15,0.062 0.084,0.025 0.172,0.048 0.098,0.025 0.194,0.062 0.1,0.037 0.175,0.096 0.076,0.06 0.122,0.15 0.048,0.09 0.048,0.228 0,0.144 -0.054,0.26 -0.054,0.113 -0.147,0.194 -0.093,0.08 -0.223,0.125 -0.13,0.042 -0.282,0.042 -0.085,0 -0.197,-0.017 Q 4.914,62.866 4.812,62.83 4.71,62.79 4.64,62.728 4.57,62.663 4.57,62.57 q 0,-0.057 0.028,-0.09 0.03,-0.035 0.09,-0.035 0.048,0 0.08,0.02 0.03,0.017 0.052,0.04 0.085,0.073 0.192,0.099 0.108,0.025 0.22,0.025 0.065,0 0.136,-0.008 0.073,-0.011 0.133,-0.042 0.06,-0.031 0.098,-0.088 0.04,-0.06 0.04,-0.158 0,-0.09 -0.037,-0.147 Q 5.568,62.127 5.509,62.088 5.449,62.048 5.369,62.023 5.289,61.997 5.196,61.972 5.091,61.944 4.99,61.91 4.888,61.876 4.81,61.82 4.73,61.76 4.68,61.673 4.631,61.583 4.631,61.444 q 0,-0.138 0.051,-0.243 0.051,-0.104 0.138,-0.175 0.088,-0.07 0.207,-0.107 0.12,-0.037 0.26,-0.037 z m 1.236,1.205 v 0.16 q 0,0.069 -0.002,0.13 0,0.063 -0.003,0.125 L 6.511,62.64 q 0.195,-0.022 0.305,-0.036 l 0.172,-0.023 0.1,-0.011 q 0.036,-0.003 0.084,-0.003 0.124,0 0.124,0.121 0,0.048 -0.05,0.082 -0.049,0.034 -0.125,0.06 -0.074,0.022 -0.167,0.039 -0.09,0.014 -0.178,0.02 -0.084,0.007 -0.155,0.01 -0.067,0.004 -0.096,0.004 -0.1,0 -0.158,-0.015 Q 6.311,62.878 6.283,62.815 6.254,62.75 6.246,62.62 6.24,62.49 6.24,62.253 v -0.406 q 0,-0.178 0.003,-0.319 0.003,-0.141 0.003,-0.251 0.003,-0.11 0.008,-0.2 0.006,-0.116 0.04,-0.15 0.034,-0.037 0.085,-0.037 0.028,0 0.048,0.006 0.022,0.003 0.04,0.023 0.016,0.02 0.024,0.056 0.012,0.037 0.015,0.105 0.01,0.248 0.014,0.49 0.002,0.244 0.002,0.517 z m 1.04,0.612 Q 7.556,62.598 7.553,62.488 7.553,62.378 7.55,62.251 7.547,62.124 7.547,61.977 v -0.333 q 0,-0.2 0.003,-0.342 0.003,-0.143 0.017,-0.234 0.014,-0.09 0.042,-0.132 0.031,-0.043 0.082,-0.043 0.026,0 0.048,0.006 0.023,0.006 0.04,0.026 0.017,0.017 0.028,0.053 0.014,0.034 0.017,0.09 l 0.008,0.181 0.006,0.158 q 0.003,0.076 0.003,0.161 v 0.429 q 0,0.116 -0.003,0.229 l -0.006,0.228 -0.008,0.243 q -0.003,0.068 -0.014,0.104 -0.012,0.037 -0.029,0.057 -0.017,0.02 -0.04,0.022 -0.022,0.006 -0.05,0.006 -0.05,0 -0.087,-0.033 Q 7.567,62.816 7.561,62.7 Z m 1.225,-1.82 q 0.29,0 0.465,0.088 0.175,0.087 0.268,0.231 0.093,0.144 0.122,0.327 0.03,0.184 0.03,0.373 0,0.206 -0.053,0.39 -0.05,0.183 -0.16,0.321 -0.108,0.136 -0.277,0.217 -0.17,0.08 -0.404,0.08 -0.186,0 -0.3,-0.029 -0.11,-0.025 -0.17,-0.079 -0.06,-0.053 -0.08,-0.135 -0.02,-0.082 -0.02,-0.192 V 61.41 q 0,-0.122 0.02,-0.22 0.022,-0.1 0.084,-0.167 0.063,-0.07 0.175,-0.107 0.116,-0.037 0.3,-0.037 z m 0.01,1.744 q 0.176,0 0.29,-0.062 0.114,-0.065 0.182,-0.17 0.068,-0.104 0.093,-0.236 0.03,-0.133 0.03,-0.271 0,-0.127 -0.02,-0.254 Q 9.352,61.5 9.289,61.396 9.227,61.291 9.111,61.226 8.995,61.161 8.803,61.161 q -0.174,0 -0.242,0.051 -0.068,0.05 -0.068,0.155 v 1.081 q 0,0.088 0.062,0.133 0.065,0.042 0.243,0.042 z M 9.972,62.445 9.962,62.2 Q 9.955,62.045 9.955,61.881 v -0.192 l 0.006,-0.206 q 0.006,-0.209 0.025,-0.327 0.023,-0.119 0.085,-0.178 0.065,-0.06 0.18,-0.073 0.116,-0.015 0.308,-0.015 h 0.06 q 0.06,0 0.14,0.003 0.083,0 0.17,0.003 l 0.15,0.006 q 0.062,0.006 0.098,0.017 0.04,0.008 0.06,0.026 0.02,0.014 0.025,0.036 0.006,0.02 0.006,0.046 0,0.065 -0.037,0.096 -0.037,0.028 -0.15,0.036 -0.056,0.006 -0.166,0.008 h -0.22 q -0.113,0 -0.203,0.003 h -0.113 q -0.074,0.003 -0.105,0.034 -0.028,0.028 -0.028,0.138 l 0.003,0.125 q 0.005,0.096 0.005,0.27 h 0.235 q 0.15,0 0.242,0.007 0.096,0.003 0.147,0.016 0.054,0.015 0.073,0.046 0.02,0.03 0.02,0.081 0,0.026 -0.005,0.048 -0.003,0.02 -0.023,0.037 -0.02,0.014 -0.056,0.026 -0.037,0.008 -0.105,0.014 -0.082,0.006 -0.155,0.008 h -0.378 v 0.343 l 0.005,0.097 q 0.003,0.045 0.012,0.076 0.011,0.031 0.036,0.05 0.03,0.02 0.08,0.03 0.053,0.007 0.14,0.007 h 0.607 q 0.1,0 0.124,0.037 0.026,0.037 0.026,0.099 0,0.05 -0.023,0.079 -0.022,0.025 -0.11,0.036 -0.084,0.014 -0.257,0.017 -0.169,0.003 -0.468,0.003 -0.127,0 -0.209,-0.022 -0.082,-0.023 -0.133,-0.077 -0.05,-0.053 -0.076,-0.138 -0.022,-0.087 -0.03,-0.212 z"
       word-spacing="0"
       letter-spacing="0"
       font-size="2.822"
       font-weight="400"
       aria-label="SLIDE"
       id="path34"
       inkscape:connector-curvature="0" />
  </g>
  <g
     style="line-height:1.25;-inkscape-font-specification:'Sniglet, Normal';font-variant-ligatures:normal;font-variant-caps:normal;font-variant-numeric:normal;font-feature-settings:normal;text-align:start;stroke-width:0.78124732;fill:#232323;fill-opacity:1"
     id="g40"
     transform="matrix(1.2800044,0,0,1.2800044,0,-0.09623859)">
    <path
       style="font-weight:400;font-size:3.88100004px;font-family:Sniglet;-inkscape-font-specification:'Sniglet, Normal';font-variant-ligatures:normal;font-variant-caps:normal;font-variant-numeric:normal;font-feature-settings:normal;text-align:start;letter-spacing:0;word-spacing:0;stroke-width:0.78124732;fill:#232323;fill-opacity:1"
       d="M 4.13,8.45 Q 4.13,8.543 4.11,8.594 4.095,8.644 4.068,8.671 4.044,8.698 4.009,8.702 3.979,8.71 3.947,8.71 3.843,8.71 3.807,8.664 3.777,8.617 3.765,8.454 3.757,8.369 3.753,8.206 L 3.745,7.818 q 0,-0.225 -0.003,-0.497 V 6.747 Q 3.742,6.603 3.776,6.456 3.811,6.308 3.908,6.188 4.009,6.068 4.184,5.994 4.362,5.92 4.646,5.92 q 0.198,0 0.376,0.043 0.18,0.043 0.314,0.147 0.136,0.105 0.218,0.28 0.081,0.174 0.081,0.434 0,0.272 -0.089,0.45 Q 5.456,7.453 5.294,7.558 5.131,7.663 4.906,7.705 4.681,7.748 4.413,7.748 H 4.281 Q 4.215,7.748 4.133,7.74 Z M 5.247,6.816 Q 5.247,6.556 5.1,6.424 4.956,6.293 4.62,6.293 4.491,6.293 4.397,6.316 4.308,6.336 4.25,6.39 4.192,6.44 4.16,6.53 4.134,6.619 4.134,6.754 v 0.303 q 0,0.167 0.003,0.314 0.09,0.004 0.198,0.004 h 0.21 q 0.116,0 0.24,-0.015 Q 4.915,7.344 5.015,7.29 5.115,7.232 5.181,7.123 5.247,7.01 5.247,6.816 Z M 6.818,5.955 q 0.11,0 0.25,0.02 0.142,0.015 0.266,0.061 0.125,0.043 0.21,0.117 0.085,0.07 0.085,0.174 0,0.063 -0.035,0.105 Q 7.559,6.475 7.482,6.475 7.424,6.475 7.362,6.452 7.303,6.428 7.226,6.405 7.152,6.378 7.051,6.355 6.954,6.331 6.822,6.331 q -0.256,0 -0.38,0.093 -0.12,0.09 -0.12,0.249 0,0.108 0.054,0.182 Q 6.43,6.929 6.519,6.983 6.613,7.033 6.725,7.069 6.842,7.104 6.962,7.135 7.098,7.17 7.23,7.22 7.365,7.27 7.47,7.352 7.575,7.433 7.637,7.558 7.703,7.682 7.703,7.872 7.703,8.07 7.629,8.229 7.556,8.384 7.427,8.497 7.299,8.605 7.121,8.667 6.942,8.726 6.733,8.726 6.616,8.726 6.461,8.702 6.306,8.683 6.166,8.632 6.026,8.578 5.93,8.492 5.833,8.404 5.833,8.275 q 0,-0.077 0.038,-0.124 0.043,-0.046 0.125,-0.046 0.066,0 0.108,0.027 0.043,0.023 0.074,0.054 0.116,0.101 0.264,0.136 0.147,0.035 0.303,0.035 0.09,0 0.186,-0.012 Q 7.031,8.33 7.113,8.287 7.195,8.244 7.249,8.167 7.303,8.085 7.303,7.949 7.303,7.825 7.253,7.748 7.206,7.666 7.125,7.612 7.043,7.558 6.931,7.522 6.822,7.488 6.694,7.452 6.55,7.414 6.411,7.367 6.271,7.321 6.162,7.243 6.054,7.162 5.984,7.041 5.918,6.917 5.918,6.727 q 0,-0.19 0.07,-0.334 0.07,-0.143 0.19,-0.24 0.12,-0.097 0.283,-0.148 0.167,-0.05 0.357,-0.05 z M 9.426,7.724 Q 9.248,7.732 9.016,7.74 8.782,7.744 8.464,7.744 8.332,7.744 8.239,7.74 8.146,7.736 8.087,7.72 8.029,7.701 8.002,7.662 7.975,7.624 7.975,7.554 7.975,7.519 7.983,7.492 7.99,7.46 8.017,7.437 8.045,7.414 8.091,7.398 8.141,7.379 8.219,7.371 L 8.32,7.363 Q 8.367,7.359 8.41,7.359 8.452,7.355 8.5,7.355 h 0.115 q 0.21,0 0.404,0.004 0.194,0 0.403,0.012 0.093,0.008 0.144,0.023 0.05,0.012 0.077,0.035 0.028,0.023 0.031,0.054 0.008,0.031 0.008,0.07 0,0.07 -0.05,0.117 -0.047,0.046 -0.206,0.054 z m 1.477,-0.05 -0.579,0.896 q -0.054,0.086 -0.12,0.128 -0.062,0.047 -0.144,0.047 -0.1,0 -0.143,-0.05 -0.039,-0.047 -0.039,-0.12 0,-0.043 0.016,-0.09 0.02,-0.046 0.05,-0.089 L 10.666,7.364 9.944,6.331 Q 9.914,6.289 9.894,6.242 9.878,6.196 9.878,6.153 q 0,-0.074 0.04,-0.12 0.042,-0.05 0.142,-0.05 0.082,0 0.144,0.046 0.066,0.042 0.12,0.128 l 0.58,0.896 0.577,-0.896 q 0.054,-0.086 0.116,-0.128 0.066,-0.047 0.148,-0.047 0.1,0 0.14,0.05 0.042,0.047 0.042,0.121 0,0.043 -0.02,0.09 -0.015,0.046 -0.046,0.088 l -0.722,1.033 0.722,1.032 q 0.031,0.043 0.047,0.09 0.02,0.046 0.02,0.088 0,0.074 -0.044,0.12 -0.039,0.051 -0.14,0.051 -0.08,0 -0.147,-0.047 Q 11.535,8.656 11.481,8.57 Z"
       word-spacing="0"
       letter-spacing="0"
       font-size="3.881"
       font-weight="400"
       aria-label="PS-X"
       id="path38"
       inkscape:connector-curvature="0" />
  </g>
</svg>
