<?xml version="1.0" encoding="UTF-8" standalone="no"?>
<svg
   xmlns:dc="http://purl.org/dc/elements/1.1/"
   xmlns:cc="http://creativecommons.org/ns#"
   xmlns:rdf="http://www.w3.org/1999/02/22-rdf-syntax-ns#"
   xmlns:svg="http://www.w3.org/2000/svg"
   xmlns="http://www.w3.org/2000/svg"
   xmlns:sodipodi="http://sodipodi.sourceforge.net/DTD/sodipodi-0.dtd"
   xmlns:inkscape="http://www.inkscape.org/namespaces/inkscape"
   width="20.32mm"
   height="128.5mm"
   viewBox="0 0 20.32 128.50044"
   version="1.1"
   id="svg42"
   sodipodi:docname="ProbKeyExpander.svg"
   inkscape:version="0.92.2 (5c3e80d, 2017-08-06)">
  <metadata
     id="metadata48">
    <rdf:RDF>
      <cc:Work
         rdf:about="">
        <dc:format>image/svg+xml</dc:format>
        <dc:type
           rdf:resource="http://purl.org/dc/dcmitype/StillImage" />
        <dc:title />
      </cc:Work>
    </rdf:RDF>
  </metadata>
  <defs
     id="defs46" />
  <sodipodi:namedview
     pagecolor="#ffffff"
     bordercolor="#666666"
     borderopacity="1"
     objecttolerance="10"
     gridtolerance="10"
     guidetolerance="10"
     inkscape:pageopacity="0"
     inkscape:pageshadow="2"
     inkscape:window-width="1366"
     inkscape:window-height="705"
     id="namedview44"
     showgrid="false"
     inkscape:document-units="mm"
     units="mm"
     inkscape:zoom="2.4842106"
     inkscape:cx="23.40295"
     inkscape:cy="398.60221"
     inkscape:window-x="251"
     inkscape:window-y="1072"
     inkscape:window-maximized="1"
     inkscape:current-layer="svg42"
     showguides="true"
     inkscape:guide-bbox="true">
    <sodipodi:guide
       position="10.160001,110.76662"
       orientation="1,0"
       id="guide838"
       inkscape:locked="false"
       inkscape:label=""
       inkscape:color="rgb(0,0,255)" />
  </sodipodi:namedview>
  <path
     d="M 0,0 H 20.32007 V 128.50044 H 0 Z m 0,0"
     id="path2"
     inkscape:connector-curvature="0"
     style="fill:#dcdcdc;stroke-width:1" />
  <g
     style="line-height:1.25;stroke-width:0.78124732"
     id="g12"
     transform="matrix(1.2800044,0,0,1.2800044,0,-0.09623859)">
    <path
       word-spacing="0"
       letter-spacing="0"
       font-weight="400"
       aria-label="♫"
       font-size="3.528"
       style="font-weight:400;font-size:3.52800012px;font-family:Arial;-inkscape-font-specification:'Arial, Normal';font-variant-ligatures:normal;font-variant-caps:normal;font-variant-numeric:normal;font-feature-settings:normal;text-align:start;letter-spacing:0;word-spacing:0;fill:#333333;stroke-width:0.78124732"
       d="m 8.664,93.893 -1.63,0.115 v -2.06 q 0,-0.23 0.065,-0.333 0.063,-0.104 0.22,-0.147 0.152,-0.043 0.347,-0.002 0.223,0.047 0.357,0.19 0.133,0.146 0.133,0.33 0,0.186 -0.158,0.286 Q 7.84,92.375 7.59,92.322 7.508,92.304 7.447,92.278 7.383,92.252 7.242,92.168 v 1.345 l 1.22,-0.085 v -1.554 q 0,-0.224 0.064,-0.337 0.066,-0.11 0.226,-0.15 0.16,-0.041 0.348,-0.001 0.223,0.047 0.355,0.19 0.13,0.14 0.13,0.325 0,0.195 -0.157,0.294 -0.156,0.1 -0.408,0.047 -0.16,-0.034 -0.356,-0.16 z"
       id="path10"
       inkscape:connector-curvature="0" />
  </g>
  <g
     aria-label="PK-X"
     style="font-style:normal;font-weight:normal;font-size:10.58336926px;line-height:1.25;font-family:sans-serif;letter-spacing:0px;word-spacing:0px;fill:#000000;fill-opacity:1;stroke:none;stroke-width:0.26458424"
     id="text836">
    <path
       d="m 4.9209758,10.681465 q 0,0.131233 -0.02734,0.202318 -0.021872,0.07109 -0.060149,0.109362 -0.032808,0.03828 -0.082021,0.04374 -0.043745,0.01094 -0.087489,0.01094 -0.147638,0 -0.1968507,-0.06562 -0.043744,-0.06562 -0.060149,-0.295276 -0.010936,-0.120298 -0.016404,-0.349957 -0.00547,-0.229659 -0.010936,-0.5468075 0,-0.3171483 -0.00547,-0.6999135 0,-0.3827652 0,-0.809275 0,-0.2023188 0.049213,-0.4101056 Q 4.4725937,7.6630876 4.6092956,7.4935773 4.7514655,7.324067 4.9975289,7.2201736 5.2490603,7.1162802 5.6482297,7.1162802 q 0.2788718,0 0.5304032,0.060149 0.2515314,0.060149 0.442914,0.2077868 0.1913826,0.147638 0.3062122,0.3937013 0.1148296,0.2460634 0.1148296,0.6124244 0,0.3827652 -0.1257658,0.6342966 -0.1257657,0.2515314 -0.3554248,0.3991694 -0.2296591,0.147638 -0.5468074,0.2077868 -0.3171483,0.060149 -0.6944455,0.060149 -0.092957,0 -0.1859145,0 -0.092957,0 -0.2077868,-0.010936 z M 6.4957812,8.3794053 q 0,-0.366361 -0.2077868,-0.5522755 -0.2023188,-0.1859145 -0.6780412,-0.1859145 -0.1804465,0 -0.3116803,0.032808 -0.1257657,0.02734 -0.2077868,0.1038934 -0.082021,0.071085 -0.1257657,0.1968507 -0.038277,0.1257657 -0.038277,0.3171483 0,0.1859146 0,0.4265098 0,0.2351272 0.00547,0.442914 0.1257657,0.00547 0.2788718,0.00547 0.1585741,0 0.295276,0 0.1640422,0 0.3390206,-0.021872 Q 6.0255268,9.1230634 6.1676968,9.0465104 6.3098667,8.9644893 6.402824,8.8113832 6.4957812,8.652809 6.4957812,8.3794053 Z"
       style="font-style:normal;font-variant:normal;font-weight:normal;font-stretch:normal;font-size:5.46807432px;font-family:Sniglet;-inkscape-font-specification:'Sniglet, Normal';font-variant-ligatures:normal;font-variant-caps:normal;font-variant-numeric:normal;font-feature-settings:normal;text-align:start;writing-mode:lr-tb;text-anchor:start;stroke-width:0.26458424"
       id="path840" />
    <path
       d="m 7.50934,10.686933 q -0.010936,-0.196851 -0.016404,-0.410106 0,-0.213255 -0.00547,-0.4593181 -0.00547,-0.2460634 -0.00547,-0.5304032 0,-0.289808 0,-0.6452328 0,-0.3882333 0.00547,-0.661637 0.00547,-0.2788718 0.02734,-0.4538502 0.02734,-0.1749784 0.082021,-0.2569995 0.054681,-0.082021 0.1531061,-0.082021 0.092957,0 0.1640422,0.060149 0.071085,0.060149 0.082021,0.2788718 0.010936,0.1968507 0.016404,0.3499568 0.00547,0.1531061 0.010936,0.3062121 0.00547,0.1476381 0.00547,0.3116803 0,0.1585741 0,0.3608929 V 9.1394677 L 9.198975,7.7997894 q 0.2296591,-0.2624675 0.3554248,-0.3444886 0.1257657,-0.087489 0.218723,-0.087489 0.1093615,0 0.1585741,0.054681 0.054681,0.054681 0.054681,0.1367019 0,0.032808 -0.010936,0.065617 -0.010936,0.032808 -0.049213,0.092957 -0.032808,0.054681 -0.1038934,0.14217 -0.071085,0.082021 -0.1913826,0.2132549 L 8.8708905,8.8988724 10.068399,10.604912 q 0.04374,0.06015 0.06562,0.125765 0.02734,0.06562 0.02734,0.125766 0,0.103893 -0.06015,0.16951 -0.05468,0.07109 -0.1968504,0.07109 -0.1148296,0 -0.2077869,-0.06562 -0.087489,-0.06015 -0.1640422,-0.180446 L 8.4935934,9.314446 8.023339,9.828445 q -0.00547,0.207787 -0.010936,0.415574 -0.00547,0.207786 -0.016404,0.437446 -0.00547,0.131233 -0.02734,0.202318 -0.016404,0.07109 -0.049213,0.109362 -0.032809,0.03828 -0.076553,0.04374 -0.038276,0.01094 -0.092957,0.01094 -0.098425,0 -0.1640423,-0.06562 -0.065617,-0.07109 -0.076553,-0.295276 z"
       style="font-style:normal;font-variant:normal;font-weight:normal;font-stretch:normal;font-size:5.46807432px;font-family:Sniglet;-inkscape-font-specification:'Sniglet, Normal';font-variant-ligatures:normal;font-variant-caps:normal;font-variant-numeric:normal;font-feature-settings:normal;text-align:start;writing-mode:lr-tb;text-anchor:start;stroke-width:0.26458424"
       id="path842" />
    <path
       d="m 12.426847,9.6589347 q -0.251531,0.010936 -0.579615,0.021872 -0.328085,0.00547 -0.776467,0.00547 -0.185915,0 -0.317148,-0.00547 -0.131234,-0.00547 -0.213255,-0.02734 -0.08202,-0.02734 -0.120298,-0.082021 -0.03828,-0.054681 -0.03828,-0.1531061 0,-0.049213 0.01094,-0.087489 0.01094,-0.043745 0.04921,-0.076553 0.03828,-0.032808 0.103894,-0.054681 0.07109,-0.02734 0.180446,-0.038277 0.08202,-0.00547 0.14217,-0.010936 0.06562,-0.00547 0.125766,-0.00547 0.06015,-0.00547 0.125766,-0.00547 0.07109,0 0.164042,0 0.295276,0 0.56868,0.00547 0.273403,0 0.568679,0.016404 0.131234,0.010936 0.202319,0.032808 0.07109,0.016404 0.109362,0.049213 0.03828,0.032808 0.04374,0.076553 0.01094,0.043745 0.01094,0.098425 0,0.098425 -0.07109,0.1640423 -0.06562,0.065617 -0.289808,0.076553 z"
       style="font-style:normal;font-variant:normal;font-weight:normal;font-stretch:normal;font-size:5.46807432px;font-family:Sniglet;-inkscape-font-specification:'Sniglet, Normal';font-variant-ligatures:normal;font-variant-caps:normal;font-variant-numeric:normal;font-feature-settings:normal;text-align:start;writing-mode:lr-tb;text-anchor:start;stroke-width:0.26458424"
       id="path844" />
    <path
       d="m 14.507279,9.5878497 -0.814743,1.2631253 q -0.07655,0.120298 -0.16951,0.180446 -0.08749,0.06562 -0.202319,0.06562 -0.14217,0 -0.202319,-0.07109 -0.05468,-0.06562 -0.05468,-0.16951 0,-0.06015 0.02187,-0.125766 0.02734,-0.06562 0.07109,-0.125765 L 14.173727,9.1504038 13.156665,7.695896 q -0.04374,-0.060149 -0.07109,-0.1257657 -0.02187,-0.065617 -0.02187,-0.1257657 0,-0.1038934 0.05468,-0.1695103 0.06015,-0.071085 0.202319,-0.071085 0.11483,0 0.202319,0.065617 0.09296,0.060149 0.16951,0.1804465 l 0.814743,1.2631252 0.814743,-1.2631252 q 0.07655,-0.1202976 0.164043,-0.1804465 0.09296,-0.065617 0.207786,-0.065617 0.14217,0 0.196851,0.071085 0.06015,0.065617 0.06015,0.1695103 0,0.060149 -0.02734,0.1257657 -0.02187,0.065617 -0.06562,0.1257657 l -1.017062,1.4545078 1.017062,1.4545082 q 0.04374,0.06015 0.06562,0.125765 0.02734,0.06562 0.02734,0.125766 0,0.103893 -0.06015,0.16951 -0.05468,0.07109 -0.196851,0.07109 -0.114829,0 -0.207786,-0.06562 -0.08749,-0.06015 -0.164043,-0.180446 z"
       style="font-style:normal;font-variant:normal;font-weight:normal;font-stretch:normal;font-size:5.46807432px;font-family:Sniglet;-inkscape-font-specification:'Sniglet, Normal';font-variant-ligatures:normal;font-variant-caps:normal;font-variant-numeric:normal;font-feature-settings:normal;text-align:start;writing-mode:lr-tb;text-anchor:start;stroke-width:0.26458424"
       id="path846" />
  </g>
  <rect
     rx="2.3399992"
     ry="2.3399992"
     y="14.179264"
     x="2.4268839"
     height="17.992947"
     width="15.368919"
     id="rect6"
     style="fill:#999999;stroke-width:0.9999997;paint-order:stroke markers fill" />
  <g
     aria-label="MIN CV"
     style="font-style:normal;font-weight:normal;font-size:10.58336926px;line-height:1.25;font-family:sans-serif;letter-spacing:0px;word-spacing:0px;fill:#000000;fill-opacity:1;stroke:none;stroke-width:0.26458424"
     id="text851"
     transform="translate(0,0.21301274)">
    <path
       d="M 5.8780745,18.181169 Q 5.7109278,17.814173 5.5801173,17.472613 5.4529405,17.127418 5.3620999,16.85853 q -0.083573,0.45057 -0.1417113,0.908406 -0.054504,0.457837 -0.1417113,0.875704 -0.021802,0.09447 -0.07994,0.127176 -0.058138,0.02907 -0.098108,0.02907 -0.065405,0 -0.1053751,-0.03997 -0.036336,-0.03997 -0.036336,-0.101741 0,-0.08357 0.018168,-0.254354 0.021802,-0.174414 0.050871,-0.392431 0.032703,-0.218017 0.072672,-0.457837 0.03997,-0.239819 0.07994,-0.46147 0.043603,-0.225284 0.07994,-0.406966 0.03997,-0.181681 0.069039,-0.279789 0.047237,-0.167146 0.192582,-0.167146 0.087207,0 0.1489786,0.08721 0.061772,0.08357 0.1308105,0.261621 0.072672,0.174414 0.1707803,0.443302 0.1017414,0.268888 0.2616209,0.63225 0.1562458,-0.363362 0.25072,-0.628617 0.098108,-0.268888 0.1635131,-0.443302 0.069039,-0.178047 0.1308104,-0.261621 0.061772,-0.08721 0.1526122,-0.08721 0.083573,0 0.1271768,0.0436 0.043603,0.03997 0.065405,0.123543 0.025435,0.101741 0.061772,0.283423 0.036336,0.178047 0.076306,0.399698 0.043603,0.218018 0.083573,0.457837 0.03997,0.239819 0.072672,0.457836 0.032703,0.218018 0.050871,0.396065 0.021802,0.174414 0.021802,0.268889 0,0.05814 -0.03997,0.09447 -0.03997,0.0327 -0.1017415,0.0327 -0.03997,0 -0.098108,-0.02907 -0.058138,-0.0327 -0.07994,-0.127176 -0.043603,-0.207117 -0.07994,-0.428768 -0.032703,-0.221651 -0.065405,-0.446936 -0.029069,-0.228918 -0.058138,-0.454203 -0.029069,-0.228918 -0.061772,-0.454203 -0.047237,0.145345 -0.1090087,0.319759 -0.061772,0.174414 -0.1308104,0.352462 -0.069039,0.174414 -0.1417113,0.345194 -0.072673,0.17078 -0.1417114,0.308858 -0.025435,0.04724 -0.069039,0.07267 -0.03997,0.0218 -0.083573,0.0218 -0.047237,0 -0.090841,-0.0218 -0.03997,-0.02543 -0.061772,-0.07631 z"
       style="font-style:normal;font-variant:normal;font-weight:normal;font-stretch:normal;font-size:3.6336236px;font-family:Sniglet;-inkscape-font-specification:'Sniglet, Normal';font-variant-ligatures:normal;font-variant-caps:normal;font-variant-numeric:normal;font-feature-settings:normal;text-align:start;writing-mode:lr-tb;text-anchor:start;stroke-width:0.26458424"
       id="path853"
       inkscape:connector-curvature="0" />
    <path
       d="m 7.6343069,18.573601 q -0.00727,-0.130811 -0.010901,-0.272522 0,-0.141711 -0.00363,-0.305224 -0.00363,-0.163514 -0.00363,-0.352462 0,-0.192582 0,-0.428768 0,-0.257987 0.00363,-0.439668 0.00363,-0.185315 0.021802,-0.301591 0.018168,-0.116276 0.054504,-0.17078 0.03997,-0.0545 0.1053751,-0.0545 0.032703,0 0.061772,0.0073 0.029069,0.0073 0.050871,0.0327 0.021802,0.0218 0.036336,0.06904 0.018168,0.0436 0.021802,0.116276 0.00727,0.130811 0.010901,0.232552 0.00363,0.101742 0.00727,0.203483 0.00363,0.09811 0.00363,0.207117 0,0.105375 0,0.239819 0,0.163513 0,0.312491 0,0.148979 -0.00363,0.294324 -0.00363,0.145345 -0.00727,0.294323 -0.00363,0.148979 -0.010901,0.312492 -0.00363,0.08721 -0.018168,0.134444 -0.014535,0.04724 -0.036336,0.07267 -0.021802,0.02544 -0.050871,0.02907 -0.029069,0.0073 -0.065405,0.0073 -0.065405,0 -0.1126423,-0.0436 -0.047237,-0.04724 -0.054504,-0.196215 z"
       style="font-style:normal;font-variant:normal;font-weight:normal;font-stretch:normal;font-size:3.6336236px;font-family:Sniglet;-inkscape-font-specification:'Sniglet, Normal';font-variant-ligatures:normal;font-variant-caps:normal;font-variant-numeric:normal;font-feature-settings:normal;text-align:start;writing-mode:lr-tb;text-anchor:start;stroke-width:0.26458424"
       id="path855"
       inkscape:connector-curvature="0" />
    <path
       d="M 9.9058328,18.628105 Q 9.7895568,18.468226 9.6841817,18.31198 9.5824403,18.1521 9.4625307,17.963152 9.3462547,17.774203 9.1936425,17.545285 9.044664,17.312733 8.8339138,17.003875 q 0,0.272522 0,0.490539 0,0.214384 -0.00363,0.399699 -0.00363,0.185315 -0.00727,0.348828 -0.00363,0.163513 -0.010901,0.327026 -0.00363,0.08721 -0.018168,0.134444 -0.010901,0.04724 -0.032703,0.07267 -0.021802,0.02544 -0.050871,0.02907 -0.025435,0.0073 -0.061772,0.0073 -0.065405,0 -0.1090087,-0.0436 -0.043603,-0.04724 -0.050871,-0.196215 -0.018168,-0.399699 -0.021802,-0.799398 0,-0.403332 0,-0.832099 0,-0.243453 0.00363,-0.381531 0.00727,-0.138077 0.025435,-0.207116 0.021802,-0.06904 0.054504,-0.08721 0.036336,-0.01817 0.094474,-0.01817 0.058138,0 0.1526122,0.09084 0.094474,0.08721 0.2071165,0.232552 0.1126424,0.145345 0.2398192,0.334293 0.1308104,0.188949 0.2579873,0.388798 0.1271768,0.199849 0.2434527,0.396065 0.1199096,0.196216 0.2180175,0.356095 -0.00363,-0.17078 -0.00363,-0.374263 0,-0.207117 0,-0.457837 0,-0.287056 0.00363,-0.472371 0.00363,-0.188948 0.018168,-0.297957 0.018168,-0.109008 0.054504,-0.152612 0.03634,-0.0436 0.101742,-0.0436 0.06177,0 0.109008,0.03997 0.04724,0.03997 0.0545,0.185315 0.0073,0.130811 0.0109,0.232552 0.0036,0.101742 0.0073,0.203483 0.0036,0.09811 0.0036,0.207117 0,0.105375 0,0.239819 0,0.163513 0,0.312491 0,0.148979 -0.0036,0.294324 -0.0036,0.145345 -0.0073,0.294323 -0.0036,0.148979 -0.0109,0.312492 -0.0036,0.08721 -0.01817,0.134444 -0.0109,0.04724 -0.0327,0.07267 -0.0218,0.02544 -0.05087,0.02907 -0.02543,0.0073 -0.06177,0.0073 -0.06177,0 -0.105375,-0.03634 -0.043603,-0.03634 -0.1271762,-0.148979 z"
       style="font-style:normal;font-variant:normal;font-weight:normal;font-stretch:normal;font-size:3.6336236px;font-family:Sniglet;-inkscape-font-specification:'Sniglet, Normal';font-variant-ligatures:normal;font-variant-caps:normal;font-variant-numeric:normal;font-feature-settings:normal;text-align:start;writing-mode:lr-tb;text-anchor:start;stroke-width:0.26458424"
       id="path857"
       inkscape:connector-curvature="0" />
    <path
       d="m 12.575978,16.22628 q 0.11991,0 0.239819,0.0218 0.123543,0.01817 0.221651,0.06177 0.09811,0.03997 0.15988,0.101742 0.06541,0.05814 0.06541,0.138077 0,0.08357 -0.0436,0.127177 -0.0436,0.0436 -0.109008,0.0436 -0.06177,0 -0.109009,-0.01817 -0.04724,-0.0218 -0.109009,-0.04724 -0.05814,-0.02543 -0.141711,-0.0436 -0.08357,-0.0218 -0.221651,-0.0218 -0.138078,0 -0.265255,0.07267 -0.123543,0.06904 -0.218017,0.196215 -0.09084,0.123544 -0.145345,0.294324 -0.0545,0.17078 -0.0545,0.370629 0,0.247087 0.06177,0.425134 0.06541,0.178048 0.167147,0.294324 0.101741,0.112642 0.228918,0.17078 0.130811,0.05451 0.261621,0.05451 0.156246,0 0.261621,-0.0327 0.105375,-0.0327 0.178048,-0.07267 0.07631,-0.03997 0.13081,-0.07267 0.0545,-0.0327 0.105375,-0.0327 0.06177,0 0.09811,0.03634 0.03634,0.0327 0.03634,0.119909 0,0.07267 -0.05814,0.148979 -0.0545,0.07267 -0.163513,0.134444 -0.105375,0.05814 -0.254353,0.09811 -0.148979,0.03634 -0.334294,0.03634 -0.203483,0 -0.406966,-0.07994 -0.199849,-0.07994 -0.359728,-0.236185 -0.156246,-0.15988 -0.254354,-0.396065 -0.09811,-0.239819 -0.09811,-0.555945 0,-0.316125 0.08721,-0.563211 0.09084,-0.247087 0.243453,-0.417867 0.156246,-0.174414 0.359729,-0.265255 0.207116,-0.09084 0.439668,-0.09084 z"
       style="font-style:normal;font-variant:normal;font-weight:normal;font-stretch:normal;font-size:3.6336236px;font-family:Sniglet;-inkscape-font-specification:'Sniglet, Normal';font-variant-ligatures:normal;font-variant-caps:normal;font-variant-numeric:normal;font-feature-settings:normal;text-align:start;writing-mode:lr-tb;text-anchor:start;stroke-width:0.26458424"
       id="path859"
       inkscape:connector-curvature="0" />
    <path
       d="m 14.689328,18.65354 q -0.04724,0.08721 -0.08721,0.127177 -0.03634,0.03997 -0.09448,0.03997 -0.05814,0 -0.101741,-0.03997 -0.0436,-0.03997 -0.09447,-0.123543 -0.06541,-0.109009 -0.148979,-0.301591 -0.07994,-0.192582 -0.163513,-0.417866 -0.08357,-0.228919 -0.163513,-0.472372 -0.07994,-0.243452 -0.145345,-0.457836 -0.06177,-0.214384 -0.101741,-0.374263 -0.03634,-0.163513 -0.03634,-0.232552 0,-0.07267 0.02907,-0.109009 0.02907,-0.03634 0.112643,-0.03634 0.04724,0 0.07994,0.02544 0.03634,0.0218 0.09084,0.130811 0.0436,0.08357 0.09447,0.218017 0.05087,0.134444 0.105375,0.297957 0.05814,0.163513 0.116276,0.345194 0.05814,0.178048 0.116276,0.356096 0.05814,0.178047 0.109009,0.34156 0.05087,0.163513 0.09447,0.294324 0.0436,-0.134444 0.09811,-0.297957 0.0545,-0.167147 0.112642,-0.341561 0.05814,-0.178048 0.116276,-0.356095 0.05814,-0.181681 0.116276,-0.341561 0.05814,-0.159879 0.109009,-0.294323 0.05087,-0.134444 0.09084,-0.221651 0.05087,-0.105375 0.08721,-0.130811 0.03997,-0.02544 0.07994,-0.02544 0.08357,0 0.112643,0.0436 0.0327,0.03997 0.0327,0.11991 0,0.07267 -0.0218,0.174414 -0.0218,0.101741 -0.07631,0.272522 -0.05087,0.167146 -0.138077,0.417866 -0.08721,0.25072 -0.214384,0.614083 -0.0327,0.09811 -0.07631,0.203483 -0.03997,0.105375 -0.08357,0.207116 -0.03997,0.09811 -0.07994,0.188949 -0.03997,0.09084 -0.07631,0.156245 z"
       style="font-style:normal;font-variant:normal;font-weight:normal;font-stretch:normal;font-size:3.6336236px;font-family:Sniglet;-inkscape-font-specification:'Sniglet, Normal';font-variant-ligatures:normal;font-variant-caps:normal;font-variant-numeric:normal;font-feature-settings:normal;text-align:start;writing-mode:lr-tb;text-anchor:start;stroke-width:0.26458424"
       id="path861"
       inkscape:connector-curvature="0" />
  </g>
</svg>
