<?xml version="1.0" encoding="UTF-8" standalone="no"?>
<svg
   xmlns:dc="http://purl.org/dc/elements/1.1/"
   xmlns:cc="http://creativecommons.org/ns#"
   xmlns:rdf="http://www.w3.org/1999/02/22-rdf-syntax-ns#"
   xmlns:svg="http://www.w3.org/2000/svg"
   xmlns="http://www.w3.org/2000/svg"
   xmlns:sodipodi="http://sodipodi.sourceforge.net/DTD/sodipodi-0.dtd"
   xmlns:inkscape="http://www.inkscape.org/namespaces/inkscape"
   width="116.84mm"
   height="128.5mm"
   viewBox="0 0 116.84035 128.50044"
   version="1.1"
   id="svg60"
   sodipodi:docname="ProbKey.svg"
   inkscape:version="0.92.2 (5c3e80d, 2017-08-06)">
  <metadata
     id="metadata66">
    <rdf:RDF>
      <cc:Work
         rdf:about="">
        <dc:format>image/svg+xml</dc:format>
        <dc:type
           rdf:resource="http://purl.org/dc/dcmitype/StillImage" />
        <dc:title></dc:title>
      </cc:Work>
    </rdf:RDF>
  </metadata>
  <defs
     id="defs64" />
  <sodipodi:namedview
     pagecolor="#ffffff"
     bordercolor="#666666"
     borderopacity="1"
     objecttolerance="10"
     gridtolerance="10"
     guidetolerance="10"
     inkscape:pageopacity="0"
     inkscape:pageshadow="2"
     inkscape:window-width="1920"
     inkscape:window-height="1017"
     id="namedview62"
     showgrid="false"
     inkscape:document-units="mm"
     units="mm"
     inkscape:zoom="1.2421053"
     inkscape:cx="210.50409"
     inkscape:cy="213.83529"
     inkscape:window-x="-8"
     inkscape:window-y="-8"
     inkscape:window-maximized="1"
     inkscape:current-layer="svg60"
     showguides="true"
     inkscape:guide-bbox="true">
    <sodipodi:guide
       position="58.42019,118.43508"
       orientation="1,0"
       id="guide4538"
       inkscape:locked="false"
       inkscape:label=""
       inkscape:color="rgb(0,0,255)" />
  </sodipodi:namedview>
  <path
     d="M 0,0 H 116.84037 V 128.50041 H 0 Z m 0,0"
     id="path2"
     inkscape:connector-curvature="0"
     style="fill:#dcdcdc;stroke-width:1" />
  <rect
     rx="2.3399999"
     ry="2.3399999"
     y="99.959694"
     x="86.000275"
     height="18.499956"
     width="26.929926"
     id="rect4"
     style="fill:#999999;stroke-width:1;paint-order:stroke markers fill" />
  <g
     style="line-height:1.25;stroke-width:0.78124982"
     id="g8"
     transform="matrix(1.2800003,0,0,1.2800003,5.0802684,-0.09604601)">
    <path
       word-spacing="0"
       letter-spacing="0"
       font-weight="400"
       aria-label="♫"
       font-size="3.528"
       style="font-weight:400;font-size:3.52800012px;font-family:Arial;-inkscape-font-specification:'Arial, Normal';font-variant-ligatures:normal;font-variant-caps:normal;font-variant-numeric:normal;font-feature-settings:normal;text-align:start;letter-spacing:0;word-spacing:0;fill:#333333;stroke-width:0.78124982"
       d="m 50.134,96.87 -1.63,0.115 v -2.06 q 0,-0.23 0.065,-0.333 0.064,-0.104 0.22,-0.147 0.153,-0.043 0.348,-0.002 0.223,0.047 0.356,0.19 0.133,0.146 0.133,0.33 0,0.186 -0.157,0.286 -0.158,0.103 -0.408,0.05 -0.082,-0.018 -0.143,-0.044 -0.064,-0.027 -0.205,-0.11 v 1.345 l 1.22,-0.085 v -1.554 q 0,-0.225 0.064,-0.337 0.066,-0.11 0.226,-0.151 0.16,-0.04 0.348,0 0.223,0.047 0.354,0.19 0.13,0.14 0.13,0.325 0,0.195 -0.156,0.294 -0.156,0.1 -0.408,0.047 -0.16,-0.034 -0.357,-0.16 z"
       id="path6"
       inkscape:connector-curvature="0" />
  </g>
  <g
     style="line-height:1.25;stroke-width:0.78124982"
     id="g12"
     transform="matrix(1.2800003,0,0,1.2800003,5.0802684,-0.09604601)">
    <path
       word-spacing="0"
       letter-spacing="0"
       font-size="3.528"
       font-weight="400"
       aria-label="IMPROMPT"
       d="m 32.116,96.698 q -0.007,-0.127 -0.01,-0.265 0,-0.137 -0.004,-0.296 -0.003,-0.159 -0.003,-0.342 v -0.417 q 0,-0.25 0.003,-0.426 0.004,-0.18 0.021,-0.293 0.018,-0.113 0.053,-0.166 0.04,-0.053 0.102,-0.053 0.032,0 0.06,0.007 0.03,0.007 0.05,0.032 0.02,0.02 0.035,0.067 0.018,0.042 0.021,0.113 0.007,0.127 0.01,0.225 l 0.008,0.198 q 0.003,0.095 0.003,0.201 v 0.536 q 0,0.145 -0.003,0.286 l -0.007,0.286 -0.01,0.303 q -0.004,0.085 -0.018,0.13 -0.015,0.047 -0.036,0.071 -0.02,0.025 -0.05,0.028 -0.027,0.007 -0.063,0.007 -0.063,0 -0.109,-0.042 -0.046,-0.046 -0.053,-0.19 z m 1.754,-0.381 q -0.162,-0.357 -0.29,-0.688 -0.123,-0.335 -0.21,-0.596 -0.082,0.437 -0.139,0.882 -0.053,0.444 -0.137,0.85 -0.02,0.092 -0.078,0.123 -0.056,0.028 -0.095,0.028 -0.064,0 -0.102,-0.038 -0.036,-0.04 -0.036,-0.1 0,-0.08 0.018,-0.246 0.021,-0.17 0.05,-0.381 0.031,-0.212 0.07,-0.445 l 0.078,-0.448 0.077,-0.395 q 0.04,-0.176 0.067,-0.271 0.046,-0.163 0.187,-0.163 0.085,0 0.145,0.085 0.06,0.081 0.127,0.254 0.07,0.17 0.166,0.43 0.098,0.262 0.254,0.614 0.151,-0.352 0.243,-0.61 0.095,-0.261 0.16,-0.43 0.066,-0.173 0.126,-0.254 0.06,-0.085 0.148,-0.085 0.081,0 0.123,0.042 0.043,0.039 0.064,0.12 0.025,0.099 0.06,0.275 0.035,0.173 0.074,0.388 0.042,0.212 0.081,0.445 0.04,0.233 0.07,0.444 0.032,0.212 0.05,0.385 0.021,0.17 0.021,0.261 0,0.056 -0.039,0.092 -0.038,0.031 -0.098,0.031 -0.04,0 -0.096,-0.028 -0.056,-0.032 -0.077,-0.123 -0.043,-0.201 -0.078,-0.417 l -0.063,-0.433 -0.057,-0.441 q -0.028,-0.223 -0.06,-0.441 -0.046,0.14 -0.106,0.31 -0.06,0.17 -0.127,0.342 -0.067,0.17 -0.137,0.335 -0.07,0.166 -0.138,0.3 -0.024,0.046 -0.067,0.07 -0.039,0.022 -0.08,0.022 -0.047,0 -0.09,-0.021 -0.038,-0.025 -0.06,-0.074 z m 2.005,0.377 q 0,0.085 -0.018,0.13 -0.014,0.047 -0.039,0.071 -0.02,0.025 -0.053,0.029 -0.028,0.007 -0.056,0.007 -0.095,0 -0.127,-0.043 -0.028,-0.042 -0.039,-0.19 -0.007,-0.078 -0.01,-0.226 -0.004,-0.148 -0.007,-0.353 0,-0.204 -0.004,-0.451 v -0.522 q 0,-0.131 0.032,-0.265 0.032,-0.134 0.12,-0.243 0.091,-0.11 0.25,-0.177 0.162,-0.067 0.42,-0.067 0.18,0 0.342,0.039 0.162,0.039 0.286,0.134 0.123,0.095 0.198,0.254 0.074,0.159 0.074,0.395 0,0.247 -0.082,0.41 -0.08,0.162 -0.229,0.257 -0.148,0.095 -0.353,0.134 -0.204,0.039 -0.448,0.039 h -0.12 q -0.06,0 -0.134,-0.007 z m 1.016,-1.485 q 0,-0.236 -0.134,-0.356 -0.13,-0.12 -0.438,-0.12 -0.116,0 -0.2,0.021 -0.082,0.018 -0.135,0.067 -0.053,0.046 -0.08,0.127 -0.026,0.081 -0.026,0.205 v 0.275 q 0,0.151 0.004,0.286 0.081,0.004 0.18,0.004 h 0.19 q 0.106,0 0.22,-0.015 0.115,-0.014 0.207,-0.063 0.092,-0.053 0.152,-0.152 0.06,-0.102 0.06,-0.278 z m 1.451,0.84 -0.102,0.007 h -0.223 q -0.06,0 -0.134,-0.007 v 0.716 q 0,0.113 -0.056,0.14 -0.053,0.026 -0.134,0.026 -0.042,0 -0.067,-0.007 -0.025,-0.004 -0.042,-0.018 -0.015,-0.018 -0.025,-0.05 -0.007,-0.031 -0.01,-0.088 -0.008,-0.063 -0.01,-0.183 -0.005,-0.123 -0.008,-0.318 0,-0.194 -0.004,-0.469 v -0.652 q 0,-0.145 0.035,-0.279 0.036,-0.138 0.127,-0.24 0.092,-0.106 0.247,-0.17 0.16,-0.063 0.402,-0.063 0.173,0 0.336,0.039 0.165,0.039 0.292,0.134 0.127,0.095 0.205,0.258 0.078,0.162 0.078,0.405 0,0.325 -0.14,0.505 -0.139,0.176 -0.382,0.25 l 0.472,0.65 q 0.064,0.084 0.064,0.172 0,0.07 -0.05,0.11 -0.046,0.042 -0.116,0.042 -0.078,0 -0.134,-0.042 -0.057,-0.046 -0.106,-0.117 z m 0.554,-0.822 q 0,-0.244 -0.148,-0.36 -0.145,-0.12 -0.462,-0.12 -0.117,0 -0.194,0.021 -0.078,0.018 -0.124,0.07 -0.046,0.054 -0.067,0.149 -0.018,0.091 -0.018,0.236 v 0.24 q 0,0.138 0.004,0.25 0.081,0.005 0.18,0.005 h 0.19 q 0.1,0 0.208,-0.011 0.113,-0.014 0.21,-0.064 0.094,-0.052 0.157,-0.148 0.064,-0.099 0.064,-0.268 z m 1.61,1.725 q -0.213,0 -0.399,-0.085 -0.184,-0.085 -0.322,-0.243 -0.137,-0.163 -0.218,-0.395 -0.078,-0.233 -0.078,-0.53 0,-0.278 0.067,-0.511 0.07,-0.233 0.205,-0.402 0.137,-0.17 0.338,-0.261 0.202,-0.096 0.466,-0.096 0.215,0 0.41,0.078 0.193,0.078 0.338,0.233 0.148,0.155 0.233,0.388 0.085,0.233 0.085,0.543 0,0.258 -0.07,0.49 -0.068,0.233 -0.209,0.41 -0.138,0.173 -0.35,0.278 -0.21,0.103 -0.497,0.103 z m 0.006,-0.332 q 0.194,0 0.34,-0.077 0.144,-0.082 0.24,-0.212 0.094,-0.13 0.14,-0.3 0.046,-0.173 0.046,-0.353 0,-0.218 -0.06,-0.388 -0.057,-0.173 -0.155,-0.29 -0.1,-0.115 -0.23,-0.175 -0.13,-0.064 -0.278,-0.064 -0.177,0 -0.31,0.074 -0.13,0.074 -0.223,0.201 -0.088,0.127 -0.134,0.3 -0.046,0.17 -0.046,0.363 0,0.209 0.053,0.381 0.053,0.17 0.141,0.29 0.092,0.12 0.215,0.187 0.124,0.063 0.261,0.063 z m 2.384,-0.303 q -0.162,-0.357 -0.29,-0.688 -0.123,-0.335 -0.21,-0.596 -0.082,0.437 -0.138,0.882 -0.053,0.444 -0.138,0.85 -0.02,0.092 -0.078,0.123 -0.056,0.028 -0.095,0.028 -0.063,0 -0.102,-0.038 -0.036,-0.04 -0.036,-0.1 0,-0.08 0.018,-0.246 0.021,-0.17 0.05,-0.381 0.031,-0.212 0.07,-0.445 l 0.078,-0.448 0.077,-0.395 q 0.04,-0.176 0.067,-0.271 0.046,-0.163 0.187,-0.163 0.085,0 0.145,0.085 0.06,0.081 0.127,0.254 0.07,0.17 0.166,0.43 0.1,0.262 0.254,0.614 0.151,-0.352 0.243,-0.61 0.095,-0.261 0.16,-0.43 0.066,-0.173 0.126,-0.254 0.06,-0.085 0.148,-0.085 0.081,0 0.124,0.042 0.042,0.039 0.063,0.12 0.025,0.099 0.06,0.275 0.035,0.173 0.074,0.388 0.042,0.212 0.081,0.445 0.04,0.233 0.07,0.444 0.033,0.212 0.05,0.385 0.021,0.17 0.021,0.261 0,0.056 -0.038,0.092 -0.04,0.031 -0.1,0.031 -0.038,0 -0.094,-0.028 -0.057,-0.032 -0.078,-0.123 -0.042,-0.201 -0.078,-0.417 L 43.817,95.915 43.76,95.474 q -0.028,-0.223 -0.06,-0.441 -0.045,0.14 -0.105,0.31 -0.06,0.17 -0.127,0.342 -0.067,0.17 -0.138,0.335 -0.07,0.166 -0.138,0.3 -0.024,0.046 -0.067,0.07 -0.038,0.022 -0.08,0.022 -0.047,0 -0.089,-0.021 -0.039,-0.025 -0.06,-0.074 z m 2.005,0.377 q 0,0.085 -0.018,0.13 -0.014,0.047 -0.038,0.071 -0.022,0.025 -0.053,0.029 -0.029,0.007 -0.057,0.007 -0.095,0 -0.127,-0.043 -0.028,-0.042 -0.039,-0.19 -0.007,-0.078 -0.01,-0.226 -0.004,-0.148 -0.007,-0.353 0,-0.204 -0.004,-0.451 v -0.522 q 0,-0.131 0.032,-0.265 0.032,-0.134 0.12,-0.243 0.092,-0.11 0.25,-0.177 0.163,-0.067 0.42,-0.067 0.18,0 0.342,0.039 0.163,0.039 0.286,0.134 0.124,0.095 0.198,0.254 0.074,0.159 0.074,0.395 0,0.247 -0.08,0.41 -0.083,0.162 -0.23,0.257 -0.149,0.095 -0.353,0.134 -0.205,0.039 -0.449,0.039 h -0.12 q -0.06,0 -0.134,-0.007 z m 1.016,-1.485 q 0,-0.236 -0.134,-0.356 -0.13,-0.12 -0.438,-0.12 -0.116,0 -0.2,0.021 -0.082,0.018 -0.135,0.067 -0.053,0.046 -0.08,0.127 -0.025,0.081 -0.025,0.205 v 0.275 q 0,0.151 0.003,0.286 0.081,0.004 0.18,0.004 h 0.19 q 0.106,0 0.22,-0.015 0.116,-0.014 0.207,-0.063 0.092,-0.053 0.152,-0.152 0.06,-0.102 0.06,-0.278 z m 1.974,-0.437 q -0.099,0.007 -0.212,0.01 l -0.243,0.007 0.007,0.18 0.007,0.166 q 0.004,0.085 0.004,0.176 0.003,0.092 0.003,0.205 v 0.307 q 0,0.144 -0.003,0.293 l -0.007,0.292 -0.01,0.307 q -0.004,0.085 -0.019,0.13 -0.01,0.047 -0.03,0.072 -0.023,0.024 -0.05,0.028 -0.029,0.007 -0.064,0.007 -0.064,0 -0.11,-0.043 -0.042,-0.045 -0.049,-0.19 -0.007,-0.127 -0.01,-0.268 0,-0.141 -0.004,-0.304 -0.004,-0.162 -0.004,-0.349 V 95.04 q 0.004,-0.145 0.011,-0.25 h -0.145 q -0.148,0 -0.254,-0.005 -0.102,-0.004 -0.169,-0.017 -0.067,-0.018 -0.099,-0.053 -0.028,-0.036 -0.028,-0.1 0,-0.03 0.007,-0.055 0.007,-0.029 0.032,-0.05 0.025,-0.025 0.067,-0.039 0.046,-0.014 0.116,-0.02 l 0.12,-0.008 0.106,-0.007 q 0.053,-0.004 0.11,-0.004 h 0.13 q 0.208,0 0.392,0.004 0.186,0.004 0.395,0.014 0.084,0.007 0.13,0.021 0.046,0.011 0.07,0.032 0.025,0.021 0.03,0.05 0.006,0.028 0.006,0.063 0,0.064 -0.046,0.106 -0.042,0.042 -0.187,0.05 z"
       style="font-weight:400;font-size:3.52800012px;font-family:Sniglet;-inkscape-font-specification:'Sniglet, Normal';font-variant-ligatures:normal;font-variant-caps:normal;font-variant-numeric:normal;font-feature-settings:normal;text-align:start;letter-spacing:0;word-spacing:0;fill:#333333;stroke-width:0.78124982"
       id="path10"
       inkscape:connector-curvature="0" />
  </g>
  <path
     word-spacing="0"
     letter-spacing="0"
     font-size="2.822"
     font-weight="400"
     style="font-weight:400;font-size:2.82200003px;line-height:1.25;font-family:Sniglet;-inkscape-font-specification:'Sniglet, Normal';font-variant-ligatures:normal;font-variant-caps:normal;font-variant-numeric:normal;font-feature-settings:normal;text-align:start;letter-spacing:0;word-spacing:0;stroke-width:1"
     d="m 102.93084,102.03207 q 0.12032,0 0.24576,0.0218 0.128,0.0218 0.23168,0.064 0.10496,0.041 0.1728,0.1024 0.0691,0.0614 0.0691,0.1408 0,0.0819 -0.0435,0.12544 -0.0435,0.0435 -0.1088,0.0435 -0.0614,0 -0.1152,-0.0218 l -0.1152,-0.0461 q -0.064,-0.0256 -0.15616,-0.0474 -0.0896,-0.0218 -0.22656,-0.0218 -0.15232,0 -0.28544,0.073 -0.13056,0.0678 -0.2304,0.19456 -0.1024,0.12288 -0.16,0.2944 -0.0576,0.16768 -0.0576,0.36608 0,0.2432 0.0614,0.41984 0.0614,0.17664 0.15872,0.29184 0.1024,0.1152 0.224,0.17408 0.128,0.0538 0.25216,0.0538 0.20608,0 0.32512,-0.0576 0.12288,-0.0614 0.19584,-0.1536 0.004,-0.0768 0.004,-0.18176 v -0.22784 q 0,-0.0474 -0.008,-0.073 -0.008,-0.0282 -0.0358,-0.0435 -0.0294,-0.0128 -0.087,-0.0179 -0.0538,-0.004 -0.14848,-0.004 -0.1152,0 -0.18816,-0.0282 -0.0717,-0.0333 -0.0717,-0.1344 0,-0.0717 0.0358,-0.1152 0.0397,-0.0474 0.15872,-0.0538 h 0.0691 q 0.0512,-0.004 0.10496,-0.004 h 0.1984 q 0.1088,0 0.17408,0.0218 0.064,0.0179 0.1152,0.0858 0.0256,0.0358 0.0282,0.128 0.008,0.0896 0.008,0.20864 v 0.93184 q 0,0.0973 -0.0538,0.14464 -0.0512,0.0461 -0.11904,0.0461 -0.0832,0 -0.13696,-0.0422 -0.0512,-0.0384 -0.0512,-0.13056 v -0.1408 q -0.0934,0.1088 -0.224,0.1536 -0.12672,0.0486 -0.32,0.0486 -0.19968,0 -0.39168,-0.0794 -0.192,-0.0794 -0.3392,-0.23552 -0.14848,-0.15872 -0.2432,-0.39296 -0.0896,-0.23808 -0.0896,-0.55296 0,-0.31488 0.0896,-0.55936 0.0947,-0.24576 0.25344,-0.416 0.16,-0.1728 0.37248,-0.26368 0.21376,-0.0896 0.4608,-0.0896 z m 2.70592,2.37313 q -0.0371,-0.087 -0.0794,-0.1984 -0.0384,-0.1152 -0.087,-0.2432 l -0.22784,0.009 H 104.719 q -0.12672,0 -0.2304,-0.004 l -0.0845,0.23808 q -0.0384,0.11136 -0.0755,0.1984 -0.0717,0.18432 -0.20992,0.18432 -0.0512,0 -0.0973,-0.032 -0.0435,-0.0333 -0.0435,-0.0947 0,-0.0614 0.0218,-0.15872 0.0218,-0.1024 0.0538,-0.21248 l 0.0768,-0.23552 q 0.0384,-0.12288 0.0768,-0.22784 0.0346,-0.1152 0.0998,-0.29184 l 0.14464,-0.37632 0.15104,-0.384 q 0.0768,-0.192 0.13824,-0.3328 0.0141,-0.0346 0.0358,-0.0768 0.0218,-0.0474 0.0512,-0.087 0.032,-0.0384 0.0678,-0.0691 0.0397,-0.0294 0.087,-0.0294 0.0461,0 0.0858,0.0333 0.0397,0.0282 0.0691,0.0717 0.032,0.0435 0.0538,0.0896 0.0256,0.0486 0.0397,0.0845 l 0.13056,0.3328 q 0.0768,0.18688 0.14848,0.37888 0.0768,0.192 0.1408,0.3648 0.064,0.1728 0.10368,0.29184 l 0.073,0.224 q 0.0435,0.11904 0.0794,0.23552 0.0358,0.1152 0.0576,0.2176 0.0256,0.096 0.0256,0.15744 0,0.0614 -0.0474,0.0947 -0.0435,0.032 -0.0934,0.032 -0.064,0 -0.11904,-0.0435 -0.055,-0.0461 -0.0947,-0.1408 z m -0.64,-0.7936 0.17408,0.003 q 0.0858,0 0.1728,0.004 l -0.087,-0.25216 -0.0832,-0.2432 -0.0678,-0.21248 -0.0512,-0.17664 q -0.0128,-0.0474 -0.032,-0.0768 -0.0179,-0.0282 -0.0474,-0.0282 -0.0282,0 -0.0461,0.032 -0.0192,0.0294 -0.0333,0.0768 -0.0435,0.1472 -0.12288,0.384 l -0.16256,0.49664 q 0.0973,-0.004 0.19584,-0.004 0.0973,-0.004 0.192,-0.004 z m 2.40128,-1.21856 q -0.1024,0.008 -0.2176,0.0102 l -0.24832,0.008 0.008,0.18432 0.008,0.17024 q 0.004,0.0858 0.004,0.1792 0.004,0.0947 0.004,0.20992 v 0.31488 q 0,0.14848 -0.004,0.29952 l -0.008,0.29952 -0.0102,0.31488 q -0.004,0.087 -0.0179,0.13312 -0.0102,0.0474 -0.0333,0.073 -0.0218,0.0256 -0.0512,0.0282 -0.0282,0.008 -0.064,0.008 -0.064,0 -0.11264,-0.0435 -0.0435,-0.0461 -0.0512,-0.19456 -0.006,-0.13056 -0.009,-0.27392 0,-0.14464 -0.004,-0.31104 -0.004,-0.1664 -0.004,-0.3584 v -0.77594 q 0.004,-0.14848 0.0102,-0.256 h -0.14848 q -0.15104,0 -0.25984,-0.005 -0.10496,-0.004 -0.17408,-0.0179 -0.0678,-0.0179 -0.10112,-0.0538 -0.0282,-0.0358 -0.0282,-0.1024 0,-0.0307 0.008,-0.0563 0.008,-0.0294 0.032,-0.0512 0.0256,-0.0256 0.0691,-0.0384 0.0474,-0.0154 0.11904,-0.023 l 0.12288,-0.008 0.1088,-0.008 q 0.0538,-0.004 0.11136,-0.004 h 0.1344 q 0.21248,0 0.40064,0.004 0.192,0.004 0.40448,0.0154 0.087,0.008 0.13312,0.0205 0.0474,0.0102 0.073,0.0333 0.0256,0.0218 0.0282,0.0512 0.008,0.0282 0.008,0.064 0,0.064 -0.0461,0.1088 -0.0435,0.0435 -0.192,0.0512 z m 0.51456,1.64736 q -0.008,-0.1152 -0.0154,-0.31488 -0.008,-0.1984 -0.008,-0.40704 v -0.24576 l 0.008,-0.26368 q 0.008,-0.2688 0.0333,-0.41984 0.0282,-0.15104 0.10752,-0.22784 0.0832,-0.0768 0.23168,-0.0934 0.14848,-0.0179 0.39424,-0.0179 h 0.0768 q 0.0768,0 0.1792,0.004 0.10496,0 0.2176,0.004 l 0.192,0.008 q 0.0781,0.008 0.12544,0.0218 0.0512,0.0102 0.0768,0.032 0.0256,0.0179 0.0307,0.0474 0.008,0.0256 0.008,0.0576 0,0.0832 -0.0461,0.12288 -0.0474,0.0358 -0.192,0.0474 -0.0717,0.008 -0.21248,0.0102 h -0.2816 q -0.14464,0 -0.26112,0.004 h -0.14464 q -0.0934,0.004 -0.13312,0.0435 -0.0358,0.0358 -0.0358,0.17664 l 0.004,0.15872 q 0.008,0.12288 0.008,0.3456 h 0.29952 q 0.192,0 0.31104,0.009 0.12288,0.004 0.18688,0.0218 0.0691,0.0179 0.0947,0.0576 0.0256,0.0384 0.0256,0.10496 0,0.032 -0.008,0.0614 -0.004,0.0256 -0.0294,0.0474 -0.0256,0.0179 -0.0717,0.032 -0.0474,0.0102 -0.1344,0.0179 -0.10496,0.008 -0.1984,0.0102 h -0.48384 v 0.44032 l 0.008,0.12288 q 0.004,0.0589 0.0141,0.0986 0.0141,0.0384 0.0474,0.064 0.0358,0.0256 0.1024,0.0384 0.0666,0.009 0.1792,0.009 h 0.77696 q 0.128,0 0.15872,0.0461 0.032,0.0474 0.032,0.128 0,0.064 -0.0282,0.0998 -0.0294,0.0333 -0.1408,0.0474 -0.1088,0.0179 -0.32896,0.0218 -0.2176,0.004 -0.60032,0.004 -0.16256,0 -0.26624,-0.0294 -0.10496,-0.0282 -0.17024,-0.0973 -0.064,-0.0691 -0.0973,-0.17664 -0.0294,-0.11264 -0.0384,-0.27136 z"
     id="path14"
     inkscape:connector-curvature="0" />
  <path
     word-spacing="0"
     letter-spacing="0"
     font-size="10.667"
     font-weight="400"
     style="font-weight:400;font-size:10.66699982px;line-height:1.25;font-family:Sniglet;-inkscape-font-specification:'Sniglet, Normal';font-variant-ligatures:normal;font-variant-caps:normal;font-variant-numeric:normal;font-feature-settings:normal;text-align:start;letter-spacing:0;word-spacing:0;stroke-width:1"
     d="m 92.166035,102.14088 q 0.11904,0 0.23808,0.0218 0.12288,0.0179 0.22144,0.0614 0.09728,0.0397 0.15872,0.1024 0.064,0.0563 0.064,0.13568 0,0.0832 -0.04224,0.128 -0.04352,0.0422 -0.1088,0.0422 -0.06144,0 -0.1088,-0.0179 -0.04608,-0.0218 -0.10752,-0.0474 -0.05888,-0.0256 -0.1408,-0.0435 -0.0832,-0.0218 -0.22144,-0.0218 -0.13696,0 -0.26368,0.073 -0.12288,0.0678 -0.2176,0.19456 -0.0896,0.12288 -0.14336,0.2944 -0.05376,0.16768 -0.05376,0.36736 0,0.24448 0.06144,0.4224 0.064,0.17664 0.1664,0.29184 0.1024,0.11264 0.22656,0.17024 0.13056,0.0538 0.26112,0.0538 0.1536,0 0.25984,-0.032 0.10496,-0.032 0.17664,-0.0717 0.0768,-0.0384 0.13056,-0.073 0.05376,-0.032 0.10496,-0.032 0.06144,0 0.09728,0.0358 0.03584,0.032 0.03584,0.11904 0,0.0717 -0.0576,0.14848 -0.05504,0.0717 -0.16256,0.13312 -0.10496,0.0576 -0.25344,0.0973 -0.14848,0.0384 -0.3328,0.0384 -0.20096,0 -0.40448,-0.0819 -0.1984,-0.0794 -0.3584,-0.23424 -0.1536,-0.15872 -0.25088,-0.39424 -0.09856,-0.23808 -0.09856,-0.5504 0,-0.31617 0.08704,-0.56193 0.0896,-0.24576 0.2432,-0.41472 0.1536,-0.17408 0.3584,-0.26368 0.2048,-0.0896 0.4352,-0.0896 z m 2.101761,2.4128 q -0.04736,0.087 -0.08704,0.128 -0.03584,0.0384 -0.09344,0.0384 -0.05888,0 -0.1024,-0.0384 -0.04224,-0.041 -0.09344,-0.12416 -0.064,-0.1088 -0.14848,-0.29952 -0.07936,-0.192 -0.16256,-0.416 -0.08192,-0.22656 -0.16256,-0.46976 -0.07936,-0.24192 -0.143361,-0.4544 -0.06144,-0.21376 -0.1024,-0.3712 -0.03584,-0.16384 -0.03584,-0.2304 0,-0.0742 0.02944,-0.11008 0.02944,-0.0358 0.11136,-0.0358 0.04736,0 0.08064,0.0256 0.03584,0.0205 0.0896,0.12928 0.04352,0.0832 0.09344,0.2176 0.0512,0.13312 0.10496,0.2944 0.0576,0.16384 0.1152,0.3456 l 0.1152,0.352 0.11008,0.34048 0.09344,0.29184 0.09728,-0.2944 0.11264,-0.34048 0.1152,-0.35456 q 0.0576,-0.1792 0.1152,-0.3392 l 0.1088,-0.29312 q 0.0512,-0.13312 0.0896,-0.22016 0.0512,-0.10496 0.08704,-0.13056 0.0384,-0.0256 0.07936,-0.0256 0.0832,0 0.11264,0.0448 0.032,0.0384 0.032,0.11904 0,0.0717 -0.02176,0.1728 -0.02048,0.1024 -0.0768,0.27136 -0.0512,0.1664 -0.13568,0.41472 l -0.21376,0.61056 q -0.032,0.0973 -0.0768,0.20224 -0.0384,0.10496 -0.08192,0.20608 -0.0384,0.0973 -0.07936,0.18816 -0.0384,0.0896 -0.0768,0.15488 z"
     id="path16"
     inkscape:connector-curvature="0" />
  <g
     transform="matrix(1.2800003,0,0,1.2800003,-26.694459,-206.56905)"
     id="g26"
     style="stroke-width:0.78124982">
    <rect
       ry="0.47578117"
       rx="0.47578117"
       width="77.258003"
       height="41.009998"
       x="27.865999"
       y="170.567"
       id="rect22"
       style="fill:#333333;stroke-width:0.78124982;paint-order:markers stroke fill" />
    <path
       d="m 45.858,171.897 0.047,18.245 3.398,1.85 V 210.27 H 40.02 v -18.278 l 3.461,-1.85 v -18.245 z m 32.702,0 0.048,18.245 3.397,1.85 v 18.278 h -9.283 v -18.278 l 3.461,-1.85 v -18.245 z m 8.477,0 -0.048,18.245 -3.397,1.85 v 18.278 h 9.282 v -18.278 l -3.46,-1.85 v -18.245 z m -52.049,0 0.048,18.245 3.397,1.85 V 210.27 H 29.15 v -18.278 l -0.008,-20.095 h 3.468 z m 19.34,0 -0.048,18.245 -3.397,1.85 v 18.278 h 9.282 v -18.278 l 0.007,-20.095 h -3.468 z m 13.362,0 0.048,18.245 3.397,1.85 v 18.278 h -9.282 v -18.278 l -0.008,-20.095 h 3.469 z m 30.217,0 -0.048,18.245 -3.397,1.85 v 18.278 h 9.282 v -18.278 l 0.007,-20.095 h -3.468 z"
       id="path24"
       inkscape:connector-curvature="0"
       style="fill:#999999;stroke:#000000;stroke-width:0.20703119" />
  </g>
  <path
     d="m 66.717402,77.374693 h -1.69344"
     id="path28"
     inkscape:connector-curvature="0"
     style="fill:none;stroke:#000000;stroke-width:0.13200001" />
  <g
     aria-label="INDEX"
     style="font-weight:400;font-size:2.82200003px;line-height:1.25;font-family:Sniglet;letter-spacing:0;word-spacing:0;stroke-width:0.20703119"
     font-weight="400"
     font-size="2.822"
     letter-spacing="0"
     word-spacing="0"
     id="g36"
     transform="matrix(1.2800003,0,0,1.2800003,5.0802684,-0.09604601)">
    <path
       d="m 15.45,71.49 q -0.006,-0.1 -0.008,-0.211 0,-0.11 -0.003,-0.237 -0.003,-0.127 -0.003,-0.274 v -0.333 q 0,-0.2 0.003,-0.341 0.003,-0.144 0.017,-0.235 0.014,-0.09 0.042,-0.132 0.031,-0.043 0.082,-0.043 0.025,0 0.048,0.006 0.022,0.006 0.04,0.025 0.016,0.017 0.028,0.054 0.014,0.034 0.016,0.09 l 0.009,0.181 0.006,0.158 q 0.002,0.076 0.002,0.16 v 0.43 q 0,0.116 -0.002,0.228 l -0.006,0.23 q -0.003,0.115 -0.009,0.242 -0.002,0.068 -0.014,0.104 -0.01,0.037 -0.028,0.057 -0.017,0.02 -0.04,0.022 -0.022,0.006 -0.05,0.006 -0.05,0 -0.088,-0.034 -0.036,-0.037 -0.042,-0.152 z m 1.764,0.043 q -0.09,-0.124 -0.172,-0.246 l -0.172,-0.27 q -0.09,-0.147 -0.209,-0.325 -0.116,-0.18 -0.28,-0.42 v 0.38 q 0,0.167 -0.002,0.31 l -0.006,0.272 -0.008,0.254 q -0.003,0.068 -0.014,0.104 -0.009,0.037 -0.026,0.057 -0.017,0.02 -0.04,0.022 -0.019,0.006 -0.047,0.006 -0.051,0 -0.085,-0.034 -0.034,-0.037 -0.04,-0.152 -0.013,-0.31 -0.016,-0.621 v -0.647 q 0,-0.189 0.003,-0.296 0.005,-0.107 0.02,-0.16 0.016,-0.054 0.042,-0.069 0.028,-0.014 0.073,-0.014 0.045,0 0.119,0.07 0.073,0.069 0.16,0.182 0.088,0.112 0.187,0.26 0.101,0.146 0.2,0.301 0.099,0.155 0.19,0.308 l 0.168,0.276 q -0.002,-0.132 -0.002,-0.29 v -0.356 q 0,-0.223 0.002,-0.367 0.003,-0.147 0.015,-0.231 0.014,-0.085 0.042,-0.119 0.028,-0.034 0.079,-0.034 0.048,0 0.085,0.031 0.036,0.031 0.042,0.144 0.006,0.102 0.008,0.181 l 0.006,0.158 q 0.003,0.076 0.003,0.16 v 0.43 q 0,0.116 -0.003,0.228 l -0.006,0.23 q -0.002,0.115 -0.008,0.242 -0.003,0.068 -0.014,0.104 -0.009,0.037 -0.026,0.057 -0.017,0.02 -0.04,0.022 -0.019,0.006 -0.047,0.006 -0.048,0 -0.082,-0.028 -0.034,-0.029 -0.099,-0.116 z m 1.242,-1.863 q 0.29,0 0.465,0.088 0.175,0.087 0.268,0.231 0.094,0.144 0.122,0.328 0.03,0.183 0.03,0.372 0,0.206 -0.053,0.39 -0.05,0.183 -0.16,0.321 -0.108,0.136 -0.277,0.218 -0.17,0.079 -0.404,0.079 -0.186,0 -0.299,-0.029 -0.11,-0.025 -0.172,-0.079 -0.06,-0.053 -0.08,-0.135 -0.019,-0.082 -0.019,-0.192 v -1.061 q 0,-0.121 0.02,-0.22 0.022,-0.099 0.085,-0.167 0.062,-0.07 0.175,-0.107 0.115,-0.037 0.299,-0.037 z m 0.011,1.744 q 0.175,0 0.288,-0.062 0.116,-0.065 0.183,-0.169 0.068,-0.104 0.093,-0.237 0.029,-0.133 0.029,-0.271 0,-0.127 -0.02,-0.254 -0.02,-0.13 -0.082,-0.234 -0.062,-0.105 -0.178,-0.17 -0.115,-0.064 -0.307,-0.064 -0.175,0 -0.243,0.05 -0.068,0.051 -0.068,0.156 v 1.08 q 0,0.088 0.062,0.133 0.065,0.042 0.243,0.042 z m 1.174,-0.177 q -0.005,-0.09 -0.01,-0.246 -0.006,-0.155 -0.006,-0.319 V 70.48 l 0.005,-0.206 q 0.006,-0.209 0.026,-0.327 0.022,-0.119 0.084,-0.178 0.065,-0.06 0.18,-0.073 0.117,-0.014 0.308,-0.014 h 0.06 l 0.14,0.002 q 0.083,0 0.17,0.003 l 0.15,0.006 q 0.062,0.005 0.099,0.017 0.04,0.008 0.059,0.025 0.02,0.014 0.025,0.037 0.006,0.02 0.006,0.045 0,0.065 -0.037,0.096 -0.037,0.028 -0.15,0.037 -0.056,0.005 -0.166,0.008 h -0.22 q -0.113,0 -0.203,0.003 h -0.113 q -0.074,0.003 -0.105,0.034 -0.028,0.028 -0.028,0.138 l 0.003,0.124 q 0.006,0.096 0.006,0.271 h 0.234 q 0.15,0 0.243,0.006 0.095,0.003 0.146,0.017 0.054,0.014 0.074,0.045 0.02,0.03 0.02,0.082 0,0.025 -0.006,0.048 -0.003,0.02 -0.023,0.036 -0.02,0.015 -0.056,0.026 -0.037,0.008 -0.105,0.014 -0.081,0.006 -0.155,0.008 h -0.378 v 0.345 l 0.006,0.096 q 0.002,0.045 0.01,0.076 0.012,0.03 0.038,0.05 0.028,0.02 0.079,0.029 0.053,0.008 0.14,0.008 h 0.607 q 0.1,0 0.125,0.037 0.025,0.037 0.025,0.099 0,0.05 -0.023,0.079 -0.022,0.025 -0.11,0.037 -0.084,0.014 -0.256,0.017 -0.17,0.002 -0.469,0.002 -0.127,0 -0.209,-0.022 -0.082,-0.023 -0.132,-0.076 -0.051,-0.054 -0.077,-0.139 -0.022,-0.087 -0.03,-0.211 z m 2.22,-0.314 -0.42,0.652 q -0.04,0.062 -0.088,0.093 -0.045,0.034 -0.104,0.034 -0.073,0 -0.104,-0.036 -0.029,-0.034 -0.029,-0.088 0,-0.03 0.012,-0.065 0.014,-0.034 0.036,-0.065 l 0.525,-0.75 -0.525,-0.751 q -0.022,-0.031 -0.036,-0.065 -0.012,-0.034 -0.012,-0.065 0,-0.054 0.029,-0.087 0.03,-0.037 0.104,-0.037 0.06,0 0.104,0.034 0.048,0.03 0.088,0.093 l 0.42,0.652 0.42,-0.652 q 0.04,-0.062 0.086,-0.093 0.048,-0.034 0.107,-0.034 0.073,0 0.101,0.037 0.031,0.033 0.031,0.087 0,0.031 -0.014,0.065 -0.01,0.034 -0.034,0.065 l -0.524,0.75 0.524,0.751 q 0.023,0.031 0.034,0.065 0.014,0.034 0.014,0.065 0,0.054 -0.03,0.088 -0.029,0.036 -0.102,0.036 -0.06,0 -0.107,-0.034 -0.046,-0.03 -0.085,-0.093 z"
       style="-inkscape-font-specification:'Sniglet, Normal';font-variant-ligatures:normal;font-variant-caps:normal;font-variant-numeric:normal;font-feature-settings:normal;text-align:start;stroke-width:0.20703119"
       id="path34"
       inkscape:connector-curvature="0" />
  </g>
  <path
     d="m 66.717402,88.889575 h -1.69344 m 1.69344,11.514885 h -1.69344 m 1.69344,11.5136 h -1.69344"
     id="path38"
     inkscape:connector-curvature="0"
     style="fill:none;stroke:#000000;stroke-width:0.13200001" />
  <g
     font-weight="400"
     font-size="2.822"
     letter-spacing="0"
     word-spacing="0"
     id="g42"
     style="font-weight:400;font-size:2.82200003px;font-family:Sniglet;letter-spacing:0;word-spacing:0;stroke-width:0.78124982"
     transform="matrix(1.2800003,0,0,1.2800003,5.0802684,-2.7418879)">
    <path
       d="m 5.875,83.116 q 0.093,0 0.192,0.017 0.099,0.017 0.18,0.051 0.082,0.031 0.136,0.079 0.054,0.048 0.054,0.11 0,0.065 -0.034,0.099 -0.034,0.034 -0.085,0.034 -0.048,0 -0.09,-0.017 l -0.09,-0.037 q -0.051,-0.02 -0.122,-0.037 -0.07,-0.017 -0.178,-0.017 -0.118,0 -0.223,0.057 -0.101,0.054 -0.18,0.152 -0.08,0.096 -0.124,0.229 -0.046,0.133 -0.046,0.288 0,0.189 0.048,0.327 0.048,0.138 0.125,0.229 0.079,0.09 0.175,0.135 0.098,0.043 0.197,0.043 0.16,0 0.254,-0.046 0.096,-0.048 0.152,-0.12 0.003,-0.06 0.003,-0.142 v -0.178 q 0,-0.037 -0.005,-0.056 Q 6.208,84.293 6.185,84.282 6.163,84.271 6.118,84.268 6.075,84.265 6.002,84.265 q -0.09,0 -0.147,-0.023 -0.056,-0.025 -0.056,-0.104 0,-0.057 0.028,-0.09 0.031,-0.037 0.124,-0.043 h 0.054 q 0.04,-0.003 0.082,-0.003 h 0.155 q 0.085,0 0.135,0.017 0.051,0.015 0.09,0.068 0.02,0.028 0.023,0.099 0.006,0.07 0.006,0.164 v 0.728 q 0,0.076 -0.042,0.113 -0.04,0.036 -0.094,0.036 -0.065,0 -0.107,-0.034 -0.04,-0.03 -0.04,-0.101 v -0.11 Q 6.14,85.066 6.039,85.103 5.939,85.14 5.787,85.14 5.632,85.14 5.483,85.078 5.333,85.016 5.217,84.894 5.102,84.77 5.028,84.587 4.958,84.4 4.958,84.155 q 0,-0.246 0.07,-0.438 0.074,-0.191 0.198,-0.324 0.124,-0.136 0.29,-0.206 0.167,-0.07 0.359,-0.07 z M 7.988,84.97 Q 7.96,84.903 7.926,84.815 7.896,84.725 7.858,84.626 L 7.681,84.632 H 7.27 q -0.098,0 -0.18,-0.003 l -0.065,0.186 q -0.031,0.088 -0.06,0.155 -0.056,0.144 -0.163,0.144 -0.04,0 -0.076,-0.025 -0.034,-0.025 -0.034,-0.073 0,-0.048 0.017,-0.125 0.017,-0.079 0.042,-0.166 0.028,-0.09 0.06,-0.184 0.03,-0.095 0.059,-0.177 0.028,-0.09 0.079,-0.229 l 0.112,-0.293 0.119,-0.3 q 0.06,-0.15 0.107,-0.26 l 0.028,-0.061 q 0.017,-0.037 0.04,-0.068 0.025,-0.031 0.054,-0.054 0.03,-0.022 0.067,-0.022 0.037,0 0.068,0.025 0.031,0.023 0.054,0.057 0.025,0.033 0.042,0.07 0.02,0.037 0.031,0.065 l 0.102,0.26 q 0.059,0.146 0.115,0.296 0.06,0.15 0.11,0.285 0.051,0.136 0.082,0.229 l 0.057,0.175 q 0.034,0.093 0.062,0.183 0.028,0.09 0.045,0.17 0.02,0.076 0.02,0.124 0,0.048 -0.037,0.073 -0.034,0.025 -0.073,0.025 -0.051,0 -0.093,-0.033 -0.043,-0.037 -0.074,-0.11 z m -0.5,-0.62 0.136,0.002 q 0.068,0 0.136,0.003 L 7.692,84.158 7.627,83.968 Q 7.599,83.878 7.573,83.802 l -0.04,-0.138 q -0.01,-0.037 -0.025,-0.06 -0.014,-0.022 -0.036,-0.022 -0.023,0 -0.037,0.025 -0.014,0.023 -0.025,0.06 -0.034,0.115 -0.096,0.302 l -0.127,0.386 q 0.076,-0.003 0.152,-0.003 l 0.15,-0.002 z m 1.876,-0.952 q -0.079,0.006 -0.17,0.009 L 9,83.413 l 0.006,0.144 0.005,0.132 q 0.003,0.068 0.003,0.141 0.003,0.074 0.003,0.164 v 0.246 q 0,0.115 -0.003,0.234 L 9.009,84.708 Q 9.006,84.827 9,84.954 q -0.003,0.067 -0.014,0.104 -0.009,0.037 -0.025,0.056 -0.017,0.02 -0.04,0.023 -0.023,0.006 -0.05,0.006 -0.052,0 -0.088,-0.034 -0.034,-0.037 -0.04,-0.153 -0.005,-0.101 -0.008,-0.214 0,-0.113 -0.003,-0.243 -0.003,-0.13 -0.003,-0.28 v -0.335 -0.271 q 0.003,-0.116 0.009,-0.2 H 8.622 Q 8.503,83.413 8.419,83.41 8.337,83.407 8.283,83.396 8.23,83.382 8.204,83.353 8.182,83.325 8.182,83.274 q 0,-0.025 0.005,-0.045 0.006,-0.022 0.026,-0.04 0.02,-0.02 0.053,-0.03 0.037,-0.012 0.093,-0.017 L 8.455,83.136 8.54,83.13 q 0.042,-0.002 0.088,-0.002 h 0.104 q 0.166,0 0.313,0.002 0.15,0.003 0.316,0.012 0.068,0.005 0.105,0.017 0.036,0.008 0.056,0.025 0.02,0.017 0.023,0.04 0.005,0.022 0.005,0.05 0,0.051 -0.036,0.085 -0.034,0.034 -0.15,0.04 z M 9.766,84.685 9.755,84.44 Q 9.749,84.285 9.749,84.121 v -0.192 l 0.006,-0.206 q 0.005,-0.209 0.025,-0.327 0.023,-0.119 0.085,-0.178 0.065,-0.06 0.18,-0.074 0.116,-0.014 0.308,-0.014 h 0.06 q 0.059,0 0.14,0.003 0.082,0 0.17,0.003 l 0.15,0.006 q 0.062,0.005 0.098,0.017 0.04,0.008 0.06,0.025 0.02,0.014 0.025,0.037 0.005,0.02 0.005,0.045 0,0.065 -0.036,0.096 -0.037,0.028 -0.15,0.036 -0.056,0.006 -0.166,0.009 h -0.22 q -0.113,0 -0.204,0.003 h -0.113 q -0.073,0.003 -0.104,0.034 -0.028,0.028 -0.028,0.138 l 0.003,0.124 q 0.005,0.096 0.005,0.271 h 0.234 q 0.15,0 0.243,0.006 0.096,0.002 0.147,0.017 0.054,0.014 0.073,0.045 0.02,0.03 0.02,0.082 0,0.025 -0.006,0.047 -0.002,0.02 -0.022,0.037 -0.02,0.014 -0.057,0.026 -0.036,0.008 -0.104,0.014 l -0.155,0.008 h -0.378 v 0.345 q 0.002,0.059 0.005,0.095 0.003,0.046 0.012,0.077 0.01,0.03 0.036,0.05 0.028,0.02 0.08,0.029 0.053,0.008 0.14,0.008 h 0.607 q 0.099,0 0.124,0.037 0.026,0.037 0.026,0.099 0,0.05 -0.023,0.079 -0.022,0.025 -0.11,0.036 -0.085,0.014 -0.257,0.017 -0.17,0.003 -0.468,0.003 -0.127,0 -0.21,-0.022 Q 9.924,85.089 9.873,85.035 9.823,84.982 9.797,84.897 9.774,84.81 9.766,84.685 Z"
       style="line-height:1.25;-inkscape-font-specification:'Sniglet, Normal';font-variant-ligatures:normal;font-variant-caps:normal;font-variant-numeric:normal;font-feature-settings:normal;text-align:start;stroke-width:0.78124982"
       id="path40"
       inkscape:connector-curvature="0" />
  </g>
  <path
     d="m 23.781072,114.62782 h -1.69344 m 1.01504,-16.933125 h -1.69344"
     id="path48"
     inkscape:connector-curvature="0"
     style="fill:none;stroke:#000000;stroke-width:0.13200001" />
  <g
     aria-label="0 - 2V"
     style="font-weight:400;font-size:2.82200003px;line-height:1.25;font-family:Sniglet;letter-spacing:0;word-spacing:0;stroke-width:0.20703119"
     font-weight="400"
     font-size="2.822"
     letter-spacing="0"
     word-spacing="0"
     id="g56"
     transform="matrix(1.2800003,0,0,1.2800003,8.701484,34.838034)">
    <path
       d="m 4.26,70.715 q 0,-0.173 0.03,-0.353 0.035,-0.18 0.12,-0.328 0.084,-0.146 0.228,-0.24 0.147,-0.093 0.372,-0.093 0.178,0 0.302,0.054 0.127,0.054 0.21,0.141 0.081,0.088 0.126,0.2 0.045,0.11 0.068,0.232 0.023,0.121 0.025,0.24 0.006,0.118 0.006,0.217 0,0.198 -0.048,0.364 -0.045,0.164 -0.141,0.282 -0.093,0.119 -0.237,0.187 -0.141,0.065 -0.333,0.065 -0.2,0 -0.342,-0.077 Q 4.508,71.527 4.421,71.398 4.336,71.265 4.296,71.09 4.26,70.912 4.26,70.715 Z m 0.282,-0.006 q 0,0.138 0.022,0.265 0.026,0.124 0.08,0.22 0.053,0.093 0.138,0.15 0.087,0.056 0.211,0.056 0.119,0 0.206,-0.048 0.09,-0.048 0.15,-0.132 0.06,-0.088 0.088,-0.206 0.028,-0.119 0.028,-0.257 0,-0.105 -0.009,-0.237 -0.008,-0.136 -0.053,-0.254 -0.043,-0.119 -0.136,-0.2 -0.093,-0.082 -0.26,-0.082 -0.14,0 -0.23,0.067 -0.088,0.068 -0.142,0.175 -0.054,0.105 -0.073,0.235 -0.02,0.127 -0.02,0.248 z m 3.021,0.265 q -0.13,0.006 -0.3,0.011 -0.169,0.003 -0.4,0.003 -0.096,0 -0.164,-0.003 -0.068,-0.002 -0.11,-0.014 -0.042,-0.014 -0.062,-0.042 -0.02,-0.028 -0.02,-0.079 0,-0.025 0.006,-0.045 0.006,-0.023 0.025,-0.04 0.02,-0.017 0.054,-0.028 0.037,-0.014 0.093,-0.02 l 0.073,-0.005 q 0.034,-0.003 0.065,-0.003 0.031,-0.003 0.065,-0.003 h 0.085 q 0.152,0 0.293,0.003 0.142,0 0.294,0.008 0.068,0.006 0.104,0.017 0.037,0.009 0.057,0.026 0.02,0.017 0.022,0.04 0.006,0.022 0.006,0.05 0,0.05 -0.037,0.085 -0.033,0.034 -0.15,0.04 z m 1.59,-0.999 q -0.102,0 -0.17,0.023 -0.067,0.02 -0.112,0.053 -0.045,0.034 -0.074,0.07 -0.025,0.038 -0.05,0.071 -0.023,0.034 -0.051,0.057 -0.026,0.02 -0.065,0.02 -0.068,0 -0.096,-0.034 -0.025,-0.037 -0.025,-0.096 0,-0.124 0.093,-0.232 0.028,-0.033 0.076,-0.07 0.05,-0.04 0.118,-0.07 0.071,-0.032 0.161,-0.052 0.093,-0.022 0.21,-0.022 0.307,0 0.476,0.15 0.17,0.149 0.17,0.42 0,0.054 -0.012,0.119 -0.008,0.064 -0.037,0.135 -0.025,0.07 -0.073,0.147 -0.048,0.076 -0.127,0.155 -0.07,0.07 -0.15,0.13 -0.079,0.059 -0.163,0.118 l -0.178,0.127 q -0.09,0.065 -0.183,0.15 0.09,0.048 0.194,0.062 0.105,0.014 0.235,0.014 0.12,0 0.194,-0.006 0.074,-0.005 0.119,-0.014 l 0.07,-0.014 q 0.026,-0.005 0.054,-0.005 0.104,0 0.104,0.096 0,0.084 -0.07,0.13 -0.07,0.045 -0.17,0.067 -0.098,0.02 -0.203,0.023 -0.104,0.005 -0.172,0.005 -0.037,0 -0.104,-0.005 Q 9.077,71.694 9.001,71.683 8.924,71.671 8.845,71.652 8.769,71.629 8.705,71.595 8.642,71.558 8.603,71.508 q -0.04,-0.054 -0.04,-0.127 0,-0.1 0.07,-0.187 0.074,-0.09 0.181,-0.175 0.108,-0.087 0.232,-0.172 0.124,-0.087 0.231,-0.178 0.107,-0.093 0.178,-0.191 0.073,-0.1 0.073,-0.215 0,-0.144 -0.098,-0.214 -0.096,-0.074 -0.277,-0.074 z m 1.787,1.592 q -0.036,0.068 -0.067,0.099 -0.028,0.03 -0.074,0.03 -0.045,0 -0.079,-0.03 -0.033,-0.031 -0.073,-0.096 -0.05,-0.085 -0.116,-0.235 -0.062,-0.15 -0.127,-0.324 -0.065,-0.178 -0.127,-0.367 -0.062,-0.19 -0.113,-0.356 -0.048,-0.166 -0.079,-0.29 -0.028,-0.127 -0.028,-0.18 0,-0.057 0.023,-0.086 0.022,-0.028 0.087,-0.028 0.037,0 0.062,0.02 0.029,0.017 0.07,0.102 0.035,0.064 0.074,0.169 0.04,0.104 0.082,0.231 0.045,0.127 0.09,0.268 l 0.09,0.277 q 0.046,0.138 0.085,0.265 l 0.074,0.229 0.076,-0.232 0.087,-0.265 0.09,-0.276 q 0.046,-0.142 0.091,-0.266 0.045,-0.124 0.085,-0.228 0.04,-0.105 0.07,-0.172 0.04,-0.082 0.068,-0.102 0.031,-0.02 0.062,-0.02 0.065,0 0.088,0.034 0.025,0.031 0.025,0.093 0,0.057 -0.017,0.136 -0.017,0.079 -0.06,0.211 -0.039,0.13 -0.106,0.325 l -0.167,0.477 q -0.025,0.076 -0.06,0.158 -0.03,0.082 -0.064,0.16 -0.031,0.077 -0.062,0.147 -0.031,0.071 -0.06,0.122 z"
       style="-inkscape-font-specification:'Sniglet, Normal';font-variant-ligatures:normal;font-variant-caps:normal;font-variant-numeric:normal;font-feature-settings:normal;text-align:start;stroke-width:0.20703119"
       id="path54"
       inkscape:connector-curvature="0" />
  </g>
  <g
     aria-label="PROB-KEY"
     style="font-style:normal;font-variant:normal;font-weight:normal;font-stretch:normal;font-size:5.46807337px;line-height:1.25;font-family:Sniglet;-inkscape-font-specification:'Sniglet, Normal';font-variant-ligatures:normal;font-variant-caps:normal;font-variant-numeric:normal;font-feature-settings:normal;text-align:start;letter-spacing:0px;word-spacing:0px;writing-mode:lr-tb;text-anchor:start;fill:#000000;fill-opacity:1;stroke:none;stroke-width:0.26458418"
     id="text4534">
    <path
       d="m 46.474825,7.9064536 q 0,0.1312338 -0.02734,0.2023187 -0.02187,0.071085 -0.06015,0.1093615 -0.03281,0.038277 -0.08202,0.043745 -0.04374,0.010936 -0.08749,0.010936 -0.147638,0 -0.196851,-0.065617 -0.04374,-0.065617 -0.06015,-0.2952759 -0.01094,-0.1202976 -0.0164,-0.3499567 -0.0055,-0.2296591 -0.01094,-0.5468074 0,-0.3171482 -0.0055,-0.6999133 0,-0.3827652 0,-0.8092749 0,-0.2023187 0.04921,-0.4101055 0.04921,-0.2077868 0.185914,-0.3772971 0.14217,-0.1695102 0.388233,-0.2734036 0.251532,-0.1038934 0.650701,-0.1038934 0.278872,0 0.530403,0.060149 0.251532,0.060149 0.442914,0.2077868 0.191383,0.1476379 0.306212,0.3937012 0.11483,0.2460634 0.11483,0.6124243 0,0.3827651 -0.125766,0.6342965 -0.125766,0.2515314 -0.355425,0.3991693 -0.229659,0.147638 -0.546807,0.2077868 -0.317148,0.060149 -0.694445,0.060149 -0.09296,0 -0.185915,0 -0.09296,0 -0.207787,-0.010936 z M 48.04963,5.6043947 q 0,-0.3663609 -0.207786,-0.5522754 -0.202319,-0.1859145 -0.678041,-0.1859145 -0.180447,0 -0.311681,0.032808 -0.125765,0.02734 -0.207786,0.1038933 -0.08202,0.071085 -0.125766,0.1968507 -0.03828,0.1257657 -0.03828,0.3171482 0,0.1859145 0,0.4265098 0,0.2351271 0.0055,0.4429139 0.125765,0.00547 0.278871,0.00547 0.158574,0 0.295276,0 0.164042,0 0.339021,-0.021872 0.180446,-0.021872 0.322616,-0.098425 0.14217,-0.082021 0.235127,-0.2351272 0.09296,-0.1585741 0.09296,-0.4319778 z"
       style="font-style:normal;font-variant:normal;font-weight:normal;font-stretch:normal;font-size:5.46807337px;font-family:Sniglet;-inkscape-font-specification:'Sniglet, Normal';font-variant-ligatures:normal;font-variant-caps:normal;font-variant-numeric:normal;font-feature-settings:normal;text-align:start;writing-mode:lr-tb;text-anchor:start;stroke-width:0.26458418"
       id="path4540" />
    <path
       d="m 50.298974,6.9057962 q -0.07655,0.00547 -0.158574,0.010936 -0.07655,0 -0.158575,0 -0.09296,0 -0.185914,0 -0.09296,0 -0.207787,-0.010936 v 1.1100189 q 0,0.1749783 -0.08749,0.2187229 -0.08202,0.038277 -0.207787,0.038277 -0.06562,0 -0.103893,-0.010936 -0.03828,-0.00547 -0.06562,-0.02734 -0.02187,-0.02734 -0.03828,-0.076553 -0.01094,-0.049213 -0.0164,-0.1367019 -0.01094,-0.098425 -0.0164,-0.2843398 -0.0055,-0.1913825 -0.01094,-0.4921266 0,-0.300744 -0.0055,-0.7272537 0,-0.4319778 0,-1.0115936 0,-0.224191 0.05468,-0.4319778 0.05468,-0.2132549 0.19685,-0.371829 0.14217,-0.1640422 0.382765,-0.2624675 0.246064,-0.098425 0.623361,-0.098425 0.267935,0 0.519467,0.060149 0.256999,0.060149 0.45385,0.2077868 0.19685,0.1476379 0.317148,0.3991693 0.120298,0.2515314 0.120298,0.6288285 0,0.5030627 -0.218723,0.7819345 -0.213255,0.2734036 -0.590552,0.3882332 l 0.732722,1.0061255 q 0.09842,0.1312337 0.09842,0.2679356 0,0.1093614 -0.07655,0.1695102 -0.07109,0.065617 -0.180447,0.065617 -0.120297,0 -0.207786,-0.065617 -0.08749,-0.071085 -0.164043,-0.1804464 z m 0.858487,-1.2740611 q 0,-0.3772971 -0.229659,-0.5577435 -0.224191,-0.1859145 -0.716317,-0.1859145 -0.180447,0 -0.300744,0.032808 -0.120298,0.02734 -0.191383,0.1093615 -0.07108,0.082021 -0.103893,0.2296591 -0.02734,0.1421699 -0.02734,0.3663609 0,0.1585741 0,0.371829 0,0.2132549 0.0055,0.3882332 0.125766,0.00547 0.278872,0.00547 0.158574,0 0.295276,0 0.153106,0 0.322616,-0.016404 0.174979,-0.021872 0.322617,-0.098425 0.147638,-0.082021 0.246063,-0.229659 0.09842,-0.1531061 0.09842,-0.4155736 z"
       style="font-style:normal;font-variant:normal;font-weight:normal;font-stretch:normal;font-size:5.46807337px;font-family:Sniglet;-inkscape-font-specification:'Sniglet, Normal';font-variant-ligatures:normal;font-variant-caps:normal;font-variant-numeric:normal;font-feature-settings:normal;text-align:start;writing-mode:lr-tb;text-anchor:start;stroke-width:0.26458418"
       id="path4542" />
    <path
       d="m 53.651843,8.305623 q -0.328085,0 -0.617893,-0.1312338 Q 52.74961,8.0431554 52.536356,7.7970921 52.323101,7.5455608 52.197335,7.1846679 52.077037,6.8237751 52.077037,6.3644569 q 0,-0.4319778 0.103894,-0.7928706 0.109361,-0.3608929 0.317148,-0.6233604 0.213255,-0.2624675 0.524935,-0.4046374 0.31168,-0.147638 0.721786,-0.147638 0.333552,0 0.634296,0.1202976 0.300744,0.1202976 0.524935,0.3608929 0.229659,0.2405952 0.360893,0.601488 0.131234,0.3608929 0.131234,0.8420833 0,0.3991694 -0.109361,0.7600622 Q 55.182903,7.4416674 54.96418,7.715071 54.750925,7.9830066 54.422841,8.1470488 54.094757,8.305623 53.651843,8.305623 Z m 0.01094,-0.5139989 q 0.300744,0 0.524935,-0.1202976 0.224191,-0.1257657 0.371829,-0.3280844 0.147638,-0.2023188 0.218723,-0.4647863 0.07108,-0.2679356 0.07108,-0.5468073 0,-0.3390206 -0.09296,-0.6014881 -0.08749,-0.2679356 -0.240595,-0.448382 -0.153106,-0.1804464 -0.355425,-0.2734037 -0.202318,-0.098425 -0.431977,-0.098425 -0.273404,0 -0.481191,0.1148295 -0.202319,0.1148296 -0.344488,0.3116802 -0.136702,0.1968507 -0.207787,0.4647863 -0.07108,0.2624675 -0.07108,0.5632115 0,0.3226163 0.08202,0.5905519 0.08202,0.2624676 0.218723,0.4483821 0.14217,0.1859145 0.333552,0.2898078 0.191383,0.098425 0.404638,0.098425 z"
       style="font-style:normal;font-variant:normal;font-weight:normal;font-stretch:normal;font-size:5.46807337px;font-family:Sniglet;-inkscape-font-specification:'Sniglet, Normal';font-variant-ligatures:normal;font-variant-caps:normal;font-variant-numeric:normal;font-feature-settings:normal;text-align:start;writing-mode:lr-tb;text-anchor:start;stroke-width:0.26458418"
       id="path4544" />
    <path
       d="m 56.946357,8.2509422 q -0.306213,0 -0.492127,-0.049213 -0.185915,-0.049213 -0.289808,-0.1367019 -0.09842,-0.092957 -0.136702,-0.224191 -0.03281,-0.1312337 -0.04921,-0.2952759 -0.0164,-0.1913826 -0.02734,-0.5030628 -0.0055,-0.3171482 -0.0055,-0.6561688 0,-0.1640422 0,-0.3444886 0.0055,-0.1859145 0.0055,-0.3608929 0.0055,-0.1804464 0.01094,-0.3335524 0.0055,-0.1531061 0.0164,-0.2624675 0.0164,-0.1695103 0.05468,-0.3062122 0.03828,-0.1367018 0.14217,-0.2351271 0.109362,-0.098425 0.300744,-0.147638 0.196851,-0.054681 0.519467,-0.054681 0.732722,0 1.093615,0.2734036 0.366361,0.2679356 0.366361,0.7655303 0,0.2569995 -0.11483,0.4757224 -0.109361,0.2187229 -0.382765,0.3280844 0.153106,0.02734 0.278872,0.1148295 0.125766,0.087489 0.213255,0.2132549 0.09296,0.1202976 0.136702,0.2734037 0.04921,0.1476379 0.04921,0.300744 0,0.1968506 -0.08202,0.4046374 -0.08202,0.2023187 -0.278872,0.371829 -0.19685,0.1695103 -0.524935,0.2788718 -0.322616,0.1093614 -0.803806,0.1093614 z m 1.142827,-1.1811038 q 0,-0.1968507 -0.09296,-0.3171483 -0.08749,-0.1202976 -0.229659,-0.1804464 -0.14217,-0.065617 -0.317149,-0.087489 -0.174978,-0.021872 -0.349956,-0.021872 -0.136702,0 -0.28434,0 -0.147638,0 -0.273404,0.00547 -0.0055,0.1148296 -0.01094,0.2351272 -0.0055,0.1202976 -0.01094,0.229659 0,0.1038934 0,0.1859145 0,0.076553 0,0.1093615 0,0.147638 0.02187,0.2460633 0.02187,0.098425 0.08202,0.1585741 0.06015,0.060149 0.169511,0.087489 0.114829,0.021872 0.289807,0.021872 0.481191,0 0.743658,-0.1695103 0.262468,-0.1695102 0.262468,-0.5030627 z M 57.07759,4.8607367 q -0.180446,0 -0.295276,0.032808 -0.109361,0.02734 -0.16951,0.076553 -0.05468,0.049213 -0.07655,0.1202976 -0.0164,0.071085 -0.0164,0.1531061 v 0.7655302 q 0.07655,0.00547 0.158574,0.00547 0.08749,0 0.164042,0 0.196851,0 0.382765,-0.02734 0.191383,-0.02734 0.344489,-0.092957 0.153106,-0.065617 0.246063,-0.1804464 0.09296,-0.1148296 0.09296,-0.295276 0,-0.2460633 -0.202318,-0.3991693 Q 57.509568,4.8607367 57.07759,4.8607367 Z"
       style="font-style:normal;font-variant:normal;font-weight:normal;font-stretch:normal;font-size:5.46807337px;font-family:Sniglet;-inkscape-font-specification:'Sniglet, Normal';font-variant-ligatures:normal;font-variant-caps:normal;font-variant-numeric:normal;font-feature-settings:normal;text-align:start;writing-mode:lr-tb;text-anchor:start;stroke-width:0.26458418"
       id="path4546" />
    <path
       d="m 60.954625,6.8839239 q -0.251531,0.010936 -0.579616,0.021872 -0.328084,0.00547 -0.776466,0.00547 -0.185915,0 -0.317148,-0.00547 -0.131234,-0.00547 -0.213255,-0.02734 -0.08202,-0.02734 -0.120298,-0.082021 -0.03828,-0.054681 -0.03828,-0.153106 0,-0.049213 0.01094,-0.087489 0.01094,-0.043745 0.04921,-0.076553 0.03828,-0.032808 0.103893,-0.054681 0.07108,-0.02734 0.180446,-0.038277 0.08202,-0.00547 0.14217,-0.010936 0.06562,-0.00547 0.125766,-0.00547 0.06015,-0.00547 0.125766,-0.00547 0.07108,0 0.164042,0 0.295276,0 0.568679,0.00547 0.273404,0 0.56868,0.016404 0.131234,0.010936 0.202319,0.032809 0.07108,0.016404 0.109361,0.049213 0.03828,0.032808 0.04375,0.076553 0.01094,0.043745 0.01094,0.098425 0,0.098425 -0.07108,0.1640422 -0.06562,0.065617 -0.289808,0.076553 z"
       style="font-style:normal;font-variant:normal;font-weight:normal;font-stretch:normal;font-size:5.46807337px;font-family:Sniglet;-inkscape-font-specification:'Sniglet, Normal';font-variant-ligatures:normal;font-variant-caps:normal;font-variant-numeric:normal;font-feature-settings:normal;text-align:start;writing-mode:lr-tb;text-anchor:start;stroke-width:0.26458418"
       id="path4548" />
    <path
       d="m 61.782867,7.9119217 q -0.01094,-0.1968507 -0.0164,-0.4101055 0,-0.2132549 -0.0055,-0.4593182 -0.0055,-0.2460633 -0.0055,-0.5304031 0,-0.2898079 0,-0.6452327 0,-0.3882332 0.0055,-0.6616368 0.0055,-0.2788718 0.02734,-0.4538501 0.02734,-0.1749784 0.08202,-0.2569995 0.05468,-0.082021 0.153107,-0.082021 0.09296,0 0.164042,0.060149 0.07108,0.060149 0.08202,0.2788718 0.01094,0.1968506 0.0164,0.3499567 0.0055,0.153106 0.01094,0.3062121 0.0055,0.147638 0.0055,0.3116802 0,0.1585741 0,0.3608928 v 0.2843398 l 1.170168,-1.339678 q 0.229659,-0.2624675 0.355425,-0.3444886 0.125765,-0.087489 0.218723,-0.087489 0.109361,0 0.158574,0.054681 0.05468,0.054681 0.05468,0.1367018 0,0.032808 -0.01094,0.065617 -0.01094,0.032808 -0.04921,0.092957 -0.03281,0.054681 -0.103894,0.14217 -0.07108,0.082021 -0.191382,0.2132548 l -0.760062,0.8256791 1.197508,1.7060389 q 0.04374,0.060149 0.06562,0.1257657 0.02734,0.065617 0.02734,0.1257657 0,0.1038933 -0.06015,0.1695102 -0.05468,0.071085 -0.196851,0.071085 -0.114829,0 -0.207786,-0.065617 -0.08749,-0.060149 -0.164043,-0.1804464 L 62.767121,6.5394353 62.296866,7.0534342 q -0.0055,0.2077868 -0.01094,0.4155735 -0.0055,0.2077868 -0.0164,0.4374459 -0.0055,0.1312338 -0.02734,0.2023187 -0.0164,0.071085 -0.04921,0.1093615 -0.03281,0.038277 -0.07655,0.043745 -0.03828,0.010936 -0.09296,0.010936 -0.09843,0 -0.164043,-0.065617 -0.06562,-0.071085 -0.07655,-0.2952759 z"
       style="font-style:normal;font-variant:normal;font-weight:normal;font-stretch:normal;font-size:5.46807337px;font-family:Sniglet;-inkscape-font-specification:'Sniglet, Normal';font-variant-ligatures:normal;font-variant-caps:normal;font-variant-numeric:normal;font-feature-settings:normal;text-align:start;writing-mode:lr-tb;text-anchor:start;stroke-width:0.26458418"
       id="path4550" />
    <path
       d="m 64.906847,7.4197951 q -0.01094,-0.1749784 -0.02187,-0.4757224 -0.01094,-0.300744 -0.01094,-0.6178923 0,-0.1804464 0,-0.371829 0.0055,-0.1968506 0.01094,-0.3991693 0.01094,-0.4046375 0.04921,-0.6342966 0.04375,-0.229659 0.164042,-0.3444886 0.125766,-0.1148295 0.349957,-0.1421699 0.224191,-0.02734 0.59602,-0.02734 0.0055,0 0.114829,0 0.11483,0 0.273404,0.00547 0.158574,0 0.328084,0.00547 0.174979,0.00547 0.289808,0.010936 0.120298,0.010936 0.191383,0.032808 0.07655,0.016404 0.114829,0.049213 0.03828,0.02734 0.04921,0.071085 0.01094,0.038277 0.01094,0.087489 0,0.1257657 -0.07108,0.1859145 -0.07108,0.054681 -0.289808,0.071085 -0.109361,0.010936 -0.322616,0.016404 -0.207787,0 -0.42651,0 -0.218723,0 -0.393701,0.00547 -0.174978,0 -0.218723,0 -0.14217,0.00547 -0.202319,0.065617 -0.05468,0.054681 -0.05468,0.2679356 0,0.049213 0.0055,0.2405952 0.01094,0.1859145 0.01094,0.5249351 h 0.45385 q 0.289808,0 0.470254,0.010936 0.185915,0.00547 0.28434,0.032808 0.103894,0.02734 0.14217,0.087489 0.03828,0.060149 0.03828,0.1585742 0,0.049213 -0.01094,0.092957 -0.0055,0.038277 -0.04374,0.071085 -0.03828,0.02734 -0.109362,0.049213 -0.07108,0.016404 -0.202318,0.02734 -0.158574,0.010936 -0.300744,0.016404 -0.136702,0 -0.273404,0 h -0.459318 q 0,0.082021 0,0.1968506 0,0.1148296 0,0.2351272 0,0.1202976 0,0.2351272 0.0055,0.1148295 0.01094,0.1859144 0.0055,0.087489 0.02187,0.147638 0.02187,0.060149 0.07108,0.098425 0.05468,0.038277 0.153106,0.054681 0.103894,0.016404 0.273404,0.016404 h 1.175636 q 0.191382,0 0.240595,0.071085 0.04921,0.071085 0.04921,0.1913825 0,0.098425 -0.04375,0.1531061 -0.04375,0.049213 -0.213255,0.071085 -0.164042,0.02734 -0.497595,0.032808 -0.328084,0.00547 -0.9077,0.00547 -0.246063,0 -0.404637,-0.043744 -0.158574,-0.043745 -0.257,-0.147638 -0.09842,-0.1038934 -0.147638,-0.2679356 -0.04374,-0.1695103 -0.06015,-0.4101055 z"
       style="font-style:normal;font-variant:normal;font-weight:normal;font-stretch:normal;font-size:5.46807337px;font-family:Sniglet;-inkscape-font-specification:'Sniglet, Normal';font-variant-ligatures:normal;font-variant-caps:normal;font-variant-numeric:normal;font-feature-settings:normal;text-align:start;writing-mode:lr-tb;text-anchor:start;stroke-width:0.26458418"
       id="path4552" />
    <path
       d="m 68.918191,7.9119217 q -0.01094,-0.3007441 -0.02187,-0.6397646 -0.0055,-0.3444886 -0.0055,-0.7928706 l -1.088147,-1.558401 q -0.04374,-0.060149 -0.07109,-0.1257656 -0.02187,-0.065617 -0.02187,-0.1257657 0,-0.1038934 0.05468,-0.1695103 0.06015,-0.071085 0.202319,-0.071085 0.114829,0 0.202318,0.065617 0.09296,0.060149 0.169511,0.1804464 l 0.814743,1.2959334 0.814742,-1.2959334 q 0.07655,-0.1202976 0.164043,-0.1804464 0.09296,-0.065617 0.207786,-0.065617 0.14217,0 0.196851,0.071085 0.06015,0.065617 0.06015,0.1695103 0,0.060149 -0.02734,0.1257657 -0.02187,0.065617 -0.06562,0.1257656 L 69.437658,6.446478 q 0,0.371829 -0.01094,0.7163176 -0.0055,0.3390206 -0.02187,0.743658 -0.0055,0.1312338 -0.02734,0.2023187 -0.01641,0.071085 -0.04921,0.1093615 -0.03281,0.038277 -0.07655,0.043745 -0.03828,0.010936 -0.09296,0.010936 -0.09843,0 -0.164043,-0.065617 -0.06562,-0.071085 -0.07655,-0.2952759 z"
       style="font-style:normal;font-variant:normal;font-weight:normal;font-stretch:normal;font-size:5.46807337px;font-family:Sniglet;-inkscape-font-specification:'Sniglet, Normal';font-variant-ligatures:normal;font-variant-caps:normal;font-variant-numeric:normal;font-feature-settings:normal;text-align:start;writing-mode:lr-tb;text-anchor:start;stroke-width:0.26458418"
       id="path4554" />
  </g>
</svg>
