<?xml version="1.0" encoding="UTF-8" standalone="no"?>
<svg
   width="40.639999mm"
   height="128.5mm"
   viewBox="0 0 40.639999 128.50044"
   version="1.1"
   id="svg56"
   sodipodi:docname="TactG.svg"
   inkscape:version="1.1 (c68e22c387, 2021-05-23)"
   xmlns:inkscape="http://www.inkscape.org/namespaces/inkscape"
   xmlns:sodipodi="http://sodipodi.sourceforge.net/DTD/sodipodi-0.dtd"
   xmlns="http://www.w3.org/2000/svg"
   xmlns:svg="http://www.w3.org/2000/svg"
   xmlns:rdf="http://www.w3.org/1999/02/22-rdf-syntax-ns#"
   xmlns:cc="http://creativecommons.org/ns#"
   xmlns:dc="http://purl.org/dc/elements/1.1/">
  <metadata
     id="metadata62">
    <rdf:RDF>
      <cc:Work
         rdf:about="">
        <dc:format>image/svg+xml</dc:format>
        <dc:type
           rdf:resource="http://purl.org/dc/dcmitype/StillImage" />
        <dc:title />
      </cc:Work>
    </rdf:RDF>
  </metadata>
  <defs
     id="defs60" />
  <sodipodi:namedview
     pagecolor="#ffffff"
     bordercolor="#666666"
     borderopacity="1"
     objecttolerance="10"
     gridtolerance="10"
     guidetolerance="10"
     inkscape:pageopacity="0"
     inkscape:pageshadow="2"
     inkscape:window-width="1920"
     inkscape:window-height="1057"
     id="namedview58"
     showgrid="false"
     inkscape:document-units="mm"
     units="mm"
     inkscape:zoom="1.9007941"
     inkscape:cx="77.599145"
     inkscape:cy="287.51141"
     inkscape:window-x="-8"
     inkscape:window-y="-8"
     inkscape:window-maximized="1"
     inkscape:current-layer="svg56"
     showguides="true"
     inkscape:guide-bbox="true"
     inkscape:pagecheckerboard="0" />
  <rect
     rx="2.3399999"
     ry="2.3399999"
     y="84.728676"
     x="16.703455"
     height="33.114731"
     width="13.374743"
     id="rect4"
     style="fill:#afafaf;stroke-width:0.26500091;paint-order:stroke markers fill;stroke-miterlimit:4;stroke-dasharray:none;stroke:none;stroke-opacity:1;fill-opacity:1" />
  <path
     d="m 20.792391,123.89778 -2.086407,0.14592 v -2.63681 q 0,-0.2944 0.0832,-0.42624 0.08192,-0.13312 0.281601,-0.18816 0.19584,-0.055 0.444161,-0.003 0.286721,0.0602 0.456962,0.2432 0.17024,0.18688 0.17024,0.42241 0,0.23808 -0.20224,0.36608 -0.200961,0.13184 -0.520962,0.064 -0.104961,-0.023 -0.184321,-0.0563 -0.08064,-0.0346 -0.262401,-0.1408 v 1.7216 l 1.561606,-0.1088 v -1.98913 q 0,-0.288 0.0832,-0.43136 0.0832,-0.1408 0.288001,-0.192 0.204801,-0.0512 0.448001,0 0.284161,0.0589 0.451842,0.2432 0.166401,0.1792 0.166401,0.41472 0,0.24961 -0.200961,0.37633 -0.198401,0.128 -0.520962,0.0602 -0.204801,-0.0435 -0.456962,-0.2048 z"
     style="font-weight:400;font-size:3.52800012px;line-height:1.25;font-family:Arial;-inkscape-font-specification:'Arial, Normal';font-variant-ligatures:normal;font-variant-caps:normal;font-variant-numeric:normal;font-feature-settings:normal;text-align:start;letter-spacing:0;word-spacing:0;fill:#232323;stroke-width:1;fill-opacity:1"
     font-size="3.528"
     aria-label="♫"
     font-weight="400"
     letter-spacing="0"
     word-spacing="0"
     id="path6"
     inkscape:connector-curvature="0" />
  <g
     aria-label="GATE"
     style="font-style:normal;font-weight:normal;font-size:10.58336926px;line-height:1.25;font-family:sans-serif;letter-spacing:0px;word-spacing:0px;fill:#232323;fill-opacity:1;stroke:none;stroke-width:0.26458424"
     id="text869"
     transform="translate(-5.7448508,14.638332)">
    <path
       d="m 26.460066,88.348524 q 0.116417,0 0.239889,0.02117 0.123473,0.02117 0.225779,0.0635 0.102306,0.03881 0.169334,0.09878 0.06703,0.05997 0.06703,0.137584 0,0.08114 -0.04233,0.123472 -0.04233,0.04233 -0.105833,0.04233 -0.05997,0 -0.11289,-0.02117 -0.04939,-0.02117 -0.112889,-0.04586 -0.0635,-0.0247 -0.151695,-0.04586 -0.0882,-0.02117 -0.222251,-0.02117 -0.148167,0 -0.278695,0.07056 -0.127,0.06703 -0.225779,0.1905 -0.09878,0.119945 -0.155222,0.285751 -0.05645,0.165806 -0.05645,0.359835 0,0.236362 0.05997,0.409223 0.05997,0.172862 0.155222,0.285751 0.09878,0.11289 0.218723,0.169334 0.123473,0.05292 0.246946,0.05292 0.201084,0 0.317501,-0.05644 0.119944,-0.05997 0.1905,-0.151695 0.0035,-0.07408 0.0035,-0.17639 0,-0.102306 0,-0.222251 0,-0.04586 -0.0071,-0.07055 -0.0071,-0.02822 -0.03528,-0.04233 -0.02822,-0.01411 -0.08467,-0.01764 -0.05292,-0.0035 -0.14464,-0.0035 -0.112889,0 -0.183445,-0.02822 -0.07056,-0.03175 -0.07056,-0.130528 0,-0.07056 0.03528,-0.11289 0.03881,-0.04586 0.155223,-0.05292 0.02117,0 0.06703,0 0.04939,-0.0035 0.102306,-0.0035 0.05645,0 0.109361,0 0.05292,0 0.08467,0 0.105834,0 0.169334,0.02117 0.0635,0.01764 0.11289,0.08467 0.02469,0.03528 0.02822,0.123472 0.0071,0.08819 0.0071,0.204612 v 0.91017 q 0,0.09525 -0.05292,0.141111 -0.04939,0.04586 -0.116417,0.04586 -0.08114,0 -0.134056,-0.04233 -0.04939,-0.03881 -0.04939,-0.127 v -0.137584 q -0.09172,0.105834 -0.218722,0.151695 -0.123473,0.04586 -0.313974,0.04586 -0.194028,0 -0.381001,-0.07761 -0.186973,-0.07761 -0.331612,-0.229307 -0.14464,-0.155222 -0.236362,-0.384529 -0.08819,-0.232834 -0.08819,-0.539752 0,-0.306917 0.08819,-0.546807 0.09172,-0.23989 0.246945,-0.405696 0.155223,-0.169334 0.363362,-0.257528 0.20814,-0.08819 0.44803,-0.08819 z"
       style="font-style:normal;font-variant:normal;font-weight:normal;font-stretch:normal;font-size:3.52778983px;font-family:Sniglet;-inkscape-font-specification:'Sniglet, Normal';font-variant-ligatures:normal;font-variant-caps:normal;font-variant-numeric:normal;font-feature-settings:normal;text-align:start;writing-mode:lr-tb;text-anchor:start;stroke-width:0.26458424;fill:#232323;fill-opacity:1"
       id="path877"
       inkscape:connector-curvature="0" />
    <path
       d="m 29.101554,90.666282 q -0.03528,-0.08467 -0.07761,-0.194029 -0.03881,-0.112889 -0.08467,-0.236362 -0.105833,0.0035 -0.222251,0.0071 -0.116417,0 -0.236361,0 -0.151695,0 -0.275168,0 -0.123473,0 -0.225779,-0.0035 -0.04233,0.123473 -0.08114,0.232834 -0.0388,0.109362 -0.07408,0.194029 -0.07056,0.179917 -0.204612,0.179917 -0.04939,0 -0.09525,-0.03175 -0.04233,-0.03175 -0.04233,-0.09172 0,-0.05997 0.02117,-0.155222 0.02117,-0.09878 0.05292,-0.20814 0.03528,-0.112889 0.07408,-0.229306 0.03881,-0.119945 0.07408,-0.222251 0.03528,-0.112889 0.09878,-0.285751 0.06703,-0.17639 0.141111,-0.36689 0.07408,-0.190501 0.148168,-0.373946 0.07408,-0.186973 0.134056,-0.324557 0.01411,-0.03528 0.03528,-0.07761 0.02117,-0.04586 0.04939,-0.08467 0.03175,-0.03881 0.06703,-0.06703 0.0388,-0.02822 0.08467,-0.02822 0.04586,0 0.08467,0.03175 0.0388,0.02822 0.06703,0.07056 0.03175,0.04233 0.05292,0.08819 0.02469,0.04586 0.03881,0.08114 0.05645,0.141111 0.127001,0.324556 0.07408,0.183445 0.144639,0.370418 0.07408,0.186973 0.137584,0.356307 0.0635,0.169334 0.102306,0.285751 0.03175,0.102306 0.07056,0.218723 0.04233,0.116417 0.07761,0.229306 0.03528,0.11289 0.05644,0.211668 0.0247,0.09525 0.0247,0.155222 0,0.05997 -0.04586,0.09172 -0.04233,0.03175 -0.09172,0.03175 -0.0635,0 -0.116417,-0.04233 -0.05292,-0.04586 -0.09172,-0.137584 z m -0.624419,-0.776114 q 0.08467,0 0.169334,0.0035 0.08467,0 0.169334,0.0035 -0.04233,-0.123473 -0.08467,-0.246946 -0.04233,-0.123472 -0.08114,-0.236362 -0.03528,-0.112889 -0.06703,-0.208139 -0.02822,-0.09878 -0.04939,-0.172862 -0.01411,-0.04586 -0.03175,-0.07408 -0.01764,-0.02822 -0.04586,-0.02822 -0.02822,0 -0.04586,0.03175 -0.01764,0.02822 -0.03175,0.07408 -0.04233,0.144639 -0.119945,0.377473 -0.07408,0.229307 -0.158751,0.483308 0.09525,-0.0035 0.190501,-0.0035 0.09525,-0.0035 0.186973,-0.0035 z"
       style="font-style:normal;font-variant:normal;font-weight:normal;font-stretch:normal;font-size:3.52778983px;font-family:Sniglet;-inkscape-font-specification:'Sniglet, Normal';font-variant-ligatures:normal;font-variant-caps:normal;font-variant-numeric:normal;font-feature-settings:normal;text-align:start;writing-mode:lr-tb;text-anchor:start;stroke-width:0.26458424;fill:#232323;fill-opacity:1"
       id="path879"
       inkscape:connector-curvature="0" />
    <path
       d="m 30.821627,88.701303 q -0.09878,0.0071 -0.211668,0.01058 -0.109361,0.0035 -0.243417,0.0071 0.0035,0.09525 0.0071,0.179917 0.0035,0.08114 0.0071,0.165806 0.0035,0.08467 0.0035,0.17639 0.0035,0.09172 0.0035,0.204611 0,0.158751 0,0.306918 0,0.14464 -0.0035,0.292807 -0.0035,0.144639 -0.0071,0.292806 -0.0035,0.148167 -0.01058,0.306918 -0.0035,0.08467 -0.01764,0.130528 -0.01058,0.04586 -0.03175,0.07056 -0.02117,0.0247 -0.04939,0.02822 -0.02822,0.0071 -0.0635,0.0071 -0.0635,0 -0.109361,-0.04233 -0.04233,-0.04586 -0.04939,-0.1905 -0.0071,-0.127001 -0.01058,-0.268112 0,-0.141112 -0.0035,-0.30339 -0.0035,-0.162278 -0.0035,-0.349251 0,-0.190501 0,-0.419807 0,-0.194029 0,-0.338668 0.0035,-0.14464 0.01058,-0.250473 h -0.144639 q -0.148167,0 -0.254001,-0.0035 -0.102306,-0.0035 -0.169334,-0.01764 -0.06703,-0.01764 -0.09878,-0.05292 -0.02822,-0.03528 -0.02822,-0.09878 0,-0.03175 0.0071,-0.05644 0.0071,-0.02822 0.03175,-0.04939 0.0247,-0.02469 0.06703,-0.0388 0.04586,-0.01411 0.116417,-0.02117 0.06703,-0.0035 0.119945,-0.0071 0.05292,-0.0035 0.105834,-0.0071 0.05292,-0.0035 0.109361,-0.0035 0.05645,0 0.130529,0 0.208139,0 0.391584,0.0035 0.186973,0.0035 0.395113,0.01411 0.08467,0.0071 0.130528,0.02117 0.04586,0.01058 0.07056,0.03175 0.02469,0.02117 0.02822,0.04939 0.0071,0.02822 0.0071,0.0635 0,0.0635 -0.04586,0.105834 -0.04233,0.04233 -0.186972,0.04939 z"
       style="font-style:normal;font-variant:normal;font-weight:normal;font-stretch:normal;font-size:3.52778983px;font-family:Sniglet;-inkscape-font-specification:'Sniglet, Normal';font-variant-ligatures:normal;font-variant-caps:normal;font-variant-numeric:normal;font-feature-settings:normal;text-align:start;writing-mode:lr-tb;text-anchor:start;stroke-width:0.26458424;fill:#232323;fill-opacity:1"
       id="path881"
       inkscape:connector-curvature="0" />
    <path
       d="m 31.323951,90.309975 q -0.0071,-0.112889 -0.01411,-0.306918 -0.0071,-0.194028 -0.0071,-0.39864 0,-0.116417 0,-0.23989 0.0035,-0.127 0.0071,-0.257528 0.0071,-0.261057 0.03175,-0.409224 0.02822,-0.148167 0.105834,-0.222251 0.08114,-0.07408 0.225778,-0.09172 0.14464,-0.01764 0.384529,-0.01764 0.0035,0 0.07408,0 0.07408,0 0.176389,0.0035 0.102306,0 0.211668,0.0035 0.112889,0.0035 0.186973,0.0071 0.07761,0.0071 0.123472,0.02117 0.04939,0.01058 0.07408,0.03175 0.02469,0.01764 0.03175,0.04586 0.0071,0.0247 0.0071,0.05645 0,0.08114 -0.04586,0.119945 -0.04586,0.03528 -0.186973,0.04586 -0.07055,0.0071 -0.208139,0.01058 -0.134056,0 -0.275168,0 -0.141111,0 -0.254001,0.0035 -0.112889,0 -0.141111,0 -0.09172,0.0035 -0.130528,0.04233 -0.03528,0.03528 -0.03528,0.172862 0,0.03175 0.0035,0.155223 0.0071,0.119945 0.0071,0.338668 h 0.292807 q 0.186972,0 0.303389,0.0071 0.119945,0.0035 0.183446,0.02117 0.06703,0.01764 0.09172,0.05645 0.0247,0.0388 0.0247,0.102306 0,0.03175 -0.0071,0.05997 -0.0035,0.02469 -0.02822,0.04586 -0.0247,0.01764 -0.07056,0.03175 -0.04586,0.01058 -0.130528,0.01764 -0.102306,0.0071 -0.194029,0.01058 -0.08819,0 -0.176389,0 h -0.296335 q 0,0.05292 0,0.127 0,0.07408 0,0.151695 0,0.07761 0,0.151695 0.0035,0.07408 0.0071,0.119945 0.0035,0.05644 0.01411,0.09525 0.01411,0.03881 0.04586,0.0635 0.03528,0.0247 0.09878,0.03528 0.06703,0.01058 0.176389,0.01058 h 0.758475 q 0.123473,0 0.155223,0.04586 0.03175,0.04586 0.03175,0.123473 0,0.0635 -0.02822,0.09878 -0.02822,0.03175 -0.137583,0.04586 -0.105834,0.01764 -0.321029,0.02117 -0.211668,0.0035 -0.585613,0.0035 -0.158751,0 -0.261057,-0.02822 -0.102306,-0.02822 -0.165806,-0.09525 -0.0635,-0.06703 -0.09525,-0.172862 -0.02822,-0.109361 -0.03881,-0.264584 z"
       style="font-style:normal;font-variant:normal;font-weight:normal;font-stretch:normal;font-size:3.52778983px;font-family:Sniglet;-inkscape-font-specification:'Sniglet, Normal';font-variant-ligatures:normal;font-variant-caps:normal;font-variant-numeric:normal;font-feature-settings:normal;text-align:start;writing-mode:lr-tb;text-anchor:start;stroke-width:0.26458424;fill:#232323;fill-opacity:1"
       id="path883"
       inkscape:connector-curvature="0" />
  </g>
  <g
     aria-label="CV"
     style="font-style:normal;font-weight:normal;font-size:10.58336926px;line-height:1.25;font-family:sans-serif;letter-spacing:0px;word-spacing:0px;fill:#232323;fill-opacity:1;stroke:none;stroke-width:0.26458424"
     id="text875"
     transform="translate(-5.6666875,-17.137888)">
    <path
       d="m 28.277351,104.09595 q 0.116417,0 0.232834,0.0212 0.119945,0.0176 0.215195,0.06 0.09525,0.0388 0.155223,0.0988 0.0635,0.0565 0.0635,0.13406 0,0.0811 -0.04233,0.12347 -0.04233,0.0423 -0.105834,0.0423 -0.05997,0 -0.105834,-0.0176 -0.04586,-0.0212 -0.105833,-0.0459 -0.05645,-0.0247 -0.137584,-0.0423 -0.08114,-0.0212 -0.215195,-0.0212 -0.134056,0 -0.257529,0.0706 -0.119945,0.067 -0.211667,0.1905 -0.0882,0.11995 -0.141112,0.28575 -0.05292,0.16581 -0.05292,0.35984 0,0.23989 0.05997,0.41275 0.0635,0.17286 0.162278,0.28575 0.09878,0.10936 0.222251,0.1658 0.127,0.0529 0.254001,0.0529 0.151695,0 0.254001,-0.0317 0.102305,-0.0318 0.172861,-0.0706 0.07408,-0.0388 0.127001,-0.0706 0.05292,-0.0317 0.102306,-0.0317 0.05997,0 0.09525,0.0353 0.03528,0.0317 0.03528,0.11641 0,0.0706 -0.05645,0.14464 -0.05292,0.0706 -0.15875,0.13053 -0.102306,0.0564 -0.246946,0.0953 -0.144639,0.0353 -0.324556,0.0353 -0.197557,0 -0.395113,-0.0776 -0.194028,-0.0776 -0.349251,-0.22931 -0.151695,-0.15522 -0.246945,-0.38453 -0.09525,-0.23283 -0.09525,-0.53975 0,-0.30692 0.08467,-0.54681 0.08819,-0.23989 0.236362,-0.40569 0.151695,-0.16934 0.349251,-0.25753 0.201085,-0.0882 0.426863,-0.0882 z"
       style="font-style:normal;font-variant:normal;font-weight:normal;font-stretch:normal;font-size:3.52778983px;font-family:Sniglet;-inkscape-font-specification:'Sniglet, Normal';font-variant-ligatures:normal;font-variant-caps:normal;font-variant-numeric:normal;font-feature-settings:normal;text-align:start;writing-mode:lr-tb;text-anchor:start;stroke-width:0.26458424;fill:#232323;fill-opacity:1"
       id="path886"
       inkscape:connector-curvature="0" />
    <path
       d="m 30.329147,106.45251 q -0.04586,0.0847 -0.08467,0.12347 -0.03528,0.0388 -0.09172,0.0388 -0.05644,0 -0.09878,-0.0388 -0.04233,-0.0388 -0.09172,-0.11994 -0.0635,-0.10584 -0.14464,-0.29281 -0.07761,-0.18697 -0.15875,-0.4057 -0.08114,-0.22225 -0.158751,-0.45861 -0.07761,-0.23636 -0.141111,-0.4445 -0.05997,-0.20814 -0.09878,-0.36336 -0.03528,-0.15875 -0.03528,-0.22578 0,-0.0706 0.02822,-0.10583 0.02822,-0.0353 0.109361,-0.0353 0.04586,0 0.07761,0.0247 0.03528,0.0212 0.08819,0.127 0.04233,0.0811 0.09172,0.21167 0.04939,0.13053 0.102306,0.28928 0.05645,0.15875 0.112889,0.33514 0.05645,0.17286 0.112889,0.34572 0.05645,0.17286 0.105834,0.33161 0.04939,0.15875 0.09172,0.28576 0.04233,-0.13053 0.09525,-0.28928 0.05292,-0.16228 0.109361,-0.33162 0.05645,-0.17286 0.11289,-0.34572 0.05644,-0.17639 0.112889,-0.33161 0.05645,-0.15522 0.105834,-0.28575 0.04939,-0.13053 0.08819,-0.2152 0.04939,-0.1023 0.08467,-0.127 0.03881,-0.0247 0.07761,-0.0247 0.08114,0 0.109361,0.0423 0.03175,0.0388 0.03175,0.11642 0,0.0705 -0.02117,0.16933 -0.02117,0.0988 -0.07408,0.26459 -0.04939,0.16227 -0.134056,0.40569 -0.08467,0.24342 -0.20814,0.5962 -0.03175,0.0953 -0.07408,0.19755 -0.03881,0.10231 -0.08114,0.20109 -0.03881,0.0953 -0.07761,0.18344 -0.0388,0.0882 -0.07408,0.1517 z"
       style="font-style:normal;font-variant:normal;font-weight:normal;font-stretch:normal;font-size:3.52778983px;font-family:Sniglet;-inkscape-font-specification:'Sniglet, Normal';font-variant-ligatures:normal;font-variant-caps:normal;font-variant-numeric:normal;font-feature-settings:normal;text-align:start;writing-mode:lr-tb;text-anchor:start;stroke-width:0.26458424;fill:#232323;fill-opacity:1"
       id="path888"
       inkscape:connector-curvature="0" />
  </g>
  <g
     aria-label="EXP"
     style="font-style:normal;font-weight:normal;font-size:10.58336926px;line-height:1.25;font-family:sans-serif;letter-spacing:0px;word-spacing:0px;fill:#232323;fill-opacity:1;stroke:none;stroke-width:0.26458424"
     id="text895"
     transform="translate(23.793852,-0.99964971)">
    <path
       d="m 8.6434043,106.04329 q -0.00706,-0.11289 -0.014111,-0.30692 -0.00706,-0.19403 -0.00706,-0.39864 0,-0.11642 0,-0.23989 0.00353,-0.127 0.00706,-0.25753 0.00706,-0.26105 0.03175,-0.40922 0.028222,-0.14817 0.1058337,-0.22225 0.081139,-0.0741 0.2257786,-0.0917 0.1446393,-0.0176 0.3845291,-0.0176 0.00353,0 0.074084,0 0.074084,0 0.1763895,0.004 0.1023059,0 0.2116674,0.004 0.1128893,0.004 0.1869734,0.007 0.07761,0.007 0.123473,0.0212 0.04939,0.0106 0.07408,0.0318 0.0247,0.0176 0.03175,0.0459 0.0071,0.0247 0.0071,0.0564 0,0.0811 -0.04586,0.11995 -0.04586,0.0353 -0.186973,0.0459 -0.070556,0.007 -0.2081403,0.0106 -0.134056,0 -0.2751676,0 -0.1411116,0 -0.2540009,0.004 -0.1128893,0 -0.1411116,0 -0.091722,0.004 -0.1305282,0.0423 -0.035278,0.0353 -0.035278,0.17286 0,0.0318 0.00353,0.15523 0.00706,0.11994 0.00706,0.33866 h 0.2928065 q 0.1869729,0 0.3033899,0.007 0.1199449,0.004 0.1834451,0.0212 0.067028,0.0176 0.091722,0.0564 0.024695,0.0388 0.024695,0.10231 0,0.0318 -0.00706,0.06 -0.00353,0.0247 -0.028222,0.0459 -0.024695,0.0176 -0.070556,0.0318 -0.045861,0.0106 -0.1305282,0.0176 -0.102306,0.007 -0.1940285,0.0106 -0.088195,0 -0.1763895,0 h -0.296379 q 0,0.0529 0,0.127 0,0.0741 0,0.1517 0,0.0776 0,0.15169 0.00353,0.0741 0.00706,0.11995 0.00353,0.0564 0.014111,0.0953 0.014111,0.0388 0.045861,0.0635 0.035278,0.0247 0.098778,0.0353 0.067028,0.0106 0.1763895,0.0106 h 0.7584748 q 0.123473,0 0.155223,0.0459 0.03175,0.0459 0.03175,0.12347 0,0.0635 -0.02822,0.0988 -0.02822,0.0318 -0.137584,0.0459 -0.105834,0.0176 -0.3210291,0.0212 -0.2116674,0.004 -0.5856131,0.004 -0.1587506,0 -0.2610565,-0.0282 -0.1023059,-0.0282 -0.1658061,-0.0953 -0.0635,-0.067 -0.09525,-0.17287 -0.028222,-0.10936 -0.038806,-0.26458 z"
       style="font-style:normal;font-variant:normal;font-weight:normal;font-stretch:normal;font-size:3.52778983px;font-family:Sniglet;-inkscape-font-specification:'Sniglet, Normal';font-variant-ligatures:normal;font-variant-caps:normal;font-variant-numeric:normal;font-feature-settings:normal;text-align:start;writing-mode:lr-tb;text-anchor:start;stroke-width:0.26458424;fill:#232323;fill-opacity:1"
       id="path901"
       inkscape:connector-curvature="0" />
    <path
       d="m 11.418342,105.6517 -0.525641,0.81492 q -0.04939,0.0776 -0.109361,0.11642 -0.05645,0.0423 -0.130529,0.0423 -0.09172,0 -0.130528,-0.0459 -0.03528,-0.0423 -0.03528,-0.10936 0,-0.0388 0.01411,-0.0811 0.01764,-0.0423 0.04586,-0.0811 l 0.656168,-0.93839 -0.656168,-0.93839 q -0.02822,-0.0388 -0.04586,-0.0811 -0.01411,-0.0423 -0.01411,-0.0811 0,-0.067 0.03528,-0.10936 0.03881,-0.0459 0.130528,-0.0459 0.07408,0 0.130529,0.0423 0.05997,0.0388 0.109361,0.11642 l 0.525641,0.81492 0.52564,-0.81492 q 0.04939,-0.0776 0.105834,-0.11642 0.05997,-0.0423 0.134056,-0.0423 0.09172,0 0.127001,0.0459 0.0388,0.0423 0.0388,0.10936 0,0.0388 -0.01764,0.0811 -0.01411,0.0423 -0.04233,0.0811 l -0.656169,0.93839 0.656169,0.93839 q 0.02822,0.0388 0.04233,0.0811 0.01764,0.0423 0.01764,0.0811 0,0.067 -0.0388,0.10936 -0.03528,0.0459 -0.127001,0.0459 -0.07408,0 -0.134056,-0.0423 -0.05645,-0.0388 -0.105834,-0.11642 z"
       style="font-style:normal;font-variant:normal;font-weight:normal;font-stretch:normal;font-size:3.52778983px;font-family:Sniglet;-inkscape-font-specification:'Sniglet, Normal';font-variant-ligatures:normal;font-variant-caps:normal;font-variant-numeric:normal;font-feature-settings:normal;text-align:start;writing-mode:lr-tb;text-anchor:start;stroke-width:0.26458424;fill:#232323;fill-opacity:1"
       id="path903"
       inkscape:connector-curvature="0" />
    <path
       d="m 13.019572,106.35726 q 0,0.0847 -0.01764,0.13053 -0.01411,0.0459 -0.0388,0.0706 -0.02117,0.0247 -0.05292,0.0282 -0.02822,0.007 -0.05645,0.007 -0.09525,0 -0.127,-0.0423 -0.02822,-0.0423 -0.03881,-0.1905 -0.0071,-0.0776 -0.01058,-0.22578 -0.0035,-0.14817 -0.0071,-0.35278 0,-0.20461 -0.0035,-0.45155 0,-0.24695 0,-0.52212 0,-0.13053 0.03175,-0.26458 0.03175,-0.13406 0.119945,-0.24342 0.09172,-0.10936 0.250473,-0.17639 0.162279,-0.067 0.419807,-0.067 0.179918,0 0.342196,0.0388 0.162278,0.0388 0.285751,0.13406 0.123472,0.0953 0.197556,0.254 0.07408,0.15875 0.07408,0.39511 0,0.24694 -0.08114,0.40922 -0.08114,0.16228 -0.229306,0.25753 -0.148167,0.0953 -0.352779,0.13406 -0.204612,0.0388 -0.448029,0.0388 -0.05997,0 -0.119945,0 -0.05997,0 -0.134056,-0.007 z m 1.016004,-1.4852 q 0,-0.23636 -0.134056,-0.3563 -0.130529,-0.11995 -0.437446,-0.11995 -0.116417,0 -0.201084,0.0212 -0.08114,0.0176 -0.134056,0.067 -0.05292,0.0459 -0.08114,0.127 -0.0247,0.0811 -0.0247,0.20461 0,0.11994 0,0.27517 0,0.15169 0.0035,0.28575 0.08114,0.004 0.179917,0.004 0.102306,0 0.190501,0 0.105833,0 0.218723,-0.0141 0.116417,-0.0141 0.208139,-0.0635 0.09172,-0.0529 0.151695,-0.15169 0.05997,-0.10231 0.05997,-0.2787 z"
       style="font-style:normal;font-variant:normal;font-weight:normal;font-stretch:normal;font-size:3.52778983px;font-family:Sniglet;-inkscape-font-specification:'Sniglet, Normal';font-variant-ligatures:normal;font-variant-caps:normal;font-variant-numeric:normal;font-feature-settings:normal;text-align:start;writing-mode:lr-tb;text-anchor:start;stroke-width:0.26458424;fill:#232323;fill-opacity:1"
       id="path905"
       inkscape:connector-curvature="0" />
  </g>
  <g
     aria-label="CHAIN"
     style="font-style:normal;font-weight:normal;font-size:10.58336926px;line-height:1.25;font-family:sans-serif;letter-spacing:0px;word-spacing:0px;fill:#232323;fill-opacity:1;stroke:none;stroke-width:0.26458424"
     id="text899"
     transform="translate(-3.9995981,14.368342)">
    <path
       d="m 8.0646822,88.457891 q 0.116417,0 0.2328341,0.02117 0.1199449,0.01764 0.2151952,0.05997 0.09525,0.03881 0.1552227,0.09878 0.0635,0.05644 0.0635,0.134057 0,0.08114 -0.042333,0.123472 -0.042334,0.04233 -0.1058337,0.04233 -0.059972,0 -0.1058337,-0.01764 -0.045861,-0.02117 -0.1058337,-0.04586 -0.056445,-0.02469 -0.1375838,-0.04233 -0.081139,-0.02117 -0.2151952,-0.02117 -0.134056,0 -0.2575287,0.07056 -0.1199448,0.06703 -0.2116673,0.190501 -0.088195,0.119944 -0.1411116,0.285751 -0.052917,0.165806 -0.052917,0.359834 0,0.23989 0.059972,0.412752 0.0635,0.172861 0.1622784,0.285751 0.098778,0.109361 0.2222507,0.165806 0.1270005,0.05292 0.2540009,0.05292 0.151695,0 0.2540009,-0.03175 0.1023059,-0.03175 0.1728617,-0.07056 0.074084,-0.03881 0.1270004,-0.07056 0.052917,-0.03175 0.1023059,-0.03175 0.059972,0 0.09525,0.03528 0.035278,0.03175 0.035278,0.116417 0,0.07055 -0.056445,0.144639 -0.052917,0.07056 -0.1587505,0.130528 -0.102306,0.05645 -0.2469453,0.09525 -0.1446394,0.03528 -0.3245567,0.03528 -0.1975562,0 -0.3951125,-0.07761 Q 7.464957,90.832099 7.3097342,90.680403 7.1580393,90.52518 7.062789,90.295874 6.967539,90.06304 6.967539,89.756122 q 0,-0.306918 0.084667,-0.546808 0.088195,-0.239889 0.2363619,-0.405695 0.151695,-0.169334 0.3492512,-0.257529 0.201084,-0.08819 0.4268626,-0.08819 z"
       style="font-style:normal;font-variant:normal;font-weight:normal;font-stretch:normal;font-size:3.52778983px;font-family:Sniglet;-inkscape-font-specification:'Sniglet, Normal';font-variant-ligatures:normal;font-variant-caps:normal;font-variant-numeric:normal;font-feature-settings:normal;text-align:start;writing-mode:lr-tb;text-anchor:start;stroke-width:0.26458424;fill:#232323;fill-opacity:1"
       id="path908"
       inkscape:connector-curvature="0" />
    <path
       d="m 10.546868,90.736843 q -0.0071,-0.1905 -0.01411,-0.39864 -0.0035,-0.211667 -0.0035,-0.486835 -0.112889,0.0035 -0.239889,0.0071 -0.127001,0 -0.261057,0 -0.1587505,0 -0.2892787,0 -0.1305282,0 -0.2328341,-0.0035 -0.00353,0.222251 -0.00706,0.43039 -0.00353,0.204612 -0.014111,0.44803 -0.00353,0.08467 -0.017639,0.130528 -0.010583,0.04586 -0.03175,0.07056 -0.021167,0.02469 -0.049389,0.02822 -0.024694,0.0071 -0.059972,0.0071 -0.0635,0 -0.1058337,-0.04233 -0.042333,-0.04586 -0.049389,-0.190501 -0.00706,-0.127 -0.010583,-0.264584 0,-0.137584 -0.00353,-0.296334 -0.00353,-0.158751 -0.00353,-0.342196 0,-0.186973 0,-0.416279 0,-0.250473 0.00353,-0.426863 0.00353,-0.179917 0.017639,-0.292806 0.017639,-0.112889 0.052917,-0.165806 0.035278,-0.05292 0.098778,-0.05292 0.059972,0 0.1058337,0.03881 0.045861,0.0388 0.052917,0.179917 0.00706,0.119945 0.010583,0.218723 0.00353,0.09525 0.00706,0.190501 0.00353,0.09172 0.00353,0.1905 0,0.09878 0,0.218723 0.2645842,-0.01058 0.5185848,-0.01058 0.123473,0 0.246946,0.0035 0.127,0.0035 0.257528,0.01058 V 89.41745 q 0,-0.250473 0.0035,-0.426863 0.0035,-0.179917 0.01764,-0.292806 0.01764,-0.112889 0.05292,-0.165806 0.03528,-0.05292 0.09878,-0.05292 0.05997,0 0.105834,0.03881 0.04586,0.0388 0.05292,0.179917 0.0071,0.127 0.01058,0.225778 0.0035,0.09878 0.0071,0.197557 0.0035,0.09525 0.0035,0.201084 0,0.102306 0,0.232834 0,0.15875 0,0.30339 0,0.144639 -0.0035,0.285751 -0.0035,0.141111 -0.0071,0.285751 -0.0035,0.144639 -0.01058,0.30339 -0.0035,0.08467 -0.01764,0.130528 -0.01058,0.04586 -0.03175,0.07056 -0.02117,0.02469 -0.04939,0.02822 -0.02469,0.0071 -0.05997,0.0071 -0.0635,0 -0.105834,-0.04233 -0.04233,-0.04586 -0.04939,-0.190501 z"
       style="font-style:normal;font-variant:normal;font-weight:normal;font-stretch:normal;font-size:3.52778983px;font-family:Sniglet;-inkscape-font-specification:'Sniglet, Normal';font-variant-ligatures:normal;font-variant-caps:normal;font-variant-numeric:normal;font-feature-settings:normal;text-align:start;writing-mode:lr-tb;text-anchor:start;stroke-width:0.26458424;fill:#232323;fill-opacity:1"
       id="path910"
       inkscape:connector-curvature="0" />
    <path
       d="m 12.781282,90.775649 q -0.03528,-0.08467 -0.07761,-0.194028 -0.03881,-0.11289 -0.08467,-0.236362 -0.105834,0.0035 -0.222251,0.0071 -0.116417,0 -0.236362,0 -0.151695,0 -0.275168,0 -0.123472,0 -0.225778,-0.0035 -0.04233,0.123472 -0.08114,0.232834 -0.03881,0.109361 -0.07408,0.194028 -0.07056,0.179917 -0.204612,0.179917 -0.04939,0 -0.09525,-0.03175 -0.04233,-0.03175 -0.04233,-0.09172 0,-0.05997 0.02117,-0.155223 0.02117,-0.09878 0.05292,-0.20814 0.03528,-0.112889 0.07408,-0.229306 0.0388,-0.119945 0.07408,-0.222251 0.03528,-0.112889 0.09878,-0.285751 0.06703,-0.176389 0.141112,-0.36689 0.07408,-0.1905 0.148167,-0.373946 0.07408,-0.186972 0.134056,-0.324556 0.01411,-0.03528 0.03528,-0.07761 0.02117,-0.04586 0.04939,-0.08467 0.03175,-0.03881 0.06703,-0.06703 0.03881,-0.02822 0.08467,-0.02822 0.04586,0 0.08467,0.03175 0.03881,0.02822 0.06703,0.07056 0.03175,0.04233 0.05292,0.08819 0.02469,0.04586 0.03881,0.08114 0.05644,0.141112 0.127,0.324557 0.07408,0.183445 0.144639,0.370418 0.07408,0.186972 0.137584,0.356306 0.0635,0.169334 0.102306,0.285751 0.03175,0.102306 0.07056,0.218723 0.04233,0.116417 0.07761,0.229307 0.03528,0.112889 0.05645,0.211667 0.02469,0.09525 0.02469,0.155223 0,0.05997 -0.04586,0.09172 -0.04233,0.03175 -0.09172,0.03175 -0.0635,0 -0.116417,-0.04233 -0.05292,-0.04586 -0.09172,-0.137584 z m -0.624419,-0.776114 q 0.08467,0 0.169334,0.0035 0.08467,0 0.169334,0.0035 -0.04233,-0.123473 -0.08467,-0.246945 -0.04233,-0.123473 -0.08114,-0.236362 -0.03528,-0.11289 -0.06703,-0.20814 -0.02822,-0.09878 -0.04939,-0.172862 -0.01411,-0.04586 -0.03175,-0.07408 -0.01764,-0.02822 -0.04586,-0.02822 -0.02822,0 -0.04586,0.03175 -0.01764,0.02822 -0.03175,0.07408 -0.04233,0.14464 -0.119945,0.377474 -0.07408,0.229306 -0.15875,0.483307 0.09525,-0.0035 0.1905,-0.0035 0.09525,-0.0035 0.186973,-0.0035 z"
       style="font-style:normal;font-variant:normal;font-weight:normal;font-stretch:normal;font-size:3.52778983px;font-family:Sniglet;-inkscape-font-specification:'Sniglet, Normal';font-variant-ligatures:normal;font-variant-caps:normal;font-variant-numeric:normal;font-feature-settings:normal;text-align:start;writing-mode:lr-tb;text-anchor:start;stroke-width:0.26458424;fill:#232323;fill-opacity:1"
       id="path912"
       inkscape:connector-curvature="0" />
    <path
       d="m 13.464461,90.736843 q -0.0071,-0.127 -0.01058,-0.264584 0,-0.137584 -0.0035,-0.296334 -0.0035,-0.158751 -0.0035,-0.342196 0,-0.186973 0,-0.416279 0,-0.250473 0.0035,-0.426863 0.0035,-0.179917 0.02117,-0.292806 0.01764,-0.112889 0.05292,-0.165806 0.03881,-0.05292 0.102306,-0.05292 0.03175,0 0.05997,0.0071 0.02822,0.0071 0.04939,0.03175 0.02117,0.02117 0.03528,0.06703 0.01764,0.04233 0.02117,0.112889 0.0071,0.127 0.01058,0.225778 0.0035,0.09878 0.0071,0.197557 0.0035,0.09525 0.0035,0.201084 0,0.102306 0,0.232834 0,0.15875 0,0.30339 0,0.144639 -0.0035,0.285751 -0.0035,0.141111 -0.0071,0.285751 -0.0035,0.144639 -0.01058,0.30339 -0.0035,0.08467 -0.01764,0.130528 -0.01411,0.04586 -0.03528,0.07056 -0.02117,0.02469 -0.04939,0.02822 -0.02822,0.0071 -0.0635,0.0071 -0.0635,0 -0.109362,-0.04233 -0.04586,-0.04586 -0.05292,-0.190501 z"
       style="font-style:normal;font-variant:normal;font-weight:normal;font-stretch:normal;font-size:3.52778983px;font-family:Sniglet;-inkscape-font-specification:'Sniglet, Normal';font-variant-ligatures:normal;font-variant-caps:normal;font-variant-numeric:normal;font-feature-settings:normal;text-align:start;writing-mode:lr-tb;text-anchor:start;stroke-width:0.26458424;fill:#232323;fill-opacity:1"
       id="path914"
       inkscape:connector-curvature="0" />
    <path
       d="M 15.669825,90.78976 Q 15.556936,90.634538 15.45463,90.482843 15.355852,90.32762 15.239435,90.144175 15.126545,89.96073 14.978378,89.738479 14.833739,89.5127 14.629127,89.212838 q 0,0.264584 0,0.476252 0,0.208139 -0.0035,0.388057 -0.0035,0.179917 -0.0071,0.338668 -0.0035,0.15875 -0.01058,0.317501 -0.0035,0.08467 -0.01764,0.130528 -0.01058,0.04586 -0.03175,0.07056 -0.02117,0.02469 -0.04939,0.02822 -0.02469,0.0071 -0.05997,0.0071 -0.0635,0 -0.105834,-0.04233 -0.04233,-0.04586 -0.04939,-0.190501 -0.01764,-0.388056 -0.02117,-0.776113 0,-0.391585 0,-0.807864 0,-0.236362 0.0035,-0.370418 0.0071,-0.134056 0.02469,-0.201084 0.02117,-0.06703 0.05292,-0.08467 0.03528,-0.01764 0.09172,-0.01764 0.05645,0 0.148167,0.08819 0.09172,0.08467 0.201084,0.225778 0.109362,0.141112 0.232834,0.324557 0.127001,0.183445 0.250473,0.377473 0.123473,0.194029 0.236362,0.38453 0.116417,0.1905 0.211668,0.345723 -0.0035,-0.165806 -0.0035,-0.363362 0,-0.201084 0,-0.444502 0,-0.278695 0.0035,-0.458613 0.0035,-0.183445 0.01764,-0.289278 0.01764,-0.105834 0.05292,-0.148168 0.03528,-0.04233 0.09878,-0.04233 0.05997,0 0.105833,0.03881 0.04586,0.0388 0.05292,0.179917 0.0071,0.127 0.01058,0.225778 0.0035,0.09878 0.0071,0.197557 0.0035,0.09525 0.0035,0.201084 0,0.102306 0,0.232834 0,0.15875 0,0.30339 0,0.144639 -0.0035,0.285751 -0.0035,0.141111 -0.0071,0.285751 -0.0035,0.144639 -0.01058,0.30339 -0.0035,0.08467 -0.01764,0.130528 -0.01058,0.04586 -0.03175,0.07056 -0.02117,0.02469 -0.04939,0.02822 -0.02469,0.0071 -0.05997,0.0071 -0.05997,0 -0.102306,-0.03528 -0.04233,-0.03528 -0.123473,-0.14464 z"
       style="font-style:normal;font-variant:normal;font-weight:normal;font-stretch:normal;font-size:3.52778983px;font-family:Sniglet;-inkscape-font-specification:'Sniglet, Normal';font-variant-ligatures:normal;font-variant-caps:normal;font-variant-numeric:normal;font-feature-settings:normal;text-align:start;writing-mode:lr-tb;text-anchor:start;stroke-width:0.26458424;fill:#232323;fill-opacity:1"
       id="path916"
       inkscape:connector-curvature="0" />
  </g>
  <path
     style="fill:none;stroke:#232323;stroke-width:0.13199998;stroke-opacity:1"
     inkscape:connector-curvature="0"
     id="path138"
     d="m 13.324524,110.68774 h 2.175008"
     sodipodi:nodetypes="cc" />
  <g
     id="g26"
     style="line-height:1.25;stroke-width:0.78183937;fill:#232323;fill-opacity:1"
     transform="matrix(1.2799807,0,0,1.2780899,-34.402819,-203.66762)">
    <path
       inkscape:connector-curvature="0"
       id="path24"
       word-spacing="0"
       letter-spacing="0"
       font-size="2.822"
       font-weight="400"
       aria-label="ATTV"
       style="font-weight:400;font-size:2.82200003px;font-family:Sniglet;-inkscape-font-specification:'Sniglet, Normal';font-variant-ligatures:normal;font-variant-caps:normal;font-variant-numeric:normal;font-feature-settings:normal;text-align:start;letter-spacing:0;word-spacing:0;stroke-width:0.78183937;fill:#232323;fill-opacity:1"
       d="m 31.405,188.12 q -0.029,-0.068 -0.062,-0.156 l -0.068,-0.189 -0.178,0.006 h -0.41 q -0.098,0 -0.18,-0.003 l -0.065,0.187 q -0.03,0.087 -0.06,0.155 -0.055,0.144 -0.163,0.144 -0.04,0 -0.076,-0.026 -0.034,-0.025 -0.034,-0.073 0,-0.048 0.017,-0.124 0.017,-0.08 0.042,-0.167 l 0.06,-0.183 q 0.03,-0.096 0.059,-0.178 0.028,-0.09 0.079,-0.229 l 0.113,-0.293 0.118,-0.3 q 0.06,-0.149 0.108,-0.259 0.011,-0.028 0.028,-0.062 0.017,-0.037 0.04,-0.068 0.025,-0.03 0.053,-0.053 0.031,-0.023 0.068,-0.023 0.036,0 0.067,0.025 0.032,0.023 0.054,0.057 0.026,0.034 0.042,0.07 0.02,0.037 0.031,0.065 0.046,0.113 0.102,0.26 0.06,0.147 0.116,0.296 0.06,0.15 0.11,0.285 0.05,0.136 0.082,0.229 0.025,0.082 0.056,0.175 0.034,0.093 0.062,0.183 0.028,0.09 0.045,0.17 0.02,0.076 0.02,0.124 0,0.048 -0.037,0.073 -0.033,0.026 -0.073,0.026 -0.05,0 -0.093,-0.034 -0.042,-0.037 -0.073,-0.11 z m -0.5,-0.621 q 0.068,0 0.136,0.003 0.067,0 0.135,0.003 l -0.068,-0.198 -0.065,-0.189 -0.053,-0.166 -0.04,-0.139 q -0.011,-0.036 -0.025,-0.059 -0.014,-0.023 -0.037,-0.023 -0.022,0 -0.037,0.026 -0.014,0.022 -0.025,0.06 -0.034,0.115 -0.096,0.301 l -0.127,0.387 q 0.076,-0.003 0.152,-0.003 0.077,-0.003 0.15,-0.003 z m 1.875,-0.951 q -0.078,0.006 -0.169,0.008 l -0.194,0.006 0.005,0.144 0.006,0.132 q 0.003,0.068 0.003,0.141 0.002,0.074 0.002,0.164 v 0.246 l -0.002,0.234 -0.006,0.234 q -0.003,0.119 -0.009,0.246 -0.002,0.067 -0.014,0.104 -0.008,0.037 -0.025,0.056 -0.017,0.02 -0.04,0.023 -0.022,0.006 -0.05,0.006 -0.051,0 -0.088,-0.034 -0.034,-0.037 -0.04,-0.152 -0.005,-0.102 -0.008,-0.215 0,-0.113 -0.003,-0.243 -0.002,-0.13 -0.002,-0.279 v -0.606 q 0.002,-0.116 0.008,-0.201 h -0.116 q -0.118,0 -0.203,-0.003 -0.082,-0.003 -0.135,-0.014 -0.054,-0.014 -0.08,-0.042 -0.022,-0.029 -0.022,-0.08 0,-0.025 0.006,-0.045 0.005,-0.022 0.025,-0.04 0.02,-0.019 0.054,-0.03 0.036,-0.011 0.093,-0.017 l 0.096,-0.006 0.084,-0.006 q 0.043,-0.003 0.088,-0.003 h 0.104 q 0.167,0 0.314,0.003 0.15,0.003 0.316,0.011 0.067,0.006 0.104,0.017 0.037,0.008 0.057,0.026 0.02,0.017 0.022,0.04 0.006,0.022 0.006,0.05 0,0.05 -0.037,0.085 -0.034,0.034 -0.15,0.04 z m 1.539,0 q -0.08,0.006 -0.17,0.008 l -0.195,0.006 0.006,0.144 0.006,0.132 q 0.002,0.068 0.002,0.141 0.003,0.074 0.003,0.164 v 0.246 q 0,0.115 -0.003,0.234 l -0.005,0.234 q -0.003,0.119 -0.009,0.246 -0.002,0.067 -0.014,0.104 -0.008,0.037 -0.025,0.056 -0.017,0.02 -0.04,0.023 -0.022,0.006 -0.05,0.006 -0.051,0 -0.088,-0.034 -0.034,-0.037 -0.04,-0.152 -0.005,-0.102 -0.008,-0.215 0,-0.113 -0.003,-0.243 -0.003,-0.13 -0.003,-0.279 v -0.606 q 0.003,-0.116 0.009,-0.201 h -0.116 q -0.118,0 -0.203,-0.003 -0.082,-0.003 -0.135,-0.014 -0.054,-0.014 -0.08,-0.042 -0.022,-0.029 -0.022,-0.08 0,-0.025 0.006,-0.045 0.005,-0.022 0.025,-0.04 0.02,-0.019 0.054,-0.03 0.036,-0.011 0.093,-0.017 l 0.096,-0.006 0.084,-0.006 q 0.043,-0.003 0.088,-0.003 h 0.104 q 0.167,0 0.314,0.003 0.15,0.003 0.316,0.011 0.067,0.006 0.104,0.017 0.037,0.008 0.056,0.026 0.02,0.017 0.023,0.04 0.006,0.022 0.006,0.05 0,0.05 -0.037,0.085 -0.034,0.034 -0.15,0.04 z m 1.211,1.602 q -0.038,0.068 -0.069,0.1 -0.028,0.03 -0.073,0.03 -0.045,0 -0.08,-0.03 -0.033,-0.032 -0.072,-0.097 -0.051,-0.084 -0.116,-0.234 -0.062,-0.15 -0.127,-0.324 -0.065,-0.178 -0.127,-0.367 -0.062,-0.19 -0.113,-0.356 -0.048,-0.166 -0.08,-0.29 -0.027,-0.128 -0.027,-0.181 0,-0.057 0.022,-0.085 0.023,-0.028 0.088,-0.028 0.036,0 0.062,0.02 0.028,0.017 0.07,0.101 0.034,0.065 0.074,0.17 0.04,0.104 0.082,0.231 0.045,0.127 0.09,0.268 l 0.09,0.277 0.085,0.265 0.073,0.229 0.077,-0.232 0.087,-0.265 0.09,-0.277 q 0.045,-0.14 0.09,-0.265 l 0.085,-0.229 q 0.04,-0.104 0.07,-0.172 0.04,-0.081 0.069,-0.101 0.03,-0.02 0.062,-0.02 0.065,0 0.087,0.034 0.026,0.03 0.026,0.093 0,0.056 -0.017,0.135 -0.017,0.08 -0.06,0.212 -0.04,0.13 -0.107,0.325 l -0.166,0.477 q -0.026,0.076 -0.06,0.158 -0.03,0.081 -0.065,0.16 -0.03,0.077 -0.062,0.147 -0.03,0.07 -0.059,0.122 z" />
  </g>
  <g
     id="g34"
     style="line-height:1.25;stroke-width:0.78183937;fill:#232323;fill-opacity:1"
     transform="matrix(1.2799807,0,0,1.2780899,-34.402819,-204.16813)">
    <path
       inkscape:connector-curvature="0"
       id="path32"
       word-spacing="0"
       letter-spacing="0"
       font-size="2.822"
       font-weight="400"
       aria-label="RATE"
       style="font-weight:400;font-size:2.82200003px;font-family:Sniglet;-inkscape-font-specification:'Sniglet, Normal';font-variant-ligatures:normal;font-variant-caps:normal;font-variant-numeric:normal;font-feature-settings:normal;text-align:start;letter-spacing:0;word-spacing:0;stroke-width:0.78183937;fill:#232323;fill-opacity:1"
       d="m 30.817,171.954 -0.082,0.006 h -0.178 q -0.048,0 -0.107,-0.006 v 0.573 q 0,0.09 -0.045,0.113 -0.042,0.02 -0.107,0.02 -0.034,0 -0.054,-0.007 -0.02,-0.003 -0.034,-0.014 -0.011,-0.014 -0.02,-0.04 -0.005,-0.025 -0.008,-0.07 -0.006,-0.05 -0.008,-0.147 l -0.006,-0.254 q 0,-0.155 -0.003,-0.375 v -0.522 q 0,-0.116 0.028,-0.223 0.029,-0.11 0.102,-0.192 0.073,-0.085 0.198,-0.135 0.127,-0.051 0.321,-0.051 0.139,0 0.268,0.03 0.133,0.032 0.235,0.108 0.101,0.076 0.163,0.206 0.062,0.13 0.062,0.325 0,0.26 -0.113,0.403 -0.11,0.141 -0.304,0.2 l 0.378,0.52 q 0.05,0.068 0.05,0.138 0,0.057 -0.039,0.088 -0.037,0.034 -0.093,0.034 -0.062,0 -0.107,-0.034 -0.045,-0.037 -0.085,-0.093 z m 0.443,-0.658 q 0,-0.195 -0.118,-0.288 -0.116,-0.096 -0.37,-0.096 -0.093,0 -0.155,0.017 -0.062,0.014 -0.1,0.057 -0.036,0.042 -0.053,0.118 -0.014,0.074 -0.014,0.19 v 0.191 q 0,0.11 0.003,0.2 0.065,0.004 0.144,0.004 h 0.152 q 0.08,0 0.167,-0.008 0.09,-0.012 0.166,-0.051 0.077,-0.043 0.127,-0.119 0.051,-0.079 0.051,-0.214 z m 1.73,1.208 -0.062,-0.155 q -0.03,-0.09 -0.068,-0.19 l -0.177,0.007 h -0.41 q -0.098,0 -0.18,-0.003 l -0.065,0.186 q -0.031,0.088 -0.06,0.155 -0.056,0.144 -0.163,0.144 -0.04,0 -0.076,-0.025 -0.034,-0.026 -0.034,-0.074 0,-0.048 0.017,-0.124 0.017,-0.079 0.042,-0.166 0.028,-0.09 0.06,-0.184 0.03,-0.096 0.059,-0.178 0.028,-0.09 0.079,-0.228 0.053,-0.141 0.113,-0.294 l 0.118,-0.299 q 0.06,-0.15 0.107,-0.26 l 0.029,-0.062 q 0.016,-0.036 0.04,-0.067 0.024,-0.031 0.053,-0.054 0.03,-0.022 0.067,-0.022 0.037,0 0.068,0.025 0.031,0.023 0.054,0.056 0.025,0.034 0.042,0.071 0.02,0.037 0.031,0.065 l 0.102,0.26 q 0.059,0.146 0.115,0.296 0.06,0.15 0.11,0.285 0.051,0.135 0.082,0.228 l 0.057,0.175 q 0.034,0.094 0.062,0.184 0.028,0.09 0.045,0.17 0.02,0.075 0.02,0.123 0,0.048 -0.037,0.074 -0.034,0.025 -0.073,0.025 -0.051,0 -0.093,-0.034 -0.043,-0.036 -0.074,-0.11 z m -0.5,-0.62 0.136,0.002 q 0.068,0 0.136,0.003 l -0.068,-0.197 -0.065,-0.19 q -0.028,-0.09 -0.054,-0.166 l -0.04,-0.138 q -0.01,-0.037 -0.025,-0.06 -0.014,-0.022 -0.036,-0.022 -0.023,0 -0.037,0.025 -0.014,0.023 -0.025,0.06 -0.034,0.115 -0.096,0.302 l -0.127,0.386 q 0.076,-0.003 0.152,-0.003 0.076,-0.003 0.15,-0.003 z m 1.876,-0.952 q -0.079,0.006 -0.169,0.008 l -0.195,0.006 0.006,0.144 0.005,0.133 q 0.003,0.067 0.003,0.14 0.003,0.074 0.003,0.164 v 0.246 q 0,0.116 -0.003,0.234 l -0.005,0.235 q -0.003,0.118 -0.009,0.245 -0.003,0.068 -0.014,0.104 -0.008,0.037 -0.025,0.057 -0.017,0.02 -0.04,0.022 -0.022,0.006 -0.05,0.006 -0.051,0 -0.088,-0.033 -0.034,-0.037 -0.04,-0.153 -0.005,-0.101 -0.008,-0.214 0,-0.113 -0.003,-0.243 -0.003,-0.13 -0.003,-0.28 v -0.606 q 0.003,-0.116 0.009,-0.2 h -0.116 q -0.118,0 -0.203,-0.004 -0.082,-0.003 -0.136,-0.014 -0.053,-0.014 -0.079,-0.042 -0.022,-0.028 -0.022,-0.079 0,-0.025 0.005,-0.045 0.006,-0.023 0.026,-0.04 0.02,-0.02 0.053,-0.03 0.037,-0.012 0.094,-0.017 l 0.096,-0.006 0.084,-0.006 q 0.043,-0.003 0.088,-0.003 h 0.104 q 0.167,0 0.313,0.003 0.15,0.003 0.316,0.01 0.068,0.007 0.105,0.018 0.037,0.008 0.056,0.025 0.02,0.017 0.023,0.04 0.006,0.022 0.006,0.05 0,0.051 -0.037,0.085 -0.034,0.034 -0.15,0.04 z m 0.402,1.287 -0.011,-0.245 q -0.006,-0.156 -0.006,-0.32 v -0.191 l 0.006,-0.206 q 0.005,-0.21 0.025,-0.328 0.023,-0.118 0.085,-0.178 0.065,-0.059 0.18,-0.073 0.116,-0.014 0.308,-0.014 h 0.06 q 0.059,0 0.14,0.003 0.082,0 0.17,0.003 l 0.15,0.006 q 0.062,0.006 0.098,0.017 0.04,0.008 0.06,0.025 0.02,0.014 0.025,0.037 0.006,0.02 0.006,0.045 0,0.065 -0.037,0.096 -0.037,0.028 -0.15,0.037 -0.056,0.006 -0.166,0.008 h -0.22 q -0.113,0 -0.204,0.003 h -0.112 q -0.074,0.003 -0.105,0.034 -0.028,0.028 -0.028,0.138 l 0.003,0.124 q 0.005,0.096 0.005,0.271 h 0.235 q 0.15,0 0.242,0.006 0.096,0.003 0.147,0.017 0.054,0.014 0.073,0.045 0.02,0.031 0.02,0.082 0,0.025 -0.005,0.048 -0.003,0.02 -0.023,0.037 -0.02,0.014 -0.056,0.025 -0.037,0.008 -0.105,0.014 -0.082,0.006 -0.155,0.008 h -0.378 v 0.344 l 0.005,0.096 q 0.003,0.046 0.012,0.077 0.01,0.03 0.036,0.05 0.029,0.02 0.08,0.029 0.053,0.008 0.14,0.008 h 0.607 q 0.099,0 0.124,0.036 0.026,0.037 0.026,0.1 0,0.05 -0.023,0.078 -0.022,0.026 -0.11,0.037 -0.084,0.014 -0.257,0.017 -0.169,0.003 -0.468,0.003 -0.127,0 -0.209,-0.023 -0.082,-0.022 -0.133,-0.076 -0.05,-0.054 -0.076,-0.138 -0.022,-0.088 -0.03,-0.212 z" />
  </g>
  <g
     style="font-weight:400;font-size:2.1170001px;font-family:Sniglet;letter-spacing:0;word-spacing:0;stroke-width:0.20718741;fill:#232323;fill-opacity:1"
     id="g56"
     word-spacing="0"
     letter-spacing="0"
     font-size="2.117"
     font-weight="400"
     transform="matrix(1.2799807,0,0,1.2780899,-34.402819,-203.66762)">
    <g
       id="g50"
       style="line-height:1.25;stroke-width:0.20718741;fill:#232323;fill-opacity:1">
      <path
         inkscape:connector-curvature="0"
         id="path48"
         aria-label="x -1"
         d="m 29.657,197.57 -0.163,0.171 q -0.066,0.07 -0.113,0.117 -0.046,0.044 -0.078,0.065 -0.03,0.022 -0.055,0.022 -0.03,0 -0.06,-0.026 -0.027,-0.025 -0.027,-0.055 0,-0.025 0.036,-0.076 0.036,-0.053 0.09,-0.117 0.052,-0.063 0.114,-0.13 l 0.112,-0.132 -0.13,-0.152 q -0.059,-0.074 -0.103,-0.138 -0.045,-0.063 -0.072,-0.112 -0.025,-0.049 -0.025,-0.076 0,-0.028 0.027,-0.047 0.028,-0.021 0.05,-0.021 0.02,0 0.066,0.042 0.047,0.04 0.104,0.1 0.06,0.057 0.119,0.122 l 0.11,0.117 0.103,-0.114 q 0.06,-0.066 0.117,-0.123 0.057,-0.057 0.106,-0.098 0.048,-0.04 0.076,-0.04 0.023,0 0.046,0.017 0.024,0.017 0.024,0.044 0,0.028 -0.028,0.077 -0.025,0.048 -0.07,0.112 -0.044,0.063 -0.105,0.137 -0.06,0.075 -0.127,0.153 l 0.114,0.129 q 0.061,0.068 0.114,0.133 0.053,0.064 0.087,0.117 0.036,0.05 0.036,0.076 0,0.03 -0.03,0.055 -0.027,0.025 -0.057,0.025 -0.027,0 -0.074,-0.034 -0.044,-0.036 -0.102,-0.088 -0.055,-0.055 -0.116,-0.121 z m 1.813,-0.161 -0.224,0.008 q -0.127,0.002 -0.3,0.002 -0.073,0 -0.123,-0.002 -0.051,-0.002 -0.083,-0.01 -0.032,-0.011 -0.047,-0.032 -0.014,-0.022 -0.014,-0.06 0,-0.019 0.004,-0.034 0.004,-0.016 0.019,-0.03 0.015,-0.012 0.04,-0.02 0.028,-0.01 0.07,-0.015 l 0.055,-0.004 0.049,-0.002 q 0.023,-0.002 0.048,-0.002 h 0.064 q 0.114,0 0.22,0.002 0.106,0 0.22,0.006 0.05,0.004 0.078,0.013 0.028,0.006 0.043,0.019 0.015,0.012 0.017,0.03 0.004,0.016 0.004,0.037 0,0.038 -0.028,0.064 -0.025,0.025 -0.112,0.03 z m 0.594,0.398 q -0.004,-0.076 -0.006,-0.159 l -0.002,-0.178 q -0.003,-0.095 -0.003,-0.205 v -0.514 l -0.127,0.065 q -0.052,0.034 -0.084,0.04 -0.03,0.006 -0.066,0.006 -0.032,0 -0.057,-0.027 -0.023,-0.028 -0.023,-0.066 0,-0.038 0.025,-0.065 0.028,-0.03 0.064,-0.053 0.046,-0.032 0.1,-0.064 0.054,-0.031 0.105,-0.057 0.05,-0.027 0.093,-0.042 0.045,-0.017 0.074,-0.017 0.015,0 0.03,0.004 0.017,0.004 0.03,0.017 0.014,0.013 0.023,0.04 0.01,0.025 0.012,0.07 l 0.007,0.133 0.004,0.113 q 0.002,0.052 0.002,0.112 v 0.319 q 0,0.087 -0.002,0.172 l -0.004,0.171 q -0.002,0.087 -0.007,0.182 -0.002,0.051 -0.01,0.079 -0.007,0.027 -0.02,0.042 -0.012,0.015 -0.029,0.017 -0.015,0.004 -0.036,0.004 -0.038,0 -0.063,-0.026 -0.026,-0.027 -0.03,-0.114 z"
         style="-inkscape-font-specification:'Sniglet, Normal';font-variant-ligatures:normal;font-variant-caps:normal;font-variant-numeric:normal;font-feature-settings:normal;text-align:start;stroke-width:0.20718741;fill:#232323;fill-opacity:1" />
    </g>
    <g
       id="g54"
       style="line-height:1.25;stroke-width:0.20718741;fill:#232323;fill-opacity:1">
      <path
         inkscape:connector-curvature="0"
         id="path52"
         aria-label="x 1"
         d="m 35.427,197.577 -0.163,0.172 q -0.065,0.07 -0.112,0.116 -0.046,0.045 -0.078,0.066 -0.03,0.02 -0.055,0.02 -0.03,0 -0.06,-0.024 -0.027,-0.026 -0.027,-0.055 0,-0.026 0.036,-0.077 0.036,-0.053 0.089,-0.116 0.053,-0.064 0.114,-0.131 0.062,-0.07 0.113,-0.132 l -0.13,-0.152 q -0.059,-0.074 -0.103,-0.138 -0.045,-0.063 -0.072,-0.112 -0.026,-0.048 -0.026,-0.076 0,-0.027 0.028,-0.047 0.027,-0.02 0.05,-0.02 0.02,0 0.066,0.042 0.047,0.04 0.104,0.1 0.06,0.056 0.118,0.122 l 0.11,0.116 q 0.047,-0.05 0.104,-0.114 0.06,-0.066 0.117,-0.123 0.057,-0.057 0.106,-0.097 0.048,-0.04 0.076,-0.04 0.023,0 0.046,0.017 0.024,0.016 0.024,0.044 0,0.027 -0.028,0.076 -0.025,0.049 -0.07,0.112 -0.044,0.064 -0.106,0.138 -0.059,0.074 -0.127,0.152 l 0.115,0.13 q 0.061,0.067 0.114,0.133 0.053,0.063 0.087,0.116 0.036,0.051 0.036,0.076 0,0.03 -0.03,0.055 -0.027,0.026 -0.057,0.026 -0.028,0 -0.074,-0.034 -0.045,-0.036 -0.102,-0.089 -0.055,-0.055 -0.116,-0.12 z m 1.391,0.237 -0.007,-0.158 -0.002,-0.178 q -0.002,-0.095 -0.002,-0.206 v -0.514 l -0.127,0.066 q -0.053,0.034 -0.084,0.04 -0.03,0.006 -0.066,0.006 -0.032,0 -0.057,-0.028 -0.023,-0.027 -0.023,-0.065 0,-0.038 0.025,-0.066 0.027,-0.03 0.063,-0.053 0.047,-0.031 0.1,-0.063 0.055,-0.032 0.106,-0.057 0.05,-0.028 0.093,-0.043 0.044,-0.017 0.074,-0.017 0.015,0 0.03,0.004 0.017,0.004 0.03,0.017 0.014,0.013 0.023,0.04 0.01,0.026 0.012,0.07 l 0.007,0.134 0.004,0.112 q 0.002,0.053 0.002,0.112 v 0.32 q 0,0.087 -0.002,0.171 l -0.004,0.172 -0.007,0.182 q -0.002,0.05 -0.01,0.078 -0.007,0.027 -0.02,0.042 -0.012,0.015 -0.03,0.017 -0.014,0.004 -0.035,0.004 -0.038,0 -0.064,-0.025 -0.025,-0.028 -0.03,-0.115 z"
         style="-inkscape-font-specification:'Sniglet, Normal';font-variant-ligatures:normal;font-variant-caps:normal;font-variant-numeric:normal;font-feature-settings:normal;text-align:start;stroke-width:0.20718741;fill:#232323;fill-opacity:1" />
    </g>
  </g>
  <path
     inkscape:connector-curvature="0"
     id="path90"
     word-spacing="0"
     letter-spacing="0"
     font-size="2.117"
     font-weight="400"
     style="font-weight:400;font-size:2.1170001px;line-height:1.25;font-family:Sniglet;-inkscape-font-specification:'Sniglet, Normal';font-variant-ligatures:normal;font-variant-caps:normal;font-variant-numeric:normal;font-feature-settings:normal;text-align:start;letter-spacing:0;word-spacing:0;stroke-width:0.99999988;fill:#232323;fill-opacity:1"
     d="m 3.9095647,27.903604 c 0,-0.110768 0.00981,-0.223666 0.02944,-0.338694 0.021333,-0.11588 0.059305,-0.220683 0.1139183,-0.31441 0.053759,-0.09373 0.1267184,-0.170412 0.2188771,-0.230056 0.093865,-0.05965 0.2133293,-0.08947 0.358394,-0.08947 0.113492,0 0.2099173,0.01704 0.289276,0.05112 0.081065,0.03493 0.148051,0.08052 0.200957,0.136756 0.052053,0.05539 0.092586,0.119291 0.121598,0.191713 0.029013,0.06987 0.050347,0.143573 0.064,0.22111 0.01536,0.07754 0.023893,0.154223 0.0256,0.230056 0.0034,0.07668 0.0051,0.146128 0.0051,0.208329 0,0.126957 -0.01536,0.243263 -0.04608,0.348918 -0.029013,0.104803 -0.074239,0.195122 -0.135678,0.270955 -0.059733,0.07583 -0.1356787,0.135478 -0.227836,0.178933 -0.089599,0.0409 -0.196264,0.06135 -0.319996,0.06135 -0.127998,0 -0.2367963,-0.02428 -0.326395,-0.07285 -0.088746,-0.05027 -0.1612785,-0.116726 -0.2175976,-0.199378 -0.053759,-0.08521 -0.093439,-0.183619 -0.1190382,-0.295239 -0.023039,-0.113324 -0.034559,-0.233464 -0.034559,-0.360421 z m 0.2700759,-0.0051 c 0,0.08776 0.00725,0.172116 0.02176,0.253062 0.017067,0.08009 0.042666,0.150814 0.076799,0.212163 0.034133,0.05965 0.078079,0.107362 0.131838,0.143146 0.05632,0.03579 0.124159,0.05368 0.203517,0.05368 0.075945,0 0.141651,-0.01534 0.197117,-0.04601 0.058027,-0.03067 0.106239,-0.07328 0.144637,-0.127809 0.037547,-0.05539 0.06528,-0.120995 0.0832,-0.196826 0.01792,-0.07583 0.02688,-0.158057 0.02688,-0.246671 0,-0.06646 -0.00257,-0.141867 -0.0077,-0.226222 -0.00513,-0.08691 -0.0222,-0.167855 -0.0512,-0.242836 -0.027307,-0.07668 -0.070826,-0.141016 -0.130558,-0.192992 -0.059733,-0.05283 -0.1425053,-0.07924 -0.248316,-0.07924 -0.090452,0 -0.1646907,0.02173 -0.222716,0.06518 -0.05632,0.04345 -0.101546,0.09926 -0.135678,0.16743 -0.034133,0.06731 -0.0576,0.142294 -0.0704,0.224944 -0.0128,0.08094 -0.0192,0.160187 -0.0192,0.237725 z m 5.6057789,0.369368 c -0.00253,0.06817 -0.0038,0.143146 -0.0038,0.224944 0,0.08094 -0.00257,0.156779 -0.0077,0.2275 -0.0034,0.05368 -0.0162,0.08861 -0.0384,0.104803 -0.019627,0.01449 -0.04736,0.02173 -0.0832,0.02173 -0.032427,0 -0.058027,-0.0064 -0.0768,-0.01917 -0.01536,-0.01023 -0.027733,-0.03451 -0.03712,-0.07285 -0.00768,-0.03919 -0.011947,-0.09586 -0.0128,-0.169986 -0.00253,-0.07583 -0.0038,-0.176802 -0.0038,-0.302907 -0.059733,0 -0.1164792,8.67e-4 -0.1702376,0.0026 l -0.157436,0.0026 c -0.075947,0 -0.1454927,-0.0017 -0.208638,-0.0051 -0.06144,-0.0034 -0.1147723,-0.0098 -0.159997,-0.01917 -0.042667,-0.01107 -0.0768,-0.02556 -0.102399,-0.04345 -0.023893,-0.01789 -0.03584,-0.04133 -0.03584,-0.0703 0,-0.03919 0.016213,-0.08861 0.04864,-0.148258 0.03328,-0.06135 0.074239,-0.127381 0.122878,-0.198104 0.04864,-0.06987 0.099839,-0.141016 0.153598,-0.213441 l 0.154877,-0.204494 c 0.021333,-0.02982 0.052053,-0.06987 0.09216,-0.120141 0.041813,-0.05197 0.086186,-0.103097 0.133118,-0.153371 0.046933,-0.05283 0.093865,-0.09799 0.1407966,-0.135477 0.046933,-0.03834 0.086613,-0.05751 0.119039,-0.05751 0.03072,0 0.0576,0.0098 0.08064,0.0294 0.023893,0.02045 0.037547,0.06646 0.04096,0.138033 0.00768,0.104804 0.011947,0.215146 0.0128,0.331026 0.00253,0.113324 0.0038,0.225796 0.0038,0.337416 v 0.268398 c 0.0512,0.0034 0.091733,0.0077 0.121599,0.01278 0.03072,0.0051 0.054187,0.01365 0.0704,0.02556 0.017067,0.0085 0.027734,0.02002 0.032,0.03451 0.006,0.01449 0.009,0.03238 0.009,0.05368 0,0.04516 -0.02091,0.07583 -0.06272,0.09202 -0.041813,0.01449 -0.1002657,0.02343 -0.175357,0.02684 z m -0.266235,-0.88444 -0.203518,0.246672 -0.140798,0.172542 c -0.037547,0.04857 -0.070827,0.09032 -0.09984,0.125253 l -0.07296,0.09202 c 0.082773,-0.0034 0.1676793,-0.0051 0.254718,-0.0051 l 0.262395,-0.0026 z m 1.7945325,0.03323 c 0.03755,0 0.08491,0.0034 0.142078,0.01022 0.05803,0.0051 0.113492,0.01664 0.166397,0.03451 0.0512,0.01619 0.096,0.03962 0.134398,0.0703 0.0384,0.03067 0.0576,0.06944 0.0576,0.116306 0,0.02727 -0.0085,0.0507 -0.0256,0.07029 -0.01365,0.0196 -0.03669,0.0294 -0.06912,0.0294 -0.02389,0 -0.0512,-0.0034 -0.08192,-0.01023 l -0.09728,-0.02428 c -0.03413,-0.01023 -0.07211,-0.01875 -0.113919,-0.02556 -0.03925,-0.0077 -0.08192,-0.0115 -0.127998,-0.0115 -0.07509,0 -0.136958,0.01193 -0.185597,0.03579 -0.04693,0.02301 -0.0704,0.05965 -0.0704,0.109914 0,0.02897 0.0081,0.05368 0.02432,0.07413 0.01707,0.0196 0.04053,0.03749 0.0704,0.05368 0.03072,0.01449 0.06571,0.02727 0.104958,0.03834 l 0.130558,0.03195 c 0.05547,0.01449 0.110506,0.03068 0.165118,0.04857 0.05632,0.01789 0.105812,0.04345 0.148477,0.07668 0.04352,0.02982 0.07893,0.06902 0.106239,0.117584 0.02731,0.04687 0.04096,0.105659 0.04096,0.176377 0,0.133773 -0.05077,0.240281 -0.152318,0.319522 -0.100692,0.07668 -0.250023,0.115028 -0.447993,0.115028 -0.04267,0 -0.09387,-0.003 -0.153598,-0.0089 -0.05973,-0.0051 -0.115626,-0.01706 -0.167677,-0.03579 -0.05205,-0.01619 -0.09728,-0.03962 -0.135678,-0.07029 -0.03584,-0.03238 -0.05376,-0.07498 -0.05376,-0.127809 0,-0.03579 0.0081,-0.06263 0.02432,-0.08052 0.01792,-0.0196 0.03925,-0.0294 0.064,-0.0294 0.02048,0 0.04181,0.0064 0.064,0.01917 0.02133,0.01278 0.04693,0.02599 0.0768,0.03962 0.03157,0.01449 0.06869,0.02812 0.111359,0.0409 0.04352,0.01278 0.09685,0.01917 0.159997,0.01917 l 0.09216,-0.0026 c 0.0384,-0.0034 0.07552,-0.01149 0.111358,-0.02428 0.0384,-0.01278 0.06997,-0.02982 0.09472,-0.05112 0.02731,-0.02386 0.04096,-0.05624 0.04096,-0.09713 0,-0.03238 -0.009,-0.05965 -0.02688,-0.0818 -0.01792,-0.02301 -0.04224,-0.0426 -0.07296,-0.05879 -0.03072,-0.01704 -0.06699,-0.03067 -0.108799,-0.0409 l -0.127998,-0.03834 c -0.0512,-0.01449 -0.104106,-0.03068 -0.158717,-0.04857 -0.05291,-0.01789 -0.10112,-0.04133 -0.144638,-0.0703 -0.04267,-0.02897 -0.07765,-0.06518 -0.104959,-0.108638 -0.02731,-0.04431 -0.04096,-0.09927 -0.04096,-0.164874 0,-0.06135 0.0128,-0.118008 0.0384,-0.169985 0.0256,-0.05453 0.06144,-0.101397 0.107519,-0.14059 0.04693,-0.04005 0.103252,-0.07072 0.168957,-0.09202 0.06656,-0.0213 0.140372,-0.03195 0.221437,-0.03195 z m 0.793588,1.246138 0.07552,-0.251784 c 0.02816,-0.09714 0.05973,-0.201512 0.09472,-0.313132 l 0.113918,-0.357865 0.124158,-0.380871 0.09472,-0.286292 c 0.02901,-0.0835 0.05504,-0.151667 0.07808,-0.204495 0.0256,-0.05112 0.04907,-0.08946 0.0704,-0.115028 0.02389,-0.02727 0.04949,-0.0409 0.0768,-0.0409 0.02645,0 0.05077,0.0089 0.07296,0.02684 0.02304,0.01875 0.03456,0.04686 0.03456,0.08435 l -0.0026,0.0409 c -0.0017,0.01449 -0.0051,0.03153 -0.01024,0.05112 -0.08533,0.299073 -0.177491,0.601981 -0.276476,0.908723 -0.09984,0.305037 -0.20565,0.608797 -0.317434,0.911278 -0.02133,0.05794 -0.04224,0.09671 -0.06272,0.116306 -0.01963,0.02045 -0.03925,0.03067 -0.05888,0.03067 -0.03243,0 -0.06144,-0.0094 -0.08704,-0.02812 -0.0256,-0.01704 -0.0384,-0.04686 -0.0384,-0.08947 0,-0.02471 0.0055,-0.0588 0.01664,-0.102247 z m 1.809892,0.05751 c -0.02389,0.0426 -0.04565,0.07413 -0.06528,0.09458 -0.01792,0.0196 -0.04139,0.0294 -0.0704,0.0294 -0.02901,0 -0.05461,-0.0098 -0.0768,-0.0294 -0.02133,-0.0196 -0.04437,-0.05027 -0.06912,-0.09202 -0.03243,-0.05453 -0.06955,-0.129515 -0.111357,-0.224944 -0.04011,-0.09543 -0.08064,-0.198956 -0.121598,-0.310576 -0.04181,-0.114176 -0.08277,-0.231334 -0.122878,-0.351475 -0.03925,-0.120992 -0.07509,-0.234742 -0.107519,-0.34125 -0.03072,-0.106507 -0.05632,-0.199382 -0.0768,-0.278623 -0.01707,-0.08095 -0.0256,-0.138886 -0.0256,-0.173821 0,-0.03579 0.0068,-0.06263 0.02048,-0.08052 0.01451,-0.01789 0.04267,-0.02684 0.08448,-0.02684 0.02304,0 0.04267,0.006 0.05888,0.01789 0.01877,0.01107 0.04139,0.04388 0.06784,0.09841 0.02219,0.0409 0.04565,0.09501 0.0704,0.162317 0.0256,0.06646 0.05205,0.140163 0.07936,0.22111 0.02901,0.0818 0.0576,0.16743 0.08576,0.256896 l 0.08704,0.265843 0.08192,0.25434 0.0704,0.218553 0.07296,-0.221109 0.08448,-0.255618 0.08576,-0.264565 c 0.02901,-0.09032 0.05803,-0.175099 0.08704,-0.25434 l 0.08064,-0.218553 c 0.0256,-0.06646 0.04821,-0.121844 0.06784,-0.166152 0.0256,-0.05113 0.04736,-0.0835 0.06528,-0.09713 0.01963,-0.01193 0.03968,-0.01789 0.06016,-0.01789 0.04096,0 0.06869,0.01065 0.0832,0.03195 0.01707,0.0196 0.0256,0.04942 0.0256,0.08947 0,0.03579 -0.0055,0.07924 -0.01664,0.130366 -0.01109,0.05027 -0.03029,0.117586 -0.0576,0.201938 -0.0256,0.0835 -0.05973,0.187453 -0.102399,0.311854 -0.04267,0.124401 -0.096,0.276493 -0.159997,0.456278 -0.01707,0.04942 -0.03584,0.100118 -0.05632,0.152093 -0.02048,0.05197 -0.04181,0.103097 -0.064,0.15337 -0.01877,0.04942 -0.0384,0.09628 -0.05888,0.14059 -0.01963,0.04601 -0.0384,0.08521 -0.05632,0.117585 z"
     sodipodi:nodetypes="ccccscccccscccscccccccccscccscccsccccccsccscccccccccscccccccscccsccccscccccccccccccccscscccscscccccccscscccscscccccccscccccccscccccccccccccscccccccscsccccscccccccscscccccccccccccccscsccccccccc" />
  <g
     aria-label="OFST"
     style="font-style:normal;font-weight:normal;font-size:10.58336926px;line-height:1.25;font-family:sans-serif;letter-spacing:0px;word-spacing:0px;fill:#232323;fill-opacity:1;stroke:none;stroke-width:0.26458424"
     id="text973"
     transform="translate(0,-5.9992955)">
    <path
       d="m 5.0732375,63.437217 q -0.2116674,0 -0.3986402,-0.08467 Q 4.4911522,63.267883 4.3535684,63.109133 4.2159846,62.946855 4.1348454,62.71402 4.057234,62.481186 4.057234,62.184852 q 0,-0.278695 0.067028,-0.51153 0.070556,-0.232834 0.2046118,-0.402168 0.1375839,-0.169334 0.3386679,-0.261056 0.201084,-0.09525 0.4656682,-0.09525 0.2151952,0 0.4092236,0.07761 0.1940285,0.07761 0.3386679,0.232834 0.1481671,0.155223 0.2328341,0.388057 0.084667,0.232834 0.084667,0.54328 0,0.257528 -0.070556,0.490362 -0.067028,0.232834 -0.2081396,0.409224 -0.1375838,0.172862 -0.3492512,0.278695 -0.2116674,0.102306 -0.4974184,0.102306 z m 0.00706,-0.331612 q 0.1940284,0 0.3386678,-0.07761 0.1446394,-0.08114 0.2398897,-0.211668 0.09525,-0.130528 0.1411116,-0.299862 0.045861,-0.172862 0.045861,-0.352779 0,-0.218723 -0.059972,-0.388057 -0.056445,-0.172861 -0.1552227,-0.289278 -0.098778,-0.116418 -0.2293063,-0.17639 -0.1305283,-0.0635 -0.2786954,-0.0635 -0.1763895,0 -0.3104455,0.07408 -0.1305283,0.07408 -0.2222508,0.201084 -0.088195,0.127001 -0.134056,0.299863 -0.045861,0.169333 -0.045861,0.363362 0,0.20814 0.052917,0.381001 0.052917,0.169334 0.1411116,0.289279 0.091722,0.119945 0.2151951,0.186973 0.1234727,0.0635 0.2610565,0.0635 z"
       style="font-style:normal;font-variant:normal;font-weight:normal;font-stretch:normal;font-size:3.52778983px;font-family:Sniglet;-inkscape-font-specification:'Sniglet, Normal';font-variant-ligatures:normal;font-variant-caps:normal;font-variant-numeric:normal;font-feature-settings:normal;text-align:start;writing-mode:lr-tb;text-anchor:start;stroke-width:0.26458424;fill:#232323;fill-opacity:1"
       id="path986"
       inkscape:connector-curvature="0" />
    <path
       d="m 6.5531453,61.761517 q 0,-0.296334 0.021167,-0.46214 0.021167,-0.169334 0.088195,-0.254001 0.067028,-0.08467 0.1905007,-0.102306 0.1234726,-0.02117 0.3245567,-0.02117 0.1128892,0 0.2046118,0 0.091723,0 0.1763895,0.0035 0.088195,0 0.1728617,0.0035 0.088195,0.0035 0.1905006,0.0071 0.084667,0.0071 0.1305282,0.02117 0.045861,0.01058 0.070556,0.03175 0.024695,0.02117 0.028222,0.04939 0.00706,0.02822 0.00706,0.0635 0,0.0635 -0.045861,0.105834 -0.042333,0.04233 -0.1869729,0.04939 -0.088195,0.0035 -0.1728617,0.0071 -0.081139,0.0035 -0.1869729,0.0071 -0.1023059,0 -0.2328341,0.0035 -0.1305282,0 -0.3139733,0 -0.0635,0 -0.088195,0.04586 -0.024695,0.04233 -0.024695,0.109362 0,0.05292 0,0.105834 0.00353,0.05292 0.00353,0.116417 0.00353,0.0635 0.00353,0.144639 0.00353,0.07761 0.00353,0.183445 0.1305282,0 0.2257786,0.0035 0.098778,0 0.1693339,0.0035 0.074084,0 0.1305282,0.0035 0.056445,0.0035 0.1093615,0.0071 0.1446394,0.0071 0.1869728,0.04939 0.045861,0.04233 0.045861,0.105834 0,0.03528 -0.00706,0.0635 -0.00353,0.02822 -0.028222,0.04939 -0.024694,0.02117 -0.070556,0.03528 -0.045861,0.01411 -0.1305282,0.02117 -0.056445,0.0035 -0.1093615,0.0071 -0.049389,0 -0.1199448,0.0035 -0.067028,0 -0.1622784,0 -0.09525,0 -0.2398897,0 -0.00353,0.211667 -0.00353,0.433918 0.00353,0.218723 -0.010583,0.451557 -0.00706,0.137584 -0.049389,0.169334 -0.038806,0.02822 -0.1199449,0.02822 -0.077611,0 -0.116417,-0.03175 -0.038806,-0.03528 -0.045861,-0.162278 -0.00706,-0.112889 -0.010583,-0.246945 0,-0.137584 -0.00353,-0.310446 -0.00353,-0.176389 -0.00353,-0.395112 0,-0.222251 0,-0.508002 z"
       style="font-style:normal;font-variant:normal;font-weight:normal;font-stretch:normal;font-size:3.52778983px;font-family:Sniglet;-inkscape-font-specification:'Sniglet, Normal';font-variant-ligatures:normal;font-variant-caps:normal;font-variant-numeric:normal;font-feature-settings:normal;text-align:start;writing-mode:lr-tb;text-anchor:start;stroke-width:0.26458424;fill:#232323;fill-opacity:1"
       id="path988"
       inkscape:connector-curvature="0" />
    <path
       d="m 9.1364797,60.91132 q 0.098778,0 0.2257786,0.01764 0.1305282,0.01411 0.2434175,0.05644 0.1128892,0.03881 0.1905006,0.105834 0.077611,0.0635 0.077611,0.158751 0,0.05644 -0.03175,0.09525 -0.03175,0.03881 -0.1023059,0.03881 -0.052917,0 -0.1093615,-0.02117 -0.052917,-0.02117 -0.1234727,-0.04233 -0.067028,-0.02469 -0.1587505,-0.04586 -0.088195,-0.02117 -0.2081396,-0.02117 -0.2328341,0 -0.3457234,0.08467 -0.1093615,0.08114 -0.1093615,0.225779 0,0.09878 0.049389,0.165806 0.049389,0.06703 0.1305282,0.116417 0.084667,0.04586 0.1869729,0.07761 0.1058336,0.03175 0.2151951,0.05997 0.1234727,0.03175 0.2434175,0.07761 0.1234727,0.04586 0.218723,0.119945 0.09525,0.07408 0.151695,0.186973 0.059972,0.112889 0.059972,0.285751 0,0.179917 -0.067028,0.324557 -0.067028,0.141111 -0.1834451,0.243417 -0.1164171,0.09878 -0.2786954,0.155223 -0.1622783,0.05292 -0.352779,0.05292 -0.1058337,0 -0.2469453,-0.02117 -0.1411115,-0.01764 -0.268112,-0.0635 Q 8.4168098,63.296103 8.328615,63.218492 8.24042,63.137352 8.24042,63.020936 q 0,-0.07056 0.035278,-0.112889 0.038806,-0.04233 0.1128893,-0.04233 0.059972,0 0.098778,0.0247 0.038806,0.02117 0.067028,0.04939 0.1058337,0.09172 0.2398897,0.123473 0.134056,0.03175 0.2751676,0.03175 0.081139,0 0.1693339,-0.01058 0.091723,-0.01411 0.1658061,-0.05292 0.074084,-0.0388 0.1234727,-0.109361 0.049389,-0.07408 0.049389,-0.197556 0,-0.11289 -0.045861,-0.183445 -0.042333,-0.07408 -0.1164171,-0.123473 -0.074084,-0.04939 -0.1763895,-0.08114 -0.098778,-0.03175 -0.2151952,-0.0635 Q 8.8930613,62.237775 8.7660609,62.195445 8.6390604,62.153115 8.5402823,62.082556 8.4415043,62.008476 8.378004,61.899111 8.318032,61.786222 8.318032,61.61336 q 0,-0.172862 0.0635,-0.30339 0.0635,-0.130528 0.1728617,-0.218723 0.1093615,-0.08819 0.2575286,-0.134056 0.151695,-0.04586 0.3245567,-0.04586 z"
       style="font-style:normal;font-variant:normal;font-weight:normal;font-stretch:normal;font-size:3.52778983px;font-family:Sniglet;-inkscape-font-specification:'Sniglet, Normal';font-variant-ligatures:normal;font-variant-caps:normal;font-variant-numeric:normal;font-feature-settings:normal;text-align:start;writing-mode:lr-tb;text-anchor:start;stroke-width:0.26458424;fill:#232323;fill-opacity:1"
       id="path990"
       inkscape:connector-curvature="0" />
    <path
       d="m 11.701293,61.257043 q -0.09878,0.0071 -0.211667,0.01058 -0.109362,0.0035 -0.243418,0.0071 0.0035,0.09525 0.0071,0.179917 0.0035,0.08114 0.0071,0.165807 0.0035,0.08467 0.0035,0.176389 0.0035,0.09172 0.0035,0.204612 0,0.15875 0,0.306918 0,0.144639 -0.0035,0.292806 -0.0035,0.144639 -0.0071,0.292807 -0.0035,0.148167 -0.01058,0.306917 -0.0035,0.08467 -0.01764,0.130529 -0.01058,0.04586 -0.03175,0.07055 -0.02117,0.0247 -0.04939,0.02822 -0.02822,0.0071 -0.0635,0.0071 -0.0635,0 -0.109362,-0.04233 -0.04233,-0.04586 -0.04939,-0.190501 -0.0071,-0.127 -0.01058,-0.268112 0,-0.141111 -0.0035,-0.30339 -0.0035,-0.162278 -0.0035,-0.349251 0,-0.190501 0,-0.419807 0,-0.194028 0,-0.338668 0.0035,-0.144639 0.01058,-0.250473 h -0.14464 q -0.148167,0 -0.254001,-0.0035 -0.102306,-0.0035 -0.169334,-0.01764 -0.06703,-0.01764 -0.09878,-0.05292 -0.02822,-0.03528 -0.02822,-0.09878 0,-0.03175 0.0071,-0.05644 0.0071,-0.02822 0.03175,-0.04939 0.02469,-0.0247 0.06703,-0.03881 0.04586,-0.01411 0.116417,-0.02117 0.06703,-0.0035 0.119945,-0.0071 0.05292,-0.0035 0.105833,-0.0071 0.05292,-0.0035 0.109362,-0.0035 0.05644,0 0.130528,0 0.20814,0 0.391585,0.0035 0.186973,0.0035 0.395112,0.01411 0.08467,0.0071 0.130528,0.02117 0.04586,0.01058 0.07056,0.03175 0.02469,0.02117 0.02822,0.04939 0.0071,0.02822 0.0071,0.0635 0,0.0635 -0.04586,0.105834 -0.04233,0.04233 -0.186973,0.04939 z"
       style="font-style:normal;font-variant:normal;font-weight:normal;font-stretch:normal;font-size:3.52778983px;font-family:Sniglet;-inkscape-font-specification:'Sniglet, Normal';font-variant-ligatures:normal;font-variant-caps:normal;font-variant-numeric:normal;font-feature-settings:normal;text-align:start;writing-mode:lr-tb;text-anchor:start;stroke-width:0.26458424;fill:#232323;fill-opacity:1"
       id="path992"
       inkscape:connector-curvature="0" />
  </g>
  <g
     aria-label="-            +"
     style="font-style:normal;font-weight:normal;font-size:10.58336926px;line-height:1.25;font-family:sans-serif;letter-spacing:0px;word-spacing:0px;fill:#232323;fill-opacity:1;stroke:none;stroke-width:0.26458424"
     id="text979"
     transform="translate(0,-6.528464)">
    <path
       d="m 4.2749679,75.078706 q -0.1298227,0.0056 -0.2991566,0.01129 -0.169334,0.0028 -0.400757,0.0028 -0.095956,0 -0.1636894,-0.0028 -0.067734,-0.0028 -0.1100671,-0.01411 -0.042333,-0.01411 -0.062089,-0.04233 -0.019756,-0.02822 -0.019756,-0.07902 0,-0.0254 0.00564,-0.04515 0.00564,-0.02258 0.0254,-0.03951 0.019756,-0.01693 0.053622,-0.02822 0.036689,-0.01411 0.093134,-0.01976 0.042334,-0.0028 0.073378,-0.0056 0.033867,-0.0028 0.064911,-0.0028 0.031045,-0.0028 0.064911,-0.0028 0.036689,0 0.084667,0 0.1524005,0 0.2935121,0.0028 0.1411116,0 0.2935121,0.0085 0.067734,0.0056 0.1044226,0.01693 0.036689,0.0085 0.056445,0.0254 0.019756,0.01693 0.022578,0.03951 0.00564,0.02258 0.00564,0.0508 0,0.0508 -0.036689,0.08467 -0.033867,0.03387 -0.1495783,0.03951 z"
       style="font-style:normal;font-variant:normal;font-weight:normal;font-stretch:normal;font-size:2.82223201px;font-family:Sniglet;-inkscape-font-specification:'Sniglet, Normal';font-variant-ligatures:normal;font-variant-caps:normal;font-variant-numeric:normal;font-feature-settings:normal;text-align:start;writing-mode:lr-tb;text-anchor:start;stroke-width:0.26458424;fill:#232323;fill-opacity:1"
       id="path981"
       inkscape:connector-curvature="0" />
    <path
       d="m 12.677547,74.926305 q -0.06491,0.0056 -0.13829,0.0085 -0.07056,0 -0.155223,0.0028 v 0.127 q 0,0.09596 -0.0028,0.16369 -0.0028,0.06773 -0.01693,0.110067 -0.01129,0.04233 -0.03951,0.06209 -0.02822,0.01976 -0.07902,0.01976 -0.0254,0 -0.04798,-0.0056 -0.01975,-0.0056 -0.03669,-0.0254 -0.01693,-0.01976 -0.03104,-0.05362 -0.01129,-0.03669 -0.01693,-0.09313 -0.0028,-0.04233 -0.0056,-0.07338 -0.0028,-0.03387 -0.0056,-0.06773 0,-0.03387 0,-0.07055 0,-0.03951 0,-0.09031 -0.143934,0 -0.237067,-0.0028 -0.09031,-0.0028 -0.146756,-0.01411 -0.05362,-0.01411 -0.0762,-0.04233 -0.01975,-0.02822 -0.01975,-0.07902 0,-0.0254 0.0056,-0.04516 0.0056,-0.02258 0.0254,-0.03951 0.01976,-0.01693 0.05362,-0.02822 0.03669,-0.01411 0.09313,-0.01976 0.04233,-0.0028 0.07338,-0.0056 0.03387,-0.0028 0.06773,-0.0028 0.03387,-0.0028 0.07056,-0.0028 0.03951,0 0.09031,0 0.0028,-0.07338 0.0028,-0.143934 0.0028,-0.07338 0.0085,-0.146756 0.0028,-0.06773 0.01411,-0.104422 0.01129,-0.03669 0.02822,-0.05644 0.01693,-0.01976 0.03951,-0.02258 0.02258,-0.0056 0.0508,-0.0056 0.0508,0 0.08467,0.03669 0.03387,0.03387 0.03951,0.149578 0.0028,0.06491 0.0056,0.138289 0.0028,0.07338 0.0056,0.158045 0.141112,0 0.293512,0.0085 0.06773,0.0056 0.104423,0.01693 0.03669,0.0085 0.05645,0.0254 0.01975,0.01693 0.02258,0.03951 0.0056,0.02258 0.0056,0.0508 0,0.0508 -0.03669,0.08467 -0.03387,0.03387 -0.149578,0.03951 z"
       style="font-style:normal;font-variant:normal;font-weight:normal;font-stretch:normal;font-size:2.82223201px;font-family:Sniglet;-inkscape-font-specification:'Sniglet, Normal';font-variant-ligatures:normal;font-variant-caps:normal;font-variant-numeric:normal;font-feature-settings:normal;text-align:start;writing-mode:lr-tb;text-anchor:start;stroke-width:0.26458424;fill:#232323;fill-opacity:1"
       id="path983"
       inkscape:connector-curvature="0" />
  </g>
  <g
     aria-label="OFST2"
     style="font-style:normal;font-weight:normal;font-size:10.58336926px;line-height:1.25;font-family:sans-serif;letter-spacing:0px;word-spacing:0px;fill:#232323;fill-opacity:1;stroke:none;stroke-width:0.26458424"
     id="text881"
     transform="translate(0,-7.1084214)">
    <path
       d="m 4.0710264,83.10395 q -0.2116674,0 -0.3986402,-0.08467 -0.1834451,-0.08467 -0.3210289,-0.243417 -0.1375838,-0.162279 -0.218723,-0.395113 -0.077611,-0.232834 -0.077611,-0.529168 0,-0.278696 0.067028,-0.51153 0.070556,-0.232834 0.2046119,-0.402168 0.1375838,-0.169334 0.3386678,-0.261056 0.201084,-0.09525 0.4656682,-0.09525 0.2151952,0 0.4092237,0.07761 0.1940284,0.07761 0.3386678,0.232834 0.1481672,0.155223 0.2328341,0.388057 0.084667,0.232834 0.084667,0.543279 0,0.257529 -0.070556,0.490363 Q 5.0588076,82.546559 4.917696,82.722949 4.7801122,82.89581 4.5684448,83.001644 4.3567774,83.10395 4.0710264,83.10395 Z m 0.00706,-0.331612 q 0.1940284,0 0.3386678,-0.07761 0.1446394,-0.08114 0.2398897,-0.211667 0.09525,-0.130528 0.1411116,-0.299862 0.045861,-0.172862 0.045861,-0.352779 0,-0.218723 -0.059972,-0.388057 -0.056445,-0.172862 -0.1552228,-0.289279 -0.098778,-0.116417 -0.2293063,-0.176389 -0.1305283,-0.0635 -0.2786954,-0.0635 -0.1763895,0 -0.3104455,0.07408 -0.1305283,0.07408 -0.2222508,0.201084 -0.088195,0.127001 -0.134056,0.299862 -0.045861,0.169334 -0.045861,0.363363 0,0.208139 0.052917,0.381001 0.052917,0.169334 0.1411116,0.289279 0.091722,0.119945 0.2151951,0.186973 0.1234727,0.0635 0.2610565,0.0635 z"
       style="font-style:normal;font-variant:normal;font-weight:normal;font-stretch:normal;font-size:3.52778983px;font-family:Sniglet;-inkscape-font-specification:'Sniglet, Normal';font-variant-ligatures:normal;font-variant-caps:normal;font-variant-numeric:normal;font-feature-settings:normal;text-align:start;writing-mode:lr-tb;text-anchor:start;stroke-width:0.26458424;fill:#232323;fill-opacity:1"
       id="path884"
       inkscape:connector-curvature="0" />
    <path
       d="m 5.5509342,81.42825 q 0,-0.296334 0.021167,-0.462141 0.021167,-0.169333 0.088195,-0.254 0.067028,-0.08467 0.1905006,-0.102306 0.1234726,-0.02117 0.3245567,-0.02117 0.1128892,0 0.2046118,0 0.091723,0 0.1763895,0.0035 0.088195,0 0.1728617,0.0035 0.088195,0.0035 0.1905006,0.0071 0.084667,0.0071 0.1305282,0.02117 0.045861,0.01058 0.070556,0.03175 0.024695,0.02117 0.028222,0.04939 0.00706,0.02822 0.00706,0.0635 0,0.0635 -0.045861,0.105834 -0.042334,0.04233 -0.1869729,0.04939 -0.088195,0.0035 -0.1728617,0.0071 -0.081139,0.0035 -0.1869729,0.0071 -0.1023059,0 -0.2328341,0.0035 -0.1305282,0 -0.3139733,0 -0.0635,0 -0.088195,0.04586 -0.024694,0.04233 -0.024694,0.109362 0,0.05292 0,0.105833 0.00353,0.05292 0.00353,0.116417 0.00353,0.0635 0.00353,0.14464 0.00353,0.07761 0.00353,0.183445 0.1305282,0 0.2257786,0.0035 0.098778,0 0.1693339,0.0035 0.074084,0 0.1305282,0.0035 0.056445,0.0035 0.1093615,0.0071 0.1446394,0.0071 0.1869729,0.04939 0.045861,0.04233 0.045861,0.105834 0,0.03528 -0.00706,0.0635 -0.00353,0.02822 -0.028222,0.04939 -0.024694,0.02117 -0.070556,0.03528 -0.045861,0.01411 -0.1305282,0.02117 -0.056445,0.0035 -0.1093615,0.0071 -0.049389,0 -0.1199448,0.0035 -0.067028,0 -0.1622784,0 -0.09525,0 -0.2398897,0 -0.00353,0.211667 -0.00353,0.433918 0.00353,0.218723 -0.010583,0.451557 -0.00706,0.137584 -0.049389,0.169334 -0.038806,0.02822 -0.1199449,0.02822 -0.077611,0 -0.116417,-0.03175 -0.038806,-0.03528 -0.045861,-0.162278 -0.00706,-0.112889 -0.010583,-0.246945 0,-0.137584 -0.00353,-0.310446 -0.00353,-0.176389 -0.00353,-0.395112 0,-0.222251 0,-0.508002 z"
       style="font-style:normal;font-variant:normal;font-weight:normal;font-stretch:normal;font-size:3.52778983px;font-family:Sniglet;-inkscape-font-specification:'Sniglet, Normal';font-variant-ligatures:normal;font-variant-caps:normal;font-variant-numeric:normal;font-feature-settings:normal;text-align:start;writing-mode:lr-tb;text-anchor:start;stroke-width:0.26458424;fill:#232323;fill-opacity:1"
       id="path887"
       inkscape:connector-curvature="0" />
    <path
       d="m 8.1342686,80.578053 q 0.098778,0 0.2257786,0.01764 0.1305282,0.01411 0.2434175,0.05644 0.1128892,0.03881 0.1905006,0.105834 0.077611,0.0635 0.077611,0.15875 0,0.05644 -0.03175,0.09525 -0.03175,0.0388 -0.1023059,0.0388 -0.052917,0 -0.1093615,-0.02117 -0.052917,-0.02117 -0.1234727,-0.04233 -0.067028,-0.02469 -0.1587505,-0.04586 -0.088195,-0.02117 -0.2081396,-0.02117 -0.2328341,0 -0.3457234,0.08467 -0.1093615,0.08114 -0.1093615,0.225779 0,0.09878 0.049389,0.165806 0.049389,0.06703 0.1305282,0.116417 0.084667,0.04586 0.1869729,0.07761 0.1058337,0.03175 0.2151951,0.05997 0.1234727,0.03175 0.2434175,0.07761 0.1234727,0.04586 0.218723,0.119945 0.09525,0.07408 0.151695,0.186973 0.059972,0.112889 0.059972,0.285751 0,0.179917 -0.067028,0.324556 -0.067028,0.141112 -0.1834451,0.243418 -0.116417,0.09878 -0.2786954,0.155223 -0.1622783,0.05292 -0.352779,0.05292 -0.1058337,0 -0.2469452,-0.02117 -0.1411116,-0.01764 -0.2681121,-0.0635 -0.1270004,-0.04939 -0.2151952,-0.127001 -0.088195,-0.08114 -0.088195,-0.197556 0,-0.07056 0.035278,-0.112889 0.038806,-0.04233 0.1128893,-0.04233 0.059972,0 0.098778,0.02469 0.038806,0.02117 0.067028,0.04939 0.1058337,0.09172 0.2398897,0.123472 0.134056,0.03175 0.2751676,0.03175 0.081139,0 0.1693339,-0.01058 0.091723,-0.01411 0.1658061,-0.05292 0.074084,-0.03881 0.1234727,-0.109361 0.049389,-0.07408 0.049389,-0.197556 0,-0.11289 -0.045861,-0.183446 -0.042333,-0.07408 -0.1164171,-0.123472 -0.074084,-0.04939 -0.1763895,-0.08114 -0.098778,-0.03175 -0.2151952,-0.0635 -0.1305282,-0.03528 -0.2575286,-0.07761 -0.1270005,-0.04233 -0.2257786,-0.112889 -0.098778,-0.07408 -0.1622783,-0.183445 -0.059972,-0.11289 -0.059972,-0.285751 0,-0.172862 0.0635,-0.30339 0.0635,-0.130528 0.1728617,-0.218723 0.1093615,-0.08819 0.2575287,-0.134056 0.1516949,-0.04586 0.3245566,-0.04586 z"
       style="font-style:normal;font-variant:normal;font-weight:normal;font-stretch:normal;font-size:3.52778983px;font-family:Sniglet;-inkscape-font-specification:'Sniglet, Normal';font-variant-ligatures:normal;font-variant-caps:normal;font-variant-numeric:normal;font-feature-settings:normal;text-align:start;writing-mode:lr-tb;text-anchor:start;stroke-width:0.26458424;fill:#232323;fill-opacity:1"
       id="path889"
       inkscape:connector-curvature="0" />
    <path
       d="m 10.699082,80.923776 q -0.09878,0.0071 -0.211668,0.01058 -0.109361,0.0035 -0.243417,0.0071 0.0035,0.09525 0.0071,0.179917 0.0035,0.08114 0.0071,0.165806 0.0035,0.08467 0.0035,0.17639 0.0035,0.09172 0.0035,0.204612 0,0.15875 0,0.306917 0,0.14464 -0.0035,0.292807 -0.0035,0.144639 -0.0071,0.292806 -0.0035,0.148168 -0.01058,0.306918 -0.0035,0.08467 -0.01764,0.130528 -0.01058,0.04586 -0.03175,0.07056 -0.02117,0.02469 -0.04939,0.02822 -0.02822,0.0071 -0.0635,0.0071 -0.0635,0 -0.1093619,-0.04233 -0.042333,-0.04586 -0.049389,-0.190501 -0.00706,-0.127 -0.010583,-0.268112 0,-0.141112 -0.00353,-0.30339 -0.00353,-0.162278 -0.00353,-0.349251 0,-0.190501 0,-0.419807 0,-0.194029 0,-0.338668 0.00353,-0.144639 0.010583,-0.250473 h -0.144653 q -0.1481672,0 -0.2540009,-0.0035 -0.1023059,-0.0035 -0.1693339,-0.01764 -0.067028,-0.01764 -0.098778,-0.05292 -0.028222,-0.03528 -0.028222,-0.09878 0,-0.03175 0.00706,-0.05644 0.00706,-0.02822 0.03175,-0.04939 0.024694,-0.02469 0.067028,-0.03881 0.045861,-0.01411 0.1164171,-0.02117 0.067028,-0.0035 0.1199448,-0.0071 0.052917,-0.0035 0.1058337,-0.0071 0.052917,-0.0035 0.1093615,-0.0035 0.056445,0 0.1305282,0 0.2081404,0 0.3915854,0.0035 0.186972,0.0035 0.395112,0.01411 0.08467,0.0071 0.130528,0.02117 0.04586,0.01058 0.07056,0.03175 0.0247,0.02117 0.02822,0.04939 0.0071,0.02822 0.0071,0.0635 0,0.0635 -0.04586,0.105834 -0.04233,0.04233 -0.186973,0.04939 z"
       style="font-style:normal;font-variant:normal;font-weight:normal;font-stretch:normal;font-size:3.52778983px;font-family:Sniglet;-inkscape-font-specification:'Sniglet, Normal';font-variant-ligatures:normal;font-variant-caps:normal;font-variant-numeric:normal;font-feature-settings:normal;text-align:start;writing-mode:lr-tb;text-anchor:start;stroke-width:0.26458424;fill:#232323;fill-opacity:1"
       id="path891"
       inkscape:connector-curvature="0" />
    <path
       d="m 11.982922,80.937887 q -0.127001,0 -0.211668,0.02822 -0.08467,0.02469 -0.141111,0.06703 -0.05645,0.04233 -0.09172,0.08819 -0.03175,0.04586 -0.0635,0.08819 -0.02822,0.04233 -0.0635,0.07056 -0.03175,0.02469 -0.08114,0.02469 -0.08467,0 -0.119945,-0.04233 -0.03175,-0.04586 -0.03175,-0.119945 0,-0.155223 0.116417,-0.289279 0.03528,-0.04233 0.09525,-0.08819 0.0635,-0.04939 0.148167,-0.08819 0.08819,-0.03881 0.201084,-0.0635 0.116417,-0.02822 0.261057,-0.02822 0.384529,0 0.596196,0.186973 0.211668,0.186973 0.211668,0.525641 0,0.06703 -0.01411,0.148167 -0.01058,0.08114 -0.04586,0.169334 -0.03175,0.08819 -0.09172,0.183445 -0.05997,0.09525 -0.158751,0.194028 -0.0882,0.08819 -0.186973,0.162279 -0.09878,0.07408 -0.204612,0.148167 -0.105833,0.07408 -0.22225,0.15875 -0.11289,0.08114 -0.229307,0.186973 0.11289,0.05997 0.243418,0.07761 0.130528,0.01764 0.292806,0.01764 0.151695,0 0.243418,-0.0071 0.09172,-0.0071 0.148167,-0.01764 0.05645,-0.01058 0.08819,-0.01764 0.03175,-0.0071 0.06703,-0.0071 0.130528,0 0.130528,0.119945 0,0.105834 -0.0882,0.162279 -0.08819,0.05644 -0.211667,0.08467 -0.123473,0.02469 -0.254001,0.02822 -0.130528,0.0071 -0.215195,0.0071 -0.04586,0 -0.130528,-0.0071 -0.08114,-0.0035 -0.17639,-0.01764 -0.09525,-0.01411 -0.194028,-0.03881 -0.09525,-0.02822 -0.17639,-0.07056 -0.07761,-0.04586 -0.127,-0.109361 -0.04939,-0.06703 -0.04939,-0.158751 0,-0.123472 0.0882,-0.232834 0.09172,-0.112889 0.225778,-0.218723 0.134056,-0.109361 0.289279,-0.215195 0.155223,-0.109361 0.289279,-0.222251 0.134056,-0.116417 0.22225,-0.239889 0.09172,-0.123473 0.09172,-0.268112 0,-0.179918 -0.123473,-0.268112 -0.119945,-0.09172 -0.345723,-0.09172 z"
       style="font-style:normal;font-variant:normal;font-weight:normal;font-stretch:normal;font-size:3.52778983px;font-family:Sniglet;-inkscape-font-specification:'Sniglet, Normal';font-variant-ligatures:normal;font-variant-caps:normal;font-variant-numeric:normal;font-feature-settings:normal;text-align:start;writing-mode:lr-tb;text-anchor:start;stroke-width:0.26458424;fill:#232323;fill-opacity:1"
       id="path893"
       inkscape:connector-curvature="0" />
  </g>
  <path
     style="fill:none;stroke:#232323;stroke-width:0.13199998;stroke-opacity:1"
     inkscape:connector-curvature="0"
     id="path138-7"
     d="m 8.0293685,87.439874 v 2.175008"
     sodipodi:nodetypes="cc" />
  <g
     aria-label="x3"
     style="font-style:normal;font-weight:normal;font-size:10.58336926px;line-height:1.25;font-family:sans-serif;letter-spacing:0px;word-spacing:0px;fill:#232323;fill-opacity:1;stroke:none;stroke-width:0.26458424"
     id="text913"
     transform="translate(0,-0.99964971)">
    <path
       d="m 34.27188,89.852313 q -0.15875,0.165806 -0.271639,0.285751 -0.109362,0.116417 -0.186973,0.194028 -0.07761,0.07408 -0.130529,0.109362 -0.04939,0.03528 -0.09172,0.03528 -0.04939,0 -0.09878,-0.04233 -0.04586,-0.04233 -0.04586,-0.09172 0,-0.04233 0.05997,-0.127001 0.05997,-0.08819 0.148167,-0.194028 0.08819,-0.105834 0.190501,-0.218723 0.102306,-0.116417 0.186973,-0.218723 -0.11289,-0.130528 -0.215196,-0.254001 -0.09878,-0.123473 -0.172861,-0.229306 -0.07408,-0.105834 -0.119945,-0.186973 -0.04233,-0.08114 -0.04233,-0.127001 0,-0.04586 0.04586,-0.07761 0.04586,-0.03528 0.08467,-0.03528 0.03175,0 0.109361,0.07056 0.07761,0.06703 0.172862,0.165806 0.09878,0.09525 0.197556,0.204612 0.102306,0.109361 0.183445,0.194028 0.07761,-0.08467 0.172862,-0.1905 0.09878,-0.109362 0.194028,-0.204612 0.09525,-0.09525 0.17639,-0.162278 0.08114,-0.06703 0.127,-0.06703 0.03881,0 0.07761,0.02822 0.03881,0.02822 0.03881,0.07408 0,0.04586 -0.04586,0.127001 -0.04233,0.08114 -0.116417,0.186973 -0.07408,0.105833 -0.17639,0.229306 -0.09878,0.123473 -0.211667,0.254001 0.08819,0.09878 0.190501,0.215195 0.102306,0.112889 0.1905,0.222251 0.08819,0.105834 0.14464,0.194028 0.05997,0.08467 0.05997,0.127001 0,0.04939 -0.04939,0.09172 -0.04586,0.04233 -0.09525,0.04233 -0.04586,0 -0.123473,-0.05644 -0.07408,-0.05997 -0.169334,-0.148167 -0.09172,-0.09172 -0.194028,-0.201084 -0.09878,-0.112889 -0.194029,-0.218723 z"
       style="font-style:normal;font-variant:normal;font-weight:normal;font-stretch:normal;font-size:3.52778983px;font-family:Sniglet;-inkscape-font-specification:'Sniglet, Normal';font-variant-ligatures:normal;font-variant-caps:normal;font-variant-numeric:normal;font-feature-settings:normal;text-align:start;writing-mode:lr-tb;text-anchor:start;stroke-width:0.26458424;fill:#232323;fill-opacity:1"
       id="path929"
       inkscape:connector-curvature="0" />
    <path
       d="m 35.611944,88.349474 q -0.112889,0 -0.165806,-0.05644 -0.05292,-0.05997 -0.05292,-0.119945 0,-0.0635 0.05997,-0.102306 0.05997,-0.04233 0.15875,-0.0635 0.09878,-0.02469 0.225779,-0.03175 0.127,-0.01058 0.257529,-0.01058 0.109361,0 0.243417,0.01058 0.134056,0.0071 0.250473,0.04233 0.116417,0.03175 0.194029,0.09878 0.07761,0.0635 0.07761,0.17639 0,0.08819 -0.06703,0.183445 -0.06703,0.09525 -0.155223,0.179917 -0.08819,0.08467 -0.176389,0.151695 -0.08467,0.0635 -0.123473,0.09172 0.373946,0 0.54328,0.186973 0.169334,0.186972 0.169334,0.536224 0,0.218723 -0.08114,0.381001 -0.07761,0.162278 -0.211668,0.27164 -0.130528,0.105833 -0.30339,0.15875 -0.169334,0.05292 -0.349251,0.05292 -0.148167,0 -0.292807,-0.02469 -0.141111,-0.02469 -0.254,-0.08467 -0.11289,-0.0635 -0.183445,-0.165806 -0.06703,-0.105834 -0.06703,-0.261057 0,-0.162278 0.176389,-0.162278 0.05292,0 0.08114,0.02822 0.03175,0.02469 0.05292,0.0635 0.0247,0.03528 0.04939,0.08114 0.0247,0.04586 0.07056,0.08467 0.04939,0.03528 0.127,0.0635 0.08114,0.02469 0.211668,0.02469 0.102306,0 0.201084,-0.02117 0.09878,-0.02469 0.176389,-0.07761 0.07761,-0.05292 0.123473,-0.141112 0.04939,-0.09172 0.04939,-0.225778 0,-0.261057 -0.109362,-0.370418 -0.105833,-0.109362 -0.299862,-0.109362 -0.04939,0 -0.09172,0.01764 -0.04233,0.01411 -0.08467,0.03528 -0.04233,0.01764 -0.08819,0.03528 -0.04586,0.01411 -0.102306,0.01411 -0.05644,0 -0.09878,-0.04939 -0.04233,-0.05292 -0.04233,-0.134056 0,-0.05644 0.05292,-0.130528 0.05645,-0.07408 0.151695,-0.169334 0.09878,-0.09525 0.236362,-0.208139 0.137584,-0.116418 0.306918,-0.250474 -0.03528,0 -0.08467,0 -0.04586,0 -0.09525,0.0035 -0.04586,0 -0.09172,0 -0.04586,0 -0.07761,0 -0.134056,0 -0.264584,0 -0.127001,-0.0035 -0.232835,-0.0035 z"
       style="font-style:normal;font-variant:normal;font-weight:normal;font-stretch:normal;font-size:3.52778983px;font-family:Sniglet;-inkscape-font-specification:'Sniglet, Normal';font-variant-ligatures:normal;font-variant-caps:normal;font-variant-numeric:normal;font-feature-settings:normal;text-align:start;writing-mode:lr-tb;text-anchor:start;stroke-width:0.26458424;fill:#232323;fill-opacity:1"
       id="path931"
       inkscape:connector-curvature="0" />
  </g>
  <g
     aria-label="TACT-G"
     style="font-style:normal;font-weight:normal;font-size:10.58336926px;line-height:1.25;font-family:sans-serif;letter-spacing:0px;word-spacing:0px;fill:#232323;fill-opacity:1;stroke:none;stroke-width:0.26458424"
     id="text878">
    <path
       d="m 13.880622,6.4890762 q -0.153106,0.010936 -0.328084,0.016404 -0.16951,0.00547 -0.377297,0.010936 0.0055,0.147638 0.01094,0.2788718 0.0055,0.1257657 0.01094,0.2569995 0.0055,0.1312337 0.0055,0.2734037 0.0055,0.1421699 0.0055,0.3171483 0,0.2460633 0,0.4757225 0,0.224191 -0.0055,0.4538501 -0.0055,0.2241911 -0.01094,0.4538502 -0.0055,0.2296591 -0.0164,0.4757225 -0.0055,0.1312337 -0.02734,0.2023187 -0.0164,0.071085 -0.04921,0.1093615 -0.03281,0.038277 -0.07655,0.043745 -0.04375,0.010936 -0.09843,0.010936 -0.09843,0 -0.16951,-0.065617 -0.06562,-0.071085 -0.07655,-0.295276 -0.01094,-0.1968506 -0.0164,-0.4155736 0,-0.218723 -0.0055,-0.4702544 -0.0055,-0.2515314 -0.0055,-0.5413394 0,-0.295276 0,-0.6507008 0,-0.3007441 0,-0.5249351 0.0055,-0.2241911 0.0164,-0.3882333 h -0.224191 q -0.229659,0 -0.393702,-0.00547 -0.158574,-0.00547 -0.262467,-0.02734 -0.103894,-0.02734 -0.153106,-0.082021 -0.04374,-0.054681 -0.04374,-0.1531061 0,-0.049213 0.01094,-0.087489 0.01094,-0.043745 0.04921,-0.076553 0.03828,-0.038276 0.103893,-0.060149 0.07109,-0.021872 0.180447,-0.032809 0.103893,-0.00547 0.185914,-0.010936 0.08202,-0.00547 0.164043,-0.010936 0.08202,-0.00547 0.16951,-0.00547 0.08749,0 0.202319,0 0.322616,0 0.606956,0.00547 0.289808,0.00547 0.612424,0.021872 0.131234,0.010936 0.202319,0.032809 0.07109,0.016404 0.109362,0.049213 0.03828,0.032808 0.04374,0.076553 0.01094,0.043745 0.01094,0.098425 0,0.098425 -0.07109,0.1640423 -0.06562,0.065617 -0.289808,0.076553 z"
       style="font-style:normal;font-variant:normal;font-weight:normal;font-stretch:normal;font-size:5.46807432px;font-family:Sniglet;-inkscape-font-specification:'Sniglet, Normal';font-variant-ligatures:normal;font-variant-caps:normal;font-variant-numeric:normal;font-feature-settings:normal;text-align:start;writing-mode:lr-tb;text-anchor:start;stroke-width:0.26458424;fill:#232323;fill-opacity:1"
       id="path880" />
    <path
       d="m 16.586465,9.5347936 q -0.05468,-0.1312338 -0.120298,-0.3007441 -0.06015,-0.1749784 -0.131234,-0.366361 -0.164042,0.00547 -0.344488,0.010936 -0.180447,0 -0.366361,0 -0.235127,0 -0.42651,0 -0.191383,0 -0.349957,-0.00547 -0.06562,0.1913826 -0.125765,0.3608929 -0.06015,0.1695103 -0.11483,0.3007441 -0.109362,0.2788718 -0.317148,0.2788718 -0.07655,0 -0.147638,-0.049213 -0.06562,-0.049213 -0.06562,-0.1421699 0,-0.092957 0.03281,-0.2405953 0.03281,-0.1531061 0.08202,-0.3226164 0.05468,-0.1749783 0.11483,-0.3554248 0.06015,-0.1859145 0.114829,-0.3444887 0.05468,-0.1749784 0.153107,-0.442914 0.103893,-0.2734037 0.218722,-0.5686797 0.11483,-0.295276 0.22966,-0.5796159 0.114829,-0.2898079 0.207786,-0.5030628 0.02187,-0.054681 0.05468,-0.1202977 0.03281,-0.071085 0.07655,-0.1312338 0.04921,-0.060149 0.103894,-0.1038934 0.06015,-0.043745 0.131233,-0.043745 0.07109,0 0.131234,0.049213 0.06015,0.043745 0.103894,0.1093615 0.04921,0.065617 0.08202,0.1367018 0.03828,0.071085 0.06015,0.1257658 0.08749,0.2187229 0.19685,0.5030628 0.11483,0.2843399 0.224191,0.5741478 0.11483,0.2898079 0.213255,0.5522755 0.09843,0.2624676 0.158574,0.442914 0.04921,0.1585742 0.109362,0.3390206 0.06562,0.1804465 0.120297,0.3554249 0.05468,0.1749783 0.08749,0.3280844 0.03828,0.147638 0.03828,0.2405953 0,0.092957 -0.07109,0.1421699 -0.06562,0.049213 -0.14217,0.049213 -0.09842,0 -0.180446,-0.065617 -0.08202,-0.071085 -0.14217,-0.2132549 z M 15.618616,8.3318172 q 0.131233,0 0.262467,0.00547 0.131234,0 0.262468,0.00547 -0.06562,-0.1913826 -0.131234,-0.3827652 -0.06562,-0.1913826 -0.125766,-0.366361 -0.05468,-0.1749784 -0.103893,-0.3226164 -0.04374,-0.1531061 -0.07655,-0.2679356 -0.02187,-0.071085 -0.04921,-0.1148296 -0.02734,-0.043745 -0.07108,-0.043745 -0.04374,0 -0.07109,0.049213 -0.02734,0.043745 -0.04921,0.1148296 -0.06562,0.224191 -0.185915,0.5850839 -0.114829,0.3554248 -0.246063,0.7491262 0.147638,-0.00547 0.295276,-0.00547 0.147638,-0.00547 0.289808,-0.00547 z"
       style="font-style:normal;font-variant:normal;font-weight:normal;font-stretch:normal;font-size:5.46807432px;font-family:Sniglet;-inkscape-font-specification:'Sniglet, Normal';font-variant-ligatures:normal;font-variant-caps:normal;font-variant-numeric:normal;font-feature-settings:normal;text-align:start;writing-mode:lr-tb;text-anchor:start;stroke-width:0.26458424;fill:#232323;fill-opacity:1"
       id="path882" />
    <path
       d="m 19.015742,5.9422688 q 0.180446,0 0.360893,0.032808 0.185914,0.02734 0.333552,0.092957 0.147638,0.060149 0.240596,0.1531061 0.09842,0.087489 0.09842,0.2077868 0,0.1257657 -0.06562,0.1913826 -0.06562,0.065617 -0.164042,0.065617 -0.09296,0 -0.164042,-0.02734 -0.07109,-0.032808 -0.164043,-0.071085 -0.08749,-0.038277 -0.213254,-0.065617 -0.125766,-0.032808 -0.333553,-0.032808 -0.207787,0 -0.399169,0.1093615 -0.185915,0.1038934 -0.328085,0.295276 -0.136702,0.1859145 -0.218723,0.442914 -0.08202,0.2569995 -0.08202,0.5577436 0,0.3718291 0.09296,0.6397647 0.09843,0.2679356 0.251532,0.442914 0.153106,0.1695103 0.344488,0.2569995 0.196851,0.082021 0.393702,0.082021 0.235127,0 0.393701,-0.049213 0.158574,-0.049213 0.267936,-0.1093615 0.114829,-0.060149 0.19685,-0.1093615 0.08202,-0.049213 0.158575,-0.049213 0.09296,0 0.147638,0.054681 0.05468,0.049213 0.05468,0.1804464 0,0.1093615 -0.08749,0.2241911 -0.08202,0.1093614 -0.246063,0.2023187 -0.158574,0.087489 -0.382765,0.147638 -0.224191,0.054681 -0.503063,0.054681 -0.306212,0 -0.612425,-0.1202977 Q 18.086169,9.6222828 17.845574,9.3871556 17.610447,9.1465603 17.462809,8.7911355 17.315171,8.4302426 17.315171,7.9545201 q 0,-0.4757224 0.131234,-0.8475515 0.136702,-0.3718291 0.366361,-0.6288285 0.235127,-0.2624676 0.541339,-0.3991695 0.31168,-0.1367018 0.661637,-0.1367018 z"
       style="font-style:normal;font-variant:normal;font-weight:normal;font-stretch:normal;font-size:5.46807432px;font-family:Sniglet;-inkscape-font-specification:'Sniglet, Normal';font-variant-ligatures:normal;font-variant-caps:normal;font-variant-numeric:normal;font-feature-settings:normal;text-align:start;writing-mode:lr-tb;text-anchor:start;stroke-width:0.26458424;fill:#232323;fill-opacity:1"
       id="path885" />
    <path
       d="m 22.723524,6.4890762 q -0.153106,0.010936 -0.328085,0.016404 -0.16951,0.00547 -0.377297,0.010936 0.0055,0.147638 0.01094,0.2788718 0.0055,0.1257657 0.01094,0.2569995 0.0055,0.1312337 0.0055,0.2734037 0.0055,0.1421699 0.0055,0.3171483 0,0.2460633 0,0.4757225 0,0.224191 -0.0055,0.4538501 -0.0055,0.2241911 -0.01094,0.4538502 -0.0055,0.2296591 -0.0164,0.4757225 -0.0055,0.1312337 -0.02734,0.2023187 -0.0164,0.071085 -0.04921,0.1093615 -0.03281,0.038277 -0.07655,0.043745 -0.04375,0.010936 -0.09842,0.010936 -0.09843,0 -0.169511,-0.065617 -0.06562,-0.071085 -0.07655,-0.295276 -0.01094,-0.1968506 -0.0164,-0.4155736 0,-0.218723 -0.0055,-0.4702544 -0.0055,-0.2515314 -0.0055,-0.5413394 0,-0.295276 0,-0.6507008 0,-0.3007441 0,-0.5249351 0.0055,-0.2241911 0.0164,-0.3882333 H 21.28542 q -0.229659,0 -0.393701,-0.00547 -0.158574,-0.00547 -0.262468,-0.02734 -0.103893,-0.02734 -0.153106,-0.082021 -0.04374,-0.054681 -0.04374,-0.1531061 0,-0.049213 0.01094,-0.087489 0.01094,-0.043745 0.04921,-0.076553 0.03828,-0.038276 0.103894,-0.060149 0.07109,-0.021872 0.180446,-0.032809 0.103894,-0.00547 0.185915,-0.010936 0.08202,-0.00547 0.164042,-0.010936 0.08202,-0.00547 0.16951,-0.00547 0.08749,0 0.202319,0 0.322616,0 0.606956,0.00547 0.289808,0.00547 0.612425,0.021872 0.131233,0.010936 0.202318,0.032809 0.07109,0.016404 0.109362,0.049213 0.03828,0.032808 0.04374,0.076553 0.01094,0.043745 0.01094,0.098425 0,0.098425 -0.07109,0.1640423 -0.06562,0.065617 -0.289808,0.076553 z"
       style="font-style:normal;font-variant:normal;font-weight:normal;font-stretch:normal;font-size:5.46807432px;font-family:Sniglet;-inkscape-font-specification:'Sniglet, Normal';font-variant-ligatures:normal;font-variant-caps:normal;font-variant-numeric:normal;font-feature-settings:normal;text-align:start;writing-mode:lr-tb;text-anchor:start;stroke-width:0.26458424;fill:#232323;fill-opacity:1"
       id="path890" />
    <path
       d="m 25.402453,8.4466468 q -0.251532,0.010936 -0.579616,0.021872 -0.328084,0.00547 -0.776467,0.00547 -0.185914,0 -0.317148,-0.00547 -0.131234,-0.00547 -0.213255,-0.02734 -0.08202,-0.02734 -0.120297,-0.082021 -0.03828,-0.054681 -0.03828,-0.1531061 0,-0.049213 0.01094,-0.087489 0.01094,-0.043745 0.04921,-0.076553 0.03828,-0.032808 0.103893,-0.054681 0.07109,-0.02734 0.180447,-0.038277 0.08202,-0.00547 0.14217,-0.010936 0.06562,-0.00547 0.125765,-0.00547 0.06015,-0.00547 0.125766,-0.00547 0.07109,0 0.164042,0 0.295276,0 0.56868,0.00547 0.273404,0 0.56868,0.016404 0.131234,0.010936 0.202319,0.032808 0.07109,0.016404 0.109361,0.049213 0.03828,0.032808 0.04375,0.076553 0.01094,0.043745 0.01094,0.098425 0,0.098425 -0.07109,0.1640423 -0.06562,0.065617 -0.289808,0.076553 z"
       style="font-style:normal;font-variant:normal;font-weight:normal;font-stretch:normal;font-size:5.46807432px;font-family:Sniglet;-inkscape-font-specification:'Sniglet, Normal';font-variant-ligatures:normal;font-variant-caps:normal;font-variant-numeric:normal;font-feature-settings:normal;text-align:start;writing-mode:lr-tb;text-anchor:start;stroke-width:0.26458424;fill:#232323;fill-opacity:1"
       id="path892" />
    <path
       d="m 27.871118,5.9422688 q 0.180446,0 0.371829,0.032808 0.191383,0.032808 0.349957,0.098425 0.158574,0.060149 0.262467,0.153106 0.103894,0.092957 0.103894,0.2132549 0,0.1257657 -0.06562,0.1913826 -0.06562,0.065617 -0.164042,0.065617 -0.09296,0 -0.174979,-0.032808 -0.07655,-0.032808 -0.174978,-0.071085 -0.09842,-0.038277 -0.235127,-0.071085 -0.136702,-0.032808 -0.344489,-0.032808 -0.229659,0 -0.431978,0.1093615 -0.196851,0.1038934 -0.349957,0.295276 -0.153106,0.1859145 -0.240595,0.442914 -0.08749,0.2569995 -0.08749,0.5577436 0,0.366361 0.09296,0.6342966 0.09296,0.2679357 0.240595,0.442914 0.153107,0.1749784 0.339021,0.2624676 0.191383,0.082021 0.382765,0.082021 0.31168,0 0.492127,-0.087489 0.185914,-0.092957 0.295276,-0.2351272 0.0055,-0.1148295 0.0055,-0.2734037 0,-0.1585741 0,-0.3444887 0,-0.071085 -0.01094,-0.1093614 -0.01094,-0.043745 -0.05468,-0.065617 -0.04374,-0.021872 -0.131234,-0.02734 -0.08202,-0.00547 -0.224191,-0.00547 -0.174978,0 -0.28434,-0.043745 -0.109361,-0.049213 -0.109361,-0.2023187 0,-0.1093615 0.05468,-0.1749784 0.06015,-0.071085 0.240595,-0.082021 0.03281,0 0.103893,0 0.07655,-0.00547 0.158575,-0.00547 0.08749,0 0.16951,0 0.08202,0 0.131234,0 0.164042,0 0.262467,0.032808 0.09843,0.02734 0.174979,0.1312337 0.03828,0.054681 0.04374,0.1913826 0.01094,0.1367019 0.01094,0.3171483 v 1.4107632 q 0,0.147638 -0.08202,0.218723 -0.07655,0.071085 -0.180446,0.071085 -0.125766,0 -0.207787,-0.065616 -0.07655,-0.060149 -0.07655,-0.1968507 V 9.5566659 q -0.14217,0.1640422 -0.339021,0.2351272 -0.191382,0.071085 -0.486658,0.071085 -0.300744,0 -0.590552,-0.1202977 Q 26.821248,9.6222828 26.597057,9.3871556 26.372866,9.1465603 26.230696,8.7911355 26.093994,8.4302426 26.093994,7.9545201 q 0,-0.4757224 0.136702,-0.8475515 0.14217,-0.3718291 0.382765,-0.6288285 0.240595,-0.2624676 0.563212,-0.3991695 0.322616,-0.1367018 0.694445,-0.1367018 z"
       style="font-style:normal;font-variant:normal;font-weight:normal;font-stretch:normal;font-size:5.46807432px;font-family:Sniglet;-inkscape-font-specification:'Sniglet, Normal';font-variant-ligatures:normal;font-variant-caps:normal;font-variant-numeric:normal;font-feature-settings:normal;text-align:start;writing-mode:lr-tb;text-anchor:start;stroke-width:0.26458424;fill:#232323;fill-opacity:1"
       id="path894" />
  </g>
</svg>
