<?xml version="1.0" encoding="UTF-8" standalone="no"?>
<svg
   xmlns:dc="http://purl.org/dc/elements/1.1/"
   xmlns:cc="http://creativecommons.org/ns#"
   xmlns:rdf="http://www.w3.org/1999/02/22-rdf-syntax-ns#"
   xmlns:svg="http://www.w3.org/2000/svg"
   xmlns="http://www.w3.org/2000/svg"
   xmlns:xlink="http://www.w3.org/1999/xlink"
   xmlns:sodipodi="http://sodipodi.sourceforge.net/DTD/sodipodi-0.dtd"
   xmlns:inkscape="http://www.inkscape.org/namespaces/inkscape"
   width="12.192mm"
   height="12.192mm"
   viewBox="0 0 12.192001 12.192001"
   version="1.1"
   id="svg27"
   sodipodi:docname="BlackKnobLargeEffects.svg"
   inkscape:version="0.92.2 (5c3e80d, 2017-08-06)">
  <metadata
     id="metadata31">
    <rdf:RDF>
      <cc:Work
         rdf:about="">
        <dc:format>image/svg+xml</dc:format>
        <dc:type
           rdf:resource="http://purl.org/dc/dcmitype/StillImage" />
        <dc:title></dc:title>
      </cc:Work>
    </rdf:RDF>
  </metadata>
  <sodipodi:namedview
     pagecolor="#ffffff"
     bordercolor="#666666"
     borderopacity="1"
     objecttolerance="10"
     gridtolerance="10"
     guidetolerance="10"
     inkscape:pageopacity="0"
     inkscape:pageshadow="2"
     inkscape:window-width="1920"
     inkscape:window-height="1017"
     id="namedview29"
     showgrid="false"
     inkscape:document-units="mm"
     units="mm"
     inkscape:zoom="6.5555556"
     inkscape:cx="18"
     inkscape:cy="18"
     inkscape:window-x="-8"
     inkscape:window-y="-8"
     inkscape:window-maximized="1"
     inkscape:current-layer="svg27" />
  <defs
     id="defs11">
    <linearGradient
       id="a">
      <stop
         offset="0"
         stop-color="#fff"
         id="stop2" />
      <stop
         offset="1"
         stop-color="#fff"
         stop-opacity="0"
         id="stop4" />
    </linearGradient>
    <linearGradient
       xlink:href="#a"
       id="b"
       x1="18"
       y1="3"
       x2="28"
       y2="7"
       gradientUnits="userSpaceOnUse"
       gradientTransform="matrix(0.2394705,0.2394705,-0.2394705,0.2394705,6.0964027,-2.5248156)" />
    <linearGradient
       gradientTransform="matrix(-0.2394705,-0.2394705,-0.2394705,0.2394705,14.717489,6.0955367)"
       xlink:href="#a"
       id="c"
       x1="18"
       y1="3"
       x2="28"
       y2="7"
       gradientUnits="userSpaceOnUse" />
    <linearGradient
       xlink:href="#a"
       id="d"
       gradientUnits="userSpaceOnUse"
       x1="18"
       y1="3"
       x2="28"
       y2="7"
       gradientTransform="matrix(0.16158721,0.16158721,0.16158721,-0.16158721,0.26368002,6.1120009)" />
    <linearGradient
       xlink:href="#a"
       id="e"
       gradientUnits="userSpaceOnUse"
       gradientTransform="matrix(-0.16158272,-0.16158272,0.16158272,-0.16158272,6.0801825,11.928416)"
       x1="18"
       y1="3"
       x2="28"
       y2="7" />
  </defs>
  <path
     d="M 9.8833891,2.3091358 9.5284938,2.6640311 A 4.8537098,4.8537098 0 0 1 10.94568,6.2345362 l 0.49762,0.013889 A 5.3556076,5.3556076 0 0 0 9.8833891,2.3091358 Z"
     id="path13"
     inkscape:connector-curvature="0"
     style="fill:url(#b);stroke-width:0.26458001" />
  <path
     d="m 9.8842716,2.3086119 -0.354798,0.354798 A 4.8537604,4.8537604 0 0 0 5.958867,1.2469335 L 5.9443855,0.74913018 A 5.3555204,5.3555204 0 0 1 9.8842716,2.3086119 Z"
     id="path15"
     inkscape:connector-curvature="0"
     style="fill:url(#c);stroke-width:1" />
  <path
     d="M 3.5254794,8.667341 3.7649517,8.4278688 a 3.2751318,3.2751318 0 0 0 2.4092654,0.9562731 l 0.00937,0.3357776 A 3.6137968,3.6137968 0 0 1 3.5254794,8.667341 Z"
     id="path17"
     inkscape:connector-curvature="0"
     style="fill:url(#d);stroke-width:0.17853032" />
  <path
     d="M 3.524955,8.6672035 3.7643549,8.4278037 A 3.2750748,3.2750748 0 0 1 2.8085875,6.0185368 L 2.4726947,6.0087704 A 3.6136374,3.6136374 0 0 0 3.524955,8.6672085 Z"
     id="path19"
     inkscape:connector-curvature="0"
     style="fill:url(#e);stroke-width:0.67474997" />
  <path
     d="M 6.0953605,6.0838409 8.7859207,4.1856007 a 3.2972803,3.2972803 0 0 0 -0.8396801,-0.82944 z"
     id="path21"
     inkscape:connector-curvature="0"
     style="fill:#b1b1b1;stroke-width:1" />
  <path
     d="m 6.0953605,6.0953609 0.5248,3.2422402 A 3.2972803,3.2972803 0 0 0 9.3388807,6.6662409 Z m 0,0 L 5.5705604,2.8544006 A 3.2972803,3.2972803 0 0 0 2.8544002,5.5257608 Z"
     id="path23"
     inkscape:connector-curvature="0"
     style="fill:#3c3c3c;stroke-width:1" />
  <path
     d="M 6.0953605,6.0953609 3.4060803,7.994881 a 3.2972803,3.2972803 0 0 0 0.83968,0.8294401 z"
     id="path25"
     inkscape:connector-curvature="0"
     style="fill:#b1b1b1;stroke-width:1" />
</svg>
