<?xml version="1.0" encoding="UTF-8" standalone="no"?>
<svg
   xmlns:dc="http://purl.org/dc/elements/1.1/"
   xmlns:cc="http://creativecommons.org/ns#"
   xmlns:rdf="http://www.w3.org/1999/02/22-rdf-syntax-ns#"
   xmlns:svg="http://www.w3.org/2000/svg"
   xmlns="http://www.w3.org/2000/svg"
   xmlns:sodipodi="http://sodipodi.sourceforge.net/DTD/sodipodi-0.dtd"
   xmlns:inkscape="http://www.inkscape.org/namespaces/inkscape"
   width="12.192mm"
   height="12.192mm"
   viewBox="0 0 12.192001 12.192001"
   version="1.1"
   id="svg8"
   sodipodi:docname="BlackKnobLarge.svg"
   inkscape:version="0.92.2 (5c3e80d, 2017-08-06)">
  <metadata
     id="metadata14">
    <rdf:RDF>
      <cc:Work
         rdf:about="">
        <dc:format>image/svg+xml</dc:format>
        <dc:type
           rdf:resource="http://purl.org/dc/dcmitype/StillImage" />
        <dc:title></dc:title>
      </cc:Work>
    </rdf:RDF>
  </metadata>
  <defs
     id="defs12" />
  <sodipodi:namedview
     pagecolor="#ffffff"
     bordercolor="#666666"
     borderopacity="1"
     objecttolerance="10"
     gridtolerance="10"
     guidetolerance="10"
     inkscape:pageopacity="0"
     inkscape:pageshadow="2"
     inkscape:window-width="1920"
     inkscape:window-height="1017"
     id="namedview10"
     showgrid="false"
     inkscape:document-units="mm"
     units="mm"
     inkscape:zoom="13.111111"
     inkscape:cx="22.805949"
     inkscape:cy="25.04469"
     inkscape:window-x="-8"
     inkscape:window-y="-8"
     inkscape:window-maximized="1"
     inkscape:current-layer="svg8" />
  <g
     transform="matrix(1.2641209,0,0,1.2641208,-290.79319,-155.7056)"
     id="g6"
     style="stroke-width:0.79106361">
    <path
       d="m 239.594,127.492 c -0.21,-0.339 -0.561,-0.671 -0.757,-1.145 -0.196,-0.472 -0.183,-0.955 -0.273,-1.34 a 4.779,4.779 0 0 0 -0.717,-0.717 c -0.386,-0.09 -0.868,-0.078 -1.34,-0.273 -0.474,-0.197 -0.807,-0.548 -1.145,-0.757 a 4.781,4.781 0 0 0 -1.007,0 c -0.338,0.21 -0.671,0.56 -1.145,0.757 -0.472,0.195 -0.954,0.183 -1.34,0.273 a 4.777,4.777 0 0 0 -0.717,0.716 c -0.09,0.386 -0.078,0.869 -0.274,1.341 -0.195,0.474 -0.547,0.806 -0.756,1.145 a 4.781,4.781 0 0 0 0,1.007 c 0.209,0.338 0.56,0.67 0.756,1.144 0.196,0.472 0.184,0.955 0.274,1.34 0.213,0.265 0.453,0.505 0.717,0.718 0.386,0.09 0.868,0.077 1.34,0.273 0.474,0.196 0.807,0.548 1.145,0.757 a 4.857,4.857 0 0 0 1.007,0 c 0.338,-0.21 0.67,-0.56 1.144,-0.757 0.473,-0.196 0.955,-0.183 1.341,-0.273 0.264,-0.213 0.504,-0.453 0.717,-0.717 0.09,-0.386 0.077,-0.869 0.273,-1.34 0.196,-0.474 0.548,-0.807 0.757,-1.145 a 4.883,4.883 0 0 0 0,-1.007"
       id="path2"
       inkscape:connector-curvature="0"
       style="fill-rule:evenodd;stroke:#4f4f4f;stroke-width:0.12103273;stroke-linecap:round;stroke-linejoin:round" />
    <circle
       cx="234.858"
       cy="127.995"
       r="2.576"
       id="circle4"
       style="fill:#717171;stroke-width:0.79106361" />
  </g>
</svg>
