<?xml version="1.0" encoding="UTF-8" standalone="no"?>
<svg
   xmlns:dc="http://purl.org/dc/elements/1.1/"
   xmlns:cc="http://creativecommons.org/ns#"
   xmlns:rdf="http://www.w3.org/1999/02/22-rdf-syntax-ns#"
   xmlns:svg="http://www.w3.org/2000/svg"
   xmlns="http://www.w3.org/2000/svg"
   xmlns:sodipodi="http://sodipodi.sourceforge.net/DTD/sodipodi-0.dtd"
   xmlns:inkscape="http://www.inkscape.org/namespaces/inkscape"
   width="12.192mm"
   height="12.192mm"
   viewBox="0 0 12.192001 12.192001"
   version="1.1"
   id="svg10"
   sodipodi:docname="BlackKnobLargeWithMark.svg"
   inkscape:version="0.92.2 (5c3e80d, 2017-08-06)">
  <metadata
     id="metadata16">
    <rdf:RDF>
      <cc:Work
         rdf:about="">
        <dc:format>image/svg+xml</dc:format>
        <dc:type
           rdf:resource="http://purl.org/dc/dcmitype/StillImage" />
        <dc:title></dc:title>
      </cc:Work>
    </rdf:RDF>
  </metadata>
  <defs
     id="defs14" />
  <sodipodi:namedview
     pagecolor="#ffffff"
     bordercolor="#666666"
     borderopacity="1"
     objecttolerance="10"
     gridtolerance="10"
     guidetolerance="10"
     inkscape:pageopacity="0"
     inkscape:pageshadow="2"
     inkscape:window-width="1920"
     inkscape:window-height="1017"
     id="namedview12"
     showgrid="false"
     inkscape:document-units="mm"
     units="mm"
     inkscape:zoom="9.2709556"
     inkscape:cx="33.887812"
     inkscape:cy="31.981246"
     inkscape:window-x="-8"
     inkscape:window-y="-8"
     inkscape:window-maximized="1"
     inkscape:current-layer="svg10" />
  <path
     style="fill-rule:evenodd;stroke:#4f4f4f;stroke-width:0.153;stroke-linecap:round;stroke-linejoin:round"
     inkscape:connector-curvature="0"
     id="path2"
     d="M 12.082623,5.4635311 C 11.817158,5.0352397 11.373451,4.6157922 11.125683,4.0169423 10.877916,3.4206193 10.894349,2.8103988 10.780578,2.3239913 A 6.0412338,6.0377709 0 0 0 9.8742037,1.4181361 C 9.386253,1.3044305 8.7769468,1.3195912 8.1802817,1.0732289 7.5810884,0.82433987 7.1601361,0.38088776 6.7328633,0.11683794 a 6.043762,6.0402977 0 0 0 -1.2729698,0 C 5.0326207,0.38215116 4.6116684,0.82433987 4.0124751,1.0732289 3.41581,1.3195912 2.8065038,1.3044305 2.3185531,1.4181361 A 6.0387055,6.0352441 0 0 0 1.4121784,2.3227279 C 1.2984075,2.8103988 1.313577,3.4206193 1.0658093,4.0169423 0.8193057,4.6157922 0.37433514,5.0352397 0.11013387,5.4635311 a 6.043762,6.0402977 0 0 0 0,1.2722401 C 0.37433514,7.1627991 0.81804157,7.5822467 1.0658093,8.1810965 1.313577,8.7774196 1.2984075,9.38764 1.4121784,9.8740476 c 0.2692577,0.3348004 0.5726468,0.6380154 0.9063747,0.9071184 0.4879507,0.113706 1.0972569,0.09728 1.693922,0.344907 0.5991933,0.247626 1.0201456,0.692341 1.4474184,0.956391 a 6.1398352,6.1363158 0 0 0 1.2729698,0 c 0.4272728,-0.265313 0.846961,-0.707502 1.4461543,-0.956391 0.5979292,-0.247625 1.2072354,-0.231201 1.6951861,-0.344907 0.3337283,-0.269103 0.6371173,-0.572318 0.9063743,-0.905855 0.113771,-0.487671 0.09734,-1.0978914 0.345105,-1.6929511 0.247768,-0.5988498 0.692739,-1.0195608 0.95694,-1.4465887 a 6.1727024,6.1691641 0 0 0 0,-1.2722401" />
  <ellipse
     style="fill:#717171;stroke-width:1"
     id="circle4"
     cy="6.0990229"
     cx="6.0957484"
     rx="3.2563753"
     ry="3.2545087" />
  <rect
     style="fill:#e7e7e7;stroke:#2b2b2b;stroke-width:0.106;stroke-linejoin:round"
     id="rect6"
     ry="0.15800001"
     y="0.045656774"
     x="5.702601"
     height="2.7546322"
     width="0.7749061"
     rx="0.27500001" />
</svg>
