<?xml version="1.0" encoding="UTF-8" standalone="no"?>
<!-- Created with Inkscape (http://www.inkscape.org/) -->

<svg
   xmlns:dc="http://purl.org/dc/elements/1.1/"
   xmlns:cc="http://creativecommons.org/ns#"
   xmlns:rdf="http://www.w3.org/1999/02/22-rdf-syntax-ns#"
   xmlns:svg="http://www.w3.org/2000/svg"
   xmlns="http://www.w3.org/2000/svg"
   xmlns:sodipodi="http://sodipodi.sourceforge.net/DTD/sodipodi-0.dtd"
   xmlns:inkscape="http://www.inkscape.org/namespaces/inkscape"
   width="8.1280003mm"
   height="8.1280003mm"
   viewBox="0 0 8.1279997 8.1280003"
   version="1.1"
   id="svg111794"
   inkscape:version="0.92.2 (5c3e80d, 2017-08-06)"
   sodipodi:docname="RoundSmallBlackKnob.svg">
  <defs
     id="defs111788" />
  <sodipodi:namedview
     id="base"
     pagecolor="#ffffff"
     bordercolor="#666666"
     borderopacity="1.0"
     inkscape:pageopacity="0.0"
     inkscape:pageshadow="2"
     inkscape:zoom="63.356768"
     inkscape:cx="10.154017"
     inkscape:cy="25.777488"
     inkscape:document-units="mm"
     inkscape:current-layer="layer1"
     showgrid="false"
     fit-margin-top="0"
     fit-margin-left="0"
     fit-margin-right="0"
     fit-margin-bottom="0"
     inkscape:window-width="1920"
     inkscape:window-height="1017"
     inkscape:window-x="-8"
     inkscape:window-y="-8"
     inkscape:window-maximized="1"
     inkscape:snap-object-midpoints="true"
     inkscape:snap-global="false"
     inkscape:snap-page="true" />
  <metadata
     id="metadata111791">
    <rdf:RDF>
      <cc:Work
         rdf:about="">
        <dc:format>image/svg+xml</dc:format>
        <dc:type
           rdf:resource="http://purl.org/dc/dcmitype/StillImage" />
        <dc:title></dc:title>
      </cc:Work>
    </rdf:RDF>
  </metadata>
  <g
     inkscape:label="Layer 1"
     inkscape:groupmode="layer"
     id="layer1"
     transform="translate(-168.09312,-67.268112)"
     style="display:inline">
    <path
       inkscape:connector-curvature="0"
       id="path6449"
       style="display:inline;fill:#000000;fill-opacity:1;fill-rule:evenodd;stroke:#4f4f4f;stroke-width:0.12869287;stroke-linecap:round;stroke-linejoin:round;stroke-miterlimit:4;stroke-dasharray:none;stroke-opacity:1"
       d="m 176.13408,70.909474 c -0.17554,-0.284183 -0.47107,-0.563697 -0.6355,-0.96142 -0.16443,-0.396386 -0.15354,-0.801876 -0.22953,-1.125831 -0.17888,-0.221527 -0.38019,-0.422605 -0.60194,-0.60169 -0.3242,-0.07575 -0.72928,-0.06509 -1.12612,-0.229521 -0.39774,-0.164866 -0.67727,-0.459715 -0.96102,-0.635465 -0.13888,-0.0147 -0.27998,-0.02309 -0.42263,-0.02309 -0.1431,0 -0.2842,0.0085 -0.42285,0.02309 -0.28419,0.17575 -0.56373,0.470599 -0.96147,0.635465 -0.3964,0.164422 -0.80148,0.153756 -1.12589,0.229521 -0.22153,0.179085 -0.42308,0.380163 -0.60172,0.60169 -0.076,0.323955 -0.0653,0.729445 -0.22998,1.125831 -0.16443,0.397723 -0.45974,0.677237 -0.63506,0.96142 -0.0147,0.138867 -0.0229,0.279959 -0.0229,0.422605 0,0.142873 0.008,0.283956 0.0229,0.423268 0.17532,0.283738 0.47063,0.563252 0.63506,0.960974 0.16465,0.396386 0.15398,0.801885 0.22998,1.125613 0.17864,0.221746 0.38019,0.42305 0.60172,0.601916 0.32441,0.076 0.72949,0.06509 1.12589,0.229295 0.39774,0.165094 0.67728,0.46016 0.96147,0.635692 0.13865,0.01444 0.27975,0.02293 0.42285,0.02293 0.14265,0 0.28375,-0.0085 0.42263,-0.02293 0.28375,-0.175532 0.56328,-0.470598 0.96102,-0.635692 0.39684,-0.164194 0.80192,-0.153311 1.12612,-0.229295 0.22175,-0.178866 0.42306,-0.38017 0.60194,-0.601916 0.076,-0.323728 0.0651,-0.729227 0.22953,-1.125613 0.16443,-0.397722 0.45996,-0.677236 0.6355,-0.960974 0.0144,-0.139312 0.0227,-0.280395 0.0227,-0.423268 0,-0.142646 -0.008,-0.283738 -0.0227,-0.422605" />
    <rect
       rx="0.23169038"
       style="display:inline;opacity:1;fill:#e7e7e7;fill-opacity:1;stroke:#2b2b2b;stroke-width:0.08887225;stroke-linecap:butt;stroke-linejoin:round;stroke-miterlimit:4;stroke-dasharray:none;stroke-dashoffset:0;stroke-opacity:1"
       id="rect1546-9"
       width="0.51518959"
       height="1.8197091"
       x="171.89545"
       y="67.319344"
       ry="0.13252623" />
    <ellipse
       style="display:inline;opacity:1;fill:#717171;fill-opacity:1;stroke:none;stroke-width:0.05895557;stroke-miterlimit:4;stroke-dasharray:none;stroke-opacity:1"
       id="path6739"
       cx="172.15706"
       cy="71.332146"
       rx="2.1632385"
       ry="2.1631258" />
  </g>
</svg>
