<?xml version="1.0" encoding="UTF-8" standalone="no"?>
<svg
   xmlns:dc="http://purl.org/dc/elements/1.1/"
   xmlns:cc="http://creativecommons.org/ns#"
   xmlns:rdf="http://www.w3.org/1999/02/22-rdf-syntax-ns#"
   xmlns:svg="http://www.w3.org/2000/svg"
   xmlns="http://www.w3.org/2000/svg"
   xmlns:xlink="http://www.w3.org/1999/xlink"
   xmlns:sodipodi="http://sodipodi.sourceforge.net/DTD/sodipodi-0.dtd"
   xmlns:inkscape="http://www.inkscape.org/namespaces/inkscape"
   width="9.4826698mm"
   height="9.4826698mm"
   viewBox="0 0 9.4826698 9.4826698"
   version="1.1"
   id="svg1353"
   sodipodi:docname="RoundMediumBlackKnobEffects.svg"
   inkscape:version="0.92.2 (5c3e80d, 2017-08-06)">
  <metadata
     id="metadata1357">
    <rdf:RDF>
      <cc:Work
         rdf:about="">
        <dc:format>image/svg+xml</dc:format>
        <dc:type
           rdf:resource="http://purl.org/dc/dcmitype/StillImage" />
        <dc:title></dc:title>
      </cc:Work>
    </rdf:RDF>
  </metadata>
  <sodipodi:namedview
     pagecolor="#ffffff"
     bordercolor="#666666"
     borderopacity="1"
     objecttolerance="10"
     gridtolerance="10"
     guidetolerance="10"
     inkscape:pageopacity="0"
     inkscape:pageshadow="2"
     inkscape:window-width="1920"
     inkscape:window-height="1017"
     id="namedview1355"
     showgrid="false"
     inkscape:snap-object-midpoints="true"
     inkscape:snap-global="false"
     inkscape:zoom="23.638889"
     inkscape:cx="9.5236135"
     inkscape:cy="16.307873"
     inkscape:window-x="-8"
     inkscape:window-y="-8"
     inkscape:window-maximized="1"
     inkscape:current-layer="svg1353"
     inkscape:document-units="mm"
     units="mm" />
  <defs
     id="defs1337">
    <linearGradient
       id="a">
      <stop
         offset="0"
         stop-color="#fff"
         id="stop1328" />
      <stop
         offset="1"
         stop-color="#fff"
         stop-opacity="0"
         id="stop1330" />
    </linearGradient>
    <linearGradient
       xlink:href="#a"
       id="b"
       x1="18"
       y1="3"
       x2="28"
       y2="7"
       gradientUnits="userSpaceOnUse"
       gradientTransform="matrix(0.18365882,0.18365882,-0.18365882,0.18365882,4.7528533,-1.8435308)" />
    <linearGradient
       gradientTransform="matrix(-0.18365882,-0.18365882,-0.18365882,0.18365882,11.364685,4.7677379)"
       xlink:href="#a"
       id="c"
       x1="18"
       y1="3"
       x2="28"
       y2="7"
       gradientUnits="userSpaceOnUse" />
    <linearGradient
       xlink:href="#a"
       id="d"
       gradientUnits="userSpaceOnUse"
       x1="18"
       y1="3"
       x2="28"
       y2="7"
       gradientTransform="matrix(0.12392724,0.12392724,0.12392724,-0.12392724,0.27952149,4.780365)" />
    <linearGradient
       xlink:href="#a"
       id="e"
       gradientUnits="userSpaceOnUse"
       gradientTransform="matrix(-0.12392379,-0.12392379,0.12392379,-0.12392379,4.7404135,9.2411905)"
       x1="18"
       y1="3"
       x2="28"
       y2="7" />
  </defs>
  <path
     d="M 7.6572342,1.8638064 7.3850517,2.1359888 A 3.7224907,3.7224907 0 0 1 8.4719447,4.874342 L 8.8535876,4.885004 A 4.1074146,4.1074146 0 0 0 7.6572342,1.8638064 Z"
     id="path1339"
     inkscape:connector-curvature="0"
     style="fill:url(#b);stroke-width:0.26458004" />
  <path
     d="M 7.6579111,1.8634046 7.3858033,2.1355122 A 3.7225293,3.7225293 0 0 0 4.6473721,1.0491638 l -0.011098,-0.381784 a 4.1073478,4.1073478 0 0 1 3.0216421,1.1960248 z"
     id="path1341"
     inkscape:connector-curvature="0"
     style="fill:url(#c);stroke-width:1" />
  <path
     d="M 2.7811169,6.7401506 2.964777,6.5564902 a 2.5118202,2.5118202 0 0 0 1.8477552,0.7334014 l 0.00719,0.2575207 A 2.7715551,2.7715551 0 0 1 2.7811169,6.7401506 Z"
     id="path1343"
     inkscape:connector-curvature="0"
     style="fill:url(#d);stroke-width:0.17853032" />
  <path
     d="M 2.7807147,6.740045 2.9643192,6.5564403 A 2.5117767,2.5117767 0 0 1 2.2313056,4.7086839 L 1.9736969,4.7011959 A 2.7714329,2.7714329 0 0 0 2.7807147,6.740051 Z"
     id="path1345"
     inkscape:connector-curvature="0"
     style="fill:url(#e);stroke-width:0.67475003" />
  <path
     d="M 4.7520541,4.7587679 6.8155449,3.3029372 A 2.5288069,2.5288069 0 0 0 6.1715629,2.6668088 Z"
     id="path1347"
     inkscape:connector-curvature="0"
     style="fill:#b1b1b1;stroke-width:1" />
  <path
     d="M 4.7520541,4.7676031 5.1545428,7.2541979 A 2.5288069,2.5288069 0 0 0 7.2396305,5.2054323 Z m 0,0 L 4.3495655,2.2819902 A 2.5288069,2.5288069 0 0 0 2.2664412,4.3307557 Z"
     id="path1349"
     inkscape:connector-curvature="0"
     style="fill:#3c3c3c;stroke-width:1" />
  <path
     d="M 4.7520541,4.7676031 2.6895452,6.2244158 a 2.5288069,2.5288069 0 0 0 0.6439817,0.6361284 z"
     id="path1351"
     inkscape:connector-curvature="0"
     style="fill:#b1b1b1;stroke-width:1" />
</svg>
