<?xml version="1.0" encoding="UTF-8" standalone="no"?>
<svg
   width="86.360001mm"
   height="128.5mm"
   viewBox="0 0 86.360321 128.50044"
   version="1.1"
   id="svg82"
   sodipodi:docname="BigButtonSeq.svg"
   inkscape:version="1.1 (c68e22c387, 2021-05-23)"
   xmlns:inkscape="http://www.inkscape.org/namespaces/inkscape"
   xmlns:sodipodi="http://sodipodi.sourceforge.net/DTD/sodipodi-0.dtd"
   xmlns="http://www.w3.org/2000/svg"
   xmlns:svg="http://www.w3.org/2000/svg"
   xmlns:rdf="http://www.w3.org/1999/02/22-rdf-syntax-ns#"
   xmlns:cc="http://creativecommons.org/ns#"
   xmlns:dc="http://purl.org/dc/elements/1.1/">
  <metadata
     id="metadata88">
    <rdf:RDF>
      <cc:Work
         rdf:about="">
        <dc:format>image/svg+xml</dc:format>
        <dc:type
           rdf:resource="http://purl.org/dc/dcmitype/StillImage" />
      </cc:Work>
    </rdf:RDF>
  </metadata>
  <defs
     id="defs86" />
  <sodipodi:namedview
     pagecolor="#ffffff"
     bordercolor="#666666"
     borderopacity="1"
     objecttolerance="10"
     gridtolerance="10"
     guidetolerance="10"
     inkscape:pageopacity="0"
     inkscape:pageshadow="2"
     inkscape:window-width="1271"
     inkscape:window-height="1080"
     id="namedview84"
     showgrid="false"
     inkscape:document-units="mm"
     units="mm"
     inkscape:zoom="14.998411"
     inkscape:cx="162.28386"
     inkscape:cy="348.23689"
     inkscape:window-x="569"
     inkscape:window-y="1094"
     inkscape:window-maximized="0"
     inkscape:current-layer="svg82"
     inkscape:pagecheckerboard="0" />
  <rect
     rx="2.3399999"
     ry="2.3399999"
     y="11.319818"
     x="2.7097197"
     height="15.783445"
     width="80.93959"
     id="rect4"
     style="fill:#afafaf;stroke-width:1;paint-order:stroke markers fill;fill-opacity:1" />
  <g
     word-spacing="0"
     letter-spacing="0"
     font-weight="400"
     id="g14"
     style="font-weight:400;letter-spacing:0;word-spacing:0;fill:#232323;stroke-width:0.78126168;fill-opacity:1"
     transform="matrix(1.2799809,0,0,1.2799809,0,-0.09505041)">
    <g
       style="line-height:1.25;stroke-width:0.78126168;fill:#232323;fill-opacity:1"
       id="g8">
      <path
         aria-label="♫"
         font-size="3.528"
         d="m 42.202,96.87 -1.63,0.115 v -2.06 q 0,-0.23 0.065,-0.333 0.063,-0.104 0.22,-0.147 0.153,-0.043 0.347,-0.002 0.224,0.047 0.357,0.19 0.133,0.146 0.133,0.33 0,0.186 -0.158,0.286 -0.158,0.103 -0.407,0.05 -0.082,-0.018 -0.144,-0.044 -0.063,-0.027 -0.205,-0.11 V 96.49 L 42,96.405 v -1.554 q 0,-0.225 0.065,-0.337 0.065,-0.11 0.225,-0.151 0.16,-0.04 0.348,0 0.224,0.047 0.355,0.19 0.129,0.14 0.129,0.325 0,0.195 -0.156,0.294 -0.156,0.1 -0.407,0.047 -0.16,-0.034 -0.357,-0.16 z"
         style="font-size:3.52800012px;font-family:Arial;-inkscape-font-specification:'Arial, Normal';font-variant-ligatures:normal;font-variant-caps:normal;font-variant-numeric:normal;font-feature-settings:normal;text-align:start;stroke-width:0.78126168;fill:#232323;fill-opacity:1"
         id="path6"
         inkscape:connector-curvature="0" />
    </g>
    <g
       style="line-height:1.25;stroke-width:0.78126168;fill:#232323;fill-opacity:1"
       id="g12">
      <path
         font-size="3.528"
         aria-label="IMPROMPT"
         style="font-size:3.52800012px;font-family:Sniglet;-inkscape-font-specification:'Sniglet, Normal';font-variant-ligatures:normal;font-variant-caps:normal;font-variant-numeric:normal;font-feature-settings:normal;text-align:start;stroke-width:0.78126168;fill:#232323;fill-opacity:1"
         d="m 24.184,96.698 q -0.007,-0.127 -0.01,-0.265 0,-0.137 -0.004,-0.296 -0.004,-0.159 -0.004,-0.342 v -0.417 q 0,-0.25 0.004,-0.426 0.003,-0.18 0.02,-0.293 0.018,-0.113 0.054,-0.166 0.038,-0.053 0.102,-0.053 0.032,0 0.06,0.007 0.028,0.007 0.05,0.032 0.02,0.02 0.035,0.067 0.017,0.042 0.02,0.113 0.008,0.127 0.011,0.225 l 0.007,0.198 q 0.004,0.095 0.004,0.201 v 0.536 q 0,0.145 -0.004,0.286 l -0.007,0.286 q -0.003,0.144 -0.01,0.303 -0.004,0.085 -0.018,0.13 -0.014,0.047 -0.035,0.071 -0.021,0.025 -0.05,0.028 -0.028,0.007 -0.063,0.007 -0.064,0 -0.11,-0.042 -0.045,-0.046 -0.052,-0.19 z m 1.753,-0.381 q -0.162,-0.357 -0.289,-0.688 -0.123,-0.335 -0.211,-0.596 -0.082,0.437 -0.138,0.882 -0.053,0.444 -0.138,0.85 -0.02,0.092 -0.077,0.123 -0.057,0.028 -0.096,0.028 -0.063,0 -0.102,-0.038 -0.035,-0.04 -0.035,-0.1 0,-0.08 0.018,-0.246 0.02,-0.17 0.049,-0.381 0.032,-0.212 0.07,-0.445 l 0.078,-0.448 q 0.042,-0.218 0.078,-0.395 0.039,-0.176 0.067,-0.271 0.046,-0.163 0.187,-0.163 0.084,0 0.144,0.085 0.06,0.081 0.127,0.254 0.07,0.17 0.166,0.43 0.099,0.262 0.254,0.614 0.152,-0.352 0.244,-0.61 l 0.158,-0.43 q 0.067,-0.173 0.127,-0.254 0.06,-0.085 0.149,-0.085 0.08,0 0.123,0.042 0.042,0.039 0.063,0.12 0.025,0.099 0.06,0.275 0.036,0.173 0.075,0.388 0.042,0.212 0.08,0.445 0.04,0.233 0.071,0.444 0.032,0.212 0.05,0.385 0.02,0.17 0.02,0.261 0,0.056 -0.038,0.092 -0.039,0.031 -0.099,0.031 -0.039,0 -0.095,-0.028 -0.057,-0.032 -0.078,-0.123 -0.042,-0.201 -0.077,-0.417 l -0.064,-0.433 -0.056,-0.441 q -0.028,-0.223 -0.06,-0.441 -0.046,0.14 -0.106,0.31 -0.06,0.17 -0.127,0.342 -0.067,0.17 -0.138,0.335 -0.07,0.166 -0.137,0.3 -0.025,0.046 -0.067,0.07 -0.039,0.022 -0.081,0.022 -0.046,0 -0.089,-0.021 -0.038,-0.025 -0.06,-0.074 z m 2.005,0.377 q 0,0.085 -0.017,0.13 -0.014,0.047 -0.039,0.071 -0.021,0.025 -0.053,0.029 -0.028,0.007 -0.056,0.007 -0.096,0 -0.127,-0.043 -0.029,-0.042 -0.04,-0.19 -0.006,-0.078 -0.01,-0.226 l -0.007,-0.353 q 0,-0.204 -0.003,-0.451 v -0.522 q 0,-0.131 0.031,-0.265 0.032,-0.134 0.12,-0.243 0.092,-0.11 0.25,-0.177 0.163,-0.067 0.42,-0.067 0.18,0 0.343,0.039 0.162,0.039 0.286,0.134 0.123,0.095 0.197,0.254 0.074,0.159 0.074,0.395 0,0.247 -0.081,0.41 -0.081,0.162 -0.23,0.257 -0.147,0.095 -0.352,0.134 -0.205,0.039 -0.448,0.039 h -0.12 q -0.06,0 -0.134,-0.007 z m 1.016,-1.485 q 0,-0.236 -0.134,-0.356 -0.13,-0.12 -0.437,-0.12 -0.117,0 -0.201,0.021 -0.081,0.018 -0.134,0.067 -0.053,0.046 -0.081,0.127 -0.025,0.081 -0.025,0.205 v 0.275 q 0,0.151 0.003,0.286 0.082,0.004 0.18,0.004 h 0.19 q 0.107,0 0.22,-0.015 0.116,-0.014 0.208,-0.063 0.091,-0.053 0.151,-0.152 0.06,-0.102 0.06,-0.278 z m 1.452,0.84 -0.103,0.007 h -0.222 q -0.06,0 -0.134,-0.007 v 0.716 q 0,0.113 -0.056,0.14 -0.053,0.026 -0.135,0.026 -0.042,0 -0.067,-0.007 -0.024,-0.004 -0.042,-0.018 -0.014,-0.018 -0.025,-0.05 -0.007,-0.031 -0.01,-0.088 -0.007,-0.063 -0.01,-0.183 l -0.008,-0.318 q 0,-0.194 -0.003,-0.469 v -0.652 q 0,-0.145 0.035,-0.279 0.035,-0.138 0.127,-0.24 0.092,-0.106 0.247,-0.17 0.159,-0.063 0.402,-0.063 0.173,0 0.335,0.039 0.166,0.039 0.293,0.134 0.127,0.095 0.205,0.258 0.077,0.162 0.077,0.405 0,0.325 -0.14,0.505 -0.138,0.176 -0.382,0.25 l 0.473,0.65 q 0.063,0.084 0.063,0.172 0,0.07 -0.05,0.11 -0.045,0.042 -0.115,0.042 -0.078,0 -0.135,-0.042 -0.056,-0.046 -0.105,-0.117 z m 0.553,-0.822 q 0,-0.244 -0.148,-0.36 -0.144,-0.12 -0.462,-0.12 -0.116,0 -0.194,0.021 -0.077,0.018 -0.123,0.07 -0.046,0.054 -0.067,0.149 -0.018,0.091 -0.018,0.236 v 0.24 q 0,0.138 0.003,0.25 0.082,0.005 0.18,0.005 h 0.19 q 0.1,0 0.209,-0.011 0.113,-0.014 0.208,-0.064 0.095,-0.052 0.159,-0.148 0.063,-0.099 0.063,-0.268 z m 1.61,1.725 q -0.212,0 -0.399,-0.085 -0.183,-0.085 -0.32,-0.243 -0.139,-0.163 -0.22,-0.395 -0.077,-0.233 -0.077,-0.53 0,-0.278 0.067,-0.511 0.07,-0.233 0.204,-0.402 0.138,-0.17 0.339,-0.261 0.201,-0.096 0.466,-0.096 0.215,0 0.409,0.078 0.194,0.078 0.339,0.233 0.148,0.155 0.232,0.388 0.085,0.233 0.085,0.543 0,0.258 -0.07,0.49 -0.067,0.233 -0.209,0.41 -0.137,0.173 -0.349,0.278 -0.212,0.103 -0.497,0.103 z M 32.58,96.62 q 0.194,0 0.338,-0.077 0.145,-0.082 0.24,-0.212 0.096,-0.13 0.141,-0.3 0.046,-0.173 0.046,-0.353 0,-0.218 -0.06,-0.388 Q 33.229,95.117 33.13,95 33.031,94.885 32.9,94.825 q -0.13,-0.064 -0.278,-0.064 -0.176,0 -0.31,0.074 -0.13,0.074 -0.223,0.201 -0.088,0.127 -0.134,0.3 -0.045,0.17 -0.045,0.363 0,0.209 0.052,0.381 0.053,0.17 0.142,0.29 0.091,0.12 0.215,0.187 0.123,0.063 0.26,0.063 z m 2.384,-0.303 q -0.163,-0.357 -0.29,-0.688 -0.123,-0.335 -0.211,-0.596 -0.081,0.437 -0.138,0.882 -0.053,0.444 -0.137,0.85 -0.022,0.092 -0.078,0.123 -0.057,0.028 -0.095,0.028 -0.064,0 -0.103,-0.038 -0.035,-0.04 -0.035,-0.1 0,-0.08 0.018,-0.246 0.02,-0.17 0.05,-0.381 0.03,-0.212 0.07,-0.445 0.038,-0.232 0.077,-0.448 l 0.078,-0.395 q 0.039,-0.176 0.067,-0.271 0.046,-0.163 0.187,-0.163 0.085,0 0.145,0.085 0.06,0.081 0.127,0.254 0.07,0.17 0.165,0.43 0.1,0.262 0.254,0.614 0.152,-0.352 0.244,-0.61 l 0.158,-0.43 q 0.068,-0.173 0.127,-0.254 0.06,-0.085 0.149,-0.085 0.08,0 0.123,0.042 0.042,0.039 0.064,0.12 0.024,0.099 0.06,0.275 0.035,0.173 0.074,0.388 0.042,0.212 0.08,0.445 0.04,0.233 0.071,0.444 0.032,0.212 0.05,0.385 0.02,0.17 0.02,0.261 0,0.056 -0.038,0.092 -0.039,0.031 -0.099,0.031 -0.038,0 -0.095,-0.028 -0.056,-0.032 -0.078,-0.123 -0.042,-0.201 -0.077,-0.417 l -0.064,-0.433 -0.056,-0.441 q -0.028,-0.223 -0.06,-0.441 -0.046,0.14 -0.106,0.31 -0.06,0.17 -0.127,0.342 -0.067,0.17 -0.137,0.335 -0.071,0.166 -0.138,0.3 -0.025,0.046 -0.067,0.07 -0.039,0.022 -0.081,0.022 -0.046,0 -0.088,-0.021 -0.04,-0.025 -0.06,-0.074 z m 2.005,0.377 q 0,0.085 -0.018,0.13 -0.014,0.047 -0.039,0.071 -0.021,0.025 -0.053,0.029 -0.028,0.007 -0.056,0.007 -0.096,0 -0.127,-0.043 -0.028,-0.042 -0.04,-0.19 -0.006,-0.078 -0.01,-0.226 l -0.007,-0.353 q 0,-0.204 -0.003,-0.451 v -0.522 q 0,-0.131 0.032,-0.265 0.031,-0.134 0.12,-0.243 0.091,-0.11 0.25,-0.177 0.162,-0.067 0.42,-0.067 0.18,0 0.342,0.039 0.162,0.039 0.286,0.134 0.123,0.095 0.197,0.254 0.074,0.159 0.074,0.395 0,0.247 -0.08,0.41 -0.082,0.162 -0.23,0.257 -0.148,0.095 -0.353,0.134 -0.205,0.039 -0.448,0.039 h -0.12 q -0.06,0 -0.134,-0.007 z m 1.016,-1.485 q 0,-0.236 -0.135,-0.356 -0.13,-0.12 -0.437,-0.12 -0.116,0 -0.201,0.021 -0.081,0.018 -0.134,0.067 -0.053,0.046 -0.081,0.127 -0.025,0.081 -0.025,0.205 v 0.275 q 0,0.151 0.004,0.286 0.08,0.004 0.18,0.004 h 0.19 q 0.106,0 0.219,-0.015 0.116,-0.014 0.208,-0.063 0.092,-0.053 0.152,-0.152 0.06,-0.102 0.06,-0.278 z m 1.974,-0.437 q -0.1,0.007 -0.212,0.01 l -0.243,0.007 0.007,0.18 0.007,0.166 q 0.003,0.085 0.003,0.176 0.004,0.092 0.004,0.205 v 0.307 q 0,0.144 -0.004,0.293 l -0.007,0.292 q -0.003,0.149 -0.01,0.307 -0.004,0.085 -0.018,0.13 -0.01,0.047 -0.032,0.072 -0.02,0.024 -0.05,0.028 -0.027,0.007 -0.063,0.007 -0.063,0 -0.109,-0.043 -0.042,-0.045 -0.05,-0.19 -0.007,-0.127 -0.01,-0.268 0,-0.141 -0.003,-0.304 -0.004,-0.162 -0.004,-0.349 V 95.04 q 0.004,-0.145 0.01,-0.25 h -0.144 q -0.148,0 -0.254,-0.005 -0.102,-0.004 -0.17,-0.017 -0.066,-0.018 -0.098,-0.053 -0.028,-0.036 -0.028,-0.1 0,-0.03 0.007,-0.055 0.007,-0.029 0.031,-0.05 0.025,-0.025 0.067,-0.039 0.046,-0.014 0.117,-0.02 l 0.12,-0.008 0.106,-0.007 q 0.053,-0.004 0.109,-0.004 h 0.13 q 0.209,0 0.392,0.004 0.187,0.004 0.395,0.014 0.085,0.007 0.13,0.021 0.047,0.011 0.071,0.032 0.025,0.021 0.029,0.05 0.007,0.028 0.007,0.063 0,0.064 -0.046,0.106 -0.043,0.042 -0.187,0.05 z"
         id="path10"
         inkscape:connector-curvature="0" />
    </g>
  </g>
  <path
     d="m 31.303213,44.937238 h 3.889862"
     id="path16"
     inkscape:connector-curvature="0"
     style="fill:none;stroke:#232323;stroke-width:0.132;stroke-opacity:1" />
  <g
     style="line-height:1.25;-inkscape-font-specification:'Sniglet, Normal';font-variant-ligatures:normal;font-variant-caps:normal;font-variant-numeric:normal;font-feature-settings:normal;text-align:start;stroke-width:0.78126168;fill:#232323;fill-opacity:1"
     id="g20"
     transform="matrix(1.2799809,0,0,1.2799809,0,-0.09505041)">
    <path
       word-spacing="0"
       letter-spacing="0"
       font-size="4.233"
       font-weight="400"
       aria-label="BIG-BUTTON-SEQ"
       style="font-weight:400;font-size:4.2329998px;font-family:Sniglet;-inkscape-font-specification:'Sniglet, Normal';font-variant-ligatures:normal;font-variant-caps:normal;font-variant-numeric:normal;font-feature-settings:normal;text-align:start;letter-spacing:0;word-spacing:0;stroke-width:0.78126168;fill:#232323;fill-opacity:1"
       d="m 18.145,6.403 q -0.237,0 -0.38,-0.038 Q 17.62,6.327 17.54,6.26 17.464,6.188 17.434,6.086 17.409,5.984 17.396,5.857 17.383,5.709 17.375,5.468 17.371,5.222 17.371,4.96 V 4.693 q 0.004,-0.144 0.004,-0.28 l 0.008,-0.257 q 0.004,-0.119 0.013,-0.204 0.013,-0.13 0.042,-0.237 0.03,-0.105 0.11,-0.182 0.085,-0.076 0.233,-0.114 0.153,-0.042 0.402,-0.042 0.568,0 0.847,0.211 0.284,0.208 0.284,0.593 0,0.199 -0.09,0.368 -0.084,0.17 -0.296,0.254 0.119,0.022 0.216,0.09 0.098,0.067 0.165,0.164 0.072,0.093 0.106,0.212 0.038,0.114 0.038,0.233 0,0.152 -0.063,0.313 -0.064,0.157 -0.216,0.288 -0.152,0.131 -0.406,0.216 -0.25,0.085 -0.623,0.085 z M 19.03,5.489 Q 19.03,5.337 18.958,5.244 18.89,5.15 18.78,5.104 18.67,5.054 18.535,5.036 18.399,5.019 18.264,5.019 h -0.22 q -0.115,0 -0.212,0.004 l -0.009,0.182 -0.008,0.178 v 0.23 q 0,0.114 0.017,0.19 0.017,0.076 0.063,0.123 0.047,0.047 0.132,0.068 0.088,0.017 0.224,0.017 0.372,0 0.576,-0.132 0.203,-0.13 0.203,-0.39 z m -0.783,-1.71 q -0.14,0 -0.229,0.025 -0.084,0.021 -0.131,0.06 -0.042,0.038 -0.06,0.093 -0.012,0.055 -0.012,0.118 v 0.593 q 0.06,0.004 0.123,0.004 h 0.127 q 0.152,0 0.296,-0.021 0.148,-0.022 0.267,-0.072 0.118,-0.051 0.19,-0.14 Q 18.89,4.35 18.89,4.21 18.89,4.02 18.734,3.901 18.581,3.779 18.247,3.779 Z m 1.65,2.362 q -0.008,-0.152 -0.012,-0.317 0,-0.166 -0.004,-0.356 -0.004,-0.19 -0.004,-0.41 v -0.5 q 0,-0.3 0.004,-0.512 0.004,-0.216 0.025,-0.352 0.022,-0.135 0.064,-0.199 0.046,-0.063 0.123,-0.063 0.038,0 0.072,0.008 0.034,0.008 0.059,0.038 0.025,0.025 0.042,0.08 0.021,0.051 0.026,0.136 0.008,0.152 0.012,0.27 l 0.009,0.238 q 0.004,0.114 0.004,0.241 v 0.643 q 0,0.174 -0.004,0.343 L 20.304,5.772 Q 20.3,5.946 20.292,6.136 20.287,6.238 20.27,6.293 20.254,6.348 20.228,6.378 20.203,6.408 20.168,6.412 20.135,6.42 20.093,6.42 20.016,6.42 19.961,6.369 19.906,6.314 19.898,6.14 Z m 2.262,-2.735 q 0.14,0 0.288,0.026 0.148,0.025 0.27,0.076 0.124,0.047 0.204,0.118 0.08,0.072 0.08,0.166 0,0.097 -0.05,0.148 -0.051,0.05 -0.127,0.05 -0.072,0 -0.136,-0.025 L 22.553,3.91 Q 22.477,3.88 22.371,3.855 22.265,3.83 22.104,3.83 q -0.178,0 -0.334,0.084 -0.153,0.08 -0.271,0.229 -0.119,0.144 -0.187,0.343 -0.067,0.199 -0.067,0.432 0,0.283 0.072,0.49 0.072,0.208 0.186,0.344 0.118,0.135 0.262,0.203 0.149,0.063 0.297,0.063 0.241,0 0.38,-0.067 0.145,-0.072 0.23,-0.182 0.004,-0.09 0.004,-0.212 V 5.29 q 0,-0.055 -0.009,-0.084 Q 22.659,5.172 22.625,5.155 22.591,5.138 22.523,5.134 22.46,5.13 22.35,5.13 q -0.136,0 -0.22,-0.034 -0.085,-0.038 -0.085,-0.157 0,-0.085 0.042,-0.135 0.047,-0.055 0.186,-0.064 h 0.08 q 0.06,-0.004 0.124,-0.004 h 0.232 q 0.127,0 0.204,0.025 0.076,0.022 0.135,0.102 0.03,0.042 0.034,0.148 0.008,0.106 0.008,0.246 v 1.092 q 0,0.114 -0.063,0.17 -0.06,0.054 -0.14,0.054 -0.097,0 -0.16,-0.05 -0.06,-0.047 -0.06,-0.153 V 6.205 q -0.11,0.127 -0.262,0.182 -0.149,0.055 -0.377,0.055 -0.233,0 -0.457,-0.093 Q 21.346,6.256 21.173,6.074 20.999,5.888 20.889,5.612 20.783,5.333 20.783,4.965 q 0,-0.369 0.106,-0.656 0.11,-0.288 0.296,-0.487 0.187,-0.204 0.436,-0.31 0.25,-0.105 0.538,-0.105 z m 2.81,1.939 -0.449,0.017 q -0.254,0.004 -0.6,0.004 -0.145,0 -0.246,-0.004 Q 23.572,5.358 23.509,5.341 23.445,5.32 23.415,5.277 q -0.03,-0.042 -0.03,-0.118 0,-0.038 0.01,-0.068 0.008,-0.034 0.037,-0.06 0.03,-0.025 0.08,-0.041 0.056,-0.022 0.14,-0.03 l 0.11,-0.008 Q 23.813,4.948 23.86,4.948 23.907,4.944 23.957,4.944 h 0.127 q 0.229,0 0.44,0.004 0.212,0 0.44,0.013 0.102,0.008 0.158,0.025 0.055,0.013 0.084,0.038 0.03,0.026 0.034,0.06 0.009,0.033 0.009,0.076 0,0.076 -0.055,0.127 -0.051,0.05 -0.225,0.059 z m 1.395,1.058 q -0.237,0 -0.381,-0.038 Q 25.839,6.327 25.758,6.26 25.682,6.188 25.653,6.086 25.627,5.984 25.615,5.857 25.602,5.709 25.593,5.468 25.589,5.222 25.589,4.96 V 4.693 q 0.004,-0.144 0.004,-0.28 l 0.009,-0.257 q 0.004,-0.119 0.013,-0.204 0.012,-0.13 0.042,-0.237 0.03,-0.105 0.11,-0.182 0.085,-0.076 0.233,-0.114 0.152,-0.042 0.402,-0.042 0.567,0 0.847,0.211 0.283,0.208 0.283,0.593 0,0.199 -0.089,0.368 -0.084,0.17 -0.296,0.254 0.119,0.022 0.216,0.09 0.097,0.067 0.165,0.164 0.072,0.093 0.106,0.212 0.038,0.114 0.038,0.233 0,0.152 -0.064,0.313 -0.063,0.157 -0.215,0.288 -0.153,0.131 -0.407,0.216 -0.25,0.085 -0.622,0.085 z m 0.885,-0.914 q 0,-0.152 -0.072,-0.245 Q 27.109,5.15 26.999,5.104 26.889,5.054 26.753,5.036 26.618,5.019 26.483,5.019 h -0.22 q -0.115,0 -0.212,0.004 l -0.009,0.182 -0.008,0.178 v 0.23 q 0,0.114 0.016,0.19 0.017,0.076 0.064,0.123 0.047,0.047 0.131,0.068 0.09,0.017 0.225,0.017 0.372,0 0.575,-0.132 0.204,-0.13 0.204,-0.39 z m -0.784,-1.71 q -0.14,0 -0.228,0.025 -0.085,0.021 -0.131,0.06 -0.043,0.038 -0.06,0.093 -0.012,0.055 -0.012,0.118 v 0.593 q 0.059,0.004 0.122,0.004 h 0.127 q 0.153,0 0.297,-0.021 0.148,-0.022 0.266,-0.072 0.119,-0.051 0.19,-0.14 0.073,-0.089 0.073,-0.229 0,-0.19 -0.157,-0.309 Q 26.8,3.779 26.465,3.779 Z m 2.608,2.696 q -0.482,0 -0.707,-0.262 Q 28.277,6.111 28.214,5.955 28.154,5.794 28.117,5.54 28.083,5.286 28.066,4.913 28.053,4.537 28.053,3.999 q 0,-0.174 0.009,-0.284 0.008,-0.114 0.033,-0.177 0.026,-0.068 0.064,-0.094 0.042,-0.025 0.106,-0.025 0.123,0 0.173,0.11 0.051,0.11 0.051,0.381 0,0.093 -0.004,0.165 v 0.148 q 0,0.072 -0.004,0.161 V 4.6 q 0,0.423 0.025,0.703 0.03,0.28 0.097,0.449 0.068,0.165 0.183,0.232 0.118,0.068 0.292,0.068 0.182,0 0.3,-0.072 0.123,-0.076 0.195,-0.25 0.072,-0.177 0.102,-0.47 0.033,-0.292 0.033,-0.728 0,-0.19 -0.004,-0.326 V 3.961 q 0,-0.157 0.009,-0.263 0.012,-0.105 0.034,-0.165 0.025,-0.063 0.067,-0.089 0.043,-0.025 0.106,-0.025 0.064,0 0.106,0.025 0.042,0.026 0.068,0.09 0.025,0.063 0.034,0.177 0.008,0.11 0.008,0.288 0,0.745 -0.047,1.228 Q 30.043,5.705 29.924,5.984 29.806,6.26 29.598,6.37 29.395,6.475 29.073,6.475 Z M 32.287,3.83 q -0.118,0.008 -0.253,0.012 l -0.292,0.008 0.008,0.216 0.009,0.2 q 0.004,0.1 0.004,0.21 0.004,0.111 0.004,0.246 v 0.369 q 0,0.173 -0.004,0.351 l -0.009,0.351 q -0.004,0.178 -0.012,0.369 -0.005,0.101 -0.022,0.156 -0.012,0.055 -0.038,0.085 -0.025,0.03 -0.059,0.034 -0.034,0.008 -0.076,0.008 -0.076,0 -0.131,-0.05 Q 31.365,6.339 31.356,6.165 31.348,6.013 31.344,5.844 31.344,5.674 31.34,5.48 31.335,5.285 31.335,5.06 V 4.151 Q 31.34,3.977 31.348,3.85 H 31.174 Q 30.997,3.85 30.87,3.846 30.747,3.842 30.666,3.825 30.586,3.804 30.548,3.761 30.514,3.719 30.514,3.643 q 0,-0.038 0.009,-0.068 0.008,-0.034 0.038,-0.06 0.03,-0.029 0.08,-0.046 0.055,-0.017 0.14,-0.025 l 0.144,-0.008 0.127,-0.008 q 0.063,-0.004 0.13,-0.004 h 0.158 q 0.25,0 0.47,0.004 0.224,0.004 0.474,0.017 0.101,0.008 0.156,0.025 0.055,0.013 0.085,0.038 0.03,0.026 0.034,0.06 0.008,0.033 0.008,0.076 0,0.076 -0.055,0.127 -0.05,0.05 -0.224,0.059 z m 2.308,0 q -0.119,0.008 -0.254,0.012 l -0.293,0.008 0.009,0.216 0.008,0.2 q 0.005,0.1 0.005,0.21 0.004,0.111 0.004,0.246 v 0.369 q 0,0.173 -0.004,0.351 l -0.009,0.351 q -0.004,0.178 -0.013,0.369 -0.004,0.101 -0.02,0.156 -0.013,0.055 -0.039,0.085 -0.025,0.03 -0.059,0.034 -0.034,0.008 -0.076,0.008 -0.076,0 -0.131,-0.05 -0.051,-0.056 -0.06,-0.23 -0.008,-0.152 -0.012,-0.321 0,-0.17 -0.005,-0.364 Q 33.642,5.285 33.642,5.06 V 4.151 Q 33.646,3.977 33.655,3.85 H 33.481 Q 33.303,3.85 33.176,3.846 33.054,3.842 32.973,3.825 32.893,3.804 32.855,3.761 32.821,3.719 32.821,3.643 q 0,-0.038 0.008,-0.068 0.009,-0.034 0.038,-0.06 0.03,-0.029 0.08,-0.046 0.056,-0.017 0.14,-0.025 l 0.145,-0.008 0.127,-0.008 q 0.063,-0.004 0.13,-0.004 h 0.157 q 0.25,0 0.47,0.004 0.225,0.004 0.474,0.017 0.102,0.008 0.157,0.025 0.055,0.013 0.085,0.038 0.03,0.026 0.034,0.06 0.008,0.033 0.008,0.076 0,0.076 -0.055,0.127 -0.05,0.05 -0.224,0.059 z m 1.579,2.616 q -0.254,0 -0.478,-0.102 -0.22,-0.101 -0.385,-0.292 -0.165,-0.195 -0.263,-0.474 -0.093,-0.28 -0.093,-0.635 0,-0.334 0.08,-0.614 0.085,-0.28 0.246,-0.482 0.165,-0.204 0.406,-0.314 0.242,-0.114 0.56,-0.114 0.257,0 0.49,0.093 0.233,0.093 0.407,0.28 0.177,0.186 0.28,0.465 0.1,0.28 0.1,0.652 0,0.31 -0.084,0.589 -0.08,0.279 -0.25,0.49 -0.165,0.208 -0.419,0.335 -0.254,0.123 -0.597,0.123 z m 0.009,-0.398 q 0.233,0 0.406,-0.093 0.174,-0.098 0.288,-0.254 0.114,-0.157 0.17,-0.36 0.054,-0.207 0.054,-0.423 0,-0.263 -0.072,-0.466 Q 36.962,4.245 36.843,4.105 36.725,3.965 36.568,3.893 36.411,3.817 36.234,3.817 q -0.212,0 -0.373,0.089 -0.157,0.089 -0.267,0.241 -0.106,0.153 -0.16,0.36 -0.056,0.203 -0.056,0.436 0,0.25 0.064,0.457 0.063,0.203 0.17,0.347 0.11,0.144 0.257,0.225 0.149,0.076 0.314,0.076 z m 3.444,0.157 Q 39.491,6.018 39.368,5.836 L 39.11,5.43 Q 38.975,5.21 38.797,4.943 38.623,4.673 38.377,4.313 v 0.57 q 0,0.25 -0.004,0.466 l -0.008,0.407 q -0.004,0.19 -0.013,0.38 -0.004,0.102 -0.02,0.157 -0.014,0.055 -0.039,0.085 -0.025,0.03 -0.06,0.034 Q 38.204,6.42 38.162,6.42 38.086,6.42 38.035,6.37 37.984,6.314 37.975,6.14 37.955,5.675 37.95,5.21 V 4.24 q 0,-0.284 0.004,-0.445 0.009,-0.16 0.03,-0.24 0.025,-0.081 0.063,-0.103 0.043,-0.02 0.11,-0.02 0.068,0 0.178,0.105 0.11,0.102 0.242,0.271 0.13,0.17 0.279,0.39 0.152,0.22 0.3,0.452 0.149,0.233 0.284,0.462 l 0.254,0.415 Q 39.69,5.327 39.69,5.091 V 4.557 q 0,-0.334 0.004,-0.55 0.004,-0.22 0.021,-0.347 0.022,-0.127 0.064,-0.178 0.042,-0.05 0.118,-0.05 0.072,0 0.127,0.046 0.055,0.046 0.064,0.216 l 0.013,0.27 0.008,0.238 q 0.004,0.114 0.004,0.241 v 0.644 q 0,0.173 -0.004,0.342 l -0.008,0.343 q -0.005,0.174 -0.013,0.364 -0.004,0.102 -0.021,0.157 -0.013,0.055 -0.038,0.085 -0.026,0.03 -0.06,0.034 -0.03,0.008 -0.072,0.008 -0.072,0 -0.122,-0.043 -0.051,-0.042 -0.149,-0.173 z m 2.408,-0.86 -0.45,0.017 q -0.253,0.004 -0.6,0.004 -0.144,0 -0.246,-0.004 Q 40.638,5.358 40.574,5.341 40.511,5.32 40.481,5.277 q -0.03,-0.042 -0.03,-0.118 0,-0.038 0.009,-0.068 0.008,-0.034 0.038,-0.06 0.03,-0.025 0.08,-0.041 0.055,-0.022 0.14,-0.03 l 0.11,-0.008 q 0.051,-0.004 0.098,-0.004 0.046,-0.004 0.097,-0.004 h 0.127 q 0.229,0 0.44,0.004 0.212,0 0.44,0.013 0.102,0.008 0.157,0.025 0.055,0.013 0.085,0.038 0.03,0.026 0.034,0.06 0.008,0.033 0.008,0.076 0,0.076 -0.055,0.127 -0.05,0.05 -0.224,0.059 z m 1.652,-1.93 q 0.12,0 0.272,0.021 0.156,0.017 0.292,0.068 0.135,0.046 0.228,0.127 0.093,0.076 0.093,0.19 0,0.068 -0.038,0.114 -0.038,0.047 -0.122,0.047 -0.064,0 -0.132,-0.025 -0.063,-0.026 -0.148,-0.051 -0.08,-0.03 -0.19,-0.055 -0.106,-0.026 -0.25,-0.026 -0.28,0 -0.415,0.102 -0.131,0.097 -0.131,0.271 0,0.119 0.06,0.199 0.058,0.08 0.156,0.14 0.101,0.055 0.224,0.093 0.127,0.038 0.258,0.072 0.148,0.038 0.292,0.093 0.149,0.055 0.263,0.144 0.114,0.089 0.182,0.224 0.072,0.136 0.072,0.343 0,0.216 -0.08,0.39 -0.081,0.169 -0.22,0.292 -0.14,0.118 -0.335,0.186 -0.195,0.063 -0.423,0.063 -0.127,0 -0.297,-0.025 -0.17,-0.021 -0.322,-0.076 -0.152,-0.06 -0.258,-0.153 -0.106,-0.097 -0.106,-0.237 0,-0.084 0.043,-0.135 0.046,-0.05 0.135,-0.05 0.072,0 0.119,0.029 0.046,0.025 0.08,0.059 0.127,0.11 0.288,0.148 0.16,0.038 0.33,0.038 0.098,0 0.203,-0.012 0.11,-0.017 0.2,-0.064 0.088,-0.047 0.148,-0.131 0.059,-0.09 0.059,-0.237 0,-0.136 -0.055,-0.22 Q 44.111,5.281 44.022,5.222 43.933,5.163 43.81,5.125 43.692,5.087 43.552,5.049 43.396,5.007 43.243,4.956 43.091,4.905 42.973,4.82 42.853,4.731 42.778,4.6 42.706,4.465 42.706,4.257 42.706,4.05 42.782,3.893 42.858,3.737 42.989,3.631 43.12,3.525 43.299,3.47 43.48,3.415 43.688,3.415 Z M 45.144,5.76 Q 45.136,5.625 45.127,5.392 45.119,5.159 45.119,4.913 V 4.626 l 0.008,-0.31 q 0.009,-0.313 0.038,-0.49 0.034,-0.178 0.127,-0.267 0.098,-0.09 0.271,-0.11 0.174,-0.022 0.462,-0.022 h 0.089 q 0.088,0 0.211,0.004 0.123,0 0.254,0.004 l 0.225,0.008 q 0.093,0.008 0.148,0.026 0.059,0.013 0.089,0.038 0.03,0.021 0.038,0.055 0.008,0.03 0.008,0.068 0,0.097 -0.055,0.144 -0.055,0.042 -0.224,0.055 -0.085,0.008 -0.25,0.012 h -0.33 q -0.17,0 -0.305,0.004 h -0.17 q -0.11,0.004 -0.156,0.051 -0.042,0.042 -0.042,0.208 l 0.004,0.186 q 0.008,0.144 0.008,0.406 h 0.352 q 0.224,0 0.364,0.008 0.144,0.004 0.22,0.026 0.08,0.02 0.11,0.067 0.03,0.047 0.03,0.123 0,0.038 -0.009,0.072 -0.004,0.03 -0.034,0.055 -0.03,0.021 -0.084,0.038 -0.055,0.013 -0.157,0.021 -0.123,0.008 -0.233,0.013 h -0.567 v 0.517 l 0.008,0.143 q 0.005,0.068 0.017,0.115 0.017,0.046 0.055,0.076 0.043,0.03 0.119,0.042 0.08,0.013 0.212,0.013 h 0.91 q 0.148,0 0.186,0.055 0.038,0.055 0.038,0.148 0,0.076 -0.034,0.119 -0.034,0.038 -0.165,0.055 -0.127,0.02 -0.385,0.025 -0.254,0.004 -0.703,0.004 -0.19,0 -0.313,-0.034 Q 45.381,6.363 45.305,6.283 45.229,6.203 45.191,6.075 45.157,5.945 45.144,5.758 Z m 3.35,0.686 Q 48.24,6.446 48.016,6.344 47.796,6.243 47.63,6.052 47.465,5.857 47.368,5.578 47.275,5.298 47.275,4.943 q 0,-0.334 0.08,-0.614 0.085,-0.28 0.246,-0.482 0.165,-0.204 0.406,-0.314 0.241,-0.114 0.559,-0.114 0.258,0 0.49,0.093 0.234,0.093 0.407,0.28 0.178,0.186 0.28,0.465 0.101,0.28 0.101,0.652 0,0.305 -0.08,0.576 -0.076,0.27 -0.237,0.482 l 0.241,0.2 q 0.047,0.038 0.085,0.097 0.042,0.055 0.042,0.127 0,0.085 -0.068,0.135 -0.067,0.051 -0.16,0.051 -0.119,0 -0.25,-0.118 l -0.22,-0.19 q -0.144,0.084 -0.318,0.13 -0.173,0.047 -0.385,0.047 z m 0.008,-0.398 q 0.233,0 0.407,-0.093 0.173,-0.098 0.288,-0.254 0.114,-0.157 0.169,-0.36 0.055,-0.207 0.055,-0.423 0,-0.263 -0.072,-0.466 Q 49.281,4.245 49.163,4.105 49.044,3.965 48.888,3.893 48.731,3.817 48.553,3.817 q -0.211,0 -0.372,0.089 -0.157,0.089 -0.267,0.241 -0.106,0.153 -0.16,0.36 -0.056,0.203 -0.056,0.436 0,0.25 0.064,0.457 0.063,0.203 0.169,0.347 0.11,0.144 0.258,0.225 0.148,0.076 0.313,0.076 z"
       id="path18"
       inkscape:connector-curvature="0" />
  </g>
  <path
     word-spacing="0"
     letter-spacing="0"
     font-size="2.822"
     font-weight="400"
     d="m 8.7653092,15.383759 q -0.0064,-0.130558 -0.01024,-0.272636 0,-0.140798 -0.00384,-0.303356 -0.00384,-0.162557 -0.00384,-0.349434 v -0.879347 l -0.2175968,0.111358 q -0.089599,0.05888 -0.1433578,0.06912 -0.051199,0.01024 -0.1126384,0.01024 -0.053759,0 -0.097278,-0.04736 -0.038399,-0.04608 -0.038399,-0.111359 0,-0.06528 0.042239,-0.112638 0.047359,-0.0512 0.1087984,-0.0896 0.079359,-0.05504 0.1689575,-0.108798 0.094719,-0.05376 0.1817573,-0.09728 0.085759,-0.04736 0.1587176,-0.07296 0.075519,-0.02816 0.1267181,-0.02816 0.0256,0 0.049919,0.0077 0.029439,0.0077 0.051199,0.02816 0.0256,0.02176 0.038399,0.06912 0.0192,0.04352 0.02304,0.119039 l 0.01024,0.227836 0.00768,0.191997 q 0.00256,0.0896 0.00256,0.190717 v 0.545272 q 0,0.148478 -0.00256,0.293116 l -0.00768,0.291836 -0.01024,0.311035 q -0.00384,0.08704 -0.0192,0.133118 -0.01024,0.04736 -0.031999,0.07296 -0.02176,0.0256 -0.051199,0.02816 -0.0256,0.0077 -0.060159,0.0077 -0.065279,0 -0.1087984,-0.04224 -0.043519,-0.04736 -0.051199,-0.195837 z M 22.564783,13.425388 q -0.129278,0 -0.216316,0.02816 -0.08704,0.0256 -0.144638,0.06912 -0.0576,0.04352 -0.09344,0.0896 l -0.064,0.0896 q -0.03072,0.0448 -0.06656,0.07296 -0.032,0.0256 -0.0832,0.0256 -0.08576,0 -0.122878,-0.04352 -0.032,-0.04736 -0.032,-0.122878 0,-0.158718 0.119038,-0.295676 0.03584,-0.04352 0.09728,-0.0896 0.06528,-0.0512 0.152318,-0.09088 0.0896,-0.03968 0.204797,-0.06528 0.120318,-0.02944 0.268796,-0.02944 0.392954,0 0.610551,0.191997 0.216317,0.191997 0.216317,0.537592 0,0.06912 -0.01408,0.152317 -0.01152,0.0832 -0.04736,0.172798 -0.03328,0.0896 -0.09472,0.188157 -0.06016,0.09728 -0.162558,0.198397 -0.0896,0.0896 -0.191997,0.166398 -0.09984,0.0768 -0.208637,0.152317 l -0.227836,0.162558 q -0.115198,0.0832 -0.234237,0.191997 0.115199,0.06016 0.249597,0.07808 0.133118,0.01792 0.299515,0.01792 0.154878,0 0.249596,-0.0077 0.09344,-0.0077 0.151038,-0.01792 l 0.0896,-0.01792 q 0.03328,-0.0077 0.06912,-0.0077 0.134398,0 0.134398,0.122878 0,0.108799 -0.0896,0.166398 -0.09088,0.0576 -0.217597,0.08704 -0.126718,0.0256 -0.259836,0.02816 -0.134398,0.0077 -0.220157,0.0077 -0.04736,0 -0.134398,-0.0077 -0.0832,-0.0038 -0.179197,-0.01792 -0.09856,-0.01408 -0.199677,-0.0384 -0.09728,-0.02944 -0.180477,-0.07296 -0.07936,-0.04736 -0.130558,-0.112638 -0.0512,-0.06784 -0.0512,-0.162558 0,-0.126718 0.09088,-0.238076 0.09472,-0.115198 0.230397,-0.223997 0.138238,-0.111358 0.296955,-0.220157 0.158718,-0.112638 0.296956,-0.227836 0.136958,-0.119038 0.226557,-0.245756 0.09472,-0.126719 0.09472,-0.273916 0,-0.184318 -0.126718,-0.275196 -0.122878,-0.09344 -0.354555,-0.09344 z m 13.132604,0.0128 q -0.115198,0 -0.168957,-0.05632 -0.05504,-0.06144 -0.05504,-0.122878 0,-0.06528 0.06144,-0.104959 0.06144,-0.04352 0.162557,-0.064 0.102399,-0.0256 0.230397,-0.03328 0.130558,-0.01024 0.264956,-0.01024 0.111358,0 0.249596,0.01024 0.136958,0.0077 0.255996,0.04352 0.119039,0.032 0.198397,0.101118 0.07936,0.064 0.07936,0.179198 0,0.09088 -0.06784,0.188157 -0.06912,0.09856 -0.159997,0.184317 -0.0896,0.08704 -0.179198,0.156158 l -0.127998,0.09344 q 0.383994,0 0.556792,0.191997 0.174077,0.191997 0.174077,0.549111 0,0.223997 -0.0832,0.389115 -0.07936,0.166397 -0.217597,0.279035 -0.133118,0.107519 -0.309756,0.162558 -0.174077,0.05376 -0.358394,0.05376 -0.151038,0 -0.299516,-0.0256 -0.144638,-0.0256 -0.259836,-0.08576 -0.115198,-0.06528 -0.188157,-0.170238 -0.06784,-0.108798 -0.06784,-0.267516 0,-0.166397 0.179197,-0.166397 0.05504,0 0.08448,0.02944 0.032,0.0256 0.05376,0.064 0.0256,0.03712 0.0512,0.08448 0.0256,0.04608 0.07168,0.08576 0.0512,0.03584 0.129278,0.06528 0.0832,0.0256 0.217597,0.0256 0.104959,0 0.204797,-0.02176 0.102399,-0.0256 0.181757,-0.07936 0.07936,-0.05376 0.126719,-0.144638 0.04992,-0.09344 0.04992,-0.230396 0,-0.268796 -0.111359,-0.380155 -0.108798,-0.111358 -0.307195,-0.111358 -0.0512,0 -0.09472,0.01792 -0.04352,0.0128 -0.08576,0.03584 l -0.09088,0.03584 q -0.04736,0.01408 -0.104958,0.01408 -0.0576,0 -0.101119,-0.0512 -0.04352,-0.05248 -0.04352,-0.135678 0,-0.05888 0.05504,-0.134398 0.0576,-0.0768 0.153598,-0.172797 0.102398,-0.09856 0.243196,-0.213757 0.140798,-0.119038 0.314875,-0.255996 h -0.08704 q -0.04736,0 -0.09728,0.0038 h -0.445433 q -0.129278,-0.0038 -0.238077,-0.0038 z m 14.78122,1.420779 q -0.0026,0.136958 -0.0026,0.299515 0,0.162558 -0.01152,0.303356 -0.0064,0.108798 -0.0512,0.140798 -0.0384,0.02944 -0.111359,0.02944 -0.064,0 -0.101118,-0.0256 -0.032,-0.02176 -0.0512,-0.09728 -0.0128,-0.07936 -0.01664,-0.227837 -0.0038,-0.151037 -0.0038,-0.404474 -0.119038,0 -0.227837,0.0038 -0.108798,0.0038 -0.209917,0.0038 -0.151037,0 -0.277755,-0.0077 -0.122879,-0.0077 -0.212477,-0.0256 -0.08704,-0.02176 -0.138238,-0.0576 -0.04608,-0.03584 -0.04608,-0.09344 0,-0.08064 0.064,-0.199677 0.06528,-0.122878 0.162557,-0.263676 0.09856,-0.140798 0.206077,-0.285436 0.112638,-0.147198 0.206077,-0.273916 l 0.122878,-0.158717 q 0.0832,-0.104959 0.176638,-0.206077 0.09472,-0.104959 0.188157,-0.180478 0.09472,-0.0768 0.158717,-0.0768 0.06144,0 0.108799,0.03968 0.04736,0.03968 0.05376,0.184317 0.01536,0.209917 0.01792,0.441594 0.0038,0.226556 0.0038,0.450553 v 0.358395 q 0.102398,0.0077 0.162557,0.01792 0.06144,0.01024 0.09472,0.032 0.032,0.01792 0.04352,0.04736 0.01024,0.02944 0.01024,0.07168 0,0.09088 -0.0832,0.122878 -0.0832,0.02944 -0.234236,0.03712 z m -0.353275,-1.181423 -0.271356,0.328955 -0.186877,0.230397 q -0.0768,0.09856 -0.134398,0.166398 l -0.09728,0.122878 q 0.166398,-0.0077 0.339195,-0.0077 0.177918,-0.0038 0.350715,-0.0038 z m 13.470519,-0.599031 q 0.126718,0 0.249596,0.0077 0.122878,0.0077 0.217597,0.02816 0.096,0.01792 0.153598,0.0576 0.06144,0.03712 0.06144,0.09856 0,0.06784 -0.05376,0.119039 -0.0512,0.0512 -0.220157,0.0512 -0.213757,0 -0.339195,0.0026 -0.122878,0 -0.199677,0.0038 l -0.115198,0.0077 -0.09728,0.0077 q -0.0512,0.0038 -0.07936,0.01792 -0.0256,0.01024 -0.03968,0.04352 -0.01152,0.02944 -0.01536,0.0832 -0.0026,0.0512 -0.0026,0.130558 v 0.09728 q 0.0026,0.0384 0.0026,0.08704 0.271356,0.01024 0.499193,0.04608 0.230396,0.03584 0.396794,0.126718 0.170237,0.08704 0.263676,0.243197 0.09472,0.153597 0.09472,0.407033 0,0.255997 -0.06912,0.426234 -0.06784,0.166398 -0.184317,0.271356 -0.111358,0.101119 -0.263676,0.144638 -0.147198,0.0384 -0.307195,0.0384 -0.136958,0 -0.287996,-0.0256 -0.152318,-0.02816 -0.281596,-0.09984 -0.130558,-0.07168 -0.217597,-0.194557 -0.0832,-0.127998 -0.0832,-0.318715 0,-0.111359 0.05504,-0.168958 0.0576,-0.05888 0.129278,-0.05888 0.06144,0 0.115198,0.04352 0.05504,0.03968 0.05888,0.148477 0.0026,0.108799 0.0512,0.176638 0.04608,0.06912 0.117758,0.108798 0.07296,0.0384 0.162557,0.05376 0.0896,0.01536 0.184318,0.01536 0.227836,0 0.343035,-0.130558 0.115198,-0.130558 0.115198,-0.404474 0,-0.176637 -0.08192,-0.277756 -0.07936,-0.104958 -0.206077,-0.156157 -0.122878,-0.05376 -0.271356,-0.06784 -0.148478,-0.0192 -0.281596,-0.02176 l -0.227836,-0.0077 q -0.09344,-0.0077 -0.115199,-0.03712 -0.0256,-0.03584 -0.03968,-0.0896 -0.01408,-0.0576 -0.02176,-0.119038 -0.0077,-0.06144 -0.01152,-0.119039 v -0.112638 q 0,-0.208637 0.03968,-0.343035 0.03968,-0.133118 0.138238,-0.209917 0.09728,-0.07552 0.255996,-0.101118 0.162558,-0.02816 0.408314,-0.02816 z m 12.656451,1.516778 q 0,-0.303356 0.104959,-0.578552 0.104958,-0.277756 0.259836,-0.486392 0.154877,-0.213757 0.328955,-0.336635 0.172797,-0.126719 0.309755,-0.126719 0.05888,0 0.115198,0.02944 0.06272,0.0256 0.06272,0.0832 0,0.0512 -0.0576,0.111358 l -0.181757,0.180477 q -0.064,0.06528 -0.140798,0.148478 -0.07168,0.0832 -0.140798,0.176638 -0.06784,0.09472 -0.122878,0.195837 -0.05376,0.101118 -0.07936,0.198397 0.122878,-0.108799 0.275196,-0.148478 0.151038,-0.0384 0.267516,-0.0384 0.144638,0 0.277756,0.05248 0.133118,0.0512 0.234237,0.156157 0.102398,0.101119 0.159997,0.255997 0.06144,0.152317 0.06144,0.354554 0,0.176638 -0.05888,0.325115 -0.0576,0.144638 -0.166397,0.252157 -0.103679,0.104958 -0.255997,0.166397 -0.148477,0.0576 -0.332795,0.0576 -0.179197,0 -0.349434,-0.04352 -0.166398,-0.04608 -0.293116,-0.162558 -0.126718,-0.115198 -0.202237,-0.313595 -0.0768,-0.198397 -0.0768,-0.509432 z m 0.412154,0.209917 q 0,0.238076 0.122878,0.360954 0.125438,0.122878 0.375035,0.122878 0.0896,0 0.174077,-0.0256 0.08192,-0.0256 0.147198,-0.0832 0.06528,-0.06144 0.102398,-0.158718 0.0384,-0.09728 0.0384,-0.243196 0,-0.0896 -0.03584,-0.168958 -0.032,-0.07936 -0.09728,-0.136958 -0.06144,-0.06144 -0.148478,-0.09344 -0.08704,-0.03712 -0.188157,-0.03712 -0.230397,0 -0.360955,0.127999 -0.129278,0.125438 -0.129278,0.335355 z"
     style="font-weight:400;font-size:2.82200003px;line-height:1.25;font-family:Sniglet;-inkscape-font-specification:'Sniglet, Normal';font-variant-ligatures:normal;font-variant-caps:normal;font-variant-numeric:normal;font-feature-settings:normal;text-align:start;letter-spacing:0;word-spacing:0;stroke-width:1;fill:#232323;fill-opacity:1"
     id="path22"
     inkscape:connector-curvature="0" />
  <g
     style="line-height:1.25;stroke-width:0.78126168;fill:#232323;fill-opacity:1"
     id="g26"
     transform="matrix(1.2799809,0,0,1.2799809,0,-0.09505041)">
    <path
       word-spacing="0"
       letter-spacing="0"
       font-size="2.822"
       font-weight="400"
       aria-label="BANK"
       style="font-weight:400;font-size:2.82200003px;font-family:Sniglet;-inkscape-font-specification:'Sniglet, Normal';font-variant-ligatures:normal;font-variant-caps:normal;font-variant-numeric:normal;font-feature-settings:normal;text-align:start;letter-spacing:0;word-spacing:0;stroke-width:0.78126168;fill:#232323;fill-opacity:1"
       d="m 31.053,53.018 q -0.158,0 -0.254,-0.025 -0.096,-0.026 -0.15,-0.07 -0.05,-0.049 -0.07,-0.116 -0.017,-0.068 -0.026,-0.153 -0.008,-0.099 -0.014,-0.26 -0.002,-0.163 -0.002,-0.338 v -0.178 l 0.002,-0.186 0.006,-0.172 q 0.003,-0.08 0.008,-0.136 0.009,-0.087 0.029,-0.158 0.02,-0.07 0.073,-0.121 0.056,-0.051 0.155,-0.076 Q 30.912,51 31.078,51 q 0.379,0 0.565,0.141 0.189,0.139 0.189,0.396 0,0.132 -0.06,0.245 -0.056,0.113 -0.197,0.17 0.08,0.014 0.144,0.059 0.065,0.045 0.11,0.11 0.048,0.062 0.07,0.14 0.026,0.077 0.026,0.156 0,0.102 -0.042,0.209 -0.043,0.104 -0.144,0.192 -0.102,0.087 -0.271,0.144 -0.167,0.056 -0.415,0.056 z m 0.59,-0.61 q 0,-0.1 -0.048,-0.163 -0.045,-0.062 -0.119,-0.093 -0.073,-0.034 -0.163,-0.045 -0.09,-0.012 -0.181,-0.012 h -0.147 q -0.076,0 -0.14,0.003 l -0.007,0.122 -0.005,0.118 v 0.153 q 0,0.076 0.011,0.127 0.011,0.05 0.043,0.082 0.03,0.03 0.087,0.045 0.06,0.011 0.15,0.011 0.248,0 0.383,-0.087 0.136,-0.088 0.136,-0.26 z m -0.522,-1.14 q -0.093,0 -0.153,0.017 -0.056,0.014 -0.087,0.04 -0.028,0.025 -0.04,0.062 -0.008,0.037 -0.008,0.079 v 0.395 q 0.04,0.003 0.082,0.003 h 0.084 q 0.102,0 0.198,-0.014 0.099,-0.014 0.178,-0.048 0.079,-0.034 0.127,-0.093 0.048,-0.06 0.048,-0.152 0,-0.127 -0.105,-0.207 -0.101,-0.081 -0.324,-0.081 z m 2.241,1.606 Q 33.333,52.807 33.3,52.719 l -0.068,-0.189 -0.178,0.006 h -0.41 q -0.098,0 -0.18,-0.003 l -0.065,0.186 q -0.03,0.088 -0.059,0.156 -0.056,0.143 -0.164,0.143 -0.04,0 -0.076,-0.025 -0.034,-0.025 -0.034,-0.073 0,-0.048 0.017,-0.125 0.017,-0.079 0.042,-0.166 l 0.06,-0.183 q 0.03,-0.096 0.059,-0.178 0.028,-0.09 0.079,-0.229 l 0.113,-0.293 0.118,-0.3 q 0.06,-0.15 0.108,-0.26 0.011,-0.027 0.028,-0.061 0.017,-0.037 0.04,-0.068 0.025,-0.031 0.053,-0.054 0.031,-0.022 0.068,-0.022 0.036,0 0.068,0.025 0.03,0.023 0.053,0.057 0.026,0.034 0.042,0.07 0.02,0.037 0.031,0.065 0.046,0.113 0.102,0.26 0.06,0.147 0.116,0.296 0.06,0.15 0.11,0.285 0.05,0.136 0.082,0.229 0.025,0.082 0.056,0.175 0.034,0.093 0.062,0.183 0.028,0.09 0.045,0.17 0.02,0.076 0.02,0.124 0,0.048 -0.037,0.073 -0.033,0.025 -0.073,0.025 -0.05,0 -0.093,-0.033 -0.042,-0.037 -0.073,-0.11 z m -0.5,-0.62 0.136,0.002 q 0.067,0 0.135,0.003 L 33.065,52.062 33,51.872 32.947,51.706 32.907,51.568 q -0.011,-0.037 -0.025,-0.06 -0.014,-0.022 -0.037,-0.022 -0.022,0 -0.037,0.026 -0.014,0.022 -0.025,0.059 -0.034,0.116 -0.096,0.302 l -0.127,0.386 q 0.076,-0.003 0.153,-0.003 0.076,-0.003 0.15,-0.003 z m 2.094,0.632 q -0.09,-0.125 -0.172,-0.246 l -0.172,-0.27 q -0.09,-0.148 -0.21,-0.325 -0.115,-0.181 -0.279,-0.42 v 0.38 q 0,0.167 -0.003,0.31 l -0.005,0.271 q -0.003,0.127 -0.009,0.254 -0.002,0.068 -0.014,0.105 -0.008,0.037 -0.025,0.056 -0.017,0.02 -0.04,0.023 -0.02,0.006 -0.048,0.006 -0.05,0 -0.084,-0.034 -0.034,-0.037 -0.04,-0.152 -0.014,-0.31 -0.017,-0.621 v -0.646 q 0,-0.19 0.003,-0.297 0.006,-0.107 0.02,-0.16 0.017,-0.054 0.042,-0.068 0.028,-0.014 0.074,-0.014 0.045,0 0.118,0.07 0.073,0.068 0.161,0.18 0.087,0.114 0.186,0.26 0.102,0.147 0.2,0.302 0.1,0.156 0.19,0.308 l 0.169,0.277 q -0.003,-0.133 -0.003,-0.291 v -0.356 q 0,-0.223 0.003,-0.367 0.003,-0.146 0.014,-0.231 0.014,-0.085 0.042,-0.119 0.029,-0.033 0.08,-0.033 0.047,0 0.084,0.03 0.037,0.032 0.042,0.144 l 0.009,0.181 0.006,0.158 q 0.002,0.076 0.002,0.161 v 0.429 q 0,0.116 -0.002,0.229 l -0.006,0.228 q -0.003,0.116 -0.009,0.243 -0.002,0.068 -0.014,0.104 -0.008,0.037 -0.025,0.057 -0.017,0.02 -0.04,0.022 -0.02,0.006 -0.048,0.006 -0.047,0 -0.081,-0.028 -0.034,-0.028 -0.1,-0.116 z m 0.677,-0.043 q -0.006,-0.101 -0.009,-0.211 0,-0.11 -0.003,-0.237 -0.002,-0.127 -0.002,-0.274 v -0.333 q 0,-0.2 0.002,-0.342 0.003,-0.144 0.015,-0.234 0.014,-0.09 0.042,-0.133 0.028,-0.042 0.079,-0.042 0.048,0 0.085,0.031 0.036,0.031 0.042,0.144 0.006,0.102 0.008,0.18 l 0.006,0.159 q 0.003,0.076 0.003,0.16 v 0.335 l 0.604,-0.692 q 0.118,-0.135 0.183,-0.178 0.065,-0.045 0.113,-0.045 0.057,0 0.082,0.028 0.028,0.029 0.028,0.071 0,0.017 -0.005,0.034 -0.006,0.017 -0.026,0.048 -0.017,0.028 -0.053,0.073 -0.037,0.043 -0.1,0.11 l -0.391,0.426 0.618,0.881 q 0.022,0.031 0.033,0.065 0.015,0.034 0.015,0.065 0,0.053 -0.031,0.087 -0.029,0.037 -0.102,0.037 -0.06,0 -0.107,-0.034 -0.045,-0.03 -0.085,-0.093 l -0.536,-0.793 -0.243,0.265 -0.006,0.215 q -0.002,0.107 -0.008,0.226 -0.003,0.067 -0.014,0.104 -0.009,0.037 -0.026,0.056 -0.016,0.02 -0.039,0.023 -0.02,0.006 -0.048,0.006 -0.05,0 -0.085,-0.034 -0.034,-0.037 -0.04,-0.152 z"
       id="path24"
       inkscape:connector-curvature="0" />
  </g>
  <g
     style="line-height:1.25;stroke-width:0.78126168;fill:#232323;fill-opacity:1"
     id="g30"
     transform="matrix(1.2799809,0,0,1.2799809,0,-0.09505041)">
    <path
       word-spacing="0"
       letter-spacing="0"
       font-size="2.822"
       font-weight="400"
       aria-label="CLK"
       style="font-weight:400;font-size:2.82200003px;font-family:Sniglet;-inkscape-font-specification:'Sniglet, Normal';font-variant-ligatures:normal;font-variant-caps:normal;font-variant-numeric:normal;font-feature-settings:normal;text-align:start;letter-spacing:0;word-spacing:0;stroke-width:0.78126168;fill:#232323;fill-opacity:1"
       d="m 5.827,28.787 q 0.092,0 0.185,0.017 0.096,0.014 0.173,0.048 0.076,0.03 0.124,0.079 0.05,0.045 0.05,0.107 0,0.065 -0.033,0.099 -0.034,0.034 -0.085,0.034 -0.048,0 -0.085,-0.014 Q 6.12,29.14 6.072,29.12 6.027,29.1 5.962,29.086 5.897,29.069 5.79,29.069 q -0.108,0 -0.207,0.057 -0.095,0.053 -0.169,0.152 -0.07,0.096 -0.113,0.229 -0.042,0.132 -0.042,0.288 0,0.191 0.048,0.33 0.05,0.138 0.13,0.228 0.079,0.088 0.178,0.133 0.101,0.042 0.203,0.042 0.121,0 0.203,-0.025 0.082,-0.026 0.138,-0.057 0.06,-0.03 0.102,-0.056 0.042,-0.025 0.082,-0.025 0.048,0 0.076,0.028 0.028,0.025 0.028,0.093 0,0.056 -0.045,0.116 Q 6.36,30.658 6.275,30.706 6.193,30.751 6.077,30.782 5.962,30.81 5.817,30.81 5.66,30.81 5.502,30.748 5.346,30.686 5.222,30.565 5.101,30.441 5.025,30.257 4.948,30.071 4.948,29.826 q 0,-0.246 0.068,-0.438 0.07,-0.192 0.19,-0.324 0.12,-0.136 0.279,-0.207 0.16,-0.07 0.341,-0.07 z m 1.152,1.211 v 0.16 q 0,0.068 -0.002,0.13 0,0.063 -0.003,0.125 L 6.968,30.551 7.273,30.514 7.445,30.492 7.544,30.48 q 0.037,-0.003 0.085,-0.003 0.124,0 0.124,0.122 0,0.048 -0.051,0.081 -0.048,0.034 -0.124,0.06 -0.074,0.022 -0.167,0.04 -0.09,0.013 -0.178,0.02 -0.084,0.007 -0.155,0.01 l -0.096,0.003 q -0.101,0 -0.158,-0.014 Q 6.768,30.788 6.74,30.726 6.711,30.661 6.703,30.531 6.697,30.401 6.697,30.164 v -0.406 q 0,-0.178 0.003,-0.32 0.003,-0.14 0.003,-0.25 0.003,-0.11 0.008,-0.2 0.006,-0.116 0.04,-0.15 0.034,-0.037 0.085,-0.037 0.028,0 0.048,0.006 0.022,0.003 0.04,0.023 0.016,0.02 0.024,0.056 0.012,0.037 0.015,0.105 0.01,0.248 0.014,0.49 0.002,0.243 0.002,0.517 z M 7.99,30.61 q -0.005,-0.101 -0.008,-0.212 0,-0.11 -0.003,-0.237 -0.003,-0.127 -0.003,-0.273 v -0.333 q 0,-0.2 0.003,-0.342 0.003,-0.144 0.014,-0.234 0.014,-0.09 0.042,-0.133 0.028,-0.042 0.08,-0.042 0.047,0 0.084,0.031 0.037,0.031 0.042,0.144 l 0.009,0.18 0.005,0.159 q 0.003,0.076 0.003,0.16 v 0.333 L 8.862,29.12 q 0.119,-0.135 0.184,-0.178 0.064,-0.045 0.112,-0.045 0.057,0 0.082,0.028 0.029,0.028 0.029,0.07 0,0.018 -0.006,0.035 -0.006,0.017 -0.025,0.048 -0.017,0.028 -0.054,0.073 l -0.099,0.11 -0.392,0.426 0.618,0.88 q 0.022,0.032 0.034,0.066 0.014,0.034 0.014,0.065 0,0.053 -0.031,0.087 -0.028,0.037 -0.102,0.037 -0.059,0 -0.107,-0.034 Q 9.074,30.757 9.034,30.695 L 8.498,29.902 8.255,30.167 8.25,30.382 q -0.003,0.107 -0.009,0.225 -0.003,0.068 -0.014,0.105 -0.008,0.037 -0.025,0.056 -0.017,0.02 -0.04,0.023 -0.02,0.006 -0.048,0.006 -0.05,0 -0.084,-0.034 -0.034,-0.037 -0.04,-0.152 z"
       id="path28"
       inkscape:connector-curvature="0" />
  </g>
  <path
     d="m 20.189139,62.001943 h 3.889862 m 37.832395,0 h 3.889862"
     id="path32"
     inkscape:connector-curvature="0"
     style="fill:none;stroke:#232323;stroke-width:0.132;stroke-opacity:1" />
  <g
     style="line-height:1.25;stroke-width:0.78126168;fill:#232323;fill-opacity:1"
     id="g36"
     transform="matrix(1.2799809,0,0,1.2799809,0,-0.09505041)">
    <path
       word-spacing="0"
       letter-spacing="0"
       font-size="2.822"
       font-weight="400"
       aria-label="LEN"
       style="font-weight:400;font-size:2.82200003px;font-family:Sniglet;-inkscape-font-specification:'Sniglet, Normal';font-variant-ligatures:normal;font-variant-caps:normal;font-variant-numeric:normal;font-feature-settings:normal;text-align:start;letter-spacing:0;word-spacing:0;stroke-width:0.78126168;fill:#232323;fill-opacity:1"
       d="m 55.686,55.718 v 0.16 q 0,0.068 -0.003,0.13 0,0.063 -0.003,0.125 l -0.005,0.138 0.305,-0.037 0.172,-0.022 0.099,-0.012 q 0.036,-0.003 0.084,-0.003 0.124,0 0.124,0.122 0,0.048 -0.05,0.081 -0.048,0.034 -0.125,0.06 -0.073,0.022 -0.166,0.04 -0.09,0.013 -0.178,0.02 -0.085,0.007 -0.155,0.01 l -0.096,0.003 q -0.102,0 -0.158,-0.014 -0.057,-0.011 -0.085,-0.073 -0.028,-0.065 -0.036,-0.195 -0.006,-0.13 -0.006,-0.367 v -0.406 q 0,-0.178 0.003,-0.32 0.003,-0.14 0.003,-0.25 0.002,-0.11 0.008,-0.2 0.006,-0.116 0.04,-0.15 0.033,-0.037 0.084,-0.037 0.028,0 0.048,0.006 0.023,0.003 0.04,0.023 0.017,0.02 0.025,0.056 0.01,0.037 0.014,0.105 0.012,0.248 0.014,0.49 0.003,0.243 0.003,0.517 z m 1.014,0.358 q -0.006,-0.09 -0.012,-0.245 -0.005,-0.156 -0.005,-0.32 V 55.32 l 0.005,-0.206 q 0.006,-0.209 0.026,-0.328 0.022,-0.118 0.084,-0.177 0.065,-0.06 0.18,-0.074 0.117,-0.014 0.309,-0.014 h 0.059 q 0.06,0 0.14,0.003 0.083,0 0.17,0.003 l 0.15,0.006 q 0.062,0.006 0.099,0.017 0.04,0.008 0.059,0.025 0.02,0.015 0.025,0.037 0.006,0.02 0.006,0.045 0,0.065 -0.037,0.096 -0.036,0.029 -0.15,0.037 -0.056,0.006 -0.166,0.008 h -0.22 q -0.113,0 -0.203,0.003 h -0.113 q -0.073,0.003 -0.104,0.034 -0.03,0.028 -0.03,0.138 l 0.004,0.124 q 0.006,0.096 0.006,0.271 h 0.234 q 0.15,0 0.243,0.006 0.096,0.003 0.146,0.017 0.054,0.014 0.074,0.045 0.02,0.031 0.02,0.082 0,0.026 -0.006,0.048 -0.003,0.02 -0.023,0.037 -0.02,0.014 -0.056,0.025 -0.037,0.008 -0.104,0.015 -0.082,0.006 -0.156,0.008 h -0.378 v 0.344 l 0.006,0.096 q 0.003,0.045 0.01,0.076 0.012,0.031 0.038,0.05 0.028,0.02 0.079,0.029 0.053,0.008 0.14,0.008 h 0.608 q 0.098,0 0.124,0.037 0.025,0.036 0.025,0.099 0,0.05 -0.022,0.079 -0.023,0.025 -0.11,0.036 -0.085,0.014 -0.257,0.017 -0.17,0.003 -0.47,0.003 -0.126,0 -0.208,-0.022 -0.081,-0.023 -0.132,-0.077 -0.051,-0.053 -0.076,-0.138 -0.023,-0.087 -0.032,-0.212 z m 2.677,0.297 q -0.09,-0.125 -0.172,-0.246 l -0.173,-0.271 q -0.09,-0.147 -0.208,-0.325 -0.116,-0.18 -0.28,-0.42 v 0.381 q 0,0.166 -0.003,0.31 l -0.005,0.271 q -0.003,0.127 -0.01,0.254 -0.002,0.068 -0.013,0.105 -0.008,0.036 -0.025,0.056 -0.017,0.02 -0.04,0.023 -0.02,0.006 -0.048,0.006 -0.05,0 -0.084,-0.034 -0.034,-0.037 -0.04,-0.153 -0.014,-0.31 -0.017,-0.62 v -0.647 q 0,-0.189 0.003,-0.296 0.006,-0.107 0.02,-0.16 0.017,-0.055 0.042,-0.069 0.028,-0.014 0.073,-0.014 0.046,0 0.119,0.07 0.073,0.068 0.16,0.181 0.088,0.113 0.187,0.26 0.102,0.147 0.2,0.302 0.1,0.155 0.19,0.308 l 0.169,0.276 q -0.003,-0.132 -0.003,-0.29 v -0.356 q 0,-0.223 0.003,-0.367 0.003,-0.147 0.014,-0.231 0.014,-0.085 0.042,-0.119 0.029,-0.034 0.08,-0.034 0.047,0 0.084,0.031 0.037,0.031 0.042,0.144 l 0.009,0.18 0.005,0.159 q 0.003,0.076 0.003,0.16 v 0.43 q 0,0.115 -0.003,0.228 l -0.005,0.229 q -0.003,0.116 -0.01,0.243 -10e-4,0.067 -0.013,0.104 -0.008,0.037 -0.025,0.056 -0.017,0.02 -0.04,0.023 -0.02,0.006 -0.048,0.006 -0.048,0 -0.081,-0.028 -0.034,-0.028 -0.1,-0.116 z"
       id="path34"
       inkscape:connector-curvature="0" />
  </g>
  <g
     style="line-height:1.25;stroke-width:0.78126168;fill:#232323;fill-opacity:1"
     id="g40"
     transform="matrix(1.2799809,0,0,1.2799809,0,-0.09505041)">
    <path
       word-spacing="0"
       letter-spacing="0"
       font-size="2.822"
       font-weight="400"
       aria-label="CLEAR"
       style="font-weight:400;font-size:2.82200003px;font-family:Sniglet;-inkscape-font-specification:'Sniglet, Normal';font-variant-ligatures:normal;font-variant-caps:normal;font-variant-numeric:normal;font-feature-settings:normal;text-align:start;letter-spacing:0;word-spacing:0;stroke-width:0.78126168;fill:#232323;fill-opacity:1"
       d="m 15.467,56.92 q 0.092,0 0.185,0.017 0.096,0.014 0.173,0.048 0.076,0.03 0.124,0.079 0.05,0.045 0.05,0.107 0,0.065 -0.033,0.099 -0.034,0.034 -0.085,0.034 -0.048,0 -0.085,-0.015 l -0.084,-0.036 q -0.045,-0.02 -0.11,-0.034 -0.065,-0.017 -0.172,-0.017 -0.108,0 -0.206,0.056 -0.096,0.054 -0.17,0.153 -0.07,0.096 -0.113,0.228 -0.042,0.133 -0.042,0.288 0,0.192 0.048,0.33 0.05,0.139 0.13,0.229 0.079,0.087 0.178,0.133 0.101,0.042 0.203,0.042 0.121,0 0.203,-0.025 0.082,-0.026 0.138,-0.057 0.06,-0.031 0.102,-0.056 0.042,-0.026 0.082,-0.026 0.048,0 0.076,0.028 0.028,0.026 0.028,0.094 0,0.056 -0.045,0.115 -0.042,0.057 -0.127,0.105 -0.082,0.045 -0.198,0.076 -0.115,0.028 -0.26,0.028 -0.157,0 -0.315,-0.062 -0.156,-0.062 -0.28,-0.183 -0.121,-0.125 -0.197,-0.308 -0.077,-0.186 -0.077,-0.432 0,-0.245 0.068,-0.437 0.07,-0.192 0.19,-0.325 0.12,-0.135 0.279,-0.206 0.16,-0.07 0.341,-0.07 z m 1.152,1.21 v 0.161 q 0,0.068 -0.002,0.13 0,0.062 -0.003,0.124 l -0.006,0.139 0.305,-0.037 0.172,-0.023 0.099,-0.011 q 0.037,-0.003 0.085,-0.003 0.124,0 0.124,0.121 0,0.048 -0.051,0.082 -0.048,0.034 -0.124,0.06 -0.074,0.022 -0.167,0.039 -0.09,0.014 -0.177,0.02 -0.085,0.008 -0.156,0.011 l -0.096,0.003 q -0.101,0 -0.158,-0.014 -0.056,-0.011 -0.084,-0.073 -0.029,-0.065 -0.037,-0.195 -0.006,-0.13 -0.006,-0.367 v -0.406 q 0,-0.178 0.003,-0.32 0.003,-0.14 0.003,-0.25 0.003,-0.11 0.008,-0.2 0.006,-0.117 0.04,-0.15 0.034,-0.037 0.085,-0.037 0.028,0 0.048,0.006 0.022,0.003 0.04,0.022 0.016,0.02 0.024,0.057 0.012,0.037 0.015,0.104 0.01,0.249 0.014,0.491 0.003,0.243 0.003,0.517 z m 1.014,0.359 q -0.006,-0.09 -0.011,-0.246 -0.006,-0.155 -0.006,-0.319 v -0.192 l 0.006,-0.206 q 0.005,-0.208 0.025,-0.327 0.023,-0.118 0.085,-0.178 0.065,-0.059 0.18,-0.073 0.116,-0.014 0.308,-0.014 h 0.06 q 0.059,0 0.14,0.003 0.082,0 0.17,0.003 l 0.15,0.006 q 0.061,0.006 0.098,0.017 0.04,0.008 0.06,0.025 0.02,0.014 0.025,0.037 0.005,0.02 0.005,0.045 0,0.065 -0.036,0.096 -0.037,0.028 -0.15,0.037 -0.056,0.006 -0.166,0.008 h -0.22 q -0.113,0 -0.204,0.003 h -0.113 q -0.073,0.003 -0.104,0.034 -0.028,0.028 -0.028,0.138 l 0.002,0.124 q 0.006,0.096 0.006,0.271 h 0.234 q 0.15,0 0.243,0.006 0.096,0.003 0.147,0.017 0.053,0.014 0.073,0.045 0.02,0.031 0.02,0.082 0,0.025 -0.006,0.048 -0.002,0.02 -0.022,0.037 -0.02,0.014 -0.057,0.025 -0.036,0.008 -0.104,0.014 -0.082,0.006 -0.155,0.008 h -0.379 v 0.344 l 0.006,0.096 q 0.003,0.046 0.011,0.077 0.012,0.03 0.037,0.05 0.028,0.02 0.08,0.029 0.053,0.008 0.14,0.008 h 0.607 q 0.099,0 0.124,0.036 0.026,0.037 0.026,0.099 0,0.05 -0.023,0.079 -0.023,0.025 -0.11,0.037 -0.085,0.014 -0.257,0.017 -0.17,0.003 -0.468,0.003 -0.127,0 -0.21,-0.023 -0.081,-0.023 -0.132,-0.076 -0.05,-0.054 -0.076,-0.138 -0.023,-0.088 -0.031,-0.212 z m 2.742,0.284 -0.062,-0.154 q -0.031,-0.09 -0.068,-0.19 l -0.178,0.007 h -0.409 q -0.099,0 -0.18,-0.003 l -0.065,0.186 q -0.031,0.087 -0.06,0.155 -0.056,0.144 -0.163,0.144 -0.04,0 -0.077,-0.025 -0.033,-0.026 -0.033,-0.074 0,-0.048 0.017,-0.124 0.016,-0.079 0.042,-0.166 0.028,-0.09 0.06,-0.184 0.03,-0.096 0.058,-0.178 0.029,-0.09 0.08,-0.228 l 0.112,-0.294 0.119,-0.299 q 0.06,-0.15 0.107,-0.26 0.011,-0.028 0.028,-0.062 0.017,-0.036 0.04,-0.067 0.025,-0.031 0.053,-0.054 0.031,-0.023 0.068,-0.023 0.037,0 0.068,0.026 0.03,0.022 0.054,0.056 0.025,0.034 0.042,0.07 0.02,0.037 0.03,0.066 0.046,0.112 0.102,0.26 0.06,0.146 0.116,0.296 0.06,0.15 0.11,0.285 0.051,0.135 0.082,0.228 l 0.057,0.175 q 0.033,0.093 0.062,0.184 0.028,0.09 0.045,0.169 0.02,0.076 0.02,0.124 0,0.048 -0.037,0.074 -0.034,0.025 -0.074,0.025 -0.05,0 -0.093,-0.034 -0.042,-0.037 -0.073,-0.11 z m -0.5,-0.62 q 0.068,0 0.136,0.003 0.068,0 0.135,0.003 l -0.067,-0.198 -0.065,-0.189 q -0.028,-0.09 -0.054,-0.166 -0.022,-0.08 -0.04,-0.138 -0.01,-0.037 -0.025,-0.06 -0.014,-0.022 -0.036,-0.022 -0.023,0 -0.037,0.025 -0.014,0.023 -0.026,0.06 -0.033,0.115 -0.096,0.301 -0.059,0.184 -0.127,0.387 0.077,-0.003 0.153,-0.003 0.076,-0.003 0.15,-0.003 z m 1.629,0.07 -0.082,0.007 h -0.178 q -0.048,0 -0.107,-0.006 v 0.572 q 0,0.09 -0.045,0.113 -0.043,0.02 -0.108,0.02 -0.034,0 -0.053,-0.006 -0.02,-0.003 -0.034,-0.014 -0.011,-0.014 -0.02,-0.04 -0.006,-0.025 -0.008,-0.07 -0.006,-0.05 -0.009,-0.147 l -0.006,-0.254 -0.002,-0.375 v -0.522 q 0,-0.116 0.028,-0.223 0.028,-0.11 0.101,-0.192 0.074,-0.085 0.198,-0.136 0.127,-0.05 0.322,-0.05 0.138,0 0.268,0.03 0.133,0.032 0.234,0.108 0.102,0.076 0.164,0.206 0.062,0.13 0.062,0.324 0,0.26 -0.113,0.404 -0.11,0.141 -0.305,0.2 l 0.378,0.52 q 0.051,0.067 0.051,0.138 0,0.056 -0.04,0.087 -0.036,0.034 -0.092,0.034 -0.063,0 -0.108,-0.034 -0.045,-0.036 -0.084,-0.093 z m 0.443,-0.657 q 0,-0.195 -0.119,-0.288 -0.116,-0.096 -0.37,-0.096 -0.093,0 -0.155,0.017 -0.062,0.014 -0.099,0.056 -0.036,0.043 -0.053,0.119 -0.014,0.073 -0.014,0.189 v 0.192 q 0,0.11 0.002,0.2 0.065,0.003 0.144,0.003 h 0.153 q 0.079,0 0.166,-0.008 0.09,-0.011 0.167,-0.05 0.076,-0.043 0.127,-0.119 0.05,-0.079 0.05,-0.215 z"
       id="path38"
       inkscape:connector-curvature="0" />
  </g>
  <g
     style="line-height:1.25;stroke-width:0.78126168;fill:#232323;fill-opacity:1"
     id="g44"
     transform="matrix(1.2799809,0,0,1.2799809,0,-0.09505041)">
    <path
       word-spacing="0"
       letter-spacing="0"
       font-size="2.822"
       font-weight="400"
       aria-label="RND"
       style="font-weight:400;font-size:2.82200003px;font-family:Sniglet;-inkscape-font-specification:'Sniglet, Normal';font-variant-ligatures:normal;font-variant-caps:normal;font-variant-numeric:normal;font-feature-settings:normal;text-align:start;letter-spacing:0;word-spacing:0;stroke-width:0.78126168;fill:#232323;fill-opacity:1"
       d="M 8.36,55.773 8.279,55.779 H 8.102 q -0.048,0 -0.108,-0.006 v 0.573 q 0,0.09 -0.045,0.113 -0.042,0.02 -0.107,0.02 -0.034,0 -0.054,-0.006 Q 7.768,56.47 7.754,56.459 7.744,56.445 7.734,56.419 7.729,56.394 7.726,56.349 7.721,56.298 7.718,56.202 L 7.712,55.948 q 0,-0.155 -0.003,-0.375 v -0.522 q 0,-0.116 0.028,-0.223 0.029,-0.11 0.102,-0.192 0.073,-0.085 0.198,-0.136 0.127,-0.05 0.32,-0.05 0.14,0 0.269,0.03 0.133,0.031 0.235,0.108 0.1,0.076 0.163,0.206 0.062,0.13 0.062,0.324 0,0.26 -0.112,0.404 -0.11,0.141 -0.305,0.2 l 0.378,0.52 q 0.05,0.067 0.05,0.138 0,0.056 -0.04,0.087 -0.035,0.034 -0.092,0.034 -0.062,0 -0.107,-0.034 -0.045,-0.036 -0.085,-0.093 z m 0.444,-0.657 q 0,-0.195 -0.118,-0.288 -0.116,-0.096 -0.37,-0.096 -0.093,0 -0.155,0.017 -0.062,0.014 -0.1,0.056 -0.036,0.042 -0.053,0.119 -0.014,0.073 -0.014,0.189 v 0.192 q 0,0.11 0.003,0.2 0.065,0.003 0.144,0.003 h 0.152 q 0.08,0 0.167,-0.008 0.09,-0.011 0.166,-0.05 0.077,-0.043 0.127,-0.12 0.05,-0.078 0.05,-0.214 z m 1.649,1.219 q -0.09,-0.124 -0.172,-0.246 l -0.172,-0.27 q -0.09,-0.147 -0.21,-0.325 -0.115,-0.18 -0.28,-0.42 v 0.38 l -10e-4,0.31 -0.006,0.272 q -0.003,0.127 -0.01,0.254 -10e-4,0.067 -0.013,0.104 -0.008,0.037 -0.025,0.057 -0.017,0.02 -0.04,0.022 -0.02,0.006 -0.048,0.006 -0.05,0 -0.084,-0.034 -0.034,-0.036 -0.04,-0.152 -0.014,-0.31 -0.017,-0.62 v -0.647 q 0,-0.19 0.003,-0.297 0.006,-0.107 0.02,-0.16 0.017,-0.054 0.042,-0.068 0.028,-0.014 0.074,-0.014 0.045,0 0.118,0.07 0.074,0.068 0.16,0.181 0.089,0.113 0.187,0.26 0.102,0.146 0.2,0.302 0.1,0.155 0.19,0.307 l 0.17,0.277 q -0.004,-0.133 -0.004,-0.29 v -0.357 q 0,-0.222 0.003,-0.366 0.003,-0.147 0.014,-0.232 0.014,-0.085 0.043,-0.118 0.028,-0.034 0.079,-0.034 0.048,0 0.084,0.03 0.037,0.032 0.043,0.145 l 0.008,0.18 0.006,0.158 q 0.002,0.077 0.002,0.161 v 0.429 q 0,0.116 -0.002,0.229 l -0.006,0.228 -0.008,0.243 q -0.003,0.068 -0.015,0.105 -0.008,0.036 -0.025,0.056 -0.017,0.02 -0.04,0.023 -0.02,0.006 -0.047,0.006 -0.048,0 -0.082,-0.029 -0.034,-0.028 -0.1,-0.115 z m 1.24,-1.862 q 0.292,0 0.467,0.087 0.175,0.087 0.268,0.231 0.093,0.144 0.12,0.328 0.033,0.183 0.033,0.372 0,0.206 -0.054,0.39 -0.05,0.183 -0.161,0.321 -0.107,0.136 -0.277,0.218 -0.17,0.079 -0.403,0.079 -0.186,0 -0.3,-0.029 -0.11,-0.025 -0.171,-0.079 -0.06,-0.053 -0.08,-0.135 -0.02,-0.082 -0.02,-0.192 v -1.061 q 0,-0.121 0.02,-0.22 0.023,-0.1 0.085,-0.167 0.062,-0.07 0.175,-0.107 0.116,-0.037 0.3,-0.037 z m 0.013,1.743 q 0.175,0 0.287,-0.062 0.116,-0.065 0.184,-0.169 0.068,-0.104 0.093,-0.237 0.028,-0.133 0.028,-0.271 0,-0.127 -0.02,-0.254 -0.02,-0.13 -0.081,-0.234 -0.062,-0.105 -0.178,-0.17 -0.116,-0.065 -0.308,-0.065 -0.175,0 -0.242,0.051 -0.068,0.051 -0.068,0.156 v 1.08 q 0,0.088 0.062,0.133 0.065,0.042 0.243,0.042 z"
       id="path42"
       inkscape:connector-curvature="0" />
  </g>
  <g
     style="line-height:1.25;stroke-width:0.78126168;fill:#232323;fill-opacity:1"
     id="g48"
     transform="matrix(1.2799809,0,0,1.2799809,0,-0.09505041)">
    <path
       word-spacing="0"
       letter-spacing="0"
       font-size="2.822"
       font-weight="400"
       aria-label="DEL"
       style="font-weight:400;font-size:2.82200003px;font-family:Sniglet;-inkscape-font-specification:'Sniglet, Normal';font-variant-ligatures:normal;font-variant-caps:normal;font-variant-numeric:normal;font-feature-settings:normal;text-align:start;letter-spacing:0;word-spacing:0;stroke-width:0.78126168;fill:#232323;fill-opacity:1"
       d="m 47.475,56.925 q 0.29,0 0.465,0.088 0.175,0.087 0.268,0.231 0.094,0.144 0.122,0.327 0.03,0.184 0.03,0.373 0,0.206 -0.053,0.39 -0.05,0.183 -0.16,0.321 -0.108,0.136 -0.277,0.217 -0.17,0.08 -0.404,0.08 -0.186,0 -0.299,-0.029 -0.11,-0.025 -0.172,-0.079 -0.06,-0.053 -0.08,-0.135 -0.019,-0.082 -0.019,-0.192 v -1.061 q 0,-0.122 0.02,-0.22 0.022,-0.1 0.085,-0.167 0.062,-0.07 0.175,-0.107 0.115,-0.037 0.299,-0.037 z m 0.011,1.744 q 0.175,0 0.288,-0.062 0.116,-0.065 0.183,-0.17 0.068,-0.104 0.093,-0.236 0.029,-0.133 0.029,-0.271 0,-0.127 -0.02,-0.254 -0.02,-0.13 -0.082,-0.235 -0.062,-0.104 -0.178,-0.169 -0.115,-0.065 -0.307,-0.065 -0.175,0 -0.243,0.051 -0.068,0.05 -0.068,0.155 v 1.081 q 0,0.088 0.062,0.133 0.065,0.042 0.243,0.042 z m 1.174,-0.178 q -0.005,-0.09 -0.01,-0.245 -0.006,-0.155 -0.006,-0.32 v -0.191 l 0.005,-0.206 q 0.006,-0.209 0.026,-0.327 0.022,-0.119 0.084,-0.178 0.065,-0.06 0.18,-0.074 0.117,-0.014 0.308,-0.014 h 0.06 q 0.059,0 0.14,0.003 0.083,0 0.17,0.003 l 0.15,0.006 q 0.062,0.006 0.099,0.017 0.039,0.008 0.059,0.026 0.02,0.014 0.025,0.036 0.006,0.02 0.006,0.046 0,0.064 -0.037,0.095 -0.037,0.029 -0.15,0.037 -0.056,0.006 -0.166,0.008 h -0.22 q -0.113,0 -0.203,0.003 h -0.113 q -0.074,0.003 -0.105,0.034 -0.028,0.028 -0.028,0.138 l 0.003,0.124 q 0.006,0.096 0.006,0.271 h 0.234 q 0.15,0 0.242,0.006 0.096,0.003 0.147,0.017 0.054,0.014 0.074,0.046 0.02,0.03 0.02,0.081 0,0.026 -0.006,0.048 -0.003,0.02 -0.023,0.037 -0.02,0.014 -0.056,0.026 -0.037,0.008 -0.105,0.014 -0.082,0.006 -0.155,0.008 h -0.378 v 0.343 l 0.006,0.097 q 0.002,0.045 0.01,0.076 0.012,0.031 0.038,0.05 0.028,0.02 0.079,0.03 0.053,0.007 0.14,0.007 h 0.607 q 0.1,0 0.125,0.037 0.025,0.037 0.025,0.099 0,0.05 -0.023,0.079 -0.022,0.025 -0.11,0.036 -0.084,0.014 -0.256,0.017 -0.17,0.003 -0.469,0.003 -0.127,0 -0.209,-0.022 -0.082,-0.023 -0.132,-0.077 -0.051,-0.053 -0.077,-0.138 -0.022,-0.087 -0.03,-0.212 z m 1.842,-0.358 v 0.16 q 0,0.069 -0.003,0.13 0,0.063 -0.002,0.125 l -0.006,0.138 q 0.195,-0.022 0.305,-0.037 l 0.172,-0.022 0.099,-0.011 q 0.036,-0.003 0.084,-0.003 0.125,0 0.125,0.12 0,0.049 -0.051,0.083 -0.048,0.034 -0.124,0.059 -0.074,0.023 -0.167,0.04 -0.09,0.014 -0.178,0.02 -0.084,0.007 -0.155,0.01 -0.068,0.004 -0.096,0.004 -0.102,0 -0.158,-0.015 -0.056,-0.01 -0.085,-0.073 -0.028,-0.065 -0.036,-0.195 -0.006,-0.13 -0.006,-0.367 v -0.406 q 0,-0.178 0.003,-0.319 0.003,-0.141 0.003,-0.251 0.002,-0.11 0.008,-0.2 0.006,-0.116 0.04,-0.15 0.034,-0.037 0.084,-0.037 0.029,0 0.048,0.006 0.023,0.003 0.04,0.023 0.017,0.02 0.025,0.056 0.012,0.037 0.014,0.105 0.012,0.248 0.014,0.49 0.003,0.243 0.003,0.517 z"
       id="path46"
       inkscape:connector-curvature="0" />
  </g>
  <g
     style="line-height:1.25;stroke-width:0.78126168;fill:#232323;fill-opacity:1"
     id="g52"
     transform="matrix(1.2799809,0,0,1.2799809,0,-0.09505041)">
    <path
       word-spacing="0"
       letter-spacing="0"
       font-size="2.822"
       font-weight="400"
       aria-label="FILL"
       style="font-weight:400;font-size:2.82200003px;font-family:Sniglet;-inkscape-font-specification:'Sniglet, Normal';font-variant-ligatures:normal;font-variant-caps:normal;font-variant-numeric:normal;font-feature-settings:normal;text-align:start;letter-spacing:0;word-spacing:0;stroke-width:0.78126168;fill:#232323;fill-opacity:1"
       d="m 57.907,71.496 q 0,-0.237 0.016,-0.37 0.017,-0.136 0.07,-0.203 0.054,-0.068 0.153,-0.082 0.099,-0.017 0.26,-0.017 h 0.163 q 0.074,0 0.141,0.003 0.071,0 0.139,0.003 l 0.152,0.006 q 0.068,0.006 0.105,0.017 0.036,0.008 0.056,0.025 0.02,0.017 0.023,0.04 0.005,0.022 0.005,0.05 0,0.051 -0.036,0.085 -0.034,0.034 -0.15,0.04 l -0.138,0.006 -0.15,0.006 q -0.082,0 -0.186,0.003 h -0.251 q -0.051,0 -0.07,0.036 -0.02,0.034 -0.02,0.088 v 0.085 q 0.002,0.042 0.002,0.093 0.003,0.05 0.003,0.115 0.003,0.063 0.003,0.147 0.104,0 0.18,0.003 0.08,0 0.136,0.003 0.06,0 0.104,0.003 l 0.088,0.006 q 0.115,0.006 0.15,0.04 0.036,0.034 0.036,0.084 0,0.029 -0.006,0.051 -0.002,0.023 -0.022,0.04 -0.02,0.017 -0.057,0.028 -0.036,0.011 -0.104,0.017 l -0.088,0.006 q -0.039,0 -0.095,0.003 h -0.322 q -0.003,0.17 -0.003,0.347 0.003,0.175 -0.009,0.361 -0.005,0.11 -0.039,0.136 -0.031,0.022 -0.096,0.022 -0.062,0 -0.093,-0.025 -0.031,-0.028 -0.037,-0.13 -0.005,-0.09 -0.008,-0.198 0,-0.11 -0.003,-0.248 -0.003,-0.141 -0.003,-0.316 v -0.406 z m 1.563,1.137 q -0.006,-0.102 -0.009,-0.212 l -0.002,-0.237 q -0.003,-0.127 -0.003,-0.273 v -0.333 q 0,-0.2 0.003,-0.342 0.002,-0.144 0.016,-0.234 0.015,-0.09 0.043,-0.133 0.03,-0.042 0.082,-0.042 0.025,0 0.048,0.006 0.022,0.006 0.04,0.025 0.016,0.017 0.027,0.054 0.014,0.034 0.017,0.09 l 0.009,0.18 0.005,0.159 q 0.003,0.076 0.003,0.16 v 0.43 q 0,0.115 -0.003,0.228 l -0.005,0.229 q -0.003,0.116 -0.009,0.243 -0.003,0.067 -0.014,0.104 -0.011,0.037 -0.028,0.056 -0.017,0.02 -0.04,0.023 -0.022,0.006 -0.05,0.006 -0.051,0 -0.088,-0.034 -0.037,-0.037 -0.042,-0.152 z m 0.929,-0.612 v 0.16 q 0,0.068 -0.003,0.13 0,0.062 -0.003,0.124 l -0.005,0.139 0.304,-0.037 0.173,-0.023 q 0.064,-0.008 0.098,-0.01 Q 61,72.5 61.048,72.5 q 0.124,0 0.124,0.122 0,0.048 -0.05,0.081 -0.049,0.034 -0.125,0.06 -0.073,0.022 -0.166,0.04 -0.09,0.013 -0.178,0.019 -0.085,0.008 -0.155,0.011 l -0.096,0.003 q -0.102,0 -0.158,-0.014 -0.057,-0.011 -0.085,-0.073 -0.028,-0.065 -0.037,-0.195 -0.005,-0.13 -0.005,-0.367 v -0.406 q 0,-0.178 0.002,-0.32 0.003,-0.14 0.003,-0.25 0.003,-0.11 0.009,-0.2 0.005,-0.116 0.04,-0.15 0.033,-0.037 0.084,-0.037 0.028,0 0.048,0.006 0.023,0.003 0.04,0.023 0.016,0.02 0.025,0.056 0.011,0.037 0.014,0.104 0.011,0.249 0.014,0.491 0.003,0.243 0.003,0.517 z m 1.278,0 v 0.16 q 0,0.068 -0.002,0.13 0,0.062 -0.003,0.124 l -0.006,0.139 0.305,-0.037 0.172,-0.023 q 0.065,-0.008 0.1,-0.01 0.036,-0.004 0.084,-0.004 0.124,0 0.124,0.122 0,0.048 -0.05,0.081 -0.049,0.034 -0.125,0.06 -0.073,0.022 -0.167,0.04 -0.09,0.013 -0.177,0.019 -0.085,0.008 -0.156,0.011 l -0.096,0.003 q -0.101,0 -0.158,-0.014 -0.056,-0.011 -0.084,-0.073 -0.028,-0.065 -0.037,-0.195 -0.006,-0.13 -0.006,-0.367 v -0.406 q 0,-0.178 0.003,-0.32 0.003,-0.14 0.003,-0.25 0.003,-0.11 0.009,-0.2 0.005,-0.116 0.04,-0.15 0.033,-0.037 0.084,-0.037 0.028,0 0.048,0.006 0.022,0.003 0.04,0.023 0.016,0.02 0.025,0.056 0.01,0.037 0.014,0.104 0.011,0.249 0.014,0.491 0.003,0.243 0.003,0.517 z"
       id="path50"
       inkscape:connector-curvature="0" />
  </g>
  <g
     style="line-height:1.25;stroke-width:0.78126168;fill:#232323;fill-opacity:1"
     id="g56"
     transform="matrix(1.2799809,0,0,1.2799809,0,-0.09505041)">
    <path
       word-spacing="0"
       letter-spacing="0"
       font-size="2.822"
       font-weight="400"
       aria-label="RESET"
       style="font-weight:400;font-size:2.82200003px;font-family:Sniglet;-inkscape-font-specification:'Sniglet, Normal';font-variant-ligatures:normal;font-variant-caps:normal;font-variant-numeric:normal;font-feature-settings:normal;text-align:start;letter-spacing:0;word-spacing:0;stroke-width:0.78126168;fill:#232323;fill-opacity:1"
       d="M 4.313,71.982 4.231,71.988 H 4.053 q -0.048,0 -0.107,-0.006 v 0.573 q 0,0.09 -0.045,0.113 -0.042,0.02 -0.107,0.02 -0.034,0 -0.054,-0.006 Q 3.72,72.679 3.706,72.667 3.695,72.653 3.686,72.627 3.681,72.603 3.678,72.557 3.672,72.507 3.67,72.411 L 3.664,72.157 q 0,-0.156 -0.003,-0.376 v -0.522 q 0,-0.116 0.028,-0.223 0.029,-0.11 0.102,-0.192 0.073,-0.084 0.197,-0.135 0.127,-0.051 0.322,-0.051 0.139,0 0.268,0.031 0.133,0.031 0.235,0.107 0.101,0.076 0.163,0.206 0.062,0.13 0.062,0.325 0,0.26 -0.113,0.403 -0.11,0.142 -0.304,0.2 l 0.378,0.52 q 0.05,0.068 0.05,0.138 0,0.057 -0.039,0.088 Q 4.973,72.71 4.917,72.71 4.855,72.71 4.81,72.676 4.765,72.639 4.725,72.583 Z m 0.443,-0.658 q 0,-0.194 -0.118,-0.288 -0.116,-0.096 -0.37,-0.096 -0.093,0 -0.155,0.017 -0.062,0.014 -0.1,0.057 -0.036,0.042 -0.053,0.118 -0.014,0.074 -0.014,0.19 v 0.191 q 0,0.11 0.003,0.2 0.065,0.004 0.144,0.004 h 0.152 q 0.08,0 0.167,-0.008 0.09,-0.012 0.166,-0.051 0.077,-0.042 0.127,-0.119 0.051,-0.079 0.051,-0.214 z M 5.304,72.247 5.293,72.002 Q 5.287,71.846 5.287,71.682 v -0.191 l 0.006,-0.206 q 0.005,-0.209 0.025,-0.328 0.023,-0.118 0.085,-0.177 0.065,-0.06 0.18,-0.074 0.116,-0.014 0.308,-0.014 h 0.06 q 0.059,0 0.14,0.003 0.082,0 0.17,0.003 l 0.15,0.006 q 0.062,0.006 0.098,0.017 0.04,0.008 0.06,0.025 0.02,0.015 0.025,0.037 0.006,0.02 0.006,0.045 0,0.065 -0.037,0.096 -0.037,0.029 -0.15,0.037 -0.056,0.006 -0.166,0.008 h -0.22 q -0.113,0 -0.204,0.003 H 5.711 q -0.074,0.003 -0.105,0.034 -0.028,0.028 -0.028,0.138 l 0.003,0.124 q 0.005,0.096 0.005,0.271 h 0.235 q 0.15,0 0.242,0.006 0.096,0.003 0.147,0.017 0.054,0.014 0.073,0.045 0.02,0.031 0.02,0.082 0,0.026 -0.005,0.048 -0.003,0.02 -0.023,0.037 -0.02,0.014 -0.057,0.025 -0.036,0.008 -0.104,0.014 -0.082,0.006 -0.155,0.008 H 5.581 v 0.345 q 0.002,0.06 0.005,0.096 0.003,0.045 0.012,0.076 0.01,0.03 0.036,0.05 0.028,0.02 0.08,0.029 0.053,0.008 0.14,0.008 h 0.607 q 0.099,0 0.124,0.037 0.026,0.036 0.026,0.098 0,0.051 -0.023,0.08 -0.022,0.025 -0.11,0.036 -0.085,0.014 -0.257,0.017 -0.17,0.003 -0.468,0.003 -0.127,0 -0.21,-0.023 Q 5.463,72.651 5.411,72.597 5.361,72.544 5.335,72.459 5.313,72.371 5.305,72.247 Z m 2.221,-1.564 q 0.079,0 0.18,0.015 0.105,0.011 0.195,0.045 0.09,0.031 0.153,0.085 0.062,0.05 0.062,0.127 0,0.045 -0.026,0.076 -0.025,0.03 -0.082,0.03 -0.042,0 -0.087,-0.016 -0.042,-0.017 -0.099,-0.034 -0.054,-0.02 -0.127,-0.037 -0.07,-0.017 -0.166,-0.017 -0.187,0 -0.277,0.068 -0.088,0.065 -0.088,0.18 0,0.08 0.04,0.133 0.04,0.054 0.104,0.094 0.068,0.036 0.15,0.062 0.085,0.025 0.172,0.048 0.099,0.025 0.195,0.062 0.099,0.036 0.175,0.096 0.076,0.059 0.121,0.15 0.048,0.09 0.048,0.228 0,0.144 -0.053,0.26 -0.054,0.112 -0.147,0.194 -0.093,0.08 -0.223,0.124 -0.13,0.043 -0.282,0.043 -0.085,0 -0.198,-0.017 -0.113,-0.014 -0.214,-0.051 -0.102,-0.04 -0.173,-0.102 -0.07,-0.065 -0.07,-0.158 0,-0.056 0.028,-0.09 0.031,-0.034 0.09,-0.034 0.048,0 0.08,0.02 0.03,0.017 0.053,0.04 0.085,0.073 0.192,0.098 0.107,0.026 0.22,0.026 0.065,0 0.136,-0.008 0.073,-0.012 0.132,-0.043 0.06,-0.03 0.099,-0.087 0.04,-0.06 0.04,-0.158 0,-0.09 -0.037,-0.147 Q 7.807,71.928 7.748,71.889 7.688,71.849 7.607,71.824 7.527,71.799 7.434,71.774 7.33,71.745 7.228,71.711 7.127,71.678 7.048,71.621 6.968,71.561 6.918,71.474 6.87,71.384 6.87,71.246 q 0,-0.138 0.05,-0.243 0.052,-0.104 0.14,-0.175 0.087,-0.07 0.205,-0.107 0.121,-0.037 0.26,-0.037 z m 0.971,1.564 Q 8.49,72.157 8.484,72.002 8.479,71.846 8.479,71.682 V 71.491 L 8.484,71.285 Q 8.49,71.076 8.51,70.957 8.532,70.839 8.594,70.78 8.659,70.72 8.775,70.706 8.891,70.692 9.083,70.692 h 0.059 q 0.06,0 0.141,0.003 0.082,0 0.17,0.003 l 0.149,0.006 q 0.062,0.006 0.099,0.017 0.04,0.008 0.059,0.025 0.02,0.015 0.025,0.037 0.006,0.02 0.006,0.045 0,0.065 -0.037,0.096 -0.036,0.029 -0.15,0.037 -0.056,0.006 -0.166,0.008 h -0.22 q -0.113,0 -0.203,0.003 H 8.902 q -0.073,0.003 -0.104,0.034 -0.029,0.028 -0.029,0.138 l 0.003,0.124 q 0.006,0.096 0.006,0.271 h 0.234 q 0.15,0 0.243,0.006 0.096,0.003 0.147,0.017 0.053,0.014 0.073,0.045 0.02,0.031 0.02,0.082 0,0.026 -0.006,0.048 -0.003,0.02 -0.023,0.037 -0.02,0.014 -0.056,0.025 -0.037,0.008 -0.104,0.014 -0.082,0.006 -0.156,0.008 H 8.772 v 0.345 l 0.006,0.096 q 0.003,0.045 0.011,0.076 0.011,0.03 0.037,0.05 0.028,0.02 0.079,0.029 0.053,0.008 0.14,0.008 h 0.608 q 0.098,0 0.124,0.037 0.025,0.036 0.025,0.098 0,0.051 -0.022,0.08 -0.023,0.025 -0.11,0.036 -0.085,0.014 -0.257,0.017 -0.17,0.003 -0.469,0.003 -0.127,0 -0.209,-0.023 Q 8.654,72.651 8.603,72.597 8.552,72.544 8.527,72.459 8.504,72.371 8.496,72.247 Z m 2.657,-1.287 q -0.079,0.006 -0.17,0.008 l -0.194,0.006 0.006,0.144 0.005,0.133 q 0.003,0.068 0.003,0.141 0.003,0.073 0.003,0.164 v 0.245 q 0,0.116 -0.003,0.234 l -0.006,0.235 q -0.002,0.118 -0.008,0.245 -0.003,0.068 -0.014,0.105 -0.009,0.036 -0.026,0.056 -0.017,0.02 -0.04,0.023 -0.022,0.006 -0.05,0.006 -0.05,0 -0.087,-0.034 -0.034,-0.037 -0.04,-0.153 -0.006,-0.101 -0.008,-0.214 0,-0.113 -0.003,-0.243 -0.003,-0.13 -0.003,-0.28 v -0.606 q 0.003,-0.116 0.008,-0.2 h -0.115 q -0.119,0 -0.203,-0.003 -0.082,-0.003 -0.136,-0.015 -0.054,-0.014 -0.079,-0.042 -0.022,-0.028 -0.022,-0.079 0,-0.025 0.005,-0.045 0.006,-0.023 0.026,-0.04 0.02,-0.02 0.053,-0.03 0.037,-0.012 0.093,-0.017 l 0.096,-0.006 0.085,-0.006 q 0.042,-0.003 0.087,-0.003 h 0.105 q 0.166,0 0.313,0.003 0.15,0.003 0.316,0.01 0.068,0.007 0.105,0.018 0.036,0.008 0.056,0.025 0.02,0.017 0.023,0.04 0.005,0.022 0.005,0.05 0,0.051 -0.036,0.085 -0.034,0.034 -0.15,0.04 z"
       id="path54"
       inkscape:connector-curvature="0" />
  </g>
  <path
     d="m 43.180156,79.503122 v 2.584282 m -19.666907,4.866487 v 2.584281 m 39.361973,-2.585561 v 2.585561 M 9.5652973,104.56387 v 2.58428 m 67.6393107,-2.58556 v 2.58556"
     id="path58"
     inkscape:connector-curvature="0"
     style="fill:none;stroke:#232323;stroke-width:0.132;stroke-opacity:1" />
  <g
     style="line-height:1.25;stroke-width:0.78126168;fill:#232323;fill-opacity:1"
     id="g62"
     transform="matrix(1.2799809,0,0,1.2799809,0,-0.09505041)">
    <path
       word-spacing="0"
       letter-spacing="0"
       font-size="2.822"
       font-weight="400"
       aria-label="CHAN"
       style="font-weight:400;font-size:2.82200003px;font-family:Sniglet;-inkscape-font-specification:'Sniglet, Normal';font-variant-ligatures:normal;font-variant-caps:normal;font-variant-numeric:normal;font-feature-settings:normal;text-align:start;letter-spacing:0;word-spacing:0;stroke-width:0.78126168;fill:#232323;fill-opacity:1"
       d="m 31.217,41.265 q 0.093,0 0.187,0.017 0.096,0.014 0.172,0.048 0.076,0.031 0.124,0.08 0.05,0.044 0.05,0.107 0,0.064 -0.033,0.098 -0.034,0.034 -0.085,0.034 -0.048,0 -0.084,-0.014 l -0.085,-0.037 q -0.045,-0.02 -0.11,-0.033 -0.065,-0.017 -0.172,-0.017 -0.108,0 -0.206,0.056 -0.096,0.054 -0.17,0.152 -0.07,0.096 -0.113,0.229 -0.042,0.133 -0.042,0.288 0,0.192 0.048,0.33 0.05,0.138 0.13,0.229 0.079,0.087 0.178,0.132 0.101,0.043 0.203,0.043 0.121,0 0.203,-0.026 0.082,-0.025 0.138,-0.056 0.06,-0.031 0.102,-0.057 0.042,-0.025 0.082,-0.025 0.048,0 0.076,0.028 0.028,0.026 0.028,0.093 0,0.057 -0.045,0.116 -0.042,0.057 -0.127,0.104 -0.082,0.046 -0.197,0.077 -0.116,0.028 -0.26,0.028 -0.158,0 -0.316,-0.062 -0.155,-0.062 -0.28,-0.184 -0.121,-0.124 -0.197,-0.307 -0.076,-0.187 -0.076,-0.432 0,-0.246 0.067,-0.438 0.07,-0.191 0.19,-0.324 0.12,-0.136 0.279,-0.206 0.16,-0.07 0.341,-0.07 z m 1.986,1.824 -0.011,-0.32 Q 33.189,42.6 33.189,42.38 l -0.192,0.006 h -0.44 q -0.105,0 -0.186,-0.003 l -0.006,0.344 q -0.003,0.164 -0.011,0.359 -0.003,0.068 -0.014,0.104 -0.009,0.037 -0.026,0.057 -0.017,0.02 -0.04,0.022 -0.02,0.006 -0.047,0.006 -0.051,0 -0.085,-0.034 -0.034,-0.036 -0.04,-0.152 -0.005,-0.102 -0.008,-0.212 0,-0.11 -0.003,-0.237 -0.003,-0.127 -0.003,-0.273 v -0.333 q 0,-0.2 0.003,-0.342 0.003,-0.144 0.014,-0.234 0.014,-0.09 0.043,-0.133 0.028,-0.042 0.079,-0.042 0.048,0 0.084,0.03 0.037,0.032 0.043,0.145 l 0.008,0.175 0.006,0.152 q 0.003,0.074 0.003,0.153 v 0.175 q 0.211,-0.008 0.414,-0.008 0.1,0 0.198,0.003 l 0.206,0.008 v -0.082 q 0,-0.2 0.003,-0.342 0.003,-0.144 0.014,-0.234 0.014,-0.09 0.042,-0.133 0.028,-0.042 0.08,-0.042 0.047,0 0.084,0.031 0.037,0.031 0.042,0.144 l 0.009,0.18 0.005,0.159 q 0.003,0.076 0.003,0.16 v 0.43 q 0,0.115 -0.003,0.228 l -0.005,0.229 q -0.003,0.115 -0.009,0.242 -0.003,0.068 -0.014,0.105 -0.008,0.037 -0.025,0.056 -0.017,0.02 -0.04,0.023 -0.02,0.006 -0.048,0.006 -0.05,0 -0.084,-0.034 -0.034,-0.037 -0.04,-0.152 z m 1.788,0.031 q -0.029,-0.068 -0.062,-0.156 l -0.068,-0.189 -0.178,0.006 h -0.41 q -0.098,0 -0.18,-0.003 l -0.065,0.187 q -0.03,0.087 -0.059,0.155 -0.056,0.144 -0.164,0.144 -0.04,0 -0.076,-0.026 -0.034,-0.025 -0.034,-0.073 0,-0.048 0.017,-0.124 0.017,-0.08 0.042,-0.167 l 0.06,-0.183 q 0.03,-0.096 0.059,-0.178 0.028,-0.09 0.079,-0.229 l 0.113,-0.293 0.118,-0.3 q 0.06,-0.149 0.108,-0.259 0.011,-0.028 0.028,-0.062 0.017,-0.037 0.04,-0.068 0.025,-0.03 0.053,-0.053 0.031,-0.023 0.068,-0.023 0.036,0 0.068,0.025 0.03,0.023 0.053,0.057 0.026,0.034 0.042,0.07 0.02,0.037 0.032,0.065 0.045,0.113 0.101,0.26 0.06,0.147 0.116,0.296 0.06,0.15 0.11,0.285 0.05,0.136 0.082,0.229 0.025,0.082 0.056,0.175 0.034,0.093 0.062,0.183 0.028,0.09 0.045,0.17 0.02,0.076 0.02,0.124 0,0.048 -0.037,0.073 -0.033,0.026 -0.073,0.026 -0.05,0 -0.093,-0.034 -0.042,-0.037 -0.073,-0.11 z m -0.5,-0.621 q 0.068,0 0.136,0.003 0.067,0 0.135,0.003 l -0.068,-0.198 -0.065,-0.189 -0.053,-0.166 -0.04,-0.139 q -0.011,-0.036 -0.025,-0.06 -0.014,-0.022 -0.037,-0.022 -0.022,0 -0.037,0.026 -0.014,0.022 -0.025,0.059 -0.034,0.116 -0.096,0.302 l -0.127,0.387 q 0.076,-0.003 0.153,-0.003 0.076,-0.003 0.15,-0.003 z m 2.094,0.632 q -0.09,-0.124 -0.172,-0.246 l -0.172,-0.27 q -0.09,-0.147 -0.21,-0.325 -0.115,-0.18 -0.279,-0.42 v 0.38 q 0,0.167 -0.002,0.31 l -0.006,0.272 q -0.003,0.127 -0.009,0.254 -0.002,0.067 -0.014,0.104 -0.008,0.037 -0.025,0.057 -0.017,0.02 -0.04,0.022 -0.02,0.006 -0.048,0.006 -0.05,0 -0.084,-0.034 -0.034,-0.036 -0.04,-0.152 -0.014,-0.31 -0.017,-0.621 v -0.646 q 0,-0.19 0.003,-0.297 0.006,-0.107 0.02,-0.16 0.017,-0.054 0.042,-0.068 0.028,-0.014 0.074,-0.014 0.045,0 0.118,0.07 0.073,0.068 0.161,0.18 0.087,0.114 0.186,0.26 0.102,0.147 0.2,0.302 0.1,0.156 0.19,0.308 l 0.169,0.277 q -0.003,-0.133 -0.003,-0.291 v -0.356 q 0,-0.223 0.003,-0.366 0.003,-0.147 0.014,-0.232 0.014,-0.085 0.042,-0.118 0.029,-0.034 0.08,-0.034 0.047,0 0.084,0.03 0.037,0.032 0.042,0.145 l 0.009,0.18 0.006,0.158 q 0.002,0.076 0.002,0.161 v 0.429 q 0,0.116 -0.002,0.229 l -0.006,0.228 q -0.003,0.116 -0.009,0.243 -0.002,0.068 -0.014,0.104 -0.008,0.037 -0.025,0.057 -0.017,0.02 -0.04,0.023 -0.02,0.006 -0.048,0.006 -0.047,0 -0.081,-0.029 -0.034,-0.028 -0.1,-0.115 z"
       id="path60"
       inkscape:connector-curvature="0" />
  </g>
  <g
     style="line-height:1.25;stroke-width:0.78126168;fill:#232323;fill-opacity:1"
     id="g66"
     transform="matrix(1.2799809,0,0,1.2799809,0,-0.09505041)">
    <path
       word-spacing="0"
       letter-spacing="0"
       font-size="2.822"
       font-weight="400"
       aria-label="LEN"
       style="font-weight:400;font-size:2.82200003px;font-family:Sniglet;-inkscape-font-specification:'Sniglet, Normal';font-variant-ligatures:normal;font-variant-caps:normal;font-variant-numeric:normal;font-feature-settings:normal;text-align:start;letter-spacing:0;word-spacing:0;stroke-width:0.78126168;fill:#232323;fill-opacity:1"
       d="m 55.847,28.986 v 0.16 q 0,0.068 -0.004,0.13 l -0.002,0.124 -0.006,0.139 0.305,-0.037 0.172,-0.023 q 0.065,-0.008 0.099,-0.01 0.036,-0.004 0.084,-0.004 0.125,0 0.125,0.121 0,0.048 -0.051,0.082 -0.048,0.034 -0.124,0.06 -0.074,0.022 -0.167,0.04 -0.09,0.013 -0.178,0.019 -0.084,0.008 -0.155,0.011 l -0.096,0.003 q -0.101,0 -0.158,-0.014 -0.056,-0.011 -0.085,-0.073 -0.028,-0.065 -0.036,-0.195 -0.006,-0.13 -0.006,-0.367 v -0.406 q 0,-0.178 0.003,-0.32 0.003,-0.14 0.003,-0.25 0.003,-0.11 0.008,-0.2 0.006,-0.117 0.04,-0.15 0.034,-0.037 0.084,-0.037 0.029,0 0.048,0.006 0.023,0.003 0.04,0.023 0.017,0.02 0.025,0.056 0.012,0.037 0.014,0.104 0.012,0.249 0.015,0.491 0.002,0.243 0.002,0.517 z m 1.013,0.358 q -0.006,-0.09 -0.012,-0.246 -0.005,-0.155 -0.005,-0.318 v -0.192 l 0.005,-0.206 q 0.006,-0.21 0.026,-0.328 0.022,-0.118 0.085,-0.178 0.064,-0.059 0.18,-0.073 0.116,-0.014 0.308,-0.014 h 0.059 q 0.06,0 0.141,0.003 0.082,0 0.17,0.003 l 0.15,0.006 q 0.061,0.006 0.098,0.017 0.04,0.008 0.06,0.025 0.019,0.014 0.025,0.037 0.005,0.02 0.005,0.045 0,0.065 -0.037,0.096 -0.036,0.028 -0.15,0.037 -0.056,0.006 -0.166,0.008 h -0.22 q -0.113,0 -0.203,0.003 h -0.113 q -0.073,0.003 -0.104,0.034 -0.029,0.028 -0.029,0.138 l 0.003,0.124 q 0.006,0.096 0.006,0.271 h 0.234 q 0.15,0 0.243,0.006 0.096,0.003 0.147,0.017 0.053,0.014 0.073,0.045 0.02,0.031 0.02,0.082 0,0.026 -0.006,0.048 -0.003,0.02 -0.022,0.037 -0.02,0.014 -0.057,0.025 -0.037,0.008 -0.104,0.014 -0.082,0.006 -0.156,0.008 h -0.378 v 0.345 l 0.006,0.096 q 0.003,0.045 0.011,0.076 0.011,0.03 0.037,0.05 0.028,0.02 0.079,0.029 0.053,0.008 0.141,0.008 h 0.607 q 0.099,0 0.124,0.037 0.025,0.036 0.025,0.098 0,0.051 -0.022,0.08 -0.023,0.025 -0.11,0.036 -0.085,0.014 -0.257,0.017 -0.17,0.003 -0.469,0.003 -0.127,0 -0.208,-0.023 -0.082,-0.022 -0.133,-0.076 -0.05,-0.053 -0.076,-0.138 -0.023,-0.088 -0.031,-0.212 z m 2.677,0.296 q -0.09,-0.124 -0.172,-0.245 -0.08,-0.124 -0.172,-0.271 -0.09,-0.147 -0.21,-0.325 -0.115,-0.18 -0.279,-0.42 v 0.38 q 0,0.167 -0.002,0.311 l -0.006,0.271 q -0.003,0.127 -0.009,0.254 -0.002,0.068 -0.014,0.105 -0.008,0.036 -0.025,0.056 -0.017,0.02 -0.04,0.023 -0.02,0.006 -0.048,0.006 -0.05,0 -0.084,-0.034 -0.034,-0.037 -0.04,-0.153 -0.014,-0.31 -0.017,-0.62 v -0.647 q 0,-0.189 0.003,-0.296 0.006,-0.107 0.02,-0.161 0.017,-0.054 0.042,-0.068 0.028,-0.014 0.074,-0.014 0.045,0 0.118,0.07 0.074,0.068 0.161,0.181 0.087,0.113 0.186,0.26 0.102,0.147 0.2,0.302 0.1,0.155 0.19,0.307 l 0.17,0.277 q -0.004,-0.133 -0.004,-0.29 v -0.356 q 0,-0.223 0.003,-0.367 0.003,-0.147 0.014,-0.232 0.014,-0.084 0.042,-0.118 0.029,-0.034 0.08,-0.034 0.047,0 0.084,0.031 0.037,0.031 0.043,0.144 l 0.008,0.18 0.006,0.159 q 0.002,0.076 0.002,0.16 v 0.429 q 0,0.116 -0.002,0.23 l -0.006,0.228 -0.008,0.242 q -0.003,0.068 -0.015,0.105 -0.008,0.037 -0.025,0.056 -0.017,0.02 -0.04,0.023 -0.02,0.006 -0.047,0.006 -0.048,0 -0.082,-0.028 -0.034,-0.029 -0.1,-0.116 z"
       id="path64"
       inkscape:connector-curvature="0" />
  </g>
  <path
     d="m 29.344842,112.48695 h 3.217872"
     id="path68"
     inkscape:connector-curvature="0"
     style="fill:none;stroke:#232323;stroke-width:0.132;stroke-opacity:1" />
  <g
     style="line-height:1.25;stroke-width:0.78126168;fill:#232323;fill-opacity:1"
     id="g72"
     transform="matrix(1.2799809,0,0,1.2799809,0,-0.09505041)">
    <path
       d="m 46.65,82.099 q 0.079,0 0.18,0.014 0.105,0.011 0.195,0.045 0.09,0.031 0.153,0.085 0.062,0.05 0.062,0.127 0,0.045 -0.026,0.076 -0.025,0.031 -0.081,0.031 -0.043,0 -0.088,-0.017 -0.042,-0.017 -0.099,-0.034 -0.053,-0.02 -0.127,-0.036 -0.07,-0.017 -0.166,-0.017 -0.186,0 -0.277,0.067 -0.087,0.065 -0.087,0.181 0,0.08 0.04,0.133 0.039,0.053 0.104,0.093 0.067,0.037 0.15,0.062 0.084,0.025 0.171,0.048 0.1,0.025 0.195,0.062 0.099,0.037 0.175,0.096 0.076,0.06 0.122,0.15 0.047,0.09 0.047,0.228 0,0.144 -0.053,0.26 -0.054,0.113 -0.147,0.195 -0.093,0.079 -0.223,0.124 -0.13,0.042 -0.282,0.042 -0.085,0 -0.198,-0.017 -0.113,-0.014 -0.214,-0.05 -0.102,-0.04 -0.172,-0.102 -0.07,-0.065 -0.07,-0.158 0,-0.057 0.027,-0.09 0.031,-0.034 0.09,-0.034 0.049,0 0.08,0.02 0.03,0.016 0.053,0.039 0.085,0.073 0.192,0.099 0.107,0.025 0.22,0.025 0.065,0 0.136,-0.009 0.073,-0.01 0.132,-0.042 0.06,-0.03 0.1,-0.087 0.039,-0.06 0.039,-0.158 0,-0.09 -0.037,-0.147 -0.034,-0.06 -0.093,-0.099 -0.06,-0.04 -0.141,-0.065 -0.08,-0.025 -0.172,-0.05 -0.105,-0.029 -0.206,-0.063 -0.102,-0.034 -0.181,-0.09 -0.079,-0.06 -0.13,-0.147 -0.048,-0.09 -0.048,-0.228 0,-0.139 0.051,-0.243 0.05,-0.105 0.138,-0.175 0.088,-0.07 0.206,-0.107 0.122,-0.037 0.26,-0.037 z m 2.072,1.86 q -0.09,-0.124 -0.173,-0.246 l -0.172,-0.27 q -0.09,-0.147 -0.209,-0.325 -0.115,-0.18 -0.279,-0.42 v 0.38 q 0,0.167 -0.003,0.31 l -0.005,0.272 q -0.003,0.127 -0.009,0.254 -0.003,0.067 -0.014,0.104 -0.008,0.037 -0.025,0.057 -0.017,0.02 -0.04,0.022 -0.02,0.006 -0.048,0.006 -0.05,0 -0.085,-0.034 -0.033,-0.037 -0.039,-0.153 -0.014,-0.31 -0.017,-0.62 v -0.647 q 0,-0.189 0.003,-0.296 0.005,-0.107 0.02,-0.16 0.017,-0.055 0.042,-0.069 0.028,-0.014 0.073,-0.014 0.045,0 0.119,0.07 0.073,0.069 0.16,0.181 0.088,0.113 0.187,0.26 0.102,0.147 0.2,0.302 0.1,0.155 0.19,0.308 l 0.169,0.276 q -0.003,-0.132 -0.003,-0.29 v -0.356 q 0,-0.223 0.003,-0.367 0.003,-0.147 0.014,-0.231 0.014,-0.085 0.042,-0.119 0.028,-0.034 0.08,-0.034 0.047,0 0.084,0.031 0.037,0.031 0.042,0.144 l 0.009,0.18 0.005,0.159 q 0.003,0.076 0.003,0.16 v 0.43 q 0,0.115 -0.003,0.228 l -0.005,0.229 q -0.003,0.116 -0.009,0.243 -0.003,0.067 -0.014,0.104 -0.008,0.037 -0.025,0.057 -0.017,0.02 -0.04,0.022 -0.02,0.006 -0.048,0.006 -0.048,0 -0.082,-0.029 -0.033,-0.028 -0.098,-0.115 z m 1.845,-0.011 -0.062,-0.156 q -0.031,-0.09 -0.068,-0.189 l -0.178,0.006 H 49.85 q -0.099,0 -0.18,-0.003 l -0.065,0.186 q -0.031,0.088 -0.06,0.156 -0.056,0.143 -0.163,0.143 -0.04,0 -0.077,-0.025 -0.033,-0.025 -0.033,-0.073 0,-0.048 0.016,-0.124 0.017,-0.08 0.043,-0.167 0.028,-0.09 0.06,-0.183 0.03,-0.096 0.058,-0.178 0.029,-0.09 0.08,-0.229 l 0.112,-0.293 0.119,-0.3 q 0.06,-0.15 0.107,-0.26 0.011,-0.027 0.028,-0.061 0.017,-0.037 0.04,-0.068 0.025,-0.031 0.053,-0.054 0.031,-0.022 0.068,-0.022 0.037,0 0.068,0.025 0.03,0.023 0.053,0.057 0.026,0.034 0.043,0.07 0.02,0.037 0.03,0.065 0.046,0.113 0.102,0.26 0.06,0.147 0.116,0.296 0.06,0.15 0.11,0.285 0.051,0.136 0.082,0.229 0.025,0.082 0.057,0.175 0.033,0.093 0.062,0.183 0.028,0.09 0.045,0.17 0.02,0.076 0.02,0.124 0,0.048 -0.037,0.073 -0.034,0.025 -0.074,0.025 -0.05,0 -0.093,-0.033 -0.042,-0.037 -0.073,-0.11 z m -0.5,-0.621 0.136,0.002 q 0.068,0 0.135,0.003 l -0.067,-0.197 -0.065,-0.19 q -0.028,-0.09 -0.054,-0.166 l -0.04,-0.138 q -0.01,-0.037 -0.025,-0.06 -0.014,-0.022 -0.036,-0.022 -0.023,0 -0.037,0.025 -0.014,0.023 -0.026,0.06 -0.033,0.115 -0.096,0.302 -0.059,0.183 -0.127,0.386 0.077,-0.003 0.153,-0.003 l 0.15,-0.002 z m 1.259,0.587 q 0,0.067 -0.014,0.104 -0.012,0.037 -0.031,0.057 -0.017,0.02 -0.043,0.022 -0.022,0.006 -0.045,0.006 -0.076,0 -0.101,-0.034 -0.023,-0.034 -0.031,-0.153 -0.006,-0.062 -0.009,-0.18 l -0.006,-0.282 -0.002,-0.362 v -0.417 q 0,-0.105 0.025,-0.212 0.025,-0.107 0.096,-0.195 0.073,-0.087 0.2,-0.14 0.13,-0.054 0.336,-0.054 0.144,0 0.274,0.03 0.13,0.032 0.229,0.108 0.098,0.076 0.158,0.203 0.059,0.127 0.059,0.316 0,0.198 -0.065,0.328 -0.065,0.13 -0.183,0.206 -0.119,0.076 -0.283,0.107 -0.163,0.03 -0.358,0.03 h -0.096 q -0.048,0 -0.107,-0.005 z m 0.813,-1.188 q 0,-0.19 -0.108,-0.286 -0.104,-0.095 -0.35,-0.095 -0.093,0 -0.16,0.016 -0.065,0.015 -0.108,0.054 -0.042,0.037 -0.065,0.102 -0.02,0.065 -0.02,0.163 v 0.22 q 0,0.122 0.003,0.23 0.065,0.002 0.144,0.002 h 0.153 q 0.084,0 0.175,-0.011 0.093,-0.012 0.166,-0.051 0.074,-0.043 0.122,-0.122 0.048,-0.081 0.048,-0.222 z"
       style="font-weight:400;font-size:2.82200003px;font-family:Sniglet;-inkscape-font-specification:'Sniglet, Normal';font-variant-ligatures:normal;font-variant-caps:normal;font-variant-numeric:normal;font-feature-settings:normal;text-align:start;letter-spacing:0;word-spacing:0;stroke-width:0.78126168;fill:#232323;fill-opacity:1"
       aria-label="SNAP"
       font-weight="400"
       font-size="2.822"
       letter-spacing="0"
       word-spacing="0"
       id="path70"
       inkscape:connector-curvature="0" />
  </g>
  <path
     d="M 54.044634,112.48567 H 57.60042"
     id="path74"
     inkscape:connector-curvature="0"
     style="fill:none;stroke:#232323;stroke-width:0.132;stroke-opacity:1" />
  <g
     style="line-height:1.25;stroke-width:0.78126168;fill:#232323;fill-opacity:1"
     id="g78"
     transform="matrix(1.2799809,0,0,1.2799809,0,-0.09505041)">
    <path
       d="m 58.255,60.424 q -0.13,-0.285 -0.232,-0.55 -0.098,-0.268 -0.169,-0.477 -0.065,0.35 -0.11,0.705 -0.042,0.356 -0.11,0.68 -0.017,0.074 -0.062,0.1 -0.045,0.022 -0.076,0.022 -0.051,0 -0.082,-0.031 -0.028,-0.031 -0.028,-0.08 0,-0.064 0.014,-0.197 l 0.04,-0.305 q 0.025,-0.169 0.056,-0.355 0.03,-0.187 0.062,-0.359 l 0.062,-0.316 q 0.03,-0.14 0.054,-0.217 0.036,-0.13 0.15,-0.13 0.067,0 0.115,0.068 0.048,0.065 0.101,0.203 0.057,0.135 0.133,0.344 0.08,0.21 0.203,0.491 0.122,-0.282 0.195,-0.488 0.076,-0.209 0.127,-0.344 0.054,-0.138 0.102,-0.203 0.048,-0.068 0.118,-0.068 0.065,0 0.099,0.034 0.034,0.03 0.05,0.096 0.02,0.079 0.049,0.22 0.028,0.138 0.059,0.31 0.034,0.17 0.065,0.356 l 0.056,0.356 q 0.026,0.169 0.04,0.307 0.017,0.136 0.017,0.209 0,0.045 -0.031,0.073 -0.031,0.026 -0.08,0.026 -0.03,0 -0.076,-0.023 -0.045,-0.025 -0.062,-0.099 -0.033,-0.16 -0.062,-0.333 l -0.05,-0.347 -0.046,-0.353 q -0.022,-0.177 -0.048,-0.352 -0.036,0.113 -0.084,0.248 -0.048,0.135 -0.102,0.274 -0.054,0.135 -0.11,0.268 -0.056,0.133 -0.11,0.24 -0.02,0.036 -0.054,0.056 -0.03,0.017 -0.065,0.017 -0.036,0 -0.07,-0.017 -0.031,-0.02 -0.048,-0.059 z m 1.339,0.051 q -0.006,-0.09 -0.012,-0.246 -0.005,-0.155 -0.005,-0.319 v -0.192 l 0.005,-0.206 q 0.006,-0.208 0.026,-0.327 0.022,-0.119 0.084,-0.178 0.065,-0.06 0.181,-0.073 0.116,-0.014 0.308,-0.014 h 0.059 q 0.06,0 0.141,0.003 l 0.17,0.002 0.149,0.006 q 0.062,0.006 0.099,0.017 0.04,0.008 0.059,0.025 0.02,0.014 0.025,0.037 0.006,0.02 0.006,0.045 0,0.065 -0.037,0.096 -0.036,0.028 -0.15,0.037 -0.056,0.005 -0.166,0.008 h -0.22 q -0.113,0 -0.203,0.003 H 60 q -0.073,0.003 -0.104,0.034 -0.029,0.028 -0.029,0.138 l 0.003,0.124 q 0.006,0.096 0.006,0.271 h 0.234 q 0.15,0 0.243,0.006 0.096,0.003 0.146,0.017 0.054,0.014 0.074,0.045 0.02,0.031 0.02,0.082 0,0.025 -0.006,0.048 -0.003,0.02 -0.023,0.037 -0.02,0.014 -0.056,0.025 -0.037,0.008 -0.105,0.014 -0.081,0.006 -0.155,0.009 H 59.87 v 0.344 l 0.006,0.096 q 0.002,0.045 0.011,0.076 0.011,0.031 0.037,0.05 0.028,0.02 0.079,0.029 0.053,0.009 0.14,0.009 h 0.608 q 0.098,0 0.124,0.036 0.025,0.037 0.025,0.099 0,0.05 -0.022,0.079 -0.023,0.025 -0.11,0.037 -0.085,0.014 -0.257,0.017 -0.17,0.002 -0.469,0.002 -0.127,0 -0.209,-0.022 -0.081,-0.023 -0.132,-0.076 -0.051,-0.054 -0.076,-0.139 -0.023,-0.087 -0.032,-0.211 z m 2.316,-0.051 q -0.13,-0.285 -0.232,-0.55 -0.099,-0.268 -0.17,-0.477 -0.064,0.35 -0.11,0.705 -0.042,0.356 -0.11,0.68 -0.016,0.074 -0.062,0.1 -0.045,0.022 -0.076,0.022 -0.05,0 -0.082,-0.031 -0.028,-0.031 -0.028,-0.08 0,-0.064 0.014,-0.197 l 0.04,-0.305 q 0.025,-0.169 0.056,-0.355 0.031,-0.187 0.062,-0.359 l 0.062,-0.316 q 0.031,-0.14 0.054,-0.217 0.037,-0.13 0.15,-0.13 0.067,0 0.115,0.068 0.048,0.065 0.102,0.203 0.056,0.135 0.133,0.344 0.079,0.21 0.203,0.491 0.121,-0.282 0.195,-0.488 0.076,-0.209 0.127,-0.344 0.053,-0.138 0.101,-0.203 0.048,-0.068 0.119,-0.068 0.065,0 0.098,0.034 0.034,0.03 0.051,0.096 0.02,0.079 0.048,0.22 0.028,0.138 0.06,0.31 0.033,0.17 0.064,0.356 0.031,0.186 0.057,0.356 0.025,0.169 0.04,0.307 0.016,0.136 0.016,0.209 0,0.045 -0.03,0.073 -0.032,0.026 -0.08,0.026 -0.03,0 -0.076,-0.023 -0.045,-0.025 -0.062,-0.099 -0.034,-0.16 -0.062,-0.333 -0.026,-0.172 -0.05,-0.347 l -0.046,-0.353 q -0.023,-0.177 -0.048,-0.352 -0.037,0.113 -0.085,0.248 -0.048,0.135 -0.101,0.274 -0.054,0.135 -0.11,0.268 -0.057,0.133 -0.11,0.24 -0.02,0.036 -0.054,0.056 -0.031,0.017 -0.065,0.017 -0.037,0 -0.07,-0.017 -0.032,-0.02 -0.049,-0.059 z"
       style="font-weight:400;font-size:2.82200003px;font-family:Sniglet;-inkscape-font-specification:'Sniglet, Normal';font-variant-ligatures:normal;font-variant-caps:normal;font-variant-numeric:normal;font-feature-settings:normal;text-align:start;letter-spacing:0;word-spacing:0;stroke-width:0.78126168;fill:#232323;fill-opacity:1"
       aria-label="MEM"
       font-weight="400"
       font-size="2.822"
       letter-spacing="0"
       word-spacing="0"
       id="path76"
       inkscape:connector-curvature="0" />
  </g>
  <path
     d="m 77.106049,87.02685 v 2.167007 M 73.547703,51.801775 v 2.167008"
     id="path80"
     inkscape:connector-curvature="0"
     style="fill:none;stroke:#232323;stroke-width:0.132;stroke-opacity:1" />
  <path
     d="m 43.180156,92.141615 v 2.067008"
     id="path80-7"
     inkscape:connector-curvature="0"
     style="fill:none;stroke:#232323;stroke-width:0.132;stroke-opacity:1"
     sodipodi:nodetypes="cc" />
</svg>
