<?xml version="1.0" encoding="UTF-8" standalone="no"?>
<svg
   width="45.720001mm"
   height="128.5mm"
   viewBox="0 0 45.720577 128.50044"
   version="1.1"
   id="svg28"
   sodipodi:docname="BlankPanel.svg"
   inkscape:version="1.1 (c68e22c387, 2021-05-23)"
   xmlns:inkscape="http://www.inkscape.org/namespaces/inkscape"
   xmlns:sodipodi="http://sodipodi.sourceforge.net/DTD/sodipodi-0.dtd"
   xmlns="http://www.w3.org/2000/svg"
   xmlns:svg="http://www.w3.org/2000/svg"
   xmlns:rdf="http://www.w3.org/1999/02/22-rdf-syntax-ns#"
   xmlns:cc="http://creativecommons.org/ns#"
   xmlns:dc="http://purl.org/dc/elements/1.1/">
  <metadata
     id="metadata32">
    <rdf:RDF>
      <cc:Work
         rdf:about="">
        <dc:format>image/svg+xml</dc:format>
        <dc:type
           rdf:resource="http://purl.org/dc/dcmitype/StillImage" />
        <dc:title />
      </cc:Work>
    </rdf:RDF>
  </metadata>
  <sodipodi:namedview
     pagecolor="#ffffff"
     bordercolor="#666666"
     borderopacity="1"
     objecttolerance="10"
     gridtolerance="10"
     guidetolerance="10"
     inkscape:pageopacity="0"
     inkscape:pageshadow="2"
     inkscape:window-width="907"
     inkscape:window-height="991"
     id="namedview30"
     showgrid="false"
     inkscape:document-units="mm"
     units="mm"
     inkscape:zoom="1.174946"
     inkscape:cx="84.259191"
     inkscape:cy="253.20313"
     inkscape:window-x="45"
     inkscape:window-y="25"
     inkscape:window-maximized="0"
     inkscape:current-layer="svg28"
     inkscape:pagecheckerboard="0" />
  <defs
     id="defs8">
    <clipPath
       id="a">
      <path
         d="M 0,0 V 100.542 H 39.687 V 0 Z"
         id="path2"
         inkscape:connector-curvature="0"
         style="fill:#dcdcdc" />
    </clipPath>
  </defs>
  <path
     d="m 41.72,50.68 0.818,-1.782 a 0.162,0.162 0 0 0 -0.014,-0.152 l -0.718,-1.05 -0.144,-1.667 0.188,-1.195 0.166,-0.406 0.877,1.225 a 0.057,0.057 0 0 0 0.029,0.029 c 0.08,0.058 2.028,1.383 2.173,1.477 0.116,0.08 0.297,0.34 0.297,0.645 0,0.254 -0.058,0.558 -0.123,0.949 -0.022,0.13 -0.044,0.268 -0.073,0.413 -0.021,0.109 -0.05,0.224 -0.08,0.348 -0.303,2.42 2.895,5.125 0.486,1.774 -0.521,-0.71 -0.391,-1.224 -0.26,-1.716 a 3.41,3.41 0 0 0 0.086,-0.37 c 0.022,-0.145 0.051,-0.282 0.073,-0.406 0.072,-0.405 0.13,-0.724 0.13,-0.992 0,-0.37 -0.203,-0.71 -0.398,-0.84 a 810.58,810.58 0 0 1 -2.152,-1.47 l -0.905,-1.268 c -0.015,-0.022 -0.03,-0.03 -0.05,-0.044 l 0.427,-1.065 a 0.18,0.18 0 0 0 0,-0.123 l -0.689,-1.528 c 0,-0.007 -0.007,-0.007 -0.007,-0.015 l -1.405,-2.484 0.043,-0.783 c 0,-0.021 0,-0.05 -0.014,-0.072 l -0.442,-0.963 0.406,-0.776 a 0.164,0.164 0 0 0 0.007,-0.13 l -0.319,-0.775 c 0.116,-0.225 0.297,-0.55 0.384,-0.637 0.152,-0.153 0.522,-1.34 0.724,-2.043 a 0.147,0.147 0 0 0 0,-0.08 l -0.253,-1.137 c 0,-0.007 0,-0.007 -0.007,-0.015 -0.196,-0.6 -0.399,-1.289 -0.399,-1.383 0,-0.123 -0.268,-0.667 -0.79,-1.608 -0.014,-0.022 -0.072,-0.044 -0.094,-0.058 L 38.858,28 v -1.485 c 0,-0.022 0.036,-0.044 0.022,-0.065 l -0.529,-1.145 0.174,-1.239 A 0.138,0.138 0 0 0 38.51,23.972 l -0.5,-0.92 0.414,-0.912 c 0,-0.007 0.007,-0.015 0.007,-0.022 l 0.348,-1.232 a 0.185,0.185 0 0 0 -0.008,-0.108 l -0.485,-1.014 -0.427,-1.55 a 0.163,0.163 0 0 0 -0.153,-0.116 c -0.072,0 -0.13,0.05 -0.152,0.116 l -0.203,0.796 -0.593,0.87 c 0,0 0,0.007 -0.008,0.007 l -0.724,1.188 c -0.007,0.007 -0.007,0.014 -0.015,0.022 l -0.68,1.579 c -0.008,0.021 -0.051,0.036 -0.051,0.058 v 0.992 l -0.203,0.884 -1.615,1.202 c -0.008,0.007 -0.008,0.015 -0.022,0.03 l -1.188,1.477 -0.927,1.08 -0.55,0.52 c -0.03,0.03 -0.08,0.066 -0.08,0.11 v 1.224 l -0.21,0.775 c -0.059,0.188 -0.138,0.521 -0.218,0.796 -0.029,-0.007 -0.043,0 -0.065,0.015 l -1.203,0.717 c -0.007,0.007 -0.014,0.007 -0.021,0.015 l -0.696,0.688 c -0.007,0.007 -0.007,0.014 -0.014,0.014 l -0.978,1.485 c -0.007,0.007 -0.007,0.015 -0.015,0.03 l -0.246,0.738 c 0,0.007 -0.224,0.63 -0.362,0.87 a 4.38,4.38 0 0 1 -0.406,0.528 c -0.014,0.022 -0.065,0.044 -0.065,0.072 v 1.978 l -0.326,1.282 -0.529,0.811 -1.5,1.174 v 0.007 c -0.187,0.181 -0.81,0.782 -0.861,0.992 -0.05,0.196 -0.34,0.97 -0.478,1.203 -0.16,0.268 -0.413,1.231 -0.304,1.666 0.08,0.333 -0.007,0.876 -0.022,0.97 l -0.826,1.753 -0.166,0.32 -0.073,-0.124 -0.297,-0.79 -0.934,-1.477 0.246,-1.478 -0.297,-1.63 -0.05,-1.579 -0.247,-0.891 -0.05,-0.594 -0.298,-0.934 -0.297,-1.138 -0.145,-1.231 -0.492,-0.84 -0.196,-0.594 -0.101,-0.688 0.246,-0.544 -0.101,-1.528 -0.297,-1.434 -0.348,-0.891 -0.739,-1.435 0.05,-0.39 0.935,-1.087 -0.021,-1.384 0.18,-1.086 v -0.862 l 0.225,-1.594 0.768,-1.087 0.116,-0.594 -0.29,-0.688 -0.101,-2.296 -0.703,0.036 v 2.796 l 0.218,0.493 -0.84,1.18 v 2.833 l -0.312,0.521 v 1.42 l -1.014,1.391 v 0.058 l -0.602,0.275 c -0.007,0 0.015,0.044 0.007,0.05 l -0.775,0.559 h -1.789 l -0.623,-0.297 c -0.058,-0.022 -0.123,-0.03 -0.166,0.014 l -0.645,0.601 a 0.113,0.113 0 0 0 -0.044,0.058 l -0.29,0.899 -0.716,0.992 -0.594,0.55 -0.74,-0.434 a 0.157,0.157 0 0 0 -0.159,0 l -0.84,0.492 a 0.146,0.146 0 0 0 -0.065,0.08 l -0.217,0.572 -1.065,0.326 -0.985,0.297 a 0.151,0.151 0 0 0 -0.08,0.058 l -0.435,0.543 c -0.021,0.03 -0.065,0.058 -0.065,0.095 v 0.623 L 4.66,35.801 c -0.029,0.029 -0.021,0.072 -0.021,0.116 0,0.043 0.036,0.08 0.065,0.109 a 0.53,0.53 0 0 1 0.065,0.058 c -0.007,0.007 -0.022,0.007 -0.036,0.014 -0.348,0.101 -1.087,0.34 -1.116,0.348 -0.065,0.021 -0.145,0.08 -0.145,0.145 v 0.6 c 0,0.037 0.051,0.073 0.073,0.095 L 3.827,37.612 3.639,38.264 3.226,39.3 c -0.058,0.145 -0.217,0.637 0.087,0.79 0.058,0.036 0.13,0.282 0.16,0.528 L 2.755,41.154 C 2.741,41.161 2.734,41.176 2.719,41.19 L 2.277,41.835 C 2.27,41.85 2.263,41.857 2.256,41.871 l -0.24,0.717 -0.449,0.609 -0.644,0.529 c -0.036,0.029 -0.094,0.072 -0.094,0.116 v 0.434 l -0.464,0.493 c -0.007,0.007 0,0.014 0,0.029 L -0.171,45.66 -1.214,46.384 -1.236,46.406 -1.757,47 a 0.16,0.16 0 0 0 -0.022,0.036 l -0.58,1.123 c 0,0 -0.623,0.89 -0.557,0.949 0.029,0.021 0.81,-0.768 0.81,-0.768 0.008,-0.007 0.015,-0.015 0.015,-0.022 l 0.58,-1.115 0.507,-0.565 1.058,-0.74 0.043,-0.043 0.55,-0.876 0.537,-0.529 A 0.157,0.157 0 0 0 1.22,44.392 l 0.13,0.587 -0.239,1.108 v 0.036 c 0,0.007 0.05,0.428 0,0.703 -0.05,0.26 -0.304,0.833 -0.34,0.905 -0.044,0.073 -0.363,0.587 -0.363,0.942 0,0.26 -0.224,1.18 -0.159,1.195 0.007,0 0.188,-0.224 0.21,-0.297 0.094,-0.297 0.189,-0.608 0.189,-0.898 0,-0.254 0.239,-0.68 0.325,-0.826 0,-0.007 0.007,-0.007 0.007,-0.014 0.015,-0.03 0.305,-0.66 0.355,-0.964 a 2.82,2.82 0 0 0 0,-0.753 L 1.575,45 V 44.95 L 1.328,43.885 a 0.115,0.115 0 0 0 -0.029,-0.05 l 0.478,-0.42 0.022,-0.023 0.47,-0.644 0.022,-0.044 0.24,-0.717 0.412,-0.601 0.768,-0.58 C 3.755,40.777 3.776,40.719 3.776,40.669 3.762,40.451 3.69,39.937 3.443,39.807 c -0.029,-0.051 0,-0.247 0.065,-0.399 l 0.42,-1.036 c 0,-0.007 0,-0.007 0.008,-0.014 L 4.16,37.619 C 4.175,37.569 4.124,37.518 4.095,37.474 L 3.776,37.127 v -0.435 c 0.232,-0.073 0.739,-0.232 0.993,-0.304 0.195,-0.058 0.275,-0.16 0.29,-0.24 A 0.335,0.335 0 0 0 5,35.896 l 0.326,-0.391 c 0.03,-0.03 0.007,-0.065 0.007,-0.101 V 34.766 L 5.703,34.31 7.796,33.687 C 7.84,33.672 7.89,33.637 7.905,33.593 l 0.232,-0.587 0.717,-0.42 0.76,0.449 a 0.154,0.154 0 0 0 0.189,-0.022 l 0.021,-0.022 -0.434,1.5 c -0.007,0.029 -0.007,0.058 0.007,0.08 0.058,0.123 0.58,1.21 0.695,1.39 0.007,0.087 -0.145,0.442 -0.34,0.768 0,0 0,0.007 -0.007,0.007 -0.007,0.022 -0.254,0.5 -0.348,0.746 l -0.101,0.247 c -0.087,0.21 -0.29,0.869 -0.225,0.89 0.015,0.008 0.03,0.008 0.044,0.008 0.05,0 0.318,-0.602 0.398,-0.812 0.036,-0.094 0.072,-0.174 0.101,-0.253 0.095,-0.225 0.32,-0.681 0.34,-0.725 0.32,-0.528 0.436,-0.869 0.341,-1.007 C 10.23,35.729 9.868,34.997 9.629,34.505 l 0.492,-1.63 c 0.015,-0.043 0,-0.08 -0.029,-0.109 l 0.42,-0.384 0.022,-0.021 0.74,-1.029 0.02,-0.043 0.283,-0.884 0.544,-0.514 0.557,0.268 c 0.022,0.007 0.037,0.05 0.058,0.05 h 1.862 c 0.029,0 0.058,-0.05 0.087,-0.065 l 0.775,-0.55 0.464,-0.24 v 0.392 l 1.137,2.028 0.42,2.267 -0.087,0.594 -0.282,0.442 0.39,1.58 0.348,0.84 0.247,0.543 v 1.542 l -0.413,1.108 -0.927,1.405 h -0.761 c -0.036,0 -0.072,-0.021 -0.094,0.007 -0.015,0.015 -0.275,0.37 -0.377,0.572 -0.029,0.066 -0.065,0.145 -0.109,0.254 -0.08,0.217 -0.195,0.5 -0.311,0.623 -0.044,0.036 -0.109,0.101 -0.196,0.167 -0.333,0.282 -0.833,0.717 -0.876,1.072 -0.022,0.18 0.036,0.318 0.08,0.427 0.065,0.152 0.116,0.254 -0.066,0.507 -0.347,0.493 -0.507,0.927 -0.449,0.956 a 0.139,0.139 0 0 0 0.051,0.015 c 0.044,0 0.254,-0.355 0.587,-0.84 0.253,-0.355 0.16,-0.558 0.087,-0.732 a 0.525,0.525 0 0 1 -0.066,-0.304 c 0.037,-0.268 0.53,-0.696 0.797,-0.928 0.087,-0.08 0.16,-0.137 0.203,-0.18 0.152,-0.153 0.275,-0.464 0.37,-0.71 0.036,-0.102 0.072,-0.145 0.1,-0.203 0.073,-0.145 0.247,-0.392 0.327,-0.471 h 0.753 c 0.036,0 0.073,-0.058 0.094,-0.087 l 1.029,-1.449 c 0.007,-0.007 0.007,-0.022 0.015,-0.029 l 0.405,-0.927 0.116,0.268 0.174,0.587 v 0.623 l 0.391,1.007 v 1.948 l 0.312,0.616 v 1.173 l -0.218,0.855 h 0.03 l -0.522,0.478 c -0.03,0.03 -0.073,0.073 -0.073,0.109 v 2.361 l -0.63,0.493 -0.898,0.362 h -0.34 c -0.037,0 -0.073,-0.029 -0.102,0 l -0.507,0.384 c -0.036,0.029 -0.094,0.05 -0.094,0.101 v 0.84 c 0,0.03 0.043,0.059 0.065,0.08 l 0.058,0.066 -0.203,0.325 -1.043,0.609 -1.014,0.239 a 0.143,0.143 0 0 0 -0.058,0.029 c -0.152,0.116 -0.666,0.522 -0.775,0.68 -0.058,0.088 -0.522,0.276 -0.79,0.327 -0.145,0.029 -0.355,0.16 -0.586,0.29 -0.153,0.087 -0.377,0.224 -0.45,0.239 -0.152,-0.022 -0.275,0.13 -0.507,0.427 -0.116,0.152 -0.355,0.456 -0.456,0.5 -0.16,-0.073 -0.768,-0.319 -1.231,0.036 -0.13,0.101 -0.297,0.167 -0.464,0.232 -0.254,0.101 -0.522,0.21 -0.66,0.442 -0.55,0.905 -0.789,0.985 -0.832,0.992 -0.312,0.05 -1.333,0.811 -1.29,0.884 0.03,0.043 1.145,-0.543 1.34,-0.572 0.167,-0.03 0.457,-0.174 1.044,-1.138 0.086,-0.145 0.297,-0.224 0.514,-0.318 a 2.37,2.37 0 0 0 0.536,-0.276 c 0.34,-0.26 0.862,-0.021 0.92,0.007 0.253,0.123 0.529,-0.224 0.818,-0.594 0.087,-0.108 0.203,-0.26 0.261,-0.311 0.123,0 0.283,-0.087 0.609,-0.283 0.18,-0.108 0.398,-0.239 0.492,-0.253 0.167,-0.036 0.833,-0.232 0.985,-0.464 0.051,-0.072 0.384,-0.355 0.681,-0.587 l 1.007,-0.239 a 0.1,0.1 0 0 0 0.044,-0.014 l 1.093,-0.645 a 0.17,0.17 0 0 0 0.051,-0.05 l 0.152,-0.232 0.333,0.536 -0.021,0.847 -0.391,0.602 a 0.056,0.056 0 0 0 -0.015,0.029 l -0.319,0.84 -0.804,0.536 c -0.014,0.007 -0.021,0.022 -0.036,0.029 l -1.115,1.34 -1.304,0.775 -0.826,0.435 c 0,0 -1.231,0.456 -1.202,0.536 0.021,0.065 1.31,-0.247 1.31,-0.247 a 0.054,0.054 0 0 0 0.03,-0.014 l 0.847,-0.45 1.333,-0.789 a 0.196,0.196 0 0 0 0.043,-0.036 l 1.116,-1.34 0.826,-0.55 a 0.115,0.115 0 0 0 0.058,-0.073 l 0.333,-0.87 0.406,-0.63 a 0.146,0.146 0 0 0 0.021,-0.08 l 0.022,-0.934 a 0.19,0.19 0 0 0 -0.022,-0.087 l -0.427,-0.702 0.224,-0.34 0.558,-0.37 0.877,-0.391 a 0.158,0.158 0 0 0 0.072,-0.065 l 0.442,-0.797 c 0,-0.007 0.007,-0.015 0.007,-0.022 l 0.167,-0.138 c 0.043,-0.029 0.029,-0.08 0.029,-0.13 v -2.376 l 0.42,-0.362 0.145,0.246 0.97,1.282 0.42,1.101 -0.253,0.5 -0.71,0.428 a 0.113,0.113 0 0 0 -0.058,0.094 c -0.007,0.21 -0.05,2.093 0,2.347 0.007,0.05 0.029,0.123 0.043,0.203 0.058,0.275 0.153,0.688 0.153,0.905 0,0.225 -0.145,1.021 -0.218,1.405 v 0.022 c 0,0.138 0.058,1.6 0.116,1.6 h 0.015 c 0.065,-0.006 0.094,-1.071 0.101,-1.585 0.022,-0.124 0.217,-1.152 0.217,-1.442 0,-0.246 -0.094,-0.66 -0.159,-0.956 a 2.103,2.103 0 0 0 -0.043,-0.196 c -0.037,-0.166 -0.022,-1.398 0,-2.23 l 0.688,-0.414 a 0.124,0.124 0 0 0 0.043,-0.043 l 0.174,-0.34 0.029,0.188 0.24,0.203 v 2.615 l 0.043,1.325 c 0,0.044 0.043,0.08 0.072,0.102 a 0.146,0.146 0 0 0 0.123,0.007 l 0.47,-0.232 0.247,0.79 c 0.05,0.267 0.065,0.55 0.022,0.608 -0.101,0.152 -0.08,1.246 -0.036,2.144 0,0.014 -0.036,0.036 -0.022,0.05 l 0.319,0.667 v 0.724 l -0.601,0.703 -0.508,0.66 c -0.137,0.043 -0.369,0.202 -0.557,0.542 -0.03,0.058 0.528,-0.29 0.673,-0.333 a 0.154,0.154 0 0 0 0.058,-0.036 l 0.55,-0.688 0.631,-0.732 c 0.022,-0.021 -0.007,-0.05 -0.007,-0.08 v -0.796 c 0,-0.022 0.036,-0.036 0.022,-0.058 l -0.34,-0.667 c -0.037,-0.876 -0.037,-1.847 0.014,-1.977 0.116,-0.181 0.043,-0.645 0.014,-0.79 V 55.032 L 22.11,54.105 c -0.007,-0.037 -0.036,-0.058 -0.065,-0.073 a 0.107,0.107 0 0 0 -0.095,0 l -0.463,0.21 -0.044,-1.137 v -2.448 l 0.268,0.166 1.101,0.84 0.413,0.645 v 1.109 l 0.587,0.717 0.768,0.89 0.311,2.224 -0.239,0.689 0.254,1.086 0.029,0.036 -1.022,1.485 -0.637,0.688 a 0.16,0.16 0 0 0 -0.022,0.037 l -0.833,1.564 -1.13,1.37 c -0.007,0.006 -0.014,0.014 -0.014,0.021 l -0.623,1.087 c -0.015,0.021 -0.058,0.05 -0.058,0.072 v 0.594 l -0.717,0.297 c -0.051,0.022 -0.073,0.072 -0.08,0.13 l -0.927,0.565 -1.659,0.638 c -0.007,0.007 -0.022,0.007 -0.029,0.014 l -0.877,0.587 -1.202,0.485 -1.188,0.399 c -0.029,0.007 -0.058,0.072 -0.08,0.094 l -0.594,0.87 h -0.89 c -0.03,0 -0.066,-0.03 -0.087,-0.008 -0.247,0.174 -0.935,0.63 -1.087,0.71 -0.152,0.073 -0.862,0.355 -1.224,0.5 -0.05,0.022 -0.087,0.058 -0.094,0.109 l -0.29,1.441 c 0,0 -0.717,0.891 -0.652,0.949 0.036,0.044 0.913,-0.753 0.913,-0.753 a 0.138,0.138 0 0 0 0.036,-0.073 l 0.282,-1.405 c 0.247,-0.101 1,-0.362 1.167,-0.45 0.18,-0.093 0.89,-0.608 1.086,-0.687 h 0.92 c 0.05,0 0.094,-0.065 0.123,-0.102 l 0.616,-0.869 1.152,-0.391 0.007,-0.007 1.224,-0.493 c 0.007,-0.007 0.022,-0.007 0.029,-0.014 l 0.876,-0.587 1.666,-0.637 c 0.007,0 -0.021,-0.007 -0.014,-0.015 l 0.746,-0.478 v 0.442 l -0.456,0.804 c -0.03,0.044 -0.007,0.094 0.007,0.138 l 0.333,0.782 -0.862,1.195 -1.166,0.732 a 0.073,0.073 0 0 0 -0.037,0.043 c 0,0 -0.195,0.348 -0.485,0.732 -0.297,0.398 -0.862,0.978 -1.101,1.159 -0.007,0.007 -0.92,0.746 -0.942,1.021 -0.036,0.13 -1.086,1.898 -1.035,1.934 a 0.117,0.117 0 0 0 0.065,0.022 c 0.036,0 1.18,-1.753 1.202,-1.934 0.036,-0.123 0.55,-0.623 0.855,-0.855 0.282,-0.217 0.862,-0.826 1.144,-1.21 0.254,-0.34 0.435,-0.637 0.486,-0.724 l 1.159,-0.724 c 0.014,-0.007 0.021,-0.022 0.029,-0.03 l 0.797,-1.093 0.007,0.029 0.065,1.434 -0.189,1.217 c 0,0 -0.137,0.478 -0.115,0.543 l -0.153,0.732 c -0.05,0.225 -0.224,0.963 -0.224,1.123 0,0.145 0.297,1.275 0.434,1.81 l -0.253,0.58 -0.601,0.826 c -0.015,0.029 -0.066,0.058 -0.066,0.087 v 1.108 c 0,0.015 0.044,0.03 0.044,0.036 l 0.297,1.08 -1.311,1.477 c -0.036,-0.029 -0.087,-0.043 -0.13,-0.014 -1.196,0.68 -1.196,0.833 -1.196,0.89 -0.007,0.044 -0.08,0.196 -0.137,0.32 -0.203,0.434 -0.355,0.782 -0.29,1 0.072,0.253 -0.21,0.926 -0.348,0.999 l -0.021,0.014 c -0.203,0.102 -0.573,0.283 -0.573,0.732 0,0.167 -0.137,0.493 -0.275,0.819 -0.167,0.405 -0.34,0.854 -0.37,1.18 -0.05,0.594 0.051,2.115 0.116,2.115 h 0.007 c 0.066,0 0.066,-1.514 0.11,-2.093 0.02,-0.29 0.195,-0.724 0.354,-1.094 0.152,-0.376 0.29,-0.702 0.29,-0.92 0,-0.275 0.203,-0.405 0.442,-0.529 l 0.036,-0.021 c 0.268,-0.13 0.565,-0.942 0.463,-1.275 -0.043,-0.145 0.16,-0.58 0.283,-0.833 0.094,-0.203 0.145,-0.319 0.16,-0.391 0.072,-0.102 0.52,-0.391 0.956,-0.645 l -0.442,1.413 a 0.154,0.154 0 0 0 0,0.08 l 0.253,1.136 c 0,0.007 0,0.007 0.007,0.015 l 0.297,0.89 c 0,0.008 0.007,0.015 0.007,0.023 l 0.485,0.963 c 0,0 0.174,0.898 0.254,0.898 h 0.022 c 0.087,-0.007 0.036,-0.963 0.036,-0.963 a 0.13,0.13 0 0 0 -0.015,-0.05 l -0.492,-0.979 -0.297,-0.869 -0.246,-1.087 0.456,-1.456 1.427,-1.6 c 0.036,-0.037 0.007,-0.095 -0.007,-0.145 l -0.333,-1.138 v -1.043 l 0.586,-0.796 c 0.007,-0.007 0.03,-0.015 0.037,-0.03 l 0.29,-0.644 c 0.014,-0.03 0.021,-0.065 0.014,-0.102 -0.21,-0.782 -0.427,-1.68 -0.435,-1.789 0,-0.08 0.109,-0.6 0.218,-1.05 l 0.065,-0.304 c 0.188,0.413 0.405,0.862 0.536,0.956 0.137,0.101 0.398,1.021 0.348,1.463 -0.051,0.45 0.058,2.427 0.123,2.427 h 0.007 c 0.065,0 0.058,-1.963 0.108,-2.398 0.051,-0.449 -0.195,-1.47 -0.442,-1.659 -0.086,-0.065 -0.347,-0.615 -0.594,-1.173 L 19.95,71.968 V 71.961 L 20.138,70.73 V 70.7 l -0.065,-1.477 a 0.102,0.102 0 0 0 -0.015,-0.05 l -0.094,-0.225 -0.326,-0.783 0.435,-0.775 c 0.014,-0.021 -0.015,-0.05 -0.015,-0.08 v -0.673 l 0.087,-0.03 c 0.03,-0.014 0.065,-0.035 0.08,-0.064 l 0.616,-0.254 c 0.058,-0.022 0.072,-0.08 0.072,-0.145 v -0.666 l 0.594,-1.036 1.152,-1.369 c 0.007,-0.007 0.021,-0.015 0.029,-0.029 l 0.833,-1.565 0.637,-0.68 0.015,-0.015 0.956,-1.384 0.442,0.71 0.898,0.84 0.203,0.203 v 0.725 c -0.08,0.145 -0.522,0.543 -0.652,0.768 -0.087,0.144 -0.102,0.34 -0.138,0.594 -0.043,0.26 -0.08,0.557 -0.203,0.862 l -0.623,1.571 c 0,0 -0.608,1.406 -0.528,1.442 a 0.214,0.214 0 0 0 0.072,0.014 c 0.058,0 0.746,-1.325 0.746,-1.325 0,0 0,-0.007 0.007,-0.007 0.007,-0.007 0.406,-1 0.638,-1.58 0.13,-0.325 0.188,-0.658 0.231,-0.92 0.037,-0.21 0.066,-0.398 0.123,-0.485 0.116,-0.188 0.493,-0.6 0.645,-0.746 0.03,-0.029 0.007,-0.072 0.007,-0.116 v -0.528 l 0.428,0.326 0.463,1.434 0.601,1.086 0.305,1.087 v 3.296 l 0.456,0.739 c -0.167,0.297 -0.47,0.941 -0.34,1.29 0.144,0.397 0.188,1.564 0.014,1.752 -0.232,0.254 -0.877,1.42 -1.13,2.267 -0.196,0.66 -0.232,1.239 -0.268,1.66 a 3.978,3.978 0 0 1 -0.03,0.332 c -0.02,0.203 -0.144,0.645 -0.26,1.072 -0.21,0.775 -0.145,1.188 -0.08,1.174 0.058,-0.022 0.21,-0.739 0.305,-1.108 0.116,-0.442 0.239,-0.891 0.268,-1.109 0.014,-0.101 0.021,-0.217 0.029,-0.34 0.036,-0.435 0.072,-0.978 0.26,-1.615 0.247,-0.833 0.891,-1.956 1.087,-2.174 0.268,-0.297 0.203,-1.586 0.044,-1.992 -0.073,-0.195 0.101,-0.623 0.282,-0.963 l 0.08,0.145 0.55,1.731 c 0.044,0.188 0.377,1.623 0.703,1.927 0.152,0.138 0.268,0.529 0.37,0.876 0.1,0.334 0.188,0.616 0.31,0.74 0.044,0.043 -0.035,0.318 -0.079,0.485 -0.116,0.42 -0.253,0.934 0.08,1.217 0.18,0.152 0.405,0.318 0.68,0.478 0.088,0.05 0.153,0.108 0.225,0.166 v 1.282 l -0.37,2.275 -0.166,1.137 0.087,0.529 c -0.326,0.188 -0.876,0.558 -0.782,0.927 0.116,0.471 0.282,0.978 0.478,1.5 0.16,0.412 -0.16,1.151 -0.348,1.6 a 2.806,2.806 0 0 0 -0.137,0.363 c -0.03,0.101 -0.087,0.224 -0.152,0.369 -0.145,0.312 -0.32,0.695 -0.32,1.094 0,0 0.051,1.615 0.117,1.615 0.065,0 0.116,-1.615 0.116,-1.615 0,-0.34 0.166,-0.703 0.297,-0.993 0.072,-0.152 0.13,-0.282 0.166,-0.398 a 4.64,4.64 0 0 1 0.13,-0.333 c 0.218,-0.507 0.544,-1.275 0.356,-1.775 a 11.71,11.71 0 0 1 -0.464,-1.47 c -0.044,-0.167 0.297,-0.435 0.623,-0.63 l 0.876,1.752 0.76,1.529 0.595,1.036 0.847,1.724 0.479,3.057 v -2.942 l -0.254,-1.086 -0.905,-1.6 -0.479,-0.935 -0.434,-0.985 -0.543,-1.036 -0.493,-0.84 v -0.978 l 0.391,-1.934 0.275,-0.891 0.044,-0.53 c 0.087,0.175 0.232,0.392 0.42,0.682 0.225,0.347 0.645,1 0.587,1.137 a 8.603,8.603 0 0 1 -0.123,0.239 c -0.24,0.435 -0.645,1.166 -0.479,2.05 0.11,0.565 0.334,1.217 0.508,1.738 0.144,0.42 0.333,1.072 0.398,1.072 0.065,0 -0.007,-0.651 -0.174,-1.144 -0.174,-0.514 -0.398,-1.159 -0.5,-1.71 -0.152,-0.796 0.225,-1.484 0.45,-1.897 0.057,-0.102 0.1,-0.189 0.13,-0.261 0.101,-0.232 -0.16,-0.667 -0.601,-1.355 -0.203,-0.318 -0.479,-0.746 -0.471,-0.854 0.007,-0.095 -0.044,-0.189 -0.13,-0.283 l -0.037,-0.811 0.268,-0.913 0.558,1.304 c 0.014,0.036 0.05,0.065 0.087,0.065 0.565,0.102 1.028,0.29 1.036,0.377 0,0.152 0.087,0.413 0.195,0.739 0.123,0.376 0.268,0.804 0.261,1.028 0,0.109 -0.029,0.29 -0.05,0.5 -0.117,0.927 -0.182,1.659 0.1,1.862 0.348,0.26 1.24,1.217 1.276,1.412 0.007,0.05 -0.008,0.094 -0.044,0.174 -0.072,0.16 -0.166,0.377 0.058,0.746 0.283,0.471 0.442,0.993 0.493,0.993 h 0.029 C 37.45,85.094 37.37,84.5 37.065,84 c -0.158,-0.268 -0.1,-0.398 -0.043,-0.536 0.037,-0.087 0.08,-0.188 0.058,-0.319 -0.058,-0.304 -1.05,-1.318 -1.361,-1.55 -0.196,-0.145 -0.066,-1.159 -0.008,-1.651 a 4.5,4.5 0 0 0 0.051,-0.522 c 0.007,-0.268 -0.138,-0.717 -0.275,-1.115 -0.094,-0.276 -0.189,-0.558 -0.189,-0.667 0,-0.34 -0.775,-0.521 -1.166,-0.594 L 33.538,75.67 a 0.107,0.107 0 0 0 -0.072,-0.065 l 0.043,-0.138 -0.05,-1.876 -0.74,-0.934 -0.999,-1.174 -1.05,-0.688 -1.297,-2.514 v -1.456 l 0.167,-1.564 -0.022,-0.225 h 0.775 c 0.297,0.08 0.638,0.181 0.681,0.268 0.101,0.21 0.927,0.768 1.173,0.942 0.008,0.007 0.015,0 0.015,0 0.319,0.152 0.884,0.47 0.905,0.456 0.051,-0.036 -0.615,-0.586 -0.796,-0.673 -0.486,-0.34 -1.036,-0.768 -1.087,-0.87 -0.116,-0.224 -0.674,-0.347 -0.847,-0.39 -0.007,0 -0.022,0.035 -0.03,0.035 h -0.854 v -0.036 l -0.145,-0.507 -0.84,-1.39 -0.493,-1.587 -0.84,-0.739 0.232,-0.688 0.478,-1.21 c 0.007,-0.021 -0.03,-0.043 -0.03,-0.065 V 57.01 l 0.406,-0.912 0.899,-0.899 c 0.014,-0.014 0.036,-0.036 0.043,-0.05 l 0.319,-0.833 c 0,-0.007 0.007,-0.007 0.007,-0.015 l 0.449,-1.724 c 0.007,-0.022 0.007,-0.036 0.007,-0.058 l -0.29,-2.376 c 0,-0.007 0,-0.014 -0.007,-0.022 L 29.322,49 29.648,48.16 a 0.144,0.144 0 0 0 0.007,-0.08 l -0.246,-1.724 -0.05,-0.826 0.086,-1.572 c 0,-0.022 -0.043,-0.036 -0.043,-0.058 l -0.573,-1.68 v -1.695 l 0.623,-1.254 c 0.015,-0.036 0.036,-0.08 0.022,-0.116 l -0.493,-1.39 0.261,-1.674 0.45,-1.115 c 0,0 0,-0.007 0.006,-0.007 l 0.254,-0.746 0.297,-0.942 c 0.058,-0.188 0.253,-0.826 0.253,-0.985 0.007,-0.094 0.174,-0.681 0.334,-1.188 l 0.217,-0.797 c 0.007,-0.014 -0.03,-0.029 -0.03,-0.05 V 29.08 l 0.515,-0.478 c 0,0 0.022,-0.007 0.03,-0.007 l 0.948,-1.087 1.188,-1.463 1.659,-1.224 a 0.144,0.144 0 0 0 0.058,-0.087 l 0.217,-0.956 c 0.007,-0.015 -0.036,-0.03 -0.036,-0.044 v -0.97 l 0.659,-1.543 0.732,-1.174 0.615,-0.884 c 0.008,-0.014 0.022,-0.029 0.03,-0.05 l 0.072,-0.261 0.282,1.007 c 0,0.007 0.008,0.014 0.008,0.029 l 0.47,0.985 -0.326,1.166 -0.441,0.978 c -0.022,0.044 -0.015,0.094 0.007,0.138 l 0.521,0.941 -0.166,1.232 c -0.007,0.029 -0.036,0.058 -0.022,0.087 l 0.514,1.151 v 1.536 c 0,0.05 0.066,0.101 0.11,0.13 l 0.861,0.53 c 0.34,0.615 0.71,1.303 0.739,1.433 0.014,0.182 0.297,1.073 0.42,1.464 l 0.246,1.086 c -0.246,0.84 -0.55,1.76 -0.637,1.87 -0.16,0.158 -0.42,0.68 -0.471,0.781 a 0.164,0.164 0 0 0 -0.007,0.13 l 0.318,0.769 -0.412,0.775 a 0.165,0.165 0 0 0 -0.008,0.13 l 0.428,1 -0.044,0.797 c 0,0.029 0.007,0.057 0.022,0.086 l 1.427,2.521 0.66,1.463 -0.667,1.667 c -0.008,0.007 -0.008,0.021 -0.008,0.036 L 41.34,46 v 0.036 l 0.145,1.724 c 0,0.03 0.014,0.051 0.029,0.073 l 0.688,1.014 -0.804,1.746 c -0.015,0.029 -0.015,0.058 -0.015,0.087 7.886,6.162 2.522,17.724 0.337,0 z m -23.724,0.152 -0.84,0.377 c -0.007,0 -0.014,0.007 -0.022,0.014 l -0.594,0.391 c -0.014,0.015 -0.072,0.03 -0.08,0.044 l -0.137,0.152 v -0.536 l 0.45,-0.24 h 0.303 c 0.015,0 0.037,-0.043 0.051,-0.05 l 0.978,-0.362 c 0.007,-0.007 0.022,-0.022 0.03,-0.022 z m 13.191,20.992 1.536,1.876 v 1.898 l -0.391,1.456 v 0.022 c 0,-0.03 -0.051,-0.065 -0.109,-0.102 a 4.482,4.482 0 0 1 -0.674,-0.456 c -0.217,-0.181 -0.087,-0.623 0.008,-0.978 0.087,-0.319 0.159,-0.58 0.021,-0.71 -0.08,-0.08 -0.166,-0.376 -0.246,-0.637 -0.116,-0.391 -0.239,-0.797 -0.434,-0.978 -0.21,-0.196 -0.5,-1.217 -0.638,-1.818 V 71.39 l -0.21,-0.66 0.167,0.355 z m -1.238,-38.63 -0.297,0.934 -0.247,0.739 -0.449,1.13 c -0.007,0.014 -0.007,0.021 -0.007,0.036 l -0.26,1.724 c -0.008,0.029 0,0.05 0.006,0.08 l 0.5,1.369 -0.608,1.224 c -0.007,0.022 -0.051,0.043 -0.051,0.065 v 1.753 c 0,0.015 0.044,0.03 0.044,0.05 l 0.55,1.674 -0.08,1.55 c 0,0.007 0.007,0.015 0.007,0.015 l 0.051,0.84 v 0.015 l 0.24,1.687 -0.334,0.848 a 0.157,0.157 0 0 0 -0.007,0.101 l 0.34,1.16 0.29,2.339 -0.442,1.688 -0.297,0.79 -0.876,0.898 a 0.13,0.13 0 0 0 -0.036,0.05 l -0.428,0.964 c -0.007,0.021 -0.05,0.036 -0.05,0.058 v 1.564 l -0.471,1.181 c 0,0.007 0.014,0.007 0.014,0.014 l -0.188,0.573 -0.138,-0.123 -1.18,-1.283 -0.196,-0.738 0.152,-0.74 -0.05,-0.767 -0.247,-1.753 -1.231,-1.97 0.05,-1.036 -1.333,-1.282 -0.89,-0.399 -0.479,-0.826 0.232,-0.456 0.826,-1.775 c 0.007,-0.007 0.007,-0.021 0.007,-0.029 0.007,-0.029 0.123,-0.673 0.022,-1.086 -0.087,-0.355 0.137,-1.26 0.275,-1.492 0.152,-0.254 0.449,-1.05 0.507,-1.268 0.029,-0.101 0.435,-0.536 0.797,-0.876 l 1.514,-1.181 a 0.097,0.097 0 0 0 0.021,-0.03 l 0.573,-0.84 a 0.056,0.056 0 0 0 0.014,-0.036 l 0.333,-1.31 c 0,-0.008 -0.036,-0.022 -0.036,-0.03 v -1.956 c 0.08,-0.086 0.275,-0.318 0.399,-0.521 0.152,-0.254 0.398,-0.884 0.405,-0.913 l 0.254,-0.724 0.978,-1.456 0.673,-0.667 1.087,-0.644 a 1.03,1.03 0 0 0 -0.036,0.195 c 0.021,0.087 -0.102,0.536 -0.218,0.899 z m 17.08,4.049 c -0.087,0 -0.166,-1.217 -0.188,-1.304 a 3.92,3.92 0 0 0 -0.24,-0.42 c -0.282,-0.478 -0.376,-0.645 -0.376,-0.754 -0.014,-0.08 -0.224,-0.47 -0.413,-0.796 l -1.028,-1.073 c -0.008,-0.007 -0.008,-0.014 -0.015,-0.014 -0.275,-0.384 -0.623,-0.84 -0.703,-0.898 -0.304,-0.203 -0.173,-1.239 -0.166,-1.282 0.029,-0.261 0.138,-0.616 0.224,-0.899 a 6.49,6.49 0 0 0 0.116,-0.398 c 0.037,-0.167 -0.145,-0.833 -0.239,-1.188 -0.029,-0.101 -0.05,-0.196 -0.072,-0.275 -0.094,-0.37 -0.456,-0.993 -0.456,-0.993 -0.022,-0.036 -0.066,-0.08 -0.051,-0.123 l 0.34,-1.246 v -0.738 c -0.39,-0.776 -1.086,-2.021 -1.217,-2.152 -0.188,-0.188 -0.739,-0.942 -0.84,-1.08 l -1.268,-0.847 c -0.043,-0.029 -0.094,-0.08 -0.094,-0.13 v -0.667 c 0,-0.028 0.044,-0.05 0.058,-0.072 L 40.785,19.249 40.22,18.373 C 40.17,18.3 40.198,18.206 40.27,18.156 a 0.153,0.153 0 0 1 0.218,0.043 l 0.63,0.949 c 0.03,0.05 -0.007,0.109 -0.029,0.16 l -0.427,0.695 v 0.543 l 1.231,0.819 a 0.253,0.253 0 0 1 0.058,0.036 c 0.066,0.094 0.399,0.376 0.435,0.39 l 1.362,0.631 c 1.405,0.558 1.456,0.71 1.47,0.76 0.03,0.08 0.015,0.196 -0.022,0.406 -0.021,0.152 -0.086,0.565 -0.014,0.623 0.145,0.109 0.167,0.428 0.196,1.029 0.014,0.348 0.036,0.739 0.094,1.014 0.145,0.637 0.29,1.007 0.529,1.37 0.144,0.216 0.34,0.63 0.514,0.991 0.109,0.232 0.232,0.493 0.268,0.536 0.029,0.037 -0.03,1.985 -0.087,1.985 h -0.007 c -0.066,-0.007 -0.044,-1.71 -0.095,-1.847 -0.05,-0.072 -0.137,-0.246 -0.29,-0.572 -0.159,-0.34 -0.361,-0.76 -0.5,-0.964 -0.245,-0.376 -0.405,-0.782 -0.557,-1.441 -0.065,-0.297 -0.087,-0.68 -0.101,-1.05 -0.015,-0.334 -0.036,-0.783 -0.102,-0.855 -0.18,-0.138 -0.123,-0.493 -0.072,-0.84 0.014,-0.102 0.036,-0.24 0.036,-0.29 -0.109,-0.102 -0.768,-0.399 -1.34,-0.63 l -1.152,-0.536 c 0.13,0.166 0.247,0.304 0.312,0.37 0.203,0.202 1.108,1.911 1.29,2.252 0.014,0.022 -0.023,0.05 -0.023,0.072 v 0.812 c 0,0.014 0.037,0.029 0.03,0.043 l -0.348,1.202 c 0.094,0.174 0.384,0.674 0.463,1.015 0.022,0.072 0.051,0.166 0.073,0.268 0.166,0.623 0.29,1.115 0.246,1.332 a 7.14,7.14 0 0 1 -0.116,0.428 c -0.08,0.275 -0.188,0.608 -0.217,0.84 -0.05,0.435 -0.022,0.906 0.043,0.992 0.167,0.116 0.623,0.754 0.768,0.964 l 1.029,1.08 a 0.096,0.096 0 0 1 0.021,0.028 c 0.21,0.348 0.457,0.79 0.464,0.956 0.022,0.087 0.217,0.406 0.333,0.602 0.181,0.297 0.254,0.427 0.275,0.5 0.022,0.152 -0.043,1.376 -0.13,1.376 z M 0.416,29.303 c 0,-0.065 0.688,-0.115 0.688,-0.115 l 0.609,-0.297 0.463,-0.34 c 0.022,-0.015 0.044,0.014 0.073,0.014 h 1.21 c 0.188,-0.232 0.789,-0.819 0.934,-0.891 0.08,-0.044 0.37,-0.457 0.601,-0.79 0.007,-0.014 0.022,-0.036 0.043,-0.043 l 1.319,-0.74 0.731,-0.68 c 0.015,-0.015 0.03,-0.022 0.044,-0.029 l 0.89,-0.29 0.9,-0.232 c 0,0 1.419,-0.275 1.433,-0.275 h 0.602 l 0.173,-0.5 v -0.71 c 0,-0.065 0.13,-0.036 0.196,-0.036 h 0.427 l 0.16,-0.427 v -0.884 c 0,-0.029 0.05,-0.058 0.072,-0.08 l 0.942,-0.92 0.818,-1.195 0.32,-1.557 a 0.126,0.126 0 0 1 0.137,-0.094 c 0.065,0.014 0.108,0.072 0.094,0.137 l -0.319,1.58 a 0.1,0.1 0 0 1 -0.014,0.043 l -0.833,1.224 c -0.007,0.007 -0.051,0.015 -0.051,0.015 l -0.934,0.89 v 0.877 c 0,0.022 0.029,0.044 0.021,0.065 l -0.268,0.464 c -0.021,0.029 -0.036,0.087 -0.08,0.087 h -0.449 v 0.543 c 0,0.022 0.037,0.044 0.022,0.058 l -0.282,0.543 c -0.022,0.037 -0.037,0.095 -0.08,0.095 h -0.66 l -1.39,0.311 -0.891,0.21 -0.855,0.268 -0.724,0.667 c -0.007,0.007 -0.015,0.007 -0.022,0.014 l -1.31,0.724 c -0.16,0.24 -0.515,0.747 -0.667,0.826 -0.08,0.044 -0.53,0.5 -0.906,0.884 -0.022,0.022 -0.05,0.072 -0.08,0.072 H 2.307 L 1.865,29.115 C 1.858,29.122 1.85,29.108 1.843,29.108 L 1.198,29.413 C 1.184,29.42 1.162,29.42 1.148,29.42 1.133,29.427 0.416,29.369 0.416,29.304 Z"
     clip-path="url(#a)"
     transform="matrix(1.2800286,0,0,1.2780891,-2.0108587,2.7051277)"
     id="path12"
     inkscape:connector-curvature="0"
     style="fill:#232323;stroke-width:0.78182518;fill-opacity:1" />
  <g
     style="line-height:19px;-inkscape-font-specification:'Sniglet Bold';text-align:center;stroke-width:0.78182518;fill:#232323;fill-opacity:1"
     id="g16"
     transform="matrix(1.2800286,0,0,1.2780891,-2.540032,-5.8691899e-4)">
    <path
       d="M 4.52,13.13 Q 4.508,12.925 4.502,12.705 4.502,12.485 4.496,12.231 4.49,11.977 4.49,11.684 v -0.667 q 0,-0.4 0.006,-0.682 0.006,-0.288 0.035,-0.469 0.03,-0.18 0.088,-0.265 0.064,-0.085 0.17,-0.085 0.052,0 0.099,0.011 0.046,0.012 0.081,0.051 0.035,0.034 0.059,0.107 0.029,0.068 0.035,0.181 0.011,0.203 0.017,0.361 l 0.012,0.316 q 0.006,0.153 0.006,0.322 v 0.858 q 0,0.231 -0.006,0.457 L 5.08,12.637 q -0.006,0.232 -0.017,0.486 -0.006,0.135 -0.03,0.21 -0.023,0.072 -0.058,0.112 -0.035,0.04 -0.082,0.045 -0.046,0.011 -0.105,0.011 -0.105,0 -0.18,-0.068 Q 4.531,13.36 4.52,13.129 Z M 7.423,12.52 Q 7.154,11.95 6.944,11.42 6.74,10.882 6.594,10.464 q -0.135,0.7 -0.228,1.411 -0.088,0.712 -0.228,1.36 -0.035,0.148 -0.128,0.198 -0.094,0.045 -0.158,0.045 -0.105,0 -0.17,-0.062 -0.058,-0.062 -0.058,-0.158 0,-0.13 0.03,-0.395 0.034,-0.27 0.081,-0.61 0.053,-0.338 0.117,-0.71 0.064,-0.373 0.128,-0.717 0.07,-0.35 0.129,-0.633 0.064,-0.282 0.11,-0.434 0.077,-0.26 0.31,-0.26 0.14,0 0.24,0.136 0.1,0.13 0.21,0.406 0.117,0.27 0.274,0.69 0.164,0.416 0.421,0.981 Q 7.925,11.147 8.077,10.735 8.235,10.318 8.34,10.047 8.45,9.77 8.55,9.64 8.65,9.505 8.795,9.505 8.93,9.505 9,9.573 q 0.07,0.062 0.105,0.191 0.04,0.158 0.099,0.44 0.058,0.277 0.123,0.622 0.07,0.338 0.134,0.71 0.064,0.373 0.117,0.712 0.052,0.34 0.082,0.615 0.035,0.271 0.035,0.418 0,0.09 -0.065,0.147 -0.064,0.05 -0.163,0.05 -0.064,0 -0.158,-0.045 Q 9.216,13.383 9.181,13.236 9.111,12.914 9.052,12.57 L 8.947,11.875 8.854,11.17 q -0.047,-0.356 -0.1,-0.706 -0.076,0.226 -0.175,0.497 -0.1,0.271 -0.21,0.548 -0.111,0.27 -0.228,0.536 -0.117,0.265 -0.228,0.48 -0.04,0.073 -0.11,0.112 -0.065,0.034 -0.135,0.034 -0.076,0 -0.146,-0.034 -0.064,-0.04 -0.1,-0.118 z m 3.319,0.603 q 0,0.135 -0.03,0.21 -0.023,0.072 -0.064,0.112 -0.035,0.04 -0.087,0.045 -0.047,0.011 -0.094,0.011 -0.157,0 -0.21,-0.068 -0.047,-0.067 -0.064,-0.304 -0.012,-0.125 -0.018,-0.362 l -0.011,-0.564 q 0,-0.328 -0.006,-0.723 v -0.835 q 0,-0.209 0.052,-0.423 0.053,-0.215 0.199,-0.39 0.152,-0.175 0.415,-0.282 0.268,-0.107 0.695,-0.107 0.297,0 0.566,0.062 0.269,0.062 0.473,0.214 0.204,0.153 0.327,0.407 0.123,0.254 0.123,0.632 0,0.395 -0.135,0.655 -0.134,0.26 -0.38,0.412 -0.244,0.152 -0.583,0.214 -0.339,0.062 -0.742,0.062 H 10.97 q -0.1,0 -0.222,-0.01 z m 1.682,-2.376 q 0,-0.379 -0.222,-0.57 -0.216,-0.192 -0.724,-0.192 -0.193,0 -0.333,0.033 -0.135,0.03 -0.222,0.108 -0.088,0.073 -0.134,0.203 -0.041,0.13 -0.041,0.327 v 0.44 q 0,0.243 0.006,0.458 0.134,0.005 0.297,0.005 h 0.316 q 0.175,0 0.362,-0.022 0.192,-0.023 0.344,-0.102 0.152,-0.084 0.251,-0.243 0.1,-0.163 0.1,-0.445 z m 2.402,1.342 q -0.082,0.007 -0.17,0.012 h -0.367 q -0.1,0 -0.222,-0.01 v 1.145 q 0,0.18 -0.094,0.226 -0.087,0.04 -0.222,0.04 -0.07,0 -0.11,-0.012 -0.041,-0.006 -0.07,-0.028 -0.024,-0.029 -0.041,-0.08 -0.012,-0.05 -0.018,-0.14 Q 13.5,13.14 13.495,12.948 13.489,12.75 13.483,12.44 q 0,-0.31 -0.006,-0.75 v -1.045 q 0,-0.23 0.058,-0.446 0.059,-0.22 0.21,-0.384 0.152,-0.17 0.41,-0.27 0.262,-0.102 0.665,-0.102 0.286,0 0.555,0.062 0.274,0.062 0.485,0.214 0.21,0.153 0.338,0.412 0.129,0.26 0.129,0.65 0,0.52 -0.234,0.807 -0.227,0.282 -0.63,0.4 l 0.782,1.04 q 0.105,0.134 0.105,0.275 0,0.113 -0.082,0.175 -0.075,0.068 -0.192,0.068 -0.129,0 -0.222,-0.068 -0.094,-0.073 -0.175,-0.186 z m 0.917,-1.314 q 0,-0.39 -0.245,-0.576 -0.24,-0.192 -0.765,-0.192 -0.193,0 -0.322,0.034 -0.128,0.028 -0.204,0.113 -0.076,0.085 -0.111,0.237 -0.03,0.147 -0.03,0.378 v 0.384 q 0,0.22 0.007,0.4 0.134,0.006 0.298,0.006 h 0.315 q 0.163,0 0.344,-0.017 0.187,-0.022 0.345,-0.1 0.158,-0.086 0.263,-0.238 0.105,-0.158 0.105,-0.43 z m 2.664,2.76 q -0.35,0 -0.66,-0.136 -0.304,-0.135 -0.531,-0.389 -0.228,-0.26 -0.363,-0.632 -0.128,-0.373 -0.128,-0.847 0,-0.446 0.111,-0.818 0.117,-0.373 0.339,-0.644 0.227,-0.27 0.56,-0.417 0.333,-0.153 0.771,-0.153 0.356,0 0.678,0.124 0.32,0.124 0.56,0.373 0.246,0.248 0.386,0.62 0.14,0.373 0.14,0.87 0,0.412 -0.117,0.785 -0.11,0.372 -0.345,0.654 -0.227,0.277 -0.578,0.446 -0.35,0.164 -0.823,0.164 z m 0.012,-0.53 q 0.32,0 0.56,-0.125 0.24,-0.13 0.397,-0.339 0.158,-0.208 0.234,-0.48 0.076,-0.276 0.076,-0.564 0,-0.35 -0.1,-0.62 -0.093,-0.277 -0.256,-0.463 -0.164,-0.187 -0.38,-0.283 -0.216,-0.1 -0.461,-0.1 -0.292,0 -0.514,0.117 -0.216,0.12 -0.368,0.322 -0.146,0.203 -0.222,0.48 -0.076,0.27 -0.076,0.581 0,0.333 0.088,0.61 0.087,0.27 0.233,0.463 0.152,0.191 0.356,0.3 0.205,0.1 0.433,0.1 z m 3.946,-0.486 q -0.269,-0.57 -0.48,-1.1 -0.203,-0.537 -0.35,-0.955 -0.134,0.7 -0.227,1.411 -0.088,0.712 -0.228,1.36 -0.035,0.148 -0.128,0.198 -0.094,0.045 -0.158,0.045 -0.105,0 -0.17,-0.062 -0.058,-0.062 -0.058,-0.158 0,-0.13 0.03,-0.395 0.034,-0.27 0.081,-0.61 0.053,-0.338 0.117,-0.71 0.064,-0.373 0.128,-0.717 0.07,-0.35 0.129,-0.633 0.064,-0.282 0.11,-0.434 0.077,-0.26 0.31,-0.26 0.14,0 0.24,0.136 0.099,0.13 0.21,0.406 0.117,0.27 0.274,0.69 0.164,0.416 0.42,0.981 0.252,-0.565 0.404,-0.977 0.158,-0.417 0.263,-0.688 0.11,-0.277 0.21,-0.407 0.1,-0.135 0.245,-0.135 0.134,0 0.205,0.068 0.07,0.062 0.105,0.191 0.04,0.158 0.099,0.44 0.058,0.277 0.123,0.622 0.07,0.338 0.134,0.71 0.064,0.373 0.117,0.712 0.052,0.34 0.081,0.615 0.036,0.271 0.036,0.418 0,0.09 -0.065,0.147 -0.064,0.05 -0.163,0.05 -0.064,0 -0.158,-0.045 -0.093,-0.05 -0.128,-0.197 -0.07,-0.322 -0.129,-0.666 L 23.889,11.875 23.796,11.17 q -0.047,-0.356 -0.1,-0.706 -0.076,0.226 -0.175,0.497 -0.1,0.271 -0.21,0.548 -0.111,0.27 -0.228,0.536 -0.117,0.265 -0.228,0.48 -0.04,0.073 -0.11,0.112 -0.065,0.034 -0.135,0.034 -0.076,0 -0.146,-0.034 -0.064,-0.04 -0.1,-0.118 z m 3.319,0.604 q 0,0.135 -0.03,0.21 -0.023,0.072 -0.064,0.112 -0.035,0.04 -0.087,0.045 -0.047,0.011 -0.094,0.011 -0.157,0 -0.21,-0.068 -0.047,-0.067 -0.064,-0.304 -0.012,-0.125 -0.018,-0.362 -0.006,-0.237 -0.011,-0.564 0,-0.328 -0.006,-0.723 v -0.835 q 0,-0.209 0.052,-0.423 0.053,-0.215 0.199,-0.39 0.152,-0.175 0.415,-0.282 0.268,-0.107 0.694,-0.107 0.298,0 0.567,0.062 0.269,0.062 0.473,0.214 0.204,0.153 0.327,0.407 0.123,0.254 0.123,0.632 0,0.395 -0.135,0.655 -0.134,0.26 -0.38,0.412 -0.245,0.152 -0.583,0.214 -0.339,0.062 -0.742,0.062 h -0.198 q -0.1,0 -0.222,-0.01 z m 1.682,-2.376 q 0,-0.379 -0.222,-0.57 -0.216,-0.192 -0.724,-0.192 -0.193,0 -0.333,0.033 -0.135,0.03 -0.222,0.108 -0.088,0.073 -0.134,0.203 -0.041,0.13 -0.041,0.327 v 0.44 q 0,0.243 0.005,0.458 0.135,0.005 0.298,0.005 h 0.316 q 0.175,0 0.362,-0.022 0.192,-0.023 0.344,-0.102 0.152,-0.084 0.251,-0.243 0.1,-0.163 0.1,-0.445 z m 3.268,-0.7 q -0.164,0.01 -0.35,0.017 l -0.404,0.01 0.012,0.29 0.012,0.264 q 0.006,0.135 0.006,0.282 0.005,0.147 0.005,0.328 v 0.49 q 0,0.232 -0.005,0.47 l -0.012,0.468 q -0.006,0.237 -0.018,0.49 -0.006,0.136 -0.029,0.21 -0.017,0.073 -0.052,0.112 -0.035,0.04 -0.082,0.046 -0.047,0.01 -0.105,0.01 -0.105,0 -0.181,-0.067 -0.07,-0.073 -0.082,-0.305 -0.012,-0.203 -0.018,-0.429 0,-0.225 -0.005,-0.485 -0.006,-0.26 -0.006,-0.559 v -1.213 q 0.006,-0.232 0.017,-0.4 h -0.24 q -0.245,0 -0.42,-0.007 -0.17,-0.005 -0.28,-0.028 Q 28.286,10.013 28.233,9.956 28.187,9.9 28.187,9.798 q 0,-0.05 0.011,-0.09 0.012,-0.045 0.053,-0.079 0.04,-0.04 0.111,-0.062 0.076,-0.023 0.193,-0.034 l 0.198,-0.01 0.175,-0.013 q 0.088,-0.005 0.181,-0.005 h 0.217 q 0.344,0 0.648,0.005 0.31,0.006 0.654,0.023 0.14,0.011 0.216,0.034 0.076,0.017 0.117,0.05 0.04,0.035 0.046,0.08 0.012,0.045 0.012,0.101 0,0.102 -0.076,0.17 -0.07,0.067 -0.31,0.08 z M 9.55,18.302 q -0.269,-0.57 -0.479,-1.1 -0.204,-0.537 -0.35,-0.955 -0.135,0.7 -0.228,1.412 -0.088,0.71 -0.228,1.36 -0.035,0.147 -0.128,0.197 -0.094,0.046 -0.158,0.046 -0.105,0 -0.17,-0.063 -0.058,-0.062 -0.058,-0.158 0,-0.13 0.03,-0.395 l 0.081,-0.61 q 0.053,-0.338 0.117,-0.71 0.064,-0.373 0.129,-0.717 l 0.128,-0.633 q 0.064,-0.282 0.111,-0.434 0.076,-0.26 0.31,-0.26 0.14,0 0.239,0.136 0.1,0.13 0.21,0.406 0.117,0.271 0.275,0.69 0.163,0.416 0.42,0.981 0.251,-0.565 0.403,-0.977 0.158,-0.417 0.263,-0.688 0.11,-0.277 0.21,-0.407 0.1,-0.135 0.245,-0.135 0.135,0 0.205,0.068 0.07,0.062 0.105,0.192 0.04,0.158 0.1,0.44 0.058,0.276 0.122,0.62 0.07,0.34 0.134,0.712 0.064,0.372 0.117,0.711 0.053,0.34 0.082,0.615 0.035,0.271 0.035,0.418 0,0.09 -0.064,0.147 -0.065,0.05 -0.164,0.05 -0.064,0 -0.158,-0.045 -0.093,-0.05 -0.128,-0.197 -0.07,-0.322 -0.129,-0.666 l -0.105,-0.694 -0.093,-0.706 q -0.047,-0.356 -0.1,-0.706 -0.075,0.226 -0.175,0.497 -0.099,0.271 -0.21,0.548 -0.11,0.27 -0.228,0.536 -0.116,0.265 -0.227,0.48 Q 10,18.381 9.93,18.421 9.865,18.454 9.795,18.454 9.719,18.454 9.649,18.421 9.585,18.381 9.55,18.302 Z m 4.243,1.016 q -0.35,0 -0.66,-0.135 -0.303,-0.136 -0.531,-0.39 -0.228,-0.26 -0.362,-0.632 -0.129,-0.373 -0.129,-0.847 0,-0.446 0.111,-0.818 0.117,-0.373 0.339,-0.644 0.228,-0.27 0.56,-0.417 0.333,-0.153 0.771,-0.153 0.357,0 0.678,0.124 0.321,0.125 0.56,0.373 0.246,0.248 0.386,0.62 0.14,0.373 0.14,0.87 0,0.412 -0.117,0.785 -0.11,0.372 -0.344,0.654 -0.228,0.277 -0.578,0.446 -0.35,0.164 -0.824,0.164 z m 0.012,-0.53 q 0.321,0 0.56,-0.125 0.24,-0.13 0.398,-0.338 0.157,-0.21 0.233,-0.48 0.076,-0.277 0.076,-0.565 0,-0.35 -0.1,-0.62 -0.093,-0.277 -0.256,-0.463 -0.164,-0.187 -0.38,-0.283 -0.216,-0.1 -0.461,-0.1 -0.292,0 -0.514,0.117 -0.216,0.12 -0.368,0.322 -0.146,0.203 -0.222,0.48 -0.076,0.27 -0.076,0.581 0,0.333 0.088,0.61 0.087,0.27 0.233,0.463 0.152,0.192 0.357,0.3 0.204,0.1 0.432,0.1 z m 3.635,-3.517 q 0.602,0 0.964,0.175 0.362,0.175 0.555,0.463 0.192,0.288 0.25,0.655 0.065,0.366 0.065,0.745 0,0.412 -0.111,0.78 -0.105,0.365 -0.333,0.642 -0.222,0.27 -0.572,0.435 -0.35,0.158 -0.835,0.158 -0.386,0 -0.62,-0.057 -0.227,-0.05 -0.356,-0.158 -0.122,-0.107 -0.163,-0.27 -0.041,-0.164 -0.041,-0.385 v -2.122 q 0,-0.243 0.04,-0.44 0.048,-0.198 0.176,-0.333 0.129,-0.14 0.362,-0.215 0.24,-0.073 0.62,-0.073 z m 0.024,3.488 q 0.362,0 0.595,-0.124 0.24,-0.13 0.38,-0.339 0.14,-0.208 0.192,-0.474 0.059,-0.265 0.059,-0.542 0,-0.254 -0.041,-0.508 -0.04,-0.26 -0.17,-0.468 -0.128,-0.209 -0.367,-0.339 -0.24,-0.13 -0.637,-0.13 -0.362,0 -0.502,0.102 -0.14,0.102 -0.14,0.31 v 2.162 q 0,0.175 0.128,0.266 0.135,0.084 0.503,0.084 z m 3.802,0.6 q -0.666,0 -0.975,-0.35 -0.123,-0.137 -0.21,-0.346 -0.082,-0.214 -0.135,-0.553 -0.046,-0.339 -0.07,-0.835 -0.017,-0.503 -0.017,-1.22 0,-0.23 0.011,-0.378 0.012,-0.152 0.047,-0.237 0.035,-0.09 0.088,-0.124 0.058,-0.034 0.146,-0.034 0.17,0 0.24,0.147 0.07,0.147 0.07,0.508 0,0.124 -0.007,0.22 v 0.198 q 0,0.096 -0.005,0.214 v 0.288 q 0,0.564 0.035,0.937 0.04,0.373 0.134,0.598 0.093,0.22 0.251,0.31 0.164,0.091 0.403,0.091 0.251,0 0.415,-0.096 0.169,-0.1 0.268,-0.333 0.1,-0.237 0.14,-0.626 0.047,-0.39 0.047,-0.97 0,-0.255 -0.006,-0.436 v -0.327 q 0,-0.21 0.012,-0.35 0.018,-0.14 0.047,-0.22 0.035,-0.085 0.093,-0.119 0.059,-0.034 0.146,-0.034 0.088,0 0.146,0.034 0.059,0.034 0.094,0.12 0.035,0.083 0.046,0.236 0.012,0.146 0.012,0.384 0,0.993 -0.064,1.636 -0.064,0.638 -0.228,1.01 -0.164,0.368 -0.45,0.514 -0.28,0.142 -0.724,0.142 z m 2.747,-1.672 v 0.321 q 0,0.136 -0.006,0.26 0,0.124 -0.006,0.248 l -0.012,0.277 q 0.403,-0.045 0.631,-0.073 l 0.356,-0.045 q 0.135,-0.017 0.205,-0.023 0.076,-0.006 0.175,-0.006 0.257,0 0.257,0.243 0,0.096 -0.105,0.164 -0.1,0.067 -0.257,0.118 -0.152,0.045 -0.345,0.08 -0.187,0.028 -0.368,0.04 -0.175,0.016 -0.32,0.021 -0.141,0.006 -0.2,0.006 -0.21,0 -0.326,-0.028 -0.117,-0.023 -0.176,-0.147 -0.058,-0.13 -0.076,-0.39 -0.011,-0.26 -0.011,-0.733 v -0.813 q 0,-0.356 0.006,-0.638 0.005,-0.282 0.005,-0.502 0.006,-0.22 0.018,-0.4 0.012,-0.232 0.082,-0.3 0.07,-0.073 0.175,-0.073 0.058,0 0.1,0.01 0.046,0.006 0.081,0.046 0.035,0.04 0.053,0.113 0.023,0.073 0.029,0.21 0.023,0.495 0.029,0.981 0.006,0.485 0.006,1.033 z m 4.509,1.287 q -0.058,-0.136 -0.129,-0.31 -0.064,-0.18 -0.14,-0.379 l -0.368,0.011 H 27.04 q -0.205,0 -0.374,-0.005 l -0.134,0.372 q -0.065,0.175 -0.123,0.31 -0.117,0.29 -0.339,0.29 -0.082,0 -0.158,-0.052 -0.07,-0.05 -0.07,-0.147 0,-0.096 0.035,-0.248 0.035,-0.158 0.088,-0.333 0.058,-0.18 0.123,-0.367 0.064,-0.192 0.122,-0.356 0.059,-0.18 0.164,-0.457 0.11,-0.282 0.233,-0.587 0.123,-0.305 0.246,-0.598 0.122,-0.3 0.222,-0.52 0.023,-0.056 0.058,-0.124 0.035,-0.073 0.082,-0.135 0.052,-0.062 0.11,-0.108 0.065,-0.045 0.14,-0.045 0.077,0 0.141,0.051 0.064,0.045 0.111,0.113 0.053,0.068 0.088,0.141 0.04,0.073 0.064,0.13 0.093,0.226 0.21,0.52 0.123,0.293 0.24,0.592 0.122,0.3 0.227,0.57 0.105,0.27 0.17,0.457 0.052,0.164 0.116,0.35 0.07,0.186 0.129,0.367 0.058,0.18 0.093,0.34 0.041,0.151 0.041,0.247 0,0.096 -0.076,0.147 -0.07,0.05 -0.152,0.05 -0.105,0 -0.192,-0.067 -0.088,-0.074 -0.152,-0.22 z m -1.034,-1.242 q 0.14,0 0.28,0.006 0.14,0 0.28,0.005 l -0.14,-0.395 -0.134,-0.378 q -0.058,-0.18 -0.11,-0.333 L 27.582,16.36 q -0.024,-0.073 -0.053,-0.118 -0.03,-0.045 -0.076,-0.045 -0.046,0 -0.076,0.05 -0.029,0.046 -0.052,0.12 -0.07,0.23 -0.199,0.603 -0.122,0.367 -0.263,0.773 0.158,-0.005 0.316,-0.005 0.157,-0.006 0.31,-0.006 z m 3.369,0.141 -0.17,0.011 H 30.32 q -0.1,0 -0.222,-0.01 v 1.145 q 0,0.18 -0.093,0.226 -0.088,0.04 -0.222,0.04 -0.07,0 -0.111,-0.012 -0.041,-0.006 -0.07,-0.028 -0.024,-0.029 -0.041,-0.08 -0.012,-0.05 -0.018,-0.14 -0.011,-0.102 -0.017,-0.294 -0.006,-0.198 -0.012,-0.508 0,-0.31 -0.006,-0.75 v -1.045 q 0,-0.23 0.059,-0.446 0.058,-0.22 0.21,-0.384 0.152,-0.169 0.409,-0.27 0.262,-0.102 0.665,-0.102 0.287,0 0.555,0.062 0.275,0.062 0.485,0.214 0.21,0.153 0.339,0.412 0.128,0.26 0.128,0.65 0,0.52 -0.233,0.807 -0.228,0.282 -0.631,0.4 l 0.782,1.04 q 0.105,0.134 0.105,0.276 0,0.112 -0.081,0.175 -0.076,0.067 -0.193,0.067 -0.128,0 -0.222,-0.067 -0.093,-0.074 -0.175,-0.187 z m 0.917,-1.315 q 0,-0.39 -0.245,-0.576 -0.24,-0.192 -0.765,-0.192 -0.193,0 -0.321,0.034 -0.129,0.028 -0.205,0.113 -0.076,0.085 -0.11,0.237 -0.03,0.147 -0.03,0.378 v 0.384 q 0,0.22 0.006,0.4 0.134,0.006 0.298,0.006 h 0.315 q 0.164,0 0.345,-0.017 0.187,-0.022 0.344,-0.1 0.158,-0.086 0.263,-0.238 0.105,-0.158 0.105,-0.43 z"
       style="font-weight:700;font-size:21.33300018px;line-height:19px;font-family:Sniglet;text-anchor:middle;fill:#232323;stroke-width:0.78182518;fill-opacity:1"
       aria-label="IMPROMPT MODULAR"
       font-weight="700"
       font-size="21.333"
       id="path14"
       inkscape:connector-curvature="0" />
  </g>
  <g
     style="line-height:1.25;stroke-width:0.78182518;fill:#232323;fill-opacity:1"
     id="g22"
     transform="matrix(1.2800286,0,0,1.2780891,-2.540032,-5.8691899e-4)">
    <path
       d="m 34.249,13.445 -2.688,0.192 V 10.19 q 0,-0.385 0.108,-0.558 0.105,-0.174 0.362,-0.246 0.253,-0.073 0.574,-0.004 0.368,0.08 0.587,0.32 0.22,0.243 0.22,0.551 0,0.311 -0.26,0.48 -0.26,0.17 -0.672,0.082 -0.135,-0.03 -0.237,-0.073 -0.104,-0.045 -0.337,-0.185 v 2.253 l 2.009,-0.143 v -2.6 q 0,-0.377 0.108,-0.565 0.108,-0.186 0.371,-0.253 0.263,-0.068 0.574,0 0.368,0.08 0.584,0.318 0.213,0.236 0.213,0.544 0,0.326 -0.257,0.492 -0.256,0.168 -0.672,0.08 -0.263,-0.058 -0.587,-0.27 z"
       style="font-weight:400;font-size:3.52800012px;font-family:Arial;-inkscape-font-specification:'Arial, Normal';font-variant-ligatures:normal;font-variant-caps:normal;font-variant-numeric:normal;font-feature-settings:normal;text-align:start;letter-spacing:0;word-spacing:0;fill:#232323;stroke-width:0.78182518;fill-opacity:1"
       font-size="3.528"
       aria-label="♫"
       font-weight="400"
       letter-spacing="0"
       word-spacing="0"
       id="path20"
       inkscape:connector-curvature="0" />
  </g>
  <g
     style="line-height:1.25;stroke-width:0.78182518;fill:#232323;fill-opacity:1"
     id="g26"
     transform="matrix(1.2800286,0,0,1.2780891,-2.540032,-5.8691899e-4)">
    <path
       d="m 11.99,91.695 q 0,-0.237 0.018,-0.37 0.017,-0.135 0.07,-0.203 0.054,-0.067 0.153,-0.081 0.098,-0.017 0.26,-0.017 h 0.163 q 0.073,0 0.141,0.002 0.07,0 0.138,0.003 l 0.153,0.006 q 0.067,0.005 0.104,0.017 0.037,0.008 0.057,0.025 0.02,0.017 0.022,0.04 0.006,0.022 0.006,0.05 0,0.05 -0.037,0.085 -0.034,0.034 -0.15,0.04 l -0.138,0.005 -0.15,0.006 q -0.081,0 -0.186,0.003 h -0.25 q -0.052,0 -0.071,0.036 -0.02,0.034 -0.02,0.088 v 0.084 q 0.003,0.043 0.003,0.094 0.002,0.05 0.002,0.115 0.003,0.062 0.003,0.147 0.105,0 0.18,0.003 0.08,0 0.136,0.003 0.06,0 0.105,0.002 l 0.087,0.006 q 0.116,0.006 0.15,0.04 0.037,0.033 0.037,0.084 0,0.028 -0.006,0.05 -0.003,0.024 -0.023,0.04 -0.02,0.017 -0.056,0.029 -0.037,0.01 -0.105,0.017 l -0.087,0.005 q -0.04,0 -0.096,0.003 h -0.322 q -0.002,0.17 -0.002,0.347 0.002,0.175 -0.009,0.36 -0.006,0.11 -0.04,0.137 -0.03,0.023 -0.095,0.023 -0.063,0 -0.094,-0.026 -0.03,-0.028 -0.036,-0.13 -0.006,-0.09 -0.009,-0.197 0,-0.11 -0.003,-0.25 -0.002,-0.14 -0.002,-0.315 v -0.406 z m 1.95,-0.118 q 0.162,0 0.289,0.05 0.127,0.049 0.214,0.139 0.09,0.09 0.138,0.22 0.048,0.13 0.048,0.29 0,0.178 -0.056,0.32 -0.054,0.14 -0.152,0.24 -0.096,0.098 -0.232,0.152 -0.132,0.053 -0.29,0.053 -0.173,0 -0.305,-0.06 -0.13,-0.06 -0.22,-0.16 -0.088,-0.101 -0.133,-0.234 -0.045,-0.133 -0.045,-0.28 0,-0.16 0.05,-0.293 0.054,-0.135 0.15,-0.231 0.099,-0.1 0.237,-0.153 0.138,-0.053 0.308,-0.053 z m -0.03,1.205 q 0.115,0 0.197,-0.04 0.082,-0.042 0.133,-0.11 0.054,-0.067 0.076,-0.152 0.026,-0.088 0.026,-0.18 0,-0.097 -0.026,-0.18 -0.022,-0.083 -0.073,-0.145 -0.048,-0.062 -0.127,-0.096 -0.076,-0.037 -0.184,-0.037 -0.11,0 -0.192,0.037 -0.081,0.036 -0.138,0.1 -0.053,0.063 -0.082,0.15 -0.028,0.088 -0.028,0.19 0,0.206 0.104,0.336 0.108,0.127 0.314,0.127 z m 0.986,0.053 q -0.011,-0.098 -0.014,-0.24 -0.003,-0.14 -0.003,-0.34 v -0.32 q 0.003,-0.121 0.017,-0.214 0.014,-0.116 0.042,-0.15 0.031,-0.034 0.08,-0.034 0.033,0 0.059,0.006 0.028,0.005 0.048,0.025 0.022,0.017 0.034,0.05 0.01,0.035 0.01,0.094 0,0.01 0.004,0.023 v 0.025 q 0.002,0.01 0.002,0.028 0.077,-0.096 0.173,-0.163 0.098,-0.068 0.223,-0.068 0.166,0 0.166,0.138 0,0.05 -0.023,0.085 -0.02,0.034 -0.059,0.056 -0.037,0.02 -0.087,0.03 -0.048,0.013 -0.108,0.024 -0.09,0.017 -0.169,0.065 -0.079,0.045 -0.107,0.116 v 0.079 q 0.003,0.025 0.003,0.042 0.002,0.017 0.002,0.037 v 0.062 q 0,0.144 -0.005,0.27 l -0.011,0.272 q -0.003,0.067 -0.017,0.104 -0.012,0.037 -0.031,0.056 -0.017,0.02 -0.04,0.023 -0.022,0.006 -0.045,0.006 -0.08,0 -0.107,-0.034 -0.026,-0.037 -0.037,-0.153 z m 2.407,0.06 q -0.036,0.067 -0.068,0.099 -0.028,0.03 -0.073,0.03 -0.045,0 -0.079,-0.03 -0.034,-0.032 -0.073,-0.096 -0.051,-0.085 -0.116,-0.235 -0.062,-0.15 -0.127,-0.324 -0.065,-0.178 -0.127,-0.367 -0.062,-0.19 -0.113,-0.356 -0.048,-0.166 -0.079,-0.29 -0.028,-0.127 -0.028,-0.181 0,-0.057 0.022,-0.085 0.023,-0.028 0.088,-0.028 0.037,0 0.062,0.02 0.028,0.017 0.07,0.1 0.034,0.066 0.074,0.17 0.04,0.105 0.082,0.232 0.045,0.127 0.09,0.268 l 0.09,0.277 q 0.046,0.138 0.085,0.265 l 0.073,0.229 0.077,-0.232 0.087,-0.265 0.09,-0.277 q 0.046,-0.14 0.09,-0.265 l 0.085,-0.228 q 0.04,-0.105 0.071,-0.173 0.04,-0.081 0.068,-0.101 0.03,-0.02 0.062,-0.02 0.065,0 0.087,0.034 0.026,0.03 0.026,0.093 0,0.056 -0.017,0.136 -0.017,0.079 -0.06,0.21 -0.039,0.13 -0.107,0.326 l -0.166,0.477 q -0.026,0.076 -0.06,0.158 -0.03,0.082 -0.064,0.16 -0.031,0.077 -0.062,0.147 -0.032,0.07 -0.06,0.122 z m 1.589,-1.886 q 0.093,0 0.186,0.017 0.096,0.015 0.172,0.048 0.077,0.03 0.125,0.08 0.05,0.045 0.05,0.107 0,0.065 -0.034,0.098 -0.033,0.034 -0.084,0.034 -0.048,0 -0.085,-0.014 l -0.085,-0.037 q -0.045,-0.02 -0.11,-0.033 -0.065,-0.017 -0.172,-0.017 -0.107,0 -0.206,0.056 -0.096,0.054 -0.17,0.153 -0.07,0.096 -0.112,0.228 -0.042,0.133 -0.042,0.288 0,0.192 0.048,0.33 0.05,0.139 0.13,0.229 0.078,0.087 0.177,0.132 0.102,0.043 0.203,0.043 0.122,0 0.204,-0.026 0.082,-0.025 0.138,-0.056 0.06,-0.031 0.102,-0.056 0.042,-0.026 0.081,-0.026 0.048,0 0.077,0.028 0.028,0.026 0.028,0.093 0,0.057 -0.045,0.116 -0.043,0.057 -0.127,0.105 -0.082,0.045 -0.198,0.076 -0.116,0.028 -0.26,0.028 -0.158,0 -0.316,-0.062 -0.155,-0.062 -0.279,-0.184 -0.121,-0.124 -0.198,-0.307 -0.076,-0.186 -0.076,-0.432 0,-0.245 0.068,-0.437 0.07,-0.192 0.189,-0.325 0.121,-0.135 0.28,-0.206 0.16,-0.07 0.34,-0.07 z m 1.641,1.886 q -0.036,0.067 -0.067,0.099 -0.029,0.03 -0.074,0.03 -0.045,0 -0.079,-0.03 -0.034,-0.032 -0.073,-0.096 -0.05,-0.085 -0.116,-0.235 -0.062,-0.15 -0.127,-0.324 -0.065,-0.178 -0.127,-0.367 -0.062,-0.19 -0.113,-0.356 -0.048,-0.166 -0.079,-0.29 -0.028,-0.127 -0.028,-0.181 0,-0.057 0.023,-0.085 0.022,-0.028 0.087,-0.028 0.037,0 0.062,0.02 0.028,0.017 0.07,0.1 0.035,0.066 0.074,0.17 0.04,0.105 0.082,0.232 0.045,0.127 0.09,0.268 l 0.09,0.277 q 0.046,0.138 0.085,0.265 l 0.074,0.229 0.076,-0.232 0.087,-0.265 q 0.046,-0.138 0.09,-0.277 0.046,-0.14 0.091,-0.265 0.045,-0.124 0.085,-0.228 0.04,-0.105 0.07,-0.173 0.04,-0.081 0.068,-0.101 0.031,-0.02 0.062,-0.02 0.065,0 0.088,0.034 0.025,0.03 0.025,0.093 0,0.056 -0.017,0.136 -0.017,0.079 -0.06,0.21 -0.039,0.13 -0.107,0.326 l -0.166,0.477 q -0.025,0.076 -0.06,0.158 -0.03,0.082 -0.064,0.16 -0.031,0.077 -0.062,0.147 -0.031,0.07 -0.06,0.122 z m 2.065,-0.582 -0.082,0.006 h -0.178 q -0.048,0 -0.107,-0.006 v 0.573 q 0,0.09 -0.045,0.113 -0.043,0.02 -0.108,0.02 -0.033,0 -0.053,-0.006 -0.02,-0.002 -0.034,-0.014 -0.011,-0.014 -0.02,-0.04 -0.005,-0.025 -0.008,-0.07 -0.006,-0.05 -0.009,-0.147 -0.003,-0.098 -0.005,-0.254 0,-0.155 -0.003,-0.375 v -0.522 q 0,-0.116 0.028,-0.223 0.028,-0.11 0.102,-0.192 0.073,-0.085 0.197,-0.135 0.127,-0.051 0.322,-0.051 0.138,0 0.268,0.03 0.133,0.032 0.234,0.108 0.102,0.076 0.164,0.206 0.062,0.13 0.062,0.325 0,0.26 -0.113,0.403 -0.11,0.14 -0.305,0.2 l 0.379,0.52 q 0.05,0.068 0.05,0.138 0,0.057 -0.04,0.088 -0.036,0.034 -0.092,0.034 -0.062,0 -0.108,-0.034 -0.045,-0.037 -0.084,-0.093 z m 0.443,-0.657 q 0,-0.195 -0.119,-0.288 -0.115,-0.096 -0.37,-0.096 -0.093,0 -0.155,0.017 -0.062,0.014 -0.098,0.056 -0.037,0.043 -0.054,0.119 -0.014,0.073 -0.014,0.189 v 0.192 q 0,0.11 0.003,0.2 0.065,0.003 0.144,0.003 h 0.152 q 0.079,0 0.166,-0.008 0.09,-0.012 0.167,-0.051 0.076,-0.043 0.127,-0.12 0.05,-0.078 0.05,-0.213 z m 1.691,1.363 q -0.045,0 -0.074,-0.014 -0.025,-0.017 -0.04,-0.043 -0.013,-0.025 -0.019,-0.06 -0.005,-0.035 -0.008,-0.075 -0.07,0.087 -0.184,0.147 -0.11,0.059 -0.282,0.059 -0.11,0 -0.226,-0.031 -0.113,-0.034 -0.206,-0.113 -0.093,-0.082 -0.152,-0.217 -0.06,-0.136 -0.06,-0.342 0,-0.16 0.04,-0.302 0.04,-0.14 0.119,-0.245 0.081,-0.107 0.203,-0.17 0.121,-0.062 0.285,-0.062 0.144,0 0.257,0.054 0.113,0.05 0.203,0.17 0,-0.035 0.003,-0.068 0.002,-0.037 0.014,-0.065 0.014,-0.031 0.042,-0.048 0.028,-0.02 0.076,-0.02 0.043,0 0.08,0.034 0.036,0.034 0.042,0.147 0.008,0.15 0.01,0.268 0.007,0.118 0.007,0.245 0,0.155 -0.003,0.285 -0.003,0.13 -0.014,0.277 -0.006,0.065 -0.017,0.104 -0.009,0.037 -0.023,0.057 -0.014,0.017 -0.034,0.022 -0.02,0.006 -0.04,0.006 z m -0.153,-0.717 q 0,-0.147 -0.045,-0.24 -0.042,-0.093 -0.11,-0.144 -0.065,-0.053 -0.14,-0.073 -0.077,-0.02 -0.142,-0.02 -0.102,0 -0.175,0.037 -0.07,0.036 -0.116,0.1 -0.045,0.063 -0.067,0.15 -0.02,0.086 -0.02,0.187 0,0.249 0.107,0.367 0.11,0.119 0.296,0.119 0.11,0 0.187,-0.037 0.079,-0.04 0.127,-0.104 0.05,-0.065 0.073,-0.153 0.025,-0.09 0.025,-0.19 z m 1.254,-0.734 q 0.082,0 0.164,0.014 0.085,0.014 0.152,0.04 0.068,0.025 0.11,0.062 0.043,0.037 0.043,0.085 0,0.124 -0.141,0.124 -0.034,0 -0.065,-0.01 -0.029,-0.01 -0.068,-0.02 -0.04,-0.01 -0.099,-0.02 -0.06,-0.01 -0.147,-0.01 -0.186,0 -0.287,0.128 -0.102,0.127 -0.102,0.33 0,0.223 0.102,0.358 0.104,0.136 0.293,0.136 0.119,0 0.192,-0.02 0.073,-0.02 0.119,-0.045 0.048,-0.026 0.076,-0.045 0.03,-0.02 0.067,-0.02 0.051,0 0.08,0.022 0.03,0.02 0.03,0.085 0,0.068 -0.053,0.119 -0.05,0.05 -0.13,0.084 -0.079,0.034 -0.172,0.05 -0.09,0.018 -0.167,0.018 -0.341,0 -0.536,-0.19 -0.195,-0.188 -0.195,-0.535 0,-0.15 0.046,-0.283 0.048,-0.135 0.14,-0.237 0.094,-0.101 0.23,-0.16 0.138,-0.06 0.318,-0.06 z m 0.768,1.29 q -0.005,-0.062 -0.008,-0.186 l -0.006,-0.29 Q 26.584,92.215 26.584,92.02 v -0.398 q 0,-0.24 0.003,-0.392 0.003,-0.153 0.017,-0.24 0.014,-0.088 0.045,-0.12 0.031,-0.033 0.09,-0.033 0.051,0 0.074,0.034 0.022,0.03 0.034,0.14 0.005,0.069 0.008,0.185 0.006,0.113 0.006,0.248 0.003,0.136 0.003,0.282 l 0.002,0.28 v 0.228 l 0.627,-0.567 q 0.031,-0.028 0.073,-0.054 0.045,-0.028 0.093,-0.028 0.057,0 0.085,0.045 0.028,0.043 0.028,0.1 0,0.03 -0.01,0.058 -0.01,0.026 -0.04,0.048 l -0.381,0.314 0.462,0.67 q 0.026,0.035 0.026,0.078 0,0.062 -0.04,0.093 -0.04,0.03 -0.101,0.03 -0.045,0 -0.08,-0.016 -0.033,-0.017 -0.064,-0.065 l -0.424,-0.613 -0.256,0.212 -0.006,0.186 q -0.003,0.082 -0.009,0.13 -0.01,0.099 -0.036,0.13 -0.026,0.03 -0.09,0.03 -0.065,0 -0.09,-0.03 -0.023,-0.031 -0.032,-0.127 z"
       style="font-weight:400;font-size:2.82200003px;font-family:Sniglet;-inkscape-font-specification:'Sniglet, Normal';font-variant-ligatures:normal;font-variant-caps:normal;font-variant-numeric:normal;font-feature-settings:normal;text-align:start;letter-spacing:0;word-spacing:0;fill:#232323;stroke-width:0.78182518;fill-opacity:1"
       aria-label="For VCV Rack"
       font-weight="400"
       font-size="2.822"
       letter-spacing="0"
       word-spacing="0"
       id="path24"
       inkscape:connector-curvature="0" />
  </g>
</svg>
