<?xml version="1.0" encoding="UTF-8" standalone="no"?>
<svg
   width="106.68mm"
   height="128.5mm"
   viewBox="0 0 106.68032 128.50044"
   version="1.1"
   id="svg60"
   sodipodi:docname="ChordKey.svg"
   inkscape:version="1.1 (c68e22c387, 2021-05-23)"
   xmlns:inkscape="http://www.inkscape.org/namespaces/inkscape"
   xmlns:sodipodi="http://sodipodi.sourceforge.net/DTD/sodipodi-0.dtd"
   xmlns="http://www.w3.org/2000/svg"
   xmlns:svg="http://www.w3.org/2000/svg"
   xmlns:rdf="http://www.w3.org/1999/02/22-rdf-syntax-ns#"
   xmlns:cc="http://creativecommons.org/ns#"
   xmlns:dc="http://purl.org/dc/elements/1.1/">
  <metadata
     id="metadata66">
    <rdf:RDF>
      <cc:Work
         rdf:about="">
        <dc:format>image/svg+xml</dc:format>
        <dc:type
           rdf:resource="http://purl.org/dc/dcmitype/StillImage" />
        <dc:title />
      </cc:Work>
    </rdf:RDF>
  </metadata>
  <defs
     id="defs64" />
  <sodipodi:namedview
     pagecolor="#ffffff"
     bordercolor="#666666"
     borderopacity="1"
     objecttolerance="10"
     gridtolerance="10"
     guidetolerance="10"
     inkscape:pageopacity="0"
     inkscape:pageshadow="2"
     inkscape:window-width="1920"
     inkscape:window-height="1001"
     id="namedview62"
     showgrid="false"
     inkscape:document-units="mm"
     units="mm"
     inkscape:zoom="3.4962062"
     inkscape:cx="-50.626305"
     inkscape:cy="393.71248"
     inkscape:window-x="-9"
     inkscape:window-y="-9"
     inkscape:window-maximized="1"
     inkscape:current-layer="svg60"
     inkscape:pagecheckerboard="0" />
  <rect
     rx="2.3399999"
     ry="2.3399999"
     y="67.151329"
     x="75.840019"
     height="51.729935"
     width="26.929926"
     id="rect4"
     style="fill:#afafaf;stroke-width:1;paint-order:stroke markers fill;fill-opacity:1" />
  <g
     style="line-height:1.25;stroke-width:0.78124982;fill:#232323;fill-opacity:1"
     id="g8"
     transform="matrix(1.2800003,0,0,1.2800003,0,-0.09604601)">
    <path
       word-spacing="0"
       letter-spacing="0"
       font-weight="400"
       aria-label="♫"
       font-size="3.528"
       style="font-weight:400;font-size:3.52800012px;font-family:Arial;-inkscape-font-specification:'Arial, Normal';font-variant-ligatures:normal;font-variant-caps:normal;font-variant-numeric:normal;font-feature-settings:normal;text-align:start;letter-spacing:0;word-spacing:0;fill:#232323;stroke-width:0.78124982;fill-opacity:1"
       d="m 50.134,96.87 -1.63,0.115 v -2.06 q 0,-0.23 0.065,-0.333 0.064,-0.104 0.22,-0.147 0.153,-0.043 0.348,-0.002 0.223,0.047 0.356,0.19 0.133,0.146 0.133,0.33 0,0.186 -0.157,0.286 -0.158,0.103 -0.408,0.05 -0.082,-0.018 -0.143,-0.044 -0.064,-0.027 -0.205,-0.11 v 1.345 l 1.22,-0.085 v -1.554 q 0,-0.225 0.064,-0.337 0.066,-0.11 0.226,-0.151 0.16,-0.04 0.348,0 0.223,0.047 0.354,0.19 0.13,0.14 0.13,0.325 0,0.195 -0.156,0.294 -0.156,0.1 -0.408,0.047 -0.16,-0.034 -0.357,-0.16 z"
       id="path6"
       inkscape:connector-curvature="0" />
  </g>
  <g
     style="line-height:1.25;stroke-width:0.78124982;fill:#232323;fill-opacity:1"
     id="g12"
     transform="matrix(1.2800003,0,0,1.2800003,0,-0.09604601)">
    <path
       word-spacing="0"
       letter-spacing="0"
       font-size="3.528"
       font-weight="400"
       aria-label="IMPROMPT"
       d="m 32.116,96.698 q -0.007,-0.127 -0.01,-0.265 0,-0.137 -0.004,-0.296 -0.003,-0.159 -0.003,-0.342 v -0.417 q 0,-0.25 0.003,-0.426 0.004,-0.18 0.021,-0.293 0.018,-0.113 0.053,-0.166 0.04,-0.053 0.102,-0.053 0.032,0 0.06,0.007 0.03,0.007 0.05,0.032 0.02,0.02 0.035,0.067 0.018,0.042 0.021,0.113 0.007,0.127 0.01,0.225 l 0.008,0.198 q 0.003,0.095 0.003,0.201 v 0.536 q 0,0.145 -0.003,0.286 l -0.007,0.286 -0.01,0.303 q -0.004,0.085 -0.018,0.13 -0.015,0.047 -0.036,0.071 -0.02,0.025 -0.05,0.028 -0.027,0.007 -0.063,0.007 -0.063,0 -0.109,-0.042 -0.046,-0.046 -0.053,-0.19 z m 1.754,-0.381 q -0.162,-0.357 -0.29,-0.688 -0.123,-0.335 -0.21,-0.596 -0.082,0.437 -0.139,0.882 -0.053,0.444 -0.137,0.85 -0.02,0.092 -0.078,0.123 -0.056,0.028 -0.095,0.028 -0.064,0 -0.102,-0.038 -0.036,-0.04 -0.036,-0.1 0,-0.08 0.018,-0.246 0.021,-0.17 0.05,-0.381 0.031,-0.212 0.07,-0.445 l 0.078,-0.448 0.077,-0.395 q 0.04,-0.176 0.067,-0.271 0.046,-0.163 0.187,-0.163 0.085,0 0.145,0.085 0.06,0.081 0.127,0.254 0.07,0.17 0.166,0.43 0.098,0.262 0.254,0.614 0.151,-0.352 0.243,-0.61 0.095,-0.261 0.16,-0.43 0.066,-0.173 0.126,-0.254 0.06,-0.085 0.148,-0.085 0.081,0 0.123,0.042 0.043,0.039 0.064,0.12 0.025,0.099 0.06,0.275 0.035,0.173 0.074,0.388 0.042,0.212 0.081,0.445 0.04,0.233 0.07,0.444 0.032,0.212 0.05,0.385 0.021,0.17 0.021,0.261 0,0.056 -0.039,0.092 -0.038,0.031 -0.098,0.031 -0.04,0 -0.096,-0.028 -0.056,-0.032 -0.077,-0.123 -0.043,-0.201 -0.078,-0.417 l -0.063,-0.433 -0.057,-0.441 q -0.028,-0.223 -0.06,-0.441 -0.046,0.14 -0.106,0.31 -0.06,0.17 -0.127,0.342 -0.067,0.17 -0.137,0.335 -0.07,0.166 -0.138,0.3 -0.024,0.046 -0.067,0.07 -0.039,0.022 -0.08,0.022 -0.047,0 -0.09,-0.021 -0.038,-0.025 -0.06,-0.074 z m 2.005,0.377 q 0,0.085 -0.018,0.13 -0.014,0.047 -0.039,0.071 -0.02,0.025 -0.053,0.029 -0.028,0.007 -0.056,0.007 -0.095,0 -0.127,-0.043 -0.028,-0.042 -0.039,-0.19 -0.007,-0.078 -0.01,-0.226 -0.004,-0.148 -0.007,-0.353 0,-0.204 -0.004,-0.451 v -0.522 q 0,-0.131 0.032,-0.265 0.032,-0.134 0.12,-0.243 0.091,-0.11 0.25,-0.177 0.162,-0.067 0.42,-0.067 0.18,0 0.342,0.039 0.162,0.039 0.286,0.134 0.123,0.095 0.198,0.254 0.074,0.159 0.074,0.395 0,0.247 -0.082,0.41 -0.08,0.162 -0.229,0.257 -0.148,0.095 -0.353,0.134 -0.204,0.039 -0.448,0.039 h -0.12 q -0.06,0 -0.134,-0.007 z m 1.016,-1.485 q 0,-0.236 -0.134,-0.356 -0.13,-0.12 -0.438,-0.12 -0.116,0 -0.2,0.021 -0.082,0.018 -0.135,0.067 -0.053,0.046 -0.08,0.127 -0.026,0.081 -0.026,0.205 v 0.275 q 0,0.151 0.004,0.286 0.081,0.004 0.18,0.004 h 0.19 q 0.106,0 0.22,-0.015 0.115,-0.014 0.207,-0.063 0.092,-0.053 0.152,-0.152 0.06,-0.102 0.06,-0.278 z m 1.451,0.84 -0.102,0.007 h -0.223 q -0.06,0 -0.134,-0.007 v 0.716 q 0,0.113 -0.056,0.14 -0.053,0.026 -0.134,0.026 -0.042,0 -0.067,-0.007 -0.025,-0.004 -0.042,-0.018 -0.015,-0.018 -0.025,-0.05 -0.007,-0.031 -0.01,-0.088 -0.008,-0.063 -0.01,-0.183 -0.005,-0.123 -0.008,-0.318 0,-0.194 -0.004,-0.469 v -0.652 q 0,-0.145 0.035,-0.279 0.036,-0.138 0.127,-0.24 0.092,-0.106 0.247,-0.17 0.16,-0.063 0.402,-0.063 0.173,0 0.336,0.039 0.165,0.039 0.292,0.134 0.127,0.095 0.205,0.258 0.078,0.162 0.078,0.405 0,0.325 -0.14,0.505 -0.139,0.176 -0.382,0.25 l 0.472,0.65 q 0.064,0.084 0.064,0.172 0,0.07 -0.05,0.11 -0.046,0.042 -0.116,0.042 -0.078,0 -0.134,-0.042 -0.057,-0.046 -0.106,-0.117 z m 0.554,-0.822 q 0,-0.244 -0.148,-0.36 -0.145,-0.12 -0.462,-0.12 -0.117,0 -0.194,0.021 -0.078,0.018 -0.124,0.07 -0.046,0.054 -0.067,0.149 -0.018,0.091 -0.018,0.236 v 0.24 q 0,0.138 0.004,0.25 0.081,0.005 0.18,0.005 h 0.19 q 0.1,0 0.208,-0.011 0.113,-0.014 0.21,-0.064 0.094,-0.052 0.157,-0.148 0.064,-0.099 0.064,-0.268 z m 1.61,1.725 q -0.213,0 -0.399,-0.085 -0.184,-0.085 -0.322,-0.243 -0.137,-0.163 -0.218,-0.395 -0.078,-0.233 -0.078,-0.53 0,-0.278 0.067,-0.511 0.07,-0.233 0.205,-0.402 0.137,-0.17 0.338,-0.261 0.202,-0.096 0.466,-0.096 0.215,0 0.41,0.078 0.193,0.078 0.338,0.233 0.148,0.155 0.233,0.388 0.085,0.233 0.085,0.543 0,0.258 -0.07,0.49 -0.068,0.233 -0.209,0.41 -0.138,0.173 -0.35,0.278 -0.21,0.103 -0.497,0.103 z m 0.006,-0.332 q 0.194,0 0.34,-0.077 0.144,-0.082 0.24,-0.212 0.094,-0.13 0.14,-0.3 0.046,-0.173 0.046,-0.353 0,-0.218 -0.06,-0.388 -0.057,-0.173 -0.155,-0.29 -0.1,-0.115 -0.23,-0.175 -0.13,-0.064 -0.278,-0.064 -0.177,0 -0.31,0.074 -0.13,0.074 -0.223,0.201 -0.088,0.127 -0.134,0.3 -0.046,0.17 -0.046,0.363 0,0.209 0.053,0.381 0.053,0.17 0.141,0.29 0.092,0.12 0.215,0.187 0.124,0.063 0.261,0.063 z m 2.384,-0.303 q -0.162,-0.357 -0.29,-0.688 -0.123,-0.335 -0.21,-0.596 -0.082,0.437 -0.138,0.882 -0.053,0.444 -0.138,0.85 -0.02,0.092 -0.078,0.123 -0.056,0.028 -0.095,0.028 -0.063,0 -0.102,-0.038 -0.036,-0.04 -0.036,-0.1 0,-0.08 0.018,-0.246 0.021,-0.17 0.05,-0.381 0.031,-0.212 0.07,-0.445 l 0.078,-0.448 0.077,-0.395 q 0.04,-0.176 0.067,-0.271 0.046,-0.163 0.187,-0.163 0.085,0 0.145,0.085 0.06,0.081 0.127,0.254 0.07,0.17 0.166,0.43 0.1,0.262 0.254,0.614 0.151,-0.352 0.243,-0.61 0.095,-0.261 0.16,-0.43 0.066,-0.173 0.126,-0.254 0.06,-0.085 0.148,-0.085 0.081,0 0.124,0.042 0.042,0.039 0.063,0.12 0.025,0.099 0.06,0.275 0.035,0.173 0.074,0.388 0.042,0.212 0.081,0.445 0.04,0.233 0.07,0.444 0.033,0.212 0.05,0.385 0.021,0.17 0.021,0.261 0,0.056 -0.038,0.092 -0.04,0.031 -0.1,0.031 -0.038,0 -0.094,-0.028 -0.057,-0.032 -0.078,-0.123 -0.042,-0.201 -0.078,-0.417 L 43.817,95.915 43.76,95.474 q -0.028,-0.223 -0.06,-0.441 -0.045,0.14 -0.105,0.31 -0.06,0.17 -0.127,0.342 -0.067,0.17 -0.138,0.335 -0.07,0.166 -0.138,0.3 -0.024,0.046 -0.067,0.07 -0.038,0.022 -0.08,0.022 -0.047,0 -0.089,-0.021 -0.039,-0.025 -0.06,-0.074 z m 2.005,0.377 q 0,0.085 -0.018,0.13 -0.014,0.047 -0.038,0.071 -0.022,0.025 -0.053,0.029 -0.029,0.007 -0.057,0.007 -0.095,0 -0.127,-0.043 -0.028,-0.042 -0.039,-0.19 -0.007,-0.078 -0.01,-0.226 -0.004,-0.148 -0.007,-0.353 0,-0.204 -0.004,-0.451 v -0.522 q 0,-0.131 0.032,-0.265 0.032,-0.134 0.12,-0.243 0.092,-0.11 0.25,-0.177 0.163,-0.067 0.42,-0.067 0.18,0 0.342,0.039 0.163,0.039 0.286,0.134 0.124,0.095 0.198,0.254 0.074,0.159 0.074,0.395 0,0.247 -0.08,0.41 -0.083,0.162 -0.23,0.257 -0.149,0.095 -0.353,0.134 -0.205,0.039 -0.449,0.039 h -0.12 q -0.06,0 -0.134,-0.007 z m 1.016,-1.485 q 0,-0.236 -0.134,-0.356 -0.13,-0.12 -0.438,-0.12 -0.116,0 -0.2,0.021 -0.082,0.018 -0.135,0.067 -0.053,0.046 -0.08,0.127 -0.025,0.081 -0.025,0.205 v 0.275 q 0,0.151 0.003,0.286 0.081,0.004 0.18,0.004 h 0.19 q 0.106,0 0.22,-0.015 0.116,-0.014 0.207,-0.063 0.092,-0.053 0.152,-0.152 0.06,-0.102 0.06,-0.278 z m 1.974,-0.437 q -0.099,0.007 -0.212,0.01 l -0.243,0.007 0.007,0.18 0.007,0.166 q 0.004,0.085 0.004,0.176 0.003,0.092 0.003,0.205 v 0.307 q 0,0.144 -0.003,0.293 l -0.007,0.292 -0.01,0.307 q -0.004,0.085 -0.019,0.13 -0.01,0.047 -0.03,0.072 -0.023,0.024 -0.05,0.028 -0.029,0.007 -0.064,0.007 -0.064,0 -0.11,-0.043 -0.042,-0.045 -0.049,-0.19 -0.007,-0.127 -0.01,-0.268 0,-0.141 -0.004,-0.304 -0.004,-0.162 -0.004,-0.349 V 95.04 q 0.004,-0.145 0.011,-0.25 h -0.145 q -0.148,0 -0.254,-0.005 -0.102,-0.004 -0.169,-0.017 -0.067,-0.018 -0.099,-0.053 -0.028,-0.036 -0.028,-0.1 0,-0.03 0.007,-0.055 0.007,-0.029 0.032,-0.05 0.025,-0.025 0.067,-0.039 0.046,-0.014 0.116,-0.02 l 0.12,-0.008 0.106,-0.007 q 0.053,-0.004 0.11,-0.004 h 0.13 q 0.208,0 0.392,0.004 0.186,0.004 0.395,0.014 0.084,0.007 0.13,0.021 0.046,0.011 0.07,0.032 0.025,0.021 0.03,0.05 0.006,0.028 0.006,0.063 0,0.064 -0.046,0.106 -0.042,0.042 -0.187,0.05 z"
       style="font-weight:400;font-size:3.52800012px;font-family:Sniglet;-inkscape-font-specification:'Sniglet, Normal';font-variant-ligatures:normal;font-variant-caps:normal;font-variant-numeric:normal;font-feature-settings:normal;text-align:start;letter-spacing:0;word-spacing:0;fill:#232323;stroke-width:0.78124982;fill-opacity:1"
       id="path10"
       inkscape:connector-curvature="0" />
  </g>
  <path
     word-spacing="0"
     letter-spacing="0"
     font-size="2.822"
     font-weight="400"
     style="font-weight:400;font-size:2.82200003px;line-height:1.25;font-family:Sniglet;-inkscape-font-specification:'Sniglet, Normal';font-variant-ligatures:normal;font-variant-caps:normal;font-variant-numeric:normal;font-feature-settings:normal;text-align:start;letter-spacing:0;word-spacing:0;stroke-width:1;fill:#232323;fill-opacity:1"
     d="m 92.770582,69.223651 q 0.12032,0 0.24576,0.02176 0.128,0.02176 0.23168,0.064 0.10496,0.04096 0.1728,0.1024 0.06912,0.06144 0.06912,0.1408 0,0.08192 -0.04352,0.12544 -0.04352,0.04352 -0.1088,0.04352 -0.06144,0 -0.1152,-0.02176 l -0.1152,-0.04608 q -0.064,-0.0256 -0.15616,-0.04736 -0.0896,-0.02176 -0.22656,-0.02176 -0.15232,0 -0.28544,0.07296 -0.13056,0.06784 -0.2304,0.19456 -0.1024,0.12288 -0.16,0.2944 -0.0576,0.16768 -0.0576,0.36608 0,0.2432 0.06144,0.41984 0.06144,0.17664 0.15872,0.29184 0.1024,0.1152 0.224,0.17408 0.128,0.05376 0.25216,0.05376 0.20608,0 0.32512,-0.0576 0.12288,-0.06144 0.19584,-0.1536 0.0038,-0.0768 0.0038,-0.18176 v -0.22784 q 0,-0.04736 -0.0077,-0.07296 -0.0077,-0.02816 -0.03584,-0.04352 -0.02944,-0.0128 -0.08704,-0.01792 -0.05376,-0.0038 -0.14848,-0.0038 -0.1152,0 -0.18816,-0.02816 -0.07168,-0.03328 -0.07168,-0.1344 0,-0.07168 0.03584,-0.1152 0.03968,-0.04736 0.15872,-0.05376 h 0.06912 q 0.0512,-0.0038 0.10496,-0.0038 h 0.1984 q 0.1088,0 0.17408,0.02176 0.064,0.01792 0.1152,0.08576 0.0256,0.03584 0.02816,0.128 0.0077,0.0896 0.0077,0.20864 v 0.93184 q 0,0.09728 -0.05376,0.14464 -0.0512,0.04608 -0.11904,0.04608 -0.0832,0 -0.13696,-0.04224 -0.0512,-0.0384 -0.0512,-0.13056 v -0.1408 q -0.09344,0.1088 -0.224,0.1536 -0.12672,0.04864 -0.32,0.04864 -0.19968,0 -0.39168,-0.07936 -0.192,-0.07936 -0.3392,-0.23552 -0.14848,-0.15872 -0.243201,-0.39296 -0.0896,-0.23808 -0.0896,-0.55296 0,-0.31488 0.0896,-0.55936 0.09472,-0.24576 0.253441,-0.416 0.16,-0.1728 0.37248,-0.26368 0.21376,-0.0896 0.4608,-0.0896 z m 2.70592,2.37312 q -0.03712,-0.08704 -0.07936,-0.1984 -0.0384,-0.1152 -0.08704,-0.2432 l -0.22784,0.009 h -0.52352 q -0.12672,0 -0.2304,-0.0038 l -0.08448,0.23808 q -0.0384,0.11136 -0.07552,0.1984 -0.07168,0.18432 -0.20992,0.18432 -0.0512,0 -0.09728,-0.032 -0.04352,-0.03328 -0.04352,-0.09472 0,-0.06144 0.02176,-0.15872 0.02176,-0.1024 0.05376,-0.21248 l 0.0768,-0.23552 q 0.0384,-0.12288 0.0768,-0.22784 0.03456,-0.1152 0.09984,-0.29184 l 0.14464,-0.37632 0.15104,-0.384 q 0.0768,-0.192 0.13824,-0.3328 0.01408,-0.03456 0.03584,-0.0768 0.02176,-0.04736 0.0512,-0.08704 0.032,-0.0384 0.06784,-0.06912 0.03968,-0.02944 0.08704,-0.02944 0.04608,0 0.08576,0.03328 0.03968,0.02816 0.06912,0.07168 0.032,0.04352 0.05376,0.0896 0.0256,0.04864 0.03968,0.08448 l 0.13056,0.3328 q 0.0768,0.18688 0.14848,0.37888 0.0768,0.192 0.1408,0.3648 0.064,0.1728 0.10368,0.29184 l 0.07296,0.224 q 0.04352,0.11904 0.07936,0.23552 0.03584,0.1152 0.0576,0.2176 0.0256,0.096 0.0256,0.15744 0,0.06144 -0.04736,0.09472 -0.04352,0.032 -0.09344,0.032 -0.064,0 -0.11904,-0.04352 -0.05504,-0.04608 -0.09472,-0.1408 z m -0.64,-0.7936 0.17408,0.0026 q 0.08576,0 0.1728,0.0038 l -0.08704,-0.25216 -0.0832,-0.2432 -0.06784,-0.21248 -0.0512,-0.17664 q -0.0128,-0.04736 -0.032,-0.0768 -0.01792,-0.02816 -0.04736,-0.02816 -0.02816,0 -0.04608,0.032 -0.0192,0.02944 -0.03328,0.0768 -0.04352,0.1472 -0.12288,0.384 l -0.16256,0.49664 q 0.09728,-0.0038 0.19584,-0.0038 0.09728,-0.0038 0.192,-0.0038 z m 2.401281,-1.21856 q -0.1024,0.0077 -0.2176,0.01024 l -0.24832,0.0077 0.0077,0.18432 0.0077,0.17024 q 0.0038,0.08576 0.0038,0.1792 0.0038,0.09472 0.0038,0.20992 v 0.31488 q 0,0.14848 -0.0038,0.29952 l -0.0077,0.29952 -0.01024,0.31488 q -0.0038,0.08704 -0.01792,0.13312 -0.01024,0.04736 -0.03328,0.07296 -0.02176,0.0256 -0.0512,0.02816 -0.02816,0.0077 -0.064,0.0077 -0.064,0 -0.11264,-0.04352 -0.04352,-0.04608 -0.0512,-0.19456 -0.0064,-0.13056 -0.009,-0.27392 0,-0.14464 -0.0038,-0.31104 -0.0038,-0.1664 -0.0038,-0.3584 v -0.77568 q 0.0038,-0.14848 0.01024,-0.256 h -0.14848 q -0.15104,0 -0.25984,-0.0051 -0.104961,-0.0038 -0.174081,-0.01792 -0.06784,-0.01792 -0.10112,-0.05376 -0.02816,-0.03584 -0.02816,-0.1024 0,-0.03072 0.0077,-0.05632 0.0077,-0.02944 0.032,-0.0512 0.0256,-0.0256 0.06912,-0.0384 0.04736,-0.01536 0.11904,-0.02304 l 0.122881,-0.0077 0.1088,-0.0077 q 0.05376,-0.0038 0.11136,-0.0038 h 0.1344 q 0.21248,0 0.40064,0.0038 0.192,0.0038 0.40448,0.01536 0.08704,0.0077 0.13312,0.02048 0.04736,0.01024 0.07296,0.03328 0.0256,0.02176 0.02816,0.0512 0.0077,0.02816 0.0077,0.064 0,0.064 -0.04608,0.1088 -0.04352,0.04352 -0.192,0.0512 z m 0.51456,1.64736 q -0.0077,-0.1152 -0.01536,-0.31488 -0.0077,-0.1984 -0.0077,-0.40704 v -0.24576 l 0.0077,-0.26368 q 0.0077,-0.2688 0.03328,-0.41984 0.02816,-0.15104 0.10752,-0.22784 0.0832,-0.0768 0.23168,-0.09344 0.14848,-0.01792 0.39424,-0.01792 h 0.0768 q 0.0768,0 0.1792,0.0038 0.10496,0 0.2176,0.0038 l 0.192,0.0077 q 0.07808,0.0077 0.12544,0.02176 0.0512,0.01024 0.0768,0.032 0.0256,0.01792 0.03072,0.04736 0.0077,0.0256 0.0077,0.0576 0,0.0832 -0.04608,0.12288 -0.04736,0.03584 -0.192,0.04736 -0.07168,0.0077 -0.21248,0.01024 h -0.2816 q -0.14464,0 -0.26112,0.0038 h -0.14464 q -0.09344,0.0038 -0.13312,0.04352 -0.03584,0.03584 -0.03584,0.17664 l 0.0038,0.15872 q 0.0077,0.12288 0.0077,0.3456 h 0.29952 q 0.192,0 0.31104,0.009 0.12288,0.0038 0.18688,0.02176 0.06912,0.01792 0.09472,0.0576 0.0256,0.0384 0.0256,0.10496 0,0.032 -0.0077,0.06144 -0.0038,0.0256 -0.02944,0.04736 -0.0256,0.01792 -0.07168,0.032 -0.04736,0.01024 -0.1344,0.01792 -0.10496,0.0077 -0.1984,0.01024 h -0.48384 v 0.44032 l 0.0077,0.12288 q 0.0038,0.05888 0.01408,0.09856 0.01408,0.0384 0.04736,0.064 0.03584,0.0256 0.1024,0.0384 0.06656,0.009 0.1792,0.009 h 0.77696 q 0.128,0 0.15872,0.04608 0.032,0.04736 0.032,0.128 0,0.064 -0.02816,0.09984 -0.02944,0.03328 -0.1408,0.04736 -0.1088,0.01792 -0.32896,0.02176 -0.2176,0.0038 -0.60032,0.0038 -0.16256,0 -0.26624,-0.02944 -0.10496,-0.02816 -0.17024,-0.09728 -0.064,-0.06912 -0.09728,-0.17664 -0.02944,-0.11264 -0.0384,-0.27136 z"
     id="path14"
     inkscape:connector-curvature="0" />
  <path
     word-spacing="0"
     letter-spacing="0"
     font-size="10.667"
     font-weight="400"
     style="font-weight:400;font-size:10.66699982px;line-height:1.25;font-family:Sniglet;-inkscape-font-specification:'Sniglet, Normal';font-variant-ligatures:normal;font-variant-caps:normal;font-variant-numeric:normal;font-feature-settings:normal;text-align:start;letter-spacing:0;word-spacing:0;stroke-width:1;fill:#232323;fill-opacity:1"
     d="m 82.005779,69.332451 q 0.11904,0 0.23808,0.02176 0.12288,0.01792 0.22144,0.06144 0.09728,0.03968 0.15872,0.1024 0.064,0.05632 0.064,0.13568 0,0.0832 -0.04224,0.128 -0.04352,0.04224 -0.1088,0.04224 -0.06144,0 -0.1088,-0.01792 -0.04608,-0.02176 -0.10752,-0.04736 -0.05888,-0.0256 -0.1408,-0.04352 -0.0832,-0.02176 -0.22144,-0.02176 -0.13696,0 -0.26368,0.07296 -0.12288,0.06784 -0.2176,0.19456 -0.0896,0.12288 -0.14336,0.2944 -0.05376,0.16768 -0.05376,0.36736 0,0.24448 0.06144,0.4224 0.064,0.17664 0.1664,0.29184 0.1024,0.11264 0.22656,0.17024 0.13056,0.05376 0.26112,0.05376 0.1536,0 0.25984,-0.032 0.10496,-0.032 0.17664,-0.07168 0.0768,-0.0384 0.13056,-0.07296 0.05376,-0.032 0.10496,-0.032 0.06144,0 0.09728,0.03584 0.03584,0.032 0.03584,0.11904 0,0.07168 -0.0576,0.14848 -0.05504,0.07168 -0.16256,0.13312 -0.10496,0.0576 -0.25344,0.09728 -0.14848,0.0384 -0.3328,0.0384 -0.20096,0 -0.40448,-0.08192 -0.1984,-0.07936 -0.3584,-0.23424 -0.1536,-0.15872 -0.25088,-0.39424 -0.09856,-0.23808 -0.09856,-0.5504 0,-0.31616 0.08704,-0.56192 0.0896,-0.24576 0.2432,-0.41472 0.1536,-0.17408 0.3584,-0.26368 0.2048,-0.0896 0.4352,-0.0896 z m 2.101761,2.4128 q -0.04736,0.08704 -0.08704,0.128 -0.03584,0.0384 -0.09344,0.0384 -0.05888,0 -0.1024,-0.0384 -0.04224,-0.04096 -0.09344,-0.12416 -0.064,-0.1088 -0.14848,-0.29952 -0.07936,-0.192 -0.16256,-0.416 -0.08192,-0.22656 -0.16256,-0.46976 -0.07936,-0.24192 -0.143361,-0.4544 -0.06144,-0.21376 -0.1024,-0.3712 -0.03584,-0.16384 -0.03584,-0.2304 0,-0.07424 0.02944,-0.11008 0.02944,-0.03584 0.11136,-0.03584 0.04736,0 0.08064,0.0256 0.03584,0.02048 0.0896,0.12928 0.04352,0.0832 0.09344,0.2176 0.0512,0.13312 0.10496,0.2944 0.0576,0.16384 0.1152,0.3456 l 0.1152,0.352 0.11008,0.34048 0.09344,0.29184 0.09728,-0.2944 0.11264,-0.34048 0.1152,-0.35456 q 0.0576,-0.1792 0.1152,-0.3392 l 0.1088,-0.29312 q 0.0512,-0.13312 0.0896,-0.22016 0.0512,-0.10496 0.08704,-0.13056 0.0384,-0.0256 0.07936,-0.0256 0.0832,0 0.11264,0.0448 0.032,0.0384 0.032,0.11904 0,0.07168 -0.02176,0.1728 -0.02048,0.1024 -0.0768,0.27136 -0.0512,0.1664 -0.13568,0.41472 l -0.21376,0.61056 q -0.032,0.09728 -0.0768,0.20224 -0.0384,0.10496 -0.08192,0.20608 -0.0384,0.09728 -0.07936,0.18816 -0.0384,0.0896 -0.0768,0.15488 z"
     id="path16"
     inkscape:connector-curvature="0" />
  <g
     style="line-height:1.25;stroke-width:0.78124982;fill:#232323;fill-opacity:1"
     id="g20"
     transform="matrix(1.2800003,0,0,1.2800003,0,-0.09604601)">
    <path
       word-spacing="0"
       letter-spacing="0"
       font-size="2.822"
       font-weight="400"
       aria-label="OCT +1"
       style="font-weight:400;font-size:2.82200003px;font-family:Sniglet;-inkscape-font-specification:'Sniglet, Normal';font-variant-ligatures:normal;font-variant-caps:normal;font-variant-numeric:normal;font-feature-settings:normal;text-align:start;letter-spacing:0;word-spacing:0;stroke-width:0.78124982;fill:#232323;fill-opacity:1"
       d="m 34.738,56.03 a 0.76,0.76 0 0 1 -0.32,-0.068 0.759,0.759 0 0 1 -0.256,-0.195 0.988,0.988 0 0 1 -0.175,-0.316 1.335,1.335 0 0 1 -0.062,-0.423 c 0,-0.149 0.018,-0.286 0.054,-0.41 a 0.942,0.942 0 0 1 0.164,-0.321 0.735,0.735 0 0 1 0.27,-0.21 0.865,0.865 0 0 1 0.373,-0.075 c 0.114,0 0.223,0.02 0.327,0.062 a 0.736,0.736 0 0 1 0.27,0.186 c 0.08,0.082 0.143,0.186 0.188,0.31 0.044,0.124 0.067,0.27 0.067,0.435 0,0.137 -0.019,0.268 -0.056,0.393 a 0.932,0.932 0 0 1 -0.167,0.327 0.825,0.825 0 0 1 -0.28,0.223 0.907,0.907 0 0 1 -0.397,0.082 z m 0.006,-0.266 c 0.103,0 0.193,-0.021 0.27,-0.062 a 0.59,0.59 0 0 0 0.193,-0.17 0.714,0.714 0 0 0 0.113,-0.24 1.084,1.084 0 0 0 -0.011,-0.591 0.687,0.687 0 0 0 -0.125,-0.232 0.53,0.53 0 0 0 -0.406,-0.192 0.502,0.502 0 0 0 -0.426,0.22 0.775,0.775 0 0 0 -0.107,0.24 1.1,1.1 0 0 0 -0.037,0.29 c 0,0.111 0.014,0.213 0.042,0.306 a 0.77,0.77 0 0 0 0.113,0.23 0.464,0.464 0 0 0 0.382,0.2 z m 2,-1.761 a 1.047,1.047 0 0 1 0.358,0.065 c 0.05,0.02 0.092,0.047 0.124,0.08 0.033,0.029 0.05,0.064 0.05,0.106 0,0.043 -0.011,0.076 -0.033,0.1 a 0.117,0.117 0 0 1 -0.085,0.033 0.24,0.24 0 0 1 -0.085,-0.014 2.005,2.005 0 0 0 -0.084,-0.037 0.75,0.75 0 0 0 -0.283,-0.05 0.413,0.413 0 0 0 -0.206,0.056 0.543,0.543 0 0 0 -0.17,0.152 0.807,0.807 0 0 0 -0.112,0.229 0.952,0.952 0 0 0 -0.042,0.288 c 0,0.128 0.016,0.238 0.048,0.33 a 0.708,0.708 0 0 0 0.13,0.229 0.514,0.514 0 0 0 0.381,0.175 0.681,0.681 0 0 0 0.34,-0.082 c 0.04,-0.021 0.075,-0.04 0.103,-0.057 a 0.16,0.16 0 0 1 0.082,-0.025 c 0.032,0 0.057,0.009 0.076,0.028 0.018,0.016 0.028,0.047 0.028,0.093 a 0.192,0.192 0 0 1 -0.045,0.116 0.404,0.404 0 0 1 -0.127,0.104 0.858,0.858 0 0 1 -0.198,0.077 1.102,1.102 0 0 1 -0.26,0.028 0.857,0.857 0 0 1 -0.595,-0.246 0.985,0.985 0 0 1 -0.197,-0.307 1.14,1.14 0 0 1 -0.076,-0.432 c 0,-0.164 0.022,-0.31 0.067,-0.438 a 0.968,0.968 0 0 1 0.19,-0.324 c 0.08,-0.091 0.173,-0.16 0.28,-0.206 a 0.839,0.839 0 0 1 0.34,-0.07 z m 1.913,0.283 c -0.053,0.004 -0.11,0.006 -0.17,0.008 l -0.194,0.006 0.006,0.143 0.006,0.133 c 0.002,0.045 0.003,0.092 0.003,0.14 0.002,0.05 0.003,0.105 0.003,0.165 v 0.245 l -0.003,0.235 -0.006,0.234 -0.008,0.245 a 0.46,0.46 0 0 1 -0.014,0.105 0.115,0.115 0 0 1 -0.026,0.056 0.06,0.06 0 0 1 -0.04,0.023 0.19,0.19 0 0 1 -0.05,0.006 0.124,0.124 0 0 1 -0.087,-0.034 c -0.023,-0.025 -0.036,-0.076 -0.04,-0.152 a 5.191,5.191 0 0 1 -0.008,-0.215 l -0.003,-0.243 c -0.002,-0.087 -0.003,-0.18 -0.003,-0.28 v -0.605 c 0.002,-0.078 0.005,-0.145 0.008,-0.201 h -0.116 c -0.079,0 -0.147,-10e-4 -0.203,-0.003 a 0.837,0.837 0 0 1 -0.135,-0.014 0.158,0.158 0 0 1 -0.08,-0.043 0.125,0.125 0 0 1 -0.022,-0.08 c 0,-0.016 0.002,-0.031 0.006,-0.044 a 0.083,0.083 0 0 1 0.026,-0.04 0.124,0.124 0 0 1 0.053,-0.03 0.431,0.431 0 0 1 0.093,-0.017 l 0.096,-0.006 0.085,-0.006 c 0.028,-0.002 0.057,-0.003 0.087,-0.003 h 0.105 a 15.382,15.382 0 0 1 0.629,0.014 c 0.045,0.004 0.08,0.01 0.105,0.017 a 0.128,0.128 0 0 1 0.056,0.025 0.062,0.062 0 0 1 0.023,0.04 0.19,0.19 0 0 1 0.006,0.05 0.11,0.11 0 0 1 -0.037,0.085 c -0.023,0.022 -0.073,0.036 -0.15,0.04 z"
       id="path18"
       inkscape:connector-curvature="0" />
  </g>
  <path
     d="m 61.637134,77.374693 h -1.69344"
     id="path28"
     inkscape:connector-curvature="0"
     style="fill:none;stroke:#232323;stroke-width:0.13200001;stroke-opacity:1" />
  <g
     aria-label="CHORD-KEY"
     style="font-weight:400;font-size:4.2329998px;line-height:1.25;font-family:Sniglet;-inkscape-font-specification:'Sniglet, Normal';font-variant-ligatures:normal;font-variant-caps:normal;font-variant-numeric:normal;font-feature-settings:normal;text-align:start;letter-spacing:0;word-spacing:0;stroke-width:0.20703119;fill:#232323;fill-opacity:1"
     font-weight="400"
     font-size="4.233"
     letter-spacing="0"
     word-spacing="0"
     id="g32"
     transform="matrix(1.2800003,0,0,1.2800003,0,-0.09604601)">
    <path
       d="m 32.051,3.525 q 0.14,0 0.28,0.025 0.143,0.021 0.258,0.072 0.114,0.047 0.186,0.119 0.076,0.067 0.076,0.16 0,0.098 -0.05,0.149 Q 32.75,4.1 32.673,4.1 32.601,4.1 32.546,4.08 32.491,4.054 32.419,4.024 32.352,3.994 32.254,3.974 32.157,3.948 31.996,3.948 q -0.16,0 -0.309,0.085 -0.144,0.08 -0.254,0.228 -0.106,0.144 -0.17,0.343 -0.063,0.2 -0.063,0.432 0,0.288 0.072,0.495 0.076,0.208 0.195,0.343 0.118,0.132 0.267,0.2 0.152,0.063 0.304,0.063 0.182,0 0.305,-0.038 0.123,-0.038 0.208,-0.085 0.089,-0.047 0.152,-0.085 0.064,-0.038 0.123,-0.038 0.072,0 0.114,0.043 0.042,0.038 0.042,0.14 0,0.084 -0.067,0.173 -0.064,0.085 -0.19,0.156 -0.124,0.068 -0.297,0.115 -0.174,0.042 -0.39,0.042 -0.237,0 -0.474,-0.093 Q 31.331,6.374 31.145,6.192 30.963,6.006 30.849,5.73 30.735,5.451 30.735,5.083 30.735,4.714 30.836,4.426 30.942,4.139 31.12,3.94 31.302,3.736 31.539,3.63 31.78,3.525 32.051,3.525 Z M 35.03,6.26 35.013,5.781 Q 35.009,5.527 35.009,5.197 L 34.721,5.205 H 34.06 q -0.156,0 -0.28,-0.004 -0.003,0.267 -0.008,0.517 -0.004,0.245 -0.017,0.537 -0.004,0.102 -0.02,0.157 -0.013,0.055 -0.039,0.085 -0.025,0.03 -0.06,0.033 -0.029,0.009 -0.071,0.009 -0.076,0 -0.127,-0.05 -0.05,-0.056 -0.06,-0.23 -0.008,-0.152 -0.012,-0.317 0,-0.165 -0.004,-0.356 -0.004,-0.19 -0.004,-0.41 v -0.5 q 0,-0.3 0.004,-0.512 0.004,-0.216 0.021,-0.351 0.021,-0.136 0.063,-0.2 0.043,-0.063 0.119,-0.063 0.072,0 0.127,0.047 0.055,0.046 0.063,0.216 0.009,0.144 0.013,0.262 l 0.009,0.229 q 0.004,0.11 0.004,0.228 v 0.263 q 0.317,-0.013 0.622,-0.013 0.148,0 0.297,0.004 0.152,0.005 0.309,0.013 V 4.676 q 0,-0.3 0.004,-0.512 0.004,-0.216 0.02,-0.351 0.022,-0.136 0.064,-0.2 0.043,-0.063 0.119,-0.063 0.072,0 0.127,0.047 0.055,0.046 0.063,0.216 0.009,0.152 0.013,0.27 l 0.009,0.238 q 0.004,0.114 0.004,0.241 v 0.643 q 0,0.174 -0.004,0.343 l -0.009,0.343 q -0.004,0.174 -0.013,0.364 -0.004,0.102 -0.02,0.157 -0.013,0.055 -0.039,0.085 -0.025,0.03 -0.06,0.033 -0.029,0.009 -0.071,0.009 -0.076,0 -0.127,-0.05 -0.05,-0.056 -0.06,-0.23 z m 2.042,0.304 q -0.254,0 -0.479,-0.101 Q 36.373,6.361 36.208,6.171 36.043,5.976 35.946,5.696 35.853,5.417 35.853,5.061 q 0,-0.334 0.08,-0.613 0.085,-0.28 0.246,-0.483 0.165,-0.203 0.406,-0.313 0.241,-0.115 0.559,-0.115 0.258,0 0.49,0.094 0.234,0.093 0.407,0.279 0.178,0.186 0.28,0.466 0.101,0.28 0.101,0.652 0,0.309 -0.084,0.588 -0.08,0.28 -0.25,0.491 -0.165,0.208 -0.42,0.335 -0.253,0.122 -0.596,0.122 z M 37.08,6.166 q 0.233,0 0.407,-0.093 0.173,-0.097 0.288,-0.254 0.114,-0.156 0.169,-0.36 0.055,-0.207 0.055,-0.423 0,-0.262 -0.072,-0.466 Q 37.859,4.363 37.741,4.223 37.622,4.083 37.465,4.012 37.309,3.935 37.131,3.935 q -0.212,0 -0.372,0.09 -0.157,0.088 -0.267,0.24 -0.106,0.153 -0.161,0.36 -0.055,0.204 -0.055,0.436 0,0.25 0.063,0.458 0.064,0.203 0.17,0.347 0.11,0.144 0.258,0.224 0.148,0.076 0.313,0.076 z M 39.826,5.48 39.703,5.49 h -0.267 q -0.072,0 -0.16,-0.01 v 0.86 q 0,0.135 -0.069,0.17 -0.063,0.029 -0.16,0.029 -0.051,0 -0.08,-0.009 Q 38.937,6.526 38.915,6.51 38.898,6.488 38.885,6.45 38.877,6.412 38.873,6.344 38.865,6.268 38.86,6.124 l -0.008,-0.38 q 0,-0.234 -0.004,-0.564 V 4.397 q 0,-0.174 0.042,-0.335 0.042,-0.165 0.152,-0.287 0.11,-0.127 0.297,-0.204 0.19,-0.076 0.482,-0.076 0.208,0 0.402,0.047 0.2,0.046 0.352,0.16 0.152,0.115 0.245,0.31 0.094,0.194 0.094,0.486 0,0.39 -0.17,0.606 -0.165,0.211 -0.457,0.3 l 0.567,0.78 q 0.076,0.1 0.076,0.207 0,0.084 -0.059,0.131 -0.055,0.05 -0.14,0.05 -0.093,0 -0.16,-0.05 -0.068,-0.055 -0.127,-0.14 z M 40.49,4.494 q 0,-0.292 -0.178,-0.432 -0.173,-0.144 -0.554,-0.144 -0.14,0 -0.233,0.026 -0.093,0.021 -0.148,0.085 -0.055,0.063 -0.08,0.177 -0.022,0.11 -0.022,0.284 v 0.288 q 0,0.165 0.004,0.3 0.098,0.005 0.216,0.005 h 0.229 q 0.118,0 0.25,-0.013 0.135,-0.017 0.25,-0.076 0.114,-0.064 0.19,-0.178 0.076,-0.119 0.076,-0.322 z m 1.665,-0.965 q 0.436,0 0.698,0.131 0.263,0.131 0.402,0.347 0.14,0.216 0.182,0.491 0.047,0.276 0.047,0.56 0,0.308 -0.08,0.583 -0.077,0.276 -0.242,0.483 -0.16,0.203 -0.415,0.326 -0.254,0.119 -0.605,0.119 -0.28,0 -0.449,-0.043 Q 41.528,6.488 41.435,6.408 41.346,6.328 41.316,6.205 41.286,6.082 41.286,5.917 V 4.325 q 0,-0.182 0.03,-0.33 0.034,-0.148 0.127,-0.25 0.094,-0.106 0.263,-0.16 0.173,-0.056 0.449,-0.056 z m 0.017,2.616 q 0.262,0 0.431,-0.093 0.174,-0.097 0.276,-0.254 0.101,-0.157 0.14,-0.356 0.042,-0.198 0.042,-0.406 0,-0.19 -0.03,-0.38 Q 43.001,4.46 42.908,4.304 42.815,4.147 42.641,4.05 42.468,3.952 42.18,3.952 q -0.262,0 -0.364,0.077 -0.102,0.076 -0.102,0.232 v 1.622 q 0,0.131 0.093,0.199 0.098,0.063 0.365,0.063 z m 3.15,-0.681 -0.449,0.017 q -0.254,0.004 -0.601,0.004 -0.144,0 -0.246,-0.004 -0.101,-0.005 -0.165,-0.022 -0.063,-0.02 -0.093,-0.063 -0.03,-0.042 -0.03,-0.119 0,-0.038 0.009,-0.067 0.008,-0.034 0.038,-0.06 0.03,-0.025 0.08,-0.042 0.056,-0.021 0.14,-0.03 L 44.115,5.07 Q 44.166,5.066 44.213,5.066 44.259,5.061 44.31,5.061 h 0.127 q 0.229,0 0.44,0.005 0.212,0 0.44,0.012 0.102,0.009 0.157,0.026 0.055,0.013 0.085,0.038 0.03,0.025 0.034,0.06 0.008,0.033 0.008,0.075 0,0.077 -0.055,0.127 -0.05,0.051 -0.224,0.06 z M 45.963,6.26 Q 45.954,6.107 45.95,5.942 q 0,-0.165 -0.004,-0.356 -0.004,-0.19 -0.004,-0.41 v -0.5 q 0,-0.3 0.004,-0.512 0.004,-0.216 0.021,-0.351 0.021,-0.136 0.064,-0.2 0.042,-0.063 0.118,-0.063 0.072,0 0.127,0.047 0.055,0.046 0.064,0.216 0.008,0.152 0.012,0.27 l 0.009,0.238 q 0.004,0.114 0.004,0.241 v 0.5 l 0.906,-1.038 q 0.178,-0.203 0.275,-0.266 0.098,-0.068 0.17,-0.068 0.084,0 0.122,0.042 0.043,0.043 0.043,0.106 0,0.025 -0.009,0.05 -0.008,0.026 -0.038,0.073 -0.025,0.042 -0.08,0.11 -0.055,0.063 -0.149,0.165 l -0.588,0.64 0.927,1.32 q 0.034,0.047 0.05,0.097 0.022,0.051 0.022,0.098 0,0.08 -0.046,0.131 -0.043,0.055 -0.153,0.055 -0.089,0 -0.16,-0.05 -0.068,-0.047 -0.128,-0.14 l -0.804,-1.19 -0.364,0.398 -0.009,0.322 q -0.004,0.16 -0.012,0.338 -0.004,0.102 -0.021,0.157 -0.013,0.055 -0.039,0.085 -0.025,0.03 -0.059,0.033 -0.03,0.009 -0.072,0.009 -0.076,0 -0.127,-0.05 -0.05,-0.056 -0.06,-0.23 z M 48.382,5.879 Q 48.373,5.743 48.365,5.51 48.356,5.277 48.356,5.032 V 4.744 L 48.365,4.435 Q 48.373,4.122 48.403,3.944 48.437,3.766 48.53,3.677 48.627,3.588 48.8,3.567 48.974,3.546 49.262,3.546 h 0.089 q 0.089,0 0.212,0.004 0.122,0 0.254,0.004 l 0.224,0.009 q 0.093,0.008 0.148,0.025 0.06,0.013 0.09,0.038 0.029,0.022 0.037,0.055 0.009,0.03 0.009,0.068 0,0.098 -0.055,0.144 -0.055,0.042 -0.225,0.055 -0.084,0.009 -0.25,0.013 h -0.33 q -0.169,0 -0.304,0.004 h -0.17 q -0.11,0.004 -0.156,0.05 -0.043,0.043 -0.043,0.208 l 0.004,0.187 q 0.009,0.143 0.009,0.406 h 0.351 q 0.225,0 0.364,0.008 0.144,0.005 0.22,0.026 0.08,0.021 0.11,0.068 0.03,0.046 0.03,0.122 0,0.038 -0.008,0.072 -0.005,0.03 -0.034,0.055 -0.03,0.021 -0.085,0.038 -0.055,0.013 -0.156,0.022 -0.123,0.008 -0.233,0.012 H 48.796 V 5.756 L 48.805,5.9 q 0.004,0.067 0.017,0.114 0.017,0.047 0.055,0.076 0.042,0.03 0.118,0.043 0.08,0.012 0.212,0.012 h 0.91 q 0.148,0 0.187,0.055 0.038,0.055 0.038,0.148 0,0.077 -0.034,0.119 -0.034,0.038 -0.165,0.055 -0.127,0.021 -0.386,0.025 -0.254,0.005 -0.702,0.005 -0.19,0 -0.314,-0.034 Q 48.619,6.484 48.542,6.403 48.466,6.323 48.428,6.196 48.394,6.065 48.382,5.879 Z M 51.487,6.26 51.47,5.764 Q 51.466,5.498 51.466,5.15 L 50.624,3.944 Q 50.59,3.897 50.569,3.847 50.552,3.796 50.552,3.749 q 0,-0.08 0.042,-0.131 0.046,-0.055 0.157,-0.055 0.088,0 0.156,0.05 0.072,0.047 0.131,0.14 l 0.631,1.004 0.63,-1.004 q 0.06,-0.093 0.128,-0.14 0.072,-0.05 0.16,-0.05 0.11,0 0.153,0.055 0.047,0.05 0.047,0.131 0,0.047 -0.021,0.098 -0.017,0.05 -0.051,0.097 l -0.826,1.181 q 0,0.288 -0.008,0.555 -0.004,0.262 -0.017,0.575 -0.004,0.102 -0.021,0.157 -0.013,0.055 -0.038,0.085 -0.026,0.03 -0.06,0.033 -0.03,0.009 -0.072,0.009 -0.076,0 -0.127,-0.05 -0.05,-0.056 -0.059,-0.23 z"
       style="-inkscape-font-specification:'Sniglet, Normal';font-variant-ligatures:normal;font-variant-caps:normal;font-variant-numeric:normal;font-feature-settings:normal;text-align:start;stroke-width:0.20703119;fill:#232323;fill-opacity:1"
       id="path30"
       inkscape:connector-curvature="0" />
  </g>
  <g
     aria-label="INDEX"
     style="font-weight:400;font-size:2.822px;line-height:1.25;font-family:Sniglet;letter-spacing:0;word-spacing:0;fill:#232323;fill-opacity:1;stroke-width:0.207031"
     font-weight="400"
     font-size="2.822"
     letter-spacing="0"
     word-spacing="0"
     id="g36"
     transform="matrix(1.2800003,0,0,1.2800003,0,-1.4943702)">
    <path
       d="m 15.45,71.49 q -0.006,-0.1 -0.008,-0.211 0,-0.11 -0.003,-0.237 -0.003,-0.127 -0.003,-0.274 v -0.333 q 0,-0.2 0.003,-0.341 0.003,-0.144 0.017,-0.235 0.014,-0.09 0.042,-0.132 0.031,-0.043 0.082,-0.043 0.025,0 0.048,0.006 0.022,0.006 0.04,0.025 0.016,0.017 0.028,0.054 0.014,0.034 0.016,0.09 l 0.009,0.181 0.006,0.158 q 0.002,0.076 0.002,0.16 v 0.43 q 0,0.116 -0.002,0.228 l -0.006,0.23 q -0.003,0.115 -0.009,0.242 -0.002,0.068 -0.014,0.104 -0.01,0.037 -0.028,0.057 -0.017,0.02 -0.04,0.022 -0.022,0.006 -0.05,0.006 -0.05,0 -0.088,-0.034 -0.036,-0.037 -0.042,-0.152 z m 1.764,0.043 q -0.09,-0.124 -0.172,-0.246 l -0.172,-0.27 q -0.09,-0.147 -0.209,-0.325 -0.116,-0.18 -0.28,-0.42 v 0.38 q 0,0.167 -0.002,0.31 l -0.006,0.272 -0.008,0.254 q -0.003,0.068 -0.014,0.104 -0.009,0.037 -0.026,0.057 -0.017,0.02 -0.04,0.022 -0.019,0.006 -0.047,0.006 -0.051,0 -0.085,-0.034 -0.034,-0.037 -0.04,-0.152 -0.013,-0.31 -0.016,-0.621 v -0.647 q 0,-0.189 0.003,-0.296 0.005,-0.107 0.02,-0.16 0.016,-0.054 0.042,-0.069 0.028,-0.014 0.073,-0.014 0.045,0 0.119,0.07 0.073,0.069 0.16,0.182 0.088,0.112 0.187,0.26 0.101,0.146 0.2,0.301 0.099,0.155 0.19,0.308 l 0.168,0.276 q -0.002,-0.132 -0.002,-0.29 v -0.356 q 0,-0.223 0.002,-0.367 0.003,-0.147 0.015,-0.231 0.014,-0.085 0.042,-0.119 0.028,-0.034 0.079,-0.034 0.048,0 0.085,0.031 0.036,0.031 0.042,0.144 0.006,0.102 0.008,0.181 l 0.006,0.158 q 0.003,0.076 0.003,0.16 v 0.43 q 0,0.116 -0.003,0.228 l -0.006,0.23 q -0.002,0.115 -0.008,0.242 -0.003,0.068 -0.014,0.104 -0.009,0.037 -0.026,0.057 -0.017,0.02 -0.04,0.022 -0.019,0.006 -0.047,0.006 -0.048,0 -0.082,-0.028 -0.034,-0.029 -0.099,-0.116 z m 1.242,-1.863 q 0.29,0 0.465,0.088 0.175,0.087 0.268,0.231 0.094,0.144 0.122,0.328 0.03,0.183 0.03,0.372 0,0.206 -0.053,0.39 -0.05,0.183 -0.16,0.321 -0.108,0.136 -0.277,0.218 -0.17,0.079 -0.404,0.079 -0.186,0 -0.299,-0.029 -0.11,-0.025 -0.172,-0.079 -0.06,-0.053 -0.08,-0.135 -0.019,-0.082 -0.019,-0.192 v -1.061 q 0,-0.121 0.02,-0.22 0.022,-0.099 0.085,-0.167 0.062,-0.07 0.175,-0.107 0.115,-0.037 0.299,-0.037 z m 0.011,1.744 q 0.175,0 0.288,-0.062 0.116,-0.065 0.183,-0.169 0.068,-0.104 0.093,-0.237 0.029,-0.133 0.029,-0.271 0,-0.127 -0.02,-0.254 -0.02,-0.13 -0.082,-0.234 -0.062,-0.105 -0.178,-0.17 -0.115,-0.064 -0.307,-0.064 -0.175,0 -0.243,0.05 -0.068,0.051 -0.068,0.156 v 1.08 q 0,0.088 0.062,0.133 0.065,0.042 0.243,0.042 z m 1.174,-0.177 q -0.005,-0.09 -0.01,-0.246 -0.006,-0.155 -0.006,-0.319 V 70.48 l 0.005,-0.206 q 0.006,-0.209 0.026,-0.327 0.022,-0.119 0.084,-0.178 0.065,-0.06 0.18,-0.073 0.117,-0.014 0.308,-0.014 h 0.06 l 0.14,0.002 q 0.083,0 0.17,0.003 l 0.15,0.006 q 0.062,0.005 0.099,0.017 0.04,0.008 0.059,0.025 0.02,0.014 0.025,0.037 0.006,0.02 0.006,0.045 0,0.065 -0.037,0.096 -0.037,0.028 -0.15,0.037 -0.056,0.005 -0.166,0.008 h -0.22 q -0.113,0 -0.203,0.003 h -0.113 q -0.074,0.003 -0.105,0.034 -0.028,0.028 -0.028,0.138 l 0.003,0.124 q 0.006,0.096 0.006,0.271 h 0.234 q 0.15,0 0.243,0.006 0.095,0.003 0.146,0.017 0.054,0.014 0.074,0.045 0.02,0.03 0.02,0.082 0,0.025 -0.006,0.048 -0.003,0.02 -0.023,0.036 -0.02,0.015 -0.056,0.026 -0.037,0.008 -0.105,0.014 -0.081,0.006 -0.155,0.008 h -0.378 v 0.345 l 0.006,0.096 q 0.002,0.045 0.01,0.076 0.012,0.03 0.038,0.05 0.028,0.02 0.079,0.029 0.053,0.008 0.14,0.008 h 0.607 q 0.1,0 0.125,0.037 0.025,0.037 0.025,0.099 0,0.05 -0.023,0.079 -0.022,0.025 -0.11,0.037 -0.084,0.014 -0.256,0.017 -0.17,0.002 -0.469,0.002 -0.127,0 -0.209,-0.022 -0.082,-0.023 -0.132,-0.076 -0.051,-0.054 -0.077,-0.139 -0.022,-0.087 -0.03,-0.211 z m 2.22,-0.314 -0.42,0.652 q -0.04,0.062 -0.088,0.093 -0.045,0.034 -0.104,0.034 -0.073,0 -0.104,-0.036 -0.029,-0.034 -0.029,-0.088 0,-0.03 0.012,-0.065 0.014,-0.034 0.036,-0.065 l 0.525,-0.75 -0.525,-0.751 q -0.022,-0.031 -0.036,-0.065 -0.012,-0.034 -0.012,-0.065 0,-0.054 0.029,-0.087 0.03,-0.037 0.104,-0.037 0.06,0 0.104,0.034 0.048,0.03 0.088,0.093 l 0.42,0.652 0.42,-0.652 q 0.04,-0.062 0.086,-0.093 0.048,-0.034 0.107,-0.034 0.073,0 0.101,0.037 0.031,0.033 0.031,0.087 0,0.031 -0.014,0.065 -0.01,0.034 -0.034,0.065 l -0.524,0.75 0.524,0.751 q 0.023,0.031 0.034,0.065 0.014,0.034 0.014,0.065 0,0.054 -0.03,0.088 -0.029,0.036 -0.102,0.036 -0.06,0 -0.107,-0.034 -0.046,-0.03 -0.085,-0.093 z"
       style="-inkscape-font-specification:'Sniglet, Normal';font-variant-ligatures:normal;font-variant-caps:normal;font-variant-numeric:normal;font-feature-settings:normal;text-align:start;fill:#232323;fill-opacity:1;stroke-width:0.207031"
       id="path34"
       inkscape:connector-curvature="0" />
  </g>
  <path
     d="m 61.637134,88.889575 h -1.69344 m 1.69344,11.514885 h -1.69344 m 1.69344,11.5136 h -1.69344"
     id="path38"
     inkscape:connector-curvature="0"
     style="fill:none;stroke:#232323;stroke-width:0.13200001;stroke-opacity:1" />
  <g
     font-weight="400"
     font-size="2.822"
     letter-spacing="0"
     word-spacing="0"
     id="g42"
     style="font-weight:400;font-size:2.82200003px;font-family:Sniglet;letter-spacing:0;word-spacing:0;stroke-width:0.78124982;fill:#232323;fill-opacity:1"
     transform="matrix(1.2800003,0,0,1.2800003,0,-0.09604601)">
    <path
       d="m 5.875,83.116 q 0.093,0 0.192,0.017 0.099,0.017 0.18,0.051 0.082,0.031 0.136,0.079 0.054,0.048 0.054,0.11 0,0.065 -0.034,0.099 -0.034,0.034 -0.085,0.034 -0.048,0 -0.09,-0.017 l -0.09,-0.037 q -0.051,-0.02 -0.122,-0.037 -0.07,-0.017 -0.178,-0.017 -0.118,0 -0.223,0.057 -0.101,0.054 -0.18,0.152 -0.08,0.096 -0.124,0.229 -0.046,0.133 -0.046,0.288 0,0.189 0.048,0.327 0.048,0.138 0.125,0.229 0.079,0.09 0.175,0.135 0.098,0.043 0.197,0.043 0.16,0 0.254,-0.046 0.096,-0.048 0.152,-0.12 0.003,-0.06 0.003,-0.142 v -0.178 q 0,-0.037 -0.005,-0.056 Q 6.208,84.293 6.185,84.282 6.163,84.271 6.118,84.268 6.075,84.265 6.002,84.265 q -0.09,0 -0.147,-0.023 -0.056,-0.025 -0.056,-0.104 0,-0.057 0.028,-0.09 0.031,-0.037 0.124,-0.043 h 0.054 q 0.04,-0.003 0.082,-0.003 h 0.155 q 0.085,0 0.135,0.017 0.051,0.015 0.09,0.068 0.02,0.028 0.023,0.099 0.006,0.07 0.006,0.164 v 0.728 q 0,0.076 -0.042,0.113 -0.04,0.036 -0.094,0.036 -0.065,0 -0.107,-0.034 -0.04,-0.03 -0.04,-0.101 v -0.11 Q 6.14,85.066 6.039,85.103 5.939,85.14 5.787,85.14 5.632,85.14 5.483,85.078 5.333,85.016 5.217,84.894 5.102,84.77 5.028,84.587 4.958,84.4 4.958,84.155 q 0,-0.246 0.07,-0.438 0.074,-0.191 0.198,-0.324 0.124,-0.136 0.29,-0.206 0.167,-0.07 0.359,-0.07 z M 7.988,84.97 Q 7.96,84.903 7.926,84.815 7.896,84.725 7.858,84.626 L 7.681,84.632 H 7.27 q -0.098,0 -0.18,-0.003 l -0.065,0.186 q -0.031,0.088 -0.06,0.155 -0.056,0.144 -0.163,0.144 -0.04,0 -0.076,-0.025 -0.034,-0.025 -0.034,-0.073 0,-0.048 0.017,-0.125 0.017,-0.079 0.042,-0.166 0.028,-0.09 0.06,-0.184 0.03,-0.095 0.059,-0.177 0.028,-0.09 0.079,-0.229 l 0.112,-0.293 0.119,-0.3 q 0.06,-0.15 0.107,-0.26 l 0.028,-0.061 q 0.017,-0.037 0.04,-0.068 0.025,-0.031 0.054,-0.054 0.03,-0.022 0.067,-0.022 0.037,0 0.068,0.025 0.031,0.023 0.054,0.057 0.025,0.033 0.042,0.07 0.02,0.037 0.031,0.065 l 0.102,0.26 q 0.059,0.146 0.115,0.296 0.06,0.15 0.11,0.285 0.051,0.136 0.082,0.229 l 0.057,0.175 q 0.034,0.093 0.062,0.183 0.028,0.09 0.045,0.17 0.02,0.076 0.02,0.124 0,0.048 -0.037,0.073 -0.034,0.025 -0.073,0.025 -0.051,0 -0.093,-0.033 -0.043,-0.037 -0.074,-0.11 z m -0.5,-0.62 0.136,0.002 q 0.068,0 0.136,0.003 L 7.692,84.158 7.627,83.968 Q 7.599,83.878 7.573,83.802 l -0.04,-0.138 q -0.01,-0.037 -0.025,-0.06 -0.014,-0.022 -0.036,-0.022 -0.023,0 -0.037,0.025 -0.014,0.023 -0.025,0.06 -0.034,0.115 -0.096,0.302 l -0.127,0.386 q 0.076,-0.003 0.152,-0.003 l 0.15,-0.002 z m 1.876,-0.952 q -0.079,0.006 -0.17,0.009 L 9,83.413 l 0.006,0.144 0.005,0.132 q 0.003,0.068 0.003,0.141 0.003,0.074 0.003,0.164 v 0.246 q 0,0.115 -0.003,0.234 L 9.009,84.708 Q 9.006,84.827 9,84.954 q -0.003,0.067 -0.014,0.104 -0.009,0.037 -0.025,0.056 -0.017,0.02 -0.04,0.023 -0.023,0.006 -0.05,0.006 -0.052,0 -0.088,-0.034 -0.034,-0.037 -0.04,-0.153 -0.005,-0.101 -0.008,-0.214 0,-0.113 -0.003,-0.243 -0.003,-0.13 -0.003,-0.28 v -0.335 -0.271 q 0.003,-0.116 0.009,-0.2 H 8.622 Q 8.503,83.413 8.419,83.41 8.337,83.407 8.283,83.396 8.23,83.382 8.204,83.353 8.182,83.325 8.182,83.274 q 0,-0.025 0.005,-0.045 0.006,-0.022 0.026,-0.04 0.02,-0.02 0.053,-0.03 0.037,-0.012 0.093,-0.017 L 8.455,83.136 8.54,83.13 q 0.042,-0.002 0.088,-0.002 h 0.104 q 0.166,0 0.313,0.002 0.15,0.003 0.316,0.012 0.068,0.005 0.105,0.017 0.036,0.008 0.056,0.025 0.02,0.017 0.023,0.04 0.005,0.022 0.005,0.05 0,0.051 -0.036,0.085 -0.034,0.034 -0.15,0.04 z M 9.766,84.685 9.755,84.44 Q 9.749,84.285 9.749,84.121 v -0.192 l 0.006,-0.206 q 0.005,-0.209 0.025,-0.327 0.023,-0.119 0.085,-0.178 0.065,-0.06 0.18,-0.074 0.116,-0.014 0.308,-0.014 h 0.06 q 0.059,0 0.14,0.003 0.082,0 0.17,0.003 l 0.15,0.006 q 0.062,0.005 0.098,0.017 0.04,0.008 0.06,0.025 0.02,0.014 0.025,0.037 0.005,0.02 0.005,0.045 0,0.065 -0.036,0.096 -0.037,0.028 -0.15,0.036 -0.056,0.006 -0.166,0.009 h -0.22 q -0.113,0 -0.204,0.003 h -0.113 q -0.073,0.003 -0.104,0.034 -0.028,0.028 -0.028,0.138 l 0.003,0.124 q 0.005,0.096 0.005,0.271 h 0.234 q 0.15,0 0.243,0.006 0.096,0.002 0.147,0.017 0.054,0.014 0.073,0.045 0.02,0.03 0.02,0.082 0,0.025 -0.006,0.047 -0.002,0.02 -0.022,0.037 -0.02,0.014 -0.057,0.026 -0.036,0.008 -0.104,0.014 l -0.155,0.008 h -0.378 v 0.345 q 0.002,0.059 0.005,0.095 0.003,0.046 0.012,0.077 0.01,0.03 0.036,0.05 0.028,0.02 0.08,0.029 0.053,0.008 0.14,0.008 h 0.607 q 0.099,0 0.124,0.037 0.026,0.037 0.026,0.099 0,0.05 -0.023,0.079 -0.022,0.025 -0.11,0.036 -0.085,0.014 -0.257,0.017 -0.17,0.003 -0.468,0.003 -0.127,0 -0.21,-0.022 Q 9.924,85.089 9.873,85.035 9.823,84.982 9.797,84.897 9.774,84.81 9.766,84.685 Z"
       style="line-height:1.25;-inkscape-font-specification:'Sniglet, Normal';font-variant-ligatures:normal;font-variant-caps:normal;font-variant-numeric:normal;font-feature-settings:normal;text-align:start;stroke-width:0.78124982;fill:#232323;fill-opacity:1"
       id="path40"
       inkscape:connector-curvature="0" />
  </g>
  <g
     aria-label="FORCE"
     style="font-weight:400;font-size:2.82200003px;line-height:1.25;font-family:Sniglet;letter-spacing:0;word-spacing:0;stroke-width:0.20703119;fill:#232323;fill-opacity:1"
     font-weight="400"
     font-size="2.822"
     letter-spacing="0"
     word-spacing="0"
     id="g46"
     transform="matrix(1.2800003,0,0,1.2800003,0,-0.09604601)">
    <path
       d="m 15.028,83.881 q 0,-0.237 0.017,-0.37 0.017,-0.135 0.07,-0.203 0.054,-0.068 0.153,-0.082 0.099,-0.017 0.26,-0.017 h 0.163 q 0.074,0 0.141,0.003 0.071,0 0.139,0.003 l 0.152,0.006 q 0.068,0.005 0.105,0.016 0.036,0.009 0.056,0.026 0.02,0.017 0.023,0.04 0.005,0.022 0.005,0.05 0,0.051 -0.036,0.085 -0.034,0.034 -0.15,0.04 l -0.138,0.005 -0.15,0.006 -0.186,0.002 H 15.4 q -0.051,0 -0.07,0.037 -0.02,0.034 -0.02,0.088 V 83.7 q 0.002,0.043 0.002,0.093 0.003,0.051 0.003,0.116 0.003,0.062 0.003,0.147 0.104,0 0.18,0.003 0.08,0 0.136,0.002 0.06,0 0.104,0.003 l 0.088,0.006 q 0.115,0.005 0.15,0.04 0.036,0.033 0.036,0.084 0,0.028 -0.006,0.05 -0.002,0.023 -0.022,0.04 -0.02,0.017 -0.057,0.029 -0.036,0.01 -0.104,0.016 l -0.088,0.006 q -0.04,0 -0.096,0.003 h -0.321 q -0.003,0.17 -0.003,0.347 0.003,0.175 -0.009,0.361 -0.005,0.11 -0.04,0.136 -0.03,0.022 -0.095,0.022 -0.062,0 -0.093,-0.025 -0.031,-0.028 -0.037,-0.13 -0.005,-0.09 -0.008,-0.197 0,-0.11 -0.003,-0.249 -0.003,-0.141 -0.003,-0.316 v -0.406 z m 2.152,1.341 q -0.17,0 -0.32,-0.068 -0.147,-0.068 -0.257,-0.195 -0.11,-0.13 -0.175,-0.316 -0.062,-0.186 -0.062,-0.423 0,-0.223 0.054,-0.41 0.056,-0.186 0.164,-0.321 0.11,-0.136 0.27,-0.21 0.161,-0.075 0.373,-0.075 0.172,0 0.327,0.062 0.156,0.062 0.271,0.186 0.119,0.124 0.187,0.31 0.067,0.187 0.067,0.435 0,0.206 -0.056,0.392 -0.054,0.187 -0.167,0.328 -0.11,0.138 -0.279,0.223 -0.17,0.082 -0.398,0.082 z m 0.005,-0.266 q 0.155,0 0.27,-0.062 0.116,-0.065 0.193,-0.17 0.076,-0.104 0.112,-0.239 0.037,-0.138 0.037,-0.282 0,-0.175 -0.048,-0.31 -0.045,-0.139 -0.124,-0.232 -0.08,-0.093 -0.184,-0.141 -0.104,-0.051 -0.222,-0.051 -0.142,0 -0.249,0.06 -0.104,0.059 -0.178,0.16 -0.07,0.102 -0.107,0.24 -0.037,0.135 -0.037,0.29 0,0.167 0.043,0.306 0.042,0.135 0.113,0.23 0.073,0.097 0.172,0.15 0.099,0.051 0.209,0.051 z m 1.83,-0.456 -0.082,0.005 h -0.178 q -0.048,0 -0.107,-0.006 v 0.573 q 0,0.09 -0.045,0.113 -0.042,0.02 -0.107,0.02 -0.034,0 -0.054,-0.006 -0.02,-0.003 -0.034,-0.014 -0.011,-0.014 -0.02,-0.04 -0.005,-0.025 -0.008,-0.07 -0.006,-0.05 -0.009,-0.147 l -0.005,-0.254 q 0,-0.155 -0.003,-0.375 v -0.522 q 0,-0.116 0.028,-0.223 0.028,-0.11 0.102,-0.192 0.073,-0.085 0.197,-0.136 0.127,-0.05 0.322,-0.05 0.138,0 0.268,0.03 0.133,0.032 0.234,0.108 0.102,0.076 0.164,0.206 0.062,0.13 0.062,0.324 0,0.26 -0.113,0.404 -0.11,0.141 -0.304,0.2 l 0.378,0.52 q 0.05,0.067 0.05,0.138 0,0.056 -0.039,0.087 -0.037,0.034 -0.093,0.034 -0.062,0 -0.107,-0.034 -0.046,-0.036 -0.085,-0.093 z m 0.443,-0.658 q 0,-0.195 -0.119,-0.288 -0.115,-0.096 -0.37,-0.096 -0.092,0 -0.154,0.017 -0.063,0.014 -0.1,0.056 -0.036,0.042 -0.053,0.119 -0.014,0.073 -0.014,0.189 v 0.192 q 0,0.11 0.003,0.2 0.065,0.003 0.144,0.003 h 0.152 q 0.08,0 0.167,-0.009 0.09,-0.011 0.166,-0.05 0.076,-0.043 0.127,-0.12 0.051,-0.078 0.051,-0.214 z m 1.352,-0.647 q 0.093,0 0.187,0.017 0.096,0.014 0.172,0.048 0.076,0.031 0.124,0.08 0.05,0.044 0.05,0.106 0,0.065 -0.033,0.1 -0.034,0.033 -0.085,0.033 -0.048,0 -0.084,-0.014 l -0.085,-0.037 q -0.045,-0.02 -0.11,-0.034 -0.065,-0.017 -0.172,-0.017 -0.108,0 -0.206,0.057 -0.096,0.054 -0.17,0.152 -0.07,0.096 -0.113,0.229 -0.042,0.133 -0.042,0.288 0,0.192 0.048,0.33 0.05,0.138 0.13,0.229 0.079,0.087 0.178,0.132 0.101,0.043 0.203,0.043 0.121,0 0.203,-0.026 0.082,-0.025 0.138,-0.056 0.06,-0.031 0.102,-0.057 0.042,-0.025 0.082,-0.025 0.048,0 0.076,0.028 0.028,0.025 0.028,0.093 0,0.057 -0.045,0.116 -0.042,0.056 -0.127,0.104 -0.082,0.046 -0.197,0.077 -0.116,0.028 -0.26,0.028 -0.158,0 -0.316,-0.062 -0.155,-0.062 -0.28,-0.184 -0.121,-0.124 -0.197,-0.307 -0.076,-0.187 -0.076,-0.432 0,-0.246 0.067,-0.438 0.07,-0.192 0.19,-0.324 0.12,-0.136 0.279,-0.206 0.16,-0.07 0.341,-0.07 z m 0.888,1.569 -0.011,-0.245 Q 21.681,84.364 21.681,84.2 v -0.192 l 0.006,-0.206 q 0.006,-0.209 0.025,-0.327 0.023,-0.119 0.085,-0.178 0.065,-0.06 0.18,-0.074 0.116,-0.014 0.308,-0.014 h 0.06 q 0.059,0 0.14,0.003 0.082,0 0.17,0.003 l 0.15,0.006 q 0.062,0.005 0.098,0.016 0.04,0.009 0.06,0.026 0.02,0.014 0.025,0.037 0.006,0.02 0.006,0.045 0,0.065 -0.037,0.096 -0.037,0.028 -0.15,0.036 -0.056,0.006 -0.166,0.009 h -0.22 q -0.113,0 -0.204,0.003 h -0.112 q -0.074,0.002 -0.105,0.034 -0.028,0.028 -0.028,0.138 l 0.003,0.124 q 0.005,0.096 0.005,0.27 h 0.235 q 0.15,0 0.242,0.007 0.096,0.002 0.147,0.016 0.054,0.015 0.073,0.046 0.02,0.03 0.02,0.081 0,0.026 -0.005,0.048 -0.003,0.02 -0.023,0.037 -0.02,0.014 -0.056,0.026 -0.037,0.008 -0.105,0.014 l -0.155,0.008 h -0.378 v 0.344 l 0.005,0.096 q 0.003,0.046 0.012,0.077 0.011,0.03 0.036,0.05 0.029,0.02 0.08,0.029 0.053,0.008 0.14,0.008 h 0.607 q 0.099,0 0.124,0.037 0.026,0.037 0.026,0.099 0,0.05 -0.023,0.079 -0.022,0.025 -0.11,0.036 -0.084,0.014 -0.257,0.017 -0.169,0.003 -0.468,0.003 -0.127,0 -0.209,-0.023 -0.082,-0.022 -0.133,-0.076 -0.05,-0.053 -0.076,-0.138 -0.022,-0.087 -0.03,-0.212 z"
       style="-inkscape-font-specification:'Sniglet, Normal';font-variant-ligatures:normal;font-variant-caps:normal;font-variant-numeric:normal;font-feature-settings:normal;text-align:start;stroke-width:0.20703119;fill:#232323;fill-opacity:1"
       id="path44"
       inkscape:connector-curvature="0" />
  </g>
  <path
     d="m 18.700804,114.62782 h -1.69344"
     id="path48"
     inkscape:connector-curvature="0"
     style="fill:none;stroke:#232323;stroke-width:0.132;stroke-opacity:1"
     sodipodi:nodetypes="cc" />
  <path
     d="m 17.417097,97.430069 h -1.69344"
     id="path48-5"
     inkscape:connector-curvature="0"
     style="fill:none;stroke:#232323;stroke-width:0.132;stroke-opacity:1"
     sodipodi:nodetypes="cc" />
  <g
     aria-label="TR"
     style="font-weight:400;font-size:2.822px;line-height:1.25;font-family:Sniglet;letter-spacing:0;word-spacing:0;fill:#232323;fill-opacity:1;stroke-width:0.207031"
     font-weight="400"
     font-size="2.822"
     letter-spacing="0"
     word-spacing="0"
     id="g52"
     transform="matrix(1.2800003,0,0,1.2800003,0,-1.7970802)">
    <path
       d="m 13.155,55.634 q -0.08,0.005 -0.17,0.008 l -0.195,0.006 0.006,0.144 0.006,0.133 q 0.002,0.067 0.002,0.14 0.003,0.074 0.003,0.164 v 0.246 q 0,0.116 -0.003,0.234 l -0.005,0.234 q -0.003,0.119 -0.009,0.246 -0.002,0.068 -0.014,0.104 -0.008,0.037 -0.025,0.057 -0.017,0.02 -0.04,0.022 -0.022,0.006 -0.05,0.006 -0.051,0 -0.088,-0.034 -0.034,-0.037 -0.04,-0.152 -0.005,-0.102 -0.008,-0.215 0,-0.113 -0.003,-0.243 -0.003,-0.13 -0.003,-0.279 v -0.336 -0.27 q 0.003,-0.116 0.009,-0.201 h -0.116 q -0.118,0 -0.203,-0.003 -0.082,-0.003 -0.135,-0.014 -0.054,-0.014 -0.08,-0.042 -0.022,-0.029 -0.022,-0.08 0,-0.025 0.006,-0.044 0.005,-0.023 0.025,-0.04 0.02,-0.02 0.054,-0.031 0.036,-0.011 0.093,-0.017 l 0.096,-0.006 0.084,-0.005 q 0.043,-0.003 0.088,-0.003 h 0.104 q 0.167,0 0.314,0.003 0.15,0.003 0.316,0.011 0.067,0.006 0.104,0.017 0.037,0.009 0.056,0.025 0.02,0.017 0.023,0.04 0.006,0.023 0.006,0.05 0,0.052 -0.037,0.085 -0.034,0.034 -0.15,0.04 z m 1.036,1.022 -0.081,0.005 h -0.178 q -0.048,0 -0.107,-0.005 v 0.572 q 0,0.09 -0.046,0.113 -0.042,0.02 -0.107,0.02 -0.034,0 -0.054,-0.006 -0.02,-0.002 -0.033,-0.014 -0.012,-0.014 -0.02,-0.04 -0.006,-0.025 -0.009,-0.07 -0.005,-0.05 -0.008,-0.146 l -0.006,-0.254 q 0,-0.156 -0.003,-0.376 v -0.522 q 0,-0.116 0.029,-0.223 0.028,-0.11 0.101,-0.192 0.074,-0.084 0.198,-0.135 0.127,-0.051 0.322,-0.051 0.138,0 0.268,0.031 0.132,0.031 0.234,0.107 0.102,0.076 0.164,0.206 0.062,0.13 0.062,0.325 0,0.26 -0.113,0.403 -0.11,0.142 -0.305,0.2 l 0.378,0.52 q 0.051,0.068 0.051,0.138 0,0.057 -0.04,0.088 -0.036,0.034 -0.093,0.034 -0.062,0 -0.107,-0.034 -0.045,-0.037 -0.085,-0.093 z m 0.443,-0.658 q 0,-0.195 -0.118,-0.288 -0.116,-0.096 -0.37,-0.096 -0.093,0 -0.155,0.017 -0.062,0.014 -0.099,0.056 -0.036,0.043 -0.053,0.119 -0.014,0.073 -0.014,0.19 v 0.191 q 0,0.11 0.002,0.2 0.065,0.003 0.144,0.003 h 0.153 q 0.079,0 0.166,-0.008 0.09,-0.012 0.167,-0.051 0.076,-0.042 0.127,-0.119 0.05,-0.079 0.05,-0.214 z"
       style="-inkscape-font-specification:'Sniglet, Normal';font-variant-ligatures:normal;font-variant-caps:normal;font-variant-numeric:normal;font-feature-settings:normal;text-align:start;fill:#232323;fill-opacity:1;stroke-width:0.207031"
       id="path50"
       inkscape:connector-curvature="0" />
  </g>
  <path
     word-spacing="0"
     letter-spacing="0"
     font-size="3.528"
     font-weight="400"
     d="m 52.875532,70.943971 -0.1152,0.1408 c -0.03586,0.03696 -0.08547,0.05736 -0.13696,0.05632 -0.04631,-5.53e-4 -0.09086,-0.01783 -0.12544,-0.04864 -0.01989,-0.01891 -0.03712,-0.04044 -0.0512,-0.064 -0.01147,-0.02212 -0.0172,-0.04677 -0.01664,-0.07168 0,-0.0256 0.009,-0.06016 0.0256,-0.09984 0.02319,-0.05166 0.05058,-0.101319 0.08192,-0.14848 l 0.31232,-0.51072 c 0.08704,-0.1472 0.1664,-0.27136 0.2432,-0.3712 0.05758,-0.0849 0.126,-0.161927 0.20352,-0.22912 0.064,-0.0512 0.128001,-0.0768 0.198401,-0.0768 0.07521,0.0021 0.14727,0.03067 0.20352,0.08064 0.07783,0.06736 0.146278,0.144853 0.20352,0.2304 0.07168,0.09984 0.1536,0.22272 0.2432,0.3712 0.08704,0.1472 0.18944,0.31616 0.3072,0.5056 0.03194,0.04748 0.0606,0.09709 0.08576,0.14848 0.0128,0.032 0.02048,0.06656 0.02304,0.09984 0,0.0256 -0.0064,0.0512 -0.01792,0.07168 -0.0139,0.02369 -0.03114,0.04524 -0.0512,0.064 -0.03458,0.03081 -0.07913,0.04809 -0.12544,0.04864 -0.0501,7.02e-4 -0.09792,-0.02087 -0.13056,-0.05888 -0.04233,-0.04491 -0.08289,-0.09145 -0.1216,-0.13952 -0.4032,-0.38656 -0.965121,-0.36736 -1.237761,0 z m -13.884163,-1.22496 c -0.03793,-0.04732 -0.07633,-0.09425 -0.1152,-0.1408 -0.03564,-0.03743 -0.08528,-0.05831 -0.13696,-0.0576 -0.04631,5.53e-4 -0.09086,0.01783 -0.12544,0.04864 -0.01989,0.01891 -0.03712,0.04044 -0.0512,0.064 -0.01147,0.02212 -0.0172,0.04677 -0.01664,0.07168 0,0.02688 0.009,0.06016 0.0256,0.09984 0.01664,0.0384 0.04352,0.0896 0.08192,0.14848 l 0.31232,0.512 c 0.08704,0.14592 0.1664,0.27008 0.2432,0.3712 0.07296,0.1024 0.1408,0.17664 0.20352,0.22784 0.064,0.0512 0.128,0.0768 0.1984,0.0768 0.07521,-0.0021 0.14727,-0.03067 0.20352,-0.08064 0.07783,-0.06736 0.146278,-0.144853 0.20352,-0.2304 0.07168,-0.09984 0.1536,-0.22272 0.2432,-0.3712 0.08704,-0.1472 0.18944,-0.31616 0.307201,-0.5056 0.03194,-0.04748 0.0606,-0.09709 0.08576,-0.14848 0.01356,-0.03164 0.02136,-0.06545 0.02304,-0.09984 2.75e-4,-0.02504 -0.0059,-0.04972 -0.01792,-0.07168 -0.0139,-0.02369 -0.03114,-0.04524 -0.0512,-0.064 -0.03458,-0.03081 -0.07913,-0.04809 -0.125441,-0.04864 -0.0501,-7.02e-4 -0.09792,0.02087 -0.13056,0.05888 -0.0384,0.04096 -0.08064,0.0896 -0.1216,0.1408 -0.4032,0.38528 -0.96512,0.36608 -1.23776,0 z"
     style="font-weight:400;font-size:3.528px;line-height:1.25;font-family:Sniglet;-inkscape-font-specification:'Sniglet, Normal';font-variant-ligatures:normal;font-variant-caps:normal;font-variant-numeric:normal;font-feature-settings:normal;text-align:start;letter-spacing:0;word-spacing:0;fill:#232323;fill-opacity:1;stroke-width:1"
     id="path58"
     inkscape:connector-curvature="0"
     sodipodi:nodetypes="cccccccccccccccccccccccccccccccccccccccccccccccccc" />
  <path
     word-spacing="0"
     letter-spacing="0"
     font-size="3.528"
     font-weight="400"
     d="m 4.871681,69.735737 c -0.03793,-0.04732 -0.07633,-0.09425 -0.1152,-0.1408 -0.03564,-0.03743 -0.08528,-0.05831 -0.13696,-0.0576 -0.04631,5.53e-4 -0.09086,0.01783 -0.12544,0.04864 -0.01989,0.01891 -0.03712,0.04044 -0.0512,0.064 -0.01147,0.02212 -0.0172,0.04677 -0.01664,0.07168 0,0.02688 0.009,0.06016 0.0256,0.09984 0.01664,0.0384 0.04352,0.0896 0.08192,0.14848 l 0.31232,0.512 c 0.08704,0.14592 0.16768,0.27008 0.2432,0.3712 0.07296,0.1024 0.1408,0.17664 0.20352,0.22784 0.064,0.0512 0.12928,0.0768 0.1984,0.0768 0.07521,-0.0021 0.14727,-0.03067 0.20352,-0.08064 0.07783,-0.06736 0.146278,-0.144853 0.20352,-0.2304 0.07168,-0.09984 0.1536,-0.22272 0.2432,-0.3712 0.08704,-0.1472 0.189441,-0.31616 0.307201,-0.5056 0.03194,-0.04748 0.0606,-0.09709 0.08576,-0.14848 0.01356,-0.03164 0.02136,-0.06545 0.02304,-0.09984 2.75e-4,-0.02503 -0.0059,-0.04972 -0.01792,-0.07168 -0.0139,-0.02369 -0.03114,-0.04524 -0.0512,-0.064 -0.03458,-0.03081 -0.07913,-0.04809 -0.12544,-0.04864 -0.0501,-7.02e-4 -0.09792,0.02087 -0.13056,0.05888 -0.0384,0.04096 -0.08064,0.0896 -0.121601,0.1408 -0.4032,0.38528 -0.96512,0.36608 -1.23776,0 z m 23.710726,1.22368 -0.1152,0.1408 c -0.03564,0.03743 -0.08528,0.05831 -0.13696,0.0576 -0.04631,-5.53e-4 -0.09086,-0.01783 -0.12544,-0.04864 -0.01989,-0.01891 -0.03712,-0.04044 -0.0512,-0.064 -0.01147,-0.02212 -0.0172,-0.04677 -0.01664,-0.07168 0,-0.0256 0.009,-0.06016 0.0256,-0.09984 0.02319,-0.05166 0.05059,-0.101319 0.08192,-0.14848 l 0.31232,-0.51072 c 0.08704,-0.1472 0.1664,-0.27136 0.2432,-0.3712 0.05758,-0.0849 0.125999,-0.161927 0.20352,-0.22912 0.064,-0.0512 0.128,-0.0768 0.1984,-0.0768 0.07521,0.0021 0.14727,0.03067 0.20352,0.08064 0.07783,0.06736 0.146278,0.144853 0.20352,0.2304 0.07168,0.09984 0.1536,0.22272 0.2432,0.3712 0.08704,0.1472 0.18944,0.31616 0.3072,0.5056 0.03194,0.04748 0.0606,0.09709 0.08576,0.14848 0.0128,0.032 0.02048,0.06528 0.02304,0.09984 0,0.0256 -0.0064,0.04992 -0.01792,0.07168 -0.0139,0.02369 -0.03114,0.04524 -0.0512,0.064 -0.03458,0.03081 -0.07913,0.04809 -0.12544,0.04864 -0.0501,7.02e-4 -0.09792,-0.02087 -0.13056,-0.05888 -0.04233,-0.04491 -0.08289,-0.09145 -0.1216,-0.13952 -0.4032,-0.38656 -0.96512,-0.36736 -1.23776,0 z"
     style="font-weight:400;font-size:3.528px;line-height:1.25;font-family:Sniglet;-inkscape-font-specification:'Sniglet, Normal';font-variant-ligatures:normal;font-variant-caps:normal;font-variant-numeric:normal;font-feature-settings:normal;text-align:start;letter-spacing:0;word-spacing:0;fill:#232323;fill-opacity:1;stroke-width:1"
     id="path58-6"
     inkscape:connector-curvature="0"
     sodipodi:nodetypes="cccccccccccccccccccccccccccccccccccccccccccccccccc" />
  <g
     aria-label="0 - 2V"
     id="text2840"
     style="font-size:10.5834px;line-height:1.25;fill:#232323;fill-opacity:1;stroke-width:0.264584"
     transform="translate(0.35946819,1.1340142)">
    <path
       d="m 6.3373646,89.791053 q 0,-0.172156 0.031045,-0.352778 0.033867,-0.180623 0.1185337,-0.327379 0.084667,-0.146756 0.2286006,-0.23989 0.146756,-0.09313 0.3725344,-0.09313 0.1778005,0 0.3019786,0.05362 0.1270004,0.05362 0.208845,0.141112 0.081845,0.08749 0.1270004,0.200378 0.045156,0.110067 0.067734,0.231423 0.022578,0.121356 0.0254,0.239889 0.00564,0.118534 0.00564,0.217312 0,0.197556 -0.047978,0.364068 -0.045156,0.163689 -0.1411115,0.282223 -0.093134,0.118534 -0.2370673,0.186267 -0.1411115,0.06491 -0.3330231,0.06491 -0.2003784,0 -0.3414899,-0.0762 Q 6.5857172,90.603858 6.4982281,90.474033 6.4135611,90.341388 6.37405,90.16641 6.337361,89.98861 6.337361,89.791053 Z m 0.282223,-0.0056 q 0,0.138289 0.022578,0.26529 0.0254,0.124178 0.079023,0.220134 0.053622,0.09313 0.1382893,0.149578 0.087489,0.05644 0.2116672,0.05644 0.1185337,0 0.2060228,-0.04798 0.090311,-0.04798 0.1495782,-0.132644 0.059267,-0.08749 0.087489,-0.206023 0.028222,-0.118534 0.028222,-0.256823 0,-0.104423 -0.00847,-0.237067 -0.00847,-0.135468 -0.053622,-0.254001 -0.042333,-0.118534 -0.1354671,-0.200379 -0.093134,-0.08184 -0.2596451,-0.08184 -0.1411115,0 -0.2314229,0.06773 -0.087489,0.06773 -0.1411115,0.174979 -0.053622,0.104422 -0.073378,0.234245 -0.019756,0.127 -0.019756,0.248356 z"
       style="font-size:2.82223px;font-family:Sniglet;-inkscape-font-specification:'Sniglet, Normal';fill:#232323;fill-opacity:1"
       id="path6884" />
    <path
       d="m 9.6393682,90.050699 q -0.1298226,0.0056 -0.2991564,0.01129 -0.1693338,0.0028 -0.4007567,0.0028 -0.095956,0 -0.1636893,-0.0028 -0.067734,-0.0028 -0.110067,-0.01411 -0.042333,-0.01411 -0.062089,-0.04233 -0.019756,-0.02822 -0.019756,-0.07902 0,-0.0254 0.00564,-0.04515 0.00564,-0.02258 0.0254,-0.03951 0.019756,-0.01693 0.053622,-0.02822 0.036689,-0.01411 0.093134,-0.01976 0.042333,-0.0028 0.073378,-0.0056 0.033867,-0.0028 0.064911,-0.0028 0.031045,-0.0028 0.064911,-0.0028 0.036689,0 0.084667,0 0.1524004,0 0.293512,0.0028 0.1411115,0 0.2935119,0.0085 0.067734,0.0056 0.1044225,0.01693 0.036689,0.0085 0.056445,0.0254 0.019756,0.01693 0.022578,0.03951 0.00564,0.02258 0.00564,0.0508 0,0.0508 -0.036689,0.08467 -0.033867,0.03387 -0.1495782,0.03951 z"
       style="font-size:2.82223px;font-family:Sniglet;-inkscape-font-specification:'Sniglet, Normal';fill:#232323;fill-opacity:1"
       id="path6886" />
    <path
       d="m 11.228281,89.051629 q -0.1016,0 -0.169333,0.02258 -0.06773,0.01976 -0.11289,0.05362 -0.04516,0.03387 -0.07338,0.07056 -0.0254,0.03669 -0.0508,0.07056 -0.02258,0.03387 -0.0508,0.05644 -0.0254,0.01976 -0.06491,0.01976 -0.06773,0 -0.09596,-0.03387 -0.0254,-0.03669 -0.0254,-0.09596 0,-0.124178 0.09313,-0.231422 0.02822,-0.03387 0.0762,-0.07056 0.0508,-0.03951 0.118534,-0.07056 0.07056,-0.03104 0.160867,-0.0508 0.09313,-0.02258 0.208845,-0.02258 0.307623,0 0.476957,0.149578 0.169333,0.149579 0.169333,0.420513 0,0.05362 -0.01129,0.118533 -0.0085,0.06491 -0.03669,0.135467 -0.0254,0.07056 -0.07338,0.146756 -0.04798,0.0762 -0.127,0.155223 -0.07056,0.07056 -0.149578,0.129823 -0.07902,0.05927 -0.163689,0.118533 -0.08467,0.05927 -0.177801,0.127001 -0.09031,0.06491 -0.183445,0.149578 0.09031,0.04798 0.194734,0.06209 0.104422,0.01411 0.234245,0.01411 0.121356,0 0.194734,-0.0056 0.07338,-0.0056 0.118534,-0.01411 0.04515,-0.0085 0.07055,-0.01411 0.0254,-0.0056 0.05362,-0.0056 0.104422,0 0.104422,0.09596 0,0.08467 -0.07056,0.129822 -0.07055,0.04516 -0.169333,0.06773 -0.09878,0.01975 -0.203201,0.02258 -0.104422,0.0056 -0.172156,0.0056 -0.03669,0 -0.104422,-0.0056 -0.06491,-0.0028 -0.141112,-0.01411 -0.0762,-0.01129 -0.155223,-0.03104 -0.0762,-0.02258 -0.141111,-0.05644 -0.06209,-0.03669 -0.1016,-0.08749 -0.03951,-0.05362 -0.03951,-0.127 0,-0.09878 0.07056,-0.186267 0.07338,-0.09031 0.180623,-0.174979 0.107245,-0.08749 0.231423,-0.172156 0.124178,-0.08749 0.231423,-0.1778 0.107244,-0.09313 0.1778,-0.191912 0.07338,-0.09878 0.07338,-0.214489 0,-0.143934 -0.09878,-0.21449 -0.09596,-0.07338 -0.276579,-0.07338 z"
       style="font-size:2.82223px;font-family:Sniglet;-inkscape-font-specification:'Sniglet, Normal';fill:#232323;fill-opacity:1"
       id="path6888" />
    <path
       d="m 13.017571,90.643367 q -0.03669,0.06773 -0.06773,0.09878 -0.02822,0.03104 -0.07338,0.03104 -0.04516,0 -0.07902,-0.03104 -0.03387,-0.03104 -0.07338,-0.09596 -0.0508,-0.08467 -0.115711,-0.234245 -0.06209,-0.149578 -0.127001,-0.324556 -0.06491,-0.177801 -0.127,-0.36689 -0.06209,-0.18909 -0.112889,-0.355601 -0.04798,-0.166512 -0.07902,-0.29069 -0.02822,-0.127 -0.02822,-0.180623 0,-0.05644 0.02258,-0.08467 0.02258,-0.02822 0.08749,-0.02822 0.03669,0 0.06209,0.01976 0.02822,0.01693 0.07056,0.1016 0.03387,0.06491 0.07338,0.169334 0.03951,0.104422 0.08184,0.231423 0.04516,0.127 0.09031,0.268111 0.04516,0.13829 0.09031,0.276579 0.04516,0.138289 0.08467,0.26529 0.03951,0.127 0.07338,0.2286 0.03387,-0.104422 0.0762,-0.231423 0.04233,-0.129822 0.08749,-0.265289 0.04516,-0.138289 0.09031,-0.276579 0.04516,-0.141111 0.09031,-0.265289 0.04516,-0.124179 0.08467,-0.228601 0.03951,-0.104423 0.07056,-0.172156 0.03951,-0.08185 0.06773,-0.1016 0.03104,-0.01976 0.06209,-0.01976 0.06491,0 0.08749,0.03387 0.0254,0.03104 0.0254,0.09313 0,0.05644 -0.01693,0.135467 -0.01693,0.07902 -0.05927,0.211668 -0.03951,0.129822 -0.107244,0.324556 -0.06773,0.194734 -0.166512,0.476957 -0.0254,0.0762 -0.05927,0.158045 -0.03104,0.08185 -0.06491,0.160867 -0.03105,0.0762 -0.06209,0.146756 -0.03105,0.07056 -0.05927,0.121356 z"
       style="font-size:2.82223px;font-family:Sniglet;-inkscape-font-specification:'Sniglet, Normal';fill:#232323;fill-opacity:1"
       id="path6890" />
  </g>
</svg>
