<?xml version="1.0" encoding="UTF-8" standalone="no"?>
<svg
   width="20.32mm"
   height="128.5mm"
   viewBox="0 0 20.32 128.50044"
   version="1.1"
   id="svg48"
   sodipodi:docname="ClockedExpander.svg"
   inkscape:version="1.1 (c68e22c387, 2021-05-23)"
   xmlns:inkscape="http://www.inkscape.org/namespaces/inkscape"
   xmlns:sodipodi="http://sodipodi.sourceforge.net/DTD/sodipodi-0.dtd"
   xmlns="http://www.w3.org/2000/svg"
   xmlns:svg="http://www.w3.org/2000/svg"
   xmlns:rdf="http://www.w3.org/1999/02/22-rdf-syntax-ns#"
   xmlns:cc="http://creativecommons.org/ns#"
   xmlns:dc="http://purl.org/dc/elements/1.1/">
  <metadata
     id="metadata54">
    <rdf:RDF>
      <cc:Work
         rdf:about="">
        <dc:format>image/svg+xml</dc:format>
        <dc:type
           rdf:resource="http://purl.org/dc/dcmitype/StillImage" />
        <dc:title />
      </cc:Work>
    </rdf:RDF>
  </metadata>
  <defs
     id="defs52" />
  <sodipodi:namedview
     pagecolor="#ffffff"
     bordercolor="#666666"
     borderopacity="1"
     objecttolerance="10"
     gridtolerance="10"
     guidetolerance="10"
     inkscape:pageopacity="0"
     inkscape:pageshadow="2"
     inkscape:window-width="1920"
     inkscape:window-height="1057"
     id="namedview50"
     showgrid="false"
     inkscape:document-units="mm"
     units="mm"
     inkscape:zoom="1.7566022"
     inkscape:cx="-28.179403"
     inkscape:cy="235.39764"
     inkscape:window-x="-8"
     inkscape:window-y="1072"
     inkscape:window-maximized="1"
     inkscape:current-layer="svg48"
     inkscape:pagecheckerboard="0" />
  <g
     style="line-height:1.25;stroke-width:0.78124732;fill:#232323;fill-opacity:1"
     id="g6"
     transform="matrix(1.2800044,0,0,1.2800044,0,-0.09623859)">
    <path
       word-spacing="0"
       letter-spacing="0"
       font-weight="400"
       aria-label="♫"
       font-size="3.528"
       style="font-weight:400;font-size:3.52800012px;font-family:Arial;-inkscape-font-specification:'Arial, Normal';font-variant-ligatures:normal;font-variant-caps:normal;font-variant-numeric:normal;font-feature-settings:normal;text-align:start;letter-spacing:0;word-spacing:0;fill:#232323;stroke-width:0.78124732;fill-opacity:1"
       d="m 8.664,93.893 -1.63,0.115 v -2.06 q 0,-0.23 0.065,-0.333 0.063,-0.104 0.22,-0.147 0.153,-0.043 0.347,-0.002 0.224,0.047 0.357,0.19 0.133,0.146 0.133,0.33 0,0.186 -0.158,0.286 -0.157,0.103 -0.407,0.05 Q 7.509,92.304 7.447,92.278 7.384,92.252 7.242,92.168 v 1.345 l 1.22,-0.085 v -1.554 q 0,-0.224 0.065,-0.337 0.065,-0.11 0.225,-0.15 0.16,-0.041 0.348,-0.001 0.224,0.047 0.355,0.19 0.129,0.14 0.129,0.325 0,0.195 -0.156,0.294 -0.155,0.1 -0.407,0.047 -0.16,-0.034 -0.357,-0.16 z"
       id="path4"
       inkscape:connector-curvature="0" />
  </g>
  <rect
     rx="0.98999995"
     ry="0.98999995"
     y="14.736455"
     x="5.5616188"
     height="3.8950534"
     width="9.2109118"
     id="rect8"
     style="fill:#333333;stroke:#8c8c8c;stroke-width:0.132;paint-order:stroke markers fill" />
  <rect
     rx="0.98999995"
     ry="0.98999995"
     y="48.602814"
     x="4.5465755"
     height="3.8950534"
     width="11.196198"
     id="rect10"
     style="fill:#333333;stroke:#8c8c8c;stroke-width:0.132;paint-order:stroke markers fill" />
  <g
     style="line-height:1.25;stroke-width:0.78124732;fill:#dcdcdc;fill-opacity:1"
     id="g14"
     transform="matrix(1.2800044,0,0,1.2800044,0,-0.09623859)">
    <path
       style="font-weight:400;font-size:2.82200003px;font-family:Sniglet;-inkscape-font-specification:'Sniglet, Normal';font-variant-ligatures:normal;font-variant-caps:normal;font-variant-numeric:normal;font-feature-settings:normal;text-align:start;letter-spacing:0;word-spacing:0;fill:#dcdcdc;stroke-width:0.78124732;fill-opacity:1"
       d="m 5.367,40.37 q 0,0.067 -0.014,0.104 -0.012,0.037 -0.031,0.056 -0.017,0.02 -0.043,0.023 -0.022,0.006 -0.045,0.006 -0.076,0 -0.101,-0.034 Q 5.11,40.491 5.102,40.373 5.096,40.311 5.092,40.193 L 5.087,39.91 5.085,39.549 v -0.418 q 0,-0.104 0.025,-0.212 0.025,-0.107 0.096,-0.194 0.073,-0.088 0.2,-0.142 0.13,-0.053 0.336,-0.053 0.144,0 0.274,0.03 0.13,0.032 0.229,0.108 0.098,0.076 0.158,0.203 0.059,0.127 0.059,0.316 0,0.198 -0.065,0.328 -0.065,0.13 -0.183,0.206 -0.12,0.076 -0.283,0.107 -0.163,0.031 -0.358,0.031 H 5.477 q -0.048,0 -0.107,-0.006 z M 6.18,39.181 Q 6.18,38.992 6.072,38.896 5.968,38.8 5.722,38.8 q -0.093,0 -0.16,0.017 -0.065,0.014 -0.108,0.054 -0.042,0.037 -0.065,0.102 -0.02,0.064 -0.02,0.163 v 0.22 q 0,0.122 0.003,0.229 0.065,0.003 0.144,0.003 h 0.153 q 0.084,0 0.175,-0.011 Q 5.937,39.565 6.01,39.526 6.084,39.484 6.132,39.404 6.18,39.323 6.18,39.182 Z m 1.282,-0.073 q 0.017,-0.04 0.05,-0.065 0.037,-0.025 0.077,-0.025 0.037,0 0.07,0.025 0.034,0.023 0.054,0.062 0.107,0.22 0.212,0.477 0.104,0.254 0.189,0.483 0.048,-0.35 0.104,-0.706 0.057,-0.355 0.127,-0.68 0.009,-0.037 0.026,-0.06 0.017,-0.025 0.036,-0.036 0.02,-0.014 0.04,-0.02 0.022,-0.006 0.037,-0.006 0.048,0 0.079,0.029 0.03,0.025 0.03,0.07 0,0.05 -0.016,0.18 -0.017,0.128 -0.045,0.3 l -0.065,0.361 q -0.034,0.192 -0.068,0.37 -0.034,0.178 -0.065,0.324 -0.031,0.147 -0.05,0.223 -0.018,0.065 -0.052,0.1 -0.033,0.03 -0.098,0.03 -0.068,0 -0.116,-0.06 Q 7.973,40.423 7.916,40.293 7.863,40.163 7.786,39.963 7.71,39.76 7.589,39.477 7.465,39.76 7.386,39.963 7.31,40.166 7.253,40.296 q -0.054,0.13 -0.101,0.192 -0.048,0.059 -0.113,0.059 -0.113,0 -0.15,-0.13 Q 6.866,40.341 6.835,40.197 6.805,40.05 6.771,39.872 L 6.706,39.506 Q 6.672,39.314 6.646,39.144 6.621,38.975 6.604,38.848 6.59,38.718 6.59,38.668 q 0,-0.049 0.03,-0.08 0.032,-0.03 0.088,-0.03 0.04,0 0.077,0.025 0.036,0.022 0.053,0.096 0.068,0.324 0.119,0.68 0.053,0.356 0.113,0.706 0.087,-0.207 0.175,-0.438 0.087,-0.231 0.217,-0.52 z m 2.548,-0.265 q -0.102,0 -0.17,0.022 -0.067,0.02 -0.113,0.054 -0.045,0.034 -0.073,0.07 l -0.05,0.071 q -0.023,0.034 -0.051,0.057 -0.026,0.02 -0.065,0.02 -0.068,0 -0.096,-0.035 -0.026,-0.036 -0.026,-0.096 0,-0.124 0.093,-0.23 0.029,-0.035 0.077,-0.071 0.05,-0.04 0.118,-0.071 0.07,-0.031 0.16,-0.05 0.094,-0.023 0.21,-0.023 0.307,0 0.477,0.15 0.17,0.149 0.17,0.42 0,0.053 -0.012,0.118 -0.01,0.065 -0.037,0.136 -0.025,0.07 -0.073,0.146 -0.048,0.077 -0.127,0.156 -0.07,0.07 -0.15,0.13 -0.08,0.059 -0.164,0.118 l -0.177,0.127 q -0.09,0.065 -0.184,0.15 0.09,0.048 0.195,0.062 0.104,0.014 0.234,0.014 0.122,0 0.195,-0.006 0.073,-0.006 0.118,-0.014 0.046,-0.008 0.07,-0.014 0.026,-0.006 0.055,-0.006 0.104,0 0.104,0.096 0,0.084 -0.07,0.13 -0.071,0.044 -0.17,0.067 -0.1,0.02 -0.203,0.023 -0.104,0.006 -0.172,0.006 -0.037,0 -0.105,-0.006 Q 9.934,40.561 9.858,40.55 9.781,40.538 9.702,40.518 9.626,40.496 9.561,40.462 9.499,40.425 9.459,40.375 q -0.04,-0.054 -0.04,-0.127 0,-0.1 0.07,-0.187 0.075,-0.09 0.182,-0.175 0.107,-0.087 0.23,-0.172 0.126,-0.087 0.233,-0.178 0.107,-0.093 0.178,-0.192 0.073,-0.098 0.073,-0.214 0,-0.144 -0.1,-0.214 -0.095,-0.074 -0.275,-0.074 z"
       word-spacing="0"
       letter-spacing="0"
       font-size="2.822"
       font-weight="400"
       aria-label="PW 2"
       id="path12"
       inkscape:connector-curvature="0" />
  </g>
  <rect
     rx="0.98999995"
     ry="0.98999995"
     y="65.535995"
     x="3.472652"
     height="3.8950534"
     width="13.319726"
     id="rect16"
     style="fill:#333333;stroke:#8c8c8c;stroke-width:0.132;paint-order:stroke markers fill" />
  <g
     style="line-height:1.25;stroke-width:0.78124732;fill:#dcdcdc;fill-opacity:1"
     id="g20"
     transform="matrix(1.2800044,0,0,1.2800044,0,-0.09623859)">
    <path
       style="font-weight:400;font-size:2.82200003px;font-family:Sniglet;-inkscape-font-specification:'Sniglet, Normal';font-variant-ligatures:normal;font-variant-caps:normal;font-variant-numeric:normal;font-feature-settings:normal;text-align:start;letter-spacing:0;word-spacing:0;fill:#dcdcdc;stroke-width:0.78124732;fill-opacity:1"
       d="m 4.769,51.784 q 0.08,0 0.18,0.014 0.105,0.011 0.196,0.045 0.09,0.031 0.152,0.085 0.062,0.05 0.062,0.127 0,0.045 -0.025,0.076 -0.026,0.031 -0.082,0.031 -0.042,0 -0.088,-0.017 -0.042,-0.017 -0.098,-0.034 -0.054,-0.02 -0.127,-0.036 -0.07,-0.017 -0.167,-0.017 -0.186,0 -0.276,0.067 -0.088,0.065 -0.088,0.181 0,0.08 0.04,0.133 0.04,0.053 0.104,0.093 0.068,0.036 0.15,0.062 0.084,0.025 0.172,0.048 0.099,0.025 0.194,0.062 0.1,0.037 0.175,0.096 0.077,0.06 0.122,0.15 0.048,0.09 0.048,0.228 0,0.144 -0.054,0.26 -0.053,0.113 -0.147,0.195 -0.093,0.08 -0.223,0.124 -0.13,0.042 -0.282,0.042 -0.084,0 -0.197,-0.017 -0.113,-0.014 -0.215,-0.05 -0.101,-0.04 -0.172,-0.102 -0.07,-0.065 -0.07,-0.158 0,-0.057 0.028,-0.09 0.03,-0.035 0.09,-0.035 0.048,0 0.079,0.02 0.03,0.017 0.054,0.04 0.084,0.073 0.192,0.098 0.107,0.026 0.22,0.026 0.065,0 0.135,-0.008 0.074,-0.01 0.133,-0.042 0.06,-0.03 0.099,-0.088 0.04,-0.06 0.04,-0.158 0,-0.09 -0.038,-0.147 Q 5.052,53.029 4.992,52.989 4.932,52.95 4.852,52.925 4.772,52.899 4.679,52.875 4.575,52.846 4.473,52.812 q -0.102,-0.034 -0.18,-0.09 -0.08,-0.06 -0.13,-0.147 -0.048,-0.09 -0.048,-0.229 0,-0.138 0.05,-0.243 0.05,-0.104 0.139,-0.175 0.087,-0.07 0.206,-0.107 0.12,-0.037 0.26,-0.037 z m 1.728,0.553 q 0.017,-0.04 0.05,-0.065 0.037,-0.025 0.077,-0.025 0.036,0 0.07,0.025 0.034,0.023 0.054,0.062 0.107,0.22 0.21,0.477 0.106,0.254 0.19,0.483 0.049,-0.35 0.105,-0.706 0.056,-0.355 0.127,-0.68 0.008,-0.037 0.025,-0.06 0.017,-0.025 0.037,-0.036 0.02,-0.014 0.04,-0.02 0.022,-0.006 0.036,-0.006 0.048,0 0.08,0.03 0.03,0.024 0.03,0.07 0,0.05 -0.017,0.18 -0.017,0.127 -0.045,0.3 -0.028,0.17 -0.065,0.36 l -0.067,0.37 Q 7.4,53.274 7.369,53.42 q -0.031,0.147 -0.051,0.223 -0.017,0.065 -0.05,0.1 -0.035,0.03 -0.1,0.03 -0.067,0 -0.115,-0.06 -0.046,-0.06 -0.102,-0.19 -0.054,-0.13 -0.13,-0.33 -0.076,-0.204 -0.197,-0.487 -0.125,0.283 -0.204,0.486 -0.076,0.203 -0.132,0.333 -0.054,0.13 -0.102,0.192 -0.048,0.06 -0.113,0.06 -0.113,0 -0.15,-0.13 Q 5.901,53.57 5.87,53.427 5.839,53.279 5.805,53.101 5.775,52.924 5.74,52.735 5.706,52.543 5.68,52.373 L 5.639,52.077 q -0.014,-0.13 -0.014,-0.18 0,-0.049 0.03,-0.08 0.032,-0.03 0.088,-0.03 0.04,0 0.076,0.025 0.037,0.022 0.054,0.096 0.068,0.324 0.118,0.68 0.054,0.356 0.113,0.706 0.088,-0.207 0.175,-0.438 0.088,-0.23 0.218,-0.52 z M 7.91,53.602 Q 7.904,53.5 7.9,53.39 L 7.899,53.153 Q 7.896,53.026 7.896,52.879 v -0.333 q 0,-0.2 0.003,-0.342 0.002,-0.143 0.017,-0.234 0.014,-0.09 0.042,-0.132 0.03,-0.043 0.082,-0.043 0.025,0 0.048,0.006 0.022,0.006 0.04,0.026 0.016,0.017 0.027,0.053 0.015,0.034 0.017,0.09 l 0.009,0.181 0.005,0.158 q 0.003,0.076 0.003,0.161 v 0.43 q 0,0.115 -0.003,0.228 L 8.181,53.356 Q 8.178,53.472 8.171,53.599 8.17,53.667 8.158,53.703 8.147,53.74 8.13,53.76 8.113,53.78 8.09,53.782 8.068,53.788 8.04,53.788 7.989,53.788 7.952,53.755 7.916,53.718 7.91,53.602 Z m 1.764,0.042 Q 9.584,53.52 9.502,53.398 L 9.33,53.128 Q 9.24,52.981 9.12,52.803 9.005,52.623 8.84,52.383 v 0.38 l -10e-4,0.31 -0.006,0.272 -0.008,0.254 q -0.003,0.067 -0.014,0.104 -0.01,0.037 -0.026,0.056 -0.017,0.02 -0.04,0.023 -0.02,0.006 -0.047,0.006 -0.051,0 -0.085,-0.034 -0.034,-0.037 -0.04,-0.152 -0.014,-0.31 -0.016,-0.62 v -0.647 q 0,-0.19 0.002,-0.297 0.006,-0.107 0.02,-0.16 0.017,-0.054 0.042,-0.068 0.029,-0.014 0.074,-0.014 0.045,0 0.118,0.07 0.074,0.068 0.16,0.18 0.089,0.114 0.188,0.26 0.1,0.147 0.2,0.302 0.099,0.156 0.189,0.308 l 0.17,0.277 Q 9.717,53.06 9.717,52.903 v -0.357 q 0,-0.223 0.002,-0.367 0.003,-0.146 0.014,-0.23 0.015,-0.086 0.043,-0.12 0.028,-0.034 0.079,-0.034 0.048,0 0.084,0.031 0.037,0.031 0.043,0.144 l 0.008,0.181 0.006,0.158 q 0.003,0.076 0.003,0.16 v 0.43 q 0,0.116 -0.003,0.23 L 9.99,53.356 q -0.002,0.116 -0.008,0.243 -0.003,0.068 -0.014,0.104 -0.01,0.037 -0.026,0.057 -0.017,0.02 -0.04,0.022 -0.02,0.006 -0.047,0.006 -0.048,0 -0.082,-0.028 -0.034,-0.028 -0.1,-0.116 z m 1.524,-1.866 q 0.093,0 0.192,0.017 0.098,0.017 0.18,0.051 0.082,0.031 0.136,0.08 0.053,0.047 0.053,0.11 0,0.064 -0.033,0.098 -0.034,0.034 -0.085,0.034 -0.048,0 -0.09,-0.017 l -0.09,-0.037 q -0.052,-0.02 -0.122,-0.037 -0.07,-0.016 -0.178,-0.016 -0.118,0 -0.223,0.056 -0.101,0.054 -0.18,0.152 -0.08,0.096 -0.125,0.23 -0.045,0.132 -0.045,0.287 0,0.19 0.048,0.327 0.048,0.138 0.124,0.23 0.08,0.09 0.175,0.134 0.1,0.043 0.198,0.043 0.16,0 0.254,-0.046 0.096,-0.048 0.152,-0.12 0.003,-0.06 0.003,-0.142 v -0.178 q 0,-0.037 -0.006,-0.056 -0.005,-0.023 -0.028,-0.034 -0.022,-0.01 -0.067,-0.014 -0.043,-0.003 -0.116,-0.003 -0.09,0 -0.147,-0.023 -0.056,-0.025 -0.056,-0.104 0,-0.057 0.028,-0.09 0.03,-0.037 0.124,-0.043 h 0.054 q 0.04,-0.003 0.08,-0.003 h 0.157 q 0.084,0 0.135,0.017 0.05,0.014 0.09,0.068 0.02,0.028 0.023,0.1 0.006,0.07 0.006,0.162 v 0.728 q 0,0.077 -0.043,0.113 -0.04,0.037 -0.093,0.037 -0.065,0 -0.107,-0.034 -0.04,-0.03 -0.04,-0.102 v -0.11 q -0.073,0.085 -0.175,0.122 -0.098,0.036 -0.25,0.036 -0.156,0 -0.306,-0.062 -0.15,-0.062 -0.265,-0.183 -0.116,-0.124 -0.19,-0.308 -0.07,-0.186 -0.07,-0.43 0,-0.247 0.07,-0.439 0.074,-0.192 0.199,-0.324 0.124,-0.136 0.29,-0.207 0.167,-0.07 0.359,-0.07 z"
       word-spacing="0"
       letter-spacing="0"
       font-size="2.822"
       font-weight="400"
       aria-label="SWING"
       id="path18"
       inkscape:connector-curvature="0" />
  </g>
  <rect
     rx="0.98999995"
     ry="0.98999995"
     y="82.46917"
     x="2.5792091"
     height="3.8950534"
     width="15.034932"
     id="rect22"
     style="fill:#333333;stroke:#8c8c8c;stroke-width:0.132;paint-order:stroke markers fill" />
  <g
     style="line-height:1.25;stroke-width:0.78124732;fill:#dcdcdc;fill-opacity:1"
     id="g26"
     transform="matrix(1.2800044,0,0,1.2800044,0,-0.09623859)">
    <path
       style="font-weight:400;font-size:2.82200003px;font-family:Sniglet;-inkscape-font-specification:'Sniglet, Normal';font-variant-ligatures:normal;font-variant-caps:normal;font-variant-numeric:normal;font-feature-settings:normal;text-align:start;letter-spacing:0;word-spacing:0;fill:#dcdcdc;stroke-width:0.78124732;fill-opacity:1"
       d="m 3.989,65.013 q 0.079,0 0.18,0.014 0.105,0.011 0.195,0.045 0.09,0.031 0.153,0.085 0.062,0.05 0.062,0.127 0,0.045 -0.026,0.076 -0.025,0.031 -0.081,0.031 -0.043,0 -0.088,-0.017 -0.042,-0.017 -0.1,-0.034 -0.052,-0.02 -0.126,-0.036 -0.07,-0.017 -0.166,-0.017 -0.186,0 -0.277,0.067 -0.087,0.065 -0.087,0.181 0,0.08 0.04,0.133 0.039,0.053 0.104,0.093 0.067,0.036 0.15,0.062 0.084,0.025 0.17,0.048 0.1,0.025 0.196,0.062 0.099,0.037 0.175,0.096 0.076,0.06 0.12,0.15 0.049,0.09 0.049,0.228 0,0.144 -0.053,0.26 -0.054,0.113 -0.147,0.195 -0.093,0.08 -0.223,0.124 -0.13,0.042 -0.282,0.042 -0.085,0 -0.198,-0.017 -0.113,-0.014 -0.214,-0.05 -0.102,-0.04 -0.172,-0.102 -0.07,-0.065 -0.07,-0.158 0,-0.057 0.027,-0.09 0.03,-0.035 0.09,-0.035 0.049,0 0.08,0.02 0.03,0.017 0.053,0.04 0.085,0.073 0.192,0.098 0.107,0.026 0.22,0.026 0.065,0 0.136,-0.008 0.073,-0.01 0.132,-0.042 0.06,-0.03 0.1,-0.088 0.039,-0.06 0.039,-0.158 0,-0.09 -0.037,-0.147 Q 4.271,66.258 4.212,66.218 4.152,66.179 4.071,66.154 3.991,66.128 3.899,66.104 3.794,66.075 3.693,66.041 q -0.102,-0.034 -0.18,-0.09 -0.08,-0.06 -0.13,-0.147 -0.05,-0.09 -0.05,-0.229 0,-0.138 0.052,-0.243 0.05,-0.104 0.138,-0.175 0.088,-0.07 0.206,-0.107 0.122,-0.037 0.26,-0.037 z m 1.727,0.553 q 0.017,-0.04 0.05,-0.065 0.038,-0.025 0.077,-0.025 0.037,0 0.07,0.025 0.035,0.023 0.054,0.062 0.108,0.22 0.212,0.477 0.105,0.254 0.19,0.483 0.047,-0.35 0.104,-0.706 0.056,-0.355 0.127,-0.68 0.008,-0.037 0.025,-0.06 0.017,-0.025 0.037,-0.036 0.02,-0.014 0.04,-0.02 0.022,-0.006 0.036,-0.006 0.048,0 0.079,0.03 0.03,0.024 0.03,0.07 0,0.05 -0.016,0.18 -0.017,0.127 -0.045,0.3 -0.028,0.17 -0.065,0.36 -0.034,0.192 -0.068,0.37 -0.034,0.178 -0.065,0.324 -0.03,0.147 -0.05,0.223 -0.017,0.065 -0.051,0.1 -0.034,0.03 -0.1,0.03 -0.067,0 -0.115,-0.06 -0.045,-0.06 -0.101,-0.19 -0.054,-0.13 -0.13,-0.33 -0.076,-0.204 -0.198,-0.487 -0.124,0.283 -0.203,0.486 -0.076,0.203 -0.133,0.333 -0.053,0.13 -0.101,0.192 -0.048,0.06 -0.113,0.06 -0.113,0 -0.15,-0.13 Q 5.121,66.799 5.09,66.656 5.059,66.508 5.025,66.33 L 4.96,65.964 Q 4.926,65.772 4.9,65.602 4.875,65.433 4.858,65.306 q -0.014,-0.13 -0.014,-0.18 0,-0.049 0.03,-0.08 0.032,-0.03 0.089,-0.03 0.04,0 0.076,0.025 0.037,0.022 0.054,0.096 0.067,0.324 0.118,0.68 0.054,0.356 0.113,0.706 0.087,-0.207 0.175,-0.438 0.087,-0.23 0.217,-0.52 z M 7.13,66.83 Q 7.124,66.73 7.12,66.62 L 7.118,66.382 Q 7.115,66.255 7.115,66.108 v -0.333 q 0,-0.2 0.003,-0.342 0.003,-0.143 0.017,-0.234 0.014,-0.09 0.043,-0.132 0.03,-0.043 0.08,-0.043 0.027,0 0.049,0.006 0.023,0.006 0.04,0.026 0.017,0.017 0.028,0.053 0.014,0.034 0.017,0.09 l 0.009,0.181 0.005,0.158 q 0.003,0.076 0.003,0.161 v 0.43 q 0,0.115 -0.003,0.228 l -0.005,0.228 q -0.003,0.116 -0.01,0.243 -0.002,0.068 -0.013,0.104 -0.011,0.037 -0.028,0.057 -0.017,0.02 -0.04,0.022 -0.022,0.006 -0.05,0.006 -0.051,0 -0.088,-0.033 Q 7.135,66.947 7.13,66.831 Z m 1.764,0.043 Q 8.804,66.749 8.722,66.627 L 8.55,66.357 Q 8.46,66.21 8.34,66.032 8.225,65.852 8.06,65.612 v 0.38 q 0,0.167 -0.002,0.31 l -0.005,0.272 q -0.003,0.127 -0.01,0.254 -10e-4,0.067 -0.013,0.104 -0.008,0.037 -0.025,0.056 -0.017,0.02 -0.04,0.023 -0.02,0.006 -0.048,0.006 -0.05,0 -0.084,-0.034 -0.034,-0.037 -0.04,-0.152 -0.014,-0.31 -0.017,-0.62 v -0.647 q 0,-0.19 0.003,-0.297 0.006,-0.107 0.02,-0.16 0.017,-0.054 0.042,-0.068 0.028,-0.014 0.074,-0.014 0.045,0 0.118,0.07 0.073,0.068 0.16,0.18 0.088,0.114 0.187,0.26 0.102,0.147 0.2,0.302 0.1,0.156 0.19,0.308 l 0.169,0.277 Q 8.936,66.289 8.936,66.132 v -0.357 q 0,-0.223 0.003,-0.367 0.003,-0.146 0.014,-0.23 0.014,-0.086 0.042,-0.12 0.029,-0.034 0.08,-0.034 0.047,0 0.084,0.031 0.037,0.031 0.042,0.144 l 0.009,0.181 0.006,0.158 q 0.002,0.076 0.002,0.16 v 0.43 q 0,0.116 -0.002,0.23 L 9.21,66.585 q -0.003,0.116 -0.01,0.243 -10e-4,0.068 -0.013,0.104 -0.008,0.037 -0.025,0.057 -0.017,0.02 -0.04,0.022 -0.02,0.006 -0.048,0.006 -0.047,0 -0.081,-0.028 -0.034,-0.028 -0.1,-0.116 z m 1.523,-1.866 q 0.094,0 0.192,0.017 0.1,0.017 0.18,0.051 0.083,0.031 0.136,0.08 0.054,0.047 0.054,0.11 0,0.064 -0.034,0.098 -0.034,0.034 -0.084,0.034 -0.048,0 -0.09,-0.017 L 10.68,65.343 q -0.05,-0.02 -0.121,-0.037 -0.071,-0.016 -0.178,-0.016 -0.12,0 -0.223,0.056 -0.102,0.054 -0.18,0.152 -0.08,0.096 -0.125,0.23 -0.045,0.132 -0.045,0.287 0,0.19 0.048,0.327 0.048,0.138 0.124,0.23 0.079,0.09 0.175,0.134 0.099,0.043 0.198,0.043 0.16,0 0.254,-0.046 0.095,-0.048 0.152,-0.12 0.003,-0.06 0.003,-0.142 v -0.178 q 0,-0.037 -0.006,-0.056 -0.005,-0.023 -0.028,-0.034 -0.023,-0.01 -0.068,-0.014 -0.042,-0.003 -0.116,-0.003 -0.09,0 -0.146,-0.023 -0.057,-0.025 -0.057,-0.104 0,-0.057 0.028,-0.09 0.032,-0.037 0.125,-0.043 h 0.053 q 0.04,-0.003 0.082,-0.003 h 0.155 q 0.085,0 0.136,0.017 0.05,0.014 0.09,0.068 0.02,0.028 0.023,0.1 0.005,0.07 0.005,0.162 v 0.728 q 0,0.077 -0.042,0.113 -0.04,0.037 -0.093,0.037 -0.065,0 -0.107,-0.034 -0.04,-0.03 -0.04,-0.102 v -0.11 q -0.073,0.085 -0.175,0.122 -0.1,0.036 -0.251,0.036 -0.155,0 -0.305,-0.062 Q 9.875,66.906 9.76,66.785 9.644,66.661 9.57,66.477 9.5,66.291 9.5,66.047 q 0,-0.247 0.07,-0.439 0.074,-0.192 0.198,-0.324 0.124,-0.136 0.29,-0.207 0.168,-0.07 0.359,-0.07 z m 1.899,1.823 q -0.005,-0.1 -0.008,-0.21 0,-0.11 -0.003,-0.238 -0.003,-0.127 -0.003,-0.274 v -0.686 l -0.17,0.088 q -0.07,0.045 -0.112,0.053 -0.04,0.008 -0.088,0.008 -0.042,0 -0.076,-0.036 -0.03,-0.037 -0.03,-0.088 0,-0.05 0.033,-0.087 0.037,-0.04 0.085,-0.07 0.062,-0.043 0.132,-0.086 0.074,-0.042 0.14,-0.076 0.069,-0.037 0.126,-0.056 0.059,-0.023 0.098,-0.023 0.02,0 0.04,0.006 0.022,0.006 0.04,0.023 0.02,0.017 0.03,0.053 0.014,0.034 0.017,0.093 l 0.009,0.178 0.005,0.15 q 0.003,0.07 0.003,0.15 v 0.425 q 0,0.116 -0.003,0.23 l -0.005,0.228 q -0.003,0.115 -0.01,0.242 -0.002,0.068 -0.013,0.105 -0.008,0.037 -0.025,0.056 -0.017,0.02 -0.04,0.023 -0.02,0.006 -0.048,0.006 -0.05,0 -0.084,-0.034 -0.034,-0.037 -0.04,-0.152 z"
       word-spacing="0"
       letter-spacing="0"
       font-size="2.822"
       font-weight="400"
       aria-label="SWING 1"
       id="path24"
       inkscape:connector-curvature="0" />
  </g>
  <rect
     rx="0.98999995"
     ry="0.98999995"
     y="99.403618"
     x="2.307848"
     height="3.8950534"
     width="15.687734"
     id="rect28"
     style="fill:#333333;stroke:#8c8c8c;stroke-width:0.132;paint-order:stroke markers fill" />
  <g
     style="line-height:1.25;stroke-width:0.78124732;fill:#dcdcdc;fill-opacity:1"
     id="g32"
     transform="matrix(1.2800044,0,0,1.2800044,0,-0.09623859)">
    <path
       style="font-weight:400;font-size:2.82200003px;font-family:Sniglet;-inkscape-font-specification:'Sniglet, Normal';font-variant-ligatures:normal;font-variant-caps:normal;font-variant-numeric:normal;font-feature-settings:normal;text-align:start;letter-spacing:0;word-spacing:0;fill:#dcdcdc;stroke-width:0.78124732;fill-opacity:1"
       d="m 3.649,78.243 q 0.079,0 0.18,0.014 0.105,0.01 0.195,0.045 0.09,0.03 0.153,0.085 0.062,0.05 0.062,0.127 0,0.045 -0.026,0.076 -0.025,0.03 -0.082,0.03 -0.042,0 -0.087,-0.016 -0.042,-0.017 -0.1,-0.034 -0.052,-0.02 -0.126,-0.036 -0.07,-0.017 -0.166,-0.017 -0.187,0 -0.277,0.067 -0.087,0.065 -0.087,0.18 0,0.08 0.04,0.134 0.039,0.053 0.104,0.093 0.067,0.036 0.15,0.062 0.084,0.025 0.17,0.048 0.1,0.025 0.196,0.062 0.099,0.037 0.175,0.096 0.076,0.06 0.12,0.15 0.049,0.09 0.049,0.228 0,0.144 -0.053,0.26 -0.054,0.113 -0.147,0.195 -0.093,0.079 -0.223,0.124 -0.13,0.042 -0.282,0.042 -0.085,0 -0.198,-0.017 -0.113,-0.014 -0.214,-0.05 -0.102,-0.04 -0.172,-0.102 -0.071,-0.065 -0.071,-0.158 0,-0.057 0.028,-0.09 0.03,-0.035 0.09,-0.035 0.049,0 0.08,0.02 0.03,0.017 0.053,0.04 0.085,0.073 0.192,0.098 0.107,0.026 0.22,0.026 0.065,0 0.136,-0.008 0.073,-0.011 0.132,-0.042 0.06,-0.031 0.1,-0.088 0.039,-0.06 0.039,-0.158 0,-0.09 -0.037,-0.147 -0.034,-0.06 -0.093,-0.1 Q 3.812,79.409 3.731,79.384 3.651,79.358 3.559,79.333 3.454,79.305 3.353,79.271 3.251,79.237 3.172,79.181 q -0.08,-0.06 -0.13,-0.147 -0.048,-0.09 -0.048,-0.23 0,-0.137 0.05,-0.242 0.052,-0.104 0.14,-0.175 0.087,-0.07 0.205,-0.107 0.122,-0.037 0.26,-0.037 z m 1.727,0.553 q 0.017,-0.04 0.05,-0.065 0.038,-0.025 0.077,-0.025 0.037,0 0.07,0.025 0.035,0.023 0.054,0.062 0.108,0.22 0.212,0.477 0.104,0.254 0.19,0.483 0.047,-0.35 0.104,-0.706 0.056,-0.355 0.127,-0.68 0.008,-0.037 0.025,-0.06 0.017,-0.025 0.037,-0.036 0.02,-0.014 0.04,-0.02 0.022,-0.006 0.036,-0.006 0.048,0 0.079,0.029 0.03,0.025 0.03,0.07 0,0.05 -0.016,0.18 -0.017,0.128 -0.045,0.3 -0.028,0.17 -0.065,0.36 -0.034,0.193 -0.068,0.37 -0.034,0.179 -0.065,0.325 -0.03,0.147 -0.05,0.223 -0.018,0.065 -0.051,0.1 -0.034,0.03 -0.1,0.03 -0.067,0 -0.115,-0.06 Q 5.887,80.111 5.831,79.981 5.777,79.851 5.701,79.651 5.625,79.448 5.503,79.165 5.379,79.448 5.3,79.651 q -0.076,0.203 -0.133,0.333 -0.053,0.13 -0.101,0.192 -0.048,0.059 -0.113,0.059 -0.113,0 -0.15,-0.13 Q 4.781,80.029 4.75,79.885 4.719,79.738 4.685,79.56 L 4.62,79.194 Q 4.586,79.002 4.56,78.832 L 4.518,78.536 q -0.014,-0.13 -0.014,-0.18 0,-0.05 0.03,-0.08 0.032,-0.03 0.089,-0.03 0.04,0 0.076,0.025 0.037,0.022 0.053,0.096 0.068,0.324 0.119,0.68 0.054,0.356 0.113,0.706 0.087,-0.207 0.175,-0.438 0.087,-0.231 0.217,-0.52 z m 1.413,1.265 q -0.005,-0.102 -0.008,-0.212 0,-0.11 -0.003,-0.237 -0.003,-0.127 -0.003,-0.274 v -0.333 q 0,-0.2 0.003,-0.342 0.003,-0.143 0.017,-0.234 0.014,-0.09 0.042,-0.132 0.03,-0.043 0.082,-0.043 0.026,0 0.048,0.006 0.023,0.006 0.04,0.026 0.017,0.017 0.028,0.053 0.014,0.034 0.017,0.09 l 0.008,0.18 0.006,0.159 q 0.003,0.076 0.003,0.16 v 0.43 q 0,0.116 -0.003,0.229 L 7.06,79.815 q -0.002,0.116 -0.008,0.243 -0.003,0.068 -0.014,0.104 -0.012,0.037 -0.028,0.057 -0.017,0.02 -0.04,0.022 -0.023,0.006 -0.05,0.006 -0.052,0 -0.088,-0.033 -0.037,-0.037 -0.043,-0.153 z m 1.765,0.042 Q 8.464,79.979 8.382,79.857 L 8.209,79.587 Q 8.119,79.44 8.001,79.262 7.885,79.082 7.721,78.842 v 0.38 q 0,0.167 -0.003,0.31 l -0.005,0.272 q -0.003,0.127 -0.01,0.254 -0.002,0.067 -0.013,0.104 -0.008,0.037 -0.025,0.056 -0.017,0.02 -0.04,0.023 -0.02,0.006 -0.048,0.006 -0.05,0 -0.084,-0.034 Q 7.459,80.176 7.453,80.061 7.439,79.751 7.436,79.44 v -0.646 q 0,-0.19 0.003,-0.297 0.006,-0.107 0.02,-0.16 0.017,-0.054 0.042,-0.068 0.028,-0.014 0.073,-0.014 0.046,0 0.119,0.07 0.073,0.068 0.16,0.18 0.088,0.114 0.187,0.26 0.102,0.147 0.2,0.302 0.1,0.156 0.19,0.308 l 0.169,0.277 Q 8.596,79.519 8.596,79.361 v -0.356 q 0,-0.223 0.003,-0.367 0.003,-0.146 0.014,-0.231 0.014,-0.085 0.042,-0.12 0.029,-0.033 0.08,-0.033 0.047,0 0.084,0.03 0.037,0.032 0.042,0.145 l 0.009,0.18 0.005,0.159 q 0.003,0.076 0.003,0.16 v 0.43 q 0,0.116 -0.003,0.229 L 8.87,79.815 q -0.003,0.116 -0.01,0.243 -10e-4,0.068 -0.013,0.104 -0.008,0.037 -0.025,0.057 -0.017,0.02 -0.04,0.022 -0.02,0.006 -0.048,0.006 -0.048,0 -0.082,-0.028 -0.033,-0.028 -0.098,-0.116 z m 1.523,-1.866 q 0.093,0 0.192,0.017 0.099,0.017 0.18,0.05 0.083,0.032 0.136,0.08 0.054,0.048 0.054,0.11 0,0.065 -0.034,0.099 -0.034,0.034 -0.085,0.034 -0.048,0 -0.09,-0.017 l -0.09,-0.037 q -0.051,-0.02 -0.122,-0.037 -0.07,-0.016 -0.177,-0.016 -0.12,0 -0.223,0.056 -0.102,0.054 -0.181,0.152 -0.08,0.096 -0.124,0.229 -0.045,0.133 -0.045,0.288 0,0.189 0.048,0.327 0.048,0.138 0.124,0.229 0.079,0.09 0.175,0.135 0.099,0.043 0.197,0.043 0.16,0 0.254,-0.046 0.096,-0.048 0.153,-0.12 0.003,-0.06 0.003,-0.142 v -0.178 q 0,-0.037 -0.006,-0.056 -0.006,-0.023 -0.028,-0.034 -0.023,-0.011 -0.068,-0.014 -0.042,-0.003 -0.116,-0.003 -0.09,0 -0.146,-0.023 -0.057,-0.025 -0.057,-0.104 0,-0.057 0.028,-0.09 0.03,-0.037 0.125,-0.043 h 0.053 q 0.04,-0.003 0.082,-0.003 h 0.155 q 0.085,0 0.136,0.017 0.05,0.014 0.09,0.068 0.02,0.028 0.023,0.099 0.005,0.07 0.005,0.163 v 0.728 q 0,0.077 -0.042,0.113 -0.04,0.037 -0.093,0.037 -0.065,0 -0.108,-0.034 -0.04,-0.031 -0.04,-0.102 v -0.11 q -0.072,0.085 -0.174,0.122 -0.1,0.036 -0.251,0.036 -0.155,0 -0.305,-0.062 Q 9.535,80.136 9.42,80.015 9.304,79.891 9.23,79.707 9.16,79.521 9.16,79.276 q 0,-0.246 0.07,-0.438 0.074,-0.192 0.198,-0.324 0.124,-0.136 0.29,-0.207 0.167,-0.07 0.36,-0.07 z m 2.108,0.294 q -0.102,0 -0.17,0.022 -0.067,0.02 -0.112,0.054 -0.046,0.034 -0.074,0.07 l -0.05,0.07 q -0.023,0.035 -0.051,0.058 -0.026,0.02 -0.065,0.02 -0.068,0 -0.096,-0.035 -0.026,-0.036 -0.026,-0.096 0,-0.124 0.093,-0.23 0.029,-0.035 0.077,-0.071 0.05,-0.04 0.118,-0.071 0.07,-0.031 0.16,-0.05 0.094,-0.023 0.21,-0.023 0.308,0 0.477,0.15 0.17,0.149 0.17,0.42 0,0.053 -0.012,0.118 -0.01,0.065 -0.037,0.136 -0.025,0.07 -0.073,0.146 -0.048,0.077 -0.127,0.156 -0.07,0.07 -0.15,0.13 l -0.163,0.118 -0.178,0.127 q -0.09,0.065 -0.184,0.15 0.09,0.048 0.195,0.062 0.104,0.014 0.234,0.014 0.122,0 0.195,-0.006 0.073,-0.006 0.119,-0.014 l 0.07,-0.014 q 0.026,-0.006 0.054,-0.006 0.104,0 0.104,0.096 0,0.084 -0.07,0.13 -0.07,0.044 -0.17,0.067 -0.098,0.02 -0.203,0.023 -0.104,0.006 -0.172,0.006 -0.037,0 -0.104,-0.006 -0.065,-0.003 -0.142,-0.014 -0.076,-0.012 -0.155,-0.032 -0.076,-0.022 -0.14,-0.056 -0.063,-0.037 -0.103,-0.087 -0.04,-0.054 -0.04,-0.127 0,-0.1 0.07,-0.187 0.075,-0.09 0.182,-0.175 0.107,-0.087 0.232,-0.172 0.124,-0.087 0.23,-0.178 0.108,-0.093 0.179,-0.192 0.073,-0.098 0.073,-0.214 0,-0.144 -0.1,-0.214 -0.095,-0.074 -0.275,-0.074 z"
       word-spacing="0"
       letter-spacing="0"
       font-size="2.822"
       font-weight="400"
       aria-label="SWING 2"
       id="path30"
       inkscape:connector-curvature="0" />
  </g>
  <g
     style="line-height:1.25;stroke-width:0.78124732;fill:#232323;fill-opacity:1"
     id="g36"
     transform="matrix(1.2800044,0,0,1.2800044,0,-0.09623859)">
    <path
       style="font-weight:400;font-size:3.88100004px;font-family:Sniglet;-inkscape-font-specification:'Sniglet, Normal';font-variant-ligatures:normal;font-variant-caps:normal;font-variant-numeric:normal;font-feature-settings:normal;text-align:start;letter-spacing:0;word-spacing:0;stroke-width:0.78124732;fill:#232323;fill-opacity:1"
       d="m 3.957,5.947 q 0.128,0 0.256,0.024 0.132,0.019 0.236,0.066 0.105,0.042 0.17,0.108 0.07,0.062 0.07,0.148 0,0.089 -0.046,0.135 Q 4.597,6.475 4.527,6.475 4.461,6.475 4.411,6.455 4.361,6.432 4.294,6.405 4.232,6.378 4.143,6.359 4.053,6.335 3.906,6.335 3.759,6.335 3.623,6.413 3.491,6.487 3.39,6.623 3.293,6.754 3.235,6.937 3.177,7.119 3.177,7.333 q 0,0.263 0.066,0.454 0.07,0.19 0.178,0.314 0.109,0.12 0.245,0.182 0.14,0.058 0.279,0.058 0.167,0 0.28,-0.034 0.112,-0.035 0.19,-0.078 0.08,-0.043 0.14,-0.078 0.057,-0.035 0.112,-0.035 0.066,0 0.105,0.04 Q 4.81,8.19 4.81,8.283 4.81,8.361 4.748,8.443 4.69,8.52 4.574,8.586 4.461,8.648 4.302,8.691 4.142,8.73 3.945,8.73 3.728,8.73 3.51,8.644 3.297,8.559 3.126,8.392 2.959,8.222 2.855,7.969 2.75,7.713 2.75,7.375 2.75,7.038 2.843,6.774 2.94,6.51 3.103,6.328 3.27,6.141 3.487,6.044 3.707,5.947 3.957,5.947 Z m 1.585,1.665 v 0.221 q 0,0.093 -0.004,0.179 0,0.085 -0.004,0.17 l -0.007,0.19 q 0.267,-0.03 0.419,-0.05 l 0.236,-0.03 q 0.09,-0.013 0.136,-0.016 0.05,-0.004 0.117,-0.004 0.17,0 0.17,0.166 0,0.066 -0.07,0.113 Q 6.47,8.598 6.365,8.632 6.264,8.663 6.135,8.687 6.012,8.707 5.891,8.714 5.775,8.726 5.678,8.729 5.585,8.733 5.546,8.733 5.406,8.733 5.329,8.714 5.251,8.699 5.212,8.614 5.174,8.524 5.162,8.345 5.154,8.167 5.154,7.841 V 7.282 Q 5.154,7.038 5.158,6.844 5.162,6.65 5.162,6.498 5.166,6.347 5.174,6.223 5.181,6.063 5.228,6.017 q 0.046,-0.05 0.116,-0.05 0.04,0 0.066,0.008 0.03,0.004 0.055,0.03 0.023,0.028 0.035,0.078 0.015,0.05 0.019,0.144 0.015,0.341 0.02,0.675 0.003,0.334 0.003,0.71 z m 1.39,0.842 Q 6.924,8.314 6.92,8.163 6.92,8.012 6.916,7.837 6.913,7.662 6.913,7.461 V 7.003 q 0,-0.276 0.003,-0.47 Q 6.92,6.335 6.936,6.211 6.956,6.087 6.994,6.029 7.033,5.971 7.103,5.971 q 0.066,0 0.116,0.042 0.05,0.043 0.058,0.198 0.008,0.14 0.012,0.248 l 0.008,0.218 q 0.004,0.105 0.004,0.221 v 0.458 l 0.83,-0.95 Q 8.294,6.219 8.383,6.161 8.473,6.099 8.539,6.099 q 0.077,0 0.112,0.038 0.039,0.04 0.039,0.097 0,0.024 -0.008,0.047 -0.008,0.023 -0.035,0.066 -0.023,0.039 -0.074,0.1 -0.05,0.06 -0.135,0.152 l -0.54,0.586 0.85,1.21 q 0.03,0.044 0.047,0.09 0.02,0.047 0.02,0.09 0,0.073 -0.044,0.12 -0.038,0.05 -0.14,0.05 -0.08,0 -0.147,-0.046 Q 8.422,8.656 8.368,8.57 L 7.63,7.48 7.297,7.845 7.289,8.14 Q 7.285,8.287 7.277,8.45 7.273,8.543 7.257,8.594 7.247,8.644 7.223,8.671 7.2,8.699 7.169,8.702 7.142,8.71 7.103,8.71 7.033,8.71 6.986,8.664 6.94,8.614 6.932,8.454 Z m 3.49,-0.729 Q 10.242,7.733 10.01,7.74 9.778,7.744 9.46,7.744 9.328,7.744 9.234,7.74 9.141,7.736 9.083,7.72 9.025,7.701 8.998,7.662 8.97,7.624 8.97,7.554 8.97,7.519 8.978,7.492 8.986,7.461 9.013,7.437 9.04,7.414 9.087,7.399 9.137,7.379 9.215,7.371 l 0.1,-0.008 Q 9.362,7.359 9.405,7.359 9.448,7.355 9.495,7.355 h 0.116 q 0.21,0 0.403,0.004 0.194,0 0.404,0.012 0.093,0.008 0.144,0.023 0.05,0.012 0.077,0.035 0.027,0.023 0.03,0.054 0.009,0.031 0.009,0.07 0,0.07 -0.05,0.117 -0.047,0.046 -0.206,0.054 z M 11.898,7.674 11.32,8.57 q -0.054,0.086 -0.12,0.129 -0.062,0.046 -0.144,0.046 -0.1,0 -0.143,-0.05 -0.04,-0.047 -0.04,-0.12 0,-0.043 0.016,-0.09 0.02,-0.046 0.05,-0.089 L 11.662,7.364 10.94,6.331 Q 10.909,6.289 10.89,6.242 10.874,6.196 10.874,6.153 q 0,-0.074 0.039,-0.12 0.042,-0.05 0.143,-0.05 0.082,0 0.144,0.046 0.066,0.042 0.12,0.128 l 0.578,0.896 0.578,-0.896 q 0.055,-0.086 0.117,-0.128 0.066,-0.047 0.147,-0.047 0.1,0 0.14,0.05 0.043,0.047 0.043,0.121 0,0.043 -0.02,0.09 -0.015,0.046 -0.046,0.088 l -0.722,1.033 0.722,1.032 q 0.03,0.043 0.046,0.09 0.02,0.046 0.02,0.088 0,0.074 -0.043,0.12 -0.04,0.051 -0.14,0.051 -0.081,0 -0.147,-0.046 Q 12.531,8.656 12.476,8.57 Z"
       word-spacing="0"
       letter-spacing="0"
       font-size="3.881"
       font-weight="400"
       aria-label="CLK-X"
       id="path34"
       inkscape:connector-curvature="0" />
  </g>
  <rect
     rx="0.98999995"
     ry="0.98999995"
     y="31.669628"
     x="4.5427356"
     height="3.8950534"
     width="11.196198"
     id="rect38"
     style="fill:#333333;stroke:#8c8c8c;stroke-width:0.132;paint-order:stroke markers fill" />
  <g
     style="line-height:1.25;stroke-width:0.78124732;fill:#dcdcdc;fill-opacity:1"
     id="g42"
     transform="matrix(1.2800044,0,0,1.2800044,0,-0.09623859)">
    <path
       style="font-weight:400;font-size:2.82200003px;font-family:Sniglet;-inkscape-font-specification:'Sniglet, Normal';font-variant-ligatures:normal;font-variant-caps:normal;font-variant-numeric:normal;font-feature-settings:normal;text-align:start;letter-spacing:0;word-spacing:0;fill:#dcdcdc;stroke-width:0.78124732;fill-opacity:1"
       d="m 5.725,27.14 q 0,0.068 -0.014,0.105 Q 5.7,27.282 5.681,27.301 5.663,27.321 5.638,27.324 5.615,27.33 5.593,27.33 5.516,27.33 5.491,27.296 5.468,27.262 5.46,27.144 5.454,27.082 5.45,26.964 L 5.446,26.681 q 0,-0.164 -0.003,-0.361 v -0.418 q 0,-0.104 0.025,-0.212 0.026,-0.107 0.096,-0.194 0.074,-0.088 0.2,-0.142 0.13,-0.053 0.337,-0.053 0.144,0 0.273,0.03 0.13,0.032 0.229,0.108 0.099,0.076 0.158,0.203 0.06,0.127 0.06,0.316 0,0.198 -0.066,0.328 -0.065,0.13 -0.183,0.206 -0.12,0.076 -0.282,0.107 -0.164,0.03 -0.36,0.03 H 5.835 q -0.048,0 -0.107,-0.005 z m 0.813,-1.188 q 0,-0.19 -0.107,-0.285 -0.105,-0.096 -0.35,-0.096 -0.093,0 -0.161,0.017 -0.065,0.014 -0.107,0.054 -0.043,0.037 -0.065,0.102 -0.02,0.064 -0.02,0.163 v 0.22 q 0,0.122 0.003,0.229 0.065,0.003 0.144,0.003 h 0.152 q 0.085,0 0.175,-0.011 0.093,-0.012 0.167,-0.051 0.073,-0.042 0.12,-0.122 0.049,-0.081 0.049,-0.222 z M 7.82,25.879 q 0.017,-0.04 0.05,-0.065 0.038,-0.025 0.077,-0.025 0.037,0 0.07,0.025 0.035,0.023 0.054,0.062 0.108,0.22 0.212,0.477 0.105,0.254 0.19,0.483 0.047,-0.35 0.104,-0.706 0.056,-0.355 0.127,-0.68 0.008,-0.037 0.025,-0.06 0.017,-0.025 0.037,-0.036 0.02,-0.014 0.04,-0.02 0.022,-0.006 0.036,-0.006 0.048,0 0.079,0.029 0.03,0.025 0.03,0.07 0,0.05 -0.016,0.18 -0.017,0.128 -0.045,0.3 -0.028,0.17 -0.065,0.36 -0.034,0.193 -0.068,0.37 -0.034,0.179 -0.065,0.325 -0.03,0.147 -0.05,0.223 -0.017,0.065 -0.051,0.1 -0.034,0.03 -0.1,0.03 -0.067,0 -0.115,-0.06 -0.045,-0.061 -0.101,-0.191 -0.054,-0.13 -0.13,-0.33 -0.076,-0.203 -0.198,-0.486 -0.124,0.283 -0.203,0.486 -0.076,0.203 -0.133,0.333 -0.053,0.13 -0.101,0.192 -0.048,0.059 -0.113,0.059 -0.113,0 -0.15,-0.13 Q 7.225,27.112 7.194,26.968 7.163,26.821 7.129,26.643 L 7.064,26.277 Q 7.03,26.085 7.004,25.915 L 6.962,25.619 q -0.014,-0.13 -0.014,-0.18 0,-0.05 0.03,-0.08 0.032,-0.03 0.089,-0.03 0.04,0 0.076,0.025 0.037,0.022 0.054,0.096 0.067,0.324 0.118,0.68 0.054,0.356 0.113,0.706 0.088,-0.207 0.175,-0.438 0.087,-0.231 0.217,-0.52 z m 2.339,1.265 q -0.005,-0.102 -0.008,-0.212 0,-0.11 -0.003,-0.237 -0.003,-0.127 -0.003,-0.274 v -0.686 l -0.17,0.088 q -0.07,0.045 -0.112,0.053 -0.04,0.008 -0.088,0.008 -0.042,0 -0.076,-0.036 -0.03,-0.037 -0.03,-0.088 0,-0.05 0.033,-0.087 0.037,-0.04 0.085,-0.071 0.062,-0.042 0.132,-0.085 0.074,-0.042 0.14,-0.076 0.069,-0.037 0.126,-0.056 0.059,-0.023 0.098,-0.023 0.02,0 0.04,0.006 0.023,0.006 0.04,0.023 0.02,0.017 0.03,0.053 0.015,0.034 0.017,0.093 l 0.009,0.178 0.006,0.15 q 0.002,0.07 0.002,0.15 v 0.425 q 0,0.116 -0.002,0.23 l -0.006,0.228 q -0.003,0.115 -0.01,0.242 -0.001,0.068 -0.013,0.105 -0.008,0.037 -0.025,0.056 -0.017,0.02 -0.04,0.023 -0.02,0.006 -0.048,0.006 -0.05,0 -0.084,-0.034 -0.034,-0.037 -0.04,-0.152 z"
       word-spacing="0"
       letter-spacing="0"
       font-size="2.822"
       font-weight="400"
       aria-label="PW 1"
       id="path40"
       inkscape:connector-curvature="0" />
  </g>
  <g
     style="line-height:1.25;stroke-width:0.78124732;fill:#dcdcdc;fill-opacity:1"
     id="g46"
     transform="matrix(1.2800044,0,0,1.2800044,0,-0.09623859)">
    <path
       d="m 6.505,13.911 q 0,0.068 -0.013,0.105 Q 6.48,14.053 6.46,14.072 6.444,14.092 6.418,14.095 6.396,14.1 6.373,14.1 6.297,14.1 6.271,14.067 6.249,14.033 6.241,13.914 6.235,13.852 6.231,13.734 L 6.226,13.451 q 0,-0.163 -0.003,-0.36 v -0.419 q 0,-0.104 0.026,-0.211 0.025,-0.108 0.096,-0.195 0.073,-0.087 0.2,-0.141 0.13,-0.054 0.336,-0.054 0.144,0 0.274,0.031 0.13,0.031 0.228,0.108 0.1,0.076 0.158,0.203 0.06,0.127 0.06,0.316 0,0.197 -0.065,0.327 -0.065,0.13 -0.184,0.206 -0.118,0.076 -0.282,0.107 -0.164,0.032 -0.358,0.032 H 6.616 q -0.048,0 -0.108,-0.006 z m 0.813,-1.188 q 0,-0.189 -0.107,-0.285 -0.104,-0.096 -0.35,-0.096 -0.093,0 -0.16,0.017 -0.066,0.014 -0.108,0.054 -0.042,0.036 -0.065,0.101 -0.02,0.065 -0.02,0.164 v 0.22 q 0,0.122 0.003,0.229 0.065,0.003 0.144,0.003 h 0.153 q 0.084,0 0.175,-0.012 0.093,-0.011 0.166,-0.05 0.073,-0.043 0.12,-0.122 0.049,-0.082 0.049,-0.223 z M 8.6,12.65 q 0.017,-0.04 0.05,-0.065 0.037,-0.025 0.077,-0.025 0.036,0 0.07,0.025 0.034,0.023 0.054,0.062 0.107,0.22 0.212,0.477 0.104,0.254 0.189,0.483 0.048,-0.35 0.104,-0.706 0.057,-0.356 0.127,-0.68 0.009,-0.037 0.025,-0.06 0.017,-0.025 0.037,-0.036 0.02,-0.014 0.04,-0.02 0.022,-0.005 0.036,-0.005 0.048,0 0.08,0.028 0.03,0.025 0.03,0.07 0,0.051 -0.016,0.181 -0.017,0.127 -0.046,0.3 -0.028,0.168 -0.065,0.36 -0.033,0.192 -0.067,0.37 -0.034,0.178 -0.065,0.325 -0.031,0.146 -0.051,0.223 -0.017,0.065 -0.05,0.098 -0.035,0.031 -0.1,0.031 -0.067,0 -0.115,-0.059 Q 9.111,13.965 9.054,13.835 9.001,13.705 8.924,13.505 8.848,13.302 8.727,13.02 8.603,13.302 8.524,13.505 8.447,13.708 8.391,13.838 8.337,13.968 8.289,14.03 8.241,14.09 8.176,14.09 8.064,14.09 8.026,13.96 8.004,13.883 7.973,13.74 L 7.908,13.415 Q 7.878,13.237 7.843,13.048 7.81,12.856 7.783,12.687 L 7.742,12.39 q -0.014,-0.13 -0.014,-0.18 0,-0.048 0.03,-0.08 0.032,-0.03 0.088,-0.03 0.04,0 0.076,0.025 0.037,0.023 0.054,0.096 0.068,0.324 0.119,0.68 0.053,0.356 0.112,0.706 0.088,-0.206 0.175,-0.438 0.088,-0.231 0.218,-0.52 z"
       style="font-weight:400;font-size:2.82200003px;font-family:Sniglet;-inkscape-font-specification:'Sniglet, Normal';font-variant-ligatures:normal;font-variant-caps:normal;font-variant-numeric:normal;font-feature-settings:normal;text-align:start;letter-spacing:0;word-spacing:0;fill:#dcdcdc;stroke-width:0.78124732;fill-opacity:1"
       aria-label="PW"
       font-weight="400"
       font-size="2.822"
       letter-spacing="0"
       word-spacing="0"
       id="path44"
       inkscape:connector-curvature="0" />
  </g>
</svg>
