<?xml version="1.0" encoding="UTF-8" standalone="no"?>
<svg
   width="50.799999mm"
   height="128.5mm"
   viewBox="0 0 50.800639 128.50044"
   version="1.1"
   id="svg126"
   sodipodi:docname="FoundryExpander.svg"
   inkscape:version="1.1 (c68e22c387, 2021-05-23)"
   xmlns:inkscape="http://www.inkscape.org/namespaces/inkscape"
   xmlns:sodipodi="http://sodipodi.sourceforge.net/DTD/sodipodi-0.dtd"
   xmlns="http://www.w3.org/2000/svg"
   xmlns:svg="http://www.w3.org/2000/svg"
   xmlns:rdf="http://www.w3.org/1999/02/22-rdf-syntax-ns#"
   xmlns:cc="http://creativecommons.org/ns#"
   xmlns:dc="http://purl.org/dc/elements/1.1/">
  <metadata
     id="metadata132">
    <rdf:RDF>
      <cc:Work
         rdf:about="">
        <dc:format>image/svg+xml</dc:format>
        <dc:type
           rdf:resource="http://purl.org/dc/dcmitype/StillImage" />
        <dc:title />
      </cc:Work>
    </rdf:RDF>
  </metadata>
  <defs
     id="defs130" />
  <sodipodi:namedview
     pagecolor="#ffffff"
     bordercolor="#666666"
     borderopacity="1"
     objecttolerance="10"
     gridtolerance="10"
     guidetolerance="10"
     inkscape:pageopacity="0"
     inkscape:pageshadow="2"
     inkscape:window-width="1920"
     inkscape:window-height="1057"
     id="namedview128"
     showgrid="false"
     inkscape:document-units="mm"
     units="mm"
     inkscape:zoom="2.6685441"
     inkscape:cx="192.80176"
     inkscape:cy="210.7891"
     inkscape:window-x="-8"
     inkscape:window-y="1072"
     inkscape:window-maximized="1"
     inkscape:current-layer="svg126"
     inkscape:pagecheckerboard="0" />
  <g
     style="line-height:1.25;stroke-width:0.78125;fill:#232323;fill-opacity:1"
     id="g6"
     transform="matrix(1.28,0,0,1.28,0,-0.09666053)">
    <path
       word-spacing="0"
       letter-spacing="0"
       font-weight="400"
       aria-label="♫"
       font-size="3.528"
       style="font-weight:400;font-size:3.52800012px;font-family:Arial;-inkscape-font-specification:'Arial, Normal';font-variant-ligatures:normal;font-variant-caps:normal;font-variant-numeric:normal;font-feature-settings:normal;text-align:start;letter-spacing:0;word-spacing:0;fill:#232323;stroke-width:0.78125;fill-opacity:1"
       d="m 20.505,97.252 -1.63,0.115 v -2.06 q 0,-0.23 0.065,-0.333 0.064,-0.104 0.22,-0.147 0.153,-0.043 0.348,-0.002 0.223,0.047 0.356,0.19 0.133,0.146 0.133,0.33 0,0.186 -0.158,0.286 -0.157,0.103 -0.407,0.05 -0.082,-0.018 -0.144,-0.044 -0.063,-0.026 -0.205,-0.11 v 1.345 l 1.22,-0.085 v -1.554 q 0,-0.224 0.065,-0.337 0.066,-0.11 0.225,-0.15 0.16,-0.041 0.35,-10e-4 0.222,0.047 0.353,0.19 0.13,0.14 0.13,0.325 0,0.195 -0.157,0.294 -0.155,0.1 -0.407,0.047 -0.16,-0.034 -0.357,-0.16 z"
       id="path4"
       inkscape:connector-curvature="0" />
  </g>
  <g
     style="line-height:1.25;-inkscape-font-specification:'Sniglet, Normal';font-variant-ligatures:normal;font-variant-caps:normal;font-variant-numeric:normal;font-feature-settings:normal;text-align:start;stroke-width:0.78125;fill:#232323;fill-opacity:1"
     id="g10"
     transform="matrix(1.28,0,0,1.28,0,-0.09666053)">
    <path
       d="M 8.7,70.918 8.639,70.763 q -0.03,-0.09 -0.067,-0.19 l -0.178,0.006 h -0.41 q -0.098,0 -0.18,-0.003 l -0.065,0.187 q -0.03,0.087 -0.06,0.155 -0.056,0.144 -0.163,0.144 -0.04,0 -0.076,-0.026 -0.034,-0.025 -0.034,-0.073 0,-0.048 0.017,-0.124 0.017,-0.08 0.042,-0.167 l 0.06,-0.183 q 0.03,-0.096 0.059,-0.178 0.028,-0.09 0.079,-0.228 l 0.113,-0.294 0.118,-0.3 Q 7.954,69.34 8.002,69.23 8.012,69.202 8.03,69.168 8.047,69.131 8.07,69.1 q 0.025,-0.03 0.053,-0.053 0.03,-0.023 0.068,-0.023 0.036,0 0.067,0.026 0.03,0.022 0.054,0.056 0.025,0.034 0.042,0.07 0.02,0.037 0.03,0.066 0.047,0.112 0.103,0.26 0.06,0.146 0.116,0.295 0.059,0.15 0.11,0.286 0.05,0.135 0.082,0.228 0.025,0.082 0.056,0.175 0.034,0.093 0.062,0.184 0.028,0.09 0.045,0.169 0.02,0.076 0.02,0.124 0,0.048 -0.037,0.073 -0.034,0.026 -0.073,0.026 -0.05,0 -0.093,-0.034 -0.043,-0.037 -0.074,-0.11 z m -0.5,-0.62 q 0.07,0 0.137,0.002 0.068,0 0.136,0.003 L 8.405,70.105 8.34,69.916 8.287,69.749 8.247,69.611 Q 8.236,69.575 8.222,69.551 8.208,69.529 8.185,69.529 q -0.023,0 -0.037,0.026 -0.014,0.022 -0.025,0.059 -0.034,0.116 -0.096,0.302 L 7.9,70.303 Q 7.976,70.3 8.052,70.3 8.129,70.297 8.202,70.297 Z"
       style="font-weight:400;font-size:2.82200003px;font-family:Sniglet;-inkscape-font-specification:'Sniglet, Normal';font-variant-ligatures:normal;font-variant-caps:normal;font-variant-numeric:normal;font-feature-settings:normal;text-align:start;letter-spacing:0;word-spacing:0;stroke-width:0.78125;fill:#232323;fill-opacity:1"
       aria-label="A"
       font-weight="400"
       font-size="2.822"
       letter-spacing="0"
       word-spacing="0"
       id="path8"
       inkscape:connector-curvature="0" />
  </g>
  <g
     style="line-height:1.25;-inkscape-font-specification:'Sniglet, Normal';font-variant-ligatures:normal;font-variant-caps:normal;font-variant-numeric:normal;font-feature-settings:normal;text-align:start;stroke-width:0.78125;fill:#232323;fill-opacity:1"
     id="g14"
     transform="matrix(1.28,0,0,1.28,0,-0.09666053)">
    <path
       d="m 8.036,84.058 q -0.16,0 -0.254,-0.026 Q 7.686,84.007 7.632,83.962 7.582,83.914 7.562,83.846 7.544,83.778 7.536,83.694 7.526,83.594 7.522,83.434 7.519,83.27 7.519,83.095 v -0.178 q 0.003,-0.096 0.003,-0.186 l 0.005,-0.172 q 0.003,-0.079 0.009,-0.135 0.008,-0.088 0.028,-0.159 0.02,-0.07 0.074,-0.12 0.056,-0.052 0.155,-0.077 0.1,-0.028 0.268,-0.028 0.378,0 0.564,0.14 0.19,0.14 0.19,0.396 0,0.133 -0.06,0.245 -0.056,0.113 -0.197,0.17 0.079,0.014 0.144,0.06 0.064,0.044 0.11,0.11 0.048,0.061 0.07,0.14 0.026,0.076 0.026,0.155 0,0.102 -0.043,0.21 -0.042,0.104 -0.144,0.191 -0.101,0.088 -0.27,0.144 -0.167,0.057 -0.415,0.057 z m 0.59,-0.61 q 0,-0.102 -0.05,-0.164 Q 8.532,83.222 8.459,83.191 8.385,83.157 8.295,83.146 8.205,83.135 8.115,83.135 H 7.968 q -0.076,0 -0.141,0.003 l -0.006,0.12 -0.006,0.12 v 0.152 q 0,0.076 0.012,0.127 0.01,0.05 0.042,0.082 0.03,0.03 0.088,0.045 0.059,0.011 0.15,0.011 0.248,0 0.383,-0.087 0.135,-0.088 0.135,-0.26 z m -0.523,-1.14 q -0.093,0 -0.152,0.017 -0.057,0.014 -0.088,0.04 -0.028,0.025 -0.04,0.061 -0.008,0.037 -0.008,0.08 V 82.9 q 0.04,0.003 0.082,0.003 h 0.085 q 0.1,0 0.197,-0.014 0.1,-0.014 0.178,-0.048 0.08,-0.034 0.127,-0.093 0.048,-0.06 0.048,-0.152 0,-0.127 -0.104,-0.206 -0.102,-0.082 -0.325,-0.082 z"
       style="font-weight:400;font-size:2.82200003px;font-family:Sniglet;-inkscape-font-specification:'Sniglet, Normal';font-variant-ligatures:normal;font-variant-caps:normal;font-variant-numeric:normal;font-feature-settings:normal;text-align:start;letter-spacing:0;word-spacing:0;stroke-width:0.78125;fill:#232323;fill-opacity:1"
       aria-label="B"
       font-weight="400"
       font-size="2.822"
       letter-spacing="0"
       word-spacing="0"
       id="path12"
       inkscape:connector-curvature="0" />
  </g>
  <g
     style="line-height:1.25;-inkscape-font-specification:'Sniglet, Normal';font-variant-ligatures:normal;font-variant-caps:normal;font-variant-numeric:normal;font-feature-settings:normal;text-align:start;stroke-width:0.78125;fill:#232323;fill-opacity:1"
     id="g18"
     transform="matrix(1.28,0,0,1.28,0,-0.09666053)">
    <path
       d="m 19.929,69.038 q 0.093,0 0.186,0.017 0.096,0.014 0.172,0.048 0.076,0.031 0.124,0.08 0.05,0.044 0.05,0.106 0,0.065 -0.033,0.1 -0.034,0.033 -0.085,0.033 -0.048,0 -0.084,-0.014 l -0.085,-0.037 q -0.045,-0.02 -0.11,-0.034 -0.065,-0.017 -0.172,-0.017 -0.107,0 -0.206,0.057 -0.096,0.054 -0.17,0.152 -0.07,0.096 -0.112,0.229 -0.043,0.133 -0.043,0.288 0,0.192 0.048,0.33 0.05,0.138 0.13,0.229 0.08,0.087 0.178,0.132 0.102,0.043 0.203,0.043 0.12,0 0.203,-0.026 0.082,-0.025 0.139,-0.056 0.059,-0.031 0.1,-0.057 0.044,-0.025 0.083,-0.025 0.048,0 0.076,0.028 0.028,0.025 0.028,0.093 0,0.057 -0.045,0.116 -0.042,0.056 -0.127,0.104 -0.082,0.046 -0.197,0.077 -0.116,0.028 -0.26,0.028 -0.158,0 -0.316,-0.062 -0.155,-0.062 -0.28,-0.184 -0.12,-0.124 -0.197,-0.307 -0.076,-0.187 -0.076,-0.432 0,-0.246 0.068,-0.438 0.07,-0.192 0.189,-0.324 0.12,-0.136 0.28,-0.206 0.16,-0.07 0.34,-0.07 z"
       style="font-weight:400;font-size:2.82200003px;font-family:Sniglet;-inkscape-font-specification:'Sniglet, Normal';font-variant-ligatures:normal;font-variant-caps:normal;font-variant-numeric:normal;font-feature-settings:normal;text-align:start;letter-spacing:0;word-spacing:0;stroke-width:0.78125;fill:#232323;fill-opacity:1"
       aria-label="C"
       font-weight="400"
       font-size="2.822"
       letter-spacing="0"
       word-spacing="0"
       id="path16"
       inkscape:connector-curvature="0" />
  </g>
  <g
     style="line-height:1.25;-inkscape-font-specification:'Sniglet, Normal';font-variant-ligatures:normal;font-variant-caps:normal;font-variant-numeric:normal;font-feature-settings:normal;text-align:start;stroke-width:0.78125;fill:#232323;fill-opacity:1"
     id="g22"
     transform="matrix(1.28,0,0,1.28,0,-0.09666053)">
    <path
       d="m 19.717,82.031 q 0.29,0 0.466,0.088 0.175,0.087 0.268,0.231 0.093,0.144 0.12,0.328 0.032,0.183 0.032,0.372 0,0.206 -0.054,0.39 -0.05,0.183 -0.16,0.321 -0.108,0.136 -0.277,0.218 -0.17,0.079 -0.404,0.079 -0.186,0 -0.3,-0.029 -0.11,-0.025 -0.171,-0.079 -0.06,-0.053 -0.08,-0.135 -0.02,-0.082 -0.02,-0.192 v -1.061 q 0,-0.122 0.02,-0.22 0.024,-0.1 0.086,-0.167 0.062,-0.07 0.175,-0.107 0.115,-0.037 0.299,-0.037 z m 0.01,1.744 q 0.176,0 0.289,-0.062 0.116,-0.065 0.184,-0.169 0.067,-0.104 0.093,-0.237 0.028,-0.133 0.028,-0.271 0,-0.127 -0.02,-0.254 -0.02,-0.13 -0.082,-0.234 -0.062,-0.105 -0.178,-0.17 -0.115,-0.065 -0.307,-0.065 -0.175,0 -0.243,0.051 -0.068,0.051 -0.068,0.155 V 83.6 q 0,0.088 0.062,0.133 0.065,0.042 0.243,0.042 z"
       style="font-weight:400;font-size:2.82200003px;font-family:Sniglet;-inkscape-font-specification:'Sniglet, Normal';font-variant-ligatures:normal;font-variant-caps:normal;font-variant-numeric:normal;font-feature-settings:normal;text-align:start;letter-spacing:0;word-spacing:0;stroke-width:0.78125;fill:#232323;fill-opacity:1"
       aria-label="D"
       font-weight="400"
       font-size="2.822"
       letter-spacing="0"
       word-spacing="0"
       id="path20"
       inkscape:connector-curvature="0" />
  </g>
  <g
     font-weight="400"
     font-size="2.822"
     letter-spacing="0"
     word-spacing="0"
     id="g32"
     style="font-weight:400;font-size:2.82200003px;font-family:Sniglet;letter-spacing:0;word-spacing:0;stroke-width:0.20703125;fill:#232323;fill-opacity:1"
     transform="matrix(1.28,0,0,1.28,0,-0.09666053)">
    <g
       style="line-height:1.25;stroke-width:0.20703125;fill:#232323;fill-opacity:1"
       id="g26">
      <path
         style="-inkscape-font-specification:'Sniglet, Normal';font-variant-ligatures:normal;font-variant-caps:normal;font-variant-numeric:normal;font-feature-settings:normal;text-align:start;stroke-width:0.20703125;fill:#232323;fill-opacity:1"
         d="m 12.994,73.99 q -0.006,-0.1 -0.008,-0.21 0,-0.11 -0.003,-0.239 -0.003,-0.127 -0.003,-0.274 v -0.333 q 0,-0.2 0.003,-0.34 0.003,-0.145 0.017,-0.235 0.014,-0.09 0.042,-0.133 0.03,-0.042 0.082,-0.042 0.026,0 0.048,0.005 0.023,0.006 0.04,0.026 0.017,0.017 0.028,0.053 0.014,0.034 0.017,0.09 0.006,0.102 0.008,0.181 l 0.006,0.158 q 0.003,0.076 0.003,0.161 v 0.43 q 0,0.115 -0.003,0.228 l -0.006,0.228 -0.008,0.243 q -0.003,0.068 -0.014,0.104 -0.011,0.037 -0.028,0.057 -0.017,0.02 -0.04,0.022 -0.022,0.006 -0.05,0.006 -0.051,0 -0.088,-0.034 Q 13,74.105 12.995,73.99 Z m 1.765,0.042 q -0.09,-0.124 -0.173,-0.245 l -0.172,-0.27 q -0.09,-0.148 -0.21,-0.326 -0.114,-0.18 -0.278,-0.42 v 0.38 q 0,0.167 -0.003,0.311 l -0.006,0.271 -0.008,0.254 q -0.003,0.068 -0.014,0.104 -0.008,0.037 -0.026,0.057 -0.016,0.02 -0.04,0.022 -0.02,0.006 -0.047,0.006 -0.05,0 -0.085,-0.034 -0.034,-0.037 -0.04,-0.152 -0.013,-0.31 -0.016,-0.62 v -0.647 q 0,-0.19 0.003,-0.297 0.006,-0.107 0.02,-0.16 0.016,-0.054 0.042,-0.068 0.028,-0.014 0.073,-0.014 0.045,0 0.119,0.07 0.073,0.068 0.16,0.18 0.088,0.114 0.187,0.26 0.102,0.147 0.2,0.302 0.1,0.156 0.19,0.308 l 0.169,0.277 q -0.003,-0.133 -0.003,-0.29 v -0.357 q 0,-0.223 0.003,-0.367 0.003,-0.146 0.014,-0.23 0.014,-0.086 0.042,-0.12 0.028,-0.033 0.08,-0.033 0.047,0 0.084,0.03 0.037,0.032 0.042,0.145 0.006,0.101 0.008,0.18 l 0.006,0.158 q 0.003,0.076 0.003,0.161 v 0.43 q 0,0.115 -0.003,0.228 l -0.006,0.228 -0.008,0.243 q -0.003,0.068 -0.014,0.104 -0.008,0.037 -0.025,0.057 -0.017,0.02 -0.04,0.022 -0.02,0.006 -0.048,0.006 -0.048,0 -0.082,-0.028 -0.034,-0.028 -0.098,-0.116 z"
         aria-label="CV2 IN"
         id="path24"
         inkscape:connector-curvature="0" />
    </g>
    <g
       style="line-height:1.25;stroke-width:0.20703125;fill:#232323;fill-opacity:1"
       id="g30">
      <path
         style="-inkscape-font-specification:'Sniglet, Normal';font-variant-ligatures:normal;font-variant-caps:normal;font-variant-numeric:normal;font-feature-settings:normal;text-align:start;stroke-width:0.20703125;fill:#232323;fill-opacity:1"
         d="m 12.584,69.037 q 0.092,0 0.185,0.017 0.096,0.014 0.173,0.048 0.076,0.031 0.124,0.08 0.05,0.044 0.05,0.106 0,0.065 -0.033,0.1 -0.034,0.033 -0.085,0.033 -0.048,0 -0.085,-0.014 -0.036,-0.017 -0.084,-0.037 -0.045,-0.02 -0.11,-0.034 -0.065,-0.017 -0.173,-0.017 -0.107,0 -0.206,0.057 -0.096,0.054 -0.17,0.152 -0.07,0.096 -0.112,0.23 -0.042,0.132 -0.042,0.287 0,0.192 0.048,0.33 0.05,0.138 0.13,0.23 0.079,0.086 0.177,0.131 0.102,0.043 0.204,0.043 0.12,0 0.203,-0.026 0.082,-0.025 0.138,-0.056 0.06,-0.03 0.102,-0.057 0.042,-0.025 0.082,-0.025 0.048,0 0.076,0.028 0.028,0.025 0.028,0.093 0,0.057 -0.045,0.116 -0.042,0.056 -0.127,0.104 -0.082,0.046 -0.198,0.077 -0.115,0.028 -0.26,0.028 -0.157,0 -0.315,-0.062 -0.156,-0.062 -0.28,-0.184 -0.121,-0.124 -0.197,-0.307 -0.077,-0.187 -0.077,-0.432 0,-0.246 0.068,-0.438 0.07,-0.192 0.19,-0.324 0.12,-0.136 0.279,-0.206 0.16,-0.07 0.34,-0.07 z m 1.64,1.885 q -0.036,0.068 -0.067,0.1 -0.028,0.03 -0.074,0.03 -0.045,0 -0.08,-0.03 -0.032,-0.032 -0.072,-0.097 -0.05,-0.084 -0.116,-0.234 -0.062,-0.15 -0.127,-0.325 -0.065,-0.177 -0.127,-0.366 -0.062,-0.19 -0.113,-0.356 -0.048,-0.167 -0.08,-0.29 -0.027,-0.128 -0.027,-0.18 0,-0.058 0.023,-0.086 0.022,-0.028 0.087,-0.028 0.037,0 0.062,0.02 0.029,0.016 0.07,0.101 0.035,0.065 0.074,0.17 0.04,0.104 0.082,0.23 0.045,0.128 0.09,0.27 0.046,0.137 0.09,0.276 0.046,0.138 0.085,0.265 0.04,0.127 0.074,0.228 l 0.076,-0.23 0.088,-0.266 0.09,-0.277 q 0.045,-0.14 0.09,-0.265 l 0.085,-0.229 q 0.04,-0.104 0.07,-0.172 0.04,-0.082 0.068,-0.1 0.03,-0.02 0.062,-0.02 0.065,0 0.088,0.033 0.025,0.03 0.025,0.093 0,0.056 -0.017,0.135 -0.017,0.08 -0.06,0.212 -0.04,0.13 -0.106,0.324 l -0.167,0.477 q -0.025,0.077 -0.06,0.158 -0.03,0.082 -0.064,0.161 -0.031,0.077 -0.062,0.147 -0.031,0.07 -0.06,0.121 z m 1.41,-1.59 q -0.101,0 -0.17,0.021 -0.067,0.02 -0.112,0.054 -0.045,0.034 -0.073,0.07 l -0.051,0.071 q -0.023,0.034 -0.051,0.057 -0.025,0.02 -0.065,0.02 -0.068,0 -0.096,-0.035 -0.025,-0.036 -0.025,-0.096 0,-0.124 0.093,-0.23 0.028,-0.035 0.076,-0.07 0.05,-0.04 0.119,-0.072 0.07,-0.03 0.16,-0.05 0.094,-0.023 0.21,-0.023 0.307,0 0.476,0.15 0.17,0.15 0.17,0.42 0,0.053 -0.012,0.118 -0.008,0.065 -0.036,0.136 -0.026,0.07 -0.074,0.146 -0.048,0.077 -0.127,0.156 -0.07,0.07 -0.15,0.13 -0.078,0.06 -0.163,0.118 l -0.178,0.127 q -0.09,0.065 -0.183,0.15 0.09,0.047 0.194,0.062 0.105,0.014 0.235,0.014 0.12,0 0.194,-0.006 0.074,-0.005 0.119,-0.014 l 0.07,-0.014 q 0.026,-0.006 0.054,-0.006 0.105,0 0.105,0.096 0,0.085 -0.071,0.13 -0.07,0.045 -0.17,0.068 -0.098,0.02 -0.203,0.022 -0.104,0.006 -0.172,0.006 -0.036,0 -0.104,-0.006 -0.065,-0.002 -0.141,-0.014 -0.076,-0.01 -0.155,-0.03 -0.077,-0.023 -0.142,-0.057 -0.062,-0.037 -0.101,-0.088 -0.04,-0.053 -0.04,-0.127 0,-0.098 0.07,-0.186 0.074,-0.09 0.18,-0.175 0.109,-0.087 0.233,-0.172 0.124,-0.088 0.23,-0.178 0.109,-0.093 0.179,-0.192 0.074,-0.099 0.074,-0.214 0,-0.144 -0.1,-0.215 -0.095,-0.073 -0.276,-0.073 z"
         aria-label="CV2"
         id="path28"
         inkscape:connector-curvature="0" />
    </g>
  </g>
  <path
     style="font-weight:400;font-size:10.66699982px;line-height:1.25;font-family:Sniglet;-inkscape-font-specification:'Sniglet, Normal';font-variant-ligatures:normal;font-variant-caps:normal;font-variant-numeric:normal;font-feature-settings:normal;text-align:start;letter-spacing:0;word-spacing:0;stroke-width:1;fill:#232323;fill-opacity:1"
     d="m 35.55072,92.739187 q 0.11904,0 0.23808,0.02176 0.12288,0.01792 0.22144,0.06144 0.09728,0.0384 0.15872,0.10112 0.064,0.0576 0.064,0.13696 0,0.0832 -0.04224,0.12672 -0.04352,0.04352 -0.1088,0.04352 -0.06144,0 -0.1088,-0.0192 l -0.10752,-0.04608 q -0.05888,-0.0256 -0.1408,-0.04352 -0.0832,-0.02176 -0.22144,-0.02176 -0.13696,0 -0.26368,0.07168 -0.12288,0.06912 -0.2176,0.19584 -0.0896,0.12288 -0.14336,0.29184 -0.05376,0.17024 -0.05376,0.36864 0,0.24576 0.06144,0.4224 0.064,0.17792 0.1664,0.29312 0.1024,0.11136 0.22656,0.17024 0.13056,0.05376 0.26112,0.05376 0.1536,0 0.25984,-0.032 0.10496,-0.03328 0.17664,-0.07296 0.0768,-0.0384 0.13056,-0.07168 0.05376,-0.03328 0.10368,-0.03328 0.06144,0 0.09856,0.03712 0.03584,0.032 0.03584,0.11904 0,0.07168 -0.0576,0.1472 -0.05504,0.07296 -0.16256,0.1344 -0.10496,0.0576 -0.25344,0.09728 -0.14848,0.03584 -0.3328,0.03584 -0.20224,0 -0.40448,-0.07936 -0.1984,-0.07936 -0.35712,-0.23424 -0.1536,-0.16 -0.25344,-0.39424 -0.09728,-0.23808 -0.09728,-0.55296 0,-0.3136 0.08704,-0.55936 0.0896,-0.24576 0.2432,-0.416 0.1536,-0.1728 0.3584,-0.26368 0.2048,-0.0896 0.4352,-0.0896 z m 2.10176,2.4128 q -0.04736,0.08704 -0.08704,0.12672 -0.03584,0.0384 -0.09472,0.0384 -0.0576,0 -0.10112,-0.0384 -0.04224,-0.03968 -0.09344,-0.12288 -0.064,-0.1088 -0.14848,-0.3008 -0.07936,-0.192 -0.16256,-0.41472 -0.0832,-0.22784 -0.16256,-0.46976 -0.07936,-0.2432 -0.14464,-0.45568 -0.06144,-0.21248 -0.10112,-0.3712 -0.03584,-0.16256 -0.03584,-0.2304 0,-0.07296 0.02944,-0.11008 0.02816,-0.03584 0.11136,-0.03584 0.04736,0 0.07936,0.0256 0.0384,0.02176 0.0896,0.13056 0.0448,0.0832 0.09472,0.21632 0.0512,0.13312 0.10496,0.2944 0.0576,0.16384 0.1152,0.34432 l 0.1152,0.35456 q 0.05888,0.17664 0.11008,0.3392 l 0.09344,0.29312 0.09728,-0.29568 0.11264,-0.34048 0.1152,-0.35328 q 0.0576,-0.18048 0.1152,-0.34048 0.0576,-0.15872 0.1088,-0.29184 0.0512,-0.1344 0.0896,-0.22016 0.0512,-0.10496 0.08704,-0.13056 0.03968,-0.0256 0.07936,-0.0256 0.0832,0 0.11264,0.04352 0.032,0.0384 0.032,0.11904 0,0.07296 -0.02176,0.17408 -0.02176,0.10112 -0.07552,0.2688 -0.0512,0.1664 -0.13696,0.41728 l -0.21376,0.61056 q -0.032,0.09728 -0.07552,0.20224 -0.0384,0.10496 -0.0832,0.2048 -0.0384,0.09856 -0.07936,0.18944 -0.0384,0.0896 -0.0768,0.1536 z"
     word-spacing="0"
     letter-spacing="0"
     font-size="10.667"
     font-weight="400"
     id="path34"
     inkscape:connector-curvature="0" />
  <g
     style="line-height:1.25;stroke-width:0.78125;fill:#232323;fill-opacity:1"
     id="g38"
     transform="matrix(1.28,0,0,1.28,0,-0.09666053)">
    <path
       d="m 33.093,72.465 q 0.093,0 0.186,0.017 0.096,0.014 0.173,0.048 0.076,0.03 0.124,0.079 0.05,0.045 0.05,0.107 0,0.065 -0.033,0.099 -0.034,0.034 -0.085,0.034 -0.048,0 -0.085,-0.014 -0.036,-0.017 -0.084,-0.037 -0.045,-0.02 -0.11,-0.034 -0.065,-0.017 -0.172,-0.017 -0.108,0 -0.207,0.057 -0.095,0.053 -0.169,0.152 -0.07,0.096 -0.113,0.229 -0.042,0.132 -0.042,0.288 0,0.192 0.048,0.33 0.05,0.138 0.13,0.228 0.08,0.088 0.178,0.133 0.101,0.042 0.203,0.042 0.121,0 0.203,-0.025 0.082,-0.025 0.138,-0.056 0.06,-0.031 0.102,-0.057 0.042,-0.025 0.082,-0.025 0.048,0 0.076,0.028 0.028,0.025 0.028,0.093 0,0.057 -0.045,0.116 -0.042,0.056 -0.127,0.104 -0.082,0.045 -0.198,0.076 -0.115,0.029 -0.26,0.029 -0.157,0 -0.315,-0.062 -0.156,-0.063 -0.28,-0.184 -0.12,-0.124 -0.197,-0.308 -0.076,-0.186 -0.076,-0.431 0,-0.246 0.067,-0.438 0.07,-0.192 0.19,-0.324 0.12,-0.136 0.28,-0.206 0.16,-0.07 0.34,-0.07 z m 1.642,1.886 q -0.037,0.067 -0.068,0.098 -0.028,0.03 -0.073,0.03 -0.046,0 -0.08,-0.03 -0.033,-0.031 -0.073,-0.096 -0.05,-0.085 -0.116,-0.234 -0.062,-0.15 -0.127,-0.325 -0.064,-0.177 -0.127,-0.367 -0.062,-0.19 -0.112,-0.355 -0.048,-0.167 -0.08,-0.29 -0.028,-0.128 -0.028,-0.181 0,-0.057 0.023,-0.085 0.022,-0.028 0.087,-0.028 0.037,0 0.062,0.02 0.03,0.016 0.071,0.1 0.034,0.066 0.073,0.17 0.04,0.105 0.082,0.23 0.045,0.129 0.09,0.27 l 0.09,0.276 q 0.046,0.139 0.086,0.266 l 0.073,0.228 0.076,-0.231 q 0.042,-0.13 0.088,-0.265 l 0.09,-0.277 q 0.045,-0.141 0.09,-0.265 l 0.085,-0.23 q 0.04,-0.103 0.07,-0.171 0.04,-0.082 0.068,-0.102 0.031,-0.02 0.062,-0.02 0.065,0 0.088,0.035 0.025,0.03 0.025,0.093 0,0.056 -0.017,0.135 -0.017,0.08 -0.059,0.212 -0.04,0.13 -0.107,0.324 l -0.167,0.477 q -0.025,0.077 -0.06,0.158 -0.03,0.082 -0.064,0.16 l -0.062,0.148 q -0.03,0.07 -0.06,0.12 z m 1.41,-1.592 q -0.102,0 -0.17,0.022 -0.068,0.02 -0.113,0.054 -0.045,0.034 -0.073,0.07 l -0.05,0.07 q -0.024,0.035 -0.052,0.057 -0.025,0.02 -0.065,0.02 -0.068,0 -0.096,-0.034 -0.025,-0.036 -0.025,-0.096 0,-0.124 0.093,-0.231 0.028,-0.034 0.076,-0.07 0.05,-0.04 0.12,-0.071 0.07,-0.031 0.16,-0.051 0.093,-0.023 0.21,-0.023 0.306,0 0.475,0.15 0.17,0.15 0.17,0.42 0,0.054 -0.012,0.119 -0.008,0.065 -0.036,0.135 -0.026,0.07 -0.074,0.147 -0.048,0.076 -0.127,0.155 -0.07,0.07 -0.15,0.13 -0.078,0.06 -0.163,0.119 l -0.178,0.127 q -0.09,0.065 -0.183,0.15 0.09,0.047 0.194,0.06 0.105,0.016 0.235,0.016 0.121,0 0.194,-0.006 0.074,-0.006 0.12,-0.014 l 0.07,-0.014 q 0.025,-0.006 0.053,-0.006 0.105,0 0.105,0.096 0,0.085 -0.07,0.13 -0.07,0.045 -0.17,0.068 -0.099,0.02 -0.203,0.022 -0.105,0.006 -0.173,0.006 -0.036,0 -0.104,-0.006 -0.065,-0.003 -0.14,-0.014 -0.077,-0.011 -0.156,-0.03 -0.077,-0.023 -0.142,-0.057 -0.062,-0.037 -0.1,-0.088 -0.04,-0.053 -0.04,-0.127 0,-0.1 0.07,-0.186 0.073,-0.09 0.181,-0.175 0.107,-0.088 0.231,-0.172 0.124,-0.088 0.231,-0.178 0.108,-0.093 0.178,-0.192 0.074,-0.1 0.074,-0.214 0,-0.144 -0.1,-0.215 -0.095,-0.073 -0.276,-0.073 z"
       style="font-weight:400;font-size:2.82200003px;font-family:Sniglet;-inkscape-font-specification:'Sniglet, Normal';font-variant-ligatures:normal;font-variant-caps:normal;font-variant-numeric:normal;font-feature-settings:normal;text-align:start;letter-spacing:0;word-spacing:0;stroke-width:0.78125;fill:#232323;fill-opacity:1"
       aria-label="CV2"
       font-weight="400"
       font-size="2.822"
       letter-spacing="0"
       word-spacing="0"
       id="path36"
       inkscape:connector-curvature="0" />
  </g>
  <g
     style="line-height:1.25;stroke-width:0.78125;fill:#232323;fill-opacity:1"
     id="g42"
     transform="matrix(1.28,0,0,1.28,0,-0.09666053)">
    <path
       style="font-weight:400;font-size:2.82200003px;font-family:Sniglet;-inkscape-font-specification:'Sniglet, Normal';font-variant-ligatures:normal;font-variant-caps:normal;font-variant-numeric:normal;font-feature-settings:normal;text-align:start;letter-spacing:0;word-spacing:0;stroke-width:0.78125;fill:#232323;fill-opacity:1"
       d="m 28.684,69.589 q 0.017,-0.04 0.05,-0.065 0.038,-0.025 0.077,-0.025 0.037,0 0.07,0.025 0.035,0.023 0.054,0.062 0.108,0.22 0.212,0.477 0.104,0.254 0.19,0.483 0.047,-0.35 0.103,-0.706 0.057,-0.356 0.127,-0.68 0.01,-0.037 0.026,-0.06 0.017,-0.025 0.037,-0.036 0.02,-0.014 0.04,-0.02 0.022,-0.006 0.036,-0.006 0.048,0 0.08,0.028 0.03,0.026 0.03,0.071 0,0.05 -0.017,0.18 -0.017,0.128 -0.045,0.3 -0.028,0.17 -0.065,0.361 -0.034,0.192 -0.068,0.37 -0.034,0.177 -0.065,0.324 -0.03,0.147 -0.05,0.223 -0.018,0.065 -0.05,0.099 -0.035,0.031 -0.1,0.031 -0.068,0 -0.116,-0.06 -0.045,-0.061 -0.1,-0.191 -0.055,-0.13 -0.13,-0.33 -0.078,-0.204 -0.199,-0.486 -0.124,0.282 -0.203,0.486 -0.076,0.203 -0.133,0.333 -0.053,0.13 -0.1,0.192 -0.049,0.059 -0.114,0.059 -0.113,0 -0.15,-0.13 -0.022,-0.076 -0.053,-0.22 l -0.065,-0.325 -0.065,-0.366 q -0.034,-0.192 -0.06,-0.362 l -0.042,-0.296 q -0.014,-0.13 -0.014,-0.18 0,-0.049 0.03,-0.08 0.032,-0.03 0.09,-0.03 0.04,0 0.075,0.025 0.037,0.022 0.053,0.096 0.068,0.324 0.12,0.68 0.053,0.355 0.112,0.705 0.087,-0.206 0.175,-0.437 0.087,-0.231 0.217,-0.52 z m 2.023,0.745 -0.082,0.006 h -0.178 q -0.048,0 -0.107,-0.006 v 0.573 q 0,0.09 -0.045,0.113 -0.042,0.02 -0.107,0.02 -0.034,0 -0.054,-0.007 -0.02,-0.003 -0.034,-0.014 -0.01,-0.014 -0.02,-0.04 -0.005,-0.025 -0.008,-0.07 -0.006,-0.05 -0.01,-0.146 l -0.004,-0.254 q 0,-0.156 -0.003,-0.376 v -0.522 q 0,-0.116 0.028,-0.223 0.028,-0.11 0.102,-0.192 0.073,-0.084 0.197,-0.135 0.127,-0.051 0.322,-0.051 0.138,0 0.268,0.031 0.133,0.031 0.235,0.107 0.1,0.076 0.163,0.206 0.062,0.13 0.062,0.325 0,0.26 -0.113,0.403 -0.11,0.142 -0.304,0.2 l 0.378,0.52 q 0.05,0.068 0.05,0.138 0,0.057 -0.04,0.088 -0.036,0.034 -0.092,0.034 -0.062,0 -0.107,-0.034 -0.045,-0.037 -0.085,-0.093 z m 0.443,-0.658 q 0,-0.194 -0.118,-0.288 -0.116,-0.096 -0.37,-0.096 -0.093,0 -0.155,0.017 -0.062,0.014 -0.1,0.057 -0.036,0.042 -0.053,0.118 -0.014,0.074 -0.014,0.19 v 0.191 q 0,0.11 0.003,0.2 0.065,0.004 0.144,0.004 h 0.152 q 0.08,0 0.167,-0.008 0.09,-0.012 0.166,-0.051 0.076,-0.042 0.127,-0.119 0.05,-0.079 0.05,-0.214 z m 0.573,1.177 q -0.005,-0.101 -0.008,-0.212 0,-0.11 -0.003,-0.237 -0.003,-0.127 -0.003,-0.273 v -0.333 q 0,-0.2 0.003,-0.342 0.003,-0.144 0.017,-0.234 0.014,-0.09 0.042,-0.133 0.03,-0.042 0.082,-0.042 0.026,0 0.048,0.006 0.023,0.006 0.04,0.025 0.017,0.017 0.028,0.054 0.014,0.034 0.017,0.09 0.006,0.102 0.008,0.18 L 32,69.561 q 0.003,0.076 0.003,0.16 v 0.43 q 0,0.115 -0.003,0.228 l -0.006,0.229 q -0.002,0.116 -0.008,0.243 -0.003,0.067 -0.014,0.104 -0.01,0.037 -0.028,0.057 -0.017,0.02 -0.04,0.022 -0.022,0.006 -0.05,0.006 -0.052,0 -0.088,-0.034 -0.037,-0.036 -0.043,-0.152 z m 1.717,-1.541 q -0.08,0.006 -0.17,0.008 l -0.194,0.006 0.006,0.144 0.006,0.133 q 0.002,0.068 0.002,0.14 0.003,0.074 0.003,0.165 v 0.245 q 0,0.116 -0.003,0.234 l -0.005,0.235 q -0.003,0.118 -0.01,0.245 -0.002,0.068 -0.013,0.105 -0.008,0.036 -0.025,0.056 -0.017,0.02 -0.04,0.023 -0.022,0.006 -0.05,0.006 -0.05,0 -0.088,-0.034 -0.034,-0.037 -0.04,-0.153 -0.005,-0.101 -0.008,-0.214 0,-0.113 -0.003,-0.243 -0.003,-0.13 -0.003,-0.28 v -0.606 q 0.003,-0.116 0.01,-0.2 h -0.117 q -0.118,0 -0.203,-0.003 -0.082,-0.003 -0.136,-0.014 -0.053,-0.015 -0.08,-0.043 -0.02,-0.028 -0.02,-0.079 0,-0.025 0.004,-0.045 0.006,-0.023 0.026,-0.04 0.02,-0.02 0.054,-0.03 0.036,-0.012 0.093,-0.017 l 0.096,-0.006 0.084,-0.006 q 0.043,-0.003 0.088,-0.003 h 0.104 q 0.167,0 0.313,0.003 0.15,0.003 0.317,0.01 0.067,0.007 0.104,0.018 0.037,0.008 0.056,0.025 0.02,0.017 0.023,0.04 0.006,0.022 0.006,0.05 0,0.051 -0.037,0.085 -0.034,0.034 -0.15,0.04 z m 0.402,1.288 -0.01,-0.246 q -0.007,-0.156 -0.007,-0.32 v -0.191 l 0.006,-0.206 q 0.006,-0.21 0.025,-0.328 0.023,-0.118 0.085,-0.177 0.065,-0.06 0.18,-0.074 0.116,-0.014 0.308,-0.014 h 0.06 q 0.06,0 0.14,0.003 0.083,0 0.17,0.003 l 0.15,0.006 q 0.062,0.006 0.098,0.017 0.04,0.008 0.06,0.025 0.02,0.015 0.025,0.037 0.006,0.02 0.006,0.045 0,0.065 -0.037,0.096 -0.037,0.029 -0.15,0.037 -0.056,0.006 -0.166,0.008 h -0.22 q -0.113,0 -0.203,0.003 h -0.113 q -0.074,0.003 -0.105,0.034 -0.028,0.028 -0.028,0.138 l 0.003,0.124 q 0.005,0.096 0.005,0.271 h 0.235 q 0.15,0 0.242,0.006 0.096,0.003 0.147,0.017 0.054,0.014 0.074,0.045 0.02,0.031 0.02,0.082 0,0.026 -0.006,0.048 -0.003,0.02 -0.023,0.037 -0.02,0.014 -0.056,0.025 -0.037,0.008 -0.105,0.014 -0.082,0.006 -0.155,0.008 h -0.378 v 0.345 l 0.005,0.096 q 0.003,0.045 0.012,0.076 0.01,0.03 0.036,0.05 0.03,0.02 0.08,0.029 0.053,0.008 0.14,0.008 H 35 q 0.1,0 0.125,0.037 0.025,0.036 0.025,0.098 0,0.051 -0.023,0.08 -0.022,0.025 -0.11,0.036 -0.084,0.014 -0.257,0.017 -0.17,0.003 -0.468,0.003 -0.127,0 -0.21,-0.023 -0.08,-0.022 -0.132,-0.076 -0.05,-0.053 -0.076,-0.138 -0.022,-0.088 -0.03,-0.212 z"
       word-spacing="0"
       letter-spacing="0"
       font-size="2.822"
       font-weight="400"
       aria-label="WRITE"
       id="path40"
       inkscape:connector-curvature="0" />
  </g>
  <path
     d="m 40.30208,106.46974 v 1.69216"
     id="path44"
     inkscape:connector-curvature="0"
     style="fill:none;stroke:#232323;stroke-width:0.132;stroke-opacity:1" />
  <g
     style="line-height:1.25;-inkscape-font-specification:'Sniglet, Normal';font-variant-ligatures:normal;font-variant-caps:normal;font-variant-numeric:normal;font-feature-settings:normal;text-align:start;stroke-width:0.78125;fill:#232323;fill-opacity:1"
     id="g48"
     transform="matrix(1.28,0,0,1.28,0,-0.09666053)">
    <path
       d="M 8.7,13.67 8.639,13.516 q -0.03,-0.09 -0.067,-0.19 l -0.178,0.006 h -0.41 q -0.098,0 -0.18,-0.003 l -0.065,0.187 q -0.03,0.087 -0.06,0.155 -0.056,0.144 -0.163,0.144 -0.04,0 -0.076,-0.026 -0.034,-0.025 -0.034,-0.073 0,-0.048 0.017,-0.124 0.017,-0.08 0.042,-0.167 l 0.06,-0.183 q 0.03,-0.096 0.059,-0.178 0.028,-0.09 0.079,-0.228 l 0.113,-0.294 0.118,-0.3 q 0.06,-0.15 0.108,-0.26 0.01,-0.027 0.028,-0.061 0.017,-0.037 0.04,-0.068 0.025,-0.03 0.053,-0.053 0.03,-0.023 0.068,-0.023 0.036,0 0.067,0.026 0.03,0.022 0.054,0.056 0.025,0.034 0.042,0.07 0.02,0.037 0.03,0.066 0.047,0.112 0.103,0.26 0.06,0.146 0.116,0.295 0.059,0.15 0.11,0.286 0.05,0.135 0.082,0.228 0.025,0.082 0.056,0.175 0.034,0.093 0.062,0.184 0.028,0.09 0.045,0.169 0.02,0.076 0.02,0.124 0,0.048 -0.037,0.073 -0.034,0.026 -0.073,0.026 -0.05,0 -0.093,-0.034 -0.043,-0.037 -0.074,-0.11 z M 8.2,13.05 q 0.07,0 0.137,0.003 0.068,0 0.136,0.003 L 8.405,12.858 8.34,12.668 8.287,12.502 8.247,12.364 Q 8.236,12.328 8.222,12.304 8.208,12.282 8.185,12.282 q -0.023,0 -0.037,0.026 -0.014,0.022 -0.025,0.059 -0.034,0.116 -0.096,0.302 L 7.9,13.056 Q 7.976,13.053 8.052,13.053 8.129,13.05 8.202,13.05 Z"
       style="font-weight:400;font-size:2.82200003px;font-family:Sniglet;-inkscape-font-specification:'Sniglet, Normal';font-variant-ligatures:normal;font-variant-caps:normal;font-variant-numeric:normal;font-feature-settings:normal;text-align:start;letter-spacing:0;word-spacing:0;stroke-width:0.78125;fill:#232323;fill-opacity:1"
       aria-label="A"
       font-weight="400"
       font-size="2.822"
       letter-spacing="0"
       word-spacing="0"
       id="path46"
       inkscape:connector-curvature="0" />
  </g>
  <g
     style="line-height:1.25;-inkscape-font-specification:'Sniglet, Normal';font-variant-ligatures:normal;font-variant-caps:normal;font-variant-numeric:normal;font-feature-settings:normal;text-align:start;stroke-width:0.78125;fill:#232323;fill-opacity:1"
     id="g52"
     transform="matrix(1.28,0,0,1.28,0,-0.09666053)">
    <path
       d="m 8.036,26.81 q -0.16,0 -0.254,-0.025 Q 7.686,26.76 7.632,26.715 7.582,26.667 7.562,26.599 7.544,26.531 7.536,26.447 7.526,26.347 7.522,26.187 7.519,26.023 7.519,25.847 V 25.67 q 0.003,-0.096 0.003,-0.186 l 0.005,-0.172 q 0.003,-0.08 0.009,-0.135 0.008,-0.088 0.028,-0.16 0.02,-0.07 0.074,-0.12 0.056,-0.051 0.155,-0.076 0.1,-0.028 0.268,-0.028 0.378,0 0.564,0.14 0.19,0.14 0.19,0.396 0,0.133 -0.06,0.245 -0.056,0.113 -0.197,0.17 0.079,0.014 0.144,0.06 0.064,0.044 0.11,0.11 0.048,0.06 0.07,0.14 0.026,0.076 0.026,0.155 0,0.102 -0.043,0.21 -0.042,0.104 -0.144,0.19 -0.101,0.089 -0.27,0.145 -0.167,0.057 -0.415,0.057 z m 0.59,-0.61 q 0,-0.101 -0.05,-0.163 Q 8.532,25.975 8.459,25.944 8.385,25.91 8.295,25.899 8.205,25.888 8.115,25.888 H 7.968 q -0.076,0 -0.141,0.003 l -0.006,0.12 -0.006,0.12 v 0.152 q 0,0.076 0.012,0.127 0.01,0.05 0.042,0.082 0.03,0.03 0.088,0.045 0.059,0.01 0.15,0.01 0.248,0 0.383,-0.086 0.135,-0.088 0.135,-0.26 z M 8.103,25.06 q -0.093,0 -0.152,0.018 -0.057,0.014 -0.088,0.04 -0.028,0.025 -0.04,0.06 -0.008,0.038 -0.008,0.08 v 0.395 q 0.04,0.003 0.082,0.003 h 0.085 q 0.1,0 0.197,-0.014 0.1,-0.014 0.178,-0.048 0.08,-0.034 0.127,-0.093 0.048,-0.06 0.048,-0.152 0,-0.127 -0.104,-0.206 -0.102,-0.082 -0.325,-0.082 z"
       style="font-weight:400;font-size:2.82200003px;font-family:Sniglet;-inkscape-font-specification:'Sniglet, Normal';font-variant-ligatures:normal;font-variant-caps:normal;font-variant-numeric:normal;font-feature-settings:normal;text-align:start;letter-spacing:0;word-spacing:0;stroke-width:0.78125;fill:#232323;fill-opacity:1"
       aria-label="B"
       font-weight="400"
       font-size="2.822"
       letter-spacing="0"
       word-spacing="0"
       id="path50"
       inkscape:connector-curvature="0" />
  </g>
  <g
     style="line-height:1.25;-inkscape-font-specification:'Sniglet, Normal';font-variant-ligatures:normal;font-variant-caps:normal;font-variant-numeric:normal;font-feature-settings:normal;text-align:start;stroke-width:0.78125;fill:#232323;fill-opacity:1"
     id="g56"
     transform="matrix(1.28,0,0,1.28,0,-0.09666053)">
    <path
       d="m 19.929,11.79 q 0.093,0 0.186,0.018 0.096,0.014 0.172,0.048 0.076,0.03 0.124,0.08 0.05,0.044 0.05,0.106 0,0.065 -0.033,0.1 -0.034,0.033 -0.085,0.033 -0.048,0 -0.084,-0.014 l -0.085,-0.037 q -0.045,-0.02 -0.11,-0.034 -0.065,-0.017 -0.172,-0.017 -0.107,0 -0.206,0.057 -0.096,0.054 -0.17,0.152 -0.07,0.096 -0.112,0.229 -0.043,0.133 -0.043,0.288 0,0.192 0.048,0.33 0.05,0.138 0.13,0.229 0.08,0.087 0.178,0.132 0.102,0.043 0.203,0.043 0.12,0 0.203,-0.026 0.082,-0.025 0.139,-0.056 0.059,-0.031 0.1,-0.057 0.044,-0.025 0.083,-0.025 0.048,0 0.076,0.028 0.028,0.025 0.028,0.093 0,0.057 -0.045,0.116 -0.042,0.056 -0.127,0.104 -0.082,0.046 -0.197,0.077 -0.116,0.028 -0.26,0.028 -0.158,0 -0.316,-0.062 -0.155,-0.062 -0.28,-0.184 -0.12,-0.124 -0.197,-0.307 -0.076,-0.187 -0.076,-0.432 0,-0.246 0.068,-0.438 0.07,-0.192 0.189,-0.324 0.12,-0.136 0.28,-0.206 0.16,-0.07 0.34,-0.07 z"
       style="font-weight:400;font-size:2.82200003px;font-family:Sniglet;-inkscape-font-specification:'Sniglet, Normal';font-variant-ligatures:normal;font-variant-caps:normal;font-variant-numeric:normal;font-feature-settings:normal;text-align:start;letter-spacing:0;word-spacing:0;stroke-width:0.78125;fill:#232323;fill-opacity:1"
       aria-label="C"
       font-weight="400"
       font-size="2.822"
       letter-spacing="0"
       word-spacing="0"
       id="path54"
       inkscape:connector-curvature="0" />
  </g>
  <g
     style="line-height:1.25;-inkscape-font-specification:'Sniglet, Normal';font-variant-ligatures:normal;font-variant-caps:normal;font-variant-numeric:normal;font-feature-settings:normal;text-align:start;stroke-width:0.78125;fill:#232323;fill-opacity:1"
     id="g60"
     transform="matrix(1.28,0,0,1.28,0,-0.09666053)">
    <path
       d="m 19.717,24.784 q 0.29,0 0.466,0.088 0.175,0.087 0.268,0.23 0.093,0.145 0.12,0.329 0.032,0.183 0.032,0.372 0,0.206 -0.054,0.39 -0.05,0.183 -0.16,0.32 -0.108,0.137 -0.277,0.219 -0.17,0.079 -0.404,0.079 -0.186,0 -0.3,-0.03 -0.11,-0.024 -0.171,-0.078 -0.06,-0.053 -0.08,-0.135 -0.02,-0.082 -0.02,-0.192 v -1.061 q 0,-0.122 0.02,-0.22 0.024,-0.1 0.086,-0.167 0.062,-0.07 0.175,-0.107 0.115,-0.037 0.299,-0.037 z m 0.01,1.744 q 0.176,0 0.289,-0.062 0.116,-0.065 0.184,-0.17 0.067,-0.103 0.093,-0.236 0.028,-0.133 0.028,-0.271 0,-0.127 -0.02,-0.254 -0.02,-0.13 -0.082,-0.234 -0.062,-0.105 -0.178,-0.17 -0.115,-0.065 -0.307,-0.065 -0.175,0 -0.243,0.05 -0.068,0.052 -0.068,0.156 v 1.08 q 0,0.089 0.062,0.134 0.065,0.042 0.243,0.042 z"
       style="font-weight:400;font-size:2.82200003px;font-family:Sniglet;-inkscape-font-specification:'Sniglet, Normal';font-variant-ligatures:normal;font-variant-caps:normal;font-variant-numeric:normal;font-feature-settings:normal;text-align:start;letter-spacing:0;word-spacing:0;stroke-width:0.78125;fill:#232323;fill-opacity:1"
       aria-label="D"
       font-weight="400"
       font-size="2.822"
       letter-spacing="0"
       word-spacing="0"
       id="path58"
       inkscape:connector-curvature="0" />
  </g>
  <g
     style="line-height:1.25;stroke-width:0.78125;fill:#232323;fill-opacity:1"
     id="g64"
     transform="matrix(1.28,0,0,1.28,0,-0.09666053)">
    <path
       d="m 11.698,11.707 q 0.08,0 0.18,0.014 0.105,0.01 0.196,0.045 0.09,0.03 0.152,0.084 0.062,0.051 0.062,0.127 0,0.046 -0.025,0.077 -0.026,0.03 -0.082,0.03 -0.042,0 -0.088,-0.016 -0.042,-0.017 -0.098,-0.034 -0.054,-0.02 -0.127,-0.037 -0.071,-0.017 -0.167,-0.017 -0.186,0 -0.277,0.068 -0.087,0.065 -0.087,0.18 0,0.08 0.04,0.133 0.039,0.054 0.104,0.093 0.068,0.037 0.15,0.063 0.084,0.025 0.172,0.047 0.098,0.026 0.194,0.063 0.1,0.036 0.175,0.096 0.076,0.059 0.122,0.15 0.048,0.09 0.048,0.228 0,0.144 -0.054,0.26 -0.054,0.112 -0.147,0.194 -0.093,0.08 -0.223,0.124 -0.13,0.043 -0.282,0.043 -0.085,0 -0.197,-0.017 -0.113,-0.014 -0.215,-0.051 -0.102,-0.04 -0.172,-0.102 -0.07,-0.065 -0.07,-0.158 0,-0.056 0.028,-0.09 0.03,-0.034 0.09,-0.034 0.048,0 0.079,0.02 0.03,0.017 0.053,0.04 0.085,0.073 0.192,0.098 0.108,0.025 0.22,0.025 0.065,0 0.136,-0.008 0.073,-0.011 0.133,-0.042 0.059,-0.031 0.098,-0.088 0.04,-0.06 0.04,-0.158 0,-0.09 -0.037,-0.147 -0.034,-0.059 -0.093,-0.098 -0.06,-0.04 -0.141,-0.065 -0.079,-0.026 -0.172,-0.051 -0.105,-0.028 -0.206,-0.062 -0.102,-0.034 -0.18,-0.09 -0.08,-0.06 -0.13,-0.147 -0.049,-0.09 -0.049,-0.229 0,-0.138 0.051,-0.243 0.051,-0.104 0.138,-0.175 0.088,-0.07 0.207,-0.107 0.12,-0.037 0.26,-0.037 z m 0.972,1.563 q -0.007,-0.09 -0.012,-0.245 -0.006,-0.156 -0.006,-0.32 v -0.191 l 0.006,-0.206 q 0.006,-0.21 0.025,-0.328 0.023,-0.118 0.085,-0.178 0.065,-0.059 0.18,-0.073 0.116,-0.014 0.308,-0.014 h 0.06 q 0.059,0 0.14,0.003 0.082,0 0.17,0.003 l 0.15,0.005 q 0.062,0.006 0.098,0.017 0.04,0.009 0.06,0.026 0.02,0.014 0.025,0.036 0.006,0.02 0.006,0.045 0,0.065 -0.037,0.096 -0.036,0.029 -0.15,0.037 -0.056,0.006 -0.166,0.009 h -0.22 q -0.113,0 -0.203,0.002 h -0.113 q -0.073,0.003 -0.104,0.034 -0.029,0.028 -0.029,0.138 l 0.003,0.125 q 0.006,0.096 0.006,0.27 h 0.235 q 0.15,0 0.242,0.006 0.096,0.003 0.147,0.017 0.054,0.014 0.073,0.045 0.02,0.031 0.02,0.082 0,0.026 -0.006,0.048 -0.003,0.02 -0.022,0.037 -0.02,0.014 -0.057,0.025 -0.036,0.009 -0.104,0.014 -0.082,0.006 -0.155,0.009 h -0.379 v 0.344 l 0.006,0.096 q 0.003,0.045 0.012,0.076 0.011,0.031 0.036,0.051 0.029,0.02 0.08,0.028 0.053,0.009 0.14,0.009 h 0.607 q 0.1,0 0.124,0.036 0.026,0.037 0.026,0.1 0,0.05 -0.023,0.078 -0.022,0.026 -0.11,0.037 -0.084,0.014 -0.257,0.017 -0.169,0.003 -0.468,0.003 -0.127,0 -0.209,-0.023 -0.082,-0.022 -0.133,-0.076 -0.05,-0.054 -0.076,-0.138 -0.022,-0.088 -0.03,-0.212 z m 2.232,0.457 q -0.169,0 -0.319,-0.067 -0.146,-0.068 -0.256,-0.195 -0.11,-0.13 -0.175,-0.316 -0.062,-0.187 -0.062,-0.424 0,-0.223 0.053,-0.409 0.056,-0.186 0.164,-0.322 0.11,-0.135 0.27,-0.208 0.162,-0.077 0.373,-0.077 0.172,0 0.328,0.062 0.155,0.063 0.27,0.187 0.12,0.124 0.187,0.31 0.068,0.186 0.068,0.435 0,0.203 -0.054,0.384 -0.05,0.18 -0.158,0.321 l 0.16,0.133 q 0.032,0.025 0.057,0.065 0.028,0.037 0.028,0.085 0,0.056 -0.045,0.09 -0.045,0.034 -0.107,0.034 -0.079,0 -0.166,-0.08 l -0.147,-0.126 q -0.096,0.056 -0.212,0.087 -0.116,0.031 -0.257,0.031 z m 0.006,-0.265 q 0.156,0 0.271,-0.062 0.116,-0.065 0.192,-0.17 0.076,-0.104 0.113,-0.24 0.037,-0.138 0.037,-0.282 0,-0.175 -0.048,-0.31 -0.045,-0.138 -0.124,-0.231 -0.08,-0.094 -0.184,-0.142 -0.104,-0.05 -0.223,-0.05 -0.141,0 -0.248,0.059 -0.105,0.06 -0.178,0.16 -0.07,0.102 -0.107,0.24 -0.037,0.136 -0.037,0.291 0,0.167 0.042,0.305 0.043,0.136 0.113,0.232 0.074,0.096 0.172,0.15 0.1,0.05 0.21,0.05 z m 2.389,-0.344 -0.02,0.124 q -0.028,0.175 -0.065,0.254 -0.036,0.079 -0.096,0.079 -0.05,0 -0.082,-0.026 -0.03,-0.025 -0.03,-0.13 0,-0.047 0.005,-0.124 0.006,-0.076 0.02,-0.172 -0.104,0 -0.214,0.003 H 16.6 l -0.017,0.116 q -0.025,0.175 -0.064,0.254 -0.037,0.079 -0.096,0.079 -0.051,0 -0.082,-0.026 -0.031,-0.025 -0.031,-0.13 0,-0.047 0.006,-0.12 0.006,-0.077 0.02,-0.173 -0.082,0 -0.142,-0.003 -0.056,-0.003 -0.093,-0.017 -0.036,-0.014 -0.053,-0.042 -0.017,-0.028 -0.017,-0.076 0,-0.034 0.011,-0.06 0.014,-0.025 0.05,-0.042 0.038,-0.02 0.105,-0.028 0.068,-0.011 0.178,-0.011 l 0.023,-0.158 0.028,-0.158 q -0.07,0 -0.121,-0.006 -0.048,-0.006 -0.082,-0.02 -0.031,-0.014 -0.045,-0.04 -0.015,-0.027 -0.015,-0.073 0,-0.022 0.006,-0.042 0.006,-0.023 0.026,-0.04 0.02,-0.02 0.053,-0.03 0.037,-0.015 0.094,-0.02 l 0.132,-0.009 0.042,-0.228 q 0.02,-0.088 0.04,-0.136 0.02,-0.05 0.042,-0.068 0.026,-0.016 0.062,-0.016 0.068,0 0.1,0.036 0.03,0.034 0.03,0.088 l -0.003,0.011 q 0,0.008 -0.006,0.04 -0.003,0.03 -0.014,0.095 l -0.028,0.175 h 0.212 q 0.107,0 0.217,0.003 l 0.042,-0.228 q 0.02,-0.088 0.04,-0.136 0.02,-0.05 0.042,-0.068 0.025,-0.017 0.062,-0.017 0.065,0 0.096,0.037 0.034,0.034 0.034,0.085 0,0.005 -0.003,0.014 0,0.008 -0.006,0.04 -0.003,0.03 -0.014,0.095 -0.008,0.065 -0.028,0.184 0.09,0 0.146,0.008 0.057,0.009 0.088,0.026 0.03,0.017 0.042,0.042 0.012,0.026 0.012,0.06 0,0.047 -0.037,0.084 -0.034,0.034 -0.15,0.04 l -0.144,0.005 -0.05,0.33 q 0.076,0 0.124,0.009 0.048,0.005 0.073,0.022 0.028,0.015 0.037,0.043 0.011,0.025 0.011,0.062 0,0.05 -0.037,0.085 -0.033,0.033 -0.15,0.039 z m -0.229,-0.271 0.023,-0.158 0.028,-0.161 q -0.099,0 -0.206,0.003 h -0.217 l -0.051,0.313 q 0.096,0 0.2,0.003 z"
       style="font-weight:400;font-size:2.82200003px;font-family:Sniglet;-inkscape-font-specification:'Sniglet, Normal';font-variant-ligatures:normal;font-variant-caps:normal;font-variant-numeric:normal;font-feature-settings:normal;text-align:start;letter-spacing:0;word-spacing:0;stroke-width:0.78125;fill:#232323;fill-opacity:1"
       aria-label="SEQ#"
       font-weight="400"
       font-size="2.822"
       letter-spacing="0"
       word-spacing="0"
       id="path62"
       inkscape:connector-curvature="0" />
  </g>
  <g
     style="line-height:1.25;stroke-width:0.78125;fill:#232323;fill-opacity:1"
     id="g68"
     transform="matrix(1.28,0,0,1.28,0,-0.09666053)">
    <path
       d="m 25.9,24.703 q 0.08,0 0.18,0.014 0.105,0.011 0.196,0.045 0.09,0.03 0.152,0.085 0.062,0.05 0.062,0.127 0,0.045 -0.025,0.076 -0.026,0.03 -0.082,0.03 -0.043,0 -0.088,-0.016 -0.042,-0.017 -0.099,-0.034 -0.053,-0.02 -0.127,-0.037 -0.07,-0.017 -0.166,-0.017 -0.186,0 -0.277,0.068 -0.087,0.065 -0.087,0.18 0,0.08 0.04,0.133 0.039,0.054 0.104,0.094 0.067,0.036 0.15,0.062 0.084,0.025 0.171,0.048 0.1,0.025 0.195,0.062 0.099,0.036 0.175,0.096 0.076,0.059 0.122,0.15 0.048,0.09 0.048,0.228 0,0.144 -0.054,0.26 -0.054,0.112 -0.147,0.194 -0.093,0.08 -0.223,0.124 -0.13,0.043 -0.282,0.043 -0.085,0 -0.198,-0.017 -0.112,-0.014 -0.214,-0.051 -0.102,-0.04 -0.172,-0.102 -0.07,-0.065 -0.07,-0.158 0,-0.056 0.027,-0.09 0.031,-0.034 0.09,-0.034 0.049,0 0.08,0.02 0.03,0.017 0.053,0.04 0.085,0.073 0.192,0.098 0.107,0.026 0.22,0.026 0.065,0 0.136,-0.009 0.073,-0.011 0.132,-0.042 0.06,-0.031 0.1,-0.088 0.039,-0.059 0.039,-0.158 0,-0.09 -0.037,-0.147 -0.034,-0.059 -0.093,-0.098 -0.06,-0.04 -0.141,-0.065 -0.08,-0.026 -0.172,-0.051 -0.105,-0.028 -0.206,-0.062 -0.102,-0.034 -0.18,-0.09 -0.08,-0.06 -0.13,-0.147 -0.049,-0.09 -0.049,-0.229 0,-0.138 0.051,-0.242 0.05,-0.105 0.138,-0.175 0.088,-0.071 0.206,-0.108 0.122,-0.036 0.26,-0.036 z m 1.465,1.817 -0.011,-0.33 q -0.003,-0.178 -0.003,-0.41 l -0.562,-0.804 q -0.023,-0.03 -0.037,-0.065 -0.01,-0.033 -0.01,-0.064 0,-0.054 0.027,-0.088 0.031,-0.037 0.105,-0.037 0.059,0 0.104,0.034 0.048,0.031 0.088,0.093 l 0.42,0.67 0.42,-0.67 q 0.04,-0.062 0.085,-0.093 0.048,-0.034 0.108,-0.034 0.073,0 0.101,0.037 0.031,0.034 0.031,0.088 0,0.03 -0.014,0.064 -0.011,0.034 -0.034,0.065 l -0.55,0.788 q 0,0.192 -0.006,0.37 -0.003,0.174 -0.011,0.383 -0.003,0.068 -0.015,0.105 -0.008,0.036 -0.025,0.056 -0.017,0.02 -0.04,0.023 -0.02,0.005 -0.047,0.005 -0.051,0 -0.085,-0.033 -0.034,-0.037 -0.04,-0.153 z m 2.211,0.042 q -0.09,-0.124 -0.172,-0.245 l -0.173,-0.271 q -0.09,-0.147 -0.208,-0.325 -0.116,-0.18 -0.28,-0.42 v 0.38 q 0,0.167 -0.003,0.311 l -0.006,0.271 -0.008,0.254 q -0.003,0.068 -0.014,0.105 -0.008,0.036 -0.025,0.056 -0.017,0.02 -0.04,0.023 -0.02,0.005 -0.048,0.005 -0.05,0 -0.084,-0.033 -0.034,-0.037 -0.04,-0.153 -0.014,-0.31 -0.017,-0.62 v -0.647 q 0,-0.19 0.003,-0.296 0.006,-0.108 0.02,-0.161 0.017,-0.054 0.042,-0.068 0.028,-0.014 0.074,-0.014 0.045,0 0.118,0.07 0.073,0.068 0.16,0.181 0.088,0.113 0.187,0.26 0.102,0.146 0.2,0.302 0.1,0.155 0.19,0.307 l 0.169,0.277 q -0.003,-0.133 -0.003,-0.29 v -0.356 q 0,-0.223 0.003,-0.367 0.003,-0.147 0.014,-0.232 0.014,-0.084 0.042,-0.118 0.029,-0.034 0.08,-0.034 0.047,0 0.084,0.03 0.037,0.032 0.042,0.145 0.006,0.101 0.008,0.18 l 0.006,0.159 q 0.003,0.076 0.003,0.16 v 0.429 q 0,0.116 -0.003,0.229 l -0.006,0.229 -0.008,0.242 q -0.003,0.068 -0.014,0.105 -0.008,0.036 -0.025,0.056 -0.017,0.02 -0.04,0.023 -0.02,0.005 -0.048,0.005 -0.048,0 -0.081,-0.028 -0.034,-0.028 -0.1,-0.116 z m 1.484,-1.865 q 0.093,0 0.186,0.017 0.096,0.014 0.172,0.048 0.077,0.03 0.124,0.079 0.051,0.045 0.051,0.107 0,0.065 -0.034,0.099 -0.034,0.034 -0.084,0.034 -0.048,0 -0.085,-0.014 L 31.305,25.03 q -0.045,-0.02 -0.11,-0.034 -0.065,-0.017 -0.172,-0.017 -0.107,0 -0.206,0.057 -0.096,0.053 -0.17,0.152 -0.07,0.096 -0.112,0.229 -0.042,0.132 -0.042,0.288 0,0.191 0.048,0.33 0.05,0.138 0.13,0.228 0.078,0.088 0.177,0.133 0.102,0.042 0.203,0.042 0.122,0 0.204,-0.025 0.081,-0.026 0.138,-0.057 0.06,-0.03 0.101,-0.056 0.043,-0.025 0.082,-0.025 0.048,0 0.076,0.028 0.029,0.025 0.029,0.093 0,0.056 -0.046,0.116 -0.042,0.056 -0.127,0.104 -0.081,0.045 -0.197,0.076 -0.116,0.029 -0.26,0.029 -0.158,0 -0.316,-0.063 -0.155,-0.062 -0.28,-0.183 -0.12,-0.124 -0.197,-0.308 -0.076,-0.186 -0.076,-0.431 0,-0.246 0.068,-0.438 0.07,-0.192 0.189,-0.324 0.121,-0.136 0.28,-0.206 0.16,-0.071 0.34,-0.071 z m 2.15,0.006 q 0.078,0 0.18,0.014 0.104,0.011 0.195,0.045 0.09,0.03 0.152,0.085 0.062,0.05 0.062,0.127 0,0.045 -0.025,0.076 -0.026,0.03 -0.082,0.03 -0.042,0 -0.088,-0.016 -0.042,-0.017 -0.098,-0.034 -0.054,-0.02 -0.127,-0.037 -0.07,-0.017 -0.167,-0.017 -0.186,0 -0.276,0.068 -0.088,0.065 -0.088,0.18 0,0.08 0.04,0.133 0.04,0.054 0.104,0.094 0.068,0.036 0.15,0.062 0.084,0.025 0.172,0.048 0.099,0.025 0.194,0.062 0.1,0.036 0.175,0.096 0.077,0.059 0.122,0.15 0.048,0.09 0.048,0.228 0,0.144 -0.054,0.26 -0.053,0.112 -0.147,0.194 -0.093,0.08 -0.223,0.124 -0.13,0.043 -0.282,0.043 -0.084,0 -0.197,-0.017 -0.113,-0.014 -0.215,-0.051 -0.101,-0.04 -0.172,-0.102 -0.07,-0.065 -0.07,-0.158 0,-0.056 0.028,-0.09 0.03,-0.034 0.09,-0.034 0.048,0 0.079,0.02 0.031,0.017 0.054,0.04 0.084,0.073 0.191,0.098 0.108,0.026 0.22,0.026 0.066,0 0.136,-0.009 0.073,-0.011 0.133,-0.042 0.059,-0.031 0.099,-0.088 0.039,-0.059 0.039,-0.158 0,-0.09 -0.037,-0.147 -0.034,-0.059 -0.093,-0.098 -0.06,-0.04 -0.14,-0.065 -0.08,-0.026 -0.173,-0.051 -0.104,-0.028 -0.206,-0.062 -0.102,-0.034 -0.18,-0.09 -0.08,-0.06 -0.13,-0.147 -0.049,-0.09 -0.049,-0.229 0,-0.138 0.051,-0.242 0.051,-0.105 0.139,-0.175 0.087,-0.071 0.206,-0.108 0.121,-0.036 0.26,-0.036 z m 1.71,2.02 q -0.17,0 -0.32,-0.067 -0.146,-0.068 -0.256,-0.195 -0.11,-0.13 -0.175,-0.316 -0.062,-0.186 -0.062,-0.424 0,-0.222 0.053,-0.409 0.057,-0.186 0.164,-0.321 0.11,-0.136 0.271,-0.21 0.16,-0.076 0.373,-0.076 0.172,0 0.327,0.063 0.155,0.062 0.27,0.186 0.12,0.124 0.187,0.31 0.068,0.187 0.068,0.435 0,0.203 -0.054,0.384 -0.05,0.18 -0.158,0.321 l 0.161,0.133 q 0.031,0.025 0.057,0.065 0.028,0.037 0.028,0.085 0,0.056 -0.045,0.09 -0.046,0.034 -0.108,0.034 -0.079,0 -0.166,-0.08 l -0.147,-0.126 q -0.096,0.056 -0.212,0.087 -0.115,0.031 -0.256,0.031 z m 0.006,-0.265 q 0.155,0 0.27,-0.062 0.116,-0.065 0.193,-0.17 0.076,-0.104 0.112,-0.24 0.037,-0.138 0.037,-0.281 0,-0.175 -0.048,-0.31 -0.045,-0.14 -0.124,-0.232 -0.08,-0.093 -0.184,-0.141 -0.104,-0.051 -0.222,-0.051 -0.142,0 -0.249,0.059 -0.104,0.06 -0.178,0.16 -0.07,0.102 -0.107,0.24 -0.037,0.136 -0.037,0.291 0,0.167 0.043,0.305 0.042,0.136 0.113,0.232 0.073,0.096 0.172,0.15 0.099,0.05 0.209,0.05 z m 2.388,-0.344 -0.02,0.124 q -0.028,0.175 -0.064,0.254 -0.037,0.079 -0.096,0.079 -0.051,0 -0.082,-0.025 -0.031,-0.026 -0.031,-0.13 0,-0.048 0.006,-0.124 0.006,-0.077 0.02,-0.173 -0.105,0 -0.215,0.003 h -0.214 l -0.017,0.116 q -0.026,0.175 -0.065,0.254 -0.037,0.079 -0.096,0.079 -0.051,0 -0.082,-0.025 -0.031,-0.026 -0.031,-0.13 0,-0.048 0.006,-0.122 0.006,-0.076 0.02,-0.172 -0.082,0 -0.141,-0.003 -0.057,-0.002 -0.093,-0.017 -0.037,-0.014 -0.054,-0.042 -0.017,-0.028 -0.017,-0.076 0,-0.034 0.011,-0.06 0.015,-0.025 0.051,-0.042 0.037,-0.02 0.105,-0.028 0.067,-0.011 0.177,-0.011 l 0.023,-0.158 0.028,-0.158 q -0.07,0 -0.121,-0.006 -0.048,-0.005 -0.082,-0.02 -0.03,-0.014 -0.045,-0.04 -0.014,-0.027 -0.014,-0.073 0,-0.022 0.006,-0.042 0.006,-0.022 0.025,-0.04 0.02,-0.02 0.054,-0.03 0.036,-0.015 0.093,-0.02 l 0.133,-0.009 0.042,-0.228 q 0.02,-0.088 0.04,-0.136 0.02,-0.05 0.042,-0.067 0.025,-0.017 0.062,-0.017 0.067,0 0.099,0.036 0.03,0.034 0.03,0.088 l -0.002,0.011 q 0,0.009 -0.006,0.04 -0.003,0.03 -0.015,0.096 l -0.028,0.175 h 0.212 l 0.217,0.002 0.043,-0.228 q 0.02,-0.088 0.039,-0.136 0.02,-0.05 0.042,-0.067 0.026,-0.017 0.062,-0.017 0.065,0 0.096,0.036 0.034,0.034 0.034,0.085 0,0.006 -0.003,0.014 0,0.009 -0.006,0.04 -0.003,0.03 -0.014,0.096 -0.008,0.064 -0.028,0.183 0.09,0 0.147,0.008 0.056,0.009 0.087,0.026 0.031,0.017 0.042,0.042 0.012,0.026 0.012,0.06 0,0.047 -0.037,0.084 -0.034,0.034 -0.15,0.04 l -0.143,0.005 -0.051,0.33 q 0.076,0 0.124,0.009 0.048,0.006 0.073,0.023 0.029,0.014 0.037,0.042 0.011,0.025 0.011,0.062 0,0.05 -0.036,0.085 -0.034,0.034 -0.15,0.04 z m -0.228,-0.271 0.022,-0.158 0.029,-0.161 q -0.1,0 -0.207,0.003 h -0.217 l -0.05,0.313 q 0.095,0 0.2,0.003 z"
       style="font-weight:400;font-size:2.82200003px;font-family:Sniglet;-inkscape-font-specification:'Sniglet, Normal';font-variant-ligatures:normal;font-variant-caps:normal;font-variant-numeric:normal;font-feature-settings:normal;text-align:start;letter-spacing:0;word-spacing:0;stroke-width:0.78125;fill:#232323;fill-opacity:1"
       aria-label="SYNC SQ#"
       font-weight="400"
       font-size="2.822"
       letter-spacing="0"
       word-spacing="0"
       id="path66"
       inkscape:connector-curvature="0" />
  </g>
  <rect
     rx="0.99000001"
     ry="0.99000001"
     y="50.779499"
     x="4.37888"
     height="3.89504"
     width="12.2112"
     id="rect70"
     style="fill:#333333;stroke:#8c8c8c;stroke-width:0.132;paint-order:stroke markers fill" />
  <g
     style="line-height:1.25;stroke-width:0.78125;fill:#dcdcdc;fill-opacity:1"
     id="g74"
     transform="matrix(1.28,0,0,1.28,0,-0.09666053)">
    <path
       style="font-weight:400;font-size:2.82200003px;font-family:Sniglet;-inkscape-font-specification:'Sniglet, Normal';font-variant-ligatures:normal;font-variant-caps:normal;font-variant-numeric:normal;font-feature-settings:normal;text-align:start;letter-spacing:0;word-spacing:0;fill:#dcdcdc;stroke-width:0.78125;fill-opacity:1"
       d="m 5.99,40.213 c 0.062,0 0.126,0.006 0.192,0.017 a 0.888,0.888 0 0 1 0.18,0.05 c 0.055,0.021 0.1,0.048 0.136,0.08 a 0.143,0.143 0 0 1 0.053,0.11 c 0,0.043 -0.011,0.075 -0.034,0.098 a 0.112,0.112 0 0 1 -0.084,0.034 0.238,0.238 0 0 1 -0.09,-0.017 l -0.09,-0.036 a 0.773,0.773 0 0 0 -0.3,-0.054 0.463,0.463 0 0 0 -0.223,0.056 0.566,0.566 0 0 0 -0.18,0.153 0.71,0.71 0 0 0 -0.125,0.228 0.893,0.893 0 0 0 -0.045,0.288 1,1 0 0 0 0.048,0.328 0.712,0.712 0 0 0 0.124,0.228 0.58,0.58 0 0 0 0.175,0.136 0.596,0.596 0 0 0 0.452,-0.003 0.43,0.43 0 0 0 0.152,-0.12 2.93,2.93 0 0 0 0.003,-0.143 V 41.469 A 0.209,0.209 0 0 0 6.328,41.412 C 6.325,41.397 6.316,41.386 6.3,41.378 A 0.188,0.188 0 0 0 6.232,41.364 1.706,1.706 0 0 0 6.117,41.361 0.413,0.413 0 0 1 5.97,41.339 C 5.933,41.322 5.914,41.287 5.914,41.234 c 0,-0.037 0.01,-0.067 0.028,-0.09 0.02,-0.025 0.062,-0.039 0.124,-0.042 H 6.12 L 6.2,41.099 h 0.157 a 0.44,0.44 0 0 1 0.135,0.017 c 0.034,0.01 0.064,0.032 0.09,0.067 0.014,0.02 0.02,0.052 0.023,0.1 0.004,0.046 0.006,0.1 0.006,0.163 v 0.728 c 0,0.05 -0.014,0.088 -0.043,0.113 A 0.135,0.135 0 0 1 6.475,42.323 0.168,0.168 0 0 1 6.368,42.29 C 6.342,42.27 6.328,42.235 6.328,42.188 v -0.11 a 0.406,0.406 0 0 1 -0.175,0.121 0.717,0.717 0 0 1 -0.25,0.037 0.794,0.794 0 0 1 -0.57,-0.246 0.97,0.97 0 0 1 -0.19,-0.307 1.228,1.228 0 0 1 -0.07,-0.432 c 0,-0.164 0.024,-0.31 0.07,-0.438 a 0.975,0.975 0 0 1 0.198,-0.324 0.82,0.82 0 0 1 0.29,-0.206 0.92,0.92 0 0 1 0.36,-0.07 z M 8.103,42.067 8.041,41.912 A 8.927,8.927 0 0 0 7.973,41.722 L 7.795,41.729 H 7.385 A 4.9,4.9 0 0 1 7.205,41.726 L 7.141,41.912 C 7.12,41.97 7.1,42.022 7.081,42.067 7.044,42.163 6.99,42.211 6.918,42.211 A 0.135,0.135 0 0 1 6.841,42.186 0.089,0.089 0 0 1 6.808,42.112 c 0,-0.032 0.005,-0.073 0.016,-0.124 a 2.19,2.19 0 0 1 0.043,-0.166 l 0.06,-0.184 A 7.1,7.1 0 0 1 6.987,41.46 C 7.005,41.4 7.031,41.324 7.064,41.232 l 0.113,-0.294 0.12,-0.299 a 7.714,7.714 0 0 1 0.134,-0.322 0.396,0.396 0 0 1 0.04,-0.067 0.37,0.37 0 0 1 0.053,-0.054 0.112,0.112 0 0 1 0.068,-0.023 c 0.025,0 0.048,0.01 0.068,0.026 a 0.388,0.388 0 0 1 0.096,0.126 0.46,0.46 0 0 1 0.03,0.066 c 0.03,0.075 0.065,0.162 0.102,0.26 0.04,0.097 0.079,0.196 0.116,0.296 a 11.73,11.73 0 0 1 0.192,0.513 7.134,7.134 0 0 0 0.12,0.36 1.89,1.89 0 0 1 0.064,0.292 0.085,0.085 0 0 1 -0.037,0.074 0.122,0.122 0 0 1 -0.074,0.025 0.147,0.147 0 0 1 -0.093,-0.034 0.301,0.301 0 0 1 -0.073,-0.11 z m -0.5,-0.62 c 0.046,0 0.09,0 0.136,0.002 0.046,0 0.09,0.001 0.135,0.003 L 7.807,41.254 7.742,41.065 7.688,40.899 7.648,40.761 A 0.22,0.22 0 0 0 7.623,40.701 0.042,0.042 0 0 0 7.586,40.679 c -0.014,0 -0.026,0.008 -0.036,0.025 a 0.306,0.306 0 0 0 -0.026,0.06 31.551,31.551 0 0 1 -0.223,0.688 l 0.153,-0.003 0.15,-0.003 z m 1.876,-0.952 c -0.053,0.004 -0.11,0.007 -0.17,0.008 l -0.194,0.006 0.005,0.144 0.006,0.133 c 0.002,0.045 0.003,0.091 0.003,0.14 0.002,0.05 0.003,0.104 0.003,0.164 v 0.246 c 0,0.077 0,0.155 -0.003,0.234 L 9.123,41.804 9.115,42.05 a 0.462,0.462 0 0 1 -0.014,0.104 0.138,0.138 0 0 1 -0.026,0.057 0.058,0.058 0 0 1 -0.04,0.022 0.19,0.19 0 0 1 -0.05,0.006 0.128,0.128 0 0 1 -0.088,-0.034 C 8.875,42.181 8.862,42.13 8.857,42.053 A 6.709,6.709 0 0 1 8.849,41.839 L 8.847,41.596 C 8.845,41.509 8.844,41.416 8.844,41.316 V 40.71 a 7.22,7.22 0 0 1 0.008,-0.2 H 8.737 A 4.02,4.02 0 0 1 8.533,40.506 0.855,0.855 0 0 1 8.398,40.492 0.156,0.156 0 0 1 8.318,40.45 0.123,0.123 0 0 1 8.296,40.37 c 0,-0.017 0.002,-0.03 0.006,-0.044 a 0.08,0.08 0 0 1 0.025,-0.04 0.124,0.124 0 0 1 0.054,-0.03 0.47,0.47 0 0 1 0.093,-0.018 L 8.57,40.232 8.655,40.226 c 0.028,-0.002 0.057,-0.003 0.087,-0.003 h 0.105 a 9.274,9.274 0 0 1 0.629,0.015 c 0.046,0.004 0.08,0.01 0.104,0.016 a 0.122,0.122 0 0 1 0.057,0.026 0.055,0.055 0 0 1 0.022,0.04 0.19,0.19 0 0 1 0.006,0.05 0.11,0.11 0 0 1 -0.037,0.085 c -0.022,0.023 -0.072,0.036 -0.15,0.04 z m 0.402,1.287 A 8.25,8.25 0 0 1 9.864,41.217 v -0.19 L 9.87,40.82 c 0.003,-0.14 0.012,-0.25 0.025,-0.328 a 0.328,0.328 0 0 1 0.085,-0.178 0.318,0.318 0 0 1 0.18,-0.073 c 0.078,-0.01 0.18,-0.014 0.308,-0.014 h 0.06 l 0.14,0.003 0.17,0.003 0.15,0.006 c 0.04,0.004 0.074,0.01 0.098,0.017 a 0.132,0.132 0 0 1 0.06,0.025 c 0.013,0.01 0.02,0.022 0.025,0.037 a 0.204,0.204 0 0 1 0.005,0.045 c 0,0.043 -0.012,0.075 -0.037,0.096 -0.024,0.02 -0.074,0.031 -0.15,0.037 a 2.025,2.025 0 0 1 -0.166,0.008 h -0.22 c -0.075,0 -0.143,0.001 -0.203,0.003 h -0.113 c -0.048,0.002 -0.083,0.013 -0.104,0.034 -0.018,0.02 -0.028,0.065 -0.028,0.138 l 0.002,0.124 c 0.004,0.064 0.006,0.154 0.006,0.271 h 0.234 c 0.1,0 0.18,0.002 0.243,0.006 a 0.67,0.67 0 0 1 0.147,0.017 c 0.036,0.01 0.06,0.024 0.073,0.045 a 0.19,0.19 0 0 1 0.014,0.13 0.06,0.06 0 0 1 -0.022,0.037 0.2,0.2 0 0 1 -0.057,0.025 0.91,0.91 0 0 1 -0.104,0.014 3.363,3.363 0 0 1 -0.155,0.008 h -0.38 v 0.345 l 0.007,0.096 a 0.46,0.46 0 0 0 0.01,0.076 0.12,0.12 0 0 0 0.038,0.05 0.194,0.194 0 0 0 0.08,0.03 c 0.035,0.004 0.082,0.007 0.14,0.007 h 0.607 c 0.066,0 0.108,0.012 0.124,0.036 a 0.176,0.176 0 0 1 0.025,0.1 c 0,0.033 -0.007,0.06 -0.022,0.078 -0.015,0.017 -0.052,0.03 -0.11,0.037 a 1.81,1.81 0 0 1 -0.257,0.017 c -0.113,0.002 -0.27,0.003 -0.47,0.003 A 0.78,0.78 0 0 1 10.121,42.208 0.277,0.277 0 0 1 9.988,42.132 0.353,0.353 0 0 1 9.912,41.994 1.14,1.14 0 0 1 9.882,41.782 Z"
       word-spacing="0"
       letter-spacing="0"
       font-size="2.822"
       font-weight="400"
       aria-label="GATE 1"
       id="path72"
       inkscape:connector-curvature="0" />
  </g>
  <rect
     width="10.784"
     height="3.89504"
     x="19.918089"
     y="50.76926"
     ry="0.99000001"
     rx="0.99000001"
     id="rect76"
     style="fill:#333333;stroke:#8c8c8c;stroke-width:0.132;paint-order:stroke markers fill" />
  <g
     style="line-height:1.25;stroke-width:0.78125;fill:#dcdcdc;fill-opacity:1"
     id="g80"
     transform="matrix(1.28,0,0,1.28,-194.0224,35.698539)">
    <path
       aria-label="TIED"
       font-weight="400"
       font-size="2.822"
       letter-spacing="0"
       word-spacing="0"
       d="m 169.938,12.54 q -0.08,0.008 -0.17,0.01 l -0.194,0.006 0.005,0.143 0.006,0.133 q 0.003,0.068 0.003,0.14 0.002,0.075 0.002,0.165 v 0.245 l -0.002,0.235 -0.006,0.234 q -0.003,0.118 -0.009,0.245 -0.002,0.068 -0.014,0.105 -0.008,0.037 -0.025,0.056 -0.017,0.02 -0.04,0.023 -0.022,0.006 -0.05,0.006 -0.051,0 -0.088,-0.034 -0.034,-0.037 -0.04,-0.152 -0.005,-0.102 -0.008,-0.215 0,-0.113 -0.003,-0.243 -0.002,-0.13 -0.002,-0.28 v -0.605 q 0.002,-0.116 0.008,-0.201 h -0.116 q -0.118,0 -0.203,-0.003 -0.082,-0.003 -0.135,-0.014 -0.054,-0.014 -0.08,-0.043 -0.022,-0.028 -0.022,-0.08 0,-0.024 0.006,-0.044 0.005,-0.022 0.025,-0.04 0.02,-0.02 0.054,-0.03 0.036,-0.012 0.093,-0.017 l 0.096,-0.006 0.084,-0.006 q 0.043,-0.003 0.088,-0.003 h 0.104 q 0.167,0 0.314,0.003 0.15,0.003 0.316,0.01 0.067,0.007 0.104,0.018 0.037,0.008 0.057,0.025 0.02,0.017 0.022,0.04 0.006,0.022 0.006,0.05 0,0.05 -0.037,0.085 -0.034,0.034 -0.15,0.04 z m 0.482,1.542 q -0.006,-0.101 -0.009,-0.211 l -0.002,-0.237 q -0.003,-0.127 -0.003,-0.274 v -0.333 q 0,-0.2 0.003,-0.342 0.002,-0.143 0.017,-0.234 0.014,-0.09 0.042,-0.132 0.031,-0.043 0.082,-0.043 0.025,0 0.048,0.006 0.022,0.006 0.04,0.026 0.016,0.017 0.027,0.053 0.015,0.034 0.017,0.09 l 0.009,0.18 0.006,0.159 q 0.002,0.076 0.002,0.16 v 0.43 q 0,0.116 -0.002,0.229 l -0.006,0.228 q -0.003,0.116 -0.009,0.243 -0.002,0.068 -0.014,0.104 -0.011,0.037 -0.028,0.057 -0.017,0.02 -0.04,0.022 -0.022,0.006 -0.05,0.006 -0.051,0 -0.088,-0.033 -0.036,-0.037 -0.042,-0.153 z m 0.664,-0.254 q -0.006,-0.09 -0.012,-0.245 -0.005,-0.155 -0.005,-0.32 v -0.191 l 0.005,-0.206 q 0.006,-0.21 0.026,-0.327 0.022,-0.12 0.084,-0.178 0.065,-0.06 0.181,-0.073 0.116,-0.015 0.308,-0.015 h 0.059 q 0.06,0 0.141,0.003 0.082,0 0.17,0.003 l 0.149,0.006 q 0.062,0.006 0.099,0.017 0.04,0.008 0.059,0.026 0.02,0.014 0.025,0.036 0.006,0.02 0.006,0.046 0,0.065 -0.037,0.096 -0.036,0.028 -0.15,0.036 -0.056,0.006 -0.166,0.008 h -0.22 q -0.113,0 -0.203,0.003 h -0.113 q -0.073,0.003 -0.104,0.034 -0.029,0.028 -0.029,0.138 l 0.003,0.125 q 0.006,0.096 0.006,0.27 h 0.234 q 0.15,0 0.243,0.007 0.096,0.003 0.146,0.016 0.054,0.015 0.074,0.046 0.02,0.03 0.02,0.08 0,0.027 -0.006,0.049 -0.003,0.02 -0.023,0.037 -0.02,0.014 -0.056,0.026 -0.037,0.008 -0.104,0.014 -0.082,0.006 -0.156,0.008 h -0.378 v 0.343 l 0.006,0.097 q 0.003,0.045 0.011,0.076 0.011,0.03 0.037,0.05 0.028,0.02 0.079,0.03 0.053,0.007 0.14,0.007 h 0.608 q 0.098,0 0.124,0.037 0.025,0.037 0.025,0.099 0,0.05 -0.022,0.079 -0.023,0.025 -0.11,0.036 -0.085,0.014 -0.257,0.017 -0.17,0.003 -0.469,0.003 -0.127,0 -0.209,-0.022 -0.081,-0.023 -0.132,-0.077 -0.051,-0.053 -0.076,-0.138 -0.023,-0.087 -0.031,-0.212 z m 2.138,-1.566 q 0.29,0 0.465,0.088 0.175,0.087 0.268,0.23 0.094,0.145 0.122,0.328 0.03,0.184 0.03,0.373 0,0.206 -0.053,0.39 -0.05,0.183 -0.16,0.32 -0.108,0.137 -0.277,0.218 -0.17,0.08 -0.404,0.08 -0.186,0 -0.299,-0.03 -0.11,-0.024 -0.172,-0.078 -0.06,-0.053 -0.08,-0.135 -0.019,-0.082 -0.019,-0.192 v -1.061 q 0,-0.122 0.02,-0.22 0.022,-0.1 0.085,-0.167 0.062,-0.07 0.175,-0.107 0.115,-0.037 0.299,-0.037 z m 0.011,1.744 q 0.175,0 0.288,-0.062 0.116,-0.065 0.183,-0.17 0.068,-0.104 0.093,-0.236 0.029,-0.133 0.029,-0.271 0,-0.127 -0.02,-0.254 -0.02,-0.13 -0.082,-0.234 -0.062,-0.105 -0.178,-0.17 -0.115,-0.065 -0.307,-0.065 -0.175,0 -0.243,0.05 -0.068,0.05 -0.068,0.156 v 1.08 q 0,0.089 0.062,0.134 0.065,0.042 0.243,0.042 z"
       style="font-weight:400;font-size:2.822px;font-family:Sniglet;-inkscape-font-specification:'Sniglet, Normal';font-variant-ligatures:normal;font-variant-caps:normal;font-variant-numeric:normal;font-feature-settings:normal;text-align:start;letter-spacing:0;word-spacing:0;fill:#dcdcdc;stroke-width:0.78125;fill-opacity:1"
       id="path78"
       inkscape:connector-curvature="0" />
  </g>
  <rect
     width="12.58112"
     height="3.89504"
     x="33.916164"
     y="50.733421"
     ry="0.99000001"
     rx="0.99000001"
     id="rect84"
     style="fill:#333333;stroke:#8c8c8c;stroke-width:0.132;paint-order:stroke markers fill" />
  <g
     style="line-height:1.25;stroke-width:0.78125;fill:#dcdcdc;fill-opacity:1"
     id="g88"
     transform="matrix(1.28,0,0,1.28,-162.9504,-14.89858)">
    <path
       aria-label="SLIDE"
       font-weight="400"
       font-size="2.822"
       letter-spacing="0"
       word-spacing="0"
       d="m 156.1,51.766 q 0.079,0 0.18,0.014 0.105,0.011 0.195,0.045 0.09,0.031 0.152,0.085 0.063,0.05 0.063,0.127 0,0.045 -0.026,0.076 -0.025,0.031 -0.082,0.031 -0.042,0 -0.087,-0.017 -0.043,-0.017 -0.1,-0.034 -0.053,-0.02 -0.126,-0.036 -0.07,-0.017 -0.167,-0.017 -0.186,0 -0.276,0.067 -0.088,0.065 -0.088,0.181 0,0.08 0.04,0.133 0.04,0.053 0.104,0.093 0.068,0.037 0.15,0.062 0.085,0.025 0.172,0.048 0.099,0.025 0.195,0.062 0.099,0.037 0.175,0.096 0.076,0.06 0.12,0.15 0.049,0.09 0.049,0.228 0,0.144 -0.054,0.26 -0.053,0.113 -0.146,0.194 -0.093,0.08 -0.223,0.125 -0.13,0.042 -0.282,0.042 -0.085,0 -0.198,-0.017 -0.113,-0.014 -0.214,-0.05 -0.102,-0.04 -0.173,-0.102 -0.07,-0.065 -0.07,-0.158 0,-0.057 0.028,-0.09 0.03,-0.035 0.09,-0.035 0.048,0 0.08,0.02 0.03,0.017 0.053,0.04 0.085,0.073 0.192,0.099 0.107,0.025 0.22,0.025 0.065,0 0.135,-0.008 0.074,-0.011 0.133,-0.042 0.06,-0.031 0.099,-0.088 0.04,-0.06 0.04,-0.158 0,-0.09 -0.037,-0.147 -0.034,-0.059 -0.093,-0.098 -0.06,-0.04 -0.142,-0.065 -0.08,-0.026 -0.172,-0.051 -0.104,-0.028 -0.206,-0.062 -0.101,-0.034 -0.18,-0.09 -0.08,-0.06 -0.13,-0.147 -0.048,-0.09 -0.048,-0.229 0,-0.138 0.05,-0.243 0.05,-0.104 0.139,-0.175 0.087,-0.07 0.206,-0.107 0.12,-0.037 0.26,-0.037 z m 1.236,1.205 v 0.16 q 0,0.069 -0.003,0.13 0,0.063 -0.003,0.125 l -0.005,0.138 0.304,-0.036 0.173,-0.023 0.098,-0.011 q 0.037,-0.003 0.085,-0.003 0.124,0 0.124,0.121 0,0.048 -0.05,0.082 -0.05,0.034 -0.125,0.06 -0.073,0.022 -0.166,0.039 -0.09,0.014 -0.178,0.02 -0.085,0.007 -0.155,0.01 -0.068,0.004 -0.096,0.004 -0.102,0 -0.158,-0.015 -0.057,-0.01 -0.085,-0.073 -0.028,-0.065 -0.037,-0.195 -0.005,-0.13 -0.005,-0.367 v -0.406 q 0,-0.178 0.003,-0.319 l 0.002,-0.251 q 0.003,-0.11 0.009,-0.2 0.005,-0.116 0.04,-0.15 0.033,-0.037 0.084,-0.037 0.028,0 0.048,0.006 0.023,0.003 0.04,0.023 0.016,0.02 0.025,0.056 0.01,0.037 0.014,0.105 0.01,0.248 0.014,0.49 0.003,0.244 0.003,0.517 z m 1.039,0.612 q -0.006,-0.101 -0.01,-0.211 l -0.001,-0.237 q -0.003,-0.127 -0.003,-0.274 v -0.333 q 0,-0.2 0.003,-0.342 0.002,-0.143 0.016,-0.234 0.015,-0.09 0.043,-0.132 0.03,-0.043 0.082,-0.043 0.025,0 0.048,0.006 0.022,0.006 0.04,0.026 0.016,0.017 0.027,0.053 0.014,0.034 0.017,0.09 l 0.009,0.181 0.005,0.158 q 0.003,0.076 0.003,0.161 v 0.429 q 0,0.116 -0.003,0.229 l -0.005,0.228 q -0.003,0.116 -0.01,0.243 -0.002,0.068 -0.013,0.104 -0.011,0.037 -0.028,0.057 -0.017,0.02 -0.04,0.022 -0.022,0.006 -0.05,0.006 -0.051,0 -0.088,-0.033 -0.037,-0.037 -0.042,-0.153 z m 1.225,-1.82 q 0.29,0 0.466,0.088 0.175,0.087 0.268,0.231 0.093,0.144 0.12,0.327 0.032,0.184 0.032,0.373 0,0.206 -0.053,0.39 -0.051,0.183 -0.161,0.321 -0.108,0.136 -0.277,0.217 -0.17,0.08 -0.403,0.08 -0.187,0 -0.3,-0.029 -0.11,-0.025 -0.172,-0.079 -0.06,-0.053 -0.08,-0.135 -0.02,-0.082 -0.02,-0.192 v -1.061 q 0,-0.122 0.02,-0.22 0.024,-0.1 0.086,-0.167 0.062,-0.07 0.175,-0.107 0.116,-0.037 0.3,-0.037 z m 0.01,1.744 q 0.176,0 0.289,-0.062 0.116,-0.065 0.184,-0.17 0.067,-0.104 0.093,-0.236 0.028,-0.133 0.028,-0.271 0,-0.127 -0.02,-0.254 -0.02,-0.13 -0.082,-0.234 -0.062,-0.105 -0.177,-0.17 -0.116,-0.065 -0.308,-0.065 -0.175,0 -0.243,0.051 -0.067,0.05 -0.067,0.155 v 1.081 q 0,0.088 0.062,0.133 0.065,0.042 0.242,0.042 z m 1.176,-0.178 q -0.006,-0.09 -0.012,-0.245 -0.005,-0.155 -0.005,-0.319 v -0.192 l 0.005,-0.206 q 0.006,-0.209 0.026,-0.327 0.022,-0.119 0.085,-0.178 0.064,-0.06 0.18,-0.073 0.116,-0.015 0.308,-0.015 h 0.06 q 0.058,0 0.14,0.003 0.082,0 0.17,0.003 l 0.15,0.006 q 0.06,0.006 0.098,0.017 0.04,0.008 0.06,0.026 0.019,0.014 0.025,0.036 0.005,0.02 0.005,0.046 0,0.065 -0.037,0.096 -0.036,0.028 -0.15,0.036 -0.056,0.006 -0.166,0.008 h -0.22 q -0.113,0 -0.203,0.003 h -0.113 q -0.073,0.003 -0.104,0.034 -0.028,0.028 -0.028,0.138 l 0.002,0.125 q 0.006,0.096 0.006,0.27 h 0.234 q 0.15,0 0.243,0.007 0.096,0.003 0.147,0.016 0.053,0.015 0.073,0.046 0.02,0.03 0.02,0.081 0,0.026 -0.006,0.048 -0.003,0.02 -0.022,0.037 -0.02,0.014 -0.057,0.026 -0.037,0.008 -0.104,0.014 -0.082,0.006 -0.156,0.008 h -0.378 v 0.343 l 0.006,0.097 q 0.003,0.045 0.01,0.076 0.012,0.031 0.038,0.05 0.028,0.02 0.079,0.03 0.054,0.007 0.14,0.007 h 0.608 q 0.099,0 0.124,0.037 0.025,0.037 0.025,0.099 0,0.05 -0.022,0.079 -0.023,0.025 -0.11,0.036 -0.085,0.014 -0.257,0.017 -0.17,0.003 -0.47,0.003 -0.126,0 -0.207,-0.022 -0.082,-0.023 -0.133,-0.077 -0.05,-0.053 -0.076,-0.138 -0.023,-0.087 -0.031,-0.212 z"
       style="font-weight:400;font-size:2.822px;font-family:Sniglet;-inkscape-font-specification:'Sniglet, Normal';font-variant-ligatures:normal;font-variant-caps:normal;font-variant-numeric:normal;font-feature-settings:normal;text-align:start;letter-spacing:0;word-spacing:0;fill:#dcdcdc;stroke-width:0.78125;fill-opacity:1"
       id="path86"
       inkscape:connector-curvature="0" />
  </g>
  <rect
     width="13.46944"
     height="3.89504"
     x="3.7567909"
     y="67.419495"
     ry="0.99000001"
     rx="0.99000001"
     id="rect92"
     style="fill:#333333;stroke:#8c8c8c;stroke-width:0.132;paint-order:stroke markers fill" />
  <g
     style="line-height:1.25;stroke-width:0.78125;fill:#dcdcdc;fill-opacity:1"
     id="g96"
     transform="matrix(1.28,0,0,1.28,-251.15776,0.66877945)">
    <path
       aria-label="GATE 2"
       font-weight="400"
       font-size="2.822"
       letter-spacing="0"
       word-spacing="0"
       d="m 201.412,52.634 c 0.062,0 0.126,0.006 0.192,0.017 a 0.803,0.803 0 0 1 0.18,0.05 c 0.055,0.022 0.1,0.048 0.136,0.08 a 0.144,0.144 0 0 1 0.054,0.11 c 0,0.044 -0.011,0.077 -0.034,0.099 a 0.115,0.115 0 0 1 -0.085,0.034 0.238,0.238 0 0 1 -0.09,-0.017 l -0.09,-0.037 a 0.814,0.814 0 0 0 -0.3,-0.053 0.463,0.463 0 0 0 -0.222,0.056 0.571,0.571 0 0 0 -0.18,0.152 0.707,0.707 0 0 0 -0.125,0.23 0.884,0.884 0 0 0 -0.045,0.287 c 0,0.126 0.016,0.235 0.048,0.327 a 0.71,0.71 0 0 0 0.124,0.23 0.491,0.491 0 0 0 0.372,0.178 0.58,0.58 0 0 0 0.254,-0.047 0.445,0.445 0 0 0 0.153,-0.12 c 0.002,-0.04 0.003,-0.087 0.003,-0.142 V 53.89 a 0.204,0.204 0 0 0 -0.006,-0.056 0.051,0.051 0 0 0 -0.028,-0.034 0.195,0.195 0 0 0 -0.068,-0.014 1.727,1.727 0 0 0 -0.116,-0.003 0.39,0.39 0 0 1 -0.146,-0.023 c -0.038,-0.016 -0.057,-0.05 -0.057,-0.104 0,-0.038 0.01,-0.068 0.028,-0.09 0.02,-0.024 0.062,-0.04 0.125,-0.043 h 0.053 c 0.027,-0.002 0.054,-0.003 0.082,-0.003 h 0.155 c 0.057,0 0.102,0.006 0.136,0.017 0.033,0.01 0.063,0.032 0.09,0.068 0.013,0.02 0.02,0.052 0.023,0.1 0.003,0.046 0.005,0.1 0.005,0.162 v 0.728 c 0,0.052 -0.014,0.09 -0.042,0.113 a 0.133,0.133 0 0 1 -0.093,0.037 0.165,0.165 0 0 1 -0.107,-0.034 c -0.027,-0.02 -0.04,-0.053 -0.04,-0.1 v -0.11 a 0.41,0.41 0 0 1 -0.175,0.12 0.708,0.708 0 0 1 -0.25,0.037 0.781,0.781 0 0 1 -0.57,-0.246 0.981,0.981 0 0 1 -0.19,-0.308 1.22,1.22 0 0 1 -0.07,-0.43 c 0,-0.165 0.022,-0.31 0.07,-0.44 a 0.982,0.982 0 0 1 0.197,-0.323 0.82,0.82 0 0 1 0.29,-0.206 0.91,0.91 0 0 1 0.36,-0.07 z m 2.114,1.855 a 5.102,5.102 0 0 1 -0.063,-0.156 5.523,5.523 0 0 0 -0.067,-0.19 l -0.178,0.007 h -0.41 c -0.065,0 -0.125,0 -0.18,-0.003 l -0.065,0.186 c -0.02,0.06 -0.04,0.11 -0.06,0.156 -0.037,0.096 -0.092,0.144 -0.163,0.144 a 0.128,0.128 0 0 1 -0.076,-0.026 0.085,0.085 0 0 1 -0.034,-0.073 0.62,0.62 0 0 1 0.017,-0.124 2.04,2.04 0 0 1 0.042,-0.167 l 0.06,-0.183 c 0.02,-0.064 0.04,-0.123 0.06,-0.178 0.018,-0.06 0.044,-0.136 0.078,-0.23 l 0.113,-0.292 0.118,-0.3 a 9.96,9.96 0 0 1 0.136,-0.32 0.38,0.38 0 0 1 0.04,-0.07 0.398,0.398 0 0 1 0.053,-0.052 0.112,0.112 0 0 1 0.068,-0.023 0.11,0.11 0 0 1 0.067,0.025 0.419,0.419 0 0 1 0.096,0.127 0.607,0.607 0 0 1 0.03,0.065 c 0.03,0.076 0.066,0.162 0.103,0.26 0.04,0.098 0.079,0.197 0.116,0.296 a 11.971,11.971 0 0 1 0.192,0.514 7.134,7.134 0 0 0 0.118,0.358 1.89,1.89 0 0 1 0.065,0.294 0.082,0.082 0 0 1 -0.037,0.073 0.115,0.115 0 0 1 -0.073,0.026 0.147,0.147 0 0 1 -0.093,-0.034 0.301,0.301 0 0 1 -0.073,-0.11 z m -0.5,-0.62 c 0.045,0 0.09,0 0.135,0.002 l 0.136,0.003 -0.068,-0.198 -0.065,-0.19 -0.053,-0.166 -0.04,-0.138 a 0.246,0.246 0 0 0 -0.025,-0.06 0.042,0.042 0 0 0 -0.037,-0.022 c -0.015,0 -0.027,0.01 -0.037,0.026 a 0.249,0.249 0 0 0 -0.025,0.06 9.2,9.2 0 0 1 -0.096,0.3 l -0.127,0.388 c 0.05,-0.002 0.1,-0.003 0.152,-0.003 l 0.15,-0.003 z m 1.876,-0.952 c -0.053,0.004 -0.11,0.007 -0.17,0.008 l -0.194,0.006 0.005,0.143 0.006,0.133 a 7.916,7.916 0 0 1 0.005,0.305 v 0.245 l -0.002,0.235 -0.006,0.234 -0.01,0.245 a 0.381,0.381 0 0 1 -0.013,0.105 0.119,0.119 0 0 1 -0.025,0.056 0.062,0.062 0 0 1 -0.04,0.023 0.19,0.19 0 0 1 -0.05,0.006 0.126,0.126 0 0 1 -0.088,-0.034 c -0.023,-0.024 -0.036,-0.075 -0.04,-0.152 a 12.123,12.123 0 0 1 -0.013,-0.737 v -0.606 a 3.46,3.46 0 0 1 0.008,-0.2 h -0.116 a 5.87,5.87 0 0 1 -0.203,-0.004 0.837,0.837 0 0 1 -0.135,-0.014 0.157,0.157 0 0 1 -0.08,-0.043 0.125,0.125 0 0 1 -0.022,-0.08 c 0,-0.015 0.002,-0.03 0.006,-0.044 a 0.075,0.075 0 0 1 0.025,-0.04 0.124,0.124 0 0 1 0.054,-0.03 0.416,0.416 0 0 1 0.093,-0.017 l 0.096,-0.006 0.084,-0.006 c 0.029,-0.002 0.058,-0.003 0.088,-0.003 h 0.104 a 15.436,15.436 0 0 1 0.63,0.014 c 0.045,0.004 0.08,0.01 0.104,0.017 a 0.129,0.129 0 0 1 0.057,0.025 c 0.013,0.012 0.02,0.025 0.022,0.04 a 0.19,0.19 0 0 1 0.006,0.05 0.11,0.11 0 0 1 -0.037,0.085 c -0.023,0.023 -0.073,0.036 -0.15,0.04 z m 0.4,1.286 a 11.142,11.142 0 0 1 -0.015,-0.564 v -0.192 l 0.005,-0.206 c 0.004,-0.14 0.013,-0.248 0.026,-0.327 a 0.319,0.319 0 0 1 0.084,-0.178 0.309,0.309 0 0 1 0.18,-0.073 c 0.078,-0.01 0.18,-0.015 0.308,-0.015 h 0.06 l 0.14,0.003 0.17,0.003 0.15,0.006 a 0.62,0.62 0 0 1 0.1,0.017 0.118,0.118 0 0 1 0.058,0.026 c 0.013,0.01 0.022,0.022 0.025,0.036 a 0.16,0.16 0 0 1 0.006,0.046 c 0,0.044 -0.012,0.076 -0.037,0.096 -0.025,0.02 -0.075,0.03 -0.15,0.036 a 2.025,2.025 0 0 1 -0.166,0.008 h -0.22 c -0.075,0 -0.143,0 -0.203,0.003 h -0.113 c -0.05,0.002 -0.084,0.014 -0.105,0.034 -0.02,0.02 -0.028,0.065 -0.028,0.138 l 0.003,0.125 c 0.004,0.064 0.006,0.154 0.006,0.27 h 0.234 c 0.1,0 0.18,0.003 0.243,0.007 a 0.716,0.716 0 0 1 0.146,0.016 c 0.036,0.01 0.06,0.026 0.074,0.046 0.013,0.02 0.02,0.047 0.02,0.08 a 0.182,0.182 0 0 1 -0.006,0.049 0.063,0.063 0 0 1 -0.023,0.037 0.222,0.222 0 0 1 -0.056,0.026 0.914,0.914 0 0 1 -0.105,0.014 3.269,3.269 0 0 1 -0.155,0.008 h -0.378 v 0.343 l 0.006,0.097 a 0.37,0.37 0 0 0 0.01,0.076 0.11,0.11 0 0 0 0.038,0.05 0.204,0.204 0 0 0 0.08,0.03 c 0.034,0.005 0.08,0.007 0.14,0.007 h 0.606 c 0.067,0 0.108,0.013 0.125,0.037 a 0.174,0.174 0 0 1 0.025,0.1 0.12,0.12 0 0 1 -0.023,0.078 c -0.015,0.017 -0.051,0.03 -0.11,0.036 a 1.91,1.91 0 0 1 -0.256,0.017 c -0.113,0.002 -0.27,0.003 -0.47,0.003 a 0.824,0.824 0 0 1 -0.208,-0.022 0.277,0.277 0 0 1 -0.132,-0.077 0.337,0.337 0 0 1 -0.077,-0.138 1.183,1.183 0 0 1 -0.03,-0.212 z"
       style="font-weight:400;font-size:2.822px;font-family:Sniglet;-inkscape-font-specification:'Sniglet, Normal';font-variant-ligatures:normal;font-variant-caps:normal;font-variant-numeric:normal;font-feature-settings:normal;text-align:start;letter-spacing:0;word-spacing:0;fill:#dcdcdc;stroke-width:0.78125;fill-opacity:1"
       id="path94"
       inkscape:connector-curvature="0" />
  </g>
  <g
     style="line-height:1.25;-inkscape-font-specification:'Times New Roman, Italic';font-variant-ligatures:normal;font-variant-caps:normal;font-variant-numeric:normal;font-feature-settings:normal;text-align:start;stroke-width:0.78125;fill:#dcdcdc;fill-opacity:1"
     id="g100"
     transform="matrix(1.28,0,0,1.28,-251.15776,0.66877945)">
    <path
       style="font-style:italic;font-weight:400;font-size:2.822px;font-family:'Times New Roman';-inkscape-font-specification:'Times New Roman, Italic';font-variant-ligatures:normal;font-variant-caps:normal;font-variant-numeric:normal;font-feature-settings:normal;text-align:start;letter-spacing:0;word-spacing:0;fill:#dcdcdc;stroke-width:0.78125;fill-opacity:1"
       d="m 207.728,52.757 -0.095,0.317 q 0.15,-0.176 0.267,-0.246 0.12,-0.07 0.242,-0.07 0.122,0 0.21,0.097 0.086,0.097 0.086,0.252 0,0.303 -0.247,0.618 -0.246,0.312 -0.574,0.312 -0.07,0 -0.123,-0.015 -0.052,-0.015 -0.12,-0.053 l -0.1,0.355 q -0.03,0.105 -0.03,0.137 0,0.03 0.016,0.05 0.016,0.023 0.052,0.034 0.036,0.012 0.142,0.012 l -0.012,0.05 h -0.65 l 0.014,-0.05 q 0.128,-0.006 0.174,-0.044 0.044,-0.04 0.094,-0.214 l 0.348,-1.207 q 0.032,-0.114 0.032,-0.142 0,-0.037 -0.022,-0.058 -0.02,-0.02 -0.065,-0.02 -0.04,0 -0.11,0.01 v -0.054 z m -0.32,1.103 q 0.085,0.102 0.23,0.102 0.07,0 0.145,-0.04 0.075,-0.04 0.145,-0.12 0.072,-0.077 0.128,-0.18 0.057,-0.103 0.1,-0.242 0.046,-0.14 0.046,-0.275 0,-0.11 -0.05,-0.17 -0.05,-0.058 -0.118,-0.058 -0.15,0 -0.295,0.17 -0.144,0.17 -0.212,0.4 z"
       aria-label="p"
       font-style="italic"
       font-weight="400"
       font-size="2.822"
       letter-spacing="0"
       word-spacing="0"
       id="path98"
       inkscape:connector-curvature="0" />
  </g>
  <rect
     rx="0.99000001"
     ry="0.99000001"
     y="14.194544"
     x="33.982719"
     height="3.89504"
     width="12.58112"
     id="rect104"
     style="fill:#333333;stroke:#8c8c8c;stroke-width:0.132;paint-order:stroke markers fill" />
  <g
     style="line-height:1.25;stroke-width:0.78125;fill:#dcdcdc;fill-opacity:1"
     id="g108"
     transform="matrix(1.28,0,0,1.28,-162.9056,-85.304978)">
    <path
       word-spacing="0"
       letter-spacing="0"
       font-size="2.822"
       font-weight="400"
       aria-label="TRACK"
       d="m 155.986,78.492 q -0.079,0.006 -0.17,0.009 l -0.194,0.006 0.006,0.143 0.006,0.133 q 0.003,0.068 0.003,0.141 0.003,0.074 0.003,0.164 v 0.245 q 0,0.116 -0.003,0.235 l -0.006,0.234 -0.008,0.245 q -0.003,0.068 -0.014,0.105 -0.008,0.037 -0.025,0.056 -0.017,0.02 -0.04,0.023 -0.022,0.005 -0.05,0.005 -0.051,0 -0.088,-0.033 -0.034,-0.037 -0.04,-0.153 -0.006,-0.101 -0.008,-0.214 0,-0.113 -0.003,-0.243 -0.003,-0.13 -0.003,-0.28 v -0.606 q 0.003,-0.116 0.008,-0.2 h -0.115 q -0.119,0 -0.204,-0.003 -0.081,-0.003 -0.135,-0.014 -0.054,-0.015 -0.079,-0.043 -0.023,-0.028 -0.023,-0.079 0,-0.025 0.006,-0.045 0.006,-0.023 0.026,-0.04 0.02,-0.02 0.053,-0.03 0.037,-0.012 0.094,-0.017 l 0.096,-0.006 0.084,-0.006 q 0.043,-0.002 0.088,-0.002 h 0.104 q 0.167,0 0.313,0.002 0.15,0.003 0.316,0.012 0.068,0.005 0.105,0.017 0.037,0.008 0.056,0.025 0.02,0.017 0.023,0.04 0.006,0.022 0.006,0.05 0,0.051 -0.037,0.085 -0.034,0.034 -0.15,0.04 z m 1.037,1.022 -0.082,0.006 h -0.178 q -0.048,0 -0.107,-0.006 v 0.573 q 0,0.09 -0.045,0.113 -0.042,0.02 -0.107,0.02 -0.034,0 -0.054,-0.006 -0.02,-0.003 -0.034,-0.014 -0.011,-0.014 -0.02,-0.04 -0.006,-0.025 -0.008,-0.07 -0.006,-0.05 -0.008,-0.147 l -0.006,-0.254 q 0,-0.155 -0.003,-0.375 v -0.522 q 0,-0.116 0.029,-0.223 0.028,-0.11 0.101,-0.192 0.074,-0.085 0.198,-0.136 0.127,-0.05 0.322,-0.05 0.138,0 0.268,0.03 0.132,0.032 0.234,0.108 0.101,0.076 0.164,0.206 0.062,0.13 0.062,0.324 0,0.26 -0.113,0.404 -0.11,0.141 -0.305,0.2 l 0.378,0.52 q 0.051,0.067 0.051,0.138 0,0.056 -0.04,0.087 -0.036,0.034 -0.093,0.034 -0.062,0 -0.107,-0.034 -0.045,-0.036 -0.085,-0.093 z m 0.443,-0.658 q 0,-0.194 -0.118,-0.287 -0.116,-0.096 -0.37,-0.096 -0.093,0 -0.155,0.017 -0.062,0.014 -0.099,0.056 -0.037,0.042 -0.054,0.119 -0.014,0.073 -0.014,0.189 v 0.192 q 0,0.11 0.003,0.2 0.065,0.003 0.144,0.003 h 0.153 q 0.079,0 0.166,-0.009 0.09,-0.011 0.167,-0.05 0.076,-0.043 0.127,-0.12 0.05,-0.078 0.05,-0.214 z m 1.73,1.208 q -0.028,-0.067 -0.062,-0.155 -0.03,-0.09 -0.067,-0.189 l -0.178,0.006 h -0.41 q -0.098,0 -0.18,-0.003 l -0.065,0.186 q -0.031,0.088 -0.06,0.155 -0.056,0.144 -0.163,0.144 -0.04,0 -0.076,-0.025 -0.034,-0.025 -0.034,-0.073 0,-0.048 0.017,-0.125 0.017,-0.079 0.042,-0.166 0.028,-0.09 0.06,-0.184 0.03,-0.096 0.059,-0.177 0.028,-0.09 0.079,-0.229 0.053,-0.141 0.113,-0.294 l 0.118,-0.299 q 0.06,-0.15 0.107,-0.26 0.012,-0.028 0.029,-0.061 0.016,-0.037 0.04,-0.068 0.024,-0.031 0.053,-0.054 0.03,-0.022 0.067,-0.022 0.037,0 0.068,0.025 0.031,0.023 0.054,0.056 0.025,0.034 0.042,0.071 0.02,0.037 0.031,0.065 l 0.102,0.26 q 0.059,0.146 0.115,0.296 0.06,0.15 0.11,0.285 0.051,0.135 0.082,0.229 l 0.057,0.175 q 0.034,0.093 0.062,0.183 0.028,0.09 0.045,0.17 0.02,0.076 0.02,0.124 0,0.048 -0.037,0.073 -0.034,0.025 -0.073,0.025 -0.051,0 -0.093,-0.034 -0.043,-0.036 -0.074,-0.11 z m -0.5,-0.62 0.136,0.002 q 0.068,0 0.136,0.003 l -0.068,-0.197 -0.065,-0.19 -0.053,-0.166 -0.04,-0.138 q -0.011,-0.037 -0.025,-0.06 -0.014,-0.022 -0.037,-0.022 -0.023,0 -0.037,0.025 -0.014,0.023 -0.025,0.06 -0.034,0.115 -0.096,0.301 l -0.127,0.387 q 0.076,-0.003 0.152,-0.003 l 0.15,-0.002 z m 1.754,-1.234 q 0.093,0 0.186,0.017 0.096,0.014 0.173,0.048 0.076,0.031 0.124,0.08 0.05,0.044 0.05,0.106 0,0.065 -0.033,0.1 -0.034,0.033 -0.085,0.033 -0.048,0 -0.085,-0.014 -0.036,-0.017 -0.084,-0.037 -0.046,-0.02 -0.11,-0.034 -0.065,-0.017 -0.173,-0.017 -0.107,0 -0.206,0.057 -0.096,0.053 -0.169,0.152 -0.07,0.096 -0.113,0.229 -0.042,0.132 -0.042,0.288 0,0.192 0.048,0.33 0.05,0.138 0.13,0.229 0.079,0.087 0.177,0.132 0.102,0.042 0.204,0.042 0.121,0 0.203,-0.025 0.082,-0.025 0.138,-0.056 0.06,-0.031 0.102,-0.057 0.042,-0.025 0.082,-0.025 0.048,0 0.076,0.028 0.028,0.025 0.028,0.093 0,0.057 -0.045,0.116 -0.043,0.056 -0.127,0.104 -0.082,0.045 -0.198,0.076 -0.116,0.029 -0.26,0.029 -0.158,0 -0.316,-0.062 -0.155,-0.062 -0.279,-0.184 -0.121,-0.124 -0.198,-0.307 -0.076,-0.187 -0.076,-0.432 0,-0.246 0.068,-0.438 0.07,-0.192 0.189,-0.324 0.121,-0.136 0.28,-0.206 0.16,-0.07 0.34,-0.07 z m 0.885,1.823 q -0.006,-0.101 -0.008,-0.211 0,-0.11 -0.003,-0.237 -0.003,-0.127 -0.003,-0.274 v -0.333 q 0,-0.2 0.003,-0.342 0.003,-0.144 0.014,-0.234 0.014,-0.09 0.043,-0.133 0.028,-0.042 0.079,-0.042 0.048,0 0.084,0.031 0.037,0.031 0.043,0.144 0.006,0.102 0.008,0.18 l 0.006,0.159 q 0.003,0.076 0.003,0.16 v 0.335 l 0.604,-0.692 q 0.118,-0.135 0.183,-0.178 0.065,-0.045 0.113,-0.045 0.056,0 0.082,0.028 0.028,0.029 0.028,0.071 0,0.017 -0.006,0.034 -0.006,0.017 -0.025,0.048 -0.017,0.028 -0.054,0.073 -0.037,0.043 -0.099,0.11 l -0.392,0.426 0.618,0.881 q 0.022,0.031 0.034,0.065 0.014,0.034 0.014,0.065 0,0.053 -0.031,0.087 -0.028,0.037 -0.102,0.037 -0.06,0 -0.107,-0.034 -0.045,-0.03 -0.085,-0.093 l -0.536,-0.793 -0.243,0.265 -0.006,0.215 -0.008,0.226 q -0.003,0.067 -0.014,0.104 -0.008,0.037 -0.025,0.056 -0.017,0.02 -0.04,0.023 -0.02,0.006 -0.048,0.006 -0.05,0 -0.084,-0.034 -0.034,-0.037 -0.04,-0.153 z"
       style="font-weight:400;font-size:2.822px;font-family:Sniglet;-inkscape-font-specification:'Sniglet, Normal';font-variant-ligatures:normal;font-variant-caps:normal;font-variant-numeric:normal;font-feature-settings:normal;text-align:start;letter-spacing:0;word-spacing:0;fill:#dcdcdc;stroke-width:0.78125;fill-opacity:1"
       id="path106"
       inkscape:connector-curvature="0" />
  </g>
  <rect
     rx="0.99000001"
     ry="0.99000001"
     y="67.415665"
     x="18.648321"
     height="3.89504"
     width="13.46944"
     id="rect112"
     style="fill:#333333;stroke:#8c8c8c;stroke-width:0.132;paint-order:stroke markers fill" />
  <path
     d="m 21.3376,68.076141 q 0.1024,0 0.23296,0.01664 0.13312,0.01536 0.24832,0.05888 0.1152,0.0384 0.19584,0.10752 0.07936,0.06528 0.07936,0.16256 0,0.0576 -0.03328,0.09856 -0.032,0.0384 -0.10368,0.0384 -0.05504,0 -0.11264,-0.02048 -0.05376,-0.02176 -0.12672,-0.04352 -0.06784,-0.0256 -0.16256,-0.04736 -0.0896,-0.02176 -0.21248,-0.02176 -0.23808,0 -0.35456,0.08704 -0.11136,0.0832 -0.11136,0.2304 0,0.1024 0.0512,0.17024 0.04992,0.06912 0.13312,0.11904 0.08576,0.04736 0.192,0.07936 0.10752,0.03328 0.21888,0.06144 0.128,0.03328 0.2496,0.07936 0.12672,0.04736 0.224,0.12288 0.09728,0.0768 0.15488,0.192 0.06144,0.1152 0.06144,0.29312 0,0.18432 -0.06784,0.3328 -0.06912,0.14336 -0.18816,0.24832 -0.11904,0.10112 -0.28544,0.15872 -0.1664,0.05376 -0.36096,0.05376 -0.1088,0 -0.25344,-0.02048 -0.14464,-0.0192 -0.27392,-0.06528 -0.13056,-0.0512 -0.22016,-0.13056 -0.0896,-0.0832 -0.0896,-0.20224 0,-0.07168 0.03456,-0.1152 0.03968,-0.04352 0.1152,-0.04352 0.06272,0 0.1024,0.0256 0.0384,0.02176 0.06784,0.0512 0.1088,0.09344 0.24576,0.12544 0.13696,0.032 0.2816,0.032 0.0832,0 0.17408,-0.01024 0.09344,-0.01408 0.16896,-0.05376 0.0768,-0.04096 0.128,-0.11264 0.04992,-0.0768 0.04992,-0.20224 0,-0.1152 -0.04736,-0.18816 -0.04352,-0.07552 -0.11904,-0.12672 -0.0768,-0.0512 -0.18048,-0.08192 -0.1024,-0.03328 -0.22016,-0.06528 -0.1344,-0.03584 -0.26368,-0.07936 -0.13056,-0.04352 -0.23168,-0.1152 -0.10112,-0.0768 -0.1664,-0.18816 -0.06144,-0.1152 -0.06144,-0.29312 0,-0.17664 0.064,-0.31104 0.06656,-0.13312 0.1792,-0.224 0.11136,-0.0896 0.2624,-0.13696 0.15616,-0.04736 0.3328,-0.04736 z m 2.62784,0.35328 q -0.1024,0.0077 -0.2176,0.01024 l -0.24832,0.0077 0.0077,0.18432 0.0077,0.17024 q 0.0038,0.08576 0.0038,0.1792 0.0038,0.09472 0.0038,0.20992 v 0.31488 q 0,0.14848 -0.0038,0.29952 l -0.0077,0.29952 -0.01024,0.31488 q -0.0038,0.08704 -0.01792,0.13312 -0.01024,0.04736 -0.03328,0.07296 -0.02176,0.0256 -0.0512,0.02816 -0.02816,0.0077 -0.064,0.0077 -0.064,0 -0.11264,-0.04352 -0.04224,-0.04736 -0.0512,-0.19456 -0.0064,-0.13056 -0.009,-0.2752 0,-0.14464 -0.0038,-0.30976 -0.0038,-0.1664 -0.0038,-0.3584 v -0.77568 q 0.0038,-0.14848 0.01024,-0.25728 H 23.0157 q -0.15104,0 -0.25984,-0.0038 -0.10496,-0.0038 -0.1728,-0.01792 -0.06912,-0.01792 -0.1024,-0.05376 -0.02816,-0.03584 -0.02816,-0.1024 0,-0.032 0.0077,-0.05632 0.0077,-0.02944 0.032,-0.0512 0.0256,-0.0256 0.06912,-0.03968 0.04736,-0.01408 0.11904,-0.02176 l 0.12288,-0.0064 0.1088,-0.0077 q 0.05376,-0.0038 0.11136,-0.0038 h 0.1344 q 0.21248,0 0.40064,0.0038 0.192,0.0038 0.40448,0.01408 0.08704,0.0077 0.13312,0.02176 0.04736,0.01152 0.07296,0.03328 0.0256,0.02048 0.02816,0.04992 0.0077,0.02944 0.0077,0.064 0,0.06656 -0.04608,0.11008 -0.04352,0.04224 -0.192,0.04992 z m 0.51456,1.64736 q -0.0077,-0.1152 -0.01536,-0.31488 -0.0077,-0.1984 -0.0077,-0.40832 v -0.24448 l 0.0077,-0.26368 q 0.0077,-0.2688 0.03328,-0.41984 0.02816,-0.15104 0.10752,-0.22784 0.0832,-0.07552 0.23168,-0.09344 0.14848,-0.01792 0.39424,-0.01792 h 0.07552 q 0.0768,0 0.18048,0.0038 l 0.2176,0.0026 0.19072,0.0077 q 0.07936,0.0077 0.12672,0.02176 0.0512,0.01024 0.0768,0.032 0.02432,0.01792 0.032,0.04736 0.0077,0.0256 0.0077,0.0576 0,0.0832 -0.04736,0.12288 -0.04736,0.03584 -0.192,0.04736 -0.07168,0.0064 -0.21248,0.01024 h -0.2816 q -0.14464,0 -0.26112,0.0038 h -0.14336 q -0.09472,0.0038 -0.1344,0.04352 -0.03584,0.03584 -0.03584,0.17664 l 0.0038,0.16 q 0.0077,0.1216 0.0077,0.3456 h 0.29952 q 0.192,0 0.31104,0.0077 0.12288,0.0038 0.18816,0.02176 0.06784,0.01792 0.09344,0.0576 0.0256,0.03968 0.0256,0.10496 0,0.032 -0.0077,0.06144 -0.0038,0.0256 -0.02944,0.04736 -0.0256,0.01792 -0.07168,0.032 -0.04736,0.01152 -0.1344,0.01792 -0.10496,0.0077 -0.1984,0.01152 h -0.48384 v 0.44032 l 0.0077,0.12288 q 0.0038,0.0576 0.01408,0.09728 0.01408,0.03968 0.04736,0.064 0.03584,0.0256 0.10112,0.0384 0.06784,0.01024 0.18048,0.01024 h 0.77696 q 0.12672,0 0.15872,0.04608 0.032,0.04736 0.032,0.128 0,0.064 -0.02816,0.09984 -0.02944,0.03328 -0.1408,0.04736 -0.1088,0.01792 -0.32896,0.02176 -0.2176,0.0038 -0.60032,0.0038 -0.16256,0 -0.26624,-0.02944 -0.10496,-0.02944 -0.17024,-0.09728 -0.064,-0.06912 -0.09728,-0.17792 -0.02944,-0.11136 -0.03968,-0.27008 z m 2.35648,0.32128 q 0,0.08704 -0.01792,0.13312 -0.01408,0.04736 -0.0384,0.07296 -0.02304,0.0256 -0.05504,0.02944 -0.02944,0.0064 -0.0576,0.0064 -0.09728,0 -0.13056,-0.04352 -0.02816,-0.04352 -0.0384,-0.19456 -0.009,-0.07936 -0.01152,-0.2304 l -0.0077,-0.36224 q 0,-0.20992 -0.0038,-0.46208 v -0.53504 q 0,-0.13312 0.03328,-0.27136 0.032,-0.13696 0.12288,-0.24832 0.09344,-0.11264 0.256,-0.18048 0.1664,-0.06912 0.43008,-0.06912 0.18432,0 0.35072,0.03968 0.1664,0.03968 0.29184,0.13696 0.12672,0.09728 0.20224,0.25984 0.0768,0.16256 0.0768,0.40576 0,0.25216 -0.0832,0.41856 -0.0832,0.1664 -0.23552,0.26368 -0.15104,0.09728 -0.36096,0.13696 -0.20992,0.03968 -0.45824,0.03968 h -0.12288 q -0.06144,0 -0.13824,-0.0064 z m 1.04064,-1.52064 q 0,-0.2432 -0.13696,-0.3648 -0.13312,-0.12288 -0.448,-0.12288 -0.11904,0 -0.2048,0.02176 -0.08448,0.01792 -0.13824,0.06784 -0.05376,0.04736 -0.0832,0.13056 -0.0256,0.0832 -0.0256,0.20992 v 0.2816 q 0,0.15488 0.0038,0.29184 0.0832,0.0038 0.18432,0.0038 h 0.19584 q 0.10752,0 0.224,-0.01408 0.11904,-0.01408 0.21248,-0.064 0.09344,-0.05504 0.15488,-0.15616 0.06144,-0.10496 0.06144,-0.28544 z m 2.35008,-0.07552 c -0.4352,0.32768 -0.33792,0.74752 0,0.98944 a 1.408,1.408 0 0 1 0.10752,0.09728 c 0.03456,0.02944 0.0512,0.064 0.0512,0.10496 a 0.1536,0.1536 0 0 1 -0.03968,0.10112 0.24064,0.24064 0 0 1 -0.0512,0.03968 0.1152,0.1152 0 0 1 -0.0576,0.01408 0.2304,0.2304 0 0 1 -0.07936,-0.01792 0.99584,0.99584 0 0 1 -0.11904,-0.06784 24.11008,24.11008 0 0 0 -0.40448,-0.24576 5.58848,5.58848 0 0 1 -0.29952,-0.19584 1.08288,1.08288 0 0 1 -0.18432,-0.16256 0.26368,0.26368 0 0 1 -0.06144,-0.16256 c 0,-0.05504 0.02048,-0.10752 0.06144,-0.15872 a 0.95744,0.95744 0 0 1 0.1792,-0.16256 c 0.0832,-0.06016 0.18304,-0.12544 0.3008,-0.19456 l 0.40832,-0.2496 a 0.68096,0.68096 0 0 1 0.11904,-0.064 0.1984,0.1984 0 0 1 0.07936,-0.02304 0.1152,0.1152 0 0 1 0.0576,0.01536 0.23808,0.23808 0 0 1 0.0512,0.0384 0.14464,0.14464 0 0 1 -0.01152,0.20992 2.58304,2.58304 0 0 1 -0.10752,0.09472 z"
     style="font-weight:400;font-size:2.82200003px;line-height:1.25;font-family:Sniglet;-inkscape-font-specification:'Sniglet, Normal';font-variant-ligatures:normal;font-variant-caps:normal;font-variant-numeric:normal;font-feature-settings:normal;text-align:start;letter-spacing:0;word-spacing:0;fill:#dcdcdc;stroke-width:1;fill-opacity:1"
     font-weight="400"
     font-size="2.822"
     letter-spacing="0"
     word-spacing="0"
     id="path114"
     inkscape:connector-curvature="0" />
  <rect
     rx="0.99000001"
     ry="0.99000001"
     y="67.415665"
     x="33.52832"
     height="3.89504"
     width="13.46944"
     id="rect116"
     style="fill:#333333;stroke:#8c8c8c;stroke-width:0.132;paint-order:stroke markers fill" />
  <g
     style="line-height:1.25;stroke-width:0.78125;fill:#dcdcdc;fill-opacity:1"
     id="g120"
     transform="matrix(1.28,0,0,1.28,0,-0.09666053)">
    <path
       style="font-weight:400;font-size:2.82200003px;font-family:Sniglet;-inkscape-font-specification:'Sniglet, Normal';font-variant-ligatures:normal;font-variant-caps:normal;font-variant-numeric:normal;font-feature-settings:normal;text-align:start;letter-spacing:0;word-spacing:0;fill:#dcdcdc;stroke-width:0.78125;fill-opacity:1"
       d="m 28.316,53.312 q 0.08,0 0.18,0.014 0.105,0.012 0.196,0.046 0.09,0.03 0.152,0.084 0.062,0.051 0.062,0.127 0,0.045 -0.025,0.076 -0.026,0.031 -0.082,0.031 -0.042,0 -0.088,-0.016 -0.042,-0.017 -0.098,-0.034 -0.054,-0.02 -0.127,-0.037 -0.07,-0.017 -0.167,-0.017 -0.186,0 -0.276,0.068 -0.088,0.065 -0.088,0.18 0,0.08 0.04,0.133 0.039,0.054 0.104,0.093 0.068,0.037 0.15,0.062 0.084,0.026 0.172,0.048 0.098,0.026 0.194,0.062 0.1,0.037 0.175,0.096 0.077,0.06 0.122,0.15 0.048,0.09 0.048,0.228 0,0.144 -0.054,0.26 -0.053,0.113 -0.147,0.195 -0.093,0.079 -0.223,0.124 -0.13,0.042 -0.282,0.042 -0.084,0 -0.197,-0.017 Q 27.944,55.296 27.842,55.26 27.741,55.22 27.67,55.158 27.6,55.093 27.6,55 q 0,-0.056 0.028,-0.09 0.03,-0.034 0.09,-0.034 0.048,0 0.079,0.02 0.03,0.017 0.054,0.04 0.084,0.072 0.191,0.098 0.108,0.025 0.22,0.025 0.065,0 0.136,-0.008 0.073,-0.012 0.133,-0.043 0.059,-0.03 0.098,-0.087 0.04,-0.06 0.04,-0.158 0,-0.09 -0.037,-0.147 -0.034,-0.06 -0.093,-0.099 -0.06,-0.04 -0.14,-0.065 -0.08,-0.025 -0.173,-0.05 -0.104,-0.029 -0.206,-0.062 -0.102,-0.034 -0.18,-0.09 -0.08,-0.06 -0.13,-0.147 -0.049,-0.09 -0.049,-0.23 0,-0.137 0.051,-0.242 0.051,-0.104 0.139,-0.175 0.087,-0.07 0.206,-0.107 0.12,-0.037 0.26,-0.037 z m 2.052,0.277 q -0.079,0.005 -0.17,0.008 l -0.194,0.006 0.006,0.144 0.006,0.133 q 0.003,0.067 0.003,0.14 0.003,0.074 0.003,0.164 v 0.246 q 0,0.116 -0.003,0.234 l -0.006,0.234 -0.008,0.246 q -0.003,0.068 -0.014,0.104 -0.008,0.037 -0.025,0.057 -0.017,0.02 -0.04,0.022 -0.023,0.006 -0.05,0.006 -0.052,0 -0.088,-0.034 -0.034,-0.037 -0.04,-0.152 -0.006,-0.102 -0.008,-0.215 0,-0.113 -0.003,-0.243 -0.003,-0.13 -0.003,-0.279 v -0.606 q 0.003,-0.116 0.008,-0.201 h -0.115 q -0.119,0 -0.204,-0.003 -0.081,-0.003 -0.135,-0.014 -0.054,-0.014 -0.08,-0.042 -0.022,-0.029 -0.022,-0.08 0,-0.025 0.006,-0.044 0.006,-0.023 0.026,-0.04 0.02,-0.02 0.053,-0.031 0.037,-0.011 0.093,-0.017 l 0.096,-0.006 0.085,-0.005 q 0.042,-0.003 0.088,-0.003 h 0.104 q 0.166,0 0.313,0.003 0.15,0.003 0.316,0.011 0.068,0.006 0.105,0.017 0.036,0.009 0.056,0.025 0.02,0.017 0.023,0.04 0.006,0.023 0.006,0.05 0,0.052 -0.037,0.085 -0.034,0.034 -0.15,0.04 z m 0.402,1.287 q -0.006,-0.09 -0.011,-0.246 -0.006,-0.155 -0.006,-0.319 v -0.192 l 0.006,-0.206 q 0.006,-0.208 0.025,-0.327 0.023,-0.118 0.085,-0.178 0.065,-0.059 0.18,-0.073 0.116,-0.014 0.308,-0.014 h 0.06 q 0.059,0 0.14,0.003 l 0.17,0.002 0.15,0.006 q 0.061,0.006 0.098,0.017 0.04,0.008 0.06,0.025 0.02,0.014 0.025,0.037 0.006,0.02 0.006,0.045 0,0.065 -0.037,0.096 -0.037,0.028 -0.15,0.037 -0.056,0.005 -0.166,0.008 h -0.22 q -0.113,0 -0.203,0.003 h -0.113 q -0.074,0.003 -0.105,0.034 -0.028,0.028 -0.028,0.138 l 0.003,0.124 q 0.006,0.096 0.006,0.271 h 0.234 q 0.15,0 0.243,0.006 0.096,0.003 0.147,0.017 0.054,0.014 0.073,0.045 0.02,0.031 0.02,0.082 0,0.025 -0.006,0.048 -0.003,0.02 -0.022,0.037 -0.02,0.014 -0.057,0.025 -0.037,0.008 -0.104,0.014 -0.082,0.006 -0.156,0.009 h -0.378 v 0.343 l 0.006,0.097 q 0.003,0.045 0.012,0.076 0.01,0.031 0.036,0.05 0.028,0.02 0.08,0.03 0.053,0.008 0.14,0.008 h 0.607 q 0.099,0 0.124,0.036 0.026,0.037 0.026,0.1 0,0.05 -0.023,0.078 -0.022,0.025 -0.11,0.037 -0.085,0.014 -0.257,0.017 -0.17,0.002 -0.468,0.002 -0.127,0 -0.21,-0.022 -0.081,-0.023 -0.132,-0.076 -0.05,-0.054 -0.076,-0.139 Q 30.779,55 30.772,54.876 Z m 1.842,0.251 q 0,0.068 -0.014,0.104 -0.012,0.037 -0.031,0.057 -0.017,0.02 -0.043,0.022 -0.022,0.006 -0.045,0.006 -0.076,0 -0.101,-0.034 -0.023,-0.034 -0.031,-0.152 -0.006,-0.062 -0.008,-0.18 l -0.006,-0.283 q 0,-0.164 -0.003,-0.361 v -0.418 q 0,-0.104 0.025,-0.212 0.025,-0.107 0.096,-0.194 0.073,-0.088 0.2,-0.142 0.13,-0.053 0.336,-0.053 0.144,0 0.274,0.03 0.13,0.032 0.228,0.108 0.1,0.076 0.158,0.203 0.06,0.127 0.06,0.316 0,0.198 -0.065,0.328 -0.065,0.13 -0.184,0.206 -0.118,0.076 -0.282,0.107 -0.163,0.031 -0.358,0.031 h -0.096 q -0.048,0 -0.107,-0.005 z m 0.813,-1.188 q 0,-0.19 -0.108,-0.285 -0.104,-0.096 -0.35,-0.096 -0.093,0 -0.16,0.017 -0.065,0.014 -0.108,0.053 -0.042,0.037 -0.065,0.102 -0.02,0.065 -0.02,0.164 v 0.22 q 0,0.121 0.004,0.228 0.064,0.003 0.143,0.003 h 0.153 q 0.085,0 0.175,-0.011 0.093,-0.011 0.166,-0.05 0.074,-0.043 0.122,-0.122 0.048,-0.082 0.048,-0.223 z m 1.07,-0.059 a 5.55,5.55 0 0 1 -0.087,-0.074 0.116,0.116 0 0 1 -0.006,-0.163 0.192,0.192 0 0 1 0.04,-0.032 0.09,0.09 0 0 1 0.045,-0.01 c 0.017,0 0.037,0.005 0.062,0.016 0.024,0.01 0.055,0.026 0.093,0.05 l 0.319,0.196 c 0.092,0.054 0.17,0.105 0.231,0.152 a 0.723,0.723 0 0 1 0.144,0.127 c 0.032,0.04 0.048,0.081 0.048,0.124 a 0.2,0.2 0 0 1 -0.05,0.127 0.722,0.722 0 0 1 -0.145,0.127 3.873,3.873 0 0 1 -0.231,0.153 18.73,18.73 0 0 0 -0.316,0.192 0.778,0.778 0 0 1 -0.093,0.053 0.18,0.18 0 0 1 -0.062,0.014 0.09,0.09 0 0 1 -0.046,-0.011 0.187,0.187 0 0 1 -0.039,-0.031 0.12,0.12 0 0 1 -0.031,-0.08 c 0,-0.031 0.012,-0.058 0.037,-0.08 0.026,-0.025 0.055,-0.05 0.087,-0.077 0.337,-0.273 0.257,-0.59 0,-0.773 z"
       aria-label="STEP &gt;"
       font-weight="400"
       font-size="2.822"
       letter-spacing="0"
       word-spacing="0"
       id="path118"
       inkscape:connector-curvature="0" />
  </g>
  <g
     style="line-height:1.25;stroke-width:0.78125;fill:#232323;fill-opacity:1"
     id="g124"
     transform="matrix(1.28,0,0,1.28,0,-0.09666053)">
    <path
       d="m 9.818,5.332 q 0,-0.326 0.024,-0.508 0.023,-0.186 0.097,-0.28 0.074,-0.092 0.21,-0.112 0.135,-0.023 0.356,-0.023 h 0.225 q 0.101,0 0.194,0.004 0.097,0 0.19,0.004 l 0.21,0.007 q 0.093,0.008 0.144,0.024 0.05,0.011 0.077,0.035 0.028,0.023 0.031,0.054 0.008,0.031 0.008,0.07 0,0.07 -0.05,0.116 -0.047,0.047 -0.206,0.055 l -0.19,0.007 -0.206,0.008 q -0.112,0 -0.256,0.004 h -0.345 q -0.07,0 -0.097,0.05 -0.027,0.047 -0.027,0.12 v 0.117 q 0.004,0.058 0.004,0.128 0.003,0.07 0.003,0.16 0.004,0.085 0.004,0.201 0.144,0 0.249,0.004 0.108,0 0.186,0.004 0.081,0 0.144,0.004 l 0.12,0.007 q 0.159,0.008 0.205,0.055 0.05,0.046 0.05,0.116 0,0.039 -0.007,0.07 -0.004,0.031 -0.03,0.054 -0.028,0.024 -0.079,0.04 -0.05,0.015 -0.143,0.022 l -0.12,0.008 q -0.055,0 -0.132,0.004 H 10.218 Q 10.214,6.194 10.214,6.438 10.218,6.679 10.203,6.935 10.195,7.086 10.148,7.121 10.106,7.152 10.016,7.152 9.931,7.152 9.888,7.118 9.846,7.078 9.838,6.939 9.83,6.815 9.826,6.667 9.826,6.516 9.822,6.326 9.819,6.132 9.819,5.891 V 5.332 Z m 2.958,1.844 q -0.233,0 -0.438,-0.093 Q 12.136,6.989 11.984,6.815 11.834,6.636 11.744,6.38 11.658,6.124 11.658,5.798 q 0,-0.306 0.074,-0.563 0.078,-0.256 0.225,-0.442 0.152,-0.186 0.373,-0.287 0.221,-0.105 0.512,-0.105 0.237,0 0.45,0.085 0.214,0.086 0.373,0.257 0.163,0.17 0.256,0.426 0.093,0.257 0.093,0.598 0,0.283 -0.078,0.54 -0.073,0.256 -0.229,0.45 -0.15,0.19 -0.384,0.306 -0.233,0.113 -0.547,0.113 z m 0.008,-0.365 q 0.213,0 0.372,-0.085 0.16,-0.09 0.264,-0.233 0.105,-0.144 0.156,-0.33 0.05,-0.19 0.05,-0.388 0,-0.24 -0.066,-0.427 Q 13.498,5.158 13.39,5.03 13.28,4.902 13.137,4.836 12.993,4.766 12.83,4.766 q -0.194,0 -0.341,0.081 -0.144,0.082 -0.245,0.222 -0.097,0.14 -0.147,0.33 -0.05,0.186 -0.05,0.4 0,0.228 0.058,0.418 0.058,0.187 0.155,0.318 0.1,0.132 0.237,0.206 0.136,0.07 0.287,0.07 z m 2.556,0.392 q -0.443,0 -0.649,-0.24 Q 14.61,6.869 14.551,6.726 14.497,6.578 14.462,6.346 14.432,6.112 14.416,5.771 14.404,5.426 14.404,4.933 q 0,-0.16 0.008,-0.26 0.008,-0.105 0.03,-0.163 0.024,-0.062 0.059,-0.086 0.039,-0.023 0.097,-0.023 0.113,0 0.16,0.101 0.046,0.1 0.046,0.35 0,0.085 -0.004,0.15 v 0.136 q 0,0.066 -0.004,0.148 v 0.198 q 0,0.388 0.023,0.644 0.027,0.256 0.09,0.411 0.062,0.152 0.166,0.214 0.109,0.062 0.268,0.062 0.167,0 0.276,-0.066 0.112,-0.07 0.178,-0.23 0.066,-0.162 0.093,-0.43 0.031,-0.268 0.031,-0.667 0,-0.175 -0.004,-0.3 V 4.898 q 0,-0.144 0.008,-0.24 0.012,-0.098 0.031,-0.152 0.024,-0.058 0.062,-0.082 0.04,-0.023 0.097,-0.023 0.059,0 0.097,0.023 0.04,0.024 0.062,0.082 0.024,0.058 0.032,0.163 0.007,0.1 0.007,0.264 0,0.683 -0.042,1.125 -0.043,0.439 -0.152,0.695 -0.108,0.252 -0.299,0.353 -0.186,0.097 -0.48,0.097 z M 18.313,6.955 Q 18.189,6.784 18.076,6.617 L 17.84,6.244 Q 17.715,6.043 17.552,5.798 17.393,5.55 17.168,5.22 v 0.524 q 0,0.229 -0.004,0.427 l -0.007,0.372 q -0.004,0.175 -0.012,0.35 -0.004,0.093 -0.02,0.143 -0.011,0.05 -0.034,0.078 -0.024,0.027 -0.055,0.03 -0.027,0.008 -0.066,0.008 -0.07,0 -0.116,-0.046 Q 16.807,7.056 16.8,6.896 16.78,6.469 16.776,6.043 v -0.89 q 0,-0.26 0.004,-0.407 0.008,-0.147 0.027,-0.22 0.024,-0.074 0.059,-0.094 0.038,-0.02 0.1,-0.02 0.062,0 0.163,0.098 0.101,0.093 0.222,0.248 0.12,0.155 0.256,0.357 0.14,0.202 0.275,0.415 0.136,0.214 0.26,0.423 l 0.233,0.38 Q 18.371,6.151 18.371,5.933 V 5.445 q 0,-0.307 0.004,-0.504 0.004,-0.202 0.02,-0.319 0.019,-0.116 0.058,-0.163 0.038,-0.046 0.108,-0.046 0.066,0 0.117,0.042 0.05,0.043 0.058,0.198 0.008,0.14 0.012,0.249 l 0.007,0.217 q 0.004,0.105 0.004,0.221 v 0.59 q 0,0.16 -0.004,0.314 l -0.007,0.315 q -0.004,0.159 -0.012,0.333 -0.004,0.094 -0.02,0.144 -0.011,0.05 -0.034,0.078 -0.024,0.027 -0.055,0.03 -0.027,0.008 -0.066,0.008 -0.066,0 -0.112,-0.038 -0.047,-0.04 -0.136,-0.16 z M 20.02,4.393 q 0.4,0 0.64,0.12 0.24,0.12 0.369,0.319 0.128,0.198 0.167,0.45 0.042,0.252 0.042,0.512 0,0.284 -0.073,0.536 -0.07,0.252 -0.221,0.442 -0.148,0.186 -0.38,0.299 Q 20.33,7.18 20.008,7.18 19.752,7.18 19.597,7.14 19.446,7.106 19.36,7.032 19.279,6.958 19.252,6.846 19.224,6.733 19.224,6.582 v -1.46 q 0,-0.166 0.028,-0.302 0.03,-0.136 0.116,-0.229 0.085,-0.097 0.24,-0.147 0.16,-0.05 0.412,-0.05 z m 0.015,2.399 q 0.241,0 0.396,-0.086 0.16,-0.09 0.253,-0.233 Q 20.777,6.33 20.812,6.147 20.85,5.965 20.85,5.775 20.85,5.6 20.823,5.425 20.796,5.247 20.711,5.103 20.625,4.96 20.466,4.871 q -0.159,-0.09 -0.423,-0.09 -0.24,0 -0.334,0.07 -0.093,0.07 -0.093,0.214 V 6.55 q 0,0.12 0.086,0.182 0.089,0.059 0.333,0.059 z M 22.523,6.182 22.411,6.19 H 22.166 Q 22.1,6.19 22.019,6.182 V 6.97 q 0,0.124 -0.062,0.155 -0.058,0.027 -0.148,0.027 -0.046,0 -0.073,-0.007 Q 21.709,7.141 21.689,7.125 21.674,7.105 21.662,7.071 21.654,7.036 21.65,6.974 21.643,6.904 21.639,6.772 l -0.008,-0.35 q 0,-0.213 -0.004,-0.515 V 5.189 q 0,-0.16 0.039,-0.307 0.039,-0.151 0.14,-0.264 0.1,-0.116 0.271,-0.186 0.175,-0.07 0.443,-0.07 0.19,0 0.368,0.043 0.183,0.043 0.322,0.147 0.14,0.105 0.225,0.284 0.086,0.178 0.086,0.446 0,0.357 -0.155,0.555 -0.152,0.194 -0.42,0.275 l 0.52,0.714 q 0.07,0.094 0.07,0.19 0,0.078 -0.054,0.12 -0.05,0.048 -0.128,0.048 -0.085,0 -0.148,-0.047 -0.062,-0.05 -0.116,-0.128 z m 0.61,-0.904 Q 23.133,5.01 22.97,4.882 22.81,4.75 22.461,4.75 q -0.128,0 -0.213,0.024 -0.085,0.02 -0.136,0.077 -0.05,0.058 -0.074,0.163 -0.019,0.101 -0.019,0.26 v 0.264 q 0,0.151 0.004,0.276 0.09,0.004 0.198,0.004 h 0.21 q 0.108,0 0.228,-0.012 0.125,-0.016 0.23,-0.07 0.104,-0.058 0.174,-0.163 0.07,-0.109 0.07,-0.295 z M 24.49,6.896 24.474,6.442 Q 24.47,6.198 24.47,5.88 L 23.698,4.774 q -0.031,-0.043 -0.05,-0.09 -0.016,-0.046 -0.016,-0.089 0,-0.074 0.039,-0.12 0.042,-0.05 0.143,-0.05 0.082,0 0.144,0.046 0.066,0.043 0.12,0.128 l 0.578,0.92 0.579,-0.92 q 0.054,-0.085 0.116,-0.128 0.066,-0.047 0.147,-0.047 0.101,0 0.14,0.05 0.043,0.047 0.043,0.121 0,0.043 -0.02,0.09 -0.015,0.046 -0.046,0.089 l -0.757,1.082 q 0,0.264 -0.008,0.509 -0.004,0.24 -0.015,0.527 -0.004,0.094 -0.02,0.144 -0.011,0.05 -0.034,0.078 -0.024,0.027 -0.055,0.03 -0.027,0.008 -0.066,0.008 -0.07,0 -0.116,-0.046 -0.047,-0.05 -0.055,-0.21 z M 27.289,6.167 Q 27.11,6.175 26.878,6.182 26.645,6.186 26.326,6.186 26.195,6.186 26.101,6.182 26.008,6.178 25.95,6.162 25.892,6.144 25.865,6.105 25.838,6.065 25.838,5.996 q 0,-0.035 0.007,-0.062 0.008,-0.031 0.035,-0.054 0.027,-0.024 0.074,-0.04 0.05,-0.019 0.128,-0.026 l 0.1,-0.008 q 0.048,-0.004 0.09,-0.004 0.043,-0.004 0.09,-0.004 h 0.116 q 0.21,0 0.403,0.004 0.194,0 0.404,0.012 0.093,0.007 0.144,0.023 0.05,0.012 0.077,0.035 0.027,0.023 0.031,0.054 0.008,0.031 0.008,0.07 0,0.07 -0.05,0.116 -0.047,0.047 -0.206,0.055 z m 1.476,-0.051 -0.578,0.897 q -0.054,0.085 -0.12,0.128 -0.062,0.046 -0.144,0.046 -0.1,0 -0.143,-0.05 -0.04,-0.047 -0.04,-0.12 0,-0.043 0.016,-0.09 0.02,-0.046 0.05,-0.089 L 28.529,5.806 27.807,4.774 q -0.031,-0.043 -0.05,-0.09 -0.016,-0.046 -0.016,-0.089 0,-0.074 0.039,-0.12 0.042,-0.05 0.143,-0.05 0.082,0 0.144,0.046 0.066,0.043 0.12,0.128 l 0.578,0.896 0.579,-0.896 q 0.054,-0.085 0.116,-0.128 0.066,-0.047 0.147,-0.047 0.101,0 0.14,0.05 0.043,0.047 0.043,0.121 0,0.043 -0.02,0.09 -0.015,0.046 -0.046,0.089 l -0.722,1.032 0.722,1.032 q 0.03,0.043 0.046,0.09 0.02,0.046 0.02,0.089 0,0.073 -0.043,0.12 -0.039,0.05 -0.14,0.05 -0.081,0 -0.147,-0.046 -0.062,-0.043 -0.116,-0.128 z"
       style="font-weight:400;font-size:3.88100004px;font-family:Sniglet;-inkscape-font-specification:'Sniglet, Normal';font-variant-ligatures:normal;font-variant-caps:normal;font-variant-numeric:normal;font-feature-settings:normal;text-align:start;letter-spacing:0;word-spacing:0;stroke-width:0.20703125;fill:#232323;fill-opacity:1"
       aria-label="FOUNDRY-X"
       font-weight="400"
       font-size="3.881"
       letter-spacing="0"
       word-spacing="0"
       id="path122"
       inkscape:connector-curvature="0" />
  </g>
</svg>
