<?xml version="1.0" encoding="UTF-8" standalone="no"?>
<svg
   width="60.959999mm"
   height="128.5mm"
   viewBox="0 0 60.959998 128.50044"
   version="1.1"
   id="svg154"
   sodipodi:docname="NoteLoop.svg"
   inkscape:version="1.3.2 (091e20e, 2023-11-25, custom)"
   xmlns:inkscape="http://www.inkscape.org/namespaces/inkscape"
   xmlns:sodipodi="http://sodipodi.sourceforge.net/DTD/sodipodi-0.dtd"
   xmlns="http://www.w3.org/2000/svg"
   xmlns:svg="http://www.w3.org/2000/svg"
   xmlns:rdf="http://www.w3.org/1999/02/22-rdf-syntax-ns#"
   xmlns:cc="http://creativecommons.org/ns#"
   xmlns:dc="http://purl.org/dc/elements/1.1/">
  <path
     style="font-size:5.46807px;line-height:1.25;font-family:Sniglet;-inkscape-font-specification:'Sniglet, Normal';letter-spacing:0px;word-spacing:0px;fill:#232323;stroke-width:0.264584"
     d="M 14.318985,7.9516856 Q 14.144007,7.7110905 13.985433,7.4759635 13.832327,7.2353685 13.65188,6.9510288 13.476902,6.6666892 13.247243,6.3222008 13.023052,5.9722443 12.705904,5.5074583 q 0,0.4101053 0,0.7381895 0,0.3226161 -0.0055,0.6014877 -0.0055,0.2788716 -0.01094,0.5249347 -0.0055,0.2460632 -0.0164,0.4921263 -0.0055,0.1312337 -0.02734,0.2023186 -0.0164,0.071085 -0.04921,0.1093614 -0.03281,0.038277 -0.07655,0.043745 -0.03828,0.010936 -0.09296,0.010936 -0.09843,0 -0.164042,-0.065617 -0.06562,-0.071085 -0.07655,-0.2952758 -0.02734,-0.6014877 -0.03281,-1.2029754 0,-0.6069558 0,-1.2521881 0,-0.3663607 0.0055,-0.5741473 0.01094,-0.2077867 0.03828,-0.31168 0.03281,-0.1038933 0.08202,-0.1312337 0.05468,-0.02734 0.14217,-0.02734 0.08749,0 0.229659,0.1367017 0.142169,0.1312337 0.311679,0.3499565 0.169511,0.2187228 0.360893,0.5030624 0.196851,0.2843397 0.388233,0.5850835 0.191383,0.3007439 0.366361,0.5960197 0.180446,0.2952757 0.328084,0.5358708 -0.0055,-0.2569993 -0.0055,-0.5632112 0,-0.31168 0,-0.6889768 0,-0.4319775 0.0055,-0.7108491 0.0055,-0.2843397 0.02734,-0.4483818 0.02734,-0.1640421 0.08202,-0.2296589 0.05468,-0.065617 0.153106,-0.065617 0.09296,0 0.164042,0.060149 0.07109,0.060149 0.08202,0.2788716 0.01094,0.1968505 0.01641,0.3499565 0.0055,0.1531059 0.01094,0.3062119 0.0055,0.1476379 0.0055,0.31168 0,0.158574 0,0.3608926 0,0.2460632 0,0.470254 0,0.2241909 -0.0055,0.4429137 -0.0055,0.2187228 -0.01094,0.4429137 -0.0055,0.2241909 -0.01641,0.470254 -0.0055,0.1312337 -0.02734,0.2023186 -0.0164,0.071085 -0.04921,0.1093614 -0.03281,0.038277 -0.07655,0.043745 -0.03828,0.010936 -0.09296,0.010936 -0.09296,0 -0.158574,-0.054681 -0.06562,-0.054681 -0.191382,-0.2241909 z M 17.43032,6.8416674 q -0.251532,0.010936 -0.579616,0.021872 -0.328084,0.00547 -0.776466,0.00547 -0.185914,0 -0.317148,-0.00547 -0.131234,-0.00547 -0.213255,-0.02734 -0.08202,-0.02734 -0.120297,-0.082021 -0.03828,-0.054681 -0.03828,-0.153106 0,-0.049213 0.01094,-0.087489 0.01094,-0.043744 0.04921,-0.076553 0.03828,-0.032808 0.103893,-0.054681 0.07108,-0.02734 0.180447,-0.038277 0.08202,-0.00547 0.14217,-0.010936 0.06562,-0.00547 0.125765,-0.00547 0.06015,-0.00547 0.125766,-0.00547 0.07108,0 0.164042,0 0.295276,0 0.568679,0.00547 0.273404,0 0.56868,0.016404 0.131233,0.010936 0.202318,0.032808 0.07109,0.016404 0.109361,0.049213 0.03828,0.032808 0.04375,0.076553 0.01094,0.043744 0.01094,0.098425 0,0.098425 -0.07108,0.1640421 -0.06562,0.065617 -0.289807,0.076553 z m 1.345143,-0.158574 q 0,0.1749782 0,0.31168 0,0.1312337 -0.0055,0.2515312 0,0.1202975 -0.0055,0.2405951 -0.0055,0.1202975 -0.01094,0.2679354 0.377297,-0.043745 0.590552,-0.071085 0.213255,-0.02734 0.333552,-0.043745 0.125766,-0.016404 0.191383,-0.021872 0.07108,-0.00547 0.164042,-0.00547 0.240595,0 0.240595,0.235127 0,0.092957 -0.09842,0.158574 -0.09296,0.065617 -0.240596,0.1148295 -0.142169,0.043745 -0.322616,0.076553 -0.174978,0.02734 -0.344488,0.038277 -0.164042,0.016404 -0.300744,0.021872 -0.131234,0.00547 -0.185914,0.00547 -0.196851,0 -0.306212,-0.02734 -0.109362,-0.021872 -0.164042,-0.1421698 -0.05468,-0.1257657 -0.07108,-0.3772969 -0.01094,-0.2515312 -0.01094,-0.7108491 0,-0.4429137 0,-0.7874021 0,-0.3444884 0.0055,-0.6178919 0.0055,-0.2734035 0.0055,-0.4866582 0.0055,-0.2132547 0.0164,-0.388233 0.01094,-0.2241909 0.07655,-0.2898077 0.06562,-0.071085 0.164042,-0.071085 0.05468,0 0.09296,0.010936 0.04375,0.00547 0.07655,0.043745 0.03281,0.038277 0.04921,0.1093614 0.02187,0.071085 0.02734,0.2023186 0.02187,0.4811901 0.02734,0.9514442 0.0055,0.470254 0.0055,1.0006568 z m 2.482505,1.1811031 q 0,0.1312337 -0.02734,0.2023186 -0.02187,0.071085 -0.06015,0.1093614 -0.03281,0.038277 -0.08202,0.043745 -0.04374,0.010936 -0.08749,0.010936 -0.147638,0 -0.19685,-0.065617 -0.04375,-0.065617 -0.06015,-0.2952758 -0.01094,-0.1202976 -0.0164,-0.3499565 -0.0055,-0.2296589 -0.01094,-0.546807 0,-0.3171481 -0.0055,-0.699913 0,-0.3827649 0,-0.8092743 0,-0.2023186 0.04921,-0.4101053 0.04921,-0.2077866 0.185914,-0.3772968 0.14217,-0.1695102 0.388233,-0.2734035 0.251532,-0.1038934 0.650701,-0.1038934 0.278871,0 0.530403,0.060149 0.251531,0.060149 0.442913,0.2077867 0.191383,0.1476379 0.306212,0.393701 0.11483,0.2460632 0.11483,0.6124239 0,0.3827649 -0.125766,0.6342961 -0.125766,0.2515312 -0.355425,0.3991691 -0.229658,0.1476379 -0.546807,0.2077867 -0.317148,0.060149 -0.694444,0.060149 -0.09296,0 -0.185915,0 -0.09296,0 -0.207786,-0.010936 z M 22.832773,5.562139 q 0,-0.3663607 -0.207787,-0.552275 -0.202319,-0.1859144 -0.678041,-0.1859144 -0.180446,0 -0.31168,0.032808 -0.125765,0.02734 -0.207786,0.1038933 -0.08202,0.071085 -0.125766,0.1968505 -0.03828,0.1257657 -0.03828,0.3171481 0,0.1859144 0,0.4265095 0,0.235127 0.0055,0.4429136 0.125765,0.00547 0.278871,0.00547 0.158574,0 0.295276,0 0.164042,0 0.33902,-0.021872 0.180447,-0.021872 0.322616,-0.098425 0.14217,-0.082021 0.235127,-0.235127 0.09296,-0.1585741 0.09296,-0.4319776 z"
     id="text4-0"
     aria-label="N-LP" />
  <metadata
     id="metadata160">
    <rdf:RDF>
      <cc:Work
         rdf:about="">
        <dc:format>image/svg+xml</dc:format>
        <dc:type
           rdf:resource="http://purl.org/dc/dcmitype/StillImage" />
      </cc:Work>
    </rdf:RDF>
  </metadata>
  <defs
     id="defs158" />
  <sodipodi:namedview
     pagecolor="#ffffff"
     bordercolor="#666666"
     borderopacity="1"
     objecttolerance="10"
     gridtolerance="10"
     guidetolerance="10"
     inkscape:pageopacity="0"
     inkscape:pageshadow="2"
     inkscape:window-width="1920"
     inkscape:window-height="1057"
     id="namedview156"
     showgrid="false"
     inkscape:document-units="mm"
     units="mm"
     inkscape:zoom="2.6555194"
     inkscape:cx="120.69202"
     inkscape:cy="177.93129"
     inkscape:window-x="-8"
     inkscape:window-y="1072"
     inkscape:window-maximized="1"
     inkscape:current-layer="svg154"
     inkscape:pagecheckerboard="0"
     inkscape:showpageshadow="2"
     inkscape:deskcolor="#d1d1d1"
     showguides="true">
    <sodipodi:guide
       position="9.5000007,119.20065"
       orientation="-1,0"
       id="guide1"
       inkscape:locked="false"
       inkscape:label=""
       inkscape:color="rgb(0,134,229)" />
    <sodipodi:guide
       position="-4.5089774,114.40984"
       orientation="0,-1"
       id="guide2"
       inkscape:locked="false" />
    <sodipodi:guide
       position="26.060002,125.71065"
       orientation="-1,0"
       id="guide10"
       inkscape:locked="false"
       inkscape:label=""
       inkscape:color="rgb(0,134,229)" />
    <sodipodi:guide
       position="17.780003,99.755618"
       orientation="-1,0"
       id="guide12"
       inkscape:locked="false"
       inkscape:label=""
       inkscape:color="rgb(0,134,229)" />
    <sodipodi:guide
       position="5.0725996,24.652719"
       orientation="0,-1"
       id="guide3"
       inkscape:locked="false" />
    <sodipodi:guide
       position="-2.2192624,122.23013"
       orientation="0,-1"
       id="guide4"
       inkscape:locked="false" />
  </sodipodi:namedview>
  <rect
     rx="2.3399999"
     ry="2.3399999"
     y="66.621391"
     x="18.598001"
     height="50.962135"
     width="14.627378"
     id="rect4"
     style="fill:#afafaf;fill-opacity:1;stroke-width:0.971111;paint-order:stroke markers fill" />
  <g
     style="line-height:1.25;fill:#232323;fill-opacity:1;stroke-width:0.781247"
     id="g10"
     transform="matrix(1.2800044,0,0,1.2800044,-48.471396,-0.09623859)">
    <path
       word-spacing="0"
       letter-spacing="0"
       font-weight="400"
       aria-label="♫"
       font-size="3.528"
       style="font-weight:400;font-size:3.528px;font-family:Arial;-inkscape-font-specification:'Arial, Normal';font-variant-ligatures:normal;font-variant-caps:normal;font-variant-numeric:normal;font-feature-settings:normal;text-align:start;letter-spacing:0;word-spacing:0;fill:#232323;fill-opacity:1;stroke-width:0.781247"
       d="m 52.118616,96.87 -1.63,0.115 v -2.06 q 0,-0.23 0.065,-0.333 0.064,-0.104 0.22,-0.147 0.153,-0.043 0.348,-0.002 0.223,0.047 0.356,0.19 0.133,0.146 0.133,0.33 0,0.186 -0.157,0.286 -0.158,0.103 -0.408,0.05 -0.082,-0.018 -0.143,-0.044 -0.064,-0.027 -0.205,-0.11 v 1.345 l 1.219,-0.085 v -1.554 q 0,-0.225 0.065,-0.337 0.066,-0.11 0.226,-0.151 0.16,-0.04 0.348,0 0.223,0.047 0.354,0.19 0.13,0.14 0.13,0.325 0,0.195 -0.156,0.294 -0.156,0.1 -0.408,0.047 -0.16,-0.034 -0.357,-0.16 z"
       id="path8"
       inkscape:connector-curvature="0" />
  </g>
  <path
     d="m 8.5338059,68.662237 q 0.119909,0 0.239819,0.0218 0.123543,0.01817 0.221651,0.06177 0.09811,0.03997 0.159879,0.101741 0.06541,0.05814 0.06541,0.138077 0,0.08357 -0.0436,0.127177 -0.0436,0.0436 -0.109009,0.0436 -0.06177,0 -0.109008,-0.01817 -0.04724,-0.0218 -0.109009,-0.04724 -0.05814,-0.02543 -0.141711,-0.0436 -0.08357,-0.0218 -0.221651,-0.0218 -0.138078,0 -0.265254,0.07267 -0.123543,0.06904 -0.218017,0.196215 -0.09084,0.123543 -0.145345,0.294323 -0.0545,0.170781 -0.0545,0.37063 0,0.247086 0.06177,0.425133 0.0654,0.178048 0.167146,0.294323 0.101742,0.112643 0.228918,0.170781 0.130811,0.0545 0.261621,0.0545 0.156246,0 0.261621,-0.0327 0.105375,-0.0327 0.178047,-0.07267 0.07631,-0.03997 0.13081,-0.07267 0.0545,-0.0327 0.105375,-0.0327 0.06177,0 0.09811,0.03634 0.03634,0.0327 0.03634,0.11991 0,0.07267 -0.05814,0.148978 -0.0545,0.07267 -0.163513,0.134444 -0.105375,0.05814 -0.254353,0.09811 -0.148978,0.03634 -0.334293,0.03634 -0.203483,0 -0.406966,-0.07994 -0.19985,-0.07995 -0.359729,-0.236191 -0.156246,-0.159879 -0.254353,-0.396065 -0.09811,-0.239819 -0.09811,-0.555944 0,-0.316125 0.08721,-0.563211 0.09084,-0.247086 0.243452,-0.417866 0.156246,-0.174414 0.359729,-0.265254 0.207116,-0.09084 0.439668,-0.09084 z m 2.1111361,2.427258 q -0.04724,0.08721 -0.08721,0.127177 -0.03634,0.03997 -0.09447,0.03997 -0.05814,0 -0.101741,-0.03997 -0.0436,-0.03997 -0.09447,-0.123543 -0.0654,-0.109009 -0.148978,-0.30159 -0.07994,-0.192582 -0.1635129,-0.417867 -0.08357,-0.228918 -0.163513,-0.47237 -0.07994,-0.243453 -0.145345,-0.457836 -0.06177,-0.214384 -0.101741,-0.374263 -0.03634,-0.163513 -0.03634,-0.232552 0,-0.07267 0.02907,-0.109009 0.02907,-0.03634 0.112642,-0.03634 0.04724,0 0.07994,0.02544 0.03634,0.0218 0.09084,0.13081 0.0436,0.08357 0.09447,0.218017 0.05087,0.134444 0.1053749,0.297957 0.05814,0.163513 0.116276,0.345194 0.05814,0.178047 0.116275,0.356095 0.05814,0.178047 0.109009,0.34156 0.05087,0.163513 0.09447,0.294323 0.0436,-0.134444 0.09811,-0.297957 0.0545,-0.167146 0.112642,-0.34156 0.05814,-0.178047 0.116276,-0.356095 0.05814,-0.181681 0.116276,-0.34156 0.05814,-0.159879 0.109008,-0.294323 0.05087,-0.134444 0.09084,-0.221651 0.05087,-0.105375 0.08721,-0.13081 0.03997,-0.02544 0.07994,-0.02544 0.08357,0 0.112642,0.0436 0.0327,0.03997 0.0327,0.119909 0,0.07267 -0.0218,0.174414 -0.0218,0.101741 -0.07631,0.272521 -0.05087,0.167147 -0.138078,0.417867 -0.08721,0.250719 -0.214384,0.614081 -0.0327,0.09811 -0.07631,0.203483 -0.03997,0.105375 -0.08357,0.207117 -0.03997,0.09811 -0.07994,0.188948 -0.03997,0.09084 -0.07631,0.156245 z"
     id="text1"
     style="font-size:3.63362px;line-height:1.25;font-family:Sniglet;-inkscape-font-specification:'Sniglet, Normal';letter-spacing:0px;word-spacing:0px;fill:#232323;stroke-width:0.265001"
     aria-label="CV" />
  <path
     d="m 6.6434436,85.713098 q 0.11991,0 0.247086,0.0218 0.127177,0.0218 0.232552,0.06541 0.105375,0.03997 0.174414,0.101741 0.06904,0.06177 0.06904,0.141712 0,0.08357 -0.0436,0.127176 -0.0436,0.0436 -0.109008,0.0436 -0.06177,0 -0.116276,-0.0218 -0.05087,-0.0218 -0.116276,-0.04724 -0.0654,-0.02543 -0.156246,-0.04724 -0.09084,-0.0218 -0.228918,-0.0218 -0.152612,0 -0.287056,0.07267 -0.13081,0.06904 -0.232552,0.196215 -0.101741,0.123543 -0.159879,0.294323 -0.05814,0.17078 -0.05814,0.37063 0,0.243452 0.06177,0.421499 0.06177,0.178048 0.159879,0.294324 0.101741,0.116276 0.225285,0.174413 0.127176,0.0545 0.254353,0.0545 0.207116,0 0.327026,-0.05814 0.123543,-0.06177 0.196215,-0.156246 0.0036,-0.07631 0.0036,-0.181681 0,-0.105375 0,-0.228918 0,-0.04724 -0.0073,-0.07267 -0.0073,-0.02907 -0.03634,-0.0436 -0.02907,-0.01453 -0.08721,-0.01817 -0.05451,-0.0036 -0.148979,-0.0036 -0.116276,0 -0.188948,-0.02907 -0.07267,-0.0327 -0.07267,-0.134444 0,-0.07267 0.03634,-0.116276 0.03997,-0.04724 0.159879,-0.05451 0.0218,0 0.06904,0 0.05087,-0.0036 0.105375,-0.0036 0.05814,0 0.112642,0 0.0545,0 0.08721,0 0.109008,0 0.174414,0.0218 0.0654,0.01817 0.116275,0.08721 0.02544,0.03634 0.02907,0.127177 0.0073,0.09084 0.0073,0.21075 v 0.937474 q 0,0.09811 -0.05451,0.145345 -0.05087,0.04724 -0.119909,0.04724 -0.08357,0 -0.138078,-0.0436 -0.05087,-0.03997 -0.05087,-0.130811 V 88.11498 q -0.09447,0.109009 -0.225285,0.156246 -0.127177,0.04724 -0.323392,0.04724 -0.199849,0 -0.392431,-0.07994 -0.192582,-0.07994 -0.34156,-0.236185 -0.148979,-0.159879 -0.243453,-0.396065 -0.09084,-0.239819 -0.09084,-0.555944 0,-0.316125 0.09084,-0.563211 0.09447,-0.247086 0.254354,-0.417866 0.159879,-0.174414 0.374262,-0.265254 0.214384,-0.09084 0.46147,-0.09084 z m 2.721582,2.387289 q -0.03634,-0.08721 -0.07994,-0.19985 -0.03997,-0.116275 -0.08721,-0.243452 -0.109009,0.0036 -0.228918,0.0073 -0.11991,0 -0.243453,0 -0.156245,0 -0.283422,0 -0.127177,0 -0.232552,-0.0036 -0.0436,0.127177 -0.08357,0.239819 -0.03997,0.112643 -0.07631,0.19985 -0.07267,0.185314 -0.21075,0.185314 -0.05087,0 -0.09811,-0.0327 -0.0436,-0.0327 -0.0436,-0.09447 0,-0.06177 0.0218,-0.159879 0.0218,-0.101741 0.0545,-0.214383 0.03634,-0.116276 0.07631,-0.236186 0.03997,-0.123543 0.07631,-0.228918 0.03634,-0.116276 0.101741,-0.294323 0.06904,-0.181681 0.145345,-0.377896 0.07631,-0.196216 0.152612,-0.385164 0.07631,-0.192582 0.138078,-0.334293 0.01453,-0.03634 0.03634,-0.07994 0.0218,-0.04724 0.05087,-0.08721 0.0327,-0.03997 0.06904,-0.06904 0.03997,-0.02907 0.08721,-0.02907 0.04724,0 0.08721,0.0327 0.03997,0.02907 0.06904,0.07267 0.0327,0.0436 0.0545,0.09084 0.02543,0.04724 0.03997,0.08357 0.05814,0.145345 0.13081,0.334293 0.07631,0.188949 0.148979,0.38153 0.07631,0.192582 0.141711,0.366996 0.06541,0.174414 0.105375,0.294323 0.0327,0.105375 0.07267,0.225285 0.0436,0.119909 0.07994,0.236185 0.03634,0.116276 0.05814,0.218017 0.02544,0.09811 0.02544,0.159879 0,0.06177 -0.04724,0.09447 -0.0436,0.0327 -0.09447,0.0327 -0.0654,0 -0.11991,-0.0436 -0.0545,-0.04724 -0.09447,-0.141711 z m -0.64315,-0.799397 q 0.08721,0 0.174413,0.0036 0.08721,0 0.174414,0.0036 -0.0436,-0.127176 -0.08721,-0.254353 -0.0436,-0.127177 -0.08357,-0.243453 -0.03634,-0.116275 -0.06904,-0.214383 -0.02907,-0.101742 -0.05087,-0.178048 -0.01454,-0.04724 -0.0327,-0.07631 -0.01817,-0.02907 -0.04724,-0.02907 -0.02907,0 -0.04724,0.0327 -0.01817,0.02907 -0.0327,0.07631 -0.0436,0.148978 -0.123543,0.388797 -0.07631,0.236186 -0.163513,0.497806 0.09811,-0.0036 0.196216,-0.0036 0.09811,-0.0036 0.192582,-0.0036 z M 11.1346,86.07646 q -0.101741,0.0073 -0.218017,0.0109 -0.112642,0.0036 -0.25072,0.0073 0.0036,0.09811 0.0073,0.185315 0.0036,0.08357 0.0073,0.17078 0.0036,0.08721 0.0036,0.181681 0.0036,0.09447 0.0036,0.21075 0,0.163513 0,0.316125 0,0.148978 -0.0036,0.30159 -0.0036,0.148979 -0.0073,0.301591 -0.0036,0.152612 -0.0109,0.316125 -0.0036,0.08721 -0.01817,0.134444 -0.0109,0.04724 -0.0327,0.07267 -0.0218,0.02543 -0.05087,0.02907 -0.02907,0.0073 -0.06541,0.0073 -0.0654,0 -0.112642,-0.0436 -0.0436,-0.04724 -0.05087,-0.196216 -0.0073,-0.13081 -0.0109,-0.276155 0,-0.145345 -0.0036,-0.312491 -0.0036,-0.167147 -0.0036,-0.359728 0,-0.196216 0,-0.432401 0,-0.199849 0,-0.348828 0.0036,-0.148978 0.0109,-0.257987 h -0.148979 q -0.152612,0 -0.2616209,-0.0036 -0.105375,-0.0036 -0.174413,-0.01817 -0.06904,-0.01817 -0.101742,-0.05451 -0.02907,-0.03634 -0.02907,-0.101741 0,-0.0327 0.0073,-0.05814 0.0073,-0.02907 0.0327,-0.05087 0.02543,-0.02544 0.06904,-0.03997 0.04724,-0.01453 0.119909,-0.0218 0.06904,-0.0036 0.123543,-0.0073 0.05451,-0.0036 0.1090089,-0.0073 0.0545,-0.0036 0.112642,-0.0036 0.05814,0 0.134444,0 0.214384,0 0.403333,0.0036 0.192582,0.0036 0.406965,0.01454 0.08721,0.0073 0.134444,0.0218 0.04724,0.0109 0.07267,0.0327 0.02543,0.0218 0.02907,0.05087 0.0073,0.02907 0.0073,0.06541 0,0.06541 -0.04724,0.109008 -0.0436,0.0436 -0.192582,0.05087 z m 0.515973,1.656931 q -0.0073,-0.116276 -0.01454,-0.316125 -0.0073,-0.199849 -0.0073,-0.410599 0,-0.11991 0,-0.247086 0.0036,-0.130811 0.0073,-0.265255 0.0073,-0.268887 0.0327,-0.421499 0.02907,-0.152612 0.109008,-0.228919 0.08357,-0.07631 0.232552,-0.09447 0.148978,-0.01817 0.396065,-0.01817 0.0036,0 0.07631,0 0.07631,0 0.181681,0.0036 0.105375,0 0.218017,0.0036 0.116276,0.0036 0.192582,0.0073 0.07994,0.0073 0.127176,0.0218 0.05087,0.0109 0.07631,0.0327 0.02544,0.01817 0.0327,0.04724 0.0073,0.02543 0.0073,0.05814 0,0.08357 -0.04724,0.123543 -0.04724,0.03634 -0.192582,0.04724 -0.07267,0.0073 -0.214383,0.0109 -0.138078,0 -0.283423,0 -0.145345,0 -0.26162,0.0036 -0.116276,0 -0.145345,0 -0.09447,0.0036 -0.134444,0.0436 -0.03634,0.03634 -0.03634,0.178047 0,0.0327 0.0036,0.15988 0.0073,0.123543 0.0073,0.348827 h 0.30159 q 0.192582,0 0.312491,0.0073 0.123543,0.0036 0.188949,0.0218 0.06904,0.01817 0.09447,0.05814 0.02543,0.03997 0.02543,0.105375 0,0.0327 -0.0073,0.06177 -0.0036,0.02543 -0.02907,0.04724 -0.02544,0.01817 -0.07267,0.0327 -0.04724,0.0109 -0.134444,0.01817 -0.105374,0.0073 -0.199849,0.0109 -0.09084,0 -0.181681,0 h -0.305224 q 0,0.05451 0,0.130811 0,0.07631 0,0.156245 0,0.07994 0,0.156246 0.0036,0.07631 0.0073,0.123543 0.0036,0.05814 0.01453,0.09811 0.01453,0.03997 0.04724,0.06541 0.03634,0.02543 0.101741,0.03634 0.06904,0.0109 0.181681,0.0109 h 0.781229 q 0.127176,0 0.159879,0.04724 0.0327,0.04724 0.0327,0.127177 0,0.06541 -0.02907,0.101741 -0.02907,0.0327 -0.141712,0.04724 -0.109008,0.01817 -0.330659,0.0218 -0.218017,0.0036 -0.603181,0.0036 -0.163513,0 -0.268888,-0.02907 -0.105375,-0.02907 -0.17078,-0.09811 -0.06541,-0.06904 -0.09811,-0.178048 -0.02907,-0.112642 -0.03997,-0.272521 z"
     id="text1-5"
     style="font-size:3.63362px;line-height:1.25;font-family:Sniglet;-inkscape-font-specification:'Sniglet, Normal';letter-spacing:0px;word-spacing:0px;fill:#232323;stroke-width:0.265001"
     aria-label="GATE" />
  <path
     d="m 25.050521,68.662237 q 0.11991,0 0.239819,0.0218 0.123543,0.0182 0.221651,0.0618 0.09811,0.04 0.159879,0.10175 0.0654,0.0581 0.0654,0.13807 0,0.0836 -0.0436,0.12718 -0.0436,0.0436 -0.109008,0.0436 -0.06177,0 -0.109009,-0.0182 -0.04724,-0.0218 -0.109008,-0.0472 -0.05814,-0.0254 -0.141712,-0.0436 -0.08357,-0.0218 -0.22165,-0.0218 -0.138078,0 -0.265255,0.0727 -0.123543,0.069 -0.218017,0.19622 -0.09084,0.12354 -0.145345,0.29432 -0.0545,0.17078 -0.0545,0.37063 0,0.24709 0.06177,0.42514 0.0654,0.17804 0.167147,0.29432 0.101741,0.11264 0.228918,0.17078 0.13081,0.0545 0.261621,0.0545 0.156245,0 0.26162,-0.0327 0.105375,-0.0327 0.178048,-0.0727 0.07631,-0.04 0.13081,-0.0727 0.0545,-0.0327 0.105375,-0.0327 0.06177,0 0.09811,0.0363 0.03634,0.0327 0.03634,0.11991 0,0.0727 -0.05814,0.14898 -0.0545,0.0727 -0.163513,0.13444 -0.105375,0.0581 -0.254353,0.0981 -0.148979,0.0363 -0.334293,0.0363 -0.203483,0 -0.406966,-0.0799 -0.199849,-0.0799 -0.359728,-0.23619 -0.156246,-0.15988 -0.254354,-0.39606 -0.09811,-0.23982 -0.09811,-0.55595 0,-0.31612 0.08721,-0.56321 0.09084,-0.24708 0.243453,-0.41786 0.156245,-0.17442 0.359728,-0.26526 0.207116,-0.0908 0.439668,-0.0908 z m 2.111137,2.42726 q -0.04724,0.0872 -0.08721,0.12718 -0.03634,0.04 -0.09447,0.04 -0.05814,0 -0.101741,-0.04 -0.0436,-0.04 -0.09447,-0.12355 -0.0654,-0.10901 -0.148979,-0.30159 -0.07994,-0.19258 -0.163513,-0.41786 -0.08357,-0.22892 -0.163513,-0.47238 -0.07994,-0.24345 -0.145344,-0.45783 -0.06177,-0.21438 -0.101742,-0.37426 -0.03634,-0.16352 -0.03634,-0.23256 0,-0.0727 0.02907,-0.109 0.02907,-0.0363 0.112642,-0.0363 0.04724,0 0.07994,0.0254 0.03634,0.0218 0.09084,0.13082 0.0436,0.0836 0.09447,0.21801 0.05087,0.13445 0.105375,0.29796 0.05814,0.16351 0.116276,0.34519 0.05814,0.17805 0.116276,0.3561 0.05814,0.17805 0.109009,0.34156 0.05087,0.16351 0.09447,0.29432 0.0436,-0.13444 0.09811,-0.29796 0.0545,-0.16714 0.112642,-0.34156 0.05814,-0.17804 0.116276,-0.35609 0.05814,-0.18168 0.116275,-0.34156 0.05814,-0.15988 0.109009,-0.29432 0.05087,-0.13445 0.09084,-0.22165 0.05087,-0.10538 0.08721,-0.13082 0.03997,-0.0254 0.07994,-0.0254 0.08357,0 0.112642,0.0436 0.0327,0.04 0.0327,0.11991 0,0.0727 -0.0218,0.17442 -0.0218,0.10174 -0.07631,0.27252 -0.05087,0.16714 -0.138078,0.41786 -0.08721,0.25072 -0.214383,0.61409 -0.0327,0.0981 -0.07631,0.20348 -0.03997,0.10537 -0.08357,0.20711 -0.03997,0.0981 -0.07994,0.18895 -0.03997,0.0908 -0.07631,0.15625 z"
     id="text1-1"
     style="font-size:3.63362px;line-height:1.25;font-family:Sniglet;-inkscape-font-specification:'Sniglet, Normal';letter-spacing:0px;word-spacing:0px;fill:#232323;stroke-width:0.265001"
     aria-label="CV" />
  <path
     d="m 23.201435,85.713756 q 0.11991,0 0.247087,0.0218 0.127176,0.0218 0.232551,0.0654 0.105375,0.04 0.174414,0.10174 0.06904,0.0618 0.06904,0.14171 0,0.0836 -0.0436,0.12718 -0.0436,0.0436 -0.109008,0.0436 -0.06177,0 -0.116276,-0.0218 -0.05087,-0.0218 -0.116276,-0.0472 -0.0654,-0.0254 -0.156246,-0.0472 -0.09084,-0.0218 -0.228918,-0.0218 -0.152612,0 -0.287056,0.0727 -0.13081,0.069 -0.232551,0.19621 -0.101742,0.12355 -0.15988,0.29433 -0.05814,0.17078 -0.05814,0.37063 0,0.24345 0.06177,0.4215 0.06177,0.17804 0.159879,0.29432 0.101742,0.11628 0.225285,0.17441 0.127176,0.0545 0.254353,0.0545 0.207117,0 0.327026,-0.0581 0.123543,-0.0618 0.196215,-0.15625 0.0036,-0.0763 0.0036,-0.18168 0,-0.10537 0,-0.22891 0,-0.0472 -0.0073,-0.0727 -0.0073,-0.0291 -0.03634,-0.0436 -0.02907,-0.0145 -0.08721,-0.0182 -0.05451,-0.004 -0.148979,-0.004 -0.116276,0 -0.188948,-0.0291 -0.07267,-0.0327 -0.07267,-0.13445 0,-0.0727 0.03634,-0.11627 0.03997,-0.0472 0.159879,-0.0545 0.0218,0 0.06904,0 0.05087,-0.004 0.105375,-0.004 0.05814,0 0.112642,0 0.0545,0 0.08721,0 0.109009,0 0.174414,0.0218 0.06541,0.0182 0.116276,0.0872 0.02544,0.0363 0.02907,0.12718 0.0073,0.0908 0.0073,0.21075 v 0.93747 q 0,0.0981 -0.0545,0.14535 -0.05087,0.0472 -0.11991,0.0472 -0.08357,0 -0.138077,-0.0436 -0.05087,-0.04 -0.05087,-0.13081 v -0.14171 q -0.09447,0.10901 -0.225285,0.15624 -0.127176,0.0472 -0.323392,0.0472 -0.199849,0 -0.392431,-0.0799 -0.192582,-0.0799 -0.34156,-0.23618 -0.148978,-0.15988 -0.243453,-0.39607 -0.09084,-0.23982 -0.09084,-0.55594 0,-0.31613 0.09084,-0.56321 0.09448,-0.24709 0.254354,-0.41787 0.159879,-0.17441 0.374263,-0.26525 0.214383,-0.0909 0.461469,-0.0909 z m 2.721583,2.38729 q -0.03634,-0.0872 -0.07994,-0.19985 -0.03997,-0.11627 -0.08721,-0.24345 -0.109009,0.004 -0.228918,0.007 -0.119909,0 -0.243453,0 -0.156245,0 -0.283422,0 -0.127177,0 -0.232552,-0.004 -0.0436,0.12718 -0.08357,0.23982 -0.03997,0.11265 -0.07631,0.19985 -0.07267,0.18532 -0.21075,0.18532 -0.05087,0 -0.09811,-0.0327 -0.0436,-0.0327 -0.0436,-0.0945 0,-0.0618 0.0218,-0.15988 0.0218,-0.10174 0.0545,-0.21438 0.03634,-0.11628 0.07631,-0.23619 0.03997,-0.12354 0.07631,-0.22892 0.03634,-0.11627 0.101741,-0.29432 0.06904,-0.18168 0.145345,-0.3779 0.07631,-0.19621 0.152612,-0.38516 0.07631,-0.19258 0.138078,-0.33429 0.01453,-0.0363 0.03634,-0.0799 0.0218,-0.0472 0.05087,-0.0872 0.0327,-0.04 0.06904,-0.069 0.03997,-0.0291 0.08721,-0.0291 0.04724,0 0.08721,0.0327 0.03997,0.0291 0.06904,0.0727 0.0327,0.0436 0.0545,0.0908 0.02544,0.0472 0.03997,0.0836 0.05814,0.14535 0.13081,0.3343 0.07631,0.18894 0.148979,0.38153 0.07631,0.19258 0.141711,0.36699 0.06541,0.17442 0.105375,0.29432 0.0327,0.10538 0.07267,0.22529 0.0436,0.11991 0.07994,0.23618 0.03634,0.11628 0.05814,0.21802 0.02543,0.0981 0.02543,0.15988 0,0.0618 -0.04724,0.0945 -0.0436,0.0327 -0.09447,0.0327 -0.0654,0 -0.119909,-0.0436 -0.0545,-0.0472 -0.09447,-0.14171 z m -0.643151,-0.79939 q 0.08721,0 0.174414,0.004 0.08721,0 0.174413,0.004 -0.0436,-0.12717 -0.08721,-0.25435 -0.0436,-0.12718 -0.08357,-0.24345 -0.03634,-0.11628 -0.06904,-0.21439 -0.02907,-0.10174 -0.05087,-0.17804 -0.01454,-0.0472 -0.0327,-0.0763 -0.01817,-0.0291 -0.04724,-0.0291 -0.02907,0 -0.04724,0.0327 -0.01817,0.0291 -0.0327,0.0763 -0.0436,0.14898 -0.123543,0.3888 -0.07631,0.23618 -0.163513,0.4978 0.09811,-0.004 0.196216,-0.004 0.09811,-0.004 0.192582,-0.004 z m 2.412724,-1.22453 q -0.101741,0.007 -0.218017,0.0109 -0.112642,0.004 -0.25072,0.007 0.0036,0.0981 0.0073,0.18532 0.0036,0.0836 0.0073,0.17078 0.0036,0.0872 0.0036,0.18168 0.0036,0.0945 0.0036,0.21075 0,0.16351 0,0.31613 0,0.14897 -0.0036,0.30159 -0.0036,0.14897 -0.0073,0.30159 -0.0036,0.15261 -0.0109,0.31612 -0.0036,0.0872 -0.01817,0.13445 -0.0109,0.0472 -0.0327,0.0727 -0.0218,0.0254 -0.05087,0.0291 -0.02907,0.007 -0.06541,0.007 -0.0654,0 -0.112643,-0.0436 -0.0436,-0.0472 -0.05087,-0.19622 -0.0073,-0.13081 -0.0109,-0.27615 0,-0.14535 -0.0036,-0.31249 -0.0036,-0.16715 -0.0036,-0.35973 0,-0.19622 0,-0.4324 0,-0.19985 0,-0.34883 0.0036,-0.14898 0.0109,-0.25799 h -0.148979 q -0.152612,0 -0.261621,-0.004 -0.105375,-0.004 -0.174413,-0.0182 -0.06904,-0.0182 -0.101742,-0.0545 -0.02907,-0.0363 -0.02907,-0.10174 0,-0.0327 0.0073,-0.0581 0.0073,-0.0291 0.0327,-0.0509 0.02544,-0.0254 0.06904,-0.04 0.04724,-0.0145 0.119909,-0.0218 0.06904,-0.004 0.123544,-0.007 0.0545,-0.004 0.109008,-0.007 0.0545,-0.004 0.112642,-0.004 0.05814,0 0.134444,0 0.214384,0 0.403332,0.004 0.192582,0.004 0.406966,0.0145 0.08721,0.007 0.134444,0.0218 0.04724,0.0109 0.07267,0.0327 0.02543,0.0218 0.02907,0.0509 0.0073,0.0291 0.0073,0.0654 0,0.0654 -0.04724,0.10901 -0.0436,0.0436 -0.192582,0.0509 z m 0.515973,1.65693 q -0.0073,-0.11628 -0.01454,-0.31613 -0.0073,-0.19985 -0.0073,-0.4106 0,-0.11991 0,-0.24708 0.0036,-0.13081 0.0073,-0.26526 0.0073,-0.26889 0.0327,-0.4215 0.02907,-0.15261 0.109008,-0.22892 0.08357,-0.0763 0.232552,-0.0945 0.148979,-0.0182 0.396065,-0.0182 0.0036,0 0.07631,0 0.07631,0 0.181681,0.004 0.105375,0 0.218017,0.004 0.116276,0.004 0.192582,0.007 0.07994,0.007 0.127177,0.0218 0.05087,0.0109 0.07631,0.0327 0.02543,0.0182 0.0327,0.0472 0.0073,0.0254 0.0073,0.0581 0,0.0836 -0.04724,0.12354 -0.04724,0.0363 -0.192582,0.0472 -0.07267,0.007 -0.214383,0.0109 -0.138078,0 -0.283423,0 -0.145344,0 -0.26162,0.004 -0.116276,0 -0.145345,0 -0.09447,0.004 -0.134444,0.0436 -0.03634,0.0363 -0.03634,0.17805 0,0.0327 0.0036,0.15988 0.0073,0.12354 0.0073,0.34883 h 0.30159 q 0.192582,0 0.312492,0.007 0.123543,0.004 0.188948,0.0218 0.06904,0.0182 0.09447,0.0581 0.02543,0.04 0.02543,0.10537 0,0.0327 -0.0073,0.0618 -0.0036,0.0254 -0.02907,0.0472 -0.02544,0.0182 -0.07267,0.0327 -0.04724,0.0109 -0.134444,0.0182 -0.105375,0.007 -0.199849,0.0109 -0.09084,0 -0.181681,0 h -0.305224 q 0,0.0545 0,0.13081 0,0.0763 0,0.15625 0,0.0799 0,0.15624 0.0036,0.0763 0.0073,0.12355 0.0036,0.0581 0.01453,0.0981 0.01453,0.04 0.04724,0.0654 0.03634,0.0254 0.101742,0.0363 0.06904,0.0109 0.181681,0.0109 h 0.781228 q 0.127177,0 0.159879,0.0472 0.0327,0.0472 0.0327,0.12718 0,0.0654 -0.02907,0.10174 -0.02907,0.0327 -0.141711,0.0472 -0.109009,0.0182 -0.33066,0.0218 -0.218017,0.004 -0.603181,0.004 -0.163513,0 -0.268888,-0.0291 -0.105375,-0.0291 -0.17078,-0.0981 -0.0654,-0.069 -0.09811,-0.17805 -0.02907,-0.11264 -0.03997,-0.27252 z"
     id="text1-5-5"
     style="font-size:3.63362px;line-height:1.25;font-family:Sniglet;-inkscape-font-specification:'Sniglet, Normal';letter-spacing:0px;word-spacing:0px;fill:#232323;stroke-width:0.265001"
     aria-label="GATE" />
  <path
     style="font-size:3.63362px;line-height:1.25;font-family:Sniglet;-inkscape-font-specification:'Sniglet, Normal';letter-spacing:0px;word-spacing:0px;fill:#232323;stroke-width:0.264584"
     d="m 7.6617424,102.66224 q 0.11991,0 0.239819,0.0218 0.123543,0.0182 0.221651,0.0618 0.09811,0.04 0.159879,0.10174 0.0654,0.0581 0.0654,0.13808 0,0.0836 -0.0436,0.12718 -0.0436,0.0436 -0.109009,0.0436 -0.06177,0 -0.109008,-0.0182 -0.04724,-0.0218 -0.109009,-0.0472 -0.05814,-0.0254 -0.141711,-0.0436 -0.08357,-0.0218 -0.221651,-0.0218 -0.138077,0 -0.265254,0.0727 -0.123543,0.069 -0.218017,0.19621 -0.09084,0.12355 -0.145345,0.29433 -0.0545,0.17078 -0.0545,0.37063 0,0.24708 0.06177,0.42513 0.0654,0.17805 0.167147,0.29432 0.101741,0.11264 0.228918,0.17078 0.13081,0.0545 0.26162,0.0545 0.156246,0 0.261621,-0.0327 0.105375,-0.0327 0.178047,-0.0727 0.07631,-0.04 0.130811,-0.0727 0.0545,-0.0327 0.105375,-0.0327 0.06177,0 0.09811,0.0363 0.03634,0.0327 0.03634,0.11991 0,0.0727 -0.05814,0.14898 -0.05451,0.0727 -0.163513,0.13444 -0.105375,0.0581 -0.254354,0.0981 -0.148978,0.0363 -0.334293,0.0363 -0.203482,0 -0.406965,-0.0799 -0.199849,-0.0799 -0.359728,-0.23618 -0.156246,-0.15988 -0.254354,-0.39607 -0.09811,-0.23981 -0.09811,-0.55594 0,-0.31612 0.08721,-0.56321 0.09084,-0.24709 0.243453,-0.41787 0.156245,-0.17441 0.359728,-0.26525 0.207117,-0.0908 0.439668,-0.0908 z m 2.111137,2.42726 q -0.04724,0.0872 -0.08721,0.12718 -0.03634,0.04 -0.09447,0.04 -0.05814,0 -0.101742,-0.04 -0.0436,-0.04 -0.09447,-0.12355 -0.0654,-0.109 -0.148978,-0.30159 -0.07994,-0.19258 -0.163513,-0.41786 -0.08357,-0.22892 -0.163513,-0.47237 -0.07994,-0.24346 -0.145345,-0.45784 -0.06177,-0.21438 -0.101741,-0.37426 -0.03634,-0.16351 -0.03634,-0.23255 0,-0.0727 0.02907,-0.10901 0.02907,-0.0363 0.112642,-0.0363 0.04724,0 0.07994,0.0254 0.03634,0.0218 0.09084,0.13081 0.0436,0.0836 0.09447,0.21801 0.05087,0.13445 0.105375,0.29796 0.05814,0.16351 0.116276,0.3452 0.05814,0.17804 0.116276,0.35609 0.05814,0.17805 0.109008,0.34156 0.05087,0.16351 0.09448,0.29432 0.0436,-0.13444 0.09811,-0.29795 0.0545,-0.16715 0.112643,-0.34156 0.05814,-0.17805 0.116275,-0.3561 0.05814,-0.18168 0.1162756,-0.34156 0.05814,-0.15988 0.109009,-0.29432 0.05087,-0.13445 0.09084,-0.22165 0.05087,-0.10538 0.08721,-0.13081 0.03997,-0.0254 0.07994,-0.0254 0.08357,0 0.112642,0.0436 0.0327,0.04 0.0327,0.11991 0,0.0727 -0.0218,0.17441 -0.0218,0.10174 -0.07631,0.27252 -0.05087,0.16715 -0.138078,0.41787 -0.08721,0.25072 -0.214383,0.61408 -0.0327,0.0981 -0.07631,0.20348 -0.03997,0.10538 -0.08357,0.20712 -0.03997,0.0981 -0.07994,0.18895 -0.03997,0.0908 -0.07631,0.15624 z m 1.8131726,-2.04936 q -0.13081,0 -0.218017,0.0291 -0.08721,0.0254 -0.145345,0.069 -0.05814,0.0436 -0.09447,0.0908 -0.0327,0.0472 -0.0654,0.0908 -0.02907,0.0436 -0.06541,0.0727 -0.0327,0.0254 -0.08357,0.0254 -0.08721,0 -0.123543,-0.0436 -0.0327,-0.0472 -0.0327,-0.12354 0,-0.15988 0.119909,-0.29796 0.03634,-0.0436 0.09811,-0.0908 0.06541,-0.0509 0.152612,-0.0908 0.09084,-0.04 0.207117,-0.0654 0.119909,-0.0291 0.268888,-0.0291 0.396064,0 0.614081,0.19258 0.218017,0.19258 0.218017,0.54141 0,0.069 -0.01453,0.15261 -0.0109,0.0836 -0.04724,0.17442 -0.0327,0.0908 -0.09447,0.18894 -0.06177,0.0981 -0.163513,0.19985 -0.09084,0.0908 -0.192582,0.16715 -0.101741,0.0763 -0.21075,0.15261 -0.109008,0.0763 -0.228918,0.16352 -0.116276,0.0836 -0.236185,0.19258 0.116276,0.0618 0.25072,0.0799 0.134443,0.0182 0.30159,0.0182 0.156246,0 0.25072,-0.007 0.09447,-0.007 0.152612,-0.0182 0.05814,-0.0109 0.09084,-0.0182 0.0327,-0.007 0.06904,-0.007 0.134444,0 0.134444,0.12354 0,0.10901 -0.09084,0.16715 -0.09084,0.0581 -0.218018,0.0872 -0.127176,0.0254 -0.26162,0.0291 -0.134444,0.007 -0.221651,0.007 -0.04724,0 -0.134444,-0.007 -0.08357,-0.004 -0.181681,-0.0182 -0.09811,-0.0145 -0.199849,-0.04 -0.09811,-0.0291 -0.181681,-0.0727 -0.07994,-0.0472 -0.130811,-0.11265 -0.05087,-0.069 -0.05087,-0.16351 0,-0.12718 0.09084,-0.23982 0.09447,-0.11627 0.232552,-0.22528 0.138078,-0.11265 0.297957,-0.22165 0.159879,-0.11265 0.297957,-0.22892 0.138077,-0.11991 0.228918,-0.24709 0.09447,-0.12718 0.09447,-0.27615 0,-0.18532 -0.127177,-0.27616 -0.123543,-0.0945 -0.356095,-0.0945 z"
     id="text7"
     aria-label="CV2" />
  <path
     style="font-size:3.63362px;line-height:1.25;font-family:Sniglet;-inkscape-font-specification:'Sniglet, Normal';letter-spacing:0px;word-spacing:0px;fill:#232323;stroke-width:0.264584"
     d="m 24.201529,102.55534 q 0.11991,0 0.239819,0.0218 0.123543,0.0182 0.221651,0.0618 0.09811,0.04 0.159879,0.10174 0.0654,0.0581 0.0654,0.13807 0,0.0836 -0.0436,0.12718 -0.0436,0.0436 -0.109009,0.0436 -0.06177,0 -0.109008,-0.0182 -0.04724,-0.0218 -0.109009,-0.0472 -0.05814,-0.0254 -0.141711,-0.0436 -0.08357,-0.0218 -0.221651,-0.0218 -0.138077,0 -0.265254,0.0727 -0.123543,0.069 -0.218017,0.19622 -0.09084,0.12354 -0.145345,0.29432 -0.0545,0.17078 -0.0545,0.37063 0,0.24709 0.06177,0.42513 0.0654,0.17805 0.167147,0.29433 0.101741,0.11264 0.228918,0.17078 0.13081,0.0545 0.26162,0.0545 0.156246,0 0.261621,-0.0327 0.105375,-0.0327 0.178047,-0.0727 0.07631,-0.04 0.130811,-0.0727 0.0545,-0.0327 0.105375,-0.0327 0.06177,0 0.09811,0.0363 0.03634,0.0327 0.03634,0.11991 0,0.0727 -0.05814,0.14897 -0.05451,0.0727 -0.163513,0.13445 -0.105375,0.0581 -0.254354,0.0981 -0.148978,0.0363 -0.334293,0.0363 -0.203482,0 -0.406965,-0.0799 -0.199849,-0.0799 -0.359728,-0.23619 -0.156246,-0.15988 -0.254354,-0.39606 -0.09811,-0.23982 -0.09811,-0.55595 0,-0.31612 0.08721,-0.56321 0.09084,-0.24708 0.243453,-0.41786 0.156245,-0.17442 0.359728,-0.26526 0.207117,-0.0908 0.439668,-0.0908 z m 2.111137,2.42725 q -0.04724,0.0872 -0.08721,0.12718 -0.03634,0.04 -0.09447,0.04 -0.05814,0 -0.101742,-0.04 -0.0436,-0.04 -0.09447,-0.12354 -0.0654,-0.10901 -0.148978,-0.30159 -0.07994,-0.19258 -0.163513,-0.41787 -0.08357,-0.22892 -0.163513,-0.47237 -0.07994,-0.24345 -0.145345,-0.45783 -0.06177,-0.21439 -0.101741,-0.37427 -0.03634,-0.16351 -0.03634,-0.23255 0,-0.0727 0.02907,-0.10901 0.02907,-0.0363 0.112642,-0.0363 0.04724,0 0.07994,0.0254 0.03634,0.0218 0.09084,0.13081 0.0436,0.0836 0.09447,0.21802 0.05087,0.13444 0.105375,0.29796 0.05814,0.16351 0.116276,0.34519 0.05814,0.17805 0.116276,0.35609 0.05814,0.17805 0.109008,0.34156 0.05087,0.16352 0.09448,0.29433 0.0436,-0.13445 0.09811,-0.29796 0.0545,-0.16715 0.112643,-0.34156 0.05814,-0.17805 0.116275,-0.35609 0.05814,-0.18169 0.116276,-0.34156 0.05814,-0.15988 0.109009,-0.29433 0.05087,-0.13444 0.09084,-0.22165 0.05087,-0.10537 0.08721,-0.13081 0.03997,-0.0254 0.07994,-0.0254 0.08357,0 0.112642,0.0436 0.0327,0.04 0.0327,0.11991 0,0.0727 -0.0218,0.17441 -0.0218,0.10175 -0.07631,0.27253 -0.05087,0.16714 -0.138078,0.41786 -0.08721,0.25072 -0.214383,0.61408 -0.0327,0.0981 -0.07631,0.20349 -0.03997,0.10537 -0.08357,0.20711 -0.03997,0.0981 -0.07994,0.18895 -0.03997,0.0908 -0.07631,0.15625 z m 1.813173,-2.04936 q -0.13081,0 -0.218017,0.0291 -0.08721,0.0254 -0.145345,0.069 -0.05814,0.0436 -0.09447,0.0908 -0.0327,0.0472 -0.0654,0.0908 -0.02907,0.0436 -0.06541,0.0727 -0.0327,0.0254 -0.08357,0.0254 -0.08721,0 -0.123543,-0.0436 -0.0327,-0.0472 -0.0327,-0.12354 0,-0.15988 0.119909,-0.29796 0.03634,-0.0436 0.09811,-0.0908 0.06541,-0.0509 0.152612,-0.0908 0.09084,-0.04 0.207117,-0.0654 0.119909,-0.0291 0.268888,-0.0291 0.396064,0 0.614081,0.19259 0.218017,0.19258 0.218017,0.5414 0,0.069 -0.01453,0.15262 -0.0109,0.0836 -0.04724,0.17441 -0.0327,0.0908 -0.09447,0.18895 -0.06177,0.0981 -0.163513,0.19985 -0.09084,0.0908 -0.192582,0.16714 -0.101741,0.0763 -0.21075,0.15262 -0.109008,0.0763 -0.228918,0.16351 -0.116276,0.0836 -0.236185,0.19258 0.116276,0.0618 0.25072,0.0799 0.134443,0.0182 0.30159,0.0182 0.156246,0 0.25072,-0.007 0.09447,-0.007 0.152612,-0.0182 0.05814,-0.0109 0.09084,-0.0182 0.0327,-0.007 0.06904,-0.007 0.134444,0 0.134444,0.12354 0,0.10901 -0.09084,0.16715 -0.09084,0.0581 -0.218018,0.0872 -0.127176,0.0254 -0.26162,0.0291 -0.134444,0.007 -0.221651,0.007 -0.04724,0 -0.134444,-0.007 -0.08357,-0.004 -0.181681,-0.0182 -0.09811,-0.0145 -0.199849,-0.04 -0.09811,-0.0291 -0.181681,-0.0727 -0.07994,-0.0472 -0.130811,-0.11264 -0.05087,-0.069 -0.05087,-0.16352 0,-0.12717 0.09084,-0.23981 0.09447,-0.11628 0.232552,-0.22529 0.138078,-0.11264 0.297957,-0.22165 0.159879,-0.11264 0.297957,-0.22892 0.138077,-0.11991 0.228918,-0.24708 0.09447,-0.12718 0.09447,-0.27616 0,-0.18531 -0.127177,-0.27615 -0.123543,-0.0945 -0.356095,-0.0945 z"
     id="text7-5"
     aria-label="CV2" />
  <path
     d="M 26.065305,49.114228 V 52.50124"
     id="path16-9-5-7-8"
     inkscape:connector-curvature="0"
     style="fill:none;stroke:#232323;stroke-width:0.132;stroke-opacity:1" />
  <path
     d="m 9.4607077,49.101805 v 3.38701"
     id="path16-9-5-7-8-1"
     inkscape:connector-curvature="0"
     style="fill:none;stroke:#232323;stroke-width:0.132;stroke-opacity:1" />
  <path
     d="m 26.065305,30.850911 v 3.387012"
     id="path16-9-5-7-8-0"
     inkscape:connector-curvature="0"
     style="fill:none;stroke:#232323;stroke-width:0.132;stroke-opacity:1" />
  <path
     style="font-size:3.52779px;line-height:1.25;font-family:Sniglet;-inkscape-font-specification:'Sniglet, Normal';fill:#232323;stroke-width:0.264584"
     d="m 5.4051087,36.505063 q 0.116417,0 0.232834,0.0212 0.119945,0.0176 0.215196,0.06 0.09525,0.0388 0.155222,0.0988 0.0635,0.0564 0.0635,0.13405 0,0.0811 -0.04233,0.12348 -0.04233,0.0423 -0.105834,0.0423 -0.05997,0 -0.105833,-0.0176 -0.04586,-0.0212 -0.105834,-0.0459 -0.05644,-0.0247 -0.137584,-0.0423 -0.08114,-0.0212 -0.215195,-0.0212 -0.134055,0 -0.257528,0.0706 -0.119945,0.067 -0.211667,0.1905 -0.08819,0.11994 -0.141112,0.28575 -0.05292,0.1658 -0.05292,0.35983 0,0.23989 0.05997,0.41275 0.0635,0.17287 0.162278,0.28575 0.09878,0.10937 0.222251,0.16581 0.127,0.0529 0.254,0.0529 0.151695,0 0.254001,-0.0318 0.102306,-0.0318 0.172861,-0.0706 0.07408,-0.0388 0.127001,-0.0706 0.05292,-0.0318 0.102306,-0.0318 0.05997,0 0.09525,0.0353 0.03528,0.0318 0.03528,0.11642 0,0.0706 -0.05644,0.14464 -0.05292,0.0706 -0.15875,0.13053 -0.102306,0.0564 -0.246945,0.0952 -0.14464,0.0353 -0.324557,0.0353 -0.197555,0 -0.395112,-0.0776 -0.194028,-0.0776 -0.349251,-0.22931 -0.151695,-0.15522 -0.246945,-0.38453 -0.09525,-0.23283 -0.09525,-0.53975 0,-0.30692 0.08467,-0.54681 0.08819,-0.23989 0.236362,-0.4057 0.151695,-0.16933 0.349252,-0.25752 0.201084,-0.0882 0.426861,-0.0882 z m 1.439341,1.51342 q 0,0.11289 0,0.20108 0,0.0847 -0.0035,0.16228 0,0.0776 -0.0035,0.15522 -0.0035,0.0776 -0.0071,0.17286 0.243417,-0.0282 0.381001,-0.0459 0.137584,-0.0176 0.215195,-0.0282 0.08114,-0.0106 0.123472,-0.0141 0.04586,-0.003 0.105834,-0.003 0.155222,0 0.155222,0.1517 0,0.06 -0.0635,0.10231 -0.05997,0.0423 -0.155223,0.0741 -0.09172,0.0282 -0.208138,0.0494 -0.112889,0.0176 -0.222251,0.0247 -0.105834,0.0106 -0.194028,0.0141 -0.08467,0.003 -0.119945,0.003 -0.127001,0 -0.197557,-0.0176 -0.07055,-0.0141 -0.105833,-0.0917 -0.03528,-0.0811 -0.04586,-0.24342 -0.0071,-0.16228 -0.0071,-0.45861 0,-0.28576 0,-0.50801 0,-0.22225 0.0035,-0.39864 0.0035,-0.17639 0.0035,-0.31397 0.0035,-0.13758 0.01058,-0.25047 0.0071,-0.14464 0.04939,-0.18698 0.04233,-0.0459 0.105834,-0.0459 0.03528,0 0.05997,0.007 0.02822,0.004 0.04939,0.0282 0.02117,0.0247 0.03175,0.0706 0.01411,0.0459 0.01764,0.13053 0.01411,0.31045 0.01764,0.61384 0.0035,0.30339 0.0035,0.64558 z m 1.270004,0.44803 q -0.0071,-0.11289 -0.01411,-0.30692 -0.0071,-0.19403 -0.0071,-0.39864 0,-0.11642 0,-0.23989 0.0035,-0.127 0.0071,-0.25753 0.0071,-0.26106 0.03175,-0.40922 0.02822,-0.14817 0.105835,-0.22225 0.08114,-0.0741 0.225778,-0.0917 0.144635,-0.0176 0.384525,-0.0176 0.003,0 0.0741,0 0.0741,0 0.176388,0.004 0.10231,0 0.21167,0.004 0.11289,0.004 0.18697,0.007 0.0776,0.007 0.123478,0.0212 0.0494,0.0106 0.0741,0.0317 0.0247,0.0176 0.0318,0.0459 0.007,0.0247 0.007,0.0564 0,0.0811 -0.0459,0.11994 -0.0459,0.0353 -0.186978,0.0459 -0.0705,0.007 -0.20814,0.0106 -0.13405,0 -0.275168,0 -0.14111,0 -0.254,0.004 -0.11289,0 -0.14111,0 -0.09172,0.003 -0.130525,0.0423 -0.03528,0.0353 -0.03528,0.17286 0,0.0318 0.0035,0.15523 0.0071,0.11994 0.0071,0.33866 h 0.292805 q 0.18697,0 0.30339,0.007 0.119948,0.004 0.183448,0.0212 0.067,0.0176 0.0917,0.0564 0.0247,0.0388 0.0247,0.10231 0,0.0318 -0.007,0.06 -0.003,0.0247 -0.0282,0.0459 -0.0247,0.0176 -0.0706,0.0318 -0.0459,0.0106 -0.13053,0.0176 -0.102308,0.007 -0.194028,0.0106 -0.0882,0 -0.17639,0 h -0.296333 q 0,0.0529 0,0.127 0,0.0741 0,0.1517 0,0.0776 0,0.15169 0.0035,0.0741 0.0071,0.11995 0.0035,0.0564 0.01411,0.0952 0.01411,0.0388 0.04586,0.0635 0.03528,0.0247 0.09878,0.0353 0.067,0.0106 0.17639,0.0106 h 0.758471 q 0.123468,0 0.155218,0.0459 0.0318,0.0459 0.0318,0.12347 0,0.0635 -0.0282,0.0988 -0.0282,0.0318 -0.137578,0.0459 -0.10583,0.0176 -0.32103,0.0212 -0.211671,0.004 -0.585611,0.004 -0.158752,0 -0.261058,-0.0282 -0.102306,-0.0282 -0.165806,-0.0953 -0.0635,-0.067 -0.09525,-0.17286 -0.02822,-0.10936 -0.03881,-0.26459 z m 3.4289983,0.3563 q -0.0353,-0.0847 -0.0776,-0.19402 -0.0388,-0.11289 -0.0847,-0.23637 -0.10583,0.004 -0.222248,0.007 -0.11641,0 -0.23636,0 -0.15169,0 -0.275168,0 -0.12347,0 -0.22578,-0.004 -0.0423,0.12348 -0.0811,0.23284 -0.0388,0.10936 -0.0741,0.19403 -0.0706,0.17991 -0.204608,0.17991 -0.0494,0 -0.0952,-0.0318 -0.0423,-0.0318 -0.0423,-0.0917 0,-0.06 0.0212,-0.15522 0.0212,-0.0988 0.0529,-0.20814 0.0353,-0.11289 0.0741,-0.2293 0.0388,-0.11995 0.0741,-0.22226 0.0353,-0.11289 0.0988,-0.28575 0.067,-0.17639 0.14112,-0.36689 0.0741,-0.1905 0.14816,-0.37394 0.0741,-0.18698 0.13406,-0.32456 0.0141,-0.0353 0.0353,-0.0776 0.0212,-0.0459 0.0494,-0.0847 0.0318,-0.0388 0.067,-0.067 0.0388,-0.0282 0.0847,-0.0282 0.0459,0 0.0847,0.0318 0.0388,0.0282 0.067,0.0705 0.0318,0.0423 0.0529,0.0882 0.0247,0.0459 0.0388,0.0811 0.0564,0.14111 0.127004,0.32456 0.0741,0.18344 0.14464,0.37042 0.0741,0.18697 0.13758,0.3563 0.0635,0.16934 0.10231,0.28575 0.0318,0.10231 0.0706,0.21873 0.0423,0.11641 0.0776,0.2293 0.0353,0.11289 0.0564,0.21167 0.0247,0.0952 0.0247,0.15522 0,0.06 -0.0459,0.0917 -0.0423,0.0318 -0.0917,0.0318 -0.0635,0 -0.116416,-0.0423 -0.0529,-0.0459 -0.0917,-0.13758 z m -0.624418,-0.77611 q 0.0847,0 0.16934,0.004 0.0847,0 0.169328,0.004 -0.0423,-0.12347 -0.0847,-0.24694 -0.0423,-0.12348 -0.0811,-0.23637 -0.0353,-0.11289 -0.067,-0.20814 -0.0282,-0.0988 -0.0494,-0.17286 -0.0141,-0.0459 -0.0318,-0.0741 -0.0176,-0.0282 -0.0459,-0.0282 -0.0282,0 -0.0459,0.0318 -0.0176,0.0282 -0.0318,0.0741 -0.0423,0.14464 -0.11994,0.37748 -0.0741,0.2293 -0.158748,0.4833 0.0953,-0.004 0.190498,-0.004 0.0953,-0.004 0.18697,-0.004 z m 2.031998,0.0882 q -0.0494,0.004 -0.1023,0.007 -0.0494,0 -0.10231,0 -0.06,0 -0.11995,0 -0.06,0 -0.13405,-0.007 v 0.71614 q 0,0.11289 -0.0564,0.14111 -0.0529,0.0247 -0.13406,0.0247 -0.0423,0 -0.067,-0.007 -0.0247,-0.004 -0.0423,-0.0176 -0.0141,-0.0176 -0.0247,-0.0494 -0.007,-0.0318 -0.0106,-0.0882 -0.007,-0.0635 -0.0106,-0.18344 -0.004,-0.12347 -0.007,-0.3175 0,-0.19403 -0.004,-0.4692 0,-0.27869 0,-0.65264 0,-0.14464 0.0353,-0.2787 0.0353,-0.13758 0.127,-0.23989 0.0917,-0.10583 0.24695,-0.16933 0.15875,-0.0635 0.40217,-0.0635 0.17286,0 0.33514,0.0388 0.1658,0.0388 0.2928,0.13406 0.127,0.0952 0.20462,0.25752 0.0776,0.16228 0.0776,0.4057 0,0.32456 -0.14112,0.50447 -0.13758,0.17639 -0.381,0.25048 l 0.47273,0.64911 q 0.0635,0.0847 0.0635,0.17286 0,0.0706 -0.0494,0.10936 -0.0459,0.0423 -0.11642,0.0423 -0.0776,0 -0.13406,-0.0423 -0.0564,-0.0459 -0.10583,-0.11641 z m 0.55386,-0.82198 q 0,-0.24341 -0.14816,-0.35983 -0.14464,-0.11994 -0.46214,-0.11994 -0.11642,0 -0.19403,0.0212 -0.0776,0.0176 -0.12347,0.0706 -0.0459,0.0529 -0.067,0.14816 -0.0176,0.0917 -0.0176,0.23636 0,0.10231 0,0.23989 0,0.13759 0.004,0.25048 0.0811,0.004 0.17991,0.004 0.10231,0 0.1905,0 0.0988,0 0.20814,-0.0106 0.11289,-0.0141 0.20814,-0.0635 0.0952,-0.0529 0.15875,-0.14817 0.0635,-0.0988 0.0635,-0.26811 z"
     id="text2"
     aria-label="CLEAR" />
  <path
     style="font-size:3.63368px;line-height:1.25;font-family:Sniglet;-inkscape-font-specification:'Sniglet, Normal';letter-spacing:0px;word-spacing:0px;fill:#232323;stroke-width:0.264584"
     d="m 23.625388,14.368706 v 0.207116 c 0,0.05814 -0.0012,0.113855 -0.0036,0.167146 0,0.05329 -0.0012,0.106587 -0.0036,0.15988 -0.0024,0.05329 -0.0048,0.112642 -0.0073,0.178047 0.167152,-0.01938 0.297967,-0.03513 0.392445,-0.04724 0.09447,-0.01211 0.168355,-0.0218 0.221646,-0.02907 0.05573,-0.0073 0.09813,-0.01211 0.12719,-0.01453 0.03147,-0.0024 0.0678,-0.0036 0.10901,-0.0036 0.106593,0 0.15989,0.05208 0.15989,0.156245 0,0.04118 -0.0218,0.0763 -0.0654,0.105376 -0.0412,0.02907 -0.09449,0.0545 -0.15988,0.07631 -0.063,0.01938 -0.134467,0.03634 -0.2144,0.05087 -0.07752,0.01211 -0.153823,0.02059 -0.228919,0.02544 -0.07268,0.0073 -0.139293,0.01211 -0.199855,0.01454 -0.05814,0.0024 -0.09932,0.0036 -0.123548,0.0036 -0.08721,0 -0.15504,-0.0061 -0.203489,-0.01817 -0.04845,-0.0097 -0.08478,-0.04118 -0.109013,-0.09447 -0.02423,-0.05572 -0.03997,-0.139293 -0.04724,-0.25072 -0.0049,-0.111431 -0.0073,-0.268888 -0.0073,-0.472371 v -0.523241 c 0,-0.152612 0.0012,-0.289478 0.0036,-0.410599 0.0024,-0.121121 0.0036,-0.228918 0.0036,-0.323391 0.0024,-0.09448 0.006,-0.18047 0.0109,-0.257987 0.0049,-0.09932 0.02182,-0.163513 0.05087,-0.192582 0.02907,-0.03149 0.0654,-0.04724 0.109012,-0.04724 0.02423,0 0.04482,0.0024 0.06177,0.0073 0.01938,0.0024 0.03634,0.01209 0.05087,0.02907 0.01453,0.01696 0.02543,0.04118 0.0327,0.07267 0.0097,0.03149 0.01574,0.07631 0.01817,0.134444 0.0097,0.213173 0.01574,0.423923 0.01817,0.63225 0.0024,0.208327 0.0036,0.429978 0.0036,0.664952 z m 1.308141,0.461469 c -0.0047,-0.07752 -0.0095,-0.182892 -0.0145,-0.316125 -0.0047,-0.133232 -0.007,-0.270098 -0.007,-0.410599 v -0.247085 c 0.0027,-0.08721 0.005,-0.175625 0.007,-0.265254 0.0047,-0.179259 0.01557,-0.319759 0.0327,-0.4215 0.0194,-0.101741 0.05574,-0.178047 0.10901,-0.228918 0.05573,-0.05087 0.133257,-0.08237 0.23257,-0.09448 0.09932,-0.01211 0.231342,-0.01817 0.396065,-0.01817 h 0.0763 c 0.0509,0 0.11143,0.0012 0.18168,0.0036 0.0703,0 0.14293,0.0012 0.21802,0.0036 0.0775,0.0024 0.141718,0.0048 0.192598,0.0073 0.0533,0.0049 0.0957,0.01213 0.12717,0.0218 0.0339,0.0073 0.0594,0.01817 0.0763,0.0327 0.0169,0.01211 0.0278,0.02786 0.0327,0.04724 0.005,0.01696 0.007,0.03634 0.007,0.05814 0,0.05571 -0.0157,0.09689 -0.0472,0.123543 -0.0315,0.02423 -0.0957,0.03997 -0.19258,0.04724 -0.0485,0.0049 -0.11993,0.0085 -0.214398,0.0109 h -0.28342 c -0.0969,0 -0.18412,0.0012 -0.261635,0.0036 h -0.14535 c -0.063,0.0024 -0.107813,0.01693 -0.13444,0.0436 -0.0242,0.02423 -0.0363,0.08358 -0.0363,0.178048 0,0.0218 0.0013,0.07509 0.004,0.159879 0.0047,0.08236 0.007,0.198638 0.007,0.348828 h 0.3016 c 0.128395,0 0.232555,0.0024 0.312495,0.0073 0.0824,0.0024 0.14535,0.0097 0.18895,0.0218 0.046,0.01211 0.0775,0.03149 0.0945,0.05814 0.0169,0.02665 0.0254,0.06177 0.0254,0.105375 0,0.0218 -0.002,0.04239 -0.007,0.06177 -0.003,0.01696 -0.0124,0.03271 -0.0291,0.04724 -0.0169,0.01211 -0.0412,0.02301 -0.0727,0.0327 -0.0315,0.0073 -0.0763,0.01332 -0.13445,0.01817 -0.0703,0.0049 -0.13687,0.0085 -0.19985,0.0109 h -0.181695 -0.30523 v 0.13081 0.156245 0.156247 c 0.0027,0.05087 0.005,0.09205 0.007,0.123543 0.0027,0.03876 0.0075,0.07146 0.0145,0.09811 0.0097,0.02665 0.0254,0.04845 0.0472,0.06541 0.0242,0.01696 0.05812,0.02907 0.10175,0.03634 0.046,0.0073 0.10656,0.0109 0.18168,0.0109 h 0.781253 c 0.0848,0 0.13808,0.01575 0.15988,0.04724 0.0218,0.03149 0.0327,0.07389 0.0327,0.127177 0,0.04361 -0.01,0.07752 -0.0291,0.101741 -0.0194,0.0218 -0.0666,0.03755 -0.14172,0.04724 -0.0727,0.01211 -0.1829,0.01938 -0.330668,0.0218 -0.14535,0.0024 -0.34641,0.0036 -0.603195,0.0036 -0.109013,0 -0.198643,-0.0097 -0.26889,-0.02907 -0.07026,-0.01938 -0.127193,-0.05208 -0.1708,-0.09811 -0.0436,-0.04603 -0.0763,-0.105376 -0.0981,-0.178048 -0.0194,-0.07509 -0.03273,-0.165935 -0.04,-0.272521 z m 3.448347,0.38153 c -0.0775,-0.106586 -0.15141,-0.211961 -0.22166,-0.316124 -0.0678,-0.106587 -0.141718,-0.222863 -0.221658,-0.348828 -0.0775,-0.125965 -0.16714,-0.265254 -0.26885,-0.417866 -0.0993,-0.155034 -0.21921,-0.335504 -0.35972,-0.541409 v 0.490539 c 0,0.142922 -0.001,0.276154 -0.004,0.399697 -0.003,0.123543 -0.005,0.239819 -0.007,0.348828 -0.003,0.109008 -0.006,0.218016 -0.0109,0.327025 -0.003,0.05814 -0.009,0.102955 -0.0182,0.134444 -0.007,0.03149 -0.0182,0.05572 -0.0327,0.07267 -0.0145,0.01696 -0.0315,0.02665 -0.0509,0.02907 -0.0169,0.0049 -0.0375,0.0073 -0.0618,0.0073 -0.0436,0 -0.0799,-0.01454 -0.10901,-0.04361 -0.0291,-0.03149 -0.046,-0.0969 -0.0509,-0.196215 -0.0121,-0.266465 -0.0194,-0.532931 -0.0218,-0.799396 v -0.832099 c 0,-0.162301 10e-4,-0.289478 0.004,-0.381529 0.005,-0.09205 0.0131,-0.161091 0.0254,-0.207117 0.0145,-0.04603 0.0327,-0.0751 0.0545,-0.08721 0.0242,-0.01211 0.0557,-0.01817 0.0945,-0.01817 0.0387,0 0.0896,0.03028 0.152608,0.09084 0.063,0.05814 0.13204,0.135657 0.20712,0.232552 0.0751,0.0969 0.155032,0.208327 0.239792,0.334292 0.0872,0.125966 0.17318,0.255565 0.25797,0.388797 0.0848,0.133233 0.165948,0.265255 0.243458,0.396064 0.0799,0.130811 0.15262,0.249509 0.21803,0.356095 -0.003,-0.113853 -0.004,-0.238607 -0.004,-0.374262 v -0.457836 c 0,-0.19137 0.001,-0.348827 0.004,-0.47237 0.003,-0.125966 0.009,-0.225285 0.0182,-0.297957 0.0121,-0.07267 0.0303,-0.123543 0.0545,-0.152612 0.0242,-0.02907 0.0581,-0.0436 0.10174,-0.0436 0.0412,0 0.0775,0.01332 0.109018,0.03997 0.0315,0.02665 0.0496,0.08842 0.0545,0.185314 0.005,0.08721 0.008,0.164724 0.0109,0.232551 0.003,0.06783 0.005,0.135656 0.007,0.203483 0.003,0.06541 0.004,0.134445 0.004,0.207116 v 0.239819 0.312491 c 0,0.09932 -0.001,0.197426 -0.004,0.294323 -0.003,0.0969 -0.005,0.195004 -0.007,0.294323 -0.003,0.09932 -0.006,0.203482 -0.0109,0.312491 -0.003,0.05814 -0.009,0.102955 -0.0182,0.134444 -0.007,0.03149 -0.0182,0.05572 -0.0327,0.07267 -0.0145,0.01696 -0.0315,0.02665 -0.0509,0.02907 -0.0169,0.0049 -0.0375,0.0073 -0.0618,0.0073 -0.0412,0 -0.0763,-0.01211 -0.10537,-0.03634 -0.0291,-0.02423 -0.0715,-0.07389 -0.12718,-0.148979 z"
     id="text6-9-3-1-8"
     aria-label="FRZ LEN"
     sodipodi:nodetypes="cscscsccsscccccscccssscccscscccccccsccccsssccccccscccsccssccscccsccccccccccccccssssccssssccccccccsscccscscccscccscscsccssccssscccscsscccscsscc" />
  <path
     style="font-size:3.52779px;line-height:1.25;font-family:Sniglet;-inkscape-font-specification:'Sniglet, Normal';fill:#232323;fill-opacity:1;stroke-width:0.264584"
     d="m 5.1130216,13.205468 q -0.09878,0.0071 -0.211668,0.01058 -0.109361,0.0035 -0.2434175,0.0071 0.0035,0.09525 0.0071,0.179918 0.0035,0.08114 0.0071,0.165806 0.0035,0.08467 0.0035,0.176389 0.0035,0.09172 0.0035,0.204612 0,0.158751 0,0.306918 0,0.144639 -0.0035,0.292806 -0.0035,0.14464 -0.0071,0.292807 -0.0035,0.148167 -0.01058,0.306918 -0.0035,0.08467 -0.01764,0.130528 -0.01058,0.04586 -0.03175,0.07056 -0.02117,0.02469 -0.04939,0.02822 -0.02822,0.0071 -0.0635,0.0071 -0.0635,0 -0.109361,-0.04233 -0.04233,-0.04586 -0.04939,-0.1905 -0.0071,-0.127001 -0.01058,-0.268113 0,-0.141111 -0.0035,-0.303389 -0.0035,-0.162279 -0.0035,-0.349252 0,-0.1905 0,-0.419807 0,-0.194028 0,-0.338668 0.0035,-0.144639 0.01058,-0.250473 h -0.144639 q -0.1481675,0 -0.2540015,-0.0035 -0.102306,-0.0035 -0.169334,-0.01764 -0.06703,-0.01764 -0.09878,-0.05292 -0.02822,-0.03528 -0.02822,-0.09878 0,-0.03175 0.0071,-0.05645 0.0071,-0.02822 0.03175,-0.04939 0.02469,-0.0247 0.06703,-0.03881 0.04586,-0.01411 0.116417,-0.02117 0.06703,-0.0035 0.119945,-0.0071 0.05292,-0.0035 0.105834,-0.0071 0.05292,-0.0035 0.1093615,-0.0035 0.05644,0 0.130529,0 0.208139,0 0.3915845,0.0035 0.186973,0.0035 0.395113,0.01411 0.08467,0.0071 0.1305285,0.02117 0.04586,0.01058 0.07056,0.03175 0.02469,0.02117 0.02822,0.04939 0.0071,0.02822 0.0071,0.0635 0,0.0635 -0.04586,0.105833 -0.04233,0.04233 -0.1869725,0.04939 z m 0.5009445,1.608673 q -0.0071,-0.11289 -0.01411,-0.306918 -0.0071,-0.194028 -0.0071,-0.39864 0,-0.116417 0,-0.23989 0.0035,-0.127 0.0071,-0.257529 0.0071,-0.261056 0.03175,-0.409223 0.02822,-0.148168 0.1058345,-0.222251 0.08114,-0.07408 0.225779,-0.09172 0.144639,-0.01764 0.3845295,-0.01764 0.0035,0 0.07408,0 0.07408,0 0.17639,0.0035 0.102306,0 0.2116675,0.0035 0.11289,0.0035 0.186973,0.0071 0.07761,0.0071 0.123473,0.02117 0.04939,0.01058 0.07408,0.03175 0.02469,0.01764 0.03175,0.04586 0.0071,0.02469 0.0071,0.05644 0,0.08114 -0.04586,0.119945 -0.04586,0.03528 -0.186973,0.04586 -0.07056,0.0071 -0.2081405,0.01058 -0.134056,0 -0.275167,0 -0.141112,0 -0.2540015,0.0035 -0.112889,0 -0.141112,0 -0.09172,0.0035 -0.130528,0.04233 -0.03528,0.03528 -0.03528,0.172862 0,0.03175 0.0035,0.155223 0.0071,0.119944 0.0071,0.338667 h 0.292807 q 0.1869735,0 0.3033905,0.0071 0.119945,0.0035 0.183445,0.02117 0.06703,0.01764 0.09172,0.05644 0.02469,0.03881 0.02469,0.102306 0,0.03175 -0.0071,0.05997 -0.0035,0.02469 -0.02822,0.04586 -0.02469,0.01764 -0.070561,0.03175 -0.04586,0.01058 -0.130528,0.01764 -0.102306,0.0071 -0.194028,0.01058 -0.08819,0 -0.1763905,0 h -0.296333 q 0,0.05292 0,0.127001 0,0.07408 0,0.151695 0,0.07761 0,0.151695 0.0035,0.07408 0.0071,0.119945 0.0035,0.05644 0.01411,0.09525 0.01411,0.03881 0.04586,0.0635 0.03528,0.0247 0.09878,0.03528 0.06703,0.01058 0.1763895,0.01058 h 0.7584755 q 0.123473,0 0.155223,0.04586 0.03175,0.04586 0.03175,0.123472 0,0.0635 -0.02822,0.09878 -0.02822,0.03175 -0.137584,0.04586 -0.105834,0.01764 -0.3210295,0.02117 -0.211667,0.0035 -0.5856135,0.0035 -0.158751,0 -0.261056,-0.02822 -0.102306,-0.02822 -0.165807,-0.09525 -0.0635,-0.06703 -0.095251,-0.172862 -0.02822,-0.109362 -0.03881,-0.264584 z m 2.896319,-0.0635 q -0.1622785,-0.356306 -0.2892795,-0.687919 -0.123472,-0.33514 -0.211667,-0.596196 -0.08114,0.437446 -0.137584,0.881947 -0.05292,0.444502 -0.1375845,0.850198 -0.02117,0.09172 -0.07761,0.123472 -0.05644,0.02822 -0.09525,0.02822 -0.0635,0 -0.102306,-0.03881 -0.03528,-0.03881 -0.03528,-0.09878 0,-0.08114 0.01764,-0.246945 0.02117,-0.169334 0.04939,-0.381002 0.03175,-0.211667 0.07056,-0.444501 0.0388,-0.232834 0.07761,-0.44803 0.04233,-0.218723 0.07761,-0.395112 0.03881,-0.17639 0.06703,-0.27164 0.04586,-0.162278 0.1869735,-0.162278 0.08467,0 0.14464,0.08467 0.05997,0.08114 0.127,0.254001 0.07056,0.169334 0.1658065,0.43039 0.09878,0.261056 0.254001,0.613835 0.151695,-0.352779 0.243418,-0.610307 0.095251,-0.261057 0.1587505,-0.430391 0.06703,-0.172861 0.127001,-0.254 0.05997,-0.08467 0.148167,-0.08467 0.08114,0 0.1234725,0.04233 0.04233,0.03881 0.0635,0.119945 0.02469,0.09878 0.05997,0.275168 0.03528,0.172861 0.07408,0.388056 0.04233,0.211668 0.08114,0.444502 0.03881,0.232834 0.07056,0.444502 0.03175,0.211667 0.04939,0.384529 0.02117,0.169334 0.02117,0.261056 0,0.05645 -0.03881,0.09172 -0.03881,0.03175 -0.09878,0.03175 -0.03881,0 -0.09525,-0.02822 -0.05644,-0.03175 -0.07761,-0.123472 -0.04233,-0.201084 -0.07761,-0.416279 -0.03175,-0.215196 -0.0635,-0.433919 -0.02822,-0.22225 -0.05644,-0.440973 -0.02822,-0.222251 -0.05997,-0.440974 -0.04586,0.141111 -0.105833,0.310445 -0.05997,0.169334 -0.127001,0.342196 -0.06703,0.169334 -0.137584,0.33514 -0.070561,0.165806 -0.1375845,0.299862 -0.02469,0.04586 -0.06703,0.07056 -0.0388,0.02117 -0.08114,0.02117 -0.04586,0 -0.08819,-0.02117 -0.03881,-0.02469 -0.05997,-0.07408 z m 2.0073129,0.377474 q 0,0.08467 -0.01764,0.130528 -0.01411,0.04586 -0.03881,0.07056 -0.02117,0.0247 -0.05292,0.02822 -0.02822,0.0071 -0.05644,0.0071 -0.09525,0 -0.127001,-0.04233 -0.02822,-0.04233 -0.0388,-0.1905 -0.0071,-0.07761 -0.01058,-0.225779 -0.0035,-0.148167 -0.0071,-0.352779 0,-0.204612 -0.0035,-0.451557 0,-0.246945 0,-0.522113 0,-0.130528 0.03175,-0.264584 0.03175,-0.134056 0.119945,-0.243418 0.09172,-0.109361 0.250474,-0.176389 0.162278,-0.06703 0.419807,-0.06703 0.179917,0 0.342196,0.03881 0.162278,0.0388 0.285751,0.134056 0.123472,0.09525 0.197556,0.254 0.07408,0.158751 0.07408,0.395113 0,0.246945 -0.08114,0.409224 -0.08114,0.162278 -0.229306,0.257528 -0.148167,0.09525 -0.352779,0.134056 -0.204612,0.03881 -0.448029,0.03881 -0.05997,0 -0.119945,0 -0.05997,0 -0.134056,-0.0071 z m 1.016004,-1.4852 q 0,-0.236362 -0.134056,-0.356306 -0.130529,-0.119945 -0.437446,-0.119945 -0.116418,0 -0.201084,0.02117 -0.08114,0.01764 -0.134056,0.06703 -0.05292,0.04586 -0.08114,0.127001 -0.02469,0.08114 -0.02469,0.204612 0,0.119945 0,0.275167 0,0.151695 0.0035,0.285751 0.08114,0.0035 0.179917,0.0035 0.102306,0 0.190501,0 0.105833,0 0.218723,-0.01411 0.116417,-0.01411 0.208139,-0.0635 0.09172,-0.05292 0.151695,-0.151695 0.05997,-0.102306 0.05997,-0.278696 z m 1.580453,1.742729 q -0.211668,0 -0.398641,-0.08467 -0.183445,-0.08467 -0.321028,-0.243418 -0.137584,-0.162278 -0.218723,-0.395112 -0.07761,-0.232834 -0.07761,-0.529169 0,-0.278695 0.06703,-0.511529 0.07056,-0.232834 0.204612,-0.402168 0.137584,-0.169334 0.338668,-0.261057 0.201084,-0.09525 0.465668,-0.09525 0.215195,0 0.409224,0.07761 0.194028,0.07761 0.338668,0.232834 0.148167,0.155223 0.232834,0.388057 0.08467,0.232834 0.08467,0.54328 0,0.257529 -0.07056,0.490363 -0.06703,0.232834 -0.20814,0.409223 -0.137583,0.172862 -0.349251,0.278696 -0.211667,0.102306 -0.497418,0.102306 z m 0.0071,-0.331613 q 0.194029,0 0.338668,-0.07761 0.14464,-0.08114 0.23989,-0.211667 0.09525,-0.130529 0.141112,-0.299863 0.04586,-0.172861 0.04586,-0.352779 0,-0.218723 -0.05997,-0.388056 -0.05644,-0.172862 -0.155222,-0.289279 -0.09878,-0.116417 -0.229307,-0.17639 -0.130528,-0.0635 -0.278695,-0.0635 -0.17639,0 -0.310446,0.07408 -0.130528,0.07408 -0.22225,0.201084 -0.08819,0.127 -0.134057,0.299862 -0.04586,0.169334 -0.04586,0.363362 0,0.20814 0.05292,0.381002 0.05292,0.169333 0.141112,0.289278 0.09172,0.119945 0.215195,0.186973 0.123473,0.0635 0.261056,0.0635 z"
     id="text8"
     aria-label="TEMPO" />
  <path
     style="font-size:3.63362px;line-height:1.25;font-family:Sniglet;-inkscape-font-specification:'Sniglet, Normal';letter-spacing:0px;word-spacing:0px;fill:#232323;fill-opacity:1;stroke-width:0.264584"
     d="m 22.428464,38.039347 q 0,0.116276 0,0.207116 0,0.08721 -0.0036,0.167147 0,0.07994 -0.0036,0.159879 -0.0036,0.07994 -0.0073,0.178047 0.250719,-0.02907 0.392431,-0.04724 0.141711,-0.01817 0.22165,-0.02907 0.08357,-0.0109 0.127177,-0.01453 0.04724,-0.0036 0.109009,-0.0036 0.159879,0 0.159879,0.156246 0,0.06177 -0.0654,0.105375 -0.06177,0.0436 -0.159879,0.07631 -0.09448,0.02907 -0.214384,0.05087 -0.116276,0.01817 -0.228918,0.02543 -0.109009,0.0109 -0.199849,0.01453 -0.08721,0.0036 -0.123543,0.0036 -0.130811,0 -0.203483,-0.01817 -0.07267,-0.01453 -0.109009,-0.09447 -0.03634,-0.08357 -0.04724,-0.25072 -0.0073,-0.167146 -0.0073,-0.472371 0,-0.294323 0,-0.523241 0,-0.228918 0.0036,-0.410599 0.0036,-0.181681 0.0036,-0.323392 0.0036,-0.141711 0.0109,-0.257987 0.0073,-0.148979 0.05087,-0.192582 0.0436,-0.04724 0.109008,-0.04724 0.03634,0 0.06177,0.0073 0.02907,0.0036 0.05087,0.02907 0.0218,0.02544 0.0327,0.07267 0.01454,0.04724 0.01817,0.134444 0.01453,0.319758 0.01817,0.632249 0.0036,0.312492 0.0036,0.664953 z m 2.078435,1.050116 q -0.218017,0 -0.410599,-0.08721 -0.188948,-0.08721 -0.330659,-0.25072 -0.141711,-0.167146 -0.225285,-0.406965 -0.07994,-0.239819 -0.07994,-0.545043 0,-0.287056 0.06904,-0.526875 0.07267,-0.239819 0.21075,-0.414233 0.141712,-0.174413 0.348828,-0.268888 0.207116,-0.09811 0.479638,-0.09811 0.221651,0 0.4215,0.07994 0.199849,0.07994 0.348827,0.239819 0.152612,0.15988 0.239819,0.399698 0.08721,0.239819 0.08721,0.559578 0,0.265254 -0.07267,0.505073 -0.06904,0.239819 -0.214384,0.4215 -0.141711,0.178047 -0.359728,0.287056 -0.218018,0.105375 -0.512341,0.105375 z m 0.0073,-0.34156 q 0.19985,0 0.348828,-0.07994 0.148978,-0.08357 0.247086,-0.218017 0.09811,-0.134444 0.145345,-0.308858 0.04724,-0.178047 0.04724,-0.363362 0,-0.225284 -0.06177,-0.399698 -0.05814,-0.178047 -0.159879,-0.297957 -0.101741,-0.119909 -0.236185,-0.181681 -0.134444,-0.0654 -0.287056,-0.0654 -0.181681,0 -0.319759,0.07631 -0.134444,0.07631 -0.228918,0.207116 -0.09084,0.130811 -0.138077,0.308858 -0.04724,0.174414 -0.04724,0.374263 0,0.214384 0.0545,0.392431 0.0545,0.174414 0.145345,0.297957 0.09447,0.123543 0.221651,0.192582 0.127176,0.06541 0.268887,0.06541 z m 2.489031,0.34156 q -0.218017,0 -0.410599,-0.08721 -0.188948,-0.08721 -0.330659,-0.25072 -0.141711,-0.167146 -0.225285,-0.406965 -0.07994,-0.239819 -0.07994,-0.545043 0,-0.287056 0.06904,-0.526875 0.07267,-0.239819 0.21075,-0.414233 0.141712,-0.174413 0.348828,-0.268888 0.207116,-0.09811 0.479638,-0.09811 0.221651,0 0.4215,0.07994 0.199849,0.07994 0.348827,0.239819 0.152612,0.15988 0.239819,0.399698 0.08721,0.239819 0.08721,0.559578 0,0.265254 -0.07267,0.505073 -0.06904,0.239819 -0.214384,0.4215 -0.141711,0.178047 -0.359728,0.287056 -0.218018,0.105375 -0.512341,0.105375 z m 0.0073,-0.34156 q 0.19985,0 0.348828,-0.07994 0.148978,-0.08357 0.247086,-0.218017 0.09811,-0.134444 0.145345,-0.308858 0.04724,-0.178047 0.04724,-0.363362 0,-0.225284 -0.06177,-0.399698 -0.05814,-0.178047 -0.159879,-0.297957 -0.101741,-0.119909 -0.236185,-0.181681 -0.134444,-0.0654 -0.287056,-0.0654 -0.181681,0 -0.319759,0.07631 -0.134444,0.07631 -0.228918,0.207116 -0.09084,0.130811 -0.138077,0.308858 -0.04724,0.174414 -0.04724,0.374263 0,0.214384 0.0545,0.392431 0.0545,0.174414 0.145345,0.297957 0.09447,0.123543 0.221651,0.192582 0.127176,0.06541 0.268887,0.06541 z m 1.878583,0.07631 q 0,0.08721 -0.01817,0.134444 -0.01454,0.04724 -0.03997,0.07267 -0.0218,0.02544 -0.0545,0.02907 -0.02907,0.0073 -0.05814,0.0073 -0.09811,0 -0.130811,-0.0436 -0.02907,-0.0436 -0.03997,-0.196216 -0.0073,-0.07994 -0.0109,-0.232551 -0.0036,-0.152612 -0.0073,-0.363362 0,-0.21075 -0.0036,-0.465104 0,-0.254353 0,-0.537775 0,-0.134444 0.0327,-0.272522 0.0327,-0.138077 0.123544,-0.25072 0.09447,-0.112642 0.257987,-0.181681 0.167146,-0.06904 0.4324,-0.06904 0.185315,0 0.352461,0.03997 0.167147,0.03997 0.294324,0.138078 0.127176,0.09811 0.203482,0.261621 0.07631,0.163512 0.07631,0.406965 0,0.254353 -0.08357,0.4215 -0.08357,0.167146 -0.236185,0.265254 -0.152612,0.09811 -0.363362,0.138078 -0.21075,0.03997 -0.46147,0.03997 -0.06177,0 -0.123543,0 -0.06177,0 -0.138078,-0.0073 z m 1.046482,-1.529754 q 0,-0.243453 -0.138077,-0.366996 -0.134444,-0.123543 -0.450569,-0.123543 -0.119909,0 -0.207116,0.0218 -0.08357,0.01817 -0.138078,0.06904 -0.0545,0.04724 -0.08357,0.13081 -0.02544,0.08357 -0.02544,0.21075 0,0.123543 0,0.283422 0,0.156246 0.0036,0.294323 0.08357,0.0036 0.185315,0.0036 0.105375,0 0.196215,0 0.109009,0 0.225285,-0.01453 0.119909,-0.01453 0.214383,-0.06541 0.09447,-0.0545 0.156246,-0.156245 0.06177,-0.105375 0.06177,-0.287056 z"
     id="text3"
     aria-label="LOOP" />
</svg>
