<?xml version="1.0" encoding="UTF-8" standalone="no"?>
<svg
   width="20.32mm"
   height="128.5mm"
   viewBox="0 0 20.32 128.50044"
   version="1.1"
   id="svg48"
   sodipodi:docname="NoteFilter.svg"
   inkscape:version="1.3.2 (091e20e, 2023-11-25, custom)"
   xmlns:inkscape="http://www.inkscape.org/namespaces/inkscape"
   xmlns:sodipodi="http://sodipodi.sourceforge.net/DTD/sodipodi-0.dtd"
   xmlns="http://www.w3.org/2000/svg"
   xmlns:svg="http://www.w3.org/2000/svg"
   xmlns:rdf="http://www.w3.org/1999/02/22-rdf-syntax-ns#"
   xmlns:cc="http://creativecommons.org/ns#"
   xmlns:dc="http://purl.org/dc/elements/1.1/">
  <metadata
     id="metadata54">
    <rdf:RDF>
      <cc:Work
         rdf:about="">
        <dc:format>image/svg+xml</dc:format>
        <dc:type
           rdf:resource="http://purl.org/dc/dcmitype/StillImage" />
      </cc:Work>
    </rdf:RDF>
  </metadata>
  <defs
     id="defs52" />
  <sodipodi:namedview
     pagecolor="#ffffff"
     bordercolor="#666666"
     borderopacity="1"
     objecttolerance="10"
     gridtolerance="10"
     guidetolerance="10"
     inkscape:pageopacity="0"
     inkscape:pageshadow="2"
     inkscape:window-width="1271"
     inkscape:window-height="1080"
     id="namedview50"
     showgrid="false"
     inkscape:document-units="mm"
     units="mm"
     inkscape:zoom="7.0264089"
     inkscape:cx="23.909795"
     inkscape:cy="406.03956"
     inkscape:window-x="460"
     inkscape:window-y="0"
     inkscape:window-maximized="0"
     inkscape:current-layer="svg48"
     inkscape:pagecheckerboard="0"
     showguides="true"
     inkscape:guide-bbox="true"
     inkscape:showpageshadow="2"
     inkscape:deskcolor="#d1d1d1">
    <sodipodi:guide
       position="10.160001,124.13368"
       orientation="-1,0"
       id="guide1"
       inkscape:locked="false"
       inkscape:label=""
       inkscape:color="rgb(0,134,229)" />
  </sodipodi:namedview>
  <g
     style="line-height:1.25;fill:#232323;fill-opacity:1;stroke-width:0.781247"
     id="g6"
     transform="matrix(1.2800044,0,0,1.2800044,0,2.8528382)">
    <path
       word-spacing="0"
       letter-spacing="0"
       font-weight="400"
       aria-label="♫"
       font-size="3.528"
       style="font-weight:400;font-size:3.528px;font-family:Arial;-inkscape-font-specification:'Arial, Normal';font-variant-ligatures:normal;font-variant-caps:normal;font-variant-numeric:normal;font-feature-settings:normal;text-align:start;letter-spacing:0;word-spacing:0;fill:#232323;fill-opacity:1;stroke-width:0.781247"
       d="m 8.664,93.893 -1.63,0.115 v -2.06 q 0,-0.23 0.065,-0.333 0.063,-0.104 0.22,-0.147 0.153,-0.043 0.347,-0.002 0.224,0.047 0.357,0.19 0.133,0.146 0.133,0.33 0,0.186 -0.158,0.286 -0.157,0.103 -0.407,0.05 Q 7.509,92.304 7.447,92.278 7.384,92.252 7.242,92.168 v 1.345 l 1.22,-0.085 v -1.554 q 0,-0.224 0.065,-0.337 0.065,-0.11 0.225,-0.15 0.16,-0.041 0.348,-0.001 0.224,0.047 0.355,0.19 0.129,0.14 0.129,0.325 0,0.195 -0.156,0.294 -0.155,0.1 -0.407,0.047 -0.16,-0.034 -0.357,-0.16 z"
       id="path4"
       inkscape:connector-curvature="0" />
  </g>
  <path
     style="font-size:5.46807px;line-height:1.25;font-family:Sniglet;-inkscape-font-specification:'Sniglet, Normal';letter-spacing:0px;word-spacing:0px;fill:#232323;stroke-width:0.264584"
     d="m 2.8023565,7.5250383 q 0,-0.4593179 0.032808,-0.7163172 Q 2.8679733,6.5462537 2.9718666,6.4150201 3.07576,6.2837864 3.2671424,6.256446 q 0.1913825,-0.032808 0.5030624,-0.032808 0.1749783,0 0.3171481,0 0.1421698,0 0.2734035,0.00547 0.1367018,0 0.2679354,0.00547 0.1367018,0.00547 0.2952758,0.010936 0.1312337,0.010936 0.2023186,0.032808 0.071085,0.016404 0.1093614,0.049213 0.038277,0.032808 0.043745,0.076553 0.010936,0.043745 0.010936,0.098425 0,0.098425 -0.071085,0.1640421 -0.065617,0.065617 -0.2898077,0.076553 -0.1367018,0.00547 -0.2679354,0.010936 -0.1257656,0.00547 -0.2898077,0.010936 -0.1585741,0 -0.3608927,0.00547 -0.2023186,0 -0.4866582,0 -0.098425,0 -0.1367018,0.071085 -0.038276,0.065617 -0.038276,0.1695102 0,0.082021 0,0.1640421 0.00547,0.082021 0.00547,0.1804463 0.00547,0.098425 0.00547,0.2241909 0.00547,0.1202975 0.00547,0.2843396 0.2023186,0 0.3499564,0.00547 0.153106,0 0.2624674,0.00547 0.1148295,0 0.2023186,0.00547 0.087489,0.00547 0.1695102,0.010936 0.2241908,0.010936 0.2898077,0.076553 0.071085,0.065617 0.071085,0.1640421 0,0.054681 -0.010936,0.098425 -0.00547,0.043745 -0.043745,0.076553 -0.038277,0.032808 -0.1093614,0.054681 -0.071085,0.021872 -0.2023186,0.032808 -0.087489,0.00547 -0.1695102,0.010936 -0.076553,0 -0.1859144,0.00547 -0.1038933,0 -0.2515312,0 -0.1476379,0 -0.3718287,0 -0.00547,0.3280842 -0.00547,0.6725726 0.00547,0.3390204 -0.016404,0.699913 -0.010936,0.2132547 -0.076553,0.2624678 -0.060149,0.04374 -0.1859144,0.04374 -0.1202975,0 -0.1804463,-0.04921 -0.060149,-0.05468 -0.071085,-0.2515307 -0.010936,-0.1749783 -0.016404,-0.3827649 0,-0.2132548 -0.00547,-0.4811902 -0.00547,-0.2734035 -0.00547,-0.6124238 0,-0.3444884 0,-0.7874021 z M 5.8371403,9.7286705 Q 5.8262042,9.53182 5.8207361,9.3185653 q 0,-0.2132548 -0.00547,-0.4593179 Q 5.8098,8.6131842 5.8098,8.3288446 q 0,-0.2898077 0,-0.6452323 0,-0.388233 0.00547,-0.6616365 0.00547,-0.2788715 0.032808,-0.4538498 0.02734,-0.1749782 0.082021,-0.2569993 0.060149,-0.082021 0.1585741,-0.082021 0.049213,0 0.092957,0.010936 0.043744,0.010936 0.076553,0.049213 0.032809,0.032808 0.054681,0.1038933 0.02734,0.065617 0.032808,0.1749782 0.010936,0.1968506 0.016404,0.3499565 0.00547,0.153106 0.010936,0.3062119 0.00547,0.1476379 0.00547,0.31168 0,0.1585741 0,0.3608926 0,0.2460632 0,0.4702541 0,0.2241908 -0.00547,0.4429136 -0.00547,0.2187228 -0.010936,0.4429137 -0.00547,0.2241909 -0.016404,0.470254 -0.00547,0.1312337 -0.02734,0.2023186 -0.021872,0.071085 -0.054681,0.109361 -0.032808,0.03828 -0.076553,0.04374 -0.043744,0.01094 -0.098425,0.01094 -0.098425,0 -0.1695102,-0.06562 -0.071085,-0.071085 -0.082021,-0.2952755 z M 7.6361326,8.5420993 q 0,0.1749783 0,0.31168 0,0.1312337 -0.00547,0.2515312 0,0.1202976 -0.00547,0.2405951 -0.00547,0.1202975 -0.010936,0.2679354 0.3772968,-0.043745 0.5905515,-0.071085 0.2132548,-0.02734 0.3335523,-0.043745 0.1257656,-0.016404 0.1913824,-0.021872 0.071085,-0.00547 0.1640421,-0.00547 0.2405951,0 0.2405951,0.235127 0,0.092957 -0.098425,0.1585741 -0.092957,0.065617 -0.2405951,0.1148294 -0.1421698,0.043744 -0.3226161,0.076553 -0.1749783,0.02734 -0.3444885,0.03828 -0.1640421,0.0164 -0.3007438,0.02187 -0.1312337,0.0055 -0.1859144,0.0055 -0.1968505,0 -0.3062119,-0.02734 Q 7.2260274,10.073159 7.1713467,9.9528614 7.116666,9.8270958 7.1002618,9.5755645 7.0893256,9.3240333 7.0893256,8.8647154 q 0,-0.4429136 0,-0.787402 0,-0.3444885 0.00547,-0.617892 0.00547,-0.2734035 0.00547,-0.4866582 0.00547,-0.2132547 0.016404,-0.388233 0.010936,-0.2241908 0.076553,-0.2898077 0.065617,-0.071085 0.1640421,-0.071085 0.054681,0 0.092957,0.010936 0.043744,0.00547 0.076553,0.043744 0.032808,0.038277 0.049213,0.1093614 0.021872,0.071085 0.02734,0.2023186 0.021872,0.4811902 0.02734,0.9514442 0.00547,0.470254 0.00547,1.0006568 z m 3.3519344,-1.798995 q -0.153106,0.010936 -0.328085,0.016404 -0.16951,0.00547 -0.377296,0.010936 0.0055,0.1476379 0.01094,0.2788716 0.0055,0.1257656 0.01094,0.2569993 0.0055,0.1312337 0.0055,0.2734035 0.0055,0.1421698 0.0055,0.317148 0,0.2460632 0,0.4757221 0,0.2241909 -0.0055,0.4538499 -0.0055,0.2241908 -0.01094,0.4538498 -0.0055,0.2296589 -0.0164,0.4757221 -0.0055,0.1312336 -0.02734,0.2023185 -0.0164,0.071085 -0.04921,0.1093616 -0.03281,0.03828 -0.07655,0.04374 -0.04375,0.01094 -0.09843,0.01094 -0.098425,0 -0.1695098,-0.06562 -0.065617,-0.071085 -0.076553,-0.2952761 -0.010936,-0.1968505 -0.016404,-0.4155733 0,-0.2187228 -0.00547,-0.470254 -0.00547,-0.2515312 -0.00547,-0.541339 0,-0.2952757 0,-0.6507003 0,-0.3007438 0,-0.5249347 0.00547,-0.2241909 0.016404,-0.388233 H 9.5499642 q -0.2296589,0 -0.393701,-0.00547 -0.1585741,-0.00547 -0.2624674,-0.02734 -0.1038933,-0.02734 -0.1531059,-0.082021 -0.043745,-0.054681 -0.043745,-0.153106 0,-0.049213 0.010936,-0.087489 0.010936,-0.043745 0.049213,-0.076553 0.038277,-0.038277 0.1038933,-0.060149 0.071085,-0.021872 0.1804463,-0.032808 0.1038933,-0.00547 0.1859144,-0.010936 0.082021,-0.00547 0.1640421,-0.010936 0.082021,-0.00547 0.1695102,-0.00547 0.087489,0 0.2023186,0 0.322616,0 0.606956,0.00547 0.289807,0.00547 0.612424,0.021872 0.131233,0.010936 0.202318,0.032808 0.07109,0.016404 0.109362,0.049213 0.03828,0.032808 0.04374,0.076553 0.01094,0.043745 0.01094,0.098425 0,0.098425 -0.07109,0.1640421 -0.06562,0.065617 -0.289807,0.076553 z m 0.776463,2.4934399 q -0.01094,-0.1749782 -0.02187,-0.4757221 -0.01094,-0.3007438 -0.01094,-0.6178919 0,-0.1804463 0,-0.3718288 0.0055,-0.1968505 0.01094,-0.3991691 0.01094,-0.4046372 0.04921,-0.6342961 0.04375,-0.2296589 0.164042,-0.3444884 0.125766,-0.1148295 0.349957,-0.1421698 0.224191,-0.02734 0.59602,-0.02734 0.0055,0 0.114829,0 0.11483,0 0.273404,0.00547 0.158574,0 0.328084,0.00547 0.174978,0.00547 0.289807,0.010936 0.120298,0.010936 0.191383,0.032808 0.07655,0.016404 0.114829,0.049213 0.03828,0.02734 0.04921,0.071085 0.01094,0.038276 0.01094,0.087489 0,0.1257656 -0.07109,0.1859144 -0.07109,0.054681 -0.289807,0.071085 -0.109362,0.010936 -0.322617,0.016404 -0.207786,0 -0.426509,0 -0.218723,0 -0.393701,0.00547 -0.174978,0 -0.218723,0 -0.14217,0.00547 -0.202318,0.065617 -0.05468,0.054681 -0.05468,0.2679354 0,0.049213 0.0055,0.2405951 0.01094,0.1859144 0.01094,0.5249347 h 0.45385 q 0.289808,0 0.470254,0.010936 0.185914,0.00547 0.28434,0.032808 0.103893,0.02734 0.142169,0.087489 0.03828,0.060149 0.03828,0.158574 0,0.049213 -0.01094,0.092957 -0.0055,0.038277 -0.04375,0.071085 -0.03828,0.02734 -0.109361,0.049213 -0.07109,0.016404 -0.202319,0.02734 -0.158574,0.010936 -0.300744,0.016404 -0.136701,0 -0.273403,0 h -0.459318 q 0,0.082021 0,0.1968506 0,0.1148294 0,0.235127 0,0.1202975 0,0.235127 0.0055,0.1148294 0.01094,0.1859144 0.0055,0.087489 0.02187,0.1476378 0.02187,0.060149 0.07109,0.098425 0.05468,0.038277 0.153106,0.054681 0.103894,0.016404 0.273404,0.016404 h 1.175635 q 0.191382,0 0.240595,0.071085 0.04921,0.071085 0.04921,0.1913825 0,0.098425 -0.04374,0.1531059 -0.04374,0.049213 -0.213255,0.071085 -0.164042,0.02734 -0.497594,0.03281 -0.328084,0.0055 -0.9077,0.0055 -0.246063,0 -0.404637,-0.04374 -0.158574,-0.04374 -0.256999,-0.1476381 -0.09843,-0.1038933 -0.147638,-0.2679354 -0.04374,-0.1695102 -0.06015,-0.4101053 z m 4.286968,-0.5139986 q -0.07655,0.00547 -0.158574,0.010936 -0.07655,0 -0.158574,0 -0.09296,0 -0.185915,0 -0.09296,0 -0.207786,-0.010936 v 1.1100182 q 0,0.1749782 -0.08749,0.2187232 -0.08202,0.03828 -0.207787,0.03828 -0.06562,0 -0.103893,-0.01094 -0.03828,-0.0055 -0.06562,-0.02734 -0.02187,-0.02734 -0.03828,-0.076553 -0.01094,-0.049213 -0.0164,-0.1367018 -0.01094,-0.098425 -0.0164,-0.2843396 -0.0055,-0.1913825 -0.01094,-0.4921263 0,-0.3007439 -0.0055,-0.7272534 0,-0.4319775 0,-1.0115929 0,-0.2241909 0.05468,-0.4319775 0.05468,-0.2132548 0.196851,-0.3718288 0.14217,-0.1640421 0.382765,-0.2624674 0.246063,-0.098425 0.62336,-0.098425 0.267935,0 0.519466,0.060149 0.257,0.060149 0.45385,0.2077867 0.196851,0.1476379 0.317148,0.3991691 0.120298,0.2515312 0.120298,0.6288281 0,0.5030624 -0.218723,0.781934 -0.213255,0.2734035 -0.590552,0.388233 l 0.732722,1.0061248 q 0.09842,0.1312337 0.09842,0.2679355 0,0.1093613 -0.07655,0.1695103 -0.07109,0.06562 -0.180446,0.06562 -0.120298,0 -0.207787,-0.06562 -0.08749,-0.071085 -0.164042,-0.1804465 z m 0.858487,-1.2740603 q 0,-0.3772968 -0.229659,-0.5577431 -0.224191,-0.1859144 -0.716317,-0.1859144 -0.180447,0 -0.300744,0.032808 -0.120298,0.02734 -0.191383,0.1093614 -0.07108,0.082021 -0.103893,0.2296589 -0.02734,0.1421699 -0.02734,0.3663607 0,0.1585741 0,0.3718288 0,0.2132547 0.0055,0.388233 0.125765,0.00547 0.278871,0.00547 0.158574,0 0.295276,0 0.153106,0 0.322616,-0.016404 0.174979,-0.021872 0.322616,-0.098425 0.147638,-0.082021 0.246064,-0.229659 0.09842,-0.1531059 0.09842,-0.4155733 z"
     id="text1"
     aria-label="FILTER" />
  <rect
     rx="2.3399999"
     ry="2.3399999"
     y="71.621246"
     x="2.8038855"
     height="46.773884"
     width="14.627378"
     id="rect4"
     style="fill:#afafaf;fill-opacity:1;stroke-width:0.971108;paint-order:stroke markers fill" />
  <path
     d="m 9.2564051,73.662252 q 0.11991,0 0.239819,0.0218 0.123543,0.0182 0.221651,0.0618 0.09811,0.04 0.159879,0.10175 0.065401,0.0581 0.065401,0.13807 0,0.0836 -0.0436,0.12718 -0.043601,0.0436 -0.1090085,0.0436 -0.06177,0 -0.109009,-0.0182 -0.04724,-0.0218 -0.109008,-0.0472 -0.05814,-0.0254 -0.141712,-0.0436 -0.08357,-0.0218 -0.22165,-0.0218 -0.138078,0 -0.265255,0.0727 -0.123543,0.069 -0.218017,0.19622 -0.09084,0.12354 -0.145345,0.29432 -0.0545,0.17078 -0.0545,0.37063 0,0.24709 0.06177,0.42514 0.0654,0.17804 0.167147,0.29432 0.101741,0.11264 0.228918,0.17078 0.13081,0.0545 0.261621,0.0545 0.156245,0 0.26162,-0.0327 0.105375,-0.0327 0.178048,-0.0727 0.07631,-0.04 0.13081,-0.0727 0.0545,-0.0327 0.1053755,-0.0327 0.06177,0 0.09811,0.0363 0.03634,0.0327 0.03634,0.11991 0,0.0727 -0.05814,0.14898 -0.0545,0.0727 -0.1635135,0.13444 -0.105375,0.0581 -0.254353,0.0981 -0.148979,0.0363 -0.334293,0.0363 -0.203483,0 -0.406966,-0.0799 -0.199849,-0.0799 -0.359728,-0.23619 -0.156246,-0.15988 -0.254354,-0.39606 -0.09811,-0.23982 -0.09811,-0.55595 0,-0.31612 0.08721,-0.56321 0.09084,-0.24708 0.243453,-0.41786 0.156245,-0.17442 0.359728,-0.26526 0.207116,-0.0908 0.439668,-0.0908 z m 2.1111379,2.42726 q -0.04724,0.0872 -0.08721,0.12718 -0.03634,0.04 -0.09447,0.04 -0.05814,0 -0.101741,-0.04 -0.0436,-0.04 -0.09447,-0.12355 -0.0654,-0.10901 -0.148979,-0.30159 -0.07994,-0.19258 -0.163513,-0.41786 -0.08357,-0.22892 -0.163513,-0.47238 -0.07994,-0.24345 -0.145344,-0.45783 -0.06177,-0.21438 -0.101742,-0.37426 -0.03634,-0.16352 -0.03634,-0.23256 0,-0.0727 0.02907,-0.109 0.02907,-0.0363 0.112642,-0.0363 0.04724,0 0.07994,0.0254 0.03634,0.0218 0.09084,0.13082 0.0436,0.0836 0.09447,0.21801 0.05087,0.13445 0.105375,0.29796 0.05814,0.16351 0.116276,0.34519 0.05814,0.17805 0.116276,0.3561 0.05814,0.17805 0.109009,0.34156 0.05087,0.16351 0.09447,0.29432 0.0436,-0.13444 0.09811,-0.29796 0.0545,-0.16714 0.112642,-0.34156 0.05814,-0.17804 0.116276,-0.35609 0.05814,-0.18168 0.116275,-0.34156 0.05814,-0.15988 0.109009,-0.29432 0.05087,-0.13445 0.09084,-0.22165 0.05087,-0.10538 0.08721,-0.13082 0.03997,-0.0254 0.07994,-0.0254 0.08357,0 0.112642,0.0436 0.0327,0.04 0.0327,0.11991 0,0.0727 -0.0218,0.17442 -0.0218,0.10174 -0.07631,0.27252 -0.05087,0.16714 -0.138078,0.41786 -0.08721,0.25072 -0.214383,0.61409 -0.0327,0.0981 -0.07631,0.20348 -0.03997,0.10537 -0.08357,0.20711 -0.03997,0.0981 -0.07994,0.18895 -0.03997,0.0908 -0.07631,0.15625 z"
     id="text1-1"
     style="font-size:3.63362px;line-height:1.25;font-family:Sniglet;-inkscape-font-specification:'Sniglet, Normal';letter-spacing:0px;word-spacing:0px;fill:#232323;stroke-width:0.265001"
     aria-label="CV" />
  <path
     d="m 7.4073191,88.713764 q 0.11991,0 0.247087,0.0218 0.127176,0.0218 0.232551,0.0654 0.105375,0.04 0.174414,0.10174 0.06904,0.0618 0.06904,0.14171 0,0.0836 -0.0436,0.12718 -0.0436,0.0436 -0.109008,0.0436 -0.06177,0 -0.116276,-0.0218 -0.05087,-0.0218 -0.116276,-0.0472 -0.0654,-0.0254 -0.156246,-0.0472 -0.09084,-0.0218 -0.228918,-0.0218 -0.152612,0 -0.287056,0.0727 -0.13081,0.069 -0.232551,0.19621 -0.101742,0.12355 -0.15988,0.29433 -0.05814,0.17078 -0.05814,0.37063 0,0.24345 0.06177,0.4215 0.06177,0.17804 0.159879,0.29432 0.101742,0.11628 0.225285,0.17441 0.127176,0.0545 0.254353,0.0545 0.207117,0 0.327026,-0.0581 0.123543,-0.0618 0.196215,-0.15625 0.0036,-0.0763 0.0036,-0.18168 0,-0.10537 0,-0.22891 0,-0.0472 -0.0073,-0.0727 -0.0073,-0.0291 -0.03634,-0.0436 -0.02907,-0.0145 -0.08721,-0.0182 -0.05451,-0.004 -0.148979,-0.004 -0.116276,0 -0.188948,-0.0291 -0.07267,-0.0327 -0.07267,-0.13445 0,-0.0727 0.03634,-0.11627 0.03997,-0.0472 0.159879,-0.0545 0.0218,0 0.06904,0 0.05087,-0.004 0.105375,-0.004 0.05814,0 0.112642,0 0.0545,0 0.08721,0 0.109009,0 0.174414,0.0218 0.06541,0.0182 0.116276,0.0872 0.02544,0.0363 0.02907,0.12718 0.0073,0.0908 0.0073,0.21075 v 0.93747 q 0,0.0981 -0.0545,0.14535 -0.05087,0.0472 -0.11991,0.0472 -0.08357,0 -0.138077,-0.0436 -0.05087,-0.04 -0.05087,-0.13081 v -0.14171 q -0.09447,0.10901 -0.225285,0.15624 -0.127176,0.0472 -0.323392,0.0472 -0.199849,0 -0.392431,-0.0799 -0.192582,-0.0799 -0.34156,-0.23618 -0.148978,-0.15988 -0.243453,-0.39607 -0.09084,-0.23982 -0.09084,-0.55594 0,-0.31613 0.09084,-0.56321 0.09448,-0.24709 0.254354,-0.41787 0.159879,-0.17441 0.374263,-0.26525 0.214383,-0.0909 0.461469,-0.0909 z m 2.7215839,2.38729 q -0.03634,-0.0872 -0.07994,-0.19985 -0.03997,-0.11627 -0.08721,-0.24345 -0.1090095,0.004 -0.2289185,0.007 -0.119909,0 -0.243453,0 -0.156245,0 -0.283422,0 -0.127177,0 -0.232552,-0.004 -0.0436,0.12718 -0.08357,0.23982 -0.03997,0.11265 -0.07631,0.19985 -0.07267,0.18532 -0.21075,0.18532 -0.05087,0 -0.09811,-0.0327 -0.0436,-0.0327 -0.0436,-0.0945 0,-0.0618 0.0218,-0.15988 0.0218,-0.10174 0.0545,-0.21438 0.03634,-0.11628 0.07631,-0.23619 0.03997,-0.12354 0.07631,-0.22892 0.03634,-0.11627 0.101741,-0.29432 0.06904,-0.18168 0.145345,-0.3779 0.07631,-0.19621 0.152612,-0.38516 0.07631,-0.19258 0.138078,-0.33429 0.01453,-0.0363 0.03634,-0.0799 0.0218,-0.0472 0.05087,-0.0872 0.0327,-0.04 0.06904,-0.069 0.03997,-0.0291 0.08721,-0.0291 0.04724,0 0.08721,0.0327 0.03997,0.0291 0.06904,0.0727 0.0327,0.0436 0.0545,0.0908 0.02544,0.0472 0.03997,0.0836 0.05814,0.14535 0.13081,0.3343 0.07631,0.18894 0.1489799,0.38153 0.07631,0.19258 0.141711,0.36699 0.06541,0.17442 0.105375,0.29432 0.0327,0.10538 0.07267,0.22529 0.0436,0.11991 0.07994,0.23618 0.03634,0.11628 0.05814,0.21802 0.02543,0.0981 0.02543,0.15988 0,0.0618 -0.04724,0.0945 -0.0436,0.0327 -0.09447,0.0327 -0.0654,0 -0.119909,-0.0436 -0.0545,-0.0472 -0.09447,-0.14171 z m -0.6431519,-0.79939 q 0.08721,0 0.174414,0.004 0.08721,0 0.174413,0.004 -0.0436,-0.12717 -0.08721,-0.25435 -0.0436,-0.12718 -0.08357,-0.24345 -0.03634,-0.11628 -0.06904,-0.21439 -0.02907,-0.10174 -0.05087,-0.17804 -0.01454,-0.0472 -0.0327,-0.0763 -0.01817,-0.0291 -0.04724,-0.0291 -0.02907,0 -0.04724,0.0327 -0.01817,0.0291 -0.0327,0.0763 -0.0436,0.14898 -0.123543,0.3888 -0.07631,0.23618 -0.163513,0.4978 0.09811,-0.004 0.196216,-0.004 0.09811,-0.004 0.192582,-0.004 z m 2.4127249,-1.22453 q -0.101741,0.007 -0.218017,0.0109 -0.112642,0.004 -0.25072,0.007 0.0036,0.0981 0.0073,0.18532 0.0036,0.0836 0.0073,0.17078 0.0036,0.0872 0.0036,0.18168 0.0036,0.0945 0.0036,0.21075 0,0.16351 0,0.31613 0,0.14897 -0.0036,0.30159 -0.0036,0.14897 -0.0073,0.30159 -0.0036,0.15261 -0.0109,0.31612 -0.0036,0.0872 -0.01817,0.13445 -0.0109,0.0472 -0.0327,0.0727 -0.0218,0.0254 -0.05087,0.0291 -0.02907,0.007 -0.06541,0.007 -0.0654,0 -0.112643,-0.0436 -0.0436,-0.0472 -0.05087,-0.19622 -0.0073,-0.13081 -0.0109,-0.27615 0,-0.14535 -0.0036,-0.31249 -0.0036,-0.16715 -0.0036,-0.35973 0,-0.19622 0,-0.4324 0,-0.19985 0,-0.34883 0.0036,-0.14898 0.0109,-0.25799 h -0.148979 q -0.152612,0 -0.261621,-0.004 -0.105375,-0.004 -0.174413,-0.0182 -0.06904,-0.0182 -0.101742,-0.0545 -0.02907,-0.0363 -0.02907,-0.10174 0,-0.0327 0.0073,-0.0581 0.0073,-0.0291 0.0327,-0.0509 0.02544,-0.0254 0.06904,-0.04 0.04724,-0.0145 0.119909,-0.0218 0.06904,-0.004 0.123544,-0.007 0.0545,-0.004 0.109008,-0.007 0.0545,-0.004 0.112642,-0.004 0.05814,0 0.134444,0 0.214384,0 0.403332,0.004 0.192582,0.004 0.406966,0.0145 0.08721,0.007 0.134444,0.0218 0.04724,0.0109 0.07267,0.0327 0.02543,0.0218 0.02907,0.0509 0.0073,0.0291 0.0073,0.0654 0,0.0654 -0.04724,0.10901 -0.0436,0.0436 -0.192582,0.0509 z m 0.515973,1.65693 q -0.0073,-0.11628 -0.01454,-0.31613 -0.0073,-0.19985 -0.0073,-0.4106 0,-0.11991 0,-0.24708 0.0036,-0.13081 0.0073,-0.26526 0.0073,-0.26889 0.0327,-0.4215 0.02907,-0.15261 0.109008,-0.22892 0.08357,-0.0763 0.232552,-0.0945 0.148979,-0.0182 0.396065,-0.0182 0.0036,0 0.07631,0 0.07631,0 0.181681,0.004 0.105375,0 0.218017,0.004 0.116276,0.004 0.192582,0.007 0.07994,0.007 0.127177,0.0218 0.05087,0.0109 0.07631,0.0327 0.02543,0.0182 0.0327,0.0472 0.0073,0.0254 0.0073,0.0581 0,0.0836 -0.04724,0.12354 -0.04724,0.0363 -0.192582,0.0472 -0.07267,0.007 -0.214383,0.0109 -0.138078,0 -0.283423,0 -0.145344,0 -0.26162,0.004 -0.116276,0 -0.145345,0 -0.09447,0.004 -0.134444,0.0436 -0.03634,0.0363 -0.03634,0.17805 0,0.0327 0.0036,0.15988 0.0073,0.12354 0.0073,0.34883 h 0.30159 q 0.192582,0 0.312492,0.007 0.123543,0.004 0.188948,0.0218 0.06904,0.0182 0.09447,0.0581 0.02543,0.04 0.02543,0.10537 0,0.0327 -0.0073,0.0618 -0.0036,0.0254 -0.02907,0.0472 -0.02544,0.0182 -0.07267,0.0327 -0.04724,0.0109 -0.134444,0.0182 -0.105375,0.007 -0.199849,0.0109 -0.09084,0 -0.181681,0 h -0.305224 q 0,0.0545 0,0.13081 0,0.0763 0,0.15625 0,0.0799 0,0.15624 0.0036,0.0763 0.0073,0.12355 0.0036,0.0581 0.01453,0.0981 0.01453,0.04 0.04724,0.0654 0.03634,0.0254 0.101742,0.0363 0.06904,0.0109 0.181681,0.0109 h 0.781228 q 0.127177,0 0.159879,0.0472 0.0327,0.0472 0.0327,0.12718 0,0.0654 -0.02907,0.10174 -0.02907,0.0327 -0.141711,0.0472 -0.109009,0.0182 -0.33066,0.0218 -0.218017,0.004 -0.603181,0.004 -0.163513,0 -0.268888,-0.0291 -0.105375,-0.0291 -0.17078,-0.0981 -0.0654,-0.069 -0.09811,-0.17805 -0.02907,-0.11264 -0.03997,-0.27252 z"
     id="text1-5-5"
     style="font-size:3.63362px;line-height:1.25;font-family:Sniglet;-inkscape-font-specification:'Sniglet, Normal';letter-spacing:0px;word-spacing:0px;fill:#232323;stroke-width:0.265001"
     aria-label="GATE" />
  <path
     style="font-size:3.63362px;line-height:1.25;font-family:Sniglet;-inkscape-font-specification:'Sniglet, Normal';letter-spacing:0px;word-spacing:0px;fill:#232323;stroke-width:0.264584"
     d="m 8.4074131,103.55534 q 0.11991,0 0.239819,0.0218 0.123543,0.0182 0.221651,0.0618 0.09811,0.04 0.159879,0.10174 0.0654,0.0581 0.0654,0.13807 0,0.0836 -0.0436,0.12718 -0.0436,0.0436 -0.109009,0.0436 -0.06177,0 -0.109008,-0.0182 -0.04724,-0.0218 -0.109009,-0.0472 -0.05814,-0.0254 -0.141711,-0.0436 -0.08357,-0.0218 -0.221651,-0.0218 -0.138077,0 -0.265254,0.0727 -0.123543,0.069 -0.218017,0.19622 -0.09084,0.12354 -0.145345,0.29432 -0.0545,0.17078 -0.0545,0.37063 0,0.24709 0.06177,0.42513 0.0654,0.17805 0.167147,0.29433 0.101741,0.11264 0.228918,0.17078 0.13081,0.0545 0.26162,0.0545 0.156246,0 0.261621,-0.0327 0.105375,-0.0327 0.178047,-0.0727 0.07631,-0.04 0.130811,-0.0727 0.0545,-0.0327 0.105375,-0.0327 0.06177,0 0.09811,0.0363 0.03634,0.0327 0.03634,0.11991 0,0.0727 -0.05814,0.14897 -0.05451,0.0727 -0.163513,0.13445 -0.105375,0.0581 -0.254354,0.0981 -0.148978,0.0363 -0.334293,0.0363 -0.203482,0 -0.406965,-0.0799 -0.199849,-0.0799 -0.359728,-0.23619 -0.156246,-0.15988 -0.254354,-0.39606 -0.09811,-0.23982 -0.09811,-0.55595 0,-0.31612 0.08721,-0.56321 0.09084,-0.24708 0.243453,-0.41786 0.156245,-0.17442 0.359728,-0.26526 0.207117,-0.0908 0.439668,-0.0908 z m 2.1111379,2.42725 q -0.04724,0.0872 -0.08721,0.12718 -0.03634,0.04 -0.09447,0.04 -0.05814,0 -0.101742,-0.04 -0.0436,-0.04 -0.09447,-0.12354 -0.0654,-0.10901 -0.1489784,-0.30159 -0.07994,-0.19258 -0.1635135,-0.41787 -0.08357,-0.22892 -0.163513,-0.47237 -0.07994,-0.24345 -0.145345,-0.45783 -0.06177,-0.21439 -0.101741,-0.37427 -0.03634,-0.16351 -0.03634,-0.23255 0,-0.0727 0.02907,-0.10901 0.02907,-0.0363 0.112642,-0.0363 0.04724,0 0.07994,0.0254 0.03634,0.0218 0.09084,0.13081 0.0436,0.0836 0.09447,0.21802 0.05087,0.13444 0.1053755,0.29796 0.05814,0.16351 0.1162764,0.34519 0.05814,0.17805 0.116276,0.35609 0.05814,0.17805 0.109008,0.34156 0.05087,0.16352 0.09448,0.29433 0.0436,-0.13445 0.09811,-0.29796 0.0545,-0.16715 0.112643,-0.34156 0.05814,-0.17805 0.116275,-0.35609 0.05814,-0.18169 0.116276,-0.34156 0.05814,-0.15988 0.109009,-0.29433 0.05087,-0.13444 0.09084,-0.22165 0.05087,-0.10537 0.08721,-0.13081 0.03997,-0.0254 0.07994,-0.0254 0.08357,0 0.112642,0.0436 0.0327,0.04 0.0327,0.11991 0,0.0727 -0.0218,0.17441 -0.0218,0.10175 -0.07631,0.27253 -0.05087,0.16714 -0.138078,0.41786 -0.08721,0.25072 -0.214383,0.61408 -0.0327,0.0981 -0.07631,0.20349 -0.03997,0.10537 -0.08357,0.20711 -0.03997,0.0981 -0.07994,0.18895 -0.03997,0.0908 -0.07631,0.15625 z m 1.813173,-2.04936 q -0.13081,0 -0.218017,0.0291 -0.08721,0.0254 -0.145345,0.069 -0.05814,0.0436 -0.09447,0.0908 -0.0327,0.0472 -0.0654,0.0908 -0.02907,0.0436 -0.06541,0.0727 -0.0327,0.0254 -0.08357,0.0254 -0.08721,0 -0.123543,-0.0436 -0.0327,-0.0472 -0.0327,-0.12354 0,-0.15988 0.119909,-0.29796 0.03634,-0.0436 0.09811,-0.0908 0.06541,-0.0509 0.152612,-0.0908 0.09084,-0.04 0.207117,-0.0654 0.119909,-0.0291 0.268888,-0.0291 0.396064,0 0.614081,0.19259 0.218017,0.19258 0.218017,0.5414 0,0.069 -0.01453,0.15262 -0.0109,0.0836 -0.04724,0.17441 -0.0327,0.0908 -0.09447,0.18895 -0.06177,0.0981 -0.163513,0.19985 -0.09084,0.0908 -0.192582,0.16714 -0.101741,0.0763 -0.21075,0.15262 -0.109008,0.0763 -0.228918,0.16351 -0.116276,0.0836 -0.236185,0.19258 0.116276,0.0618 0.25072,0.0799 0.134443,0.0182 0.30159,0.0182 0.156246,0 0.25072,-0.007 0.09447,-0.007 0.152612,-0.0182 0.05814,-0.0109 0.09084,-0.0182 0.0327,-0.007 0.06904,-0.007 0.134444,0 0.134444,0.12354 0,0.10901 -0.09084,0.16715 -0.09084,0.0581 -0.218018,0.0872 -0.127176,0.0254 -0.26162,0.0291 -0.134444,0.007 -0.221651,0.007 -0.04724,0 -0.134444,-0.007 -0.08357,-0.004 -0.181681,-0.0182 -0.09811,-0.0145 -0.199849,-0.04 -0.09811,-0.0291 -0.181681,-0.0727 -0.07994,-0.0472 -0.130811,-0.11264 -0.05087,-0.069 -0.05087,-0.16352 0,-0.12717 0.09084,-0.23981 0.09447,-0.11628 0.232552,-0.22529 0.138078,-0.11264 0.297957,-0.22165 0.159879,-0.11264 0.297957,-0.22892 0.138077,-0.11991 0.228918,-0.24708 0.09447,-0.12718 0.09447,-0.27616 0,-0.18531 -0.127177,-0.27615 -0.123543,-0.0945 -0.356095,-0.0945 z"
     id="text7-5"
     aria-label="CV2" />
  <path
     d="m 9.2856564,11.66204 q 0.119909,0 0.239819,0.0218 0.123543,0.01817 0.221651,0.06177 0.09811,0.03997 0.1598792,0.101741 0.06541,0.05814 0.06541,0.138077 0,0.08357 -0.0436,0.127177 -0.0436,0.0436 -0.1090092,0.0436 -0.06177,0 -0.109008,-0.01817 -0.04724,-0.0218 -0.109009,-0.04724 -0.05814,-0.02543 -0.141711,-0.0436 -0.08357,-0.0218 -0.221651,-0.0218 -0.138078,0 -0.265254,0.07267 -0.123543,0.06904 -0.218017,0.196215 -0.09084,0.123543 -0.145345,0.294323 -0.0545,0.170781 -0.0545,0.37063 0,0.247086 0.06177,0.425133 0.0654,0.178048 0.167146,0.294323 0.101742,0.112643 0.228918,0.170781 0.130811,0.0545 0.261621,0.0545 0.156246,0 0.261621,-0.0327 0.105375,-0.0327 0.178047,-0.07267 0.07631,-0.03997 0.13081,-0.07267 0.0545,-0.0327 0.1053752,-0.0327 0.06177,0 0.09811,0.03634 0.03634,0.0327 0.03634,0.11991 0,0.07267 -0.05814,0.148978 -0.0545,0.07267 -0.1635156,0.134444 -0.105375,0.05814 -0.254353,0.09811 -0.148978,0.03634 -0.334293,0.03634 -0.203483,0 -0.406966,-0.07994 -0.19985,-0.07995 -0.359729,-0.236191 -0.156246,-0.159879 -0.254353,-0.396065 -0.09811,-0.239819 -0.09811,-0.555944 0,-0.316125 0.08721,-0.563211 0.09084,-0.247086 0.243452,-0.417866 0.156246,-0.174414 0.359729,-0.265254 0.207116,-0.09084 0.439668,-0.09084 z m 2.1111366,2.427258 q -0.04724,0.08721 -0.08721,0.127177 -0.03634,0.03997 -0.09447,0.03997 -0.05814,0 -0.101741,-0.03997 -0.0436,-0.03997 -0.09447,-0.123543 -0.0654,-0.109009 -0.148978,-0.30159 -0.07994,-0.192582 -0.163513,-0.417867 -0.08357,-0.228918 -0.163513,-0.47237 -0.07994,-0.243453 -0.145345,-0.457836 -0.06177,-0.214384 -0.101741,-0.374263 -0.03634,-0.163513 -0.03634,-0.232552 0,-0.07267 0.02907,-0.109009 0.02907,-0.03634 0.112642,-0.03634 0.04724,0 0.07994,0.02544 0.03634,0.0218 0.09084,0.13081 0.0436,0.08357 0.09447,0.218017 0.05087,0.134444 0.105375,0.297957 0.05814,0.163513 0.116276,0.345194 0.05814,0.178047 0.116275,0.356095 0.05814,0.178047 0.109009,0.34156 0.05087,0.163513 0.09447,0.294323 0.0436,-0.134444 0.09811,-0.297957 0.0545,-0.167146 0.112642,-0.34156 0.05814,-0.178047 0.116276,-0.356095 0.05814,-0.181681 0.116276,-0.34156 0.05814,-0.159879 0.109008,-0.294323 0.05087,-0.134444 0.09084,-0.221651 0.05087,-0.105375 0.08721,-0.13081 0.03997,-0.02544 0.07994,-0.02544 0.08357,0 0.112642,0.0436 0.0327,0.03997 0.0327,0.119909 0,0.07267 -0.0218,0.174414 -0.0218,0.101741 -0.07631,0.272521 -0.05087,0.167147 -0.138078,0.417867 -0.08721,0.250719 -0.214384,0.614081 -0.0327,0.09811 -0.07631,0.203483 -0.03997,0.105375 -0.08357,0.207117 -0.03997,0.09811 -0.07994,0.188948 -0.03997,0.09084 -0.07631,0.156245 z"
     id="text1-2"
     style="font-size:3.63362px;line-height:1.25;font-family:Sniglet;-inkscape-font-specification:'Sniglet, Normal';letter-spacing:0px;word-spacing:0px;fill:#232323;stroke-width:0.265001"
     aria-label="CV" />
  <path
     d="m 7.3952944,26.712894 q 0.11991,0 0.247086,0.0218 0.127177,0.0218 0.232552,0.06541 0.105375,0.03997 0.174414,0.101741 0.06904,0.06177 0.06904,0.141712 0,0.08357 -0.0436,0.127176 -0.0436,0.0436 -0.109008,0.0436 -0.06177,0 -0.116276,-0.0218 -0.05087,-0.0218 -0.116276,-0.04724 -0.0654,-0.02543 -0.156246,-0.04724 -0.09084,-0.0218 -0.228918,-0.0218 -0.152612,0 -0.287056,0.07267 -0.13081,0.06904 -0.232552,0.196215 -0.101741,0.123543 -0.159879,0.294323 -0.05814,0.17078 -0.05814,0.37063 0,0.243452 0.06177,0.421499 0.06177,0.178048 0.159879,0.294324 0.101741,0.116276 0.225285,0.174413 0.127176,0.0545 0.254353,0.0545 0.207116,0 0.327026,-0.05814 0.123543,-0.06177 0.196215,-0.156246 0.0036,-0.07631 0.0036,-0.181681 0,-0.105375 0,-0.228918 0,-0.04724 -0.0073,-0.07267 -0.0073,-0.02907 -0.03634,-0.0436 -0.02907,-0.01453 -0.08721,-0.01817 -0.05451,-0.0036 -0.148979,-0.0036 -0.116276,0 -0.188948,-0.02907 -0.07267,-0.0327 -0.07267,-0.134444 0,-0.07267 0.03634,-0.116276 0.03997,-0.04724 0.159879,-0.05451 0.0218,0 0.06904,0 0.05087,-0.0036 0.105375,-0.0036 0.05814,0 0.112642,0 0.0545,0 0.08721,0 0.109008,0 0.174414,0.0218 0.0654,0.01817 0.116275,0.08721 0.02544,0.03634 0.02907,0.127177 0.0073,0.09084 0.0073,0.21075 v 0.937474 q 0,0.09811 -0.05451,0.145345 -0.05087,0.04724 -0.119909,0.04724 -0.08357,0 -0.138078,-0.0436 -0.05087,-0.03997 -0.05087,-0.130811 v -0.141711 q -0.09447,0.109009 -0.225285,0.156246 -0.127177,0.04724 -0.323392,0.04724 -0.199849,0 -0.392431,-0.07994 -0.192582,-0.07994 -0.34156,-0.236185 -0.148979,-0.159879 -0.243453,-0.396065 -0.09084,-0.239819 -0.09084,-0.555944 0,-0.316125 0.09084,-0.563211 0.09447,-0.247086 0.254354,-0.417866 0.159879,-0.174414 0.374262,-0.265254 0.214384,-0.09084 0.46147,-0.09084 z m 2.7215826,2.387289 q -0.03634,-0.08721 -0.07994,-0.19985 -0.03997,-0.116275 -0.08721,-0.243452 -0.1090092,0.0036 -0.2289182,0.0073 -0.11991,0 -0.243453,0 -0.156245,0 -0.283422,0 -0.127177,0 -0.232552,-0.0036 -0.0436,0.127177 -0.08357,0.239819 -0.03997,0.112643 -0.07631,0.19985 -0.07267,0.185314 -0.21075,0.185314 -0.05087,0 -0.09811,-0.0327 -0.0436,-0.0327 -0.0436,-0.09447 0,-0.06177 0.0218,-0.159879 0.0218,-0.101741 0.0545,-0.214383 0.03634,-0.116276 0.07631,-0.236186 0.03997,-0.123543 0.07631,-0.228918 0.03634,-0.116276 0.101741,-0.294323 0.06904,-0.181681 0.145345,-0.377896 0.07631,-0.196216 0.152612,-0.385164 0.07631,-0.192582 0.138078,-0.334293 0.01453,-0.03634 0.03634,-0.07994 0.0218,-0.04724 0.05087,-0.08721 0.0327,-0.03997 0.06904,-0.06904 0.03997,-0.02907 0.08721,-0.02907 0.04724,0 0.08721,0.0327 0.03997,0.02907 0.06904,0.07267 0.0327,0.0436 0.0545,0.09084 0.02543,0.04724 0.03997,0.08357 0.05814,0.145345 0.13081,0.334293 0.07631,0.188949 0.1489792,0.38153 0.07631,0.192582 0.141712,0.366996 0.06541,0.174414 0.105375,0.294323 0.0327,0.105375 0.07267,0.225285 0.0436,0.119909 0.07994,0.236185 0.03634,0.116276 0.05814,0.218017 0.02544,0.09811 0.02544,0.159879 0,0.06177 -0.04724,0.09447 -0.0436,0.0327 -0.09447,0.0327 -0.0654,0 -0.11991,-0.0436 -0.0545,-0.04724 -0.09447,-0.141711 z M 9.4737264,28.300786 q 0.08721,0 0.174413,0.0036 0.08721,0 0.174414,0.0036 -0.0436,-0.127176 -0.08721,-0.254353 -0.0436,-0.127177 -0.08357,-0.243453 -0.03634,-0.116275 -0.06904,-0.214383 -0.02907,-0.101742 -0.05087,-0.178048 -0.01454,-0.04724 -0.0327,-0.07631 -0.01817,-0.02907 -0.04724,-0.02907 -0.02907,0 -0.04724,0.0327 -0.01817,0.02907 -0.0327,0.07631 -0.0436,0.148978 -0.123543,0.388797 -0.07631,0.236186 -0.163513,0.497806 0.09811,-0.0036 0.196216,-0.0036 0.09811,-0.0036 0.192582,-0.0036 z m 2.4127246,-1.22453 q -0.101741,0.0073 -0.218017,0.0109 -0.112642,0.0036 -0.25072,0.0073 0.0036,0.09811 0.0073,0.185315 0.0036,0.08357 0.0073,0.17078 0.0036,0.08721 0.0036,0.181681 0.0036,0.09447 0.0036,0.21075 0,0.163513 0,0.316125 0,0.148978 -0.0036,0.30159 -0.0036,0.148979 -0.0073,0.301591 -0.0036,0.152612 -0.0109,0.316125 -0.0036,0.08721 -0.01817,0.134444 -0.0109,0.04724 -0.0327,0.07267 -0.0218,0.02543 -0.05087,0.02907 -0.02907,0.0073 -0.06541,0.0073 -0.0654,0 -0.112642,-0.0436 -0.0436,-0.04724 -0.05087,-0.196216 -0.0073,-0.13081 -0.0109,-0.276155 0,-0.145345 -0.0036,-0.312491 -0.0036,-0.167147 -0.0036,-0.359728 0,-0.196216 0,-0.432401 0,-0.199849 0,-0.348828 0.0036,-0.148978 0.0109,-0.257987 h -0.148979 q -0.152612,0 -0.261621,-0.0036 -0.105375,-0.0036 -0.174413,-0.01817 -0.06904,-0.01817 -0.101742,-0.05451 -0.02907,-0.03634 -0.02907,-0.101741 0,-0.0327 0.0073,-0.05814 0.0073,-0.02907 0.0327,-0.05087 0.02543,-0.02544 0.06904,-0.03997 0.04724,-0.01453 0.119909,-0.0218 0.06904,-0.0036 0.123543,-0.0073 0.05451,-0.0036 0.109009,-0.0073 0.0545,-0.0036 0.112642,-0.0036 0.05814,0 0.134444,0 0.214384,0 0.403333,0.0036 0.192582,0.0036 0.406965,0.01454 0.08721,0.0073 0.134444,0.0218 0.04724,0.0109 0.07267,0.0327 0.02543,0.0218 0.02907,0.05087 0.0073,0.02907 0.0073,0.06541 0,0.06541 -0.04724,0.109008 -0.0436,0.0436 -0.192582,0.05087 z m 0.515973,1.656931 q -0.0073,-0.116276 -0.01454,-0.316125 -0.0073,-0.199849 -0.0073,-0.410599 0,-0.11991 0,-0.247086 0.0036,-0.130811 0.0073,-0.265255 0.0073,-0.268887 0.0327,-0.421499 0.02907,-0.152612 0.109008,-0.228919 0.08357,-0.07631 0.232552,-0.09447 0.148978,-0.01817 0.396065,-0.01817 0.0036,0 0.07631,0 0.07631,0 0.181681,0.0036 0.105375,0 0.218017,0.0036 0.116276,0.0036 0.192582,0.0073 0.07994,0.0073 0.127176,0.0218 0.05087,0.0109 0.07631,0.0327 0.02544,0.01817 0.0327,0.04724 0.0073,0.02543 0.0073,0.05814 0,0.08357 -0.04724,0.123543 -0.04724,0.03634 -0.192582,0.04724 -0.07267,0.0073 -0.214383,0.0109 -0.138078,0 -0.283423,0 -0.145345,0 -0.26162,0.0036 -0.116276,0 -0.145345,0 -0.09447,0.0036 -0.134444,0.0436 -0.03634,0.03634 -0.03634,0.178047 0,0.0327 0.0036,0.15988 0.0073,0.123543 0.0073,0.348827 h 0.30159 q 0.192582,0 0.312491,0.0073 0.123543,0.0036 0.188949,0.0218 0.06904,0.01817 0.09447,0.05814 0.02543,0.03997 0.02543,0.105375 0,0.0327 -0.0073,0.06177 -0.0036,0.02543 -0.02907,0.04724 -0.02544,0.01817 -0.07267,0.0327 -0.04724,0.0109 -0.134444,0.01817 -0.105374,0.0073 -0.199849,0.0109 -0.09084,0 -0.181681,0 H 12.7585 q 0,0.05451 0,0.130811 0,0.07631 0,0.156245 0,0.07994 0,0.156246 0.0036,0.07631 0.0073,0.123543 0.0036,0.05814 0.01453,0.09811 0.01453,0.03997 0.04724,0.06541 0.03634,0.02543 0.101741,0.03634 0.06904,0.0109 0.181681,0.0109 h 0.781229 q 0.127176,0 0.159879,0.04724 0.0327,0.04724 0.0327,0.127177 0,0.06541 -0.02907,0.101741 -0.02907,0.0327 -0.141712,0.04724 -0.109008,0.01817 -0.330659,0.0218 -0.218017,0.0036 -0.603181,0.0036 -0.163513,0 -0.268888,-0.02907 -0.105375,-0.02907 -0.17078,-0.09811 -0.06541,-0.06904 -0.09811,-0.178048 -0.02907,-0.112642 -0.03997,-0.272521 z"
     id="text1-5"
     style="font-size:3.63362px;line-height:1.25;font-family:Sniglet;-inkscape-font-specification:'Sniglet, Normal';letter-spacing:0px;word-spacing:0px;fill:#232323;stroke-width:0.265001"
     aria-label="GATE" />
  <path
     style="font-size:3.63362px;line-height:1.25;font-family:Sniglet;-inkscape-font-specification:'Sniglet, Normal';letter-spacing:0px;word-spacing:0px;fill:#232323;stroke-width:0.264584"
     d="m 8.4135924,56.662082 q 0.11991,0 0.239819,0.0218 0.123543,0.0182 0.221651,0.0618 0.09811,0.04 0.159879,0.10174 0.0654,0.0581 0.0654,0.13808 0,0.0836 -0.0436,0.12718 -0.0436,0.0436 -0.109009,0.0436 -0.06177,0 -0.109008,-0.0182 -0.04724,-0.0218 -0.109009,-0.0472 -0.05814,-0.0254 -0.141711,-0.0436 -0.08357,-0.0218 -0.221651,-0.0218 -0.138077,0 -0.265254,0.0727 -0.123543,0.069 -0.218017,0.19621 -0.09084,0.12355 -0.145345,0.29433 -0.0545,0.17078 -0.0545,0.37063 0,0.24708 0.06177,0.42513 0.0654,0.17805 0.167147,0.29432 0.101741,0.11264 0.228918,0.17078 0.13081,0.0545 0.26162,0.0545 0.156246,0 0.261621,-0.0327 0.105375,-0.0327 0.178047,-0.0727 0.07631,-0.04 0.130811,-0.0727 0.0545,-0.0327 0.105375,-0.0327 0.06177,0 0.09811,0.0363 0.03634,0.0327 0.03634,0.11991 0,0.0727 -0.05814,0.14898 -0.05451,0.0727 -0.163513,0.13444 -0.105375,0.0581 -0.254354,0.0981 -0.148978,0.0363 -0.334293,0.0363 -0.203482,0 -0.406965,-0.0799 -0.199849,-0.0799 -0.359728,-0.23618 -0.156246,-0.15988 -0.254354,-0.39607 -0.09811,-0.23981 -0.09811,-0.55594 0,-0.31612 0.08721,-0.56321 0.09084,-0.24709 0.243453,-0.41787 0.156245,-0.17441 0.359728,-0.26525 0.207117,-0.0908 0.439668,-0.0908 z m 2.1111376,2.42726 q -0.04724,0.0872 -0.08721,0.12718 -0.03634,0.04 -0.09447,0.04 -0.05814,0 -0.101742,-0.04 -0.0436,-0.04 -0.09447,-0.12355 -0.0654,-0.109 -0.1489784,-0.30159 -0.07994,-0.19258 -0.1635132,-0.41786 -0.08357,-0.22892 -0.163513,-0.47237 -0.07994,-0.24346 -0.145345,-0.45784 -0.06177,-0.21438 -0.101741,-0.37426 -0.03634,-0.16351 -0.03634,-0.23255 0,-0.0727 0.02907,-0.10901 0.02907,-0.0363 0.112642,-0.0363 0.04724,0 0.07994,0.0254 0.03634,0.0218 0.09084,0.13081 0.0436,0.0836 0.09447,0.21801 0.05087,0.13445 0.1053752,0.29796 0.05814,0.16351 0.1162764,0.3452 0.05814,0.17804 0.116276,0.35609 0.05814,0.17805 0.109008,0.34156 0.05087,0.16351 0.09448,0.29432 0.0436,-0.13444 0.09811,-0.29795 0.0545,-0.16715 0.112643,-0.34156 0.05814,-0.17805 0.116275,-0.3561 0.05814,-0.18168 0.116276,-0.34156 0.05814,-0.15988 0.109009,-0.29432 0.05087,-0.13445 0.09084,-0.22165 0.05087,-0.10538 0.08721,-0.13081 0.03997,-0.0254 0.07994,-0.0254 0.08357,0 0.112642,0.0436 0.0327,0.04 0.0327,0.11991 0,0.0727 -0.0218,0.17441 -0.0218,0.10174 -0.07631,0.27252 -0.05087,0.16715 -0.138078,0.41787 -0.08721,0.25072 -0.214383,0.61408 -0.0327,0.0981 -0.07631,0.20348 -0.03997,0.10538 -0.08357,0.20712 -0.03997,0.0981 -0.07994,0.18895 -0.03997,0.0908 -0.07631,0.15624 z m 1.813173,-2.04936 q -0.13081,0 -0.218017,0.0291 -0.08721,0.0254 -0.145345,0.069 -0.05814,0.0436 -0.09447,0.0908 -0.0327,0.0472 -0.0654,0.0908 -0.02907,0.0436 -0.06541,0.0727 -0.0327,0.0254 -0.08357,0.0254 -0.08721,0 -0.123543,-0.0436 -0.0327,-0.0472 -0.0327,-0.12354 0,-0.15988 0.119909,-0.29796 0.03634,-0.0436 0.09811,-0.0908 0.06541,-0.0509 0.152612,-0.0908 0.09084,-0.04 0.207117,-0.0654 0.119909,-0.0291 0.268888,-0.0291 0.396064,0 0.614081,0.19258 0.218017,0.19258 0.218017,0.54141 0,0.069 -0.01453,0.15261 -0.0109,0.0836 -0.04724,0.17442 -0.0327,0.0908 -0.09447,0.18894 -0.06177,0.0981 -0.163513,0.19985 -0.09084,0.0908 -0.192582,0.16715 -0.101741,0.0763 -0.21075,0.15261 -0.109008,0.0763 -0.228918,0.16352 -0.116276,0.0836 -0.236185,0.19258 0.116276,0.0618 0.25072,0.0799 0.134443,0.0182 0.30159,0.0182 0.156246,0 0.25072,-0.007 0.09447,-0.007 0.152612,-0.0182 0.05814,-0.0109 0.09084,-0.0182 0.0327,-0.007 0.06904,-0.007 0.134444,0 0.134444,0.12354 0,0.10901 -0.09084,0.16715 -0.09084,0.0581 -0.218018,0.0872 -0.127176,0.0254 -0.26162,0.0291 -0.134444,0.007 -0.221651,0.007 -0.04724,0 -0.134444,-0.007 -0.08357,-0.004 -0.181681,-0.0182 -0.09811,-0.0145 -0.199849,-0.04 -0.09811,-0.0291 -0.181681,-0.0727 -0.07994,-0.0472 -0.130811,-0.11265 -0.05087,-0.069 -0.05087,-0.16351 0,-0.12718 0.09084,-0.23982 0.09447,-0.11627 0.232552,-0.22528 0.138078,-0.11265 0.297957,-0.22165 0.159879,-0.11265 0.297957,-0.22892 0.138077,-0.11991 0.228918,-0.24709 0.09447,-0.12718 0.09447,-0.27615 0,-0.18532 -0.127177,-0.27616 -0.123543,-0.0945 -0.356095,-0.0945 z"
     id="text7"
     aria-label="CV2" />
  <path
     style="font-size:3.63362px;line-height:1.25;font-family:Sniglet;-inkscape-font-specification:'Sniglet, Normal';letter-spacing:0px;word-spacing:0px;fill:#232323;stroke-width:0.264584"
     d="m 8.9635864,41.865751 q 0.1017415,0 0.2325525,0.01817 0.134444,0.01453 0.25072,0.05814 0.116275,0.03997 0.1962155,0.109008 0.07994,0.0654 0.07994,0.163513 0,0.05814 -0.0327,0.09811 -0.0327,0.03997 -0.1053754,0.03997 -0.054501,0 -0.1126425,-0.0218 -0.0545,-0.0218 -0.127177,-0.0436 -0.06904,-0.02543 -0.163513,-0.04724 -0.09084,-0.0218 -0.2143835,-0.0218 -0.239819,0 -0.356095,0.08721 -0.1126425,0.08357 -0.1126425,0.232551 0,0.101742 0.050871,0.17078 0.05087,0.06904 0.134444,0.11991 0.08721,0.04724 0.192582,0.07994 0.109009,0.0327 0.221651,0.06177 0.127177,0.0327 0.25072,0.07994 0.127176,0.04724 0.2252845,0.123543 0.09811,0.07631 0.1562464,0.192582 0.06177,0.116275 0.06177,0.294323 0,0.185314 -0.06904,0.334293 -0.06904,0.145345 -0.1889499,0.25072 -0.119909,0.101741 -0.287056,0.159879 -0.167146,0.0545 -0.363362,0.0545 -0.109008,0 -0.254353,-0.0218 -0.1453455,-0.01817 -0.2761555,-0.0654 -0.13081,-0.05087 -0.221651,-0.13081 -0.09084,-0.08357 -0.09084,-0.203483 0,-0.07267 0.03634,-0.116276 0.03997,-0.0436 0.116276,-0.0436 0.06177,0 0.101741,0.02543 0.03997,0.0218 0.06904,0.05087 0.1090079,0.09447 0.2470864,0.127177 0.138077,0.0327 0.283422,0.0327 0.08357,0 0.174414,-0.0109 0.09447,-0.01453 0.17078,-0.0545 0.07631,-0.03997 0.127177,-0.112642 0.05087,-0.07631 0.05087,-0.203483 0,-0.116276 -0.04724,-0.188948 -0.0436,-0.07631 -0.11991,-0.127177 -0.07631,-0.05087 -0.181681,-0.08357 -0.101741,-0.0327 -0.221651,-0.06541 -0.1344441,-0.03634 -0.2652541,-0.07994 -0.1308105,-0.0436 -0.2325524,-0.116276 -0.101741,-0.07631 -0.167146,-0.188948 -0.06177,-0.116276 -0.06177,-0.294323 0,-0.178048 0.06541,-0.312491 0.06541,-0.134444 0.178048,-0.225285 0.1126419,-0.09084 0.2652544,-0.138077 0.156246,-0.04724 0.334293,-0.04724 z m 1.9730606,-0.0036 q 0.374263,0 0.599548,0.112642 0.225284,0.112642 0.345194,0.297957 0.119909,0.185315 0.156245,0.4215 0.03997,0.236185 0.03997,0.479638 0,0.265254 -0.06904,0.501439 -0.06541,0.236186 -0.207116,0.414233 -0.138078,0.174414 -0.356095,0.279789 -0.218017,0.101741 -0.519608,0.101741 -0.239818,0 -0.385163,-0.03634 -0.141711,-0.0327 -0.221651,-0.101742 -0.07631,-0.06904 -0.101741,-0.174413 -0.02544,-0.105375 -0.02544,-0.247086 v -1.366242 q 0,-0.156245 0.02544,-0.283422 0.02907,-0.127177 0.109008,-0.214384 0.07994,-0.09084 0.225285,-0.138077 0.148978,-0.04724 0.385163,-0.04724 z m 0.01453,2.245577 q 0.225284,0 0.370629,-0.07994 0.148978,-0.08357 0.236185,-0.218017 0.08721,-0.134444 0.11991,-0.305224 0.03634,-0.17078 0.03634,-0.348827 0,-0.163513 -0.02543,-0.327026 -0.02544,-0.167147 -0.105375,-0.301591 -0.07994,-0.134444 -0.228918,-0.218017 -0.148979,-0.08357 -0.396065,-0.08357 -0.225284,0 -0.312491,0.06541 -0.08721,0.0654 -0.08721,0.199849 v 1.391677 q 0,0.112642 0.07994,0.17078 0.08357,0.0545 0.312491,0.0545 z"
     id="text2-8"
     aria-label="SD" />
  <path
     d="m 10.170691,39.678137 v 1.400005"
     id="path16-9-5-7"
     inkscape:connector-curvature="0"
     style="fill:none;stroke:#232323;stroke-width:0.132;stroke-opacity:1" />
</svg>
