<?xml version="1.0" encoding="UTF-8" standalone="no"?>
<svg
   width="30.48mm"
   height="128.5mm"
   viewBox="0 0 30.48064 128.50044"
   version="1.1"
   id="svg38"
   sodipodi:docname="Tact1.svg"
   inkscape:version="1.1 (c68e22c387, 2021-05-23)"
   xmlns:inkscape="http://www.inkscape.org/namespaces/inkscape"
   xmlns:sodipodi="http://sodipodi.sourceforge.net/DTD/sodipodi-0.dtd"
   xmlns="http://www.w3.org/2000/svg"
   xmlns:svg="http://www.w3.org/2000/svg"
   xmlns:rdf="http://www.w3.org/1999/02/22-rdf-syntax-ns#"
   xmlns:cc="http://creativecommons.org/ns#"
   xmlns:dc="http://purl.org/dc/elements/1.1/">
  <metadata
     id="metadata44">
    <rdf:RDF>
      <cc:Work
         rdf:about="">
        <dc:format>image/svg+xml</dc:format>
        <dc:type
           rdf:resource="http://purl.org/dc/dcmitype/StillImage" />
        <dc:title />
      </cc:Work>
    </rdf:RDF>
  </metadata>
  <defs
     id="defs42" />
  <sodipodi:namedview
     pagecolor="#ffffff"
     bordercolor="#666666"
     borderopacity="1"
     objecttolerance="10"
     gridtolerance="10"
     guidetolerance="10"
     inkscape:pageopacity="0"
     inkscape:pageshadow="2"
     inkscape:window-width="1920"
     inkscape:window-height="1057"
     id="namedview40"
     showgrid="false"
     inkscape:document-units="mm"
     units="mm"
     inkscape:zoom="1.920286"
     inkscape:cx="120.55496"
     inkscape:cy="355.41582"
     inkscape:window-x="-8"
     inkscape:window-y="1072"
     inkscape:window-maximized="1"
     inkscape:current-layer="svg38"
     inkscape:pagecheckerboard="0" />
  <g
     style="line-height:1.25;stroke-width:0.78125;fill:#232323;fill-opacity:1"
     id="g6"
     transform="matrix(1.28,0,0,1.28,0,-0.09601691)">
    <path
       style="font-weight:400;font-size:3.52800012px;font-family:Arial;-inkscape-font-specification:'Arial, Normal';font-variant-ligatures:normal;font-variant-caps:normal;font-variant-numeric:normal;font-feature-settings:normal;text-align:start;letter-spacing:0;word-spacing:0;fill:#232323;stroke-width:0.78125;fill-opacity:1"
       d="m 12.383,96.87 -1.63,0.115 v -2.06 q 0,-0.23 0.064,-0.333 0.064,-0.104 0.22,-0.147 0.153,-0.043 0.348,-0.002 0.223,0.047 0.356,0.19 0.134,0.146 0.134,0.33 0,0.186 -0.158,0.286 -0.158,0.103 -0.408,0.05 -0.082,-0.018 -0.143,-0.044 -0.064,-0.027 -0.205,-0.11 v 1.345 l 1.22,-0.085 v -1.554 q 0,-0.225 0.064,-0.337 0.066,-0.11 0.226,-0.151 0.16,-0.04 0.348,0 0.223,0.047 0.354,0.19 0.13,0.14 0.13,0.325 0,0.195 -0.156,0.294 -0.156,0.1 -0.408,0.047 -0.16,-0.034 -0.356,-0.16 z"
       font-size="3.528"
       aria-label="♫"
       font-weight="400"
       letter-spacing="0"
       word-spacing="0"
       id="path4"
       inkscape:connector-curvature="0" />
  </g>
  <rect
     rx="2.3399999"
     ry="2.3399999"
     y="-16.684799"
     x="-118.56509"
     height="12.68352"
     width="15.491839"
     transform="matrix(0,-1,-1,0,0,0)"
     id="rect14"
     style="fill:#afafaf;stroke-width:1;paint-order:stroke markers fill;fill-opacity:1" />
  <path
     d="m 9.45536,104.7667 a 1.3184,1.3184 0 0 1 0.45824,0.0832 c 0.064,0.0256 0.11776,0.0589 0.15872,0.10112 a 0.1792,0.1792 0 0 1 0.064,0.13696 c 0,0.055 -0.01408,0.0973 -0.04224,0.12672 a 0.14976,0.14976 0 0 1 -0.1088,0.0422 0.3072,0.3072 0 0 1 -0.1088,-0.0179 1.8496,1.8496 0 0 0 -0.10752,-0.0461 0.90624,0.90624 0 0 0 -0.36224,-0.0653 0.52864,0.52864 0 0 0 -0.26368,0.0717 0.68864,0.68864 0 0 0 -0.2176,0.19584 1.0368,1.0368 0 0 0 -0.14336,0.29184 1.21856,1.21856 0 0 0 -0.05376,0.36864 c 0,0.16384 0.02048,0.30464 0.06144,0.4224 a 0.88832,0.88832 0 0 0 0.1664,0.29312 0.6912,0.6912 0 0 0 0.22656,0.17024 0.68096,0.68096 0 0 0 0.26112,0.0538 c 0.1024,0 0.18944,-0.0102 0.25984,-0.032 a 1.67296,1.67296 0 0 0 0.3072,-0.14464 0.19968,0.19968 0 0 1 0.10496,-0.0333 0.128,0.128 0 0 1 0.09728,0.0371 c 0.02432,0.0218 0.03584,0.0614 0.03584,0.11904 a 0.2432,0.2432 0 0 1 -0.0576,0.1472 0.50816,0.50816 0 0 1 -0.16256,0.1344 1.1392,1.1392 0 0 1 -0.58624,0.13312 1.09696,1.09696 0 0 1 -0.7616,-0.3136 1.24672,1.24672 0 0 1 -0.25216,-0.39424 1.43744,1.43744 0 0 1 -0.09856,-0.55296 c 0,-0.20864 0.02944,-0.39552 0.08704,-0.55936 a 1.2544,1.2544 0 0 1 0.2432,-0.416 1.0432,1.0432 0 0 1 0.7936,-0.35328 z m 2.0992,2.4128 a 0.54272,0.54272 0 0 1 -0.08576,0.12672 0.12288,0.12288 0 0 1 -0.09472,0.0384 0.14848,0.14848 0 0 1 -0.1024,-0.0384 0.61312,0.61312 0 0 1 -0.09216,-0.12288 3.00416,3.00416 0 0 1 -0.14848,-0.3008 12.9792,12.9792 0 0 1 -0.57088,-1.71136 1.24672,1.24672 0 0 1 -0.03584,-0.2304 c 0,-0.0486 0.01024,-0.0858 0.02944,-0.11008 0.0192,-0.0243 0.05632,-0.0358 0.11136,-0.0358 0.032,0 0.0576,0.009 0.07936,0.0256 0.0256,0.0141 0.05504,0.0576 0.0896,0.12928 0.02944,0.055 0.06144,0.128 0.09472,0.2176 0.03456,0.0896 0.06912,0.18688 0.10496,0.29568 0.0384,0.1088 0.0768,0.22272 0.1152,0.34304 l 0.1152,0.35456 c 0.0384,0.11776 0.07552,0.2304 0.1088,0.3392 l 0.09472,0.29312 0.09728,-0.29696 0.11136,-0.3392 0.1152,-0.35328 a 10.36288,10.36288 0 0 1 0.31488,-0.85376 0.37632,0.37632 0 0 1 0.08704,-0.12928 0.14592,0.14592 0 0 1 0.07936,-0.0256 c 0.05504,0 0.09344,0.0141 0.11264,0.0435 0.02176,0.0256 0.032,0.0666 0.032,0.11904 a 0.84864,0.84864 0 0 1 -0.02176,0.17408 11.43552,11.43552 0 0 1 -0.21248,0.68608 l -0.21376,0.61056 a 2.5344,2.5344 0 0 1 -0.0768,0.20224 c -0.0256,0.0704 -0.05248,0.13824 -0.08192,0.2048 a 4.38528,4.38528 0 0 1 -0.15616,0.34432 z"
     style="font-weight:400;font-size:2.82200003px;line-height:1.25;font-family:Sniglet;-inkscape-font-specification:'Sniglet, Normal';font-variant-ligatures:normal;font-variant-caps:normal;font-variant-numeric:normal;font-feature-settings:normal;text-align:start;letter-spacing:0;word-spacing:0;stroke-width:1;fill:#232323;fill-opacity:1"
     aria-label="CV 2"
     font-weight="400"
     font-size="2.822"
     letter-spacing="0"
     word-spacing="0"
     id="path16"
     inkscape:connector-curvature="0" />
  <g
     style="line-height:1.25;stroke-width:0.78125;fill:#232323;fill-opacity:1"
     id="g20"
     transform="matrix(1.28,0,0,1.28,0,-0.09601691)">
    <path
       word-spacing="0"
       letter-spacing="0"
       font-size="2.822"
       font-weight="400"
       aria-label="RATE"
       style="font-weight:400;font-size:2.82200003px;font-family:Sniglet;-inkscape-font-specification:'Sniglet, Normal';font-variant-ligatures:normal;font-variant-caps:normal;font-variant-numeric:normal;font-feature-settings:normal;text-align:start;letter-spacing:0;word-spacing:0;stroke-width:0.78125;fill:#232323;fill-opacity:1"
       d="M 4.313,67.794 4.231,67.8 H 4.053 q -0.048,0 -0.107,-0.006 v 0.573 q 0,0.09 -0.045,0.113 Q 3.858,68.5 3.794,68.5 3.76,68.5 3.74,68.493 3.72,68.49 3.706,68.479 3.695,68.465 3.686,68.439 3.681,68.414 3.678,68.369 3.672,68.319 3.668,68.222 L 3.664,67.968 q 0,-0.155 -0.003,-0.375 v -0.522 q 0,-0.116 0.028,-0.223 0.028,-0.11 0.102,-0.192 0.073,-0.085 0.197,-0.135 0.127,-0.05 0.322,-0.05 0.138,0 0.268,0.03 0.133,0.031 0.234,0.107 0.102,0.076 0.164,0.206 0.062,0.13 0.062,0.325 0,0.26 -0.113,0.403 -0.11,0.141 -0.305,0.2 l 0.379,0.52 q 0.05,0.068 0.05,0.138 0,0.057 -0.04,0.088 -0.036,0.034 -0.092,0.034 -0.062,0 -0.108,-0.034 -0.045,-0.037 -0.084,-0.093 z m 0.443,-0.658 q 0,-0.195 -0.12,-0.288 -0.114,-0.096 -0.37,-0.096 -0.091,0 -0.154,0.017 -0.062,0.014 -0.098,0.057 -0.037,0.042 -0.054,0.118 -0.014,0.074 -0.014,0.19 v 0.191 q 0,0.11 0.003,0.2 0.065,0.004 0.144,0.004 h 0.152 q 0.08,0 0.167,-0.008 0.09,-0.012 0.166,-0.05 0.076,-0.044 0.127,-0.12 0.05,-0.079 0.05,-0.214 z m 1.73,1.208 -0.062,-0.155 Q 6.393,68.099 6.356,67.999 L 6.178,68.006 H 5.77 q -0.1,0 -0.18,-0.003 l -0.065,0.186 q -0.031,0.088 -0.06,0.155 -0.056,0.144 -0.163,0.144 -0.04,0 -0.077,-0.025 -0.033,-0.026 -0.033,-0.074 0,-0.048 0.017,-0.124 0.016,-0.079 0.042,-0.166 0.028,-0.09 0.06,-0.184 0.03,-0.096 0.058,-0.178 0.029,-0.09 0.08,-0.228 L 5.561,67.215 5.68,66.916 q 0.06,-0.15 0.107,-0.26 0.01,-0.028 0.028,-0.062 0.017,-0.036 0.04,-0.067 0.025,-0.03 0.053,-0.054 0.03,-0.022 0.068,-0.022 0.037,0 0.068,0.025 0.03,0.023 0.054,0.056 0.025,0.034 0.042,0.07 0.02,0.038 0.03,0.066 0.046,0.113 0.102,0.26 0.06,0.146 0.116,0.296 0.06,0.15 0.11,0.285 0.05,0.135 0.082,0.228 l 0.057,0.175 q 0.033,0.094 0.062,0.184 0.028,0.09 0.045,0.17 0.02,0.075 0.02,0.123 0,0.048 -0.037,0.074 -0.034,0.025 -0.074,0.025 -0.05,0 -0.093,-0.034 -0.042,-0.036 -0.073,-0.11 z m -0.5,-0.62 0.136,0.002 q 0.068,0 0.135,0.003 L 6.19,67.532 6.125,67.342 Q 6.097,67.252 6.071,67.176 L 6.031,67.038 Q 6.021,67.001 6.006,66.978 5.992,66.956 5.97,66.956 q -0.023,0 -0.037,0.025 -0.014,0.023 -0.026,0.06 -0.033,0.115 -0.096,0.302 l -0.127,0.386 q 0.077,-0.003 0.153,-0.003 0.076,-0.003 0.15,-0.003 z m 1.876,-0.952 q -0.08,0.006 -0.17,0.008 l -0.194,0.006 0.006,0.144 0.005,0.133 q 0.003,0.067 0.003,0.14 0.003,0.074 0.003,0.164 v 0.246 q 0,0.116 -0.003,0.234 l -0.006,0.234 q -0.002,0.12 -0.008,0.246 -0.003,0.068 -0.014,0.104 -0.01,0.037 -0.026,0.057 -0.017,0.02 -0.04,0.022 -0.022,0.006 -0.05,0.006 -0.05,0 -0.087,-0.033 -0.034,-0.037 -0.04,-0.153 -0.006,-0.1 -0.008,-0.214 0,-0.113 -0.003,-0.243 -0.003,-0.13 -0.003,-0.28 v -0.606 q 0.003,-0.116 0.008,-0.2 H 7.12 Q 7,66.787 6.917,66.783 6.835,66.78 6.781,66.769 6.728,66.755 6.701,66.727 6.68,66.699 6.68,66.648 q 0,-0.025 0.005,-0.045 0.006,-0.023 0.026,-0.04 0.02,-0.02 0.053,-0.03 0.037,-0.012 0.093,-0.018 L 6.953,66.509 7.038,66.503 Q 7.08,66.5 7.125,66.5 H 7.23 q 0.166,0 0.313,0.003 0.15,0.003 0.316,0.012 0.068,0.006 0.105,0.017 0.036,0.008 0.056,0.025 0.02,0.017 0.023,0.04 0.005,0.022 0.005,0.05 0,0.051 -0.036,0.085 -0.034,0.034 -0.15,0.04 z m 0.402,1.287 Q 8.258,67.969 8.253,67.813 8.247,67.658 8.247,67.495 v -0.192 l 0.006,-0.206 q 0.005,-0.21 0.025,-0.328 0.023,-0.118 0.085,-0.178 0.065,-0.059 0.18,-0.073 0.116,-0.014 0.308,-0.014 h 0.06 q 0.058,0 0.14,0.003 0.082,0 0.17,0.003 l 0.15,0.006 q 0.06,0.006 0.098,0.017 0.04,0.008 0.06,0.025 0.019,0.014 0.025,0.037 0.005,0.02 0.005,0.045 0,0.065 -0.036,0.096 -0.037,0.028 -0.15,0.037 -0.056,0.006 -0.167,0.008 h -0.22 q -0.113,0 -0.203,0.003 H 8.67 Q 8.597,66.787 8.566,66.818 8.538,66.846 8.538,66.956 L 8.54,67.08 q 0.006,0.096 0.006,0.271 H 8.78 q 0.15,0 0.243,0.006 0.096,0.003 0.147,0.017 0.053,0.014 0.073,0.045 0.02,0.031 0.02,0.082 0,0.025 -0.006,0.048 -0.003,0.02 -0.022,0.037 -0.02,0.014 -0.057,0.025 -0.036,0.008 -0.104,0.014 -0.082,0.006 -0.155,0.008 h -0.38 v 0.344 l 0.007,0.096 q 0.003,0.046 0.01,0.077 0.013,0.03 0.038,0.05 0.028,0.02 0.08,0.03 0.053,0.007 0.14,0.007 h 0.607 q 0.099,0 0.124,0.036 0.026,0.037 0.026,0.1 0,0.05 -0.023,0.078 -0.023,0.026 -0.11,0.037 -0.085,0.014 -0.257,0.017 -0.17,0.003 -0.468,0.003 -0.127,0 -0.21,-0.023 Q 8.422,68.463 8.371,68.409 8.321,68.355 8.295,68.271 8.272,68.183 8.264,68.059 Z"
       id="path18"
       inkscape:connector-curvature="0" />
  </g>
  <path
     word-spacing="0"
     letter-spacing="0"
     font-size="2.117"
     font-weight="400"
     style="font-weight:400;font-size:2.1170001px;line-height:1.25;font-family:Sniglet;-inkscape-font-specification:'Sniglet, Normal';font-variant-ligatures:normal;font-variant-caps:normal;font-variant-numeric:normal;font-feature-settings:normal;text-align:start;letter-spacing:0;word-spacing:0;stroke-width:1;fill:#232323;fill-opacity:1"
     d="m 4.38656,98.997737 q 0,-0.1664 0.03072,-0.3392 0.032,-0.17408 0.11392,-0.31488 0.08064,-0.1408 0.2176,-0.2304 0.1408,-0.0896 0.3584,-0.0896 0.17152,0 0.29056,0.0512 0.1216,0.05248 0.19968,0.13696 0.07936,0.0832 0.12288,0.192 0.04352,0.10496 0.064,0.22144 0.02176,0.11648 0.0256,0.2304 0.00512,0.1152 0.00512,0.20864 0,0.192 -0.04608,0.34944 -0.04352,0.15744 -0.13568,0.27136 -0.0896,0.1152 -0.22784,0.1792 -0.13568,0.06144 -0.32,0.06144 -0.192,0 -0.32768,-0.07296 -0.13184,-0.07552 -0.2176,-0.19968 -0.08064,-0.128 -0.11776,-0.2944 -0.03584,-0.17152 -0.03584,-0.36224 z m 0.27136,-0.0051 q 0,0.13184 0.02176,0.25344 0.02432,0.12032 0.0768,0.21248 0.0512,0.0896 0.13184,0.14336 0.08448,0.05376 0.20352,0.05376 0.11392,0 0.19712,-0.04608 0.08704,-0.04608 0.14336,-0.128 0.0576,-0.0832 0.08448,-0.19712 0.0256,-0.11392 0.0256,-0.24704 0,-0.09984 -0.0064,-0.22656 -0.00896,-0.13056 -0.0512,-0.2432 -0.04096,-0.1152 -0.13056,-0.192 -0.0896,-0.08064 -0.2496,-0.08064 -0.13568,0 -0.22144,0.06528 -0.08448,0.06528 -0.13568,0.16768 -0.0512,0.1024 -0.0704,0.22528 -0.0192,0.1216 -0.0192,0.23808 z m 6.13376,0.3712 q -0.0026,0.1024 -0.0026,0.224 0,0.1216 -0.0077,0.22784 -0.0051,0.08064 -0.0384,0.10496 -0.02944,0.02176 -0.0832,0.02176 -0.0512,0 -0.0768,-0.0192 -0.0256,-0.01536 -0.0384,-0.07296 -0.01024,-0.05888 -0.0128,-0.17024 -0.0026,-0.11392 -0.0026,-0.30336 -0.0896,0 -0.17024,0.0026 l -0.15744,0.0026 q -0.1152,0 -0.20864,-0.0051 -0.09216,-0.0051 -0.16,-0.0192 -0.064,-0.01664 -0.1024,-0.04352 -0.03584,-0.0256 -0.03584,-0.0704 0,-0.05888 0.04864,-0.14848 0.04864,-0.09216 0.1216,-0.1984 l 0.1536,-0.21376 0.1536,-0.2048 0.09472,-0.12032 q 0.06144,-0.0768 0.13184,-0.1536 0.0704,-0.07936 0.1408,-0.13568 0.07168,-0.0576 0.12032,-0.0576 0.04608,0 0.08064,0.02944 0.03584,0.03072 0.04096,0.13824 0.01024,0.15744 0.0128,0.3328 0.0038,0.16896 0.0038,0.33664 v 0.2688 q 0.07552,0.0051 0.1216,0.0128 0.04608,0.0077 0.0704,0.0256 0.02432,0.0128 0.032,0.03456 0.009,0.02176 0.009,0.05376 0,0.06784 -0.064,0.09216 -0.06144,0.02176 -0.17536,0.02688 z m -0.26496,-0.88704 -0.2048,0.24704 -0.1408,0.1728 q -0.05504,0.07296 -0.09856,0.12544 l -0.07296,0.09216 q 0.12416,-0.0051 0.25344,-0.0051 l 0.26368,-0.0026 z m 1.792,0.03328 q 0.0576,0 0.14464,0.01024 0.08704,0.0077 0.1664,0.03456 0.0768,0.0256 0.1344,0.0704 0.0576,0.04608 0.0576,0.11648 0,0.04096 -0.0256,0.0704 -0.02048,0.02944 -0.0704,0.02944 -0.03456,0 -0.08064,-0.01024 l -0.09728,-0.02432 q -0.0512,-0.01536 -0.1152,-0.0256 -0.05888,-0.01152 -0.128,-0.01152 -0.11264,0 -0.1856,0.03584 -0.0704,0.03456 -0.0704,0.11008 0,0.04352 0.0256,0.07424 0.0256,0.02944 0.06912,0.05376 0.04608,0.02176 0.10624,0.0384 l 0.13056,0.032 q 0.0832,0.02176 0.16512,0.04864 0.0832,0.02688 0.14848,0.0768 0.064,0.0448 0.10624,0.11776 0.0384,0.0704 0.0384,0.17664 0,0.20096 -0.14976,0.32 -0.1536,0.1152 -0.448,0.1152 -0.064,0 -0.1536,-0.009 -0.0896,-0.0077 -0.16768,-0.03584 -0.07936,-0.02432 -0.13568,-0.0704 -0.05376,-0.04864 -0.05376,-0.128 0,-0.05376 0.02432,-0.08064 0.0256,-0.02944 0.064,-0.02944 0.03072,0 0.06272,0.0192 0.032,0.0192 0.0768,0.03968 0.04736,0.02176 0.11264,0.04096 0.064,0.0192 0.16,0.0192 l 0.09216,-0.0026 q 0.0576,-0.0051 0.11136,-0.02432 0.05632,-0.0192 0.09472,-0.0512 0.04096,-0.03584 0.04096,-0.09728 0,-0.04864 -0.02816,-0.08192 -0.0256,-0.03456 -0.07296,-0.05888 -0.04608,-0.0256 -0.10752,-0.04096 l -0.128,-0.0384 q -0.07808,-0.02176 -0.16,-0.04864 -0.07808,-0.0256 -0.14336,-0.0704 -0.064,-0.04352 -0.10496,-0.1088 -0.04096,-0.06656 -0.04096,-0.16512 0,-0.09216 0.0384,-0.17024 0.0384,-0.08192 0.10752,-0.1408 0.0704,-0.06016 0.1664,-0.09216 0.1024,-0.032 0.224,-0.032 z m 0.7936,1.248 0.0768,-0.25216 0.09472,-0.3136 0.1152,-0.3584 0.12416,-0.38144 0.09472,-0.28672 q 0.04352,-0.12544 0.0768,-0.2048 0.0384,-0.0768 0.07168,-0.1152 0.03584,-0.04096 0.0768,-0.04096 0.0384,0 0.07296,0.02688 0.03456,0.02816 0.03456,0.08448 l -0.0026,0.04096 q -0.0026,0.02176 -0.0128,0.0512 -0.12544,0.44928 -0.27392,0.91008 -0.14976,0.45824 -0.31744,0.91264 -0.03328,0.08704 -0.064,0.11648 -0.02816,0.03072 -0.0576,0.03072 -0.04864,0 -0.08704,-0.02816 -0.0384,-0.0256 -0.0384,-0.0896 0,-0.0384 0.01664,-0.1024 z m 1.81248,0.0576 q -0.03584,0.064 -0.06528,0.09472 -0.02688,0.02944 -0.0704,0.02944 -0.04352,0 -0.0768,-0.02944 -0.032,-0.02944 -0.0704,-0.09216 -0.04864,-0.08192 -0.11008,-0.22528 -0.06016,-0.14336 -0.12288,-0.31104 -0.06144,-0.17152 -0.1216,-0.352 l -0.1088,-0.34176 q -0.04608,-0.16 -0.0768,-0.27904 -0.0256,-0.1216 -0.0256,-0.17408 0,-0.05376 0.02176,-0.08064 0.02176,-0.0256 0.08448,-0.0256 0.03456,0 0.05888,0.01664 0.0256,0.01664 0.06784,0.09856 0.032,0.06144 0.0704,0.16256 0.0384,0.09984 0.0768,0.22144 0.0448,0.12288 0.08832,0.25728 l 0.08704,0.26624 q 0.04352,0.13184 0.08064,0.256 l 0.0704,0.2176 0.07424,-0.22144 0.0832,-0.256 0.08704,-0.26496 q 0.04352,-0.13568 0.08704,-0.25472 l 0.08064,-0.2176 q 0.0384,-0.10112 0.06784,-0.1664 0.0384,-0.0768 0.064,-0.09856 0.03072,-0.01792 0.06016,-0.01792 0.064,0 0.08448,0.032 0.0256,0.02944 0.0256,0.0896 0,0.05376 -0.01792,0.13056 -0.01536,0.0768 -0.05632,0.20224 -0.0384,0.12544 -0.1024,0.31232 l -0.16,0.45696 q -0.0256,0.07424 -0.0576,0.1536 l -0.06144,0.1536 -0.06016,0.1408 q -0.02944,0.06784 -0.05632,0.11648 z"
     id="path22"
     inkscape:connector-curvature="0" />
  <g
     style="line-height:1.25;stroke-width:0.78125;fill:#232323;fill-opacity:1"
     id="g26"
     transform="matrix(1.28,0,0,1.28,0,-0.09601691)">
    <path
       word-spacing="0"
       letter-spacing="0"
       font-size="2.822"
       font-weight="400"
       aria-label="EXP"
       style="font-weight:400;font-size:2.82200003px;font-family:Sniglet;-inkscape-font-specification:'Sniglet, Normal';font-variant-ligatures:normal;font-variant-caps:normal;font-variant-numeric:normal;font-feature-settings:normal;text-align:start;letter-spacing:0;word-spacing:0;stroke-width:0.78125;fill:#232323;fill-opacity:1"
       d="m 16.23,83.504 q -0.007,-0.09 -0.013,-0.245 -0.005,-0.155 -0.005,-0.32 v -0.191 l 0.005,-0.206 q 0.006,-0.21 0.026,-0.327 0.022,-0.12 0.084,-0.178 0.065,-0.06 0.18,-0.074 0.117,-0.014 0.31,-0.014 h 0.058 q 0.06,0 0.14,0.003 0.083,0 0.17,0.003 l 0.15,0.006 q 0.062,0.006 0.1,0.017 0.04,0.008 0.058,0.026 0.02,0.014 0.025,0.036 0.006,0.02 0.006,0.045 0,0.065 -0.037,0.096 -0.037,0.029 -0.15,0.037 -0.056,0.006 -0.166,0.008 h -0.22 q -0.113,0 -0.203,0.003 h -0.113 q -0.074,0.003 -0.105,0.034 -0.028,0.028 -0.028,0.138 l 0.003,0.124 q 0.006,0.096 0.006,0.27 h 0.234 q 0.15,0 0.243,0.007 0.096,0.003 0.146,0.017 0.054,0.014 0.074,0.046 0.02,0.03 0.02,0.08 0,0.027 -0.006,0.049 -0.003,0.02 -0.023,0.037 -0.02,0.014 -0.056,0.026 -0.037,0.008 -0.105,0.014 -0.08,0.006 -0.155,0.008 h -0.378 v 0.343 l 0.006,0.097 q 0.002,0.045 0.01,0.076 0.012,0.03 0.038,0.05 0.028,0.02 0.08,0.03 0.052,0.007 0.14,0.007 h 0.607 q 0.098,0 0.124,0.037 0.025,0.037 0.025,0.099 0,0.05 -0.022,0.079 -0.023,0.025 -0.11,0.036 -0.085,0.014 -0.257,0.017 -0.17,0.003 -0.469,0.003 -0.127,0 -0.209,-0.022 -0.082,-0.023 -0.132,-0.077 -0.05,-0.053 -0.077,-0.138 -0.022,-0.087 -0.03,-0.212 z m 2.218,-0.313 -0.42,0.652 q -0.04,0.062 -0.088,0.093 -0.045,0.034 -0.104,0.034 -0.073,0 -0.104,-0.037 -0.029,-0.034 -0.029,-0.087 0,-0.031 0.012,-0.065 0.014,-0.034 0.036,-0.065 l 0.525,-0.75 -0.525,-0.751 q -0.022,-0.031 -0.036,-0.065 -0.012,-0.034 -0.012,-0.065 0,-0.054 0.03,-0.088 0.03,-0.036 0.103,-0.036 0.06,0 0.104,0.033 0.048,0.03 0.088,0.094 l 0.42,0.65 0.421,-0.65 q 0.04,-0.063 0.085,-0.094 0.048,-0.033 0.107,-0.033 0.073,0 0.101,0.036 0.032,0.034 0.032,0.088 0,0.03 -0.015,0.065 -0.01,0.034 -0.033,0.065 l -0.525,0.75 0.525,0.75 q 0.022,0.032 0.033,0.066 0.015,0.034 0.015,0.065 0,0.053 -0.032,0.087 -0.028,0.037 -0.1,0.037 -0.06,0 -0.108,-0.034 -0.046,-0.031 -0.085,-0.093 z m 1.281,0.564 q 0,0.068 -0.014,0.105 -0.01,0.037 -0.03,0.056 -0.018,0.02 -0.043,0.023 -0.023,0.006 -0.045,0.006 -0.076,0 -0.102,-0.034 -0.022,-0.034 -0.03,-0.152 -0.006,-0.063 -0.01,-0.181 L 19.45,83.296 q 0,-0.164 -0.003,-0.362 v -0.417 q 0,-0.105 0.026,-0.212 0.025,-0.107 0.096,-0.195 0.073,-0.087 0.2,-0.14 0.13,-0.054 0.336,-0.054 0.144,0 0.274,0.03 0.13,0.032 0.228,0.108 0.1,0.076 0.158,0.203 0.06,0.127 0.06,0.316 0,0.198 -0.065,0.328 -0.065,0.13 -0.184,0.206 -0.118,0.076 -0.282,0.107 -0.164,0.03 -0.359,0.03 H 19.84 q -0.048,0 -0.108,-0.005 z m 0.813,-1.188 q 0,-0.19 -0.107,-0.285 -0.104,-0.096 -0.35,-0.096 -0.093,0 -0.16,0.017 -0.066,0.014 -0.108,0.054 -0.042,0.036 -0.065,0.1 -0.02,0.066 -0.02,0.165 v 0.22 q 0,0.122 0.003,0.229 0.065,0.003 0.144,0.003 h 0.152 q 0.085,0 0.175,-0.012 0.093,-0.01 0.167,-0.05 0.073,-0.043 0.121,-0.122 0.048,-0.082 0.048,-0.223 z"
       id="path24"
       inkscape:connector-curvature="0" />
  </g>
  <g
     style="line-height:1.25;stroke-width:0.78125;fill:#232323;fill-opacity:1"
     id="g30"
     transform="matrix(1.28,0,0,1.28,0,-0.09601691)">
    <path
       d="M 7.53,6.076 Q 7.41,6.085 7.275,6.089 L 6.983,6.098 6.992,6.314 7,6.512 q 0.004,0.102 0.004,0.212 0.004,0.11 0.004,0.246 v 0.368 q 0,0.174 -0.004,0.351 L 6.996,8.041 Q 6.992,8.219 6.983,8.409 6.979,8.511 6.962,8.566 6.949,8.621 6.924,8.65 6.898,8.68 6.864,8.684 6.831,8.693 6.788,8.693 6.712,8.693 6.658,8.642 6.606,8.587 6.598,8.413 6.589,8.261 6.585,8.092 6.585,7.922 6.581,7.727 6.577,7.533 6.577,7.308 V 6.398 Q 6.581,6.225 6.589,6.098 H 6.416 Q 6.238,6.098 6.111,6.093 5.988,6.089 5.908,6.073 5.828,6.051 5.789,6.009 5.755,5.966 5.755,5.89 5.755,5.852 5.764,5.822 5.772,5.789 5.802,5.763 5.832,5.733 5.882,5.717 5.937,5.7 6.022,5.691 L 6.166,5.683 6.293,5.674 Q 6.357,5.67 6.424,5.67 h 0.157 q 0.25,0 0.47,0.004 Q 7.275,5.679 7.525,5.691 7.627,5.7 7.682,5.717 7.737,5.729 7.766,5.755 7.796,5.78 7.8,5.814 7.809,5.848 7.809,5.89 7.809,5.966 7.754,6.017 7.703,6.068 7.529,6.077 Z M 9.624,8.434 Q 9.582,8.333 9.531,8.202 9.484,8.066 9.429,7.918 L 9.163,7.926 H 8.549 q -0.148,0 -0.271,-0.004 L 8.18,8.202 Q 8.134,8.332 8.092,8.434 8.007,8.65 7.846,8.65 7.786,8.65 7.732,8.612 7.681,8.574 7.681,8.502 7.681,8.43 7.706,8.316 7.732,8.197 7.77,8.066 7.812,7.931 7.859,7.791 7.905,7.647 7.948,7.524 7.99,7.389 8.066,7.181 8.146,6.97 8.236,6.741 8.324,6.512 8.413,6.292 8.503,6.068 8.574,5.902 8.591,5.861 8.616,5.81 8.642,5.755 8.676,5.708 8.714,5.662 8.756,5.628 8.803,5.594 8.858,5.594 q 0.055,0 0.101,0.038 0.047,0.034 0.08,0.085 0.039,0.05 0.064,0.105 0.03,0.055 0.047,0.098 0.068,0.17 0.152,0.39 0.09,0.22 0.174,0.444 0.089,0.224 0.165,0.427 0.076,0.204 0.123,0.343 0.038,0.123 0.084,0.263 0.051,0.14 0.093,0.275 0.043,0.135 0.068,0.254 0.03,0.114 0.03,0.186 0,0.072 -0.055,0.11 Q 9.933,8.65 9.874,8.65 9.798,8.65 9.734,8.6 9.671,8.544 9.624,8.434 Z m -0.75,-0.93 q 0.102,0 0.204,0.003 0.101,0 0.203,0.005 Q 9.231,7.363 9.179,7.215 L 9.082,6.932 Q 9.04,6.796 9.002,6.682 L 8.942,6.474 Q 8.925,6.419 8.904,6.385 8.884,6.352 8.849,6.352 8.815,6.352 8.794,6.39 8.774,6.424 8.756,6.479 8.706,6.652 8.612,6.932 8.523,7.207 8.422,7.512 8.536,7.507 8.65,7.507 8.765,7.503 8.875,7.503 Z m 2.631,-1.851 q 0.14,0 0.28,0.026 0.143,0.02 0.257,0.071 0.115,0.047 0.187,0.119 0.076,0.068 0.076,0.16 0,0.098 -0.051,0.149 -0.05,0.05 -0.127,0.05 Q 12.055,6.228 12,6.208 11.945,6.182 11.873,6.153 11.805,6.123 11.708,6.102 11.611,6.076 11.45,6.076 q -0.161,0 -0.31,0.085 -0.143,0.08 -0.253,0.229 -0.106,0.144 -0.17,0.343 -0.063,0.199 -0.063,0.431 0,0.288 0.072,0.496 0.076,0.207 0.195,0.343 0.118,0.13 0.266,0.199 0.153,0.063 0.305,0.063 0.182,0 0.305,-0.038 0.123,-0.038 0.207,-0.085 0.09,-0.046 0.153,-0.084 0.063,-0.038 0.122,-0.038 0.072,0 0.115,0.042 0.042,0.038 0.042,0.14 0,0.084 -0.068,0.173 -0.063,0.085 -0.19,0.157 -0.123,0.068 -0.297,0.114 -0.173,0.042 -0.389,0.042 -0.237,0 -0.474,-0.093 Q 10.785,8.502 10.598,8.32 10.417,8.134 10.302,7.859 10.188,7.579 10.188,7.211 q 0,-0.368 0.102,-0.656 0.106,-0.288 0.283,-0.487 0.182,-0.203 0.42,-0.31 0.24,-0.105 0.512,-0.105 z m 2.87,0.423 q -0.118,0.009 -0.254,0.013 l -0.292,0.009 0.009,0.216 0.008,0.198 q 0.004,0.102 0.004,0.212 0.005,0.11 0.005,0.246 v 0.368 q 0,0.174 -0.005,0.351 l -0.008,0.352 q -0.004,0.178 -0.013,0.368 -0.004,0.102 -0.021,0.157 -0.013,0.055 -0.038,0.084 -0.026,0.03 -0.06,0.034 -0.033,0.009 -0.076,0.009 -0.076,0 -0.13,-0.051 -0.052,-0.055 -0.06,-0.229 -0.009,-0.152 -0.013,-0.321 0,-0.17 -0.004,-0.365 -0.004,-0.194 -0.004,-0.419 v -0.91 q 0.004,-0.173 0.013,-0.3 h -0.174 q -0.178,0 -0.305,-0.005 Q 12.834,6.089 12.754,6.073 12.674,6.051 12.635,6.009 12.602,5.966 12.602,5.89 q 0,-0.038 0.008,-0.068 0.009,-0.033 0.038,-0.059 0.03,-0.03 0.08,-0.046 0.056,-0.017 0.14,-0.026 L 13.012,5.683 13.139,5.674 Q 13.203,5.67 13.27,5.67 h 0.157 q 0.25,0 0.47,0.004 0.224,0.005 0.474,0.017 0.102,0.009 0.157,0.026 0.055,0.012 0.084,0.038 0.03,0.025 0.034,0.059 0.009,0.034 0.009,0.076 0,0.076 -0.055,0.127 -0.051,0.051 -0.225,0.06 z M 16.45,7.592 16,7.609 q -0.253,0.004 -0.6,0.004 -0.145,0 -0.246,-0.004 -0.102,-0.004 -0.165,-0.021 -0.064,-0.021 -0.093,-0.064 -0.03,-0.042 -0.03,-0.118 0,-0.038 0.009,-0.068 0.008,-0.034 0.038,-0.06 0.03,-0.025 0.08,-0.042 0.055,-0.02 0.14,-0.03 0.063,-0.003 0.11,-0.008 0.05,-0.004 0.097,-0.004 0.047,-0.004 0.098,-0.004 h 0.127 q 0.228,0 0.44,0.004 0.211,0 0.44,0.013 0.102,0.008 0.157,0.025 0.055,0.013 0.084,0.038 0.03,0.026 0.034,0.06 0.009,0.033 0.009,0.076 0,0.076 -0.055,0.127 -0.051,0.05 -0.225,0.059 z m 1.187,0.796 Q 17.628,8.235 17.624,8.07 17.624,7.905 17.62,7.715 17.616,7.525 17.616,7.305 V 6.275 L 17.361,6.407 Q 17.256,6.474 17.192,6.487 17.132,6.5 17.061,6.5 16.997,6.5 16.947,6.445 16.9,6.39 16.9,6.314 q 0,-0.077 0.05,-0.132 0.056,-0.059 0.128,-0.106 0.093,-0.063 0.199,-0.127 0.11,-0.063 0.211,-0.114 0.102,-0.055 0.187,-0.085 0.089,-0.033 0.148,-0.033 0.03,0 0.06,0.008 0.033,0.009 0.058,0.034 0.03,0.025 0.047,0.08 0.021,0.051 0.025,0.14 0.009,0.152 0.013,0.267 l 0.009,0.224 q 0.004,0.106 0.004,0.225 v 0.639 q 0,0.173 -0.004,0.343 L 18.026,8.02 q -0.004,0.173 -0.013,0.364 -0.004,0.101 -0.02,0.156 -0.013,0.055 -0.039,0.085 -0.025,0.03 -0.06,0.034 -0.029,0.008 -0.071,0.008 -0.076,0 -0.127,-0.05 -0.05,-0.056 -0.06,-0.23 z"
       style="font-weight:400;font-size:4.2329998px;font-family:Sniglet;-inkscape-font-specification:'Sniglet, Normal';font-variant-ligatures:normal;font-variant-caps:normal;font-variant-numeric:normal;font-feature-settings:normal;text-align:start;letter-spacing:0;word-spacing:0;stroke-width:0.78125;fill:#232323;fill-opacity:1"
       aria-label="TACT-1"
       font-weight="400"
       font-size="4.233"
       letter-spacing="0"
       word-spacing="0"
       id="path28"
       inkscape:connector-curvature="0" />
  </g>
  <g
     style="line-height:1.25;stroke-width:0.78125;fill:#232323;fill-opacity:1"
     id="g34"
     transform="matrix(1.28,0,0,1.28,0,-0.09601691)">
    <path
       d="m 15.607,68.344 -0.062,-0.155 q -0.031,-0.09 -0.068,-0.19 L 15.3,68.005 h -0.41 q -0.098,0 -0.18,-0.003 l -0.065,0.187 q -0.031,0.087 -0.06,0.155 -0.056,0.144 -0.163,0.144 -0.04,0 -0.076,-0.025 -0.034,-0.026 -0.034,-0.074 0,-0.048 0.017,-0.124 0.017,-0.08 0.042,-0.167 0.028,-0.09 0.06,-0.183 0.03,-0.096 0.059,-0.178 0.028,-0.09 0.079,-0.228 0.053,-0.142 0.112,-0.294 l 0.119,-0.3 q 0.06,-0.149 0.107,-0.259 l 0.028,-0.062 q 0.017,-0.036 0.04,-0.068 0.025,-0.03 0.054,-0.053 0.03,-0.023 0.067,-0.023 0.037,0 0.068,0.026 0.031,0.022 0.054,0.056 0.025,0.034 0.042,0.07 0.02,0.037 0.031,0.066 l 0.102,0.26 q 0.059,0.146 0.115,0.296 0.06,0.15 0.11,0.285 0.051,0.135 0.082,0.228 l 0.057,0.175 q 0.034,0.093 0.062,0.184 0.028,0.09 0.045,0.169 0.02,0.076 0.02,0.124 0,0.048 -0.037,0.074 -0.034,0.025 -0.073,0.025 -0.051,0 -0.093,-0.034 -0.043,-0.037 -0.074,-0.11 z m -0.5,-0.62 0.136,0.002 q 0.068,0 0.136,0.003 l -0.068,-0.198 -0.065,-0.189 q -0.028,-0.09 -0.054,-0.166 l -0.04,-0.139 q -0.01,-0.036 -0.025,-0.059 -0.014,-0.023 -0.036,-0.023 -0.023,0 -0.037,0.026 -0.014,0.022 -0.025,0.06 -0.034,0.115 -0.096,0.301 l -0.127,0.387 q 0.076,-0.003 0.152,-0.003 0.076,-0.003 0.15,-0.003 z m 1.876,-0.952 q -0.079,0.006 -0.17,0.009 l -0.194,0.005 0.006,0.144 0.005,0.133 q 0.003,0.067 0.003,0.14 0.003,0.074 0.003,0.165 v 0.245 q 0,0.116 -0.003,0.234 l -0.005,0.235 q -0.003,0.118 -0.009,0.245 -0.003,0.068 -0.014,0.104 -0.009,0.037 -0.025,0.057 -0.017,0.02 -0.04,0.023 -0.023,0.005 -0.05,0.005 -0.052,0 -0.088,-0.034 -0.034,-0.036 -0.04,-0.152 -0.005,-0.102 -0.008,-0.215 0,-0.113 -0.003,-0.242 -0.003,-0.13 -0.003,-0.28 v -0.606 q 0.003,-0.116 0.009,-0.2 h -0.116 q -0.119,0 -0.203,-0.004 -0.082,-0.003 -0.136,-0.014 -0.053,-0.014 -0.079,-0.042 -0.022,-0.028 -0.022,-0.08 0,-0.025 0.005,-0.044 0.006,-0.023 0.026,-0.04 0.02,-0.02 0.053,-0.03 0.037,-0.012 0.093,-0.018 l 0.096,-0.005 0.085,-0.006 q 0.042,-0.003 0.088,-0.003 h 0.104 q 0.166,0 0.313,0.003 0.15,0.003 0.316,0.011 0.068,0.006 0.105,0.017 0.036,0.009 0.056,0.026 0.02,0.017 0.023,0.04 0.005,0.022 0.005,0.05 0,0.05 -0.036,0.085 -0.034,0.033 -0.15,0.04 z m 1.538,0 q -0.079,0.006 -0.17,0.009 l -0.194,0.005 0.006,0.144 0.005,0.133 q 0.003,0.067 0.003,0.14 0.003,0.074 0.003,0.165 v 0.245 q 0,0.116 -0.003,0.234 l -0.006,0.235 q -0.002,0.118 -0.008,0.245 -0.003,0.068 -0.014,0.104 -0.009,0.037 -0.026,0.057 -0.016,0.02 -0.039,0.023 -0.023,0.005 -0.05,0.005 -0.052,0 -0.088,-0.034 -0.034,-0.036 -0.04,-0.152 -0.005,-0.102 -0.008,-0.215 0,-0.113 -0.003,-0.242 -0.003,-0.13 -0.003,-0.28 v -0.606 q 0.003,-0.116 0.009,-0.2 h -0.116 q -0.119,0 -0.203,-0.004 -0.082,-0.003 -0.136,-0.014 -0.053,-0.014 -0.079,-0.042 -0.022,-0.028 -0.022,-0.08 0,-0.025 0.005,-0.044 0.006,-0.023 0.026,-0.04 0.02,-0.02 0.053,-0.03 0.037,-0.012 0.093,-0.018 l 0.096,-0.005 0.085,-0.006 q 0.042,-0.003 0.087,-0.003 h 0.105 q 0.166,0 0.313,0.003 0.15,0.003 0.316,0.011 0.068,0.006 0.105,0.017 0.036,0.009 0.056,0.026 0.02,0.017 0.023,0.04 0.005,0.022 0.005,0.05 0,0.05 -0.036,0.085 -0.034,0.033 -0.15,0.04 z m 1.211,1.603 q -0.037,0.068 -0.068,0.099 -0.028,0.03 -0.073,0.03 -0.046,0 -0.08,-0.03 -0.033,-0.031 -0.073,-0.096 -0.05,-0.085 -0.116,-0.234 -0.062,-0.15 -0.127,-0.325 -0.064,-0.178 -0.127,-0.367 -0.062,-0.189 -0.112,-0.355 -0.048,-0.167 -0.08,-0.291 -0.028,-0.127 -0.028,-0.18 0,-0.057 0.023,-0.085 0.022,-0.029 0.087,-0.029 0.037,0 0.062,0.02 0.029,0.017 0.071,0.102 0.034,0.065 0.073,0.17 0.04,0.103 0.082,0.23 0.045,0.127 0.09,0.269 l 0.09,0.276 q 0.046,0.138 0.086,0.265 0.039,0.127 0.073,0.23 l 0.076,-0.232 0.088,-0.266 0.09,-0.276 q 0.045,-0.141 0.09,-0.266 0.045,-0.124 0.085,-0.228 0.04,-0.105 0.07,-0.172 0.04,-0.082 0.068,-0.102 0.031,-0.02 0.062,-0.02 0.065,0 0.088,0.034 0.025,0.031 0.025,0.093 0,0.057 -0.017,0.136 -0.017,0.079 -0.059,0.212 -0.04,0.13 -0.107,0.324 l -0.167,0.477 q -0.025,0.076 -0.06,0.158 -0.03,0.082 -0.064,0.16 -0.031,0.077 -0.062,0.148 -0.031,0.07 -0.06,0.121 z"
       style="font-weight:400;font-size:2.82200003px;font-family:Sniglet;-inkscape-font-specification:'Sniglet, Normal';font-variant-ligatures:normal;font-variant-caps:normal;font-variant-numeric:normal;font-feature-settings:normal;text-align:start;letter-spacing:0;word-spacing:0;stroke-width:0.78125;fill:#232323;fill-opacity:1"
       aria-label="ATTV"
       font-weight="400"
       font-size="2.822"
       letter-spacing="0"
       word-spacing="0"
       id="path32"
       inkscape:connector-curvature="0" />
  </g>
  <path
     style="font-weight:400;font-size:2.1170001px;line-height:1.25;font-family:Sniglet;-inkscape-font-specification:'Sniglet, Normal';font-variant-ligatures:normal;font-variant-caps:normal;font-variant-numeric:normal;font-feature-settings:normal;text-align:start;letter-spacing:0;word-spacing:0;stroke-width:1;fill:#232323;fill-opacity:1"
     d="m 18.14656,99.495657 -0.20864,0.22016 q -0.08448,0.0896 -0.14464,0.14848 -0.05888,0.0576 -0.09984,0.08448 -0.0384,0.02688 -0.0704,0.02688 -0.0384,0 -0.0768,-0.032 -0.03456,-0.03328 -0.03456,-0.0704 0,-0.03328 0.04608,-0.09856 0.04608,-0.06784 0.1152,-0.14848 0.06656,-0.08192 0.14464,-0.16768 0.07936,-0.0896 0.14464,-0.16896 l -0.1664,-0.19456 q -0.07552,-0.09472 -0.13184,-0.17664 -0.0576,-0.08064 -0.09216,-0.14336 -0.03328,-0.06144 -0.03328,-0.09728 0,-0.03456 0.03584,-0.06016 0.03456,-0.0256 0.064,-0.0256 0.0256,0 0.08448,0.05376 0.06016,0.0512 0.13312,0.128 0.0768,0.07168 0.15232,0.15616 0.07808,0.08448 0.1408,0.14848 l 0.13184,-0.14592 q 0.0768,-0.08448 0.14976,-0.15744 0.07296,-0.07296 0.13568,-0.12416 0.06144,-0.0512 0.09728,-0.0512 0.02944,0 0.05888,0.02176 0.03072,0.02176 0.03072,0.05632 0,0.03584 -0.03584,0.09728 -0.032,0.06272 -0.0896,0.14336 -0.05632,0.08192 -0.13568,0.17664 -0.07552,0.09472 -0.16256,0.19456 l 0.1472,0.1664 q 0.07808,0.08576 0.14592,0.17024 0.06784,0.08064 0.11136,0.14848 0.04608,0.06528 0.04608,0.09728 0,0.0384 -0.0384,0.07168 -0.03456,0.032 -0.07296,0.032 -0.03456,0 -0.09472,-0.04352 -0.05632,-0.04608 -0.13056,-0.11392 -0.0704,-0.0704 -0.14848,-0.1536 z m 1.75488,-0.20608 q -0.12544,0.0064 -0.288,0.01152 -0.16256,0.0026 -0.384,0.0026 -0.09216,0 -0.15744,-0.0026 -0.064,-0.0026 -0.10496,-0.0128 -0.04096,-0.01408 -0.06016,-0.04096 -0.0192,-0.02816 -0.0192,-0.0768 0,-0.02432 0.0051,-0.04352 0.0064,-0.02048 0.0256,-0.0384 0.01792,-0.01536 0.0512,-0.0256 0.03456,-0.0128 0.0896,-0.0192 l 0.0704,-0.0051 0.06144,-0.0026 q 0.03072,-0.0038 0.06272,-0.0038 h 0.08064 q 0.1472,0 0.2816,0.0038 0.13568,0 0.2816,0.0077 0.06528,0.0051 0.10112,0.01664 0.03584,0.0077 0.05376,0.02432 0.0192,0.01536 0.02176,0.0384 0.0051,0.02048 0.0051,0.04736 0,0.04864 -0.03456,0.08192 -0.032,0.032 -0.14336,0.0384 z m 0.76032,0.50944 q -0.0064,-0.09728 -0.009,-0.20224 l -0.0026,-0.22784 q -0.0026,-0.1216 -0.0026,-0.26368 v -0.65792 l -0.16256,0.08448 q -0.06784,0.04352 -0.1088,0.0512 -0.0384,0.0077 -0.0832,0.0077 -0.04096,0 -0.07424,-0.03456 -0.02944,-0.03584 -0.02944,-0.08448 0,-0.04864 0.03328,-0.0832 0.03456,-0.0384 0.08064,-0.06784 0.06016,-0.04096 0.128,-0.08192 0.0704,-0.04096 0.1344,-0.07296 0.06528,-0.03584 0.12032,-0.05376 0.05632,-0.02176 0.09472,-0.02176 0.01792,0 0.0384,0.0051 0.02048,0.0051 0.03712,0.02176 0.0192,0.01664 0.02944,0.0512 0.0128,0.032 0.01664,0.0896 l 0.0077,0.17024 0.0051,0.14336 q 0.0038,0.06784 0.0038,0.14464 v 0.40832 q 0,0.11136 -0.0038,0.22016 l -0.0051,0.21888 -0.0077,0.23296 q -0.0026,0.06528 -0.0128,0.09984 -0.009,0.03584 -0.0256,0.05504 -0.01536,0.0192 -0.0384,0.02176 -0.01792,0.0051 -0.0448,0.0051 -0.04864,0 -0.08192,-0.032 -0.032,-0.03584 -0.0384,-0.1472 z m 4.0512,-0.30336 -0.20864,0.22016 q -0.08448,0.0896 -0.14336,0.14848 -0.06016,0.0576 -0.10112,0.08448 -0.0384,0.02688 -0.0704,0.02688 -0.0384,0 -0.07552,-0.032 -0.03456,-0.03328 -0.03456,-0.0704 0,-0.03328 0.04608,-0.09856 0.04608,-0.06784 0.11392,-0.14848 0.06656,-0.08192 0.14592,-0.16768 0.07808,-0.0896 0.14336,-0.16896 l -0.1664,-0.19456 q -0.07424,-0.09472 -0.13184,-0.17664 -0.05632,-0.08064 -0.09216,-0.14336 -0.032,-0.06144 -0.032,-0.09728 0,-0.03456 0.03456,-0.06016 0.03584,-0.0256 0.06528,-0.0256 0.0256,0 0.08448,0.05376 0.05888,0.0512 0.13184,0.128 0.0768,0.07168 0.15232,0.15616 0.07808,0.08448 0.1408,0.14848 0.06016,-0.064 0.13312,-0.14592 0.0768,-0.08448 0.14848,-0.15744 0.07296,-0.07296 0.13568,-0.12416 0.06272,-0.0512 0.09728,-0.0512 0.03072,0 0.06016,0.02176 0.02944,0.02176 0.02944,0.05632 0,0.03584 -0.03456,0.09728 -0.03328,0.06272 -0.0896,0.14336 -0.0576,0.08192 -0.13568,0.17664 -0.0768,0.09472 -0.16256,0.19456 l 0.14592,0.1664 q 0.07936,0.08576 0.1472,0.17024 0.06656,0.08064 0.11008,0.14848 0.04608,0.06528 0.04608,0.09728 0,0.0384 -0.0384,0.07168 -0.03456,0.032 -0.07296,0.032 -0.03456,0 -0.09472,-0.04352 -0.05632,-0.04608 -0.12928,-0.11392 l -0.14976,-0.1536 z m 1.21344,0.30336 q -0.0051,-0.09728 -0.0077,-0.20224 0,-0.10624 -0.0038,-0.22784 -0.0026,-0.1216 -0.0026,-0.26368 v -0.65792 l -0.16256,0.08448 q -0.06784,0.04352 -0.10752,0.0512 -0.0384,0.0077 -0.08448,0.0077 -0.04096,0 -0.07296,-0.03456 -0.02944,-0.03584 -0.02944,-0.08448 0,-0.04864 0.032,-0.0832 0.03584,-0.0384 0.08192,-0.06784 0.05888,-0.04096 0.12672,-0.08192 0.0704,-0.04096 0.13568,-0.07296 0.064,-0.03584 0.11904,-0.05376 0.05632,-0.02176 0.09472,-0.02176 0.0192,0 0.0384,0.0051 0.02176,0.0051 0.0384,0.02176 0.01792,0.01664 0.02944,0.0512 0.0128,0.032 0.01536,0.0896 l 0.009,0.17024 0.0051,0.14336 q 0.0026,0.06784 0.0026,0.14464 v 0.40832 q 0,0.11136 -0.0026,0.22016 l -0.0051,0.21888 q -0.0026,0.11136 -0.009,0.23296 -0.0026,0.06528 -0.0128,0.09984 -0.009,0.03584 -0.0256,0.05504 -0.01536,0.0192 -0.03712,0.02176 -0.0192,0.0051 -0.04608,0.0051 -0.04864,0 -0.08064,-0.032 -0.03328,-0.03584 -0.0384,-0.1472 z"
     font-weight="400"
     font-size="2.117"
     letter-spacing="0"
     word-spacing="0"
     id="path36"
     inkscape:connector-curvature="0" />
</svg>
