<?xml version="1.0" encoding="UTF-8" standalone="no"?>
<svg
   xmlns:dc="http://purl.org/dc/elements/1.1/"
   xmlns:cc="http://creativecommons.org/ns#"
   xmlns:rdf="http://www.w3.org/1999/02/22-rdf-syntax-ns#"
   xmlns:svg="http://www.w3.org/2000/svg"
   xmlns="http://www.w3.org/2000/svg"
   xmlns:xlink="http://www.w3.org/1999/xlink"
   xmlns:sodipodi="http://sodipodi.sourceforge.net/DTD/sodipodi-0.dtd"
   xmlns:inkscape="http://www.inkscape.org/namespaces/inkscape"
   width="86.360001mm"
   height="128.5mm"
   viewBox="0 0 86.360321 128.50044"
   version="1.1"
   id="svg272"
   sodipodi:docname="BigButtonSeq_dark.svg"
   inkscape:version="0.92.2 (5c3e80d, 2017-08-06)">
  <metadata
     id="metadata276">
    <rdf:RDF>
      <cc:Work
         rdf:about="">
        <dc:format>image/svg+xml</dc:format>
        <dc:type
           rdf:resource="http://purl.org/dc/dcmitype/StillImage" />
        <dc:title></dc:title>
      </cc:Work>
    </rdf:RDF>
  </metadata>
  <sodipodi:namedview
     pagecolor="#ffffff"
     bordercolor="#666666"
     borderopacity="1"
     objecttolerance="10"
     gridtolerance="10"
     guidetolerance="10"
     inkscape:pageopacity="0"
     inkscape:pageshadow="2"
     inkscape:window-width="1920"
     inkscape:window-height="1017"
     id="namedview274"
     showgrid="false"
     inkscape:document-units="mm"
     units="mm"
     inkscape:zoom="4.2474115"
     inkscape:cx="70.264737"
     inkscape:cy="422.66394"
     inkscape:window-x="-8"
     inkscape:window-y="-8"
     inkscape:window-maximized="1"
     inkscape:current-layer="svg272" />
  <defs
     id="defs62">
    <linearGradient
       id="b">
      <stop
         offset="0"
         stop-color="#626262"
         id="stop2" />
      <stop
         offset="1"
         stop-color="#929292"
         id="stop4" />
    </linearGradient>
    <linearGradient
       id="a">
      <stop
         offset="0"
         id="stop7" />
      <stop
         offset="1"
         stop-color="#fff"
         id="stop9" />
    </linearGradient>
    <linearGradient
       xlink:href="#a"
       id="q"
       gradientUnits="userSpaceOnUse"
       gradientTransform="matrix(1.25816,0,0,1.25816,32.958,-15.82)"
       x1="24.039"
       y1="62.948002"
       x2="24.039"
       y2="59.622002" />
    <linearGradient
       xlink:href="#a"
       id="r"
       gradientUnits="userSpaceOnUse"
       gradientTransform="matrix(1.00722,0,0,1.00722,-69.402,-137.27)"
       x1="24.039"
       y1="62.948002"
       x2="24.039"
       y2="59.622002" />
    <linearGradient
       xlink:href="#a"
       id="s"
       gradientUnits="userSpaceOnUse"
       gradientTransform="matrix(1.25816,0,0,1.25816,32.958,-15.82)"
       x1="24.039"
       y1="62.948002"
       x2="24.039"
       y2="59.622002" />
    <linearGradient
       xlink:href="#a"
       id="t"
       gradientUnits="userSpaceOnUse"
       gradientTransform="matrix(1.00722,0,0,1.00722,-69.402,-137.27)"
       x1="24.039"
       y1="62.948002"
       x2="24.039"
       y2="59.622002" />
    <linearGradient
       xlink:href="#a"
       id="u"
       gradientUnits="userSpaceOnUse"
       gradientTransform="matrix(1.25816,0,0,1.25816,32.958,-15.82)"
       x1="24.039"
       y1="62.948002"
       x2="24.039"
       y2="59.622002" />
    <linearGradient
       xlink:href="#a"
       id="v"
       gradientUnits="userSpaceOnUse"
       gradientTransform="matrix(1.00722,0,0,1.00722,-69.402,-137.27)"
       x1="24.039"
       y1="62.948002"
       x2="24.039"
       y2="59.622002" />
    <linearGradient
       xlink:href="#a"
       id="w"
       gradientUnits="userSpaceOnUse"
       gradientTransform="matrix(1.25816,0,0,1.25816,32.958,-15.82)"
       x1="24.039"
       y1="62.948002"
       x2="24.039"
       y2="59.622002" />
    <linearGradient
       xlink:href="#a"
       id="x"
       gradientUnits="userSpaceOnUse"
       gradientTransform="matrix(1.00722,0,0,1.00722,-69.402,-137.27)"
       x1="24.039"
       y1="62.948002"
       x2="24.039"
       y2="59.622002" />
    <linearGradient
       xlink:href="#a"
       id="y"
       gradientUnits="userSpaceOnUse"
       gradientTransform="matrix(1.25816,0,0,1.25816,32.958,-15.82)"
       x1="24.039"
       y1="62.948002"
       x2="24.039"
       y2="59.622002" />
    <linearGradient
       xlink:href="#a"
       id="z"
       gradientUnits="userSpaceOnUse"
       gradientTransform="matrix(1.00722,0,0,1.00722,-69.402,-137.27)"
       x1="24.039"
       y1="62.948002"
       x2="24.039"
       y2="59.622002" />
    <linearGradient
       xlink:href="#a"
       id="A"
       gradientUnits="userSpaceOnUse"
       gradientTransform="matrix(1.25816,0,0,1.25816,32.958,-15.82)"
       x1="24.039"
       y1="62.948002"
       x2="24.039"
       y2="59.622002" />
    <linearGradient
       xlink:href="#a"
       id="B"
       gradientUnits="userSpaceOnUse"
       gradientTransform="matrix(1.00722,0,0,1.00722,-69.402,-137.27)"
       x1="24.039"
       y1="62.948002"
       x2="24.039"
       y2="59.622002" />
    <linearGradient
       xlink:href="#b"
       id="h"
       x1="45.258999"
       y1="102.973"
       x2="45.258999"
       y2="34.750999"
       gradientUnits="userSpaceOnUse"
       gradientTransform="matrix(0.33865735,0,0,0.33865735,0,-0.42400546)" />
    <linearGradient
       xlink:href="#a"
       id="C"
       x1="30.566"
       y1="174.548"
       x2="30.566"
       y2="173.61301"
       gradientUnits="userSpaceOnUse"
       gradientTransform="matrix(1.2799809,0,0,1.2799809,-34.291968,-205.28495)" />
    <linearGradient
       gradientTransform="matrix(1.2799809,0,0,1.2799809,-24.512914,-205.28495)"
       xlink:href="#a"
       id="D"
       x1="30.566"
       y1="174.548"
       x2="30.566"
       y2="173.61301"
       gradientUnits="userSpaceOnUse" />
    <linearGradient
       gradientTransform="matrix(1.2799809,0,0,1.2799809,-11.064155,-205.28495)"
       xlink:href="#a"
       id="F"
       x1="30.566"
       y1="174.548"
       x2="30.566"
       y2="173.61301"
       gradientUnits="userSpaceOnUse" />
    <linearGradient
       xlink:href="#a"
       id="E"
       x1="30.566"
       y1="174.548"
       x2="30.566"
       y2="173.61301"
       gradientUnits="userSpaceOnUse"
       gradientTransform="matrix(1.2799809,0,0,1.2799809,-20.844489,-205.28495)" />
    <linearGradient
       gradientTransform="matrix(1.2799809,0,0,1.2799809,2.5855614,-205.28495)"
       xlink:href="#a"
       id="H"
       x1="30.566"
       y1="174.548"
       x2="30.566"
       y2="173.61301"
       gradientUnits="userSpaceOnUse" />
    <linearGradient
       xlink:href="#a"
       id="G"
       x1="30.566"
       y1="174.548"
       x2="30.566"
       y2="173.61301"
       gradientUnits="userSpaceOnUse"
       gradientTransform="matrix(1.2799809,0,0,1.2799809,-7.1947726,-205.28495)" />
    <linearGradient
       gradientTransform="matrix(1.2799809,0,0,1.2799809,16.11496,-205.28495)"
       xlink:href="#a"
       id="J"
       x1="30.566"
       y1="174.548"
       x2="30.566"
       y2="173.61301"
       gradientUnits="userSpaceOnUse" />
    <linearGradient
       xlink:href="#a"
       id="I"
       x1="30.566"
       y1="174.548"
       x2="30.566"
       y2="173.61301"
       gradientUnits="userSpaceOnUse"
       gradientTransform="matrix(1.2799809,0,0,1.2799809,6.3359055,-205.28495)" />
    <linearGradient
       gradientTransform="matrix(1.2799809,0,0,1.2799809,29.581639,-205.28495)"
       xlink:href="#a"
       id="L"
       x1="30.566"
       y1="174.548"
       x2="30.566"
       y2="173.61301"
       gradientUnits="userSpaceOnUse" />
    <linearGradient
       xlink:href="#a"
       id="K"
       x1="30.566"
       y1="174.548"
       x2="30.566"
       y2="173.61301"
       gradientUnits="userSpaceOnUse"
       gradientTransform="matrix(1.2799809,0,0,1.2799809,19.802585,-205.28495)" />
    <linearGradient
       gradientTransform="matrix(1.2799809,0,0,1.2799809,43.058557,-205.28495)"
       xlink:href="#a"
       id="N"
       x1="30.566"
       y1="174.548"
       x2="30.566"
       y2="173.61301"
       gradientUnits="userSpaceOnUse" />
    <linearGradient
       xlink:href="#a"
       id="M"
       x1="30.566"
       y1="174.548"
       x2="30.566"
       y2="173.61301"
       gradientUnits="userSpaceOnUse"
       gradientTransform="matrix(1.2799809,0,0,1.2799809,33.279503,-205.28495)" />
    <linearGradient
       xlink:href="#a"
       id="g"
       x1="45.258999"
       y1="102.973"
       x2="45.258999"
       y2="34.750999"
       gradientUnits="userSpaceOnUse"
       gradientTransform="matrix(0.36428256,0,0,0.3548747,-0.69246967,-1.5401488)" />
    <linearGradient
       xlink:href="#a"
       id="i"
       gradientUnits="userSpaceOnUse"
       gradientTransform="matrix(0.36428256,0,0,0.3548747,12.778049,-1.5081492)"
       x1="45.258999"
       y1="102.973"
       x2="45.258999"
       y2="34.750999" />
    <linearGradient
       xlink:href="#b"
       id="j"
       gradientUnits="userSpaceOnUse"
       gradientTransform="matrix(0.33865735,0,0,0.33865735,13.470519,-0.39200594)"
       x1="45.258999"
       y1="102.973"
       x2="45.258999"
       y2="34.750999" />
    <linearGradient
       xlink:href="#a"
       id="e"
       gradientUnits="userSpaceOnUse"
       gradientTransform="matrix(0.36428256,0,0,0.3548747,26.187129,-1.6873466)"
       x1="45.258999"
       y1="102.973"
       x2="45.258999"
       y2="34.750999" />
    <linearGradient
       xlink:href="#b"
       id="f"
       gradientUnits="userSpaceOnUse"
       gradientTransform="matrix(0.33865735,0,0,0.33865735,26.879599,-0.57120326)"
       x1="45.258999"
       y1="102.973"
       x2="45.258999"
       y2="34.750999" />
    <linearGradient
       xlink:href="#a"
       id="k"
       gradientUnits="userSpaceOnUse"
       gradientTransform="matrix(0.36428256,0,0,0.3548747,39.838126,-1.6873466)"
       x1="45.258999"
       y1="102.973"
       x2="45.258999"
       y2="34.750999" />
    <linearGradient
       xlink:href="#b"
       id="l"
       gradientUnits="userSpaceOnUse"
       gradientTransform="matrix(0.33865735,0,0,0.33865735,40.530595,-0.57120326)"
       x1="45.258999"
       y1="102.973"
       x2="45.258999"
       y2="34.750999" />
    <linearGradient
       xlink:href="#a"
       id="m"
       gradientUnits="userSpaceOnUse"
       gradientTransform="matrix(0.36428256,0,0,0.3548747,53.367524,-1.7475057)"
       x1="45.258999"
       y1="102.973"
       x2="45.258999"
       y2="34.750999" />
    <linearGradient
       xlink:href="#b"
       id="n"
       gradientUnits="userSpaceOnUse"
       gradientTransform="matrix(0.33865735,0,0,0.33865735,54.059993,-0.63136236)"
       x1="45.258999"
       y1="102.973"
       x2="45.258999"
       y2="34.750999" />
    <linearGradient
       xlink:href="#a"
       id="o"
       gradientUnits="userSpaceOnUse"
       gradientTransform="matrix(0.36428256,0,0,0.3548747,67.01852,-1.926703)"
       x1="45.258999"
       y1="102.973"
       x2="45.258999"
       y2="34.750999" />
    <linearGradient
       xlink:href="#b"
       id="p"
       gradientUnits="userSpaceOnUse"
       gradientTransform="matrix(0.33865735,0,0,0.33865735,67.71099,-0.81055969)"
       x1="45.258999"
       y1="102.973"
       x2="45.258999"
       y2="34.750999" />
    <linearGradient
       xlink:href="#a"
       id="O"
       x1="90.010002"
       y1="192.064"
       x2="90.010002"
       y2="200.961"
       gradientUnits="userSpaceOnUse"
       gradientTransform="matrix(1.2799809,0,0,1.2799809,-33.974533,-206.56493)" />
    <linearGradient
       xlink:href="#a"
       id="P"
       x1="90.010002"
       y1="192.064"
       x2="90.010002"
       y2="200.961"
       gradientUnits="userSpaceOnUse"
       gradientTransform="matrix(0.80194643,0,0,1.2709698,-9.9992108,-204.77167)" />
    <linearGradient
       xlink:href="#c"
       id="Q"
       x1="26.759001"
       y1="162"
       x2="30.999001"
       y2="162"
       gradientUnits="userSpaceOnUse"
       gradientTransform="matrix(1,0,0,0.56406,0,70.452)" />
    <linearGradient
       id="c">
      <stop
         offset="0"
         stop-color="#fff"
         id="stop51" />
      <stop
         offset="1"
         stop-color="#fff"
         stop-opacity="0"
         id="stop53" />
    </linearGradient>
    <linearGradient
       xlink:href="#d"
       id="R"
       x1="26.759001"
       y1="162"
       x2="30.999001"
       y2="162"
       gradientUnits="userSpaceOnUse"
       gradientTransform="matrix(0.99995,0,0,0.53173,135.453,-112.052)" />
    <linearGradient
       id="d">
      <stop
         offset="0"
         stop-color="#fff"
         stop-opacity=".992"
         id="stop57" />
      <stop
         offset="1"
         stop-color="#fff"
         stop-opacity="0"
         id="stop59" />
    </linearGradient>
  </defs>
  <path
     d="M 0,0 H 86.360311 V 128.50046 H 0 Z m 0,0"
     id="path64"
     inkscape:connector-curvature="0"
     style="fill:#191919;stroke-width:1" />
  <path
     d="m 36.040422,10.709269 c -3.627466,0 -6.568862,2.864597 -6.568862,6.398624 0.0013,0.108799 0.0051,0.217597 0.0128,0.325115 h -0.0013 l 0.06912,0.645111 c 0.0128,0.0832 0.02816,0.166397 0.04608,0.249596 l 2.320606,12.863808 h 0.0051 c 0.345594,2.073569 2.184927,3.599306 4.341695,3.599306 2.430684,0 4.400574,-1.919971 4.400574,-4.286656 l -0.0026,-0.04992 1.804773,-12.0395 c 0.0512,-0.245757 0.0896,-0.494073 0.111359,-0.743669 l 0.02176,-0.408314 v -0.0026 l 0.0064,-0.153598 c 0,-3.532747 -2.940116,-6.398624 -6.567582,-6.398624 z"
     id="path66"
     inkscape:connector-curvature="0"
     style="fill:url(#e);stroke-width:1" />
  <path
     d="m 36.040422,11.25966 a 6.1055089,6.1055089 0 0 0 -6.106789,6.105509 c 0,0.104959 0.0051,0.208637 0.01152,0.312316 h -0.0013 l 0.064,0.614391 0.04224,0.238076 2.158047,12.276297 h 0.0051 a 4.090819,4.090819 0 0 0 8.127879,-0.65535 l -0.0026,-0.04736 1.676775,-11.490388 c 0.04864,-0.234237 0.08448,-0.471033 0.104958,-0.71039 l 0.02048,-0.389114 -0.0013,-0.0026 0.0064,-0.145918 A 6.1055089,6.1055089 0 0 0 36.040323,11.25962 Z"
     id="path68"
     inkscape:connector-curvature="0"
     style="fill:url(#f);stroke-width:1" />
  <g
     word-spacing="0"
     letter-spacing="0"
     font-size="5.644"
     font-weight="400"
     style="font-weight:400;font-size:5.64400005px;line-height:1.25;font-family:'Casual Caps';letter-spacing:0;word-spacing:0;fill:#c8c8c8;stroke-width:0.20703433"
     aria-label="BIG-BUTTON-SEQ"
     id="g78"
     transform="matrix(1.2799809,0,0,1.2799809,0,-0.09505041)">
    <path
       style="-inkscape-font-specification:'Casual Caps';stroke-width:0.20703433"
       d="m 16.154,1.825 q 0.584,0 1.254,0.931 v 0.226 q 0,0.364 -0.805,0.932 -0.193,0.27 -0.193,0.352 0,0.177 0.998,1.158 0.16,0.33 0.16,0.482 0,0.805 -1.64,0.805 h -0.16 q -0.965,0 -0.965,-0.29 V 6.325 q 0.11,-0.193 0.356,-0.193 0.284,-4.084 0.579,-4.084 0.138,-0.224 0.416,-0.224 z m -0.482,4.338 0.096,0.066 q 1.193,-0.053 1.254,-0.29 V 5.906 q 0,-0.231 -0.931,-1.124 -0.163,-0.243 -0.163,-0.42 V 4.137 q 0,-0.372 0.805,-0.962 0.16,-0.171 0.16,-0.26 -0.237,-0.402 -0.706,-0.545 -0.281,0 -0.515,3.792 z m 2.656,-4.082 h 0.709 q 0.173,0 0.256,0.16 V 2.434 L 19.037,2.66 q -0.163,0.832 -0.323,2.99 0.364,0.16 0.386,0.256 v 0.193 q 0,0.044 -0.16,0.16 H 18.907 Q 18.491,6.163 18.458,6.163 H 18.425 Q 18.113,6.229 18.072,6.229 H 18.009 Q 17.846,6.146 17.846,5.969 V 5.906 Q 17.866,5.818 18.169,5.65 18.425,3.293 18.521,2.66 18.235,2.563 18.136,2.403 V 2.307 q 0.055,-0.146 0.192,-0.226 z"
       id="path70"
       inkscape:connector-curvature="0" />
    <path
       style="-inkscape-font-specification:'Casual Caps';stroke-width:0.20703433"
       d="m 21.333,1.825 h 0.063 q 0.852,0 1.094,1.413 0,0.312 -0.226,0.45 h -0.16 q -0.044,0 -0.162,-0.16 V 3.495 q 0,-0.116 0.033,-0.29 -0.212,-0.868 -0.579,-0.868 h -0.13 q -0.75,0.223 -1.22,0.998 -0.45,0.86 -0.45,1.414 v 0.16 q 0,0.733 0.739,0.964 0.025,0 0.193,0.033 1.22,-0.195 1.22,-0.642 0,-0.146 -0.705,-0.226 -0.058,0.033 -0.13,0.033 -0.2,-0.066 -0.225,-0.162 V 4.716 q 0,-0.042 0.162,-0.16 h 0.193 q 0.984,0 1.221,0.515 l 0.033,0.193 q 0,0.59 -1.03,1.028 -0.348,0.097 -0.676,0.097 h -0.16 q -0.815,0 -1.254,-0.932 -0.096,-0.248 -0.096,-0.675 0,-1.552 1.543,-2.764 0.438,-0.193 0.709,-0.193 z m 2.538,1.736 q 0.772,0 0.772,0.193 v 0.16 q 0,0.044 -0.163,0.16 h -0.223 q -0.378,0 -0.772,-0.03 L 22.68,4.137 Q 22.548,4.093 22.487,3.977 v -0.16 q 0,-0.22 0.902,-0.256 z m 1.808,-1.736 q 0.584,0 1.254,0.931 v 0.226 q 0,0.364 -0.805,0.932 -0.193,0.27 -0.193,0.352 0,0.177 0.998,1.158 0.16,0.33 0.16,0.482 0,0.805 -1.64,0.805 h -0.16 q -0.965,0 -0.965,-0.29 V 6.325 q 0.11,-0.193 0.356,-0.193 0.284,-4.084 0.579,-4.084 0.138,-0.224 0.416,-0.224 z m -0.482,4.338 0.096,0.066 q 1.193,-0.053 1.254,-0.29 V 5.906 q 0,-0.231 -0.931,-1.124 -0.163,-0.243 -0.163,-0.42 V 4.137 q 0,-0.372 0.805,-0.962 0.16,-0.171 0.16,-0.26 -0.237,-0.402 -0.706,-0.545 -0.281,0 -0.515,3.792 z m 2.946,-4.372 q 0.146,0.053 0.184,0.124 0.042,0.07 0.042,0.133 0,0.151 -0.42,2.797 -0.062,0.35 -0.062,0.805 v 0.193 q 0.068,0.46 0.212,0.518 0.022,0.011 0.047,0.011 0.13,0 0.311,-0.262 0.215,-0.311 0.52,-1.361 0.13,-0.408 0.354,-1.362 0.226,-0.953 0.295,-1.017 0.069,-0.063 0.19,-0.063 0.102,0 0.198,0.151 0.033,0.055 0.033,0.188 0,0.223 -0.102,0.667 -0.138,0.6 -0.138,2.51 0,0.326 0.003,0.687 -0.022,0.28 -0.21,0.314 -0.04,0.008 -0.076,0.008 -0.127,0 -0.182,-0.097 -0.053,-0.082 -0.053,-0.261 0,-0.083 0.011,-0.182 V 5.713 q 0,-0.138 -0.022,-0.138 -0.013,0 -0.041,0.075 -0.548,1.317 -0.998,1.317 h -0.03 q -0.711,0 -0.838,-1.254 0,-0.667 0.482,-3.6 0,-0.129 0.061,-0.225 0.06,-0.097 0.229,-0.097 z m 4.55,0.482 q 0.13,0.144 0.13,0.16 v 0.163 q 0,0.193 -0.612,0.193 h -0.257 q -0.046,0 -0.096,0.097 0,0.14 -0.033,1.444 0,0.4 0.13,2.218 -0.136,0.13 -0.257,0.13 -0.29,0 -0.29,-0.835 -0.065,-0.568 -0.065,-1.447 v -1.48 q 0,-0.044 -0.094,-0.097 -0.108,0 -0.708,0.097 h -0.097 q -0.05,0 -0.13,-0.127 V 2.596 q 0,-0.322 2.38,-0.322 z m 2.789,0 q 0.13,0.144 0.13,0.16 v 0.163 q 0,0.193 -0.612,0.193 h -0.256 q -0.047,0 -0.097,0.097 0,0.14 -0.033,1.444 0,0.4 0.13,2.218 -0.135,0.13 -0.257,0.13 -0.29,0 -0.29,-0.835 -0.065,-0.568 -0.065,-1.447 v -1.48 q 0,-0.044 -0.094,-0.097 -0.107,0 -0.708,0.097 h -0.097 q -0.05,0 -0.13,-0.127 V 2.596 q 0,-0.322 2.38,-0.322 z"
       id="path72"
       inkscape:connector-curvature="0" />
    <path
       style="-inkscape-font-specification:'Casual Caps';stroke-width:0.20703433"
       d="m 37.569,2.701 q 0.807,0.67 0.807,1.695 v 0.223 q 0,1.246 -1.414,1.77 -0.242,0.063 -0.449,0.063 H 36.287 Q 35.46,6.452 35.099,5.487 35.033,5.264 35.033,5.101 V 4.749 q 0,-1.034 0.901,-2.09 -0.041,-0.085 -0.041,-0.16 0,-0.217 0.372,-0.324 0.085,-0.025 0.182,-0.025 0.455,0 1.122,0.55 z m -2.054,2.177 q 0,0.924 0.805,1.092 h 0.097 q 0.587,0 1.157,-0.546 0.292,-0.455 0.32,-0.901 0,-0.808 -0.802,-1.444 -0.43,-0.26 -0.516,-0.26 -0.176,0 -0.705,0.805 -0.356,0.72 -0.356,1.254 z m 6.254,-3.216 q 0.146,0.055 0.223,0.193 v 0.066 q -0.353,1.38 -0.898,4.178 l -0.163,0.13 h -0.223 q -0.265,0 -0.838,-2.572 -0.102,-0.322 -0.16,-0.322 -0.256,0.595 -0.546,2.731 0,0.612 -0.226,0.612 h -0.063 q -0.13,0 -0.226,-0.16 0,-1.273 0.612,-3.57 0.19,-0.481 0.482,-0.481 0.41,0 0.675,1.35 l 0.32,1.158 h 0.033 q 0.064,-0.047 0.386,-1.833 0.328,-1.37 0.45,-1.447 z m 1.405,1.899 q 0.772,0 0.772,0.193 v 0.16 q 0,0.044 -0.162,0.16 H 43.56 q -0.377,0 -0.771,-0.03 L 41.984,4.137 Q 41.852,4.093 41.791,3.977 v -0.16 q 0,-0.22 0.901,-0.256 z m 3.818,-1.254 h 0.355 q 0.711,0 1.028,0.482 0.033,0.083 0.033,0.146 0,0.075 -0.044,0.127 -0.052,0.066 -0.168,0.066 -0.063,0 -0.143,-0.02 -0.334,-0.319 -0.932,-0.319 -1.3,0 -2.249,1.028 -0.13,0.176 -0.13,0.353 0,0.256 0.852,0.256 0.852,0 1.43,0.11 0.58,0.11 0.58,0.75 0,0.64 -1.029,1.136 -0.261,0.096 -0.482,0.096 H 45.997 Q 45.065,6.433 45.065,5.584 V 5.457 q 0,-0.174 0.223,-0.201 h 0.042 q 0.184,0 0.2,0.223 0.017,0.25 0.128,0.389 0.11,0.135 0.273,0.135 h 0.192 q 0.965,-0.27 0.965,-0.709 0.003,-0.016 0.003,-0.035 0,-0.353 -1.05,-0.367 -1.103,-0.011 -1.436,-0.116 -0.334,-0.107 -0.378,-0.573 0,-0.978 1.737,-1.736 0.56,-0.16 1.028,-0.16 z m 3.045,-0.516 h 0.323 q 0.705,0 0.705,0.386 v 0.064 q 0,0.044 -0.16,0.162 h -0.13 q -0.369,-0.13 -0.608,-0.13 -0.81,0 -0.932,0.516 -0.163,0.265 -0.259,1.284 l 0.066,0.034 q 0.736,-0.193 0.962,-0.193 0.044,0 0.163,0.16 v 0.16 q 0,0.137 -0.516,0.258 -0.609,0.147 -0.609,0.224 v 0.033 q 0.1,1.077 0.61,1.22 0.176,0.034 0.256,0.034 0.038,0 0.611,-0.16 0.133,0.044 0.193,0.16 v 0.193 q -0.21,0.29 -0.708,0.29 h -0.256 q -1.003,0 -1.221,-1.608 Q 48.494,4.57 48.494,4.266 V 4.203 q 0,-1.723 0.741,-2.252 0.345,-0.16 0.802,-0.16 z"
       id="path74"
       inkscape:connector-curvature="0" />
    <path
       style="-inkscape-font-specification:'Casual Caps';stroke-width:0.20703433"
       d="m 52.873,1.993 q 0.579,0.113 1.364,1.405 0.257,0.612 0.257,1.094 0,0.645 -0.45,1.254 V 5.81 q 0,0.055 0.483,0.546 v 0.192 q 0,0.045 -0.16,0.163 h -0.066 q -0.15,0 -0.706,-0.579 -0.818,0.353 -1.416,0.353 -0.96,0 -1.285,-0.675 -0.13,-0.298 -0.13,-0.546 V 5.101 q 0,-1.493 1.607,-2.86 -0.008,-0.042 -0.008,-0.078 0,-0.195 0.273,-0.195 0.1,0 0.237,0.025 z m -1.626,3.108 q 0,0.745 0.708,0.869 0.144,0 0.193,0.033 1.028,-0.15 1.028,-0.353 L 53.08,5.487 v -0.16 q 0,-0.044 0.16,-0.16 h 0.193 q 0.137,0.127 0.259,0.127 0.29,-0.283 0.29,-0.835 -0.08,-0.68 -0.343,-1.1 Q 53.377,2.938 52.92,2.596 52.272,2.729 51.536,4.043 51.247,4.826 51.247,5.102 Z"
       id="path76"
       inkscape:connector-curvature="0" />
  </g>
  <path
     d="m 36.927449,125.82179 c 0,0 4.966326,-0.91006 6.466463,-1.44765 1.500138,-0.5376 2.905557,-1.53086 2.905557,-1.53086 0,0 1.687015,0.1856 1.500138,0.53759 -0.188157,0.352 -0.468473,0.84863 -0.468473,0.84863 0,0 3.187152,-0.66303 3.279311,-1.28254 0.09344,-0.62079 -0.936946,-1.55134 -0.936946,-1.55134 0,0 1.500137,-0.0627 2.248926,0.28928 0.750069,0.35199 0.468473,1.40669 0.468473,1.40669 0,0 5.624236,-1.46941 4.124099,-3.08219 -1.498858,-1.61278 -7.309971,-2.73148 -7.309971,-2.73148 0,0 2.530522,0.84863 1.31198,1.59358 -1.218542,0.74495 -3.467468,1.15838 -3.467468,1.15838 0,0 0.563192,-0.39295 0.65535,-0.62079 0.09472,-0.22784 -0.09344,-0.60031 -0.09344,-0.60031 0,0 -3.279312,0.43519 -4.02938,1.15838 -0.750069,0.72447 -0.563192,2.04797 -0.563192,2.04797 0,0 -1.967331,-0.93055 -2.342365,-1.19934 -0.375034,-0.2688 -0.843507,-0.97279 -0.843507,-0.97279 l -1.125104,0.41472 c 0,0 -1.123823,-0.29056 -0.748788,-0.74495 0.375034,-0.45568 1.030384,-0.78591 1.030384,-0.78591 0,0 -1.218542,0.0819 -1.498857,0.30976 -0.281596,0.22783 -0.656631,0.57983 -0.656631,0.57983 0,0 -1.687014,-0.65279 -0.750068,-1.3555 0.936946,-0.70399 2.952915,-1.19935 2.952915,-1.19935 0,0 -5.247921,0.42368 -7.35733,1.39518 -2.108128,0.97279 -2.060769,1.61406 -1.780453,2.05949 0.281596,0.44416 1.171182,1.17759 2.530522,1.62302 1.35806,0.44543 1.919971,0.57983 1.919971,0.57983 0,0 -1.171182,-0.93055 -1.3107,-1.2211 -0.140798,-0.28928 0.375034,-0.90879 0.375034,-0.90879 0,0 2.623961,0.58879 3.701705,1.29278 1.077744,0.70271 2.483163,1.51934 2.060769,2.14013 -0.421113,0.62079 -2.248926,1.79965 -2.248926,1.79965 z"
     id="path80"
     inkscape:connector-curvature="0"
     style="fill:#552100;stroke-width:1" />
  <g
     style="line-height:1.25;stroke-width:0.78126168"
     id="g84"
     transform="matrix(1.2799809,0,0,1.2799809,0,-0.09505041)">
    <path
       style="font-weight:400;font-size:4.6880002px;font-family:'Casual Caps';-inkscape-font-specification:'Casual Caps';letter-spacing:0;word-spacing:0;fill:#c8c8c8;stroke-width:0.78126168"
       d="m 22.464,95.082 h 0.588 q 0.145,0 0.213,0.133 v 0.16 l -0.213,0.188 q -0.135,0.69 -0.267,2.483 0.302,0.133 0.32,0.213 v 0.16 q 0,0.037 -0.133,0.133 h -0.027 q -0.346,-0.08 -0.373,-0.08 h -0.028 q -0.259,0.055 -0.293,0.055 h -0.052 q -0.136,-0.069 -0.136,-0.215 v -0.053 q 0.016,-0.073 0.268,-0.213 0.213,-1.957 0.293,-2.483 -0.238,-0.08 -0.32,-0.213 v -0.08 q 0.046,-0.122 0.16,-0.188 z m 2.971,-0.108 q 0.364,0 0.428,0.616 0.348,1.708 0.561,3.338 -0.078,0.185 -0.24,0.185 -0.21,0 -0.24,-0.746 -0.401,-2.273 -0.509,-2.724 H 25.41 q -0.426,1.174 -0.616,1.334 h -0.132 q -0.33,0 -0.454,-0.72 h -0.027 q -0.094,0 -0.32,1.389 -0.117,1.094 -0.266,1.094 h -0.08 Q 23.3,98.726 23.3,98.527 q 0.295,-2.136 0.64,-3.072 0.142,-0.24 0.32,-0.24 0.17,0 0.349,0.8 0.016,0.241 0.08,0.241 l 0.48,-1.147 q 0.14,-0.135 0.266,-0.135 z m 2.097,-0.105 h 0.133 q 1.002,0 1.657,0.721 0.053,0.096 0.053,0.213 v 0.027 q 0,0.66 -1.31,0.987 -0.265,0.108 -0.934,0.213 0,0.027 -0.025,0.027 0.053,1.047 0.053,1.736 -0.078,0.187 -0.24,0.187 h -0.053 q -0.037,0 -0.135,-0.133 0,-0.141 0.027,-0.24 -0.052,-0.842 -0.052,-1.602 L 26.651,96.817 V 96.79 q 0,-0.023 0.055,-0.213 v -0.373 q 0,-1.335 0.826,-1.335 z m -0.426,1.655 0.08,0.053 q 1.053,-0.151 1.655,-0.534 0.106,-0.112 0.106,-0.212 0,-0.234 -1.067,-0.536 -0.034,0 -0.268,-0.025 -0.426,0 -0.426,0.425 -0.061,0 -0.08,0.83 z m 3.624,-1.575 h 0.107 q 1.058,0 1.603,0.614 0.052,0.087 0.052,0.16 v 0.16 q 0,0.426 -1.442,0.854 -0.428,0.09 -0.428,0.16 0,0.071 0.641,0.48 1.248,0.685 1.417,0.83 l 0.025,0.052 v 0.133 q -0.069,0.135 -0.213,0.135 -1.149,-0.522 -2.03,-1.202 -0.069,0 -0.318,-0.295 h -0.028 l -0.027,0.055 q 0.16,0.975 0.16,1.254 v 0.268 q -0.069,0.133 -0.213,0.133 -0.107,0 -0.188,-0.133 v -0.028 q 0,-0.192 -0.24,-2.083 v -0.212 q 0,-1.335 1.122,-1.335 z m -0.694,1.227 v 0.48 q 0.01,0.056 0.053,0.056 0.15,-0.24 1.149,-0.481 0.698,-0.231 0.801,-0.4 0,-0.321 -1.257,-0.481 -0.718,0.084 -0.718,0.613 -0.028,0.028 -0.028,0.213 z m 4.791,-0.579 q 0.67,0.556 0.67,1.408 v 0.185 q 0,1.035 -1.173,1.47 -0.202,0.052 -0.374,0.052 h -0.187 q -0.687,0 -0.987,-0.8 -0.055,-0.186 -0.055,-0.321 v -0.293 q 0,-0.859 0.749,-1.735 -0.035,-0.071 -0.035,-0.133 0,-0.181 0.31,-0.27 0.07,-0.02 0.15,-0.02 0.378,0 0.932,0.457 z m -1.705,1.808 q 0,0.767 0.668,0.907 h 0.08 q 0.488,0 0.962,-0.453 0.242,-0.378 0.265,-0.749 0,-0.67 -0.666,-1.2 -0.357,-0.215 -0.428,-0.215 -0.146,0 -0.586,0.669 -0.295,0.597 -0.295,1.041 z m 4.555,-2.431 q 0.364,0 0.428,0.616 0.348,1.708 0.56,3.338 -0.077,0.185 -0.24,0.185 -0.21,0 -0.24,-0.746 -0.4,-2.273 -0.508,-2.724 h -0.025 q -0.426,1.174 -0.616,1.334 h -0.133 q -0.33,0 -0.453,-0.72 h -0.027 q -0.094,0 -0.32,1.389 -0.118,1.094 -0.266,1.094 h -0.08 q -0.216,-0.014 -0.216,-0.213 0.296,-2.136 0.641,-3.072 0.142,-0.24 0.32,-0.24 0.17,0 0.349,0.8 0.016,0.241 0.08,0.241 l 0.48,-1.147 q 0.14,-0.135 0.266,-0.135 z m 2.097,-0.105 h 0.132 q 1.003,0 1.658,0.721 0.052,0.096 0.052,0.213 v 0.027 q 0,0.66 -1.309,0.987 -0.265,0.108 -0.934,0.213 0,0.027 -0.025,0.027 0.053,1.047 0.053,1.736 -0.078,0.187 -0.24,0.187 h -0.053 q -0.037,0 -0.135,-0.133 0,-0.141 0.027,-0.24 -0.053,-0.842 -0.053,-1.602 L 38.892,96.817 V 96.79 q 0,-0.023 0.055,-0.213 v -0.373 q 0,-1.335 0.827,-1.335 z m -0.426,1.655 0.08,0.053 q 1.053,-0.151 1.655,-0.534 0.105,-0.112 0.105,-0.212 0,-0.234 -1.066,-0.536 -0.035,0 -0.268,-0.025 -0.426,0 -0.426,0.425 -0.062,0 -0.08,0.83 z m 4.477,-1.281 q 0.108,0.118 0.108,0.132 v 0.135 q 0,0.16 -0.508,0.16 h -0.213 q -0.04,0 -0.08,0.08 0,0.117 -0.028,1.2 0,0.332 0.108,1.842 -0.112,0.108 -0.213,0.108 -0.24,0 -0.24,-0.694 -0.055,-0.471 -0.055,-1.201 v -1.23 q 0,-0.036 -0.078,-0.08 -0.09,0 -0.588,0.08 h -0.08 q -0.042,0 -0.108,-0.105 v -0.16 q 0,-0.268 1.975,-0.268 z m 0.634,-0.401 q 0.122,0.043 0.154,0.103 0.034,0.057 0.034,0.11 0,0.125 -0.348,2.323 -0.053,0.29 -0.053,0.668 v 0.16 q 0.058,0.383 0.177,0.43 0.018,0.01 0.039,0.01 0.107,0 0.258,-0.218 0.179,-0.258 0.433,-1.13 0.107,-0.34 0.293,-1.131 0.188,-0.792 0.245,-0.845 0.057,-0.053 0.158,-0.053 0.084,0 0.165,0.126 0.027,0.046 0.027,0.156 0,0.185 -0.085,0.554 -0.114,0.499 -0.114,2.085 l 0.002,0.57 q -0.018,0.234 -0.174,0.261 -0.034,0.007 -0.064,0.007 -0.105,0 -0.15,-0.08 -0.044,-0.069 -0.044,-0.217 0,-0.07 0.009,-0.151 v -0.481 q 0,-0.115 -0.019,-0.115 -0.011,0 -0.034,0.062 -0.455,1.094 -0.828,1.094 h -0.026 q -0.59,0 -0.696,-1.041 0,-0.554 0.401,-2.99 0,-0.107 0.05,-0.187 0.05,-0.08 0.19,-0.08 z"
       word-spacing="0"
       letter-spacing="0"
       font-size="4.688"
       font-weight="400"
       aria-label="IMPROMPTU"
       id="path82"
       inkscape:connector-curvature="0" />
  </g>
  <path
     d="m 5.5538371,103.28261 c -1.6332556,2.53052 0.080639,5.63448 0.080639,5.63448 -0.6732699,-0.59263 -1.7548538,-0.55168 -1.7548538,-0.55168 m 1.7356541,0.51072 C 5.777834,107.9571 6.247587,107.36575 6.247587,107.36575"
     id="path86"
     inkscape:connector-curvature="0"
     style="fill:none;stroke:#c8c8c8;stroke-width:0.26499999;stroke-linecap:round;stroke-linejoin:round" />
  <path
     d="m 36.729052,74.96303 c 0,0 4.966326,4.313535 6.466463,6.863257 1.498858,2.549722 2.905557,7.256212 2.905557,7.256212 0,0 1.685735,-0.883187 1.498858,-2.549722 -0.186878,-1.666535 -0.468473,-4.01914 -0.468473,-4.01914 0,0 3.187152,3.135953 3.280591,6.078629 0.09344,2.941397 -0.938226,7.353496 -0.938226,7.353496 0,0 1.500137,0.294395 2.250206,-1.37214 0.748789,-1.667815 0.468473,-6.668705 0.468473,-6.668705 0,0 5.622956,6.963101 4.122819,14.610983 -1.498858,7.64789 -7.308691,12.94317 -7.308691,12.94317 0,0 2.529242,-4.01914 1.3107,-7.55061 -1.218542,-3.53019 -3.467468,-5.49112 -3.467468,-5.49112 0,0 0.563191,1.86366 0.65663,2.94268 0.09344,1.07774 -0.09344,2.84284 -0.09344,2.84284 0,0 -3.280591,-2.05949 -4.030659,-5.49112 -0.750069,-3.431628 -0.563192,-9.707374 -0.563192,-9.707374 0,0 -1.967331,4.412094 -2.342365,5.686955 -0.375034,1.274861 -0.843507,4.607929 -0.843507,4.607929 l -1.123824,-1.95965 c 0,0 -1.125103,1.37214 -0.750068,3.52891 0.375034,2.15804 1.030384,3.7273 1.030384,3.7273 0,0 -1.218542,-0.39295 -1.498857,-1.47198 -0.281596,-1.07774 -0.656631,-2.74556 -0.656631,-2.74556 0,0 -1.687014,3.08988 -0.748788,6.42295 0.936946,3.33435 2.951635,5.68695 2.951635,5.68695 0,0 -5.247921,-2.00957 -7.35733,-6.6175 -2.108128,-4.60921 -2.060769,-7.64916 -1.779173,-9.75729 0.280316,-2.108129 1.169902,-5.589677 2.529242,-7.697805 1.35934,-2.108134 1.921251,-2.745565 1.921251,-2.745565 0,0 -1.171182,4.41338 -1.31198,5.785519 -0.140798,1.37342 0.375034,4.314816 0.375034,4.314816 0,0 2.623961,-2.794199 3.701705,-6.128549 1.077744,-3.334355 2.483163,-7.206297 2.060769,-10.148973 -0.421113,-2.941397 -2.247646,-8.529793 -2.247646,-8.529793 z"
     id="path88"
     inkscape:connector-curvature="0"
     style="fill:#ff6e0f;stroke:#950e00;stroke-width:0.28999999" />
  <path
     d="m 39.196855,79.188247 c 0.499193,1.736934 0.878067,2.63804 1.100784,4.185537 0.500472,3.498188 -1.044465,7.429009 -2.110689,10.728805 -1.201902,3.718345 -3.9897,6.614941 -3.9897,6.614941 a 1.2940607,1.2940607 0 0 1 -2.218207,-0.66175 c 0,0 -0.134398,-0.764148 -0.249596,-1.707494 -0.03584,-0.287996 -0.0128,-0.599031 -0.04224,-0.904946 -0.287996,1.049584 -0.563191,2.129888 -0.66559,2.90171 -0.261116,1.96605 -0.340475,4.64377 1.675495,9.04947 0.633591,1.3875 1.633256,2.4358 2.6598,3.33307 -0.225276,-0.54783 -0.503032,-0.89343 -0.678389,-1.51166 -1.102064,-3.92442 0.861427,-7.39317 0.861427,-7.39317 a 1.2940607,1.2940607 0 0 1 1.190382,-0.66943 c 0.281596,-1.46046 0.819188,-2.5702 0.819188,-2.5702 a 1.2940607,1.2940607 0 0 1 1.397739,-0.41215 c 0.140798,-0.789749 0.153598,-1.192943 0.327675,-1.780455 0.245756,-0.837107 0.820468,-2.191327 1.36446,-3.464908 0.543991,-1.273581 1.036784,-2.384604 1.036784,-2.384604 a 1.2940607,1.2940607 0 0 1 2.475483,0.564471 c 0,0 -0.134398,6.328226 0.535032,9.395056 0.245757,1.12639 0.875507,2.05437 1.523177,2.82492 -0.124158,-0.85119 -0.558071,-2.47036 -0.558071,-2.47036 a 1.2940607,1.2940607 0 0 1 2.086369,-1.3491 c 0,0 2.511322,2.19004 3.839942,6.04407 0.270076,0.78079 0.268796,1.53853 0.294396,2.29244 1.31582,-2.04541 2.630361,-4.53625 3.214032,-7.51349 0.767989,-3.920575 -0.442873,-7.347084 -1.753574,-9.931365 -0.06016,0.954866 -0.01792,1.944291 -0.389114,2.767319 -0.518392,1.154542 -1.461738,1.804773 -2.227167,2.026209 -0.765428,0.218877 -1.452778,0.08704 -1.452778,0.08704 A 1.2940607,1.2940607 0 0 1 48.254,95.712805 c 0,0 0.988145,-4.418499 0.904946,-7.01686 -0.009,-0.284156 -0.304635,-0.633591 -0.399354,-0.957426 -0.465913,1.680615 -2.019809,2.554842 -2.019809,2.554842 A 1.2940607,1.2940607 0 0 1 44.89917,89.515133 c 0,0 -1.454058,-4.71801 -2.780119,-6.972056 -0.485112,-0.824308 -1.757413,-2.159328 -2.922196,-3.35355 z"
     id="path90"
     inkscape:connector-curvature="0"
     style="fill:#ffba1a;stroke:#ff8a0d;stroke-width:0.50199997;stroke-opacity:0.99500002" />
  <path
     d="m 47.195456,78.168102 c 1.633255,2.531802 -0.08192,5.634476 -0.08192,5.634476 0.67455,-0.592631 1.756134,-0.550392 1.756134,-0.550392 m -1.735654,0.509433 c -0.162557,-0.919027 -0.63231,-1.510378 -0.63231,-1.510378 m -19.309792,3.312591 c 1.633256,2.530522 -0.08192,5.634476 -0.08192,5.634476 0.67455,-0.592632 1.756134,-0.550392 1.756134,-0.550392 m -1.734374,0.509432 c -0.163837,-0.919026 -0.63359,-1.510377 -0.63359,-1.510377 m 40.568994,-4.170178 c 1.631976,2.531802 -0.08192,5.634476 -0.08192,5.634476 0.67327,-0.591351 1.754854,-0.550392 1.754854,-0.550392 m -1.735652,0.509432 c -0.162557,-0.919026 -0.63231,-1.510377 -0.63231,-1.510377 m 6.870937,13.354048 c -1.631976,2.5318 0.08192,5.63447 0.08192,5.63447 -0.67327,-0.59135 -1.754854,-0.55039 -1.754854,-0.55039 m 1.734374,0.50943 c 0.163838,-0.91774 0.633591,-1.51038 0.633591,-1.51038"
     id="path92"
     inkscape:connector-curvature="0"
     style="fill:none;stroke:#c8c8c8;stroke-width:0.26499999;stroke-linecap:round;stroke-linejoin:round" />
  <path
     d="m 9.1608233,10.856466 c -3.6274659,0 -6.568862,2.864598 -6.568862,6.398625 0.00128,0.108798 0.00512,0.217597 0.0128,0.325115 h -0.00128 l 0.069119,0.64511 c 0.0128,0.0832 0.02816,0.166398 0.046079,0.249597 l 2.3206054,12.863808 h 0.00512 c 0.3455949,2.073569 2.1849274,3.599306 4.3416952,3.599306 2.4306841,0 4.4005741,-1.919971 4.4005741,-4.286656 l -0.0026,-0.04992 1.804773,-12.039501 c 0.0512,-0.245756 0.0896,-0.494072 0.111359,-0.743668 l 0.02176,-0.408314 v -0.0026 l 0.0064,-0.153598 c 0,-3.532747 -2.940116,-6.398625 -6.5675817,-6.398625 z"
     id="path94"
     inkscape:connector-curvature="0"
     style="fill:url(#g);stroke-width:1" />
  <path
     d="m 9.1608233,11.406858 a 6.1055089,6.1055089 0 0 0 -6.1067889,6.105509 c 0,0.104959 0.00512,0.208637 0.01152,0.312315 h -0.00128 l 0.063999,0.614391 0.042239,0.238077 2.1580478,12.276297 h 0.00512 a 4.090819,4.090819 0 0 0 8.1278788,-0.655351 l -0.0026,-0.04736 1.676775,-11.490388 c 0.04864,-0.234237 0.08448,-0.471033 0.104959,-0.71039 l 0.02048,-0.389114 -0.0013,-0.0026 0.0064,-0.145918 A 6.1055089,6.1055089 0 0 0 9.1608233,11.406858 Z"
     id="path96"
     inkscape:connector-curvature="0"
     style="fill:url(#h);stroke-width:1" />
  <path
     word-spacing="0"
     letter-spacing="0"
     font-size="3.772"
     font-weight="400"
     aria-label="1"
     d="m 9.2273823,12.403963 q 0.3711945,0 0.4134338,0.467193 -0.3583946,1.991651 -0.3583946,2.666201 0.2470363,0.103678 0.2470363,0.276475 0,0.101119 -0.1919971,0.191998 -0.1830373,0 -0.6591902,0.05504 -0.1151983,-0.0384 -0.1651175,-0.136958 v -0.138238 q 0.1279981,-0.191997 0.330235,-0.191997 l 0.0256,-0.05632 q 0,-0.924147 0.330235,-2.666201 l -0.081919,-0.05376 q -0.268796,0.0256 -0.5503918,0.08192 -0.1638376,0 -0.1919972,-0.221437 v -0.05376 q 0.072959,-0.220157 0.6886298,-0.220157 z"
     id="path98"
     inkscape:connector-curvature="0"
     style="font-weight:400;font-size:3.77200007px;font-family:'Casual Caps';letter-spacing:0;word-spacing:0;stroke-width:1" />
  <path
     d="m 22.631342,10.888466 c -3.627466,0 -6.568862,2.864597 -6.568862,6.398624 0.0013,0.108799 0.0051,0.217597 0.0128,0.325116 H 16.074 l 0.06912,0.64511 c 0.0128,0.0832 0.02816,0.166398 0.04608,0.249596 l 2.320606,12.863808 h 0.0051 c 0.345595,2.073569 2.184927,3.599307 4.341695,3.599307 2.430684,0 4.400574,-1.919972 4.400574,-4.286656 l -0.0026,-0.04992 1.804773,-12.0395 c 0.0512,-0.245756 0.0896,-0.494073 0.111359,-0.743669 l 0.02176,-0.408314 v -0.0026 l 0.0064,-0.153597 c 0,-3.532748 -2.940116,-6.398625 -6.567582,-6.398625 z"
     id="path100"
     inkscape:connector-curvature="0"
     style="fill:url(#i);stroke-width:1" />
  <path
     d="m 22.631342,11.438858 a 6.1055089,6.1055089 0 0 0 -6.106789,6.105509 c 0,0.104958 0.0051,0.208637 0.01152,0.312315 h -0.0013 l 0.064,0.614391 0.04224,0.238076 2.158047,12.276297 h 0.0051 a 4.090819,4.090819 0 0 0 8.127879,-0.65535 l -0.0026,-0.04736 1.676775,-11.490389 c 0.04864,-0.234236 0.08448,-0.471033 0.104959,-0.710389 l 0.02048,-0.389115 -0.0013,-0.0026 0.0064,-0.145917 a 6.1055089,6.1055089 0 0 0 -6.105509,-6.105509 z"
     id="path102"
     inkscape:connector-curvature="0"
     style="fill:url(#j);stroke-width:1" />
  <path
     word-spacing="0"
     letter-spacing="0"
     font-size="3.772"
     font-weight="400"
     aria-label="2"
     d="m 22.7811,12.320765 h 0.218877 q 0.424953,0 0.495352,0.796148 v 0.02816 q 0,1.091824 -1.29278,2.310366 v 0.05504 q 0.02944,0 0.02944,0.02816 1.34782,-0.111359 1.733094,-0.111359 l 0.08192,0.111359 v 0.165117 q 0,0.190717 -1.047024,0.190717 0,0.03584 -1.510378,0.111359 -0.125438,-0.0448 -0.193277,-0.166398 v -0.163837 q 0,-0.02816 0.907507,-0.825588 0.825587,-0.943346 0.853747,-1.621736 v -0.166397 q 0,-0.248317 -0.166398,-0.328956 -0.322555,0 -0.934386,0.71423 h -0.191997 q -0.0448,0 -0.110078,-0.108799 v -0.163839 q 0.65919,-0.853747 1.126383,-0.853747 z"
     id="path104"
     inkscape:connector-curvature="0"
     style="font-weight:400;font-size:3.77200007px;font-family:'Casual Caps';letter-spacing:0;word-spacing:0;stroke-width:1" />
  <path
     word-spacing="0"
     letter-spacing="0"
     font-size="3.772"
     font-weight="400"
     aria-label="3"
     d="m 37.027287,12.368124 h 0.248317 q 0.217597,0 0.217597,0.220157 v 0.110078 q -0.183038,0.229117 -1.015025,0.908786 l -0.02816,0.05376 q 0.935666,0.541432 0.935666,1.402859 0,0.376314 -0.386554,0.796148 -0.381434,0.330235 -0.934386,0.330235 -0.67327,0 -1.100784,-0.66047 v -0.136958 q 0,-0.0384 0.140798,-0.135678 h 0.08192 q 0.127998,0 0.328955,0.272636 0.307195,0.221436 0.522232,0.221436 h 0.08192 q 0.825588,-0.117758 0.825588,-0.742389 0,-0.447993 -0.495353,-0.824307 -0.605431,-0.217597 -0.605431,-0.441594 v -0.05376 q 0,-0.186877 0.770549,-0.771828 v -0.0256 l -0.02816,-0.05632 q -0.945906,0.165117 -1.181422,0.165117 h -0.05376 q -0.148477,0 -0.193277,-0.108798 v -0.191997 q 0,-0.119038 0.849908,-0.194557 0.62335,-0.136958 1.018864,-0.136958 z"
     id="path106"
     inkscape:connector-curvature="0"
     style="font-weight:400;font-size:3.77200007px;font-family:'Casual Caps';letter-spacing:0;word-spacing:0;stroke-width:1" />
  <path
     d="m 49.691418,10.709269 c -3.627465,0 -6.568861,2.864597 -6.568861,6.398624 0.0013,0.108799 0.0051,0.217597 0.0128,0.325115 h -0.0013 l 0.06912,0.645111 c 0.0128,0.0832 0.02816,0.166397 0.04608,0.249596 l 2.320605,12.863808 h 0.0051 c 0.345595,2.073569 2.184927,3.599306 4.341695,3.599306 2.430684,0 4.400574,-1.919971 4.400574,-4.286656 l -0.0026,-0.04992 1.804773,-12.0395 c 0.0512,-0.245757 0.0896,-0.494073 0.111358,-0.743669 l 0.02176,-0.408314 v -0.0026 l 0.0064,-0.153598 c 0,-3.532747 -2.940116,-6.398624 -6.567582,-6.398624 z"
     id="path108"
     inkscape:connector-curvature="0"
     style="fill:url(#k);stroke-width:1" />
  <path
     d="m 49.691418,11.25966 a 6.1055089,6.1055089 0 0 0 -6.106788,6.105509 c 0,0.104959 0.0051,0.208637 0.01152,0.312316 h -0.0013 l 0.064,0.614391 0.04224,0.238076 2.158048,12.276297 h 0.0051 a 4.090819,4.090819 0 0 0 8.127878,-0.65535 l -0.0026,-0.04736 1.676775,-11.490388 c 0.04864,-0.234237 0.08448,-0.471033 0.104959,-0.71039 l 0.02048,-0.389114 -0.0013,-0.0026 0.0064,-0.145918 A 6.1055089,6.1055089 0 0 0 49.691321,11.25962 Z"
     id="path110"
     inkscape:connector-curvature="0"
     style="fill:url(#l);stroke-width:1" />
  <path
     word-spacing="0"
     letter-spacing="0"
     font-size="3.772"
     font-weight="400"
     aria-label="4"
     d="m 50.542606,12.441083 q 0.115198,0.0384 0.165117,0.136958 v 0.111358 q -0.136958,1.003505 -0.220156,1.894372 l 0.0832,0.0576 h 0.218877 l 0.165118,-0.02816 q 0.103678,0 0.221436,0.165118 v 0.110078 q 0,0.0384 -0.165117,0.166398 h -0.495353 q -0.0384,0 -0.08192,0.08192 -0.02816,0.575991 -0.02816,0.796148 -0.08064,0.193277 -0.248316,0.193277 -0.0896,0 -0.191998,-0.191997 0.02688,-0.66047 0.05632,-0.797428 0,-0.0768 -0.936946,-0.111359 -0.221437,-0.07296 -0.330236,-0.247036 v -0.166398 q 0,-0.275195 0.962546,-1.31838 0.363515,-0.444153 0.605431,-0.825588 0.02432,0 0.220157,-0.0256 z m -1.292781,2.143968 q 0.139518,0.05632 0.495353,0.05632 h 0.218876 q 0.136958,0 0.166398,-0.935666 0.02688,0 0.02688,-0.136958 l -0.05376,-0.02816 q -0.129278,0.06144 -0.770548,0.879347 -0.0832,0.107519 -0.0832,0.165118 z"
     id="path112"
     inkscape:connector-curvature="0"
     style="font-weight:400;font-size:3.77200007px;font-family:'Casual Caps';letter-spacing:0;word-spacing:0;stroke-width:1" />
  <path
     d="m 63.220817,10.64911 c -3.627466,0 -6.568862,2.864597 -6.568862,6.398624 0.0013,0.108798 0.0051,0.217597 0.0128,0.325115 h -0.0013 l 0.06912,0.645111 c 0.0128,0.0832 0.02816,0.166397 0.04608,0.249596 l 2.320605,12.863808 h 0.0051 c 0.345595,2.073569 2.184927,3.599306 4.341695,3.599306 2.430684,0 4.400575,-1.919971 4.400575,-4.286656 l -0.0026,-0.04992 1.804773,-12.0395 c 0.0512,-0.245757 0.0896,-0.494073 0.111358,-0.743669 l 0.02176,-0.408314 v -0.0026 l 0.0064,-0.153598 c 0,-3.532747 -2.940117,-6.398624 -6.567582,-6.398624 z"
     id="path114"
     inkscape:connector-curvature="0"
     style="fill:url(#m);stroke-width:1" />
  <path
     d="m 63.220817,11.199501 a 6.1055089,6.1055089 0 0 0 -6.106789,6.105509 c 0,0.104959 0.0051,0.208637 0.01152,0.312316 h -0.0013 l 0.064,0.61439 0.04224,0.238077 2.158048,12.276297 h 0.0051 a 4.090819,4.090819 0 0 0 8.127878,-0.655351 l -0.0026,-0.04736 1.676775,-11.490388 c 0.04864,-0.234237 0.08448,-0.471033 0.104959,-0.71039 l 0.02048,-0.389114 -0.0013,-0.0026 0.0064,-0.145918 A 6.1055089,6.1055089 0 0 0 63.220719,11.19946 Z"
     id="path116"
     inkscape:connector-curvature="0"
     style="fill:url(#n);stroke-width:1" />
  <path
     word-spacing="0"
     letter-spacing="0"
     font-size="3.772"
     font-weight="400"
     aria-label="5"
     d="m 64.372799,12.355324 q 0.112639,0.0384 0.165118,0.136958 V 12.6574 q 0,0.0384 -0.136958,0.139517 -1.567977,0 -1.567977,0.165118 -0.0832,0.221437 -0.0832,0.412154 v 0.05376 q 0,0.0896 0.797428,0.193277 1.100783,0.447994 1.100783,1.235182 v 0.248316 q 0,0.638711 -0.688629,0.963826 -0.117759,0.05504 -0.495353,0.0832 -0.65279,0 -1.015025,-0.413433 v -0.165118 q 0,-0.0448 0.107519,-0.110078 h 0.111358 q 0.563191,0.247036 0.68607,0.247036 h 0.139518 q 0.714229,-0.07296 0.714229,-0.605431 0.02816,0 0.02816,-0.136958 0,-0.761589 -1.155822,-0.990705 -0.549112,0 -0.770549,-0.300796 v -0.276475 q 0.08192,-0.934387 0.468473,-0.934387 0,-0.06272 1.594856,-0.110078 z"
     id="path118"
     inkscape:connector-curvature="0"
     style="font-weight:400;font-size:3.77200007px;font-family:'Casual Caps';letter-spacing:0;word-spacing:0;stroke-width:1" />
  <path
     d="m 76.871813,10.469912 c -3.627466,0 -6.568862,2.864597 -6.568862,6.398625 0.0013,0.108798 0.0051,0.217596 0.0128,0.325115 h -0.0013 l 0.06912,0.64511 c 0.0128,0.0832 0.02816,0.166398 0.04608,0.249597 l 2.320605,12.863808 h 0.0051 c 0.345595,2.073569 2.184928,3.599306 4.341696,3.599306 2.430683,0 4.400574,-1.919971 4.400574,-4.286656 l -0.0026,-0.04992 1.804773,-12.039501 c 0.0512,-0.245756 0.0896,-0.494072 0.111358,-0.743669 l 0.02176,-0.408314 v -0.0026 l 0.0064,-0.153597 c 0,-3.532748 -2.940116,-6.398625 -6.567582,-6.398625 z"
     id="path120"
     inkscape:connector-curvature="0"
     style="fill:url(#o);stroke-width:1" />
  <path
     d="m 76.871813,11.020304 a 6.1055089,6.1055089 0 0 0 -6.106789,6.105509 c 0,0.104958 0.0051,0.208637 0.01152,0.312315 h -0.0013 l 0.064,0.614391 0.04224,0.238077 2.158048,12.276296 h 0.0051 a 4.090819,4.090819 0 0 0 8.127879,-0.65535 l -0.0026,-0.04736 1.676775,-11.490389 c 0.04864,-0.234236 0.08448,-0.471033 0.104958,-0.710389 l 0.02048,-0.389114 -0.0013,-0.0026 0.0064,-0.145918 a 6.1055089,6.1055089 0 0 0 -6.105509,-6.105509 z"
     id="path122"
     inkscape:connector-curvature="0"
     style="fill:url(#p);stroke-width:1" />
  <path
     word-spacing="0"
     letter-spacing="0"
     font-size="3.772"
     font-weight="400"
     aria-label="6"
     d="m 77.7422,12.183807 h 0.138238 q 0.221437,0 0.221437,0.221436 v 0.08192 q 0,0.117758 -0.413434,0.165118 -0.885747,0.520952 -1.265901,1.704934 v 0.05376 l 0.0832,0.05376 h 0.191998 q 0.849907,0 1.127663,0.66047 0.02816,0.108798 0.02816,0.221436 v 0.0256 q 0,0.537592 -0.575991,0.771829 l -0.166398,0.02816 h -0.221436 q -0.554232,0 -0.879347,-0.825588 -0.05376,-0.136958 -0.08192,-0.523512 0,-1.33374 1.373419,-2.446043 0.248317,-0.193277 0.441594,-0.193277 z m -1.37342,2.777558 q 0,0.295676 0.302076,0.65919 0.217597,0.138238 0.358395,0.138238 0.383994,-0.110078 0.383994,-0.358394 v -0.08192 q 0,-0.313595 -0.742389,-0.440314 h -0.136958 q -0.09856,0 -0.165118,0.08192 z"
     id="path124"
     inkscape:connector-curvature="0"
     style="font-weight:400;font-size:3.77200007px;font-family:'Casual Caps';letter-spacing:0;word-spacing:0;stroke-width:1" />
  <g
     word-spacing="0"
     letter-spacing="0"
     font-size="2.799"
     font-weight="400"
     style="font-weight:400;font-size:2.79900002px;line-height:1.25;font-family:'Casual Caps';letter-spacing:0;word-spacing:0;fill:#c8c8c8;stroke-width:0.13672079"
     aria-label="CLEAR"
     id="g130"
     transform="matrix(1.2799809,0,0,1.2799809,0,-0.09505041)">
    <path
       style="-inkscape-font-specification:'Casual Caps';stroke-width:0.13672079"
       d="m 15.961,57.361 0.093,-0.02 q 0.226,-0.02 0.267,0.169 -0.01,0.104 -0.054,0.127 -0.094,0.02 -0.145,-0.009 -0.051,-0.03 -0.06,-0.027 l -0.03,0.006 q -0.262,0.127 -0.468,0.545 -0.212,0.515 -0.142,0.83 l 0.007,0.03 q 0.146,0.41 0.597,0.343 0.331,-0.073 0.669,-0.377 0.03,-0.018 0.057,-0.024 0.078,-0.017 0.13,0.065 0.018,0.078 -0.032,0.163 -0.05,0.084 -0.483,0.31 -0.118,0.06 -0.258,0.09 l -0.031,0.007 q -0.546,0.12 -0.815,-0.294 -0.068,-0.156 -0.087,-0.242 -0.144,-0.65 0.422,-1.416 0.208,-0.242 0.363,-0.276 z m 0.738,-0.244 q 0.027,-0.087 0.109,-0.105 h 0.002 q 0.083,-0.018 0.126,0.068 l 0.024,0.11 0.306,1.826 q 0.057,0.194 0.162,0.171 0.004,0 0.006,-0.003 0.111,-0.03 0.246,-0.145 0.027,-0.017 0.052,-0.023 0.047,-0.01 0.082,0.023 0.032,0.03 0.04,0.067 0.006,0.026 0,0.057 -0.134,0.225 -0.38,0.28 l -0.025,0.005 q -0.162,0.036 -0.255,-0.027 -0.099,-0.068 -0.153,-0.315 l -0.002,-0.008 q -0.09,-0.403 -0.34,-1.981 z"
       id="path126"
       inkscape:connector-curvature="0" />
    <path
       style="-inkscape-font-specification:'Casual Caps';stroke-width:0.13672079"
       d="m 17.937,56.778 0.156,-0.035 q 0.342,-0.075 0.383,0.112 l 0.007,0.03 q 0.005,0.022 -0.06,0.096 l -0.063,0.014 q -0.192,-0.023 -0.308,0.002 -0.393,0.087 -0.396,0.35 -0.05,0.145 0.012,0.65 l 0.035,0.008 q 0.336,-0.172 0.445,-0.196 0.022,-0.005 0.096,0.06 l 0.017,0.077 q 0.015,0.067 -0.222,0.18 -0.279,0.137 -0.27,0.174 l 0.003,0.016 q 0.163,0.511 0.425,0.526 0.09,-0.003 0.128,-0.011 0.019,-0.004 0.28,-0.143 0.068,0.007 0.11,0.057 l 0.02,0.093 q -0.07,0.163 -0.312,0.216 l -0.124,0.027 q -0.486,0.108 -0.763,-0.647 -0.049,-0.146 -0.081,-0.293 l -0.007,-0.03 q -0.184,-0.834 0.118,-1.17 0.15,-0.114 0.371,-0.163 z m 0.962,-0.311 q 0.201,-0.044 0.525,0.75 0.284,0.541 0.715,1.54 l 0.007,0.031 q -0.023,0.086 -0.107,0.105 -0.126,0.028 -0.253,-0.336 -0.051,-0.119 -0.106,-0.107 -0.58,0.256 -0.568,0.305 0.033,0.15 -0.062,0.242 l -0.077,0.017 q -0.021,0.005 -0.096,-0.06 -0.16,-1.324 -0.15,-2.008 0.002,-0.441 0.172,-0.479 z m 0.092,0.487 q 0.002,1.119 0.08,1.467 0.032,0.01 0.05,0.006 0.438,-0.18 0.482,-0.254 -0.563,-1.23 -0.612,-1.22 z m 1.236,-0.616 0.064,-0.014 q 0.616,-0.136 1.013,0.151 0.042,0.044 0.051,0.087 l 0.02,0.093 q 0.056,0.248 -0.73,0.684 -0.238,0.107 -0.229,0.148 0.01,0.042 0.436,0.198 0.815,0.238 0.932,0.3 l 0.022,0.028 0.017,0.077 q -0.023,0.088 -0.107,0.107 -0.737,-0.157 -1.338,-0.44 -0.04,0.01 -0.224,-0.13 l -0.016,0.003 -0.009,0.035 q 0.22,0.548 0.255,0.711 l 0.035,0.156 q -0.023,0.086 -0.107,0.105 -0.063,0.014 -0.127,-0.053 L 20.182,58.568 Q 20.157,58.456 19.773,57.384 L 19.746,57.26 q -0.172,-0.778 0.482,-0.922 z m -0.245,0.804 0.061,0.28 q 0.013,0.031 0.038,0.026 0.057,-0.16 0.608,-0.429 0.377,-0.224 0.416,-0.336 -0.042,-0.187 -0.795,-0.119 -0.408,0.142 -0.34,0.45 -0.012,0.02 0.012,0.128 z"
       id="path128"
       inkscape:connector-curvature="0" />
  </g>
  <path
     d="m 42.544005,58.732872 c 0,0 -3.668425,2.466523 -5.836713,3.210192 -2.168287,0.744949 -6.169508,1.442539 -6.169508,1.442539 0,0 0.751349,0.837107 2.168288,0.744948 1.416939,-0.09344 3.417549,-0.232956 3.417549,-0.232956 0,0 -2.66748,1.582056 -5.169843,1.628136 -2.501083,0.04736 -6.252707,-0.465913 -6.252707,-0.465913 0,0 -0.249596,0.744949 1.167343,1.117423 1.418219,0.371194 5.670315,0.232956 5.670315,0.232956 0,0 -5.921191,2.790359 -12.423494,2.04669 -6.503583,-0.743669 -11.006556,-3.628746 -11.006556,-3.628746 0,0 3.417549,1.255661 6.420384,0.65151 3.001555,-0.605431 4.670651,-1.721574 4.670651,-1.721574 0,0 -1.584617,0.279036 -2.502363,0.325115 -0.916466,0.04736 -2.416604,-0.04608 -2.416604,-0.04608 0,0 1.751014,-1.628136 4.66937,-2.00061 2.918357,-0.372475 8.253317,-0.280316 8.253317,-0.280316 0,0 -3.750344,-0.976626 -4.835768,-1.162223 -1.082864,-0.186877 -3.916741,-0.418553 -3.916741,-0.418553 l 1.665255,-0.558072 c 0,0 -1.166063,-0.558072 -3.000275,-0.372475 a 25.817215,25.817215 0 0 0 -3.169233,0.511993 c 0,0 0.332795,-0.605431 1.251821,-0.744949 0.915187,-0.139518 2.333405,-0.325115 2.333405,-0.325115 0,0 -2.62652,-0.838388 -5.460398,-0.371195 -2.8364378,0.464633 -4.835768,1.464298 -4.835768,1.464298 0,0 1.7087745,-2.604761 5.626796,-3.653065 3.919302,-1.045744 6.503583,-1.022705 8.296836,-0.883187 1.791974,0.140798 4.752569,0.581111 6.545823,1.255661 1.791973,0.67583 2.333405,0.954866 2.333405,0.954866 0,0 -3.751624,-0.582391 -4.918967,-0.65279 -1.167342,-0.06912 -3.668425,0.186877 -3.668425,0.186877 0,0 2.375644,1.303021 5.209522,1.838053 2.836438,0.535032 6.128549,1.232621 8.630911,1.023984 2.501083,-0.209917 7.253652,-1.117423 7.253652,-1.117423 z"
     id="path132"
     inkscape:connector-curvature="0"
     style="fill:#ff6e0f;stroke:#950e00;stroke-width:0.18799999" />
  <path
     d="m 38.949819,59.957814 c -1.475818,0.248316 -2.242527,0.436473 -3.558347,0.546552 -2.974676,0.249596 -6.316706,-0.518393 -9.122424,-1.047025 -3.161553,-0.596471 -5.625516,-1.98141 -5.625516,-1.98141 a 1.1007836,0.64255041 0 0 1 0.563192,-1.100784 c 0,0 0.65023,-0.06656 1.451498,-0.124158 0.245756,-0.01792 0.509432,-0.0064 0.769268,-0.02048 -0.892146,-0.143357 -1.809893,-0.280315 -2.466523,-0.330235 -1.671655,-0.130558 -3.948741,-0.168957 -7.695245,0.831988 -1.180142,0.313595 -2.071009,0.810228 -2.833878,1.31966 0.465913,-0.111358 0.759029,-0.249596 1.285101,-0.336635 3.33691,-0.546552 6.287266,0.427514 6.287266,0.427514 a 1.1007836,0.64255041 0 0 1 0.568312,0.591351 c 1.241581,0.140798 2.186207,0.407034 2.186207,0.407034 a 1.1007836,0.64255041 0 0 1 0.349435,0.69375 c 0.67199,0.06912 1.015025,0.0768 1.514217,0.162557 0.71167,0.121598 1.863653,0.407034 2.946516,0.67711 1.082864,0.270076 2.02749,0.514552 2.02749,0.514552 a 1.1007836,0.64255041 0 0 1 -0.479993,1.228782 c 0,0 -5.381039,-0.06656 -7.98836,0.266236 -0.957426,0.121598 -1.747174,0.435194 -2.402525,0.755189 0.72447,-0.06144 2.100449,-0.276476 2.100449,-0.276476 a 1.1007836,0.64255041 0 0 1 1.148143,1.036784 c 0,0 -1.862372,1.245422 -5.140403,1.905892 -0.66303,0.133118 -1.308141,0.133118 -1.949411,0.145918 1.740774,0.65279 3.857862,1.30558 6.389664,1.594856 3.333071,0.381434 6.246307,-0.218877 8.444034,-0.870387 -0.811508,-0.02944 -1.652455,-0.009 -2.352605,-0.191997 -0.981745,-0.258556 -1.534697,-0.727029 -1.722854,-1.107184 -0.185597,-0.378874 -0.07424,-0.720629 -0.07424,-0.720629 a 1.1007836,0.64255041 0 0 1 1.33118,-0.501752 c 0,0 3.756744,0.491512 5.967271,0.449273 0.240637,-0.0038 0.537592,-0.151038 0.814068,-0.198397 C 30.251069,64.474866 29.5074,63.703038 29.5074,63.703038 a 1.1007836,0.64255041 0 0 1 0.66175,-0.913906 c 0,0 4.01274,-0.72191 5.928871,-1.37982 0.70143,-0.240636 1.836773,-0.872947 2.851798,-1.451498 z"
     id="path134"
     inkscape:connector-curvature="0"
     style="fill:#ffba1a;stroke:#ff8a0d;stroke-width:0.32600001;stroke-opacity:0.99500002" />
  <g
     word-spacing="0"
     letter-spacing="0"
     font-size="2.799"
     font-weight="400"
     style="font-weight:400;font-size:2.79900002px;line-height:1.25;font-family:'Casual Caps';letter-spacing:0;word-spacing:0;fill:#c8c8c8;stroke:#ca4c07;stroke-width:0.07500112;stroke-opacity:0.997"
     aria-label="LEN"
     id="g140"
     transform="matrix(1.2799809,0,0,1.2799809,0,-0.09505041)">
    <path
       style="-inkscape-font-specification:'Casual Caps';stroke-width:0.07500112"
       d="m 57.76,54.207 q 0.02,-0.09 0.1,-0.113 l 0.003,-10e-4 q 0.082,-0.021 0.131,0.06 l 0.031,0.108 0.427,1.803 q 0.07,0.19 0.173,0.16 l 0.006,-0.004 q 0.109,-0.038 0.235,-0.161 0.026,-0.019 0.05,-0.027 0.046,-0.013 0.084,0.018 0.034,0.026 0.045,0.063 0.007,0.027 0.004,0.058 -0.119,0.233 -0.36,0.304 l -0.025,0.008 q -0.16,0.046 -0.256,-0.01 -0.104,-0.062 -0.175,-0.304 l -0.002,-0.008 q -0.116,-0.396 -0.47,-1.954 z"
       id="path136"
       inkscape:connector-curvature="0" />
    <path
       style="-inkscape-font-specification:'Casual Caps';stroke-width:0.07500112"
       d="m 58.972,53.785 0.154,-0.044 q 0.336,-0.099 0.39,0.086 l 0.008,0.03 q 0.006,0.02 -0.053,0.1 l -0.062,0.017 q -0.194,-0.01 -0.308,0.023 -0.386,0.113 -0.372,0.374 -0.04,0.15 0.055,0.647 l 0.037,0.007 q 0.323,-0.194 0.43,-0.225 0.021,-0.006 0.1,0.054 l 0.023,0.075 q 0.019,0.066 -0.21,0.196 -0.269,0.154 -0.258,0.19 l 0.004,0.016 q 0.197,0.5 0.46,0.497 0.088,-0.008 0.126,-0.02 0.019,-0.005 0.27,-0.161 0.069,0.002 0.113,0.05 l 0.027,0.09 q -0.06,0.168 -0.297,0.237 l -0.122,0.035 q -0.477,0.14 -0.805,-0.594 -0.058,-0.143 -0.1,-0.287 l -0.009,-0.03 q -0.24,-0.82 0.04,-1.175 0.141,-0.124 0.36,-0.188 z m 1.898,-0.622 q 0.077,0.007 0.133,0.062 l 0.009,0.032 q 0.023,0.706 0.153,2.113 L 61.105,55.453 61,55.486 q -0.127,0.036 -0.757,-1.108 -0.094,-0.14 -0.12,-0.131 -0.04,0.318 0.12,1.376 0.084,0.29 -0.023,0.322 l -0.03,0.01 q -0.062,0.018 -0.13,-0.046 -0.177,-0.606 -0.205,-1.783 0.024,-0.257 0.162,-0.297 0.196,-0.057 0.509,0.549 l 0.314,0.506 0.015,-0.004 q 0.024,-0.032 -0.07,-0.926 -0.035,-0.698 0.011,-0.751 z"
       id="path138"
       inkscape:connector-curvature="0" />
  </g>
  <path
     d="m 12.827969,48.17687 c 0,0 3.668425,-2.466524 5.836712,-3.210193 2.168288,-0.744948 6.169508,-1.442538 6.169508,-1.442538 0,0 -0.751348,-0.837108 -2.168287,-0.744949 -1.416939,0.09344 -3.417549,0.232957 -3.417549,0.232957 0,0 2.66748,-1.582057 5.169843,-1.628136 2.501082,-0.04736 6.252706,0.465913 6.252706,0.465913 0,0 0.249597,-0.744949 -1.167342,-1.117423 -1.418219,-0.371195 -5.670316,-0.232957 -5.670316,-0.232957 0,0 5.921192,-2.790358 12.423495,-2.046689 6.503583,0.743669 11.006556,3.628746 11.006556,3.628746 0,0 -3.417549,-1.255662 -6.420384,-0.651511 -3.001556,0.605431 -4.669371,1.721575 -4.669371,1.721575 0,0 1.584617,-0.279036 2.502363,-0.325116 0.916466,-0.04736 2.416604,0.04608 2.416604,0.04608 0,0 -1.751014,1.628135 -4.669371,2.00061 -2.918356,0.372474 -8.253316,0.280316 -8.253316,0.280316 0,0 3.750344,0.976625 4.835767,1.162222 1.082864,0.186878 3.916742,0.418554 3.916742,0.418554 l -1.665255,0.558072 c 0,0 1.166062,0.558071 3.000275,0.372474 a 25.817215,25.817215 0 0 0 3.169233,-0.511992 c 0,0 -0.332795,0.605431 -1.251821,0.744949 -0.915187,0.139518 -2.333406,0.325115 -2.333406,0.325115 0,0 2.626521,0.838387 5.460399,0.371194 2.836438,-0.464633 4.835768,-1.464298 4.835768,-1.464298 0,0 -1.708775,2.604761 -5.626796,3.653066 -3.919302,1.045744 -6.503583,1.022704 -8.296837,0.883186 -1.791973,-0.140797 -4.752569,-0.581111 -6.545822,-1.255661 -1.791973,-0.67583 -2.333405,-0.954866 -2.333405,-0.954866 0,0 3.751624,0.582392 4.918967,0.652791 1.167342,0.06912 3.668425,-0.186877 3.668425,-0.186877 0,0 -2.375645,-1.303021 -5.209522,-1.838053 -2.836438,-0.535032 -6.128549,-1.232622 -8.630912,-1.023985 -2.501082,0.209917 -7.253651,1.117424 -7.253651,1.117424 z"
     id="path142"
     inkscape:connector-curvature="0"
     style="fill:#ff6e0f;stroke:#950e00;stroke-width:0.18799999" />
  <path
     d="m 16.422155,46.951928 c 1.475818,-0.248316 2.242526,-0.436474 3.558347,-0.546552 2.974675,-0.249596 6.316706,0.518392 9.122424,1.047024 3.161553,0.596471 5.625516,1.981411 5.625516,1.981411 a 1.1007836,0.64255041 0 0 1 -0.563192,1.100783 c 0,0 -0.65023,0.06656 -1.451498,0.124159 -0.245756,0.01792 -0.509433,0.0064 -0.769269,0.02048 0.892147,0.143358 1.809893,0.280316 2.466524,0.330235 1.671655,0.130558 3.948741,0.168958 7.695245,-0.831987 1.180142,-0.313596 2.071009,-0.810228 2.833877,-1.319661 -0.465913,0.111359 -0.759028,0.249597 -1.2851,0.336635 -3.336911,0.546552 -6.287267,-0.427513 -6.287267,-0.427513 A 1.1007836,0.64255041 0 0 1 36.799451,48.17559 c -1.241582,-0.140798 -2.186208,-0.407034 -2.186208,-0.407034 a 1.1007836,0.64255041 0 0 1 -0.349434,-0.69375 c -0.67199,-0.06912 -1.015025,-0.0768 -1.514218,-0.162558 -0.711669,-0.121598 -1.863652,-0.407034 -2.946516,-0.677109 -1.082864,-0.270076 -2.027489,-0.514553 -2.027489,-0.514553 a 1.1007836,0.64255041 0 0 1 0.479992,-1.228781 c 0,0 5.38104,0.06656 7.988361,-0.266236 0.957426,-0.121599 1.747174,-0.435194 2.402524,-0.755189 -0.724469,0.06144 -2.100448,0.276476 -2.100448,0.276476 a 1.1007836,0.64255041 0 0 1 -1.148143,-1.036785 c 0,0 1.862372,-1.245421 5.140403,-1.905891 0.66303,-0.133118 1.308141,-0.133118 1.949411,-0.145918 -1.740774,-0.652791 -3.857862,-1.305581 -6.389665,-1.594856 -3.33307,-0.381435 -6.246306,0.218876 -8.444034,0.870387 0.811508,0.02944 1.652456,0.009 2.352605,0.191997 0.981746,0.258556 1.534697,0.727029 1.722855,1.107183 0.185597,0.378875 0.07424,0.720629 0.07424,0.720629 a 1.1007836,0.64255041 0 0 1 -1.33118,0.501753 c 0,0 -3.756744,-0.491513 -5.967271,-0.449273 -0.240636,0.0038 -0.537592,0.151037 -0.814068,0.198397 1.429739,0.230396 2.173408,1.002225 2.173408,1.002225 a 1.1007836,0.64255041 0 0 1 -0.66175,0.913906 c 0,0 -4.01274,0.721909 -5.928872,1.379819 -0.701429,0.240637 -1.836772,0.872947 -2.851797,1.451499 z"
     id="path144"
     inkscape:connector-curvature="0"
     style="fill:#ffba1a;stroke:#ff8a0d;stroke-width:0.32600001;stroke-opacity:0.99500002" />
  <g
     style="line-height:1.25;stroke-width:0.78126168"
     id="g148"
     transform="matrix(1.2799809,0,0,1.2799809,0,-0.09505041)">
    <path
       style="font-weight:400;font-size:2.79900002px;font-family:'Casual Caps';-inkscape-font-specification:'Casual Caps';letter-spacing:0;word-spacing:0;fill:#c8c8c8;stroke:#ca4c07;stroke-width:0.07500112;stroke-opacity:0.997"
       d="m 35.385,40.616 0.091,-0.03 q 0.223,-0.04 0.283,0.142 0,0.105 -0.042,0.132 -0.091,0.03 -0.145,0.006 -0.054,-0.025 -0.062,-0.022 l -0.03,0.01 q -0.248,0.151 -0.412,0.587 -0.16,0.534 -0.06,0.84 l 0.01,0.03 q 0.185,0.393 0.628,0.283 0.322,-0.105 0.628,-0.441 0.028,-0.02 0.055,-0.03 0.076,-0.024 0.137,0.052 0.024,0.076 -0.017,0.165 -0.042,0.089 -0.45,0.356 -0.112,0.071 -0.249,0.116 l -0.03,0.01 q -0.531,0.173 -0.84,-0.214 -0.083,-0.148 -0.11,-0.231 -0.207,-0.634 0.281,-1.45 0.184,-0.262 0.334,-0.311 z m 0.728,-0.472 q 0.088,-0.029 0.17,0.06 0.112,0.496 0.366,1.273 l 0.044,0.137 0.045,0.035 0.102,-0.049 0.5,-0.163 q 0.06,-0.02 -0.025,-0.278 -0.126,-0.386 -0.369,-1.237 0.04,-0.063 0.09,-0.08 l 0.016,-0.005 q 0.124,-0.029 0.155,0.066 0.097,0.398 0.594,2.02 0.019,0.057 -0.052,0.15 l -0.03,0.011 q -0.125,0.03 -0.156,-0.066 -0.06,-0.235 -0.088,-0.323 -0.01,-0.031 -0.304,0.049 -0.27,0.103 -0.359,0.133 -0.017,0.047 -0.01,0.07 0.146,0.394 0.17,0.466 l -0.058,0.084 -0.075,0.025 q -0.108,-0.022 -0.14,-0.12 -0.071,-0.22 -0.209,-0.587 -0.368,-1.18 -0.415,-1.424 -0.032,-0.052 -0.059,-0.132 0.056,-0.102 0.097,-0.115 z m 1.646,-0.555 q 0.196,-0.064 0.596,0.694 0.335,0.512 0.863,1.462 l 0.01,0.031 q -0.014,0.088 -0.096,0.115 -0.124,0.04 -0.285,-0.31 -0.063,-0.112 -0.116,-0.095 -0.552,0.31 -0.536,0.359 0.048,0.147 -0.037,0.246 l -0.076,0.025 q -0.02,0.007 -0.1,-0.05 -0.29,-1.302 -0.347,-1.984 -0.041,-0.439 0.124,-0.493 z m 0.14,0.475 q 0.111,1.114 0.222,1.453 0.034,0.006 0.05,0 0.42,-0.221 0.456,-0.3 -0.68,-1.169 -0.729,-1.153 z m 2.151,-1.191 q 0.077,0.004 0.135,0.057 l 0.01,0.032 q 0.046,0.705 0.22,2.108 l -0.057,0.086 -0.105,0.034 q -0.125,0.04 -0.79,-1.083 -0.099,-0.136 -0.126,-0.128 -0.029,0.32 0.163,1.372 0.095,0.288 -0.012,0.323 l -0.03,0.01 q -0.06,0.02 -0.131,-0.04 -0.196,-0.6 -0.261,-1.777 0.015,-0.257 0.153,-0.302 0.194,-0.063 0.526,0.533 l 0.33,0.496 0.015,-0.005 q 0.022,-0.032 -0.1,-0.923 -0.057,-0.696 -0.011,-0.751 z"
       word-spacing="0"
       letter-spacing="0"
       font-size="2.799"
       font-weight="400"
       aria-label="CHAN"
       id="path146"
       inkscape:connector-curvature="0" />
  </g>
  <g
     style="line-height:1.25;stroke-width:0.78126168"
     id="g152"
     transform="matrix(1.2799809,0,0,1.2799809,0,-0.09505041)">
    <path
       style="font-weight:400;font-size:2.79900002px;font-family:'Casual Caps';-inkscape-font-specification:'Casual Caps';letter-spacing:0;word-spacing:0;fill:#c8c8c8;stroke-width:0.78126168"
       d="m 47.337,57.006 0.093,-0.022 q 0.162,-0.039 0.905,0.637 0.425,0.409 0.51,0.764 0.121,0.51 -0.67,0.897 -0.13,0.046 -0.215,0.067 -0.114,0 -0.13,-0.068 -0.367,-1.19 -0.525,-1.857 l -0.04,-0.17 q -0.034,-0.14 0.072,-0.248 z m 0.205,0.312 -0.008,0.035 q 0.2,0.77 0.48,1.672 0.045,0.022 0.07,0.016 0.587,-0.286 0.51,-0.613 L 48.59,58.412 q -0.095,-0.395 -1.013,-1.085 z m 1.78,-0.817 0.155,-0.037 q 0.34,-0.081 0.385,0.105 l 0.007,0.03 q 0.005,0.022 -0.058,0.097 l -0.063,0.015 q -0.193,-0.02 -0.309,0.008 -0.39,0.093 -0.39,0.355 -0.048,0.147 0.023,0.65 l 0.036,0.008 q 0.332,-0.178 0.441,-0.203 0.022,-0.006 0.097,0.058 l 0.019,0.077 q 0.015,0.067 -0.22,0.184 -0.276,0.14 -0.267,0.178 l 0.003,0.016 q 0.172,0.508 0.435,0.519 0.088,-0.004 0.127,-0.014 0.019,-0.004 0.277,-0.147 0.069,0.006 0.111,0.055 l 0.022,0.093 q -0.067,0.164 -0.308,0.221 l -0.124,0.03 q -0.484,0.115 -0.773,-0.635 -0.052,-0.146 -0.087,-0.292 l -0.007,-0.03 q -0.198,-0.831 0.099,-1.172 0.148,-0.116 0.369,-0.169 z m 0.629,-0.084 q 0.025,-0.087 0.106,-0.107 h 0.003 q 0.083,-0.019 0.127,0.066 l 0.026,0.11 0.335,1.82 q 0.06,0.194 0.165,0.169 l 0.007,-0.003 q 0.11,-0.032 0.242,-0.15 0.027,-0.017 0.052,-0.023 0.047,-0.01 0.083,0.021 0.032,0.03 0.04,0.067 0.007,0.026 0.002,0.057 -0.13,0.228 -0.375,0.286 l -0.025,0.006 q -0.162,0.038 -0.256,-0.024 -0.1,-0.066 -0.158,-0.312 l -0.002,-0.008 q -0.096,-0.401 -0.372,-1.975 z"
       word-spacing="0"
       letter-spacing="0"
       font-size="2.799"
       font-weight="400"
       aria-label="DEL"
       id="path150"
       inkscape:connector-curvature="0" />
  </g>
  <g
     style="line-height:1.25;stroke-width:0.78126168"
     id="g156"
     transform="matrix(1.2799809,0,0,1.2799809,0,-0.09505041)">
    <path
       style="font-weight:400;font-size:2.79900002px;font-family:'Casual Caps';-inkscape-font-specification:'Casual Caps';letter-spacing:0;word-spacing:0;fill:#c8c8c8;stroke-width:0.78126168"
       d="m 58.812,70.72 0.078,-0.018 q 0.389,-0.088 0.537,0.057 l 0.014,0.063 q 0.005,0.02 -0.06,0.095 l -0.062,0.014 q -0.32,-0.008 -0.438,0.019 -0.369,0.084 -0.442,0.427 -0.02,0.197 0.023,0.388 l 0.032,0.14 q 0.025,0.11 0.07,0.163 0.283,-0.082 0.415,-0.112 l 0.093,-0.021 q 0.022,-0.005 0.097,0.06 l 0.018,0.078 q 0.02,0.093 -0.399,0.189 -0.152,0.052 -0.141,0.098 0.16,0.411 0.2,0.592 l 0.018,0.077 q 0.005,0.022 -0.06,0.095 l -0.078,0.018 q -0.088,-0.026 -0.099,-0.075 -0.319,-0.896 -0.368,-1.11 l -0.053,-0.233 q -0.131,-0.577 0.305,-0.886 0.126,-0.078 0.3,-0.118 z m 0.823,-0.057 0.342,-0.078 q 0.084,-0.02 0.142,0.049 l 0.02,0.093 -0.098,0.138 q 0.013,0.42 0.174,1.481 0.193,0.037 0.215,0.081 l 0.02,0.094 q 0.006,0.02 -0.059,0.095 l -0.016,0.003 q -0.212,0 -0.228,0.003 l -0.016,0.004 q -0.143,0.066 -0.163,0.07 l -0.03,0.008 Q 59.85,72.682 59.83,72.596 l -0.007,-0.03 q 0,-0.045 0.128,-0.16 -0.136,-1.167 -0.16,-1.485 -0.148,-0.015 -0.214,-0.08 l -0.01,-0.048 q 0.01,-0.076 0.068,-0.13 z m 0.562,-0.21 q 0.026,-0.087 0.107,-0.105 l 0.003,-0.001 q 0.083,-0.018 0.126,0.068 l 0.025,0.11 0.318,1.823 q 0.058,0.195 0.164,0.17 0.004,0 0.006,-0.002 0.11,-0.031 0.244,-0.147 0.027,-0.018 0.052,-0.023 0.047,-0.01 0.082,0.022 0.032,0.029 0.04,0.066 0.007,0.027 0.001,0.058 -0.132,0.226 -0.377,0.282 L 60.963,72.78 Q 60.8,72.817 60.707,72.754 60.607,72.687 60.552,72.44 L 60.55,72.432 Q 60.458,72.03 60.197,70.453 Z m 0.895,-0.204 q 0.026,-0.087 0.108,-0.106 h 0.002 q 0.083,-0.018 0.127,0.068 l 0.025,0.109 0.317,1.824 q 0.059,0.194 0.164,0.17 0.004,0 0.006,-0.003 0.111,-0.03 0.244,-0.146 0.027,-0.018 0.053,-0.024 0.046,-0.01 0.082,0.022 0.032,0.03 0.04,0.067 0.006,0.027 0,0.057 -0.131,0.227 -0.377,0.283 l -0.025,0.005 q -0.162,0.037 -0.255,-0.026 -0.1,-0.067 -0.156,-0.313 l -0.002,-0.008 q -0.092,-0.403 -0.353,-1.979 z"
       word-spacing="0"
       letter-spacing="0"
       font-size="2.799"
       font-weight="400"
       aria-label="FILL"
       id="path154"
       inkscape:connector-curvature="0" />
  </g>
  <g
     word-spacing="0"
     letter-spacing="0"
     font-size="2.799"
     font-weight="400"
     style="font-weight:400;font-size:2.79900002px;line-height:1.25;font-family:'Casual Caps';letter-spacing:0;word-spacing:0;fill:#c8c8c8;stroke-width:0.13672079"
     aria-label="RESET"
     id="g164"
     transform="matrix(1.2799809,0,0,1.2799809,0,-0.09505041)">
    <path
       style="-inkscape-font-specification:'Casual Caps';stroke-width:0.13672079"
       d="M 4.252,71.188 4.314,71.17 q 0.609,-0.167 1.02,0.1 0.044,0.041 0.056,0.083 l 0.025,0.093 q 0.068,0.245 -0.695,0.72 -0.232,0.12 -0.22,0.16 0.01,0.04 0.445,0.175 0.826,0.196 0.947,0.252 l 0.022,0.027 0.021,0.076 q -0.018,0.089 -0.1,0.111 -0.745,-0.118 -1.36,-0.37 -0.04,0.012 -0.23,-0.119 l -0.016,0.005 -0.007,0.036 q 0.247,0.535 0.291,0.696 l 0.043,0.154 Q 4.537,73.457 4.454,73.479 4.392,73.497 4.325,73.433 L 4.321,73.417 q -0.03,-0.11 -0.469,-1.16 L 3.818,72.134 Q 3.607,71.365 4.252,71.188 Z m -0.204,0.816 0.076,0.277 q 0.014,0.03 0.039,0.023 0.049,-0.163 0.585,-0.46 0.365,-0.243 0.398,-0.357 -0.051,-0.184 -0.8,-0.077 -0.4,0.163 -0.316,0.467 -0.012,0.02 0.018,0.127 z m 2.071,-1.398 0.155,-0.042 q 0.337,-0.093 0.388,0.091 l 0.008,0.03 q 0.006,0.022 -0.055,0.1 L 6.553,70.802 Q 6.36,70.788 6.245,70.82 5.858,70.927 5.867,71.19 5.825,71.337 5.913,71.837 l 0.036,0.007 Q 6.275,71.655 6.383,71.625 6.404,71.62 6.482,71.68 l 0.021,0.077 q 0.018,0.066 -0.212,0.192 -0.272,0.15 -0.262,0.187 l 0.004,0.015 q 0.19,0.502 0.452,0.504 0.09,-0.008 0.127,-0.018 0.019,-0.005 0.272,-0.157 0.069,0.003 0.113,0.05 l 0.025,0.093 q -0.062,0.166 -0.3,0.232 L 6.599,72.888 Q 6.119,73.021 5.804,72.281 5.748,72.138 5.708,71.993 L 5.699,71.963 Q 5.472,71.139 5.757,70.789 5.901,70.667 6.119,70.606 Z"
       id="path158"
       inkscape:connector-curvature="0" />
    <path
       style="-inkscape-font-specification:'Casual Caps';stroke-width:0.13672079"
       d="m 7.693,70.438 0.17,-0.047 q 0.34,-0.094 0.555,0.095 0.027,0.035 0.035,0.066 0.01,0.035 -0.004,0.066 -0.016,0.039 -0.072,0.054 -0.03,0.008 -0.07,0.01 -0.202,-0.11 -0.488,-0.03 -0.622,0.17 -0.94,0.787 -0.039,0.101 -0.015,0.186 0.033,0.122 0.44,0.01 0.408,-0.112 0.699,-0.136 0.291,-0.023 0.375,0.283 0.085,0.305 -0.342,0.678 -0.112,0.08 -0.217,0.11 L 7.772,72.582 Q 7.316,72.664 7.204,72.258 l -0.017,-0.06 q -0.023,-0.083 0.08,-0.126 l 0.02,-0.005 q 0.089,-0.025 0.126,0.08 0.04,0.118 0.112,0.169 0.07,0.05 0.148,0.029 l 0.092,-0.026 q 0.426,-0.256 0.368,-0.466 0,-0.008 -0.003,-0.017 -0.047,-0.169 -0.55,-0.037 -0.53,0.14 -0.702,0.134 -0.174,-0.008 -0.256,-0.224 -0.13,-0.468 0.601,-1.06 0.246,-0.15 0.47,-0.211 z M 9.081,69.79 9.236,69.748 q 0.337,-0.093 0.388,0.091 l 0.008,0.03 q 0.006,0.022 -0.055,0.1 L 9.515,69.985 Q 9.322,69.972 9.207,70.004 8.82,70.111 8.829,70.373 8.787,70.521 8.875,71.021 l 0.036,0.007 q 0.326,-0.189 0.434,-0.219 0.021,-0.006 0.099,0.055 l 0.021,0.077 q 0.018,0.066 -0.212,0.191 -0.272,0.15 -0.262,0.187 l 0.004,0.016 q 0.19,0.502 0.452,0.504 0.09,-0.008 0.127,-0.018 0.019,-0.005 0.272,-0.157 0.069,0.003 0.113,0.05 l 0.025,0.093 q -0.062,0.166 -0.3,0.232 L 9.561,72.072 Q 9.081,72.204 8.766,71.465 8.71,71.322 8.67,71.177 L 8.661,71.147 Q 8.434,70.323 8.719,69.972 8.863,69.851 9.081,69.79 Z"
       id="path160"
       inkscape:connector-curvature="0" />
    <path
       style="-inkscape-font-specification:'Casual Caps';stroke-width:0.13672079"
       d="m 10.714,69.588 q 0.081,0.052 0.083,0.06 l 0.022,0.078 q 0.025,0.092 -0.267,0.172 l -0.123,0.034 q -0.022,0.006 -0.033,0.059 0.018,0.067 0.174,0.695 0.053,0.19 0.354,1.043 -0.047,0.08 -0.105,0.096 -0.139,0.038 -0.249,-0.361 -0.106,-0.263 -0.222,-0.683 L 10.153,70.073 Q 10.147,70.053 10.096,70.04 10.044,70.054 9.77,70.179 L 9.724,70.192 Q 9.7,70.198 9.645,70.148 L 9.62,70.056 q -0.043,-0.154 1.094,-0.468 z"
       id="path162"
       inkscape:connector-curvature="0" />
  </g>
  <g
     style="line-height:1.25;stroke-width:0.78126168"
     id="g168"
     transform="matrix(1.2799809,0,0,1.2799809,0,-0.09505041)">
    <path
       style="font-weight:400;font-size:2.79900002px;font-family:'Casual Caps';-inkscape-font-specification:'Casual Caps';letter-spacing:0;word-spacing:0;fill:#c8c8c8;stroke-width:0.78126168"
       d="m 6.351,28.673 h 0.095 q 0.225,0.03 0.225,0.222 -0.033,0.1 -0.081,0.112 -0.096,0 -0.14,-0.04 Q 6.407,28.928 6.399,28.928 H 6.367 q -0.283,0.067 -0.574,0.43 -0.318,0.458 -0.318,0.781 v 0.031 q 0.054,0.43 0.51,0.464 0.338,0 0.733,-0.224 0.033,-0.011 0.062,-0.011 0.08,0 0.113,0.091 0,0.08 -0.067,0.152 -0.067,0.071 -0.538,0.198 -0.129,0.033 -0.272,0.033 H 5.985 q -0.56,0 -0.733,-0.463 -0.033,-0.167 -0.033,-0.255 0,-0.667 0.718,-1.291 0.255,-0.192 0.414,-0.192 z m 0.773,-0.08 q 0.045,-0.08 0.129,-0.08 h 0.003 q 0.084,0.002 0.108,0.095 v 0.112 l -0.096,1.85 q 0.014,0.202 0.122,0.202 0.004,0 0.006,-0.002 0.115,-0.005 0.271,-0.088 0.03,-0.011 0.056,-0.011 0.048,0 0.075,0.04 0.025,0.035 0.025,0.073 0,0.027 -0.013,0.056 -0.179,0.191 -0.43,0.191 H 7.354 q -0.167,0 -0.243,-0.082 -0.082,-0.087 -0.082,-0.34 v -0.008 q 0,-0.413 0.095,-2.008 z m 1.143,-0.08 q 0.098,0 0.11,0.128 v 0.015 q 0,0.126 -0.062,0.495 l 0.031,0.016 q 0.54,-0.417 0.701,-0.59 h 0.08 q 0.022,0 0.08,0.08 v 0.111 Q 9.129,28.862 8.411,29.454 8.267,29.613 8.267,29.692 8.345,29.908 8.968,30.857 9,30.908 9,30.952 v 0.032 q 0,0.021 -0.08,0.08 H 8.825 q -0.06,-0.033 -0.527,-0.782 0,-0.023 -0.047,-0.047 H 8.234 q -0.031,0.005 -0.031,0.031 0,0.237 -0.017,0.638 l -0.079,0.065 h -0.08 q -0.021,0 -0.08,-0.081 v -0.127 q 0,-0.94 0.208,-2.2 0.059,-0.048 0.112,-0.048 z"
       word-spacing="0"
       letter-spacing="0"
       font-size="2.799"
       font-weight="400"
       aria-label="CLK"
       id="path166"
       inkscape:connector-curvature="0" />
  </g>
  <g
     word-spacing="0"
     letter-spacing="0"
     font-size="2.799"
     font-weight="400"
     style="font-weight:400;font-size:2.79900002px;line-height:1.25;font-family:'Casual Caps';letter-spacing:0;word-spacing:0;fill:#c8c8c8;stroke-width:0.13672079"
     aria-label="LEN"
     id="g174"
     transform="matrix(1.2799809,0,0,1.2799809,0,-0.09505041)">
    <path
       style="-inkscape-font-specification:'Casual Caps';stroke-width:0.13672079"
       d="m 56.114,27.621 q 0.045,-0.08 0.128,-0.08 h 0.003 q 0.085,0.002 0.108,0.095 v 0.112 l -0.096,1.85 q 0.014,0.201 0.122,0.201 l 0.007,-0.001 q 0.115,-0.006 0.27,-0.089 0.03,-0.01 0.056,-0.01 0.048,0 0.076,0.039 0.024,0.035 0.024,0.074 0,0.027 -0.012,0.056 -0.18,0.191 -0.43,0.191 h -0.027 q -0.166,0 -0.243,-0.082 -0.082,-0.087 -0.082,-0.34 v -0.009 q 0,-0.412 0.096,-2.007 z"
       id="path170"
       inkscape:connector-curvature="0" />
    <path
       style="-inkscape-font-specification:'Casual Caps';stroke-width:0.13672079"
       d="m 57.396,27.557 h 0.16 q 0.35,0 0.35,0.19 v 0.032 q 0,0.022 -0.08,0.081 h -0.064 q -0.183,-0.064 -0.302,-0.064 -0.402,0 -0.462,0.255 -0.08,0.132 -0.128,0.637 l 0.032,0.017 q 0.365,-0.096 0.477,-0.096 0.022,0 0.081,0.08 v 0.078 q 0,0.069 -0.256,0.129 -0.302,0.072 -0.302,0.11 v 0.017 q 0.05,0.534 0.302,0.606 0.088,0.016 0.128,0.016 0.019,0 0.303,-0.08 0.066,0.023 0.096,0.08 v 0.096 q -0.104,0.143 -0.352,0.143 h -0.127 q -0.497,0 -0.605,-0.797 -0.017,-0.153 -0.017,-0.303 v -0.032 q 0,-0.854 0.368,-1.116 0.17,-0.08 0.398,-0.08 z m 1.995,-0.064 q 0.073,0.027 0.111,0.095 v 0.033 q -0.175,0.685 -0.446,2.072 l -0.08,0.064 h -0.11 q -0.132,0 -0.416,-1.275 -0.051,-0.16 -0.08,-0.16 -0.127,0.295 -0.27,1.354 0,0.304 -0.112,0.304 h -0.032 q -0.064,0 -0.112,-0.08 0,-0.63 0.304,-1.77 0.094,-0.239 0.239,-0.239 0.203,0 0.335,0.67 l 0.158,0.574 h 0.016 q 0.032,-0.023 0.192,-0.909 0.162,-0.679 0.223,-0.717 z"
       id="path172"
       inkscape:connector-curvature="0" />
  </g>
  <g
     style="line-height:1.25;stroke-width:0.78126168"
     id="g178"
     transform="matrix(1.2799809,0,0,1.2799809,0,-0.09505041)">
    <path
       style="font-weight:400;font-size:2.79900002px;font-family:'Casual Caps';-inkscape-font-specification:'Casual Caps';letter-spacing:0;word-spacing:0;fill:#c8c8c8;stroke-width:0.78126168"
       d="m 17.38,92.06 q 0.053,0.08 0.052,0.087 l -0.012,0.08 q -0.014,0.095 -0.314,0.051 L 16.98,92.26 q -0.023,-0.003 -0.054,0.04 -0.01,0.07 -0.119,0.707 -0.028,0.196 -0.094,1.098 -0.075,0.054 -0.135,0.046 -0.142,-0.021 -0.082,-0.43 0.007,-0.284 0.07,-0.716 l 0.105,-0.726 q 0.003,-0.022 -0.039,-0.054 -0.053,-0.008 -0.354,-0.003 L 16.23,92.215 q -0.024,-0.003 -0.054,-0.071 l 0.013,-0.095 q 0.023,-0.158 1.19,0.01 z m 0.509,-0.265 q 0.204,0.03 0.226,0.886 0.074,0.608 0.125,1.694 l -0.004,0.032 q -0.052,0.073 -0.138,0.06 -0.128,-0.018 -0.118,-0.404 -0.006,-0.129 -0.061,-0.137 -0.632,0.034 -0.64,0.084 -0.022,0.153 -0.142,0.205 l -0.079,-0.012 q -0.022,-0.003 -0.068,-0.09 0.317,-1.295 0.57,-1.93 0.157,-0.413 0.329,-0.388 z m -0.086,0.488 q -0.393,1.047 -0.445,1.4 0.028,0.021 0.045,0.024 0.475,-0.013 0.542,-0.067 -0.092,-1.35 -0.142,-1.357 z m 1.364,-0.19 0.079,0.012 q 0.592,0.086 0.917,0.568 0.023,0.061 0.013,0.13 l -0.002,0.016 q -0.057,0.39 -0.858,0.471 -0.166,0.041 -0.57,0.046 -0.003,0.016 -0.018,0.014 -0.058,0.623 -0.117,1.03 -0.062,0.104 -0.158,0.09 l -0.031,-0.004 q -0.022,-0.003 -0.069,-0.09 0.013,-0.084 0.037,-0.14 0.041,-0.502 0.106,-0.951 l -0.016,-0.116 0.002,-0.016 q 0.002,-0.014 0.05,-0.121 l 0.033,-0.22 q 0.114,-0.79 0.602,-0.719 z m -0.393,0.942 0.043,0.038 q 0.635,0 1.023,-0.174 0.072,-0.057 0.08,-0.116 0.02,-0.138 -0.584,-0.408 -0.02,-0.003 -0.156,-0.038 -0.251,-0.036 -0.288,0.215 -0.036,-0.005 -0.118,0.483 z"
       word-spacing="0"
       letter-spacing="0"
       font-size="2.799"
       font-weight="400"
       aria-label="TAP"
       id="path176"
       inkscape:connector-curvature="0" />
  </g>
  <g
     transform="matrix(1.2799809,0,0,1.2799809,-17.40902,-47.797378)"
     id="g184"
     style="stroke-width:0.78126168">
    <circle
       cx="63.202999"
       cy="61.278999"
       r="2.082"
       id="circle180"
       style="fill:url(#q);stroke-width:0.78126168" />
    <circle
       cx="-45.188999"
       cy="-75.549004"
       r="1.6670001"
       transform="rotate(165)"
       id="circle182"
       style="fill:url(#r);stroke-width:0.78126168" />
  </g>
  <g
     transform="matrix(1.2799809,0,0,1.2799809,-3.8514625,-47.797378)"
     id="g190"
     style="stroke-width:0.78126168">
    <circle
       cx="63.202999"
       cy="61.278999"
       r="2.082"
       id="circle186"
       style="fill:url(#s);stroke-width:0.78126168" />
    <circle
       cx="-45.188999"
       cy="-75.549004"
       r="1.6670001"
       transform="rotate(165)"
       id="circle188"
       style="fill:url(#t);stroke-width:0.78126168" />
  </g>
  <g
     transform="matrix(1.2799809,0,0,1.2799809,-30.902578,-47.797378)"
     id="g196"
     style="stroke-width:0.78126168">
    <circle
       cx="63.202999"
       cy="61.278999"
       r="2.082"
       id="circle192"
       style="fill:url(#u);stroke-width:0.78126168" />
    <circle
       cx="-45.188999"
       cy="-75.549004"
       r="1.6670001"
       transform="rotate(165)"
       id="circle194"
       style="fill:url(#v);stroke-width:0.78126168" />
  </g>
  <g
     transform="matrix(1.2799809,0,0,1.2799809,-44.490855,-47.797378)"
     id="g202"
     style="stroke-width:0.78126168">
    <circle
       cx="63.202999"
       cy="61.278999"
       r="2.082"
       id="circle198"
       style="fill:url(#w);stroke-width:0.78126168" />
    <circle
       cx="-45.188999"
       cy="-75.549004"
       r="1.6670001"
       transform="rotate(165)"
       id="circle200"
       style="fill:url(#x);stroke-width:0.78126168" />
  </g>
  <g
     transform="matrix(1.2799809,0,0,1.2799809,-58.038173,-47.797378)"
     id="g208"
     style="stroke-width:0.78126168">
    <circle
       cx="63.202999"
       cy="61.278999"
       r="2.082"
       id="circle204"
       style="fill:url(#y);stroke-width:0.78126168" />
    <circle
       cx="-45.188999"
       cy="-75.549004"
       r="1.6670001"
       transform="rotate(165)"
       id="circle206"
       style="fill:url(#z);stroke-width:0.78126168" />
  </g>
  <g
     transform="matrix(1.2799809,0,0,1.2799809,-71.541971,-47.797378)"
     id="g214"
     style="stroke-width:0.78126168">
    <circle
       cx="63.202999"
       cy="61.278999"
       r="2.082"
       id="circle210"
       style="fill:url(#A);stroke-width:0.78126168" />
    <circle
       cx="-45.188999"
       cy="-75.549004"
       r="1.6670001"
       transform="rotate(165)"
       id="circle212"
       style="fill:url(#B);stroke-width:0.78126168" />
  </g>
  <path
     d="m 43.308154,64.856301 c 0,0 3.668425,-2.466524 5.836713,-3.210192 2.168287,-0.744949 6.169508,-1.442539 6.169508,-1.442539 0,0 -0.751349,-0.837107 -2.168288,-0.744949 -1.416939,0.09344 -3.417549,0.232957 -3.417549,0.232957 0,0 2.66748,-1.582057 5.169843,-1.628136 2.501082,-0.04736 6.252706,0.465913 6.252706,0.465913 0,0 0.249597,-0.744949 -1.167342,-1.117423 -1.418219,-0.371195 -5.670315,-0.232957 -5.670315,-0.232957 0,0 5.921191,-2.790358 12.423494,-2.046689 6.503583,0.743669 11.006556,3.628746 11.006556,3.628746 0,0 -3.417549,-1.255662 -6.420384,-0.651511 -3.001556,0.605431 -4.669371,1.721575 -4.669371,1.721575 0,0 1.584617,-0.279036 2.502363,-0.325115 0.916466,-0.04736 2.416604,0.04608 2.416604,0.04608 0,0 -1.751014,1.628136 -4.66937,2.00061 -2.918357,0.372474 -8.253317,0.280316 -8.253317,0.280316 0,0 3.750344,0.976625 4.835768,1.162222 1.082864,0.186878 3.916741,0.418554 3.916741,0.418554 l -1.665255,0.558072 c 0,0 1.166063,0.558072 3.000275,0.372474 a 25.817215,25.817215 0 0 0 3.169233,-0.511992 c 0,0 -0.332795,0.605431 -1.251821,0.744949 -0.915187,0.139518 -2.333406,0.325115 -2.333406,0.325115 0,0 2.626521,0.838387 5.460399,0.371194 2.836438,-0.464633 4.835768,-1.464298 4.835768,-1.464298 0,0 -1.708775,2.604761 -5.626796,3.653066 -3.919302,1.045744 -6.503583,1.022705 -8.296836,0.883187 -1.791974,-0.140798 -4.752569,-0.581112 -6.545823,-1.255662 -1.791973,-0.67583 -2.333405,-0.954865 -2.333405,-0.954865 0,0 3.751624,0.582391 4.918967,0.65279 1.167342,0.06912 3.668425,-0.186877 3.668425,-0.186877 0,0 -2.375645,-1.303021 -5.209522,-1.838053 -2.836438,-0.535032 -6.128549,-1.232622 -8.630911,-1.023985 -2.501083,0.209917 -7.253652,1.117424 -7.253652,1.117424 z"
     id="path216"
     inkscape:connector-curvature="0"
     style="fill:#ff6e0f;stroke:#950e00;stroke-width:0.18799999" />
  <path
     d="m 46.90106,63.631359 c 1.477098,-0.248316 2.243807,-0.436474 3.558347,-0.546552 2.975956,-0.249596 6.317986,0.518392 9.123704,1.047024 3.161553,0.596472 5.625516,1.981411 5.625516,1.981411 a 1.1007836,0.64255041 0 0 1 -0.563192,1.100783 c 0,0 -0.65023,0.06656 -1.451498,0.124159 -0.245756,0.01792 -0.509432,0.0064 -0.769269,0.02048 0.892147,0.143358 1.809893,0.280316 2.466524,0.330235 1.671655,0.130558 3.948741,0.168958 7.695245,-0.831987 1.180142,-0.313596 2.071009,-0.810228 2.833878,-1.31966 -0.465913,0.111358 -0.759029,0.249596 -1.285101,0.336634 -3.33691,0.546552 -6.287266,-0.427513 -6.287266,-0.427513 a 1.1007836,0.64255041 0 0 1 -0.568312,-0.591351 c -1.241581,-0.140798 -2.186207,-0.407034 -2.186207,-0.407034 a 1.1007836,0.64255041 0 0 1 -0.349435,-0.69375 c -0.67199,-0.06912 -1.015025,-0.0768 -1.514218,-0.162557 -0.711669,-0.121599 -1.863652,-0.407034 -2.946516,-0.67711 -1.082863,-0.270076 -2.027489,-0.514553 -2.027489,-0.514553 a 1.1007836,0.64255041 0 0 1 0.479993,-1.228781 c 0,0 5.381039,0.06656 7.98836,-0.266236 0.957426,-0.121599 1.747174,-0.435194 2.402524,-0.755189 -0.724469,0.06144 -2.100448,0.276476 -2.100448,0.276476 a 1.1007836,0.64255041 0 0 1 -1.148143,-1.036786 c 0,0 1.862372,-1.245421 5.140403,-1.905891 0.66303,-0.133118 1.308141,-0.133118 1.949411,-0.145918 -1.740774,-0.65279 -3.857862,-1.305581 -6.389664,-1.594856 -3.333071,-0.381435 -6.246307,0.218876 -8.444034,0.870387 0.811507,0.02944 1.652455,0.009 2.352604,0.191997 0.981746,0.258556 1.534698,0.727029 1.722855,1.107183 0.185597,0.378875 0.07424,0.72063 0.07424,0.72063 a 1.1007836,0.64255041 0 0 1 -1.331181,0.501752 c 0,0 -3.756743,-0.491513 -5.96727,-0.449273 -0.240637,0.0038 -0.537592,0.151037 -0.814068,0.198397 1.429738,0.230396 2.173407,1.002225 2.173407,1.002225 a 1.1007836,0.64255041 0 0 1 -0.66175,0.913906 c 0,0 -4.01274,0.721909 -5.928871,1.37982 -0.70143,0.240636 -1.836773,0.872947 -2.851798,1.451498 z"
     id="path218"
     inkscape:connector-curvature="0"
     style="fill:#ffba1a;stroke:#ff8a0d;stroke-width:0.32600001;stroke-opacity:0.99500002" />
  <g
     style="line-height:1.25;stroke-width:0.78126168"
     id="g222"
     transform="matrix(1.2799809,0,0,1.2799809,0,-0.09505041)">
    <path
       style="font-weight:400;font-size:2.79900002px;font-family:'Casual Caps';-inkscape-font-specification:'Casual Caps';letter-spacing:0;word-spacing:0;fill:#c8c8c8;stroke-width:0.78126168"
       d="m 31.309,51.398 q 0.283,-0.061 0.706,0.32 l 0.024,0.109 q 0.038,0.176 -0.291,0.536 -0.065,0.151 -0.057,0.192 0.019,0.085 0.606,0.455 0.112,0.143 0.128,0.217 0.085,0.39 -0.71,0.563 l -0.077,0.017 q -0.467,0.102 -0.497,-0.038 l -0.01,-0.047 q 0.032,-0.105 0.151,-0.131 -0.294,-2.01 -0.15,-2.04 0.042,-0.123 0.177,-0.153 z m 0.225,2.153 0.054,0.022 Q 32.16,53.422 32.165,53.3 l -0.004,-0.016 q -0.024,-0.112 -0.57,-0.446 -0.105,-0.1 -0.123,-0.186 l -0.024,-0.11 q -0.04,-0.18 0.288,-0.55 0.06,-0.1 0.05,-0.143 -0.157,-0.17 -0.4,-0.19 -0.135,0.03 0.152,1.892 z m 1.116,-2.56 q 0.202,-0.044 0.523,0.75 0.282,0.544 0.711,1.543 l 0.007,0.032 q -0.023,0.086 -0.107,0.104 -0.127,0.028 -0.253,-0.337 -0.05,-0.118 -0.105,-0.107 -0.58,0.254 -0.57,0.304 0.034,0.15 -0.061,0.241 l -0.078,0.017 q -0.021,0.005 -0.096,-0.06 -0.157,-1.324 -0.144,-2.008 0.003,-0.442 0.173,-0.479 z m 0.09,0.487 q 0,1.12 0.076,1.468 0.033,0.01 0.05,0.006 0.44,-0.179 0.484,-0.253 -0.56,-1.232 -0.61,-1.221 z m 2.262,-0.967 q 0.076,0.011 0.128,0.07 l 0.007,0.032 q -0.025,0.706 0.006,2.119 l -0.065,0.08 -0.108,0.024 q -0.128,0.027 -0.678,-1.158 -0.083,-0.145 -0.111,-0.14 -0.061,0.316 0.024,1.382 0.065,0.296 -0.045,0.32 l -0.03,0.007 q -0.063,0.014 -0.127,-0.054 -0.134,-0.617 -0.08,-1.794 0.04,-0.253 0.182,-0.284 0.2,-0.044 0.47,0.583 l 0.277,0.527 0.016,-0.004 q 0.026,-0.03 -0.007,-0.929 0.015,-0.698 0.065,-0.748 z m 0.375,-0.033 q 0.097,-0.021 0.136,0.102 l 0.003,0.014 q 0.027,0.123 0.044,0.497 l 0.035,0.01 q 0.438,-0.523 0.559,-0.727 l 0.077,-0.017 q 0.022,-0.004 0.096,0.06 l 0.024,0.11 q -0.056,0.109 -0.632,0.84 -0.107,0.186 -0.09,0.263 0.122,0.194 0.933,0.988 0.042,0.044 0.051,0.087 l 0.007,0.03 q 0.005,0.022 -0.06,0.097 l -0.094,0.02 q -0.064,-0.02 -0.68,-0.652 -0.005,-0.022 -0.057,-0.036 l -0.016,0.003 q -0.03,0.012 -0.024,0.038 0.05,0.23 0.12,0.627 l -0.064,0.08 -0.078,0.016 q -0.021,0.005 -0.096,-0.061 l -0.027,-0.125 q -0.2,-0.917 -0.266,-2.194 0.048,-0.059 0.1,-0.07 z"
       word-spacing="0"
       letter-spacing="0"
       font-size="2.799"
       font-weight="400"
       aria-label="BANK"
       id="path220"
       inkscape:connector-curvature="0" />
  </g>
  <g
     style="line-height:1.25;stroke-width:0.78126168"
     id="g226"
     transform="matrix(1.2799809,0,0,1.2799809,0,-0.09505041)">
    <path
       style="font-weight:400;font-size:2.79900002px;font-family:'Casual Caps';-inkscape-font-specification:'Casual Caps';letter-spacing:0;word-spacing:0;fill:#c8c8c8;stroke:#ca4c07;stroke-width:0.07500112;stroke-opacity:0.997"
       d="m 6.003,52.7 0.06,0.022 q 0.593,0.217 0.773,0.673 0.01,0.059 -0.003,0.1 L 6.8,53.585 q -0.087,0.24 -0.985,0.183 -0.258,-0.038 -0.272,0.002 -0.014,0.04 0.26,0.401 0.56,0.64 0.626,0.755 L 6.432,54.96 6.405,55.035 Q 6.338,55.097 6.257,55.067 5.72,54.539 5.365,53.977 5.327,53.963 5.248,53.747 L 5.232,53.741 5.205,53.765 q -0.11,0.58 -0.167,0.737 l -0.055,0.15 Q 4.918,54.713 4.836,54.683 4.776,54.661 4.759,54.571 l 0.005,-0.016 q 0.04,-0.108 0.292,-1.217 L 5.1,53.218 Q 5.374,52.469 6.003,52.7 Z m -0.642,0.546 -0.097,0.268 q -0.007,0.034 0.017,0.043 0.135,-0.104 0.744,-0.034 0.44,0.013 0.531,-0.06 0.066,-0.18 -0.607,-0.528 -0.419,-0.099 -0.528,0.196 -0.02,0.011 -0.058,0.115 z m 3.373,0.316 q 0.06,0.05 0.072,0.128 l -0.011,0.03 q -0.4,0.584 -1.13,1.794 L 7.566,55.546 7.463,55.508 Q 7.339,55.463 7.51,54.168 7.518,54 7.49,53.991 7.27,54.224 6.771,55.169 6.668,55.455 6.562,55.417 l -0.03,-0.011 q -0.06,-0.023 -0.078,-0.113 0.217,-0.594 0.894,-1.559 0.17,-0.192 0.306,-0.141 0.192,0.07 0.084,0.742 l -0.047,0.594 0.015,0.006 Q 7.744,54.924 8.197,54.146 8.584,53.565 8.654,53.55 Z m 0.32,0.218 0.09,0.033 q 0.156,0.057 0.402,1.03 0.13,0.576 0.004,0.92 Q 9.37,56.255 8.496,56.14 8.363,56.108 8.28,56.078 8.186,56.015 8.21,55.95 8.561,54.755 8.796,54.111 l 0.06,-0.164 Q 8.905,53.812 9.053,53.78 Z m -0.002,0.373 -0.026,0.024 q -0.258,0.753 -0.52,1.662 0.024,0.042 0.047,0.05 0.648,0.086 0.764,-0.23 L 9.322,55.644 Q 9.462,55.263 9.077,54.18 Z"
       word-spacing="0"
       letter-spacing="0"
       font-size="2.799"
       font-weight="400"
       aria-label="RND"
       id="path224"
       inkscape:connector-curvature="0" />
  </g>
  <path
     d="m 27.157364,118.07968 c 3.530483,1.04661 6.437843,-2.59815 6.437843,-2.59815 -0.422614,1.15469 0.03849,2.5706 0.03849,2.5706 m -0.07817,-2.52703 c -1.117332,0.19081 -1.976084,-0.17055 -1.976084,-0.17055"
     id="path228"
     inkscape:connector-curvature="0"
     style="fill:none;stroke:#c8c8c8;stroke-width:0.34464559;stroke-linecap:round;stroke-linejoin:round" />
  <circle
     r="0.59903103"
     cy="17.534126"
     cx="4.2328968"
     id="circle230"
     style="fill:url(#C);stroke-width:1" />
  <circle
     r="0.59903103"
     cy="17.534126"
     cx="14.013231"
     id="circle232"
     style="fill:url(#D);stroke-width:1" />
  <circle
     r="0.59903103"
     cy="17.534126"
     cx="17.680376"
     id="circle234"
     style="fill:url(#E);stroke-width:1" />
  <circle
     r="0.59903103"
     cy="17.534126"
     cx="27.460711"
     id="circle236"
     style="fill:url(#F);stroke-width:1" />
  <circle
     r="0.59903103"
     cy="17.534126"
     cx="31.330091"
     id="circle238"
     style="fill:url(#G);stroke-width:1" />
  <circle
     r="0.59903103"
     cy="17.534126"
     cx="41.110428"
     id="circle240"
     style="fill:url(#H);stroke-width:1" />
  <circle
     r="0.59903103"
     cy="17.534126"
     cx="44.860771"
     id="circle242"
     style="fill:url(#I);stroke-width:1" />
  <circle
     r="0.59903103"
     cy="17.534126"
     cx="54.639824"
     id="circle244"
     style="fill:url(#J);stroke-width:1" />
  <circle
     r="0.59903103"
     cy="17.534126"
     cx="58.32745"
     id="circle246"
     style="fill:url(#K);stroke-width:1" />
  <circle
     r="0.59903103"
     cy="17.534126"
     cx="68.106506"
     id="circle248"
     style="fill:url(#L);stroke-width:1" />
  <circle
     r="0.59903103"
     cy="17.534126"
     cx="71.804367"
     id="circle250"
     style="fill:url(#M);stroke-width:1" />
  <circle
     r="0.59903103"
     cy="17.534126"
     cx="81.58342"
     id="circle252"
     style="fill:url(#N);stroke-width:1" />
  <rect
     rx="1.418"
     y="39.273323"
     x="66.420769"
     height="11.38799"
     width="14.81706"
     id="rect254"
     style="fill:url(#O);stroke-width:1"
     ry="1.418" />
  <rect
     rx="0.88800007"
     y="39.33604"
     x="52.90033"
     height="11.307351"
     width="9.2837009"
     id="rect256"
     style="fill:url(#P);stroke-width:1"
     ry="0.88800007" />
  <g
     transform="matrix(1.2799809,0,0,1.2799809,-33.836295,-206.35874)"
     id="g262"
     style="stroke-width:0.78126168">
    <rect
       width="4.2399998"
       height="0.43900001"
       x="26.759001"
       y="161.61099"
       ry="0.1609399"
       id="rect258"
       style="fill:url(#Q);stroke-width:0.78126168"
       rx="0.1609399" />
    <rect
       width="4.2399998"
       height="0.41299999"
       x="162.21001"
       y="-26.118999"
       ry="0.15156476"
       transform="matrix(0.00655,0.99998,-0.99973,0.02317,0,0)"
       id="rect260"
       style="fill:url(#R);stroke-width:0.78126168"
       rx="0.15156476" />
  </g>
  <g
     style="line-height:1.25;-inkscape-font-specification:SKULLX;stroke-width:0.78126168"
     id="g266"
     transform="matrix(1.2799809,0,0,1.2799809,0,-0.09505041)">
    <path
       d="m 58.411,59.213 q 0.227,-0.035 0.327,0.343 0.38,1.032 0.67,2.029 -0.03,0.123 -0.132,0.138 -0.131,0.02 -0.221,-0.442 -0.469,-1.38 -0.58,-1.651 l -0.015,0.002 q -0.153,0.774 -0.256,0.892 l -0.083,0.013 q -0.206,0.032 -0.352,-0.406 l -0.017,0.002 q -0.059,0.01 -0.067,0.898 0.033,0.694 -0.06,0.709 l -0.05,0.007 q -0.136,0.012 -0.155,-0.112 -0.021,-1.361 0.105,-1.979 0.065,-0.163 0.176,-0.18 0.106,-0.017 0.295,0.466 0.033,0.149 0.073,0.142 l 0.19,-0.761 q 0.074,-0.098 0.152,-0.11 z m 1.397,-0.3 0.167,-0.026 q 0.366,-0.056 0.397,0.143 l 0.005,0.033 q 0.004,0.023 -0.07,0.097 l -0.067,0.01 q -0.202,-0.037 -0.326,-0.018 -0.42,0.065 -0.442,0.342 -0.063,0.15 -0.031,0.686 l 0.037,0.012 q 0.366,-0.159 0.483,-0.177 0.023,-0.003 0.097,0.07 l 0.012,0.083 q 0.011,0.071 -0.246,0.175 -0.304,0.125 -0.298,0.165 l 0.003,0.017 q 0.137,0.55 0.413,0.584 0.094,0.003 0.136,-0.003 0.02,-0.003 0.304,-0.132 0.072,0.012 0.113,0.067 l 0.015,0.1 q -0.085,0.167 -0.344,0.207 l -0.133,0.02 q -0.52,0.08 -0.76,-0.735 -0.043,-0.157 -0.067,-0.314 l -0.005,-0.033 q -0.138,-0.893 0.204,-1.226 0.166,-0.11 0.403,-0.147 z m 1.814,-0.195 q 0.227,-0.035 0.327,0.343 0.381,1.032 0.67,2.029 -0.03,0.123 -0.132,0.139 -0.13,0.02 -0.221,-0.443 -0.469,-1.38 -0.58,-1.651 l -0.015,0.002 q -0.153,0.774 -0.256,0.892 l -0.083,0.013 q -0.206,0.032 -0.352,-0.406 l -0.017,0.002 q -0.059,0.01 -0.067,0.898 0.033,0.694 -0.06,0.709 l -0.05,0.007 q -0.136,0.012 -0.155,-0.112 -0.02,-1.36 0.105,-1.978 0.065,-0.164 0.177,-0.181 0.105,-0.016 0.294,0.466 0.033,0.149 0.073,0.143 l 0.19,-0.762 q 0.074,-0.098 0.152,-0.11 z"
       style="font-weight:400;font-size:2.96000004px;font-family:'Casual Caps';-inkscape-font-specification:'Casual Caps';letter-spacing:0;word-spacing:0;fill:#d2d2d2;stroke-width:0.78126168"
       aria-label="MEM"
       font-weight="400"
       font-size="2.96"
       letter-spacing="0"
       word-spacing="0"
       id="path264"
       inkscape:connector-curvature="0" />
  </g>
  <g
     style="line-height:1.25;-inkscape-font-specification:SKULLX;stroke-width:0.78126168"
     id="g270"
     transform="matrix(1.2799809,0,0,1.2799809,0,-0.09505041)">
    <path
       d="m 47.069,82.477 0.184,-0.028 q 0.369,-0.057 0.571,0.167 0.024,0.04 0.03,0.074 0.005,0.038 -0.014,0.069 -0.021,0.038 -0.081,0.048 -0.033,0.005 -0.076,0 -0.199,-0.138 -0.509,-0.09 -0.674,0.104 -1.083,0.712 -0.053,0.102 -0.04,0.193 0.021,0.133 0.463,0.065 0.441,-0.068 0.75,-0.057 0.309,0.01 0.36,0.342 0.05,0.332 -0.442,0.67 -0.128,0.072 -0.243,0.09 l -0.05,0.007 q -0.49,0.03 -0.557,-0.41 l -0.01,-0.065 q -0.014,-0.09 0.1,-0.122 l 0.02,-0.004 q 0.097,-0.015 0.123,0.1 0.029,0.129 0.097,0.191 0.068,0.061 0.152,0.048 l 0.1,-0.015 q 0.478,-0.217 0.443,-0.444 l -10e-4,-0.019 q -0.028,-0.183 -0.574,-0.106 -0.572,0.082 -0.753,0.055 -0.182,-0.03 -0.242,-0.267 -0.078,-0.507 0.762,-1.039 0.277,-0.128 0.52,-0.165 z m 2.075,-0.662 q 0.08,0.017 0.131,0.082 l 0.006,0.034 q -0.073,0.744 -0.132,2.238 l -0.074,0.08 -0.116,0.018 q -0.137,0.02 -0.64,-1.266 -0.078,-0.16 -0.108,-0.155 -0.086,0.33 -0.065,1.46 0.049,0.317 -0.068,0.335 l -0.033,0.005 q -0.067,0.01 -0.13,-0.065 -0.102,-0.66 0.032,-1.899 0.06,-0.265 0.212,-0.288 0.212,-0.033 0.457,0.646 l 0.259,0.574 0.017,-0.002 q 0.029,-0.03 0.053,-0.981 0.06,-0.736 0.118,-0.786 z m 0.498,-0.11 q 0.216,-0.034 0.503,0.826 0.262,0.591 0.65,1.674 l 0.005,0.034 q -0.03,0.09 -0.12,0.103 -0.136,0.021 -0.244,-0.372 -0.047,-0.129 -0.105,-0.12 -0.629,0.23 -0.62,0.283 0.024,0.162 -0.082,0.251 l -0.083,0.013 q -0.022,0.003 -0.097,-0.07 -0.08,-1.408 -0.02,-2.129 0.031,-0.465 0.213,-0.493 z m 0.064,0.52 q -0.074,1.18 -0.017,1.553 0.035,0.013 0.053,0.01 0.476,-0.16 0.527,-0.235 -0.51,-1.337 -0.563,-1.329 z m 1.321,-0.614 0.083,-0.013 q 0.625,-0.096 1.103,0.29 0.042,0.056 0.054,0.129 l 0.002,0.017 q 0.064,0.411 -0.722,0.741 -0.155,0.093 -0.562,0.223 0.002,0.017 -0.013,0.02 0.133,0.647 0.2,1.077 -0.031,0.125 -0.132,0.14 l -0.033,0.006 q -0.023,0.003 -0.097,-0.07 -0.014,-0.089 -0.006,-0.153 -0.114,-0.52 -0.187,-0.995 L 50.664,82.911 50.662,82.894 Q 50.66,82.88 50.676,82.756 L 50.64,82.523 q -0.129,-0.832 0.387,-0.912 z m -0.107,1.074 0.056,0.025 q 0.642,-0.196 0.981,-0.492 0.055,-0.08 0.045,-0.143 -0.022,-0.146 -0.717,-0.232 -0.021,0.004 -0.17,0.01 -0.265,0.041 -0.224,0.307 -0.039,0.006 0.03,0.525 z"
       style="font-weight:400;font-size:2.96000004px;font-family:'Casual Caps';-inkscape-font-specification:'Casual Caps';letter-spacing:0;word-spacing:0;fill:#d2d2d2;stroke-width:0.78126168"
       aria-label="SNAP"
       font-weight="400"
       font-size="2.96"
       letter-spacing="0"
       word-spacing="0"
       id="path268"
       inkscape:connector-curvature="0" />
  </g>
</svg>
