<svg xmlns="http://www.w3.org/2000/svg" xmlns:xlink="http://www.w3.org/1999/xlink" width="315" height="380" viewBox="0 0 83.344 100.542"><defs><linearGradient xlink:href="#a" id="e" x1="26.759" y1="162" x2="30.999" y2="162" gradientUnits="userSpaceOnUse" gradientTransform="matrix(1 0 0 .56406 0 70.452)"/><linearGradient id="a"><stop offset="0" stop-color="#fff"/><stop offset="1" stop-color="#fff" stop-opacity="0"/></linearGradient><linearGradient xlink:href="#b" id="f" x1="26.759" y1="162" x2="30.999" y2="162" gradientUnits="userSpaceOnUse" gradientTransform="matrix(.99995 0 0 .53173 135.453 -112.052)"/><linearGradient id="b"><stop offset="0" stop-color="#fff" stop-opacity=".992"/><stop offset="1" stop-color="#fff" stop-opacity="0"/></linearGradient><linearGradient xlink:href="#c" id="g" x1="66.15" y1="224.204" x2="66.15" y2="233.271" gradientUnits="userSpaceOnUse" gradientTransform="matrix(1.40401 0 0 .78978 -79.454 -116.5)"/><linearGradient id="c"><stop offset="0"/><stop offset="1" stop-color="#8c8c8c"/></linearGradient><linearGradient xlink:href="#c" id="h" x1="66.15" y1="224.204" x2="66.15" y2="233.271" gradientUnits="userSpaceOnUse" gradientTransform="matrix(.9595 0 0 .78978 -10.604 -119.966)"/><linearGradient xlink:href="#c" id="i" x1="66.15" y1="224.204" x2="66.15" y2="233.271" gradientUnits="userSpaceOnUse" gradientTransform="matrix(.62166 0 0 .7049 -22.103 -71.65)"/><linearGradient xlink:href="#c" id="j" x1="66.15" y1="224.204" x2="66.15" y2="233.271" gradientUnits="userSpaceOnUse" gradientTransform="matrix(.9595 0 0 .78978 -10.604 -110.97)"/><linearGradient xlink:href="#c" id="k" x1="66.15" y1="224.204" x2="66.15" y2="233.271" gradientUnits="userSpaceOnUse" gradientTransform="matrix(.9595 0 0 .78978 -10.604 -101.974)"/><linearGradient xlink:href="#c" id="l" x1="66.15" y1="224.204" x2="66.15" y2="233.271" gradientUnits="userSpaceOnUse" gradientTransform="matrix(.9595 0 0 .78978 -10.604 -92.979)"/><linearGradient xlink:href="#c" id="d" x1="98.709" y1="167.24" x2="98.709" y2="197.734" gradientUnits="userSpaceOnUse" gradientTransform="matrix(3.5455 0 0 1.37485 -308.733 -221.141)"/></defs><path d="M0 0h83.344v100.541H0zm0 0" fill="#191919"/><rect rx="2.34" ry="2.34" y="52.537" x="59.25" height="40.414" width="21.039" fill="#3e3e3e" stroke-width=".246" paint-order="stroke markers fill" stroke="#c8c8c8"/><g style="line-height:1.25"><path word-spacing="0" letter-spacing="0" font-weight="400" aria-label="♫" font-size="3.528" style="-inkscape-font-specification:'Arial, Normal';font-variant-ligatures:normal;font-variant-caps:normal;font-variant-numeric:normal;font-feature-settings:normal;text-align:start" d="M50.134 96.87l-1.63.115v-2.06q0-.23.065-.333.064-.104.22-.147.153-.043.348-.002.223.047.356.19.133.146.133.33 0 .186-.157.286-.158.103-.408.05-.082-.018-.143-.044-.064-.027-.205-.11v1.345l1.22-.085v-1.554q0-.225.064-.337.066-.11.226-.151.16-.04.348 0 .223.047.354.19.13.14.13.325 0 .195-.156.294-.156.1-.408.047-.16-.034-.357-.16z" font-family="Arial" fill="#969696"/></g><g style="line-height:1.25"><path word-spacing="0" letter-spacing="0" font-size="3.528" font-weight="400" aria-label="IMPROMPT" d="M32.116 96.698q-.007-.127-.01-.265 0-.137-.004-.296-.003-.159-.003-.342v-.417q0-.25.003-.426.004-.18.021-.293.018-.113.053-.166.04-.053.102-.053.032 0 .06.007.03.007.05.032.02.02.035.067.018.042.021.113.007.127.01.225l.008.198q.003.095.003.201v.536q0 .145-.003.286l-.007.286-.01.303q-.004.085-.018.13-.015.047-.036.071-.02.025-.05.028-.027.007-.063.007-.063 0-.109-.042-.046-.046-.053-.19zm1.754-.381q-.162-.357-.29-.688-.123-.335-.21-.596-.082.437-.139.882-.053.444-.137.85-.02.092-.078.123-.056.028-.095.028-.064 0-.102-.038-.036-.04-.036-.1 0-.08.018-.246.021-.17.05-.381.031-.212.07-.445l.078-.448.077-.395q.04-.176.067-.271.046-.163.187-.163.085 0 .145.085.06.081.127.254.07.17.166.43.098.262.254.614.151-.352.243-.61.095-.261.16-.43.066-.173.126-.254.06-.085.148-.085.081 0 .123.042.043.039.064.12.025.099.06.275.035.173.074.388.042.212.081.445.04.233.07.444.032.212.05.385.021.17.021.261 0 .056-.039.092-.038.031-.098.031-.04 0-.096-.028-.056-.032-.077-.123-.043-.201-.078-.417l-.063-.433-.057-.441q-.028-.223-.06-.441-.046.14-.106.31-.06.17-.127.342-.067.17-.137.335-.07.166-.138.3-.024.046-.067.07-.039.022-.08.022-.047 0-.09-.021-.038-.025-.06-.074zm2.005.377q0 .085-.018.13-.014.047-.039.071-.02.025-.053.029-.028.007-.056.007-.095 0-.127-.043-.028-.042-.039-.19-.007-.078-.01-.226-.004-.148-.007-.353 0-.204-.004-.451v-.522q0-.131.032-.265t.12-.243q.091-.11.25-.177.162-.067.42-.067.18 0 .342.039.162.039.286.134.123.095.198.254.074.159.074.395 0 .247-.082.41-.08.162-.229.257-.148.095-.353.134-.204.039-.448.039h-.12q-.06 0-.134-.007zm1.016-1.485q0-.236-.134-.356-.13-.12-.438-.12-.116 0-.2.021-.082.018-.135.067-.053.046-.08.127-.026.081-.026.205v.275q0 .151.004.286.081.004.18.004h.19q.106 0 .22-.015.115-.014.207-.063.092-.053.152-.152.06-.102.06-.278zm1.451.84l-.102.007h-.223q-.06 0-.134-.007v.716q0 .113-.056.14-.053.026-.134.026-.042 0-.067-.007-.025-.004-.042-.018-.015-.018-.025-.05-.007-.031-.01-.088-.008-.063-.01-.183-.005-.123-.008-.318 0-.194-.004-.469v-.652q0-.145.035-.279.036-.138.127-.24.092-.106.247-.17.16-.063.402-.063.173 0 .336.039.165.039.292.134.127.095.205.258.078.162.078.405 0 .325-.14.505-.139.176-.382.25l.472.65q.064.084.064.172 0 .07-.05.11-.046.042-.116.042-.078 0-.134-.042-.057-.046-.106-.117zm.554-.822q0-.244-.148-.36-.145-.12-.462-.12-.117 0-.194.021-.078.018-.124.07-.046.054-.067.149-.018.091-.018.236v.24q0 .138.004.25.081.005.18.005h.19q.1 0 .208-.011.113-.014.21-.064.094-.052.157-.148.064-.099.064-.268zm1.61 1.725q-.213 0-.399-.085-.184-.085-.322-.243-.137-.163-.218-.395-.078-.233-.078-.53 0-.278.067-.511.07-.233.205-.402.137-.17.338-.261.202-.096.466-.096.215 0 .41.078.193.078.338.233.148.155.233.388.085.233.085.543 0 .258-.07.49-.068.233-.209.41-.138.173-.35.278-.21.103-.497.103zm.006-.332q.194 0 .34-.077.144-.082.24-.212.094-.13.14-.3.046-.173.046-.353 0-.218-.06-.388-.057-.173-.155-.29-.1-.115-.23-.175-.13-.064-.278-.064-.177 0-.31.074-.13.074-.223.201-.088.127-.134.3-.046.17-.046.363 0 .209.053.381.053.17.141.29.092.12.215.187.124.063.261.063zm2.384-.303q-.162-.357-.29-.688-.123-.335-.21-.596-.082.437-.138.882-.053.444-.138.85-.02.092-.078.123-.056.028-.095.028-.063 0-.102-.038-.036-.04-.036-.1 0-.08.018-.246.021-.17.05-.381.031-.212.07-.445l.078-.448.077-.395q.04-.176.067-.271.046-.163.187-.163.085 0 .145.085.06.081.127.254.07.17.166.43.1.262.254.614.151-.352.243-.61.095-.261.16-.43.066-.173.126-.254.06-.085.148-.085.081 0 .124.042.042.039.063.12.025.099.06.275.035.173.074.388.042.212.081.445.04.233.07.444.033.212.05.385.021.17.021.261 0 .056-.038.092-.04.031-.1.031-.038 0-.094-.028-.057-.032-.078-.123-.042-.201-.078-.417l-.063-.433-.057-.441q-.028-.223-.06-.441-.045.14-.105.31-.06.17-.127.342-.067.17-.138.335-.07.166-.138.3-.024.046-.067.07-.038.022-.08.022-.047 0-.089-.021-.039-.025-.06-.074zm2.005.377q0 .085-.018.13-.014.047-.038.071-.022.025-.053.029-.029.007-.057.007-.095 0-.127-.043-.028-.042-.039-.19-.007-.078-.01-.226-.004-.148-.007-.353 0-.204-.004-.451v-.522q0-.131.032-.265t.12-.243q.092-.11.25-.177.163-.067.42-.067.18 0 .342.039.163.039.286.134.124.095.198.254.074.159.074.395 0 .247-.08.41-.083.162-.23.257-.149.095-.353.134-.205.039-.449.039h-.12q-.06 0-.134-.007zm1.016-1.485q0-.236-.134-.356-.13-.12-.438-.12-.116 0-.2.021-.082.018-.135.067-.053.046-.08.127-.025.081-.025.205v.275q0 .151.003.286.081.004.18.004h.19q.106 0 .22-.015.116-.014.207-.063.092-.053.152-.152.06-.102.06-.278zm1.974-.437q-.099.007-.212.01l-.243.007.007.18.007.166q.004.085.004.176.003.092.003.205v.307q0 .144-.003.293l-.007.292-.01.307q-.004.085-.019.13-.01.047-.03.072-.023.024-.05.028-.029.007-.064.007-.064 0-.11-.043-.042-.045-.049-.19-.007-.127-.01-.268 0-.141-.004-.304-.004-.162-.004-.349v-.758q.004-.145.011-.25h-.145q-.148 0-.254-.005-.102-.004-.169-.017-.067-.018-.099-.053-.028-.036-.028-.1 0-.03.007-.055.007-.029.032-.05.025-.025.067-.039.046-.014.116-.02l.12-.008.106-.007q.053-.004.11-.004h.13q.208 0 .392.004.186.004.395.014.084.007.13.021.046.011.07.032.025.021.03.05.006.028.006.063 0 .064-.046.106-.042.042-.187.05z" style="-inkscape-font-specification:'Sniglet, Normal';font-variant-ligatures:normal;font-variant-caps:normal;font-variant-numeric:normal;font-feature-settings:normal;text-align:start" font-family="Sniglet" fill="#c8c8c8"/></g><path word-spacing="0" letter-spacing="0" font-size="2.822" font-weight="400" style="line-height:1.25;-inkscape-font-specification:'Sniglet, Normal';font-variant-ligatures:normal;font-variant-caps:normal;font-variant-numeric:normal;font-feature-settings:normal;text-align:start" d="M72.477 54.156q.094 0 .192.017.1.017.181.05.082.032.135.08.054.048.054.11 0 .064-.034.098t-.085.034q-.048 0-.09-.017l-.09-.036q-.05-.02-.122-.037-.07-.017-.177-.017-.119 0-.223.057-.102.053-.18.152-.08.096-.125.23-.045.131-.045.286 0 .19.048.328t.124.228q.08.09.175.136.1.042.197.042.161 0 .254-.045.096-.048.153-.12.003-.06.003-.142v-.178q0-.037-.006-.057-.006-.022-.028-.034-.023-.01-.068-.014-.042-.003-.116-.003-.09 0-.147-.022-.056-.026-.056-.105 0-.056.028-.09.031-.037.124-.042h.054q.04-.003.082-.003h.155q.085 0 .136.017.05.014.09.067.02.028.022.1.006.07.006.163v.728q0 .076-.042.113-.04.036-.093.036-.065 0-.107-.033-.04-.03-.04-.102v-.11q-.073.085-.175.12-.099.038-.25.038-.156 0-.306-.062t-.265-.184q-.116-.124-.19-.307-.07-.186-.07-.432t.07-.437q.074-.192.198-.325.125-.135.291-.206.167-.07.36-.07zm2.114 1.854q-.029-.068-.062-.155-.03-.09-.068-.19l-.178.007h-.409q-.099 0-.18-.003l-.066.186q-.03.087-.059.155-.056.144-.164.144-.04 0-.076-.025-.034-.026-.034-.074t.017-.124q.017-.08.042-.166l.06-.184q.03-.096.06-.178.027-.09.078-.228l.113-.294.118-.3q.06-.15.108-.26.011-.027.028-.06.017-.037.04-.068.025-.03.053-.054.031-.023.068-.023.036 0 .067.026.031.022.054.056.025.034.042.07.02.038.031.066l.102.26q.06.146.116.296.06.15.11.285.05.135.081.228l.057.175q.034.093.062.184.028.09.045.17.02.075.02.123t-.037.074q-.034.025-.073.025-.05 0-.093-.034-.043-.036-.074-.11zm-.5-.62l.136.002q.067 0 .135.003l-.068-.197-.065-.19-.053-.166-.04-.138q-.01-.037-.025-.06-.014-.022-.037-.022-.022 0-.036.025-.015.023-.026.06-.034.115-.096.3l-.127.388q.076-.003.153-.003.076-.003.15-.003zm1.876-.952q-.08.006-.17.008l-.194.006.006.144.006.133q.003.067.003.14.003.074.003.164v.246q0 .116-.003.234l-.006.234-.008.246q-.003.068-.014.104-.008.037-.026.057-.017.02-.04.022-.022.006-.05.006-.05 0-.088-.034-.034-.036-.04-.152-.005-.102-.007-.214 0-.113-.003-.243t-.003-.28v-.606q.003-.116.008-.2h-.116q-.118 0-.203-.004-.082-.003-.136-.014-.053-.014-.079-.042-.022-.028-.022-.08 0-.024.006-.044.006-.023.025-.04.02-.02.054-.03.037-.012.093-.018l.096-.006.085-.006q.042-.003.087-.003h.105q.166 0 .313.003.15.003.316.012.068.006.104.016.037.008.057.026.02.017.022.04.006.022.006.05 0 .05-.036.085-.034.034-.15.04zm.402 1.287q-.006-.09-.012-.246-.006-.155-.006-.318v-.192l.006-.206q.006-.21.026-.328.022-.118.084-.178.065-.06.181-.073.116-.014.308-.014h.06q.06 0 .14.003.082 0 .17.003l.15.006q.061.006.098.017.04.008.06.025.02.014.024.037.006.02.006.045 0 .065-.036.096-.037.028-.15.037-.056.006-.166.008h-.22q-.113 0-.204.003h-.113q-.073.003-.104.034-.028.028-.028.138l.003.124q.006.096.006.27h.234q.15 0 .243.007.096.003.146.017.054.014.074.045.02.03.02.082 0 .025-.006.048-.003.02-.023.037-.02.014-.056.025-.037.008-.105.014-.082.006-.155.008h-.378v.344l.006.096q.003.046.011.077.011.03.037.05.028.02.08.03.052.007.14.007h.607q.1 0 .124.036.025.037.025.1 0 .05-.022.078-.023.026-.11.037-.085.014-.257.017-.17.003-.469.003-.127 0-.208-.023-.082-.022-.133-.076-.05-.054-.076-.138-.023-.088-.03-.212z" font-family="Sniglet" fill="#c8c8c8"/><path word-spacing="0" letter-spacing="0" font-size="10.667" font-weight="400" style="line-height:1.25;-inkscape-font-specification:'Sniglet, Normal';font-variant-ligatures:normal;font-variant-caps:normal;font-variant-numeric:normal;font-feature-settings:normal;text-align:start" d="M64.067 54.241q.093 0 .186.017.096.014.173.048.076.031.124.08.05.044.05.106 0 .065-.033.1-.034.033-.085.033-.048 0-.085-.014-.036-.017-.084-.037-.046-.02-.11-.034-.065-.017-.173-.017-.107 0-.206.057-.096.053-.17.152-.07.096-.112.23-.042.131-.042.287 0 .191.048.33.05.138.13.228.08.088.177.133.102.042.204.042.12 0 .203-.025.082-.025.138-.056.06-.03.102-.057.042-.025.082-.025.048 0 .076.028.028.025.028.093 0 .056-.045.116-.043.056-.127.104-.082.045-.198.076-.116.03-.26.03-.157 0-.316-.064-.155-.062-.28-.183-.12-.124-.196-.308-.077-.186-.077-.43 0-.247.068-.439.07-.192.19-.324.12-.136.28-.206.16-.07.34-.07zm1.642 1.885q-.037.068-.068.1-.028.03-.073.03-.046 0-.08-.03-.033-.032-.073-.097-.05-.085-.116-.234-.062-.15-.127-.325-.064-.177-.127-.367-.062-.189-.112-.355-.048-.167-.08-.29-.028-.128-.028-.18 0-.058.023-.086.023-.028.087-.028.037 0 .063.02.028.016.07.101.034.065.073.17.04.104.082.23.045.128.09.27l.09.275.086.266.073.228.076-.23.088-.266.09-.277q.045-.14.09-.265l.085-.229q.04-.104.07-.172.04-.082.068-.102.03-.02.062-.02.065 0 .088.035.025.03.025.093 0 .056-.017.135-.016.08-.06.212-.04.13-.106.324l-.167.477q-.025.076-.06.158-.03.082-.064.161-.03.076-.062.147-.03.07-.06.121z" font-family="Sniglet" fill="#c8c8c8"/><g style="line-height:1.25"><path word-spacing="0" letter-spacing="0" font-size="2.822" font-weight="400" aria-label="OCT +1" style="-inkscape-font-specification:'Sniglet, Normal';font-variant-ligatures:normal;font-variant-caps:normal;font-variant-numeric:normal;font-feature-settings:normal;text-align:start" d="M34.738 56.03a.76.76 0 0 1-.32-.068.759.759 0 0 1-.256-.195.988.988 0 0 1-.175-.316 1.335 1.335 0 0 1-.062-.423c0-.149.018-.286.054-.41a.942.942 0 0 1 .164-.321.735.735 0 0 1 .27-.21.865.865 0 0 1 .373-.075c.115 0 .224.02.327.062a.736.736 0 0 1 .27.186c.08.082.143.186.188.31.045.124.067.27.067.435 0 .137-.019.268-.056.393a.932.932 0 0 1-.167.327.825.825 0 0 1-.28.223.907.907 0 0 1-.397.082zm.006-.266c.103 0 .194-.021.27-.062a.59.59 0 0 0 .193-.17.714.714 0 0 0 .113-.24 1.084 1.084 0 0 0-.011-.591.687.687 0 0 0-.125-.232.53.53 0 0 0-.406-.192.502.502 0 0 0-.426.22.775.775 0 0 0-.107.24 1.1 1.1 0 0 0-.037.29c0 .111.014.213.042.306a.77.77 0 0 0 .113.23.464.464 0 0 0 .382.2zm2-1.761a1.047 1.047 0 0 1 .358.065c.05.02.092.047.124.08.033.029.05.064.05.106 0 .043-.011.076-.033.1a.117.117 0 0 1-.085.033.24.24 0 0 1-.085-.014 2.005 2.005 0 0 0-.084-.037.75.75 0 0 0-.283-.05.413.413 0 0 0-.206.056.543.543 0 0 0-.17.152.807.807 0 0 0-.112.229.952.952 0 0 0-.042.288c0 .128.016.238.048.33a.708.708 0 0 0 .13.229.514.514 0 0 0 .381.175.681.681 0 0 0 .34-.082c.04-.021.075-.04.103-.057a.16.16 0 0 1 .082-.025c.032 0 .057.009.076.028.019.016.028.047.028.093a.192.192 0 0 1-.045.116.404.404 0 0 1-.127.104.858.858 0 0 1-.198.077 1.102 1.102 0 0 1-.26.028.857.857 0 0 1-.595-.246.985.985 0 0 1-.197-.307 1.14 1.14 0 0 1-.076-.432c0-.164.022-.31.067-.438a.968.968 0 0 1 .19-.324c.08-.091.173-.16.28-.206a.839.839 0 0 1 .34-.07zm1.913.283c-.053.004-.11.006-.17.008l-.194.006.006.143.006.133c.002.045.003.092.003.14.002.05.003.105.003.165v.245l-.003.235-.006.234-.008.245a.46.46 0 0 1-.014.105.115.115 0 0 1-.026.056.06.06 0 0 1-.04.023.19.19 0 0 1-.05.006.124.124 0 0 1-.087-.034c-.023-.025-.036-.076-.04-.152a5.191 5.191 0 0 1-.008-.215l-.003-.243c-.002-.087-.003-.18-.003-.28v-.605c.002-.078.005-.145.008-.201h-.116c-.079 0-.146-.001-.203-.003a.837.837 0 0 1-.135-.014.158.158 0 0 1-.08-.043.125.125 0 0 1-.022-.08c0-.016.002-.031.006-.044a.083.083 0 0 1 .026-.04.124.124 0 0 1 .053-.03.431.431 0 0 1 .093-.017l.096-.006.085-.006c.028-.002.057-.003.087-.003h.105a15.382 15.382 0 0 1 .629.014c.045.004.08.01.105.017a.128.128 0 0 1 .056.025.062.062 0 0 1 .023.04.19.19 0 0 1 .006.05.11.11 0 0 1-.037.085c-.023.022-.073.036-.15.04z" font-family="Sniglet" fill="#c8c8c8"/></g><rect ry=".817" y="8.963" x="2.773" height="41.574" width="77.778" rx=".817" fill="url(#d)"/><g transform="translate(-24.824 -161.307)"><rect ry=".609" rx=".609" width="77.258" height="41.01" x="27.866" y="170.567" fill="#333" paint-order="markers stroke fill"/><path d="M45.858 171.897l.047 18.245 3.398 1.85v18.278H40.02v-18.278l3.461-1.85v-18.245zm32.702 0l.048 18.245 3.397 1.85v18.278h-9.283v-18.278l3.461-1.85v-18.245zm8.477 0l-.048 18.245-3.397 1.85v18.278h9.282v-18.278l-3.46-1.85v-18.245zm-52.049 0l.048 18.245 3.397 1.85v18.278H29.15v-18.278l-.008-20.095h3.468zm19.34 0l-.048 18.245-3.397 1.85v18.278h9.282v-18.278l.007-20.095h-3.468zm13.362 0l.048 18.245 3.397 1.85v18.278h-9.282v-18.278l-.008-20.095h3.469zm30.217 0l-.048 18.245-3.397 1.85v18.278h9.282v-18.278l.007-20.095h-3.468z" fill="#999" stroke="#000" stroke-width=".265"/></g><path d="M48.154 60.524h-1.323" fill="none" stroke="#c8c8c8" stroke-width=".132"/><g aria-label="CHORD-KEY" style="line-height:1.25;-inkscape-font-specification:'Sniglet, Normal';font-variant-ligatures:normal;font-variant-caps:normal;font-variant-numeric:normal;font-feature-settings:normal;text-align:start" font-weight="400" font-size="4.233" font-family="Sniglet" letter-spacing="0" word-spacing="0" fill="#c8c8c8" stroke-width=".265"><path d="M32.051 3.525q.14 0 .28.025.143.021.258.072.114.047.186.119.076.067.076.16 0 .098-.05.149-.051.05-.128.05-.072 0-.127-.02-.055-.026-.127-.056-.067-.03-.165-.05-.097-.026-.258-.026-.16 0-.309.085-.144.08-.254.228-.106.144-.17.343-.063.2-.063.432 0 .288.072.495.076.208.195.343.118.132.267.2.152.063.304.063.182 0 .305-.038t.208-.085q.089-.047.152-.085.064-.038.123-.038.072 0 .114.043.042.038.042.14 0 .084-.067.173-.064.085-.19.156-.124.068-.297.115-.174.042-.39.042-.237 0-.474-.093-.233-.093-.419-.275-.182-.186-.296-.462-.114-.279-.114-.647 0-.369.101-.657.106-.287.284-.486.182-.204.419-.31.241-.105.512-.105zM35.03 6.26l-.017-.479q-.004-.254-.004-.584l-.288.008h-.661q-.156 0-.28-.004-.003.267-.008.517-.004.245-.017.537-.004.102-.02.157-.013.055-.039.085-.025.03-.06.033-.029.009-.071.009-.076 0-.127-.05-.05-.056-.06-.23-.008-.152-.012-.317 0-.165-.004-.356-.004-.19-.004-.41v-.5q0-.3.004-.512.004-.216.021-.351.021-.136.063-.2.043-.063.119-.063.072 0 .127.047.055.046.063.216.009.144.013.262l.009.229q.004.11.004.228v.263q.317-.013.622-.013.148 0 .297.004.152.005.309.013v-.123q0-.3.004-.512.004-.216.02-.351.022-.136.064-.2.043-.063.119-.063.072 0 .127.047.055.046.063.216.009.152.013.27l.009.238q.004.114.004.241v.643q0 .174-.004.343l-.009.343q-.004.174-.013.364-.004.102-.02.157-.013.055-.039.085-.025.03-.06.033-.029.009-.071.009-.076 0-.127-.05-.05-.056-.06-.23zM37.072 6.564q-.254 0-.479-.101-.22-.102-.385-.292-.165-.195-.262-.475-.093-.279-.093-.635 0-.334.08-.613.085-.28.246-.483.165-.203.406-.313.241-.115.559-.115.258 0 .49.094.234.093.407.279.178.186.28.466.101.28.101.652 0 .309-.084.588-.08.28-.25.491-.165.208-.42.335-.253.122-.596.122zm.008-.398q.233 0 .407-.093.173-.097.288-.254.114-.156.169-.36.055-.207.055-.423 0-.262-.072-.466-.068-.207-.186-.347-.119-.14-.276-.211-.156-.077-.334-.077-.212 0-.372.09-.157.088-.267.24-.106.153-.161.36-.055.204-.055.436 0 .25.063.458.064.203.17.347.11.144.258.224.148.076.313.076zM39.826 5.48l-.123.01h-.267q-.072 0-.16-.01v.86q0 .135-.069.17-.063.029-.16.029-.051 0-.08-.009-.03-.004-.052-.02-.017-.022-.03-.06-.008-.038-.012-.106-.008-.076-.013-.22l-.008-.38q0-.234-.004-.564v-.783q0-.174.042-.335.042-.165.152-.287.11-.127.297-.204.19-.076.482-.076.208 0 .402.047.2.046.352.16.152.115.245.31.094.194.094.486 0 .39-.17.606-.165.211-.457.3l.567.78q.076.1.076.207 0 .084-.059.131-.055.05-.14.05-.093 0-.16-.05-.068-.055-.127-.14zm.664-.986q0-.292-.178-.432-.173-.144-.554-.144-.14 0-.233.026-.093.021-.148.085-.055.063-.08.177-.022.11-.022.284v.288q0 .165.004.3.098.005.216.005h.229q.118 0 .25-.013.135-.017.25-.076.114-.064.19-.178.076-.119.076-.322zM42.155 3.529q.436 0 .698.131.263.131.402.347.14.216.182.491.047.276.047.56 0 .308-.08.583-.077.276-.242.483-.16.203-.415.326-.254.119-.605.119-.28 0-.449-.043-.165-.038-.258-.118-.089-.08-.119-.203-.03-.123-.03-.288V4.325q0-.182.03-.33.034-.148.127-.25.094-.106.263-.16.173-.056.449-.056zm.017 2.616q.262 0 .431-.093.174-.097.276-.254.101-.157.14-.356.042-.198.042-.406 0-.19-.03-.38-.03-.196-.123-.352-.093-.157-.267-.254-.173-.098-.461-.098-.262 0-.364.077-.102.076-.102.232v1.622q0 .131.093.199.098.063.365.063zM45.322 5.464l-.449.017q-.254.004-.601.004-.144 0-.246-.004-.101-.005-.165-.022-.063-.02-.093-.063-.03-.042-.03-.119 0-.038.009-.067.008-.034.038-.06.03-.025.08-.042.056-.021.14-.03l.11-.008q.051-.004.098-.004.046-.005.097-.005h.127q.229 0 .44.005.212 0 .44.012.102.009.157.026.055.013.085.038.03.025.034.06.008.033.008.075 0 .077-.055.127-.05.051-.224.06zM45.963 6.26q-.009-.153-.013-.318 0-.165-.004-.356-.004-.19-.004-.41v-.5q0-.3.004-.512.004-.216.021-.351.021-.136.064-.2.042-.063.118-.063.072 0 .127.047.055.046.064.216.008.152.012.27l.009.238q.004.114.004.241v.5l.906-1.038q.178-.203.275-.266.098-.068.17-.068.084 0 .122.042.043.043.043.106 0 .025-.009.05-.008.026-.038.073-.025.042-.08.11-.055.063-.149.165l-.588.64.927 1.32q.034.047.05.097.022.051.022.098 0 .08-.046.131-.043.055-.153.055-.089 0-.16-.05-.068-.047-.128-.14l-.804-1.19-.364.398-.009.322q-.004.16-.012.338-.004.102-.021.157-.013.055-.039.085-.025.03-.059.033-.03.009-.072.009-.076 0-.127-.05-.05-.056-.06-.23zM48.382 5.879q-.009-.136-.017-.369-.009-.233-.009-.478v-.288l.009-.309q.008-.313.038-.491.034-.178.127-.267.097-.089.27-.11.174-.021.462-.021h.089q.089 0 .212.004.122 0 .254.004l.224.009q.093.008.148.025.06.013.09.038.029.022.037.055.009.03.009.068 0 .098-.055.144-.055.042-.225.055-.084.009-.25.013h-.33q-.169 0-.304.004h-.17q-.11.004-.156.05-.043.043-.043.208l.004.187q.009.143.009.406h.351q.225 0 .364.008.144.005.22.026.08.021.11.068.03.046.03.122 0 .038-.008.072-.005.03-.034.055-.03.021-.085.038-.055.013-.156.022-.123.008-.233.012h-.568V5.756l.009.144q.004.067.017.114.017.047.055.076.042.03.118.043.08.012.212.012h.91q.148 0 .187.055.038.055.038.148 0 .077-.034.119-.034.038-.165.055-.127.021-.386.025-.254.005-.702.005-.19 0-.314-.034-.122-.034-.199-.115-.076-.08-.114-.207-.034-.131-.046-.317zM51.487 6.26l-.017-.496q-.004-.266-.004-.614l-.842-1.206q-.034-.047-.055-.097-.017-.051-.017-.098 0-.08.042-.131.046-.055.157-.055.088 0 .156.05.072.047.131.14l.631 1.004.63-1.004q.06-.093.128-.14.072-.05.16-.05.11 0 .153.055.047.05.047.131 0 .047-.021.098-.017.05-.051.097l-.826 1.181q0 .288-.008.555-.004.262-.017.575-.004.102-.021.157-.013.055-.038.085-.026.03-.06.033-.03.009-.072.009-.076 0-.127-.05-.05-.056-.059-.23z" style="-inkscape-font-specification:'Sniglet, Normal';font-variant-ligatures:normal;font-variant-caps:normal;font-variant-numeric:normal;font-feature-settings:normal;text-align:start"/></g><g aria-label="INDEX" style="line-height:1.25" font-weight="400" font-size="2.822" font-family="Sniglet" letter-spacing="0" word-spacing="0" fill="#c8c8c8" stroke-width=".265"><path d="M15.45 71.49q-.006-.1-.008-.211 0-.11-.003-.237t-.003-.274v-.333q0-.2.003-.341.003-.144.017-.235.014-.09.042-.132.031-.043.082-.043.025 0 .048.006.022.006.04.025.016.017.028.054.014.034.017.09l.008.181.006.158q.002.076.002.16v.43q0 .116-.002.228l-.006.23-.008.242q-.003.068-.015.104-.01.037-.028.057-.017.02-.04.022-.022.006-.05.006-.05 0-.088-.034-.036-.037-.042-.152zM17.214 71.533q-.09-.124-.172-.246l-.172-.27q-.09-.147-.209-.325-.115-.18-.28-.42v.38q0 .167-.002.31l-.006.272q-.002.127-.008.254-.003.068-.014.104-.009.037-.026.057-.017.02-.04.022-.019.006-.047.006-.05 0-.085-.034-.034-.037-.04-.152-.013-.31-.016-.621v-.647q0-.189.003-.296.005-.107.02-.16.016-.054.042-.069.028-.014.073-.014t.119.07q.073.069.16.182.088.112.187.26.101.146.2.301t.19.308l.169.276q-.003-.132-.003-.29v-.356q0-.223.003-.367.002-.147.014-.231.014-.085.042-.119.028-.034.079-.034.048 0 .085.031.036.031.042.144.006.102.008.181l.006.158q.003.076.003.16v.43q0 .116-.003.228l-.006.23q-.002.115-.008.242-.003.068-.014.104-.009.037-.026.057-.016.02-.039.022-.02.006-.048.006-.048 0-.082-.028-.034-.029-.099-.116zM18.456 69.67q.29 0 .465.088.175.087.269.231.093.144.12.328.032.183.032.372 0 .206-.054.39-.05.183-.16.321-.108.136-.277.218-.17.079-.404.079-.186 0-.299-.029-.11-.025-.172-.079-.06-.053-.079-.135-.02-.082-.02-.192v-1.061q0-.121.02-.22.023-.099.085-.167.062-.07.175-.107.115-.037.299-.037zm.011 1.744q.175 0 .288-.062.116-.065.183-.169.068-.104.093-.237.029-.133.029-.271 0-.127-.02-.254-.02-.13-.082-.234-.062-.105-.178-.17-.115-.064-.307-.064-.175 0-.243.05-.068.051-.068.156v1.08q0 .088.062.133.065.042.243.042zM19.641 71.237q-.005-.09-.01-.246-.006-.155-.006-.319v-.192l.005-.206q.006-.209.026-.327.022-.119.084-.178.065-.06.18-.073.117-.014.309-.014h.059l.14.002q.083 0 .17.003l.15.006q.062.005.099.017.04.008.059.025.02.014.025.037.006.02.006.045 0 .065-.037.096-.037.028-.15.037-.056.005-.166.008h-.22q-.113 0-.203.003h-.113q-.074.003-.105.034-.028.028-.028.138l.003.124q.006.096.006.271h.234q.15 0 .243.006.096.003.146.017.054.014.074.045.02.03.02.082 0 .025-.006.048-.003.02-.023.036-.02.015-.056.026-.037.008-.105.014-.081.006-.155.008h-.378v.345l.006.096q.002.045.01.076.012.03.038.05.028.02.079.029.053.008.14.008h.608q.098 0 .124.037.025.037.025.099 0 .05-.022.079-.023.025-.11.037-.085.014-.257.017-.17.002-.469.002-.127 0-.209-.022-.082-.023-.132-.076-.051-.054-.077-.139-.022-.087-.03-.211zM21.861 70.923l-.42.652q-.04.062-.088.093-.045.034-.104.034-.073 0-.104-.036-.029-.034-.029-.088 0-.03.012-.065.014-.034.036-.065l.525-.75-.525-.751q-.022-.031-.036-.065-.012-.034-.012-.065 0-.054.029-.087.03-.037.104-.037.06 0 .104.034.048.03.088.093l.42.652.421-.652q.04-.062.085-.093.048-.034.107-.034.073 0 .101.037.032.033.032.087 0 .031-.015.065-.01.034-.033.065l-.525.75.525.751q.022.031.033.065.015.034.015.065 0 .054-.032.088-.028.036-.101.036-.06 0-.107-.034-.046-.03-.085-.093z" style="-inkscape-font-specification:'Sniglet, Normal';font-variant-ligatures:normal;font-variant-caps:normal;font-variant-numeric:normal;font-feature-settings:normal;text-align:start"/></g><path d="M48.154 69.52h-1.323M48.154 78.516h-1.323M48.154 87.511h-1.323" fill="none" stroke="#c8c8c8" stroke-width=".132"/><g transform="matrix(1 0 0 1 -26.47 -161.274)"><rect width="4.24" height=".439" x="26.759" y="161.611" ry=".206" rx=".206" fill="url(#e)"/><rect width="4.24" height=".413" x="162.21" y="-26.119" ry=".194" transform="matrix(.00655 .99998 -.99973 .02317 0 0)" rx=".194" fill="url(#f)"/></g><rect rx="1.614" ry="1.614" y="60.573" x="8.228" height="7.161" width="10.513" fill="url(#g)"/><rect rx="1.614" ry="1.614" y="57.107" x="49.318" height="7.161" width="7.185" fill="url(#h)"/><rect rx=".529" ry=".529" y="86.392" x="16.72" height="6.391" width="4.655" fill="url(#i)"/><rect rx="1.614" ry="1.614" y="66.102" x="49.318" height="7.161" width="7.185" fill="url(#j)"/><rect rx="1.614" ry="1.614" y="75.098" x="49.318" height="7.161" width="7.185" fill="url(#k)"/><rect rx="1.614" ry="1.614" y="84.094" x="49.318" height="7.161" width="7.185" fill="url(#l)"/><g fill="#c8c8c8" font-weight="400" font-size="2.822" font-family="Sniglet" letter-spacing="0" word-spacing="0"><path d="M5.875 83.116q.093 0 .192.017t.18.051q.082.031.136.079.054.048.054.11 0 .065-.034.099t-.085.034q-.048 0-.09-.017l-.09-.037q-.051-.02-.122-.037-.07-.016-.178-.016-.118 0-.223.056-.101.054-.18.152-.08.096-.124.229-.046.133-.046.288 0 .189.048.327t.125.229q.079.09.175.135.098.043.197.043.161 0 .254-.046.096-.048.153-.12.002-.06.002-.142v-.178q0-.037-.005-.056-.006-.023-.028-.034-.023-.011-.068-.014-.043-.003-.116-.003-.09 0-.147-.023-.056-.025-.056-.104 0-.056.028-.09.031-.037.124-.043h.054q.04-.002.082-.002h.155q.085 0 .135.016.051.015.09.068.02.028.023.099.006.07.006.164v.728q0 .076-.042.113-.04.036-.094.036-.064 0-.107-.034-.04-.03-.04-.101v-.11q-.073.084-.174.121-.099.037-.251.037-.156 0-.305-.062-.15-.062-.266-.184-.115-.124-.189-.307-.07-.187-.07-.432 0-.246.07-.438.074-.191.198-.324.124-.136.29-.206.167-.07.36-.07zM7.988 84.97q-.028-.067-.062-.155-.03-.09-.068-.189l-.177.006H7.27q-.098 0-.18-.003l-.065.186q-.031.088-.06.155-.056.144-.163.144-.04 0-.076-.025-.034-.025-.034-.073 0-.048.017-.125.017-.079.042-.166.028-.09.06-.184.03-.095.059-.177.028-.09.079-.229.053-.141.113-.293.059-.153.118-.3.06-.15.107-.26l.029-.061q.017-.037.04-.068.024-.031.053-.054.03-.022.067-.022.037 0 .068.025.031.023.054.057.025.033.042.07.02.037.031.065l.102.26q.059.146.115.296.06.15.11.285.051.136.082.229l.057.175q.034.093.062.183.028.09.045.17.02.076.02.124t-.037.073q-.034.025-.073.025-.051 0-.093-.033-.043-.037-.074-.11zm-.5-.62l.136.002q.068 0 .136.003l-.068-.197-.065-.19q-.028-.09-.054-.166l-.04-.138q-.01-.037-.024-.06-.015-.022-.037-.022-.023 0-.037.025-.014.023-.025.06-.034.115-.096.302l-.127.386q.076-.003.152-.003l.15-.002zM9.364 83.399q-.079.005-.169.008L9 83.413l.006.144.005.132q.003.068.003.141.003.074.003.164v.246q0 .115-.003.234l-.005.234q-.003.119-.009.246-.003.067-.014.104-.008.037-.025.056-.017.02-.04.023-.022.006-.05.006-.051 0-.088-.034-.034-.037-.04-.153-.005-.101-.008-.214 0-.113-.003-.243t-.003-.28v-.335-.271q.003-.116.009-.2h-.116q-.119 0-.203-.003-.082-.003-.136-.014-.053-.014-.079-.043-.022-.028-.022-.079 0-.025.005-.045.006-.022.026-.04.02-.02.053-.03.037-.012.094-.017l.095-.006.085-.006q.042-.002.088-.002h.104q.167 0 .313.002.15.003.316.012.068.005.105.017.037.008.056.025.02.017.023.04.005.022.005.05 0 .051-.036.085-.034.034-.15.04zM9.766 84.685l-.011-.245q-.006-.155-.006-.319v-.192l.006-.206q.005-.209.025-.327.023-.119.085-.178.065-.06.18-.074.116-.014.308-.014h.06q.059 0 .14.003.082 0 .17.003l.15.006q.062.005.098.017.04.008.06.025.02.014.025.037.006.02.006.045 0 .065-.037.096-.037.028-.15.036-.056.006-.166.009h-.22q-.113 0-.204.003h-.112q-.074.003-.105.034-.028.028-.028.138l.003.124q.005.096.005.271h.235q.15 0 .242.006.096.002.147.017.054.014.073.045.02.03.02.082 0 .025-.005.048-.003.02-.023.036-.02.014-.056.026-.037.008-.105.014l-.155.008h-.378v.345l.005.095q.003.046.012.077.01.03.036.05.029.02.08.029.053.008.14.008h.607q.099 0 .124.037.026.037.026.099 0 .05-.023.079-.022.025-.11.036-.085.014-.257.017-.169.003-.468.003-.127 0-.209-.022-.082-.023-.133-.077-.05-.053-.076-.138-.022-.087-.03-.212z" style="line-height:1.25;-inkscape-font-specification:'Sniglet, Normal';font-variant-ligatures:normal;font-variant-caps:normal;font-variant-numeric:normal;font-feature-settings:normal;text-align:start"/></g><g aria-label="FORCE" style="line-height:1.25" font-weight="400" font-size="2.822" font-family="Sniglet" letter-spacing="0" word-spacing="0" fill="#c8c8c8" stroke-width=".265"><path d="M15.028 83.881q0-.237.017-.37.017-.135.07-.203.054-.068.153-.082.099-.017.26-.017h.163q.074 0 .142.003.07 0 .138.003l.152.006q.068.005.105.016.036.009.056.026.02.017.023.04.005.022.005.05 0 .051-.036.085-.034.034-.15.04l-.138.005-.15.006-.186.002H15.4q-.051 0-.07.037-.02.034-.02.088v.084q.002.043.002.093.003.051.003.116.003.062.003.147.104 0 .18.003.08 0 .136.002.06 0 .104.003l.088.006q.116.005.15.04.036.033.036.084 0 .028-.006.05-.002.023-.022.04-.02.017-.057.029-.036.01-.104.016l-.087.006q-.04 0-.096.003h-.322q-.003.17-.003.347.003.175-.008.361-.006.11-.04.136-.031.022-.096.022-.062 0-.093-.025-.031-.028-.037-.13-.005-.09-.008-.197 0-.11-.003-.249-.003-.141-.003-.316v-.406zM17.18 85.222q-.17 0-.32-.068-.147-.068-.257-.195-.11-.13-.175-.316-.062-.186-.062-.423 0-.223.054-.41.056-.186.164-.321.11-.136.27-.21.161-.075.373-.075.172 0 .327.062.156.062.271.186.119.124.187.31.067.187.067.435 0 .206-.056.392-.054.187-.167.328-.11.138-.279.223-.17.082-.398.082zm.005-.266q.155 0 .27-.062.116-.065.193-.17.076-.104.112-.239.037-.138.037-.282 0-.175-.048-.31-.045-.139-.124-.232t-.183-.141q-.105-.051-.223-.051-.142 0-.249.06-.104.059-.178.16-.07.102-.107.24-.036.135-.036.29 0 .167.042.306.042.135.113.23.073.097.172.15.099.051.209.051zM19.015 84.5l-.082.005h-.178q-.048 0-.107-.006v.573q0 .09-.045.113-.042.02-.107.02-.034 0-.054-.006-.02-.003-.034-.014-.011-.014-.02-.04-.005-.025-.008-.07-.006-.05-.009-.147l-.005-.254q0-.155-.003-.375v-.522q0-.116.028-.223.029-.11.102-.192.073-.085.197-.136.127-.05.322-.05.138 0 .268.03.133.032.235.108.101.076.163.206t.062.324q0 .26-.113.404-.11.141-.304.2l.378.52q.05.067.05.138 0 .056-.039.087-.037.034-.093.034-.062 0-.107-.034-.045-.036-.085-.093zm.443-.658q0-.195-.118-.288-.116-.096-.37-.096-.093 0-.155.017-.062.014-.1.056-.036.042-.053.119-.014.073-.014.189v.192q0 .11.003.2.065.003.144.003h.152q.08 0 .167-.009.09-.011.166-.05.076-.043.127-.119.051-.08.051-.215zM20.81 83.195q.094 0 .187.017.096.014.172.048.076.031.124.08.05.044.05.106 0 .065-.033.1-.034.033-.085.033-.048 0-.084-.014l-.085-.037q-.045-.02-.11-.034-.065-.017-.172-.017-.108 0-.206.057-.096.054-.17.152-.07.096-.113.229-.042.133-.042.288 0 .192.048.33.05.138.13.229.079.087.178.132.101.043.203.043.121 0 .203-.026.082-.025.138-.056.06-.031.102-.057.042-.025.082-.025.048 0 .076.028.028.026.028.093 0 .057-.045.116-.042.056-.127.104-.082.046-.197.077-.116.028-.26.028-.158 0-.316-.062-.155-.062-.28-.184-.12-.124-.197-.307-.076-.187-.076-.432 0-.246.067-.438.071-.192.19-.324.12-.136.279-.206.16-.07.341-.07zM21.698 84.764l-.011-.245q-.006-.155-.006-.319v-.192l.006-.206q.006-.209.025-.327.023-.119.085-.178.065-.06.18-.074.116-.014.308-.014h.06q.059 0 .14.003.083 0 .17.003l.15.006q.062.005.098.016.04.009.06.026.02.014.025.037.006.02.006.045 0 .065-.037.096-.037.028-.15.036-.056.006-.166.009h-.22q-.113 0-.203.003h-.113q-.074.002-.105.034-.028.028-.028.138l.003.124q.005.096.005.271h.235q.15 0 .242.006.096.002.147.016.054.015.074.046.02.03.02.081 0 .026-.006.048-.003.02-.023.037-.02.014-.056.026-.037.008-.105.014l-.155.008h-.378v.344l.005.096q.003.046.012.077.011.03.036.05.029.02.08.029.053.008.14.008h.607q.1 0 .125.037.025.037.025.099 0 .05-.023.079-.022.025-.11.036-.084.014-.257.017-.169.003-.468.003-.127 0-.209-.023-.082-.022-.133-.076-.05-.053-.076-.138-.022-.087-.03-.212z" style="-inkscape-font-specification:'Sniglet, Normal';font-variant-ligatures:normal;font-variant-caps:normal;font-variant-numeric:normal;font-feature-settings:normal;text-align:start"/></g><path d="M14.61 89.628h-1.323M14.08 76.399h-1.323" fill="#c8c8c8" stroke="#c8c8c8" stroke-width=".132"/><g aria-label="TR" style="line-height:1.25" font-weight="400" font-size="2.822" font-family="Sniglet" letter-spacing="0" word-spacing="0" fill="#c8c8c8" stroke-width=".265"><path d="M13.155 55.64q-.08.005-.17.008l-.194.006.005.144.006.132q.003.068.003.142.002.073.002.163v.246l-.002.234-.006.234q-.003.119-.009.246-.002.067-.014.104-.008.037-.025.057-.017.02-.04.022-.022.006-.05.006-.051 0-.088-.034-.034-.037-.04-.152-.005-.102-.008-.215 0-.113-.003-.243-.002-.13-.002-.28v-.335-.27q.002-.117.008-.201h-.116q-.118 0-.203-.003-.082-.003-.135-.014-.054-.014-.08-.042-.022-.029-.022-.08 0-.025.006-.045.005-.022.025-.04.02-.019.054-.03.036-.011.093-.017l.096-.006.084-.005q.043-.003.088-.003h.104q.167 0 .314.003.15.002.316.011.067.006.104.017.037.008.057.025.02.017.022.04.006.022.006.05 0 .051-.037.085-.034.034-.15.04zM14.191 56.661l-.081.006h-.178q-.048 0-.107-.006v.573q0 .09-.046.113-.042.02-.107.02-.034 0-.053-.006-.02-.002-.034-.014-.012-.014-.02-.04-.006-.025-.009-.07-.005-.05-.008-.147l-.006-.254-.002-.375v-.522q0-.116.028-.223.028-.11.101-.192.074-.085.198-.135.127-.051.322-.051.138 0 .268.03.132.032.234.108.102.076.164.206.062.13.062.325 0 .26-.113.403-.11.141-.305.2l.378.52q.051.068.051.138 0 .057-.04.088-.036.034-.093.034-.062 0-.107-.034-.045-.037-.084-.093zm.444-.657q0-.195-.119-.288-.116-.096-.37-.096-.093 0-.155.017-.062.014-.099.056-.036.043-.053.119-.014.073-.014.189v.192q0 .11.002.2.065.003.144.003h.153q.079 0 .166-.008.09-.012.167-.051.076-.043.127-.119.05-.079.05-.214z" style="-inkscape-font-specification:'Sniglet, Normal';font-variant-ligatures:normal;font-variant-caps:normal;font-variant-numeric:normal;font-feature-settings:normal;text-align:start"/></g><g aria-label="0 - 2V" style="line-height:1.25" font-weight="400" font-size="2.822" font-family="Sniglet" letter-spacing="0" word-spacing="0" fill="#c8c8c8" stroke-width=".265"><path d="M4.26 70.715q0-.173.03-.353.035-.18.12-.328.084-.146.228-.24.147-.093.372-.093.178 0 .302.054.127.054.21.141.081.088.126.2.045.11.068.232.023.121.025.24.006.118.006.217 0 .198-.048.364-.045.164-.141.282-.093.119-.237.187-.141.065-.333.065-.2 0-.342-.077-.138-.079-.225-.209-.085-.132-.125-.307-.036-.178-.036-.375zm.282-.006q0 .138.022.265.026.124.08.22.053.093.138.15.087.056.211.056.119 0 .206-.048.09-.048.15-.132.06-.088.088-.206.028-.119.028-.257 0-.105-.009-.237-.008-.136-.053-.254-.043-.119-.136-.2-.093-.082-.26-.082-.14 0-.23.067-.088.068-.142.175-.054.105-.073.235-.02.127-.02.248zM7.563 70.974q-.13.006-.3.011-.169.003-.4.003-.096 0-.164-.003-.068-.002-.11-.014-.042-.014-.062-.042-.02-.028-.02-.079 0-.025.006-.045.006-.023.025-.04.02-.017.054-.028.037-.014.093-.02l.073-.005q.034-.003.065-.003.031-.003.065-.003h.085q.152 0 .293.003.142 0 .294.008.068.006.104.017.037.009.057.026.02.017.022.04.006.022.006.05 0 .05-.037.085-.033.034-.15.04zM9.153 69.975q-.102 0-.17.023-.067.02-.112.053-.045.034-.074.07-.025.038-.05.071-.023.034-.051.057-.026.02-.065.02-.068 0-.096-.034-.025-.037-.025-.096 0-.124.093-.232.028-.034.076-.07.05-.04.118-.07.071-.032.161-.052.093-.022.21-.022.307 0 .476.15.17.149.17.42 0 .054-.012.118-.008.065-.037.136-.025.07-.073.147-.048.076-.127.155-.07.07-.15.13-.079.059-.163.118l-.178.127q-.09.065-.183.15.09.048.194.062.105.014.235.014.12 0 .194-.006.074-.005.119-.014l.07-.014q.026-.005.054-.005.104 0 .104.096 0 .084-.07.13-.07.045-.17.067-.098.02-.203.023-.104.005-.172.005-.037 0-.104-.005-.065-.003-.141-.014-.077-.012-.156-.031-.076-.023-.14-.057-.063-.037-.102-.087-.04-.054-.04-.127 0-.1.07-.187.074-.09.181-.175.108-.087.232-.172.124-.087.231-.178.107-.093.178-.191.073-.1.073-.215 0-.144-.098-.214-.096-.074-.277-.074zM10.94 71.567q-.036.068-.067.099-.028.03-.074.03-.045 0-.079-.03-.033-.031-.073-.096-.05-.085-.116-.235-.062-.15-.127-.324-.065-.178-.127-.367-.062-.19-.113-.356-.048-.166-.079-.29-.028-.127-.028-.181 0-.056.023-.085.022-.028.087-.028.037 0 .062.02.029.017.07.101.035.065.074.17.04.104.082.231.045.127.09.268l.09.277q.046.138.085.265l.074.229.076-.232.087-.265.09-.276q.046-.142.091-.266.045-.124.085-.228.04-.105.07-.173.04-.081.068-.101.031-.02.062-.02.065 0 .088.034.025.031.025.093 0 .057-.017.136-.017.079-.06.211-.039.13-.106.325l-.167.477q-.025.076-.06.158-.03.082-.064.16-.031.077-.062.147-.031.071-.06.122z" style="-inkscape-font-specification:'Sniglet, Normal';font-variant-ligatures:normal;font-variant-caps:normal;font-variant-numeric:normal;font-feature-settings:normal;text-align:start"/></g><path word-spacing="0" letter-spacing="0" font-size="3.528" font-weight="400" d="M22.33 56.841l-.09.11a.145.145 0 0 1-.107.045.15.15 0 0 1-.098-.038.236.236 0 0 1-.04-.05.116.116 0 0 1-.013-.056c0-.02.007-.047.02-.078a.806.806 0 0 1 .064-.116l.244-.399c.068-.115.13-.212.19-.29a.921.921 0 0 1 .159-.179c.05-.04.1-.06.155-.06a.25.25 0 0 1 .159.063.9.9 0 0 1 .159.18c.056.078.12.174.19.29.068.115.148.247.24.395a.979.979 0 0 1 .067.116c.01.025.016.051.018.078 0 .02-.005.039-.014.056a.223.223 0 0 1-.04.05.15.15 0 0 1-.098.038.132.132 0 0 1-.102-.046 1.857 1.857 0 0 1-.095-.109c-.315-.302-.754-.287-.967 0zM3.806 55.885a7.068 7.068 0 0 0-.09-.11.145.145 0 0 0-.107-.045.15.15 0 0 0-.098.038.236.236 0 0 0-.04.05.116.116 0 0 0-.013.056c0 .021.007.047.02.078.013.03.034.07.064.116l.244.4c.068.114.13.211.19.29.057.08.11.138.159.178.05.04.1.06.155.06a.25.25 0 0 0 .159-.063.9.9 0 0 0 .159-.18c.056-.078.12-.174.19-.29.068-.115.148-.247.24-.395a.979.979 0 0 0 .067-.116.226.226 0 0 0 .018-.078.114.114 0 0 0-.014-.056.223.223 0 0 0-.04-.05.15.15 0 0 0-.098-.038.132.132 0 0 0-.102.046c-.03.032-.063.07-.095.11-.315.301-.754.286-.967 0zM41.309 55.5l-.09.11a.145.145 0 0 1-.107.044.15.15 0 0 1-.098-.038.236.236 0 0 1-.04-.05.116.116 0 0 1-.013-.056c0-.02.007-.047.02-.078a.806.806 0 0 1 .064-.116l.244-.399c.068-.115.13-.212.19-.29a.921.921 0 0 1 .159-.179c.05-.04.1-.06.155-.06a.25.25 0 0 1 .159.063.9.9 0 0 1 .159.18c.056.078.12.174.19.29.068.115.148.247.24.395a.979.979 0 0 1 .067.116c.01.025.017.052.018.078 0 .02-.005.04-.014.056a.223.223 0 0 1-.04.05.15.15 0 0 1-.098.038.132.132 0 0 1-.102-.046 1.857 1.857 0 0 1-.095-.109c-.315-.302-.754-.287-.967 0zM30.462 54.543a7.068 7.068 0 0 0-.09-.11.145.145 0 0 0-.107-.045.15.15 0 0 0-.098.038.236.236 0 0 0-.04.05.116.116 0 0 0-.013.056c0 .021.007.047.02.078.013.03.034.07.064.116l.244.4c.068.114.13.211.19.29.057.08.11.138.159.178.05.04.1.06.155.06a.25.25 0 0 0 .159-.063.9.9 0 0 0 .159-.18c.056-.078.12-.174.19-.29.068-.115.148-.247.24-.395a.979.979 0 0 0 .067-.116.226.226 0 0 0 .018-.078.114.114 0 0 0-.014-.056.223.223 0 0 0-.04-.05.15.15 0 0 0-.098-.038.132.132 0 0 0-.102.046c-.03.032-.063.07-.095.11-.315.301-.754.286-.967 0z" style="line-height:1.25;-inkscape-font-specification:'Sniglet, Normal';font-variant-ligatures:normal;font-variant-caps:normal;font-variant-numeric:normal;font-feature-settings:normal;text-align:start" font-family="Sniglet" fill="#c8c8c8"/></svg>