<?xml version="1.0" encoding="UTF-8" standalone="no"?>
<svg
   xmlns:dc="http://purl.org/dc/elements/1.1/"
   xmlns:cc="http://creativecommons.org/ns#"
   xmlns:rdf="http://www.w3.org/1999/02/22-rdf-syntax-ns#"
   xmlns:svg="http://www.w3.org/2000/svg"
   xmlns="http://www.w3.org/2000/svg"
   xmlns:xlink="http://www.w3.org/1999/xlink"
   xmlns:sodipodi="http://sodipodi.sourceforge.net/DTD/sodipodi-0.dtd"
   xmlns:inkscape="http://www.inkscape.org/namespaces/inkscape"
   width="106.68mm"
   height="128.5mm"
   viewBox="0 0 106.68032 128.50044"
   version="1.1"
   id="svg104"
   sodipodi:docname="ChordKey_dark.svg"
   inkscape:version="0.92.2 (5c3e80d, 2017-08-06)">
  <metadata
     id="metadata108">
    <rdf:RDF>
      <cc:Work
         rdf:about="">
        <dc:format>image/svg+xml</dc:format>
        <dc:type
           rdf:resource="http://purl.org/dc/dcmitype/StillImage" />
        <dc:title />
      </cc:Work>
    </rdf:RDF>
  </metadata>
  <sodipodi:namedview
     pagecolor="#ffffff"
     bordercolor="#666666"
     borderopacity="1"
     objecttolerance="10"
     gridtolerance="10"
     guidetolerance="10"
     inkscape:pageopacity="0"
     inkscape:pageshadow="2"
     inkscape:window-width="1366"
     inkscape:window-height="705"
     id="namedview106"
     showgrid="false"
     inkscape:document-units="mm"
     units="mm"
     inkscape:zoom="1.0192121"
     inkscape:cx="34.313927"
     inkscape:cy="242.83465"
     inkscape:window-x="251"
     inkscape:window-y="1072"
     inkscape:window-maximized="1"
     inkscape:current-layer="svg104" />
  <defs
     id="defs26">
    <linearGradient
       xlink:href="#a"
       id="e"
       x1="26.759001"
       y1="162"
       x2="30.999001"
       y2="162"
       gradientUnits="userSpaceOnUse"
       gradientTransform="matrix(1,0,0,0.56406,0,70.452)" />
    <linearGradient
       id="a">
      <stop
         offset="0"
         stop-color="#fff"
         id="stop3" />
      <stop
         offset="1"
         stop-color="#fff"
         stop-opacity="0"
         id="stop5" />
    </linearGradient>
    <linearGradient
       xlink:href="#b"
       id="f"
       x1="26.759001"
       y1="162"
       x2="30.999001"
       y2="162"
       gradientUnits="userSpaceOnUse"
       gradientTransform="matrix(0.99995,0,0,0.53173,135.453,-112.052)" />
    <linearGradient
       id="b">
      <stop
         offset="0"
         stop-color="#fff"
         stop-opacity=".992"
         id="stop9" />
      <stop
         offset="1"
         stop-color="#fff"
         stop-opacity="0"
         id="stop11" />
    </linearGradient>
    <linearGradient
       xlink:href="#c"
       id="g"
       x1="66.150002"
       y1="224.20399"
       x2="66.150002"
       y2="233.271"
       gradientUnits="userSpaceOnUse"
       gradientTransform="matrix(1.7971332,0,0,1.0109186,-101.70114,-149.21609)" />
    <linearGradient
       id="c">
      <stop
         offset="0"
         id="stop15" />
      <stop
         offset="1"
         stop-color="#8c8c8c"
         id="stop17" />
    </linearGradient>
    <linearGradient
       xlink:href="#c"
       id="h"
       x1="66.150002"
       y1="224.20399"
       x2="66.150002"
       y2="233.271"
       gradientUnits="userSpaceOnUse"
       gradientTransform="matrix(1.2281603,0,0,1.0109186,-13.573123,-153.65257)" />
    <linearGradient
       xlink:href="#c"
       id="i"
       x1="66.150002"
       y1="224.20399"
       x2="66.150002"
       y2="233.271"
       gradientUnits="userSpaceOnUse"
       gradientTransform="matrix(0.79572499,0,0,0.90227221,-28.291847,-91.808071)" />
    <linearGradient
       xlink:href="#c"
       id="j"
       x1="66.150002"
       y1="224.20399"
       x2="66.150002"
       y2="233.271"
       gradientUnits="userSpaceOnUse"
       gradientTransform="matrix(1.2281603,0,0,1.0109186,-13.573123,-142.13769)" />
    <linearGradient
       xlink:href="#c"
       id="k"
       x1="66.150002"
       y1="224.20399"
       x2="66.150002"
       y2="233.271"
       gradientUnits="userSpaceOnUse"
       gradientTransform="matrix(1.2281603,0,0,1.0109186,-13.573123,-130.6228)" />
    <linearGradient
       xlink:href="#c"
       id="l"
       x1="66.150002"
       y1="224.20399"
       x2="66.150002"
       y2="233.271"
       gradientUnits="userSpaceOnUse"
       gradientTransform="matrix(1.2281603,0,0,1.0109186,-13.573123,-119.1092)" />
    <linearGradient
       xlink:href="#c"
       id="d"
       x1="98.709"
       y1="167.24001"
       x2="98.709"
       y2="197.73399"
       gradientUnits="userSpaceOnUse"
       gradientTransform="matrix(4.5382411,0,0,1.7598084,-395.17833,-283.15659)" />
  </defs>
  <path
     d="M 0,0 H 106.68035 V 128.50041 H 0 Z m 0,0"
     id="path28"
     inkscape:connector-curvature="0"
     style="fill:#1e1e1e;stroke-width:1;fill-opacity:1" />
  <rect
     rx="2.3399999"
     ry="2.3399999"
     y="67.151329"
     x="75.840019"
     height="51.729935"
     width="26.929926"
     id="rect30"
     style="fill:#3e3e3e;stroke:#8c8c8c;stroke-width:0.24600001;paint-order:stroke markers fill;stroke-opacity:1" />
  <g
     style="line-height:1.25;stroke-width:0.78124982"
     id="g34"
     transform="matrix(1.2800003,0,0,1.2800003,0,-0.09605039)">
    <path
       word-spacing="0"
       letter-spacing="0"
       font-weight="400"
       aria-label="♫"
       font-size="3.528"
       style="font-weight:400;font-size:3.52800012px;font-family:Arial;-inkscape-font-specification:'Arial, Normal';font-variant-ligatures:normal;font-variant-caps:normal;font-variant-numeric:normal;font-feature-settings:normal;text-align:start;letter-spacing:0;word-spacing:0;fill:#969696;stroke-width:0.78124982"
       d="m 50.134,96.87 -1.63,0.115 v -2.06 q 0,-0.23 0.065,-0.333 0.064,-0.104 0.22,-0.147 0.153,-0.043 0.348,-0.002 0.223,0.047 0.356,0.19 0.133,0.146 0.133,0.33 0,0.186 -0.157,0.286 -0.158,0.103 -0.408,0.05 -0.082,-0.018 -0.143,-0.044 -0.064,-0.027 -0.205,-0.11 v 1.345 l 1.22,-0.085 v -1.554 q 0,-0.225 0.064,-0.337 0.066,-0.11 0.226,-0.151 0.16,-0.04 0.348,0 0.223,0.047 0.354,0.19 0.13,0.14 0.13,0.325 0,0.195 -0.156,0.294 -0.156,0.1 -0.408,0.047 -0.16,-0.034 -0.357,-0.16 z"
       id="path32"
       inkscape:connector-curvature="0" />
  </g>
  <g
     style="line-height:1.25;stroke-width:0.78124982"
     id="g38"
     transform="matrix(1.2800003,0,0,1.2800003,0,-0.09605039)">
    <path
       word-spacing="0"
       letter-spacing="0"
       font-size="3.528"
       font-weight="400"
       aria-label="IMPROMPT"
       d="m 32.116,96.698 q -0.007,-0.127 -0.01,-0.265 0,-0.137 -0.004,-0.296 -0.003,-0.159 -0.003,-0.342 v -0.417 q 0,-0.25 0.003,-0.426 0.004,-0.18 0.021,-0.293 0.018,-0.113 0.053,-0.166 0.04,-0.053 0.102,-0.053 0.032,0 0.06,0.007 0.03,0.007 0.05,0.032 0.02,0.02 0.035,0.067 0.018,0.042 0.021,0.113 0.007,0.127 0.01,0.225 l 0.008,0.198 q 0.003,0.095 0.003,0.201 v 0.536 q 0,0.145 -0.003,0.286 l -0.007,0.286 -0.01,0.303 q -0.004,0.085 -0.018,0.13 -0.015,0.047 -0.036,0.071 -0.02,0.025 -0.05,0.028 -0.027,0.007 -0.063,0.007 -0.063,0 -0.109,-0.042 -0.046,-0.046 -0.053,-0.19 z m 1.754,-0.381 q -0.162,-0.357 -0.29,-0.688 -0.123,-0.335 -0.21,-0.596 -0.082,0.437 -0.139,0.882 -0.053,0.444 -0.137,0.85 -0.02,0.092 -0.078,0.123 -0.056,0.028 -0.095,0.028 -0.064,0 -0.102,-0.038 -0.036,-0.04 -0.036,-0.1 0,-0.08 0.018,-0.246 0.021,-0.17 0.05,-0.381 0.031,-0.212 0.07,-0.445 l 0.078,-0.448 0.077,-0.395 q 0.04,-0.176 0.067,-0.271 0.046,-0.163 0.187,-0.163 0.085,0 0.145,0.085 0.06,0.081 0.127,0.254 0.07,0.17 0.166,0.43 0.098,0.262 0.254,0.614 0.151,-0.352 0.243,-0.61 0.095,-0.261 0.16,-0.43 0.066,-0.173 0.126,-0.254 0.06,-0.085 0.148,-0.085 0.081,0 0.123,0.042 0.043,0.039 0.064,0.12 0.025,0.099 0.06,0.275 0.035,0.173 0.074,0.388 0.042,0.212 0.081,0.445 0.04,0.233 0.07,0.444 0.032,0.212 0.05,0.385 0.021,0.17 0.021,0.261 0,0.056 -0.039,0.092 -0.038,0.031 -0.098,0.031 -0.04,0 -0.096,-0.028 -0.056,-0.032 -0.077,-0.123 -0.043,-0.201 -0.078,-0.417 l -0.063,-0.433 -0.057,-0.441 q -0.028,-0.223 -0.06,-0.441 -0.046,0.14 -0.106,0.31 -0.06,0.17 -0.127,0.342 -0.067,0.17 -0.137,0.335 -0.07,0.166 -0.138,0.3 -0.024,0.046 -0.067,0.07 -0.039,0.022 -0.08,0.022 -0.047,0 -0.09,-0.021 -0.038,-0.025 -0.06,-0.074 z m 2.005,0.377 q 0,0.085 -0.018,0.13 -0.014,0.047 -0.039,0.071 -0.02,0.025 -0.053,0.029 -0.028,0.007 -0.056,0.007 -0.095,0 -0.127,-0.043 -0.028,-0.042 -0.039,-0.19 -0.007,-0.078 -0.01,-0.226 -0.004,-0.148 -0.007,-0.353 0,-0.204 -0.004,-0.451 v -0.522 q 0,-0.131 0.032,-0.265 0.032,-0.134 0.12,-0.243 0.091,-0.11 0.25,-0.177 0.162,-0.067 0.42,-0.067 0.18,0 0.342,0.039 0.162,0.039 0.286,0.134 0.123,0.095 0.198,0.254 0.074,0.159 0.074,0.395 0,0.247 -0.082,0.41 -0.08,0.162 -0.229,0.257 -0.148,0.095 -0.353,0.134 -0.204,0.039 -0.448,0.039 h -0.12 q -0.06,0 -0.134,-0.007 z m 1.016,-1.485 q 0,-0.236 -0.134,-0.356 -0.13,-0.12 -0.438,-0.12 -0.116,0 -0.2,0.021 -0.082,0.018 -0.135,0.067 -0.053,0.046 -0.08,0.127 -0.026,0.081 -0.026,0.205 v 0.275 q 0,0.151 0.004,0.286 0.081,0.004 0.18,0.004 h 0.19 q 0.106,0 0.22,-0.015 0.115,-0.014 0.207,-0.063 0.092,-0.053 0.152,-0.152 0.06,-0.102 0.06,-0.278 z m 1.451,0.84 -0.102,0.007 h -0.223 q -0.06,0 -0.134,-0.007 v 0.716 q 0,0.113 -0.056,0.14 -0.053,0.026 -0.134,0.026 -0.042,0 -0.067,-0.007 -0.025,-0.004 -0.042,-0.018 -0.015,-0.018 -0.025,-0.05 -0.007,-0.031 -0.01,-0.088 -0.008,-0.063 -0.01,-0.183 -0.005,-0.123 -0.008,-0.318 0,-0.194 -0.004,-0.469 v -0.652 q 0,-0.145 0.035,-0.279 0.036,-0.138 0.127,-0.24 0.092,-0.106 0.247,-0.17 0.16,-0.063 0.402,-0.063 0.173,0 0.336,0.039 0.165,0.039 0.292,0.134 0.127,0.095 0.205,0.258 0.078,0.162 0.078,0.405 0,0.325 -0.14,0.505 -0.139,0.176 -0.382,0.25 l 0.472,0.65 q 0.064,0.084 0.064,0.172 0,0.07 -0.05,0.11 -0.046,0.042 -0.116,0.042 -0.078,0 -0.134,-0.042 -0.057,-0.046 -0.106,-0.117 z m 0.554,-0.822 q 0,-0.244 -0.148,-0.36 -0.145,-0.12 -0.462,-0.12 -0.117,0 -0.194,0.021 -0.078,0.018 -0.124,0.07 -0.046,0.054 -0.067,0.149 -0.018,0.091 -0.018,0.236 v 0.24 q 0,0.138 0.004,0.25 0.081,0.005 0.18,0.005 h 0.19 q 0.1,0 0.208,-0.011 0.113,-0.014 0.21,-0.064 0.094,-0.052 0.157,-0.148 0.064,-0.099 0.064,-0.268 z m 1.61,1.725 q -0.213,0 -0.399,-0.085 -0.184,-0.085 -0.322,-0.243 -0.137,-0.163 -0.218,-0.395 -0.078,-0.233 -0.078,-0.53 0,-0.278 0.067,-0.511 0.07,-0.233 0.205,-0.402 0.137,-0.17 0.338,-0.261 0.202,-0.096 0.466,-0.096 0.215,0 0.41,0.078 0.193,0.078 0.338,0.233 0.148,0.155 0.233,0.388 0.085,0.233 0.085,0.543 0,0.258 -0.07,0.49 -0.068,0.233 -0.209,0.41 -0.138,0.173 -0.35,0.278 -0.21,0.103 -0.497,0.103 z m 0.006,-0.332 q 0.194,0 0.34,-0.077 0.144,-0.082 0.24,-0.212 0.094,-0.13 0.14,-0.3 0.046,-0.173 0.046,-0.353 0,-0.218 -0.06,-0.388 -0.057,-0.173 -0.155,-0.29 -0.1,-0.115 -0.23,-0.175 -0.13,-0.064 -0.278,-0.064 -0.177,0 -0.31,0.074 -0.13,0.074 -0.223,0.201 -0.088,0.127 -0.134,0.3 -0.046,0.17 -0.046,0.363 0,0.209 0.053,0.381 0.053,0.17 0.141,0.29 0.092,0.12 0.215,0.187 0.124,0.063 0.261,0.063 z m 2.384,-0.303 q -0.162,-0.357 -0.29,-0.688 -0.123,-0.335 -0.21,-0.596 -0.082,0.437 -0.138,0.882 -0.053,0.444 -0.138,0.85 -0.02,0.092 -0.078,0.123 -0.056,0.028 -0.095,0.028 -0.063,0 -0.102,-0.038 -0.036,-0.04 -0.036,-0.1 0,-0.08 0.018,-0.246 0.021,-0.17 0.05,-0.381 0.031,-0.212 0.07,-0.445 l 0.078,-0.448 0.077,-0.395 q 0.04,-0.176 0.067,-0.271 0.046,-0.163 0.187,-0.163 0.085,0 0.145,0.085 0.06,0.081 0.127,0.254 0.07,0.17 0.166,0.43 0.1,0.262 0.254,0.614 0.151,-0.352 0.243,-0.61 0.095,-0.261 0.16,-0.43 0.066,-0.173 0.126,-0.254 0.06,-0.085 0.148,-0.085 0.081,0 0.124,0.042 0.042,0.039 0.063,0.12 0.025,0.099 0.06,0.275 0.035,0.173 0.074,0.388 0.042,0.212 0.081,0.445 0.04,0.233 0.07,0.444 0.033,0.212 0.05,0.385 0.021,0.17 0.021,0.261 0,0.056 -0.038,0.092 -0.04,0.031 -0.1,0.031 -0.038,0 -0.094,-0.028 -0.057,-0.032 -0.078,-0.123 -0.042,-0.201 -0.078,-0.417 L 43.817,95.915 43.76,95.474 q -0.028,-0.223 -0.06,-0.441 -0.045,0.14 -0.105,0.31 -0.06,0.17 -0.127,0.342 -0.067,0.17 -0.138,0.335 -0.07,0.166 -0.138,0.3 -0.024,0.046 -0.067,0.07 -0.038,0.022 -0.08,0.022 -0.047,0 -0.089,-0.021 -0.039,-0.025 -0.06,-0.074 z m 2.005,0.377 q 0,0.085 -0.018,0.13 -0.014,0.047 -0.038,0.071 -0.022,0.025 -0.053,0.029 -0.029,0.007 -0.057,0.007 -0.095,0 -0.127,-0.043 -0.028,-0.042 -0.039,-0.19 -0.007,-0.078 -0.01,-0.226 -0.004,-0.148 -0.007,-0.353 0,-0.204 -0.004,-0.451 v -0.522 q 0,-0.131 0.032,-0.265 0.032,-0.134 0.12,-0.243 0.092,-0.11 0.25,-0.177 0.163,-0.067 0.42,-0.067 0.18,0 0.342,0.039 0.163,0.039 0.286,0.134 0.124,0.095 0.198,0.254 0.074,0.159 0.074,0.395 0,0.247 -0.08,0.41 -0.083,0.162 -0.23,0.257 -0.149,0.095 -0.353,0.134 -0.205,0.039 -0.449,0.039 h -0.12 q -0.06,0 -0.134,-0.007 z m 1.016,-1.485 q 0,-0.236 -0.134,-0.356 -0.13,-0.12 -0.438,-0.12 -0.116,0 -0.2,0.021 -0.082,0.018 -0.135,0.067 -0.053,0.046 -0.08,0.127 -0.025,0.081 -0.025,0.205 v 0.275 q 0,0.151 0.003,0.286 0.081,0.004 0.18,0.004 h 0.19 q 0.106,0 0.22,-0.015 0.116,-0.014 0.207,-0.063 0.092,-0.053 0.152,-0.152 0.06,-0.102 0.06,-0.278 z m 1.974,-0.437 q -0.099,0.007 -0.212,0.01 l -0.243,0.007 0.007,0.18 0.007,0.166 q 0.004,0.085 0.004,0.176 0.003,0.092 0.003,0.205 v 0.307 q 0,0.144 -0.003,0.293 l -0.007,0.292 -0.01,0.307 q -0.004,0.085 -0.019,0.13 -0.01,0.047 -0.03,0.072 -0.023,0.024 -0.05,0.028 -0.029,0.007 -0.064,0.007 -0.064,0 -0.11,-0.043 -0.042,-0.045 -0.049,-0.19 -0.007,-0.127 -0.01,-0.268 0,-0.141 -0.004,-0.304 -0.004,-0.162 -0.004,-0.349 V 95.04 q 0.004,-0.145 0.011,-0.25 h -0.145 q -0.148,0 -0.254,-0.005 -0.102,-0.004 -0.169,-0.017 -0.067,-0.018 -0.099,-0.053 -0.028,-0.036 -0.028,-0.1 0,-0.03 0.007,-0.055 0.007,-0.029 0.032,-0.05 0.025,-0.025 0.067,-0.039 0.046,-0.014 0.116,-0.02 l 0.12,-0.008 0.106,-0.007 q 0.053,-0.004 0.11,-0.004 h 0.13 q 0.208,0 0.392,0.004 0.186,0.004 0.395,0.014 0.084,0.007 0.13,0.021 0.046,0.011 0.07,0.032 0.025,0.021 0.03,0.05 0.006,0.028 0.006,0.063 0,0.064 -0.046,0.106 -0.042,0.042 -0.187,0.05 z"
       style="font-weight:400;font-size:3.52800012px;font-family:Sniglet;-inkscape-font-specification:'Sniglet, Normal';font-variant-ligatures:normal;font-variant-caps:normal;font-variant-numeric:normal;font-feature-settings:normal;text-align:start;letter-spacing:0;word-spacing:0;fill:#c8c8c8;stroke-width:0.78124982"
       id="path36"
       inkscape:connector-curvature="0" />
  </g>
  <path
     word-spacing="0"
     letter-spacing="0"
     font-size="2.822"
     font-weight="400"
     style="font-weight:400;font-size:2.82200003px;line-height:1.25;font-family:Sniglet;-inkscape-font-specification:'Sniglet, Normal';font-variant-ligatures:normal;font-variant-caps:normal;font-variant-numeric:normal;font-feature-settings:normal;text-align:start;letter-spacing:0;word-spacing:0;fill:#c8c8c8;stroke-width:1"
     d="m 92.770582,69.223646 q 0.12032,0 0.24576,0.02176 0.128,0.02176 0.23168,0.064 0.10496,0.04096 0.1728,0.1024 0.06912,0.06144 0.06912,0.140801 0,0.08192 -0.04352,0.12544 -0.04352,0.04352 -0.1088,0.04352 -0.06144,0 -0.1152,-0.02176 l -0.1152,-0.04608 q -0.064,-0.0256 -0.15616,-0.04736 -0.0896,-0.02176 -0.22656,-0.02176 -0.15232,0 -0.28544,0.07296 -0.13056,0.06784 -0.2304,0.19456 -0.1024,0.12288 -0.16,0.2944 -0.0576,0.16768 -0.0576,0.36608 0,0.2432 0.06144,0.41984 0.06144,0.17664 0.15872,0.29184 0.1024,0.1152 0.224,0.17408 0.128,0.05376 0.25216,0.05376 0.20608,0 0.32512,-0.0576 0.12288,-0.06144 0.19584,-0.1536 0.0038,-0.0768 0.0038,-0.18176 v -0.22784 q 0,-0.04736 -0.0077,-0.07296 -0.0077,-0.02816 -0.03584,-0.04352 -0.02944,-0.0128 -0.08704,-0.01792 -0.05376,-0.0038 -0.14848,-0.0038 -0.1152,0 -0.18816,-0.02816 -0.07168,-0.03328 -0.07168,-0.1344 0,-0.07168 0.03584,-0.1152 0.03968,-0.04736 0.15872,-0.05376 h 0.06912 q 0.0512,-0.0038 0.10496,-0.0038 h 0.1984 q 0.1088,0 0.17408,0.02176 0.064,0.01792 0.1152,0.08576 0.0256,0.03584 0.02816,0.128 0.0077,0.0896 0.0077,0.20864 v 0.93184 q 0,0.09728 -0.05376,0.14464 -0.0512,0.04608 -0.11904,0.04608 -0.0832,0 -0.13696,-0.04224 -0.0512,-0.0384 -0.0512,-0.13056 v -0.1408 q -0.09344,0.1088 -0.224,0.1536 -0.12672,0.04864 -0.32,0.04864 -0.19968,0 -0.39168,-0.07936 -0.192,-0.07936 -0.3392,-0.23552 -0.14848,-0.15872 -0.243201,-0.39296 -0.0896,-0.23808 -0.0896,-0.55296 0,-0.31488 0.0896,-0.55936 0.09472,-0.24576 0.253441,-0.416 0.16,-0.172801 0.37248,-0.263681 0.21376,-0.0896 0.4608,-0.0896 z m 2.70592,2.373121 q -0.03712,-0.08704 -0.07936,-0.1984 -0.0384,-0.1152 -0.08704,-0.2432 l -0.22784,0.009 h -0.52352 q -0.12672,0 -0.2304,-0.0038 l -0.08448,0.23808 q -0.0384,0.11136 -0.07552,0.1984 -0.07168,0.18432 -0.20992,0.18432 -0.0512,0 -0.09728,-0.032 -0.04352,-0.03328 -0.04352,-0.09472 0,-0.06144 0.02176,-0.15872 0.02176,-0.1024 0.05376,-0.21248 l 0.0768,-0.23552 q 0.0384,-0.12288 0.0768,-0.22784 0.03456,-0.1152 0.09984,-0.29184 l 0.14464,-0.37632 0.15104,-0.384 q 0.0768,-0.192 0.13824,-0.332801 0.01408,-0.03456 0.03584,-0.0768 0.02176,-0.04736 0.0512,-0.08704 0.032,-0.0384 0.06784,-0.06912 0.03968,-0.02944 0.08704,-0.02944 0.04608,0 0.08576,0.03328 0.03968,0.02816 0.06912,0.07168 0.032,0.04352 0.05376,0.0896 0.0256,0.04864 0.03968,0.08448 l 0.13056,0.332801 q 0.0768,0.18688 0.14848,0.37888 0.0768,0.192 0.1408,0.3648 0.064,0.1728 0.10368,0.29184 l 0.07296,0.224 q 0.04352,0.11904 0.07936,0.23552 0.03584,0.1152 0.0576,0.2176 0.0256,0.096 0.0256,0.15744 0,0.06144 -0.04736,0.09472 -0.04352,0.032 -0.09344,0.032 -0.064,0 -0.11904,-0.04352 -0.05504,-0.04608 -0.09472,-0.1408 z m -0.64,-0.7936 0.17408,0.0026 q 0.08576,0 0.1728,0.0038 l -0.08704,-0.25216 -0.0832,-0.2432 -0.06784,-0.21248 -0.0512,-0.17664 q -0.0128,-0.04736 -0.032,-0.0768 -0.01792,-0.02816 -0.04736,-0.02816 -0.02816,0 -0.04608,0.032 -0.0192,0.02944 -0.03328,0.0768 -0.04352,0.1472 -0.12288,0.384 l -0.16256,0.49664 q 0.09728,-0.0038 0.19584,-0.0038 0.09728,-0.0038 0.192,-0.0038 z m 2.401281,-1.21856 q -0.1024,0.0077 -0.2176,0.01024 l -0.24832,0.0077 0.0077,0.18432 0.0077,0.17024 q 0.0038,0.08576 0.0038,0.1792 0.0038,0.09472 0.0038,0.20992 v 0.31488 q 0,0.14848 -0.0038,0.29952 l -0.0077,0.29952 -0.01024,0.31488 q -0.0038,0.08704 -0.01792,0.13312 -0.01024,0.04736 -0.03328,0.07296 -0.02176,0.0256 -0.0512,0.02816 -0.02816,0.0077 -0.064,0.0077 -0.064,0 -0.11264,-0.04352 -0.04352,-0.04608 -0.0512,-0.19456 -0.0064,-0.13056 -0.009,-0.27392 0,-0.14464 -0.0038,-0.31104 -0.0038,-0.1664 -0.0038,-0.3584 v -0.77568 q 0.0038,-0.14848 0.01024,-0.256 h -0.14848 q -0.15104,0 -0.25984,-0.0051 -0.104961,-0.0038 -0.174081,-0.01792 -0.06784,-0.01792 -0.10112,-0.05376 -0.02816,-0.03584 -0.02816,-0.102401 0,-0.03072 0.0077,-0.05632 0.0077,-0.02944 0.032,-0.0512 0.0256,-0.0256 0.06912,-0.0384 0.04736,-0.01536 0.11904,-0.02304 l 0.122881,-0.0077 0.1088,-0.0077 q 0.05376,-0.0038 0.11136,-0.0038 h 0.1344 q 0.21248,0 0.40064,0.0038 0.192,0.0038 0.40448,0.01536 0.08704,0.0077 0.13312,0.02048 0.04736,0.01024 0.07296,0.03328 0.0256,0.02176 0.02816,0.0512 0.0077,0.02816 0.0077,0.064 0,0.064 -0.04608,0.108801 -0.04352,0.04352 -0.192,0.0512 z m 0.51456,1.64736 q -0.0077,-0.1152 -0.01536,-0.31488 -0.0077,-0.1984 -0.0077,-0.40704 v -0.24576 l 0.0077,-0.26368 q 0.0077,-0.2688 0.03328,-0.41984 0.02816,-0.151041 0.10752,-0.227841 0.0832,-0.0768 0.23168,-0.09344 0.14848,-0.01792 0.39424,-0.01792 h 0.0768 q 0.0768,0 0.1792,0.0038 0.10496,0 0.2176,0.0038 l 0.192,0.0077 q 0.07808,0.0077 0.12544,0.02176 0.0512,0.01024 0.0768,0.032 0.0256,0.01792 0.03072,0.04736 0.0077,0.0256 0.0077,0.0576 0,0.0832 -0.04608,0.122881 -0.04736,0.03584 -0.192,0.04736 -0.07168,0.0077 -0.21248,0.01024 h -0.2816 q -0.14464,0 -0.26112,0.0038 h -0.14464 q -0.09344,0.0038 -0.13312,0.04352 -0.03584,0.03584 -0.03584,0.17664 l 0.0038,0.15872 q 0.0077,0.12288 0.0077,0.3456 h 0.29952 q 0.192,0 0.31104,0.009 0.12288,0.0038 0.18688,0.02176 0.06912,0.01792 0.09472,0.0576 0.0256,0.0384 0.0256,0.10496 0,0.032 -0.0077,0.06144 -0.0038,0.0256 -0.02944,0.04736 -0.0256,0.01792 -0.07168,0.032 -0.04736,0.01024 -0.1344,0.01792 -0.10496,0.0077 -0.1984,0.01024 h -0.48384 v 0.44032 l 0.0077,0.12288 q 0.0038,0.05888 0.01408,0.09856 0.01408,0.0384 0.04736,0.064 0.03584,0.0256 0.1024,0.0384 0.06656,0.009 0.1792,0.009 h 0.77696 q 0.128,0 0.15872,0.04608 0.032,0.04736 0.032,0.128 0,0.064 -0.02816,0.09984 -0.02944,0.03328 -0.1408,0.04736 -0.1088,0.01792 -0.32896,0.02176 -0.2176,0.0038 -0.60032,0.0038 -0.16256,0 -0.26624,-0.02944 -0.10496,-0.02816 -0.17024,-0.09728 -0.064,-0.06912 -0.09728,-0.17664 -0.02944,-0.11264 -0.0384,-0.27136 z"
     id="path40"
     inkscape:connector-curvature="0" />
  <path
     word-spacing="0"
     letter-spacing="0"
     font-size="10.667"
     font-weight="400"
     style="font-weight:400;font-size:10.66699982px;line-height:1.25;font-family:Sniglet;-inkscape-font-specification:'Sniglet, Normal';font-variant-ligatures:normal;font-variant-caps:normal;font-variant-numeric:normal;font-feature-settings:normal;text-align:start;letter-spacing:0;word-spacing:0;fill:#c8c8c8;stroke-width:1"
     d="m 82.005779,69.332446 q 0.11904,0 0.23808,0.02176 0.12288,0.01792 0.22144,0.06144 0.09728,0.03968 0.15872,0.102401 0.064,0.05632 0.064,0.13568 0,0.0832 -0.04224,0.128 -0.04352,0.04224 -0.1088,0.04224 -0.06144,0 -0.1088,-0.01792 -0.04608,-0.02176 -0.10752,-0.04736 -0.05888,-0.0256 -0.1408,-0.04352 -0.0832,-0.02176 -0.22144,-0.02176 -0.13696,0 -0.26368,0.07296 -0.12288,0.06784 -0.2176,0.19456 -0.0896,0.12288 -0.14336,0.2944 -0.05376,0.16768 -0.05376,0.36736 0,0.24448 0.06144,0.4224 0.064,0.17664 0.1664,0.29184 0.1024,0.11264 0.22656,0.17024 0.13056,0.05376 0.26112,0.05376 0.1536,0 0.25984,-0.032 0.10496,-0.032 0.17664,-0.07168 0.0768,-0.0384 0.13056,-0.07296 0.05376,-0.032 0.10496,-0.032 0.06144,0 0.09728,0.03584 0.03584,0.032 0.03584,0.11904 0,0.07168 -0.0576,0.14848 -0.05504,0.07168 -0.16256,0.13312 -0.10496,0.0576 -0.25344,0.09728 -0.14848,0.0384 -0.3328,0.0384 -0.20096,0 -0.40448,-0.08192 -0.1984,-0.07936 -0.3584,-0.23424 -0.1536,-0.15872 -0.25088,-0.39424 -0.09856,-0.23808 -0.09856,-0.5504 0,-0.31616 0.08704,-0.56192 0.0896,-0.24576 0.2432,-0.41472 0.1536,-0.17408 0.3584,-0.263681 0.2048,-0.0896 0.4352,-0.0896 z m 2.101761,2.412801 q -0.04736,0.08704 -0.08704,0.128 -0.03584,0.0384 -0.09344,0.0384 -0.05888,0 -0.1024,-0.0384 -0.04224,-0.04096 -0.09344,-0.12416 -0.064,-0.1088 -0.14848,-0.29952 -0.07936,-0.192 -0.16256,-0.416 -0.08192,-0.22656 -0.16256,-0.46976 -0.07936,-0.24192 -0.143361,-0.4544 -0.06144,-0.21376 -0.1024,-0.3712 -0.03584,-0.16384 -0.03584,-0.2304 0,-0.07424 0.02944,-0.110081 0.02944,-0.03584 0.11136,-0.03584 0.04736,0 0.08064,0.0256 0.03584,0.02048 0.0896,0.129281 0.04352,0.0832 0.09344,0.2176 0.0512,0.13312 0.10496,0.2944 0.0576,0.16384 0.1152,0.3456 l 0.1152,0.352 0.11008,0.34048 0.09344,0.29184 0.09728,-0.2944 0.11264,-0.34048 0.1152,-0.35456 q 0.0576,-0.1792 0.1152,-0.3392 l 0.1088,-0.29312 q 0.0512,-0.13312 0.0896,-0.22016 0.0512,-0.104961 0.08704,-0.130561 0.0384,-0.0256 0.07936,-0.0256 0.0832,0 0.11264,0.0448 0.032,0.0384 0.032,0.119041 0,0.07168 -0.02176,0.1728 -0.02048,0.1024 -0.0768,0.27136 -0.0512,0.1664 -0.13568,0.41472 l -0.21376,0.61056 q -0.032,0.09728 -0.0768,0.20224 -0.0384,0.10496 -0.08192,0.20608 -0.0384,0.09728 -0.07936,0.18816 -0.0384,0.0896 -0.0768,0.15488 z"
     id="path42"
     inkscape:connector-curvature="0" />
  <g
     style="line-height:1.25;stroke-width:0.78124982"
     id="g46"
     transform="matrix(1.2800003,0,0,1.2800003,0,-0.09605039)">
    <path
       word-spacing="0"
       letter-spacing="0"
       font-size="2.822"
       font-weight="400"
       aria-label="OCT +1"
       style="font-weight:400;font-size:2.82200003px;font-family:Sniglet;-inkscape-font-specification:'Sniglet, Normal';font-variant-ligatures:normal;font-variant-caps:normal;font-variant-numeric:normal;font-feature-settings:normal;text-align:start;letter-spacing:0;word-spacing:0;fill:#c8c8c8;stroke-width:0.78124982"
       d="m 34.738,56.03 a 0.76,0.76 0 0 1 -0.32,-0.068 0.759,0.759 0 0 1 -0.256,-0.195 0.988,0.988 0 0 1 -0.175,-0.316 1.335,1.335 0 0 1 -0.062,-0.423 c 0,-0.149 0.018,-0.286 0.054,-0.41 a 0.942,0.942 0 0 1 0.164,-0.321 0.735,0.735 0 0 1 0.27,-0.21 0.865,0.865 0 0 1 0.373,-0.075 c 0.115,0 0.224,0.02 0.327,0.062 a 0.736,0.736 0 0 1 0.27,0.186 c 0.08,0.082 0.143,0.186 0.188,0.31 0.045,0.124 0.067,0.27 0.067,0.435 0,0.137 -0.019,0.268 -0.056,0.393 a 0.932,0.932 0 0 1 -0.167,0.327 0.825,0.825 0 0 1 -0.28,0.223 0.907,0.907 0 0 1 -0.397,0.082 z m 0.006,-0.266 a 0.564,0.564 0 0 0 0.27,-0.062 0.59,0.59 0 0 0 0.193,-0.17 0.714,0.714 0 0 0 0.113,-0.24 1.084,1.084 0 0 0 -0.011,-0.591 0.687,0.687 0 0 0 -0.125,-0.232 0.53,0.53 0 0 0 -0.406,-0.192 0.502,0.502 0 0 0 -0.426,0.22 0.775,0.775 0 0 0 -0.107,0.24 1.1,1.1 0 0 0 -0.037,0.29 c 0,0.111 0.014,0.213 0.042,0.306 a 0.77,0.77 0 0 0 0.113,0.23 0.464,0.464 0 0 0 0.382,0.2 z m 2,-1.761 a 1.047,1.047 0 0 1 0.358,0.065 c 0.05,0.02 0.092,0.047 0.124,0.08 0.033,0.029 0.05,0.064 0.05,0.106 a 0.142,0.142 0 0 1 -0.033,0.1 0.117,0.117 0 0 1 -0.085,0.033 0.24,0.24 0 0 1 -0.085,-0.014 2.005,2.005 0 0 0 -0.084,-0.037 0.75,0.75 0 0 0 -0.283,-0.05 0.413,0.413 0 0 0 -0.206,0.056 0.543,0.543 0 0 0 -0.17,0.152 0.807,0.807 0 0 0 -0.112,0.229 0.952,0.952 0 0 0 -0.042,0.288 c 0,0.128 0.016,0.238 0.048,0.33 a 0.708,0.708 0 0 0 0.13,0.229 0.514,0.514 0 0 0 0.381,0.175 0.681,0.681 0 0 0 0.34,-0.082 c 0.04,-0.021 0.075,-0.04 0.103,-0.057 a 0.16,0.16 0 0 1 0.082,-0.025 c 0.032,0 0.057,0.009 0.076,0.028 0.019,0.016 0.028,0.047 0.028,0.093 a 0.192,0.192 0 0 1 -0.045,0.116 0.404,0.404 0 0 1 -0.127,0.104 0.858,0.858 0 0 1 -0.198,0.077 1.102,1.102 0 0 1 -0.26,0.028 0.857,0.857 0 0 1 -0.595,-0.246 0.985,0.985 0 0 1 -0.197,-0.307 1.14,1.14 0 0 1 -0.076,-0.432 c 0,-0.164 0.022,-0.31 0.067,-0.438 a 0.968,0.968 0 0 1 0.19,-0.324 0.78,0.78 0 0 1 0.28,-0.206 0.839,0.839 0 0 1 0.34,-0.07 z m 1.913,0.283 c -0.053,0.004 -0.11,0.006 -0.17,0.008 l -0.194,0.006 0.006,0.143 0.006,0.133 c 0.002,0.045 0.003,0.092 0.003,0.14 0.002,0.05 0.003,0.105 0.003,0.165 v 0.245 l -0.003,0.235 -0.006,0.234 -0.008,0.245 a 0.46,0.46 0 0 1 -0.014,0.105 0.115,0.115 0 0 1 -0.026,0.056 0.06,0.06 0 0 1 -0.04,0.023 0.19,0.19 0 0 1 -0.05,0.006 0.124,0.124 0 0 1 -0.087,-0.034 c -0.023,-0.025 -0.036,-0.076 -0.04,-0.152 a 5.191,5.191 0 0 1 -0.008,-0.215 l -0.003,-0.243 c -0.002,-0.087 -0.003,-0.18 -0.003,-0.28 V 54.501 A 7.15,7.15 0 0 1 38.031,54.3 h -0.116 c -0.079,0 -0.146,-10e-4 -0.203,-0.003 a 0.837,0.837 0 0 1 -0.135,-0.014 0.158,0.158 0 0 1 -0.08,-0.043 0.125,0.125 0 0 1 -0.022,-0.08 c 0,-0.016 0.002,-0.031 0.006,-0.044 a 0.083,0.083 0 0 1 0.026,-0.04 0.124,0.124 0 0 1 0.053,-0.03 0.431,0.431 0 0 1 0.093,-0.017 l 0.096,-0.006 0.085,-0.006 c 0.028,-0.002 0.057,-0.003 0.087,-0.003 h 0.105 a 15.382,15.382 0 0 1 0.629,0.014 c 0.045,0.004 0.08,0.01 0.105,0.017 a 0.128,0.128 0 0 1 0.056,0.025 0.062,0.062 0 0 1 0.023,0.04 0.19,0.19 0 0 1 0.006,0.05 0.11,0.11 0 0 1 -0.037,0.085 c -0.023,0.022 -0.073,0.036 -0.15,0.04 z"
       id="path44"
       inkscape:connector-curvature="0" />
  </g>
  <rect
     ry="0.81700003"
     y="11.376594"
     x="3.5494409"
     height="53.214733"
     width="99.555862"
     rx="0.81700003"
     id="rect48"
     style="fill:url(#d);stroke-width:1" />
  <g
     transform="matrix(1.2800003,0,0,1.2800003,-31.774727,-206.56905)"
     id="g54"
     style="stroke-width:0.78124982">
    <rect
       ry="0.47578117"
       rx="0.47578117"
       width="77.258003"
       height="41.009998"
       x="27.865999"
       y="170.567"
       id="rect50"
       style="fill:#333333;stroke-width:0.78124982;paint-order:markers stroke fill" />
    <path
       d="m 45.858,171.897 0.047,18.245 3.398,1.85 V 210.27 H 40.02 v -18.278 l 3.461,-1.85 v -18.245 z m 32.702,0 0.048,18.245 3.397,1.85 v 18.278 h -9.283 v -18.278 l 3.461,-1.85 v -18.245 z m 8.477,0 -0.048,18.245 -3.397,1.85 v 18.278 h 9.282 v -18.278 l -3.46,-1.85 v -18.245 z m -52.049,0 0.048,18.245 3.397,1.85 V 210.27 H 29.15 v -18.278 l -0.008,-20.095 h 3.468 z m 19.34,0 -0.048,18.245 -3.397,1.85 v 18.278 h 9.282 v -18.278 l 0.007,-20.095 h -3.468 z m 13.362,0 0.048,18.245 3.397,1.85 v 18.278 h -9.282 v -18.278 l -0.008,-20.095 h 3.469 z m 30.217,0 -0.048,18.245 -3.397,1.85 v 18.278 h 9.282 v -18.278 l 0.007,-20.095 h -3.468 z"
       id="path52"
       inkscape:connector-curvature="0"
       style="fill:#999999;stroke:#000000;stroke-width:0.20703119" />
  </g>
  <path
     d="m 61.637134,77.374688 h -1.69344"
     id="path56"
     inkscape:connector-curvature="0"
     style="fill:none;stroke:#c8c8c8;stroke-width:0.13200001" />
  <g
     style="line-height:1.25;-inkscape-font-specification:'Sniglet, Normal';font-variant-ligatures:normal;font-variant-caps:normal;font-variant-numeric:normal;font-feature-settings:normal;text-align:start;stroke-width:0.78124982"
     id="g60"
     transform="matrix(1.2800003,0,0,1.2800003,0,-0.09605039)">
    <path
       d="m 32.051,3.525 q 0.14,0 0.28,0.025 0.143,0.021 0.258,0.072 0.114,0.047 0.186,0.119 0.076,0.067 0.076,0.16 0,0.098 -0.05,0.149 Q 32.75,4.1 32.673,4.1 32.601,4.1 32.546,4.08 32.491,4.054 32.419,4.024 32.352,3.994 32.254,3.974 32.157,3.948 31.996,3.948 q -0.16,0 -0.309,0.085 -0.144,0.08 -0.254,0.228 -0.106,0.144 -0.17,0.343 -0.063,0.2 -0.063,0.432 0,0.288 0.072,0.495 0.076,0.208 0.195,0.343 0.118,0.132 0.267,0.2 0.152,0.063 0.304,0.063 0.182,0 0.305,-0.038 0.123,-0.038 0.208,-0.085 0.089,-0.047 0.152,-0.085 0.064,-0.038 0.123,-0.038 0.072,0 0.114,0.043 0.042,0.038 0.042,0.14 0,0.084 -0.067,0.173 -0.064,0.085 -0.19,0.156 -0.124,0.068 -0.297,0.115 -0.174,0.042 -0.39,0.042 -0.237,0 -0.474,-0.093 Q 31.331,6.374 31.145,6.192 30.963,6.006 30.849,5.73 30.735,5.451 30.735,5.083 30.735,4.714 30.836,4.426 30.942,4.139 31.12,3.94 31.302,3.736 31.539,3.63 31.78,3.525 32.051,3.525 Z M 35.03,6.26 35.013,5.781 Q 35.009,5.527 35.009,5.197 L 34.721,5.205 H 34.06 q -0.156,0 -0.28,-0.004 -0.003,0.267 -0.008,0.517 -0.004,0.245 -0.017,0.537 -0.004,0.102 -0.02,0.157 -0.013,0.055 -0.039,0.085 -0.025,0.03 -0.06,0.033 -0.029,0.009 -0.071,0.009 -0.076,0 -0.127,-0.05 -0.05,-0.056 -0.06,-0.23 -0.008,-0.152 -0.012,-0.317 0,-0.165 -0.004,-0.356 -0.004,-0.19 -0.004,-0.41 v -0.5 q 0,-0.3 0.004,-0.512 0.004,-0.216 0.021,-0.351 0.021,-0.136 0.063,-0.2 0.043,-0.063 0.119,-0.063 0.072,0 0.127,0.047 0.055,0.046 0.063,0.216 0.009,0.144 0.013,0.262 l 0.009,0.229 q 0.004,0.11 0.004,0.228 v 0.263 q 0.317,-0.013 0.622,-0.013 0.148,0 0.297,0.004 0.152,0.005 0.309,0.013 V 4.676 q 0,-0.3 0.004,-0.512 0.004,-0.216 0.02,-0.351 0.022,-0.136 0.064,-0.2 0.043,-0.063 0.119,-0.063 0.072,0 0.127,0.047 0.055,0.046 0.063,0.216 0.009,0.152 0.013,0.27 l 0.009,0.238 q 0.004,0.114 0.004,0.241 v 0.643 q 0,0.174 -0.004,0.343 l -0.009,0.343 q -0.004,0.174 -0.013,0.364 -0.004,0.102 -0.02,0.157 -0.013,0.055 -0.039,0.085 -0.025,0.03 -0.06,0.033 -0.029,0.009 -0.071,0.009 -0.076,0 -0.127,-0.05 -0.05,-0.056 -0.06,-0.23 z m 2.042,0.304 q -0.254,0 -0.479,-0.101 Q 36.373,6.361 36.208,6.171 36.043,5.976 35.946,5.696 35.853,5.417 35.853,5.061 q 0,-0.334 0.08,-0.613 0.085,-0.28 0.246,-0.483 0.165,-0.203 0.406,-0.313 0.241,-0.115 0.559,-0.115 0.258,0 0.49,0.094 0.234,0.093 0.407,0.279 0.178,0.186 0.28,0.466 0.101,0.28 0.101,0.652 0,0.309 -0.084,0.588 -0.08,0.28 -0.25,0.491 -0.165,0.208 -0.42,0.335 -0.253,0.122 -0.596,0.122 z M 37.08,6.166 q 0.233,0 0.407,-0.093 0.173,-0.097 0.288,-0.254 0.114,-0.156 0.169,-0.36 0.055,-0.207 0.055,-0.423 0,-0.262 -0.072,-0.466 Q 37.859,4.363 37.741,4.223 37.622,4.083 37.465,4.012 37.309,3.935 37.131,3.935 q -0.212,0 -0.372,0.09 -0.157,0.088 -0.267,0.24 -0.106,0.153 -0.161,0.36 -0.055,0.204 -0.055,0.436 0,0.25 0.063,0.458 0.064,0.203 0.17,0.347 0.11,0.144 0.258,0.224 0.148,0.076 0.313,0.076 z M 39.826,5.48 39.703,5.49 h -0.267 q -0.072,0 -0.16,-0.01 v 0.86 q 0,0.135 -0.069,0.17 -0.063,0.029 -0.16,0.029 -0.051,0 -0.08,-0.009 Q 38.937,6.526 38.915,6.51 38.898,6.488 38.885,6.45 38.877,6.412 38.873,6.344 38.865,6.268 38.86,6.124 l -0.008,-0.38 q 0,-0.234 -0.004,-0.564 V 4.397 q 0,-0.174 0.042,-0.335 0.042,-0.165 0.152,-0.287 0.11,-0.127 0.297,-0.204 0.19,-0.076 0.482,-0.076 0.208,0 0.402,0.047 0.2,0.046 0.352,0.16 0.152,0.115 0.245,0.31 0.094,0.194 0.094,0.486 0,0.39 -0.17,0.606 -0.165,0.211 -0.457,0.3 l 0.567,0.78 q 0.076,0.1 0.076,0.207 0,0.084 -0.059,0.131 -0.055,0.05 -0.14,0.05 -0.093,0 -0.16,-0.05 -0.068,-0.055 -0.127,-0.14 z M 40.49,4.494 q 0,-0.292 -0.178,-0.432 -0.173,-0.144 -0.554,-0.144 -0.14,0 -0.233,0.026 -0.093,0.021 -0.148,0.085 -0.055,0.063 -0.08,0.177 -0.022,0.11 -0.022,0.284 v 0.288 q 0,0.165 0.004,0.3 0.098,0.005 0.216,0.005 h 0.229 q 0.118,0 0.25,-0.013 0.135,-0.017 0.25,-0.076 0.114,-0.064 0.19,-0.178 0.076,-0.119 0.076,-0.322 z m 1.665,-0.965 q 0.436,0 0.698,0.131 0.263,0.131 0.402,0.347 0.14,0.216 0.182,0.491 0.047,0.276 0.047,0.56 0,0.308 -0.08,0.583 -0.077,0.276 -0.242,0.483 -0.16,0.203 -0.415,0.326 -0.254,0.119 -0.605,0.119 -0.28,0 -0.449,-0.043 Q 41.528,6.488 41.435,6.408 41.346,6.328 41.316,6.205 41.286,6.082 41.286,5.917 V 4.325 q 0,-0.182 0.03,-0.33 0.034,-0.148 0.127,-0.25 0.094,-0.106 0.263,-0.16 0.173,-0.056 0.449,-0.056 z m 0.017,2.616 q 0.262,0 0.431,-0.093 0.174,-0.097 0.276,-0.254 0.101,-0.157 0.14,-0.356 0.042,-0.198 0.042,-0.406 0,-0.19 -0.03,-0.38 Q 43.001,4.46 42.908,4.304 42.815,4.147 42.641,4.05 42.468,3.952 42.18,3.952 q -0.262,0 -0.364,0.077 -0.102,0.076 -0.102,0.232 v 1.622 q 0,0.131 0.093,0.199 0.098,0.063 0.365,0.063 z m 3.15,-0.681 -0.449,0.017 q -0.254,0.004 -0.601,0.004 -0.144,0 -0.246,-0.004 -0.101,-0.005 -0.165,-0.022 -0.063,-0.02 -0.093,-0.063 -0.03,-0.042 -0.03,-0.119 0,-0.038 0.009,-0.067 0.008,-0.034 0.038,-0.06 0.03,-0.025 0.08,-0.042 0.056,-0.021 0.14,-0.03 L 44.115,5.07 Q 44.166,5.066 44.213,5.066 44.259,5.061 44.31,5.061 h 0.127 q 0.229,0 0.44,0.005 0.212,0 0.44,0.012 0.102,0.009 0.157,0.026 0.055,0.013 0.085,0.038 0.03,0.025 0.034,0.06 0.008,0.033 0.008,0.075 0,0.077 -0.055,0.127 -0.05,0.051 -0.224,0.06 z M 45.963,6.26 Q 45.954,6.107 45.95,5.942 q 0,-0.165 -0.004,-0.356 -0.004,-0.19 -0.004,-0.41 v -0.5 q 0,-0.3 0.004,-0.512 0.004,-0.216 0.021,-0.351 0.021,-0.136 0.064,-0.2 0.042,-0.063 0.118,-0.063 0.072,0 0.127,0.047 0.055,0.046 0.064,0.216 0.008,0.152 0.012,0.27 l 0.009,0.238 q 0.004,0.114 0.004,0.241 v 0.5 l 0.906,-1.038 q 0.178,-0.203 0.275,-0.266 0.098,-0.068 0.17,-0.068 0.084,0 0.122,0.042 0.043,0.043 0.043,0.106 0,0.025 -0.009,0.05 -0.008,0.026 -0.038,0.073 -0.025,0.042 -0.08,0.11 -0.055,0.063 -0.149,0.165 l -0.588,0.64 0.927,1.32 q 0.034,0.047 0.05,0.097 0.022,0.051 0.022,0.098 0,0.08 -0.046,0.131 -0.043,0.055 -0.153,0.055 -0.089,0 -0.16,-0.05 -0.068,-0.047 -0.128,-0.14 l -0.804,-1.19 -0.364,0.398 -0.009,0.322 q -0.004,0.16 -0.012,0.338 -0.004,0.102 -0.021,0.157 -0.013,0.055 -0.039,0.085 -0.025,0.03 -0.059,0.033 -0.03,0.009 -0.072,0.009 -0.076,0 -0.127,-0.05 -0.05,-0.056 -0.06,-0.23 z M 48.382,5.879 Q 48.373,5.743 48.365,5.51 48.356,5.277 48.356,5.032 V 4.744 L 48.365,4.435 Q 48.373,4.122 48.403,3.944 48.437,3.766 48.53,3.677 48.627,3.588 48.8,3.567 48.974,3.546 49.262,3.546 h 0.089 q 0.089,0 0.212,0.004 0.122,0 0.254,0.004 l 0.224,0.009 q 0.093,0.008 0.148,0.025 0.06,0.013 0.09,0.038 0.029,0.022 0.037,0.055 0.009,0.03 0.009,0.068 0,0.098 -0.055,0.144 -0.055,0.042 -0.225,0.055 -0.084,0.009 -0.25,0.013 h -0.33 q -0.169,0 -0.304,0.004 h -0.17 q -0.11,0.004 -0.156,0.05 -0.043,0.043 -0.043,0.208 l 0.004,0.187 q 0.009,0.143 0.009,0.406 h 0.351 q 0.225,0 0.364,0.008 0.144,0.005 0.22,0.026 0.08,0.021 0.11,0.068 0.03,0.046 0.03,0.122 0,0.038 -0.008,0.072 -0.005,0.03 -0.034,0.055 -0.03,0.021 -0.085,0.038 -0.055,0.013 -0.156,0.022 -0.123,0.008 -0.233,0.012 H 48.796 V 5.756 L 48.805,5.9 q 0.004,0.067 0.017,0.114 0.017,0.047 0.055,0.076 0.042,0.03 0.118,0.043 0.08,0.012 0.212,0.012 h 0.91 q 0.148,0 0.187,0.055 0.038,0.055 0.038,0.148 0,0.077 -0.034,0.119 -0.034,0.038 -0.165,0.055 -0.127,0.021 -0.386,0.025 -0.254,0.005 -0.702,0.005 -0.19,0 -0.314,-0.034 Q 48.619,6.484 48.542,6.403 48.466,6.323 48.428,6.196 48.394,6.065 48.382,5.879 Z M 51.487,6.26 51.47,5.764 Q 51.466,5.498 51.466,5.15 L 50.624,3.944 Q 50.59,3.897 50.569,3.847 50.552,3.796 50.552,3.749 q 0,-0.08 0.042,-0.131 0.046,-0.055 0.157,-0.055 0.088,0 0.156,0.05 0.072,0.047 0.131,0.14 l 0.631,1.004 0.63,-1.004 q 0.06,-0.093 0.128,-0.14 0.072,-0.05 0.16,-0.05 0.11,0 0.153,0.055 0.047,0.05 0.047,0.131 0,0.047 -0.021,0.098 -0.017,0.05 -0.051,0.097 l -0.826,1.181 q 0,0.288 -0.008,0.555 -0.004,0.262 -0.017,0.575 -0.004,0.102 -0.021,0.157 -0.013,0.055 -0.038,0.085 -0.026,0.03 -0.06,0.033 -0.03,0.009 -0.072,0.009 -0.076,0 -0.127,-0.05 -0.05,-0.056 -0.059,-0.23 z"
       style="font-weight:400;font-size:4.2329998px;font-family:Sniglet;-inkscape-font-specification:'Sniglet, Normal';font-variant-ligatures:normal;font-variant-caps:normal;font-variant-numeric:normal;font-feature-settings:normal;text-align:start;letter-spacing:0;word-spacing:0;fill:#c8c8c8;stroke-width:0.20703119"
       aria-label="CHORD-KEY"
       font-weight="400"
       font-size="4.233"
       letter-spacing="0"
       word-spacing="0"
       id="path58"
       inkscape:connector-curvature="0" />
  </g>
  <g
     style="line-height:1.25;stroke-width:0.78124982"
     id="g64"
     transform="matrix(1.2800003,0,0,1.2800003,0,-0.09605039)">
    <path
       d="m 15.45,71.49 q -0.006,-0.1 -0.008,-0.211 0,-0.11 -0.003,-0.237 -0.003,-0.127 -0.003,-0.274 v -0.333 q 0,-0.2 0.003,-0.341 0.003,-0.144 0.017,-0.235 0.014,-0.09 0.042,-0.132 0.031,-0.043 0.082,-0.043 0.025,0 0.048,0.006 0.022,0.006 0.04,0.025 0.016,0.017 0.028,0.054 0.014,0.034 0.017,0.09 l 0.008,0.181 0.006,0.158 q 0.002,0.076 0.002,0.16 v 0.43 q 0,0.116 -0.002,0.228 l -0.006,0.23 -0.008,0.242 q -0.003,0.068 -0.015,0.104 -0.01,0.037 -0.028,0.057 -0.017,0.02 -0.04,0.022 -0.022,0.006 -0.05,0.006 -0.05,0 -0.088,-0.034 -0.036,-0.037 -0.042,-0.152 z m 1.764,0.043 q -0.09,-0.124 -0.172,-0.246 l -0.172,-0.27 q -0.09,-0.147 -0.209,-0.325 -0.115,-0.18 -0.28,-0.42 v 0.38 q 0,0.167 -0.002,0.31 l -0.006,0.272 q -0.002,0.127 -0.008,0.254 -0.003,0.068 -0.014,0.104 -0.009,0.037 -0.026,0.057 -0.017,0.02 -0.04,0.022 -0.019,0.006 -0.047,0.006 -0.05,0 -0.085,-0.034 -0.034,-0.037 -0.04,-0.152 -0.013,-0.31 -0.016,-0.621 v -0.647 q 0,-0.189 0.003,-0.296 0.005,-0.107 0.02,-0.16 0.016,-0.054 0.042,-0.069 0.028,-0.014 0.073,-0.014 0.045,0 0.119,0.07 0.073,0.069 0.16,0.182 0.088,0.112 0.187,0.26 0.101,0.146 0.2,0.301 0.099,0.155 0.19,0.308 l 0.169,0.276 q -0.003,-0.132 -0.003,-0.29 v -0.356 q 0,-0.223 0.003,-0.367 0.002,-0.147 0.014,-0.231 0.014,-0.085 0.042,-0.119 0.028,-0.034 0.079,-0.034 0.048,0 0.085,0.031 0.036,0.031 0.042,0.144 0.006,0.102 0.008,0.181 l 0.006,0.158 q 0.003,0.076 0.003,0.16 v 0.43 q 0,0.116 -0.003,0.228 l -0.006,0.23 q -0.002,0.115 -0.008,0.242 -0.003,0.068 -0.014,0.104 -0.009,0.037 -0.026,0.057 -0.016,0.02 -0.039,0.022 -0.02,0.006 -0.048,0.006 -0.048,0 -0.082,-0.028 -0.034,-0.029 -0.099,-0.116 z m 1.242,-1.863 q 0.29,0 0.465,0.088 0.175,0.087 0.269,0.231 0.093,0.144 0.12,0.328 0.032,0.183 0.032,0.372 0,0.206 -0.054,0.39 -0.05,0.183 -0.16,0.321 -0.108,0.136 -0.277,0.218 -0.17,0.079 -0.404,0.079 -0.186,0 -0.299,-0.029 -0.11,-0.025 -0.172,-0.079 -0.06,-0.053 -0.079,-0.135 -0.02,-0.082 -0.02,-0.192 v -1.061 q 0,-0.121 0.02,-0.22 0.023,-0.099 0.085,-0.167 0.062,-0.07 0.175,-0.107 0.115,-0.037 0.299,-0.037 z m 0.011,1.744 q 0.175,0 0.288,-0.062 0.116,-0.065 0.183,-0.169 0.068,-0.104 0.093,-0.237 0.029,-0.133 0.029,-0.271 0,-0.127 -0.02,-0.254 -0.02,-0.13 -0.082,-0.234 -0.062,-0.105 -0.178,-0.17 -0.115,-0.064 -0.307,-0.064 -0.175,0 -0.243,0.05 -0.068,0.051 -0.068,0.156 v 1.08 q 0,0.088 0.062,0.133 0.065,0.042 0.243,0.042 z m 1.174,-0.177 q -0.005,-0.09 -0.01,-0.246 -0.006,-0.155 -0.006,-0.319 V 70.48 l 0.005,-0.206 q 0.006,-0.209 0.026,-0.327 0.022,-0.119 0.084,-0.178 0.065,-0.06 0.18,-0.073 0.117,-0.014 0.309,-0.014 h 0.059 l 0.14,0.002 q 0.083,0 0.17,0.003 l 0.15,0.006 q 0.062,0.005 0.099,0.017 0.04,0.008 0.059,0.025 0.02,0.014 0.025,0.037 0.006,0.02 0.006,0.045 0,0.065 -0.037,0.096 -0.037,0.028 -0.15,0.037 -0.056,0.005 -0.166,0.008 h -0.22 q -0.113,0 -0.203,0.003 h -0.113 q -0.074,0.003 -0.105,0.034 -0.028,0.028 -0.028,0.138 l 0.003,0.124 q 0.006,0.096 0.006,0.271 h 0.234 q 0.15,0 0.243,0.006 0.096,0.003 0.146,0.017 0.054,0.014 0.074,0.045 0.02,0.03 0.02,0.082 0,0.025 -0.006,0.048 -0.003,0.02 -0.023,0.036 -0.02,0.015 -0.056,0.026 -0.037,0.008 -0.105,0.014 -0.081,0.006 -0.155,0.008 h -0.378 v 0.345 l 0.006,0.096 q 0.002,0.045 0.01,0.076 0.012,0.03 0.038,0.05 0.028,0.02 0.079,0.029 0.053,0.008 0.14,0.008 h 0.608 q 0.098,0 0.124,0.037 0.025,0.037 0.025,0.099 0,0.05 -0.022,0.079 -0.023,0.025 -0.11,0.037 -0.085,0.014 -0.257,0.017 -0.17,0.002 -0.469,0.002 -0.127,0 -0.209,-0.022 -0.082,-0.023 -0.132,-0.076 -0.051,-0.054 -0.077,-0.139 -0.022,-0.087 -0.03,-0.211 z m 2.22,-0.314 -0.42,0.652 q -0.04,0.062 -0.088,0.093 -0.045,0.034 -0.104,0.034 -0.073,0 -0.104,-0.036 -0.029,-0.034 -0.029,-0.088 0,-0.03 0.012,-0.065 0.014,-0.034 0.036,-0.065 l 0.525,-0.75 -0.525,-0.751 q -0.022,-0.031 -0.036,-0.065 -0.012,-0.034 -0.012,-0.065 0,-0.054 0.029,-0.087 0.03,-0.037 0.104,-0.037 0.06,0 0.104,0.034 0.048,0.03 0.088,0.093 l 0.42,0.652 0.421,-0.652 q 0.04,-0.062 0.085,-0.093 0.048,-0.034 0.107,-0.034 0.073,0 0.101,0.037 0.032,0.033 0.032,0.087 0,0.031 -0.015,0.065 -0.01,0.034 -0.033,0.065 l -0.525,0.75 0.525,0.751 q 0.022,0.031 0.033,0.065 0.015,0.034 0.015,0.065 0,0.054 -0.032,0.088 -0.028,0.036 -0.101,0.036 -0.06,0 -0.107,-0.034 -0.046,-0.03 -0.085,-0.093 z"
       style="font-weight:400;font-size:2.82200003px;font-family:Sniglet;-inkscape-font-specification:'Sniglet, Normal';font-variant-ligatures:normal;font-variant-caps:normal;font-variant-numeric:normal;font-feature-settings:normal;text-align:start;letter-spacing:0;word-spacing:0;fill:#c8c8c8;stroke-width:0.20703119"
       aria-label="INDEX"
       font-weight="400"
       font-size="2.822"
       letter-spacing="0"
       word-spacing="0"
       id="path62"
       inkscape:connector-curvature="0" />
  </g>
  <path
     d="m 61.637134,88.889571 h -1.69344 m 1.69344,11.514889 h -1.69344 m 1.69344,11.5136 h -1.69344"
     id="path66"
     inkscape:connector-curvature="0"
     style="fill:none;stroke:#c8c8c8;stroke-width:0.13200001" />
  <rect
     rx="1.614"
     ry="1.614"
     y="77.437416"
     x="10.531842"
     height="9.1660814"
     width="13.456642"
     id="rect74"
     style="fill:url(#g);stroke-width:1" />
  <rect
     rx="1.614"
     ry="1.614"
     y="73.000931"
     x="63.127056"
     height="9.1660814"
     width="9.1968021"
     id="rect76"
     style="fill:url(#h);stroke-width:1" />
  <rect
     rx="0.52899998"
     ry="0.52899998"
     y="110.48573"
     x="21.401604"
     height="8.1804819"
     width="5.9584017"
     id="rect78"
     style="fill:url(#i);stroke-width:1" />
  <rect
     rx="1.614"
     ry="1.614"
     y="84.514526"
     x="63.127056"
     height="9.1660814"
     width="9.1968021"
     id="rect80"
     style="fill:url(#j);stroke-width:1" />
  <rect
     rx="1.614"
     ry="1.614"
     y="96.029404"
     x="63.127056"
     height="9.1660814"
     width="9.1968021"
     id="rect82"
     style="fill:url(#k);stroke-width:1" />
  <rect
     rx="1.614"
     ry="1.614"
     y="107.5443"
     x="63.127056"
     height="9.1660814"
     width="9.1968021"
     id="rect84"
     style="fill:url(#l);stroke-width:1" />
  <path
     d="m 7.5200018,106.29246 q 0.11904,0 0.24576,0.0218 0.12672,0.0218 0.2304001,0.0653 0.10496,0.0397 0.17408,0.10112 0.06912,0.0614 0.06912,0.1408 0,0.0832 -0.04352,0.12672 -0.04352,0.0435 -0.1088,0.0435 -0.06144,0 -0.1152,-0.0218 l -0.1152001,-0.0474 q -0.06528,-0.0256 -0.15616,-0.0474 -0.0896,-0.0205 -0.22784,-0.0205 -0.1510401,0 -0.2854401,0.0717 -0.12928,0.0691 -0.2304001,0.19456 -0.1024,0.12288 -0.15872,0.29312 -0.05888,0.17024 -0.05888,0.36864 0,0.24192 0.06144,0.41856 0.06144,0.17664 0.16,0.29312 0.1011201,0.1152 0.2240001,0.1728 0.12544,0.055 0.25216,0.055 0.2060801,0 0.3251201,-0.0589 0.12288,-0.0614 0.1958401,-0.1536 0.00256,-0.0768 0.00256,-0.18176 V 107.9 q 0,-0.0474 -0.0064,-0.0717 -0.00768,-0.0294 -0.03584,-0.0435 -0.02944,-0.0141 -0.08704,-0.0179 -0.05504,-0.004 -0.14848,-0.004 -0.1152,0 -0.18816,-0.0294 -0.07168,-0.032 -0.07168,-0.13312 0,-0.0717 0.03584,-0.1152 0.03968,-0.0474 0.1587201,-0.055 h 0.06912 q 0.0512,-0.003 0.10496,-0.003 h 0.1984001 q 0.1088,0 0.1728,0.0205 0.06528,0.0192 0.1152,0.087 0.0256,0.0358 0.02944,0.12672 0.00768,0.0896 0.00768,0.20992 v 0.93184 q 0,0.0973 -0.05376,0.14464 -0.0512,0.0461 -0.12032,0.0461 -0.08192,0 -0.13696,-0.0435 -0.0512,-0.0384 -0.0512,-0.12928 v -0.1408 q -0.09344,0.10752 -0.2227201,0.15488 -0.12672,0.0474 -0.3212801,0.0474 -0.19968,0 -0.3904001,-0.0794 -0.192,-0.0794 -0.34048,-0.23552 -0.1472001,-0.15872 -0.2419201,-0.39296 -0.0896,-0.23936 -0.0896,-0.55296 0,-0.31488 0.0896,-0.56064 0.09472,-0.24448 0.2534401,-0.41472 0.15872,-0.17408 0.3712001,-0.26368 0.21376,-0.0896 0.4608001,-0.0896 z m 2.7046402,2.37312 q -0.03584,-0.0858 -0.07936,-0.1984 -0.0384,-0.1152 -0.08704,-0.24192 l -0.2265597,0.008 H 9.3056022 q -0.12544,0 -0.2304001,-0.004 l -0.0832,0.23808 q -0.03968,0.11264 -0.0768,0.1984 -0.07168,0.18432 -0.2086401,0.18432 -0.0512,0 -0.09728,-0.032 -0.04352,-0.032 -0.04352,-0.0934 0,-0.0614 0.02176,-0.16 0.02176,-0.10112 0.05376,-0.21248 0.03584,-0.1152 0.0768,-0.23552 0.0384,-0.1216 0.07552,-0.22656 0.03584,-0.1152 0.10112,-0.29312 0.06784,-0.18048 0.14464,-0.37504 0.07552,-0.19584 0.1510401,-0.384 0.0768,-0.192 0.13696,-0.3328 l 0.03712,-0.0781 q 0.02176,-0.0474 0.0512,-0.087 0.03072,-0.0397 0.06784,-0.0691 0.0384,-0.0282 0.08576,-0.0282 0.04736,0 0.08704,0.032 0.03968,0.0294 0.06912,0.073 0.032,0.0422 0.05376,0.0896 0.0256,0.0474 0.03968,0.0832 l 0.13056,0.3328 q 0.07552,0.18688 0.1471999,0.37888 0.0768,0.192 0.1408,0.3648 0.06528,0.17408 0.10496,0.29312 l 0.07296,0.224 q 0.04352,0.11904 0.07936,0.23424 0.03584,0.1152 0.0576,0.2176 0.0256,0.0973 0.0256,0.15872 0,0.0614 -0.04736,0.0934 -0.04352,0.032 -0.09344,0.032 -0.06528,0 -0.11904,-0.0422 -0.05504,-0.0474 -0.09472,-0.1408 z m -0.6399998,-0.7936 0.1740801,0.003 q 0.08704,0 0.17408,0.004 l -0.08704,-0.25216 -0.0832,-0.2432 q -0.03584,-0.1152 -0.06912,-0.21248 l -0.0512,-0.17664 q -0.0128,-0.0474 -0.03072,-0.0768 -0.0192,-0.0282 -0.04736,-0.0282 -0.02944,0 -0.04736,0.032 -0.01792,0.0294 -0.032,0.0768 -0.04352,0.1472 -0.12288,0.38656 l -0.16256,0.49408 q 0.09728,-0.004 0.19456,-0.004 l 0.192,-0.003 z m 2.4012808,-1.21728 q -0.10112,0.006 -0.21632,0.0102 l -0.2496,0.008 0.0077,0.18432 0.0064,0.16896 q 0.0038,0.087 0.0038,0.18048 0.0038,0.0947 0.0038,0.20992 v 0.31488 q 0,0.1472 -0.0038,0.29952 l -0.0064,0.29952 q -0.0038,0.15232 -0.01152,0.31488 -0.0038,0.0858 -0.01792,0.13312 -0.01024,0.0474 -0.032,0.0717 -0.02176,0.0256 -0.0512,0.0294 -0.02816,0.008 -0.064,0.008 -0.06528,0 -0.11264,-0.0435 -0.04352,-0.0474 -0.0512,-0.19584 -0.0064,-0.12928 -0.01024,-0.27392 0,-0.14464 -0.0038,-0.31104 -0.0038,-0.1664 -0.0038,-0.3584 v -0.77568 q 0.0038,-0.14848 0.01152,-0.256 h -0.14848 q -0.15232,0 -0.25984,-0.004 -0.10496,-0.004 -0.174081,-0.0179 -0.06784,-0.0179 -0.10112,-0.055 -0.02816,-0.0358 -0.02816,-0.10112 0,-0.032 0.0064,-0.0576 0.0077,-0.0282 0.03328,-0.0512 0.0256,-0.0256 0.06784,-0.0384 0.04736,-0.0154 0.120321,-0.0218 l 0.1216,-0.008 0.1088,-0.008 q 0.05376,-0.003 0.11264,-0.003 h 0.13312 q 0.21376,0 0.40064,0.003 0.192,0.004 0.40448,0.0154 0.08704,0.006 0.1344,0.0218 0.04736,0.0102 0.07168,0.032 0.0256,0.0218 0.02944,0.0512 0.0064,0.0282 0.0064,0.064 0,0.0653 -0.04608,0.1088 -0.04352,0.0435 -0.192,0.0512 z m 0.51456,1.64608 -0.01408,-0.3136 q -0.0077,-0.1984 -0.0077,-0.40832 v -0.24576 l 0.0077,-0.26368 q 0.0064,-0.26752 0.032,-0.41856 0.02944,-0.15232 0.1088,-0.22784 0.0832,-0.0768 0.2304,-0.0947 0.14848,-0.0179 0.39424,-0.0179 h 0.0768 q 0.07552,0 0.1792,0.004 0.10496,0 0.2176,0.004 l 0.192,0.008 q 0.07936,0.006 0.12544,0.0218 0.0512,0.0102 0.0768,0.032 0.0256,0.0179 0.032,0.0474 0.0077,0.0256 0.0077,0.0576 0,0.0832 -0.04736,0.12288 -0.04736,0.0358 -0.192,0.0461 -0.07168,0.008 -0.21248,0.0115 h -0.2816 q -0.14464,0 -0.26112,0.004 h -0.14336 q -0.09472,0.004 -0.1344,0.0435 -0.03584,0.0358 -0.03584,0.17664 l 0.0038,0.15872 q 0.0064,0.12288 0.0064,0.34688 h 0.3008 q 0.192,0 0.30976,0.008 0.12288,0.003 0.18816,0.0218 0.06912,0.0179 0.09344,0.0576 0.0256,0.0384 0.0256,0.10496 0,0.032 -0.0064,0.0614 -0.0038,0.0256 -0.02944,0.0461 -0.0256,0.0179 -0.07168,0.0333 -0.04736,0.0102 -0.1344,0.0179 l -0.1984,0.0102 h -0.48384 v 0.4416 l 0.0064,0.1216 q 0.0038,0.0589 0.01536,0.0986 0.0128,0.0384 0.04608,0.064 0.03712,0.0256 0.1024,0.0371 0.06784,0.0102 0.1792,0.0102 h 0.77696 q 0.12672,0 0.15872,0.0474 0.03328,0.0474 0.03328,0.12672 0,0.064 -0.02944,0.10112 -0.02816,0.032 -0.1408,0.0461 -0.1088,0.0179 -0.32896,0.0218 -0.21632,0.004 -0.59904,0.004 -0.16256,0 -0.26752,-0.0282 -0.10496,-0.0294 -0.17024,-0.0986 -0.064,-0.0678 -0.09728,-0.17664 -0.02816,-0.11136 -0.0384,-0.27136 z"
     style="font-weight:400;font-size:2.82200003px;line-height:1.25;font-family:Sniglet;-inkscape-font-specification:'Sniglet, Normal';font-variant-ligatures:normal;font-variant-caps:normal;font-variant-numeric:normal;font-feature-settings:normal;text-align:start;letter-spacing:0;word-spacing:0;fill:#c8c8c8;stroke-width:1"
     font-weight="400"
     font-size="2.822"
     letter-spacing="0"
     word-spacing="0"
     id="path86"
     inkscape:connector-curvature="0" />
  <g
     style="line-height:1.25;stroke-width:0.78124982"
     id="g90"
     transform="matrix(1.2800003,0,0,1.2800003,0,-0.09605039)">
    <path
       d="m 15.028,83.881 q 0,-0.237 0.017,-0.37 0.017,-0.135 0.07,-0.203 0.054,-0.068 0.153,-0.082 0.099,-0.017 0.26,-0.017 h 0.163 q 0.074,0 0.142,0.003 0.07,0 0.138,0.003 l 0.152,0.006 q 0.068,0.005 0.105,0.016 0.036,0.009 0.056,0.026 0.02,0.017 0.023,0.04 0.005,0.022 0.005,0.05 0,0.051 -0.036,0.085 -0.034,0.034 -0.15,0.04 l -0.138,0.005 -0.15,0.006 -0.186,0.002 H 15.4 q -0.051,0 -0.07,0.037 -0.02,0.034 -0.02,0.088 V 83.7 q 0.002,0.043 0.002,0.093 0.003,0.051 0.003,0.116 0.003,0.062 0.003,0.147 0.104,0 0.18,0.003 0.08,0 0.136,0.002 0.06,0 0.104,0.003 l 0.088,0.006 q 0.116,0.005 0.15,0.04 0.036,0.033 0.036,0.084 0,0.028 -0.006,0.05 -0.002,0.023 -0.022,0.04 -0.02,0.017 -0.057,0.029 -0.036,0.01 -0.104,0.016 l -0.087,0.006 q -0.04,0 -0.096,0.003 h -0.322 q -0.003,0.17 -0.003,0.347 0.003,0.175 -0.008,0.361 -0.006,0.11 -0.04,0.136 -0.031,0.022 -0.096,0.022 -0.062,0 -0.093,-0.025 -0.031,-0.028 -0.037,-0.13 -0.005,-0.09 -0.008,-0.197 0,-0.11 -0.003,-0.249 -0.003,-0.141 -0.003,-0.316 v -0.406 z m 2.152,1.341 q -0.17,0 -0.32,-0.068 -0.147,-0.068 -0.257,-0.195 -0.11,-0.13 -0.175,-0.316 -0.062,-0.186 -0.062,-0.423 0,-0.223 0.054,-0.41 0.056,-0.186 0.164,-0.321 0.11,-0.136 0.27,-0.21 0.161,-0.075 0.373,-0.075 0.172,0 0.327,0.062 0.156,0.062 0.271,0.186 0.119,0.124 0.187,0.31 0.067,0.187 0.067,0.435 0,0.206 -0.056,0.392 -0.054,0.187 -0.167,0.328 -0.11,0.138 -0.279,0.223 -0.17,0.082 -0.398,0.082 z m 0.005,-0.266 q 0.155,0 0.27,-0.062 0.116,-0.065 0.193,-0.17 0.076,-0.104 0.112,-0.239 0.037,-0.138 0.037,-0.282 0,-0.175 -0.048,-0.31 -0.045,-0.139 -0.124,-0.232 -0.079,-0.093 -0.183,-0.141 -0.105,-0.051 -0.223,-0.051 -0.142,0 -0.249,0.06 -0.104,0.059 -0.178,0.16 -0.07,0.102 -0.107,0.24 -0.036,0.135 -0.036,0.29 0,0.167 0.042,0.306 0.042,0.135 0.113,0.23 0.073,0.097 0.172,0.15 0.099,0.051 0.209,0.051 z m 1.83,-0.456 -0.082,0.005 h -0.178 q -0.048,0 -0.107,-0.006 v 0.573 q 0,0.09 -0.045,0.113 -0.042,0.02 -0.107,0.02 -0.034,0 -0.054,-0.006 -0.02,-0.003 -0.034,-0.014 -0.011,-0.014 -0.02,-0.04 -0.005,-0.025 -0.008,-0.07 -0.006,-0.05 -0.009,-0.147 l -0.005,-0.254 q 0,-0.155 -0.003,-0.375 v -0.522 q 0,-0.116 0.028,-0.223 0.029,-0.11 0.102,-0.192 0.073,-0.085 0.197,-0.136 0.127,-0.05 0.322,-0.05 0.138,0 0.268,0.03 0.133,0.032 0.235,0.108 0.101,0.076 0.163,0.206 0.062,0.13 0.062,0.324 0,0.26 -0.113,0.404 -0.11,0.141 -0.304,0.2 l 0.378,0.52 q 0.05,0.067 0.05,0.138 0,0.056 -0.039,0.087 -0.037,0.034 -0.093,0.034 -0.062,0 -0.107,-0.034 -0.045,-0.036 -0.085,-0.093 z m 0.443,-0.658 q 0,-0.195 -0.118,-0.288 -0.116,-0.096 -0.37,-0.096 -0.093,0 -0.155,0.017 -0.062,0.014 -0.1,0.056 -0.036,0.042 -0.053,0.119 -0.014,0.073 -0.014,0.189 v 0.192 q 0,0.11 0.003,0.2 0.065,0.003 0.144,0.003 h 0.152 q 0.08,0 0.167,-0.009 0.09,-0.011 0.166,-0.05 0.076,-0.043 0.127,-0.119 0.051,-0.08 0.051,-0.215 z m 1.352,-0.647 q 0.094,0 0.187,0.017 0.096,0.014 0.172,0.048 0.076,0.031 0.124,0.08 0.05,0.044 0.05,0.106 0,0.065 -0.033,0.1 -0.034,0.033 -0.085,0.033 -0.048,0 -0.084,-0.014 l -0.085,-0.037 q -0.045,-0.02 -0.11,-0.034 -0.065,-0.017 -0.172,-0.017 -0.108,0 -0.206,0.057 -0.096,0.054 -0.17,0.152 -0.07,0.096 -0.113,0.229 -0.042,0.133 -0.042,0.288 0,0.192 0.048,0.33 0.05,0.138 0.13,0.229 0.079,0.087 0.178,0.132 0.101,0.043 0.203,0.043 0.121,0 0.203,-0.026 0.082,-0.025 0.138,-0.056 0.06,-0.031 0.102,-0.057 0.042,-0.025 0.082,-0.025 0.048,0 0.076,0.028 0.028,0.026 0.028,0.093 0,0.057 -0.045,0.116 -0.042,0.056 -0.127,0.104 -0.082,0.046 -0.197,0.077 -0.116,0.028 -0.26,0.028 -0.158,0 -0.316,-0.062 -0.155,-0.062 -0.28,-0.184 -0.12,-0.124 -0.197,-0.307 -0.076,-0.187 -0.076,-0.432 0,-0.246 0.067,-0.438 0.071,-0.192 0.19,-0.324 0.12,-0.136 0.279,-0.206 0.16,-0.07 0.341,-0.07 z m 0.888,1.569 -0.011,-0.245 Q 21.681,84.364 21.681,84.2 v -0.192 l 0.006,-0.206 q 0.006,-0.209 0.025,-0.327 0.023,-0.119 0.085,-0.178 0.065,-0.06 0.18,-0.074 0.116,-0.014 0.308,-0.014 h 0.06 q 0.059,0 0.14,0.003 0.083,0 0.17,0.003 l 0.15,0.006 q 0.062,0.005 0.098,0.016 0.04,0.009 0.06,0.026 0.02,0.014 0.025,0.037 0.006,0.02 0.006,0.045 0,0.065 -0.037,0.096 -0.037,0.028 -0.15,0.036 -0.056,0.006 -0.166,0.009 h -0.22 q -0.113,0 -0.203,0.003 h -0.113 q -0.074,0.002 -0.105,0.034 -0.028,0.028 -0.028,0.138 l 0.003,0.124 q 0.005,0.096 0.005,0.271 h 0.235 q 0.15,0 0.242,0.006 0.096,0.002 0.147,0.016 0.054,0.015 0.074,0.046 0.02,0.03 0.02,0.081 0,0.026 -0.006,0.048 -0.003,0.02 -0.023,0.037 -0.02,0.014 -0.056,0.026 -0.037,0.008 -0.105,0.014 l -0.155,0.008 h -0.378 v 0.344 l 0.005,0.096 q 0.003,0.046 0.012,0.077 0.011,0.03 0.036,0.05 0.029,0.02 0.08,0.029 0.053,0.008 0.14,0.008 h 0.607 q 0.1,0 0.125,0.037 0.025,0.037 0.025,0.099 0,0.05 -0.023,0.079 -0.022,0.025 -0.11,0.036 -0.084,0.014 -0.257,0.017 -0.169,0.003 -0.468,0.003 -0.127,0 -0.209,-0.023 -0.082,-0.022 -0.133,-0.076 -0.05,-0.053 -0.076,-0.138 -0.022,-0.087 -0.03,-0.212 z"
       style="font-weight:400;font-size:2.82200003px;font-family:Sniglet;-inkscape-font-specification:'Sniglet, Normal';font-variant-ligatures:normal;font-variant-caps:normal;font-variant-numeric:normal;font-feature-settings:normal;text-align:start;letter-spacing:0;word-spacing:0;fill:#c8c8c8;stroke-width:0.20703119"
       aria-label="FORCE"
       font-weight="400"
       font-size="2.822"
       letter-spacing="0"
       word-spacing="0"
       id="path88"
       inkscape:connector-curvature="0" />
  </g>
  <path
     d="m 18.700804,114.62782 h -1.69344 m 1.01504,-16.93312 h -1.69344"
     id="path92"
     inkscape:connector-curvature="0"
     style="fill:none;stroke:#c8c8c8;stroke-width:0.13200001" />
  <g
     style="line-height:1.25;stroke-width:0.78124982"
     id="g96"
     transform="matrix(1.2800003,0,0,1.2800003,0,-0.09605039)">
    <path
       d="m 13.155,55.64 q -0.08,0.005 -0.17,0.008 l -0.194,0.006 0.005,0.144 0.006,0.132 q 0.003,0.068 0.003,0.142 0.002,0.073 0.002,0.163 v 0.246 l -0.002,0.234 -0.006,0.234 q -0.003,0.119 -0.009,0.246 -0.002,0.067 -0.014,0.104 -0.008,0.037 -0.025,0.057 -0.017,0.02 -0.04,0.022 -0.022,0.006 -0.05,0.006 -0.051,0 -0.088,-0.034 -0.034,-0.037 -0.04,-0.152 -0.005,-0.102 -0.008,-0.215 0,-0.113 -0.003,-0.243 -0.002,-0.13 -0.002,-0.28 v -0.605 q 0.002,-0.117 0.008,-0.201 h -0.116 q -0.118,0 -0.203,-0.003 -0.082,-0.003 -0.135,-0.014 -0.054,-0.014 -0.08,-0.042 -0.022,-0.029 -0.022,-0.08 0,-0.025 0.006,-0.045 0.005,-0.022 0.025,-0.04 0.02,-0.019 0.054,-0.03 0.036,-0.011 0.093,-0.017 l 0.096,-0.006 0.084,-0.005 q 0.043,-0.003 0.088,-0.003 h 0.104 q 0.167,0 0.314,0.003 0.15,0.002 0.316,0.011 0.067,0.006 0.104,0.017 0.037,0.008 0.057,0.025 0.02,0.017 0.022,0.04 0.006,0.022 0.006,0.05 0,0.051 -0.037,0.085 -0.034,0.034 -0.15,0.04 z m 1.036,1.021 -0.081,0.006 h -0.178 q -0.048,0 -0.107,-0.006 v 0.573 q 0,0.09 -0.046,0.113 -0.042,0.02 -0.107,0.02 -0.034,0 -0.053,-0.006 -0.02,-0.002 -0.034,-0.014 -0.012,-0.014 -0.02,-0.04 -0.006,-0.025 -0.009,-0.07 -0.005,-0.05 -0.008,-0.147 L 13.542,56.836 13.54,56.461 v -0.522 q 0,-0.116 0.028,-0.223 0.028,-0.11 0.101,-0.192 0.074,-0.085 0.198,-0.135 0.127,-0.051 0.322,-0.051 0.138,0 0.268,0.03 0.132,0.032 0.234,0.108 0.102,0.076 0.164,0.206 0.062,0.13 0.062,0.325 0,0.26 -0.113,0.403 -0.11,0.141 -0.305,0.2 l 0.378,0.52 q 0.051,0.068 0.051,0.138 0,0.057 -0.04,0.088 -0.036,0.034 -0.093,0.034 -0.062,0 -0.107,-0.034 -0.045,-0.037 -0.084,-0.093 z m 0.444,-0.657 q 0,-0.195 -0.119,-0.288 -0.116,-0.096 -0.37,-0.096 -0.093,0 -0.155,0.017 -0.062,0.014 -0.099,0.056 -0.036,0.043 -0.053,0.119 -0.014,0.073 -0.014,0.189 v 0.192 q 0,0.11 0.002,0.2 0.065,0.003 0.144,0.003 h 0.153 q 0.079,0 0.166,-0.008 0.09,-0.012 0.167,-0.051 0.076,-0.043 0.127,-0.119 0.05,-0.079 0.05,-0.214 z"
       style="font-weight:400;font-size:2.82200003px;font-family:Sniglet;-inkscape-font-specification:'Sniglet, Normal';font-variant-ligatures:normal;font-variant-caps:normal;font-variant-numeric:normal;font-feature-settings:normal;text-align:start;letter-spacing:0;word-spacing:0;fill:#c8c8c8;stroke-width:0.20703119"
       aria-label="TR"
       font-weight="400"
       font-size="2.822"
       letter-spacing="0"
       word-spacing="0"
       id="path94"
       inkscape:connector-curvature="0" />
  </g>
  <g
     style="line-height:1.25;stroke-width:0.78124982"
     id="g100"
     transform="matrix(1.2800003,0,0,1.2800003,0,-0.09605039)">
    <path
       d="m 4.26,70.715 q 0,-0.173 0.03,-0.353 0.035,-0.18 0.12,-0.328 0.084,-0.146 0.228,-0.24 0.147,-0.093 0.372,-0.093 0.178,0 0.302,0.054 0.127,0.054 0.21,0.141 0.081,0.088 0.126,0.2 0.045,0.11 0.068,0.232 0.023,0.121 0.025,0.24 0.006,0.118 0.006,0.217 0,0.198 -0.048,0.364 -0.045,0.164 -0.141,0.282 -0.093,0.119 -0.237,0.187 -0.141,0.065 -0.333,0.065 -0.2,0 -0.342,-0.077 Q 4.508,71.527 4.421,71.397 4.336,71.265 4.296,71.09 4.26,70.912 4.26,70.715 Z m 0.282,-0.006 q 0,0.138 0.022,0.265 0.026,0.124 0.08,0.22 0.053,0.093 0.138,0.15 0.087,0.056 0.211,0.056 0.119,0 0.206,-0.048 0.09,-0.048 0.15,-0.132 0.06,-0.088 0.088,-0.206 0.028,-0.119 0.028,-0.257 0,-0.105 -0.009,-0.237 -0.008,-0.136 -0.053,-0.254 -0.043,-0.119 -0.136,-0.2 -0.093,-0.082 -0.26,-0.082 -0.14,0 -0.23,0.067 -0.088,0.068 -0.142,0.175 -0.054,0.105 -0.073,0.235 -0.02,0.127 -0.02,0.248 z m 3.021,0.265 q -0.13,0.006 -0.3,0.011 -0.169,0.003 -0.4,0.003 -0.096,0 -0.164,-0.003 -0.068,-0.002 -0.11,-0.014 -0.042,-0.014 -0.062,-0.042 -0.02,-0.028 -0.02,-0.079 0,-0.025 0.006,-0.045 0.006,-0.023 0.025,-0.04 0.02,-0.017 0.054,-0.028 0.037,-0.014 0.093,-0.02 l 0.073,-0.005 q 0.034,-0.003 0.065,-0.003 0.031,-0.003 0.065,-0.003 h 0.085 q 0.152,0 0.293,0.003 0.142,0 0.294,0.008 0.068,0.006 0.104,0.017 0.037,0.009 0.057,0.026 0.02,0.017 0.022,0.04 0.006,0.022 0.006,0.05 0,0.05 -0.037,0.085 -0.033,0.034 -0.15,0.04 z m 1.59,-0.999 q -0.102,0 -0.17,0.023 -0.067,0.02 -0.112,0.053 -0.045,0.034 -0.074,0.07 -0.025,0.038 -0.05,0.071 -0.023,0.034 -0.051,0.057 -0.026,0.02 -0.065,0.02 -0.068,0 -0.096,-0.034 -0.025,-0.037 -0.025,-0.096 0,-0.124 0.093,-0.232 0.028,-0.034 0.076,-0.07 0.05,-0.04 0.118,-0.07 0.071,-0.032 0.161,-0.052 0.093,-0.022 0.21,-0.022 0.307,0 0.476,0.15 0.17,0.149 0.17,0.42 0,0.054 -0.012,0.118 -0.008,0.065 -0.037,0.136 -0.025,0.07 -0.073,0.147 -0.048,0.076 -0.127,0.155 -0.07,0.07 -0.15,0.13 -0.079,0.059 -0.163,0.118 l -0.178,0.127 q -0.09,0.065 -0.183,0.15 0.09,0.048 0.194,0.062 0.105,0.014 0.235,0.014 0.12,0 0.194,-0.006 0.074,-0.005 0.119,-0.014 l 0.07,-0.014 q 0.026,-0.005 0.054,-0.005 0.104,0 0.104,0.096 0,0.084 -0.07,0.13 -0.07,0.045 -0.17,0.067 -0.098,0.02 -0.203,0.023 -0.104,0.005 -0.172,0.005 -0.037,0 -0.104,-0.005 Q 9.077,71.694 9.001,71.683 8.924,71.671 8.845,71.652 8.769,71.629 8.705,71.595 8.642,71.558 8.603,71.508 q -0.04,-0.054 -0.04,-0.127 0,-0.1 0.07,-0.187 0.074,-0.09 0.181,-0.175 0.108,-0.087 0.232,-0.172 0.124,-0.087 0.231,-0.178 0.107,-0.093 0.178,-0.191 0.073,-0.1 0.073,-0.215 0,-0.144 -0.098,-0.214 -0.096,-0.074 -0.277,-0.074 z m 1.787,1.592 q -0.036,0.068 -0.067,0.099 -0.028,0.03 -0.074,0.03 -0.045,0 -0.079,-0.03 -0.033,-0.031 -0.073,-0.096 -0.05,-0.085 -0.116,-0.235 -0.062,-0.15 -0.127,-0.324 -0.065,-0.178 -0.127,-0.367 -0.062,-0.19 -0.113,-0.356 -0.048,-0.166 -0.079,-0.29 -0.028,-0.127 -0.028,-0.181 0,-0.056 0.023,-0.085 0.022,-0.028 0.087,-0.028 0.037,0 0.062,0.02 0.029,0.017 0.07,0.101 0.035,0.065 0.074,0.17 0.04,0.104 0.082,0.231 0.045,0.127 0.09,0.268 l 0.09,0.277 q 0.046,0.138 0.085,0.265 l 0.074,0.229 0.076,-0.232 0.087,-0.265 0.09,-0.276 q 0.046,-0.142 0.091,-0.266 0.045,-0.124 0.085,-0.228 0.04,-0.105 0.07,-0.173 0.04,-0.081 0.068,-0.101 0.031,-0.02 0.062,-0.02 0.065,0 0.088,0.034 0.025,0.031 0.025,0.093 0,0.057 -0.017,0.136 -0.017,0.079 -0.06,0.211 -0.039,0.13 -0.106,0.325 l -0.167,0.477 q -0.025,0.076 -0.06,0.158 -0.03,0.082 -0.064,0.16 -0.031,0.077 -0.062,0.147 -0.031,0.071 -0.06,0.122 z"
       style="font-weight:400;font-size:2.82200003px;font-family:Sniglet;-inkscape-font-specification:'Sniglet, Normal';font-variant-ligatures:normal;font-variant-caps:normal;font-variant-numeric:normal;font-feature-settings:normal;text-align:start;letter-spacing:0;word-spacing:0;fill:#c8c8c8;stroke-width:0.20703119"
       aria-label="0 - 2V"
       font-weight="400"
       font-size="2.822"
       letter-spacing="0"
       word-spacing="0"
       id="path98"
       inkscape:connector-curvature="0" />
  </g>
  <path
     word-spacing="0"
     letter-spacing="0"
     font-size="3.528"
     font-weight="400"
     d="m 28.582407,72.660447 -0.1152,0.1408 a 0.18560004,0.18560004 0 0 1 -0.13696,0.0576 0.19200005,0.19200005 0 0 1 -0.12544,-0.04864 0.30208007,0.30208007 0 0 1 -0.0512,-0.064 0.14848003,0.14848003 0 0 1 -0.01664,-0.07168 c 0,-0.0256 0.009,-0.06016 0.0256,-0.09984 a 1.0316802,1.0316802 0 0 1 0.08192,-0.14848 l 0.31232,-0.51072 c 0.08704,-0.1472 0.1664,-0.27136 0.2432,-0.3712 a 1.1788803,1.1788803 0 0 1 0.20352,-0.22912 c 0.064,-0.0512 0.128,-0.0768 0.1984,-0.0768 a 0.32000008,0.32000008 0 0 1 0.20352,0.08064 1.1520003,1.1520003 0 0 1 0.20352,0.2304 c 0.07168,0.09984 0.1536,0.22272 0.2432,0.3712 0.08704,0.1472 0.18944,0.31616 0.3072,0.5056 a 1.2531203,1.2531203 0 0 1 0.08576,0.14848 0.33280008,0.33280008 0 0 1 0.02304,0.09984 0.15360004,0.15360004 0 0 1 -0.01792,0.07168 0.28544007,0.28544007 0 0 1 -0.0512,0.064 0.19200005,0.19200005 0 0 1 -0.12544,0.04864 0.16896004,0.16896004 0 0 1 -0.13056,-0.05888 2.3769606,2.3769606 0 0 1 -0.1216,-0.13952 c -0.4032,-0.38656 -0.96512,-0.36736 -1.23776,0 z M 4.8716811,71.436767 a 9.0470421,9.0470421 0 0 0 -0.1152,-0.1408 0.18560004,0.18560004 0 0 0 -0.13696,-0.0576 0.19200005,0.19200005 0 0 0 -0.12544,0.04864 0.30208007,0.30208007 0 0 0 -0.0512,0.064 0.14848003,0.14848003 0 0 0 -0.01664,0.07168 c 0,0.02688 0.00896,0.06016 0.0256,0.09984 0.01664,0.0384 0.04352,0.0896 0.08192,0.14848 l 0.31232,0.512 c 0.08704,0.14592 0.1664001,0.27008 0.2432001,0.3712 a 1.1648003,1.1648003 0 0 0 0.20352,0.22784 c 0.064,0.0512 0.1280001,0.0768 0.1984001,0.0768 a 0.32000008,0.32000008 0 0 0 0.20352,-0.08064 1.1520003,1.1520003 0 0 0 0.2035201,-0.2304 c 0.07168,-0.09984 0.1536,-0.22272 0.2432,-0.3712 0.08704,-0.1472 0.1894401,-0.31616 0.3072001,-0.5056 a 1.2531203,1.2531203 0 0 0 0.08576,-0.14848 0.28928007,0.28928007 0 0 0 0.02304,-0.09984 0.14592003,0.14592003 0 0 0 -0.01792,-0.07168 0.28544007,0.28544007 0 0 0 -0.0512,-0.064 0.19200005,0.19200005 0 0 0 -0.12544,-0.04864 0.16896004,0.16896004 0 0 0 -0.13056,0.05888 c -0.0384,0.04096 -0.08064,0.0896 -0.1216001,0.1408 -0.4032001,0.38528 -0.9651202,0.36608 -1.2377603,0 z m 48.0038509,-0.4928 -0.1152,0.1408 a 0.18560004,0.18560004 0 0 1 -0.13696,0.05632 0.19200005,0.19200005 0 0 1 -0.12544,-0.04864 0.30208007,0.30208007 0 0 1 -0.0512,-0.064 0.14848003,0.14848003 0 0 1 -0.01664,-0.07168 c 0,-0.0256 0.009,-0.06016 0.0256,-0.09984 a 1.0316802,1.0316802 0 0 1 0.08192,-0.14848 l 0.31232,-0.51072 c 0.08704,-0.1472 0.1664,-0.27136 0.2432,-0.3712 a 1.1788803,1.1788803 0 0 1 0.20352,-0.22912 c 0.064,-0.0512 0.128001,-0.0768 0.198401,-0.0768 a 0.32000008,0.32000008 0 0 1 0.20352,0.08064 1.1520003,1.1520003 0 0 1 0.20352,0.2304 c 0.07168,0.09984 0.1536,0.22272 0.2432,0.3712 0.08704,0.1472 0.18944,0.31616 0.3072,0.5056 a 1.2531203,1.2531203 0 0 1 0.08576,0.14848 0.30720007,0.30720007 0 0 1 0.02304,0.09984 c 0,0.0256 -0.0064,0.0512 -0.01792,0.07168 a 0.28544007,0.28544007 0 0 1 -0.0512,0.064 0.19200005,0.19200005 0 0 1 -0.12544,0.04864 0.16896004,0.16896004 0 0 1 -0.13056,-0.05888 2.3769606,2.3769606 0 0 1 -0.1216,-0.13952 c -0.4032,-0.38656 -0.965121,-0.36736 -1.237761,0 z m -13.884163,-1.22496 a 9.0470421,9.0470421 0 0 0 -0.1152,-0.1408 0.18560004,0.18560004 0 0 0 -0.13696,-0.0576 0.19200005,0.19200005 0 0 0 -0.12544,0.04864 0.30208007,0.30208007 0 0 0 -0.0512,0.064 0.14848003,0.14848003 0 0 0 -0.01664,0.07168 c 0,0.02688 0.009,0.06016 0.0256,0.09984 0.01664,0.0384 0.04352,0.0896 0.08192,0.14848 l 0.31232,0.512 c 0.08704,0.14592 0.1664,0.27008 0.2432,0.3712 a 1.1648003,1.1648003 0 0 0 0.20352,0.22784 c 0.064,0.0512 0.128,0.0768 0.1984,0.0768 a 0.32000008,0.32000008 0 0 0 0.20352,-0.08064 1.1520003,1.1520003 0 0 0 0.20352,-0.2304 c 0.07168,-0.09984 0.1536,-0.22272 0.2432,-0.3712 0.08704,-0.1472 0.18944,-0.31616 0.307201,-0.5056 a 1.2531203,1.2531203 0 0 0 0.08576,-0.14848 0.28928007,0.28928007 0 0 0 0.02304,-0.09984 0.14592003,0.14592003 0 0 0 -0.01792,-0.07168 0.28544007,0.28544007 0 0 0 -0.0512,-0.064 0.19200005,0.19200005 0 0 0 -0.125441,-0.04864 0.16896004,0.16896004 0 0 0 -0.13056,0.05888 c -0.0384,0.04096 -0.08064,0.0896 -0.1216,0.1408 -0.4032,0.38528 -0.96512,0.36608 -1.23776,0 z"
     style="font-weight:400;font-size:3.52800012px;line-height:1.25;font-family:Sniglet;-inkscape-font-specification:'Sniglet, Normal';font-variant-ligatures:normal;font-variant-caps:normal;font-variant-numeric:normal;font-feature-settings:normal;text-align:start;letter-spacing:0;word-spacing:0;fill:#c8c8c8;stroke-width:1"
     id="path102"
     inkscape:connector-curvature="0" />
</svg>
