<?xml version="1.0" encoding="UTF-8" standalone="no"?>
<svg
   xmlns:dc="http://purl.org/dc/elements/1.1/"
   xmlns:cc="http://creativecommons.org/ns#"
   xmlns:rdf="http://www.w3.org/1999/02/22-rdf-syntax-ns#"
   xmlns:svg="http://www.w3.org/2000/svg"
   xmlns="http://www.w3.org/2000/svg"
   xmlns:xlink="http://www.w3.org/1999/xlink"
   xmlns:sodipodi="http://sodipodi.sourceforge.net/DTD/sodipodi-0.dtd"
   xmlns:inkscape="http://www.inkscape.org/namespaces/inkscape"
   width="50.799999mm"
   height="128.5mm"
   viewBox="0 0 50.800639 128.50044"
   version="1.1"
   id="svg120"
   sodipodi:docname="Clkd_dark.svg"
   inkscape:version="0.92.2 (5c3e80d, 2017-08-06)">
  <metadata
     id="metadata124">
    <rdf:RDF>
      <cc:Work
         rdf:about="">
        <dc:format>image/svg+xml</dc:format>
        <dc:type
           rdf:resource="http://purl.org/dc/dcmitype/StillImage" />
        <dc:title />
      </cc:Work>
    </rdf:RDF>
  </metadata>
  <sodipodi:namedview
     pagecolor="#ffffff"
     bordercolor="#666666"
     borderopacity="1"
     objecttolerance="10"
     gridtolerance="10"
     guidetolerance="10"
     inkscape:pageopacity="0"
     inkscape:pageshadow="2"
     inkscape:window-width="1366"
     inkscape:window-height="705"
     id="namedview122"
     showgrid="false"
     inkscape:zoom="1.0192121"
     inkscape:cx="-71.286081"
     inkscape:cy="242.83464"
     inkscape:window-x="251"
     inkscape:window-y="1072"
     inkscape:window-maximized="1"
     inkscape:current-layer="svg120"
     inkscape:document-units="mm"
     units="mm" />
  <defs
     id="defs20">
    <linearGradient
       xlink:href="#a"
       id="d"
       x1="100.257"
       y1="173.646"
       x2="100.251"
       y2="182.42"
       gradientUnits="userSpaceOnUse"
       gradientTransform="matrix(1.324224,0,0,1.3700224,-107.6608,-193.88502)" />
    <linearGradient
       id="a">
      <stop
         offset="0"
         id="stop3" />
      <stop
         offset="1"
         stop-color="#fff"
         stop-opacity=".99"
         id="stop5"
         style="stop-color:#8c8c8c;stop-opacity:0.98823529" />
    </linearGradient>
    <linearGradient
       xlink:href="#b"
       id="e"
       x1="26.759001"
       y1="162"
       x2="30.999001"
       y2="162"
       gradientUnits="userSpaceOnUse"
       gradientTransform="matrix(1,0,0,0.56406,0,70.452)" />
    <linearGradient
       id="b">
      <stop
         offset="0"
         stop-color="#fff"
         id="stop9" />
      <stop
         offset="1"
         stop-color="#fff"
         stop-opacity="0"
         id="stop11" />
    </linearGradient>
    <linearGradient
       xlink:href="#c"
       id="f"
       x1="26.759001"
       y1="162"
       x2="30.999001"
       y2="162"
       gradientUnits="userSpaceOnUse"
       gradientTransform="matrix(0.99995,0,0,0.53173,135.453,-112.052)" />
    <linearGradient
       id="c">
      <stop
         offset="0"
         stop-color="#fff"
         stop-opacity=".992"
         id="stop15" />
      <stop
         offset="1"
         stop-color="#fff"
         stop-opacity="0"
         id="stop17" />
    </linearGradient>
  </defs>
  <path
     d="M 0,-5.8681899e-4 H 50.80064 V 128.50103 H 0 Z m 0,0"
     id="path22"
     inkscape:connector-curvature="0"
     style="fill:#1e1e1e;stroke-width:0.99999994;fill-opacity:1" />
  <rect
     rx="2.3399999"
     ry="2.3399999"
     y="84.913902"
     x="2.41536"
     height="32.669441"
     width="45.983997"
     id="rect24"
     style="fill:#3e3e3e;stroke:#8c8c8c;stroke-width:0.24600001;paint-order:stroke markers fill;stroke-opacity:1" />
  <rect
     rx="2.3399999"
     ry="2.3399999"
     y="39.944103"
     x="33.183998"
     height="16.56192"
     width="14.96576"
     id="rect26"
     style="fill:#3e3e3e;stroke:#8c8c8c;stroke-width:0.24600001;paint-order:stroke markers fill;stroke-opacity:1" />
  <g
     style="line-height:1.25;stroke-width:0.78125"
     id="g30"
     transform="matrix(1.28,0,0,1.28,0,-0.09601669)">
    <path
       word-spacing="0"
       letter-spacing="0"
       font-weight="400"
       aria-label="♫"
       font-size="3.528"
       style="font-weight:400;font-size:3.52800012px;font-family:Arial;-inkscape-font-specification:'Arial, Normal';font-variant-ligatures:normal;font-variant-caps:normal;font-variant-numeric:normal;font-feature-settings:normal;text-align:start;letter-spacing:0;word-spacing:0;fill:#969696;stroke-width:0.78125"
       d="m 28.322,96.87 -1.63,0.115 v -2.06 q 0,-0.23 0.065,-0.333 0.064,-0.104 0.22,-0.147 0.153,-0.043 0.348,-0.002 0.223,0.047 0.356,0.19 0.133,0.146 0.133,0.33 0,0.186 -0.157,0.286 -0.158,0.103 -0.408,0.05 -0.082,-0.018 -0.143,-0.044 -0.064,-0.027 -0.205,-0.11 v 1.345 l 1.219,-0.085 v -1.554 q 0,-0.225 0.065,-0.337 0.066,-0.11 0.226,-0.151 0.16,-0.04 0.348,0 0.223,0.047 0.354,0.19 0.13,0.14 0.13,0.325 0,0.195 -0.156,0.294 -0.156,0.1 -0.408,0.047 -0.16,-0.034 -0.357,-0.16 z"
       id="path28"
       inkscape:connector-curvature="0" />
  </g>
  <g
     style="line-height:1.25;stroke-width:0.78125"
     id="g34"
     transform="matrix(1.28,0,0,1.28,0,-0.09601669)">
    <path
       d="m 10.304,96.698 q -0.007,-0.127 -0.01,-0.265 0,-0.137 -0.004,-0.296 -0.003,-0.159 -0.003,-0.342 v -0.417 q 0,-0.25 0.003,-0.426 0.004,-0.18 0.02,-0.293 0.019,-0.113 0.054,-0.166 0.039,-0.053 0.102,-0.053 0.032,0 0.06,0.007 0.029,0.007 0.05,0.032 0.02,0.02 0.035,0.067 0.018,0.042 0.02,0.113 0.008,0.127 0.01,0.225 l 0.009,0.198 q 0.003,0.095 0.003,0.201 v 0.536 q 0,0.145 -0.003,0.286 l -0.007,0.286 -0.01,0.303 q -0.004,0.085 -0.018,0.13 -0.015,0.047 -0.036,0.071 -0.02,0.025 -0.05,0.028 -0.027,0.007 -0.063,0.007 -0.063,0 -0.11,-0.042 -0.045,-0.046 -0.052,-0.19 z m 1.754,-0.381 q -0.162,-0.357 -0.29,-0.688 -0.123,-0.335 -0.211,-0.596 -0.081,0.437 -0.138,0.882 -0.053,0.444 -0.137,0.85 -0.021,0.092 -0.078,0.123 -0.056,0.028 -0.095,0.028 -0.064,0 -0.102,-0.038 -0.036,-0.04 -0.036,-0.1 0,-0.08 0.018,-0.246 0.02,-0.17 0.05,-0.381 0.03,-0.212 0.07,-0.445 0.039,-0.232 0.078,-0.448 l 0.077,-0.395 q 0.039,-0.176 0.067,-0.271 0.046,-0.163 0.187,-0.163 0.085,0 0.145,0.085 0.06,0.081 0.127,0.254 0.07,0.17 0.166,0.43 0.098,0.262 0.254,0.614 0.15,-0.352 0.243,-0.61 0.095,-0.261 0.159,-0.43 0.067,-0.173 0.127,-0.254 0.06,-0.085 0.148,-0.085 0.08,0 0.123,0.042 0.043,0.039 0.064,0.12 0.025,0.099 0.06,0.275 0.035,0.173 0.074,0.388 0.042,0.212 0.08,0.445 0.04,0.233 0.07,0.444 0.033,0.212 0.05,0.385 0.022,0.17 0.022,0.261 0,0.056 -0.04,0.092 -0.037,0.031 -0.097,0.031 -0.04,0 -0.096,-0.028 -0.056,-0.032 -0.077,-0.123 -0.043,-0.201 -0.078,-0.417 l -0.063,-0.433 -0.057,-0.441 q -0.028,-0.223 -0.06,-0.441 -0.046,0.14 -0.106,0.31 -0.06,0.17 -0.127,0.342 -0.067,0.17 -0.137,0.335 -0.07,0.166 -0.138,0.3 -0.024,0.046 -0.067,0.07 -0.04,0.022 -0.08,0.022 -0.047,0 -0.09,-0.021 -0.038,-0.025 -0.06,-0.074 z m 2.005,0.377 q 0,0.085 -0.018,0.13 -0.014,0.047 -0.04,0.071 -0.02,0.025 -0.052,0.029 -0.028,0.007 -0.056,0.007 -0.095,0 -0.127,-0.043 -0.028,-0.042 -0.04,-0.19 -0.006,-0.078 -0.01,-0.226 l -0.006,-0.353 q 0,-0.204 -0.004,-0.451 v -0.522 q 0,-0.131 0.032,-0.265 0.032,-0.134 0.12,-0.243 0.09,-0.11 0.25,-0.177 0.162,-0.067 0.42,-0.067 0.18,0 0.342,0.039 0.162,0.039 0.286,0.134 0.123,0.095 0.198,0.254 0.074,0.159 0.074,0.395 0,0.247 -0.082,0.41 -0.08,0.162 -0.23,0.257 -0.147,0.095 -0.352,0.134 -0.204,0.039 -0.448,0.039 H 14.2 q -0.06,0 -0.134,-0.007 z m 1.016,-1.485 q 0,-0.236 -0.134,-0.356 -0.13,-0.12 -0.438,-0.12 -0.116,0 -0.2,0.021 -0.082,0.018 -0.135,0.067 -0.053,0.046 -0.08,0.127 -0.026,0.081 -0.026,0.205 v 0.275 q 0,0.151 0.004,0.286 0.08,0.004 0.18,0.004 h 0.19 q 0.106,0 0.219,-0.015 0.116,-0.014 0.208,-0.063 0.092,-0.053 0.152,-0.152 0.06,-0.102 0.06,-0.278 z m 1.45,0.84 -0.101,0.007 h -0.223 q -0.06,0 -0.134,-0.007 v 0.716 q 0,0.113 -0.056,0.14 -0.053,0.026 -0.134,0.026 -0.042,0 -0.067,-0.007 -0.025,-0.004 -0.042,-0.018 -0.015,-0.018 -0.025,-0.05 -0.007,-0.031 -0.01,-0.088 -0.008,-0.063 -0.011,-0.183 -0.004,-0.123 -0.007,-0.318 0,-0.194 -0.004,-0.469 v -0.652 q 0,-0.145 0.035,-0.279 0.036,-0.138 0.127,-0.24 0.092,-0.106 0.247,-0.17 0.16,-0.063 0.402,-0.063 0.173,0 0.336,0.039 0.165,0.039 0.292,0.134 0.127,0.095 0.205,0.258 0.078,0.162 0.078,0.405 0,0.325 -0.141,0.505 -0.138,0.176 -0.381,0.25 l 0.472,0.65 q 0.064,0.084 0.064,0.172 0,0.07 -0.05,0.11 -0.046,0.042 -0.116,0.042 -0.078,0 -0.134,-0.042 -0.057,-0.046 -0.106,-0.117 z m 0.555,-0.822 q 0,-0.244 -0.148,-0.36 -0.145,-0.12 -0.462,-0.12 -0.117,0 -0.194,0.021 -0.078,0.018 -0.124,0.07 -0.046,0.054 -0.067,0.149 -0.018,0.091 -0.018,0.236 v 0.24 q 0,0.138 0.004,0.25 0.08,0.005 0.18,0.005 h 0.19 q 0.1,0 0.208,-0.011 0.113,-0.014 0.209,-0.064 0.095,-0.052 0.158,-0.148 0.064,-0.099 0.064,-0.268 z m 1.609,1.725 q -0.212,0 -0.398,-0.085 -0.184,-0.085 -0.322,-0.243 -0.137,-0.163 -0.218,-0.395 -0.078,-0.233 -0.078,-0.53 0,-0.278 0.067,-0.511 0.07,-0.233 0.205,-0.402 0.137,-0.17 0.338,-0.261 0.202,-0.096 0.466,-0.096 0.215,0 0.41,0.078 0.193,0.078 0.338,0.233 0.148,0.155 0.233,0.388 0.085,0.233 0.085,0.543 0,0.258 -0.071,0.49 -0.067,0.233 -0.208,0.41 -0.138,0.173 -0.35,0.278 -0.211,0.103 -0.497,0.103 z M 18.7,96.62 q 0.194,0 0.339,-0.077 0.145,-0.082 0.24,-0.212 0.095,-0.13 0.14,-0.3 0.047,-0.173 0.047,-0.353 0,-0.218 -0.06,-0.388 -0.057,-0.173 -0.155,-0.29 -0.1,-0.115 -0.23,-0.175 -0.13,-0.064 -0.278,-0.064 -0.177,0 -0.31,0.074 -0.131,0.074 -0.223,0.201 -0.088,0.127 -0.134,0.3 -0.046,0.17 -0.046,0.363 0,0.209 0.053,0.381 0.053,0.17 0.14,0.29 0.093,0.12 0.216,0.187 0.124,0.063 0.26,0.063 z m 2.384,-0.303 q -0.162,-0.357 -0.29,-0.688 -0.123,-0.335 -0.21,-0.596 -0.082,0.437 -0.138,0.882 -0.053,0.444 -0.138,0.85 -0.021,0.092 -0.078,0.123 -0.056,0.028 -0.095,0.028 -0.063,0 -0.102,-0.038 -0.036,-0.04 -0.036,-0.1 0,-0.08 0.018,-0.246 0.02,-0.17 0.05,-0.381 0.03,-0.212 0.07,-0.445 0.039,-0.232 0.078,-0.448 l 0.077,-0.395 q 0.04,-0.176 0.067,-0.271 0.046,-0.163 0.187,-0.163 0.085,0 0.145,0.085 0.06,0.081 0.127,0.254 0.07,0.17 0.166,0.43 0.099,0.262 0.254,0.614 0.15,-0.352 0.243,-0.61 0.095,-0.261 0.159,-0.43 0.067,-0.173 0.127,-0.254 0.06,-0.085 0.148,-0.085 0.08,0 0.124,0.042 0.042,0.039 0.063,0.12 0.025,0.099 0.06,0.275 0.035,0.173 0.074,0.388 0.042,0.212 0.08,0.445 0.04,0.233 0.07,0.444 0.034,0.212 0.05,0.385 0.022,0.17 0.022,0.261 0,0.056 -0.038,0.092 -0.04,0.031 -0.1,0.031 -0.038,0 -0.094,-0.028 -0.057,-0.032 -0.078,-0.123 -0.042,-0.201 -0.078,-0.417 l -0.063,-0.433 -0.057,-0.441 q -0.028,-0.223 -0.06,-0.441 -0.045,0.14 -0.105,0.31 -0.06,0.17 -0.127,0.342 -0.067,0.17 -0.138,0.335 -0.07,0.166 -0.138,0.3 -0.024,0.046 -0.067,0.07 -0.038,0.022 -0.08,0.022 -0.047,0 -0.09,-0.021 -0.038,-0.025 -0.06,-0.074 z m 2.005,0.377 q 0,0.085 -0.018,0.13 -0.014,0.047 -0.038,0.071 -0.022,0.025 -0.053,0.029 -0.03,0.007 -0.057,0.007 -0.095,0 -0.127,-0.043 -0.028,-0.042 -0.04,-0.19 -0.006,-0.078 -0.01,-0.226 L 22.74,96.119 q 0,-0.204 -0.004,-0.451 v -0.522 q 0,-0.131 0.032,-0.265 0.032,-0.134 0.12,-0.243 0.092,-0.11 0.25,-0.177 0.163,-0.067 0.42,-0.067 0.18,0 0.342,0.039 0.163,0.039 0.286,0.134 0.124,0.095 0.198,0.254 0.074,0.159 0.074,0.395 0,0.247 -0.081,0.41 -0.082,0.162 -0.23,0.257 -0.148,0.095 -0.352,0.134 -0.205,0.039 -0.45,0.039 h -0.12 q -0.06,0 -0.133,-0.007 z m 1.016,-1.485 q 0,-0.236 -0.134,-0.356 -0.13,-0.12 -0.438,-0.12 -0.116,0 -0.2,0.021 -0.082,0.018 -0.135,0.067 -0.053,0.046 -0.08,0.127 -0.025,0.081 -0.025,0.205 v 0.275 q 0,0.151 0.003,0.286 0.08,0.004 0.18,0.004 h 0.19 q 0.106,0 0.22,-0.015 0.116,-0.014 0.207,-0.063 0.092,-0.053 0.152,-0.152 0.06,-0.102 0.06,-0.278 z m 1.974,-0.437 q -0.1,0.007 -0.212,0.01 l -0.243,0.007 0.007,0.18 0.007,0.166 q 0.004,0.085 0.004,0.176 0.003,0.092 0.003,0.205 v 0.307 q 0,0.144 -0.003,0.293 l -0.007,0.292 q -0.004,0.149 -0.011,0.307 -0.003,0.085 -0.018,0.13 -0.01,0.047 -0.031,0.072 -0.022,0.024 -0.05,0.028 -0.028,0.007 -0.063,0.007 -0.064,0 -0.11,-0.043 -0.042,-0.045 -0.05,-0.19 -0.006,-0.127 -0.01,-0.268 0,-0.141 -0.003,-0.304 -0.004,-0.162 -0.004,-0.349 V 95.04 q 0.004,-0.145 0.01,-0.25 h -0.144 q -0.148,0 -0.254,-0.005 -0.102,-0.004 -0.17,-0.017 -0.066,-0.018 -0.098,-0.053 -0.028,-0.036 -0.028,-0.1 0,-0.03 0.007,-0.055 0.007,-0.029 0.032,-0.05 0.025,-0.025 0.067,-0.039 0.046,-0.014 0.116,-0.02 l 0.12,-0.008 0.106,-0.007 q 0.053,-0.004 0.11,-0.004 h 0.13 q 0.208,0 0.392,0.004 0.186,0.004 0.395,0.014 0.084,0.007 0.13,0.021 0.046,0.011 0.07,0.032 0.025,0.021 0.029,0.05 0.007,0.028 0.007,0.063 0,0.064 -0.046,0.106 -0.042,0.042 -0.187,0.05 z"
       style="font-weight:400;font-size:3.52800012px;font-family:Sniglet;-inkscape-font-specification:'Sniglet, Normal';font-variant-ligatures:normal;font-variant-caps:normal;font-variant-numeric:normal;font-feature-settings:normal;text-align:start;letter-spacing:0;word-spacing:0;fill:#c8c8c8;stroke-width:0.78125"
       word-spacing="0"
       letter-spacing="0"
       font-size="3.528"
       font-weight="400"
       aria-label="IMPROMPT"
       id="path32"
       inkscape:connector-curvature="0" />
  </g>
  <g
     style="line-height:1.25;stroke-width:0.78125"
     id="g38"
     transform="matrix(1.28,0,0,1.28,0,-0.09601669)">
    <path
       style="font-weight:400;font-size:2.82200003px;font-family:Sniglet;-inkscape-font-specification:'Sniglet, Normal';font-variant-ligatures:normal;font-variant-caps:normal;font-variant-numeric:normal;font-feature-settings:normal;text-align:start;letter-spacing:0;word-spacing:0;fill:#c8c8c8;stroke-width:0.78125"
       d="M 4.802,10.203 4.72,10.209 H 4.542 q -0.048,0 -0.107,-0.006 v 0.573 q 0,0.09 -0.045,0.113 -0.042,0.02 -0.107,0.02 -0.034,0 -0.054,-0.006 Q 4.209,10.9 4.195,10.889 4.184,10.875 4.175,10.849 4.17,10.824 4.167,10.779 4.161,10.728 4.159,10.632 L 4.153,10.378 q 0,-0.155 -0.003,-0.375 V 9.48 Q 4.15,9.364 4.178,9.257 4.207,9.147 4.28,9.065 4.353,8.98 4.478,8.929 q 0.127,-0.05 0.32,-0.05 0.14,0 0.269,0.03 0.133,0.03 0.235,0.108 0.1,0.076 0.163,0.206 0.062,0.13 0.062,0.324 0,0.26 -0.113,0.404 -0.11,0.14 -0.304,0.2 l 0.378,0.52 q 0.05,0.067 0.05,0.138 0,0.056 -0.04,0.087 Q 5.462,10.93 5.406,10.93 5.344,10.93 5.299,10.896 5.254,10.86 5.214,10.803 Z M 5.245,9.546 Q 5.245,9.351 5.127,9.258 5.011,9.162 4.757,9.162 4.664,9.162 4.602,9.179 4.54,9.193 4.502,9.235 4.466,9.277 4.449,9.354 4.435,9.427 4.435,9.543 v 0.192 q 0,0.11 0.003,0.2 0.065,0.003 0.144,0.003 h 0.152 q 0.08,0 0.167,-0.008 Q 4.991,9.919 5.067,9.88 5.144,9.837 5.194,9.76 5.244,9.682 5.244,9.546 Z M 5.793,10.469 5.782,10.223 Q 5.776,10.068 5.776,9.903 V 9.712 L 5.782,9.506 Q 5.787,9.296 5.807,9.179 5.83,9.059 5.892,9.001 5.957,8.941 6.072,8.928 6.188,8.913 6.38,8.913 h 0.06 q 0.059,0 0.14,0.003 0.082,0 0.17,0.003 L 6.9,8.925 q 0.062,0.006 0.098,0.017 0.04,0.008 0.06,0.026 0.02,0.014 0.025,0.036 0.006,0.02 0.006,0.046 0,0.065 -0.037,0.096 Q 7.015,9.174 6.902,9.182 6.846,9.188 6.736,9.19 h -0.22 q -0.113,0 -0.204,0.003 H 6.2 Q 6.126,9.196 6.095,9.227 6.067,9.255 6.067,9.365 L 6.07,9.49 Q 6.075,9.586 6.075,9.76 H 6.31 q 0.15,0 0.242,0.007 0.096,0.003 0.147,0.016 0.054,0.015 0.073,0.046 0.02,0.03 0.02,0.08 0,0.027 -0.005,0.049 -0.003,0.02 -0.023,0.037 -0.02,0.014 -0.057,0.026 -0.036,0.008 -0.104,0.014 -0.082,0.006 -0.155,0.008 H 6.07 v 0.344 q 0.002,0.06 0.005,0.096 0.003,0.045 0.012,0.076 0.01,0.03 0.036,0.05 0.028,0.02 0.08,0.03 0.053,0.007 0.14,0.007 H 6.95 q 0.099,0 0.124,0.037 0.026,0.036 0.026,0.099 0,0.05 -0.023,0.079 -0.022,0.025 -0.11,0.036 -0.085,0.014 -0.257,0.017 -0.17,0.003 -0.468,0.003 -0.127,0 -0.21,-0.022 Q 5.952,10.872 5.9,10.818 5.85,10.765 5.824,10.68 5.802,10.593 5.793,10.468 Z m 2.22,-1.564 q 0.08,0 0.18,0.014 0.106,0.01 0.196,0.045 0.09,0.03 0.153,0.085 0.062,0.05 0.062,0.127 0,0.045 -0.026,0.076 -0.025,0.03 -0.082,0.03 -0.042,0 -0.087,-0.016 Q 8.367,9.249 8.309,9.232 8.256,9.212 8.183,9.196 8.113,9.179 8.017,9.179 7.83,9.179 7.74,9.247 7.653,9.311 7.653,9.427 q 0,0.08 0.039,0.133 0.04,0.053 0.104,0.093 0.068,0.037 0.15,0.062 0.085,0.025 0.172,0.048 0.099,0.025 0.195,0.062 0.099,0.037 0.175,0.096 0.076,0.06 0.12,0.15 0.049,0.09 0.049,0.228 0,0.144 -0.053,0.26 -0.054,0.113 -0.147,0.195 -0.093,0.079 -0.223,0.124 -0.13,0.042 -0.282,0.042 -0.085,0 -0.198,-0.017 -0.113,-0.014 -0.214,-0.05 -0.102,-0.04 -0.173,-0.102 -0.07,-0.065 -0.07,-0.158 0,-0.057 0.028,-0.09 0.03,-0.035 0.09,-0.035 0.048,0 0.08,0.02 0.03,0.017 0.053,0.04 0.085,0.073 0.192,0.099 0.107,0.025 0.22,0.025 0.065,0 0.136,-0.008 0.073,-0.011 0.132,-0.042 0.06,-0.031 0.099,-0.088 0.04,-0.06 0.04,-0.158 0,-0.09 -0.037,-0.147 Q 8.296,10.149 8.237,10.111 8.177,10.071 8.096,10.046 8.016,10.02 7.923,9.995 7.819,9.967 7.717,9.933 7.616,9.899 7.537,9.843 7.457,9.783 7.407,9.696 7.359,9.606 7.359,9.466 7.359,9.329 7.409,9.224 7.461,9.12 7.549,9.049 7.636,8.979 7.754,8.942 7.874,8.905 8.014,8.905 Z m 0.972,1.564 Q 8.979,10.379 8.973,10.223 8.968,10.068 8.968,9.903 V 9.712 L 8.973,9.506 Q 8.979,9.296 8.999,9.179 9.021,9.059 9.083,9.001 9.148,8.941 9.263,8.928 9.38,8.913 9.572,8.913 h 0.059 q 0.06,0 0.14,0.003 0.083,0 0.17,0.003 l 0.15,0.006 q 0.062,0.006 0.099,0.017 0.04,0.008 0.06,0.026 0.019,0.014 0.024,0.036 0.006,0.02 0.006,0.046 0,0.065 -0.037,0.096 -0.036,0.028 -0.15,0.036 -0.056,0.006 -0.166,0.008 h -0.22 q -0.113,0 -0.203,0.003 H 9.39 Q 9.317,9.196 9.286,9.227 9.256,9.255 9.256,9.365 L 9.26,9.49 Q 9.266,9.586 9.266,9.76 H 9.5 q 0.15,0 0.243,0.007 0.096,0.003 0.147,0.016 0.053,0.015 0.073,0.046 0.02,0.03 0.02,0.08 0,0.027 -0.006,0.049 -0.003,0.02 -0.023,0.037 -0.02,0.014 -0.056,0.026 -0.037,0.008 -0.104,0.014 -0.082,0.006 -0.156,0.008 H 9.26 v 0.344 l 0.006,0.096 q 0.003,0.045 0.01,0.076 0.012,0.03 0.038,0.05 0.028,0.02 0.079,0.03 0.053,0.007 0.14,0.007 h 0.608 q 0.098,0 0.124,0.037 0.025,0.036 0.025,0.099 0,0.05 -0.022,0.079 -0.023,0.025 -0.11,0.036 -0.085,0.014 -0.257,0.017 -0.17,0.003 -0.47,0.003 -0.126,0 -0.208,-0.022 Q 9.142,10.872 9.091,10.818 9.04,10.765 9.015,10.68 8.992,10.593 8.984,10.468 Z m 2.657,-1.287 q -0.08,0.006 -0.17,0.008 l -0.194,0.006 0.006,0.144 0.005,0.132 q 0.003,0.068 0.003,0.14 0.003,0.075 0.003,0.165 v 0.245 q 0,0.116 -0.003,0.235 l -0.006,0.234 q -0.002,0.119 -0.008,0.246 -0.003,0.067 -0.014,0.104 -0.01,0.037 -0.026,0.056 -0.017,0.02 -0.04,0.023 -0.022,0.006 -0.05,0.006 -0.05,0 -0.087,-0.034 -0.034,-0.037 -0.04,-0.152 -0.006,-0.102 -0.008,-0.215 0,-0.113 -0.003,-0.243 -0.003,-0.13 -0.003,-0.28 V 9.397 Q 11.01,9.281 11.015,9.196 H 10.9 q -0.12,0 -0.203,-0.003 Q 10.615,9.19 10.561,9.179 10.507,9.165 10.481,9.136 10.46,9.108 10.46,9.056 q 0,-0.024 0.005,-0.044 0.006,-0.022 0.026,-0.04 0.02,-0.02 0.053,-0.03 0.037,-0.012 0.093,-0.017 L 10.733,8.919 10.818,8.913 Q 10.86,8.91 10.905,8.91 h 0.105 q 0.166,0 0.313,0.003 0.15,0.003 0.316,0.01 0.068,0.007 0.105,0.018 0.036,0.008 0.056,0.025 0.02,0.017 0.023,0.04 0.005,0.022 0.005,0.05 0,0.05 -0.036,0.085 -0.034,0.034 -0.15,0.04 z"
       word-spacing="0"
       letter-spacing="0"
       font-size="2.822"
       font-weight="400"
       aria-label="RESET"
       id="path36"
       inkscape:connector-curvature="0" />
  </g>
  <g
     style="line-height:1.25;stroke-width:0.78125"
     id="g42"
     transform="matrix(1.28,0,0,1.28,0,-0.09601669)">
    <path
       style="font-weight:400;font-size:2.82200003px;font-family:Sniglet;-inkscape-font-specification:'Sniglet, Normal';font-variant-ligatures:normal;font-variant-caps:normal;font-variant-numeric:normal;font-feature-settings:normal;text-align:start;letter-spacing:0;word-spacing:0;fill:#c8c8c8;stroke-width:0.78125"
       d="M 18.082,10.238 18,10.244 h -0.177 q -0.048,0 -0.108,-0.006 v 0.573 q 0,0.09 -0.045,0.113 -0.042,0.02 -0.107,0.02 -0.034,0 -0.054,-0.006 -0.02,-0.003 -0.034,-0.014 -0.01,-0.014 -0.02,-0.04 -0.005,-0.025 -0.008,-0.07 -0.005,-0.051 -0.008,-0.147 l -0.006,-0.254 q 0,-0.155 -0.003,-0.375 V 9.516 q 0,-0.116 0.028,-0.223 0.029,-0.11 0.102,-0.192 0.073,-0.085 0.198,-0.136 0.127,-0.05 0.32,-0.05 0.14,0 0.269,0.03 0.133,0.03 0.235,0.108 0.1,0.076 0.163,0.206 0.062,0.13 0.062,0.324 0,0.26 -0.112,0.404 -0.11,0.14 -0.305,0.2 l 0.378,0.52 q 0.05,0.067 0.05,0.138 0,0.056 -0.04,0.087 -0.035,0.034 -0.092,0.034 -0.062,0 -0.107,-0.034 -0.045,-0.036 -0.085,-0.093 z m 0.443,-0.657 q 0,-0.195 -0.118,-0.288 -0.116,-0.096 -0.37,-0.096 -0.093,0 -0.155,0.017 -0.062,0.014 -0.1,0.056 -0.036,0.042 -0.053,0.119 -0.014,0.073 -0.014,0.189 V 9.77 q 0,0.11 0.003,0.2 0.065,0.003 0.144,0.003 h 0.152 q 0.08,0 0.167,-0.008 0.09,-0.011 0.166,-0.05 0.077,-0.043 0.127,-0.12 0.05,-0.078 0.05,-0.214 z m 1.212,1.4 q -0.322,0 -0.472,-0.175 -0.06,-0.068 -0.101,-0.173 -0.04,-0.107 -0.065,-0.276 -0.023,-0.17 -0.034,-0.418 -0.01,-0.251 -0.01,-0.61 0,-0.115 0.007,-0.19 0.006,-0.075 0.022,-0.117 0.017,-0.045 0.043,-0.062 0.028,-0.017 0.07,-0.017 0.082,0 0.116,0.073 0.034,0.074 0.034,0.254 0,0.062 -0.003,0.11 v 0.1 q 0,0.047 -0.003,0.106 V 9.73 q 0,0.283 0.017,0.469 0.02,0.186 0.065,0.299 0.045,0.11 0.122,0.155 0.079,0.045 0.194,0.045 0.122,0 0.2,-0.048 0.083,-0.05 0.13,-0.166 0.048,-0.12 0.068,-0.313 0.023,-0.195 0.023,-0.486 0,-0.127 -0.003,-0.217 V 9.304 q 0,-0.104 0.006,-0.175 0.008,-0.07 0.022,-0.11 0.017,-0.042 0.045,-0.06 0.029,-0.016 0.07,-0.016 0.043,0 0.07,0.017 0.03,0.017 0.047,0.06 0.017,0.042 0.022,0.118 0.006,0.073 0.006,0.192 0,0.496 -0.031,0.818 -0.031,0.319 -0.11,0.505 -0.08,0.184 -0.218,0.257 -0.135,0.07 -0.35,0.07 z M 21.899,10.8 q -0.09,-0.124 -0.172,-0.246 l -0.172,-0.27 q -0.09,-0.147 -0.21,-0.325 -0.115,-0.18 -0.28,-0.42 v 0.38 l -0.001,0.31 -0.006,0.272 q -0.002,0.127 -0.008,0.254 -0.003,0.067 -0.014,0.104 -0.01,0.037 -0.026,0.057 -0.017,0.02 -0.04,0.022 -0.02,0.006 -0.047,0.006 -0.051,0 -0.085,-0.034 -0.034,-0.036 -0.04,-0.152 -0.013,-0.31 -0.016,-0.621 V 9.49 q 0,-0.19 0.002,-0.297 0.006,-0.107 0.02,-0.16 0.017,-0.054 0.043,-0.068 0.028,-0.014 0.073,-0.014 0.045,0 0.118,0.07 0.074,0.068 0.16,0.18 0.089,0.114 0.188,0.26 0.1,0.147 0.2,0.302 0.099,0.156 0.19,0.308 l 0.168,0.277 Q 21.942,10.215 21.942,10.057 V 9.701 q 0,-0.223 0.002,-0.366 0.003,-0.147 0.015,-0.232 0.014,-0.085 0.042,-0.118 0.028,-0.034 0.079,-0.034 0.048,0 0.085,0.03 0.036,0.032 0.042,0.145 l 0.008,0.18 0.006,0.158 q 0.003,0.076 0.003,0.16 v 0.43 q 0,0.116 -0.003,0.229 l -0.006,0.228 q -0.002,0.116 -0.008,0.243 -0.003,0.068 -0.014,0.104 -0.01,0.037 -0.026,0.057 -0.017,0.02 -0.04,0.022 -0.02,0.006 -0.047,0.006 -0.048,0 -0.082,-0.028 -0.034,-0.028 -0.1,-0.115 z"
       word-spacing="0"
       letter-spacing="0"
       font-size="2.822"
       font-weight="400"
       aria-label="RUN"
       id="path40"
       inkscape:connector-curvature="0" />
  </g>
  <g
     style="line-height:1.25;stroke-width:0.78125"
     id="g46"
     transform="matrix(1.28,0,0,1.28,0,-0.09601669)">
    <path
       style="font-weight:400;font-size:2.82200003px;font-family:Sniglet;-inkscape-font-specification:'Sniglet, Normal';font-variant-ligatures:normal;font-variant-caps:normal;font-variant-numeric:normal;font-feature-settings:normal;text-align:start;letter-spacing:0;word-spacing:0;fill:#c8c8c8;stroke-width:0.78125"
       d="M 4.749,81.465 4.667,81.471 H 4.489 q -0.048,0 -0.107,-0.006 v 0.573 q 0,0.09 -0.045,0.113 -0.042,0.02 -0.107,0.02 -0.034,0 -0.054,-0.006 Q 4.156,82.162 4.142,82.151 4.131,82.137 4.122,82.111 4.117,82.086 4.114,82.041 4.108,81.99 4.104,81.894 L 4.1,81.64 q 0,-0.155 -0.003,-0.375 v -0.523 q 0,-0.115 0.028,-0.222 0.029,-0.11 0.102,-0.192 0.073,-0.085 0.197,-0.136 0.127,-0.05 0.322,-0.05 0.138,0 0.268,0.03 0.133,0.031 0.235,0.108 0.1,0.076 0.163,0.206 0.062,0.13 0.062,0.324 0,0.26 -0.113,0.404 -0.11,0.14 -0.304,0.2 l 0.378,0.52 q 0.05,0.067 0.05,0.138 0,0.056 -0.04,0.087 -0.036,0.034 -0.092,0.034 -0.062,0 -0.107,-0.034 -0.045,-0.037 -0.085,-0.093 z m 0.443,-0.657 q 0,-0.195 -0.118,-0.288 -0.116,-0.096 -0.37,-0.096 -0.093,0 -0.155,0.017 -0.062,0.014 -0.1,0.056 -0.036,0.042 -0.053,0.119 -0.014,0.073 -0.014,0.189 v 0.192 q 0,0.11 0.003,0.2 Q 4.45,81.2 4.529,81.2 h 0.152 q 0.08,0 0.167,-0.008 0.09,-0.011 0.166,-0.05 0.076,-0.043 0.127,-0.12 0.05,-0.078 0.05,-0.214 z M 5.74,81.73 Q 5.734,81.64 5.729,81.485 5.723,81.33 5.723,81.166 v -0.192 l 0.006,-0.206 q 0.005,-0.209 0.025,-0.327 0.023,-0.119 0.085,-0.178 0.065,-0.06 0.18,-0.073 0.116,-0.015 0.308,-0.015 h 0.06 q 0.059,0 0.14,0.003 0.082,0 0.17,0.003 l 0.15,0.006 q 0.062,0.006 0.098,0.017 0.04,0.008 0.06,0.026 0.02,0.014 0.025,0.036 0.005,0.02 0.005,0.046 0,0.065 -0.036,0.096 -0.037,0.028 -0.15,0.036 -0.056,0.006 -0.166,0.008 h -0.22 q -0.113,0 -0.204,0.003 H 6.146 q -0.073,0.003 -0.104,0.034 -0.028,0.028 -0.028,0.138 l 0.003,0.125 q 0.005,0.096 0.005,0.27 h 0.234 q 0.15,0 0.243,0.007 0.096,0.003 0.147,0.016 0.054,0.015 0.073,0.046 0.02,0.03 0.02,0.081 0,0.026 -0.006,0.048 -0.002,0.02 -0.022,0.037 -0.02,0.014 -0.057,0.026 -0.036,0.008 -0.104,0.014 -0.082,0.006 -0.155,0.008 H 6.017 v 0.343 q 0.002,0.06 0.005,0.097 0.003,0.045 0.012,0.076 0.01,0.031 0.036,0.05 0.028,0.02 0.08,0.029 0.053,0.008 0.14,0.008 h 0.607 q 0.099,0 0.124,0.037 0.026,0.036 0.026,0.099 0,0.05 -0.023,0.079 -0.022,0.025 -0.11,0.036 -0.085,0.014 -0.257,0.017 -0.17,0.003 -0.468,0.003 -0.127,0 -0.21,-0.022 Q 5.898,82.134 5.847,82.08 5.797,82.027 5.771,81.942 5.748,81.855 5.74,81.73 Z m 2.22,-1.563 q 0.08,0 0.18,0.014 0.106,0.011 0.196,0.045 0.09,0.031 0.152,0.085 0.063,0.05 0.063,0.127 0,0.045 -0.026,0.076 -0.025,0.031 -0.082,0.031 -0.042,0 -0.087,-0.017 -0.043,-0.017 -0.1,-0.034 -0.053,-0.02 -0.126,-0.036 -0.07,-0.017 -0.166,-0.017 -0.187,0 -0.277,0.067 -0.088,0.065 -0.088,0.181 0,0.08 0.04,0.133 0.04,0.053 0.104,0.093 0.068,0.037 0.15,0.062 0.085,0.025 0.172,0.048 0.099,0.025 0.195,0.062 0.099,0.037 0.175,0.096 0.076,0.06 0.12,0.15 0.049,0.09 0.049,0.228 0,0.144 -0.053,0.26 -0.054,0.113 -0.147,0.195 -0.093,0.079 -0.223,0.124 -0.13,0.042 -0.282,0.042 -0.085,0 -0.198,-0.017 -0.113,-0.014 -0.214,-0.05 -0.102,-0.04 -0.173,-0.102 -0.07,-0.065 -0.07,-0.158 0,-0.057 0.028,-0.09 0.03,-0.035 0.09,-0.035 0.048,0 0.08,0.02 0.03,0.017 0.053,0.04 0.085,0.073 0.192,0.099 0.107,0.025 0.22,0.025 0.065,0 0.136,-0.008 0.073,-0.011 0.132,-0.042 0.06,-0.031 0.099,-0.088 0.04,-0.06 0.04,-0.158 0,-0.09 -0.037,-0.147 Q 8.243,81.412 8.184,81.373 8.124,81.333 8.043,81.308 7.963,81.282 7.87,81.257 7.766,81.229 7.664,81.195 q -0.101,-0.034 -0.18,-0.09 -0.08,-0.06 -0.13,-0.147 -0.048,-0.09 -0.048,-0.229 0,-0.138 0.05,-0.243 0.052,-0.104 0.139,-0.175 0.088,-0.07 0.206,-0.107 0.12,-0.037 0.26,-0.037 z M 8.932,81.73 Q 8.926,81.64 8.92,81.485 8.915,81.33 8.915,81.166 V 80.974 L 8.92,80.768 Q 8.926,80.559 8.946,80.441 8.968,80.322 9.03,80.263 9.095,80.203 9.21,80.19 9.327,80.175 9.519,80.175 h 0.059 q 0.06,0 0.14,0.003 0.083,0 0.17,0.003 l 0.15,0.006 q 0.062,0.006 0.099,0.017 0.04,0.008 0.059,0.026 0.02,0.014 0.025,0.036 0.006,0.02 0.006,0.046 0,0.065 -0.037,0.096 -0.036,0.028 -0.15,0.036 -0.056,0.006 -0.166,0.008 h -0.22 q -0.113,0 -0.203,0.003 H 9.338 q -0.073,0.003 -0.104,0.034 -0.03,0.028 -0.03,0.138 l 0.004,0.125 q 0.006,0.096 0.006,0.27 h 0.234 q 0.15,0 0.243,0.007 0.096,0.003 0.146,0.016 0.054,0.015 0.074,0.046 0.02,0.03 0.02,0.081 0,0.026 -0.006,0.048 -0.003,0.02 -0.023,0.037 -0.02,0.014 -0.056,0.026 -0.037,0.008 -0.104,0.014 -0.082,0.006 -0.156,0.008 H 9.208 v 0.343 l 0.006,0.097 q 0.003,0.045 0.01,0.076 0.012,0.031 0.038,0.05 0.028,0.02 0.079,0.029 0.053,0.008 0.14,0.008 h 0.608 q 0.098,0 0.124,0.037 0.025,0.036 0.025,0.099 0,0.05 -0.022,0.079 -0.023,0.025 -0.11,0.036 -0.085,0.014 -0.257,0.017 -0.17,0.003 -0.47,0.003 -0.126,0 -0.208,-0.022 Q 9.09,82.134 9.039,82.08 8.988,82.027 8.963,81.942 8.94,81.855 8.932,81.73 Z m 2.657,-1.287 q -0.08,0.007 -0.17,0.009 l -0.194,0.006 0.006,0.143 0.005,0.133 q 0.003,0.068 0.003,0.141 0.003,0.074 0.003,0.164 v 0.245 q 0,0.116 -0.003,0.235 l -0.006,0.234 q -0.002,0.118 -0.008,0.245 -0.003,0.068 -0.014,0.105 -0.01,0.037 -0.026,0.056 -0.017,0.02 -0.04,0.023 -0.022,0.006 -0.05,0.006 -0.05,0 -0.087,-0.034 -0.034,-0.037 -0.04,-0.152 -0.006,-0.102 -0.008,-0.215 0,-0.113 -0.003,-0.243 -0.003,-0.13 -0.003,-0.279 v -0.606 q 0.003,-0.116 0.008,-0.201 h -0.115 q -0.12,0 -0.203,-0.003 -0.082,-0.003 -0.136,-0.014 -0.054,-0.014 -0.08,-0.043 -0.022,-0.028 -0.022,-0.079 0,-0.025 0.006,-0.045 0.006,-0.022 0.025,-0.04 0.02,-0.019 0.054,-0.03 0.037,-0.012 0.093,-0.017 l 0.096,-0.006 0.085,-0.006 q 0.042,-0.003 0.087,-0.003 h 0.105 q 0.166,0 0.313,0.003 0.15,0.003 0.316,0.011 0.068,0.006 0.105,0.017 0.036,0.008 0.056,0.025 0.02,0.017 0.023,0.04 0.005,0.022 0.005,0.05 0,0.051 -0.037,0.085 -0.033,0.034 -0.15,0.04 z"
       word-spacing="0"
       letter-spacing="0"
       font-size="2.822"
       font-weight="400"
       aria-label="RESET"
       id="path44"
       inkscape:connector-curvature="0" />
  </g>
  <g
     style="line-height:1.25;stroke-width:0.78125"
     id="g50"
     transform="matrix(1.28,0,0,1.28,0,-0.09601669)">
    <path
       style="font-weight:400;font-size:2.82200003px;font-family:Sniglet;-inkscape-font-specification:'Sniglet, Normal';font-variant-ligatures:normal;font-variant-caps:normal;font-variant-numeric:normal;font-feature-settings:normal;text-align:start;letter-spacing:0;word-spacing:0;fill:#c8c8c8;stroke-width:0.78125"
       d="m 18.015,81.484 -0.082,0.006 h -0.178 q -0.048,0 -0.107,-0.006 v 0.573 q 0,0.09 -0.045,0.113 -0.043,0.02 -0.107,0.02 -0.034,0 -0.054,-0.006 -0.02,-0.003 -0.034,-0.014 -0.01,-0.014 -0.02,-0.04 -0.005,-0.025 -0.008,-0.07 -0.006,-0.051 -0.009,-0.147 l -0.005,-0.254 q 0,-0.155 -0.003,-0.376 v -0.522 q 0,-0.115 0.028,-0.223 0.028,-0.11 0.102,-0.191 0.073,-0.085 0.197,-0.136 0.127,-0.05 0.322,-0.05 0.138,0 0.268,0.03 0.133,0.031 0.234,0.108 0.102,0.076 0.164,0.206 0.062,0.13 0.062,0.324 0,0.26 -0.113,0.404 -0.11,0.14 -0.305,0.2 l 0.38,0.52 q 0.05,0.067 0.05,0.138 0,0.056 -0.04,0.087 -0.037,0.034 -0.093,0.034 -0.062,0 -0.107,-0.034 -0.046,-0.037 -0.085,-0.093 z m 0.443,-0.657 q 0,-0.195 -0.119,-0.288 -0.115,-0.096 -0.37,-0.096 -0.092,0 -0.155,0.017 -0.062,0.014 -0.098,0.056 -0.037,0.042 -0.054,0.119 -0.014,0.073 -0.014,0.189 v 0.192 q 0,0.11 0.003,0.2 0.065,0.003 0.144,0.003 h 0.152 q 0.08,0 0.167,-0.008 0.09,-0.011 0.166,-0.05 0.076,-0.043 0.127,-0.12 0.05,-0.078 0.05,-0.214 z m 1.211,1.399 q -0.322,0 -0.47,-0.175 -0.06,-0.067 -0.103,-0.172 -0.04,-0.107 -0.065,-0.276 -0.022,-0.17 -0.034,-0.418 -0.008,-0.251 -0.008,-0.61 0,-0.115 0.006,-0.189 0.005,-0.076 0.022,-0.118 0.017,-0.045 0.042,-0.062 0.03,-0.017 0.071,-0.017 0.082,0 0.116,0.073 0.034,0.074 0.034,0.254 0,0.062 -0.003,0.11 v 0.1 q 0,0.047 -0.003,0.106 v 0.144 q 0,0.282 0.017,0.469 0.02,0.186 0.065,0.299 0.045,0.11 0.121,0.155 0.08,0.045 0.195,0.045 0.121,0 0.2,-0.048 0.082,-0.05 0.13,-0.166 0.048,-0.119 0.068,-0.313 0.022,-0.195 0.022,-0.486 0,-0.127 -0.002,-0.217 V 80.55 q 0,-0.104 0.005,-0.175 0.01,-0.07 0.023,-0.11 0.017,-0.042 0.045,-0.06 0.028,-0.016 0.07,-0.016 0.043,0 0.071,0.017 0.028,0.017 0.045,0.06 0.017,0.041 0.023,0.118 0.005,0.073 0.005,0.192 0,0.496 -0.03,0.818 -0.032,0.319 -0.11,0.505 -0.08,0.184 -0.218,0.257 -0.135,0.07 -0.35,0.07 z m 2.163,-0.18 Q 21.742,81.922 21.66,81.8 l -0.172,-0.27 q -0.09,-0.147 -0.21,-0.325 -0.115,-0.18 -0.279,-0.42 v 0.38 q 0,0.167 -0.002,0.31 l -0.006,0.272 q -0.003,0.127 -0.009,0.254 -0.002,0.067 -0.014,0.104 -0.008,0.037 -0.025,0.056 -0.017,0.02 -0.04,0.023 -0.02,0.006 -0.048,0.006 -0.05,0 -0.084,-0.034 -0.034,-0.037 -0.04,-0.152 -0.014,-0.31 -0.017,-0.621 v -0.646 q 0,-0.19 0.003,-0.297 0.006,-0.107 0.02,-0.16 0.017,-0.054 0.042,-0.068 0.028,-0.014 0.074,-0.014 0.045,0 0.118,0.07 0.074,0.068 0.161,0.18 0.087,0.114 0.186,0.26 0.102,0.147 0.2,0.302 0.1,0.156 0.19,0.308 l 0.17,0.277 q -0.004,-0.133 -0.004,-0.291 v -0.356 q 0,-0.223 0.003,-0.367 0.003,-0.146 0.014,-0.231 0.014,-0.085 0.043,-0.119 0.028,-0.033 0.08,-0.033 0.047,0 0.083,0.03 0.037,0.032 0.043,0.144 l 0.008,0.181 0.006,0.158 q 0.002,0.076 0.002,0.161 v 0.429 q 0,0.116 -0.002,0.229 l -0.006,0.228 -0.008,0.243 q -0.003,0.068 -0.015,0.104 -0.008,0.037 -0.025,0.057 -0.017,0.02 -0.04,0.022 -0.02,0.006 -0.047,0.006 -0.048,0 -0.082,-0.028 -0.034,-0.028 -0.1,-0.116 z"
       word-spacing="0"
       letter-spacing="0"
       font-size="2.822"
       font-weight="400"
       aria-label="RUN"
       id="path48"
       inkscape:connector-curvature="0" />
  </g>
  <g
     style="line-height:1.25;stroke-width:0.78125"
     id="g54"
     transform="matrix(1.28,0,0,1.28,0,1.2586674)">
    <path
       style="font-weight:400;font-size:2.82200003px;font-family:Sniglet;-inkscape-font-specification:'Sniglet, Normal';font-variant-ligatures:normal;font-variant-caps:normal;font-variant-numeric:normal;font-feature-settings:normal;text-align:start;letter-spacing:0;word-spacing:0;fill:#c8c8c8;stroke-width:0.78125"
       d="m 30.483,31.564 q 0.093,0 0.186,0.017 0.096,0.014 0.172,0.048 0.076,0.03 0.124,0.08 0.05,0.044 0.05,0.106 0,0.065 -0.033,0.1 -0.033,0.033 -0.084,0.033 -0.048,0 -0.085,-0.014 l -0.085,-0.037 q -0.045,-0.02 -0.11,-0.034 -0.065,-0.017 -0.172,-0.017 -0.107,0 -0.206,0.057 -0.096,0.054 -0.17,0.152 -0.07,0.096 -0.112,0.229 -0.042,0.133 -0.042,0.288 0,0.192 0.048,0.33 0.05,0.138 0.13,0.229 0.078,0.087 0.177,0.132 0.102,0.043 0.203,0.043 0.122,0 0.204,-0.026 0.08,-0.025 0.138,-0.056 0.06,-0.031 0.1,-0.057 0.044,-0.025 0.083,-0.025 0.048,0 0.077,0.028 0.028,0.026 0.028,0.093 0,0.057 -0.045,0.116 -0.043,0.056 -0.127,0.104 -0.082,0.046 -0.198,0.077 -0.116,0.028 -0.26,0.028 -0.158,0 -0.316,-0.062 -0.155,-0.062 -0.28,-0.184 -0.12,-0.124 -0.197,-0.307 -0.076,-0.187 -0.076,-0.432 0,-0.246 0.068,-0.438 0.07,-0.192 0.189,-0.324 0.12,-0.136 0.28,-0.206 0.16,-0.07 0.34,-0.07 z m 1.153,1.21 v 0.162 q 0,0.067 -0.003,0.13 0,0.062 -0.003,0.124 l -0.005,0.138 0.305,-0.037 0.172,-0.022 0.099,-0.012 q 0.036,-0.003 0.084,-0.003 0.124,0 0.124,0.122 0,0.048 -0.05,0.082 -0.048,0.034 -0.125,0.059 -0.073,0.023 -0.166,0.04 -0.09,0.014 -0.178,0.02 -0.085,0.007 -0.155,0.01 -0.068,0.004 -0.096,0.004 -0.102,0 -0.158,-0.015 -0.057,-0.01 -0.085,-0.073 -0.028,-0.065 -0.036,-0.195 -0.006,-0.13 -0.006,-0.367 v -0.406 q 0,-0.178 0.003,-0.32 0.003,-0.14 0.003,-0.25 0.002,-0.11 0.008,-0.2 0.006,-0.116 0.04,-0.15 0.033,-0.037 0.084,-0.037 0.028,0 0.048,0.006 0.023,0.003 0.04,0.023 0.017,0.02 0.025,0.056 0.01,0.037 0.014,0.105 0.012,0.248 0.014,0.49 0.003,0.243 0.003,0.517 z m 1.01,0.613 q -0.005,-0.101 -0.008,-0.211 0,-0.11 -0.003,-0.237 -0.002,-0.127 -0.002,-0.274 v -0.333 q 0,-0.2 0.002,-0.342 0.003,-0.144 0.015,-0.234 0.014,-0.09 0.042,-0.133 0.028,-0.042 0.079,-0.042 0.048,0 0.085,0.03 0.036,0.032 0.042,0.145 0.006,0.102 0.008,0.18 l 0.006,0.159 q 0.003,0.076 0.003,0.16 v 0.335 l 0.604,-0.692 q 0.118,-0.135 0.183,-0.178 0.065,-0.045 0.113,-0.045 0.057,0 0.082,0.028 0.028,0.029 0.028,0.07 0,0.018 -0.005,0.035 -0.006,0.017 -0.026,0.048 -0.017,0.028 -0.053,0.073 -0.037,0.043 -0.1,0.11 l -0.392,0.426 0.619,0.88 q 0.022,0.032 0.033,0.066 0.015,0.034 0.015,0.065 0,0.053 -0.032,0.087 -0.028,0.037 -0.101,0.037 -0.06,0 -0.107,-0.034 -0.046,-0.031 -0.085,-0.093 l -0.536,-0.793 -0.243,0.265 -0.006,0.215 q -0.002,0.107 -0.008,0.226 -0.003,0.067 -0.014,0.104 -0.01,0.037 -0.026,0.056 -0.017,0.02 -0.04,0.023 -0.02,0.006 -0.047,0.006 -0.05,0 -0.085,-0.034 -0.034,-0.037 -0.04,-0.152 z"
       word-spacing="0"
       letter-spacing="0"
       font-size="2.822"
       font-weight="400"
       aria-label="CLK"
       id="path52"
       inkscape:connector-curvature="0" />
  </g>
  <g
     style="line-height:1.25;stroke-width:0.78125"
     id="g58"
     transform="matrix(1.28,0,0,1.28,0,-0.09601669)">
    <path
       style="font-weight:400;font-size:2.82200003px;font-family:Sniglet;-inkscape-font-specification:'Sniglet, Normal';font-variant-ligatures:normal;font-variant-caps:normal;font-variant-numeric:normal;font-feature-settings:normal;text-align:start;letter-spacing:0;word-spacing:0;fill:#c8c8c8;stroke-width:0.78125"
       d="m 29.688,10.97 q -0.158,0 -0.254,-0.024 -0.096,-0.026 -0.15,-0.07 -0.05,-0.05 -0.07,-0.116 -0.017,-0.068 -0.026,-0.153 -0.008,-0.1 -0.014,-0.26 -0.002,-0.163 -0.002,-0.338 V 9.83 L 29.174,9.644 29.18,9.472 q 0.003,-0.08 0.008,-0.136 0.009,-0.087 0.029,-0.158 0.02,-0.07 0.073,-0.121 0.057,-0.051 0.155,-0.076 0.102,-0.03 0.268,-0.03 0.379,0 0.565,0.143 0.189,0.138 0.189,0.395 0,0.132 -0.06,0.245 -0.056,0.113 -0.197,0.17 0.08,0.014 0.144,0.059 0.065,0.045 0.11,0.11 0.048,0.062 0.07,0.14 0.026,0.077 0.026,0.156 0,0.102 -0.042,0.21 -0.043,0.103 -0.144,0.19 -0.102,0.088 -0.271,0.145 -0.167,0.056 -0.415,0.056 z m 0.59,-0.61 q 0,-0.1 -0.048,-0.162 -0.045,-0.062 -0.12,-0.093 -0.072,-0.034 -0.162,-0.045 -0.09,-0.012 -0.181,-0.012 H 29.62 q -0.076,0 -0.14,0.003 -0.004,0.06 -0.006,0.122 l -0.006,0.118 v 0.153 q 0,0.076 0.01,0.127 0.013,0.05 0.044,0.08 0.03,0.032 0.087,0.047 0.06,0.01 0.15,0.01 0.248,0 0.383,-0.087 0.136,-0.087 0.136,-0.26 z M 29.756,9.22 q -0.093,0 -0.153,0.018 -0.056,0.014 -0.087,0.04 -0.028,0.025 -0.04,0.062 -0.008,0.037 -0.008,0.079 v 0.395 q 0.04,0.003 0.082,0.003 h 0.084 q 0.102,0 0.198,-0.014 0.099,-0.014 0.178,-0.048 0.079,-0.034 0.127,-0.093 0.048,-0.06 0.048,-0.153 0,-0.127 -0.105,-0.206 -0.101,-0.081 -0.324,-0.081 z m 1.34,1.573 q 0,0.068 -0.014,0.105 -0.011,0.037 -0.03,0.056 -0.018,0.02 -0.043,0.023 -0.023,0.006 -0.045,0.006 -0.076,0 -0.102,-0.034 -0.022,-0.034 -0.03,-0.152 -0.006,-0.063 -0.01,-0.181 l -0.005,-0.282 q 0,-0.164 -0.003,-0.362 V 9.555 q 0,-0.105 0.026,-0.212 0.025,-0.107 0.096,-0.195 0.073,-0.087 0.2,-0.14 0.13,-0.054 0.336,-0.054 0.144,0 0.274,0.03 0.13,0.032 0.228,0.108 0.099,0.076 0.158,0.203 0.06,0.127 0.06,0.316 0,0.198 -0.065,0.328 -0.065,0.13 -0.184,0.206 -0.118,0.076 -0.282,0.107 -0.164,0.03 -0.36,0.03 h -0.094 q -0.048,0 -0.108,-0.005 z m 0.813,-1.188 q 0,-0.19 -0.107,-0.285 -0.104,-0.096 -0.35,-0.096 -0.093,0 -0.16,0.017 -0.066,0.014 -0.108,0.054 -0.042,0.036 -0.065,0.1 -0.02,0.066 -0.02,0.165 v 0.22 q 0,0.122 0.003,0.229 0.065,0.003 0.144,0.003 h 0.152 q 0.085,0 0.175,-0.012 0.093,-0.01 0.167,-0.05 0.073,-0.043 0.12,-0.122 0.049,-0.081 0.049,-0.223 z m 1.238,0.886 q -0.13,-0.285 -0.231,-0.55 -0.1,-0.268 -0.17,-0.477 -0.065,0.35 -0.11,0.706 -0.042,0.355 -0.11,0.68 -0.017,0.073 -0.062,0.099 -0.045,0.022 -0.076,0.022 -0.051,0 -0.082,-0.03 -0.028,-0.032 -0.028,-0.08 0,-0.065 0.014,-0.197 l 0.04,-0.305 q 0.025,-0.17 0.056,-0.356 0.03,-0.186 0.062,-0.358 l 0.062,-0.316 q 0.03,-0.141 0.054,-0.217 0.036,-0.13 0.15,-0.13 0.067,0 0.115,0.067 0.048,0.065 0.102,0.204 0.056,0.135 0.132,0.344 0.08,0.209 0.203,0.49 Q 33.39,9.806 33.463,9.6 33.539,9.39 33.59,9.255 33.644,9.117 33.692,9.052 33.74,8.985 33.81,8.985 q 0.065,0 0.099,0.033 0.034,0.03 0.05,0.096 0.02,0.08 0.049,0.22 0.028,0.139 0.059,0.31 0.034,0.17 0.065,0.357 l 0.056,0.355 q 0.026,0.17 0.04,0.308 0.017,0.135 0.017,0.209 0,0.045 -0.031,0.073 -0.031,0.025 -0.08,0.025 -0.03,0 -0.075,-0.022 -0.046,-0.026 -0.063,-0.1 -0.033,-0.16 -0.062,-0.332 L 33.884,10.17 33.838,9.817 Q 33.816,9.639 33.79,9.464 q -0.036,0.113 -0.084,0.249 -0.048,0.135 -0.102,0.273 -0.053,0.136 -0.11,0.269 -0.056,0.132 -0.11,0.24 -0.02,0.036 -0.054,0.056 -0.03,0.017 -0.064,0.017 -0.037,0 -0.071,-0.017 -0.031,-0.02 -0.048,-0.06 z"
       word-spacing="0"
       letter-spacing="0"
       font-size="2.822"
       font-weight="400"
       aria-label="BPM"
       id="path56"
       inkscape:connector-curvature="0" />
  </g>
  <g
     style="line-height:1.25;stroke-width:0.78125"
     id="g62"
     transform="matrix(1.28,0,0,1.28,0,-0.09601669)">
    <path
       style="font-weight:400;font-size:2.82200003px;font-family:Sniglet;-inkscape-font-specification:'Sniglet, Normal';font-variant-ligatures:normal;font-variant-caps:normal;font-variant-numeric:normal;font-feature-settings:normal;text-align:start;letter-spacing:0;word-spacing:0;fill:#c8c8c8;stroke-width:0.78125"
       d="m 29.69,82.197 q -0.158,0 -0.254,-0.025 -0.096,-0.025 -0.15,-0.07 -0.05,-0.048 -0.07,-0.116 -0.017,-0.068 -0.026,-0.153 -0.008,-0.098 -0.014,-0.26 -0.003,-0.163 -0.003,-0.338 v -0.178 q 0.003,-0.096 0.003,-0.186 l 0.006,-0.172 q 0.003,-0.08 0.008,-0.136 0.01,-0.087 0.028,-0.158 0.02,-0.07 0.074,-0.12 0.056,-0.052 0.155,-0.077 0.102,-0.028 0.268,-0.028 0.378,0 0.565,0.14 0.19,0.14 0.19,0.396 0,0.133 -0.06,0.245 -0.057,0.113 -0.198,0.17 0.08,0.014 0.144,0.06 0.065,0.044 0.11,0.11 0.048,0.061 0.07,0.14 0.026,0.076 0.026,0.155 0,0.102 -0.042,0.21 -0.043,0.104 -0.144,0.191 -0.102,0.088 -0.27,0.144 -0.168,0.057 -0.416,0.057 z m 0.59,-0.61 q 0,-0.1 -0.048,-0.163 -0.045,-0.062 -0.119,-0.093 -0.073,-0.034 -0.164,-0.045 -0.09,-0.011 -0.18,-0.011 h -0.147 q -0.076,0 -0.14,0.003 l -0.007,0.121 -0.005,0.119 v 0.152 q 0,0.076 0.011,0.127 0.011,0.05 0.042,0.082 0.031,0.03 0.088,0.045 0.06,0.011 0.15,0.011 0.248,0 0.383,-0.087 0.136,-0.088 0.136,-0.26 z m -0.522,-1.14 q -0.094,0 -0.153,0.018 -0.056,0.014 -0.087,0.04 -0.029,0.025 -0.04,0.061 -0.008,0.037 -0.008,0.08 v 0.394 q 0.04,0.003 0.081,0.003 h 0.085 q 0.102,0 0.198,-0.014 0.098,-0.014 0.178,-0.048 0.08,-0.034 0.127,-0.093 0.047,-0.06 0.047,-0.152 0,-0.127 -0.104,-0.206 -0.102,-0.082 -0.324,-0.082 z M 31.1,82.02 q 0,0.067 -0.015,0.104 -0.01,0.037 -0.03,0.057 -0.018,0.02 -0.043,0.022 -0.023,0.006 -0.045,0.006 -0.077,0 -0.102,-0.034 -0.023,-0.034 -0.03,-0.152 -0.007,-0.062 -0.01,-0.18 L 30.82,81.56 q 0,-0.164 -0.003,-0.361 v -0.418 q 0,-0.104 0.025,-0.212 0.026,-0.107 0.096,-0.194 0.074,-0.088 0.2,-0.141 0.13,-0.054 0.337,-0.054 0.144,0 0.273,0.03 0.13,0.032 0.23,0.108 0.098,0.076 0.157,0.203 0.06,0.127 0.06,0.316 0,0.198 -0.066,0.328 -0.065,0.13 -0.183,0.206 -0.119,0.076 -0.282,0.107 -0.164,0.031 -0.359,0.031 h -0.096 q -0.048,0 -0.107,-0.006 z m 0.812,-1.188 q 0,-0.19 -0.107,-0.286 -0.105,-0.096 -0.35,-0.096 -0.093,0 -0.16,0.017 -0.066,0.014 -0.108,0.054 -0.043,0.037 -0.065,0.102 -0.02,0.064 -0.02,0.163 v 0.22 q 0,0.122 0.003,0.229 0.065,0.003 0.144,0.003 h 0.152 q 0.085,0 0.175,-0.011 0.093,-0.012 0.167,-0.051 0.073,-0.042 0.121,-0.121 0.048,-0.082 0.048,-0.223 z m 1.238,0.886 q -0.13,-0.285 -0.232,-0.55 -0.098,-0.269 -0.169,-0.478 -0.065,0.35 -0.11,0.706 -0.042,0.356 -0.11,0.68 -0.017,0.074 -0.062,0.099 -0.045,0.023 -0.076,0.023 -0.05,0 -0.082,-0.031 -0.028,-0.031 -0.028,-0.08 0,-0.064 0.014,-0.197 l 0.04,-0.305 q 0.025,-0.17 0.056,-0.355 0.03,-0.187 0.062,-0.359 l 0.062,-0.316 q 0.03,-0.141 0.053,-0.217 0.037,-0.13 0.15,-0.13 0.068,0 0.116,0.068 0.048,0.065 0.101,0.203 0.057,0.135 0.133,0.344 0.08,0.209 0.203,0.491 0.122,-0.282 0.195,-0.488 0.076,-0.209 0.127,-0.344 0.054,-0.139 0.101,-0.204 0.048,-0.067 0.12,-0.067 0.064,0 0.098,0.034 0.034,0.03 0.05,0.096 0.02,0.079 0.05,0.22 0.027,0.138 0.058,0.31 0.034,0.17 0.065,0.356 l 0.056,0.355 q 0.026,0.17 0.04,0.308 0.017,0.136 0.017,0.209 0,0.045 -0.03,0.073 -0.032,0.026 -0.08,0.026 -0.03,0 -0.077,-0.023 -0.045,-0.025 -0.062,-0.099 -0.034,-0.16 -0.062,-0.333 l -0.05,-0.347 -0.046,-0.353 q -0.022,-0.177 -0.048,-0.352 -0.036,0.112 -0.084,0.248 -0.048,0.135 -0.102,0.274 -0.054,0.135 -0.11,0.268 -0.057,0.132 -0.11,0.24 -0.02,0.036 -0.054,0.056 -0.03,0.017 -0.065,0.017 -0.036,0 -0.07,-0.017 -0.03,-0.02 -0.048,-0.06 z"
       word-spacing="0"
       letter-spacing="0"
       font-size="2.822"
       font-weight="400"
       aria-label="BPM"
       id="path60"
       inkscape:connector-curvature="0" />
  </g>
  <g
     style="line-height:1.25;stroke-width:0.78125"
     id="g66"
     transform="matrix(1.28,0,0,1.28,0,-0.09601669)">
    <path
       style="font-weight:400;font-size:2.82200003px;font-family:Sniglet;-inkscape-font-specification:'Sniglet, Normal';font-variant-ligatures:normal;font-variant-caps:normal;font-variant-numeric:normal;font-feature-settings:normal;text-align:start;letter-spacing:0;word-spacing:0;fill:#c8c8c8;stroke-width:0.78125"
       d="m 5.957,67.969 q 0.093,0 0.186,0.016 0.096,0.015 0.172,0.048 0.076,0.03 0.124,0.08 0.051,0.045 0.051,0.107 0,0.065 -0.034,0.098 -0.034,0.034 -0.084,0.034 -0.048,0 -0.085,-0.014 Q 6.25,68.321 6.202,68.302 6.157,68.282 6.092,68.268 6.027,68.251 5.92,68.251 q -0.107,0 -0.206,0.056 -0.096,0.054 -0.17,0.153 -0.07,0.096 -0.112,0.228 -0.043,0.133 -0.043,0.288 0,0.192 0.048,0.33 0.051,0.139 0.13,0.229 0.08,0.087 0.178,0.133 0.102,0.042 0.203,0.042 0.122,0 0.203,-0.026 0.082,-0.025 0.14,-0.056 0.058,-0.031 0.1,-0.056 0.043,-0.026 0.082,-0.026 0.048,0 0.076,0.028 0.03,0.026 0.03,0.094 0,0.056 -0.047,0.115 -0.042,0.057 -0.127,0.105 -0.08,0.045 -0.197,0.076 -0.116,0.028 -0.26,0.028 -0.158,0 -0.316,-0.062 -0.155,-0.062 -0.28,-0.184 -0.12,-0.124 -0.197,-0.307 -0.076,-0.186 -0.076,-0.432 0,-0.245 0.068,-0.437 0.07,-0.192 0.19,-0.325 0.12,-0.135 0.28,-0.206 0.16,-0.07 0.34,-0.07 z m 1.153,1.21 v 0.16 q 0,0.069 -0.003,0.13 0,0.063 -0.003,0.125 l -0.005,0.138 0.304,-0.036 0.173,-0.023 0.098,-0.011 q 0.037,-0.003 0.085,-0.003 0.124,0 0.124,0.12 0,0.049 -0.05,0.083 -0.049,0.034 -0.125,0.06 -0.073,0.022 -0.166,0.039 -0.09,0.014 -0.178,0.02 -0.085,0.008 -0.155,0.01 -0.068,0.004 -0.096,0.004 -0.102,0 -0.158,-0.014 Q 6.898,69.97 6.87,69.907 6.842,69.843 6.833,69.713 6.828,69.583 6.828,69.346 v -0.407 q 0,-0.177 0.003,-0.32 l 0.002,-0.25 q 0.003,-0.11 0.01,-0.2 0.004,-0.116 0.04,-0.15 0.032,-0.036 0.083,-0.036 0.028,0 0.048,0.006 0.023,0.003 0.04,0.022 0.016,0.02 0.025,0.057 0.011,0.036 0.014,0.104 0.011,0.248 0.014,0.49 0.003,0.244 0.003,0.518 z m 1.011,0.612 q -0.006,-0.1 -0.009,-0.211 0,-0.11 -0.003,-0.237 -0.003,-0.127 -0.003,-0.274 v -0.333 q 0,-0.2 0.003,-0.341 0.003,-0.144 0.014,-0.235 0.014,-0.09 0.043,-0.132 0.028,-0.042 0.08,-0.042 0.047,0 0.083,0.03 0.037,0.032 0.043,0.144 l 0.008,0.18 0.006,0.159 q 0.003,0.076 0.003,0.16 v 0.334 l 0.604,-0.691 q 0.118,-0.136 0.183,-0.178 0.065,-0.045 0.113,-0.045 0.056,0 0.082,0.028 0.028,0.028 0.028,0.07 0,0.017 -0.006,0.034 -0.005,0.017 -0.025,0.048 -0.017,0.028 -0.054,0.074 -0.036,0.042 -0.098,0.11 l -0.393,0.426 0.618,0.88 q 0.023,0.03 0.034,0.065 0.014,0.034 0.014,0.065 0,0.054 -0.03,0.088 -0.029,0.036 -0.102,0.036 -0.06,0 -0.108,-0.033 Q 9.204,69.939 9.165,69.876 L 8.629,69.083 8.386,69.349 8.38,69.563 8.372,69.789 q -0.003,0.068 -0.014,0.104 -0.009,0.037 -0.026,0.057 -0.017,0.02 -0.04,0.022 -0.019,0.006 -0.047,0.006 -0.05,0 -0.085,-0.034 -0.034,-0.036 -0.04,-0.152 z m 2.563,0 q -0.006,-0.1 -0.009,-0.211 L 10.673,69.343 Q 10.67,69.216 10.67,69.069 v -0.686 l -0.17,0.088 q -0.07,0.045 -0.112,0.054 -0.04,0.008 -0.088,0.008 -0.042,0 -0.076,-0.037 -0.03,-0.037 -0.03,-0.088 0,-0.05 0.033,-0.087 0.036,-0.04 0.084,-0.07 0.063,-0.043 0.133,-0.085 0.073,-0.043 0.141,-0.077 0.068,-0.036 0.124,-0.056 0.06,-0.023 0.1,-0.023 0.02,0 0.04,0.006 0.021,0.006 0.04,0.023 0.018,0.017 0.03,0.054 0.013,0.033 0.016,0.093 l 0.01,0.177 0.004,0.15 q 0.003,0.07 0.003,0.15 v 0.426 q 0,0.115 -0.003,0.228 l -0.005,0.229 q -0.003,0.116 -0.009,0.243 -0.003,0.067 -0.014,0.104 -0.008,0.037 -0.025,0.056 -0.017,0.02 -0.04,0.023 -0.02,0.006 -0.048,0.006 -0.05,0 -0.085,-0.034 -0.033,-0.037 -0.039,-0.152 z"
       word-spacing="0"
       letter-spacing="0"
       font-size="2.822"
       font-weight="400"
       aria-label="CLK 1"
       id="path64"
       inkscape:connector-curvature="0" />
  </g>
  <g
     style="line-height:1.25;stroke-width:0.78125"
     id="g70"
     transform="matrix(1.28,0,0,1.28,0,-0.09601669)">
    <path
       style="font-weight:400;font-size:2.82200003px;font-family:Sniglet;-inkscape-font-specification:'Sniglet, Normal';font-variant-ligatures:normal;font-variant-caps:normal;font-variant-numeric:normal;font-feature-settings:normal;text-align:start;letter-spacing:0;word-spacing:0;fill:#c8c8c8;stroke-width:0.78125"
       d="m 17.473,67.914 q 0.093,0 0.187,0.017 0.096,0.014 0.172,0.048 0.076,0.03 0.124,0.079 0.05,0.045 0.05,0.107 0,0.065 -0.033,0.099 -0.034,0.034 -0.085,0.034 -0.048,0 -0.085,-0.014 -0.036,-0.017 -0.084,-0.037 -0.045,-0.02 -0.11,-0.034 -0.065,-0.017 -0.172,-0.017 -0.108,0 -0.206,0.057 -0.096,0.053 -0.17,0.152 -0.07,0.096 -0.113,0.229 -0.042,0.132 -0.042,0.288 0,0.192 0.048,0.33 0.05,0.138 0.13,0.228 0.079,0.088 0.178,0.133 0.101,0.042 0.203,0.042 0.121,0 0.203,-0.025 0.082,-0.025 0.138,-0.056 0.06,-0.032 0.102,-0.057 0.042,-0.025 0.082,-0.025 0.048,0 0.076,0.028 0.028,0.025 0.028,0.093 0,0.056 -0.045,0.116 -0.042,0.056 -0.127,0.104 -0.082,0.045 -0.198,0.076 -0.115,0.028 -0.26,0.028 -0.157,0 -0.315,-0.062 -0.155,-0.062 -0.28,-0.183 -0.121,-0.124 -0.197,-0.308 -0.076,-0.186 -0.076,-0.431 0,-0.246 0.067,-0.438 0.07,-0.192 0.19,-0.324 0.12,-0.136 0.279,-0.207 0.16,-0.07 0.341,-0.07 z m 1.154,1.21 v 0.16 q 0,0.069 -0.003,0.13 0,0.064 -0.003,0.126 l -0.006,0.138 0.305,-0.037 0.172,-0.022 0.099,-0.012 q 0.037,-0.003 0.085,-0.003 0.124,0 0.124,0.122 0,0.048 -0.05,0.082 -0.049,0.033 -0.125,0.059 -0.073,0.022 -0.167,0.04 -0.09,0.013 -0.177,0.02 -0.085,0.007 -0.156,0.01 l -0.096,0.003 q -0.101,0 -0.158,-0.014 -0.056,-0.011 -0.084,-0.073 -0.029,-0.065 -0.037,-0.195 -0.006,-0.13 -0.006,-0.367 v -0.406 q 0,-0.178 0.003,-0.32 0.003,-0.14 0.003,-0.25 0.003,-0.11 0.008,-0.2 0.006,-0.116 0.04,-0.15 0.034,-0.037 0.085,-0.037 0.028,0 0.048,0.006 0.022,0.003 0.04,0.023 0.016,0.02 0.025,0.056 0.01,0.037 0.014,0.105 0.011,0.248 0.014,0.49 0.003,0.243 0.003,0.517 z m 1.01,0.613 q -0.005,-0.101 -0.008,-0.211 0,-0.11 -0.003,-0.237 -0.003,-0.127 -0.003,-0.274 v -0.333 q 0,-0.2 0.003,-0.342 0.003,-0.144 0.014,-0.234 0.014,-0.09 0.042,-0.133 0.029,-0.042 0.08,-0.042 0.047,0 0.084,0.03 0.037,0.032 0.042,0.145 l 0.009,0.18 0.005,0.159 q 0.003,0.076 0.003,0.16 v 0.335 l 0.604,-0.692 q 0.119,-0.135 0.184,-0.178 0.065,-0.045 0.113,-0.045 0.056,0 0.081,0.028 0.029,0.028 0.029,0.07 0,0.018 -0.006,0.035 -0.006,0.017 -0.025,0.048 -0.017,0.028 -0.054,0.073 l -0.099,0.11 -0.392,0.426 0.618,0.88 q 0.023,0.032 0.034,0.066 0.014,0.034 0.014,0.065 0,0.053 -0.031,0.087 -0.028,0.037 -0.102,0.037 -0.059,0 -0.107,-0.034 -0.045,-0.031 -0.085,-0.093 l -0.536,-0.793 -0.243,0.265 -0.005,0.215 q -0.003,0.107 -0.009,0.225 -0.002,0.068 -0.014,0.105 -0.008,0.037 -0.025,0.056 -0.017,0.02 -0.04,0.023 -0.02,0.006 -0.048,0.006 -0.05,0 -0.084,-0.034 -0.034,-0.037 -0.04,-0.152 z m 2.772,-1.53 q -0.101,0 -0.169,0.023 -0.068,0.02 -0.113,0.054 -0.045,0.034 -0.073,0.07 l -0.051,0.07 q -0.023,0.035 -0.05,0.057 -0.026,0.02 -0.066,0.02 -0.067,0 -0.096,-0.034 -0.025,-0.037 -0.025,-0.096 0,-0.124 0.093,-0.231 0.028,-0.034 0.076,-0.07 0.051,-0.04 0.119,-0.071 0.07,-0.031 0.16,-0.051 0.094,-0.023 0.21,-0.023 0.307,0 0.477,0.15 0.169,0.15 0.169,0.42 0,0.054 -0.011,0.119 -0.008,0.065 -0.037,0.135 -0.026,0.07 -0.074,0.147 -0.048,0.076 -0.127,0.155 -0.07,0.07 -0.15,0.13 -0.078,0.06 -0.163,0.119 l -0.178,0.127 q -0.09,0.065 -0.183,0.15 0.09,0.047 0.195,0.06 0.104,0.015 0.234,0.015 0.121,0 0.195,-0.006 0.073,-0.006 0.118,-0.014 l 0.07,-0.014 q 0.026,-0.006 0.054,-0.006 0.105,0 0.105,0.096 0,0.085 -0.07,0.13 -0.071,0.045 -0.17,0.068 -0.1,0.02 -0.204,0.022 -0.104,0.006 -0.172,0.006 -0.036,0 -0.104,-0.006 -0.065,-0.003 -0.141,-0.014 -0.076,-0.011 -0.155,-0.03 -0.077,-0.023 -0.142,-0.057 -0.062,-0.037 -0.101,-0.088 -0.04,-0.053 -0.04,-0.127 0,-0.098 0.07,-0.186 0.074,-0.09 0.182,-0.175 0.107,-0.087 0.23,-0.172 0.125,-0.087 0.232,-0.178 0.108,-0.093 0.178,-0.192 0.074,-0.1 0.074,-0.214 0,-0.144 -0.1,-0.215 -0.095,-0.073 -0.276,-0.073 z"
       word-spacing="0"
       letter-spacing="0"
       font-size="2.822"
       font-weight="400"
       aria-label="CLK 2"
       id="path68"
       inkscape:connector-curvature="0" />
  </g>
  <g
     style="line-height:1.25;stroke-width:0.78125"
     id="g74"
     transform="matrix(1.28,0,0,1.28,0,-0.09601669)">
    <path
       style="font-weight:400;font-size:2.82200003px;font-family:Sniglet;-inkscape-font-specification:'Sniglet, Normal';font-variant-ligatures:normal;font-variant-caps:normal;font-variant-numeric:normal;font-feature-settings:normal;text-align:start;letter-spacing:0;word-spacing:0;fill:#c8c8c8;stroke-width:0.78125"
       d="m 29.371,67.97 q 0.093,0 0.186,0.018 0.096,0.014 0.173,0.048 0.076,0.03 0.124,0.079 0.05,0.045 0.05,0.107 0,0.065 -0.033,0.099 -0.034,0.034 -0.085,0.034 -0.048,0 -0.085,-0.015 l -0.084,-0.036 q -0.046,-0.02 -0.11,-0.034 -0.065,-0.017 -0.173,-0.017 -0.107,0 -0.206,0.056 -0.096,0.054 -0.169,0.153 -0.07,0.096 -0.113,0.228 -0.042,0.133 -0.042,0.288 0,0.192 0.048,0.33 0.05,0.139 0.13,0.229 0.08,0.087 0.177,0.133 0.102,0.042 0.204,0.042 0.121,0 0.203,-0.025 0.082,-0.026 0.138,-0.057 0.06,-0.03 0.102,-0.056 0.042,-0.026 0.082,-0.026 0.048,0 0.076,0.029 0.028,0.025 0.028,0.093 0,0.056 -0.045,0.115 -0.043,0.057 -0.127,0.105 -0.082,0.045 -0.198,0.076 -0.115,0.028 -0.26,0.028 -0.157,0 -0.315,-0.062 -0.156,-0.062 -0.28,-0.183 -0.12,-0.125 -0.197,-0.308 -0.077,-0.186 -0.077,-0.432 0,-0.245 0.068,-0.437 0.07,-0.192 0.19,-0.325 0.12,-0.135 0.28,-0.206 0.16,-0.07 0.34,-0.07 z m 1.153,1.21 v 0.162 q 0,0.068 -0.003,0.13 l -0.002,0.124 -0.006,0.139 0.305,-0.037 0.172,-0.023 0.1,-0.011 q 0.035,-0.003 0.083,-0.003 0.125,0 0.125,0.12 0,0.049 -0.05,0.083 -0.049,0.034 -0.125,0.06 -0.074,0.022 -0.167,0.039 -0.09,0.014 -0.178,0.02 -0.084,0.008 -0.155,0.01 l -0.096,0.004 q -0.1,0 -0.158,-0.014 -0.056,-0.011 -0.085,-0.073 -0.028,-0.065 -0.036,-0.195 -0.006,-0.13 -0.006,-0.367 v -0.406 q 0,-0.178 0.003,-0.32 0.003,-0.14 0.003,-0.25 0.003,-0.11 0.008,-0.201 0.006,-0.116 0.04,-0.15 0.034,-0.036 0.084,-0.036 0.03,0 0.048,0.006 0.023,0.003 0.04,0.022 0.017,0.02 0.025,0.057 0.012,0.036 0.014,0.104 0.012,0.249 0.015,0.49 0.002,0.244 0.002,0.518 z m 1.011,0.614 q -0.006,-0.102 -0.009,-0.212 l -0.002,-0.237 q -0.003,-0.127 -0.003,-0.274 v -0.333 q 0,-0.2 0.003,-0.341 0.002,-0.144 0.014,-0.234 0.014,-0.09 0.042,-0.133 0.028,-0.042 0.08,-0.042 0.047,0 0.084,0.03 0.037,0.032 0.042,0.145 l 0.01,0.18 0.004,0.158 q 0.003,0.076 0.003,0.16 v 0.334 l 0.604,-0.691 q 0.12,-0.136 0.183,-0.178 0.065,-0.045 0.113,-0.045 0.057,0 0.082,0.028 0.028,0.028 0.028,0.07 0,0.017 -0.005,0.034 -0.006,0.017 -0.026,0.048 -0.017,0.028 -0.053,0.074 l -0.099,0.11 -0.392,0.426 0.618,0.88 q 0.022,0.03 0.034,0.065 0.014,0.034 0.014,0.065 0,0.054 -0.03,0.088 -0.03,0.036 -0.103,0.036 -0.06,0 -0.107,-0.033 -0.045,-0.031 -0.085,-0.094 l -0.536,-0.793 -0.243,0.266 -0.005,0.214 q -0.003,0.107 -0.009,0.226 -0.003,0.068 -0.014,0.104 -0.008,0.037 -0.025,0.057 -0.017,0.02 -0.04,0.022 -0.02,0.006 -0.048,0.006 -0.05,0 -0.085,-0.034 -0.033,-0.036 -0.039,-0.152 z m 2.371,-1.52 q -0.09,0 -0.132,-0.044 -0.042,-0.048 -0.042,-0.096 0,-0.05 0.047,-0.082 0.048,-0.034 0.127,-0.05 0.08,-0.02 0.181,-0.026 0.102,-0.008 0.206,-0.008 0.088,0 0.195,0.008 0.107,0.006 0.2,0.034 0.093,0.025 0.155,0.08 0.063,0.05 0.063,0.14 0,0.07 -0.054,0.147 -0.054,0.076 -0.124,0.144 -0.07,0.068 -0.14,0.12 l -0.1,0.075 q 0.3,0 0.434,0.15 0.136,0.149 0.136,0.428 0,0.175 -0.065,0.305 -0.062,0.13 -0.17,0.217 -0.104,0.085 -0.242,0.127 -0.135,0.043 -0.28,0.043 -0.118,0 -0.234,-0.02 -0.113,-0.02 -0.203,-0.068 -0.09,-0.05 -0.147,-0.132 -0.053,-0.085 -0.053,-0.21 0,-0.13 0.14,-0.13 0.043,0 0.066,0.024 0.025,0.02 0.042,0.05 0.02,0.029 0.04,0.065 0.02,0.037 0.056,0.068 0.04,0.028 0.102,0.05 0.065,0.02 0.17,0.02 0.081,0 0.16,-0.016 0.08,-0.02 0.141,-0.063 0.062,-0.042 0.1,-0.112 0.04,-0.074 0.04,-0.181 0,-0.21 -0.089,-0.296 -0.085,-0.088 -0.24,-0.088 -0.04,0 -0.073,0.014 -0.034,0.01 -0.068,0.028 l -0.07,0.029 q -0.037,0.01 -0.083,0.01 -0.045,0 -0.079,-0.04 -0.033,-0.041 -0.033,-0.106 0,-0.045 0.042,-0.104 0.045,-0.06 0.121,-0.136 0.08,-0.076 0.19,-0.166 0.11,-0.093 0.245,-0.2 h -0.068 l -0.076,0.002 h -0.347 q -0.102,-0.003 -0.186,-0.003 z"
       word-spacing="0"
       letter-spacing="0"
       font-size="2.822"
       font-weight="400"
       aria-label="CLK 3"
       id="path72"
       inkscape:connector-curvature="0" />
  </g>
  <path
     d="m 10.15936,81.995504 v 1.6448 M 40.64,25.194914 v 1.69216"
     id="path76"
     inkscape:connector-curvature="0"
     style="fill:none;stroke:#c8c8c8;stroke-width:0.132"
     sodipodi:nodetypes="cccc" />
  <g
     aria-label="CLKD"
     style="font-weight:400;font-size:4.2329998px;line-height:1.25;font-family:Sniglet;letter-spacing:0;word-spacing:0;fill:#c8c8c8;stroke-width:0.20703125"
     font-weight="400"
     font-size="4.233"
     letter-spacing="0"
     word-spacing="0"
     id="g80"
     transform="matrix(1.28,0,0,1.28,0,-0.09601669)">
    <path
       d="m 16.525,3.525 q 0.14,0 0.28,0.025 0.143,0.021 0.257,0.072 0.115,0.047 0.187,0.119 0.076,0.067 0.076,0.16 0,0.098 -0.051,0.149 Q 17.224,4.1 17.147,4.1 17.075,4.1 17.02,4.08 16.965,4.054 16.893,4.024 16.825,3.994 16.728,3.974 16.631,3.948 16.47,3.948 q -0.161,0 -0.31,0.085 -0.143,0.08 -0.253,0.228 -0.106,0.144 -0.17,0.343 -0.063,0.2 -0.063,0.432 0,0.288 0.072,0.495 0.076,0.208 0.195,0.343 0.118,0.132 0.266,0.2 0.153,0.063 0.305,0.063 0.182,0 0.305,-0.038 0.123,-0.038 0.207,-0.085 0.09,-0.047 0.153,-0.085 0.063,-0.038 0.122,-0.038 0.072,0 0.115,0.043 0.042,0.038 0.042,0.14 0,0.084 -0.068,0.173 -0.063,0.085 -0.19,0.156 Q 17.075,6.471 16.901,6.518 16.728,6.56 16.512,6.56 16.275,6.56 16.038,6.467 15.805,6.374 15.618,6.192 15.437,6.006 15.322,5.73 15.208,5.451 15.208,5.083 q 0,-0.369 0.102,-0.657 0.106,-0.287 0.283,-0.486 0.182,-0.204 0.42,-0.31 0.24,-0.105 0.512,-0.105 z m 1.729,1.815 v 0.242 q 0,0.102 -0.004,0.195 0,0.093 -0.004,0.186 L 18.238,6.171 Q 18.53,6.137 18.695,6.116 l 0.258,-0.034 q 0.097,-0.013 0.148,-0.017 0.055,-0.004 0.127,-0.004 0.186,0 0.186,0.182 0,0.072 -0.076,0.122 -0.072,0.051 -0.186,0.09 -0.11,0.033 -0.25,0.059 -0.135,0.02 -0.266,0.03 -0.127,0.012 -0.233,0.016 -0.102,0.004 -0.144,0.004 -0.153,0 -0.237,-0.02 Q 17.937,6.526 17.895,6.434 17.852,6.336 17.84,6.141 17.831,5.946 17.831,5.591 v -0.61 q 0,-0.267 0.004,-0.478 0.005,-0.212 0.005,-0.377 0.004,-0.165 0.012,-0.3 0.009,-0.174 0.06,-0.225 0.05,-0.055 0.127,-0.055 0.042,0 0.072,0.008 0.033,0.005 0.059,0.034 0.025,0.03 0.038,0.085 0.017,0.055 0.021,0.157 0.017,0.372 0.021,0.736 0.004,0.364 0.004,0.775 z m 1.516,0.92 q -0.008,-0.153 -0.012,-0.318 0,-0.165 -0.004,-0.356 -0.005,-0.19 -0.005,-0.41 v -0.5 q 0,-0.3 0.005,-0.512 0.004,-0.216 0.02,-0.351 0.022,-0.136 0.064,-0.2 0.043,-0.063 0.119,-0.063 0.072,0 0.127,0.047 0.055,0.046 0.063,0.216 0.009,0.152 0.013,0.27 l 0.009,0.238 q 0.004,0.114 0.004,0.241 v 0.5 l 0.906,-1.038 q 0.178,-0.203 0.275,-0.266 0.097,-0.068 0.17,-0.068 0.084,0 0.122,0.042 0.042,0.043 0.042,0.106 0,0.025 -0.008,0.05 -0.009,0.026 -0.038,0.073 -0.026,0.042 -0.08,0.11 l -0.149,0.165 -0.588,0.64 0.927,1.32 q 0.034,0.047 0.05,0.097 0.022,0.051 0.022,0.098 0,0.08 -0.047,0.131 -0.042,0.055 -0.152,0.055 -0.09,0 -0.161,-0.05 Q 21.396,6.48 21.337,6.387 L 20.533,5.197 20.168,5.595 20.16,5.917 q -0.004,0.16 -0.013,0.338 -0.004,0.102 -0.02,0.157 -0.014,0.055 -0.039,0.085 -0.025,0.03 -0.06,0.033 -0.029,0.009 -0.071,0.009 -0.076,0 -0.127,-0.05 -0.051,-0.056 -0.06,-0.23 z m 3.262,-2.731 q 0.436,0 0.698,0.131 0.263,0.131 0.402,0.347 0.14,0.216 0.182,0.491 0.047,0.276 0.047,0.56 0,0.308 -0.08,0.583 -0.077,0.276 -0.242,0.483 -0.16,0.203 -0.415,0.326 -0.254,0.119 -0.605,0.119 -0.28,0 -0.449,-0.043 Q 22.405,6.488 22.312,6.408 22.223,6.328 22.193,6.205 22.163,6.082 22.163,5.917 V 4.325 q 0,-0.182 0.03,-0.33 0.034,-0.148 0.127,-0.25 0.093,-0.106 0.263,-0.16 0.173,-0.056 0.449,-0.056 z m 0.016,2.616 q 0.263,0 0.432,-0.093 0.174,-0.097 0.275,-0.254 0.102,-0.157 0.14,-0.356 0.042,-0.198 0.042,-0.406 0,-0.19 -0.03,-0.38 Q 23.878,4.46 23.785,4.304 23.692,4.147 23.518,4.05 23.345,3.952 23.057,3.952 q -0.263,0 -0.364,0.077 -0.102,0.076 -0.102,0.232 v 1.622 q 0,0.131 0.093,0.199 0.098,0.063 0.364,0.063 z"
       style="-inkscape-font-specification:'Sniglet, Normal';font-variant-ligatures:normal;font-variant-caps:normal;font-variant-numeric:normal;font-feature-settings:normal;text-align:start;stroke-width:0.20703125"
       id="path78"
       inkscape:connector-curvature="0" />
  </g>
  <path
     d="m 25.40032,81.995504 v 1.6448 M 40.64,81.930224 v 1.6448 M 25.40032,25.194914 v 1.69216 m -15.24096,-1.69216 v 1.69216"
     id="path82"
     inkscape:connector-curvature="0"
     style="fill:none;stroke:#c8c8c8;stroke-width:0.132"
     sodipodi:nodetypes="cccccccc" />
  <g
     aria-label="DISPLAY"
     style="font-weight:400;font-size:2.82200003px;line-height:1.25;font-family:Sniglet;letter-spacing:0;word-spacing:0;fill:#c8c8c8;stroke-width:0.20703125"
     font-weight="400"
     font-size="2.822"
     letter-spacing="0"
     word-spacing="0"
     id="g86"
     transform="matrix(1.28,0,0,1.28,0,1.2586674)">
    <path
       d="m 5.814,45.863 q 0.29,0 0.466,0.088 0.175,0.087 0.268,0.231 0.093,0.144 0.121,0.328 0.031,0.183 0.031,0.372 0,0.206 -0.054,0.39 -0.05,0.183 -0.16,0.321 -0.108,0.136 -0.277,0.218 -0.17,0.079 -0.404,0.079 -0.186,0 -0.299,-0.028 -0.11,-0.026 -0.172,-0.08 -0.06,-0.053 -0.079,-0.135 -0.02,-0.082 -0.02,-0.192 v -1.061 q 0,-0.121 0.02,-0.22 Q 5.278,46.075 5.34,46.007 5.402,45.937 5.515,45.9 5.63,45.863 5.814,45.863 Z m 0.011,1.745 q 0.175,0 0.288,-0.063 0.116,-0.064 0.184,-0.169 0.067,-0.104 0.093,-0.237 0.028,-0.133 0.028,-0.27 0,-0.128 -0.02,-0.255 Q 6.378,46.484 6.316,46.38 6.254,46.275 6.138,46.21 6.023,46.146 5.831,46.146 q -0.175,0 -0.243,0.05 -0.068,0.051 -0.068,0.156 v 1.08 q 0,0.088 0.062,0.133 0.065,0.043 0.243,0.043 z m 1.2,0.076 q -0.006,-0.102 -0.008,-0.212 0,-0.11 -0.003,-0.237 -0.003,-0.127 -0.003,-0.274 v -0.333 q 0,-0.2 0.003,-0.341 0.003,-0.144 0.017,-0.235 0.014,-0.09 0.042,-0.132 0.031,-0.043 0.082,-0.043 0.025,0 0.048,0.006 0.022,0.006 0.04,0.025 0.016,0.017 0.028,0.054 0.014,0.034 0.017,0.09 l 0.008,0.181 0.006,0.158 q 0.002,0.076 0.002,0.161 v 0.429 q 0,0.116 -0.002,0.229 l -0.006,0.228 -0.008,0.243 q -0.003,0.068 -0.015,0.104 -0.01,0.037 -0.028,0.057 -0.017,0.02 -0.04,0.022 -0.022,0.006 -0.05,0.006 -0.05,0 -0.088,-0.034 -0.036,-0.037 -0.042,-0.152 z m 1.291,-1.818 q 0.08,0 0.18,0.014 0.105,0.012 0.196,0.045 0.09,0.032 0.152,0.085 0.062,0.05 0.062,0.127 0,0.045 -0.025,0.076 -0.026,0.031 -0.082,0.031 -0.042,0 -0.088,-0.017 Q 8.669,46.211 8.613,46.194 8.559,46.174 8.486,46.157 8.415,46.14 8.319,46.14 q -0.186,0 -0.276,0.068 -0.088,0.065 -0.088,0.18 0,0.08 0.04,0.133 0.039,0.054 0.104,0.093 0.068,0.037 0.15,0.062 0.084,0.026 0.172,0.048 0.098,0.026 0.194,0.062 0.1,0.037 0.175,0.096 0.077,0.06 0.122,0.15 0.048,0.09 0.048,0.228 0,0.144 -0.054,0.26 -0.054,0.113 -0.147,0.195 -0.093,0.079 -0.223,0.124 -0.13,0.042 -0.282,0.042 -0.084,0 -0.197,-0.017 Q 7.944,47.85 7.842,47.814 7.741,47.774 7.67,47.712 7.6,47.647 7.6,47.554 q 0,-0.057 0.028,-0.09 0.03,-0.034 0.09,-0.034 0.048,0 0.079,0.02 0.031,0.016 0.054,0.039 0.084,0.073 0.192,0.099 0.107,0.025 0.22,0.025 0.065,0 0.135,-0.008 0.073,-0.012 0.133,-0.043 0.059,-0.03 0.099,-0.087 0.039,-0.06 0.039,-0.158 0,-0.09 -0.037,-0.147 Q 8.598,47.11 8.539,47.071 8.48,47.031 8.399,47.006 8.319,46.981 8.226,46.956 8.122,46.927 8.02,46.893 7.918,46.86 7.84,46.803 7.76,46.743 7.71,46.656 7.662,46.566 7.662,46.428 q 0,-0.138 0.05,-0.243 0.051,-0.104 0.139,-0.175 0.087,-0.07 0.206,-0.107 0.121,-0.037 0.26,-0.037 z m 1.236,1.814 q 0,0.069 -0.014,0.105 -0.01,0.037 -0.03,0.057 Q 9.49,47.862 9.465,47.864 9.442,47.87 9.42,47.87 9.344,47.87 9.318,47.836 9.296,47.802 9.288,47.684 9.282,47.622 9.278,47.504 L 9.273,47.221 q 0,-0.164 -0.003,-0.361 v -0.418 q 0,-0.105 0.026,-0.212 0.025,-0.107 0.096,-0.195 0.073,-0.087 0.2,-0.14 0.13,-0.054 0.336,-0.054 0.144,0 0.274,0.03 0.13,0.032 0.228,0.108 0.099,0.076 0.158,0.203 0.06,0.127 0.06,0.316 0,0.198 -0.065,0.328 -0.065,0.13 -0.184,0.206 -0.118,0.076 -0.282,0.107 Q 9.953,47.17 9.759,47.17 H 9.663 q -0.048,0 -0.108,-0.006 z m 0.813,-1.187 q 0,-0.19 -0.107,-0.285 -0.104,-0.096 -0.35,-0.096 -0.093,0 -0.16,0.017 -0.066,0.014 -0.108,0.053 -0.042,0.037 -0.065,0.102 -0.02,0.065 -0.02,0.164 v 0.22 q 0,0.121 0.003,0.228 0.065,0.003 0.144,0.003 h 0.152 q 0.085,0 0.175,-0.011 0.094,-0.011 0.167,-0.051 0.073,-0.042 0.121,-0.121 0.048,-0.082 0.048,-0.223 z m 0.792,0.578 v 0.161 q 0,0.068 -0.003,0.13 0,0.062 -0.003,0.124 l -0.006,0.138 q 0.195,-0.022 0.305,-0.036 l 0.172,-0.023 0.099,-0.011 q 0.037,-0.003 0.085,-0.003 0.124,0 0.124,0.121 0,0.048 -0.051,0.082 -0.048,0.034 -0.124,0.06 -0.074,0.022 -0.167,0.04 -0.09,0.013 -0.177,0.019 -0.085,0.008 -0.156,0.011 l -0.096,0.003 q -0.101,0 -0.158,-0.014 -0.056,-0.011 -0.084,-0.074 -0.029,-0.064 -0.037,-0.194 -0.006,-0.13 -0.006,-0.367 v -0.407 q 0,-0.177 0.003,-0.319 0.003,-0.14 0.003,-0.25 0.003,-0.11 0.008,-0.201 0.006,-0.116 0.04,-0.15 0.034,-0.036 0.085,-0.036 0.028,0 0.048,0.005 0.022,0.003 0.04,0.023 0.016,0.02 0.025,0.056 0.01,0.037 0.014,0.105 0.01,0.248 0.014,0.49 0.003,0.243 0.003,0.517 z m 2.179,0.644 Q 13.307,47.647 13.274,47.56 13.243,47.47 13.206,47.37 l -0.178,0.006 h -0.41 q -0.098,0 -0.18,-0.003 l -0.065,0.187 q -0.03,0.087 -0.059,0.155 -0.056,0.144 -0.164,0.144 -0.04,0 -0.076,-0.026 -0.034,-0.025 -0.034,-0.073 0,-0.048 0.017,-0.124 0.017,-0.08 0.043,-0.167 l 0.059,-0.183 q 0.03,-0.096 0.06,-0.178 0.027,-0.09 0.078,-0.229 l 0.113,-0.293 0.118,-0.3 q 0.06,-0.149 0.108,-0.259 0.011,-0.028 0.028,-0.062 0.017,-0.037 0.04,-0.068 0.025,-0.03 0.053,-0.053 0.031,-0.023 0.068,-0.023 0.037,0 0.068,0.025 0.03,0.023 0.053,0.057 0.026,0.034 0.042,0.07 0.02,0.037 0.032,0.065 0.045,0.113 0.101,0.26 0.06,0.147 0.116,0.296 0.06,0.15 0.11,0.285 0.05,0.136 0.082,0.229 0.025,0.082 0.056,0.175 0.034,0.093 0.062,0.183 0.029,0.09 0.045,0.17 0.02,0.076 0.02,0.124 0,0.048 -0.036,0.073 -0.034,0.026 -0.074,0.026 -0.05,0 -0.093,-0.034 -0.042,-0.037 -0.073,-0.11 z m -0.5,-0.621 q 0.068,0 0.136,0.003 l 0.135,0.002 -0.068,-0.197 -0.065,-0.19 -0.053,-0.166 -0.04,-0.138 q -0.011,-0.037 -0.025,-0.06 -0.014,-0.022 -0.037,-0.022 -0.022,0 -0.036,0.026 -0.015,0.022 -0.026,0.059 -0.034,0.116 -0.096,0.302 l -0.127,0.386 q 0.076,-0.002 0.153,-0.002 0.076,-0.003 0.15,-0.003 z m 1.344,0.59 -0.011,-0.33 q -0.003,-0.178 -0.003,-0.41 L 13.604,46.14 q -0.022,-0.031 -0.037,-0.065 -0.01,-0.034 -0.01,-0.065 0,-0.053 0.027,-0.087 0.031,-0.037 0.105,-0.037 0.059,0 0.104,0.034 0.048,0.03 0.088,0.093 l 0.42,0.669 0.42,-0.669 q 0.04,-0.062 0.085,-0.093 0.048,-0.034 0.108,-0.034 0.073,0 0.101,0.037 0.031,0.034 0.031,0.087 0,0.031 -0.014,0.065 -0.011,0.034 -0.034,0.065 l -0.55,0.787 q 0,0.192 -0.006,0.37 -0.002,0.175 -0.011,0.384 -0.003,0.068 -0.014,0.104 -0.009,0.037 -0.025,0.057 -0.017,0.02 -0.04,0.022 -0.02,0.006 -0.048,0.006 -0.05,0 -0.085,-0.034 -0.033,-0.037 -0.04,-0.152 z"
       style="-inkscape-font-specification:'Sniglet, Normal';font-variant-ligatures:normal;font-variant-caps:normal;font-variant-numeric:normal;font-feature-settings:normal;text-align:start;stroke-width:0.20703125"
       id="path84"
       inkscape:connector-curvature="0" />
  </g>
  <g
     font-weight="400"
     font-size="2.822"
     letter-spacing="0"
     word-spacing="0"
     id="g90"
     transform="matrix(1.28,0,0,1.28,0,1.2586674)"
     style="font-weight:400;font-size:2.82200003px;font-family:Sniglet;letter-spacing:0;word-spacing:0;fill:#c8c8c8;stroke-width:0.78125">
    <path
       d="M 5.192,32.736 Q 5.034,32.736 4.938,32.71 4.842,32.685 4.788,32.64 4.738,32.592 4.718,32.524 4.701,32.456 4.693,32.372 4.684,32.273 4.678,32.112 4.676,31.948 4.676,31.773 v -0.177 l 0.002,-0.187 0.006,-0.172 q 0.003,-0.079 0.009,-0.135 0.008,-0.088 0.028,-0.158 0.02,-0.07 0.073,-0.122 0.057,-0.05 0.155,-0.076 0.102,-0.028 0.268,-0.028 0.379,0 0.565,0.141 0.189,0.138 0.189,0.395 0,0.133 -0.06,0.246 -0.056,0.113 -0.197,0.17 0.08,0.013 0.144,0.058 0.065,0.045 0.11,0.11 0.048,0.062 0.07,0.142 0.026,0.076 0.026,0.155 0,0.101 -0.042,0.209 -0.043,0.104 -0.144,0.191 -0.102,0.088 -0.271,0.144 -0.167,0.057 -0.415,0.057 z m 0.59,-0.61 q 0,-0.101 -0.048,-0.163 Q 5.689,31.9 5.615,31.869 5.542,31.836 5.452,31.824 5.362,31.813 5.272,31.813 H 5.124 q -0.076,0 -0.14,0.003 -0.004,0.06 -0.006,0.121 l -0.006,0.119 v 0.152 q 0,0.076 0.011,0.127 0.012,0.05 0.043,0.082 0.03,0.031 0.087,0.045 0.06,0.011 0.15,0.011 0.248,0 0.383,-0.087 0.136,-0.088 0.136,-0.26 z M 5.26,30.986 q -0.093,0 -0.153,0.017 -0.056,0.014 -0.087,0.04 -0.028,0.025 -0.04,0.062 -0.008,0.036 -0.008,0.079 v 0.395 q 0.04,0.003 0.082,0.003 h 0.084 q 0.102,0 0.198,-0.015 0.099,-0.014 0.178,-0.048 0.079,-0.033 0.127,-0.093 0.048,-0.059 0.048,-0.152 0,-0.127 -0.105,-0.206 Q 5.483,30.986 5.26,30.986 Z m 1.34,1.572 q 0,0.068 -0.014,0.104 -0.01,0.037 -0.03,0.057 -0.018,0.02 -0.043,0.023 -0.023,0.005 -0.045,0.005 -0.076,0 -0.102,-0.034 Q 6.344,32.679 6.336,32.561 6.33,32.499 6.326,32.381 L 6.321,32.098 q 0,-0.164 -0.003,-0.361 v -0.418 q 0,-0.104 0.026,-0.212 Q 6.369,31 6.44,30.913 q 0.073,-0.088 0.2,-0.141 0.13,-0.054 0.336,-0.054 0.144,0 0.274,0.031 0.13,0.031 0.228,0.107 0.099,0.076 0.158,0.203 0.06,0.127 0.06,0.316 0,0.198 -0.065,0.328 -0.065,0.13 -0.184,0.206 -0.118,0.076 -0.282,0.107 -0.164,0.031 -0.359,0.031 H 6.711 q -0.048,0 -0.108,-0.005 z M 7.413,31.37 q 0,-0.19 -0.107,-0.285 -0.104,-0.096 -0.35,-0.096 -0.093,0 -0.16,0.017 -0.066,0.014 -0.108,0.053 -0.042,0.037 -0.065,0.102 -0.02,0.065 -0.02,0.164 v 0.22 q 0,0.121 0.003,0.228 0.065,0.003 0.144,0.003 h 0.152 q 0.085,0 0.175,-0.011 0.094,-0.011 0.167,-0.05 0.073,-0.043 0.121,-0.122 0.048,-0.082 0.048,-0.223 z m 1.238,0.886 q -0.13,-0.285 -0.231,-0.55 -0.1,-0.268 -0.17,-0.477 -0.065,0.35 -0.11,0.705 -0.042,0.356 -0.11,0.68 -0.017,0.074 -0.062,0.1 -0.045,0.022 -0.076,0.022 -0.05,0 -0.082,-0.031 -0.028,-0.031 -0.028,-0.08 0,-0.064 0.014,-0.197 l 0.04,-0.305 q 0.025,-0.169 0.056,-0.355 0.03,-0.186 0.062,-0.359 l 0.062,-0.316 q 0.031,-0.14 0.054,-0.217 0.036,-0.13 0.15,-0.13 0.067,0 0.115,0.068 0.048,0.065 0.102,0.203 0.056,0.136 0.132,0.344 0.08,0.21 0.203,0.492 0.122,-0.283 0.195,-0.489 0.076,-0.209 0.127,-0.344 0.054,-0.138 0.102,-0.203 0.048,-0.068 0.118,-0.068 0.065,0 0.1,0.034 0.033,0.03 0.05,0.096 0.02,0.079 0.048,0.22 0.028,0.138 0.06,0.31 0.033,0.17 0.064,0.356 0.031,0.186 0.056,0.356 0.026,0.169 0.04,0.307 0.017,0.136 0.017,0.21 0,0.044 -0.031,0.072 -0.031,0.026 -0.08,0.026 -0.03,0 -0.075,-0.023 Q 9.517,32.688 9.501,32.615 9.467,32.454 9.438,32.282 L 9.388,31.934 9.343,31.582 Q 9.32,31.404 9.295,31.229 9.258,31.342 9.21,31.477 q -0.048,0.136 -0.102,0.274 -0.053,0.135 -0.11,0.268 -0.056,0.133 -0.11,0.24 -0.02,0.037 -0.053,0.056 -0.032,0.017 -0.065,0.017 -0.037,0 -0.071,-0.017 -0.031,-0.02 -0.048,-0.059 z m 1.611,0.308 0.08,-0.263 0.098,-0.327 0.119,-0.373 q 0.065,-0.194 0.13,-0.398 l 0.098,-0.299 q 0.046,-0.13 0.082,-0.211 0.04,-0.082 0.074,-0.122 0.036,-0.042 0.079,-0.042 0.042,0 0.076,0.028 0.037,0.028 0.037,0.088 0,0.02 -0.003,0.042 -0.003,0.023 -0.012,0.054 -0.132,0.468 -0.287,0.948 -0.156,0.477 -0.33,0.95 -0.034,0.091 -0.066,0.122 -0.03,0.031 -0.062,0.031 -0.05,0 -0.09,-0.028 -0.04,-0.028 -0.04,-0.093 0,-0.04 0.018,-0.107 z m 2.032,-0.522 -0.082,0.005 h -0.177 q -0.048,0 -0.108,-0.005 v 0.573 q 0,0.09 -0.045,0.112 -0.042,0.02 -0.107,0.02 -0.034,0 -0.054,-0.005 -0.02,-0.003 -0.033,-0.015 -0.012,-0.014 -0.02,-0.04 -0.006,-0.024 -0.009,-0.07 -0.005,-0.05 -0.008,-0.146 l -0.006,-0.254 q 0,-0.156 -0.003,-0.376 v -0.522 q 0,-0.116 0.029,-0.223 0.028,-0.11 0.101,-0.192 0.074,-0.084 0.198,-0.135 0.127,-0.051 0.321,-0.051 0.139,0 0.269,0.031 0.132,0.031 0.234,0.107 0.101,0.077 0.164,0.206 0.062,0.13 0.062,0.325 0,0.26 -0.113,0.403 -0.11,0.142 -0.305,0.2 l 0.378,0.52 q 0.05,0.068 0.05,0.138 0,0.057 -0.039,0.088 -0.036,0.034 -0.093,0.034 -0.062,0 -0.107,-0.034 -0.045,-0.037 -0.085,-0.093 z m 0.443,-0.658 q 0,-0.195 -0.118,-0.288 Q 12.503,31 12.249,31 q -0.093,0 -0.155,0.017 -0.062,0.014 -0.099,0.057 -0.037,0.042 -0.053,0.118 -0.015,0.073 -0.015,0.19 v 0.191 q 0,0.11 0.003,0.2 0.065,0.003 0.144,0.003 h 0.153 q 0.079,0 0.166,-0.008 0.09,-0.012 0.167,-0.051 0.076,-0.042 0.127,-0.119 0.05,-0.079 0.05,-0.214 z m 1.731,1.208 q -0.029,-0.068 -0.063,-0.155 -0.03,-0.09 -0.067,-0.19 l -0.178,0.006 h -0.41 q -0.098,0 -0.18,-0.003 l -0.065,0.187 q -0.03,0.087 -0.06,0.155 -0.056,0.144 -0.163,0.144 -0.04,0 -0.076,-0.026 -0.034,-0.025 -0.034,-0.073 0,-0.048 0.017,-0.124 0.017,-0.08 0.042,-0.167 l 0.06,-0.183 q 0.03,-0.096 0.059,-0.178 0.028,-0.09 0.079,-0.228 l 0.113,-0.294 0.118,-0.3 q 0.06,-0.149 0.108,-0.259 0.01,-0.028 0.028,-0.062 0.017,-0.037 0.04,-0.068 0.025,-0.03 0.053,-0.053 0.031,-0.023 0.068,-0.023 0.036,0 0.067,0.026 0.031,0.022 0.054,0.056 0.025,0.034 0.042,0.07 0.02,0.037 0.031,0.066 0.046,0.112 0.102,0.26 0.06,0.146 0.116,0.295 0.059,0.15 0.11,0.286 0.05,0.135 0.082,0.228 0.025,0.082 0.056,0.175 0.034,0.093 0.062,0.184 0.028,0.09 0.045,0.169 0.02,0.076 0.02,0.124 0,0.048 -0.037,0.073 -0.033,0.026 -0.073,0.026 -0.05,0 -0.093,-0.034 -0.042,-0.037 -0.073,-0.11 z m -0.5,-0.621 q 0.068,0 0.135,0.003 0.068,0 0.136,0.003 l -0.068,-0.198 -0.065,-0.189 -0.053,-0.167 -0.04,-0.138 q -0.011,-0.036 -0.025,-0.06 -0.014,-0.022 -0.037,-0.022 -0.023,0 -0.037,0.026 -0.014,0.022 -0.025,0.059 -0.034,0.116 -0.096,0.302 l -0.127,0.387 q 0.076,-0.003 0.152,-0.003 0.077,-0.003 0.15,-0.003 z m 1.876,-0.951 q -0.08,0.006 -0.17,0.008 l -0.194,0.006 0.005,0.144 0.006,0.133 q 0.003,0.067 0.003,0.14 0.002,0.074 0.002,0.164 v 0.246 l -0.002,0.234 -0.006,0.234 q -0.003,0.119 -0.009,0.246 -0.002,0.068 -0.014,0.104 -0.008,0.037 -0.025,0.057 -0.017,0.02 -0.04,0.022 -0.022,0.006 -0.05,0.006 -0.051,0 -0.088,-0.034 -0.034,-0.037 -0.04,-0.152 -0.005,-0.102 -0.008,-0.215 0,-0.113 -0.003,-0.242 -0.002,-0.13 -0.002,-0.28 v -0.336 -0.27 q 0.002,-0.116 0.008,-0.201 h -0.116 q -0.118,0 -0.203,-0.003 -0.082,-0.003 -0.135,-0.014 -0.054,-0.014 -0.08,-0.042 -0.022,-0.028 -0.022,-0.08 0,-0.025 0.006,-0.044 0.005,-0.023 0.025,-0.04 0.02,-0.02 0.054,-0.031 0.036,-0.011 0.093,-0.017 l 0.096,-0.005 0.084,-0.006 q 0.043,-0.003 0.088,-0.003 h 0.104 q 0.167,0 0.314,0.003 0.15,0.003 0.316,0.011 0.067,0.006 0.104,0.017 0.037,0.009 0.057,0.026 0.02,0.016 0.022,0.039 0.006,0.023 0.006,0.05 0,0.052 -0.037,0.086 -0.034,0.033 -0.15,0.039 z m 0.482,1.54 q -0.006,-0.1 -0.009,-0.21 l -0.002,-0.238 q -0.003,-0.127 -0.003,-0.274 v -0.333 q 0,-0.2 0.003,-0.341 0.002,-0.144 0.017,-0.234 0.014,-0.09 0.042,-0.133 0.031,-0.042 0.082,-0.042 0.025,0 0.048,0.005 0.022,0.006 0.04,0.026 0.016,0.017 0.027,0.053 0.015,0.034 0.017,0.09 l 0.009,0.181 0.006,0.158 q 0.002,0.076 0.002,0.161 v 0.429 q 0,0.116 -0.002,0.229 l -0.006,0.228 q -0.003,0.116 -0.009,0.243 -0.002,0.068 -0.014,0.104 -0.011,0.037 -0.028,0.057 -0.017,0.02 -0.04,0.022 -0.022,0.006 -0.05,0.006 -0.051,0 -0.088,-0.034 -0.036,-0.036 -0.042,-0.152 z m 1.403,0.204 q -0.17,0 -0.319,-0.068 -0.147,-0.067 -0.257,-0.194 -0.11,-0.13 -0.175,-0.316 -0.062,-0.187 -0.062,-0.424 0,-0.223 0.054,-0.409 0.056,-0.186 0.164,-0.322 0.11,-0.135 0.27,-0.209 0.161,-0.076 0.373,-0.076 0.172,0 0.327,0.062 0.156,0.062 0.271,0.187 0.119,0.124 0.187,0.31 0.067,0.186 0.067,0.435 0,0.206 -0.056,0.392 -0.054,0.186 -0.167,0.327 -0.11,0.139 -0.28,0.223 -0.168,0.082 -0.397,0.082 z m 0.006,-0.265 q 0.155,0 0.27,-0.062 0.116,-0.065 0.192,-0.17 0.077,-0.104 0.113,-0.24 0.037,-0.138 0.037,-0.282 0,-0.175 -0.048,-0.31 -0.045,-0.138 -0.124,-0.232 -0.08,-0.093 -0.184,-0.14 -0.104,-0.052 -0.223,-0.052 -0.14,0 -0.248,0.06 -0.104,0.059 -0.178,0.16 -0.07,0.102 -0.107,0.24 -0.037,0.136 -0.037,0.291 0,0.167 0.043,0.305 0.042,0.135 0.113,0.231 0.073,0.096 0.172,0.15 0.099,0.05 0.209,0.05 z"
       style="line-height:1.25;-inkscape-font-specification:'Sniglet, Normal';font-variant-ligatures:normal;font-variant-caps:normal;font-variant-numeric:normal;font-feature-settings:normal;text-align:start;stroke-width:0.78125"
       id="path88"
       inkscape:connector-curvature="0" />
  </g>
  <g
     style="line-height:1.25;stroke-width:0.78125"
     id="g94"
     transform="matrix(1.28,0,0,1.28,0,1.2586674)">
    <path
       d="m 26.867,47.379 q -0.13,-0.285 -0.23,-0.55 -0.1,-0.268 -0.17,-0.477 -0.066,0.35 -0.11,0.705 -0.043,0.356 -0.11,0.68 -0.018,0.074 -0.063,0.1 -0.045,0.022 -0.076,0.022 -0.05,0 -0.082,-0.031 -0.028,-0.031 -0.028,-0.08 0,-0.064 0.014,-0.197 l 0.04,-0.305 q 0.025,-0.17 0.056,-0.355 0.031,-0.186 0.062,-0.36 l 0.062,-0.315 q 0.031,-0.14 0.054,-0.217 0.036,-0.13 0.15,-0.13 0.067,0 0.115,0.068 0.048,0.065 0.102,0.203 0.056,0.136 0.132,0.344 0.08,0.21 0.203,0.492 0.122,-0.283 0.195,-0.49 l 0.127,-0.343 q 0.054,-0.138 0.102,-0.203 0.048,-0.068 0.118,-0.068 0.065,0 0.1,0.034 0.033,0.03 0.05,0.096 0.02,0.079 0.048,0.22 0.028,0.138 0.06,0.31 0.033,0.17 0.064,0.356 0.031,0.186 0.057,0.356 0.025,0.169 0.04,0.307 0.016,0.136 0.016,0.21 0,0.044 -0.03,0.073 -0.032,0.025 -0.08,0.025 -0.03,0 -0.076,-0.023 -0.045,-0.025 -0.062,-0.098 -0.034,-0.161 -0.062,-0.333 l -0.05,-0.348 -0.046,-0.352 q -0.023,-0.178 -0.048,-0.353 -0.037,0.113 -0.085,0.248 -0.048,0.136 -0.102,0.274 -0.053,0.135 -0.11,0.268 -0.056,0.133 -0.11,0.24 -0.02,0.037 -0.053,0.056 -0.03,0.017 -0.065,0.017 -0.037,0 -0.07,-0.017 -0.032,-0.02 -0.049,-0.06 z m 2.051,0.508 q -0.17,0 -0.32,-0.068 -0.146,-0.067 -0.256,-0.194 -0.11,-0.13 -0.175,-0.316 -0.062,-0.187 -0.062,-0.424 0,-0.223 0.053,-0.41 0.057,-0.185 0.164,-0.321 0.11,-0.135 0.271,-0.21 0.16,-0.075 0.373,-0.075 0.172,0 0.327,0.062 0.155,0.062 0.27,0.187 0.12,0.124 0.187,0.31 0.068,0.186 0.068,0.435 0,0.206 -0.057,0.392 -0.053,0.186 -0.166,0.327 -0.11,0.139 -0.28,0.223 -0.169,0.082 -0.397,0.082 z m 0.005,-0.265 q 0.155,0 0.271,-0.062 0.116,-0.065 0.192,-0.17 0.076,-0.104 0.113,-0.24 0.037,-0.138 0.037,-0.282 0,-0.175 -0.048,-0.31 -0.045,-0.138 -0.125,-0.232 -0.079,-0.093 -0.183,-0.14 -0.104,-0.052 -0.223,-0.052 -0.14,0 -0.248,0.06 -0.105,0.059 -0.178,0.16 -0.07,0.102 -0.107,0.24 -0.037,0.136 -0.037,0.29 0,0.168 0.042,0.306 0.043,0.135 0.113,0.23 0.074,0.097 0.172,0.15 0.1,0.05 0.21,0.05 z m 1.757,-1.758 q 0.29,0 0.466,0.087 0.175,0.088 0.268,0.23 0.093,0.145 0.121,0.329 0.031,0.183 0.031,0.372 0,0.206 -0.053,0.39 -0.05,0.183 -0.16,0.322 -0.108,0.135 -0.278,0.217 -0.17,0.079 -0.403,0.079 -0.187,0 -0.3,-0.028 -0.11,-0.026 -0.172,-0.08 -0.059,-0.053 -0.079,-0.135 -0.02,-0.082 -0.02,-0.192 v -1.06 q 0,-0.122 0.02,-0.221 0.023,-0.1 0.085,-0.167 0.062,-0.07 0.175,-0.107 0.116,-0.036 0.3,-0.036 z m 0.011,1.744 q 0.175,0 0.288,-0.062 0.116,-0.065 0.184,-0.17 0.067,-0.104 0.093,-0.237 0.028,-0.132 0.028,-0.27 0,-0.128 -0.02,-0.255 -0.02,-0.13 -0.082,-0.234 -0.062,-0.104 -0.177,-0.17 -0.116,-0.064 -0.308,-0.064 -0.175,0 -0.243,0.05 -0.067,0.05 -0.067,0.156 v 1.08 q 0,0.088 0.062,0.133 0.065,0.043 0.242,0.043 z m 1.175,-0.178 q -0.006,-0.09 -0.01,-0.246 -0.007,-0.155 -0.007,-0.32 v -0.19 l 0.006,-0.206 q 0.005,-0.21 0.025,-0.328 0.023,-0.118 0.085,-0.178 0.065,-0.06 0.18,-0.073 0.116,-0.014 0.308,-0.014 h 0.06 q 0.058,0 0.14,0.003 l 0.17,0.002 0.15,0.006 q 0.061,0.006 0.098,0.017 0.04,0.008 0.06,0.025 0.02,0.014 0.025,0.037 0.005,0.02 0.005,0.045 0,0.065 -0.036,0.096 -0.037,0.028 -0.15,0.037 -0.057,0.005 -0.167,0.008 h -0.22 q -0.113,0 -0.203,0.003 h -0.113 q -0.073,0.003 -0.104,0.034 -0.028,0.028 -0.028,0.138 l 0.002,0.125 q 0.006,0.095 0.006,0.27 h 0.234 q 0.15,0 0.243,0.006 0.096,0.003 0.147,0.017 0.053,0.014 0.073,0.045 0.02,0.03 0.02,0.082 0,0.025 -0.006,0.048 -0.003,0.02 -0.022,0.037 -0.02,0.014 -0.057,0.025 -0.037,0.009 -0.104,0.014 -0.082,0.006 -0.155,0.009 h -0.379 v 0.344 l 0.006,0.096 q 0.003,0.045 0.011,0.076 0.012,0.03 0.037,0.05 0.028,0.02 0.08,0.03 0.053,0.008 0.14,0.008 h 0.607 q 0.1,0 0.124,0.036 0.025,0.037 0.025,0.1 0,0.05 -0.022,0.078 -0.023,0.026 -0.11,0.037 -0.085,0.014 -0.257,0.017 -0.17,0.003 -0.469,0.003 -0.127,0 -0.208,-0.023 -0.082,-0.023 -0.133,-0.076 -0.05,-0.054 -0.076,-0.14 -0.023,-0.086 -0.03,-0.21 z"
       style="font-weight:400;font-size:2.82200003px;font-family:Sniglet;-inkscape-font-specification:'Sniglet, Normal';font-variant-ligatures:normal;font-variant-caps:normal;font-variant-numeric:normal;font-feature-settings:normal;text-align:start;letter-spacing:0;word-spacing:0;fill:#c8c8c8;stroke-width:0.78125"
       aria-label="MODE"
       font-weight="400"
       font-size="2.822"
       letter-spacing="0"
       word-spacing="0"
       id="path92"
       inkscape:connector-curvature="0" />
  </g>
  <g
     style="line-height:1.25;stroke-width:0.78125"
     id="g98"
     transform="matrix(1.28,0,0,1.28,0,1.2586674)">
    <path
       word-spacing="0"
       letter-spacing="0"
       font-weight="400"
       aria-label="+"
       font-size="2.822"
       style="font-weight:400;font-size:2.82200003px;font-family:Sniglet;-inkscape-font-specification:'Sniglet, Normal';font-variant-ligatures:normal;font-variant-caps:normal;font-variant-numeric:normal;font-feature-settings:normal;text-align:start;letter-spacing:0;word-spacing:0;fill:#c8c8c8;stroke-width:0.78125"
       d="m 35.041,46.968 q -0.065,0.006 -0.138,0.008 -0.07,0 -0.155,0.003 v 0.127 q 0,0.095 -0.003,0.163 -0.003,0.068 -0.017,0.11 -0.01,0.043 -0.04,0.062 -0.028,0.02 -0.078,0.02 -0.026,0 -0.048,-0.006 -0.02,-0.006 -0.037,-0.025 -0.017,-0.02 -0.03,-0.054 -0.012,-0.037 -0.018,-0.093 L 34.471,47.21 34.466,47.142 v -0.16 q -0.144,0 -0.237,-0.004 -0.09,-0.003 -0.147,-0.014 -0.054,-0.014 -0.076,-0.042 -0.02,-0.03 -0.02,-0.08 0,-0.025 0.006,-0.045 0.005,-0.022 0.025,-0.04 0.02,-0.016 0.054,-0.027 0.036,-0.014 0.093,-0.02 l 0.073,-0.006 q 0.034,-0.003 0.068,-0.003 0.034,-0.003 0.07,-0.003 h 0.09 q 0.003,-0.073 0.003,-0.144 0.003,-0.073 0.01,-0.147 0.002,-0.067 0.013,-0.104 0.011,-0.037 0.028,-0.057 0.017,-0.02 0.04,-0.022 0.022,-0.006 0.05,-0.006 0.051,0 0.085,0.036 0.034,0.034 0.04,0.15 l 0.005,0.138 0.006,0.158 q 0.141,0 0.293,0.008 0.068,0.006 0.105,0.017 0.037,0.008 0.056,0.026 0.02,0.017 0.023,0.04 0.006,0.022 0.006,0.05 0,0.05 -0.037,0.085 -0.034,0.034 -0.15,0.04 z"
       id="path96"
       inkscape:connector-curvature="0" />
  </g>
  <g
     style="line-height:1.25;stroke-width:0.78125"
     id="g102"
     transform="matrix(1.28,0,0,1.28,0,1.2586674)">
    <path
       word-spacing="0"
       letter-spacing="0"
       font-weight="400"
       aria-label="-"
       font-size="2.822"
       style="font-weight:400;font-size:2.82200003px;font-family:Sniglet;-inkscape-font-specification:'Sniglet, Normal';font-variant-ligatures:normal;font-variant-caps:normal;font-variant-numeric:normal;font-feature-settings:normal;text-align:start;letter-spacing:0;word-spacing:0;fill:#c8c8c8;stroke-width:0.78125"
       d="m 24.904,46.98 q -0.13,0.006 -0.3,0.01 -0.168,0.004 -0.4,0.004 -0.095,0 -0.163,-0.003 -0.068,-0.003 -0.11,-0.014 -0.042,-0.014 -0.062,-0.042 -0.02,-0.03 -0.02,-0.08 0,-0.025 0.006,-0.045 0.005,-0.022 0.025,-0.04 0.02,-0.016 0.054,-0.027 0.036,-0.014 0.093,-0.02 L 24.1,46.717 q 0.034,-0.003 0.065,-0.003 0.03,-0.003 0.065,-0.003 h 0.085 q 0.152,0 0.293,0.003 0.14,0 0.294,0.008 0.068,0.006 0.104,0.017 0.037,0.008 0.057,0.025 0.02,0.017 0.022,0.04 0.006,0.022 0.006,0.05 0,0.05 -0.037,0.085 -0.034,0.034 -0.15,0.04 z"
       id="path100"
       inkscape:connector-curvature="0" />
  </g>
  <g
     style="line-height:1.25;stroke-width:0.78125"
     id="g106"
     transform="matrix(1.28,0,0,1.28,0,1.2586674)">
    <path
       word-spacing="0"
       letter-spacing="0"
       font-weight="400"
       aria-label="+"
       font-size="2.822"
       style="font-weight:400;font-size:2.82200003px;font-family:Sniglet;-inkscape-font-specification:'Sniglet, Normal';font-variant-ligatures:normal;font-variant-caps:normal;font-variant-numeric:normal;font-feature-settings:normal;text-align:start;letter-spacing:0;word-spacing:0;fill:#c8c8c8;stroke-width:0.78125"
       d="m 16.798,46.968 q -0.065,0.006 -0.138,0.008 -0.07,0 -0.155,0.003 v 0.127 q 0,0.095 -0.003,0.163 -0.003,0.068 -0.017,0.11 -0.01,0.043 -0.04,0.062 -0.028,0.02 -0.078,0.02 -0.026,0 -0.048,-0.006 -0.02,-0.006 -0.037,-0.025 -0.017,-0.02 -0.03,-0.054 -0.012,-0.037 -0.018,-0.093 L 16.228,47.21 16.223,47.142 v -0.16 q -0.144,0 -0.237,-0.004 -0.09,-0.003 -0.147,-0.014 -0.054,-0.014 -0.076,-0.042 -0.02,-0.03 -0.02,-0.08 0,-0.025 0.006,-0.045 0.005,-0.022 0.025,-0.04 0.02,-0.016 0.054,-0.027 0.036,-0.014 0.093,-0.02 l 0.073,-0.006 q 0.034,-0.003 0.068,-0.003 0.034,-0.003 0.07,-0.003 h 0.09 q 0.003,-0.073 0.003,-0.144 0.003,-0.073 0.01,-0.147 0.002,-0.067 0.013,-0.104 0.011,-0.037 0.028,-0.057 0.017,-0.02 0.04,-0.022 0.022,-0.006 0.05,-0.006 0.051,0 0.085,0.036 0.034,0.034 0.04,0.15 l 0.005,0.138 0.006,0.158 q 0.141,0 0.293,0.008 0.068,0.006 0.105,0.017 0.037,0.008 0.056,0.026 0.02,0.017 0.023,0.04 0.006,0.022 0.006,0.05 0,0.05 -0.037,0.085 -0.034,0.034 -0.15,0.04 z"
       id="path104"
       inkscape:connector-curvature="0" />
  </g>
  <g
     style="line-height:1.25;stroke-width:0.78125"
     id="g110"
     transform="matrix(1.28,0,0,1.28,0,1.2586674)">
    <path
       word-spacing="0"
       letter-spacing="0"
       font-weight="400"
       aria-label="-"
       font-size="2.822"
       style="font-weight:400;font-size:2.82200003px;font-family:Sniglet;-inkscape-font-specification:'Sniglet, Normal';font-variant-ligatures:normal;font-variant-caps:normal;font-variant-numeric:normal;font-feature-settings:normal;text-align:start;letter-spacing:0;word-spacing:0;fill:#c8c8c8;stroke-width:0.78125"
       d="m 4.11,46.98 q -0.13,0.006 -0.3,0.01 -0.167,0.004 -0.4,0.004 -0.094,0 -0.162,-0.003 -0.068,-0.003 -0.11,-0.014 -0.042,-0.014 -0.062,-0.042 -0.02,-0.03 -0.02,-0.08 0,-0.025 0.006,-0.045 0.005,-0.022 0.025,-0.04 0.02,-0.016 0.054,-0.027 0.036,-0.014 0.093,-0.02 l 0.073,-0.006 q 0.034,-0.003 0.065,-0.003 0.03,-0.003 0.065,-0.003 h 0.085 q 0.152,0 0.293,0.003 0.14,0 0.294,0.008 0.068,0.006 0.104,0.017 0.037,0.008 0.057,0.025 0.02,0.017 0.022,0.04 0.006,0.022 0.006,0.05 0,0.05 -0.037,0.085 -0.034,0.034 -0.15,0.04 z"
       id="path108"
       inkscape:connector-curvature="0" />
  </g>
  <rect
     rx="1.428"
     y="44.265392"
     x="4.9561601"
     height="11.424"
     width="19.88352"
     ry="1.428"
     id="rect112"
     style="fill:url(#d);stroke-width:1" />
</svg>
