<svg xmlns="http://www.w3.org/2000/svg" width="60" height="380" viewBox="0 0 15.875 100.542"><path d="M0 0h15.875v100.541H0zm0 0" fill="#191919"/><g style="line-height:1.25"><path word-spacing="0" letter-spacing="0" font-weight="400" aria-label="♫" font-size="3.528" style="-inkscape-font-specification:'Arial, Normal';font-variant-ligatures:normal;font-variant-caps:normal;font-variant-numeric:normal;font-feature-settings:normal;text-align:start" d="M8.664 93.893l-1.63.115v-2.06q0-.23.065-.333.064-.104.22-.147.153-.043.348-.002.223.047.356.19.133.146.133.33 0 .186-.158.286-.157.103-.407.05-.082-.018-.144-.044-.063-.026-.205-.11v1.345l1.22-.085v-1.554q0-.224.065-.337.065-.11.225-.151.16-.04.349 0 .223.047.354.19.129.14.129.325 0 .195-.156.294-.155.1-.407.047-.16-.034-.357-.16z" font-family="Arial" fill="#969696"/></g><g style="line-height:1.25"><path style="-inkscape-font-specification:'Sniglet, Normal';font-variant-ligatures:normal;font-variant-caps:normal;font-variant-numeric:normal;font-feature-settings:normal;text-align:start" d="M3.957 5.947q.128 0 .256.023.132.02.237.066.104.043.17.11.07.061.07.147 0 .089-.046.135-.047.047-.117.047-.066 0-.116-.02-.05-.023-.117-.05-.062-.027-.151-.046-.09-.024-.237-.024t-.283.078q-.132.074-.233.21-.097.131-.155.314-.058.182-.058.396 0 .263.066.454.07.19.178.314.109.12.245.182.14.058.28.058.166 0 .278-.034.113-.035.19-.078.082-.043.14-.078.059-.035.113-.035.066 0 .105.04.038.034.038.127 0 .078-.062.16-.058.077-.174.143-.113.062-.272.105-.16.039-.357.039-.217 0-.435-.086-.213-.085-.384-.252-.167-.17-.271-.423-.105-.256-.105-.594 0-.337.093-.601.097-.264.26-.447.167-.186.384-.283.22-.097.47-.097zm1.585 1.665v.221q0 .093-.004.179 0 .085-.003.17l-.008.19q.267-.03.419-.05l.237-.031q.089-.012.135-.015.05-.004.117-.004.17 0 .17.166 0 .066-.07.113-.065.047-.17.081-.101.031-.23.055-.123.02-.243.027-.117.012-.214.015-.093.004-.132.004-.14 0-.217-.019-.078-.015-.117-.1-.038-.09-.05-.269-.008-.178-.008-.504v-.559q0-.244.004-.438t.004-.346q.004-.151.012-.275.007-.16.054-.206.047-.05.116-.05.04 0 .066.008.03.004.055.03.023.028.035.078.015.05.019.144.015.341.02.675.003.334.003.71zm1.39.842q-.008-.14-.012-.291 0-.151-.003-.326-.004-.175-.004-.376v-.458q0-.276.004-.47.003-.198.019-.322.02-.124.058-.182.039-.059.109-.059.066 0 .116.043t.058.198q.008.14.012.248l.008.218q.004.105.004.221v.458l.83-.95q.163-.187.252-.245.09-.062.156-.062.077 0 .112.038.039.04.039.097 0 .024-.008.047t-.035.066q-.023.039-.073.1-.05.059-.136.152l-.54.586.85 1.21q.03.044.047.09.02.047.02.09 0 .073-.044.12-.038.05-.14.05-.08 0-.147-.047-.062-.042-.116-.128L7.63 7.48l-.334.365-.008.295q-.004.147-.012.31-.004.093-.02.144-.011.05-.034.077-.023.027-.054.031-.027.008-.066.008-.07 0-.117-.046-.046-.05-.054-.21zm3.49-.73l-.411.016q-.233.004-.551.004-.132 0-.226-.004-.093-.004-.15-.02-.06-.019-.086-.058-.027-.038-.027-.108 0-.035.007-.062.008-.031.035-.055.027-.023.074-.038.05-.02.128-.028l.1-.008q.048-.004.09-.004.043-.004.089-.004h.117q.21 0 .403.004.195 0 .404.012.093.008.144.023.05.012.077.035.027.023.03.054.009.031.009.07 0 .07-.05.117-.047.046-.206.054zm1.476-.05l-.578.896q-.054.086-.12.129-.062.046-.144.046-.1 0-.143-.05-.04-.047-.04-.12 0-.043.016-.09.02-.046.05-.09l.723-1.031-.722-1.033q-.031-.042-.05-.089-.016-.046-.016-.089 0-.074.039-.12.042-.05.143-.05.082 0 .144.046.066.042.12.128l.578.896.579-.896q.054-.086.116-.128.066-.047.147-.047.1 0 .14.05.043.047.043.121 0 .043-.02.09-.015.046-.046.088l-.722 1.033.722 1.032q.03.043.046.09.02.046.02.088 0 .074-.043.12-.04.051-.14.051-.081 0-.147-.046-.062-.043-.116-.129z" word-spacing="0" letter-spacing="0" font-size="3.881" font-weight="400" aria-label="CLK-X" font-family="Sniglet" fill="#c8c8c8"/></g><rect rx=".99" ry=".99" y="11.648" x="4.259" height="3.043" width="7.196" fill="#3e3e3e" stroke="#c8c8c8" stroke-width=".132" paint-order="stroke markers fill"/><rect rx=".99" ry=".99" y="38.106" x="3.466" height="3.043" width="8.747" fill="#3e3e3e" stroke="#c8c8c8" stroke-width=".132" paint-order="stroke markers fill"/><g style="line-height:1.25"><path style="-inkscape-font-specification:'Sniglet, Normal';font-variant-ligatures:normal;font-variant-caps:normal;font-variant-numeric:normal;font-feature-settings:normal;text-align:start" d="M5.28 40.43q0 .067-.013.104-.012.037-.031.056-.017.02-.043.023-.022.006-.045.006-.076 0-.101-.034-.023-.034-.031-.152-.006-.062-.01-.18l-.005-.283-.002-.361v-.418q0-.104.025-.212.025-.107.096-.194.073-.088.2-.142.13-.053.336-.053.144 0 .274.03.13.032.229.108.098.076.158.203.059.127.059.316 0 .198-.065.328t-.183.206q-.12.076-.283.107-.163.03-.358.03H5.39q-.048 0-.107-.005zm.814-1.19q0-.188-.108-.284-.104-.096-.35-.096-.093 0-.16.017-.065.014-.108.054-.042.037-.065.102-.02.064-.02.163v.22q0 .122.003.229.065.003.144.003h.153q.084 0 .175-.011.093-.012.166-.051.074-.042.122-.122.048-.081.048-.222zm1.282-.072q.017-.04.05-.065.037-.025.077-.025.037 0 .07.025.034.023.054.062.107.22.212.477.104.254.189.483.048-.35.104-.706.057-.355.127-.68.009-.037.026-.06.017-.025.036-.036.02-.014.04-.02.022-.006.037-.006.048 0 .079.029.03.025.03.07 0 .05-.016.18-.017.128-.045.3l-.065.36q-.034.193-.068.37-.034.179-.065.325-.031.147-.05.223-.018.065-.052.1-.033.03-.098.03-.068 0-.116-.06-.045-.061-.102-.191-.053-.13-.13-.33-.076-.203-.197-.486-.124.283-.203.486-.076.203-.133.333-.054.13-.101.192-.048.059-.113.059-.113 0-.15-.13-.023-.076-.054-.22-.03-.147-.064-.325l-.065-.366q-.034-.192-.06-.362l-.042-.296q-.014-.13-.014-.18 0-.05.03-.08.032-.03.088-.03.04 0 .077.025.036.022.053.096.068.324.119.68.053.356.113.706.087-.207.175-.438.087-.231.217-.52zm2.548-.265q-.102 0-.17.022-.067.02-.113.054-.045.034-.073.07l-.05.07q-.023.035-.051.058-.026.02-.065.02-.068 0-.096-.035-.026-.036-.026-.096 0-.124.093-.23.029-.035.077-.071.05-.04.118-.071.07-.031.16-.05.094-.023.21-.023.307 0 .477.15.17.149.17.42 0 .053-.012.118-.01.065-.037.136-.025.07-.073.146-.048.077-.127.156-.07.07-.15.13-.08.059-.164.118l-.177.127q-.09.065-.184.15.09.048.195.062.104.014.234.014.122 0 .195-.006.073-.006.118-.014.046-.008.07-.014.026-.006.055-.006.104 0 .104.096 0 .084-.07.13-.071.044-.17.067-.1.02-.203.023-.104.006-.172.006-.037 0-.105-.006-.064-.003-.14-.014-.077-.012-.156-.032-.076-.022-.141-.056-.062-.037-.102-.087-.04-.054-.04-.127 0-.1.07-.187.075-.09.182-.175.107-.087.23-.172.126-.087.233-.178.107-.093.178-.192.073-.098.073-.214 0-.144-.1-.214-.095-.074-.275-.074z" word-spacing="0" letter-spacing="0" font-size="2.822" font-weight="400" aria-label="PW 2" font-family="Sniglet" fill="#fff"/></g><rect rx=".99" ry=".99" y="51.335" x="2.627" height="3.043" width="10.406" fill="#3e3e3e" stroke="#c8c8c8" stroke-width=".132" paint-order="stroke markers fill"/><g style="line-height:1.25"><path style="-inkscape-font-specification:'Sniglet, Normal';font-variant-ligatures:normal;font-variant-caps:normal;font-variant-numeric:normal;font-feature-settings:normal;text-align:start" d="M4.683 51.844q.08 0 .18.014.105.01.196.045.09.03.152.085.062.05.062.127 0 .045-.025.076-.026.03-.082.03-.042 0-.088-.016-.042-.017-.098-.034-.054-.02-.127-.036-.07-.017-.167-.017-.186 0-.276.067-.088.065-.088.18 0 .08.04.134.04.053.104.093.068.036.15.062.084.025.172.048.099.025.194.062.1.037.175.096.077.06.122.15.048.09.048.228 0 .144-.054.26-.053.113-.147.195-.093.08-.223.124-.13.042-.282.042-.084 0-.197-.017-.113-.014-.215-.05-.101-.04-.172-.102-.07-.065-.07-.158 0-.057.028-.09.03-.035.09-.035.048 0 .079.02.03.017.054.04.084.073.192.098.107.026.22.026.065 0 .135-.008.074-.01.133-.042.06-.03.099-.088.04-.06.04-.158 0-.09-.038-.147-.033-.06-.093-.1-.06-.038-.14-.063-.08-.026-.173-.05-.104-.03-.206-.063-.102-.034-.18-.09-.08-.06-.13-.147-.048-.09-.048-.23 0-.137.05-.242.05-.104.139-.175.087-.07.206-.107.12-.037.26-.037zm1.728.553q.017-.04.05-.065.037-.025.077-.025.036 0 .07.025.034.023.054.062.107.22.21.477.106.254.19.483.049-.35.105-.706.056-.355.127-.68.008-.037.025-.06.017-.025.037-.036.02-.014.04-.02.022-.006.036-.006.048 0 .08.03.03.024.03.07 0 .05-.017.18-.017.127-.045.3-.028.17-.065.36l-.067.37q-.034.178-.065.324-.031.147-.051.223-.017.065-.05.1-.035.03-.1.03-.067 0-.115-.06-.046-.06-.102-.19-.054-.13-.13-.33-.076-.204-.197-.487-.125.283-.204.486-.076.203-.132.333-.054.13-.102.192-.048.06-.113.06-.113 0-.15-.13-.022-.077-.053-.22-.031-.148-.065-.326-.03-.177-.065-.366-.034-.192-.06-.362l-.041-.296q-.014-.13-.014-.18 0-.05.03-.08.032-.03.088-.03.04 0 .076.025.037.022.054.096.068.324.118.68.054.356.113.706.088-.207.175-.438.088-.23.218-.52zm1.413 1.265q-.006-.102-.01-.212l-.001-.237q-.003-.127-.003-.274v-.333q0-.2.003-.342.002-.143.017-.234.014-.09.042-.132.03-.043.082-.043.025 0 .048.006.022.006.04.026.016.017.027.053.015.034.017.09l.009.18.005.159q.003.076.003.16v.43q0 .116-.003.229l-.005.228q-.003.116-.01.243-.001.068-.013.104-.011.037-.028.057-.017.02-.04.022-.022.006-.05.006-.051 0-.088-.033-.036-.037-.042-.153zm1.764.042q-.09-.124-.172-.246l-.172-.27q-.09-.147-.21-.325-.115-.18-.28-.42v.38l-.001.31-.006.272-.008.254q-.003.067-.014.104-.01.037-.026.056-.017.02-.04.023-.02.006-.047.006-.051 0-.085-.034-.034-.037-.04-.152-.014-.31-.016-.62v-.647q0-.19.002-.297.006-.107.02-.16.017-.054.042-.068.029-.014.074-.014t.118.07q.074.068.16.18.089.114.188.26.1.147.2.302.099.156.189.308l.17.277q-.003-.133-.003-.29v-.357q0-.223.002-.367.003-.146.014-.23.015-.086.043-.12.028-.034.079-.034.048 0 .084.03.037.032.043.145l.008.18.006.159q.003.076.003.16v.43q0 .116-.003.23l-.006.227q-.002.116-.008.243-.003.068-.014.104-.01.037-.026.057-.017.02-.04.022-.02.006-.047.006-.048 0-.082-.028t-.1-.116zm1.524-1.866q.093 0 .192.017.098.017.18.05.082.032.136.08.053.048.053.11 0 .065-.033.099-.034.034-.085.034-.048 0-.09-.017l-.09-.037q-.052-.02-.122-.037-.07-.016-.178-.016-.118 0-.223.056-.101.054-.18.152-.08.096-.125.23-.045.132-.045.287 0 .19.048.327.048.138.124.23.08.09.175.134.1.043.198.043.16 0 .254-.046.096-.048.152-.12.003-.06.003-.142v-.178q0-.037-.006-.056-.005-.023-.028-.034-.022-.01-.067-.014-.043-.003-.116-.003-.09 0-.147-.023-.056-.025-.056-.104 0-.057.028-.09.03-.037.124-.043h.054q.04-.003.08-.003h.157q.084 0 .135.017.05.014.09.068.02.028.023.1.006.07.006.162v.728q0 .077-.043.113-.04.037-.093.037-.065 0-.107-.034-.04-.03-.04-.102v-.11q-.073.085-.175.122-.098.036-.25.036-.156 0-.306-.062t-.265-.183q-.116-.124-.19-.308-.07-.186-.07-.43 0-.247.07-.44.074-.191.199-.323.124-.136.29-.207.167-.07.359-.07z" word-spacing="0" letter-spacing="0" font-size="2.822" font-weight="400" aria-label="SWING" font-family="Sniglet" fill="#fff"/></g><rect rx=".99" ry=".99" y="64.564" x="1.929" height="3.043" width="11.746" fill="#3e3e3e" stroke="#c8c8c8" stroke-width=".132" paint-order="stroke markers fill"/><g style="line-height:1.25"><path style="-inkscape-font-specification:'Sniglet, Normal';font-variant-ligatures:normal;font-variant-caps:normal;font-variant-numeric:normal;font-feature-settings:normal;text-align:start" d="M3.903 65.073q.079 0 .18.014.105.01.195.045.09.03.153.085.062.05.062.127 0 .045-.026.076-.025.03-.081.03-.043 0-.088-.016-.042-.017-.1-.034-.052-.02-.126-.036-.07-.017-.166-.017-.186 0-.277.067-.087.065-.087.18 0 .08.04.134.039.053.104.093.067.036.15.062.084.025.17.048.1.025.196.062.099.037.175.096.076.06.12.15.049.09.049.228 0 .144-.053.26-.054.113-.147.195-.093.08-.223.124-.13.042-.282.042-.085 0-.198-.017-.113-.014-.214-.05-.102-.04-.172-.102-.07-.065-.07-.158 0-.057.027-.09.03-.035.09-.035.049 0 .08.02.03.017.053.04.085.073.192.098.107.026.22.026.065 0 .136-.008.073-.01.132-.042.06-.03.1-.088.039-.06.039-.158 0-.09-.037-.147-.034-.06-.093-.1-.06-.038-.141-.063-.08-.026-.172-.05-.105-.03-.206-.063-.102-.034-.18-.09-.08-.06-.13-.147-.05-.09-.05-.23 0-.137.052-.242.05-.104.138-.175.088-.07.206-.107.122-.037.26-.037zm1.727.553q.017-.04.05-.065.038-.025.077-.025.037 0 .07.025.035.023.054.062.108.22.212.477.105.254.19.483.047-.35.104-.706.056-.355.127-.68.008-.037.025-.06.017-.025.037-.036.02-.014.04-.02.022-.006.036-.006.048 0 .079.03.03.024.03.07 0 .05-.016.18-.017.127-.045.3-.028.17-.065.36-.034.192-.068.37t-.065.324q-.03.147-.05.223-.017.065-.051.1-.034.03-.1.03-.067 0-.115-.06-.045-.06-.101-.19-.054-.13-.13-.33-.076-.204-.198-.487-.124.283-.203.486-.076.203-.133.333-.053.13-.101.192-.048.06-.113.06-.113 0-.15-.13-.022-.077-.053-.22-.031-.148-.065-.326l-.065-.366q-.034-.192-.06-.362l-.042-.296q-.014-.13-.014-.18 0-.05.03-.08.032-.03.089-.03.04 0 .076.025.037.022.054.096.067.324.118.68.054.356.113.706.087-.207.175-.438.087-.23.217-.52zm1.414 1.264q-.006-.1-.01-.21l-.002-.238q-.003-.127-.003-.274v-.333q0-.2.003-.342.003-.143.017-.234.014-.09.043-.132.03-.043.08-.043.027 0 .049.006.023.006.04.026.017.017.028.053.014.034.017.09l.009.18.005.159q.003.076.003.16v.43q0 .116-.003.229l-.005.228q-.003.116-.01.243-.002.068-.013.104-.011.037-.028.057-.017.02-.04.022-.022.006-.05.006-.051 0-.088-.033-.037-.037-.042-.153zm1.764.043q-.09-.124-.172-.246l-.172-.27q-.09-.147-.21-.325-.115-.18-.28-.42v.38q0 .167-.002.31l-.005.272q-.003.127-.01.254-.001.067-.013.104-.008.037-.025.056-.017.02-.04.023-.02.006-.048.006-.05 0-.084-.034-.034-.037-.04-.152-.014-.31-.017-.62v-.647q0-.19.003-.297.006-.107.02-.16.017-.054.042-.068.028-.014.074-.014.045 0 .118.07.073.068.16.18.088.114.187.26.102.147.2.302.1.156.19.308l.169.277q-.003-.133-.003-.29v-.357q0-.223.003-.367.003-.146.014-.23.014-.086.042-.12.029-.034.08-.034.047 0 .084.03.037.032.042.145l.009.18.006.159q.002.076.002.16v.43q0 .116-.002.23l-.006.227q-.003.116-.01.243-.001.068-.013.104-.008.037-.025.057-.017.02-.04.022-.02.006-.048.006-.047 0-.081-.028t-.1-.116zm1.523-1.866q.094 0 .192.017.1.017.18.05.083.032.136.08.054.048.054.11 0 .065-.034.099t-.084.034q-.048 0-.09-.017l-.091-.037q-.05-.02-.121-.037-.071-.016-.178-.016-.12 0-.223.056-.102.054-.18.152-.08.096-.125.23-.045.132-.045.287 0 .19.048.327.048.138.124.23.079.09.175.134.099.043.198.043.16 0 .254-.046.095-.048.152-.12.003-.06.003-.142v-.178q0-.037-.006-.056-.005-.023-.028-.034-.023-.01-.068-.014-.042-.003-.116-.003-.09 0-.146-.023-.057-.025-.057-.104 0-.057.028-.09.032-.037.125-.043h.053q.04-.003.082-.003h.155q.085 0 .136.017.05.014.09.068.02.028.023.1.005.07.005.162v.728q0 .077-.042.113-.04.037-.093.037-.065 0-.107-.034-.04-.03-.04-.102v-.11q-.073.085-.175.122-.1.036-.251.036-.155 0-.305-.062t-.265-.183q-.116-.124-.19-.308-.07-.186-.07-.43 0-.247.07-.44.074-.191.198-.323.124-.136.29-.207.168-.07.359-.07zm1.899 1.823q-.005-.1-.008-.21 0-.11-.003-.238-.003-.127-.003-.274v-.686l-.17.088q-.07.045-.112.053-.04.008-.088.008-.042 0-.076-.036-.03-.037-.03-.088 0-.05.033-.087.037-.04.085-.07.062-.043.132-.086.074-.042.14-.076.069-.037.126-.056.059-.023.098-.023.02 0 .04.006.022.006.04.023.02.017.03.053.014.034.017.093l.009.178.005.15q.003.07.003.15v.425q0 .116-.003.23l-.005.228q-.003.115-.01.242-.002.068-.013.105-.008.037-.025.056-.017.02-.04.023-.02.006-.048.006-.05 0-.084-.034-.034-.037-.04-.152z" word-spacing="0" letter-spacing="0" font-size="2.822" font-weight="400" aria-label="SWING 1" font-family="Sniglet" fill="#fff"/></g><rect rx=".99" ry=".99" y="77.794" x="1.717" height="3.043" width="12.256" fill="#3e3e3e" stroke="#c8c8c8" stroke-width=".132" paint-order="stroke markers fill"/><g style="line-height:1.25"><path style="-inkscape-font-specification:'Sniglet, Normal';font-variant-ligatures:normal;font-variant-caps:normal;font-variant-numeric:normal;font-feature-settings:normal;text-align:start" d="M3.563 78.303q.079 0 .18.014.105.01.195.045.09.03.153.085.062.05.062.127 0 .045-.026.076-.025.03-.082.03-.042 0-.087-.016-.042-.017-.1-.034-.052-.02-.126-.036-.07-.017-.166-.017-.187 0-.277.067-.087.065-.087.18 0 .08.04.134.039.053.104.093.067.036.15.062.084.025.17.048.1.025.196.062.099.037.175.096.076.06.12.15.049.09.049.228 0 .144-.053.26-.054.113-.147.195-.093.079-.223.124-.13.042-.282.042-.085 0-.198-.017-.113-.014-.214-.05-.102-.04-.172-.102-.071-.065-.071-.158 0-.057.028-.09.03-.035.09-.035.049 0 .08.02.03.017.053.04.085.073.192.098.107.026.22.026.065 0 .136-.008.073-.011.132-.042.06-.031.1-.088.039-.06.039-.158 0-.09-.037-.147-.034-.06-.093-.1-.06-.038-.141-.063-.08-.026-.172-.051-.105-.028-.206-.062-.102-.034-.181-.09-.08-.06-.13-.147-.048-.09-.048-.23 0-.137.05-.242.052-.104.14-.175.087-.07.205-.107.122-.037.26-.037zm1.727.553q.017-.04.05-.065.038-.025.077-.025.037 0 .07.025.035.023.054.062.108.22.212.477.104.254.19.483.047-.35.104-.706.056-.355.127-.68.008-.037.025-.06.017-.025.037-.036.02-.014.04-.02.022-.006.036-.006.048 0 .079.029.03.025.03.07 0 .05-.016.18-.017.128-.045.3-.028.17-.065.36-.034.193-.068.37-.034.179-.065.325-.03.147-.05.223-.018.065-.051.1-.034.03-.1.03-.067 0-.115-.06-.045-.061-.101-.191-.054-.13-.13-.33-.076-.203-.198-.486-.124.283-.203.486-.076.203-.133.333-.053.13-.101.192-.048.059-.113.059-.113 0-.15-.13-.022-.076-.053-.22-.031-.147-.065-.325l-.065-.366q-.034-.192-.06-.362l-.042-.296q-.014-.13-.014-.18 0-.05.03-.08.032-.03.089-.03.04 0 .076.025.037.022.053.096.068.324.119.68.054.356.113.706.087-.207.175-.438.087-.231.217-.52zm1.413 1.265q-.005-.102-.008-.212 0-.11-.003-.237t-.003-.274v-.333q0-.2.003-.342.003-.143.017-.234.014-.09.042-.132.03-.043.082-.043.026 0 .048.006.023.006.04.026.017.017.028.053.014.034.017.09l.008.18.006.159q.003.076.003.16v.43q0 .116-.003.229l-.006.228q-.002.116-.008.243-.003.068-.014.104-.012.037-.028.057-.017.02-.04.022-.023.006-.05.006-.052 0-.088-.033-.037-.037-.043-.153zm1.765.042q-.09-.124-.172-.246l-.173-.27q-.09-.147-.208-.325-.116-.18-.28-.42v.38q0 .167-.003.31l-.005.272q-.003.127-.01.254-.002.067-.013.104-.008.037-.025.056-.017.02-.04.023-.02.006-.048.006-.05 0-.084-.034-.034-.037-.04-.152-.014-.31-.017-.621v-.646q0-.19.003-.297.006-.107.02-.16.017-.054.042-.068.028-.014.073-.014.046 0 .119.07.073.068.16.18.088.114.187.26.102.147.2.302.1.156.19.308l.169.277q-.003-.133-.003-.291v-.356q0-.223.003-.367.003-.146.014-.231.014-.085.042-.12.029-.033.08-.033.047 0 .084.03.037.032.042.145l.009.18.005.159q.003.076.003.16v.43q0 .116-.003.229l-.005.228q-.003.116-.01.243-.001.068-.013.104-.008.037-.025.057-.017.02-.04.022-.02.006-.048.006-.048 0-.082-.028-.033-.028-.098-.116zm1.523-1.866q.093 0 .192.017t.18.05q.083.032.136.08.054.048.054.11 0 .065-.034.099t-.085.034q-.048 0-.09-.017l-.09-.037q-.051-.02-.122-.037-.07-.016-.177-.016-.12 0-.223.056-.102.054-.181.152-.08.096-.124.229-.045.133-.045.288 0 .189.048.327t.124.229q.079.09.175.135.099.043.197.043.16 0 .254-.046.096-.048.153-.12.003-.06.003-.142v-.178q0-.037-.006-.056-.006-.023-.028-.034-.023-.011-.068-.014-.042-.003-.116-.003-.09 0-.146-.023-.057-.025-.057-.104 0-.057.028-.09.03-.037.125-.043h.053q.04-.003.082-.003h.155q.085 0 .136.017.05.014.09.068.02.028.023.099.005.07.005.163v.728q0 .077-.042.113-.04.037-.093.037-.065 0-.108-.034-.04-.031-.04-.102v-.11q-.072.085-.174.122-.1.036-.251.036-.155 0-.305-.062t-.265-.183q-.116-.124-.19-.308-.07-.186-.07-.431 0-.246.07-.438.074-.192.198-.324.124-.136.29-.207.167-.07.36-.07zm2.108.294q-.102 0-.17.022-.067.02-.112.054-.046.034-.074.07l-.05.07q-.023.035-.051.058-.026.02-.065.02-.068 0-.096-.035-.026-.036-.026-.096 0-.124.093-.23.029-.035.077-.071.05-.04.118-.071.07-.031.16-.05.094-.023.21-.023.308 0 .477.15.17.149.17.42 0 .053-.012.118-.01.065-.037.136-.025.07-.073.146-.048.077-.127.156-.07.07-.15.13l-.163.118-.178.127q-.09.065-.184.15.09.048.195.062.104.014.234.014.122 0 .195-.006.073-.006.119-.014l.07-.014q.026-.006.054-.006.104 0 .104.096 0 .084-.07.13-.07.044-.17.067-.098.02-.203.023-.104.006-.172.006-.037 0-.104-.006-.065-.003-.142-.014-.076-.012-.155-.032-.076-.022-.14-.056-.063-.037-.103-.087-.04-.054-.04-.127 0-.1.07-.187.075-.09.182-.175.107-.087.232-.172.124-.087.23-.178.108-.093.179-.192.073-.098.073-.214 0-.144-.1-.214-.095-.074-.275-.074z" word-spacing="0" letter-spacing="0" font-size="2.822" font-weight="400" aria-label="SWING 2" font-family="Sniglet" fill="#fff"/></g><rect rx=".99" ry=".99" y="24.877" x="3.463" height="3.043" width="8.747" fill="#3e3e3e" stroke="#c8c8c8" stroke-width=".132" paint-order="stroke markers fill"/><g style="line-height:1.25"><path style="-inkscape-font-specification:'Sniglet, Normal';font-variant-ligatures:normal;font-variant-caps:normal;font-variant-numeric:normal;font-feature-settings:normal;text-align:start" d="M5.639 27.2q0 .068-.014.105-.011.037-.03.056-.018.02-.043.023-.023.006-.045.006-.077 0-.102-.034-.023-.034-.031-.152-.006-.062-.01-.18l-.004-.283q0-.164-.003-.361v-.418q0-.104.025-.212.026-.107.096-.194.074-.088.2-.142.13-.053.337-.053.144 0 .273.03.13.032.229.108t.158.203q.06.127.06.316 0 .198-.066.328-.065.13-.183.206-.12.076-.282.107-.164.03-.36.03H5.75q-.048 0-.107-.005zm.813-1.188q0-.19-.107-.285-.105-.096-.35-.096-.093 0-.161.017-.065.014-.107.054-.043.037-.065.102-.02.064-.02.163v.22q0 .122.003.229.065.003.144.003h.152q.085 0 .175-.011.093-.012.167-.051.073-.042.12-.122.049-.081.049-.222zm1.282-.073q.017-.04.05-.065.038-.025.077-.025.037 0 .07.025.035.023.054.062.108.22.212.477.105.254.19.483.047-.35.104-.706.056-.355.127-.68.008-.037.025-.06.017-.025.037-.036.02-.014.04-.02.022-.006.036-.006.048 0 .079.029.03.025.03.07 0 .05-.016.18-.017.128-.045.3-.028.17-.065.36-.034.193-.068.37-.034.179-.065.325-.03.147-.05.223-.017.065-.051.1-.034.03-.1.03-.067 0-.115-.06-.045-.061-.101-.191-.054-.13-.13-.33-.076-.203-.198-.486-.124.283-.203.486-.076.203-.133.333-.053.13-.101.192-.048.059-.113.059-.113 0-.15-.13-.022-.076-.053-.22-.031-.147-.065-.325l-.065-.366q-.034-.192-.06-.362l-.042-.296q-.014-.13-.014-.18 0-.05.03-.08.032-.03.089-.03.04 0 .076.025.037.022.054.096.067.324.118.68.054.356.113.706.088-.207.175-.438t.217-.52zm2.339 1.265q-.005-.102-.008-.212 0-.11-.003-.237t-.003-.274v-.686l-.17.088q-.07.045-.112.053-.04.008-.088.008-.042 0-.076-.036-.03-.037-.03-.088 0-.05.033-.087.037-.04.085-.071.062-.042.132-.085.074-.042.14-.076.069-.037.126-.056.059-.023.098-.023.02 0 .04.006.023.006.04.023.02.017.03.053.015.034.017.093l.009.178.006.15q.002.07.002.15v.425q0 .116-.002.23l-.006.228q-.003.115-.01.242-.001.068-.013.105-.008.037-.025.056-.017.02-.04.023-.02.006-.048.006-.05 0-.084-.034-.034-.037-.04-.152z" word-spacing="0" letter-spacing="0" font-size="2.822" font-weight="400" aria-label="PW 1" font-family="Sniglet" fill="#fff"/></g><g style="line-height:1.25"><path d="M6.419 13.97q0 .069-.013.106-.012.037-.032.056-.016.02-.042.023-.022.005-.045.005-.076 0-.102-.033-.022-.034-.03-.153-.006-.062-.01-.18l-.005-.283q0-.163-.003-.36v-.42q0-.103.026-.21.025-.108.096-.195.073-.087.2-.141.13-.054.336-.054.144 0 .274.03.13.032.228.109.1.076.158.203.06.127.06.316 0 .197-.065.327t-.184.206q-.118.076-.282.107-.164.032-.358.032H6.53q-.048 0-.108-.006zm.813-1.187q0-.19-.107-.285-.104-.096-.35-.096-.093 0-.16.017-.066.014-.108.054-.042.036-.065.1-.02.066-.02.165v.22q0 .122.003.229.065.003.144.003h.153q.084 0 .175-.012.093-.011.166-.05.073-.043.12-.122.049-.082.049-.223zm1.283-.073q.017-.04.05-.065.037-.025.077-.025.036 0 .07.025.034.023.054.062.107.22.212.477.104.254.189.483.048-.35.104-.706.057-.356.127-.68.009-.037.025-.06.017-.025.037-.036.02-.014.04-.02.022-.005.036-.005.048 0 .08.028.03.025.03.07 0 .05-.016.18-.017.128-.046.3-.028.169-.065.36-.033.193-.067.37-.034.179-.065.326-.031.146-.051.223-.017.065-.05.098-.035.03-.1.03-.067 0-.115-.058-.045-.062-.102-.192-.053-.13-.13-.33-.076-.203-.197-.485-.124.282-.203.485-.077.203-.133.333-.054.13-.102.192-.048.06-.113.06-.112 0-.15-.13-.022-.077-.053-.22l-.065-.325q-.03-.178-.065-.367-.033-.192-.06-.361l-.041-.297q-.014-.13-.014-.18 0-.048.03-.08.032-.03.088-.03.04 0 .076.025.037.023.054.096.068.324.119.68.053.356.112.706.088-.206.175-.438.088-.231.218-.52z" style="-inkscape-font-specification:'Sniglet, Normal';font-variant-ligatures:normal;font-variant-caps:normal;font-variant-numeric:normal;font-feature-settings:normal;text-align:start" aria-label="PW" font-weight="400" font-size="2.822" letter-spacing="0" word-spacing="0" font-family="Sniglet" fill="#fff"/></g></svg>