<?xml version="1.0" encoding="UTF-8" standalone="no"?>
<svg
   xmlns:dc="http://purl.org/dc/elements/1.1/"
   xmlns:cc="http://creativecommons.org/ns#"
   xmlns:rdf="http://www.w3.org/1999/02/22-rdf-syntax-ns#"
   xmlns:svg="http://www.w3.org/2000/svg"
   xmlns="http://www.w3.org/2000/svg"
   xmlns:sodipodi="http://sodipodi.sourceforge.net/DTD/sodipodi-0.dtd"
   xmlns:inkscape="http://www.inkscape.org/namespaces/inkscape"
   width="20.32mm"
   height="128.5mm"
   viewBox="0 0 20.32 128.50044"
   version="1.1"
   id="svg48"
   sodipodi:docname="ClockedExpander_dark.svg"
   inkscape:version="0.92.2 (5c3e80d, 2017-08-06)">
  <metadata
     id="metadata54">
    <rdf:RDF>
      <cc:Work
         rdf:about="">
        <dc:format>image/svg+xml</dc:format>
        <dc:type
           rdf:resource="http://purl.org/dc/dcmitype/StillImage" />
        <dc:title />
      </cc:Work>
    </rdf:RDF>
  </metadata>
  <defs
     id="defs52" />
  <sodipodi:namedview
     pagecolor="#ffffff"
     bordercolor="#666666"
     borderopacity="1"
     objecttolerance="10"
     gridtolerance="10"
     guidetolerance="10"
     inkscape:pageopacity="0"
     inkscape:pageshadow="2"
     inkscape:window-width="1366"
     inkscape:window-height="705"
     id="namedview50"
     showgrid="false"
     inkscape:document-units="mm"
     units="mm"
     inkscape:zoom="0.87830105"
     inkscape:cx="-24.146198"
     inkscape:cy="245.5699"
     inkscape:window-x="251"
     inkscape:window-y="1072"
     inkscape:window-maximized="1"
     inkscape:current-layer="svg48" />
  <path
     d="M 0,-9.9961242e-6 H 20.32007 V 128.50044 H 0 Z m 0,0"
     id="path2"
     inkscape:connector-curvature="0"
     style="fill:#1e1e1e;stroke-width:1;fill-opacity:1" />
  <g
     style="line-height:1.25;stroke-width:0.78124732"
     id="g6"
     transform="matrix(1.2800044,0,0,1.2800044,0,-0.09623859)">
    <path
       word-spacing="0"
       letter-spacing="0"
       font-weight="400"
       aria-label="♫"
       font-size="3.528"
       style="font-weight:400;font-size:3.52800012px;font-family:Arial;-inkscape-font-specification:'Arial, Normal';font-variant-ligatures:normal;font-variant-caps:normal;font-variant-numeric:normal;font-feature-settings:normal;text-align:start;letter-spacing:0;word-spacing:0;fill:#969696;stroke-width:0.78124732"
       d="m 8.664,93.893 -1.63,0.115 v -2.06 q 0,-0.23 0.065,-0.333 0.064,-0.104 0.22,-0.147 0.153,-0.043 0.348,-0.002 0.223,0.047 0.356,0.19 0.133,0.146 0.133,0.33 0,0.186 -0.158,0.286 -0.157,0.103 -0.407,0.05 Q 7.509,92.304 7.447,92.278 7.384,92.252 7.242,92.168 v 1.345 l 1.22,-0.085 v -1.554 q 0,-0.224 0.065,-0.337 0.065,-0.11 0.225,-0.151 0.16,-0.04 0.349,0 0.223,0.047 0.354,0.19 0.129,0.14 0.129,0.325 0,0.195 -0.156,0.294 -0.155,0.1 -0.407,0.047 -0.16,-0.034 -0.357,-0.16 z"
       id="path4"
       inkscape:connector-curvature="0" />
  </g>
  <g
     style="line-height:1.25;stroke-width:0.78124732"
     id="g10"
     transform="matrix(1.2800044,0,0,1.2800044,0,-0.09623859)">
    <path
       style="font-weight:400;font-size:3.88100004px;font-family:Sniglet;-inkscape-font-specification:'Sniglet, Normal';font-variant-ligatures:normal;font-variant-caps:normal;font-variant-numeric:normal;font-feature-settings:normal;text-align:start;letter-spacing:0;word-spacing:0;fill:#c8c8c8;stroke-width:0.78124732"
       d="m 3.957,5.947 q 0.128,0 0.256,0.023 0.132,0.02 0.237,0.066 0.104,0.043 0.17,0.11 0.07,0.061 0.07,0.147 0,0.089 -0.046,0.135 Q 4.597,6.475 4.527,6.475 4.461,6.475 4.411,6.455 4.361,6.432 4.294,6.405 4.232,6.378 4.143,6.359 4.053,6.335 3.906,6.335 3.759,6.335 3.623,6.413 3.491,6.487 3.39,6.623 3.293,6.754 3.235,6.937 3.177,7.119 3.177,7.333 q 0,0.263 0.066,0.454 0.07,0.19 0.178,0.314 0.109,0.12 0.245,0.182 0.14,0.058 0.28,0.058 0.166,0 0.278,-0.034 0.113,-0.035 0.19,-0.078 0.082,-0.043 0.14,-0.078 0.059,-0.035 0.113,-0.035 0.066,0 0.105,0.04 Q 4.81,8.19 4.81,8.283 4.81,8.361 4.748,8.443 4.69,8.52 4.574,8.586 4.461,8.648 4.302,8.691 4.142,8.73 3.945,8.73 3.728,8.73 3.51,8.644 3.297,8.559 3.126,8.392 2.959,8.222 2.855,7.969 2.75,7.713 2.75,7.375 2.75,7.038 2.843,6.774 2.94,6.51 3.103,6.327 3.27,6.141 3.487,6.044 3.707,5.947 3.957,5.947 Z m 1.585,1.665 v 0.221 q 0,0.093 -0.004,0.179 0,0.085 -0.003,0.17 L 5.527,8.372 Q 5.794,8.342 5.946,8.322 L 6.183,8.291 Q 6.272,8.279 6.318,8.276 6.368,8.272 6.435,8.272 q 0.17,0 0.17,0.166 0,0.066 -0.07,0.113 Q 6.47,8.598 6.365,8.632 6.264,8.663 6.135,8.687 6.012,8.707 5.892,8.714 5.775,8.726 5.678,8.729 5.585,8.733 5.546,8.733 5.406,8.733 5.329,8.714 5.251,8.699 5.212,8.614 5.174,8.524 5.162,8.345 5.154,8.167 5.154,7.841 V 7.282 Q 5.154,7.038 5.158,6.844 5.162,6.65 5.162,6.498 5.166,6.347 5.174,6.223 5.181,6.063 5.228,6.017 q 0.047,-0.05 0.116,-0.05 0.04,0 0.066,0.008 0.03,0.004 0.055,0.03 0.023,0.028 0.035,0.078 0.015,0.05 0.019,0.144 0.015,0.341 0.02,0.675 0.003,0.334 0.003,0.71 z m 1.39,0.842 Q 6.924,8.314 6.92,8.163 6.92,8.012 6.917,7.837 6.913,7.662 6.913,7.461 V 7.003 q 0,-0.276 0.004,-0.47 Q 6.92,6.335 6.936,6.211 6.956,6.087 6.994,6.029 7.033,5.97 7.103,5.97 q 0.066,0 0.116,0.043 0.05,0.043 0.058,0.198 0.008,0.14 0.012,0.248 l 0.008,0.218 q 0.004,0.105 0.004,0.221 v 0.458 l 0.83,-0.95 Q 8.294,6.219 8.383,6.161 8.473,6.099 8.539,6.099 q 0.077,0 0.112,0.038 0.039,0.04 0.039,0.097 0,0.024 -0.008,0.047 Q 8.674,6.304 8.647,6.347 8.624,6.386 8.574,6.447 8.524,6.506 8.438,6.599 l -0.54,0.586 0.85,1.21 q 0.03,0.044 0.047,0.09 0.02,0.047 0.02,0.09 0,0.073 -0.044,0.12 -0.038,0.05 -0.14,0.05 -0.08,0 -0.147,-0.047 Q 8.422,8.656 8.368,8.57 L 7.63,7.48 7.296,7.845 7.288,8.14 Q 7.284,8.287 7.276,8.45 7.272,8.543 7.256,8.594 7.245,8.644 7.222,8.671 7.199,8.698 7.168,8.702 7.141,8.71 7.102,8.71 7.032,8.71 6.985,8.664 6.939,8.614 6.931,8.454 Z m 3.49,-0.73 -0.411,0.016 Q 9.778,7.744 9.46,7.744 9.328,7.744 9.234,7.74 9.141,7.736 9.084,7.72 9.024,7.701 8.998,7.662 8.971,7.624 8.971,7.554 8.971,7.519 8.978,7.492 8.986,7.461 9.013,7.437 9.04,7.414 9.087,7.399 9.137,7.379 9.215,7.371 l 0.1,-0.008 Q 9.363,7.359 9.405,7.359 9.448,7.355 9.494,7.355 h 0.117 q 0.21,0 0.403,0.004 0.195,0 0.404,0.012 0.093,0.008 0.144,0.023 0.05,0.012 0.077,0.035 0.027,0.023 0.03,0.054 0.009,0.031 0.009,0.07 0,0.07 -0.05,0.117 -0.047,0.046 -0.206,0.054 z M 11.898,7.674 11.32,8.57 q -0.054,0.086 -0.12,0.129 -0.062,0.046 -0.144,0.046 -0.1,0 -0.143,-0.05 -0.04,-0.047 -0.04,-0.12 0,-0.043 0.016,-0.09 0.02,-0.046 0.05,-0.09 L 11.662,7.364 10.94,6.331 Q 10.909,6.289 10.89,6.242 10.874,6.196 10.874,6.153 q 0,-0.074 0.039,-0.12 0.042,-0.05 0.143,-0.05 0.082,0 0.144,0.046 0.066,0.042 0.12,0.128 l 0.578,0.896 0.579,-0.896 q 0.054,-0.086 0.116,-0.128 0.066,-0.047 0.147,-0.047 0.1,0 0.14,0.05 0.043,0.047 0.043,0.121 0,0.043 -0.02,0.09 -0.015,0.046 -0.046,0.088 l -0.722,1.033 0.722,1.032 q 0.03,0.043 0.046,0.09 0.02,0.046 0.02,0.088 0,0.074 -0.043,0.12 -0.04,0.051 -0.14,0.051 -0.081,0 -0.147,-0.046 Q 12.531,8.656 12.477,8.57 Z"
       word-spacing="0"
       letter-spacing="0"
       font-size="3.881"
       font-weight="400"
       aria-label="CLK-X"
       id="path8"
       inkscape:connector-curvature="0" />
  </g>
  <rect
     rx="0.98999995"
     ry="0.98999995"
     y="14.813251"
     x="5.4515386"
     height="3.8950534"
     width="9.2109118"
     id="rect12"
     style="fill:#3e3e3e;stroke:#c8c8c8;stroke-width:0.132;paint-order:stroke markers fill" />
  <rect
     rx="0.98999995"
     ry="0.98999995"
     y="48.679611"
     x="4.4364953"
     height="3.8950534"
     width="11.196198"
     id="rect14"
     style="fill:#3e3e3e;stroke:#c8c8c8;stroke-width:0.132;paint-order:stroke markers fill" />
  <g
     style="line-height:1.25;stroke-width:0.78124732"
     id="g18"
     transform="matrix(1.2800044,0,0,1.2800044,0,-0.09623859)">
    <path
       style="font-weight:400;font-size:2.82200003px;font-family:Sniglet;-inkscape-font-specification:'Sniglet, Normal';font-variant-ligatures:normal;font-variant-caps:normal;font-variant-numeric:normal;font-feature-settings:normal;text-align:start;letter-spacing:0;word-spacing:0;fill:#ffffff;stroke-width:0.78124732"
       d="m 5.28,40.43 q 0,0.067 -0.013,0.104 -0.012,0.037 -0.031,0.056 -0.017,0.02 -0.043,0.023 -0.022,0.006 -0.045,0.006 -0.076,0 -0.101,-0.034 Q 5.024,40.551 5.016,40.433 5.01,40.371 5.006,40.253 L 5.001,39.97 4.999,39.609 v -0.418 q 0,-0.104 0.025,-0.212 0.025,-0.107 0.096,-0.194 0.073,-0.088 0.2,-0.142 0.13,-0.053 0.336,-0.053 0.144,0 0.274,0.03 0.13,0.032 0.229,0.108 0.098,0.076 0.158,0.203 0.059,0.127 0.059,0.316 0,0.198 -0.065,0.328 -0.065,0.13 -0.183,0.206 -0.12,0.076 -0.283,0.107 -0.163,0.03 -0.358,0.03 H 5.39 q -0.048,0 -0.107,-0.005 z m 0.814,-1.19 q 0,-0.188 -0.108,-0.284 -0.104,-0.096 -0.35,-0.096 -0.093,0 -0.16,0.017 -0.065,0.014 -0.108,0.054 -0.042,0.037 -0.065,0.102 -0.02,0.064 -0.02,0.163 v 0.22 q 0,0.122 0.003,0.229 0.065,0.003 0.144,0.003 h 0.153 q 0.084,0 0.175,-0.011 0.093,-0.012 0.166,-0.051 0.074,-0.042 0.122,-0.122 0.048,-0.081 0.048,-0.222 z m 1.282,-0.072 q 0.017,-0.04 0.05,-0.065 0.037,-0.025 0.077,-0.025 0.037,0 0.07,0.025 0.034,0.023 0.054,0.062 0.107,0.22 0.212,0.477 0.104,0.254 0.189,0.483 0.048,-0.35 0.104,-0.706 0.057,-0.355 0.127,-0.68 0.009,-0.037 0.026,-0.06 0.017,-0.025 0.036,-0.036 0.02,-0.014 0.04,-0.02 0.022,-0.006 0.037,-0.006 0.048,0 0.079,0.029 0.03,0.025 0.03,0.07 0,0.05 -0.016,0.18 -0.017,0.128 -0.045,0.3 l -0.065,0.36 q -0.034,0.193 -0.068,0.37 -0.034,0.179 -0.065,0.325 -0.031,0.147 -0.05,0.223 -0.018,0.065 -0.052,0.1 -0.033,0.03 -0.098,0.03 -0.068,0 -0.116,-0.06 Q 7.887,40.483 7.83,40.353 7.777,40.223 7.7,40.023 7.624,39.82 7.503,39.537 7.379,39.82 7.3,40.023 q -0.076,0.203 -0.133,0.333 -0.054,0.13 -0.101,0.192 -0.048,0.059 -0.113,0.059 -0.113,0 -0.15,-0.13 Q 6.78,40.401 6.749,40.257 6.719,40.11 6.685,39.932 L 6.62,39.566 Q 6.586,39.374 6.56,39.204 L 6.518,38.908 q -0.014,-0.13 -0.014,-0.18 0,-0.05 0.03,-0.08 0.032,-0.03 0.088,-0.03 0.04,0 0.077,0.025 0.036,0.022 0.053,0.096 0.068,0.324 0.119,0.68 0.053,0.356 0.113,0.706 0.087,-0.207 0.175,-0.438 0.087,-0.231 0.217,-0.52 z m 2.548,-0.265 q -0.102,0 -0.17,0.022 -0.067,0.02 -0.113,0.054 -0.045,0.034 -0.073,0.07 l -0.05,0.07 q -0.023,0.035 -0.051,0.058 -0.026,0.02 -0.065,0.02 -0.068,0 -0.096,-0.035 -0.026,-0.036 -0.026,-0.096 0,-0.124 0.093,-0.23 0.029,-0.035 0.077,-0.071 0.05,-0.04 0.118,-0.071 0.07,-0.031 0.16,-0.05 0.094,-0.023 0.21,-0.023 0.307,0 0.477,0.15 0.17,0.149 0.17,0.42 0,0.053 -0.012,0.118 -0.01,0.065 -0.037,0.136 -0.025,0.07 -0.073,0.146 -0.048,0.077 -0.127,0.156 -0.07,0.07 -0.15,0.13 -0.08,0.059 -0.164,0.118 l -0.177,0.127 q -0.09,0.065 -0.184,0.15 0.09,0.048 0.195,0.062 0.104,0.014 0.234,0.014 0.122,0 0.195,-0.006 0.073,-0.006 0.118,-0.014 0.046,-0.008 0.07,-0.014 0.026,-0.006 0.055,-0.006 0.104,0 0.104,0.096 0,0.084 -0.07,0.13 -0.071,0.044 -0.17,0.067 -0.1,0.02 -0.203,0.023 -0.104,0.006 -0.172,0.006 -0.037,0 -0.105,-0.006 Q 9.848,40.621 9.772,40.61 9.695,40.598 9.616,40.578 9.54,40.556 9.475,40.522 9.413,40.485 9.373,40.435 q -0.04,-0.054 -0.04,-0.127 0,-0.1 0.07,-0.187 0.075,-0.09 0.182,-0.175 0.107,-0.087 0.23,-0.172 0.126,-0.087 0.233,-0.178 0.107,-0.093 0.178,-0.192 0.073,-0.098 0.073,-0.214 0,-0.144 -0.1,-0.214 -0.095,-0.074 -0.275,-0.074 z"
       word-spacing="0"
       letter-spacing="0"
       font-size="2.822"
       font-weight="400"
       aria-label="PW 2"
       id="path16"
       inkscape:connector-curvature="0" />
  </g>
  <rect
     rx="0.98999995"
     ry="0.98999995"
     y="65.612793"
     x="3.3625717"
     height="3.8950534"
     width="13.319726"
     id="rect20"
     style="fill:#3e3e3e;stroke:#c8c8c8;stroke-width:0.132;paint-order:stroke markers fill" />
  <g
     style="line-height:1.25;stroke-width:0.78124732"
     id="g24"
     transform="matrix(1.2800044,0,0,1.2800044,0,-0.09623859)">
    <path
       style="font-weight:400;font-size:2.82200003px;font-family:Sniglet;-inkscape-font-specification:'Sniglet, Normal';font-variant-ligatures:normal;font-variant-caps:normal;font-variant-numeric:normal;font-feature-settings:normal;text-align:start;letter-spacing:0;word-spacing:0;fill:#ffffff;stroke-width:0.78124732"
       d="m 4.683,51.844 q 0.08,0 0.18,0.014 0.105,0.01 0.196,0.045 0.09,0.03 0.152,0.085 0.062,0.05 0.062,0.127 0,0.045 -0.025,0.076 -0.026,0.03 -0.082,0.03 -0.042,0 -0.088,-0.016 Q 5.036,52.188 4.98,52.171 4.926,52.151 4.853,52.135 4.783,52.118 4.686,52.118 q -0.186,0 -0.276,0.067 -0.088,0.065 -0.088,0.18 0,0.08 0.04,0.134 0.04,0.053 0.104,0.093 0.068,0.036 0.15,0.062 0.084,0.025 0.172,0.048 0.099,0.025 0.194,0.062 0.1,0.037 0.175,0.096 0.077,0.06 0.122,0.15 0.048,0.09 0.048,0.228 0,0.144 -0.054,0.26 -0.053,0.113 -0.147,0.195 -0.093,0.08 -0.223,0.124 -0.13,0.042 -0.282,0.042 -0.084,0 -0.197,-0.017 -0.113,-0.014 -0.215,-0.05 -0.101,-0.04 -0.172,-0.102 -0.07,-0.065 -0.07,-0.158 0,-0.057 0.028,-0.09 0.03,-0.035 0.09,-0.035 0.048,0 0.079,0.02 0.03,0.017 0.054,0.04 0.084,0.073 0.192,0.098 0.107,0.026 0.22,0.026 0.065,0 0.135,-0.008 0.074,-0.01 0.133,-0.042 0.06,-0.03 0.099,-0.088 0.04,-0.06 0.04,-0.158 0,-0.09 -0.038,-0.147 -0.033,-0.06 -0.093,-0.1 -0.06,-0.038 -0.14,-0.063 -0.08,-0.026 -0.173,-0.05 -0.104,-0.03 -0.206,-0.063 -0.102,-0.034 -0.18,-0.09 -0.08,-0.06 -0.13,-0.147 -0.048,-0.09 -0.048,-0.23 0,-0.137 0.05,-0.242 0.05,-0.104 0.139,-0.175 0.087,-0.07 0.206,-0.107 0.12,-0.037 0.26,-0.037 z m 1.728,0.553 q 0.017,-0.04 0.05,-0.065 0.037,-0.025 0.077,-0.025 0.036,0 0.07,0.025 0.034,0.023 0.054,0.062 0.107,0.22 0.21,0.477 0.106,0.254 0.19,0.483 0.049,-0.35 0.105,-0.706 0.056,-0.355 0.127,-0.68 0.008,-0.037 0.025,-0.06 0.017,-0.025 0.037,-0.036 0.02,-0.014 0.04,-0.02 0.022,-0.006 0.036,-0.006 0.048,0 0.08,0.03 0.03,0.024 0.03,0.07 0,0.05 -0.017,0.18 -0.017,0.127 -0.045,0.3 -0.028,0.17 -0.065,0.36 l -0.067,0.37 q -0.034,0.178 -0.065,0.324 -0.031,0.147 -0.051,0.223 -0.017,0.065 -0.05,0.1 -0.035,0.03 -0.1,0.03 -0.067,0 -0.115,-0.06 -0.046,-0.06 -0.102,-0.19 -0.054,-0.13 -0.13,-0.33 -0.076,-0.204 -0.197,-0.487 -0.125,0.283 -0.204,0.486 -0.076,0.203 -0.132,0.333 -0.054,0.13 -0.102,0.192 -0.048,0.06 -0.113,0.06 -0.113,0 -0.15,-0.13 Q 5.815,53.63 5.784,53.487 5.753,53.339 5.719,53.161 5.689,52.984 5.654,52.795 5.62,52.603 5.594,52.433 L 5.553,52.137 q -0.014,-0.13 -0.014,-0.18 0,-0.05 0.03,-0.08 0.032,-0.03 0.088,-0.03 0.04,0 0.076,0.025 0.037,0.022 0.054,0.096 0.068,0.324 0.118,0.68 0.054,0.356 0.113,0.706 0.088,-0.207 0.175,-0.438 0.088,-0.23 0.218,-0.52 z m 1.413,1.265 Q 7.818,53.56 7.814,53.45 L 7.813,53.213 Q 7.81,53.086 7.81,52.939 v -0.333 q 0,-0.2 0.003,-0.342 0.002,-0.143 0.017,-0.234 0.014,-0.09 0.042,-0.132 0.03,-0.043 0.082,-0.043 0.025,0 0.048,0.006 0.022,0.006 0.04,0.026 0.016,0.017 0.027,0.053 0.015,0.034 0.017,0.09 l 0.009,0.18 0.005,0.159 q 0.003,0.076 0.003,0.16 v 0.43 q 0,0.116 -0.003,0.229 l -0.005,0.228 q -0.003,0.116 -0.01,0.243 -0.001,0.068 -0.013,0.104 -0.011,0.037 -0.028,0.057 -0.017,0.02 -0.04,0.022 -0.022,0.006 -0.05,0.006 -0.051,0 -0.088,-0.033 Q 7.83,53.778 7.824,53.662 Z m 1.764,0.042 Q 9.498,53.58 9.416,53.458 l -0.172,-0.27 q -0.09,-0.147 -0.21,-0.325 -0.115,-0.18 -0.28,-0.42 v 0.38 l -10e-4,0.31 -0.006,0.272 -0.008,0.254 q -0.003,0.067 -0.014,0.104 -0.01,0.037 -0.026,0.056 -0.017,0.02 -0.04,0.023 -0.02,0.006 -0.047,0.006 -0.051,0 -0.085,-0.034 -0.034,-0.037 -0.04,-0.152 -0.014,-0.31 -0.016,-0.62 v -0.647 q 0,-0.19 0.002,-0.297 0.006,-0.107 0.02,-0.16 0.017,-0.054 0.042,-0.068 0.029,-0.014 0.074,-0.014 0.045,0 0.118,0.07 0.074,0.068 0.16,0.18 0.089,0.114 0.188,0.26 0.1,0.147 0.2,0.302 0.099,0.156 0.189,0.308 l 0.17,0.277 Q 9.631,53.12 9.631,52.963 v -0.357 q 0,-0.223 0.002,-0.367 0.003,-0.146 0.014,-0.23 0.015,-0.086 0.043,-0.12 0.028,-0.034 0.079,-0.034 0.048,0 0.084,0.03 0.037,0.032 0.043,0.145 l 0.008,0.18 0.006,0.159 q 0.003,0.076 0.003,0.16 v 0.43 q 0,0.116 -0.003,0.23 l -0.006,0.227 q -0.002,0.116 -0.008,0.243 -0.003,0.068 -0.014,0.104 -0.01,0.037 -0.026,0.057 -0.017,0.02 -0.04,0.022 -0.02,0.006 -0.047,0.006 -0.048,0 -0.082,-0.028 -0.034,-0.028 -0.1,-0.116 z m 1.524,-1.866 q 0.093,0 0.192,0.017 0.098,0.017 0.18,0.05 0.082,0.032 0.136,0.08 0.053,0.048 0.053,0.11 0,0.065 -0.033,0.099 -0.034,0.034 -0.085,0.034 -0.048,0 -0.09,-0.017 l -0.09,-0.037 q -0.052,-0.02 -0.122,-0.037 -0.07,-0.016 -0.178,-0.016 -0.118,0 -0.223,0.056 -0.101,0.054 -0.18,0.152 -0.08,0.096 -0.125,0.23 -0.045,0.132 -0.045,0.287 0,0.19 0.048,0.327 0.048,0.138 0.124,0.23 0.08,0.09 0.175,0.134 0.1,0.043 0.198,0.043 0.16,0 0.254,-0.046 0.096,-0.048 0.152,-0.12 0.003,-0.06 0.003,-0.142 v -0.178 q 0,-0.037 -0.006,-0.056 -0.005,-0.023 -0.028,-0.034 -0.022,-0.01 -0.067,-0.014 -0.043,-0.003 -0.116,-0.003 -0.09,0 -0.147,-0.023 -0.056,-0.025 -0.056,-0.104 0,-0.057 0.028,-0.09 0.03,-0.037 0.124,-0.043 h 0.054 q 0.04,-0.003 0.08,-0.003 h 0.157 q 0.084,0 0.135,0.017 0.05,0.014 0.09,0.068 0.02,0.028 0.023,0.1 0.006,0.07 0.006,0.162 v 0.728 q 0,0.077 -0.043,0.113 -0.04,0.037 -0.093,0.037 -0.065,0 -0.107,-0.034 -0.04,-0.03 -0.04,-0.102 v -0.11 q -0.073,0.085 -0.175,0.122 -0.098,0.036 -0.25,0.036 -0.156,0 -0.306,-0.062 -0.15,-0.062 -0.265,-0.183 -0.116,-0.124 -0.19,-0.308 -0.07,-0.186 -0.07,-0.43 0,-0.247 0.07,-0.44 0.074,-0.191 0.199,-0.323 0.124,-0.136 0.29,-0.207 0.167,-0.07 0.359,-0.07 z"
       word-spacing="0"
       letter-spacing="0"
       font-size="2.822"
       font-weight="400"
       aria-label="SWING"
       id="path22"
       inkscape:connector-curvature="0" />
  </g>
  <rect
     rx="0.98999995"
     ry="0.98999995"
     y="82.545975"
     x="2.4691286"
     height="3.8950534"
     width="15.034932"
     id="rect26"
     style="fill:#3e3e3e;stroke:#c8c8c8;stroke-width:0.132;paint-order:stroke markers fill" />
  <g
     style="line-height:1.25;stroke-width:0.78124732"
     id="g30"
     transform="matrix(1.2800044,0,0,1.2800044,0,-0.09623859)">
    <path
       style="font-weight:400;font-size:2.82200003px;font-family:Sniglet;-inkscape-font-specification:'Sniglet, Normal';font-variant-ligatures:normal;font-variant-caps:normal;font-variant-numeric:normal;font-feature-settings:normal;text-align:start;letter-spacing:0;word-spacing:0;fill:#ffffff;stroke-width:0.78124732"
       d="m 3.903,65.073 q 0.079,0 0.18,0.014 0.105,0.01 0.195,0.045 0.09,0.03 0.153,0.085 0.062,0.05 0.062,0.127 0,0.045 -0.026,0.076 -0.025,0.03 -0.081,0.03 -0.043,0 -0.088,-0.016 Q 4.256,65.417 4.198,65.4 4.146,65.38 4.072,65.364 4.002,65.347 3.906,65.347 q -0.186,0 -0.277,0.067 -0.087,0.065 -0.087,0.18 0,0.08 0.04,0.134 0.039,0.053 0.104,0.093 0.067,0.036 0.15,0.062 0.084,0.025 0.17,0.048 0.1,0.025 0.196,0.062 0.099,0.037 0.175,0.096 0.076,0.06 0.12,0.15 0.049,0.09 0.049,0.228 0,0.144 -0.053,0.26 -0.054,0.113 -0.147,0.195 -0.093,0.08 -0.223,0.124 -0.13,0.042 -0.282,0.042 -0.085,0 -0.198,-0.017 -0.113,-0.014 -0.214,-0.05 -0.102,-0.04 -0.172,-0.102 -0.07,-0.065 -0.07,-0.158 0,-0.057 0.027,-0.09 0.03,-0.035 0.09,-0.035 0.049,0 0.08,0.02 0.03,0.017 0.053,0.04 0.085,0.073 0.192,0.098 0.107,0.026 0.22,0.026 0.065,0 0.136,-0.008 0.073,-0.01 0.132,-0.042 0.06,-0.03 0.1,-0.088 0.039,-0.06 0.039,-0.158 0,-0.09 -0.037,-0.147 -0.034,-0.06 -0.093,-0.1 -0.06,-0.038 -0.141,-0.063 -0.08,-0.026 -0.172,-0.05 -0.105,-0.03 -0.206,-0.063 -0.102,-0.034 -0.18,-0.09 -0.08,-0.06 -0.13,-0.147 -0.05,-0.09 -0.05,-0.23 0,-0.137 0.052,-0.242 0.05,-0.104 0.138,-0.175 0.088,-0.07 0.206,-0.107 0.122,-0.037 0.26,-0.037 z m 1.727,0.553 q 0.017,-0.04 0.05,-0.065 0.038,-0.025 0.077,-0.025 0.037,0 0.07,0.025 0.035,0.023 0.054,0.062 0.108,0.22 0.212,0.477 0.105,0.254 0.19,0.483 0.047,-0.35 0.104,-0.706 0.056,-0.355 0.127,-0.68 0.008,-0.037 0.025,-0.06 0.017,-0.025 0.037,-0.036 0.02,-0.014 0.04,-0.02 0.022,-0.006 0.036,-0.006 0.048,0 0.079,0.03 0.03,0.024 0.03,0.07 0,0.05 -0.016,0.18 -0.017,0.127 -0.045,0.3 -0.028,0.17 -0.065,0.36 -0.034,0.192 -0.068,0.37 -0.034,0.178 -0.065,0.324 -0.03,0.147 -0.05,0.223 -0.017,0.065 -0.051,0.1 -0.034,0.03 -0.1,0.03 -0.067,0 -0.115,-0.06 -0.045,-0.06 -0.101,-0.19 -0.054,-0.13 -0.13,-0.33 -0.076,-0.204 -0.198,-0.487 -0.124,0.283 -0.203,0.486 -0.076,0.203 -0.133,0.333 -0.053,0.13 -0.101,0.192 -0.048,0.06 -0.113,0.06 -0.113,0 -0.15,-0.13 Q 5.035,66.859 5.004,66.716 4.973,66.568 4.939,66.39 L 4.874,66.024 Q 4.84,65.832 4.814,65.662 L 4.772,65.366 q -0.014,-0.13 -0.014,-0.18 0,-0.05 0.03,-0.08 0.032,-0.03 0.089,-0.03 0.04,0 0.076,0.025 0.037,0.022 0.054,0.096 0.067,0.324 0.118,0.68 0.054,0.356 0.113,0.706 0.087,-0.207 0.175,-0.438 0.087,-0.23 0.217,-0.52 z M 7.044,66.89 Q 7.038,66.79 7.034,66.68 L 7.032,66.442 Q 7.029,66.315 7.029,66.168 v -0.333 q 0,-0.2 0.003,-0.342 0.003,-0.143 0.017,-0.234 0.014,-0.09 0.043,-0.132 0.03,-0.043 0.08,-0.043 0.027,0 0.049,0.006 0.023,0.006 0.04,0.026 0.017,0.017 0.028,0.053 0.014,0.034 0.017,0.09 l 0.009,0.18 0.005,0.159 q 0.003,0.076 0.003,0.16 v 0.43 q 0,0.116 -0.003,0.229 l -0.005,0.228 q -0.003,0.116 -0.01,0.243 -0.002,0.068 -0.013,0.104 -0.011,0.037 -0.028,0.057 -0.017,0.02 -0.04,0.022 -0.022,0.006 -0.05,0.006 -0.051,0 -0.088,-0.033 -0.037,-0.037 -0.042,-0.153 z m 1.764,0.043 Q 8.718,66.809 8.636,66.687 l -0.172,-0.27 q -0.09,-0.147 -0.21,-0.325 -0.115,-0.18 -0.28,-0.42 v 0.38 q 0,0.167 -0.002,0.31 l -0.005,0.272 q -0.003,0.127 -0.01,0.254 -10e-4,0.067 -0.013,0.104 -0.008,0.037 -0.025,0.056 -0.017,0.02 -0.04,0.023 -0.02,0.006 -0.048,0.006 -0.05,0 -0.084,-0.034 -0.034,-0.037 -0.04,-0.152 -0.014,-0.31 -0.017,-0.62 v -0.647 q 0,-0.19 0.003,-0.297 0.006,-0.107 0.02,-0.16 0.017,-0.054 0.042,-0.068 0.028,-0.014 0.074,-0.014 0.045,0 0.118,0.07 0.073,0.068 0.16,0.18 0.088,0.114 0.187,0.26 0.102,0.147 0.2,0.302 0.1,0.156 0.19,0.308 l 0.169,0.277 Q 8.85,66.349 8.85,66.192 v -0.357 q 0,-0.223 0.003,-0.367 0.003,-0.146 0.014,-0.23 0.014,-0.086 0.042,-0.12 0.029,-0.034 0.08,-0.034 0.047,0 0.084,0.03 0.037,0.032 0.042,0.145 l 0.009,0.18 0.006,0.159 q 0.002,0.076 0.002,0.16 v 0.43 q 0,0.116 -0.002,0.23 l -0.006,0.227 q -0.003,0.116 -0.01,0.243 -0.001,0.068 -0.013,0.104 -0.008,0.037 -0.025,0.057 -0.017,0.02 -0.04,0.022 -0.02,0.006 -0.048,0.006 -0.047,0 -0.081,-0.028 -0.034,-0.028 -0.1,-0.116 z m 1.523,-1.866 q 0.094,0 0.192,0.017 0.1,0.017 0.18,0.05 0.083,0.032 0.136,0.08 0.054,0.048 0.054,0.11 0,0.065 -0.034,0.099 -0.034,0.034 -0.084,0.034 -0.048,0 -0.09,-0.017 l -0.091,-0.037 q -0.05,-0.02 -0.121,-0.037 -0.071,-0.016 -0.178,-0.016 -0.12,0 -0.223,0.056 -0.102,0.054 -0.18,0.152 -0.08,0.096 -0.125,0.23 -0.045,0.132 -0.045,0.287 0,0.19 0.048,0.327 0.048,0.138 0.124,0.23 0.079,0.09 0.175,0.134 0.099,0.043 0.198,0.043 0.16,0 0.254,-0.046 0.095,-0.048 0.152,-0.12 0.003,-0.06 0.003,-0.142 v -0.178 q 0,-0.037 -0.006,-0.056 -0.005,-0.023 -0.028,-0.034 -0.023,-0.01 -0.068,-0.014 -0.042,-0.003 -0.116,-0.003 -0.09,0 -0.146,-0.023 -0.057,-0.025 -0.057,-0.104 0,-0.057 0.028,-0.09 0.032,-0.037 0.125,-0.043 h 0.053 q 0.04,-0.003 0.082,-0.003 h 0.155 q 0.085,0 0.136,0.017 0.05,0.014 0.09,0.068 0.02,0.028 0.023,0.1 0.005,0.07 0.005,0.162 v 0.728 q 0,0.077 -0.042,0.113 -0.04,0.037 -0.093,0.037 -0.065,0 -0.107,-0.034 -0.04,-0.03 -0.04,-0.102 v -0.11 q -0.073,0.085 -0.175,0.122 -0.1,0.036 -0.251,0.036 -0.155,0 -0.305,-0.062 -0.15,-0.062 -0.265,-0.183 -0.116,-0.124 -0.19,-0.308 -0.07,-0.186 -0.07,-0.43 0,-0.247 0.07,-0.44 0.074,-0.191 0.198,-0.323 0.124,-0.136 0.29,-0.207 0.168,-0.07 0.359,-0.07 z m 1.899,1.823 q -0.005,-0.1 -0.008,-0.21 0,-0.11 -0.003,-0.238 -0.003,-0.127 -0.003,-0.274 v -0.686 l -0.17,0.088 q -0.07,0.045 -0.112,0.053 -0.04,0.008 -0.088,0.008 -0.042,0 -0.076,-0.036 -0.03,-0.037 -0.03,-0.088 0,-0.05 0.033,-0.087 0.037,-0.04 0.085,-0.07 0.062,-0.043 0.132,-0.086 0.074,-0.042 0.14,-0.076 0.069,-0.037 0.126,-0.056 0.059,-0.023 0.098,-0.023 0.02,0 0.04,0.006 0.022,0.006 0.04,0.023 0.02,0.017 0.03,0.053 0.014,0.034 0.017,0.093 l 0.009,0.178 0.005,0.15 q 0.003,0.07 0.003,0.15 v 0.425 q 0,0.116 -0.003,0.23 l -0.005,0.228 q -0.003,0.115 -0.01,0.242 -0.002,0.068 -0.013,0.105 -0.008,0.037 -0.025,0.056 -0.017,0.02 -0.04,0.023 -0.02,0.006 -0.048,0.006 -0.05,0 -0.084,-0.034 -0.034,-0.037 -0.04,-0.152 z"
       word-spacing="0"
       letter-spacing="0"
       font-size="2.822"
       font-weight="400"
       aria-label="SWING 1"
       id="path28"
       inkscape:connector-curvature="0" />
  </g>
  <rect
     rx="0.98999995"
     ry="0.98999995"
     y="99.480423"
     x="2.1977675"
     height="3.8950534"
     width="15.687734"
     id="rect32"
     style="fill:#3e3e3e;stroke:#c8c8c8;stroke-width:0.132;paint-order:stroke markers fill" />
  <g
     style="line-height:1.25;stroke-width:0.78124732"
     id="g36"
     transform="matrix(1.2800044,0,0,1.2800044,0,-0.09623859)">
    <path
       style="font-weight:400;font-size:2.82200003px;font-family:Sniglet;-inkscape-font-specification:'Sniglet, Normal';font-variant-ligatures:normal;font-variant-caps:normal;font-variant-numeric:normal;font-feature-settings:normal;text-align:start;letter-spacing:0;word-spacing:0;fill:#ffffff;stroke-width:0.78124732"
       d="m 3.563,78.303 q 0.079,0 0.18,0.014 0.105,0.01 0.195,0.045 0.09,0.03 0.153,0.085 0.062,0.05 0.062,0.127 0,0.045 -0.026,0.076 -0.025,0.03 -0.082,0.03 -0.042,0 -0.087,-0.016 -0.042,-0.017 -0.1,-0.034 -0.052,-0.02 -0.126,-0.036 -0.07,-0.017 -0.166,-0.017 -0.187,0 -0.277,0.067 -0.087,0.065 -0.087,0.18 0,0.08 0.04,0.134 0.039,0.053 0.104,0.093 0.067,0.036 0.15,0.062 0.084,0.025 0.17,0.048 0.1,0.025 0.196,0.062 0.099,0.037 0.175,0.096 0.076,0.06 0.12,0.15 0.049,0.09 0.049,0.228 0,0.144 -0.053,0.26 -0.054,0.113 -0.147,0.195 -0.093,0.079 -0.223,0.124 -0.13,0.042 -0.282,0.042 -0.085,0 -0.198,-0.017 Q 3.19,80.287 3.089,80.251 2.987,80.211 2.917,80.149 2.846,80.084 2.846,79.991 q 0,-0.057 0.028,-0.09 0.03,-0.035 0.09,-0.035 0.049,0 0.08,0.02 0.03,0.017 0.053,0.04 0.085,0.073 0.192,0.098 0.107,0.026 0.22,0.026 0.065,0 0.136,-0.008 0.073,-0.011 0.132,-0.042 0.06,-0.031 0.1,-0.088 0.039,-0.06 0.039,-0.158 0,-0.09 -0.037,-0.147 -0.034,-0.06 -0.093,-0.1 Q 3.726,79.469 3.645,79.444 3.565,79.418 3.473,79.393 3.368,79.365 3.267,79.331 3.165,79.297 3.086,79.241 q -0.08,-0.06 -0.13,-0.147 -0.048,-0.09 -0.048,-0.23 0,-0.137 0.05,-0.242 0.052,-0.104 0.14,-0.175 0.087,-0.07 0.205,-0.107 0.122,-0.037 0.26,-0.037 z m 1.727,0.553 q 0.017,-0.04 0.05,-0.065 0.038,-0.025 0.077,-0.025 0.037,0 0.07,0.025 0.035,0.023 0.054,0.062 0.108,0.22 0.212,0.477 0.104,0.254 0.19,0.483 0.047,-0.35 0.104,-0.706 0.056,-0.355 0.127,-0.68 0.008,-0.037 0.025,-0.06 0.017,-0.025 0.037,-0.036 0.02,-0.014 0.04,-0.02 0.022,-0.006 0.036,-0.006 0.048,0 0.079,0.029 0.03,0.025 0.03,0.07 0,0.05 -0.016,0.18 -0.017,0.128 -0.045,0.3 -0.028,0.17 -0.065,0.36 -0.034,0.193 -0.068,0.37 -0.034,0.179 -0.065,0.325 -0.03,0.147 -0.05,0.223 -0.018,0.065 -0.051,0.1 -0.034,0.03 -0.1,0.03 -0.067,0 -0.115,-0.06 -0.045,-0.061 -0.101,-0.191 -0.054,-0.13 -0.13,-0.33 -0.076,-0.203 -0.198,-0.486 -0.124,0.283 -0.203,0.486 -0.076,0.203 -0.133,0.333 -0.053,0.13 -0.101,0.192 -0.048,0.059 -0.113,0.059 -0.113,0 -0.15,-0.13 Q 4.695,80.089 4.664,79.945 4.633,79.798 4.599,79.62 L 4.534,79.254 Q 4.5,79.062 4.474,78.892 L 4.432,78.596 q -0.014,-0.13 -0.014,-0.18 0,-0.05 0.03,-0.08 0.032,-0.03 0.089,-0.03 0.04,0 0.076,0.025 0.037,0.022 0.053,0.096 0.068,0.324 0.119,0.68 0.054,0.356 0.113,0.706 0.087,-0.207 0.175,-0.438 0.087,-0.231 0.217,-0.52 z m 1.413,1.265 q -0.005,-0.102 -0.008,-0.212 0,-0.11 -0.003,-0.237 -0.003,-0.127 -0.003,-0.274 v -0.333 q 0,-0.2 0.003,-0.342 0.003,-0.143 0.017,-0.234 0.014,-0.09 0.042,-0.132 0.03,-0.043 0.082,-0.043 0.026,0 0.048,0.006 0.023,0.006 0.04,0.026 0.017,0.017 0.028,0.053 0.014,0.034 0.017,0.09 l 0.008,0.18 0.006,0.159 q 0.003,0.076 0.003,0.16 v 0.43 q 0,0.116 -0.003,0.229 l -0.006,0.228 q -0.002,0.116 -0.008,0.243 -0.003,0.068 -0.014,0.104 -0.012,0.037 -0.028,0.057 -0.017,0.02 -0.04,0.022 -0.023,0.006 -0.05,0.006 -0.052,0 -0.088,-0.033 -0.037,-0.037 -0.043,-0.153 z m 1.765,0.042 Q 8.378,80.039 8.296,79.917 L 8.123,79.647 Q 8.033,79.5 7.915,79.322 7.799,79.142 7.635,78.902 v 0.38 q 0,0.167 -0.003,0.31 l -0.005,0.272 q -0.003,0.127 -0.01,0.254 -0.002,0.067 -0.013,0.104 -0.008,0.037 -0.025,0.056 -0.017,0.02 -0.04,0.023 -0.02,0.006 -0.048,0.006 -0.05,0 -0.084,-0.034 Q 7.373,80.236 7.367,80.121 7.353,79.811 7.35,79.5 v -0.646 q 0,-0.19 0.003,-0.297 0.006,-0.107 0.02,-0.16 0.017,-0.054 0.042,-0.068 0.028,-0.014 0.073,-0.014 0.046,0 0.119,0.07 0.073,0.068 0.16,0.18 0.088,0.114 0.187,0.26 0.102,0.147 0.2,0.302 0.1,0.156 0.19,0.308 l 0.169,0.277 Q 8.51,79.579 8.51,79.421 v -0.356 q 0,-0.223 0.003,-0.367 0.003,-0.146 0.014,-0.231 0.014,-0.085 0.042,-0.12 0.029,-0.033 0.08,-0.033 0.047,0 0.084,0.03 0.037,0.032 0.042,0.145 l 0.009,0.18 0.005,0.159 q 0.003,0.076 0.003,0.16 v 0.43 q 0,0.116 -0.003,0.229 l -0.005,0.228 q -0.003,0.116 -0.01,0.243 -10e-4,0.068 -0.013,0.104 -0.008,0.037 -0.025,0.057 -0.017,0.02 -0.04,0.022 -0.02,0.006 -0.048,0.006 -0.048,0 -0.082,-0.028 -0.033,-0.028 -0.098,-0.116 z m 1.523,-1.866 q 0.093,0 0.192,0.017 0.099,0.017 0.18,0.05 0.083,0.032 0.136,0.08 0.054,0.048 0.054,0.11 0,0.065 -0.034,0.099 -0.034,0.034 -0.085,0.034 -0.048,0 -0.09,-0.017 l -0.09,-0.037 q -0.051,-0.02 -0.122,-0.037 -0.07,-0.016 -0.177,-0.016 -0.12,0 -0.223,0.056 -0.102,0.054 -0.181,0.152 -0.08,0.096 -0.124,0.229 -0.045,0.133 -0.045,0.288 0,0.189 0.048,0.327 0.048,0.138 0.124,0.229 0.079,0.09 0.175,0.135 0.099,0.043 0.197,0.043 0.16,0 0.254,-0.046 0.096,-0.048 0.153,-0.12 0.003,-0.06 0.003,-0.142 v -0.178 q 0,-0.037 -0.006,-0.056 -0.006,-0.023 -0.028,-0.034 -0.023,-0.011 -0.068,-0.014 -0.042,-0.003 -0.116,-0.003 -0.09,0 -0.146,-0.023 -0.057,-0.025 -0.057,-0.104 0,-0.057 0.028,-0.09 0.03,-0.037 0.125,-0.043 h 0.053 q 0.04,-0.003 0.082,-0.003 h 0.155 q 0.085,0 0.136,0.017 0.05,0.014 0.09,0.068 0.02,0.028 0.023,0.099 0.005,0.07 0.005,0.163 v 0.728 q 0,0.077 -0.042,0.113 -0.04,0.037 -0.093,0.037 -0.065,0 -0.108,-0.034 -0.04,-0.031 -0.04,-0.102 v -0.11 q -0.072,0.085 -0.174,0.122 -0.1,0.036 -0.251,0.036 -0.155,0 -0.305,-0.062 -0.15,-0.062 -0.265,-0.183 -0.116,-0.124 -0.19,-0.308 -0.07,-0.186 -0.07,-0.431 0,-0.246 0.07,-0.438 0.074,-0.192 0.198,-0.324 0.124,-0.136 0.29,-0.207 0.167,-0.07 0.36,-0.07 z m 2.108,0.294 q -0.102,0 -0.17,0.022 -0.067,0.02 -0.112,0.054 -0.046,0.034 -0.074,0.07 l -0.05,0.07 q -0.023,0.035 -0.051,0.058 -0.026,0.02 -0.065,0.02 -0.068,0 -0.096,-0.035 -0.026,-0.036 -0.026,-0.096 0,-0.124 0.093,-0.23 0.029,-0.035 0.077,-0.071 0.05,-0.04 0.118,-0.071 0.07,-0.031 0.16,-0.05 0.094,-0.023 0.21,-0.023 0.308,0 0.477,0.15 0.17,0.149 0.17,0.42 0,0.053 -0.012,0.118 -0.01,0.065 -0.037,0.136 -0.025,0.07 -0.073,0.146 -0.048,0.077 -0.127,0.156 -0.07,0.07 -0.15,0.13 l -0.163,0.118 -0.178,0.127 q -0.09,0.065 -0.184,0.15 0.09,0.048 0.195,0.062 0.104,0.014 0.234,0.014 0.122,0 0.195,-0.006 0.073,-0.006 0.119,-0.014 l 0.07,-0.014 q 0.026,-0.006 0.054,-0.006 0.104,0 0.104,0.096 0,0.084 -0.07,0.13 -0.07,0.044 -0.17,0.067 -0.098,0.02 -0.203,0.023 -0.104,0.006 -0.172,0.006 -0.037,0 -0.104,-0.006 -0.065,-0.003 -0.142,-0.014 -0.076,-0.012 -0.155,-0.032 -0.076,-0.022 -0.14,-0.056 -0.063,-0.037 -0.103,-0.087 -0.04,-0.054 -0.04,-0.127 0,-0.1 0.07,-0.187 0.075,-0.09 0.182,-0.175 0.107,-0.087 0.232,-0.172 0.124,-0.087 0.23,-0.178 0.108,-0.093 0.179,-0.192 0.073,-0.098 0.073,-0.214 0,-0.144 -0.1,-0.214 -0.095,-0.074 -0.275,-0.074 z"
       word-spacing="0"
       letter-spacing="0"
       font-size="2.822"
       font-weight="400"
       aria-label="SWING 2"
       id="path34"
       inkscape:connector-curvature="0" />
  </g>
  <rect
     rx="0.98999995"
     ry="0.98999995"
     y="31.746431"
     x="4.4326553"
     height="3.8950534"
     width="11.196198"
     id="rect38"
     style="fill:#3e3e3e;stroke:#c8c8c8;stroke-width:0.132;paint-order:stroke markers fill" />
  <g
     style="line-height:1.25;stroke-width:0.78124732"
     id="g42"
     transform="matrix(1.2800044,0,0,1.2800044,0,-0.09623859)">
    <path
       style="font-weight:400;font-size:2.82200003px;font-family:Sniglet;-inkscape-font-specification:'Sniglet, Normal';font-variant-ligatures:normal;font-variant-caps:normal;font-variant-numeric:normal;font-feature-settings:normal;text-align:start;letter-spacing:0;word-spacing:0;fill:#ffffff;stroke-width:0.78124732"
       d="m 5.639,27.2 q 0,0.068 -0.014,0.105 -0.011,0.037 -0.03,0.056 -0.018,0.02 -0.043,0.023 Q 5.529,27.39 5.507,27.39 5.43,27.39 5.405,27.356 5.382,27.322 5.374,27.204 5.368,27.142 5.364,27.024 L 5.36,26.741 q 0,-0.164 -0.003,-0.361 v -0.418 q 0,-0.104 0.025,-0.212 0.026,-0.107 0.096,-0.194 0.074,-0.088 0.2,-0.142 0.13,-0.053 0.337,-0.053 0.144,0 0.273,0.03 0.13,0.032 0.229,0.108 0.099,0.076 0.158,0.203 0.06,0.127 0.06,0.316 0,0.198 -0.066,0.328 -0.065,0.13 -0.183,0.206 -0.12,0.076 -0.282,0.107 -0.164,0.03 -0.36,0.03 H 5.75 q -0.048,0 -0.107,-0.005 z m 0.813,-1.188 q 0,-0.19 -0.107,-0.285 -0.105,-0.096 -0.35,-0.096 -0.093,0 -0.161,0.017 -0.065,0.014 -0.107,0.054 -0.043,0.037 -0.065,0.102 -0.02,0.064 -0.02,0.163 v 0.22 q 0,0.122 0.003,0.229 0.065,0.003 0.144,0.003 h 0.152 q 0.085,0 0.175,-0.011 0.093,-0.012 0.167,-0.051 0.073,-0.042 0.12,-0.122 0.049,-0.081 0.049,-0.222 z m 1.282,-0.073 q 0.017,-0.04 0.05,-0.065 0.038,-0.025 0.077,-0.025 0.037,0 0.07,0.025 0.035,0.023 0.054,0.062 0.108,0.22 0.212,0.477 0.105,0.254 0.19,0.483 0.047,-0.35 0.104,-0.706 0.056,-0.355 0.127,-0.68 0.008,-0.037 0.025,-0.06 0.017,-0.025 0.037,-0.036 0.02,-0.014 0.04,-0.02 0.022,-0.006 0.036,-0.006 0.048,0 0.079,0.029 0.03,0.025 0.03,0.07 0,0.05 -0.016,0.18 -0.017,0.128 -0.045,0.3 -0.028,0.17 -0.065,0.36 -0.034,0.193 -0.068,0.37 -0.034,0.179 -0.065,0.325 -0.03,0.147 -0.05,0.223 -0.017,0.065 -0.051,0.1 -0.034,0.03 -0.1,0.03 -0.067,0 -0.115,-0.06 -0.045,-0.061 -0.101,-0.191 -0.054,-0.13 -0.13,-0.33 -0.076,-0.203 -0.198,-0.486 -0.124,0.283 -0.203,0.486 -0.076,0.203 -0.133,0.333 -0.053,0.13 -0.101,0.192 -0.048,0.059 -0.113,0.059 -0.113,0 -0.15,-0.13 Q 7.139,27.172 7.108,27.028 7.077,26.881 7.043,26.703 L 6.978,26.337 Q 6.944,26.145 6.918,25.975 L 6.876,25.679 q -0.014,-0.13 -0.014,-0.18 0,-0.05 0.03,-0.08 0.032,-0.03 0.089,-0.03 0.04,0 0.076,0.025 0.037,0.022 0.054,0.096 0.067,0.324 0.118,0.68 0.054,0.356 0.113,0.706 0.088,-0.207 0.175,-0.438 0.087,-0.231 0.217,-0.52 z m 2.339,1.265 q -0.005,-0.102 -0.008,-0.212 0,-0.11 -0.003,-0.237 -0.003,-0.127 -0.003,-0.274 v -0.686 l -0.17,0.088 q -0.07,0.045 -0.112,0.053 -0.04,0.008 -0.088,0.008 -0.042,0 -0.076,-0.036 -0.03,-0.037 -0.03,-0.088 0,-0.05 0.033,-0.087 0.037,-0.04 0.085,-0.071 0.062,-0.042 0.132,-0.085 0.074,-0.042 0.14,-0.076 0.069,-0.037 0.126,-0.056 0.059,-0.023 0.098,-0.023 0.02,0 0.04,0.006 0.023,0.006 0.04,0.023 0.02,0.017 0.03,0.053 0.015,0.034 0.017,0.093 l 0.009,0.178 0.006,0.15 q 0.002,0.07 0.002,0.15 V 26.5 q 0,0.116 -0.002,0.23 l -0.006,0.228 q -0.003,0.115 -0.01,0.242 -0.001,0.068 -0.013,0.105 -0.008,0.037 -0.025,0.056 -0.017,0.02 -0.04,0.023 -0.02,0.006 -0.048,0.006 -0.05,0 -0.084,-0.034 -0.034,-0.037 -0.04,-0.152 z"
       word-spacing="0"
       letter-spacing="0"
       font-size="2.822"
       font-weight="400"
       aria-label="PW 1"
       id="path40"
       inkscape:connector-curvature="0" />
  </g>
  <g
     style="line-height:1.25;stroke-width:0.78124732"
     id="g46"
     transform="matrix(1.2800044,0,0,1.2800044,0,-0.09623859)">
    <path
       d="m 6.419,13.97 q 0,0.069 -0.013,0.106 -0.012,0.037 -0.032,0.056 -0.016,0.02 -0.042,0.023 Q 6.31,14.16 6.287,14.16 6.211,14.16 6.185,14.127 6.163,14.093 6.155,13.974 6.149,13.912 6.145,13.794 L 6.14,13.511 q 0,-0.163 -0.003,-0.36 v -0.42 q 0,-0.103 0.026,-0.21 0.025,-0.108 0.096,-0.195 0.073,-0.087 0.2,-0.141 0.13,-0.054 0.336,-0.054 0.144,0 0.274,0.03 0.13,0.032 0.228,0.109 0.1,0.076 0.158,0.203 0.06,0.127 0.06,0.316 0,0.197 -0.065,0.327 -0.065,0.13 -0.184,0.206 -0.118,0.076 -0.282,0.107 -0.164,0.032 -0.358,0.032 H 6.53 q -0.048,0 -0.108,-0.006 z m 0.813,-1.187 q 0,-0.19 -0.107,-0.285 -0.104,-0.096 -0.35,-0.096 -0.093,0 -0.16,0.017 -0.066,0.014 -0.108,0.054 -0.042,0.036 -0.065,0.1 -0.02,0.066 -0.02,0.165 v 0.22 q 0,0.122 0.003,0.229 0.065,0.003 0.144,0.003 h 0.153 q 0.084,0 0.175,-0.012 0.093,-0.011 0.166,-0.05 0.073,-0.043 0.12,-0.122 0.049,-0.082 0.049,-0.223 z M 8.515,12.71 q 0.017,-0.04 0.05,-0.065 0.037,-0.025 0.077,-0.025 0.036,0 0.07,0.025 0.034,0.023 0.054,0.062 0.107,0.22 0.212,0.477 0.104,0.254 0.189,0.483 0.048,-0.35 0.104,-0.706 0.057,-0.356 0.127,-0.68 0.009,-0.037 0.025,-0.06 0.017,-0.025 0.037,-0.036 0.02,-0.014 0.04,-0.02 0.022,-0.005 0.036,-0.005 0.048,0 0.08,0.028 0.03,0.025 0.03,0.07 0,0.05 -0.016,0.18 -0.017,0.128 -0.046,0.3 -0.028,0.169 -0.065,0.36 -0.033,0.193 -0.067,0.37 -0.034,0.179 -0.065,0.326 -0.031,0.146 -0.051,0.223 -0.017,0.065 -0.05,0.098 -0.035,0.03 -0.1,0.03 -0.067,0 -0.115,-0.058 Q 9.026,14.025 8.969,13.895 8.916,13.765 8.839,13.565 8.763,13.362 8.642,13.08 8.518,13.362 8.439,13.565 8.362,13.768 8.306,13.898 8.252,14.028 8.204,14.09 8.156,14.15 8.091,14.15 7.979,14.15 7.941,14.02 7.919,13.943 7.888,13.8 L 7.823,13.475 Q 7.793,13.297 7.758,13.108 7.725,12.916 7.698,12.747 L 7.657,12.45 q -0.014,-0.13 -0.014,-0.18 0,-0.048 0.03,-0.08 0.032,-0.03 0.088,-0.03 0.04,0 0.076,0.025 0.037,0.023 0.054,0.096 0.068,0.324 0.119,0.68 0.053,0.356 0.112,0.706 0.088,-0.206 0.175,-0.438 0.088,-0.231 0.218,-0.52 z"
       style="font-weight:400;font-size:2.82200003px;font-family:Sniglet;-inkscape-font-specification:'Sniglet, Normal';font-variant-ligatures:normal;font-variant-caps:normal;font-variant-numeric:normal;font-feature-settings:normal;text-align:start;letter-spacing:0;word-spacing:0;fill:#ffffff;stroke-width:0.78124732"
       aria-label="PW"
       font-weight="400"
       font-size="2.822"
       letter-spacing="0"
       word-spacing="0"
       id="path44"
       inkscape:connector-curvature="0" />
  </g>
</svg>
