<svg xmlns="http://www.w3.org/2000/svg" xmlns:xlink="http://www.w3.org/1999/xlink" width="120" height="380" viewBox="0 0 31.75 100.542"><defs><linearGradient id="a"><stop offset="0" stop-color="#dcdcdc"/><stop offset="1"/></linearGradient><linearGradient xlink:href="#a" id="f" x1="29.292" y1="22.798" x2="29.292" y2="13.944" gradientUnits="userSpaceOnUse" gradientTransform="matrix(.55968 0 0 .9602 12.124 -.182)"/><linearGradient xlink:href="#b" id="d" x1="26.759" y1="162" x2="30.999" y2="162" gradientUnits="userSpaceOnUse" gradientTransform="matrix(1 0 0 .56406 0 70.452)"/><linearGradient id="b"><stop offset="0" stop-color="#fff"/><stop offset="1" stop-color="#fff" stop-opacity="0"/></linearGradient><linearGradient xlink:href="#c" id="e" x1="26.759" y1="162" x2="30.999" y2="162" gradientUnits="userSpaceOnUse" gradientTransform="matrix(.99995 0 0 .53173 135.453 -112.052)"/><linearGradient id="c"><stop offset="0" stop-color="#fff" stop-opacity=".992"/><stop offset="1" stop-color="#fff" stop-opacity="0"/></linearGradient><linearGradient xlink:href="#a" id="g" x1="29.292" y1="22.798" x2="29.292" y2="13.944" gradientUnits="userSpaceOnUse" gradientTransform="matrix(.55968 0 0 .9602 12.124 11.46)"/><linearGradient xlink:href="#a" id="h" x1="29.292" y1="22.798" x2="29.292" y2="13.944" gradientUnits="userSpaceOnUse" gradientTransform="matrix(.55968 0 0 .9602 12.124 23.101)"/><linearGradient xlink:href="#a" id="i" x1="29.292" y1="22.798" x2="29.292" y2="13.944" gradientUnits="userSpaceOnUse" gradientTransform="matrix(.55968 0 0 .9602 12.124 34.743)"/></defs><path d="M0 0h31.75v100.541H0zm0 0" fill="#191919"/><g style="line-height:1.25"><path word-spacing="0" letter-spacing="0" font-weight="400" aria-label="♫" font-size="3.528" style="-inkscape-font-specification:'Arial, Normal';font-variant-ligatures:normal;font-variant-caps:normal;font-variant-numeric:normal;font-feature-settings:normal;text-align:start" d="M16.218 96.87l-1.63.114v-2.06q0-.23.065-.333.064-.104.22-.147.153-.043.347-.002.224.047.357.19.133.146.133.33 0 .186-.158.286-.157.103-.407.05-.082-.018-.144-.044-.063-.027-.205-.11v1.345l1.22-.085V94.85q0-.225.065-.337.065-.11.225-.15.16-.04.35 0 .222.046.353.19.13.14.13.324 0 .195-.157.294-.155.1-.407.047-.16-.034-.357-.16z" font-family="Arial" fill="#969696"/></g><g style="line-height:1.25"><path word-spacing="0" letter-spacing="0" font-weight="400" aria-label="1" font-size="2.822" style="-inkscape-font-specification:'Sniglet, Normal';font-variant-ligatures:normal;font-variant-caps:normal;font-variant-numeric:normal;font-feature-settings:normal;text-align:start" d="M2.766 18.296q-.006-.102-.01-.212v-.237q-.004-.127-.004-.273v-.686l-.17.087q-.07.045-.112.054-.04.008-.088.008-.042 0-.076-.036-.03-.037-.03-.088 0-.05.033-.087.036-.04.084-.07.062-.043.133-.086.073-.042.14-.076.07-.036.125-.056.06-.023.1-.023.02 0 .04.006.021.005.04.022.018.017.03.054.013.034.016.093l.01.178.004.15q.003.07.003.15v.425q0 .116-.003.23l-.005.227q-.003.116-.01.243-.002.068-.013.105-.01.036-.025.056-.017.02-.04.023-.02.005-.048.005-.05 0-.085-.034-.033-.036-.04-.152z" font-family="Sniglet" fill="#c8c8c8"/></g><g style="line-height:1.25"><path word-spacing="0" letter-spacing="0" font-weight="400" aria-label="2" font-size="2.822" style="-inkscape-font-specification:'Sniglet, Normal';font-variant-ligatures:normal;font-variant-caps:normal;font-variant-numeric:normal;font-feature-settings:normal;text-align:start" d="M2.645 28.397q-.102 0-.17.022-.067.02-.112.054t-.074.07l-.05.07q-.023.035-.05.058-.027.02-.066.02-.068 0-.096-.034-.025-.037-.025-.096 0-.125.093-.232.028-.034.076-.07.05-.04.118-.07.071-.032.161-.05.093-.024.21-.024.307 0 .476.15.17.15.17.42 0 .053-.012.118-.008.065-.037.136-.025.07-.073.146-.048.077-.127.156-.07.07-.15.13-.079.06-.163.118l-.178.127q-.09.065-.183.15.09.048.194.062.105.014.235.014.12 0 .194-.006.074-.005.12-.014l.07-.014q.025-.006.053-.006.104 0 .104.096 0 .085-.07.13t-.17.068q-.098.02-.203.023-.104.005-.172.005-.037 0-.104-.005-.065-.003-.14-.015-.078-.01-.157-.03-.076-.023-.14-.057-.063-.037-.102-.088-.04-.053-.04-.127 0-.098.07-.186.074-.09.181-.175.108-.087.232-.172.124-.087.231-.178.107-.093.178-.192.073-.098.073-.214 0-.144-.098-.215-.096-.073-.277-.073z" font-family="Sniglet" fill="#c8c8c8"/></g><g style="line-height:1.25"><path word-spacing="0" letter-spacing="0" font-weight="400" aria-label="3" font-size="2.822" style="-inkscape-font-specification:'Sniglet, Normal';font-variant-ligatures:normal;font-variant-caps:normal;font-variant-numeric:normal;font-feature-settings:normal;text-align:start" d="M2.182 40.055q-.09 0-.132-.045-.043-.048-.043-.096 0-.05.048-.082.048-.033.127-.05.08-.02.18-.026.103-.008.207-.008.087 0 .195.008.107.006.2.034.093.026.155.08.062.05.062.14 0 .07-.053.147-.054.076-.124.144-.07.068-.142.12l-.098.075q.3 0 .434.15.136.15.136.428 0 .175-.065.305-.062.13-.17.217-.104.085-.242.127-.136.043-.28.043-.118 0-.234-.02-.113-.02-.203-.068-.09-.05-.147-.132-.053-.085-.053-.21 0-.13.14-.13.043 0 .066.023.025.02.042.05.02.029.04.066.02.037.056.068.04.028.102.05.064.02.17.02.081 0 .16-.016.08-.02.141-.063.062-.042.1-.112.04-.074.04-.18 0-.21-.089-.297-.085-.088-.24-.088-.04 0-.074.014-.034.012-.067.028l-.07.03q-.038.01-.083.01-.045 0-.08-.04-.033-.042-.033-.107 0-.045.043-.104.045-.06.12-.136.08-.076.19-.166.11-.093.246-.2h-.068l-.076.002h-.347q-.102-.003-.187-.003z" font-family="Sniglet" fill="#c8c8c8"/></g><g style="line-height:1.25"><path word-spacing="0" letter-spacing="0" font-weight="400" aria-label="4" font-size="2.822" style="-inkscape-font-specification:'Sniglet, Normal';font-variant-ligatures:normal;font-variant-caps:normal;font-variant-numeric:normal;font-feature-settings:normal;text-align:start" d="M3.037 52.803q-.002.107-.002.234t-.01.237q-.004.085-.04.11-.03.023-.086.023-.05 0-.08-.02-.024-.017-.04-.076-.01-.062-.012-.178-.003-.118-.003-.316-.093 0-.178.003-.085.003-.164.003-.118 0-.217-.006-.096-.005-.166-.02-.068-.017-.108-.045-.036-.028-.036-.073 0-.062.05-.155.05-.096.127-.206.077-.11.16-.223l.162-.215.096-.124q.065-.082.138-.16.074-.083.147-.142.073-.06.124-.06.048 0 .085.032.037.03.042.144.012.163.014.344.003.178.003.353v.28q.08.005.127.013.048.01.074.026.025.014.033.036.01.023.01.057 0 .07-.066.096-.065.022-.183.028zm-.276-.923l-.212.257-.146.18q-.06.077-.105.13l-.076.096q.13-.005.265-.005.14-.003.274-.003z" font-family="Sniglet" fill="#c8c8c8"/></g><rect rx="2.34" ry="2.34" y="67.615" x="3.174" height="25.174" width="25.4" fill="#3e3e3e" stroke="#c8c8c8" stroke-width=".265" paint-order="stroke markers fill"/><g style="line-height:1.25"><path d="M13.922 69.395q-.08.006-.17.01l-.194.004.006.144.006.133q.002.068.002.14.003.074.003.165v.245q0 .116-.003.235l-.005.234q-.003.118-.01.245-.002.068-.013.105-.008.036-.025.056-.017.02-.04.023-.022.005-.05.005-.05 0-.088-.034-.034-.036-.04-.152-.005-.102-.008-.214 0-.113-.003-.243t-.003-.28v-.606q.003-.116.01-.2h-.117q-.118 0-.203-.003-.082-.003-.136-.015-.053-.014-.08-.042-.02-.028-.02-.08 0-.024.004-.044.006-.023.026-.04.02-.02.054-.03.036-.012.093-.018l.096-.005.084-.006q.043-.003.088-.003h.104q.167 0 .313.003.15.003.317.01.067.007.104.018.037.01.056.026.02.017.023.04.006.022.006.05 0 .05-.037.085-.034.034-.15.04zm1.5 1.54l-.01-.318q-.004-.17-.004-.39-.09.004-.192.006h-.44q-.105 0-.186-.002l-.006.344q-.003.164-.01.358-.004.068-.015.105-.01.036-.026.056-.017.02-.04.023-.02.005-.047.005-.05 0-.085-.033-.034-.037-.04-.153-.005-.1-.008-.212 0-.11-.003-.237t-.003-.273v-.333q0-.2.003-.342.003-.144.014-.234.014-.09.043-.133.028-.042.08-.042.047 0 .083.03.037.032.043.145l.008.175.006.152q.003.074.003.153v.175q.21-.01.414-.01.1 0 .198.004l.206.008v-.08q0-.2.003-.343.003-.144.014-.234.014-.09.042-.133.03-.042.08-.042.047 0 .084.03.037.032.042.145l.01.18.004.16q.003.075.003.16v.428q0 .116-.003.23l-.005.228q-.003.115-.01.242 0 .068-.013.105-.008.036-.025.056-.017.02-.04.023-.02.005-.048.005-.05 0-.084-.034-.034-.036-.04-.152zm1.257-.518l-.082.005h-.178q-.048 0-.107-.005v.573q0 .09-.045.113-.042.02-.107.02-.034 0-.054-.006-.02-.003-.034-.014-.01-.014-.02-.04-.005-.025-.008-.07-.006-.05-.008-.147l-.006-.254q0-.155-.003-.375v-.523q0-.115.028-.223.03-.11.102-.19.073-.086.198-.137.127-.05.32-.05.14 0 .27.03.132.03.234.108.1.076.163.206.062.13.062.324 0 .26-.112.404-.11.14-.305.2l.378.52q.05.067.05.138 0 .056-.04.087-.035.034-.092.034-.062 0-.107-.034-.045-.036-.085-.093zm.443-.658q0-.194-.118-.288-.116-.096-.37-.096-.093 0-.155.017-.062.015-.1.057-.036.042-.053.118-.014.074-.014.19v.19q0 .11.003.2.065.005.144.005h.152q.08 0 .167-.01.09-.01.166-.05.077-.042.127-.12.05-.077.05-.213zm1.21 1.4q-.32 0-.47-.175-.06-.068-.1-.172-.04-.107-.066-.277-.023-.17-.034-.417-.01-.25-.01-.61 0-.116.007-.19.005-.075.022-.117.017-.046.043-.063.028-.017.07-.017.082 0 .116.074.034.073.034.254 0 .062-.003.11v.1q0 .047-.003.106v.144q0 .282.017.468.02.187.065.3.045.11.12.155.08.045.196.045.122 0 .2-.048.082-.05.13-.167.048-.118.068-.313.023-.195.023-.485 0-.127-.003-.218v-.162q0-.105.006-.175.008-.07.022-.11.017-.043.045-.06.028-.017.07-.017.043 0 .07.017.03.017.047.06.016.042.022.118.006.074.006.192 0 .497-.03.82-.032.317-.11.504-.08.183-.22.257-.134.07-.35.07z" style="-inkscape-font-specification:'Sniglet, Normal';font-variant-ligatures:normal;font-variant-caps:normal;font-variant-numeric:normal;font-feature-settings:normal;text-align:start" aria-label="THRU" font-weight="400" font-size="2.822" letter-spacing="0" word-spacing="0" font-family="Sniglet" fill="#c8c8c8"/></g><g style="line-height:1.25"><path d="M8.937 70.949q-.005-.101-.008-.211l-.002-.238q-.003-.127-.003-.274v-.686l-.17.088q-.07.045-.112.053-.04.009-.088.009-.042 0-.076-.037-.031-.036-.031-.087t.034-.088q.036-.04.084-.07.063-.043.133-.085.073-.042.14-.076.069-.037.125-.057.06-.022.1-.022.019 0 .039.005.022.006.04.023.019.017.03.054.014.033.017.093l.009.178.005.15q.003.07.003.149v.426q0 .116-.003.228l-.005.23q-.003.115-.01.242-.002.067-.013.104-.008.037-.025.057-.017.02-.04.022-.02.006-.048.006-.05 0-.085-.034-.033-.037-.04-.152z" style="-inkscape-font-specification:'Sniglet, Normal';font-variant-ligatures:normal;font-variant-caps:normal;font-variant-numeric:normal;font-feature-settings:normal;text-align:start" font-size="2.822" aria-label="1" font-weight="400" letter-spacing="0" word-spacing="0" font-family="Sniglet" fill="#c8c8c8"/></g><g style="line-height:1.25"><path d="M22.667 69.41q-.102 0-.17.022-.067.02-.112.054t-.074.07l-.05.07q-.023.035-.05.058-.027.02-.066.02-.068 0-.096-.034-.025-.037-.025-.096 0-.125.093-.232.028-.034.076-.07.05-.04.118-.07.07-.032.16-.05.094-.024.21-.024.308 0 .477.15.17.15.17.42 0 .053-.012.118-.008.065-.037.136-.025.07-.073.146-.048.077-.127.156-.07.07-.15.13-.078.06-.163.118l-.178.127q-.09.065-.183.15.09.048.194.062.105.014.235.014.12 0 .194-.006.074-.005.12-.014l.07-.014q.025-.006.053-.006.104 0 .104.096 0 .085-.07.13t-.17.068q-.098.02-.203.023-.104.005-.172.005-.037 0-.104-.005-.065-.003-.14-.015-.078-.01-.157-.03-.076-.023-.14-.057-.063-.037-.102-.088-.04-.053-.04-.127 0-.098.07-.186.074-.09.18-.175.109-.087.233-.172.124-.087.23-.178.108-.093.179-.192.073-.098.073-.214 0-.144-.098-.215-.096-.073-.277-.073z" style="-inkscape-font-specification:'Sniglet, Normal';font-variant-ligatures:normal;font-variant-caps:normal;font-variant-numeric:normal;font-feature-settings:normal;text-align:start" font-size="2.822" aria-label="2" font-weight="400" letter-spacing="0" word-spacing="0" font-family="Sniglet" fill="#c8c8c8"/></g><g style="line-height:1.25"><path d="M8.376 81.752q-.09 0-.132-.045-.043-.048-.043-.096 0-.05.048-.082.048-.034.127-.05.08-.02.18-.026.103-.01.207-.01.087 0 .195.01.107.006.2.034.093.025.155.08.062.05.062.14 0 .07-.053.147-.054.076-.124.144-.071.067-.142.12l-.098.074q.299 0 .434.15.136.15.136.43 0 .174-.065.304-.062.13-.17.217-.104.085-.242.127-.136.042-.28.042-.118 0-.234-.02-.113-.02-.203-.067-.09-.05-.147-.133-.053-.084-.053-.21 0-.13.14-.13.043 0 .066.024.025.02.042.05.02.03.04.066.02.037.056.068.04.028.102.05.064.02.169.02.082 0 .16-.017.08-.02.142-.062.062-.042.099-.113.04-.073.04-.18 0-.21-.088-.297-.085-.087-.24-.087-.04 0-.074.014-.034.01-.067.028l-.07.028q-.038.012-.083.012-.045 0-.08-.04-.033-.042-.033-.107 0-.045.043-.105.045-.06.12-.135.08-.076.19-.166.11-.094.246-.2h-.068l-.076.002h-.347q-.102-.003-.187-.003z" style="-inkscape-font-specification:'Sniglet, Normal';font-variant-ligatures:normal;font-variant-caps:normal;font-variant-numeric:normal;font-feature-settings:normal;text-align:start" font-size="2.822" aria-label="3" font-weight="400" letter-spacing="0" word-spacing="0" font-family="Sniglet" fill="#c8c8c8"/></g><g style="line-height:1.25"><path d="M23.085 82.816q-.003.107-.003.234t-.008.237q-.006.085-.04.11-.03.023-.087.023-.05 0-.08-.02-.025-.017-.04-.076-.01-.062-.013-.178-.003-.12-.003-.316-.093 0-.177.003l-.164.002q-.12 0-.217-.005-.096-.006-.167-.02-.068-.017-.107-.045-.037-.028-.037-.073 0-.063.05-.156.052-.096.128-.206.076-.11.16-.223l.162-.214.096-.124q.065-.082.138-.161.073-.082.147-.141.073-.06.124-.06.048 0 .085.03.036.033.042.145.01.164.014.345.003.178.003.352v.28q.08.005.127.014.048.009.073.025.026.015.034.037.008.023.008.057 0 .07-.064.096-.065.022-.184.028zm-.276-.923l-.212.257-.147.18q-.06.077-.104.13l-.077.096q.13-.006.266-.006l.274-.002z" style="-inkscape-font-specification:'Sniglet, Normal';font-variant-ligatures:normal;font-variant-caps:normal;font-variant-numeric:normal;font-feature-settings:normal;text-align:start" font-size="2.822" aria-label="4" font-weight="400" letter-spacing="0" word-spacing="0" font-family="Sniglet" fill="#c8c8c8"/></g><g transform="translate(-26.48 -161.296)"><rect rx=".206" width="4.24" height=".439" x="26.759" y="161.611" ry=".206" fill="url(#d)"/><rect rx=".194" width="4.24" height=".413" x="162.21" y="-26.119" ry=".194" transform="matrix(.00655 .99998 -.99973 .02317 0 0)" fill="url(#e)"/></g><rect width="14.743" height="8.501" x="13.776" y="13.206" rx="1.323" ry="1.323" fill="url(#f)" fill-rule="evenodd"/><rect width="14.743" height="8.501" x="13.776" y="24.848" rx="1.323" ry="1.323" fill="url(#g)" fill-rule="evenodd"/><rect width="14.743" height="8.501" x="13.776" y="36.489" rx="1.323" ry="1.323" fill="url(#h)" fill-rule="evenodd"/><rect width="14.743" height="8.501" x="13.776" y="48.131" rx="1.323" ry="1.323" fill="url(#i)" fill-rule="evenodd"/><g style="line-height:1.25"><path d="M5.553 6.653q0-.355.026-.554.025-.203.105-.305.08-.101.23-.123.147-.025.389-.025h.245q.11 0 .212.004.106 0 .207.004l.229.009q.101.008.156.025.055.013.085.038.03.026.034.06.008.034.008.076 0 .076-.055.127-.05.05-.224.06-.106.003-.207.008l-.225.008q-.123 0-.28.004h-.376q-.076 0-.106.055-.03.051-.03.132v.127q.005.063.005.14.004.075.004.173.004.093.004.22.157 0 .271.004.119 0 .203.004.09 0 .157.005l.131.008q.174.009.225.06.055.05.055.126 0 .043-.009.077-.004.033-.034.059-.03.025-.084.042-.055.017-.157.026l-.131.008q-.06 0-.144.004h-.483q-.004.254-.004.521.004.262-.013.542-.008.165-.059.203-.047.034-.144.034-.093 0-.14-.038-.046-.043-.055-.195-.008-.135-.012-.296 0-.165-.005-.373-.004-.211-.004-.474v-.61zM8.78 8.664q-.254 0-.479-.101-.22-.102-.385-.292-.165-.195-.262-.474-.094-.28-.094-.635 0-.335.08-.614.086-.28.246-.483.166-.203.407-.313.241-.115.559-.115.258 0 .49.094.234.093.407.279.178.186.28.466.101.28.101.652 0 .309-.085.588-.08.28-.25.491-.164.208-.418.335-.254.122-.597.122zm.008-.398q.233 0 .407-.093.173-.097.287-.254.115-.156.17-.36.055-.207.055-.423 0-.262-.072-.466-.068-.207-.186-.347-.119-.14-.276-.211-.156-.077-.334-.077-.212 0-.373.09-.156.088-.266.24-.106.153-.161.36-.055.204-.055.437 0 .25.063.457.064.203.17.347.11.144.258.224.148.076.313.076zm2.788.428q-.483 0-.707-.262-.09-.102-.153-.259-.059-.16-.097-.415-.034-.254-.05-.626-.013-.377-.013-.915 0-.173.008-.283.009-.114.034-.178.025-.068.063-.093.043-.026.106-.026.123 0 .174.11.05.11.05.382 0 .093-.004.165v.148q0 .072-.004.16v.217q0 .423.026.702.03.28.097.45.068.164.182.232.119.068.292.068.182 0 .3-.072.123-.077.195-.25.072-.178.102-.47.034-.292.034-.728 0-.19-.004-.326v-.246q0-.156.008-.262.013-.106.034-.165.025-.064.068-.09.042-.025.106-.025.063 0 .105.026.043.025.068.089.026.063.034.178.009.11.009.287 0 .746-.047 1.228-.047.479-.165.758-.119.275-.326.385-.203.106-.525.106zm2.545-1.114L14 7.59h-.267q-.072 0-.16-.01v.86q0 .135-.069.17-.063.029-.16.029-.051 0-.081-.009-.03-.004-.05-.02-.018-.022-.03-.06-.009-.038-.013-.106-.009-.076-.013-.22l-.008-.38q0-.234-.004-.564v-.783q0-.174.042-.335.042-.165.152-.287.11-.127.297-.204.19-.076.482-.076.208 0 .402.047.2.046.352.16.152.115.245.31.093.194.093.486 0 .39-.169.606-.165.211-.457.3l.567.78q.076.1.076.207 0 .084-.059.131-.055.05-.14.05-.093 0-.16-.05-.068-.055-.128-.14zm.665-.986q0-.292-.178-.432-.173-.144-.554-.144-.14 0-.233.026-.093.021-.148.085-.055.063-.08.177-.022.11-.022.284v.288q0 .165.004.3.098.005.216.005h.229q.118 0 .25-.013.135-.017.25-.076.114-.064.19-.178.076-.119.076-.322zm2.211.97l-.45.017q-.253.004-.6.004-.144 0-.246-.004-.101-.005-.165-.022-.063-.02-.093-.063-.03-.042-.03-.119 0-.038.009-.067.008-.034.038-.06.03-.025.08-.042.055-.021.14-.03l.11-.008q.05-.004.097-.004.047-.004.098-.004h.127q.228 0 .44.004.212 0 .44.012.102.009.157.026.055.013.085.038.03.025.034.06.008.033.008.075 0 .077-.055.127-.05.051-.224.06zm1.775.889q-.055.101-.101.148-.043.046-.11.046-.068 0-.119-.046-.05-.047-.11-.144-.076-.127-.174-.351-.093-.225-.19-.487-.097-.267-.19-.55-.094-.284-.17-.534-.072-.25-.118-.436-.043-.19-.043-.271 0-.085.034-.127.034-.042.131-.042.055 0 .094.03.042.025.105.152.051.097.11.254.06.156.123.347.068.19.136.402l.135.415q.068.207.127.398l.11.343.114-.347.132-.398.135-.415q.068-.212.136-.398.067-.186.127-.343.059-.157.105-.258.06-.123.102-.153.047-.03.093-.03.098 0 .131.051.039.047.039.14 0 .085-.026.203-.025.119-.089.318-.059.195-.16.487l-.25.715q-.038.114-.09.237-.046.123-.097.242-.046.114-.093.22-.046.105-.089.182zm1.298-.093q-.009-.153-.013-.318 0-.165-.004-.356-.004-.19-.004-.41v-.5q0-.3.004-.512.004-.216.025-.351.021-.136.064-.2.046-.063.122-.063.039 0 .072.009.034.008.06.038.025.025.042.08.021.051.025.136.009.152.013.27l.009.238q.004.114.004.241v.643q0 .174-.004.343l-.009.343q-.004.174-.013.364-.004.102-.02.157-.018.055-.043.085-.026.03-.06.033-.033.009-.076.009-.076 0-.13-.05-.056-.056-.064-.23zm.995-.381q-.008-.136-.017-.369-.008-.233-.008-.478v-.288l.008-.309q.009-.313.038-.491.034-.178.127-.267.098-.089.271-.11.174-.021.462-.021h.089q.088 0 .211.004.123 0 .254.004l.225.009q.093.008.148.025.059.013.089.038.03.022.038.055.008.03.008.068 0 .098-.055.144-.055.042-.224.055-.085.009-.25.013h-.33q-.17 0-.305.004h-.17q-.11.004-.156.05-.042.043-.042.208l.004.187q.008.143.008.406h.352q.224 0 .364.008.144.005.22.026.08.021.11.068.03.046.03.122 0 .038-.009.072-.004.03-.034.055-.03.021-.084.038-.055.013-.157.022-.123.008-.233.012h-.567v.517l.008.144q.005.067.017.114.017.047.055.076.043.03.119.043.08.012.212.012h.91q.148 0 .186.055.038.055.038.148 0 .077-.034.119-.034.038-.165.055-.127.021-.385.025-.254.005-.703.005-.19 0-.313-.034t-.199-.115q-.076-.08-.114-.207-.034-.131-.047-.317zm3.499-1.516q.026-.06.077-.097.055-.038.114-.038.055 0 .106.038.05.033.08.093.161.33.318.715.156.381.283.724.072-.525.157-1.058.085-.534.19-1.02.013-.056.038-.09.026-.037.056-.054.03-.022.059-.03.034-.009.055-.009.072 0 .118.043.047.038.047.106 0 .076-.025.27-.026.191-.068.45-.043.253-.098.541-.05.288-.101.555-.051.266-.098.487-.046.22-.076.334-.025.097-.076.148-.05.047-.148.047-.102 0-.174-.09-.067-.092-.152-.287-.08-.195-.195-.495-.114-.305-.296-.728-.186.423-.305.728-.114.304-.199.5-.08.194-.152.287-.072.089-.17.089-.169 0-.224-.195-.034-.114-.08-.33-.047-.22-.098-.487l-.097-.55q-.051-.288-.09-.542l-.063-.444q-.02-.195-.02-.271 0-.072.046-.119t.131-.047q.06 0 .114.039.055.033.08.144.102.486.179 1.02.08.533.169 1.058.131-.309.262-.656.132-.347.326-.779z" style="-inkscape-font-specification:'Sniglet, Normal';font-variant-ligatures:normal;font-variant-caps:normal;font-variant-numeric:normal;font-feature-settings:normal;text-align:start" aria-label="FOUR-VIEW" font-weight="400" font-size="4.233" font-family="Sniglet" letter-spacing="0" word-spacing="0" fill="#c8c8c8" stroke-width=".265"/></g><g style="line-height:1.25"><path d="M3.778 62.784q-.09-.124-.172-.245l-.172-.271q-.09-.147-.209-.325-.116-.18-.28-.42v.38q0 .167-.002.311l-.006.271-.008.254q-.003.068-.014.105-.009.036-.026.056-.017.02-.04.023-.02.005-.047.005-.051 0-.085-.034-.034-.036-.04-.152-.014-.31-.016-.62v-.647q0-.19.002-.297.006-.107.02-.16.017-.054.042-.068.029-.014.074-.014t.118.07q.074.068.161.18.088.114.186.26.102.147.2.303.1.155.19.307l.17.277q-.004-.133-.004-.29v-.357q0-.222.003-.366.003-.147.014-.232.015-.085.043-.118.028-.034.079-.034.048 0 .084.03.037.032.043.145l.008.18.006.158q.003.077.003.161v.429q0 .116-.003.229l-.006.228-.008.243q-.003.068-.014.105-.009.036-.026.056-.017.02-.04.023-.019.005-.047.005-.048 0-.082-.028t-.099-.116zm1.419.161q-.169 0-.319-.068-.146-.067-.256-.194-.11-.13-.175-.316-.062-.187-.062-.424 0-.223.053-.409.057-.186.164-.322.11-.135.27-.208.162-.077.373-.077.172 0 .328.062.155.063.27.187.12.124.187.31.068.186.068.435 0 .206-.057.392-.053.186-.166.327-.11.139-.28.223-.17.082-.398.082zm.006-.265q.155 0 .27-.062.117-.065.193-.17.076-.104.113-.24.036-.138.036-.282 0-.175-.048-.31-.045-.138-.124-.231-.079-.094-.183-.142-.105-.05-.223-.05-.141 0-.249.059-.104.06-.177.16-.07.102-.108.24-.036.136-.036.291 0 .167.042.305.042.136.113.232.073.096.172.15.099.05.209.05zm2.133-1.479q-.08.006-.17.009l-.194.005.005.144.006.133q.003.067.003.14.003.074.003.165v.245q0 .116-.003.234l-.006.235-.008.245q-.003.068-.014.105-.009.036-.026.056-.017.02-.04.023-.022.005-.05.005-.05 0-.088-.034-.033-.036-.04-.152-.005-.102-.008-.215l-.002-.242q-.003-.13-.003-.28V61.416q.003-.116.008-.2h-.115q-.119 0-.204-.004-.082-.002-.135-.014-.054-.014-.08-.042-.022-.028-.022-.08 0-.025.006-.044.006-.023.025-.04.02-.02.054-.03.037-.012.093-.018l.096-.005.085-.006q.042-.003.087-.003h.105q.166 0 .313.003.15.003.316.011.068.006.104.017.037.009.057.026.02.017.022.04.006.022.006.05 0 .05-.037.085-.034.033-.15.04zm.402 1.287q-.006-.09-.012-.246-.005-.155-.005-.318v-.192l.005-.206q.006-.21.026-.328.022-.118.084-.178.065-.059.181-.073.116-.014.308-.014h.059q.06 0 .141.003.082 0 .17.003.09.002.149.005.062.006.099.017.04.009.059.025.02.015.025.037.006.02.006.045 0 .065-.037.096-.036.029-.15.037-.056.006-.166.008h-.22q-.113 0-.203.003h-.113q-.073.003-.104.034-.029.028-.029.138l.003.125q.006.096.006.27h.234q.15 0 .243.006.096.003.147.017.053.014.073.045.02.031.02.082 0 .026-.006.048-.003.02-.023.037-.02.014-.056.025-.037.009-.104.014-.082.006-.156.009h-.378v.344l.006.096q.003.045.011.076.011.031.037.051.028.02.079.028.053.009.141.009h.607q.099 0 .124.036.025.037.025.1 0 .05-.022.078-.023.026-.11.037-.085.014-.257.017-.17.003-.469.003-.127 0-.208-.023-.082-.022-.133-.076-.05-.054-.076-.138-.023-.088-.031-.212zm2.22-1.563q.08 0 .18.014.105.01.196.045.09.03.152.084.062.051.062.127 0 .046-.025.077-.026.03-.082.03-.042 0-.088-.016-.042-.017-.098-.034-.054-.02-.127-.037-.071-.017-.167-.017-.186 0-.277.068-.087.065-.087.18 0 .08.04.133.039.054.104.093.068.037.15.062.084.026.172.048.098.026.194.063.1.036.175.096.077.059.122.15.048.09.048.228 0 .144-.054.26-.054.112-.147.194-.093.08-.223.124-.13.043-.282.043-.084 0-.197-.017-.113-.014-.215-.051-.101-.04-.172-.102-.07-.065-.07-.158 0-.056.028-.09.03-.034.09-.034.048 0 .079.02.031.017.054.04.084.073.192.098.107.025.22.025.065 0 .135-.008.073-.011.133-.042.059-.031.099-.088.039-.06.039-.158 0-.09-.037-.147-.034-.059-.093-.098-.06-.04-.14-.065-.08-.026-.173-.051-.104-.028-.206-.062t-.18-.09q-.08-.06-.13-.147-.048-.09-.048-.229 0-.138.05-.243.051-.104.139-.175.087-.07.206-.107.121-.037.26-.037z" style="-inkscape-font-specification:'Sniglet, Normal';font-variant-ligatures:normal;font-variant-caps:normal;font-variant-numeric:normal;font-feature-settings:normal;text-align:start" aria-label="NOTES" font-weight="400" font-size="2.822" font-family="Sniglet" letter-spacing="0" word-spacing="0" stroke-width=".265" fill="#c8c8c8"/></g><g style="line-height:1.25"><path d="M22.016 60.904q.093 0 .186.017.096.014.172.048.076.031.124.08.051.044.051.106 0 .065-.034.1-.034.033-.085.033-.048 0-.084-.014l-.085-.037q-.045-.02-.11-.034-.065-.016-.172-.016-.107 0-.206.056-.096.054-.17.152-.07.096-.112.229-.043.133-.043.288 0 .192.048.33.051.138.13.229.08.087.178.132.102.043.203.043.121 0 .203-.026.082-.025.139-.056.059-.031.101-.057.043-.025.082-.025.048 0 .076.028.028.026.028.093 0 .057-.045.116-.042.056-.127.104-.082.046-.197.077-.116.028-.26.028-.158 0-.316-.062-.155-.062-.28-.184-.12-.124-.197-.307-.076-.187-.076-.432 0-.246.068-.438.07-.191.189-.324.121-.136.28-.206.16-.07.34-.07zm1.985 1.823l-.011-.318q-.003-.17-.003-.39l-.192.006h-.439q-.105 0-.187-.003l-.006.344q-.003.164-.011.359-.003.067-.014.104-.009.037-.026.056-.017.02-.04.023-.019.006-.047.006-.05 0-.085-.034-.034-.037-.04-.153-.005-.101-.008-.211 0-.11-.003-.237-.002-.127-.002-.274v-.333q0-.2.002-.342.003-.144.015-.234.014-.09.042-.133.028-.042.079-.042.048 0 .085.031.036.031.042.144l.008.175.006.153q.003.073.003.152v.175q.211-.009.415-.009.098 0 .197.003.102.003.206.009v-.082q0-.2.003-.342.003-.144.014-.234.014-.09.042-.133.029-.042.08-.042.047 0 .084.031.037.031.042.144l.009.18.006.159q.002.076.002.16v.43q0 .115-.002.228l-.006.229q-.003.116-.009.243-.002.067-.014.104-.008.037-.025.056-.017.02-.04.023-.02.006-.048.006-.05 0-.084-.034-.034-.037-.04-.153zm1.362.203q-.17 0-.32-.067-.146-.068-.256-.195-.11-.13-.175-.316-.062-.186-.062-.423 0-.223.054-.41.056-.186.163-.321.11-.136.271-.209.161-.076.373-.076.172 0 .327.062.155.062.271.186.119.124.186.31.068.187.068.435 0 .206-.056.392-.054.187-.167.328-.11.138-.28.223-.169.082-.397.082zm.005-.265q.156 0 .271-.062.116-.065.192-.17.076-.103.113-.239.037-.138.037-.282 0-.175-.048-.31-.045-.139-.124-.232-.08-.093-.184-.141-.104-.05-.223-.05-.14 0-.248.058-.105.06-.178.161-.07.102-.107.24-.037.136-.037.29 0 .167.042.306.043.135.113.231.074.096.172.15.1.05.21.05zm1.831-.457l-.082.006h-.178q-.048 0-.107-.006v.573q0 .09-.045.113-.043.02-.108.02-.034 0-.053-.006-.02-.003-.034-.014-.012-.014-.02-.04-.006-.025-.008-.07-.006-.05-.009-.147l-.006-.254-.002-.375v-.522q0-.116.028-.223.028-.11.101-.192.074-.085.198-.136.127-.05.322-.05.138 0 .268.03.133.032.234.108.102.076.164.206.062.13.062.324 0 .26-.113.404-.11.141-.305.2l.378.52q.051.067.051.138 0 .056-.04.087-.036.034-.092.034-.063 0-.108-.034-.045-.036-.084-.093zm.443-.657q0-.195-.119-.288-.116-.096-.37-.096-.093 0-.155.017-.062.014-.099.056-.036.042-.053.119-.014.073-.014.189v.192q0 .11.002.2.065.003.144.003h.153q.079 0 .166-.009.09-.01.167-.05.076-.043.127-.119.05-.079.05-.214zm1.109-.644q.291 0 .466.088.175.087.268.231.093.144.121.327.031.184.031.373 0 .206-.053.39-.051.183-.161.321-.107.136-.277.217-.169.08-.403.08-.186 0-.3-.029-.11-.025-.171-.079-.06-.053-.08-.135-.02-.082-.02-.192v-1.061q0-.122.02-.22.023-.1.085-.167.062-.07.175-.107.116-.037.3-.037zm.012 1.744q.175 0 .287-.062.116-.065.184-.17.068-.104.093-.236.028-.133.028-.271 0-.127-.02-.254-.02-.13-.081-.234-.062-.105-.178-.17-.116-.065-.308-.065-.175 0-.242.051-.068.05-.068.155v1.081q0 .088.062.133.065.042.243.042z" style="-inkscape-font-specification:'Sniglet, Normal';font-variant-ligatures:normal;font-variant-caps:normal;font-variant-numeric:normal;font-feature-settings:normal;text-align:start" aria-label="CHORD" font-weight="400" font-size="2.822" font-family="Sniglet" letter-spacing="0" word-spacing="0" stroke-width=".265" fill="#c8c8c8"/></g></svg>