<?xml version="1.0" encoding="UTF-8" standalone="no"?>
<svg
   xmlns:dc="http://purl.org/dc/elements/1.1/"
   xmlns:cc="http://creativecommons.org/ns#"
   xmlns:rdf="http://www.w3.org/1999/02/22-rdf-syntax-ns#"
   xmlns:svg="http://www.w3.org/2000/svg"
   xmlns="http://www.w3.org/2000/svg"
   xmlns:xlink="http://www.w3.org/1999/xlink"
   xmlns:sodipodi="http://sodipodi.sourceforge.net/DTD/sodipodi-0.dtd"
   xmlns:inkscape="http://www.inkscape.org/namespaces/inkscape"
   width="40.639999mm"
   height="128.5mm"
   viewBox="0 0 40.639999 128.50044"
   version="1.1"
   id="svg95"
   sodipodi:docname="FourView_dark.svg"
   inkscape:version="0.92.2 (5c3e80d, 2017-08-06)">
  <metadata
     id="metadata99">
    <rdf:RDF>
      <cc:Work
         rdf:about="">
        <dc:format>image/svg+xml</dc:format>
        <dc:type
           rdf:resource="http://purl.org/dc/dcmitype/StillImage" />
        <dc:title />
      </cc:Work>
    </rdf:RDF>
  </metadata>
  <sodipodi:namedview
     pagecolor="#ffffff"
     bordercolor="#666666"
     borderopacity="1"
     objecttolerance="10"
     gridtolerance="10"
     guidetolerance="10"
     inkscape:pageopacity="0"
     inkscape:pageshadow="2"
     inkscape:window-width="1366"
     inkscape:window-height="705"
     id="namedview97"
     showgrid="false"
     inkscape:document-units="mm"
     units="mm"
     inkscape:zoom="1.2421053"
     inkscape:cx="16.613873"
     inkscape:cy="302.10308"
     inkscape:window-x="251"
     inkscape:window-y="1072"
     inkscape:window-maximized="1"
     inkscape:current-layer="svg95" />
  <defs
     id="defs23">
    <linearGradient
       id="linearGradient868">
      <stop
         id="stop864"
         stop-color="#dcdcdc"
         offset="0"
         style="stop-color:#8c8c8c;stop-opacity:1" />
      <stop
         id="stop866"
         offset="1" />
    </linearGradient>
    <linearGradient
       xlink:href="#linearGradient868"
       id="f"
       x1="29.292"
       y1="22.798"
       x2="29.292"
       y2="13.944"
       gradientUnits="userSpaceOnUse"
       gradientTransform="matrix(0.71639286,0,0,1.2290602,15.518773,-0.32919954)" />
    <linearGradient
       xlink:href="#b"
       id="d"
       x1="26.759001"
       y1="162"
       x2="30.999001"
       y2="162"
       gradientUnits="userSpaceOnUse"
       gradientTransform="matrix(1,0,0,0.56406,0,70.452)" />
    <linearGradient
       id="b">
      <stop
         offset="0"
         stop-color="#fff"
         id="stop9" />
      <stop
         offset="1"
         stop-color="#fff"
         stop-opacity="0"
         id="stop11" />
    </linearGradient>
    <linearGradient
       xlink:href="#c"
       id="e"
       x1="26.759001"
       y1="162"
       x2="30.999001"
       y2="162"
       gradientUnits="userSpaceOnUse"
       gradientTransform="matrix(0.99995,0,0,0.53173,135.453,-112.052)" />
    <linearGradient
       id="c">
      <stop
         offset="0"
         stop-color="#fff"
         stop-opacity=".992"
         id="stop15" />
      <stop
         offset="1"
         stop-color="#fff"
         stop-opacity="0"
         id="stop17" />
    </linearGradient>
    <linearGradient
       xlink:href="#linearGradient868"
       id="g"
       x1="29.292"
       y1="22.798"
       x2="29.292"
       y2="13.944"
       gradientUnits="userSpaceOnUse"
       gradientTransform="matrix(0.71639286,0,0,1.2290602,15.518773,14.57261)" />
    <linearGradient
       xlink:href="#linearGradient868"
       id="h"
       x1="29.292"
       y1="22.798"
       x2="29.292"
       y2="13.944"
       gradientUnits="userSpaceOnUse"
       gradientTransform="matrix(0.71639286,0,0,1.2290602,15.518773,29.473141)" />
    <linearGradient
       xlink:href="#linearGradient868"
       id="i"
       x1="29.292"
       y1="22.798"
       x2="29.292"
       y2="13.944"
       gradientUnits="userSpaceOnUse"
       gradientTransform="matrix(0.71639286,0,0,1.2290602,15.518773,44.374952)" />
  </defs>
  <path
     d="M 0,0 H 40.64014 V 128.50044 H 0 Z m 0,0"
     id="path25"
     inkscape:connector-curvature="0"
     style="fill:#1e1e1e;stroke-width:1;fill-opacity:1" />
  <g
     style="line-height:1.25;stroke-width:0.78124732"
     id="g29"
     transform="matrix(1.2800044,0,0,1.2800044,0,-0.09623859)">
    <path
       word-spacing="0"
       letter-spacing="0"
       font-weight="400"
       aria-label="♫"
       font-size="3.528"
       style="font-weight:400;font-size:3.52800012px;font-family:Arial;-inkscape-font-specification:'Arial, Normal';font-variant-ligatures:normal;font-variant-caps:normal;font-variant-numeric:normal;font-feature-settings:normal;text-align:start;letter-spacing:0;word-spacing:0;fill:#969696;stroke-width:0.78124732"
       d="m 16.218,96.87 -1.63,0.114 v -2.06 q 0,-0.23 0.065,-0.333 0.064,-0.104 0.22,-0.147 0.153,-0.043 0.347,-0.002 0.224,0.047 0.357,0.19 0.133,0.146 0.133,0.33 0,0.186 -0.158,0.286 -0.157,0.103 -0.407,0.05 -0.082,-0.018 -0.144,-0.044 -0.063,-0.027 -0.205,-0.11 v 1.345 l 1.22,-0.085 V 94.85 q 0,-0.225 0.065,-0.337 0.065,-0.11 0.225,-0.15 0.16,-0.04 0.35,0 0.222,0.046 0.353,0.19 0.13,0.14 0.13,0.324 0,0.195 -0.157,0.294 -0.155,0.1 -0.407,0.047 -0.16,-0.034 -0.357,-0.16 z"
       id="path27"
       inkscape:connector-curvature="0" />
  </g>
  <g
     style="line-height:1.25;stroke-width:0.78124732"
     id="g33"
     transform="matrix(1.2800044,0,0,1.2800044,0,-0.09623859)">
    <path
       word-spacing="0"
       letter-spacing="0"
       font-weight="400"
       aria-label="1"
       font-size="2.822"
       style="font-weight:400;font-size:2.82200003px;font-family:Sniglet;-inkscape-font-specification:'Sniglet, Normal';font-variant-ligatures:normal;font-variant-caps:normal;font-variant-numeric:normal;font-feature-settings:normal;text-align:start;letter-spacing:0;word-spacing:0;fill:#c8c8c8;stroke-width:0.78124732"
       d="M 2.766,18.296 Q 2.76,18.194 2.756,18.084 V 17.847 Q 2.752,17.72 2.752,17.574 v -0.686 l -0.17,0.087 q -0.07,0.045 -0.112,0.054 -0.04,0.008 -0.088,0.008 -0.042,0 -0.076,-0.036 -0.03,-0.037 -0.03,-0.088 0,-0.05 0.033,-0.087 0.036,-0.04 0.084,-0.07 0.062,-0.043 0.133,-0.086 0.073,-0.042 0.14,-0.076 0.07,-0.036 0.125,-0.056 0.06,-0.023 0.1,-0.023 0.02,0 0.04,0.006 0.021,0.005 0.04,0.022 0.018,0.017 0.03,0.054 0.013,0.034 0.016,0.093 l 0.01,0.178 0.004,0.15 q 0.003,0.07 0.003,0.15 v 0.425 q 0,0.116 -0.003,0.23 L 3.026,18.05 q -0.003,0.116 -0.01,0.243 -0.002,0.068 -0.013,0.105 -0.01,0.036 -0.025,0.056 -0.017,0.02 -0.04,0.023 -0.02,0.005 -0.048,0.005 -0.05,0 -0.085,-0.034 -0.033,-0.036 -0.04,-0.152 z"
       id="path31"
       inkscape:connector-curvature="0" />
  </g>
  <g
     style="line-height:1.25;stroke-width:0.78124732"
     id="g37"
     transform="matrix(1.2800044,0,0,1.2800044,0,-0.09623859)">
    <path
       word-spacing="0"
       letter-spacing="0"
       font-weight="400"
       aria-label="2"
       font-size="2.822"
       style="font-weight:400;font-size:2.82200003px;font-family:Sniglet;-inkscape-font-specification:'Sniglet, Normal';font-variant-ligatures:normal;font-variant-caps:normal;font-variant-numeric:normal;font-feature-settings:normal;text-align:start;letter-spacing:0;word-spacing:0;fill:#c8c8c8;stroke-width:0.78124732"
       d="m 2.645,28.397 q -0.102,0 -0.17,0.022 -0.067,0.02 -0.112,0.054 -0.045,0.034 -0.074,0.07 l -0.05,0.07 q -0.023,0.035 -0.05,0.058 -0.027,0.02 -0.066,0.02 -0.068,0 -0.096,-0.034 -0.025,-0.037 -0.025,-0.096 0,-0.125 0.093,-0.232 0.028,-0.034 0.076,-0.07 0.05,-0.04 0.118,-0.07 0.071,-0.032 0.161,-0.05 0.093,-0.024 0.21,-0.024 0.307,0 0.476,0.15 0.17,0.15 0.17,0.42 0,0.053 -0.012,0.118 -0.008,0.065 -0.037,0.136 -0.025,0.07 -0.073,0.146 -0.048,0.077 -0.127,0.156 -0.07,0.07 -0.15,0.13 -0.079,0.06 -0.163,0.118 l -0.178,0.127 q -0.09,0.065 -0.183,0.15 0.09,0.048 0.194,0.062 0.105,0.014 0.235,0.014 0.12,0 0.194,-0.006 0.074,-0.005 0.12,-0.014 l 0.07,-0.014 q 0.025,-0.006 0.053,-0.006 0.104,0 0.104,0.096 0,0.085 -0.07,0.13 -0.07,0.045 -0.17,0.068 -0.098,0.02 -0.203,0.023 -0.104,0.005 -0.172,0.005 -0.037,0 -0.104,-0.005 Q 2.569,30.116 2.494,30.104 2.416,30.094 2.337,30.074 2.261,30.051 2.197,30.017 2.134,29.98 2.095,29.929 q -0.04,-0.053 -0.04,-0.127 0,-0.098 0.07,-0.186 0.074,-0.09 0.181,-0.175 Q 2.414,29.354 2.538,29.269 2.662,29.182 2.769,29.091 2.876,28.998 2.947,28.899 3.02,28.801 3.02,28.685 3.02,28.541 2.922,28.47 2.826,28.397 2.645,28.397 Z"
       id="path35"
       inkscape:connector-curvature="0" />
  </g>
  <g
     style="line-height:1.25;stroke-width:0.78124732"
     id="g41"
     transform="matrix(1.2800044,0,0,1.2800044,0,-0.09623859)">
    <path
       word-spacing="0"
       letter-spacing="0"
       font-weight="400"
       aria-label="3"
       font-size="2.822"
       style="font-weight:400;font-size:2.82200003px;font-family:Sniglet;-inkscape-font-specification:'Sniglet, Normal';font-variant-ligatures:normal;font-variant-caps:normal;font-variant-numeric:normal;font-feature-settings:normal;text-align:start;letter-spacing:0;word-spacing:0;fill:#c8c8c8;stroke-width:0.78124732"
       d="m 2.182,40.055 q -0.09,0 -0.132,-0.045 -0.043,-0.048 -0.043,-0.096 0,-0.05 0.048,-0.082 0.048,-0.033 0.127,-0.05 0.08,-0.02 0.18,-0.026 0.103,-0.008 0.207,-0.008 0.087,0 0.195,0.008 0.107,0.006 0.2,0.034 0.093,0.026 0.155,0.08 0.062,0.05 0.062,0.14 0,0.07 -0.053,0.147 -0.054,0.076 -0.124,0.144 -0.07,0.068 -0.142,0.12 l -0.098,0.075 q 0.3,0 0.434,0.15 0.136,0.15 0.136,0.428 0,0.175 -0.065,0.305 -0.062,0.13 -0.17,0.217 -0.104,0.085 -0.242,0.127 -0.136,0.043 -0.28,0.043 -0.118,0 -0.234,-0.02 Q 2.23,41.726 2.14,41.678 2.05,41.628 1.993,41.546 1.94,41.461 1.94,41.336 q 0,-0.13 0.14,-0.13 0.043,0 0.066,0.023 0.025,0.02 0.042,0.05 0.02,0.029 0.04,0.066 0.02,0.037 0.056,0.068 0.04,0.028 0.102,0.05 0.064,0.02 0.17,0.02 0.081,0 0.16,-0.016 0.08,-0.02 0.141,-0.063 0.062,-0.042 0.1,-0.112 0.04,-0.074 0.04,-0.18 0,-0.21 -0.089,-0.297 -0.085,-0.088 -0.24,-0.088 -0.04,0 -0.074,0.014 -0.034,0.012 -0.067,0.028 l -0.07,0.03 q -0.038,0.01 -0.083,0.01 -0.045,0 -0.08,-0.04 -0.033,-0.042 -0.033,-0.107 0,-0.045 0.043,-0.104 0.045,-0.06 0.12,-0.136 0.08,-0.076 0.19,-0.166 0.11,-0.093 0.246,-0.2 H 2.792 L 2.716,40.058 H 2.369 Q 2.267,40.055 2.182,40.055 Z"
       id="path39"
       inkscape:connector-curvature="0" />
  </g>
  <g
     style="line-height:1.25;stroke-width:0.78124732"
     id="g45"
     transform="matrix(1.2800044,0,0,1.2800044,0,-0.09623859)">
    <path
       word-spacing="0"
       letter-spacing="0"
       font-weight="400"
       aria-label="4"
       font-size="2.822"
       style="font-weight:400;font-size:2.82200003px;font-family:Sniglet;-inkscape-font-specification:'Sniglet, Normal';font-variant-ligatures:normal;font-variant-caps:normal;font-variant-numeric:normal;font-feature-settings:normal;text-align:start;letter-spacing:0;word-spacing:0;fill:#c8c8c8;stroke-width:0.78124732"
       d="m 3.037,52.803 q -0.002,0.107 -0.002,0.234 0,0.127 -0.01,0.237 -0.004,0.085 -0.04,0.11 -0.03,0.023 -0.086,0.023 -0.05,0 -0.08,-0.02 Q 2.795,53.37 2.779,53.311 2.769,53.249 2.767,53.133 2.764,53.015 2.764,52.817 q -0.093,0 -0.178,0.003 -0.085,0.003 -0.164,0.003 -0.118,0 -0.217,-0.006 Q 2.109,52.812 2.039,52.797 1.971,52.78 1.931,52.752 1.895,52.724 1.895,52.679 q 0,-0.062 0.05,-0.155 0.05,-0.096 0.127,-0.206 0.077,-0.11 0.16,-0.223 L 2.394,51.88 2.49,51.756 q 0.065,-0.082 0.138,-0.16 0.074,-0.083 0.147,-0.142 0.073,-0.06 0.124,-0.06 0.048,0 0.085,0.032 0.037,0.03 0.042,0.144 0.012,0.163 0.014,0.344 0.003,0.178 0.003,0.353 v 0.28 q 0.08,0.005 0.127,0.013 0.048,0.01 0.074,0.026 0.025,0.014 0.033,0.036 0.01,0.023 0.01,0.057 0,0.07 -0.066,0.096 -0.065,0.022 -0.183,0.028 z M 2.761,51.88 2.549,52.137 2.403,52.317 q -0.06,0.077 -0.105,0.13 l -0.076,0.096 q 0.13,-0.005 0.265,-0.005 0.14,-0.003 0.274,-0.003 z"
       id="path43"
       inkscape:connector-curvature="0" />
  </g>
  <rect
     rx="2.3399999"
     ry="2.3399999"
     y="86.451263"
     x="4.0627341"
     height="32.222832"
     width="32.512112"
     id="rect47"
     style="fill:#3e3e3e;stroke:#8c8c8c;stroke-width:0.26499999;paint-order:stroke markers fill;stroke-opacity:1" />
  <g
     style="line-height:1.25;stroke-width:0.78124732"
     id="g51"
     transform="matrix(1.2800044,0,0,1.2800044,0,-0.09623859)">
    <path
       d="m 13.922,69.395 q -0.08,0.006 -0.17,0.01 l -0.194,0.004 0.006,0.144 0.006,0.133 q 0.002,0.068 0.002,0.14 0.003,0.074 0.003,0.165 v 0.245 q 0,0.116 -0.003,0.235 l -0.005,0.234 q -0.003,0.118 -0.01,0.245 -0.002,0.068 -0.013,0.105 -0.008,0.036 -0.025,0.056 -0.017,0.02 -0.04,0.023 -0.022,0.005 -0.05,0.005 -0.05,0 -0.088,-0.034 -0.034,-0.036 -0.04,-0.152 -0.005,-0.102 -0.008,-0.214 0,-0.113 -0.003,-0.243 -0.003,-0.13 -0.003,-0.28 V 69.61 q 0.003,-0.116 0.01,-0.2 H 13.18 q -0.118,0 -0.203,-0.003 -0.082,-0.003 -0.136,-0.015 -0.053,-0.014 -0.08,-0.042 -0.02,-0.028 -0.02,-0.08 0,-0.024 0.004,-0.044 0.006,-0.023 0.026,-0.04 0.02,-0.02 0.054,-0.03 0.036,-0.012 0.093,-0.018 l 0.096,-0.005 0.084,-0.006 q 0.043,-0.003 0.088,-0.003 h 0.104 q 0.167,0 0.313,0.003 0.15,0.003 0.317,0.01 0.067,0.007 0.104,0.018 0.037,0.01 0.056,0.026 0.02,0.017 0.023,0.04 0.006,0.022 0.006,0.05 0,0.05 -0.037,0.085 -0.034,0.034 -0.15,0.04 z m 1.5,1.54 -0.01,-0.318 q -0.004,-0.17 -0.004,-0.39 -0.09,0.004 -0.192,0.006 h -0.44 q -0.105,0 -0.186,-0.002 l -0.006,0.344 q -0.003,0.164 -0.01,0.358 -0.004,0.068 -0.015,0.105 -0.01,0.036 -0.026,0.056 -0.017,0.02 -0.04,0.023 -0.02,0.005 -0.047,0.005 -0.05,0 -0.085,-0.033 -0.034,-0.037 -0.04,-0.153 -0.005,-0.1 -0.008,-0.212 0,-0.11 -0.003,-0.237 -0.003,-0.127 -0.003,-0.273 v -0.333 q 0,-0.2 0.003,-0.342 0.003,-0.144 0.014,-0.234 0.014,-0.09 0.043,-0.133 0.028,-0.042 0.08,-0.042 0.047,0 0.083,0.03 0.037,0.032 0.043,0.145 l 0.008,0.175 0.006,0.152 q 0.003,0.074 0.003,0.153 v 0.175 q 0.21,-0.01 0.414,-0.01 0.1,0 0.198,0.004 l 0.206,0.008 v -0.08 q 0,-0.2 0.003,-0.343 0.003,-0.144 0.014,-0.234 0.014,-0.09 0.042,-0.133 0.03,-0.042 0.08,-0.042 0.047,0 0.084,0.03 0.037,0.032 0.042,0.145 l 0.01,0.18 0.004,0.16 q 0.003,0.075 0.003,0.16 v 0.428 q 0,0.116 -0.003,0.23 l -0.005,0.228 q -0.003,0.115 -0.01,0.242 0,0.068 -0.013,0.105 -0.008,0.036 -0.025,0.056 -0.017,0.02 -0.04,0.023 -0.02,0.005 -0.048,0.005 -0.05,0 -0.084,-0.034 -0.034,-0.036 -0.04,-0.152 z m 1.257,-0.518 -0.082,0.005 h -0.178 q -0.048,0 -0.107,-0.005 v 0.573 q 0,0.09 -0.045,0.113 -0.042,0.02 -0.107,0.02 -0.034,0 -0.054,-0.006 -0.02,-0.003 -0.034,-0.014 -0.01,-0.014 -0.02,-0.04 -0.005,-0.025 -0.008,-0.07 -0.006,-0.05 -0.008,-0.147 L 16.03,70.592 q 0,-0.155 -0.003,-0.375 v -0.523 q 0,-0.115 0.028,-0.223 0.03,-0.11 0.102,-0.19 0.073,-0.086 0.198,-0.137 0.127,-0.05 0.32,-0.05 0.14,0 0.27,0.03 0.132,0.03 0.234,0.108 0.1,0.076 0.163,0.206 0.062,0.13 0.062,0.324 0,0.26 -0.112,0.404 -0.11,0.14 -0.305,0.2 l 0.378,0.52 q 0.05,0.067 0.05,0.138 0,0.056 -0.04,0.087 -0.035,0.034 -0.092,0.034 -0.062,0 -0.107,-0.034 -0.045,-0.036 -0.085,-0.093 z m 0.443,-0.658 q 0,-0.194 -0.118,-0.288 -0.116,-0.096 -0.37,-0.096 -0.093,0 -0.155,0.017 -0.062,0.015 -0.1,0.057 -0.036,0.042 -0.053,0.118 -0.014,0.074 -0.014,0.19 v 0.19 q 0,0.11 0.003,0.2 0.065,0.005 0.144,0.005 h 0.152 q 0.08,0 0.167,-0.01 0.09,-0.01 0.166,-0.05 0.077,-0.042 0.127,-0.12 0.05,-0.077 0.05,-0.213 z m 1.21,1.4 q -0.32,0 -0.47,-0.175 -0.06,-0.068 -0.1,-0.172 -0.04,-0.107 -0.066,-0.277 -0.023,-0.17 -0.034,-0.417 -0.01,-0.25 -0.01,-0.61 0,-0.116 0.007,-0.19 0.005,-0.075 0.022,-0.117 0.017,-0.046 0.043,-0.063 0.028,-0.017 0.07,-0.017 0.082,0 0.116,0.074 0.034,0.073 0.034,0.254 0,0.062 -0.003,0.11 v 0.1 q 0,0.047 -0.003,0.106 v 0.144 q 0,0.282 0.017,0.468 0.02,0.187 0.065,0.3 0.045,0.11 0.12,0.155 0.08,0.045 0.196,0.045 0.122,0 0.2,-0.048 0.082,-0.05 0.13,-0.167 0.048,-0.118 0.068,-0.313 0.023,-0.195 0.023,-0.485 0,-0.127 -0.003,-0.218 v -0.162 q 0,-0.105 0.006,-0.175 0.008,-0.07 0.022,-0.11 0.017,-0.043 0.045,-0.06 0.028,-0.017 0.07,-0.017 0.043,0 0.07,0.017 0.03,0.017 0.047,0.06 0.016,0.042 0.022,0.118 0.006,0.074 0.006,0.192 0,0.497 -0.03,0.82 -0.032,0.317 -0.11,0.504 -0.08,0.183 -0.22,0.257 -0.134,0.07 -0.35,0.07 z"
       style="font-weight:400;font-size:2.82200003px;font-family:Sniglet;-inkscape-font-specification:'Sniglet, Normal';font-variant-ligatures:normal;font-variant-caps:normal;font-variant-numeric:normal;font-feature-settings:normal;text-align:start;letter-spacing:0;word-spacing:0;fill:#c8c8c8;stroke-width:0.78124732"
       aria-label="THRU"
       font-weight="400"
       font-size="2.822"
       letter-spacing="0"
       word-spacing="0"
       id="path49"
       inkscape:connector-curvature="0" />
  </g>
  <g
     style="line-height:1.25;stroke-width:0.78124732"
     id="g55"
     transform="matrix(1.2800044,0,0,1.2800044,0,-0.09623859)">
    <path
       d="M 8.937,70.949 Q 8.932,70.848 8.929,70.738 L 8.927,70.5 Q 8.924,70.373 8.924,70.226 V 69.54 l -0.17,0.088 q -0.07,0.045 -0.112,0.053 -0.04,0.009 -0.088,0.009 -0.042,0 -0.076,-0.037 -0.031,-0.036 -0.031,-0.087 0,-0.051 0.034,-0.088 0.036,-0.04 0.084,-0.07 0.063,-0.043 0.133,-0.085 0.073,-0.042 0.14,-0.076 0.069,-0.037 0.125,-0.057 0.06,-0.022 0.1,-0.022 0.019,0 0.039,0.005 0.022,0.006 0.04,0.023 0.019,0.017 0.03,0.054 0.014,0.033 0.017,0.093 l 0.009,0.178 0.005,0.15 q 0.003,0.07 0.003,0.149 v 0.426 q 0,0.116 -0.003,0.228 l -0.005,0.23 q -0.003,0.115 -0.01,0.242 -0.002,0.067 -0.013,0.104 -0.008,0.037 -0.025,0.057 -0.017,0.02 -0.04,0.022 -0.02,0.006 -0.048,0.006 -0.05,0 -0.085,-0.034 -0.033,-0.037 -0.04,-0.152 z"
       style="font-weight:400;font-size:2.82200003px;font-family:Sniglet;-inkscape-font-specification:'Sniglet, Normal';font-variant-ligatures:normal;font-variant-caps:normal;font-variant-numeric:normal;font-feature-settings:normal;text-align:start;letter-spacing:0;word-spacing:0;fill:#c8c8c8;stroke-width:0.78124732"
       font-size="2.822"
       aria-label="1"
       font-weight="400"
       letter-spacing="0"
       word-spacing="0"
       id="path53"
       inkscape:connector-curvature="0" />
  </g>
  <g
     style="line-height:1.25;stroke-width:0.78124732"
     id="g59"
     transform="matrix(1.2800044,0,0,1.2800044,0,-0.09623859)">
    <path
       d="m 22.667,69.41 q -0.102,0 -0.17,0.022 -0.067,0.02 -0.112,0.054 -0.045,0.034 -0.074,0.07 l -0.05,0.07 q -0.023,0.035 -0.05,0.058 -0.027,0.02 -0.066,0.02 -0.068,0 -0.096,-0.034 -0.025,-0.037 -0.025,-0.096 0,-0.125 0.093,-0.232 0.028,-0.034 0.076,-0.07 0.05,-0.04 0.118,-0.07 0.07,-0.032 0.16,-0.05 0.094,-0.024 0.21,-0.024 0.308,0 0.477,0.15 0.17,0.15 0.17,0.42 0,0.053 -0.012,0.118 -0.008,0.065 -0.037,0.136 -0.025,0.07 -0.073,0.146 -0.048,0.077 -0.127,0.156 -0.07,0.07 -0.15,0.13 -0.078,0.06 -0.163,0.118 l -0.178,0.127 q -0.09,0.065 -0.183,0.15 0.09,0.048 0.194,0.062 0.105,0.014 0.235,0.014 0.12,0 0.194,-0.006 0.074,-0.005 0.12,-0.014 l 0.07,-0.014 q 0.025,-0.006 0.053,-0.006 0.104,0 0.104,0.096 0,0.085 -0.07,0.13 -0.07,0.045 -0.17,0.068 -0.098,0.02 -0.203,0.023 -0.104,0.005 -0.172,0.005 -0.037,0 -0.104,-0.005 -0.065,-0.003 -0.14,-0.015 -0.078,-0.01 -0.157,-0.03 -0.076,-0.023 -0.14,-0.057 -0.063,-0.037 -0.102,-0.088 -0.04,-0.053 -0.04,-0.127 0,-0.098 0.07,-0.186 0.074,-0.09 0.18,-0.175 0.109,-0.087 0.233,-0.172 0.124,-0.087 0.23,-0.178 0.108,-0.093 0.179,-0.192 0.073,-0.098 0.073,-0.214 0,-0.144 -0.098,-0.215 -0.096,-0.073 -0.277,-0.073 z"
       style="font-weight:400;font-size:2.82200003px;font-family:Sniglet;-inkscape-font-specification:'Sniglet, Normal';font-variant-ligatures:normal;font-variant-caps:normal;font-variant-numeric:normal;font-feature-settings:normal;text-align:start;letter-spacing:0;word-spacing:0;fill:#c8c8c8;stroke-width:0.78124732"
       font-size="2.822"
       aria-label="2"
       font-weight="400"
       letter-spacing="0"
       word-spacing="0"
       id="path57"
       inkscape:connector-curvature="0" />
  </g>
  <g
     style="line-height:1.25;stroke-width:0.78124732"
     id="g63"
     transform="matrix(1.2800044,0,0,1.2800044,0,-0.09623859)">
    <path
       d="m 8.376,81.752 q -0.09,0 -0.132,-0.045 -0.043,-0.048 -0.043,-0.096 0,-0.05 0.048,-0.082 0.048,-0.034 0.127,-0.05 0.08,-0.02 0.18,-0.026 0.103,-0.01 0.207,-0.01 0.087,0 0.195,0.01 0.107,0.006 0.2,0.034 0.093,0.025 0.155,0.08 0.062,0.05 0.062,0.14 0,0.07 -0.053,0.147 -0.054,0.076 -0.124,0.144 -0.071,0.067 -0.142,0.12 l -0.098,0.074 q 0.299,0 0.434,0.15 0.136,0.15 0.136,0.43 0,0.174 -0.065,0.304 -0.062,0.13 -0.17,0.217 -0.104,0.085 -0.242,0.127 -0.136,0.042 -0.28,0.042 -0.118,0 -0.234,-0.02 -0.113,-0.02 -0.203,-0.067 -0.09,-0.05 -0.147,-0.133 -0.053,-0.084 -0.053,-0.21 0,-0.13 0.14,-0.13 0.043,0 0.066,0.024 0.025,0.02 0.042,0.05 0.02,0.03 0.04,0.066 0.02,0.037 0.056,0.068 0.04,0.028 0.102,0.05 0.064,0.02 0.169,0.02 0.082,0 0.16,-0.017 0.08,-0.02 0.142,-0.062 0.062,-0.042 0.099,-0.113 0.04,-0.073 0.04,-0.18 0,-0.21 -0.088,-0.297 -0.085,-0.087 -0.24,-0.087 -0.04,0 -0.074,0.014 -0.034,0.01 -0.067,0.028 l -0.07,0.028 q -0.038,0.012 -0.083,0.012 -0.045,0 -0.08,-0.04 -0.033,-0.042 -0.033,-0.107 0,-0.045 0.043,-0.105 0.045,-0.06 0.12,-0.135 0.08,-0.076 0.19,-0.166 0.11,-0.094 0.246,-0.2 H 8.986 L 8.91,81.755 H 8.563 Q 8.461,81.752 8.376,81.752 Z"
       style="font-weight:400;font-size:2.82200003px;font-family:Sniglet;-inkscape-font-specification:'Sniglet, Normal';font-variant-ligatures:normal;font-variant-caps:normal;font-variant-numeric:normal;font-feature-settings:normal;text-align:start;letter-spacing:0;word-spacing:0;fill:#c8c8c8;stroke-width:0.78124732"
       font-size="2.822"
       aria-label="3"
       font-weight="400"
       letter-spacing="0"
       word-spacing="0"
       id="path61"
       inkscape:connector-curvature="0" />
  </g>
  <g
     style="line-height:1.25;stroke-width:0.78124732"
     id="g67"
     transform="matrix(1.2800044,0,0,1.2800044,0,-0.09623859)">
    <path
       d="m 23.085,82.816 q -0.003,0.107 -0.003,0.234 0,0.127 -0.008,0.237 -0.006,0.085 -0.04,0.11 -0.03,0.023 -0.087,0.023 -0.05,0 -0.08,-0.02 -0.025,-0.017 -0.04,-0.076 -0.01,-0.062 -0.013,-0.178 -0.003,-0.12 -0.003,-0.316 -0.093,0 -0.177,0.003 l -0.164,0.002 q -0.12,0 -0.217,-0.005 -0.096,-0.006 -0.167,-0.02 -0.068,-0.017 -0.107,-0.045 -0.037,-0.028 -0.037,-0.073 0,-0.063 0.05,-0.156 0.052,-0.096 0.128,-0.206 0.076,-0.11 0.16,-0.223 l 0.162,-0.214 0.096,-0.124 q 0.065,-0.082 0.138,-0.161 0.073,-0.082 0.147,-0.141 0.073,-0.06 0.124,-0.06 0.048,0 0.085,0.03 0.036,0.033 0.042,0.145 0.01,0.164 0.014,0.345 0.003,0.178 0.003,0.352 v 0.28 q 0.08,0.005 0.127,0.014 0.048,0.009 0.073,0.025 0.026,0.015 0.034,0.037 0.008,0.023 0.008,0.057 0,0.07 -0.064,0.096 -0.065,0.022 -0.184,0.028 z m -0.276,-0.923 -0.212,0.257 -0.147,0.18 q -0.06,0.077 -0.104,0.13 l -0.077,0.096 q 0.13,-0.006 0.266,-0.006 l 0.274,-0.002 z"
       style="font-weight:400;font-size:2.82200003px;font-family:Sniglet;-inkscape-font-specification:'Sniglet, Normal';font-variant-ligatures:normal;font-variant-caps:normal;font-variant-numeric:normal;font-feature-settings:normal;text-align:start;letter-spacing:0;word-spacing:0;fill:#c8c8c8;stroke-width:0.78124732"
       font-size="2.822"
       aria-label="4"
       font-weight="400"
       letter-spacing="0"
       word-spacing="0"
       id="path65"
       inkscape:connector-curvature="0" />
  </g>
  <g
     transform="matrix(1.2800044,0,0,1.2800044,-33.836707,-206.44064)"
     id="g73"
     style="stroke-width:0.78124732">
    <rect
       rx="0.16093695"
       width="4.2399998"
       height="0.43900001"
       x="26.759001"
       y="161.61099"
       ry="0.16093695"
       id="rect69"
       style="fill:url(#d);stroke-width:0.78124732" />
    <rect
       rx="0.15156198"
       width="4.2399998"
       height="0.41299999"
       x="162.21001"
       y="-26.118999"
       ry="0.15156198"
       transform="matrix(0.00655,0.99998,-0.99973,0.02317,0,0)"
       id="rect71"
       style="fill:url(#e);stroke-width:0.78124732" />
  </g>
  <rect
     width="18.871105"
     height="10.881318"
     x="17.633341"
     y="16.807503"
     rx="1.323"
     ry="1.323"
     id="rect75"
     style="fill:url(#f);fill-rule:evenodd;stroke-width:1" />
  <rect
     width="18.871105"
     height="10.881318"
     x="17.633341"
     y="31.709312"
     rx="1.323"
     ry="1.323"
     id="rect77"
     style="fill:url(#g);fill-rule:evenodd;stroke-width:1;fill-opacity:1.0" />
  <rect
     width="18.871105"
     height="10.881318"
     x="17.633341"
     y="46.60984"
     rx="1.323"
     ry="1.323"
     id="rect79"
     style="fill:url(#h);fill-rule:evenodd;stroke-width:1;fill-opacity:1.0" />
  <rect
     width="18.871105"
     height="10.881318"
     x="17.633341"
     y="61.511658"
     rx="1.323"
     ry="1.323"
     id="rect81"
     style="fill:url(#i);fill-rule:evenodd;stroke-width:1;fill-opacity:1.0" />
  <g
     style="line-height:1.25;stroke-width:0.78124732"
     id="g85"
     transform="matrix(1.2800044,0,0,1.2800044,0,-0.09623859)">
    <path
       d="M 5.553,6.653 Q 5.553,6.298 5.579,6.099 5.604,5.896 5.684,5.794 5.764,5.693 5.914,5.671 6.061,5.646 6.303,5.646 h 0.245 q 0.11,0 0.212,0.004 0.106,0 0.207,0.004 l 0.229,0.009 q 0.101,0.008 0.156,0.025 0.055,0.013 0.085,0.038 0.03,0.026 0.034,0.06 0.008,0.034 0.008,0.076 0,0.076 -0.055,0.127 Q 7.374,6.039 7.2,6.049 7.094,6.052 6.993,6.057 L 6.768,6.065 q -0.123,0 -0.28,0.004 H 6.112 q -0.076,0 -0.106,0.055 -0.03,0.051 -0.03,0.132 v 0.127 q 0.005,0.063 0.005,0.14 0.004,0.075 0.004,0.173 0.004,0.093 0.004,0.22 0.157,0 0.271,0.004 0.119,0 0.203,0.004 0.09,0 0.157,0.005 l 0.131,0.008 q 0.174,0.009 0.225,0.06 0.055,0.05 0.055,0.126 0,0.043 -0.009,0.077 Q 7.018,7.233 6.988,7.259 6.958,7.284 6.904,7.301 6.849,7.318 6.747,7.327 L 6.616,7.335 q -0.06,0 -0.144,0.004 H 5.989 Q 5.985,7.593 5.985,7.86 5.989,8.122 5.972,8.402 5.964,8.567 5.913,8.605 5.866,8.639 5.769,8.639 5.676,8.639 5.629,8.601 5.583,8.558 5.574,8.406 5.566,8.271 5.562,8.11 5.562,7.945 5.557,7.737 5.553,7.526 5.553,7.263 Z M 8.78,8.664 Q 8.526,8.664 8.301,8.563 8.081,8.461 7.916,8.271 7.751,8.076 7.654,7.797 7.56,7.517 7.56,7.162 7.56,6.827 7.64,6.548 7.726,6.268 7.886,6.065 8.052,5.862 8.293,5.752 8.534,5.637 8.852,5.637 q 0.258,0 0.49,0.094 0.234,0.093 0.407,0.279 0.178,0.186 0.28,0.466 0.101,0.28 0.101,0.652 0,0.309 -0.085,0.588 -0.08,0.28 -0.25,0.491 Q 9.631,8.415 9.377,8.542 9.123,8.664 8.78,8.664 Z M 8.788,8.266 q 0.233,0 0.407,-0.093 Q 9.368,8.076 9.482,7.919 9.597,7.763 9.652,7.559 9.707,7.352 9.707,7.136 9.707,6.874 9.635,6.67 9.567,6.463 9.449,6.323 9.33,6.183 9.173,6.112 9.017,6.035 8.839,6.035 8.627,6.035 8.466,6.125 8.31,6.213 8.2,6.365 8.094,6.518 8.039,6.725 7.984,6.929 7.984,7.162 q 0,0.25 0.063,0.457 0.064,0.203 0.17,0.347 0.11,0.144 0.258,0.224 0.148,0.076 0.313,0.076 z m 2.788,0.428 q -0.483,0 -0.707,-0.262 Q 10.779,8.33 10.716,8.173 10.657,8.013 10.619,7.758 10.585,7.504 10.569,7.132 10.556,6.755 10.556,6.217 q 0,-0.173 0.008,-0.283 0.009,-0.114 0.034,-0.178 0.025,-0.068 0.063,-0.093 0.043,-0.026 0.106,-0.026 0.123,0 0.174,0.11 0.05,0.11 0.05,0.382 0,0.093 -0.004,0.165 v 0.148 q 0,0.072 -0.004,0.16 v 0.217 q 0,0.423 0.026,0.702 0.03,0.28 0.097,0.45 0.068,0.164 0.182,0.232 0.119,0.068 0.292,0.068 0.182,0 0.3,-0.072 0.123,-0.077 0.195,-0.25 0.072,-0.178 0.102,-0.47 0.034,-0.292 0.034,-0.728 0,-0.19 -0.004,-0.326 V 6.179 q 0,-0.156 0.008,-0.262 0.013,-0.106 0.034,-0.165 0.025,-0.064 0.068,-0.09 0.042,-0.025 0.106,-0.025 0.063,0 0.105,0.026 0.043,0.025 0.068,0.089 0.026,0.063 0.034,0.178 0.009,0.11 0.009,0.287 0,0.746 -0.047,1.228 -0.047,0.479 -0.165,0.758 -0.119,0.275 -0.326,0.385 -0.203,0.106 -0.525,0.106 z M 14.121,7.58 14,7.59 h -0.267 q -0.072,0 -0.16,-0.01 v 0.86 q 0,0.135 -0.069,0.17 -0.063,0.029 -0.16,0.029 -0.051,0 -0.081,-0.009 Q 13.233,8.626 13.213,8.61 13.195,8.588 13.183,8.55 13.174,8.512 13.17,8.444 13.161,8.368 13.157,8.224 l -0.008,-0.38 q 0,-0.234 -0.004,-0.564 V 6.497 q 0,-0.174 0.042,-0.335 0.042,-0.165 0.152,-0.287 0.11,-0.127 0.297,-0.204 0.19,-0.076 0.482,-0.076 0.208,0 0.402,0.047 0.2,0.046 0.352,0.16 0.152,0.115 0.245,0.31 0.093,0.194 0.093,0.486 0,0.39 -0.169,0.606 -0.165,0.211 -0.457,0.3 l 0.567,0.78 q 0.076,0.1 0.076,0.207 0,0.084 -0.059,0.131 -0.055,0.05 -0.14,0.05 -0.093,0 -0.16,-0.05 Q 14.8,8.567 14.74,8.482 Z m 0.665,-0.986 q 0,-0.292 -0.178,-0.432 -0.173,-0.144 -0.554,-0.144 -0.14,0 -0.233,0.026 -0.093,0.021 -0.148,0.085 -0.055,0.063 -0.08,0.177 -0.022,0.11 -0.022,0.284 v 0.288 q 0,0.165 0.004,0.3 0.098,0.005 0.216,0.005 h 0.229 q 0.118,0 0.25,-0.013 0.135,-0.017 0.25,-0.076 0.114,-0.064 0.19,-0.178 0.076,-0.119 0.076,-0.322 z m 2.211,0.97 -0.45,0.017 q -0.253,0.004 -0.6,0.004 -0.144,0 -0.246,-0.004 Q 15.6,7.576 15.536,7.559 15.473,7.539 15.443,7.496 15.413,7.454 15.413,7.377 15.413,7.339 15.422,7.31 15.43,7.276 15.46,7.25 15.49,7.225 15.54,7.208 15.595,7.187 15.68,7.178 L 15.79,7.17 q 0.05,-0.004 0.097,-0.004 0.047,-0.004 0.098,-0.004 h 0.127 q 0.228,0 0.44,0.004 0.212,0 0.44,0.012 0.102,0.009 0.157,0.026 0.055,0.013 0.085,0.038 0.03,0.025 0.034,0.06 0.008,0.033 0.008,0.075 0,0.077 -0.055,0.127 -0.05,0.051 -0.224,0.06 z m 1.775,0.889 q -0.055,0.101 -0.101,0.148 -0.043,0.046 -0.11,0.046 -0.068,0 -0.119,-0.046 Q 18.392,8.554 18.332,8.457 18.256,8.33 18.158,8.106 18.065,7.881 17.968,7.619 17.871,7.352 17.778,7.069 17.684,6.785 17.608,6.535 17.536,6.285 17.49,6.099 17.447,5.909 17.447,5.828 q 0,-0.085 0.034,-0.127 0.034,-0.042 0.131,-0.042 0.055,0 0.094,0.03 0.042,0.025 0.105,0.152 0.051,0.097 0.11,0.254 0.06,0.156 0.123,0.347 0.068,0.19 0.136,0.402 l 0.135,0.415 q 0.068,0.207 0.127,0.398 L 18.552,8 18.666,7.653 18.798,7.255 18.933,6.84 q 0.068,-0.212 0.136,-0.398 0.067,-0.186 0.127,-0.343 0.059,-0.157 0.105,-0.258 0.06,-0.123 0.102,-0.153 0.047,-0.03 0.093,-0.03 0.098,0 0.131,0.051 0.039,0.047 0.039,0.14 0,0.085 -0.026,0.203 -0.025,0.119 -0.089,0.318 -0.059,0.195 -0.16,0.487 l -0.25,0.715 q -0.038,0.114 -0.09,0.237 -0.046,0.123 -0.097,0.242 -0.046,0.114 -0.093,0.22 -0.046,0.105 -0.089,0.182 z M 20.07,8.36 q -0.009,-0.153 -0.013,-0.318 0,-0.165 -0.004,-0.356 -0.004,-0.19 -0.004,-0.41 v -0.5 q 0,-0.3 0.004,-0.512 0.004,-0.216 0.025,-0.351 0.021,-0.136 0.064,-0.2 0.046,-0.063 0.122,-0.063 0.039,0 0.072,0.009 0.034,0.008 0.06,0.038 0.025,0.025 0.042,0.08 0.021,0.051 0.025,0.136 0.009,0.152 0.013,0.27 l 0.009,0.238 q 0.004,0.114 0.004,0.241 v 0.643 q 0,0.174 -0.004,0.343 l -0.009,0.343 q -0.004,0.174 -0.013,0.364 -0.004,0.102 -0.02,0.157 -0.018,0.055 -0.043,0.085 -0.026,0.03 -0.06,0.033 -0.033,0.009 -0.076,0.009 -0.076,0 -0.13,-0.05 Q 20.078,8.533 20.07,8.359 Z M 21.065,7.979 Q 21.057,7.843 21.048,7.61 21.04,7.377 21.04,7.132 V 6.844 l 0.008,-0.309 q 0.009,-0.313 0.038,-0.491 0.034,-0.178 0.127,-0.267 0.098,-0.089 0.271,-0.11 0.174,-0.021 0.462,-0.021 h 0.089 q 0.088,0 0.211,0.004 0.123,0 0.254,0.004 l 0.225,0.009 q 0.093,0.008 0.148,0.025 0.059,0.013 0.089,0.038 0.03,0.022 0.038,0.055 0.008,0.03 0.008,0.068 0,0.098 -0.055,0.144 -0.055,0.042 -0.224,0.055 -0.085,0.009 -0.25,0.013 h -0.33 q -0.17,0 -0.305,0.004 h -0.17 q -0.11,0.004 -0.156,0.05 -0.042,0.043 -0.042,0.208 L 21.48,6.51 q 0.008,0.143 0.008,0.406 h 0.352 q 0.224,0 0.364,0.008 0.144,0.005 0.22,0.026 0.08,0.021 0.11,0.068 0.03,0.046 0.03,0.122 0,0.038 -0.009,0.072 -0.004,0.03 -0.034,0.055 -0.03,0.021 -0.084,0.038 -0.055,0.013 -0.157,0.022 -0.123,0.008 -0.233,0.012 H 21.48 V 7.856 L 21.488,8 q 0.005,0.067 0.017,0.114 0.017,0.047 0.055,0.076 0.043,0.03 0.119,0.043 0.08,0.012 0.212,0.012 h 0.91 q 0.148,0 0.186,0.055 0.038,0.055 0.038,0.148 0,0.077 -0.034,0.119 -0.034,0.038 -0.165,0.055 -0.127,0.021 -0.385,0.025 -0.254,0.005 -0.703,0.005 -0.19,0 -0.313,-0.034 Q 21.302,8.584 21.226,8.503 21.15,8.423 21.112,8.296 21.078,8.165 21.065,7.979 Z m 3.499,-1.516 q 0.026,-0.06 0.077,-0.097 0.055,-0.038 0.114,-0.038 0.055,0 0.106,0.038 0.05,0.033 0.08,0.093 0.161,0.33 0.318,0.715 0.156,0.381 0.283,0.724 0.072,-0.525 0.157,-1.058 0.085,-0.534 0.19,-1.02 0.013,-0.056 0.038,-0.09 0.026,-0.037 0.056,-0.054 0.03,-0.022 0.059,-0.03 0.034,-0.009 0.055,-0.009 0.072,0 0.118,0.043 0.047,0.038 0.047,0.106 0,0.076 -0.025,0.27 -0.026,0.191 -0.068,0.45 -0.043,0.253 -0.098,0.541 -0.05,0.288 -0.101,0.555 -0.051,0.266 -0.098,0.487 -0.046,0.22 -0.076,0.334 -0.025,0.097 -0.076,0.148 -0.05,0.047 -0.148,0.047 -0.102,0 -0.174,-0.09 Q 25.331,8.436 25.246,8.241 25.166,8.046 25.051,7.746 24.937,7.441 24.755,7.018 24.569,7.441 24.45,7.746 24.336,8.05 24.251,8.246 24.171,8.44 24.099,8.533 24.027,8.622 23.929,8.622 23.76,8.622 23.705,8.427 23.671,8.313 23.625,8.097 23.578,7.877 23.527,7.61 L 23.43,7.06 Q 23.379,6.772 23.34,6.518 L 23.277,6.074 q -0.02,-0.195 -0.02,-0.271 0,-0.072 0.046,-0.119 0.046,-0.047 0.131,-0.047 0.06,0 0.114,0.039 0.055,0.033 0.08,0.144 0.102,0.486 0.179,1.02 0.08,0.533 0.169,1.058 0.131,-0.309 0.262,-0.656 0.132,-0.347 0.326,-0.779 z"
       style="font-weight:400;font-size:4.2329998px;font-family:Sniglet;-inkscape-font-specification:'Sniglet, Normal';font-variant-ligatures:normal;font-variant-caps:normal;font-variant-numeric:normal;font-feature-settings:normal;text-align:start;letter-spacing:0;word-spacing:0;fill:#c8c8c8;stroke-width:0.78124732"
       aria-label="FOUR-VIEW"
       font-weight="400"
       font-size="4.233"
       letter-spacing="0"
       word-spacing="0"
       id="path83"
       inkscape:connector-curvature="0" />
  </g>
  <g
     style="line-height:1.25;stroke-width:0.78124732"
     id="g89"
     transform="matrix(1.2800044,0,0,1.2800044,0,-0.09623859)">
    <path
       d="M 3.778,62.784 Q 3.688,62.66 3.606,62.539 L 3.434,62.268 q -0.09,-0.147 -0.209,-0.325 -0.116,-0.18 -0.28,-0.42 v 0.38 q 0,0.167 -0.002,0.311 L 2.937,62.485 2.929,62.739 Q 2.926,62.807 2.915,62.844 2.906,62.88 2.889,62.9 q -0.017,0.02 -0.04,0.023 -0.02,0.005 -0.047,0.005 -0.051,0 -0.085,-0.034 -0.034,-0.036 -0.04,-0.152 -0.014,-0.31 -0.016,-0.62 v -0.647 q 0,-0.19 0.002,-0.297 0.006,-0.107 0.02,-0.16 0.017,-0.054 0.042,-0.068 0.029,-0.014 0.074,-0.014 0.045,0 0.118,0.07 0.074,0.068 0.161,0.18 0.088,0.114 0.186,0.26 0.102,0.147 0.2,0.303 0.1,0.155 0.19,0.307 l 0.17,0.277 Q 3.82,62.2 3.82,62.043 v -0.357 q 0,-0.222 0.003,-0.366 0.003,-0.147 0.014,-0.232 0.015,-0.085 0.043,-0.118 0.028,-0.034 0.079,-0.034 0.048,0 0.084,0.03 0.037,0.032 0.043,0.145 l 0.008,0.18 0.006,0.158 q 0.003,0.077 0.003,0.161 v 0.429 q 0,0.116 -0.003,0.229 L 4.094,62.496 4.086,62.739 Q 4.083,62.807 4.072,62.844 4.063,62.88 4.046,62.9 4.029,62.92 4.006,62.923 3.987,62.928 3.959,62.928 3.911,62.928 3.877,62.9 3.843,62.872 3.778,62.784 Z m 1.419,0.161 q -0.169,0 -0.319,-0.068 Q 4.732,62.81 4.622,62.683 4.512,62.553 4.447,62.367 4.385,62.18 4.385,61.943 q 0,-0.223 0.053,-0.409 0.057,-0.186 0.164,-0.322 0.11,-0.135 0.27,-0.208 0.162,-0.077 0.373,-0.077 0.172,0 0.328,0.062 0.155,0.063 0.27,0.187 0.12,0.124 0.187,0.31 0.068,0.186 0.068,0.435 0,0.206 -0.057,0.392 -0.053,0.186 -0.166,0.327 -0.11,0.139 -0.28,0.223 -0.17,0.082 -0.398,0.082 z M 5.203,62.68 q 0.155,0 0.27,-0.062 0.117,-0.065 0.193,-0.17 0.076,-0.104 0.113,-0.24 0.036,-0.138 0.036,-0.282 0,-0.175 -0.048,-0.31 Q 5.722,61.478 5.643,61.385 5.564,61.291 5.46,61.243 q -0.105,-0.05 -0.223,-0.05 -0.141,0 -0.249,0.059 -0.104,0.06 -0.177,0.16 -0.07,0.102 -0.108,0.24 -0.036,0.136 -0.036,0.291 0,0.167 0.042,0.305 0.042,0.136 0.113,0.232 0.073,0.096 0.172,0.15 0.099,0.05 0.209,0.05 z m 2.133,-1.479 q -0.08,0.006 -0.17,0.009 l -0.194,0.005 0.005,0.144 0.006,0.133 q 0.003,0.067 0.003,0.14 0.003,0.074 0.003,0.165 v 0.245 q 0,0.116 -0.003,0.234 L 6.98,62.511 6.972,62.756 q -0.003,0.068 -0.014,0.105 -0.009,0.036 -0.026,0.056 -0.017,0.02 -0.04,0.023 -0.022,0.005 -0.05,0.005 -0.05,0 -0.088,-0.034 Q 6.721,62.875 6.714,62.759 6.709,62.657 6.706,62.544 L 6.704,62.302 Q 6.701,62.172 6.701,62.022 V 61.416 Q 6.704,61.3 6.709,61.216 H 6.594 Q 6.475,61.216 6.39,61.212 6.308,61.21 6.255,61.198 6.201,61.184 6.175,61.156 6.153,61.128 6.153,61.076 q 0,-0.025 0.006,-0.044 0.006,-0.023 0.025,-0.04 0.02,-0.02 0.054,-0.03 0.037,-0.012 0.093,-0.018 L 6.427,60.939 6.512,60.933 Q 6.554,60.93 6.599,60.93 h 0.105 q 0.166,0 0.313,0.003 0.15,0.003 0.316,0.011 0.068,0.006 0.104,0.017 0.037,0.009 0.057,0.026 0.02,0.017 0.022,0.04 0.006,0.022 0.006,0.05 0,0.05 -0.037,0.085 -0.034,0.033 -0.15,0.04 z m 0.402,1.287 Q 7.732,62.398 7.726,62.242 7.721,62.087 7.721,61.924 V 61.732 L 7.726,61.526 Q 7.732,61.316 7.752,61.198 7.774,61.08 7.836,61.02 7.901,60.961 8.017,60.947 8.133,60.933 8.325,60.933 h 0.059 q 0.06,0 0.141,0.003 0.082,0 0.17,0.003 0.09,0.002 0.149,0.005 0.062,0.006 0.099,0.017 0.04,0.009 0.059,0.025 0.02,0.015 0.025,0.037 0.006,0.02 0.006,0.045 0,0.065 -0.037,0.096 Q 8.96,61.193 8.846,61.201 8.79,61.207 8.68,61.209 H 8.46 q -0.113,0 -0.203,0.003 H 8.144 Q 8.071,61.215 8.04,61.246 8.011,61.274 8.011,61.384 l 0.003,0.125 q 0.006,0.096 0.006,0.27 h 0.234 q 0.15,0 0.243,0.006 0.096,0.003 0.147,0.017 0.053,0.014 0.073,0.045 0.02,0.031 0.02,0.082 0,0.026 -0.006,0.048 -0.003,0.02 -0.023,0.037 -0.02,0.014 -0.056,0.025 -0.037,0.009 -0.104,0.014 -0.082,0.006 -0.156,0.009 H 8.014 v 0.344 l 0.006,0.096 q 0.003,0.045 0.011,0.076 0.011,0.031 0.037,0.051 0.028,0.02 0.079,0.028 0.053,0.009 0.141,0.009 h 0.607 q 0.099,0 0.124,0.036 0.025,0.037 0.025,0.1 0,0.05 -0.022,0.078 -0.023,0.026 -0.11,0.037 -0.085,0.014 -0.257,0.017 -0.17,0.003 -0.469,0.003 -0.127,0 -0.208,-0.023 Q 7.896,62.892 7.845,62.838 7.795,62.784 7.769,62.7 7.746,62.612 7.738,62.488 Z m 2.22,-1.563 q 0.08,0 0.18,0.014 0.105,0.01 0.196,0.045 0.09,0.03 0.152,0.084 0.062,0.051 0.062,0.127 0,0.046 -0.025,0.077 -0.026,0.03 -0.082,0.03 -0.042,0 -0.088,-0.016 -0.042,-0.017 -0.098,-0.034 -0.054,-0.02 -0.127,-0.037 -0.071,-0.017 -0.167,-0.017 -0.186,0 -0.277,0.068 -0.087,0.065 -0.087,0.18 0,0.08 0.04,0.133 0.039,0.054 0.104,0.093 0.068,0.037 0.15,0.062 0.084,0.026 0.172,0.048 0.098,0.026 0.194,0.063 0.1,0.036 0.175,0.096 0.077,0.059 0.122,0.15 0.048,0.09 0.048,0.228 0,0.144 -0.054,0.26 -0.054,0.112 -0.147,0.194 -0.093,0.08 -0.223,0.124 -0.13,0.043 -0.282,0.043 -0.084,0 -0.197,-0.017 -0.113,-0.014 -0.215,-0.051 -0.101,-0.04 -0.172,-0.102 -0.07,-0.065 -0.07,-0.158 0,-0.056 0.028,-0.09 0.03,-0.034 0.09,-0.034 0.048,0 0.079,0.02 0.031,0.017 0.054,0.04 0.084,0.073 0.192,0.098 0.107,0.025 0.22,0.025 0.065,0 0.135,-0.008 0.073,-0.011 0.133,-0.042 0.059,-0.031 0.099,-0.088 0.039,-0.06 0.039,-0.158 0,-0.09 -0.037,-0.147 -0.034,-0.059 -0.093,-0.098 -0.06,-0.04 -0.14,-0.065 -0.08,-0.026 -0.173,-0.051 -0.104,-0.028 -0.206,-0.062 -0.102,-0.034 -0.18,-0.09 -0.08,-0.06 -0.13,-0.147 -0.048,-0.09 -0.048,-0.229 0,-0.138 0.05,-0.243 0.051,-0.104 0.139,-0.175 0.087,-0.07 0.206,-0.107 0.121,-0.037 0.26,-0.037 z"
       style="font-weight:400;font-size:2.82200003px;font-family:Sniglet;-inkscape-font-specification:'Sniglet, Normal';font-variant-ligatures:normal;font-variant-caps:normal;font-variant-numeric:normal;font-feature-settings:normal;text-align:start;letter-spacing:0;word-spacing:0;fill:#c8c8c8;stroke-width:0.78124732"
       aria-label="NOTES"
       font-weight="400"
       font-size="2.822"
       letter-spacing="0"
       word-spacing="0"
       id="path87"
       inkscape:connector-curvature="0" />
  </g>
  <g
     style="line-height:1.25;stroke-width:0.78124732"
     id="g93"
     transform="matrix(1.2800044,0,0,1.2800044,0,-0.09623859)">
    <path
       d="m 22.016,60.904 q 0.093,0 0.186,0.017 0.096,0.014 0.172,0.048 0.076,0.031 0.124,0.08 0.051,0.044 0.051,0.106 0,0.065 -0.034,0.1 -0.034,0.033 -0.085,0.033 -0.048,0 -0.084,-0.014 l -0.085,-0.037 q -0.045,-0.02 -0.11,-0.034 -0.065,-0.016 -0.172,-0.016 -0.107,0 -0.206,0.056 -0.096,0.054 -0.17,0.152 -0.07,0.096 -0.112,0.229 -0.043,0.133 -0.043,0.288 0,0.192 0.048,0.33 0.051,0.138 0.13,0.229 0.08,0.087 0.178,0.132 0.102,0.043 0.203,0.043 0.121,0 0.203,-0.026 0.082,-0.025 0.139,-0.056 0.059,-0.031 0.101,-0.057 0.043,-0.025 0.082,-0.025 0.048,0 0.076,0.028 0.028,0.026 0.028,0.093 0,0.057 -0.045,0.116 -0.042,0.056 -0.127,0.104 -0.082,0.046 -0.197,0.077 -0.116,0.028 -0.26,0.028 -0.158,0 -0.316,-0.062 -0.155,-0.062 -0.28,-0.184 -0.12,-0.124 -0.197,-0.307 -0.076,-0.187 -0.076,-0.432 0,-0.246 0.068,-0.438 0.07,-0.191 0.189,-0.324 0.121,-0.136 0.28,-0.206 0.16,-0.07 0.34,-0.07 z m 1.985,1.823 -0.011,-0.318 q -0.003,-0.17 -0.003,-0.39 l -0.192,0.006 h -0.439 q -0.105,0 -0.187,-0.003 l -0.006,0.344 q -0.003,0.164 -0.011,0.359 -0.003,0.067 -0.014,0.104 -0.009,0.037 -0.026,0.056 -0.017,0.02 -0.04,0.023 -0.019,0.006 -0.047,0.006 -0.05,0 -0.085,-0.034 -0.034,-0.037 -0.04,-0.153 -0.005,-0.101 -0.008,-0.211 0,-0.11 -0.003,-0.237 -0.002,-0.127 -0.002,-0.274 v -0.333 q 0,-0.2 0.002,-0.342 0.003,-0.144 0.015,-0.234 0.014,-0.09 0.042,-0.133 0.028,-0.042 0.079,-0.042 0.048,0 0.085,0.031 0.036,0.031 0.042,0.144 l 0.008,0.175 0.006,0.153 q 0.003,0.073 0.003,0.152 v 0.175 q 0.211,-0.009 0.415,-0.009 0.098,0 0.197,0.003 0.102,0.003 0.206,0.009 v -0.082 q 0,-0.2 0.003,-0.342 0.003,-0.144 0.014,-0.234 0.014,-0.09 0.042,-0.133 0.029,-0.042 0.08,-0.042 0.047,0 0.084,0.031 0.037,0.031 0.042,0.144 l 0.009,0.18 0.006,0.159 q 0.002,0.076 0.002,0.16 v 0.43 q 0,0.115 -0.002,0.228 l -0.006,0.229 q -0.003,0.116 -0.009,0.243 -0.002,0.067 -0.014,0.104 -0.008,0.037 -0.025,0.056 -0.017,0.02 -0.04,0.023 -0.02,0.006 -0.048,0.006 -0.05,0 -0.084,-0.034 -0.034,-0.037 -0.04,-0.153 z m 1.362,0.203 q -0.17,0 -0.32,-0.067 -0.146,-0.068 -0.256,-0.195 -0.11,-0.13 -0.175,-0.316 -0.062,-0.186 -0.062,-0.423 0,-0.223 0.054,-0.41 0.056,-0.186 0.163,-0.321 0.11,-0.136 0.271,-0.209 0.161,-0.076 0.373,-0.076 0.172,0 0.327,0.062 0.155,0.062 0.271,0.186 0.119,0.124 0.186,0.31 0.068,0.187 0.068,0.435 0,0.206 -0.056,0.392 -0.054,0.187 -0.167,0.328 -0.11,0.138 -0.28,0.223 -0.169,0.082 -0.397,0.082 z m 0.005,-0.265 q 0.156,0 0.271,-0.062 0.116,-0.065 0.192,-0.17 0.076,-0.103 0.113,-0.239 0.037,-0.138 0.037,-0.282 0,-0.175 -0.048,-0.31 -0.045,-0.139 -0.124,-0.232 -0.08,-0.093 -0.184,-0.141 -0.104,-0.05 -0.223,-0.05 -0.14,0 -0.248,0.058 -0.105,0.06 -0.178,0.161 -0.07,0.102 -0.107,0.24 -0.037,0.136 -0.037,0.29 0,0.167 0.042,0.306 0.043,0.135 0.113,0.231 0.074,0.096 0.172,0.15 0.1,0.05 0.21,0.05 z m 1.831,-0.457 -0.082,0.006 h -0.178 q -0.048,0 -0.107,-0.006 v 0.573 q 0,0.09 -0.045,0.113 -0.043,0.02 -0.108,0.02 -0.034,0 -0.053,-0.006 -0.02,-0.003 -0.034,-0.014 -0.012,-0.014 -0.02,-0.04 -0.006,-0.025 -0.008,-0.07 -0.006,-0.05 -0.009,-0.147 l -0.006,-0.254 -0.002,-0.375 v -0.522 q 0,-0.116 0.028,-0.223 0.028,-0.11 0.101,-0.192 0.074,-0.085 0.198,-0.136 0.127,-0.05 0.322,-0.05 0.138,0 0.268,0.03 0.133,0.032 0.234,0.108 0.102,0.076 0.164,0.206 0.062,0.13 0.062,0.324 0,0.26 -0.113,0.404 -0.11,0.141 -0.305,0.2 l 0.378,0.52 q 0.051,0.067 0.051,0.138 0,0.056 -0.04,0.087 -0.036,0.034 -0.092,0.034 -0.063,0 -0.108,-0.034 -0.045,-0.036 -0.084,-0.093 z m 0.443,-0.657 q 0,-0.195 -0.119,-0.288 -0.116,-0.096 -0.37,-0.096 -0.093,0 -0.155,0.017 -0.062,0.014 -0.099,0.056 -0.036,0.042 -0.053,0.119 -0.014,0.073 -0.014,0.189 v 0.192 q 0,0.11 0.002,0.2 0.065,0.003 0.144,0.003 h 0.153 q 0.079,0 0.166,-0.009 0.09,-0.01 0.167,-0.05 0.076,-0.043 0.127,-0.119 0.05,-0.079 0.05,-0.214 z m 1.109,-0.644 q 0.291,0 0.466,0.088 0.175,0.087 0.268,0.231 0.093,0.144 0.121,0.327 0.031,0.184 0.031,0.373 0,0.206 -0.053,0.39 -0.051,0.183 -0.161,0.321 -0.107,0.136 -0.277,0.217 -0.169,0.08 -0.403,0.08 -0.186,0 -0.3,-0.029 -0.11,-0.025 -0.171,-0.079 -0.06,-0.053 -0.08,-0.135 -0.02,-0.082 -0.02,-0.192 v -1.061 q 0,-0.122 0.02,-0.22 0.023,-0.1 0.085,-0.167 0.062,-0.07 0.175,-0.107 0.116,-0.037 0.3,-0.037 z m 0.012,1.744 q 0.175,0 0.287,-0.062 0.116,-0.065 0.184,-0.17 0.068,-0.104 0.093,-0.236 0.028,-0.133 0.028,-0.271 0,-0.127 -0.02,-0.254 -0.02,-0.13 -0.081,-0.234 -0.062,-0.105 -0.178,-0.17 -0.116,-0.065 -0.308,-0.065 -0.175,0 -0.242,0.051 -0.068,0.05 -0.068,0.155 v 1.081 q 0,0.088 0.062,0.133 0.065,0.042 0.243,0.042 z"
       style="font-weight:400;font-size:2.82200003px;font-family:Sniglet;-inkscape-font-specification:'Sniglet, Normal';font-variant-ligatures:normal;font-variant-caps:normal;font-variant-numeric:normal;font-feature-settings:normal;text-align:start;letter-spacing:0;word-spacing:0;fill:#c8c8c8;stroke-width:0.78124732"
       aria-label="CHORD"
       font-weight="400"
       font-size="2.822"
       letter-spacing="0"
       word-spacing="0"
       id="path91"
       inkscape:connector-curvature="0" />
  </g>
</svg>
