<?xml version="1.0" encoding="UTF-8" standalone="no"?>
<svg
   xmlns:dc="http://purl.org/dc/elements/1.1/"
   xmlns:cc="http://creativecommons.org/ns#"
   xmlns:rdf="http://www.w3.org/1999/02/22-rdf-syntax-ns#"
   xmlns:svg="http://www.w3.org/2000/svg"
   xmlns="http://www.w3.org/2000/svg"
   xmlns:xlink="http://www.w3.org/1999/xlink"
   xmlns:sodipodi="http://sodipodi.sourceforge.net/DTD/sodipodi-0.dtd"
   xmlns:inkscape="http://www.inkscape.org/namespaces/inkscape"
   width="105"
   height="380"
   viewBox="0 0 27.781 100.542"
   version="1.1"
   id="svg89"
   sodipodi:docname="FourView_dark.svg"
   inkscape:version="0.92.4 (5da689c313, 2019-01-14)">
  <metadata
     id="metadata93">
    <rdf:RDF>
      <cc:Work
         rdf:about="">
        <dc:format>image/svg+xml</dc:format>
        <dc:type
           rdf:resource="http://purl.org/dc/dcmitype/StillImage" />
        <dc:title></dc:title>
      </cc:Work>
    </rdf:RDF>
  </metadata>
  <sodipodi:namedview
     pagecolor="#ffffff"
     bordercolor="#666666"
     borderopacity="1"
     objecttolerance="10"
     gridtolerance="10"
     guidetolerance="10"
     inkscape:pageopacity="0"
     inkscape:pageshadow="2"
     inkscape:window-width="1920"
     inkscape:window-height="1017"
     id="namedview91"
     showgrid="false"
     inkscape:zoom="4.2474106"
     inkscape:cx="23.023392"
     inkscape:cy="134.96454"
     inkscape:window-x="-8"
     inkscape:window-y="-8"
     inkscape:window-maximized="1"
     inkscape:current-layer="svg89"
     showguides="true"
     inkscape:guide-bbox="true">
    <sodipodi:guide
       position="8.4350587,32.11088"
       orientation="1,0"
       id="guide858"
       inkscape:locked="false" />
    <sodipodi:guide
       position="19.11653,27.331689"
       orientation="1,0"
       id="guide860"
       inkscape:locked="false" />
    <sodipodi:guide
       position="10.85766,30.393014"
       orientation="0,1"
       id="guide862"
       inkscape:locked="false" />
    <sodipodi:guide
       position="12.289198,18.103665"
       orientation="0,1"
       id="guide864"
       inkscape:locked="false" />
  </sodipodi:namedview>
  <defs
     id="defs23">
    <linearGradient
       id="a">
      <stop
         offset="0"
         stop-color="#dcdcdc"
         id="stop2" />
      <stop
         offset="1"
         id="stop4" />
    </linearGradient>
    <linearGradient
       xlink:href="#a"
       id="f"
       x1="29.292"
       y1="22.798"
       x2="29.292"
       y2="13.944"
       gradientUnits="userSpaceOnUse"
       gradientTransform="matrix(0.55968,0,0,0.9602,12.15,-1.77)" />
    <linearGradient
       xlink:href="#b"
       id="d"
       x1="26.759"
       y1="162"
       x2="30.999"
       y2="162"
       gradientUnits="userSpaceOnUse"
       gradientTransform="matrix(1 0 0 .56406 0 70.452)" />
    <linearGradient
       id="b">
      <stop
         offset="0"
         stop-color="#fff"
         id="stop9" />
      <stop
         offset="1"
         stop-color="#fff"
         stop-opacity="0"
         id="stop11" />
    </linearGradient>
    <linearGradient
       xlink:href="#c"
       id="e"
       x1="26.759"
       y1="162"
       x2="30.999"
       y2="162"
       gradientUnits="userSpaceOnUse"
       gradientTransform="matrix(.99995 0 0 .53173 135.453 -112.052)" />
    <linearGradient
       id="c">
      <stop
         offset="0"
         stop-color="#fff"
         stop-opacity=".992"
         id="stop15" />
      <stop
         offset="1"
         stop-color="#fff"
         stop-opacity="0"
         id="stop17" />
    </linearGradient>
    <linearGradient
       xlink:href="#a"
       id="g"
       x1="29.292"
       y1="22.798"
       x2="29.292"
       y2="13.944"
       gradientUnits="userSpaceOnUse"
       gradientTransform="matrix(0.55968,0,0,0.9602,12.15,10.93)" />
    <linearGradient
       xlink:href="#a"
       id="h"
       x1="29.292"
       y1="22.798"
       x2="29.292"
       y2="13.944"
       gradientUnits="userSpaceOnUse"
       gradientTransform="matrix(0.55968,0,0,0.9602,12.15,23.63)" />
    <linearGradient
       xlink:href="#a"
       id="i"
       x1="29.292"
       y1="22.798"
       x2="29.292"
       y2="13.944"
       gradientUnits="userSpaceOnUse"
       gradientTransform="matrix(0.55968,0,0,0.9602,12.15,36.33)" />
  </defs>
  <path
     d="M0 0h27.781v100.541H0zm0 0"
     fill="#191919"
     id="path25" />
  <g
     style="line-height:1.25"
     id="g29">
    <path
       word-spacing="0"
       letter-spacing="0"
       font-weight="400"
       aria-label="♫"
       font-size="3.528"
       style="-inkscape-font-specification:'Arial, Normal';font-variant-ligatures:normal;font-variant-caps:normal;font-variant-numeric:normal;font-feature-settings:normal;text-align:start"
       d="M14.234 96.87l-1.63.115v-2.06q0-.23.065-.333.064-.104.22-.147.153-.043.347-.002.224.047.357.19.133.146.133.33 0 .186-.158.286-.157.103-.407.05-.082-.018-.144-.044-.063-.027-.205-.11v1.345l1.22-.085v-1.554q0-.225.065-.337.065-.11.225-.151.16-.04.349 0 .223.047.354.19.129.14.129.325 0 .195-.156.294-.155.1-.407.047-.16-.034-.357-.16z"
       font-family="Arial"
       fill="#969696"
       id="path27" />
  </g>
  <g
     style="line-height:1.25"
     id="g33"
     transform="translate(0,1.455708)">
    <path
       d="m 9.018,6.332 q -0.004,0.161 -0.004,0.351 0,0.191 -0.013,0.356 -0.01,0.127 -0.06,0.165 -0.046,0.034 -0.13,0.034 -0.077,0 -0.12,-0.03 Q 8.654,7.183 8.633,7.094 8.616,7.001 8.611,6.827 8.607,6.65 8.607,6.353 8.467,6.353 8.34,6.358 8.213,6.362 8.095,6.362 7.917,6.362 7.769,6.353 7.625,6.345 7.519,6.323 7.418,6.298 7.359,6.256 7.303,6.214 7.303,6.146 7.303,6.053 7.38,5.913 7.456,5.769 7.57,5.604 7.684,5.439 7.81,5.27 L 8.053,4.948 Q 8.103,4.88 8.197,4.762 8.294,4.639 8.404,4.52 8.514,4.397 8.624,4.31 8.734,4.22 8.81,4.22 q 0.072,0 0.127,0.046 0.055,0.047 0.064,0.216 0.017,0.246 0.02,0.517 0.005,0.266 0.005,0.53 V 5.947 Q 9.145,5.955 9.216,5.968 9.289,5.981 9.326,6.006 9.365,6.027 9.378,6.061 9.39,6.095 9.39,6.146 9.39,6.252 9.293,6.29 9.196,6.324 9.018,6.332 Z M 8.603,4.948 8.285,5.333 8.065,5.604 7.909,5.799 7.794,5.943 Q 7.989,5.934 8.192,5.934 8.4,5.93 8.602,5.93 Z M 11.186,6.15 Q 10.99,6.16 10.736,6.167 10.482,6.171 10.136,6.171 9.991,6.171 9.89,6.167 9.788,6.163 9.725,6.147 9.661,6.125 9.631,6.082 9.601,6.04 9.601,5.964 q 0,-0.038 0.01,-0.068 0.008,-0.034 0.037,-0.06 0.03,-0.025 0.08,-0.042 0.056,-0.02 0.14,-0.03 0.064,-0.003 0.11,-0.008 0.05,-0.004 0.098,-0.004 0.047,-0.004 0.097,-0.004 H 10.3 q 0.229,0 0.44,0.004 0.212,0 0.44,0.013 0.103,0.008 0.158,0.025 0.055,0.013 0.084,0.038 0.03,0.026 0.034,0.06 0.009,0.033 0.009,0.076 0,0.076 -0.055,0.127 -0.051,0.05 -0.225,0.06 z m 1.775,0.89 q -0.055,0.101 -0.102,0.147 -0.042,0.047 -0.11,0.047 -0.068,0 -0.118,-0.047 Q 12.58,7.141 12.521,7.043 12.444,6.916 12.347,6.693 12.254,6.468 12.157,6.205 12.059,5.938 11.966,5.655 11.873,5.371 11.796,5.121 11.725,4.871 11.678,4.685 q -0.042,-0.19 -0.042,-0.27 0,-0.085 0.034,-0.128 0.034,-0.042 0.13,-0.042 0.056,0 0.094,0.03 0.042,0.025 0.106,0.152 0.05,0.097 0.11,0.254 0.06,0.157 0.123,0.347 0.067,0.19 0.135,0.402 l 0.136,0.415 0.127,0.398 q 0.059,0.19 0.11,0.343 0.05,-0.157 0.114,-0.347 l 0.13,-0.398 0.137,-0.415 q 0.067,-0.21 0.135,-0.398 l 0.127,-0.343 q 0.06,-0.156 0.106,-0.258 0.06,-0.123 0.102,-0.152 0.046,-0.03 0.093,-0.03 0.097,0 0.13,0.05 0.039,0.047 0.039,0.14 0,0.085 -0.025,0.204 -0.026,0.118 -0.09,0.317 -0.058,0.195 -0.16,0.487 l -0.25,0.716 q -0.038,0.114 -0.09,0.237 -0.045,0.122 -0.096,0.24 -0.047,0.115 -0.093,0.221 -0.047,0.106 -0.09,0.182 z M 14.258,6.946 Q 14.25,6.794 14.245,6.628 q 0,-0.165 -0.004,-0.355 -0.004,-0.19 -0.004,-0.41 v -0.5 q 0,-0.3 0.004,-0.513 0.004,-0.215 0.026,-0.35 0.02,-0.136 0.063,-0.2 0.047,-0.063 0.123,-0.063 0.038,0 0.072,0.008 0.034,0.01 0.06,0.038 0.025,0.026 0.042,0.08 0.02,0.051 0.025,0.136 l 0.013,0.271 0.008,0.237 q 0.004,0.114 0.004,0.241 v 0.644 q 0,0.173 -0.004,0.343 l -0.008,0.343 q -0.005,0.173 -0.013,0.364 -0.004,0.101 -0.021,0.156 -0.017,0.055 -0.043,0.085 -0.025,0.03 -0.06,0.034 -0.033,0.008 -0.075,0.008 -0.076,0 -0.131,-0.05 Q 14.267,7.12 14.258,6.946 Z m 0.996,-0.38 Q 15.244,6.429 15.237,6.197 15.227,5.964 15.227,5.718 V 5.43 l 0.01,-0.309 q 0.008,-0.313 0.038,-0.49 0.034,-0.178 0.127,-0.267 0.097,-0.09 0.27,-0.11 0.174,-0.022 0.462,-0.022 h 0.09 q 0.088,0 0.21,0.005 0.123,0 0.255,0.004 l 0.224,0.008 q 0.093,0.01 0.148,0.026 0.06,0.012 0.09,0.038 0.029,0.021 0.037,0.055 0.009,0.03 0.009,0.068 0,0.097 -0.055,0.144 -0.055,0.042 -0.225,0.055 -0.084,0.008 -0.25,0.012 h -0.33 q -0.17,0 -0.304,0.004 h -0.17 q -0.11,0.005 -0.156,0.051 -0.043,0.043 -0.043,0.208 l 0.004,0.186 q 0.009,0.144 0.009,0.406 h 0.35 q 0.226,0 0.365,0.01 0.144,0.003 0.22,0.024 0.08,0.021 0.11,0.068 0.03,0.047 0.03,0.123 0,0.038 -0.008,0.072 -0.004,0.03 -0.034,0.055 -0.03,0.02 -0.085,0.038 -0.055,0.013 -0.156,0.021 -0.123,0.008 -0.233,0.013 h -0.568 v 0.516 l 0.009,0.144 q 0.004,0.068 0.017,0.114 0.017,0.047 0.055,0.077 0.042,0.03 0.118,0.042 0.08,0.013 0.212,0.013 h 0.91 q 0.148,0 0.187,0.055 0.038,0.055 0.038,0.148 0,0.076 -0.034,0.118 -0.034,0.038 -0.165,0.055 -0.127,0.022 -0.386,0.026 -0.254,0.004 -0.702,0.004 -0.19,0 -0.314,-0.034 Q 15.491,7.17 15.415,7.09 15.338,7.01 15.3,6.882 15.266,6.752 15.254,6.565 Z m 3.499,-1.517 q 0.025,-0.059 0.076,-0.097 0.055,-0.038 0.114,-0.038 0.055,0 0.106,0.038 0.05,0.034 0.08,0.093 0.162,0.33 0.318,0.716 0.157,0.38 0.284,0.724 0.072,-0.525 0.156,-1.059 0.085,-0.533 0.19,-1.02 0.014,-0.055 0.039,-0.089 0.025,-0.038 0.055,-0.055 0.03,-0.02 0.06,-0.03 0.033,-0.008 0.054,-0.008 0.072,0 0.119,0.042 0.046,0.038 0.046,0.106 0,0.076 -0.025,0.271 -0.025,0.19 -0.068,0.45 -0.042,0.253 -0.097,0.541 -0.05,0.287 -0.102,0.554 -0.05,0.267 -0.097,0.487 -0.047,0.22 -0.076,0.334 -0.026,0.098 -0.076,0.15 -0.051,0.045 -0.15,0.045 -0.1,0 -0.172,-0.089 Q 19.519,7.022 19.434,6.827 19.354,6.633 19.24,6.332 19.125,6.027 18.943,5.604 q -0.186,0.423 -0.304,0.728 -0.115,0.305 -0.2,0.5 -0.08,0.194 -0.152,0.288 -0.072,0.088 -0.17,0.088 -0.168,0 -0.224,-0.194 Q 17.86,6.899 17.813,6.684 17.766,6.464 17.716,6.197 L 17.618,5.647 Q 17.568,5.358 17.528,5.104 17.491,4.85 17.466,4.66 17.445,4.465 17.445,4.39 q 0,-0.073 0.046,-0.12 0.047,-0.046 0.132,-0.046 0.059,0 0.114,0.038 0.055,0.034 0.08,0.144 0.102,0.487 0.178,1.02 0.08,0.534 0.17,1.06 0.13,-0.31 0.262,-0.658 0.13,-0.347 0.326,-0.779 z"
       style="font-weight:400;font-size:4.2329998px;font-family:Sniglet;-inkscape-font-specification:'Sniglet, Normal';font-variant-ligatures:normal;font-variant-caps:normal;font-variant-numeric:normal;font-feature-settings:normal;text-align:start;letter-spacing:0;word-spacing:0;fill:#c8c8c8"
       aria-label="4-VIEW"
       font-weight="400"
       font-size="4.233"
       letter-spacing="0"
       word-spacing="0"
       id="path31"
       inkscape:connector-curvature="0" />
  </g>
  <g
     style="line-height:1.25"
     id="g37"
     transform="translate(0,1.322946)">
    <path
       d="m 11.938,62.577 q -0.08,0.006 -0.17,0.009 l -0.194,0.005 0.006,0.144 0.006,0.133 q 0.002,0.068 0.002,0.14 0.003,0.074 0.003,0.165 v 0.245 q 0,0.116 -0.003,0.235 l -0.005,0.234 q -0.003,0.118 -0.01,0.245 -0.002,0.068 -0.013,0.105 -0.008,0.036 -0.025,0.056 -0.017,0.02 -0.04,0.023 -0.022,0.005 -0.05,0.005 -0.05,0 -0.088,-0.034 -0.034,-0.036 -0.04,-0.152 -0.005,-0.102 -0.008,-0.214 0,-0.113 -0.003,-0.243 -0.003,-0.13 -0.003,-0.28 v -0.606 q 0.003,-0.116 0.01,-0.2 h -0.117 q -0.118,0 -0.203,-0.003 -0.082,-0.003 -0.136,-0.015 -0.053,-0.014 -0.08,-0.042 -0.021,-0.028 -0.021,-0.08 0,-0.024 0.005,-0.044 0.006,-0.023 0.026,-0.04 0.02,-0.02 0.054,-0.03 0.036,-0.012 0.093,-0.018 l 0.096,-0.005 0.084,-0.006 q 0.043,-0.003 0.088,-0.003 h 0.104 q 0.167,0 0.313,0.003 0.15,0.003 0.317,0.01 0.067,0.007 0.104,0.018 0.037,0.009 0.056,0.026 0.02,0.017 0.023,0.04 0.006,0.022 0.006,0.05 0,0.05 -0.037,0.085 -0.034,0.034 -0.15,0.04 z m 1.5,1.54 -0.01,-0.318 q -0.004,-0.17 -0.004,-0.39 -0.09,0.004 -0.192,0.006 h -0.44 q -0.105,0 -0.186,-0.002 L 12.6,63.757 q -0.003,0.164 -0.01,0.358 -0.004,0.068 -0.015,0.105 -0.01,0.036 -0.026,0.056 -0.017,0.02 -0.04,0.023 -0.02,0.005 -0.047,0.005 -0.05,0 -0.085,-0.033 -0.034,-0.037 -0.04,-0.153 -0.005,-0.101 -0.008,-0.212 0,-0.11 -0.003,-0.237 -0.003,-0.127 -0.003,-0.273 v -0.333 q 0,-0.2 0.003,-0.342 0.003,-0.144 0.014,-0.234 0.014,-0.09 0.043,-0.133 0.028,-0.042 0.08,-0.042 0.047,0 0.083,0.03 0.037,0.032 0.043,0.145 l 0.008,0.175 0.006,0.152 q 0.003,0.074 0.003,0.153 v 0.175 q 0.21,-0.01 0.414,-0.01 0.1,0 0.198,0.004 l 0.206,0.008 v -0.081 q 0,-0.2 0.003,-0.342 0.003,-0.144 0.014,-0.234 0.014,-0.09 0.042,-0.133 0.03,-0.042 0.08,-0.042 0.047,0 0.084,0.03 0.037,0.032 0.042,0.145 l 0.01,0.18 0.004,0.159 q 0.003,0.076 0.003,0.16 v 0.429 q 0,0.116 -0.003,0.229 l -0.005,0.229 q -0.003,0.115 -0.01,0.242 -0.001,0.068 -0.013,0.105 -0.008,0.036 -0.025,0.056 -0.017,0.02 -0.04,0.023 -0.02,0.005 -0.048,0.005 -0.05,0 -0.084,-0.034 -0.034,-0.036 -0.04,-0.152 z m 1.257,-0.518 -0.082,0.005 h -0.178 q -0.048,0 -0.107,-0.005 v 0.573 q 0,0.09 -0.045,0.113 -0.042,0.02 -0.107,0.02 -0.034,0 -0.054,-0.006 -0.02,-0.003 -0.034,-0.014 -0.01,-0.014 -0.02,-0.04 -0.005,-0.025 -0.008,-0.07 -0.006,-0.051 -0.008,-0.147 l -0.006,-0.254 q 0,-0.155 -0.003,-0.375 v -0.523 q 0,-0.115 0.028,-0.223 0.03,-0.11 0.102,-0.191 0.073,-0.085 0.198,-0.136 0.127,-0.05 0.32,-0.05 0.14,0 0.269,0.03 0.133,0.03 0.235,0.108 0.1,0.076 0.163,0.206 0.062,0.13 0.062,0.324 0,0.26 -0.112,0.404 -0.11,0.14 -0.305,0.2 l 0.378,0.52 q 0.05,0.067 0.05,0.138 0,0.056 -0.04,0.087 -0.035,0.034 -0.092,0.034 -0.062,0 -0.107,-0.034 -0.045,-0.036 -0.085,-0.093 z m 0.443,-0.658 q 0,-0.194 -0.118,-0.288 -0.116,-0.096 -0.37,-0.096 -0.093,0 -0.155,0.017 -0.062,0.015 -0.1,0.057 -0.036,0.042 -0.053,0.118 -0.014,0.074 -0.014,0.19 v 0.19 q 0,0.11 0.003,0.2 0.065,0.005 0.144,0.005 h 0.152 q 0.08,0 0.167,-0.01 0.09,-0.01 0.166,-0.05 0.077,-0.042 0.127,-0.12 0.05,-0.077 0.05,-0.213 z m 1.21,1.4 q -0.32,0 -0.47,-0.175 -0.06,-0.068 -0.101,-0.172 -0.04,-0.107 -0.065,-0.277 -0.023,-0.17 -0.034,-0.417 -0.01,-0.251 -0.01,-0.61 0,-0.116 0.007,-0.19 0.005,-0.075 0.022,-0.117 0.017,-0.046 0.043,-0.063 0.028,-0.017 0.07,-0.017 0.082,0 0.116,0.074 0.034,0.073 0.034,0.254 0,0.062 -0.003,0.11 v 0.099 q 0,0.048 -0.003,0.107 v 0.144 q 0,0.282 0.017,0.468 0.02,0.187 0.065,0.3 0.045,0.11 0.12,0.155 0.08,0.045 0.196,0.045 0.122,0 0.2,-0.048 0.082,-0.05 0.13,-0.167 0.048,-0.118 0.068,-0.313 0.023,-0.195 0.023,-0.485 0,-0.127 -0.003,-0.218 v -0.162 q 0,-0.105 0.006,-0.175 0.008,-0.07 0.022,-0.11 0.017,-0.043 0.045,-0.06 0.028,-0.017 0.07,-0.017 0.043,0 0.07,0.017 0.03,0.017 0.047,0.06 0.016,0.042 0.022,0.118 0.006,0.074 0.006,0.192 0,0.497 -0.03,0.819 -0.032,0.318 -0.11,0.505 -0.08,0.183 -0.22,0.257 -0.134,0.07 -0.35,0.07 z"
       style="font-weight:400;font-size:2.82200003px;font-family:Sniglet;-inkscape-font-specification:'Sniglet, Normal';font-variant-ligatures:normal;font-variant-caps:normal;font-variant-numeric:normal;font-feature-settings:normal;text-align:start;letter-spacing:0;word-spacing:0;fill:#c8c8c8"
       aria-label="THRU"
       font-weight="400"
       font-size="2.822"
       letter-spacing="0"
       word-spacing="0"
       id="path35"
       inkscape:connector-curvature="0" />
  </g>
  <g
     style="line-height:1.25"
     id="g41"
     transform="translate(0,1.587616)">
    <path
       word-spacing="0"
       letter-spacing="0"
       font-weight="400"
       aria-label="1"
       font-size="2.822"
       style="font-weight:400;font-size:2.82200003px;font-family:Sniglet;-inkscape-font-specification:'Sniglet, Normal';font-variant-ligatures:normal;font-variant-caps:normal;font-variant-numeric:normal;font-feature-settings:normal;text-align:start;letter-spacing:0;word-spacing:0;fill:#c8c8c8"
       d="M 5.941,11.292 Q 5.935,11.19 5.931,11.08 V 10.843 Q 5.927,10.716 5.927,10.57 V 9.884 l -0.17,0.087 q -0.07,0.045 -0.112,0.054 -0.04,0.008 -0.088,0.008 -0.042,0 -0.076,-0.036 Q 5.451,9.96 5.451,9.909 5.451,9.859 5.484,9.822 5.52,9.782 5.568,9.752 5.63,9.709 5.701,9.666 5.774,9.624 5.841,9.59 5.911,9.554 5.966,9.534 q 0.06,-0.023 0.1,-0.023 0.02,0 0.04,0.006 0.021,0.005 0.04,0.022 0.018,0.017 0.03,0.054 0.013,0.034 0.016,0.093 l 0.01,0.178 0.004,0.15 q 0.003,0.07 0.003,0.15 v 0.425 q 0,0.116 -0.003,0.23 l -0.005,0.227 q -0.003,0.116 -0.01,0.243 -0.002,0.068 -0.013,0.105 -0.01,0.036 -0.025,0.056 -0.017,0.02 -0.04,0.023 -0.02,0.005 -0.048,0.005 -0.05,0 -0.085,-0.034 -0.033,-0.036 -0.04,-0.152 z"
       id="path39"
       inkscape:connector-curvature="0" />
  </g>
  <g
     style="line-height:1.25"
     id="g45"
     transform="translate(0,1.587616)">
    <path
       word-spacing="0"
       letter-spacing="0"
       font-weight="400"
       aria-label="2"
       font-size="2.822"
       style="font-weight:400;font-size:2.82200003px;font-family:Sniglet;-inkscape-font-specification:'Sniglet, Normal';font-variant-ligatures:normal;font-variant-caps:normal;font-variant-numeric:normal;font-feature-settings:normal;text-align:start;letter-spacing:0;word-spacing:0;fill:#c8c8c8"
       d="m 5.82,22.451 q -0.102,0 -0.17,0.022 -0.067,0.02 -0.112,0.054 -0.045,0.034 -0.074,0.07 l -0.05,0.071 q -0.023,0.034 -0.05,0.057 -0.027,0.02 -0.066,0.02 -0.068,0 -0.096,-0.034 -0.025,-0.037 -0.025,-0.096 0,-0.125 0.093,-0.232 0.028,-0.034 0.076,-0.07 0.05,-0.04 0.118,-0.07 0.071,-0.032 0.161,-0.05 0.093,-0.024 0.21,-0.024 0.307,0 0.476,0.15 0.17,0.15 0.17,0.42 0,0.053 -0.012,0.118 -0.008,0.065 -0.037,0.136 -0.025,0.07 -0.073,0.146 -0.048,0.077 -0.127,0.156 -0.07,0.07 -0.15,0.13 -0.079,0.06 -0.163,0.118 L 5.741,23.67 q -0.09,0.065 -0.183,0.15 0.09,0.048 0.194,0.062 0.105,0.014 0.235,0.014 0.12,0 0.194,-0.006 0.074,-0.005 0.12,-0.014 l 0.07,-0.014 q 0.025,-0.006 0.053,-0.006 0.104,0 0.104,0.096 0,0.085 -0.07,0.13 -0.07,0.045 -0.17,0.068 -0.098,0.02 -0.203,0.023 -0.104,0.005 -0.172,0.005 -0.037,0 -0.104,-0.005 Q 5.744,24.17 5.669,24.158 5.591,24.148 5.512,24.128 5.436,24.105 5.372,24.071 5.309,24.034 5.27,23.983 5.23,23.93 5.23,23.856 5.23,23.758 5.3,23.67 5.374,23.58 5.481,23.495 5.589,23.408 5.713,23.323 5.837,23.236 5.944,23.145 6.051,23.052 6.122,22.953 6.195,22.855 6.195,22.739 6.195,22.595 6.097,22.524 6.001,22.451 5.82,22.451 Z"
       id="path43"
       inkscape:connector-curvature="0" />
  </g>
  <g
     style="line-height:1.25"
     id="g49"
     transform="translate(0,1.587616)">
    <path
       word-spacing="0"
       letter-spacing="0"
       font-weight="400"
       aria-label="3"
       font-size="2.822"
       style="font-weight:400;font-size:2.82200003px;font-family:Sniglet;-inkscape-font-specification:'Sniglet, Normal';font-variant-ligatures:normal;font-variant-caps:normal;font-variant-numeric:normal;font-feature-settings:normal;text-align:start;letter-spacing:0;word-spacing:0;fill:#c8c8c8"
       d="m 5.357,35.167 q -0.09,0 -0.132,-0.045 -0.043,-0.048 -0.043,-0.096 0,-0.05 0.048,-0.082 0.048,-0.033 0.127,-0.05 0.08,-0.02 0.18,-0.026 0.103,-0.008 0.207,-0.008 0.087,0 0.195,0.008 0.107,0.006 0.2,0.034 0.093,0.026 0.155,0.08 0.062,0.05 0.062,0.14 0,0.07 -0.053,0.147 -0.054,0.076 -0.124,0.144 -0.07,0.068 -0.142,0.121 l -0.098,0.074 q 0.3,0 0.434,0.15 0.136,0.15 0.136,0.428 0,0.175 -0.065,0.305 -0.062,0.13 -0.17,0.217 -0.104,0.085 -0.242,0.127 -0.136,0.043 -0.28,0.043 -0.118,0 -0.234,-0.02 -0.113,-0.02 -0.203,-0.068 -0.09,-0.05 -0.147,-0.132 -0.053,-0.085 -0.053,-0.21 0,-0.13 0.14,-0.13 0.043,0 0.066,0.023 0.025,0.02 0.042,0.051 0.02,0.028 0.04,0.065 0.02,0.037 0.056,0.068 0.04,0.028 0.102,0.05 0.064,0.02 0.17,0.02 0.081,0 0.16,-0.016 0.08,-0.02 0.141,-0.063 0.062,-0.042 0.1,-0.112 0.04,-0.074 0.04,-0.18 0,-0.21 -0.089,-0.297 -0.085,-0.088 -0.24,-0.088 -0.04,0 -0.074,0.014 -0.034,0.012 -0.067,0.028 l -0.07,0.03 q -0.038,0.01 -0.083,0.01 -0.045,0 -0.08,-0.04 -0.033,-0.042 -0.033,-0.107 0,-0.045 0.043,-0.104 0.045,-0.06 0.12,-0.136 0.08,-0.076 0.19,-0.166 0.11,-0.093 0.246,-0.2 H 5.967 L 5.891,35.17 H 5.544 Q 5.442,35.167 5.357,35.167 Z"
       id="path47"
       inkscape:connector-curvature="0" />
  </g>
  <g
     style="line-height:1.25"
     id="g53"
     transform="translate(0,1.587616)">
    <path
       word-spacing="0"
       letter-spacing="0"
       font-weight="400"
       aria-label="4"
       font-size="2.822"
       style="font-weight:400;font-size:2.82200003px;font-family:Sniglet;-inkscape-font-specification:'Sniglet, Normal';font-variant-ligatures:normal;font-variant-caps:normal;font-variant-numeric:normal;font-feature-settings:normal;text-align:start;letter-spacing:0;word-spacing:0;fill:#c8c8c8"
       d="m 6.212,48.974 q -0.002,0.107 -0.002,0.234 0,0.127 -0.01,0.237 -0.004,0.085 -0.04,0.11 -0.03,0.023 -0.086,0.023 -0.05,0 -0.08,-0.02 Q 5.97,49.541 5.954,49.482 5.944,49.42 5.942,49.304 5.939,49.186 5.939,48.988 q -0.093,0 -0.178,0.003 -0.085,0.003 -0.164,0.003 -0.118,0 -0.217,-0.006 Q 5.284,48.983 5.214,48.968 5.146,48.951 5.106,48.923 5.07,48.895 5.07,48.85 q 0,-0.062 0.05,-0.155 0.05,-0.096 0.127,-0.206 0.077,-0.11 0.16,-0.223 l 0.162,-0.215 0.096,-0.124 q 0.065,-0.082 0.138,-0.16 0.074,-0.083 0.147,-0.142 0.073,-0.06 0.124,-0.06 0.048,0 0.085,0.032 0.037,0.03 0.042,0.144 0.012,0.163 0.014,0.344 0.003,0.178 0.003,0.353 v 0.28 q 0.08,0.005 0.127,0.013 0.048,0.01 0.074,0.026 0.025,0.014 0.033,0.036 0.01,0.023 0.01,0.057 0,0.07 -0.066,0.096 -0.065,0.022 -0.183,0.028 z m -0.276,-0.923 -0.212,0.257 -0.146,0.18 q -0.06,0.077 -0.105,0.13 l -0.076,0.096 q 0.13,-0.005 0.265,-0.005 0.14,-0.003 0.274,-0.003 z"
       id="path51"
       inkscape:connector-curvature="0" />
  </g>
  <rect
     rx="2.3399999"
     ry="2.3399999"
     y="67.614944"
     x="2.7780001"
     height="25.174"
     width="22.225"
     id="rect55"
     style="fill:#3e3e3e;stroke:#c8c8c8;stroke-width:0.26499999;paint-order:stroke markers fill" />
  <g
     style="line-height:1.25"
     id="g59"
     transform="translate(0,1.322946)">
    <path
       d="M 8.54,69.626 Q 8.535,69.525 8.532,69.415 L 8.53,69.178 Q 8.527,69.051 8.527,68.904 v -0.686 l -0.17,0.088 q -0.07,0.045 -0.112,0.053 -0.04,0.009 -0.088,0.009 -0.042,0 -0.076,-0.037 -0.031,-0.036 -0.031,-0.087 0,-0.051 0.034,-0.088 0.036,-0.04 0.084,-0.07 0.063,-0.043 0.133,-0.085 0.073,-0.042 0.14,-0.076 0.069,-0.037 0.125,-0.057 0.06,-0.022 0.1,-0.022 0.019,0 0.039,0.005 0.022,0.006 0.04,0.023 0.019,0.017 0.03,0.054 0.014,0.033 0.017,0.093 l 0.009,0.178 0.005,0.15 q 0.003,0.07 0.003,0.149 v 0.426 q 0,0.116 -0.003,0.228 l -0.005,0.23 q -0.003,0.115 -0.01,0.242 -0.002,0.067 -0.013,0.104 -0.008,0.037 -0.025,0.057 -0.017,0.02 -0.04,0.022 -0.02,0.006 -0.048,0.006 -0.05,0 -0.085,-0.034 -0.033,-0.037 -0.04,-0.152 z"
       style="font-weight:400;font-size:2.82200003px;font-family:Sniglet;-inkscape-font-specification:'Sniglet, Normal';font-variant-ligatures:normal;font-variant-caps:normal;font-variant-numeric:normal;font-feature-settings:normal;text-align:start;letter-spacing:0;word-spacing:0;fill:#c8c8c8"
       font-size="2.822"
       aria-label="1"
       font-weight="400"
       letter-spacing="0"
       word-spacing="0"
       id="path57"
       inkscape:connector-curvature="0" />
  </g>
  <g
     style="line-height:1.25"
     id="g63"
     transform="translate(10.65757,-10.966403)">
    <path
       d="m 8.437,80.376 q -0.102,0 -0.17,0.022 -0.067,0.02 -0.112,0.054 -0.045,0.034 -0.074,0.07 l -0.05,0.071 q -0.023,0.034 -0.05,0.057 -0.027,0.02 -0.066,0.02 -0.068,0 -0.096,-0.034 -0.025,-0.037 -0.025,-0.096 0,-0.125 0.093,-0.232 0.028,-0.034 0.076,-0.07 0.05,-0.04 0.118,-0.07 0.071,-0.032 0.161,-0.05 0.093,-0.024 0.21,-0.024 0.307,0 0.476,0.15 0.17,0.15 0.17,0.42 0,0.053 -0.012,0.118 -0.008,0.065 -0.037,0.136 -0.025,0.07 -0.073,0.146 -0.048,0.077 -0.127,0.156 -0.07,0.07 -0.15,0.13 -0.078,0.06 -0.163,0.118 l -0.178,0.127 q -0.09,0.065 -0.183,0.15 0.09,0.048 0.194,0.062 0.105,0.014 0.235,0.014 0.12,0 0.194,-0.006 0.074,-0.005 0.12,-0.014 l 0.07,-0.014 q 0.025,-0.006 0.053,-0.006 0.104,0 0.104,0.096 0,0.085 -0.07,0.13 -0.07,0.045 -0.17,0.068 -0.098,0.02 -0.203,0.023 -0.104,0.005 -0.172,0.005 -0.037,0 -0.104,-0.005 Q 8.361,82.095 8.286,82.083 8.208,82.073 8.129,82.053 8.053,82.03 7.989,81.996 7.926,81.959 7.887,81.908 q -0.04,-0.053 -0.04,-0.127 0,-0.098 0.07,-0.186 Q 7.991,81.505 8.098,81.42 8.206,81.333 8.33,81.248 8.454,81.161 8.561,81.07 8.668,80.977 8.739,80.878 8.812,80.78 8.812,80.664 8.812,80.52 8.714,80.449 8.618,80.376 8.437,80.376 Z"
       style="font-weight:400;font-size:2.82200003px;font-family:Sniglet;-inkscape-font-specification:'Sniglet, Normal';font-variant-ligatures:normal;font-variant-caps:normal;font-variant-numeric:normal;font-feature-settings:normal;text-align:start;letter-spacing:0;word-spacing:0;fill:#c8c8c8"
       font-size="2.822"
       aria-label="2"
       font-weight="400"
       letter-spacing="0"
       word-spacing="0"
       id="path61"
       inkscape:connector-curvature="0" />
  </g>
  <g
     style="line-height:1.25"
     id="g67"
     transform="translate(-10.661056,13.612335)">
    <path
       d="m 18.64,68.14 q -0.09,0 -0.132,-0.045 -0.043,-0.048 -0.043,-0.096 0,-0.05 0.048,-0.082 0.048,-0.034 0.127,-0.05 0.08,-0.02 0.18,-0.026 0.103,-0.01 0.207,-0.01 0.087,0 0.195,0.01 0.107,0.006 0.2,0.034 0.093,0.025 0.155,0.079 0.062,0.05 0.062,0.14 0,0.07 -0.053,0.148 -0.054,0.076 -0.124,0.144 -0.071,0.067 -0.142,0.12 l -0.098,0.074 q 0.299,0 0.434,0.15 0.136,0.15 0.136,0.429 0,0.175 -0.065,0.305 -0.062,0.13 -0.17,0.217 -0.104,0.085 -0.242,0.127 -0.136,0.042 -0.28,0.042 -0.118,0 -0.234,-0.02 -0.113,-0.02 -0.203,-0.067 -0.09,-0.05 -0.147,-0.133 -0.053,-0.084 -0.053,-0.21 0,-0.13 0.14,-0.13 0.043,0 0.066,0.024 0.025,0.02 0.042,0.05 0.02,0.029 0.04,0.066 0.02,0.037 0.056,0.068 0.04,0.028 0.102,0.05 0.064,0.02 0.169,0.02 0.082,0 0.16,-0.017 0.08,-0.02 0.142,-0.062 0.062,-0.042 0.099,-0.113 0.04,-0.073 0.04,-0.18 0,-0.21 -0.088,-0.297 -0.085,-0.087 -0.24,-0.087 -0.04,0 -0.074,0.014 -0.034,0.01 -0.067,0.028 l -0.07,0.028 q -0.038,0.012 -0.083,0.012 -0.045,0 -0.08,-0.04 -0.033,-0.042 -0.033,-0.107 0,-0.045 0.043,-0.105 0.045,-0.06 0.12,-0.135 0.08,-0.076 0.19,-0.166 0.11,-0.094 0.246,-0.2 H 19.25 l -0.076,0.002 H 18.827 Q 18.725,68.14 18.64,68.14 Z"
       style="font-weight:400;font-size:2.82200003px;font-family:Sniglet;-inkscape-font-specification:'Sniglet, Normal';font-variant-ligatures:normal;font-variant-caps:normal;font-variant-numeric:normal;font-feature-settings:normal;text-align:start;letter-spacing:0;word-spacing:0;fill:#c8c8c8"
       font-size="2.822"
       aria-label="3"
       font-weight="400"
       letter-spacing="0"
       word-spacing="0"
       id="path65"
       inkscape:connector-curvature="0" />
  </g>
  <g
     style="line-height:1.25"
     id="g71"
     transform="translate(0,1.3669938)">
    <path
       d="m 19.513,81.449 q -0.003,0.107 -0.003,0.234 0,0.127 -0.008,0.237 -0.006,0.085 -0.04,0.11 -0.03,0.023 -0.087,0.023 -0.05,0 -0.08,-0.02 -0.025,-0.017 -0.04,-0.076 -0.01,-0.062 -0.013,-0.178 -0.003,-0.12 -0.003,-0.316 -0.093,0 -0.177,0.003 l -0.164,0.002 q -0.12,0 -0.217,-0.005 -0.096,-0.006 -0.167,-0.02 -0.068,-0.017 -0.107,-0.045 -0.037,-0.028 -0.037,-0.073 0,-0.063 0.05,-0.156 0.052,-0.096 0.128,-0.206 0.076,-0.11 0.16,-0.223 l 0.162,-0.214 0.096,-0.124 q 0.065,-0.082 0.138,-0.161 0.073,-0.082 0.147,-0.141 0.073,-0.06 0.124,-0.06 0.048,0 0.085,0.03 0.036,0.033 0.042,0.145 0.01,0.164 0.014,0.345 0.003,0.178 0.003,0.352 v 0.28 q 0.08,0.005 0.127,0.014 0.048,0.009 0.073,0.025 0.026,0.015 0.034,0.037 0.008,0.023 0.008,0.057 0,0.07 -0.064,0.096 -0.065,0.022 -0.184,0.028 z m -0.276,-0.923 -0.212,0.257 -0.147,0.18 q -0.06,0.077 -0.104,0.13 l -0.077,0.096 q 0.13,-0.006 0.266,-0.006 l 0.274,-0.002 z"
       style="font-weight:400;font-size:2.82200003px;font-family:Sniglet;-inkscape-font-specification:'Sniglet, Normal';font-variant-ligatures:normal;font-variant-caps:normal;font-variant-numeric:normal;font-feature-settings:normal;text-align:start;letter-spacing:0;word-spacing:0;fill:#c8c8c8"
       font-size="2.822"
       aria-label="4"
       font-weight="400"
       letter-spacing="0"
       word-spacing="0"
       id="path69"
       inkscape:connector-curvature="0" />
  </g>
  <g
     transform="translate(-26.48 -161.296)"
     id="g77">
    <rect
       rx=".206"
       width="4.24"
       height=".439"
       x="26.759"
       y="161.611"
       ry=".206"
       fill="url(#d)"
       id="rect73" />
    <rect
       rx=".194"
       width="4.24"
       height=".413"
       x="162.21"
       y="-26.119"
       ry=".194"
       transform="matrix(.00655 .99998 -.99973 .02317 0 0)"
       fill="url(#e)"
       id="rect75" />
  </g>
  <g
     transform="translate(-2.54,1.587616)"
     id="g87"
     style="fill-rule:evenodd">
    <rect
       ry="1.323"
       rx="1.323"
       y="11.618"
       x="13.802"
       height="8.5010004"
       width="14.743"
       id="rect79"
       style="fill:url(#f)" />
    <rect
       ry="1.323"
       rx="1.323"
       y="24.318001"
       x="13.802"
       height="8.5010004"
       width="14.743"
       id="rect81"
       style="fill:url(#g)" />
    <rect
       ry="1.323"
       rx="1.323"
       y="37.018002"
       x="13.802"
       height="8.5010004"
       width="14.743"
       id="rect83"
       style="fill:url(#h)" />
    <rect
       ry="1.323"
       rx="1.323"
       y="49.717999"
       x="13.802"
       height="8.5010004"
       width="14.743"
       id="rect85"
       style="fill:url(#i)" />
  </g>
</svg>
