<?xml version="1.0" encoding="UTF-8" standalone="no"?>
<svg
   xmlns:dc="http://purl.org/dc/elements/1.1/"
   xmlns:cc="http://creativecommons.org/ns#"
   xmlns:rdf="http://www.w3.org/1999/02/22-rdf-syntax-ns#"
   xmlns:svg="http://www.w3.org/2000/svg"
   xmlns="http://www.w3.org/2000/svg"
   xmlns:sodipodi="http://sodipodi.sourceforge.net/DTD/sodipodi-0.dtd"
   xmlns:inkscape="http://www.inkscape.org/namespaces/inkscape"
   width="20.32mm"
   height="128.5mm"
   viewBox="0 0 20.32 128.50044"
   version="1.1"
   id="svg910"
   sodipodi:docname="GateSeq64Expander_dark.svg"
   inkscape:version="0.92.2 (5c3e80d, 2017-08-06)">
  <metadata
     id="metadata916">
    <rdf:RDF>
      <cc:Work
         rdf:about="">
        <dc:format>image/svg+xml</dc:format>
        <dc:type
           rdf:resource="http://purl.org/dc/dcmitype/StillImage" />
        <dc:title></dc:title>
      </cc:Work>
    </rdf:RDF>
  </metadata>
  <defs
     id="defs914" />
  <sodipodi:namedview
     pagecolor="#ffffff"
     bordercolor="#666666"
     borderopacity="1"
     objecttolerance="10"
     gridtolerance="10"
     guidetolerance="10"
     inkscape:pageopacity="0"
     inkscape:pageshadow="2"
     inkscape:window-width="1920"
     inkscape:window-height="1017"
     id="namedview912"
     showgrid="false"
     inkscape:document-units="mm"
     units="mm"
     inkscape:zoom="4.2473684"
     inkscape:cx="130.52449"
     inkscape:cy="432.09228"
     inkscape:window-x="-8"
     inkscape:window-y="-8"
     inkscape:window-maximized="1"
     inkscape:current-layer="svg910" />
  <path
     d="M 0,0 H 20.32007 V 128.50044 H 0 Z m 0,0"
     id="path868"
     inkscape:connector-curvature="0"
     style="fill:#191919;stroke-width:1" />
  <rect
     rx="0.98999995"
     ry="0.98999995"
     y="99.321701"
     x="6.3731422"
     height="3.8950534"
     width="7.3536253"
     id="rect870"
     style="fill:#333333;stroke:#8c8c8c;stroke-width:0.132;paint-order:stroke markers fill" />
  <path
     word-spacing="0"
     letter-spacing="0"
     font-size="3.528"
     font-weight="400"
     d="m 10.466596,100.67082 0.1408,-0.11776 a 0.18560064,0.18560064 0 0 0 0.0077,-0.2624 0.30080103,0.30080103 0 0 0 -0.064,-0.0486 0.14848051,0.14848051 0 0 0 -0.07168,-0.0179 0.24576084,0.24576084 0 0 0 -0.09856,0.0256 0.8422429,0.8422429 0 0 0 -0.149761,0.0832 L 9.7216534,100.644 a 3.9680136,3.9680136 0 0 0 -0.3712013,0.2432 1.154564,1.154564 0 0 0 -0.2304007,0.20481 0.31232107,0.31232107 0 0 0 -0.0768,0.19712 0.3200011,0.3200011 0 0 0 0.08192,0.2048 1.152004,1.152004 0 0 0 0.2304008,0.20224 c 0.09984,0.0717 0.2227207,0.1536 0.3712012,0.2432 l 0.5043216,0.3072 c 0.06144,0.0384 0.110081,0.0678 0.149761,0.0858 0.0384,0.0154 0.07168,0.023 0.09856,0.023 0.02816,0 0.0512,-0.006 0.07296,-0.0179 a 0.28544098,0.28544098 0 0 0 0.064,-0.0512 0.19200066,0.19200066 0 0 0 0.04864,-0.12544 0.17152059,0.17152059 0 0 0 -0.05888,-0.13056 3.1014507,3.1014507 0 0 0 -0.1408,-0.1216 c -0.384001,-0.4032 -0.367361,-0.96513 0,-1.23777 z"
     style="font-weight:400;font-size:3.52800012px;line-height:1.25;font-family:Sniglet;-inkscape-font-specification:'Sniglet, Normal';font-variant-ligatures:normal;font-variant-caps:normal;font-variant-numeric:normal;font-feature-settings:normal;text-align:start;letter-spacing:0;word-spacing:0;fill:#c8c8c8;stroke-width:1"
     id="path872"
     inkscape:connector-curvature="0" />
  <path
     d="m 11.089958,120.08721 -2.0864071,0.1472 v -2.63681 q 0,-0.2944 0.0832,-0.42624 0.08064,-0.13312 0.281601,-0.18816 0.1958407,-0.055 0.4441615,-0.003 0.2867216,0.0602 0.4569616,0.2432 0.170241,0.18688 0.170241,0.4224 0,0.23808 -0.202241,0.36736 -0.20096,0.13056 -0.5209619,0.0627 -0.1049604,-0.023 -0.1843206,-0.0563 -0.08064,-0.0333 -0.2624009,-0.1408 v 1.72161 l 1.5616054,-0.1088 v -1.98913 q 0,-0.28672 0.0832,-0.43136 0.0832,-0.1408 0.288001,-0.192 0.2048,-0.0525 0.446721,-0.001 0.285441,0.0602 0.453122,0.2432 0.16512,0.1792 0.16512,0.416 0,0.2496 -0.199681,0.37632 -0.1984,0.128 -0.520961,0.0602 -0.204801,-0.0435 -0.456962,-0.2048 z"
     style="font-weight:400;font-size:3.52800012px;line-height:1.25;font-family:Arial;-inkscape-font-specification:'Arial, Normal';font-variant-ligatures:normal;font-variant-caps:normal;font-variant-numeric:normal;font-feature-settings:normal;text-align:start;letter-spacing:0;word-spacing:0;fill:#969696;stroke-width:1"
     font-size="3.528"
     aria-label="♫"
     font-weight="400"
     letter-spacing="0"
     word-spacing="0"
     id="path874"
     inkscape:connector-curvature="0" />
  <rect
     rx="0.98999995"
     ry="0.98999995"
     y="14.750532"
     x="3.7004929"
     height="3.8950534"
     width="12.913964"
     id="rect876"
     style="fill:#333333;stroke:#8c8c8c;stroke-width:0.132;paint-order:stroke markers fill" />
  <rect
     rx="0.98999995"
     ry="0.98999995"
     y="31.656832"
     x="2.8313696"
     height="3.8950534"
     width="14.70981"
     id="rect878"
     style="fill:#333333;stroke:#8c8c8c;stroke-width:0.132;paint-order:stroke markers fill" />
  <g
     style="line-height:1.25;stroke-width:0.78124732"
     aria-label="GATE 1"
     id="g882"
     transform="matrix(1.2800044,0,0,1.2800044,0,-0.09623859)">
    <path
       style="font-weight:400;font-size:2.82200003px;font-family:Sniglet;-inkscape-font-specification:'Sniglet, Normal';font-variant-ligatures:normal;font-variant-caps:normal;font-variant-numeric:normal;font-feature-settings:normal;text-align:start;letter-spacing:0;word-spacing:0;fill:#c8c8c8;stroke-width:0.78124732"
       d="m 4.324,25.28 q 0.093,0 0.192,0.018 0.098,0.017 0.18,0.05 0.082,0.03 0.136,0.08 0.053,0.047 0.053,0.11 0,0.064 -0.034,0.098 -0.034,0.034 -0.084,0.034 -0.048,0 -0.09,-0.017 L 4.587,25.617 Q 4.535,25.597 4.465,25.58 4.395,25.563 4.287,25.563 q -0.12,0 -0.223,0.056 -0.102,0.054 -0.18,0.153 -0.08,0.096 -0.125,0.228 -0.045,0.133 -0.045,0.288 0,0.19 0.048,0.328 0.048,0.138 0.124,0.228 0.08,0.09 0.175,0.136 0.099,0.042 0.198,0.042 0.16,0 0.254,-0.045 0.096,-0.048 0.152,-0.122 0.003,-0.06 0.003,-0.14 V 26.537 Q 4.668,26.5 4.662,26.48 4.657,26.457 4.634,26.446 4.611,26.435 4.566,26.432 4.524,26.429 4.451,26.429 q -0.09,0 -0.147,-0.023 -0.057,-0.025 -0.057,-0.104 0,-0.056 0.029,-0.09 0.03,-0.037 0.124,-0.043 h 0.053 q 0.04,-0.003 0.082,-0.003 H 4.69 q 0.085,0 0.136,0.017 0.05,0.014 0.09,0.068 0.02,0.028 0.023,0.099 0.005,0.07 0.005,0.164 v 0.728 q 0,0.076 -0.042,0.113 -0.04,0.036 -0.093,0.036 -0.065,0 -0.107,-0.034 -0.04,-0.03 -0.04,-0.101 v -0.11 q -0.073,0.084 -0.175,0.12 -0.1,0.038 -0.25,0.038 -0.156,0 -0.306,-0.062 -0.15,-0.062 -0.265,-0.184 -0.116,-0.124 -0.19,-0.307 -0.07,-0.187 -0.07,-0.432 0,-0.246 0.07,-0.438 0.074,-0.192 0.198,-0.324 0.125,-0.136 0.29,-0.206 0.168,-0.07 0.36,-0.07 z M 6.437,27.135 6.375,26.98 Q 6.344,26.89 6.307,26.79 l -0.178,0.007 h -0.41 q -0.098,0 -0.18,-0.003 L 5.474,26.98 q -0.03,0.087 -0.06,0.155 -0.055,0.144 -0.163,0.144 -0.04,0 -0.076,-0.025 -0.034,-0.026 -0.034,-0.074 0,-0.048 0.017,-0.124 0.017,-0.08 0.043,-0.166 L 5.26,26.706 Q 5.29,26.61 5.32,26.528 5.347,26.438 5.398,26.3 l 0.113,-0.294 0.119,-0.3 q 0.059,-0.15 0.107,-0.26 0.01,-0.027 0.028,-0.061 0.017,-0.036 0.04,-0.067 0.025,-0.031 0.053,-0.054 0.03,-0.023 0.068,-0.023 0.037,0 0.068,0.026 0.03,0.022 0.053,0.056 0.026,0.034 0.043,0.07 0.02,0.038 0.03,0.066 0.046,0.113 0.102,0.26 0.06,0.146 0.116,0.296 0.06,0.15 0.11,0.285 0.05,0.135 0.082,0.228 0.025,0.082 0.056,0.175 0.034,0.093 0.062,0.184 0.029,0.09 0.046,0.17 0.02,0.075 0.02,0.123 0,0.048 -0.037,0.074 -0.034,0.025 -0.074,0.025 -0.05,0 -0.093,-0.034 -0.042,-0.037 -0.073,-0.11 z m -0.5,-0.62 0.136,0.002 q 0.067,0 0.135,0.003 L 6.14,26.323 6.076,26.133 6.022,25.967 5.982,25.829 Q 5.972,25.792 5.957,25.769 5.943,25.747 5.92,25.747 q -0.022,0 -0.036,0.025 -0.014,0.023 -0.026,0.06 -0.034,0.115 -0.096,0.3 L 5.635,26.52 q 0.076,-0.003 0.153,-0.003 0.076,-0.003 0.15,-0.003 z m 1.876,-0.952 q -0.08,0.006 -0.17,0.008 l -0.194,0.006 0.005,0.144 0.006,0.133 q 0.003,0.067 0.003,0.14 0.003,0.074 0.003,0.164 v 0.246 q 0,0.116 -0.003,0.234 l -0.006,0.234 -0.008,0.246 q -0.003,0.068 -0.014,0.104 -0.01,0.037 -0.026,0.057 -0.017,0.02 -0.04,0.022 -0.022,0.006 -0.05,0.006 -0.051,0 -0.088,-0.034 Q 7.197,27.237 7.191,27.121 7.186,27.019 7.183,26.907 L 7.181,26.664 q -0.003,-0.13 -0.003,-0.28 v -0.606 q 0.003,-0.116 0.008,-0.2 H 7.07 q -0.12,0 -0.204,-0.004 Q 6.784,25.571 6.731,25.56 6.677,25.546 6.651,25.518 6.629,25.49 6.629,25.438 q 0,-0.025 0.006,-0.044 0.005,-0.023 0.025,-0.04 0.02,-0.02 0.054,-0.03 0.037,-0.012 0.093,-0.018 L 6.903,25.3 6.988,25.294 Q 7.03,25.291 7.075,25.291 H 7.18 q 0.166,0 0.313,0.003 0.15,0.003 0.316,0.012 0.068,0.006 0.104,0.016 0.037,0.008 0.057,0.026 0.02,0.017 0.022,0.04 0.006,0.022 0.006,0.05 0,0.05 -0.037,0.085 -0.034,0.034 -0.15,0.04 z m 0.402,1.286 Q 8.209,26.759 8.203,26.604 8.198,26.449 8.198,26.284 v -0.19 l 0.005,-0.206 q 0.006,-0.21 0.026,-0.328 0.022,-0.118 0.084,-0.178 0.065,-0.06 0.18,-0.073 0.117,-0.014 0.309,-0.014 h 0.059 q 0.06,0 0.14,0.003 0.083,0 0.17,0.003 l 0.15,0.006 q 0.062,0.006 0.099,0.017 0.04,0.008 0.06,0.025 0.019,0.014 0.024,0.037 0.006,0.02 0.006,0.045 0,0.065 -0.037,0.096 -0.036,0.028 -0.15,0.037 -0.056,0.006 -0.166,0.008 h -0.22 q -0.113,0 -0.203,0.003 H 8.62 q -0.073,0.003 -0.104,0.034 -0.03,0.028 -0.03,0.138 l 0.004,0.124 q 0.006,0.096 0.006,0.27 H 8.73 q 0.15,0 0.243,0.007 0.096,0.003 0.147,0.017 0.053,0.014 0.073,0.045 0.02,0.03 0.02,0.082 0,0.025 -0.006,0.048 -0.003,0.02 -0.023,0.037 -0.02,0.014 -0.056,0.025 -0.037,0.008 -0.104,0.014 -0.082,0.006 -0.156,0.008 H 8.49 v 0.344 l 0.006,0.096 q 0.003,0.045 0.01,0.076 0.012,0.03 0.038,0.05 0.028,0.02 0.079,0.029 0.053,0.008 0.14,0.008 h 0.608 q 0.098,0 0.124,0.037 0.025,0.037 0.025,0.099 0,0.05 -0.022,0.079 -0.023,0.025 -0.11,0.037 -0.085,0.014 -0.257,0.017 -0.17,0.003 -0.47,0.003 -0.126,0 -0.208,-0.023 Q 8.372,27.253 8.321,27.2 8.27,27.146 8.245,27.06 8.222,26.974 8.214,26.85 Z m 2.192,0.255 q -0.006,-0.102 -0.01,-0.212 l -0.002,-0.237 q -0.003,-0.127 -0.003,-0.274 v -0.333 q 0,-0.2 0.003,-0.341 0.003,-0.144 0.017,-0.234 0.014,-0.09 0.042,-0.133 0.03,-0.042 0.082,-0.042 0.026,0 0.048,0.006 0.023,0.006 0.04,0.025 0.017,0.017 0.028,0.054 0.014,0.034 0.017,0.09 l 0.008,0.18 0.006,0.159 q 0.003,0.076 0.003,0.16 v 0.43 q 0,0.115 -0.003,0.228 l -0.006,0.229 q -0.002,0.115 -0.008,0.242 -0.003,0.068 -0.014,0.105 -0.012,0.037 -0.03,0.056 -0.015,0.02 -0.038,0.023 -0.023,0.006 -0.05,0.006 -0.052,0 -0.088,-0.034 -0.037,-0.037 -0.043,-0.152 z m 1.764,0.042 q -0.09,-0.124 -0.173,-0.245 L 11.826,26.63 q -0.09,-0.147 -0.21,-0.325 -0.114,-0.18 -0.278,-0.42 v 0.38 q 0,0.167 -0.003,0.31 l -0.005,0.272 q -0.003,0.127 -0.01,0.254 -0.002,0.068 -0.013,0.105 -0.008,0.036 -0.025,0.056 -0.017,0.02 -0.04,0.023 -0.02,0.006 -0.048,0.006 -0.05,0 -0.084,-0.034 -0.034,-0.037 -0.04,-0.153 -0.014,-0.31 -0.017,-0.62 v -0.647 q 0,-0.19 0.003,-0.296 0.005,-0.107 0.02,-0.161 0.017,-0.054 0.042,-0.068 0.028,-0.014 0.073,-0.014 0.046,0 0.119,0.07 0.073,0.068 0.16,0.18 0.088,0.114 0.187,0.26 0.102,0.148 0.2,0.303 0.1,0.155 0.19,0.308 l 0.169,0.276 q -0.003,-0.132 -0.003,-0.29 v -0.356 q 0,-0.223 0.003,-0.367 0.003,-0.147 0.014,-0.231 0.014,-0.085 0.042,-0.12 0.028,-0.033 0.08,-0.033 0.047,0 0.084,0.03 0.037,0.032 0.042,0.145 l 0.009,0.18 0.005,0.159 q 0.003,0.076 0.003,0.16 v 0.43 q 0,0.115 -0.003,0.228 l -0.005,0.229 q -0.003,0.116 -0.01,0.243 -0.002,0.067 -0.013,0.104 -0.008,0.037 -0.025,0.056 -0.017,0.02 -0.04,0.023 -0.02,0.006 -0.048,0.006 -0.048,0 -0.082,-0.028 -0.033,-0.028 -0.098,-0.116 z"
       word-spacing="0"
       letter-spacing="0"
       font-weight="400"
       font-size="2.822"
       aria-label="GATE IN"
       id="path880"
       inkscape:connector-curvature="0" />
  </g>
  <g
     style="line-height:1.25;-inkscape-font-specification:'Sniglet, Normal';font-variant-ligatures:normal;font-variant-caps:normal;font-variant-numeric:normal;font-feature-settings:normal;text-align:start;stroke-width:0.78124732"
     id="g886"
     transform="matrix(1.2800044,0,0,1.2800044,0,-0.09623859)">
    <path
       style="font-weight:400;font-size:3.88100004px;font-family:Sniglet;-inkscape-font-specification:'Sniglet, Normal';font-variant-ligatures:normal;font-variant-caps:normal;font-variant-numeric:normal;font-feature-settings:normal;text-align:start;letter-spacing:0;word-spacing:0;fill:#c8c8c8;stroke-width:0.78124732"
       d="m 4.862,5.843 q 0.129,0 0.264,0.023 0.136,0.023 0.249,0.07 0.112,0.042 0.186,0.108 0.074,0.066 0.074,0.152 0,0.089 -0.047,0.136 -0.046,0.046 -0.116,0.046 -0.066,0 -0.124,-0.023 L 5.223,6.305 Q 5.153,6.277 5.057,6.254 4.959,6.231 4.812,6.231 4.649,6.231 4.505,6.308 4.365,6.382 4.257,6.518 4.147,6.65 4.087,6.832 4.024,7.014 4.024,7.228 q 0,0.26 0.066,0.45 0.066,0.19 0.17,0.314 0.11,0.125 0.24,0.187 0.137,0.058 0.273,0.058 0.22,0 0.35,-0.062 Q 5.253,8.109 5.332,8.008 5.336,7.926 5.336,7.814 V 7.569 Q 5.336,7.519 5.328,7.492 5.32,7.461 5.288,7.445 5.258,7.43 5.196,7.425 5.138,7.422 5.036,7.422 4.913,7.422 4.835,7.391 4.758,7.356 4.758,7.247 4.758,7.17 4.796,7.123 4.839,7.073 4.966,7.065 H 5.041 Q 5.095,7.061 5.154,7.061 h 0.213 q 0.116,0 0.186,0.023 0.07,0.02 0.124,0.093 0.028,0.039 0.03,0.136 0.009,0.097 0.009,0.225 v 1.001 q 0,0.105 -0.058,0.155 Q 5.604,8.744 5.53,8.744 5.44,8.744 5.382,8.698 5.328,8.656 5.328,8.558 v -0.15 q -0.1,0.116 -0.24,0.166 -0.136,0.05 -0.346,0.05 -0.213,0 -0.42,-0.085 Q 4.117,8.454 3.958,8.287 3.798,8.117 3.698,7.864 3.6,7.608 3.6,7.27 3.6,6.933 3.697,6.669 3.797,6.405 3.969,6.222 4.139,6.036 4.369,5.939 4.598,5.842 4.861,5.842 Z M 7.051,5.85 q 0.109,0 0.248,0.02 0.144,0.015 0.268,0.062 0.124,0.042 0.21,0.116 0.085,0.07 0.085,0.175 0,0.062 -0.035,0.105 Q 7.792,6.37 7.715,6.37 7.655,6.37 7.595,6.347 7.535,6.324 7.459,6.3 7.385,6.273 7.284,6.25 7.187,6.227 7.054,6.227 q -0.255,0 -0.38,0.093 -0.12,0.089 -0.12,0.248 0,0.109 0.055,0.183 0.054,0.073 0.143,0.128 0.093,0.05 0.206,0.085 0.116,0.035 0.237,0.066 0.136,0.035 0.267,0.085 0.136,0.05 0.24,0.132 0.106,0.082 0.168,0.206 0.066,0.124 0.066,0.314 0,0.198 -0.074,0.357 Q 7.788,8.28 7.66,8.392 7.532,8.501 7.354,8.562 7.174,8.621 6.966,8.621 6.849,8.621 6.694,8.598 6.539,8.578 6.399,8.528 6.259,8.474 6.162,8.388 6.065,8.298 6.065,8.171 6.065,8.093 6.105,8.047 6.147,8 6.228,8 q 0.066,0 0.11,0.027 0.042,0.024 0.073,0.055 0.116,0.1 0.264,0.135 0.147,0.035 0.302,0.035 0.09,0 0.187,-0.011 Q 7.264,8.225 7.346,8.182 7.428,8.14 7.482,8.062 7.536,7.981 7.536,7.845 7.536,7.721 7.486,7.643 7.439,7.562 7.358,7.507 7.276,7.453 7.164,7.418 7.054,7.383 6.927,7.348 6.783,7.309 6.644,7.263 6.504,7.216 6.394,7.139 6.287,7.057 6.217,6.937 6.151,6.813 6.151,6.622 q 0,-0.19 0.07,-0.333 0.07,-0.144 0.19,-0.24 0.12,-0.098 0.283,-0.148 0.167,-0.05 0.357,-0.05 z M 9.659,7.62 Q 9.479,7.628 9.248,7.635 9.015,7.639 8.697,7.639 8.565,7.639 8.472,7.635 8.378,7.631 8.32,7.615 8.262,7.597 8.235,7.558 8.208,7.518 8.208,7.449 8.208,7.414 8.215,7.387 8.223,7.356 8.25,7.333 8.278,7.309 8.324,7.293 8.374,7.274 8.452,7.267 l 0.1,-0.008 Q 8.6,7.255 8.642,7.255 8.685,7.251 8.732,7.251 h 0.116 q 0.21,0 0.404,0.004 0.194,0 0.403,0.011 0.093,0.008 0.144,0.024 0.05,0.011 0.077,0.035 0.027,0.023 0.03,0.054 0.009,0.031 0.009,0.07 0,0.07 -0.05,0.116 -0.047,0.047 -0.206,0.054 z m 1.476,-0.051 -0.578,0.897 q -0.054,0.085 -0.12,0.128 -0.062,0.046 -0.144,0.046 -0.1,0 -0.143,-0.05 -0.04,-0.047 -0.04,-0.12 0,-0.043 0.016,-0.09 0.02,-0.046 0.05,-0.089 L 10.899,7.259 10.177,6.227 q -0.031,-0.043 -0.05,-0.09 -0.016,-0.046 -0.016,-0.089 0,-0.073 0.039,-0.12 0.042,-0.05 0.143,-0.05 0.082,0 0.144,0.046 0.066,0.043 0.12,0.128 l 0.578,0.897 0.579,-0.897 q 0.054,-0.085 0.116,-0.128 0.066,-0.046 0.147,-0.046 0.1,0 0.14,0.05 0.043,0.047 0.043,0.12 0,0.043 -0.02,0.09 -0.015,0.046 -0.046,0.089 l -0.722,1.032 0.722,1.032 q 0.03,0.043 0.046,0.09 0.02,0.046 0.02,0.089 0,0.073 -0.043,0.12 -0.04,0.05 -0.14,0.05 -0.081,0 -0.147,-0.046 -0.062,-0.043 -0.116,-0.128 z"
       word-spacing="0"
       letter-spacing="0"
       font-size="3.881"
       font-weight="400"
       aria-label="GS-X"
       id="path884"
       inkscape:connector-curvature="0" />
  </g>
  <g
     style="line-height:1.25;stroke-width:0.78124732"
     aria-label="GATE 1"
     id="g890"
     transform="matrix(1.2800044,0,0,1.2800044,0,-0.09623859)">
    <path
       style="font-weight:400;font-size:2.82200003px;font-family:Sniglet;-inkscape-font-specification:'Sniglet, Normal';font-variant-ligatures:normal;font-variant-caps:normal;font-variant-numeric:normal;font-feature-settings:normal;text-align:start;letter-spacing:0;word-spacing:0;fill:#c8c8c8;stroke-width:0.78124732"
       d="m 5.148,12.606 q 0.017,-0.04 0.05,-0.066 0.038,-0.025 0.077,-0.025 0.037,0 0.07,0.025 0.035,0.023 0.054,0.062 0.108,0.22 0.212,0.477 0.104,0.254 0.19,0.483 0.047,-0.35 0.104,-0.706 0.056,-0.355 0.127,-0.68 0.008,-0.036 0.025,-0.06 0.017,-0.024 0.037,-0.036 0.02,-0.014 0.04,-0.02 0.022,-0.005 0.036,-0.005 0.048,0 0.079,0.028 0.03,0.025 0.03,0.07 0,0.05 -0.016,0.18 -0.017,0.128 -0.045,0.3 -0.028,0.17 -0.065,0.36 -0.034,0.193 -0.068,0.37 -0.034,0.179 -0.065,0.326 -0.03,0.146 -0.05,0.222 -0.018,0.065 -0.051,0.1 -0.034,0.03 -0.1,0.03 -0.067,0 -0.115,-0.06 Q 5.659,13.92 5.603,13.79 5.549,13.66 5.473,13.46 5.397,13.257 5.275,12.974 5.151,13.257 5.072,13.46 q -0.076,0.203 -0.133,0.333 -0.053,0.13 -0.101,0.192 -0.048,0.06 -0.113,0.06 -0.113,0 -0.15,-0.13 Q 4.553,13.838 4.522,13.695 4.491,13.547 4.457,13.37 L 4.392,13.003 Q 4.358,12.811 4.332,12.641 L 4.29,12.345 q -0.014,-0.13 -0.014,-0.18 0,-0.05 0.03,-0.08 0.032,-0.03 0.089,-0.03 0.04,0 0.076,0.025 0.037,0.022 0.053,0.096 0.068,0.324 0.119,0.68 0.054,0.356 0.113,0.705 0.087,-0.206 0.175,-0.437 0.087,-0.231 0.217,-0.52 z M 7.171,13.35 7.089,13.356 H 6.91 q -0.048,0 -0.107,-0.006 v 0.573 q 0,0.09 -0.045,0.113 -0.042,0.02 -0.107,0.02 -0.034,0 -0.054,-0.006 Q 6.577,14.047 6.563,14.036 6.552,14.022 6.543,13.996 6.538,13.971 6.535,13.926 6.529,13.875 6.525,13.779 L 6.521,13.525 q 0,-0.155 -0.003,-0.375 v -0.523 q 0,-0.115 0.028,-0.222 0.029,-0.11 0.102,-0.192 0.073,-0.085 0.197,-0.136 0.127,-0.05 0.322,-0.05 0.138,0 0.268,0.03 0.133,0.03 0.235,0.108 0.1,0.076 0.163,0.206 0.062,0.13 0.062,0.324 0,0.26 -0.113,0.404 -0.11,0.14 -0.304,0.2 l 0.378,0.52 q 0.05,0.067 0.05,0.138 0,0.056 -0.04,0.087 -0.036,0.034 -0.092,0.034 -0.062,0 -0.107,-0.034 -0.045,-0.036 -0.085,-0.093 z m 0.443,-0.657 q 0,-0.195 -0.118,-0.288 -0.116,-0.096 -0.37,-0.096 -0.093,0 -0.155,0.017 -0.062,0.014 -0.1,0.056 -0.036,0.042 -0.053,0.119 -0.014,0.073 -0.014,0.189 v 0.192 q 0,0.11 0.003,0.2 0.065,0.003 0.144,0.003 h 0.152 q 0.08,0 0.167,-0.008 0.09,-0.011 0.166,-0.05 0.076,-0.043 0.127,-0.12 0.05,-0.078 0.05,-0.214 z m 0.573,1.177 q -0.005,-0.102 -0.008,-0.212 0,-0.11 -0.003,-0.237 -0.003,-0.127 -0.003,-0.274 v -0.333 q 0,-0.2 0.003,-0.341 0.003,-0.144 0.017,-0.235 0.014,-0.09 0.042,-0.132 0.032,-0.043 0.082,-0.043 0.026,0 0.048,0.006 0.023,0.006 0.04,0.026 0.017,0.017 0.028,0.053 0.014,0.034 0.017,0.09 0.006,0.102 0.008,0.18 l 0.006,0.159 q 0.003,0.077 0.003,0.16 v 0.43 q 0,0.116 -0.003,0.229 l -0.006,0.228 q -0.002,0.116 -0.008,0.243 -0.003,0.068 -0.014,0.105 -0.011,0.036 -0.028,0.056 -0.017,0.02 -0.04,0.023 -0.022,0.006 -0.05,0.006 -0.051,0 -0.088,-0.034 Q 8.193,13.986 8.187,13.87 Z m 1.717,-1.541 q -0.08,0.006 -0.17,0.008 l -0.194,0.006 0.006,0.144 0.006,0.132 q 0.002,0.068 0.002,0.14 0.003,0.075 0.003,0.165 v 0.246 q 0,0.115 -0.003,0.234 l -0.005,0.234 q -0.003,0.119 -0.01,0.246 -10e-4,0.067 -0.013,0.104 -0.008,0.037 -0.025,0.056 -0.017,0.02 -0.04,0.023 -0.022,0.006 -0.05,0.006 -0.051,0 -0.088,-0.034 Q 9.289,14.002 9.283,13.887 9.278,13.785 9.275,13.672 9.275,13.559 9.272,13.43 9.269,13.3 9.269,13.15 V 12.544 Q 9.272,12.428 9.278,12.343 H 9.162 q -0.118,0 -0.203,-0.003 -0.082,-0.003 -0.135,-0.014 -0.054,-0.014 -0.08,-0.042 -0.022,-0.03 -0.022,-0.08 0,-0.025 0.006,-0.045 0.005,-0.022 0.025,-0.04 0.02,-0.02 0.054,-0.03 Q 8.843,12.078 8.9,12.072 L 8.996,12.066 9.08,12.06 q 0.043,-0.003 0.088,-0.003 h 0.104 q 0.167,0 0.313,0.003 0.15,0.003 0.317,0.01 0.067,0.007 0.104,0.018 0.037,0.008 0.056,0.026 0.02,0.016 0.023,0.04 0.006,0.022 0.006,0.05 0,0.05 -0.037,0.085 -0.034,0.033 -0.15,0.04 z m 0.403,1.287 q -0.006,-0.09 -0.012,-0.246 -0.006,-0.155 -0.006,-0.32 v -0.191 l 0.006,-0.206 q 0.006,-0.21 0.025,-0.327 0.023,-0.12 0.085,-0.178 0.065,-0.06 0.18,-0.073 0.116,-0.014 0.308,-0.014 h 0.06 q 0.059,0 0.14,0.003 0.083,0 0.17,0.003 l 0.15,0.006 q 0.062,0.006 0.098,0.016 0.04,0.008 0.06,0.026 0.02,0.014 0.025,0.037 0.006,0.02 0.006,0.045 0,0.065 -0.037,0.096 -0.037,0.028 -0.15,0.036 -0.056,0.006 -0.166,0.008 h -0.22 q -0.113,0 -0.203,0.003 h -0.113 q -0.074,0.003 -0.105,0.034 -0.028,0.028 -0.028,0.139 l 0.003,0.124 q 0.005,0.096 0.005,0.27 h 0.235 q 0.15,0 0.242,0.007 0.096,0.003 0.147,0.017 0.054,0.014 0.074,0.045 0.02,0.03 0.02,0.082 0,0.025 -0.006,0.048 -0.003,0.02 -0.023,0.036 -0.02,0.014 -0.056,0.026 -0.037,0.008 -0.105,0.014 -0.082,0.006 -0.155,0.008 h -0.378 v 0.344 l 0.005,0.096 q 0.003,0.045 0.012,0.076 0.01,0.03 0.036,0.05 0.029,0.02 0.08,0.029 0.053,0.008 0.14,0.008 h 0.607 q 0.1,0 0.125,0.037 0.025,0.037 0.025,0.099 0,0.05 -0.023,0.079 -0.022,0.025 -0.11,0.036 -0.084,0.014 -0.257,0.017 -0.17,0.003 -0.468,0.003 -0.127,0 -0.21,-0.022 -0.081,-0.023 -0.132,-0.077 -0.05,-0.053 -0.076,-0.138 -0.022,-0.087 -0.03,-0.211 z"
       word-spacing="0"
       letter-spacing="0"
       font-weight="400"
       font-size="2.822"
       aria-label="WRITE"
       id="path888"
       inkscape:connector-curvature="0" />
  </g>
  <rect
     rx="0.98999995"
     ry="0.98999995"
     y="65.58847"
     x="2.5587287"
     height="3.8950534"
     width="15.102772"
     id="rect892"
     style="fill:#333333;stroke:#8c8c8c;stroke-width:0.132;paint-order:stroke markers fill" />
  <path
     word-spacing="0"
     letter-spacing="0"
     font-size="2.822"
     font-weight="400"
     style="font-weight:400;font-size:2.82200003px;line-height:1.25;font-family:Sniglet;-inkscape-font-specification:'Sniglet, Normal';font-variant-ligatures:normal;font-variant-caps:normal;font-variant-numeric:normal;font-feature-settings:normal;text-align:start;letter-spacing:0;word-spacing:0;fill:#c8c8c8;stroke-width:1"
     d="m 5.2134579,66.87615 q 0.02048,-0.04992 0.064,-0.0832 0.04736,-0.032 0.09856,-0.032 0.04608,0 0.0896,0.032 0.04352,0.02944 0.06912,0.07936 0.1369605,0.281601 0.2688009,0.610562 0.1356805,0.325121 0.2432009,0.618242 0.06144,-0.448002 0.1344004,-0.903683 0.07168,-0.454402 0.1625606,-0.870403 0.01024,-0.04736 0.032,-0.07552 0.02176,-0.032 0.04736,-0.04736 0.0256,-0.01792 0.0512,-0.0256 0.02816,-0.0128 0.04608,-0.0128 0.06144,0 0.1024004,0.03584 0.0384,0.032 0.0384,0.09088 0,0.06528 -0.02176,0.2304 -0.02176,0.163841 -0.0576,0.384002 -0.03584,0.217601 -0.0832,0.462081 -0.04352,0.245761 -0.08704,0.473602 -0.04224,0.227841 -0.08192,0.414721 -0.04096,0.188161 -0.06528,0.285441 -0.02176,0.0832 -0.06528,0.128001 -0.04352,0.0384 -0.1280004,0.0384 -0.08576,0 -0.1472005,-0.07552 -0.0576,-0.07936 -0.1292805,-0.245761 -0.06912,-0.166401 -0.1664006,-0.422402 -0.09728,-0.25984 -0.2521608,-0.620802 -0.1600006,0.360962 -0.2611209,0.620802 -0.09728,0.259841 -0.1689606,0.426242 -0.06912,0.1664 -0.1305604,0.245761 -0.06144,0.0768 -0.1446405,0.0768 -0.1446405,0 -0.1920007,-0.166401 -0.02816,-0.09856 -0.06784,-0.281601 -0.03968,-0.18816 -0.0832,-0.416001 -0.0384,-0.227841 -0.0832,-0.469762 -0.04352,-0.24576 -0.0768,-0.462081 -0.032,-0.217601 -0.05248,-0.380161 -0.0192,-0.166401 -0.0192,-0.230401 0,-0.06144 0.0384,-0.102401 0.04096,-0.0384 0.1139204,-0.0384 0.0512,0 0.09728,0.032 0.04736,0.02944 0.06912,0.122881 0.08576,0.414721 0.1510405,0.870403 0.06912,0.454401 0.1446405,0.902403 0.1126404,-0.263681 0.2240008,-0.559362 0.1126403,-0.295681 0.2790409,-0.665602 z m 2.5881689,0.954883 q -0.0512,0 -0.1036803,0.0128 H 7.4701057 q -0.06144,0 -0.1369605,-0.0128 v 0.732163 q 0,0.1152 -0.05888,0.14464 -0.05376,0.0256 -0.1369605,0.0256 -0.04352,0 -0.06912,-0.0128 -0.0256,0 -0.04224,-0.01792 -0.01536,-0.01792 -0.0256,-0.04992 -0.00768,-0.032 -0.01024,-0.0896 -0.00768,-0.06656 -0.01024,-0.189441 l -0.00768,-0.325121 q 0,-0.198401 -0.00384,-0.480002 V 66.90047 q 0,-0.148481 0.03584,-0.285441 0.03584,-0.140801 0.1305604,-0.245761 0.09344,-0.1088 0.2521609,-0.172801 0.1625606,-0.06528 0.4121614,-0.06528 0.1766406,0 0.3430412,0.0384 0.1702406,0.04096 0.299521,0.138241 0.1305605,0.09728 0.2099207,0.263681 0.07936,0.1664 0.07936,0.414721 0,0.332801 -0.1446405,0.517122 -0.1408005,0.18048 -0.3904013,0.256001 l 0.4851216,0.665602 q 0.064,0.08704 0.064,0.176641 0,0.07168 -0.0512,0.11264 -0.04608,0.04352 -0.1177604,0.04352 -0.07936,0 -0.1382405,-0.04352 -0.0576,-0.04736 -0.1075204,-0.11904 z m 0.567042,-0.842243 q 0,-0.249601 -0.1510406,-0.368641 -0.1484805,-0.122881 -0.4736016,-0.122881 -0.1190404,0 -0.1984007,0.02176 -0.07936,0.01792 -0.1280004,0.07168 -0.0448,0.05376 -0.06656,0.15104 -0.01792,0.09344 -0.01792,0.243201 v 0.244481 q 0,0.1408 0.00384,0.256001 h 0.3788813 q 0.1011204,0 0.2124808,-0.0128 0.1152003,-0.0128 0.2137607,-0.064 0.09728,-0.05376 0.1625605,-0.152321 0.064,-0.10112 0.064,-0.273921 z m 0.7347225,1.506565 q -0.00768,-0.13056 -0.01024,-0.271361 0,-0.1408 -0.00384,-0.303361 -0.00384,-0.16256 -0.00384,-0.350721 v -0.426241 q 0,-0.256001 0.00384,-0.436482 0.00384,-0.184321 0.02176,-0.300801 0.01792,-0.1152 0.05376,-0.16896 0.0384,-0.05376 0.1049604,-0.05376 0.032,0 0.06144,0.0128 0.02816,0.0128 0.0512,0.032 0.02048,0.02176 0.03584,0.06912 0.01792,0.04352 0.02048,0.1152 0.00768,0.129281 0.01024,0.230401 l 0.00768,0.202241 q 0.00384,0.09728 0.00384,0.20608 v 0.549122 q 0,0.148481 -0.00384,0.293121 l -0.00768,0.293121 -0.01024,0.309761 q -0.00384,0.08704 -0.01792,0.134401 -0.0128,0.04736 -0.03584,0.07296 -0.02176,0.0256 -0.0512,0.02944 -0.02816,0.0128 -0.064,0.0128 -0.064,0 -0.1126404,-0.04352 -0.04608,-0.04736 -0.05376,-0.195841 z m 2.1977677,-1.972487 q -0.102401,0.0128 -0.217601,0.0128 -0.11136,0 -0.248321,0.0128 l 0.0077,0.18432 0.0077,0.168961 q 0.0038,0.08704 0.0038,0.18048 0.0038,0.09344 0.0038,0.209921 v 0.314881 q 0,0.147201 -0.0038,0.299521 l -0.0077,0.299521 -0.01024,0.314881 q -0.0038,0.08704 -0.01792,0.133121 -0.01024,0.04736 -0.03328,0.07168 -0.02176,0.0256 -0.0512,0.02944 -0.02816,0.0128 -0.064,0.0128 -0.064,0 -0.112641,-0.04352 -0.04224,-0.04736 -0.0512,-0.194561 -0.0064,-0.13056 -0.009,-0.275201 0,-0.14464 -0.0038,-0.311041 -0.0038,-0.1664 -0.0038,-0.357121 v -0.775683 q 0.0038,-0.14848 0.01024,-0.25728 h -0.409601 q -0.1036807,0 -0.1715209,-0.01792 -0.06912,-0.01792 -0.1024004,-0.05376 -0.02816,-0.03584 -0.02816,-0.1024 0,-0.03072 0.00768,-0.05632 0.00768,-0.02944 0.032,-0.0512 0.0256,-0.0256 0.06912,-0.03968 0.04736,-0.01408 0.1190403,-0.02176 0.06912,0 0.122881,-0.0128 0.05376,0 0.1088,-0.0128 h 0.646402 q 0.192001,0 0.404482,0.0128 0.08704,0.0128 0.13312,0.02304 0.04736,0.0128 0.07296,0.032 0.0256,0.02176 0.02816,0.0512 0.0077,0.02944 0.0077,0.064 0,0.06656 -0.04608,0.11008 -0.04352,0.04352 -0.192001,0.04992 z m 0.514562,1.647366 q -0.0077,-0.1152 -0.01536,-0.314881 -0.0077,-0.198401 -0.0077,-0.408321 v -0.245761 l 0.0077,-0.263681 q 0.0077,-0.267521 0.03328,-0.418562 0.02816,-0.15232 0.10752,-0.22784 0.0832,-0.07552 0.230401,-0.09344 0.14976,-0.01792 0.395521,-0.01792 h 0.473602 q 0.1152,0 0.192,0.0128 l 0.125441,0.02176 q 0.0512,0.0128 0.0768,0.032 0.02432,0.01792 0.032,0.04736 0.0077,0.0256 0.0077,0.0576 0,0.0832 -0.04736,0.12288 -0.04736,0.03584 -0.192001,0.04736 -0.07168,0.0128 -0.21248,0.0128 h -0.686083 q -0.09472,0 -0.1344,0.04352 -0.03584,0.03584 -0.03584,0.17664 l 0.0038,0.160001 q 0.0077,0.12288 0.0077,0.345601 h 0.299521 q 0.192001,0 0.311041,0.0128 0.12288,0 0.188161,0.02176 0.06784,0.01792 0.09344,0.0576 0.0256,0.03968 0.0256,0.104961 0,0.032 -0.0077,0.06144 -0.0038,0.0256 -0.02944,0.04736 -0.0256,0.01792 -0.07168,0.032 -0.04736,0.0128 -0.134401,0.01792 -0.10368,0.0128 -0.198401,0.0128 h -0.483841 v 0.441602 l 0.0077,0.12288 q 0.0038,0.0576 0.0128,0.09728 0.01664,0.0384 0.04864,0.064 0.03584,0.0256 0.10112,0.03712 0.06912,0.0128 0.179201,0.0128 h 0.778243 q 0.12672,0 0.15872,0.04736 0.032,0.04736 0.032,0.126721 0,0.064 -0.02816,0.10112 -0.02944,0.032 -0.1408,0.04736 -0.108801,0.01792 -0.328961,0.02176 h -0.600322 q -0.162561,0 -0.268801,-0.02944 -0.103681,-0.02944 -0.168961,-0.09728 -0.064,-0.06912 -0.09728,-0.177921 -0.02944,-0.11264 -0.03968,-0.270081 z m 3.589132,-1.614085 q 0.204801,0 0.368641,0.06528 0.162561,0.06144 0.273921,0.17792 0.115201,0.115201 0.176641,0.281601 0.06144,0.166401 0.06144,0.371202 0,0.22784 -0.07168,0.409601 -0.06912,0.179201 -0.194561,0.307201 -0.12288,0.125441 -0.296961,0.194561 -0.168961,0.06912 -0.371201,0.06912 -0.221441,0 -0.390402,-0.0768 -0.1664,-0.07424 -0.281601,-0.204801 -0.11264,-0.13056 -0.17024,-0.300801 -0.0576,-0.168961 -0.0576,-0.357121 0,-0.204801 0.064,-0.375041 0.06912,-0.174081 0.192001,-0.296961 0.12672,-0.126721 0.303361,-0.194561 0.17664,-0.06912 0.394241,-0.06912 z m -0.03968,1.542405 q 0.14848,0 0.252161,-0.04992 0.10496,-0.05376 0.17024,-0.140801 0.06912,-0.08704 0.09728,-0.19456 0.03328,-0.112641 0.03328,-0.230401 0,-0.124161 -0.03328,-0.227841 -0.02816,-0.1088 -0.09344,-0.188161 -0.06144,-0.07936 -0.16256,-0.12288 -0.09728,-0.04736 -0.235521,-0.04736 -0.140801,0 -0.245761,0.04736 -0.10368,0.04736 -0.176641,0.12928 -0.06784,0.07936 -0.10496,0.192001 -0.03584,0.11264 -0.03584,0.241921 0,0.263681 0.1344,0.430081 0.136961,0.162561 0.400642,0.162561 z"
     id="path894"
     inkscape:connector-curvature="0" />
  <rect
     rx="0.98999995"
     ry="0.98999995"
     y="82.439735"
     x="2.604809"
     height="3.8950534"
     width="15.102772"
     id="rect896"
     style="fill:#333333;stroke:#8c8c8c;stroke-width:0.132;paint-order:stroke markers fill" />
  <path
     word-spacing="0"
     letter-spacing="0"
     font-size="2.822"
     font-weight="400"
     style="font-weight:400;font-size:2.82200003px;line-height:1.25;font-family:Sniglet;-inkscape-font-specification:'Sniglet, Normal';font-variant-ligatures:normal;font-variant-caps:normal;font-variant-numeric:normal;font-feature-settings:normal;text-align:start;letter-spacing:0;word-spacing:0;fill:#c8c8c8;stroke-width:1"
     d="m 5.2582581,83.728688 q 0.02176,-0.0512 0.064,-0.08448 0.04864,-0.032 0.09984,-0.032 0.04608,0 0.0896,0.032 0.04352,0.02944 0.06912,0.07936 0.1369605,0.281601 0.2688009,0.610562 0.1356805,0.325121 0.2432008,0.618242 0.06272,-0.448002 0.1344005,-0.903683 0.07168,-0.454402 0.1625606,-0.870403 0.01024,-0.04736 0.032,-0.07552 0.02176,-0.032 0.04736,-0.04736 0.0256,-0.01792 0.0512,-0.0256 0.02816,-0.0128 0.04608,-0.0128 0.06144,0 0.1024003,0.03584 0.0384,0.032 0.0384,0.09088 0,0.06528 -0.02176,0.2304 -0.02176,0.163841 -0.0576,0.384002 -0.03584,0.2176 -0.0832,0.462081 l -0.08576,0.473602 q -0.04352,0.227841 -0.0832,0.414721 -0.0384,0.188161 -0.064,0.285441 -0.02304,0.0832 -0.06656,0.128001 -0.04352,0.0384 -0.1280005,0.0384 -0.08448,0 -0.1459205,-0.07552 -0.05888,-0.07936 -0.1305604,-0.245761 -0.06912,-0.166401 -0.1664006,-0.422402 -0.09728,-0.259841 -0.2521609,-0.620802 -0.1600005,0.360961 -0.2611209,0.620802 -0.09728,0.259841 -0.1689605,0.426242 -0.06912,0.1664 -0.1305605,0.245761 -0.06144,0.0768 -0.1446405,0.0768 -0.1446405,0 -0.1920006,-0.166401 -0.02816,-0.09856 -0.06784,-0.281601 l -0.0832,-0.416001 -0.0832,-0.469762 q -0.04352,-0.24576 -0.0768,-0.460801 l -0.0512,-0.381442 q -0.0192,-0.1664 -0.0192,-0.2304 0,-0.06144 0.0384,-0.102401 0.04096,-0.0384 0.1126404,-0.0384 0.0512,0 0.09728,0.032 0.04736,0.02944 0.06912,0.122881 0.08704,0.414721 0.1510406,0.870403 0.06912,0.454401 0.1446405,0.902403 0.1126403,-0.263681 0.2240007,-0.559362 0.1126404,-0.294401 0.279041,-0.665602 z m 2.5894489,0.952323 q -0.0512,0 -0.1024004,0.0128 H 7.5149058 q -0.06016,0 -0.1369604,-0.0128 v 0.733442 q 0,0.115201 -0.0576,0.144641 -0.05376,0.0256 -0.1369605,0.0256 -0.04352,0 -0.06912,-0.0128 -0.0256,0 -0.04224,-0.01792 -0.01536,-0.01792 -0.0256,-0.04992 -0.00768,-0.032 -0.01024,-0.0896 -0.00768,-0.06656 -0.01024,-0.18944 l -0.00768,-0.325121 q 0,-0.198401 -0.00384,-0.480002 v -0.668162 q 0,-0.148481 0.03584,-0.285441 0.03584,-0.140801 0.1305605,-0.245761 0.09344,-0.1088 0.2521609,-0.172801 0.1625605,-0.064 0.4121614,-0.064 0.1766406,0 0.3430411,0.0384 0.1702406,0.03968 0.2995211,0.136961 0.1305604,0.09728 0.2099207,0.263681 0.07936,0.1664 0.07936,0.414721 0,0.332801 -0.1446405,0.517122 -0.1408005,0.18048 -0.3904014,0.256001 L 8.72579,85.276213 q 0.064,0.08704 0.064,0.176641 0,0.07168 -0.0512,0.11264 -0.0448,0.04352 -0.1164804,0.04352 -0.07936,0 -0.1382404,-0.04352 -0.0576,-0.04736 -0.1075204,-0.11904 z m 0.5683219,-0.840963 q 0,-0.249601 -0.1536005,-0.368641 -0.1472005,-0.122881 -0.4736016,-0.122881 -0.1177604,0 -0.1971207,0.02176 -0.07936,0.01792 -0.1280004,0.07168 -0.0448,0.05376 -0.06656,0.15104 -0.01792,0.09344 -0.01792,0.243201 v 0.244481 q 0,0.1408 0.00384,0.256001 H 7.761947 q 0.1024003,0 0.2124807,-0.0128 0.1152004,-0.0128 0.2137607,-0.064 0.09728,-0.05376 0.1625606,-0.15232 0.064,-0.10112 0.064,-0.273921 z m 0.7334426,1.506565 q -0.00768,-0.13056 -0.0128,-0.271361 l -0.00256,-0.303361 q -0.00384,-0.16256 -0.00384,-0.350721 v -0.426241 q 0,-0.256001 0.00384,-0.435202 0.00384,-0.185601 0.02176,-0.302081 0.01792,-0.1152 0.05376,-0.168961 0.0384,-0.05376 0.1049603,-0.05376 0.032,0 0.06144,0.0128 0.02944,0.0128 0.0512,0.032 0.02048,0.02176 0.03584,0.06912 0.01792,0.04352 0.02176,0.1152 0.00768,0.12928 0.01024,0.230401 l 0.00768,0.202241 q 0.00384,0.09728 0.00384,0.20608 v 0.550402 q 0,0.147201 -0.00384,0.291841 l -0.00768,0.294401 -0.01024,0.308481 q -0.00384,0.08704 -0.0192,0.134401 -0.0128,0.04736 -0.03584,0.07296 -0.02176,0.0256 -0.0512,0.02944 -0.02816,0.0128 -0.064,0.0128 -0.064,0 -0.1126404,-0.04352 -0.04608,-0.04736 -0.05376,-0.195841 z m 2.1977675,-1.971207 q -0.1024,0.0128 -0.217601,0.0128 -0.11136,0 -0.248321,0.0128 l 0.0077,0.18304 0.0077,0.168961 q 0.0038,0.08704 0.0038,0.18048 0.0038,0.09344 0.0038,0.209921 v 0.314881 q 0,0.147201 -0.0038,0.299521 l -0.0077,0.299521 -0.01024,0.314881 q -0.0038,0.08704 -0.01792,0.133121 -0.01024,0.04736 -0.03328,0.07168 -0.02176,0.0256 -0.0512,0.02944 -0.02816,0.0128 -0.064,0.0128 -0.064,0 -0.111361,-0.04352 -0.04352,-0.04736 -0.0512,-0.194561 -0.0077,-0.13056 -0.01024,-0.275201 0,-0.14464 -0.0038,-0.311041 -0.0038,-0.1664 -0.0038,-0.357121 v -0.775683 q 0.0038,-0.14848 0.01024,-0.256 h -0.409601 q -0.103681,0 -0.1715207,-0.0192 -0.06912,-0.01792 -0.1024004,-0.05376 -0.02816,-0.03584 -0.02816,-0.1024 0,-0.03072 0.00768,-0.05632 0.00768,-0.02944 0.032,-0.0512 0.0256,-0.0256 0.06912,-0.0384 0.04736,-0.01536 0.1190411,-0.02304 0.06912,0 0.12288,-0.0128 0.05376,0 0.1088,-0.0128 h 0.646403 q 0.192,0 0.404481,0.0128 0.08704,0.0128 0.1344,0.02304 0.04608,0.0128 0.07168,0.032 0.0256,0.02176 0.02944,0.0512 0.0077,0.02944 0.0077,0.064 0,0.06656 -0.04736,0.11008 -0.04352,0.04352 -0.192001,0.0512 z m 0.514562,1.646086 q -0.0077,-0.1152 -0.01536,-0.314881 -0.0077,-0.198401 -0.0077,-0.408321 v -0.245761 l 0.0077,-0.263681 q 0.0077,-0.267521 0.03328,-0.418562 0.02816,-0.15232 0.1088,-0.22784 0.08192,-0.07552 0.230401,-0.09344 0.148481,-0.01792 0.394241,-0.01792 h 0.473602 q 0.1152,0 0.192001,0.0128 l 0.12544,0.02176 q 0.0512,0.0128 0.0768,0.032 0.0256,0.01792 0.032,0.04736 0.0077,0.0256 0.0077,0.0576 0,0.0832 -0.04736,0.12288 -0.04736,0.03584 -0.192,0.04736 -0.07168,0.0128 -0.212481,0.0128 h -0.686082 q -0.09472,0 -0.134401,0.04352 -0.03584,0.03584 -0.03584,0.17664 l 0.0038,0.160001 q 0.0077,0.12288 0.0077,0.345601 h 0.299521 q 0.192001,0 0.311041,0.0128 0.122881,0 0.188161,0.02176 0.06784,0.01792 0.09344,0.0576 0.0256,0.03968 0.0256,0.104961 0,0.032 -0.0077,0.06144 -0.0038,0.0256 -0.02944,0.04736 -0.0256,0.01792 -0.07168,0.032 -0.04736,0.0128 -0.134401,0.01792 -0.1024,0.0128 -0.1984,0.0128 h -0.486402 v 0.441602 l 0.009,0.12288 q 0.0038,0.0576 0.01536,0.09728 0.0128,0.0384 0.04608,0.064 0.03584,0.0256 0.102401,0.0384 0.06784,0.0128 0.1792,0.0128 h 0.776963 q 0.128,0 0.15872,0.04608 0.03328,0.04736 0.03328,0.128 0,0.064 -0.02944,0.09984 -0.02816,0.032 -0.1408,0.04736 -0.1088,0.01792 -0.328961,0.02176 h -0.599042 q -0.162561,0 -0.268801,-0.02944 -0.102401,-0.02944 -0.168961,-0.09728 -0.064,-0.06912 -0.09728,-0.177921 -0.02944,-0.11264 -0.0384,-0.268801 z"
     id="path898"
     inkscape:connector-curvature="0" />
  <ellipse
     ry="0.92544317"
     rx="0.91392314"
     cy="84.313652"
     cx="15.433013"
     id="ellipse900"
     style="fill:#c8c8c8;stroke-width:1;paint-order:markers stroke fill" />
  <rect
     rx="0.98999995"
     ry="0.98999995"
     y="48.642494"
     x="2.1260874"
     height="3.8950534"
     width="16.094776"
     id="rect902"
     style="fill:#333333;stroke:#8c8c8c;stroke-width:0.132;paint-order:stroke markers fill" />
  <g
     aria-label="GATE 1"
     id="g908"
     transform="matrix(1.2800044,0,0,1.2800044,0,-0.09623859)"
     style="stroke-width:0.78124732">
    <g
       style="line-height:1.25;stroke-width:0.78124732"
       aria-label="GATE IN"
       id="g906">
      <path
         style="font-weight:400;font-size:2.82200003px;font-family:Sniglet;-inkscape-font-specification:'Sniglet, Normal';font-variant-ligatures:normal;font-variant-caps:normal;font-variant-numeric:normal;font-feature-settings:normal;text-align:start;letter-spacing:0;word-spacing:0;fill:#c8c8c8;stroke-width:0.78124732"
         d="m 3.429,40.379 q 0,0.067 -0.014,0.104 -0.011,0.037 -0.03,0.057 -0.018,0.02 -0.043,0.022 -0.023,0.006 -0.045,0.006 -0.077,0 -0.102,-0.034 Q 3.172,40.5 3.164,40.382 3.158,40.32 3.154,40.202 L 3.15,39.919 q 0,-0.164 -0.003,-0.361 V 39.14 q 0,-0.104 0.025,-0.212 0.026,-0.107 0.096,-0.194 0.074,-0.088 0.2,-0.141 0.13,-0.054 0.337,-0.054 0.144,0 0.273,0.03 0.13,0.032 0.229,0.108 0.099,0.076 0.158,0.203 0.06,0.127 0.06,0.316 0,0.198 -0.066,0.328 -0.064,0.13 -0.183,0.206 -0.12,0.076 -0.282,0.107 -0.164,0.03 -0.36,0.03 H 3.54 q -0.048,0 -0.107,-0.005 z m 0.813,-1.188 q 0,-0.19 -0.107,-0.286 -0.105,-0.095 -0.35,-0.095 -0.093,0 -0.161,0.016 -0.065,0.015 -0.107,0.054 -0.043,0.037 -0.065,0.102 -0.02,0.065 -0.02,0.163 v 0.22 q 0,0.122 0.003,0.23 0.065,0.002 0.144,0.002 h 0.152 q 0.085,0 0.175,-0.011 0.093,-0.011 0.167,-0.051 0.073,-0.042 0.12,-0.121 0.049,-0.082 0.049,-0.223 z m 1.16,0.67 -0.081,0.007 H 5.143 q -0.048,0 -0.107,-0.006 v 0.573 q 0,0.09 -0.045,0.113 -0.042,0.02 -0.107,0.02 -0.034,0 -0.054,-0.006 Q 4.81,40.559 4.796,40.548 4.785,40.534 4.776,40.508 4.771,40.483 4.768,40.438 4.762,40.387 4.76,40.291 L 4.754,40.037 q 0,-0.155 -0.003,-0.376 v -0.522 q 0,-0.115 0.028,-0.223 0.029,-0.11 0.102,-0.192 0.073,-0.084 0.197,-0.135 0.127,-0.05 0.322,-0.05 0.138,0 0.268,0.03 0.133,0.03 0.235,0.107 0.1,0.077 0.163,0.206 0.062,0.13 0.062,0.325 0,0.26 -0.113,0.404 -0.11,0.14 -0.304,0.2 l 0.378,0.52 q 0.05,0.067 0.05,0.138 0,0.056 -0.04,0.087 Q 6.063,40.59 6.007,40.59 5.945,40.59 5.9,40.556 5.855,40.519 5.815,40.463 Z m 0.444,-0.656 q 0,-0.195 -0.118,-0.288 -0.116,-0.096 -0.37,-0.096 -0.093,0 -0.155,0.017 -0.062,0.014 -0.1,0.056 -0.036,0.042 -0.053,0.119 -0.014,0.073 -0.014,0.189 v 0.192 q 0,0.11 0.003,0.2 0.065,0.003 0.144,0.003 h 0.152 q 0.08,0 0.167,-0.008 0.09,-0.011 0.166,-0.05 0.076,-0.043 0.127,-0.12 0.05,-0.078 0.05,-0.214 z m 1.288,1.379 q -0.17,0 -0.32,-0.067 Q 6.668,40.449 6.558,40.322 6.448,40.192 6.383,40.006 6.321,39.82 6.321,39.583 q 0,-0.223 0.053,-0.41 0.057,-0.186 0.164,-0.321 0.11,-0.136 0.27,-0.21 0.16,-0.075 0.374,-0.075 0.172,0 0.327,0.062 0.155,0.062 0.27,0.186 0.12,0.124 0.187,0.31 0.068,0.187 0.068,0.435 0,0.206 -0.057,0.393 -0.053,0.186 -0.166,0.327 -0.11,0.138 -0.28,0.223 -0.17,0.082 -0.397,0.082 z m 0.005,-0.265 q 0.155,0 0.27,-0.062 0.117,-0.065 0.193,-0.17 0.076,-0.103 0.113,-0.24 0.037,-0.137 0.037,-0.281 0,-0.175 -0.048,-0.31 -0.046,-0.14 -0.125,-0.232 -0.08,-0.093 -0.183,-0.141 -0.104,-0.05 -0.223,-0.05 -0.141,0 -0.248,0.058 -0.105,0.06 -0.178,0.16 -0.07,0.103 -0.107,0.24 -0.037,0.137 -0.037,0.29 0,0.168 0.042,0.307 0.043,0.135 0.113,0.23 0.074,0.097 0.172,0.15 0.1,0.05 0.21,0.05 z m 1.695,0.237 Q 8.676,40.556 8.58,40.531 8.484,40.506 8.43,40.461 8.38,40.413 8.36,40.345 8.343,40.277 8.334,40.192 8.326,40.094 8.32,39.932 8.317,39.769 8.317,39.594 V 39.416 Q 8.32,39.32 8.32,39.23 l 0.006,-0.172 q 0.003,-0.08 0.008,-0.136 0.009,-0.087 0.029,-0.158 0.02,-0.07 0.073,-0.12 0.056,-0.052 0.155,-0.077 0.102,-0.028 0.268,-0.028 0.378,0 0.565,0.14 0.189,0.14 0.189,0.396 0,0.133 -0.06,0.245 -0.056,0.113 -0.197,0.17 0.079,0.014 0.144,0.06 0.065,0.044 0.11,0.11 0.048,0.06 0.07,0.14 0.026,0.076 0.026,0.155 0,0.102 -0.042,0.21 -0.043,0.104 -0.144,0.19 -0.102,0.089 -0.271,0.145 -0.167,0.057 -0.415,0.057 z m 0.59,-0.61 q 0,-0.1 -0.048,-0.163 Q 9.331,39.721 9.256,39.69 9.184,39.656 9.094,39.645 9.004,39.634 8.913,39.634 H 8.766 q -0.076,0 -0.14,0.003 l -0.007,0.12 -0.005,0.12 v 0.152 q 0,0.076 0.01,0.127 0.012,0.05 0.043,0.082 0.032,0.03 0.088,0.045 0.06,0.01 0.15,0.01 0.248,0 0.383,-0.086 0.136,-0.088 0.136,-0.26 z m -0.522,-1.14 q -0.093,0 -0.153,0.018 -0.056,0.014 -0.087,0.04 -0.028,0.025 -0.04,0.06 -0.008,0.038 -0.008,0.08 v 0.395 q 0.04,0.003 0.082,0.003 H 8.78 q 0.102,0 0.198,-0.014 0.099,-0.014 0.178,-0.048 0.079,-0.034 0.127,-0.093 0.048,-0.06 0.048,-0.152 0,-0.127 -0.105,-0.206 -0.101,-0.082 -0.324,-0.082 z m 1.69,1.576 q -0.005,-0.102 -0.008,-0.212 0,-0.11 -0.003,-0.237 -0.003,-0.127 -0.003,-0.274 v -0.333 q 0,-0.2 0.003,-0.341 0.003,-0.144 0.017,-0.235 0.014,-0.09 0.042,-0.132 0.03,-0.043 0.082,-0.043 0.025,0 0.048,0.006 0.023,0.006 0.04,0.026 0.016,0.017 0.028,0.053 0.014,0.034 0.017,0.09 l 0.008,0.18 0.006,0.159 q 0.003,0.076 0.003,0.16 v 0.43 q 0,0.116 -0.003,0.229 l -0.006,0.228 -0.008,0.243 q -0.003,0.068 -0.014,0.104 -0.012,0.037 -0.03,0.057 -0.016,0.02 -0.04,0.022 -0.021,0.006 -0.05,0.006 -0.05,0 -0.086,-0.033 -0.037,-0.037 -0.043,-0.153 z m 1.765,0.042 Q 12.267,40.3 12.184,40.178 l -0.172,-0.27 q -0.09,-0.147 -0.21,-0.325 -0.114,-0.18 -0.28,-0.42 v 0.38 l -10e-4,0.31 -0.005,0.272 q -0.003,0.127 -0.01,0.254 -0.002,0.067 -0.013,0.104 -0.01,0.037 -0.025,0.057 -0.017,0.02 -0.04,0.022 -0.02,0.006 -0.048,0.006 -0.05,0 -0.085,-0.034 -0.034,-0.036 -0.04,-0.152 -0.013,-0.31 -0.016,-0.621 v -0.646 q 0,-0.19 0.003,-0.297 0.005,-0.107 0.02,-0.16 0.016,-0.054 0.042,-0.068 0.028,-0.014 0.073,-0.014 0.045,0 0.119,0.07 0.073,0.068 0.16,0.18 0.088,0.114 0.187,0.26 0.1,0.147 0.2,0.302 0.099,0.156 0.19,0.308 l 0.169,0.277 Q 12.399,39.84 12.399,39.682 v -0.356 q 0,-0.223 0.003,-0.367 0.002,-0.146 0.014,-0.23 0.014,-0.086 0.042,-0.12 0.028,-0.033 0.08,-0.033 0.047,0 0.084,0.03 0.036,0.032 0.042,0.145 l 0.009,0.18 0.005,0.158 q 0.003,0.076 0.003,0.16 v 0.43 q 0,0.116 -0.003,0.229 l -0.005,0.228 q -0.003,0.116 -0.01,0.243 -0.002,0.068 -0.013,0.104 -0.008,0.037 -0.025,0.057 -0.017,0.02 -0.04,0.022 -0.02,0.006 -0.048,0.006 -0.048,0 -0.082,-0.028 -0.034,-0.028 -0.098,-0.115 z"
         font-size="2.822"
         aria-label="PROB IN"
         word-spacing="0"
         letter-spacing="0"
         font-weight="400"
         id="path904"
         inkscape:connector-curvature="0" />
    </g>
  </g>
</svg>
