<?xml version="1.0" encoding="UTF-8" standalone="no"?>
<svg
   xmlns:dc="http://purl.org/dc/elements/1.1/"
   xmlns:cc="http://creativecommons.org/ns#"
   xmlns:rdf="http://www.w3.org/1999/02/22-rdf-syntax-ns#"
   xmlns:svg="http://www.w3.org/2000/svg"
   xmlns="http://www.w3.org/2000/svg"
   xmlns:xlink="http://www.w3.org/1999/xlink"
   xmlns:sodipodi="http://sodipodi.sourceforge.net/DTD/sodipodi-0.dtd"
   xmlns:inkscape="http://www.inkscape.org/namespaces/inkscape"
   width="45"
   height="380"
   viewBox="0 0 11.906 100.542"
   version="1.1"
   id="svg54"
   sodipodi:docname="Hotkey_dark.svg"
   inkscape:version="0.92.2 (5c3e80d, 2017-08-06)">
  <metadata
     id="metadata58">
    <rdf:RDF>
      <cc:Work
         rdf:about="">
        <dc:format>image/svg+xml</dc:format>
        <dc:type
           rdf:resource="http://purl.org/dc/dcmitype/StillImage" />
      </cc:Work>
    </rdf:RDF>
  </metadata>
  <sodipodi:namedview
     pagecolor="#ffffff"
     bordercolor="#666666"
     borderopacity="1"
     objecttolerance="10"
     gridtolerance="10"
     guidetolerance="10"
     inkscape:pageopacity="0"
     inkscape:pageshadow="2"
     inkscape:window-width="1366"
     inkscape:window-height="705"
     id="namedview56"
     showgrid="false"
     inkscape:zoom="2.1237053"
     inkscape:cx="-149.36942"
     inkscape:cy="39.32185"
     inkscape:window-x="1912"
     inkscape:window-y="300"
     inkscape:window-maximized="1"
     inkscape:current-layer="svg54" />
  <defs
     id="defs14">
    <linearGradient
       xlink:href="#a"
       id="c"
       x1="26.759"
       y1="162"
       x2="30.999"
       y2="162"
       gradientUnits="userSpaceOnUse"
       gradientTransform="matrix(1 0 0 .56406 0 70.452)" />
    <linearGradient
       id="a">
      <stop
         offset="0"
         stop-color="#fff"
         id="stop3" />
      <stop
         offset="1"
         stop-color="#fff"
         stop-opacity="0"
         id="stop5" />
    </linearGradient>
    <linearGradient
       xlink:href="#b"
       id="d"
       x1="26.759"
       y1="162"
       x2="30.999"
       y2="162"
       gradientUnits="userSpaceOnUse"
       gradientTransform="matrix(.99995 0 0 .53173 135.453 -112.052)" />
    <linearGradient
       id="b">
      <stop
         offset="0"
         stop-color="#fff"
         stop-opacity=".992"
         id="stop9" />
      <stop
         offset="1"
         stop-color="#fff"
         stop-opacity="0"
         id="stop11" />
    </linearGradient>
  </defs>
  <path
     d="M0 0h11.906v100.541H0zm0 0"
     fill="#191919"
     id="path16" />
  <g
     style="line-height:1.25"
     id="g20"
     transform="translate(0,-1.3889071)">
    <path
       style="font-weight:400;font-size:3.52800012px;font-family:Arial;-inkscape-font-specification:'Arial, Normal';font-variant-ligatures:normal;font-variant-caps:normal;font-variant-numeric:normal;font-feature-settings:normal;text-align:start;letter-spacing:0;word-spacing:0;fill:#969696"
       d="m 6.339,95.282 -1.631,0.115 v -2.06 q 0,-0.23 0.065,-0.333 0.064,-0.104 0.22,-0.147 0.153,-0.043 0.348,-0.002 0.223,0.047 0.356,0.19 0.134,0.146 0.134,0.33 0,0.186 -0.158,0.286 -0.158,0.103 -0.408,0.05 Q 5.183,93.693 5.122,93.667 5.058,93.64 4.917,93.557 v 1.345 l 1.219,-0.085 v -1.554 q 0,-0.225 0.065,-0.337 0.066,-0.11 0.226,-0.15 0.16,-0.04 0.348,0 0.223,0.046 0.354,0.19 0.13,0.14 0.13,0.324 0,0.195 -0.156,0.294 -0.156,0.1 -0.408,0.047 -0.16,-0.034 -0.356,-0.16 z"
       font-size="3.528"
       aria-label="♫"
       font-weight="400"
       letter-spacing="0"
       word-spacing="0"
       id="path18"
       inkscape:connector-curvature="0" />
  </g>
  <rect
     rx="2.34"
     ry="2.34"
     y="67.727"
     x=".994"
     height="13.602"
     width="9.911"
     fill="#3e3e3e"
     stroke-width=".265"
     paint-order="stroke markers fill"
     stroke="#c8c8c8"
     id="rect22" />
  <g
     aria-label="HK"
     style="font-weight:400;font-size:4.2329998px;line-height:1.25;font-family:Sniglet;letter-spacing:0;word-spacing:0;fill:#c8c8c8;stroke-width:0.26499999"
     font-weight="400"
     font-size="4.233"
     letter-spacing="0"
     word-spacing="0"
     id="g26"
     transform="translate(0,0.98091424)">
    <path
       d="M 5.317,7.394 5.3,6.916 Q 5.295,6.662 5.295,6.332 L 5.008,6.34 H 4.347 Q 4.19,6.34 4.067,6.336 L 4.059,6.852 Q 4.055,7.098 4.042,7.39 4.038,7.491 4.022,7.547 4.008,7.602 3.983,7.631 3.958,7.661 3.923,7.665 3.894,7.674 3.852,7.674 3.776,7.674 3.725,7.623 3.674,7.568 3.665,7.394 3.657,7.242 3.653,7.077 3.653,6.912 3.649,6.721 3.644,6.531 3.644,6.311 v -0.5 q 0,-0.3 0.005,-0.512 Q 3.653,5.083 3.669,4.947 3.691,4.812 3.733,4.748 3.776,4.685 3.852,4.685 q 0.072,0 0.127,0.046 0.055,0.047 0.063,0.216 0.009,0.144 0.013,0.263 l 0.008,0.228 q 0.005,0.11 0.005,0.229 V 5.929 Q 4.385,5.917 4.69,5.917 q 0.148,0 0.296,0.004 0.153,0.004 0.31,0.013 V 5.81 Q 5.296,5.51 5.3,5.298 5.304,5.082 5.32,4.946 5.342,4.811 5.384,4.747 5.427,4.684 5.503,4.684 q 0.072,0 0.127,0.046 0.055,0.047 0.063,0.216 0.009,0.153 0.013,0.271 l 0.008,0.237 q 0.005,0.115 0.005,0.242 v 0.643 q 0,0.174 -0.005,0.343 L 5.706,7.025 Q 5.702,7.198 5.693,7.389 5.689,7.49 5.673,7.546 5.659,7.601 5.634,7.63 5.609,7.66 5.574,7.664 5.545,7.673 5.503,7.673 5.427,7.673 5.376,7.622 5.325,7.567 5.316,7.393 Z m 0.928,0 Q 6.237,7.242 6.233,7.077 6.233,6.912 6.228,6.721 6.224,6.531 6.224,6.311 v -0.5 q 0,-0.3 0.004,-0.512 Q 6.233,5.083 6.249,4.947 6.271,4.812 6.313,4.748 6.355,4.685 6.432,4.685 q 0.071,0 0.127,0.046 0.055,0.047 0.063,0.216 L 6.635,5.218 6.643,5.455 Q 6.647,5.57 6.647,5.697 V 6.196 L 7.553,5.159 Q 7.731,4.956 7.829,4.892 7.926,4.824 7.998,4.824 q 0.085,0 0.123,0.043 0.042,0.042 0.042,0.106 0,0.025 -0.009,0.05 Q 8.146,5.049 8.116,5.095 8.091,5.138 8.036,5.205 7.981,5.269 7.888,5.371 L 7.299,6.01 8.226,7.33 q 0.034,0.047 0.051,0.098 0.021,0.05 0.021,0.097 0,0.08 -0.046,0.132 Q 8.21,7.712 8.099,7.712 8.011,7.712 7.939,7.661 7.871,7.614 7.812,7.521 L 7.007,6.331 6.643,6.729 6.635,7.051 Q 6.63,7.212 6.622,7.39 6.618,7.491 6.601,7.547 6.588,7.602 6.563,7.631 6.537,7.661 6.503,7.665 6.473,7.674 6.432,7.674 6.355,7.674 6.305,7.623 6.254,7.568 6.245,7.394 Z"
       style="-inkscape-font-specification:'Sniglet, Normal';font-variant-ligatures:normal;font-variant-caps:normal;font-variant-numeric:normal;font-feature-settings:normal;text-align:start"
       id="path24"
       inkscape:connector-curvature="0" />
  </g>
  <g
     aria-label="TRIG"
     style="line-height:1.25"
     font-weight="400"
     font-size="2.822"
     font-family="Sniglet"
     letter-spacing="0"
     word-spacing="0"
     fill="#c8c8c8"
     stroke-width=".265"
     id="g30">
    <path
       d="M4.338 69.593q-.08.006-.17.009l-.194.005.005.144.006.133q.003.068.003.141.003.074.003.164v.245q0 .116-.003.235l-.006.234-.008.245q-.003.068-.014.105-.009.037-.026.056-.017.02-.04.023-.022.005-.05.005-.051 0-.088-.033-.034-.037-.04-.153-.005-.101-.008-.214l-.002-.243q-.003-.13-.003-.28v-.335-.271q.003-.116.008-.2h-.116q-.118 0-.203-.003-.082-.003-.135-.015-.054-.014-.08-.042-.022-.028-.022-.079 0-.025.006-.045.005-.023.025-.04.02-.02.054-.03.037-.012.093-.017l.096-.006.085-.006q.042-.002.087-.002h.105q.166 0 .313.002.15.003.316.012.068.005.104.017.037.008.057.025.02.017.022.04.006.022.006.05 0 .051-.037.085-.034.034-.15.04zM5.375 70.615l-.082.006h-.178q-.048 0-.107-.006v.573q0 .09-.045.113-.043.02-.108.02-.034 0-.053-.006-.02-.003-.034-.014-.011-.014-.02-.04-.006-.025-.008-.07-.006-.051-.009-.147l-.006-.254-.002-.375v-.522q0-.116.028-.223.028-.11.101-.192.074-.085.198-.136.127-.05.322-.05.138 0 .268.03.133.032.234.108.102.076.164.206.062.13.062.324 0 .26-.113.404-.11.141-.305.2l.378.52q.051.067.051.138 0 .056-.04.087-.036.034-.092.034-.063 0-.108-.034-.045-.036-.084-.093zm.443-.658q0-.194-.119-.287-.116-.096-.37-.096-.093 0-.155.017-.062.014-.099.056-.036.042-.053.118-.014.074-.014.19v.192q0 .11.003.2.064.003.143.003h.153q.079 0 .166-.009.09-.011.167-.05.076-.043.127-.12.05-.078.05-.214zM6.391 71.134q-.006-.101-.008-.211 0-.11-.003-.237t-.003-.274v-.333q0-.2.003-.342.003-.144.017-.234.014-.09.042-.133.031-.042.082-.042.025 0 .048.006.022.005.04.025.016.017.028.054.014.034.017.09l.008.18.006.159q.002.076.002.16v.43q0 .115-.002.228l-.006.229-.008.242q-.003.068-.015.105-.01.037-.028.056-.017.02-.04.023-.022.005-.05.005-.05 0-.088-.033-.036-.037-.042-.153zM7.899 69.311q.093 0 .191.017.1.017.181.05.082.032.136.08.053.048.053.11 0 .065-.034.099t-.084.034q-.048 0-.09-.017l-.091-.037q-.05-.02-.121-.037-.07-.017-.178-.017-.119 0-.223.057-.102.053-.18.152-.08.096-.125.229-.045.132-.045.288 0 .189.048.327t.124.229q.08.09.175.135.099.042.198.042.16 0 .254-.045.096-.048.152-.121.003-.06.003-.141v-.178q0-.037-.006-.056-.005-.023-.028-.034-.023-.012-.068-.014-.042-.003-.115-.003-.09 0-.147-.023-.057-.025-.057-.104 0-.057.029-.09.03-.037.124-.043h.053q.04-.003.082-.003h.155q.085 0 .136.017.05.014.09.068.02.028.023.099.005.07.005.163v.729q0 .076-.042.113-.04.036-.093.036-.065 0-.107-.034-.04-.03-.04-.101v-.11q-.073.084-.175.121-.099.037-.251.037-.155 0-.305-.062t-.265-.184q-.116-.124-.19-.307-.07-.187-.07-.432 0-.246.07-.438.074-.192.198-.324.125-.136.291-.206.167-.07.359-.07z"
       style="-inkscape-font-specification:'Sniglet, Normal';font-variant-ligatures:normal;font-variant-caps:normal;font-variant-numeric:normal;font-feature-settings:normal;text-align:start"
       id="path28" />
  </g>
  <g
     aria-label="DELAY"
     style="line-height:1.25"
     font-weight="400"
     font-size="2.822"
     font-family="Sniglet"
     letter-spacing="0"
     word-spacing="0"
     fill="#c8c8c8"
     stroke-width=".265"
     id="g34">
    <path
       d="M2.758 51.172q.29 0 .465.087.175.088.268.231.094.144.122.328.03.183.03.372 0 .206-.053.39-.05.183-.16.322-.108.135-.277.217-.17.079-.404.079-.186 0-.299-.028-.11-.026-.172-.08-.06-.053-.08-.135-.019-.082-.019-.192v-1.06q0-.122.02-.221.022-.099.084-.167.063-.07.175-.107.116-.036.3-.036zm.01 1.744q.176 0 .289-.062.115-.065.183-.17.068-.104.093-.237.029-.132.029-.27 0-.128-.02-.255-.02-.13-.082-.234-.062-.104-.178-.17-.116-.064-.307-.064-.175 0-.243.05-.068.051-.068.156v1.08q0 .088.062.133.065.043.243.043zM3.943 52.738q-.005-.09-.01-.246-.007-.155-.007-.319v-.191l.006-.206q.006-.21.025-.328.023-.118.085-.178.065-.059.18-.073.116-.014.308-.014h.06q.059 0 .14.003l.17.002.15.006q.062.006.098.017.04.008.06.025.02.014.025.037.006.02.006.045 0 .065-.037.096-.037.028-.15.037-.056.005-.166.008h-.22q-.113 0-.203.003H4.35q-.074.003-.105.034-.028.028-.028.138l.003.124q.006.096.006.271h.234q.15 0 .243.006.095.003.146.017.054.014.074.045.02.031.02.082 0 .025-.006.048-.003.02-.023.037-.02.014-.056.025-.037.009-.105.014-.082.006-.155.009H4.22v.344l.006.096q.002.045.01.076.012.031.038.05.028.02.079.03.053.008.14.008H5.1q.1 0 .125.036.025.037.025.1 0 .05-.023.078-.022.026-.11.037-.084.014-.256.017-.17.003-.469.003-.127 0-.209-.023-.082-.023-.132-.076-.051-.054-.077-.139-.022-.087-.03-.211zM5.785 52.38v.16q0 .068-.003.13 0 .062-.003.124l-.005.139.305-.037.172-.023q.065-.008.099-.01.036-.004.084-.004.124 0 .124.122 0 .048-.05.081-.048.034-.125.06-.073.022-.166.04-.09.013-.178.019-.085.008-.155.011l-.096.003q-.102 0-.158-.014-.057-.011-.085-.073-.028-.065-.036-.195-.006-.13-.006-.367v-.406q0-.178.003-.32.003-.14.003-.25.002-.11.008-.2.006-.117.04-.15.033-.037.084-.037.028 0 .048.005.023.003.04.023t.025.056q.011.037.014.105.011.248.014.49.003.244.003.517zM7.964 53.023l-.062-.155q-.03-.09-.068-.19l-.177.006H7.247q-.098 0-.18-.003l-.065.187q-.031.087-.06.155-.056.144-.163.144-.04 0-.076-.026-.034-.025-.034-.073 0-.048.017-.124.017-.08.042-.167.028-.09.06-.183.03-.096.059-.178.028-.09.079-.228.053-.142.113-.294l.118-.3q.06-.149.107-.259l.029-.062q.016-.037.04-.068.024-.03.053-.053.03-.023.067-.023.037 0 .068.026.031.022.054.056.025.034.042.07.02.037.031.066l.102.26q.059.146.115.295.06.15.11.286.051.135.082.228l.057.175q.034.093.062.184.028.09.045.169.02.076.02.124t-.037.073q-.034.026-.073.026-.051 0-.093-.034-.043-.037-.074-.11zm-.5-.621q.068 0 .136.003.068 0 .136.003l-.068-.198-.065-.189q-.028-.09-.054-.167l-.04-.138q-.01-.037-.025-.06-.014-.022-.036-.022-.023 0-.037.026-.014.022-.025.059-.034.116-.096.302l-.127.387q.076-.003.152-.003.076-.003.15-.003zM8.808 52.992l-.01-.33q-.004-.178-.004-.41l-.561-.804q-.023-.03-.037-.065-.011-.034-.011-.065 0-.053.028-.087.031-.037.104-.037.06 0 .105.034.048.031.087.093l.42.669.421-.669q.04-.062.085-.093.048-.034.107-.034.074 0 .102.037.03.034.03.087 0 .031-.013.065-.012.034-.034.065l-.55.788q0 .191-.006.37-.003.174-.011.383-.003.068-.014.104-.009.037-.026.057-.017.02-.04.023-.02.005-.047.005-.051 0-.085-.034-.034-.036-.04-.152z"
       style="-inkscape-font-specification:'Sniglet, Normal';font-variant-ligatures:normal;font-variant-caps:normal;font-variant-numeric:normal;font-feature-settings:normal;text-align:start"
       id="path32" />
  </g>
  <g
     aria-label="SET"
     style="font-weight:400;font-size:2.82200003px;line-height:1.25;font-family:Sniglet;letter-spacing:0;word-spacing:0;fill:#c8c8c8;stroke-width:0.26499999"
     font-weight="400"
     font-size="2.822"
     letter-spacing="0"
     word-spacing="0"
     id="g38"
     transform="translate(0,1.0583368)">
    <path
       d="m 4.386,14.39 q 0.08,0 0.18,0.013 0.105,0.012 0.195,0.046 0.09,0.03 0.153,0.084 0.062,0.051 0.062,0.127 0,0.045 -0.025,0.076 -0.026,0.031 -0.082,0.031 -0.043,0 -0.088,-0.016 Q 4.739,14.734 4.682,14.717 4.629,14.697 4.555,14.68 4.485,14.663 4.389,14.663 q -0.186,0 -0.277,0.068 -0.087,0.065 -0.087,0.18 0,0.08 0.04,0.133 0.039,0.054 0.104,0.093 0.068,0.037 0.15,0.062 0.084,0.026 0.172,0.048 0.098,0.026 0.194,0.062 0.1,0.037 0.175,0.096 0.076,0.06 0.122,0.15 0.048,0.09 0.048,0.228 0,0.144 -0.054,0.26 -0.054,0.113 -0.147,0.195 -0.093,0.079 -0.223,0.124 -0.13,0.042 -0.282,0.042 -0.085,0 -0.198,-0.017 Q 4.014,16.373 3.912,16.337 3.81,16.297 3.74,16.235 3.67,16.17 3.67,16.077 q 0,-0.056 0.027,-0.09 0.032,-0.034 0.09,-0.034 0.049,0 0.08,0.02 0.03,0.017 0.053,0.04 0.085,0.072 0.192,0.098 0.108,0.025 0.22,0.025 0.065,0 0.136,-0.008 0.073,-0.012 0.133,-0.043 0.059,-0.03 0.098,-0.087 0.04,-0.06 0.04,-0.158 0,-0.09 -0.037,-0.147 Q 4.668,15.633 4.609,15.594 4.549,15.554 4.468,15.529 4.388,15.504 4.296,15.479 4.191,15.45 4.09,15.417 3.988,15.383 3.91,15.327 3.83,15.267 3.78,15.18 3.731,15.09 3.731,14.95 q 0,-0.137 0.051,-0.242 0.051,-0.104 0.138,-0.175 0.088,-0.07 0.206,-0.107 0.122,-0.037 0.26,-0.037 z m 0.971,1.563 Q 5.351,15.863 5.346,15.707 5.34,15.552 5.34,15.388 V 15.196 L 5.346,14.99 q 0.005,-0.208 0.025,-0.327 0.023,-0.118 0.085,-0.178 0.065,-0.059 0.18,-0.073 0.116,-0.014 0.308,-0.014 h 0.06 q 0.059,0 0.14,0.003 l 0.17,0.002 0.15,0.006 q 0.061,0.006 0.098,0.017 0.04,0.008 0.06,0.025 0.02,0.014 0.025,0.037 0.005,0.02 0.005,0.045 0,0.065 -0.036,0.096 -0.037,0.028 -0.15,0.037 Q 6.41,14.671 6.3,14.674 H 6.08 q -0.113,0 -0.204,0.003 H 5.763 Q 5.69,14.68 5.659,14.711 5.631,14.739 5.631,14.849 l 0.003,0.124 q 0.005,0.096 0.005,0.271 h 0.235 q 0.15,0 0.242,0.006 0.096,0.003 0.147,0.017 0.054,0.014 0.073,0.045 0.02,0.031 0.02,0.082 0,0.025 -0.006,0.048 -0.002,0.02 -0.022,0.037 -0.02,0.014 -0.057,0.025 -0.036,0.008 -0.104,0.014 -0.082,0.006 -0.155,0.009 H 5.634 v 0.343 q 0.002,0.06 0.005,0.097 0.003,0.045 0.012,0.076 0.01,0.031 0.036,0.05 0.028,0.02 0.08,0.03 0.053,0.008 0.14,0.008 h 0.607 q 0.099,0 0.124,0.036 0.026,0.037 0.026,0.099 0,0.05 -0.023,0.08 -0.022,0.024 -0.11,0.036 -0.085,0.014 -0.257,0.017 -0.17,0.002 -0.468,0.002 -0.127,0 -0.21,-0.022 Q 5.516,16.356 5.464,16.303 5.414,16.249 5.388,16.164 5.366,16.077 5.358,15.953 Z m 2.657,-1.287 q -0.079,0.005 -0.169,0.008 l -0.195,0.006 0.006,0.144 0.006,0.133 q 0.002,0.067 0.002,0.14 0.003,0.074 0.003,0.164 v 0.246 q 0,0.116 -0.003,0.234 l -0.005,0.234 q -0.003,0.119 -0.009,0.246 -0.002,0.068 -0.014,0.104 -0.008,0.037 -0.025,0.057 -0.017,0.02 -0.04,0.022 -0.022,0.006 -0.05,0.006 -0.051,0 -0.088,-0.034 -0.034,-0.037 -0.04,-0.152 -0.005,-0.102 -0.008,-0.215 0,-0.113 -0.003,-0.242 -0.003,-0.13 -0.003,-0.28 v -0.336 -0.27 Q 7.382,14.765 7.388,14.68 H 7.272 Q 7.154,14.68 7.069,14.677 6.987,14.674 6.934,14.663 6.88,14.649 6.854,14.621 6.832,14.592 6.832,14.541 q 0,-0.025 0.006,-0.044 0.005,-0.023 0.025,-0.04 0.02,-0.02 0.054,-0.031 0.036,-0.011 0.093,-0.017 L 7.106,14.403 7.19,14.398 q 0.043,-0.003 0.088,-0.003 h 0.104 q 0.167,0 0.314,0.003 0.15,0.003 0.316,0.011 0.067,0.006 0.104,0.017 0.037,0.009 0.057,0.025 0.02,0.017 0.022,0.04 0.006,0.023 0.006,0.05 0,0.052 -0.037,0.085 -0.034,0.034 -0.15,0.04 z"
       style="-inkscape-font-specification:'Sniglet, Normal';font-variant-ligatures:normal;font-variant-caps:normal;font-variant-numeric:normal;font-feature-settings:normal;text-align:start"
       id="path36"
       inkscape:connector-curvature="0" />
  </g>
  <g
     style="line-height:1.25"
     id="g42">
    <path
       d="M2.421 62.774q0-.129.023-.264.026-.136.09-.246.063-.11.17-.18.11-.07.28-.07.133 0 .227.04.095.04.156.106.062.066.095.15.034.083.051.174.017.091.02.18.004.089.004.163 0 .148-.036.273-.034.123-.106.212-.07.089-.178.14-.106.048-.25.048-.15 0-.256-.057-.104-.06-.17-.157-.063-.099-.092-.23-.028-.134-.028-.282zm.212-.004q0 .104.017.199.019.093.059.165.04.07.104.112.065.043.158.043.09 0 .155-.036.068-.036.112-.1.045-.065.066-.154.02-.09.02-.193 0-.078-.005-.178-.007-.101-.04-.19-.032-.09-.102-.15-.07-.062-.195-.062-.106 0-.174.05-.065.052-.105.132-.04.078-.055.176-.015.095-.015.186z"
       style="-inkscape-font-specification:'Sniglet, Normal';font-variant-ligatures:normal;font-variant-caps:normal;font-variant-numeric:normal;font-feature-settings:normal;text-align:start"
       font-size="2.117"
       font-family="Sniglet"
       aria-label="0"
       font-weight="400"
       letter-spacing="0"
       word-spacing="0"
       fill="#c8c8c8"
       stroke-width=".265"
       id="path40" />
  </g>
  <g
     aria-label="1 s"
     style="line-height:1.25"
     font-weight="400"
     font-size="2.117"
     font-family="Sniglet"
     letter-spacing="0"
     word-spacing="0"
     fill="#c8c8c8"
     stroke-width=".265"
     id="g46">
    <path
       d="M8.192 63.333q-.004-.076-.006-.159l-.002-.178q-.002-.095-.002-.205v-.514l-.127.065q-.053.034-.085.04-.03.007-.066.007-.031 0-.057-.028-.023-.027-.023-.065 0-.038.025-.066.028-.03.064-.053.046-.032.1-.063.054-.032.105-.057.051-.028.093-.043.045-.017.074-.017.015 0 .03.005.017.004.03.016.015.013.023.04.01.026.013.07l.006.134.004.112q.002.053.002.112v.32q0 .087-.002.171l-.004.172-.006.182q-.002.05-.01.078-.007.028-.02.042-.013.015-.03.017-.014.005-.036.005-.038 0-.063-.026-.025-.027-.03-.114zM9.466 62.36q.044 0 .112.008.068.006.129.027.061.02.106.055.044.036.044.091 0 .032-.019.055-.017.024-.055.024-.027 0-.063-.009l-.076-.019q-.04-.013-.09-.021-.046-.009-.099-.009-.089 0-.146.028-.055.028-.055.087 0 .034.02.057t.054.042q.036.017.083.03.048.013.101.025.066.017.13.038.065.022.116.06.05.036.082.093.032.055.032.137 0 .157-.118.25-.119.091-.35.091-.05 0-.12-.008-.07-.007-.132-.028-.06-.019-.105-.055-.043-.038-.043-.1 0-.042.02-.063.02-.023.05-.023.023 0 .049.015.025.015.061.031.036.017.087.032.05.015.125.015l.072-.002q.044-.004.087-.02.044-.014.074-.04.031-.027.031-.076 0-.038-.02-.063-.022-.028-.058-.047-.036-.019-.085-.031-.046-.015-.099-.03-.061-.017-.125-.038-.061-.021-.112-.055-.05-.034-.083-.085-.031-.053-.031-.129 0-.072.03-.133.029-.064.084-.11.055-.047.131-.072.078-.026.174-.026z"
       style="-inkscape-font-specification:'Sniglet, Normal';font-variant-ligatures:normal;font-variant-caps:normal;font-variant-numeric:normal;font-feature-settings:normal;text-align:start"
       id="path44" />
  </g>
  <g
     transform="translate(-26.39 -161.247)"
     id="g52">
    <rect
       rx=".206"
       width="4.24"
       height=".439"
       x="26.759"
       y="161.611"
       ry=".206"
       fill="url(#c)"
       id="rect48" />
    <rect
       rx=".194"
       width="4.24"
       height=".413"
       x="162.21"
       y="-26.119"
       ry=".194"
       transform="matrix(.00655 .99998 -.99973 .02317 0 0)"
       fill="url(#d)"
       id="rect50" />
  </g>
</svg>
