<svg xmlns="http://www.w3.org/2000/svg" xmlns:xlink="http://www.w3.org/1999/xlink" width="90" height="380" viewBox="0 0 23.813 100.542"><defs><linearGradient xlink:href="#a" id="d" x1="26.759" y1="162" x2="30.999" y2="162" gradientUnits="userSpaceOnUse" gradientTransform="matrix(1 0 0 .56406 0 70.452)"/><linearGradient id="a"><stop offset="0" stop-color="#fff"/><stop offset="1" stop-color="#fff" stop-opacity="0"/></linearGradient><linearGradient xlink:href="#b" id="e" x1="26.759" y1="162" x2="30.999" y2="162" gradientUnits="userSpaceOnUse" gradientTransform="matrix(.99995 0 0 .53173 135.453 -112.052)"/><linearGradient id="b"><stop offset="0" stop-color="#fff" stop-opacity=".992"/><stop offset="1" stop-color="#fff" stop-opacity="0"/></linearGradient><linearGradient xlink:href="#c" id="f" x1="90.01" y1="192.064" x2="90.01" y2="200.961" gradientUnits="userSpaceOnUse" gradientTransform="matrix(1.56028 0 0 .80485 -119.482 -130.139)"/><linearGradient id="c"><stop offset="0"/><stop offset="1" stop-color="#fff"/></linearGradient></defs><path d="M0 0h23.813v100.541H0zm0 0" fill="#191919"/><g style="line-height:1.25"><path d="M7.796 8.361q0 .102-.021.157-.017.055-.047.085-.025.03-.063.034-.034.008-.068.008-.114 0-.152-.05-.034-.052-.047-.23-.008-.092-.012-.27-.005-.178-.009-.424 0-.245-.004-.541v-.627q0-.157.038-.318.038-.16.144-.292.11-.13.3-.211.195-.08.504-.08.216 0 .41.046.196.046.344.16.148.115.237.305.089.191.089.475 0 .296-.098.49-.097.195-.275.31-.178.114-.423.16-.246.047-.538.047h-.144q-.072 0-.16-.008zm1.22-1.782q0-.283-.161-.427-.157-.144-.525-.144-.14 0-.242.025-.097.021-.16.08-.064.056-.098.153-.03.097-.03.245v.33q0 .183.005.344.097.004.216.004h.228q.127 0 .263-.017.14-.017.25-.076.11-.064.181-.182.072-.123.072-.335zm2.413 1.833q-.043-.101-.093-.233-.047-.135-.102-.283l-.267.008h-.613q-.149 0-.272-.004-.05.148-.097.28-.046.13-.089.232-.084.216-.245.216-.06 0-.115-.038-.05-.038-.05-.11 0-.072.025-.186.025-.119.063-.25.043-.136.09-.275.046-.144.088-.267.043-.135.119-.343.08-.212.17-.44.088-.229.177-.449.089-.224.16-.39.018-.042.043-.092.026-.056.06-.102.038-.047.08-.08.046-.034.101-.034.056 0 .102.038.047.034.08.084.039.051.064.106.03.055.047.098.067.169.152.39.089.22.174.444.088.224.165.427.076.203.122.343l.085.263q.05.14.093.275t.068.254q.03.114.03.186t-.055.11q-.051.038-.11.038-.077 0-.14-.05-.064-.056-.11-.166zm-.75-.931q.102 0 .204.004.101 0 .203.004l-.102-.296-.097-.284q-.042-.135-.08-.25l-.06-.207q-.017-.055-.038-.089-.021-.034-.055-.034t-.055.038q-.021.034-.038.09-.05.173-.144.452-.089.276-.19.58.114-.004.228-.004.114-.004.224-.004zm2.443.106l-.123.008h-.267q-.072 0-.16-.008v.86q0 .135-.068.168-.064.03-.161.03-.051 0-.08-.008-.03-.005-.052-.022-.016-.02-.03-.059-.008-.038-.012-.106-.008-.076-.013-.22l-.008-.38q0-.234-.004-.564v-.783q0-.174.042-.334.042-.166.152-.288.11-.127.297-.204.19-.076.482-.076.208 0 .403.047.199.046.351.16.152.115.245.31.094.194.094.487 0 .389-.17.605-.165.212-.457.3l.567.78q.077.101.077.207 0 .085-.06.131-.055.05-.14.05-.093 0-.16-.05-.068-.055-.127-.14zm.664-.987q0-.292-.178-.431-.173-.144-.554-.144-.14 0-.233.025-.093.021-.148.085-.055.063-.08.177-.022.11-.022.284v.288q0 .165.004.3.098.005.216.005h.229q.119 0 .25-.013.135-.017.25-.076.114-.064.19-.178.076-.118.076-.322zm2.402-.546q-.118.009-.254.013l-.292.008.009.216.008.2q.004.1.004.21.005.111.005.246v.369q0 .173-.005.351l-.008.352q-.004.177-.013.368-.004.101-.02.156-.014.056-.039.085-.025.03-.06.034-.033.008-.075.008-.077 0-.132-.05-.05-.055-.059-.229-.009-.152-.013-.322 0-.169-.004-.364-.004-.194-.004-.419v-.91q.004-.174.013-.3h-.174q-.178 0-.305-.005-.123-.004-.203-.021-.08-.021-.119-.063-.033-.043-.033-.119 0-.038.008-.068.009-.034.038-.059.03-.03.08-.047.056-.017.14-.025l.144-.008.127-.009q.064-.004.132-.004h.156q.25 0 .47.004.224.004.474.017.102.008.157.025.055.013.085.038.03.026.033.06.009.034.009.076 0 .076-.055.127-.05.05-.225.06z" style="-inkscape-font-specification:'Sniglet, Normal';font-variant-ligatures:normal;font-variant-caps:normal;font-variant-numeric:normal;font-feature-settings:normal;text-align:start" aria-label="PART" font-weight="400" font-size="4.233" font-family="Sniglet" letter-spacing="0" word-spacing="0" fill="#c8c8c8"/></g><g style="line-height:1.25"><path style="-inkscape-font-specification:'Arial, Normal';font-variant-ligatures:normal;font-variant-caps:normal;font-variant-numeric:normal;font-feature-settings:normal;text-align:start" d="M17.55 13.576l.203-.002v2.02c0 .15-.022.263-.064.338a.35.35 0 0 1-.226.15.766.766 0 0 1-.348 0 .645.645 0 0 1-.354-.19.463.463 0 0 1-.13-.324c0-.13.052-.228.156-.294.104-.067.24-.082.408-.047.106.023.225.076.356.16z" font-size="3.528" aria-label="♫" font-weight="400" letter-spacing="0" word-spacing="0" font-family="Arial" fill="#c8c8c8"/></g><g style="line-height:1.25"><path d="M6.76 15.725q-.036.068-.067.099-.028.03-.074.03-.045 0-.079-.03-.034-.031-.073-.096-.05-.085-.116-.234-.062-.15-.127-.325-.065-.178-.127-.367-.062-.19-.113-.355-.048-.167-.079-.291-.028-.127-.028-.18 0-.057.023-.085.022-.03.087-.03.037 0 .062.02.028.018.07.103.035.065.074.17.04.104.082.23.045.128.09.269l.09.276q.046.139.085.266.04.127.074.228l.076-.231.087-.266.09-.276q.046-.141.091-.265.045-.125.085-.23.04-.103.07-.171.04-.082.068-.102.031-.02.062-.02.065 0 .088.034.025.03.025.093 0 .057-.017.136-.017.079-.06.212-.039.13-.106.324l-.167.477q-.025.076-.06.158-.03.082-.064.16l-.062.148q-.031.07-.06.12z" style="-inkscape-font-specification:'Sniglet, Normal';font-variant-ligatures:normal;font-variant-caps:normal;font-variant-numeric:normal;font-feature-settings:normal;text-align:start" font-size="2.822" aria-label="V" font-weight="400" letter-spacing="0" word-spacing="0" font-family="Sniglet" fill="#c8c8c8"/></g><g style="line-height:1.25"><path d="M9.36 21.333q.079 0 .18.014.105.011.195.045.09.031.153.085.062.05.062.127 0 .045-.026.076-.025.031-.082.031-.042 0-.087-.017-.042-.017-.099-.034-.053-.02-.127-.036-.07-.017-.166-.017-.187 0-.277.067-.087.065-.087.181 0 .08.04.133.039.053.103.093.068.036.15.062.085.025.172.048.099.025.195.062.099.037.175.096.076.06.121.15.048.09.048.228 0 .144-.053.26-.054.113-.147.194-.093.08-.223.125-.13.042-.282.042-.085 0-.198-.017-.113-.014-.214-.05-.102-.04-.172-.102-.071-.065-.071-.158 0-.057.028-.09.031-.035.09-.035.048 0 .08.02.03.017.053.04.085.073.192.098.107.026.22.026.065 0 .136-.009.073-.01.132-.042.06-.03.1-.087.039-.06.039-.158 0-.09-.037-.147-.034-.06-.093-.099-.06-.04-.141-.065-.08-.025-.173-.05-.104-.029-.206-.063-.101-.034-.18-.09-.08-.06-.13-.147-.048-.09-.048-.229 0-.138.05-.242.052-.105.14-.175.087-.07.205-.107.122-.037.26-.037zm1.236 1.815q0 .067-.014.104-.011.037-.031.056-.017.02-.042.023-.023.006-.046.006-.076 0-.101-.034-.023-.034-.031-.153-.006-.062-.009-.18l-.005-.282q0-.164-.003-.362v-.417q0-.105.025-.212.026-.107.096-.195.074-.087.2-.14.13-.055.336-.055.144 0 .274.031.13.032.229.108t.158.203q.06.127.06.316 0 .198-.066.327-.065.13-.183.206-.119.077-.282.108-.164.03-.359.03h-.096q-.048 0-.107-.005zm.813-1.189q0-.189-.107-.285-.105-.096-.35-.096-.093 0-.161.017-.065.014-.107.054-.043.037-.065.102-.02.064-.02.163v.22q0 .122.003.23.065.002.144.002h.152q.085 0 .175-.01.093-.013.167-.052.073-.043.12-.122.049-.08.049-.223zm.791.58v.16q0 .068-.003.13l-.002.124-.006.138q.195-.022.305-.037l.172-.022q.065-.009.099-.01.036-.004.084-.004.125 0 .125.121 0 .048-.051.082-.048.034-.124.06-.074.022-.167.04-.09.013-.178.02-.084.007-.155.01l-.096.003q-.102 0-.158-.014-.056-.012-.085-.074-.028-.065-.036-.195-.006-.13-.006-.366v-.407q0-.178.003-.319.003-.14.003-.25.002-.11.008-.2.006-.117.04-.15.034-.038.084-.038.029 0 .048.006.023.003.04.023t.025.056q.011.037.014.104.012.25.014.491.003.243.003.517zm1.04.611q-.007-.1-.01-.21l-.002-.238q-.003-.127-.003-.274v-.333q0-.2.003-.342.003-.144.017-.234.014-.09.042-.132.031-.043.082-.043.025 0 .048.006.022.005.04.025.016.017.028.054.014.034.017.09l.008.18.006.16q.002.075.002.16v.43q0 .114-.002.227l-.006.23-.008.242q-.003.067-.015.104-.01.037-.028.056-.017.02-.04.023-.022.006-.05.006-.05 0-.088-.034-.036-.037-.042-.153zm1.716-1.54q-.079.005-.17.008l-.194.006.006.143.005.133q.003.068.003.141.003.074.003.164v.245q0 .116-.003.235l-.006.234q-.002.12-.008.246-.003.067-.014.104-.009.037-.026.056-.017.02-.04.023-.022.006-.05.006-.05 0-.087-.034-.034-.037-.04-.153-.006-.1-.008-.214 0-.113-.003-.243t-.003-.28v-.605q.003-.117.008-.2h-.115q-.119 0-.203-.004-.082-.003-.136-.014-.054-.014-.079-.043-.022-.028-.022-.079 0-.025.005-.045.006-.022.026-.04.02-.02.053-.03.037-.012.093-.017l.096-.006.085-.006q.042-.002.087-.002h.105q.166 0 .313.002.15.003.316.012.068.005.105.017.036.008.056.025.02.017.023.04.005.022.005.05 0 .051-.036.085-.034.034-.15.04z" style="-inkscape-font-specification:'Sniglet, Normal';font-variant-ligatures:normal;font-variant-caps:normal;font-variant-numeric:normal;font-feature-settings:normal;text-align:start" aria-label="SPLIT" font-weight="400" font-size="2.822" letter-spacing="0" word-spacing="0" font-family="Sniglet" fill="#c8c8c8"/></g><g transform="translate(-26.494 -161.3) scale(1.00002)"><rect rx=".206" width="4.24" height=".439" x="26.759" y="161.611" ry=".206" fill="url(#d)"/><rect rx=".194" width="4.24" height=".413" x="162.21" y="-26.119" ry=".194" transform="matrix(.00655 .99998 -.99973 .02317 0 0)" fill="url(#e)"/></g><rect ry="1.418" rx="1.418" y="24.445" x="2.899" height="7.161" width="18.061" fill="url(#f)"/><g style="line-height:1.25"><path style="-inkscape-font-specification:'Arial, Normal';font-variant-ligatures:normal;font-variant-caps:normal;font-variant-numeric:normal;font-feature-settings:normal;text-align:start" d="M12.383 96.87l-1.63.115v-2.06q0-.23.064-.333.064-.104.22-.147.153-.043.348-.002.223.047.356.19.134.146.134.33 0 .186-.158.286-.158.103-.408.05-.082-.018-.143-.044-.064-.027-.205-.11v1.345l1.22-.085v-1.554q0-.225.064-.337.066-.11.226-.151.16-.04.348 0 .223.047.354.19.13.14.13.325 0 .195-.156.294-.156.1-.408.047-.16-.034-.356-.16z" font-size="3.528" aria-label="♫" font-weight="400" letter-spacing="0" word-spacing="0" font-family="Arial" fill="#969696"/></g><rect rx="2.34" ry="2.34" y="-22.225" x="-91.833" height="10.054" width="43.032" transform="matrix(0 -1 -1 0 0 0)" fill="#3e3e3e" stroke="#c8c8c8" stroke-width=".265" paint-order="stroke markers fill"/><g style="line-height:1.25"><path d="M15.064 80.941v.161q0 .068-.003.13 0 .062-.003.124l-.005.138.305-.036.172-.023.098-.01q.037-.004.085-.004.124 0 .124.121 0 .048-.05.082-.048.034-.125.06-.073.022-.166.04-.09.013-.178.02-.085.007-.155.01l-.096.003q-.102 0-.158-.014-.057-.012-.085-.074-.028-.065-.037-.194-.005-.13-.005-.367v-.407q0-.178.003-.319l.002-.25q.003-.11.009-.2.006-.117.04-.15.033-.037.084-.037.028 0 .048.005.023.003.04.023.016.02.025.056.01.037.014.105.01.248.014.49.003.243.003.517zm1.61.816q-.17 0-.32-.068-.146-.068-.256-.195-.11-.13-.175-.316-.062-.186-.062-.423 0-.223.053-.41.057-.186.164-.32.11-.137.27-.21.162-.076.374-.076.172 0 .327.062.155.062.27.186.119.124.187.31.068.187.068.435 0 .206-.056.393-.054.186-.167.327-.11.138-.28.223-.17.082-.397.082zm.005-.265q.156 0 .27-.063.117-.064.193-.169.076-.104.113-.24.037-.138.037-.282 0-.175-.048-.31-.045-.139-.124-.232-.08-.093-.184-.14-.104-.05-.223-.05-.141 0-.248.057-.105.06-.178.161-.07.102-.107.24-.037.136-.037.29 0 .167.042.306.043.135.113.231.074.096.172.15.1.05.21.05zm1.897-1.203q.017-.04.05-.065.037-.025.077-.025.036 0 .07.025.034.023.054.062.107.22.212.477.104.254.189.483.048-.35.104-.706.057-.355.127-.68.009-.036.026-.059.016-.025.036-.037.02-.014.04-.02.022-.005.036-.005.048 0 .08.028.03.026.03.07 0 .051-.016.181-.017.127-.046.3-.028.17-.064.36-.034.193-.068.37-.034.178-.065.325-.031.147-.05.223-.018.065-.052.1-.034.03-.1.03t-.114-.059q-.045-.063-.102-.192-.053-.13-.13-.33-.076-.204-.197-.486-.124.282-.203.485-.077.204-.133.333-.054.13-.102.192-.048.06-.113.06-.112 0-.15-.13-.022-.076-.053-.22l-.065-.325q-.03-.178-.065-.367l-.06-.36-.041-.297q-.014-.13-.014-.18 0-.049.03-.08.032-.03.088-.03.04 0 .076.024.037.023.054.096.068.325.119.68.053.356.112.706.088-.206.175-.437.088-.232.218-.52z" style="-inkscape-font-specification:'Sniglet, Normal';font-variant-ligatures:normal;font-variant-caps:normal;font-variant-numeric:normal;font-feature-settings:normal;text-align:start" aria-label="LOW" font-weight="400" font-size="2.822" letter-spacing="0" word-spacing="0" font-family="Sniglet" fill="#c8c8c8"/></g><g style="line-height:1.25"><path d="M15.556 67.181l-.012-.319q-.003-.17-.003-.39l-.192.006h-.44q-.104 0-.186-.003l-.006.345q-.002.163-.01.358-.004.068-.015.105-.009.036-.025.056-.017.02-.04.023-.02.005-.048.005-.05 0-.085-.034-.033-.036-.04-.152-.005-.102-.008-.212l-.002-.237q-.003-.127-.003-.274v-.333q0-.2.003-.34.002-.145.014-.235.014-.09.042-.133.028-.042.08-.042.047 0 .084.03.036.032.042.145l.01.175.004.152q.003.073.003.152v.175q.212-.008.415-.008.1 0 .197.003.102.002.206.008v-.082q0-.2.003-.34.003-.145.014-.235.014-.09.043-.133.028-.042.08-.042.047 0 .083.03.037.032.043.145l.008.18.006.158q.003.076.003.161v.43q0 .115-.003.228l-.006.228-.008.243q-.003.068-.014.104-.009.037-.026.057-.017.02-.04.022-.02.006-.047.006-.05 0-.085-.034-.034-.036-.04-.152zm.647 0q-.006-.102-.009-.212l-.002-.237q-.003-.127-.003-.274v-.333q0-.2.003-.34.002-.145.016-.235.015-.09.043-.133.03-.042.082-.042.025 0 .048.005.022.006.04.026.016.017.027.053.014.034.017.09l.01.181.004.158q.003.076.003.161v.43q0 .115-.003.228l-.005.228q-.003.116-.009.243-.002.068-.014.104-.01.037-.028.057-.017.02-.04.023-.022.005-.05.005-.05 0-.088-.034-.037-.036-.042-.152zm1.507-1.823q.093 0 .192.017.1.017.18.05.083.032.136.08.054.047.054.11 0 .064-.034.098t-.085.034q-.048 0-.09-.017l-.09-.036q-.05-.02-.122-.037-.07-.017-.177-.017-.119 0-.223.056-.102.054-.18.153-.08.096-.125.228-.045.133-.045.288 0 .19.048.328t.124.228q.08.09.175.136.1.042.197.042.161 0 .254-.045.096-.048.153-.12.003-.06.003-.143v-.177q0-.037-.006-.057-.006-.022-.028-.034-.023-.01-.068-.014-.042-.003-.116-.003-.09 0-.146-.022-.057-.026-.057-.105 0-.056.028-.09.031-.037.125-.042h.053q.04-.003.082-.003h.155q.085 0 .136.017.05.014.09.068.02.028.023.098.005.071.005.164v.728q0 .076-.042.113-.04.037-.093.037-.065 0-.107-.034-.04-.03-.04-.102v-.11q-.073.085-.175.122-.099.036-.25.036-.156 0-.306-.062t-.265-.183q-.116-.124-.19-.308-.07-.186-.07-.432 0-.245.07-.437.074-.192.198-.325.124-.135.29-.206.167-.07.36-.07zm2.046 1.823l-.01-.319q-.004-.17-.004-.39l-.192.006h-.44q-.105 0-.187-.003l-.005.345q-.003.163-.012.358-.002.068-.014.105-.008.036-.025.056-.017.02-.04.023-.02.005-.048.005-.05 0-.084-.034-.034-.036-.04-.152-.005-.102-.008-.212 0-.11-.003-.237t-.003-.274v-.333q0-.2.003-.34.003-.145.014-.235.014-.09.042-.133.03-.042.08-.042.047 0 .084.03.037.032.042.145l.01.175.004.152q.003.073.003.152v.175q.212-.008.415-.008.1 0 .198.003.101.002.206.008v-.082q0-.2.003-.34.002-.145.014-.235.014-.09.042-.133.028-.042.08-.042.047 0 .084.03.036.032.042.145l.01.18.004.158q.003.076.003.161v.43q0 .115-.003.228l-.005.228q-.003.116-.009.243-.003.068-.014.104-.009.037-.025.057-.017.02-.04.022-.02.006-.048.006-.05 0-.085-.034-.034-.036-.04-.152z" style="-inkscape-font-specification:'Sniglet, Normal';font-variant-ligatures:normal;font-variant-caps:normal;font-variant-numeric:normal;font-feature-settings:normal;text-align:start" aria-label="HIGH" font-weight="400" font-size="2.822" letter-spacing="0" word-spacing="0" font-family="Sniglet" fill="#c8c8c8"/></g><g style="line-height:1.25"><path d="M5.928 51.158q.093 0 .186.017.096.014.173.048.076.03.124.079.05.045.05.107 0 .065-.033.099-.034.034-.085.034-.048 0-.085-.014-.036-.017-.084-.037-.045-.02-.11-.034-.065-.017-.172-.017-.108 0-.207.057-.095.053-.169.152-.07.096-.113.229-.042.132-.042.288 0 .192.048.33.05.138.13.228.08.088.178.133.101.042.203.042.121 0 .203-.025.082-.025.138-.056.06-.032.102-.057.042-.025.082-.025.048 0 .076.028.028.025.028.093 0 .057-.045.116-.042.056-.127.104-.082.045-.198.076-.115.029-.26.029-.157 0-.315-.062-.156-.063-.28-.184-.12-.124-.197-.308-.077-.186-.077-.431 0-.246.068-.438.07-.192.19-.324.12-.136.28-.206.16-.071.34-.071zm1.642 1.885q-.037.068-.068.1-.028.03-.073.03-.046 0-.08-.03-.033-.032-.073-.097-.05-.085-.116-.234-.062-.15-.127-.325-.064-.177-.127-.367-.062-.19-.112-.355-.048-.167-.08-.29-.028-.128-.028-.181 0-.057.023-.085.022-.028.087-.028.037 0 .062.02.03.016.071.1.034.066.073.17.04.105.082.23.045.129.09.27l.09.276q.046.139.086.266l.073.228.076-.231q.042-.13.088-.265l.09-.277q.045-.141.09-.265l.085-.23q.04-.103.07-.171.04-.082.068-.102.031-.02.062-.02.065 0 .088.034.025.032.025.094 0 .056-.017.135-.017.08-.059.212-.04.13-.107.324l-.167.477q-.025.077-.06.158-.03.082-.064.16l-.062.148q-.03.07-.06.12z" style="-inkscape-font-specification:'Sniglet, Normal';font-variant-ligatures:normal;font-variant-caps:normal;font-variant-numeric:normal;font-feature-settings:normal;text-align:start" aria-label="CV" font-weight="400" font-size="2.822" letter-spacing="0" word-spacing="0" font-family="Sniglet" fill="#c8c8c8"/></g><g style="line-height:1.25"><path d="M4.454 65.359q.093 0 .192.016.099.017.18.05.083.032.136.08.054.048.054.11 0 .065-.034.099t-.085.034q-.048 0-.09-.017l-.09-.037q-.051-.02-.122-.036-.07-.017-.177-.017-.12 0-.223.056-.102.054-.18.153-.08.096-.125.228-.045.133-.045.288 0 .19.048.327.048.139.124.23.079.09.175.135.099.042.197.042.16 0 .254-.045.096-.048.153-.122.003-.06.003-.14v-.18q0-.035-.006-.055-.006-.023-.028-.034-.023-.011-.068-.014-.042-.003-.116-.003-.09 0-.146-.022-.057-.026-.057-.105 0-.056.028-.09.03-.037.125-.042h.053q.04-.003.082-.003h.155q.085 0 .136.017.05.014.09.067.02.029.023.1.005.07.005.163v.728q0 .076-.042.113-.04.037-.093.037-.065 0-.107-.034-.04-.031-.04-.102v-.11q-.073.085-.175.12-.1.038-.251.038-.155 0-.305-.062t-.265-.183q-.116-.125-.19-.308-.07-.186-.07-.432 0-.245.07-.437.074-.192.198-.325.124-.135.29-.206.167-.07.36-.07zm2.113 1.854l-.062-.155q-.03-.09-.067-.19l-.178.006h-.41q-.098 0-.18-.003l-.065.187q-.03.087-.06.155-.056.144-.163.144-.04 0-.076-.026-.034-.025-.034-.073 0-.048.017-.124.017-.08.042-.167l.06-.183q.03-.096.059-.178.028-.09.079-.23l.113-.292.118-.3q.06-.15.108-.26.01-.027.028-.061.017-.037.04-.068.025-.03.053-.053.03-.023.068-.023.036 0 .067.025.03.023.054.057.025.034.042.07.02.037.03.065.047.113.103.26.06.147.116.296.059.15.11.285.05.136.082.229.025.082.056.175.034.093.062.183.028.09.045.17.02.076.02.124t-.037.073q-.033.026-.073.026-.05 0-.093-.034-.042-.037-.073-.11zm-.5-.621q.069 0 .137.003l.135.002-.068-.197-.065-.19-.053-.166-.04-.138q-.011-.037-.025-.06-.014-.022-.037-.022-.022 0-.037.026-.014.022-.025.059-.034.116-.096.302l-.127.386.152-.002q.077-.003.15-.003zm1.877-.952q-.08.006-.17.01l-.194.005.005.144.006.132q.003.068.003.142.002.073.002.163v.246l-.002.234-.006.234q-.003.119-.01.246-.001.068-.013.104-.008.037-.025.057-.017.02-.04.022-.022.006-.05.006-.051 0-.088-.034-.034-.037-.04-.152-.005-.102-.008-.215 0-.113-.003-.243-.002-.13-.002-.28v-.605q.002-.117.008-.201H7.2q-.118 0-.203-.003-.082-.003-.135-.014-.054-.014-.08-.042-.022-.03-.022-.08 0-.025.006-.045.005-.022.025-.04.02-.02.054-.03.036-.011.093-.017l.096-.006.084-.005q.043-.003.088-.003h.104q.167 0 .314.003.15.002.316.01.067.007.104.018.037.008.057.025.02.017.022.04.006.022.006.05 0 .05-.037.085-.034.034-.15.04zm.402 1.288q-.006-.09-.012-.246-.005-.155-.005-.32v-.191l.005-.206q.006-.21.026-.327.022-.12.084-.178.065-.06.18-.073.117-.014.309-.014h.059l.14.002q.083 0 .17.003l.15.006q.062.005.099.017.04.008.059.025.02.014.025.037.006.02.006.045 0 .065-.037.096-.036.028-.15.037-.056.005-.166.008h-.22q-.113 0-.203.003h-.113q-.073.003-.105.034-.028.028-.028.138l.003.124q.006.096.006.27h.234q.15 0 .243.007.096.003.146.017.054.014.074.045.02.03.02.082 0 .025-.006.048-.003.02-.023.036-.02.015-.056.026-.037.008-.105.014-.081.006-.155.008h-.378v.345l.006.096q.002.045.01.076.012.03.038.05.028.02.079.029.053.008.14.008h.608q.098 0 .124.037.025.037.025.099 0 .05-.022.079-.023.025-.11.037-.085.014-.257.017-.17.002-.47.002-.126 0-.208-.022-.082-.023-.132-.076-.051-.054-.077-.14-.022-.086-.03-.21z" style="-inkscape-font-specification:'Sniglet, Normal';font-variant-ligatures:normal;font-variant-caps:normal;font-variant-numeric:normal;font-feature-settings:normal;text-align:start" aria-label="GATE" font-weight="400" font-size="2.822" letter-spacing="0" word-spacing="0" font-family="Sniglet" fill="#c8c8c8"/></g><path d="M17.403 76.73v1.323" fill="#c8c8c8" stroke="#c8c8c8" stroke-width=".132"/><g aria-label="THRU" style="line-height:1.25" font-weight="400" font-size="2.822" font-family="Sniglet" letter-spacing="0" word-spacing="0" fill="#c8c8c8" stroke-width=".265"><path d="M15.24 51.418q-.078.005-.169.008l-.194.006.005.144.006.132q.003.068.003.141.002.074.002.164v.246l-.002.234-.006.234-.008.246q-.003.067-.015.104-.008.037-.025.057-.017.02-.04.022-.022.006-.05.006-.051 0-.088-.034-.034-.037-.04-.152-.005-.102-.008-.215 0-.113-.003-.243-.002-.13-.002-.28v-.335-.27q.002-.117.008-.201h-.116q-.118 0-.203-.003-.082-.003-.135-.014-.054-.014-.08-.043-.022-.028-.022-.079 0-.025.006-.045.005-.022.025-.04.02-.019.054-.03.036-.012.093-.017l.096-.006.085-.005q.042-.003.087-.003h.104q.167 0 .314.003.15.002.316.01.068.007.104.018.037.008.057.025.02.017.022.04.006.022.006.05 0 .051-.037.085-.034.034-.15.04zM16.74 52.959l-.01-.32q-.004-.169-.004-.389l-.192.006h-.44q-.104 0-.186-.003l-.006.344q-.003.164-.011.359-.003.068-.014.104-.009.037-.026.057-.016.02-.039.022-.02.006-.048.006-.05 0-.085-.034-.034-.037-.04-.152-.005-.102-.008-.212l-.002-.237q-.003-.127-.003-.274v-.333q0-.2.003-.341.002-.144.014-.235.014-.09.042-.132.028-.043.079-.043.048 0 .085.031.036.031.042.144.006.096.008.175l.006.153q.003.073.003.152v.175q.212-.008.415-.008.099 0 .197.002.102.003.206.009v-.082q0-.2.003-.341.003-.144.014-.235.014-.09.043-.132.028-.043.079-.043.048 0 .084.031.037.031.043.144l.008.18.006.159q.003.076.003.16v.43q0 .116-.003.228l-.006.229-.008.243q-.003.067-.015.104-.008.037-.025.057-.017.02-.04.022-.02.006-.047.006-.051 0-.085-.034-.034-.037-.04-.152zM17.997 52.44l-.081.005h-.178q-.048 0-.107-.006v.573q0 .09-.046.113-.042.02-.107.02-.034 0-.054-.006-.02-.002-.033-.014-.012-.014-.02-.04-.006-.025-.009-.07-.005-.05-.008-.147l-.006-.254q0-.155-.003-.375v-.522q0-.116.029-.223.028-.11.101-.192.074-.085.198-.135.127-.051.322-.051.138 0 .268.03.132.032.234.108.102.076.164.206.062.13.062.325 0 .26-.113.403-.11.141-.305.2l.378.52q.051.068.051.138 0 .057-.04.088-.036.034-.093.034-.062 0-.107-.034-.045-.037-.085-.093zm.444-.658q0-.195-.119-.288-.116-.096-.37-.096-.093 0-.155.017-.062.014-.099.056-.036.043-.053.119-.014.073-.014.189v.192q0 .11.002.2.065.003.144.003h.153q.079 0 .166-.008.09-.012.167-.051.076-.043.127-.119.05-.079.05-.214zM19.652 53.182q-.322 0-.472-.175-.059-.068-.101-.173-.04-.107-.065-.276-.023-.17-.034-.418-.008-.251-.008-.61 0-.115.005-.189.006-.076.023-.118.017-.045.042-.062.028-.017.07-.017.082 0 .116.073.034.074.034.254 0 .062-.003.11v.1l-.002.106v.144q0 .283.017.469.02.186.064.299.046.11.122.155.079.045.195.045.12 0 .2-.048.082-.05.13-.166.048-.119.067-.313.023-.195.023-.486 0-.127-.003-.217v-.164q0-.104.006-.175.008-.07.022-.11.017-.042.046-.06.028-.016.07-.016.042 0 .07.017.029.017.046.06.017.041.022.118.006.073.006.192 0 .496-.031.818-.031.319-.11.505-.08.184-.217.257-.136.07-.35.07z" style="-inkscape-font-specification:'Sniglet, Normal';font-variant-ligatures:normal;font-variant-caps:normal;font-variant-numeric:normal;font-feature-settings:normal;text-align:start"/></g><g style="line-height:1.25"><path d="M4.077 79.736q.079 0 .18.014.105.011.195.045.09.031.153.085.062.05.062.127 0 .045-.026.076-.025.031-.082.031-.042 0-.087-.017-.042-.017-.099-.034-.053-.02-.127-.036-.07-.017-.166-.017-.187 0-.277.067-.087.065-.087.181 0 .08.04.133.039.053.103.093.068.036.15.062.085.025.172.048.099.025.195.062.099.037.175.096.076.06.121.15.048.09.048.228 0 .144-.053.26-.054.113-.147.194-.093.08-.223.125-.13.042-.282.042-.085 0-.198-.017-.113-.014-.214-.05-.102-.04-.172-.102-.071-.065-.071-.158 0-.057.028-.09.031-.035.09-.035.048 0 .08.02.03.017.053.04.085.073.192.098.107.026.22.026.065 0 .136-.009.073-.01.132-.042.06-.03.1-.087.039-.06.039-.158 0-.09-.037-.147-.034-.06-.093-.099-.06-.04-.141-.065-.08-.025-.173-.05-.104-.029-.206-.063-.101-.034-.18-.09-.08-.06-.13-.147-.048-.09-.048-.229 0-.138.05-.242.052-.105.14-.175.087-.07.205-.107.122-.037.26-.037zm1.236 1.815q0 .067-.014.104-.011.037-.031.056-.017.02-.042.023-.023.006-.046.006-.076 0-.101-.034-.023-.034-.031-.153-.006-.062-.009-.18l-.005-.282q0-.164-.003-.362v-.417q0-.105.025-.212.026-.107.096-.195.074-.087.2-.14.13-.055.336-.055.144 0 .274.031.13.032.229.108t.158.203q.06.127.06.316 0 .198-.066.327-.065.13-.183.206-.119.077-.282.108-.164.03-.359.03h-.096q-.048 0-.107-.005zm.813-1.189q0-.189-.107-.285-.105-.096-.35-.096-.093 0-.161.017-.065.014-.107.054-.043.037-.065.102-.02.064-.02.163v.22q0 .122.003.23.065.002.144.002h.152q.085 0 .175-.01.093-.013.167-.052.073-.043.12-.122.049-.08.049-.223zm.791.58v.16q0 .068-.003.13l-.002.124-.006.138q.195-.022.305-.037l.172-.022q.065-.009.099-.01.036-.004.084-.004.125 0 .125.121 0 .048-.051.082-.048.034-.124.06-.074.022-.167.04-.09.013-.178.02-.084.007-.155.01l-.096.003q-.102 0-.158-.014-.056-.012-.085-.074-.028-.065-.036-.195-.006-.13-.006-.366v-.407q0-.178.003-.319.003-.14.003-.25.002-.11.008-.2.006-.117.04-.15.034-.038.084-.038.029 0 .048.006.023.003.04.023t.025.056q.011.037.014.104.012.25.014.491.003.243.003.517zm1.04.611q-.007-.1-.01-.21l-.002-.238q-.003-.127-.003-.274v-.333q0-.2.003-.342.003-.144.017-.234.014-.09.042-.132.031-.043.082-.043.025 0 .048.006.022.005.04.025.016.017.028.054.014.034.017.09l.008.18.006.16q.002.075.002.16v.43q0 .114-.002.227l-.006.23-.008.242q-.003.067-.015.104-.01.037-.028.056-.017.02-.04.023-.022.006-.05.006-.05 0-.088-.034-.036-.037-.042-.153zm1.716-1.54q-.079.005-.17.008l-.194.006.006.143.005.133q.003.068.003.141.003.074.003.164v.245q0 .116-.003.235l-.006.234q-.002.12-.008.246-.003.067-.014.104-.009.037-.026.056-.017.02-.04.023-.022.006-.05.006-.05 0-.087-.034-.034-.037-.04-.153-.006-.1-.008-.214 0-.113-.003-.243t-.003-.28v-.605q.003-.117.008-.2h-.115q-.119 0-.203-.004-.082-.003-.136-.014-.054-.014-.079-.043-.022-.028-.022-.079 0-.025.005-.045.006-.022.026-.04.02-.02.053-.03.037-.012.093-.017l.096-.006.085-.006q.042-.002.087-.002h.105q.166 0 .313.002.15.003.316.012.068.005.105.017.036.008.056.025.02.017.023.04.005.022.005.05 0 .051-.036.085-.034.034-.15.04z" style="-inkscape-font-specification:'Sniglet, Normal';font-variant-ligatures:normal;font-variant-caps:normal;font-variant-numeric:normal;font-feature-settings:normal;text-align:start" aria-label="SPLIT" font-weight="400" font-size="2.822" letter-spacing="0" word-spacing="0" font-family="Sniglet" fill="#c8c8c8"/></g><path d="M11.793 66.423H10.47M11.793 52.135H10.47" fill="#c8c8c8" stroke="#c8c8c8" stroke-width=".132"/></svg>