<?xml version="1.0" encoding="UTF-8" standalone="no"?>
<svg
   xmlns:dc="http://purl.org/dc/elements/1.1/"
   xmlns:cc="http://creativecommons.org/ns#"
   xmlns:rdf="http://www.w3.org/1999/02/22-rdf-syntax-ns#"
   xmlns:svg="http://www.w3.org/2000/svg"
   xmlns="http://www.w3.org/2000/svg"
   xmlns:xlink="http://www.w3.org/1999/xlink"
   xmlns:sodipodi="http://sodipodi.sourceforge.net/DTD/sodipodi-0.dtd"
   xmlns:inkscape="http://www.inkscape.org/namespaces/inkscape"
   width="30.48mm"
   height="128.5mm"
   viewBox="0 0 30.48064 128.50044"
   version="1.1"
   id="svg82"
   sodipodi:docname="Part_dark.svg"
   inkscape:version="0.92.2 (5c3e80d, 2017-08-06)">
  <metadata
     id="metadata86">
    <rdf:RDF>
      <cc:Work
         rdf:about="">
        <dc:format>image/svg+xml</dc:format>
        <dc:type
           rdf:resource="http://purl.org/dc/dcmitype/StillImage" />
        <dc:title></dc:title>
      </cc:Work>
    </rdf:RDF>
  </metadata>
  <sodipodi:namedview
     pagecolor="#ffffff"
     bordercolor="#666666"
     borderopacity="1"
     objecttolerance="10"
     gridtolerance="10"
     guidetolerance="10"
     inkscape:pageopacity="0"
     inkscape:pageshadow="2"
     inkscape:window-width="1920"
     inkscape:window-height="1017"
     id="namedview84"
     showgrid="false"
     inkscape:document-units="mm"
     units="mm"
     inkscape:zoom="1.2421053"
     inkscape:cx="-16.53932"
     inkscape:cy="233.98455"
     inkscape:window-x="-8"
     inkscape:window-y="-8"
     inkscape:window-maximized="1"
     inkscape:current-layer="svg82" />
  <defs
     id="defs20">
    <linearGradient
       xlink:href="#a"
       id="d"
       x1="26.759001"
       y1="162"
       x2="30.999001"
       y2="162"
       gradientUnits="userSpaceOnUse"
       gradientTransform="matrix(1,0,0,0.56406,0,70.452)" />
    <linearGradient
       id="a">
      <stop
         offset="0"
         stop-color="#fff"
         id="stop3" />
      <stop
         offset="1"
         stop-color="#fff"
         stop-opacity="0"
         id="stop5" />
    </linearGradient>
    <linearGradient
       xlink:href="#b"
       id="e"
       x1="26.759001"
       y1="162"
       x2="30.999001"
       y2="162"
       gradientUnits="userSpaceOnUse"
       gradientTransform="matrix(0.99995,0,0,0.53173,135.453,-112.052)" />
    <linearGradient
       id="b">
      <stop
         offset="0"
         stop-color="#fff"
         stop-opacity=".992"
         id="stop9" />
      <stop
         offset="1"
         stop-color="#fff"
         stop-opacity="0"
         id="stop11" />
    </linearGradient>
    <linearGradient
       xlink:href="#c"
       id="f"
       x1="90.010002"
       y1="192.064"
       x2="90.010002"
       y2="200.961"
       gradientUnits="userSpaceOnUse"
       gradientTransform="matrix(1.9971584,0,0,1.030208,-152.93696,-166.67394)" />
    <linearGradient
       id="c">
      <stop
         offset="0"
         id="stop15" />
      <stop
         offset="1"
         stop-color="#fff"
         id="stop17" />
    </linearGradient>
  </defs>
  <path
     d="M 0,-0.00112942 H 30.48064 V 128.50157 H 0 Z m 0,0"
     id="path22"
     inkscape:connector-curvature="0"
     style="fill:#191919;stroke-width:1" />
  <g
     style="line-height:1.25;stroke-width:0.78125"
     id="g26"
     transform="matrix(1.28,0,0,1.28,0,-0.09601691)">
    <path
       d="m 7.796,8.361 q 0,0.102 -0.021,0.157 Q 7.758,8.573 7.728,8.603 7.703,8.633 7.665,8.637 7.631,8.645 7.597,8.645 7.483,8.645 7.445,8.595 7.411,8.543 7.398,8.365 7.39,8.273 7.386,8.095 7.381,7.917 7.377,7.671 7.377,7.426 7.373,7.13 V 6.503 q 0,-0.157 0.038,-0.318 0.038,-0.16 0.144,-0.292 0.11,-0.13 0.3,-0.211 0.195,-0.08 0.504,-0.08 0.216,0 0.41,0.046 0.196,0.046 0.344,0.16 0.148,0.115 0.237,0.305 0.089,0.191 0.089,0.475 0,0.296 -0.098,0.49 Q 9.244,7.273 9.066,7.388 8.888,7.502 8.643,7.548 8.397,7.595 8.105,7.595 H 7.961 q -0.072,0 -0.16,-0.008 z M 9.016,6.579 Q 9.016,6.296 8.855,6.152 8.698,6.008 8.33,6.008 8.19,6.008 8.088,6.033 7.991,6.054 7.928,6.113 7.864,6.169 7.83,6.266 7.8,6.363 7.8,6.511 v 0.33 q 0,0.183 0.005,0.344 0.097,0.004 0.216,0.004 h 0.228 q 0.127,0 0.263,-0.017 Q 8.652,7.155 8.762,7.096 8.872,7.032 8.943,6.914 9.015,6.791 9.015,6.579 Z m 2.413,1.833 Q 11.386,8.311 11.336,8.179 11.289,8.044 11.234,7.896 L 10.967,7.904 H 10.354 Q 10.205,7.904 10.082,7.9 10.032,8.048 9.985,8.18 9.939,8.31 9.896,8.412 9.812,8.628 9.651,8.628 9.591,8.628 9.536,8.59 9.486,8.552 9.486,8.48 9.486,8.408 9.511,8.294 9.536,8.175 9.574,8.044 9.617,7.908 9.664,7.769 9.71,7.625 9.752,7.502 9.795,7.367 9.871,7.159 q 0.08,-0.212 0.17,-0.44 0.088,-0.229 0.177,-0.449 0.089,-0.224 0.16,-0.39 0.018,-0.042 0.043,-0.092 0.026,-0.056 0.06,-0.102 0.038,-0.047 0.08,-0.08 0.046,-0.034 0.101,-0.034 0.056,0 0.102,0.038 0.047,0.034 0.08,0.084 0.039,0.051 0.064,0.106 0.03,0.055 0.047,0.098 0.067,0.169 0.152,0.39 0.089,0.22 0.174,0.444 0.088,0.224 0.165,0.427 0.076,0.203 0.122,0.343 l 0.085,0.263 q 0.05,0.14 0.093,0.275 0.043,0.135 0.068,0.254 0.03,0.114 0.03,0.186 0,0.072 -0.055,0.11 -0.051,0.038 -0.11,0.038 -0.077,0 -0.14,-0.05 -0.064,-0.056 -0.11,-0.166 z m -0.75,-0.931 q 0.102,0 0.204,0.004 0.101,0 0.203,0.004 L 10.984,7.193 10.887,6.909 Q 10.845,6.774 10.807,6.659 L 10.747,6.452 Q 10.73,6.397 10.709,6.363 10.688,6.329 10.654,6.329 q -0.034,0 -0.055,0.038 -0.021,0.034 -0.038,0.09 -0.05,0.173 -0.144,0.452 -0.089,0.276 -0.19,0.58 0.114,-0.004 0.228,-0.004 0.114,-0.004 0.224,-0.004 z m 2.443,0.106 -0.123,0.008 h -0.267 q -0.072,0 -0.16,-0.008 v 0.86 q 0,0.135 -0.068,0.168 -0.064,0.03 -0.161,0.03 -0.051,0 -0.08,-0.008 Q 12.233,8.632 12.211,8.615 12.195,8.595 12.181,8.556 12.173,8.518 12.169,8.45 12.161,8.374 12.156,8.23 L 12.148,7.85 q 0,-0.234 -0.004,-0.564 V 6.503 q 0,-0.174 0.042,-0.334 0.042,-0.166 0.152,-0.288 0.11,-0.127 0.297,-0.204 0.19,-0.076 0.482,-0.076 0.208,0 0.403,0.047 0.199,0.046 0.351,0.16 0.152,0.115 0.245,0.31 0.094,0.194 0.094,0.487 0,0.389 -0.17,0.605 -0.165,0.212 -0.457,0.3 l 0.567,0.78 q 0.077,0.101 0.077,0.207 0,0.085 -0.06,0.131 -0.055,0.05 -0.14,0.05 -0.093,0 -0.16,-0.05 Q 13.799,8.573 13.74,8.488 Z M 13.786,6.6 q 0,-0.292 -0.178,-0.431 -0.173,-0.144 -0.554,-0.144 -0.14,0 -0.233,0.025 -0.093,0.021 -0.148,0.085 -0.055,0.063 -0.08,0.177 -0.022,0.11 -0.022,0.284 v 0.288 q 0,0.165 0.004,0.3 0.098,0.005 0.216,0.005 h 0.229 q 0.119,0 0.25,-0.013 Q 13.405,7.159 13.52,7.1 13.634,7.036 13.71,6.922 13.786,6.804 13.786,6.6 Z M 16.188,6.054 Q 16.07,6.063 15.934,6.067 l -0.292,0.008 0.009,0.216 0.008,0.2 q 0.004,0.1 0.004,0.21 0.005,0.111 0.005,0.246 v 0.369 q 0,0.173 -0.005,0.351 l -0.008,0.352 q -0.004,0.177 -0.013,0.368 -0.004,0.101 -0.02,0.156 -0.014,0.056 -0.039,0.085 -0.025,0.03 -0.06,0.034 Q 15.49,8.67 15.448,8.67 15.371,8.67 15.316,8.62 15.266,8.565 15.257,8.391 15.248,8.239 15.244,8.069 15.244,7.9 15.24,7.705 15.236,7.511 15.236,7.286 v -0.91 q 0.004,-0.174 0.013,-0.3 H 15.075 Q 14.897,6.076 14.77,6.071 14.647,6.067 14.567,6.05 14.487,6.029 14.448,5.987 14.415,5.944 14.415,5.868 q 0,-0.038 0.008,-0.068 0.009,-0.034 0.038,-0.059 0.03,-0.03 0.08,-0.047 0.056,-0.017 0.14,-0.025 l 0.144,-0.008 0.127,-0.009 q 0.064,-0.004 0.132,-0.004 h 0.156 q 0.25,0 0.47,0.004 0.224,0.004 0.474,0.017 0.102,0.008 0.157,0.025 0.055,0.013 0.085,0.038 0.03,0.026 0.033,0.06 0.009,0.034 0.009,0.076 0,0.076 -0.055,0.127 -0.05,0.05 -0.225,0.06 z"
       style="font-weight:400;font-size:4.2329998px;font-family:Sniglet;-inkscape-font-specification:'Sniglet, Normal';font-variant-ligatures:normal;font-variant-caps:normal;font-variant-numeric:normal;font-feature-settings:normal;text-align:start;letter-spacing:0;word-spacing:0;fill:#c8c8c8;stroke-width:0.78125"
       aria-label="PART"
       font-weight="400"
       font-size="4.233"
       letter-spacing="0"
       word-spacing="0"
       id="path24"
       inkscape:connector-curvature="0" />
  </g>
  <g
     style="line-height:1.25;stroke-width:0.78125"
     id="g30"
     transform="matrix(1.28,0,0,1.28,0,-0.09601691)">
    <path
       style="font-weight:400;font-size:3.52800012px;font-family:Arial;-inkscape-font-specification:'Arial, Normal';font-variant-ligatures:normal;font-variant-caps:normal;font-variant-numeric:normal;font-feature-settings:normal;text-align:start;letter-spacing:0;word-spacing:0;fill:#c8c8c8;stroke-width:0.78125"
       d="m 17.55,13.576 0.203,-0.002 v 2.02 c 0,0.15 -0.022,0.263 -0.064,0.338 a 0.35,0.35 0 0 1 -0.226,0.15 0.766,0.766 0 0 1 -0.348,0 0.645,0.645 0 0 1 -0.354,-0.19 0.463,0.463 0 0 1 -0.13,-0.324 c 0,-0.13 0.052,-0.228 0.156,-0.294 0.104,-0.067 0.24,-0.082 0.408,-0.047 0.106,0.023 0.225,0.076 0.356,0.16 z"
       font-size="3.528"
       aria-label="♫"
       font-weight="400"
       letter-spacing="0"
       word-spacing="0"
       id="path28"
       inkscape:connector-curvature="0" />
  </g>
  <g
     style="line-height:1.25;stroke-width:0.78125"
     id="g34"
     transform="matrix(1.28,0,0,1.28,0,-0.09601691)">
    <path
       d="m 6.76,15.725 q -0.036,0.068 -0.067,0.099 -0.028,0.03 -0.074,0.03 -0.045,0 -0.079,-0.03 Q 6.506,15.793 6.467,15.728 6.417,15.643 6.351,15.494 6.289,15.344 6.224,15.169 6.159,14.991 6.097,14.802 6.035,14.612 5.984,14.447 5.936,14.28 5.905,14.156 5.877,14.029 5.877,13.976 q 0,-0.057 0.023,-0.085 0.022,-0.03 0.087,-0.03 0.037,0 0.062,0.02 0.028,0.018 0.07,0.103 0.035,0.065 0.074,0.17 0.04,0.104 0.082,0.23 0.045,0.128 0.09,0.269 l 0.09,0.276 q 0.046,0.139 0.085,0.266 0.04,0.127 0.074,0.228 L 6.69,15.192 6.777,14.926 6.867,14.65 q 0.046,-0.141 0.091,-0.265 0.045,-0.125 0.085,-0.23 0.04,-0.103 0.07,-0.171 0.04,-0.082 0.068,-0.102 0.031,-0.02 0.062,-0.02 0.065,0 0.088,0.034 0.025,0.03 0.025,0.093 0,0.057 -0.017,0.136 -0.017,0.079 -0.06,0.212 -0.039,0.13 -0.106,0.324 l -0.167,0.477 q -0.025,0.076 -0.06,0.158 -0.03,0.082 -0.064,0.16 L 6.82,15.604 q -0.031,0.07 -0.06,0.12 z"
       style="font-weight:400;font-size:2.82200003px;font-family:Sniglet;-inkscape-font-specification:'Sniglet, Normal';font-variant-ligatures:normal;font-variant-caps:normal;font-variant-numeric:normal;font-feature-settings:normal;text-align:start;letter-spacing:0;word-spacing:0;fill:#c8c8c8;stroke-width:0.78125"
       font-size="2.822"
       aria-label="V"
       font-weight="400"
       letter-spacing="0"
       word-spacing="0"
       id="path32"
       inkscape:connector-curvature="0" />
  </g>
  <g
     style="line-height:1.25;stroke-width:0.78125"
     id="g38"
     transform="matrix(1.28,0,0,1.28,0,-0.09601691)">
    <path
       d="m 9.36,21.333 q 0.079,0 0.18,0.014 0.105,0.011 0.195,0.045 0.09,0.031 0.153,0.085 0.062,0.05 0.062,0.127 0,0.045 -0.026,0.076 -0.025,0.031 -0.082,0.031 -0.042,0 -0.087,-0.017 Q 9.713,21.677 9.656,21.66 9.603,21.64 9.529,21.624 9.459,21.607 9.363,21.607 q -0.187,0 -0.277,0.067 -0.087,0.065 -0.087,0.181 0,0.08 0.04,0.133 0.039,0.053 0.103,0.093 0.068,0.036 0.15,0.062 0.085,0.025 0.172,0.048 0.099,0.025 0.195,0.062 0.099,0.037 0.175,0.096 0.076,0.06 0.121,0.15 0.048,0.09 0.048,0.228 0,0.144 -0.053,0.26 Q 9.896,23.1 9.803,23.181 9.71,23.261 9.58,23.306 9.45,23.348 9.298,23.348 9.213,23.348 9.1,23.331 8.987,23.317 8.886,23.281 8.784,23.241 8.714,23.179 8.643,23.114 8.643,23.021 q 0,-0.057 0.028,-0.09 0.031,-0.035 0.09,-0.035 0.048,0 0.08,0.02 0.03,0.017 0.053,0.04 0.085,0.073 0.192,0.098 0.107,0.026 0.22,0.026 0.065,0 0.136,-0.009 0.073,-0.01 0.132,-0.042 0.06,-0.03 0.1,-0.087 0.039,-0.06 0.039,-0.158 0,-0.09 -0.037,-0.147 Q 9.642,22.577 9.583,22.538 9.523,22.498 9.442,22.473 9.362,22.448 9.269,22.423 9.165,22.394 9.063,22.36 8.962,22.326 8.883,22.27 8.803,22.21 8.753,22.123 8.705,22.033 8.705,21.894 q 0,-0.138 0.05,-0.242 0.052,-0.105 0.14,-0.175 0.087,-0.07 0.205,-0.107 0.122,-0.037 0.26,-0.037 z m 1.236,1.815 q 0,0.067 -0.014,0.104 -0.011,0.037 -0.031,0.056 -0.017,0.02 -0.042,0.023 -0.023,0.006 -0.046,0.006 -0.076,0 -0.101,-0.034 -0.023,-0.034 -0.031,-0.153 -0.006,-0.062 -0.009,-0.18 l -0.005,-0.282 q 0,-0.164 -0.003,-0.362 v -0.417 q 0,-0.105 0.025,-0.212 0.026,-0.107 0.096,-0.195 0.074,-0.087 0.2,-0.14 0.13,-0.055 0.336,-0.055 0.144,0 0.274,0.031 0.13,0.032 0.229,0.108 0.099,0.076 0.158,0.203 0.06,0.127 0.06,0.316 0,0.198 -0.066,0.327 -0.065,0.13 -0.183,0.206 -0.119,0.077 -0.282,0.108 -0.164,0.03 -0.359,0.03 h -0.096 q -0.048,0 -0.107,-0.005 z m 0.813,-1.189 q 0,-0.189 -0.107,-0.285 -0.105,-0.096 -0.35,-0.096 -0.093,0 -0.161,0.017 -0.065,0.014 -0.107,0.054 -0.043,0.037 -0.065,0.102 -0.02,0.064 -0.02,0.163 v 0.22 q 0,0.122 0.003,0.23 0.065,0.002 0.144,0.002 h 0.152 q 0.085,0 0.175,-0.01 0.093,-0.013 0.167,-0.052 0.073,-0.043 0.12,-0.122 0.049,-0.08 0.049,-0.223 z m 0.791,0.58 v 0.16 q 0,0.068 -0.003,0.13 l -0.002,0.124 -0.006,0.138 q 0.195,-0.022 0.305,-0.037 l 0.172,-0.022 q 0.065,-0.009 0.099,-0.01 0.036,-0.004 0.084,-0.004 0.125,0 0.125,0.121 0,0.048 -0.051,0.082 -0.048,0.034 -0.124,0.06 -0.074,0.022 -0.167,0.04 -0.09,0.013 -0.178,0.02 -0.084,0.007 -0.155,0.01 l -0.096,0.003 q -0.102,0 -0.158,-0.014 -0.056,-0.012 -0.085,-0.074 -0.028,-0.065 -0.036,-0.195 -0.006,-0.13 -0.006,-0.366 v -0.407 q 0,-0.178 0.003,-0.319 0.003,-0.14 0.003,-0.25 0.002,-0.11 0.008,-0.2 0.006,-0.117 0.04,-0.15 0.034,-0.038 0.084,-0.038 0.029,0 0.048,0.006 0.023,0.003 0.04,0.023 0.017,0.02 0.025,0.056 0.011,0.037 0.014,0.104 0.012,0.25 0.014,0.491 0.003,0.243 0.003,0.517 z m 1.04,0.611 q -0.007,-0.1 -0.01,-0.21 l -0.002,-0.238 q -0.003,-0.127 -0.003,-0.274 v -0.333 q 0,-0.2 0.003,-0.342 0.003,-0.144 0.017,-0.234 0.014,-0.09 0.042,-0.132 0.031,-0.043 0.082,-0.043 0.025,0 0.048,0.006 0.022,0.005 0.04,0.025 0.016,0.017 0.028,0.054 0.014,0.034 0.017,0.09 l 0.008,0.18 0.006,0.16 q 0.002,0.075 0.002,0.16 v 0.43 q 0,0.114 -0.002,0.227 l -0.006,0.23 -0.008,0.242 q -0.003,0.067 -0.015,0.104 -0.01,0.037 -0.028,0.056 -0.017,0.02 -0.04,0.023 -0.022,0.006 -0.05,0.006 -0.05,0 -0.088,-0.034 -0.036,-0.037 -0.042,-0.153 z m 1.716,-1.54 q -0.079,0.005 -0.17,0.008 l -0.194,0.006 0.006,0.143 0.005,0.133 q 0.003,0.068 0.003,0.141 0.003,0.074 0.003,0.164 v 0.245 q 0,0.116 -0.003,0.235 L 14.6,22.919 q -0.002,0.12 -0.008,0.246 -0.003,0.067 -0.014,0.104 -0.009,0.037 -0.026,0.056 -0.017,0.02 -0.04,0.023 -0.022,0.006 -0.05,0.006 -0.05,0 -0.087,-0.034 -0.034,-0.037 -0.04,-0.153 -0.006,-0.1 -0.008,-0.214 0,-0.113 -0.003,-0.243 -0.003,-0.13 -0.003,-0.28 v -0.605 q 0.003,-0.117 0.008,-0.2 h -0.115 q -0.119,0 -0.203,-0.004 -0.082,-0.003 -0.136,-0.014 -0.054,-0.014 -0.079,-0.043 -0.022,-0.028 -0.022,-0.079 0,-0.025 0.005,-0.045 0.006,-0.022 0.026,-0.04 0.02,-0.02 0.053,-0.03 0.037,-0.012 0.093,-0.017 l 0.096,-0.006 0.085,-0.006 q 0.042,-0.002 0.087,-0.002 h 0.105 q 0.166,0 0.313,0.002 0.15,0.003 0.316,0.012 0.068,0.005 0.105,0.017 0.036,0.008 0.056,0.025 0.02,0.017 0.023,0.04 0.005,0.022 0.005,0.05 0,0.051 -0.036,0.085 -0.034,0.034 -0.15,0.04 z"
       style="font-weight:400;font-size:2.82200003px;font-family:Sniglet;-inkscape-font-specification:'Sniglet, Normal';font-variant-ligatures:normal;font-variant-caps:normal;font-variant-numeric:normal;font-feature-settings:normal;text-align:start;letter-spacing:0;word-spacing:0;fill:#c8c8c8;stroke-width:0.78125"
       aria-label="SPLIT"
       font-weight="400"
       font-size="2.822"
       letter-spacing="0"
       word-spacing="0"
       id="path36"
       inkscape:connector-curvature="0" />
  </g>
  <g
     transform="matrix(1.2800256,0,0,1.2800256,-33.912321,-206.46518)"
     id="g44"
     style="stroke-width:0.78125">
    <rect
       rx="0.1609375"
       width="4.2399998"
       height="0.43900001"
       x="26.759001"
       y="161.61099"
       ry="0.1609375"
       id="rect40"
       style="fill:url(#d);stroke-width:0.78125" />
    <rect
       rx="0.1515625"
       width="4.2399998"
       height="0.41299999"
       x="162.21001"
       y="-26.118999"
       ry="0.1515625"
       transform="matrix(0.00655,0.99998,-0.99973,0.02317,0,0)"
       id="rect42"
       style="fill:url(#e);stroke-width:0.78125" />
  </g>
  <rect
     ry="1.4179999"
     rx="1.4179999"
     y="31.193583"
     x="3.7107198"
     height="9.1660795"
     width="23.11808"
     id="rect46"
     style="fill:url(#f);stroke-width:1" />
  <g
     style="line-height:1.25;stroke-width:0.78125"
     id="g50"
     transform="matrix(1.28,0,0,1.28,0,-0.09601691)">
    <path
       style="font-weight:400;font-size:3.52800012px;font-family:Arial;-inkscape-font-specification:'Arial, Normal';font-variant-ligatures:normal;font-variant-caps:normal;font-variant-numeric:normal;font-feature-settings:normal;text-align:start;letter-spacing:0;word-spacing:0;fill:#969696;stroke-width:0.78125"
       d="m 12.383,96.87 -1.63,0.115 v -2.06 q 0,-0.23 0.064,-0.333 0.064,-0.104 0.22,-0.147 0.153,-0.043 0.348,-0.002 0.223,0.047 0.356,0.19 0.134,0.146 0.134,0.33 0,0.186 -0.158,0.286 -0.158,0.103 -0.408,0.05 -0.082,-0.018 -0.143,-0.044 -0.064,-0.027 -0.205,-0.11 v 1.345 l 1.22,-0.085 v -1.554 q 0,-0.225 0.064,-0.337 0.066,-0.11 0.226,-0.151 0.16,-0.04 0.348,0 0.223,0.047 0.354,0.19 0.13,0.14 0.13,0.325 0,0.195 -0.156,0.294 -0.156,0.1 -0.408,0.047 -0.16,-0.034 -0.356,-0.16 z"
       font-size="3.528"
       aria-label="♫"
       font-weight="400"
       letter-spacing="0"
       word-spacing="0"
       id="path48"
       inkscape:connector-curvature="0" />
  </g>
  <rect
     rx="2.3399999"
     ry="2.3399999"
     y="-28.448"
     x="-117.45022"
     height="12.86912"
     width="55.080963"
     transform="matrix(0,-1,-1,0,0,0)"
     id="rect52"
     style="fill:#3e3e3e;stroke:#c8c8c8;stroke-width:0.26499999;paint-order:stroke markers fill" />
  <g
     style="line-height:1.25;stroke-width:0.78125"
     id="g56"
     transform="matrix(1.28,0,0,1.28,0,-0.09601691)">
    <path
       d="m 15.064,80.941 v 0.161 q 0,0.068 -0.003,0.13 0,0.062 -0.003,0.124 l -0.005,0.138 0.305,-0.036 0.172,-0.023 0.098,-0.01 q 0.037,-0.004 0.085,-0.004 0.124,0 0.124,0.121 0,0.048 -0.05,0.082 -0.048,0.034 -0.125,0.06 -0.073,0.022 -0.166,0.04 -0.09,0.013 -0.178,0.02 -0.085,0.007 -0.155,0.01 l -0.096,0.003 q -0.102,0 -0.158,-0.014 -0.057,-0.012 -0.085,-0.074 -0.028,-0.065 -0.037,-0.194 -0.005,-0.13 -0.005,-0.367 v -0.407 q 0,-0.178 0.003,-0.319 l 0.002,-0.25 q 0.003,-0.11 0.009,-0.2 0.006,-0.117 0.04,-0.15 0.033,-0.037 0.084,-0.037 0.028,0 0.048,0.005 0.023,0.003 0.04,0.023 0.016,0.02 0.025,0.056 0.01,0.037 0.014,0.105 0.01,0.248 0.014,0.49 0.003,0.243 0.003,0.517 z m 1.61,0.816 q -0.17,0 -0.32,-0.068 -0.146,-0.068 -0.256,-0.195 -0.11,-0.13 -0.175,-0.316 -0.062,-0.186 -0.062,-0.423 0,-0.223 0.053,-0.41 0.057,-0.186 0.164,-0.32 0.11,-0.137 0.27,-0.21 0.162,-0.076 0.374,-0.076 0.172,0 0.327,0.062 0.155,0.062 0.27,0.186 0.119,0.124 0.187,0.31 0.068,0.187 0.068,0.435 0,0.206 -0.056,0.393 -0.054,0.186 -0.167,0.327 -0.11,0.138 -0.28,0.223 -0.17,0.082 -0.397,0.082 z m 0.005,-0.265 q 0.156,0 0.27,-0.063 0.117,-0.064 0.193,-0.169 0.076,-0.104 0.113,-0.24 0.037,-0.138 0.037,-0.282 0,-0.175 -0.048,-0.31 -0.045,-0.139 -0.124,-0.232 -0.08,-0.093 -0.184,-0.14 -0.104,-0.05 -0.223,-0.05 -0.141,0 -0.248,0.057 -0.105,0.06 -0.178,0.161 -0.07,0.102 -0.107,0.24 -0.037,0.136 -0.037,0.29 0,0.167 0.042,0.306 0.043,0.135 0.113,0.231 0.074,0.096 0.172,0.15 0.1,0.05 0.21,0.05 z m 1.897,-1.203 q 0.017,-0.04 0.05,-0.065 0.037,-0.025 0.077,-0.025 0.036,0 0.07,0.025 0.034,0.023 0.054,0.062 0.107,0.22 0.212,0.477 0.104,0.254 0.189,0.483 0.048,-0.35 0.104,-0.706 0.057,-0.355 0.127,-0.68 0.009,-0.036 0.026,-0.059 0.016,-0.025 0.036,-0.037 0.02,-0.014 0.04,-0.02 0.022,-0.005 0.036,-0.005 0.048,0 0.08,0.028 0.03,0.026 0.03,0.07 0,0.051 -0.016,0.181 -0.017,0.127 -0.046,0.3 -0.028,0.17 -0.064,0.36 -0.034,0.193 -0.068,0.37 -0.034,0.178 -0.065,0.325 -0.031,0.147 -0.05,0.223 -0.018,0.065 -0.052,0.1 -0.034,0.03 -0.1,0.03 -0.066,0 -0.114,-0.059 -0.045,-0.063 -0.102,-0.192 -0.053,-0.13 -0.13,-0.33 -0.076,-0.204 -0.197,-0.486 -0.124,0.282 -0.203,0.485 -0.077,0.204 -0.133,0.333 -0.054,0.13 -0.102,0.192 -0.048,0.06 -0.113,0.06 -0.112,0 -0.15,-0.13 -0.022,-0.076 -0.053,-0.22 l -0.065,-0.325 q -0.03,-0.178 -0.065,-0.367 l -0.06,-0.36 -0.041,-0.297 q -0.014,-0.13 -0.014,-0.18 0,-0.049 0.03,-0.08 0.032,-0.03 0.088,-0.03 0.04,0 0.076,0.024 0.037,0.023 0.054,0.096 0.068,0.325 0.119,0.68 0.053,0.356 0.112,0.706 0.088,-0.206 0.175,-0.437 0.088,-0.232 0.218,-0.52 z"
       style="font-weight:400;font-size:2.82200003px;font-family:Sniglet;-inkscape-font-specification:'Sniglet, Normal';font-variant-ligatures:normal;font-variant-caps:normal;font-variant-numeric:normal;font-feature-settings:normal;text-align:start;letter-spacing:0;word-spacing:0;fill:#c8c8c8;stroke-width:0.78125"
       aria-label="LOW"
       font-weight="400"
       font-size="2.822"
       letter-spacing="0"
       word-spacing="0"
       id="path54"
       inkscape:connector-curvature="0" />
  </g>
  <g
     style="line-height:1.25;stroke-width:0.78125"
     id="g60"
     transform="matrix(1.28,0,0,1.28,0,-0.09601691)">
    <path
       d="m 15.556,67.181 -0.012,-0.319 q -0.003,-0.17 -0.003,-0.39 l -0.192,0.006 h -0.44 q -0.104,0 -0.186,-0.003 l -0.006,0.345 q -0.002,0.163 -0.01,0.358 -0.004,0.068 -0.015,0.105 -0.009,0.036 -0.025,0.056 -0.017,0.02 -0.04,0.023 -0.02,0.005 -0.048,0.005 -0.05,0 -0.085,-0.034 -0.033,-0.036 -0.04,-0.152 -0.005,-0.102 -0.008,-0.212 l -0.002,-0.237 q -0.003,-0.127 -0.003,-0.274 v -0.333 q 0,-0.2 0.003,-0.34 0.002,-0.145 0.014,-0.235 0.014,-0.09 0.042,-0.133 0.028,-0.042 0.08,-0.042 0.047,0 0.084,0.03 0.036,0.032 0.042,0.145 l 0.01,0.175 0.004,0.152 q 0.003,0.073 0.003,0.152 v 0.175 q 0.212,-0.008 0.415,-0.008 0.1,0 0.197,0.003 0.102,0.002 0.206,0.008 v -0.082 q 0,-0.2 0.003,-0.34 0.003,-0.145 0.014,-0.235 0.014,-0.09 0.043,-0.133 0.028,-0.042 0.08,-0.042 0.047,0 0.083,0.03 0.037,0.032 0.043,0.145 l 0.008,0.18 0.006,0.158 q 0.003,0.076 0.003,0.161 v 0.43 q 0,0.115 -0.003,0.228 l -0.006,0.228 -0.008,0.243 q -0.003,0.068 -0.014,0.104 -0.009,0.037 -0.026,0.057 -0.017,0.02 -0.04,0.022 -0.02,0.006 -0.047,0.006 -0.05,0 -0.085,-0.034 -0.034,-0.036 -0.04,-0.152 z m 0.647,0 q -0.006,-0.102 -0.009,-0.212 l -0.002,-0.237 q -0.003,-0.127 -0.003,-0.274 v -0.333 q 0,-0.2 0.003,-0.34 0.002,-0.145 0.016,-0.235 0.015,-0.09 0.043,-0.133 0.03,-0.042 0.082,-0.042 0.025,0 0.048,0.005 0.022,0.006 0.04,0.026 0.016,0.017 0.027,0.053 0.014,0.034 0.017,0.09 l 0.01,0.181 0.004,0.158 q 0.003,0.076 0.003,0.161 v 0.43 q 0,0.115 -0.003,0.228 l -0.005,0.228 q -0.003,0.116 -0.009,0.243 -0.002,0.068 -0.014,0.104 -0.01,0.037 -0.028,0.057 -0.017,0.02 -0.04,0.023 -0.022,0.005 -0.05,0.005 -0.05,0 -0.088,-0.034 -0.037,-0.036 -0.042,-0.152 z m 1.507,-1.823 q 0.093,0 0.192,0.017 0.1,0.017 0.18,0.05 0.083,0.032 0.136,0.08 0.054,0.047 0.054,0.11 0,0.064 -0.034,0.098 -0.034,0.034 -0.085,0.034 -0.048,0 -0.09,-0.017 l -0.09,-0.036 q -0.05,-0.02 -0.122,-0.037 -0.07,-0.017 -0.177,-0.017 -0.119,0 -0.223,0.056 -0.102,0.054 -0.18,0.153 -0.08,0.096 -0.125,0.228 -0.045,0.133 -0.045,0.288 0,0.19 0.048,0.328 0.048,0.138 0.124,0.228 0.08,0.09 0.175,0.136 0.1,0.042 0.197,0.042 0.161,0 0.254,-0.045 0.096,-0.048 0.153,-0.12 0.003,-0.06 0.003,-0.143 v -0.177 q 0,-0.037 -0.006,-0.057 -0.006,-0.022 -0.028,-0.034 -0.023,-0.01 -0.068,-0.014 -0.042,-0.003 -0.116,-0.003 -0.09,0 -0.146,-0.022 -0.057,-0.026 -0.057,-0.105 0,-0.056 0.028,-0.09 0.031,-0.037 0.125,-0.042 h 0.053 q 0.04,-0.003 0.082,-0.003 h 0.155 q 0.085,0 0.136,0.017 0.05,0.014 0.09,0.068 0.02,0.028 0.023,0.098 0.005,0.071 0.005,0.164 v 0.728 q 0,0.076 -0.042,0.113 -0.04,0.037 -0.093,0.037 -0.065,0 -0.107,-0.034 -0.04,-0.03 -0.04,-0.102 v -0.11 q -0.073,0.085 -0.175,0.122 -0.099,0.036 -0.25,0.036 -0.156,0 -0.306,-0.062 -0.15,-0.062 -0.265,-0.183 -0.116,-0.124 -0.19,-0.308 -0.07,-0.186 -0.07,-0.432 0,-0.245 0.07,-0.437 0.074,-0.192 0.198,-0.325 0.124,-0.135 0.29,-0.206 0.167,-0.07 0.36,-0.07 z m 2.046,1.823 -0.01,-0.319 q -0.004,-0.17 -0.004,-0.39 l -0.192,0.006 h -0.44 q -0.105,0 -0.187,-0.003 l -0.005,0.345 q -0.003,0.163 -0.012,0.358 -0.002,0.068 -0.014,0.105 -0.008,0.036 -0.025,0.056 -0.017,0.02 -0.04,0.023 -0.02,0.005 -0.048,0.005 -0.05,0 -0.084,-0.034 -0.034,-0.036 -0.04,-0.152 -0.005,-0.102 -0.008,-0.212 0,-0.11 -0.003,-0.237 -0.003,-0.127 -0.003,-0.274 v -0.333 q 0,-0.2 0.003,-0.34 0.003,-0.145 0.014,-0.235 0.014,-0.09 0.042,-0.133 0.03,-0.042 0.08,-0.042 0.047,0 0.084,0.03 0.037,0.032 0.042,0.145 l 0.01,0.175 0.004,0.152 q 0.003,0.073 0.003,0.152 v 0.175 q 0.212,-0.008 0.415,-0.008 0.1,0 0.198,0.003 0.101,0.002 0.206,0.008 v -0.082 q 0,-0.2 0.003,-0.34 0.002,-0.145 0.014,-0.235 0.014,-0.09 0.042,-0.133 0.028,-0.042 0.08,-0.042 0.047,0 0.084,0.03 0.036,0.032 0.042,0.145 l 0.01,0.18 0.004,0.158 q 0.003,0.076 0.003,0.161 v 0.43 q 0,0.115 -0.003,0.228 l -0.005,0.228 q -0.003,0.116 -0.009,0.243 -0.003,0.068 -0.014,0.104 -0.009,0.037 -0.025,0.057 -0.017,0.02 -0.04,0.022 -0.02,0.006 -0.048,0.006 -0.05,0 -0.085,-0.034 -0.034,-0.036 -0.04,-0.152 z"
       style="font-weight:400;font-size:2.82200003px;font-family:Sniglet;-inkscape-font-specification:'Sniglet, Normal';font-variant-ligatures:normal;font-variant-caps:normal;font-variant-numeric:normal;font-feature-settings:normal;text-align:start;letter-spacing:0;word-spacing:0;fill:#c8c8c8;stroke-width:0.78125"
       aria-label="HIGH"
       font-weight="400"
       font-size="2.822"
       letter-spacing="0"
       word-spacing="0"
       id="path58"
       inkscape:connector-curvature="0" />
  </g>
  <g
     style="line-height:1.25;stroke-width:0.78125"
     id="g64"
     transform="matrix(1.28,0,0,1.28,0,-0.09601691)">
    <path
       d="m 5.928,51.158 q 0.093,0 0.186,0.017 0.096,0.014 0.173,0.048 0.076,0.03 0.124,0.079 0.05,0.045 0.05,0.107 0,0.065 -0.033,0.099 -0.034,0.034 -0.085,0.034 -0.048,0 -0.085,-0.014 Q 6.222,51.511 6.174,51.491 6.129,51.471 6.064,51.457 5.999,51.44 5.892,51.44 q -0.108,0 -0.207,0.057 -0.095,0.053 -0.169,0.152 -0.07,0.096 -0.113,0.229 -0.042,0.132 -0.042,0.288 0,0.192 0.048,0.33 0.05,0.138 0.13,0.228 0.08,0.088 0.178,0.133 0.101,0.042 0.203,0.042 0.121,0 0.203,-0.025 0.082,-0.025 0.138,-0.056 0.06,-0.032 0.102,-0.057 0.042,-0.025 0.082,-0.025 0.048,0 0.076,0.028 0.028,0.025 0.028,0.093 0,0.057 -0.045,0.116 -0.042,0.056 -0.127,0.104 -0.082,0.045 -0.198,0.076 -0.115,0.029 -0.26,0.029 -0.157,0 -0.315,-0.062 Q 5.448,53.057 5.324,52.936 5.204,52.812 5.127,52.628 5.05,52.442 5.05,52.197 q 0,-0.246 0.068,-0.438 0.07,-0.192 0.19,-0.324 0.12,-0.136 0.28,-0.206 0.16,-0.071 0.34,-0.071 z m 1.642,1.885 q -0.037,0.068 -0.068,0.1 -0.028,0.03 -0.073,0.03 -0.046,0 -0.08,-0.03 Q 7.316,53.111 7.276,53.046 7.226,52.961 7.16,52.812 7.098,52.662 7.033,52.487 6.969,52.31 6.906,52.12 6.844,51.93 6.794,51.765 6.746,51.598 6.714,51.475 6.686,51.347 6.686,51.294 q 0,-0.057 0.023,-0.085 0.022,-0.028 0.087,-0.028 0.037,0 0.062,0.02 0.03,0.016 0.071,0.1 0.034,0.066 0.073,0.17 0.04,0.105 0.082,0.23 0.045,0.129 0.09,0.27 l 0.09,0.276 q 0.046,0.139 0.086,0.266 l 0.073,0.228 0.076,-0.231 q 0.042,-0.13 0.088,-0.265 l 0.09,-0.277 q 0.045,-0.141 0.09,-0.265 l 0.085,-0.23 q 0.04,-0.103 0.07,-0.171 0.04,-0.082 0.068,-0.102 0.031,-0.02 0.062,-0.02 0.065,0 0.088,0.034 0.025,0.032 0.025,0.094 0,0.056 -0.017,0.135 -0.017,0.08 -0.059,0.212 -0.04,0.13 -0.107,0.324 l -0.167,0.477 q -0.025,0.077 -0.06,0.158 -0.03,0.082 -0.064,0.16 l -0.062,0.148 q -0.03,0.07 -0.06,0.12 z"
       style="font-weight:400;font-size:2.82200003px;font-family:Sniglet;-inkscape-font-specification:'Sniglet, Normal';font-variant-ligatures:normal;font-variant-caps:normal;font-variant-numeric:normal;font-feature-settings:normal;text-align:start;letter-spacing:0;word-spacing:0;fill:#c8c8c8;stroke-width:0.78125"
       aria-label="CV"
       font-weight="400"
       font-size="2.822"
       letter-spacing="0"
       word-spacing="0"
       id="path62"
       inkscape:connector-curvature="0" />
  </g>
  <g
     style="line-height:1.25;stroke-width:0.78125"
     id="g68"
     transform="matrix(1.28,0,0,1.28,0,-0.09601691)">
    <path
       d="m 4.454,65.359 q 0.093,0 0.192,0.016 0.099,0.017 0.18,0.05 0.083,0.032 0.136,0.08 0.054,0.048 0.054,0.11 0,0.065 -0.034,0.099 -0.034,0.034 -0.085,0.034 -0.048,0 -0.09,-0.017 l -0.09,-0.037 q -0.051,-0.02 -0.122,-0.036 -0.07,-0.017 -0.177,-0.017 -0.12,0 -0.223,0.056 -0.102,0.054 -0.18,0.153 -0.08,0.096 -0.125,0.228 -0.045,0.133 -0.045,0.288 0,0.19 0.048,0.327 0.048,0.139 0.124,0.23 0.079,0.09 0.175,0.135 0.099,0.042 0.197,0.042 0.16,0 0.254,-0.045 0.096,-0.048 0.153,-0.122 0.003,-0.06 0.003,-0.14 v -0.18 q 0,-0.035 -0.006,-0.055 Q 4.787,66.535 4.765,66.524 4.742,66.513 4.697,66.51 4.655,66.507 4.581,66.507 q -0.09,0 -0.146,-0.022 -0.057,-0.026 -0.057,-0.105 0,-0.056 0.028,-0.09 0.03,-0.037 0.125,-0.042 h 0.053 q 0.04,-0.003 0.082,-0.003 h 0.155 q 0.085,0 0.136,0.017 0.05,0.014 0.09,0.067 0.02,0.029 0.023,0.1 0.005,0.07 0.005,0.163 v 0.728 q 0,0.076 -0.042,0.113 -0.04,0.037 -0.093,0.037 -0.065,0 -0.107,-0.034 -0.04,-0.031 -0.04,-0.102 v -0.11 q -0.073,0.085 -0.175,0.12 -0.1,0.038 -0.251,0.038 -0.155,0 -0.305,-0.062 -0.15,-0.062 -0.265,-0.183 -0.116,-0.125 -0.19,-0.308 -0.07,-0.186 -0.07,-0.432 0,-0.245 0.07,-0.437 0.074,-0.192 0.198,-0.325 0.124,-0.135 0.29,-0.206 0.167,-0.07 0.36,-0.07 z m 2.113,1.854 -0.062,-0.155 q -0.03,-0.09 -0.067,-0.19 L 6.26,66.874 H 5.85 q -0.098,0 -0.18,-0.003 l -0.065,0.187 q -0.03,0.087 -0.06,0.155 -0.056,0.144 -0.163,0.144 -0.04,0 -0.076,-0.026 -0.034,-0.025 -0.034,-0.073 0,-0.048 0.017,-0.124 0.017,-0.08 0.042,-0.167 l 0.06,-0.183 q 0.03,-0.096 0.059,-0.178 0.028,-0.09 0.079,-0.23 l 0.113,-0.292 0.118,-0.3 q 0.06,-0.15 0.108,-0.26 0.01,-0.027 0.028,-0.061 0.017,-0.037 0.04,-0.068 0.025,-0.03 0.053,-0.053 0.03,-0.023 0.068,-0.023 0.036,0 0.067,0.025 0.03,0.023 0.054,0.057 0.025,0.034 0.042,0.07 0.02,0.037 0.03,0.065 0.047,0.113 0.103,0.26 0.06,0.147 0.116,0.296 0.059,0.15 0.11,0.285 0.05,0.136 0.082,0.229 0.025,0.082 0.056,0.175 0.034,0.093 0.062,0.183 0.028,0.09 0.045,0.17 0.02,0.076 0.02,0.124 0,0.048 -0.037,0.073 -0.033,0.026 -0.073,0.026 -0.05,0 -0.093,-0.034 -0.042,-0.037 -0.073,-0.11 z m -0.5,-0.621 q 0.069,0 0.137,0.003 L 6.339,66.597 6.271,66.4 6.206,66.21 6.153,66.044 6.113,65.906 Q 6.102,65.869 6.088,65.846 6.074,65.824 6.051,65.824 6.029,65.824 6.014,65.85 6,65.872 5.989,65.909 5.955,66.025 5.893,66.211 l -0.127,0.386 0.152,-0.002 q 0.077,-0.003 0.15,-0.003 z M 7.944,65.64 q -0.08,0.006 -0.17,0.01 l -0.194,0.005 0.005,0.144 0.006,0.132 q 0.003,0.068 0.003,0.142 0.002,0.073 0.002,0.163 v 0.246 L 7.594,66.716 7.588,66.95 q -0.003,0.119 -0.01,0.246 -0.001,0.068 -0.013,0.104 -0.008,0.037 -0.025,0.057 -0.017,0.02 -0.04,0.022 -0.022,0.006 -0.05,0.006 -0.051,0 -0.088,-0.034 -0.034,-0.037 -0.04,-0.152 -0.005,-0.102 -0.008,-0.215 0,-0.113 -0.003,-0.243 -0.002,-0.13 -0.002,-0.28 V 65.856 Q 7.311,65.739 7.317,65.655 H 7.2 q -0.118,0 -0.203,-0.003 Q 6.915,65.649 6.862,65.638 6.808,65.624 6.782,65.596 6.76,65.566 6.76,65.516 q 0,-0.025 0.006,-0.045 0.005,-0.022 0.025,-0.04 0.02,-0.02 0.054,-0.03 0.036,-0.011 0.093,-0.017 L 7.034,65.378 7.118,65.373 Q 7.161,65.37 7.206,65.37 H 7.31 q 0.167,0 0.314,0.003 0.15,0.002 0.316,0.01 0.067,0.007 0.104,0.018 0.037,0.008 0.057,0.025 0.02,0.017 0.022,0.04 0.006,0.022 0.006,0.05 0,0.05 -0.037,0.085 -0.034,0.034 -0.15,0.04 z m 0.402,1.288 Q 8.34,66.838 8.334,66.682 8.329,66.527 8.329,66.362 V 66.171 L 8.334,65.965 Q 8.34,65.755 8.36,65.638 8.382,65.518 8.444,65.46 8.509,65.4 8.624,65.387 8.741,65.373 8.933,65.373 h 0.059 l 0.14,0.002 q 0.083,0 0.17,0.003 l 0.15,0.006 q 0.062,0.005 0.099,0.017 0.04,0.008 0.059,0.025 0.02,0.014 0.025,0.037 0.006,0.02 0.006,0.045 0,0.065 -0.037,0.096 -0.036,0.028 -0.15,0.037 -0.056,0.005 -0.166,0.008 h -0.22 q -0.113,0 -0.203,0.003 H 8.752 q -0.073,0.003 -0.105,0.034 -0.028,0.028 -0.028,0.138 l 0.003,0.124 q 0.006,0.096 0.006,0.27 h 0.234 q 0.15,0 0.243,0.007 0.096,0.003 0.146,0.017 0.054,0.014 0.074,0.045 0.02,0.03 0.02,0.082 0,0.025 -0.006,0.048 -0.003,0.02 -0.023,0.036 Q 9.296,66.468 9.26,66.479 9.223,66.487 9.155,66.493 9.074,66.499 9,66.501 H 8.622 v 0.345 l 0.006,0.096 q 0.002,0.045 0.01,0.076 0.012,0.03 0.038,0.05 0.028,0.02 0.079,0.029 0.053,0.008 0.14,0.008 h 0.608 q 0.098,0 0.124,0.037 0.025,0.037 0.025,0.099 0,0.05 -0.022,0.079 -0.023,0.025 -0.11,0.037 -0.085,0.014 -0.257,0.017 -0.17,0.002 -0.47,0.002 -0.126,0 -0.208,-0.022 Q 8.503,67.331 8.453,67.278 8.402,67.224 8.376,67.138 8.354,67.052 8.346,66.928 Z"
       style="font-weight:400;font-size:2.82200003px;font-family:Sniglet;-inkscape-font-specification:'Sniglet, Normal';font-variant-ligatures:normal;font-variant-caps:normal;font-variant-numeric:normal;font-feature-settings:normal;text-align:start;letter-spacing:0;word-spacing:0;fill:#c8c8c8;stroke-width:0.78125"
       aria-label="GATE"
       font-weight="400"
       font-size="2.822"
       letter-spacing="0"
       word-spacing="0"
       id="path66"
       inkscape:connector-curvature="0" />
  </g>
  <path
     d="m 22.27584,98.118377 v 1.69344"
     id="path70"
     inkscape:connector-curvature="0"
     style="fill:#c8c8c8;stroke:#c8c8c8;stroke-width:0.132" />
  <g
     aria-label="THRU"
     style="font-weight:400;font-size:2.82200003px;line-height:1.25;font-family:Sniglet;letter-spacing:0;word-spacing:0;fill:#c8c8c8;stroke-width:0.20703124"
     font-weight="400"
     font-size="2.822"
     letter-spacing="0"
     word-spacing="0"
     id="g74"
     transform="matrix(1.28,0,0,1.28,0,-0.09601691)">
    <path
       d="m 15.24,51.418 q -0.078,0.005 -0.169,0.008 l -0.194,0.006 0.005,0.144 0.006,0.132 q 0.003,0.068 0.003,0.141 0.002,0.074 0.002,0.164 v 0.246 l -0.002,0.234 -0.006,0.234 -0.008,0.246 q -0.003,0.067 -0.015,0.104 -0.008,0.037 -0.025,0.057 -0.017,0.02 -0.04,0.022 -0.022,0.006 -0.05,0.006 -0.051,0 -0.088,-0.034 -0.034,-0.037 -0.04,-0.152 -0.005,-0.102 -0.008,-0.215 0,-0.113 -0.003,-0.243 -0.002,-0.13 -0.002,-0.28 v -0.335 -0.27 q 0.002,-0.117 0.008,-0.201 h -0.116 q -0.118,0 -0.203,-0.003 -0.082,-0.003 -0.135,-0.014 -0.054,-0.014 -0.08,-0.043 -0.022,-0.028 -0.022,-0.079 0,-0.025 0.006,-0.045 0.005,-0.022 0.025,-0.04 0.02,-0.019 0.054,-0.03 0.036,-0.012 0.093,-0.017 l 0.096,-0.006 0.085,-0.005 q 0.042,-0.003 0.087,-0.003 h 0.104 q 0.167,0 0.314,0.003 0.15,0.002 0.316,0.01 0.068,0.007 0.104,0.018 0.037,0.008 0.057,0.025 0.02,0.017 0.022,0.04 0.006,0.022 0.006,0.05 0,0.051 -0.037,0.085 -0.034,0.034 -0.15,0.04 z m 1.5,1.541 -0.01,-0.32 Q 16.726,52.47 16.726,52.25 l -0.192,0.006 h -0.44 q -0.104,0 -0.186,-0.003 l -0.006,0.344 q -0.003,0.164 -0.011,0.359 -0.003,0.068 -0.014,0.104 -0.009,0.037 -0.026,0.057 -0.016,0.02 -0.039,0.022 -0.02,0.006 -0.048,0.006 -0.05,0 -0.085,-0.034 -0.034,-0.037 -0.04,-0.152 -0.005,-0.102 -0.008,-0.212 L 15.629,52.51 q -0.003,-0.127 -0.003,-0.274 v -0.333 q 0,-0.2 0.003,-0.341 0.002,-0.144 0.014,-0.235 0.014,-0.09 0.042,-0.132 0.028,-0.043 0.079,-0.043 0.048,0 0.085,0.031 0.036,0.031 0.042,0.144 0.006,0.096 0.008,0.175 l 0.006,0.153 q 0.003,0.073 0.003,0.152 v 0.175 q 0.212,-0.008 0.415,-0.008 0.099,0 0.197,0.002 0.102,0.003 0.206,0.009 v -0.082 q 0,-0.2 0.003,-0.341 0.003,-0.144 0.014,-0.235 0.014,-0.09 0.043,-0.132 0.028,-0.043 0.079,-0.043 0.048,0 0.084,0.031 0.037,0.031 0.043,0.144 l 0.008,0.18 0.006,0.159 q 0.003,0.076 0.003,0.16 v 0.43 q 0,0.116 -0.003,0.228 L 17,52.713 16.992,52.956 q -0.003,0.067 -0.015,0.104 -0.008,0.037 -0.025,0.057 -0.017,0.02 -0.04,0.022 -0.02,0.006 -0.047,0.006 -0.051,0 -0.085,-0.034 -0.034,-0.037 -0.04,-0.152 z m 1.257,-0.519 -0.081,0.005 h -0.178 q -0.048,0 -0.107,-0.006 v 0.573 q 0,0.09 -0.046,0.113 -0.042,0.02 -0.107,0.02 -0.034,0 -0.054,-0.006 -0.02,-0.002 -0.033,-0.014 -0.012,-0.014 -0.02,-0.04 -0.006,-0.025 -0.009,-0.07 -0.005,-0.05 -0.008,-0.147 l -0.006,-0.254 q 0,-0.155 -0.003,-0.375 v -0.522 q 0,-0.116 0.029,-0.223 0.028,-0.11 0.101,-0.192 0.074,-0.085 0.198,-0.135 0.127,-0.051 0.322,-0.051 0.138,0 0.268,0.03 0.132,0.032 0.234,0.108 0.102,0.076 0.164,0.206 0.062,0.13 0.062,0.325 0,0.26 -0.113,0.403 -0.11,0.141 -0.305,0.2 l 0.378,0.52 q 0.051,0.068 0.051,0.138 0,0.057 -0.04,0.088 -0.036,0.034 -0.093,0.034 -0.062,0 -0.107,-0.034 -0.045,-0.037 -0.085,-0.093 z m 0.444,-0.658 q 0,-0.195 -0.119,-0.288 -0.116,-0.096 -0.37,-0.096 -0.093,0 -0.155,0.017 -0.062,0.014 -0.099,0.056 -0.036,0.043 -0.053,0.119 -0.014,0.073 -0.014,0.189 v 0.192 q 0,0.11 0.002,0.2 0.065,0.003 0.144,0.003 h 0.153 q 0.079,0 0.166,-0.008 0.09,-0.012 0.167,-0.051 0.076,-0.043 0.127,-0.119 0.05,-0.079 0.05,-0.214 z m 1.211,1.4 q -0.322,0 -0.472,-0.175 -0.059,-0.068 -0.101,-0.173 -0.04,-0.107 -0.065,-0.276 -0.023,-0.17 -0.034,-0.418 -0.008,-0.251 -0.008,-0.61 0,-0.115 0.005,-0.189 0.006,-0.076 0.023,-0.118 0.017,-0.045 0.042,-0.062 0.028,-0.017 0.07,-0.017 0.082,0 0.116,0.073 0.034,0.074 0.034,0.254 0,0.062 -0.003,0.11 v 0.1 l -0.002,0.106 v 0.144 q 0,0.283 0.017,0.469 0.02,0.186 0.064,0.299 0.046,0.11 0.122,0.155 0.079,0.045 0.195,0.045 0.12,0 0.2,-0.048 0.082,-0.05 0.13,-0.166 0.048,-0.119 0.067,-0.313 0.023,-0.195 0.023,-0.486 0,-0.127 -0.003,-0.217 v -0.164 q 0,-0.104 0.006,-0.175 0.008,-0.07 0.022,-0.11 0.017,-0.042 0.046,-0.06 0.028,-0.016 0.07,-0.016 0.042,0 0.07,0.017 0.029,0.017 0.046,0.06 0.017,0.041 0.022,0.118 0.006,0.073 0.006,0.192 0,0.496 -0.031,0.818 -0.031,0.319 -0.11,0.505 -0.08,0.184 -0.217,0.257 -0.136,0.07 -0.35,0.07 z"
       style="-inkscape-font-specification:'Sniglet, Normal';font-variant-ligatures:normal;font-variant-caps:normal;font-variant-numeric:normal;font-feature-settings:normal;text-align:start;stroke-width:0.20703124"
       id="path72"
       inkscape:connector-curvature="0" />
  </g>
  <g
     style="line-height:1.25;stroke-width:0.78125"
     id="g78"
     transform="matrix(1.28,0,0,1.28,0,-0.09601691)">
    <path
       d="m 4.077,79.736 q 0.079,0 0.18,0.014 0.105,0.011 0.195,0.045 0.09,0.031 0.153,0.085 0.062,0.05 0.062,0.127 0,0.045 -0.026,0.076 -0.025,0.031 -0.082,0.031 -0.042,0 -0.087,-0.017 Q 4.43,80.08 4.373,80.063 4.32,80.043 4.246,80.027 4.176,80.01 4.08,80.01 q -0.187,0 -0.277,0.067 -0.087,0.065 -0.087,0.181 0,0.08 0.04,0.133 0.039,0.053 0.103,0.093 0.068,0.036 0.15,0.062 0.085,0.025 0.172,0.048 0.099,0.025 0.195,0.062 0.099,0.037 0.175,0.096 0.076,0.06 0.121,0.15 0.048,0.09 0.048,0.228 0,0.144 -0.053,0.26 -0.054,0.113 -0.147,0.194 -0.093,0.08 -0.223,0.125 -0.13,0.042 -0.282,0.042 -0.085,0 -0.198,-0.017 Q 3.704,81.72 3.603,81.684 3.501,81.644 3.431,81.582 3.36,81.517 3.36,81.424 q 0,-0.057 0.028,-0.09 0.031,-0.035 0.09,-0.035 0.048,0 0.08,0.02 0.03,0.017 0.053,0.04 0.085,0.073 0.192,0.098 0.107,0.026 0.22,0.026 0.065,0 0.136,-0.009 0.073,-0.01 0.132,-0.042 0.06,-0.03 0.1,-0.087 0.039,-0.06 0.039,-0.158 0,-0.09 -0.037,-0.147 Q 4.359,80.98 4.3,80.941 4.24,80.901 4.159,80.876 4.079,80.851 3.986,80.826 3.882,80.797 3.78,80.763 3.679,80.729 3.6,80.673 3.52,80.613 3.47,80.526 3.422,80.436 3.422,80.297 q 0,-0.138 0.05,-0.242 0.052,-0.105 0.14,-0.175 0.087,-0.07 0.205,-0.107 0.122,-0.037 0.26,-0.037 z m 1.236,1.815 q 0,0.067 -0.014,0.104 -0.011,0.037 -0.031,0.056 -0.017,0.02 -0.042,0.023 Q 5.203,81.74 5.18,81.74 5.104,81.74 5.079,81.706 5.056,81.672 5.048,81.553 5.042,81.491 5.039,81.373 L 5.034,81.091 q 0,-0.164 -0.003,-0.362 v -0.417 q 0,-0.105 0.025,-0.212 0.026,-0.107 0.096,-0.195 0.074,-0.087 0.2,-0.14 0.13,-0.055 0.336,-0.055 0.144,0 0.274,0.031 0.13,0.032 0.229,0.108 0.099,0.076 0.158,0.203 0.06,0.127 0.06,0.316 0,0.198 -0.066,0.327 -0.065,0.13 -0.183,0.206 -0.119,0.077 -0.282,0.108 -0.164,0.03 -0.359,0.03 H 5.423 q -0.048,0 -0.107,-0.005 z m 0.813,-1.189 q 0,-0.189 -0.107,-0.285 -0.105,-0.096 -0.35,-0.096 -0.093,0 -0.161,0.017 -0.065,0.014 -0.107,0.054 -0.043,0.037 -0.065,0.102 -0.02,0.064 -0.02,0.163 v 0.22 q 0,0.122 0.003,0.23 0.065,0.002 0.144,0.002 h 0.152 q 0.085,0 0.175,-0.01 0.093,-0.013 0.167,-0.052 0.073,-0.043 0.12,-0.122 0.049,-0.08 0.049,-0.223 z m 0.791,0.58 v 0.16 q 0,0.068 -0.003,0.13 l -0.002,0.124 -0.006,0.138 q 0.195,-0.022 0.305,-0.037 l 0.172,-0.022 q 0.065,-0.009 0.099,-0.01 0.036,-0.004 0.084,-0.004 0.125,0 0.125,0.121 0,0.048 -0.051,0.082 -0.048,0.034 -0.124,0.06 -0.074,0.022 -0.167,0.04 -0.09,0.013 -0.178,0.02 -0.084,0.007 -0.155,0.01 L 6.92,81.757 q -0.102,0 -0.158,-0.014 Q 6.706,81.731 6.677,81.669 6.649,81.604 6.641,81.474 6.635,81.344 6.635,81.108 v -0.407 q 0,-0.178 0.003,-0.319 0.003,-0.14 0.003,-0.25 0.002,-0.11 0.008,-0.2 0.006,-0.117 0.04,-0.15 0.034,-0.038 0.084,-0.038 0.029,0 0.048,0.006 0.023,0.003 0.04,0.023 0.017,0.02 0.025,0.056 0.011,0.037 0.014,0.104 0.012,0.25 0.014,0.491 0.003,0.243 0.003,0.517 z m 1.04,0.611 q -0.007,-0.1 -0.01,-0.21 L 7.945,81.105 Q 7.942,80.978 7.942,80.831 v -0.333 q 0,-0.2 0.003,-0.342 0.003,-0.144 0.017,-0.234 0.014,-0.09 0.042,-0.132 0.031,-0.043 0.082,-0.043 0.025,0 0.048,0.006 0.022,0.005 0.04,0.025 0.016,0.017 0.028,0.054 0.014,0.034 0.017,0.09 l 0.008,0.18 0.006,0.16 q 0.002,0.075 0.002,0.16 v 0.43 q 0,0.114 -0.002,0.227 l -0.006,0.23 -0.008,0.242 q -0.003,0.067 -0.015,0.104 -0.01,0.037 -0.028,0.056 -0.017,0.02 -0.04,0.023 -0.022,0.006 -0.05,0.006 -0.05,0 -0.088,-0.034 -0.036,-0.037 -0.042,-0.153 z m 1.716,-1.54 q -0.079,0.005 -0.17,0.008 l -0.194,0.006 0.006,0.143 0.005,0.133 q 0.003,0.068 0.003,0.141 0.003,0.074 0.003,0.164 v 0.245 q 0,0.116 -0.003,0.235 l -0.006,0.234 q -0.002,0.12 -0.008,0.246 -0.003,0.067 -0.014,0.104 -0.009,0.037 -0.026,0.056 -0.017,0.02 -0.04,0.023 -0.022,0.006 -0.05,0.006 -0.05,0 -0.087,-0.034 -0.034,-0.037 -0.04,-0.153 -0.006,-0.1 -0.008,-0.214 0,-0.113 -0.003,-0.243 -0.003,-0.13 -0.003,-0.28 v -0.605 q 0.003,-0.117 0.008,-0.2 H 8.931 q -0.119,0 -0.203,-0.004 Q 8.646,80.021 8.592,80.01 8.538,79.996 8.513,79.967 8.491,79.939 8.491,79.888 q 0,-0.025 0.005,-0.045 0.006,-0.022 0.026,-0.04 0.02,-0.02 0.053,-0.03 0.037,-0.012 0.093,-0.017 L 8.764,79.75 8.849,79.744 q 0.042,-0.002 0.087,-0.002 h 0.105 q 0.166,0 0.313,0.002 0.15,0.003 0.316,0.012 0.068,0.005 0.105,0.017 0.036,0.008 0.056,0.025 0.02,0.017 0.023,0.04 0.005,0.022 0.005,0.05 0,0.051 -0.036,0.085 -0.034,0.034 -0.15,0.04 z"
       style="font-weight:400;font-size:2.82200003px;font-family:Sniglet;-inkscape-font-specification:'Sniglet, Normal';font-variant-ligatures:normal;font-variant-caps:normal;font-variant-numeric:normal;font-feature-settings:normal;text-align:start;letter-spacing:0;word-spacing:0;fill:#c8c8c8;stroke-width:0.78125"
       aria-label="SPLIT"
       font-weight="400"
       font-size="2.822"
       letter-spacing="0"
       word-spacing="0"
       id="path76"
       inkscape:connector-curvature="0" />
  </g>
  <path
     d="M 15.09504,84.925423 H 13.4016 m 1.69344,-18.28864 H 13.4016"
     id="path80"
     inkscape:connector-curvature="0"
     style="fill:#c8c8c8;stroke:#c8c8c8;stroke-width:0.132" />
</svg>
