<?xml version="1.0" encoding="UTF-8" standalone="no"?>
<svg
   xmlns:dc="http://purl.org/dc/elements/1.1/"
   xmlns:cc="http://creativecommons.org/ns#"
   xmlns:rdf="http://www.w3.org/1999/02/22-rdf-syntax-ns#"
   xmlns:svg="http://www.w3.org/2000/svg"
   xmlns="http://www.w3.org/2000/svg"
   xmlns:sodipodi="http://sodipodi.sourceforge.net/DTD/sodipodi-0.dtd"
   xmlns:inkscape="http://www.inkscape.org/namespaces/inkscape"
   width="20.32mm"
   height="128.5mm"
   viewBox="0 0 20.32 128.50044"
   version="1.1"
   id="svg42"
   sodipodi:docname="ProbKeyExpander_dark.svg"
   inkscape:version="0.92.4 (5da689c313, 2019-01-14)">
  <metadata
     id="metadata48">
    <rdf:RDF>
      <cc:Work
         rdf:about="">
        <dc:format>image/svg+xml</dc:format>
        <dc:type
           rdf:resource="http://purl.org/dc/dcmitype/StillImage" />
        <dc:title></dc:title>
      </cc:Work>
    </rdf:RDF>
  </metadata>
  <defs
     id="defs46" />
  <sodipodi:namedview
     pagecolor="#ffffff"
     bordercolor="#666666"
     borderopacity="1"
     objecttolerance="10"
     gridtolerance="10"
     guidetolerance="10"
     inkscape:pageopacity="0"
     inkscape:pageshadow="2"
     inkscape:window-width="1920"
     inkscape:window-height="1057"
     id="namedview44"
     showgrid="false"
     inkscape:document-units="mm"
     units="mm"
     inkscape:zoom="2.5915785"
     inkscape:cx="-10.558518"
     inkscape:cy="314.46934"
     inkscape:window-x="-8"
     inkscape:window-y="-8"
     inkscape:window-maximized="1"
     inkscape:current-layer="svg42"
     showguides="true"
     inkscape:guide-bbox="true">
    <sodipodi:guide
       position="10.160001,110.76662"
       orientation="1,0"
       id="guide838"
       inkscape:locked="false"
       inkscape:label=""
       inkscape:color="rgb(0,0,255)" />
    <sodipodi:guide
       position="3.4651687,49.956351"
       orientation="1,0"
       id="guide884"
       inkscape:locked="false" />
    <sodipodi:guide
       position="-1.4438203,21.500074"
       orientation="0,1"
       id="guide913"
       inkscape:locked="false"
       inkscape:label=""
       inkscape:color="rgb(0,0,255)" />
  </sodipodi:namedview>
  <path
     d="M 0,0 H 20.32007 V 128.50044 H 0 Z m 0,0"
     id="path2"
     inkscape:connector-curvature="0"
     style="fill:#1e1e1e;stroke-width:1;fill-opacity:1" />
  <g
     style="line-height:1.25;stroke-width:0.78124732;fill:#969696;fill-opacity:1"
     id="g12"
     transform="matrix(1.2800044,0,0,1.2800044,0,-0.09623859)">
    <path
       word-spacing="0"
       letter-spacing="0"
       font-weight="400"
       aria-label="♫"
       font-size="3.528"
       style="font-weight:400;font-size:3.52800012px;font-family:Arial;-inkscape-font-specification:'Arial, Normal';font-variant-ligatures:normal;font-variant-caps:normal;font-variant-numeric:normal;font-feature-settings:normal;text-align:start;letter-spacing:0;word-spacing:0;fill:#969696;stroke-width:0.78124732;fill-opacity:1"
       d="m 8.664,93.893 -1.63,0.115 v -2.06 q 0,-0.23 0.065,-0.333 0.063,-0.104 0.22,-0.147 0.152,-0.043 0.347,-0.002 0.223,0.047 0.357,0.19 0.133,0.146 0.133,0.33 0,0.186 -0.158,0.286 Q 7.84,92.375 7.59,92.322 7.508,92.304 7.447,92.278 7.383,92.252 7.242,92.168 v 1.345 l 1.22,-0.085 v -1.554 q 0,-0.224 0.064,-0.337 0.066,-0.11 0.226,-0.15 0.16,-0.041 0.348,-0.001 0.223,0.047 0.355,0.19 0.13,0.14 0.13,0.325 0,0.195 -0.157,0.294 -0.156,0.1 -0.408,0.047 -0.16,-0.034 -0.356,-0.16 z"
       id="path10"
       inkscape:connector-curvature="0" />
  </g>
  <g
     aria-label="PK-X"
     style="font-style:normal;font-weight:normal;font-size:10.58336926px;line-height:1.25;font-family:sans-serif;letter-spacing:0px;word-spacing:0px;fill:#c8c8c8;fill-opacity:1;stroke:none;stroke-width:0.26458424"
     id="text836">
    <path
       d="m 4.9209758,10.681465 q 0,0.131233 -0.02734,0.202318 -0.021872,0.07109 -0.060149,0.109362 -0.032808,0.03828 -0.082021,0.04374 -0.043745,0.01094 -0.087489,0.01094 -0.147638,0 -0.1968507,-0.06562 -0.043744,-0.06562 -0.060149,-0.295276 -0.010936,-0.120298 -0.016404,-0.349957 -0.00547,-0.229659 -0.010936,-0.5468075 0,-0.3171483 -0.00547,-0.6999135 0,-0.3827652 0,-0.809275 0,-0.2023188 0.049213,-0.4101056 Q 4.4725937,7.6630876 4.6092956,7.4935773 4.7514655,7.324067 4.9975289,7.2201736 5.2490603,7.1162802 5.6482297,7.1162802 q 0.2788718,0 0.5304032,0.060149 0.2515314,0.060149 0.442914,0.2077868 0.1913826,0.147638 0.3062122,0.3937013 0.1148296,0.2460634 0.1148296,0.6124244 0,0.3827652 -0.1257658,0.6342966 -0.1257657,0.2515314 -0.3554248,0.3991694 -0.2296591,0.147638 -0.5468074,0.2077868 -0.3171483,0.060149 -0.6944455,0.060149 -0.092957,0 -0.1859145,0 -0.092957,0 -0.2077868,-0.010936 z M 6.4957812,8.3794053 q 0,-0.366361 -0.2077868,-0.5522755 -0.2023188,-0.1859145 -0.6780412,-0.1859145 -0.1804465,0 -0.3116803,0.032808 -0.1257657,0.02734 -0.2077868,0.1038934 -0.082021,0.071085 -0.1257657,0.1968507 -0.038277,0.1257657 -0.038277,0.3171483 0,0.1859146 0,0.4265098 0,0.2351272 0.00547,0.442914 0.1257657,0.00547 0.2788718,0.00547 0.1585741,0 0.295276,0 0.1640422,0 0.3390206,-0.021872 Q 6.0255268,9.1230634 6.1676968,9.0465104 6.3098667,8.9644893 6.402824,8.8113832 6.4957812,8.652809 6.4957812,8.3794053 Z"
       style="font-style:normal;font-variant:normal;font-weight:normal;font-stretch:normal;font-size:5.46807432px;font-family:Sniglet;-inkscape-font-specification:'Sniglet, Normal';font-variant-ligatures:normal;font-variant-caps:normal;font-variant-numeric:normal;font-feature-settings:normal;text-align:start;writing-mode:lr-tb;text-anchor:start;stroke-width:0.26458424;fill:#c8c8c8;fill-opacity:1"
       id="path840" />
    <path
       d="m 7.50934,10.686933 q -0.010936,-0.196851 -0.016404,-0.410106 0,-0.213255 -0.00547,-0.4593181 -0.00547,-0.2460634 -0.00547,-0.5304032 0,-0.289808 0,-0.6452328 0,-0.3882333 0.00547,-0.661637 0.00547,-0.2788718 0.02734,-0.4538502 0.02734,-0.1749784 0.082021,-0.2569995 0.054681,-0.082021 0.1531061,-0.082021 0.092957,0 0.1640422,0.060149 0.071085,0.060149 0.082021,0.2788718 0.010936,0.1968507 0.016404,0.3499568 0.00547,0.1531061 0.010936,0.3062121 0.00547,0.1476381 0.00547,0.3116803 0,0.1585741 0,0.3608929 V 9.1394677 L 9.198975,7.7997894 q 0.2296591,-0.2624675 0.3554248,-0.3444886 0.1257657,-0.087489 0.218723,-0.087489 0.1093615,0 0.1585741,0.054681 0.054681,0.054681 0.054681,0.1367019 0,0.032808 -0.010936,0.065617 -0.010936,0.032808 -0.049213,0.092957 -0.032808,0.054681 -0.1038934,0.14217 -0.071085,0.082021 -0.1913826,0.2132549 L 8.8708905,8.8988724 10.068399,10.604912 q 0.04374,0.06015 0.06562,0.125765 0.02734,0.06562 0.02734,0.125766 0,0.103893 -0.06015,0.16951 -0.05468,0.07109 -0.1968504,0.07109 -0.1148296,0 -0.2077869,-0.06562 -0.087489,-0.06015 -0.1640422,-0.180446 L 8.4935934,9.314446 8.023339,9.828445 q -0.00547,0.207787 -0.010936,0.415574 -0.00547,0.207786 -0.016404,0.437446 -0.00547,0.131233 -0.02734,0.202318 -0.016404,0.07109 -0.049213,0.109362 -0.032809,0.03828 -0.076553,0.04374 -0.038276,0.01094 -0.092957,0.01094 -0.098425,0 -0.1640423,-0.06562 -0.065617,-0.07109 -0.076553,-0.295276 z"
       style="font-style:normal;font-variant:normal;font-weight:normal;font-stretch:normal;font-size:5.46807432px;font-family:Sniglet;-inkscape-font-specification:'Sniglet, Normal';font-variant-ligatures:normal;font-variant-caps:normal;font-variant-numeric:normal;font-feature-settings:normal;text-align:start;writing-mode:lr-tb;text-anchor:start;stroke-width:0.26458424;fill:#c8c8c8;fill-opacity:1"
       id="path842" />
    <path
       d="m 12.426847,9.6589347 q -0.251531,0.010936 -0.579615,0.021872 -0.328085,0.00547 -0.776467,0.00547 -0.185915,0 -0.317148,-0.00547 -0.131234,-0.00547 -0.213255,-0.02734 -0.08202,-0.02734 -0.120298,-0.082021 -0.03828,-0.054681 -0.03828,-0.1531061 0,-0.049213 0.01094,-0.087489 0.01094,-0.043745 0.04921,-0.076553 0.03828,-0.032808 0.103894,-0.054681 0.07109,-0.02734 0.180446,-0.038277 0.08202,-0.00547 0.14217,-0.010936 0.06562,-0.00547 0.125766,-0.00547 0.06015,-0.00547 0.125766,-0.00547 0.07109,0 0.164042,0 0.295276,0 0.56868,0.00547 0.273403,0 0.568679,0.016404 0.131234,0.010936 0.202319,0.032808 0.07109,0.016404 0.109362,0.049213 0.03828,0.032808 0.04374,0.076553 0.01094,0.043745 0.01094,0.098425 0,0.098425 -0.07109,0.1640423 -0.06562,0.065617 -0.289808,0.076553 z"
       style="font-style:normal;font-variant:normal;font-weight:normal;font-stretch:normal;font-size:5.46807432px;font-family:Sniglet;-inkscape-font-specification:'Sniglet, Normal';font-variant-ligatures:normal;font-variant-caps:normal;font-variant-numeric:normal;font-feature-settings:normal;text-align:start;writing-mode:lr-tb;text-anchor:start;stroke-width:0.26458424;fill:#c8c8c8;fill-opacity:1"
       id="path844" />
    <path
       d="m 14.507279,9.5878497 -0.814743,1.2631253 q -0.07655,0.120298 -0.16951,0.180446 -0.08749,0.06562 -0.202319,0.06562 -0.14217,0 -0.202319,-0.07109 -0.05468,-0.06562 -0.05468,-0.16951 0,-0.06015 0.02187,-0.125766 0.02734,-0.06562 0.07109,-0.125765 L 14.173727,9.1504038 13.156665,7.695896 q -0.04374,-0.060149 -0.07109,-0.1257657 -0.02187,-0.065617 -0.02187,-0.1257657 0,-0.1038934 0.05468,-0.1695103 0.06015,-0.071085 0.202319,-0.071085 0.11483,0 0.202319,0.065617 0.09296,0.060149 0.16951,0.1804465 l 0.814743,1.2631252 0.814743,-1.2631252 q 0.07655,-0.1202976 0.164043,-0.1804465 0.09296,-0.065617 0.207786,-0.065617 0.14217,0 0.196851,0.071085 0.06015,0.065617 0.06015,0.1695103 0,0.060149 -0.02734,0.1257657 -0.02187,0.065617 -0.06562,0.1257657 l -1.017062,1.4545078 1.017062,1.4545082 q 0.04374,0.06015 0.06562,0.125765 0.02734,0.06562 0.02734,0.125766 0,0.103893 -0.06015,0.16951 -0.05468,0.07109 -0.196851,0.07109 -0.114829,0 -0.207786,-0.06562 -0.08749,-0.06015 -0.164043,-0.180446 z"
       style="font-style:normal;font-variant:normal;font-weight:normal;font-stretch:normal;font-size:5.46807432px;font-family:Sniglet;-inkscape-font-specification:'Sniglet, Normal';font-variant-ligatures:normal;font-variant-caps:normal;font-variant-numeric:normal;font-feature-settings:normal;text-align:start;writing-mode:lr-tb;text-anchor:start;stroke-width:0.26458424;fill:#c8c8c8;fill-opacity:1"
       id="path846" />
  </g>
  <rect
     rx="2.3399992"
     ry="2.3399992"
     y="15.766768"
     x="2.4268839"
     height="17.460415"
     width="15.368919"
     id="rect6"
     style="fill:#3e3e3e;stroke-width:0.26500091;paint-order:stroke markers fill;fill-opacity:1;stroke:#8c8c8c;stroke-opacity:1;stroke-miterlimit:4;stroke-dasharray:none" />
  <g
     aria-label="MIN CV"
     style="font-style:normal;font-weight:normal;font-size:10.58336926px;line-height:1.25;font-family:sans-serif;letter-spacing:0px;word-spacing:0px;fill:#c8c8c8;fill-opacity:1;stroke:none;stroke-width:0.26458424"
     id="text851"
     transform="translate(0,1.800518)">
    <path
       d="M 5.8780745,18.181169 Q 5.7109278,17.814173 5.5801173,17.472613 5.4529405,17.127418 5.3620999,16.85853 q -0.083573,0.45057 -0.1417113,0.908406 -0.054504,0.457837 -0.1417113,0.875704 -0.021802,0.09447 -0.07994,0.127176 -0.058138,0.02907 -0.098108,0.02907 -0.065405,0 -0.1053751,-0.03997 -0.036336,-0.03997 -0.036336,-0.101741 0,-0.08357 0.018168,-0.254354 0.021802,-0.174414 0.050871,-0.392431 0.032703,-0.218017 0.072672,-0.457837 0.03997,-0.239819 0.07994,-0.46147 0.043603,-0.225284 0.07994,-0.406966 0.03997,-0.181681 0.069039,-0.279789 0.047237,-0.167146 0.192582,-0.167146 0.087207,0 0.1489786,0.08721 0.061772,0.08357 0.1308105,0.261621 0.072672,0.174414 0.1707803,0.443302 0.1017414,0.268888 0.2616209,0.63225 0.1562458,-0.363362 0.25072,-0.628617 0.098108,-0.268888 0.1635131,-0.443302 0.069039,-0.178047 0.1308104,-0.261621 0.061772,-0.08721 0.1526122,-0.08721 0.083573,0 0.1271768,0.0436 0.043603,0.03997 0.065405,0.123543 0.025435,0.101741 0.061772,0.283423 0.036336,0.178047 0.076306,0.399698 0.043603,0.218018 0.083573,0.457837 0.03997,0.239819 0.072672,0.457836 0.032703,0.218018 0.050871,0.396065 0.021802,0.174414 0.021802,0.268889 0,0.05814 -0.03997,0.09447 -0.03997,0.0327 -0.1017415,0.0327 -0.03997,0 -0.098108,-0.02907 -0.058138,-0.0327 -0.07994,-0.127176 -0.043603,-0.207117 -0.07994,-0.428768 -0.032703,-0.221651 -0.065405,-0.446936 -0.029069,-0.228918 -0.058138,-0.454203 -0.029069,-0.228918 -0.061772,-0.454203 -0.047237,0.145345 -0.1090087,0.319759 -0.061772,0.174414 -0.1308104,0.352462 -0.069039,0.174414 -0.1417113,0.345194 -0.072673,0.17078 -0.1417114,0.308858 -0.025435,0.04724 -0.069039,0.07267 -0.03997,0.0218 -0.083573,0.0218 -0.047237,0 -0.090841,-0.0218 -0.03997,-0.02543 -0.061772,-0.07631 z"
       style="font-style:normal;font-variant:normal;font-weight:normal;font-stretch:normal;font-size:3.6336236px;font-family:Sniglet;-inkscape-font-specification:'Sniglet, Normal';font-variant-ligatures:normal;font-variant-caps:normal;font-variant-numeric:normal;font-feature-settings:normal;text-align:start;writing-mode:lr-tb;text-anchor:start;stroke-width:0.26458424;fill:#c8c8c8;fill-opacity:1"
       id="path853"
       inkscape:connector-curvature="0" />
    <path
       d="m 7.6343069,18.573601 q -0.00727,-0.130811 -0.010901,-0.272522 0,-0.141711 -0.00363,-0.305224 -0.00363,-0.163514 -0.00363,-0.352462 0,-0.192582 0,-0.428768 0,-0.257987 0.00363,-0.439668 0.00363,-0.185315 0.021802,-0.301591 0.018168,-0.116276 0.054504,-0.17078 0.03997,-0.0545 0.1053751,-0.0545 0.032703,0 0.061772,0.0073 0.029069,0.0073 0.050871,0.0327 0.021802,0.0218 0.036336,0.06904 0.018168,0.0436 0.021802,0.116276 0.00727,0.130811 0.010901,0.232552 0.00363,0.101742 0.00727,0.203483 0.00363,0.09811 0.00363,0.207117 0,0.105375 0,0.239819 0,0.163513 0,0.312491 0,0.148979 -0.00363,0.294324 -0.00363,0.145345 -0.00727,0.294323 -0.00363,0.148979 -0.010901,0.312492 -0.00363,0.08721 -0.018168,0.134444 -0.014535,0.04724 -0.036336,0.07267 -0.021802,0.02544 -0.050871,0.02907 -0.029069,0.0073 -0.065405,0.0073 -0.065405,0 -0.1126423,-0.0436 -0.047237,-0.04724 -0.054504,-0.196215 z"
       style="font-style:normal;font-variant:normal;font-weight:normal;font-stretch:normal;font-size:3.6336236px;font-family:Sniglet;-inkscape-font-specification:'Sniglet, Normal';font-variant-ligatures:normal;font-variant-caps:normal;font-variant-numeric:normal;font-feature-settings:normal;text-align:start;writing-mode:lr-tb;text-anchor:start;stroke-width:0.26458424;fill:#c8c8c8;fill-opacity:1"
       id="path855"
       inkscape:connector-curvature="0" />
    <path
       d="M 9.9058328,18.628105 Q 9.7895568,18.468226 9.6841817,18.31198 9.5824403,18.1521 9.4625307,17.963152 9.3462547,17.774203 9.1936425,17.545285 9.044664,17.312733 8.8339138,17.003875 q 0,0.272522 0,0.490539 0,0.214384 -0.00363,0.399699 -0.00363,0.185315 -0.00727,0.348828 -0.00363,0.163513 -0.010901,0.327026 -0.00363,0.08721 -0.018168,0.134444 -0.010901,0.04724 -0.032703,0.07267 -0.021802,0.02544 -0.050871,0.02907 -0.025435,0.0073 -0.061772,0.0073 -0.065405,0 -0.1090087,-0.0436 -0.043603,-0.04724 -0.050871,-0.196215 -0.018168,-0.399699 -0.021802,-0.799398 0,-0.403332 0,-0.832099 0,-0.243453 0.00363,-0.381531 0.00727,-0.138077 0.025435,-0.207116 0.021802,-0.06904 0.054504,-0.08721 0.036336,-0.01817 0.094474,-0.01817 0.058138,0 0.1526122,0.09084 0.094474,0.08721 0.2071165,0.232552 0.1126424,0.145345 0.2398192,0.334293 0.1308104,0.188949 0.2579873,0.388798 0.1271768,0.199849 0.2434527,0.396065 0.1199096,0.196216 0.2180175,0.356095 -0.00363,-0.17078 -0.00363,-0.374263 0,-0.207117 0,-0.457837 0,-0.287056 0.00363,-0.472371 0.00363,-0.188948 0.018168,-0.297957 0.018168,-0.109008 0.054504,-0.152612 0.03634,-0.0436 0.101742,-0.0436 0.06177,0 0.109008,0.03997 0.04724,0.03997 0.0545,0.185315 0.0073,0.130811 0.0109,0.232552 0.0036,0.101742 0.0073,0.203483 0.0036,0.09811 0.0036,0.207117 0,0.105375 0,0.239819 0,0.163513 0,0.312491 0,0.148979 -0.0036,0.294324 -0.0036,0.145345 -0.0073,0.294323 -0.0036,0.148979 -0.0109,0.312492 -0.0036,0.08721 -0.01817,0.134444 -0.0109,0.04724 -0.0327,0.07267 -0.0218,0.02544 -0.05087,0.02907 -0.02543,0.0073 -0.06177,0.0073 -0.06177,0 -0.105375,-0.03634 -0.043603,-0.03634 -0.1271407,-0.148979 z"
       style="font-style:normal;font-variant:normal;font-weight:normal;font-stretch:normal;font-size:3.6336236px;font-family:Sniglet;-inkscape-font-specification:'Sniglet, Normal';font-variant-ligatures:normal;font-variant-caps:normal;font-variant-numeric:normal;font-feature-settings:normal;text-align:start;writing-mode:lr-tb;text-anchor:start;stroke-width:0.26458424;fill:#c8c8c8;fill-opacity:1"
       id="path857"
       inkscape:connector-curvature="0" />
    <path
       d="m 12.575978,16.22628 q 0.11991,0 0.239819,0.0218 0.123543,0.01817 0.221651,0.06177 0.09811,0.03997 0.15988,0.101742 0.06541,0.05814 0.06541,0.138077 0,0.08357 -0.0436,0.127177 -0.0436,0.0436 -0.109008,0.0436 -0.06177,0 -0.109009,-0.01817 -0.04724,-0.0218 -0.109009,-0.04724 -0.05814,-0.02543 -0.141711,-0.0436 -0.08357,-0.0218 -0.221651,-0.0218 -0.138078,0 -0.265255,0.07267 -0.123543,0.06904 -0.218017,0.196215 -0.09084,0.123544 -0.145345,0.294324 -0.0545,0.17078 -0.0545,0.370629 0,0.247087 0.06177,0.425134 0.06541,0.178048 0.167147,0.294324 0.101741,0.112642 0.228918,0.17078 0.130811,0.05451 0.261621,0.05451 0.156246,0 0.261621,-0.0327 0.105375,-0.0327 0.178048,-0.07267 0.07631,-0.03997 0.13081,-0.07267 0.0545,-0.0327 0.105375,-0.0327 0.06177,0 0.09811,0.03634 0.03634,0.0327 0.03634,0.119909 0,0.07267 -0.05814,0.148979 -0.0545,0.07267 -0.163513,0.134444 -0.105375,0.05814 -0.254353,0.09811 -0.148979,0.03634 -0.334294,0.03634 -0.203483,0 -0.406966,-0.07994 -0.199849,-0.07994 -0.359728,-0.236185 -0.156246,-0.15988 -0.254354,-0.396065 -0.09811,-0.239819 -0.09811,-0.555945 0,-0.316125 0.08721,-0.563211 0.09084,-0.247087 0.243453,-0.417867 0.156246,-0.174414 0.359729,-0.265255 0.207116,-0.09084 0.439668,-0.09084 z"
       style="font-style:normal;font-variant:normal;font-weight:normal;font-stretch:normal;font-size:3.6336236px;font-family:Sniglet;-inkscape-font-specification:'Sniglet, Normal';font-variant-ligatures:normal;font-variant-caps:normal;font-variant-numeric:normal;font-feature-settings:normal;text-align:start;writing-mode:lr-tb;text-anchor:start;stroke-width:0.26458424;fill:#c8c8c8;fill-opacity:1"
       id="path859"
       inkscape:connector-curvature="0" />
    <path
       d="m 14.689328,18.65354 q -0.04724,0.08721 -0.08721,0.127177 -0.03634,0.03997 -0.09448,0.03997 -0.05814,0 -0.101741,-0.03997 -0.0436,-0.03997 -0.09447,-0.123543 -0.06541,-0.109009 -0.148979,-0.301591 -0.07994,-0.192582 -0.163513,-0.417866 -0.08357,-0.228919 -0.163513,-0.472372 -0.07994,-0.243452 -0.145345,-0.457836 -0.06177,-0.214384 -0.101741,-0.374263 -0.03634,-0.163513 -0.03634,-0.232552 0,-0.07267 0.02907,-0.109009 0.02907,-0.03634 0.112643,-0.03634 0.04724,0 0.07994,0.02544 0.03634,0.0218 0.09084,0.130811 0.0436,0.08357 0.09447,0.218017 0.05087,0.134444 0.105375,0.297957 0.05814,0.163513 0.116276,0.345194 0.05814,0.178048 0.116276,0.356096 0.05814,0.178047 0.109009,0.34156 0.05087,0.163513 0.09447,0.294324 0.0436,-0.134444 0.09811,-0.297957 0.0545,-0.167147 0.112642,-0.341561 0.05814,-0.178048 0.116276,-0.356095 0.05814,-0.181681 0.116276,-0.341561 0.05814,-0.159879 0.109009,-0.294323 0.05087,-0.134444 0.09084,-0.221651 0.05087,-0.105375 0.08721,-0.130811 0.03997,-0.02544 0.07994,-0.02544 0.08357,0 0.112643,0.0436 0.0327,0.03997 0.0327,0.11991 0,0.07267 -0.0218,0.174414 -0.0218,0.101741 -0.07631,0.272522 -0.05087,0.167146 -0.138077,0.417866 -0.08721,0.25072 -0.214384,0.614083 -0.0327,0.09811 -0.07631,0.203483 -0.03997,0.105375 -0.08357,0.207116 -0.03997,0.09811 -0.07994,0.188949 -0.03997,0.09084 -0.07631,0.156245 z"
       style="font-style:normal;font-variant:normal;font-weight:normal;font-stretch:normal;font-size:3.6336236px;font-family:Sniglet;-inkscape-font-specification:'Sniglet, Normal';font-variant-ligatures:normal;font-variant-caps:normal;font-variant-numeric:normal;font-feature-settings:normal;text-align:start;writing-mode:lr-tb;text-anchor:start;stroke-width:0.26458424;fill:#c8c8c8;fill-opacity:1"
       id="path861"
       inkscape:connector-curvature="0" />
  </g>
  <g
     aria-label="OCT"
     style="font-style:normal;font-variant:normal;font-weight:normal;font-stretch:normal;font-size:3.6336236px;line-height:1.25;font-family:Sniglet;-inkscape-font-specification:'Sniglet, Normal';font-variant-ligatures:normal;font-variant-caps:normal;font-variant-numeric:normal;font-feature-settings:normal;text-align:start;letter-spacing:0px;word-spacing:0px;writing-mode:lr-tb;text-anchor:start;fill:#c8c8c8;fill-opacity:1;stroke:none;stroke-width:0.26458424"
     id="text829"
     transform="translate(-4.798574e-7,23.695911)">
    <path
       d="m 8.0082014,17.983171 q -0.2180174,0 -0.4105995,-0.08721 -0.1889484,-0.08721 -0.3306597,-0.25072 -0.1417113,-0.167147 -0.2252847,-0.406966 -0.07994,-0.239819 -0.07994,-0.545044 0,-0.287056 0.069039,-0.526875 0.072672,-0.239819 0.2107501,-0.414233 0.1417114,-0.174414 0.3488279,-0.268888 0.2071165,-0.09811 0.4796383,-0.09811 0.2216511,0 0.4215004,0.07994 0.1998492,0.07994 0.3488278,0.239819 0.1526122,0.159879 0.2398192,0.399698 0.087207,0.23982 0.087207,0.559578 0,0.265255 -0.072672,0.505074 -0.069039,0.239819 -0.2143838,0.4215 -0.1417113,0.178048 -0.3597288,0.287057 -0.2180174,0.105375 -0.5123409,0.105375 z m 0.00727,-0.341561 q 0.1998493,0 0.3488278,-0.07994 0.1489786,-0.08357 0.2470864,-0.218017 0.098108,-0.134444 0.145345,-0.308858 0.047237,-0.178048 0.047237,-0.363362 0,-0.225285 -0.061772,-0.399699 -0.058138,-0.178047 -0.1598795,-0.297957 -0.1017414,-0.11991 -0.2361855,-0.181681 -0.1344441,-0.06541 -0.2870563,-0.06541 -0.1816811,0 -0.3197588,0.07631 -0.1344441,0.07631 -0.2289183,0.207116 -0.090841,0.130811 -0.1380777,0.308858 -0.047237,0.174414 -0.047237,0.374263 0,0.214384 0.054504,0.392432 0.054504,0.174414 0.145345,0.297957 0.094474,0.123543 0.221651,0.192582 0.1271768,0.0654 0.2688882,0.0654 z"
       style="font-style:normal;font-variant:normal;font-weight:normal;font-stretch:normal;font-size:3.6336236px;font-family:Sniglet;-inkscape-font-specification:'Sniglet, Normal';font-variant-ligatures:normal;font-variant-caps:normal;font-variant-numeric:normal;font-feature-settings:normal;text-align:start;writing-mode:lr-tb;text-anchor:start;stroke-width:0.26458424;fill:#c8c8c8;fill-opacity:1"
       id="path838"
       inkscape:connector-curvature="0" />
    <path
       d="m 10.589891,15.374229 q 0.11991,0 0.239819,0.0218 0.123543,0.01817 0.221651,0.06177 0.09811,0.03997 0.15988,0.101742 0.06541,0.05814 0.06541,0.138078 0,0.08357 -0.0436,0.127176 -0.0436,0.0436 -0.109008,0.0436 -0.06177,0 -0.109009,-0.01817 -0.04724,-0.0218 -0.109009,-0.04724 -0.05814,-0.02544 -0.141711,-0.0436 -0.08357,-0.0218 -0.221651,-0.0218 -0.138078,0 -0.265255,0.07267 -0.123543,0.06904 -0.218017,0.196216 -0.090841,0.123543 -0.145345,0.294323 -0.054504,0.17078 -0.054504,0.37063 0,0.247086 0.061772,0.425134 0.065405,0.178047 0.167147,0.294323 0.101741,0.112642 0.228918,0.17078 0.130811,0.0545 0.261621,0.0545 0.156246,0 0.261621,-0.0327 0.105375,-0.0327 0.178048,-0.07267 0.07631,-0.03997 0.13081,-0.07267 0.0545,-0.0327 0.105375,-0.0327 0.06177,0 0.09811,0.03634 0.03634,0.0327 0.03634,0.119909 0,0.07267 -0.05814,0.148979 -0.0545,0.07267 -0.163513,0.134444 -0.105375,0.05814 -0.254353,0.09811 -0.148979,0.03634 -0.334294,0.03634 -0.203483,0 -0.406966,-0.07994 -0.1998493,-0.07994 -0.3597287,-0.236185 -0.1562459,-0.15988 -0.2543537,-0.396065 -0.098108,-0.239819 -0.098108,-0.555944 0,-0.316126 0.087207,-0.563212 0.090841,-0.247087 0.2434528,-0.417867 0.1562458,-0.174414 0.3597296,-0.265254 0.207116,-0.09084 0.439668,-0.09084 z"
       style="font-style:normal;font-variant:normal;font-weight:normal;font-stretch:normal;font-size:3.6336236px;font-family:Sniglet;-inkscape-font-specification:'Sniglet, Normal';font-variant-ligatures:normal;font-variant-caps:normal;font-variant-numeric:normal;font-feature-settings:normal;text-align:start;writing-mode:lr-tb;text-anchor:start;stroke-width:0.26458424;fill:#c8c8c8;fill-opacity:1"
       id="path841"
       inkscape:connector-curvature="0" />
    <path
       d="m 13.053772,15.737591 q -0.101742,0.0073 -0.218018,0.0109 -0.112642,0.0036 -0.25072,0.0073 0.0036,0.09811 0.0073,0.185314 0.0036,0.08357 0.0073,0.170781 0.0036,0.08721 0.0036,0.181681 0.0036,0.09447 0.0036,0.21075 0,0.163513 0,0.316125 0,0.148979 -0.0036,0.301591 -0.0036,0.148979 -0.0073,0.301591 -0.0036,0.152612 -0.0109,0.316125 -0.0036,0.08721 -0.01817,0.134444 -0.0109,0.04724 -0.0327,0.07267 -0.0218,0.02544 -0.05087,0.02907 -0.02907,0.0073 -0.06541,0.0073 -0.06541,0 -0.112642,-0.0436 -0.0436,-0.04724 -0.05087,-0.196215 -0.0073,-0.130811 -0.0109,-0.276156 0,-0.145345 -0.0036,-0.312491 -0.0036,-0.167147 -0.0036,-0.359729 0,-0.196216 0,-0.432401 0,-0.19985 0,-0.348828 0.0036,-0.148979 0.0109,-0.257987 h -0.148978 q -0.152613,0 -0.261621,-0.0036 -0.105375,-0.0036 -0.174414,-0.01817 -0.06904,-0.01817 -0.101742,-0.0545 -0.02907,-0.03634 -0.02907,-0.101741 0,-0.0327 0.0073,-0.05814 0.0073,-0.02907 0.0327,-0.05087 0.02544,-0.02543 0.06904,-0.03997 0.04724,-0.01453 0.11991,-0.0218 0.06904,-0.0036 0.123543,-0.0073 0.0545,-0.0036 0.109008,-0.0073 0.0545,-0.0036 0.112643,-0.0036 0.05814,0 0.134444,0 0.214384,0 0.403332,0.0036 0.192582,0.0036 0.406966,0.01453 0.08721,0.0073 0.134444,0.0218 0.04724,0.0109 0.07267,0.0327 0.02543,0.0218 0.02907,0.05087 0.0073,0.02907 0.0073,0.06541 0,0.06541 -0.04724,0.109009 -0.0436,0.0436 -0.192582,0.05087 z"
       style="font-style:normal;font-variant:normal;font-weight:normal;font-stretch:normal;font-size:3.6336236px;font-family:Sniglet;-inkscape-font-specification:'Sniglet, Normal';font-variant-ligatures:normal;font-variant-caps:normal;font-variant-numeric:normal;font-feature-settings:normal;text-align:start;writing-mode:lr-tb;text-anchor:start;stroke-width:0.26458424;fill:#c8c8c8;fill-opacity:1"
       id="path843"
       inkscape:connector-curvature="0" />
  </g>
  <path
     d="m 10.268307,35.243166 v 1.69344"
     id="path28"
     inkscape:connector-curvature="0"
     style="fill:none;stroke:#c8c8c8;stroke-width:0.13200004;stroke-opacity:1" />
  <g
     id="text932"
     style="font-style:normal;font-weight:normal;font-size:10.58336926px;line-height:1.25;font-family:sans-serif;letter-spacing:0px;word-spacing:0px;fill:#c8c8c8;fill-opacity:1;stroke:none;stroke-width:0.07000482"
     aria-label="LOCK N LOWEST"
     transform="translate(-25.741728,0.48080687)">
    <path
       sodipodi:nodetypes="cscscsccsscccccscccssscccsccccccc"
       inkscape:connector-curvature="0"
       id="path950"
       style="font-style:normal;font-variant:normal;font-weight:normal;font-stretch:normal;font-size:3.6336236px;font-family:Sniglet;-inkscape-font-specification:'Sniglet, Normal';font-variant-ligatures:normal;font-variant-caps:normal;font-variant-numeric:normal;font-feature-settings:normal;text-align:center;writing-mode:lr-tb;text-anchor:middle;stroke-width:0.07000482;fill:#c8c8c8;fill-opacity:1"
       d="m 30.090914,63.979372 v 0.207117 c 0,0.05814 -0.0012,0.113856 -0.0036,0.167147 0,0.05329 -0.0012,0.106587 -0.0036,0.159879 -0.0024,0.05329 -0.0048,0.112643 -0.0073,0.178048 0.167147,-0.01938 0.297957,-0.03513 0.392432,-0.04724 0.09447,-0.01211 0.168358,-0.0218 0.221651,-0.02907 0.05571,-0.0073 0.09811,-0.01211 0.127177,-0.01453 0.03149,-0.0024 0.06783,-0.0036 0.109008,-0.0036 0.106587,0 0.15988,0.05208 0.15988,0.156246 0,0.04118 -0.0218,0.0763 -0.06541,0.105375 -0.04118,0.02907 -0.09447,0.0545 -0.159879,0.07631 -0.06298,0.01938 -0.134441,0.03634 -0.214384,0.05087 -0.07752,0.01211 -0.153823,0.02059 -0.228918,0.02544 -0.07267,0.0073 -0.139289,0.01211 -0.199849,0.01453 -0.05814,0.0024 -0.09932,0.0036 -0.123544,0.0036 -0.08721,0 -0.155034,-0.0061 -0.203483,-0.01817 -0.04845,-0.0097 -0.08478,-0.04118 -0.109008,-0.09447 -0.02423,-0.05571 -0.03997,-0.139286 -0.04724,-0.25072 -0.0049,-0.11143 -0.0073,-0.268887 -0.0073,-0.472371 v -0.523242 c 0,-0.152612 0.0012,-0.289478 0.0036,-0.410599 0.0024,-0.12112 0.0036,-0.228918 0.0036,-0.323393 0.0024,-0.09447 0.006,-0.180469 0.0109,-0.257987 0.0049,-0.09932 0.02182,-0.163512 0.05087,-0.192582 0.02907,-0.03149 0.0654,-0.04724 0.109009,-0.04724 0.02423,0 0.04482,0.0024 0.06177,0.0073 0.01938,0.0024 0.03634,0.01209 0.05087,0.02907 0.01453,0.01696 0.02543,0.04118 0.0327,0.07267 0.0097,0.03149 0.01574,0.07631 0.01817,0.134444 0.0097,0.213173 0.01574,0.423923 0.01817,0.63225 0.0024,0.208328 0.0036,0.429979 0.0036,0.664953 z" />
    <path
       sodipodi:nodetypes="ccccscccscccscccccccccscccscccsccccc"
       inkscape:connector-curvature="0"
       id="path952"
       style="font-style:normal;font-variant:normal;font-weight:normal;font-stretch:normal;font-size:3.6336236px;font-family:Sniglet;-inkscape-font-specification:'Sniglet, Normal';font-variant-ligatures:normal;font-variant-caps:normal;font-variant-numeric:normal;font-feature-settings:normal;text-align:center;writing-mode:lr-tb;text-anchor:middle;stroke-width:0.07000482;fill:#c8c8c8;fill-opacity:1"
       d="m 32.163328,65.02949 c -0.145345,0 -0.282211,-0.02907 -0.410599,-0.08721 -0.125966,-0.05814 -0.236186,-0.141713 -0.33066,-0.25072 -0.09447,-0.111431 -0.169569,-0.247086 -0.225285,-0.406966 -0.05329,-0.159879 -0.07994,-0.34156 -0.07994,-0.545044 0,-0.19137 0.02301,-0.366995 0.06904,-0.526875 0.04845,-0.159879 0.118697,-0.297957 0.21075,-0.414233 0.09447,-0.116276 0.21075,-0.205905 0.348828,-0.268888 0.138077,-0.06541 0.297957,-0.09811 0.479638,-0.09811 0.147767,0 0.288267,0.02665 0.4215,0.07994 0.133233,0.05329 0.249509,0.133234 0.348828,0.23982 0.101741,0.106586 0.181681,0.239819 0.239819,0.399698 0.05814,0.15988 0.08721,0.346406 0.08721,0.559578 0,0.176837 -0.02422,0.345195 -0.07267,0.505074 -0.04603,0.15988 -0.117488,0.30038 -0.214384,0.4215 -0.09447,0.118699 -0.214384,0.214384 -0.359729,0.287056 -0.145345,0.07025 -0.316125,0.105376 -0.512341,0.105376 z m 0.0073,-0.341561 c 0.133233,0 0.249508,-0.02665 0.348827,-0.07994 0.09932,-0.05571 0.181682,-0.128385 0.247087,-0.218017 0.06541,-0.08963 0.113855,-0.192582 0.145345,-0.308858 0.03149,-0.118698 0.04724,-0.239819 0.04724,-0.363363 0,-0.150189 -0.02059,-0.283422 -0.06177,-0.399698 -0.03876,-0.118698 -0.09205,-0.218017 -0.159879,-0.297957 -0.06783,-0.07994 -0.146557,-0.1405 -0.236186,-0.181681 -0.08963,-0.04361 -0.185315,-0.06541 -0.287056,-0.06541 -0.121121,0 -0.227707,0.02544 -0.319759,0.07631 -0.08963,0.05087 -0.165935,0.119913 -0.228918,0.207117 -0.06056,0.08721 -0.106586,0.19016 -0.138078,0.308858 -0.03149,0.116276 -0.04724,0.241031 -0.04724,0.374263 0,0.142923 0.01817,0.273734 0.0545,0.392432 0.03633,0.116276 0.08478,0.215595 0.145345,0.297957 0.06298,0.08236 0.136864,0.146556 0.221651,0.192582 0.08479,0.0436 0.174414,0.0654 0.268889,0.0654 z" />
    <path
       sodipodi:nodetypes="ccscccccccccscscccccccscccccccsccccccscsccccscc"
       inkscape:connector-curvature="0"
       id="path954"
       style="font-style:normal;font-variant:normal;font-weight:normal;font-stretch:normal;font-size:3.6336236px;font-family:Sniglet;-inkscape-font-specification:'Sniglet, Normal';font-variant-ligatures:normal;font-variant-caps:normal;font-variant-numeric:normal;font-feature-settings:normal;text-align:center;writing-mode:lr-tb;text-anchor:middle;stroke-width:0.07000482;fill:#c8c8c8;fill-opacity:1"
       d="m 34.612277,63.140005 c 0.01453,-0.03391 0.03633,-0.06177 0.0654,-0.08357 0.03149,-0.0218 0.0642,-0.0327 0.09811,-0.0327 0.03149,0 0.06177,0.0109 0.09084,0.0327 0.02907,0.01938 0.05208,0.04603 0.06904,0.07994 0.09205,0.188948 0.182892,0.393642 0.272521,0.614082 0.08963,0.218018 0.17078,0.425134 0.243453,0.62135 0.04118,-0.30038 0.08599,-0.603182 0.134444,-0.908406 0.04845,-0.305224 0.102951,-0.597125 0.163513,-0.875703 0.0073,-0.03149 0.01817,-0.05693 0.0327,-0.07631 0.01453,-0.0218 0.03028,-0.03755 0.04724,-0.04724 0.01696,-0.01211 0.03392,-0.02059 0.05087,-0.02543 0.01938,-0.0049 0.03513,-0.0073 0.04724,-0.0073 0.04118,0 0.07509,0.01211 0.101741,0.03634 0.02665,0.0218 0.03997,0.05208 0.03997,0.09084 0,0.0436 -0.0073,0.121117 -0.0218,0.232551 -0.01453,0.109009 -0.03391,0.237397 -0.05814,0.385165 -0.02423,0.145345 -0.05208,0.300379 -0.08357,0.465103 -0.02907,0.164725 -0.05814,0.323393 -0.08721,0.476005 -0.02907,0.152612 -0.05692,0.291901 -0.08357,0.417867 -0.02665,0.125966 -0.04845,0.221651 -0.06541,0.287056 -0.01453,0.05571 -0.03633,0.09811 -0.0654,0.127177 -0.02907,0.02665 -0.07146,0.03997 -0.127177,0.03997 -0.05814,0 -0.107799,-0.02544 -0.148978,-0.07631 -0.03876,-0.05329 -0.08236,-0.135655 -0.130811,-0.247087 -0.04603,-0.11143 -0.101742,-0.253142 -0.167146,-0.425134 -0.06541,-0.174414 -0.150191,-0.382741 -0.254354,-0.624983 -0.106586,0.242242 -0.193793,0.450569 -0.261621,0.624983 -0.06541,0.174414 -0.122333,0.317337 -0.17078,0.428768 -0.04603,0.111432 -0.08963,0.193794 -0.130811,0.247086 -0.04118,0.05087 -0.08963,0.07631 -0.145345,0.07631 -0.0969,0 -0.16109,-0.05572 -0.192582,-0.167146 -0.01938,-0.06541 -0.04239,-0.159881 -0.06904,-0.283423 -0.02665,-0.125965 -0.0545,-0.265254 -0.08357,-0.417867 -0.02665,-0.152612 -0.0545,-0.310069 -0.08357,-0.472371 -0.02907,-0.164724 -0.0545,-0.319758 -0.07631,-0.465104 -0.0218,-0.145344 -0.03997,-0.272521 -0.0545,-0.38153 -0.01211,-0.111431 -0.01817,-0.188948 -0.01817,-0.232552 0,-0.04118 0.01332,-0.07509 0.03997,-0.101741 0.02665,-0.02665 0.06419,-0.03997 0.112643,-0.03997 0.03391,0 0.06662,0.0109 0.09811,0.0327 0.03149,0.01938 0.05451,0.06056 0.06904,0.123544 0.05814,0.278578 0.109011,0.570479 0.152612,0.875703 0.04603,0.305224 0.09448,0.608026 0.145345,0.908406 0.07509,-0.176836 0.15019,-0.364574 0.225285,-0.563212 0.0751,-0.198638 0.168358,-0.4215 0.279789,-0.668587 z" />
    <path
       sodipodi:nodetypes="ccscccccssccccccscccscccsccscccsccccccccccccccsscscccsscccc"
       inkscape:connector-curvature="0"
       id="path956"
       style="font-style:normal;font-variant:normal;font-weight:normal;font-stretch:normal;font-size:3.6336236px;font-family:Sniglet;-inkscape-font-specification:'Sniglet, Normal';font-variant-ligatures:normal;font-variant-caps:normal;font-variant-numeric:normal;font-feature-settings:normal;text-align:center;writing-mode:lr-tb;text-anchor:middle;stroke-width:0.07000482;fill:#c8c8c8;fill-opacity:1"
       d="m 36.399168,64.440843 c -0.0049,-0.07752 -0.0097,-0.182892 -0.01453,-0.316126 -0.0049,-0.133232 -0.0073,-0.270099 -0.0073,-0.410599 v -0.247087 l 0.0073,-0.265254 c 0.0049,-0.179258 0.01577,-0.319758 0.0327,-0.4215 0.01938,-0.101742 0.05572,-0.178048 0.109009,-0.228919 0.05571,-0.05087 0.133231,-0.08236 0.232552,-0.09447 0.09932,-0.01211 0.231341,-0.01817 0.396065,-0.01817 h 0.07631 c 0.05087,0 0.111434,0.0012 0.181681,0.0036 0.07025,0 0.142923,0.0012 0.218018,0.0036 0.07752,0.0024 0.141711,0.0048 0.192582,0.0073 0.05329,0.0049 0.09569,0.01213 0.127177,0.0218 0.03391,0.0073 0.05935,0.01817 0.07631,0.0327 0.01696,0.01211 0.02786,0.02786 0.0327,0.04724 0.0049,0.01695 0.0073,0.03633 0.0073,0.05814 0,0.05571 -0.01575,0.09689 -0.04724,0.123543 -0.03149,0.02423 -0.09569,0.03997 -0.192582,0.04724 -0.04845,0.0049 -0.119908,0.0085 -0.214383,0.0109 h -0.283423 c -0.0969,0 -0.184104,0.0012 -0.261621,0.0036 h -0.145345 c -0.06298,0.0024 -0.107795,0.01693 -0.134444,0.0436 -0.02423,0.02423 -0.03634,0.08358 -0.03634,0.178048 0,0.0218 0.0012,0.07509 0.0036,0.159879 0.0049,0.08236 0.0073,0.198638 0.0073,0.348828 h 0.30159 c 0.128388,0 0.232552,0.0024 0.312492,0.0073 0.08236,0.0024 0.145345,0.0097 0.188948,0.0218 0.04603,0.01211 0.07752,0.03149 0.09447,0.05814 0.01696,0.02665 0.02544,0.06177 0.02544,0.105375 0,0.0218 -0.0024,0.04239 -0.0073,0.06177 -0.0024,0.01696 -0.01209,0.03271 -0.02907,0.04724 -0.01696,0.01211 -0.04118,0.02301 -0.07267,0.0327 -0.03149,0.0073 -0.07631,0.01332 -0.134444,0.01817 -0.07025,0.0049 -0.136866,0.0085 -0.199849,0.0109 H 37.06049 36.755265 v 0.130811 0.156246 0.156245 c 0.0024,0.05087 0.0048,0.09206 0.0073,0.123544 0.0024,0.03876 0.0072,0.07146 0.01453,0.09811 0.0097,0.02665 0.02544,0.04845 0.04724,0.06541 0.02423,0.01695 0.05814,0.02907 0.101742,0.03634 0.04603,0.0073 0.106587,0.0109 0.181681,0.0109 h 0.781229 c 0.08478,0 0.138078,0.01575 0.159879,0.04724 0.0218,0.03149 0.0327,0.07389 0.0327,0.127177 0,0.0436 -0.0097,0.07751 -0.02907,0.101741 -0.01938,0.0218 -0.06662,0.03755 -0.141711,0.04724 -0.07267,0.01211 -0.182893,0.01938 -0.33066,0.0218 -0.145345,0.0024 -0.346405,0.0036 -0.603182,0.0036 -0.109009,0 -0.198638,-0.0097 -0.268888,-0.02907 -0.07025,-0.01938 -0.127177,-0.05208 -0.17078,-0.09811 -0.04361,-0.04603 -0.07631,-0.105376 -0.09811,-0.178048 -0.01938,-0.07509 -0.0327,-0.165935 -0.03997,-0.272521 z" />
    <path
       sodipodi:nodetypes="ccccssscccscscccccccscccscccscscccscccscccccccsccccc"
       inkscape:connector-curvature="0"
       id="path958"
       style="font-style:normal;font-variant:normal;font-weight:normal;font-stretch:normal;font-size:3.6336236px;font-family:Sniglet;-inkscape-font-specification:'Sniglet, Normal';font-variant-ligatures:normal;font-variant-caps:normal;font-variant-numeric:normal;font-feature-settings:normal;text-align:center;writing-mode:lr-tb;text-anchor:middle;stroke-width:0.07000482;fill:#c8c8c8;fill-opacity:1"
       d="m 39.258205,62.427815 c 0.06783,0 0.145345,0.0061 0.232552,0.01817 0.08963,0.0097 0.173203,0.02907 0.25072,0.05814 0.07752,0.02665 0.142923,0.06298 0.196216,0.109009 0.05329,0.0436 0.07994,0.0981 0.07994,0.163513 0,0.03876 -0.0109,0.07146 -0.0327,0.09811 -0.0218,0.02665 -0.05692,0.03997 -0.105375,0.03997 -0.03633,0 -0.07388,-0.0073 -0.112642,-0.0218 -0.03633,-0.01453 -0.07873,-0.02907 -0.127177,-0.0436 -0.04603,-0.01696 -0.100531,-0.03271 -0.163513,-0.04724 -0.06056,-0.01453 -0.132021,-0.0218 -0.214384,-0.0218 -0.159879,0 -0.278578,0.02907 -0.356095,0.08721 -0.07509,0.05571 -0.112643,0.133231 -0.112643,0.232551 0,0.06783 0.01696,0.124755 0.05087,0.170781 0.03391,0.04603 0.07873,0.086 0.134444,0.119909 0.05814,0.03149 0.122334,0.05814 0.192582,0.07994 0.07267,0.0218 0.146556,0.04239 0.221651,0.06177 0.08478,0.0218 0.168358,0.04845 0.25072,0.07994 0.08478,0.03149 0.15988,0.07267 0.225285,0.123544 0.06541,0.05087 0.117489,0.115068 0.156246,0.192582 0.04118,0.07752 0.06177,0.175625 0.06177,0.294323 0,0.123544 -0.02301,0.234975 -0.06904,0.334293 -0.04603,0.0969 -0.10901,0.180471 -0.188949,0.250721 -0.07994,0.06783 -0.175625,0.121121 -0.287056,0.159879 -0.111431,0.03633 -0.232552,0.0545 -0.363362,0.0545 -0.07267,0 -0.157457,-0.0073 -0.254354,-0.0218 -0.0969,-0.01211 -0.188949,-0.03392 -0.276156,-0.06541 -0.08721,-0.03391 -0.16109,-0.07752 -0.221651,-0.13081 -0.06056,-0.05571 -0.09084,-0.123541 -0.09084,-0.203483 0,-0.04845 0.01211,-0.08721 0.03634,-0.116276 0.02665,-0.02907 0.06541,-0.0436 0.116276,-0.0436 0.04118,0 0.07509,0.0085 0.101741,0.02544 0.02665,0.01453 0.04966,0.03149 0.06904,0.05087 0.07267,0.06298 0.155035,0.105372 0.247087,0.127176 0.09205,0.0218 0.186525,0.0327 0.283422,0.0327 0.05571,0 0.113851,-0.0036 0.174414,-0.0109 0.06299,-0.0097 0.119914,-0.02785 0.170781,-0.0545 0.05087,-0.02665 0.09327,-0.06419 0.127176,-0.112642 0.03391,-0.05087 0.05087,-0.118701 0.05087,-0.203483 0,-0.07752 -0.01575,-0.1405 -0.04724,-0.188949 -0.02907,-0.05087 -0.06904,-0.09326 -0.11991,-0.127177 -0.05087,-0.03391 -0.111434,-0.06177 -0.181681,-0.08357 -0.06783,-0.0218 -0.141711,-0.0436 -0.221651,-0.0654 -0.08963,-0.02423 -0.178047,-0.05087 -0.265254,-0.07994 -0.08721,-0.02907 -0.164725,-0.06782 -0.232552,-0.116276 -0.06783,-0.05087 -0.123544,-0.113856 -0.167147,-0.188948 -0.04118,-0.07752 -0.06177,-0.175625 -0.06177,-0.294324 0,-0.118698 0.0218,-0.222861 0.0654,-0.312491 0.0436,-0.08963 0.102949,-0.164725 0.178047,-0.225285 0.07509,-0.06056 0.163514,-0.106586 0.265255,-0.138078 0.104164,-0.03149 0.215595,-0.04724 0.334293,-0.04724 z" />
    <path
       sodipodi:nodetypes="ccccccssccccccscccsscccscccsccccccsscccccsccc"
       inkscape:connector-curvature="0"
       id="path960"
       style="font-style:normal;font-variant:normal;font-weight:normal;font-stretch:normal;font-size:3.6336236px;font-family:Sniglet;-inkscape-font-specification:'Sniglet, Normal';font-variant-ligatures:normal;font-variant-caps:normal;font-variant-numeric:normal;font-feature-settings:normal;text-align:center;writing-mode:lr-tb;text-anchor:middle;stroke-width:0.07000482;fill:#c8c8c8;fill-opacity:1"
       d="m 41.899963,62.78391 c -0.06783,0.0049 -0.1405,0.0085 -0.218017,0.0109 -0.0751,0.0024 -0.158669,0.0048 -0.25072,0.0073 0.0024,0.06541 0.0048,0.127179 0.0073,0.185315 0.0024,0.05571 0.0048,0.11264 0.0073,0.17078 0.0024,0.05814 0.0036,0.118701 0.0036,0.181682 0.0024,0.06298 0.0036,0.13323 0.0036,0.21075 v 0.316125 c 0,0.09932 -0.0012,0.19985 -0.0036,0.301591 -0.0024,0.09932 -0.0048,0.199849 -0.0073,0.301591 -0.0024,0.101742 -0.006,0.207117 -0.0109,0.316125 -0.0024,0.05814 -0.0085,0.102955 -0.01817,0.134444 -0.0073,0.03149 -0.01817,0.05572 -0.0327,0.07267 -0.01453,0.01696 -0.03149,0.02665 -0.05087,0.02907 -0.01938,0.0049 -0.04118,0.0073 -0.0654,0.0073 -0.04361,0 -0.08115,-0.01453 -0.112642,-0.0436 -0.02907,-0.03149 -0.04602,-0.0969 -0.05087,-0.196216 -0.0049,-0.08721 -0.0085,-0.179258 -0.0109,-0.276155 0,-0.0969 -0.0012,-0.20106 -0.0036,-0.312492 -0.0024,-0.11143 -0.0036,-0.23134 -0.0036,-0.359728 V 63.40896 63.060133 c 0.0024,-0.09932 0.006,-0.185315 0.0109,-0.257988 H 40.94432 c -0.101741,0 -0.188948,-0.0012 -0.261621,-0.0036 -0.07025,-0.0024 -0.128388,-0.0085 -0.174414,-0.01817 -0.04603,-0.01211 -0.07994,-0.03028 -0.101741,-0.05451 -0.01938,-0.02423 -0.02907,-0.05814 -0.02907,-0.101741 0,-0.0218 0.0024,-0.04118 0.0073,-0.05814 0.0049,-0.01938 0.01577,-0.03634 0.0327,-0.05087 0.01696,-0.01696 0.03997,-0.03028 0.06904,-0.03997 0.03149,-0.0097 0.07146,-0.01695 0.119909,-0.0218 0.04603,-0.0024 0.08721,-0.0048 0.123543,-0.0073 0.03633,-0.0024 0.07267,-0.0048 0.109009,-0.0073 0.03633,-0.0024 0.07388,-0.0036 0.112642,-0.0036 h 0.134444 c 0.142923,0 0.277367,0.0012 0.403333,0.0036 0.128388,0.0024 0.264043,0.0072 0.406965,0.01453 0.05814,0.0049 0.102955,0.01213 0.134445,0.0218 0.03149,0.0073 0.05572,0.01817 0.07267,0.0327 0.01696,0.01453 0.02665,0.03149 0.02907,0.05087 0.0049,0.01938 0.0073,0.04118 0.0073,0.0654 0,0.0436 -0.01575,0.07994 -0.04724,0.109008 -0.02907,0.02907 -0.09326,0.04602 -0.192582,0.05087 z" />
  </g>
  <g
     aria-label="1"
     style="font-style:normal;font-weight:normal;font-size:10.58336926px;line-height:1.25;font-family:sans-serif;letter-spacing:0px;word-spacing:0px;fill:#c8c8c8;fill-opacity:1;stroke:none;stroke-width:0.26458424"
     id="text838"
     transform="translate(0,-2.3332479)">
    <path
       d="m 3.5906499,110.26056 q -0.00727,-0.13081 -0.010901,-0.27252 0,-0.14171 -0.00363,-0.30522 -0.00363,-0.16352 -0.00363,-0.35246 0,-0.19259 0,-0.42877 v -0.45421 l -0.2180174,0.11265 q -0.090841,0.0581 -0.145345,0.069 -0.050871,0.0109 -0.1126423,0.0109 -0.054504,0 -0.098108,-0.0472 -0.03997,-0.0472 -0.03997,-0.11264 0,-0.0654 0.043604,-0.11265 0.047237,-0.0509 0.1090087,-0.0908 0.07994,-0.0545 0.1707803,-0.109 0.094474,-0.0545 0.1816812,-0.0981 0.087207,-0.0472 0.1598794,-0.0727 0.076306,-0.0291 0.1271768,-0.0291 0.025435,0 0.050871,0.007 0.029069,0.007 0.050871,0.0291 0.025435,0.0218 0.03997,0.069 0.018168,0.0436 0.021802,0.11991 0.00727,0.13081 0.010901,0.22892 0.00363,0.0981 0.00727,0.19258 0.00363,0.0908 0.00363,0.19258 0,0.10174 0,0.23619 0,0.16351 0,0.31249 0,0.14898 -0.00363,0.29432 -0.00363,0.14535 -0.00727,0.29433 -0.00363,0.14898 -0.010901,0.31249 -0.00363,0.0872 -0.018168,0.13444 -0.010901,0.0472 -0.032703,0.0727 -0.021802,0.0254 -0.050871,0.0291 -0.025435,0.007 -0.061772,0.007 -0.065405,0 -0.1090087,-0.0436 -0.043603,-0.0472 -0.050871,-0.19622 z"
       style="font-style:normal;font-variant:normal;font-weight:normal;font-stretch:normal;font-size:3.6336236px;font-family:Sniglet;-inkscape-font-specification:'Sniglet, Normal';font-variant-ligatures:normal;font-variant-caps:normal;font-variant-numeric:normal;font-feature-settings:normal;text-align:start;writing-mode:lr-tb;text-anchor:start;stroke-width:0.26458424;fill:#c8c8c8;fill-opacity:1"
       id="path886"
       inkscape:connector-curvature="0" />
  </g>
  <g
     aria-label="2"
     style="font-style:normal;font-weight:normal;font-size:10.58336926px;line-height:1.25;font-family:sans-serif;letter-spacing:0px;word-spacing:0px;fill:#c8c8c8;fill-opacity:1;stroke:none;stroke-width:0.26458424"
     id="text838-4"
     transform="translate(0,-2.3332479)">
    <path
       d="m 3.4494504,96.276559 q -0.1308104,0 -0.2180174,0.02907 -0.087207,0.02544 -0.1453449,0.06904 -0.058138,0.0436 -0.094474,0.09084 -0.032703,0.04724 -0.065405,0.09084 -0.029069,0.0436 -0.065405,0.07267 -0.032703,0.02544 -0.083573,0.02544 -0.087207,0 -0.1235432,-0.0436 -0.032703,-0.04724 -0.032703,-0.123544 0,-0.159879 0.1199095,-0.297957 0.036336,-0.0436 0.098108,-0.09084 0.065405,-0.05087 0.1526122,-0.09084 0.090841,-0.03997 0.2071165,-0.0654 0.1199096,-0.02907 0.2688881,-0.02907 0.396065,0 0.6140824,0.192582 0.2180174,0.192582 0.2180174,0.54141 0,0.06904 -0.014534,0.152612 -0.010901,0.08357 -0.047237,0.174414 -0.032703,0.09084 -0.094474,0.188948 -0.061772,0.09811 -0.1635131,0.19985 -0.090841,0.09084 -0.192582,0.167146 -0.1017415,0.07631 -0.2107502,0.152612 -0.1090087,0.07631 -0.2289182,0.163513 -0.116276,0.08357 -0.2361856,0.192583 0.116276,0.06177 0.25072,0.07994 0.1344441,0.01817 0.3015908,0.01817 0.1562458,0 0.25072,-0.0073 0.094474,-0.0073 0.1526122,-0.01817 0.058138,-0.0109 0.090841,-0.01817 0.032703,-0.0073 0.069039,-0.0073 0.1344441,0 0.1344441,0.123543 0,0.109009 -0.090841,0.167146 -0.090841,0.05814 -0.2180174,0.08721 -0.1271768,0.02544 -0.2616209,0.02907 -0.1344441,0.0073 -0.221651,0.0073 -0.047237,0 -0.1344441,-0.0073 -0.083573,-0.0036 -0.1816812,-0.01817 -0.098108,-0.01453 -0.1998492,-0.03997 -0.098108,-0.02907 -0.1816812,-0.07267 -0.07994,-0.04724 -0.1308105,-0.112642 -0.050871,-0.06904 -0.050871,-0.163513 0,-0.127177 0.090841,-0.23982 0.094474,-0.116275 0.2325519,-0.225284 0.1380777,-0.112642 0.2979571,-0.221651 0.1598794,-0.112643 0.2979571,-0.228918 0.1380777,-0.11991 0.2289183,-0.247087 0.094474,-0.127177 0.094474,-0.276155 0,-0.185315 -0.1271768,-0.276156 -0.1235432,-0.09447 -0.3560951,-0.09447 z"
       style="font-style:normal;font-variant:normal;font-weight:normal;font-stretch:normal;font-size:3.63362336px;font-family:Sniglet;-inkscape-font-specification:'Sniglet, Normal';font-variant-ligatures:normal;font-variant-caps:normal;font-variant-numeric:normal;font-feature-settings:normal;text-align:start;writing-mode:lr-tb;text-anchor:start;stroke-width:0.26458424;fill:#c8c8c8;fill-opacity:1"
       id="path889"
       inkscape:connector-curvature="0" />
  </g>
  <g
     aria-label="3"
     style="font-style:normal;font-weight:normal;font-size:10.58336926px;line-height:1.25;font-family:sans-serif;letter-spacing:0px;word-spacing:0px;fill:#c8c8c8;fill-opacity:1;stroke:none;stroke-width:0.26458424"
     id="text838-4-0"
     transform="translate(0,-2.3332479)">
    <path
       d="m 2.9073848,84.298319 q -0.116276,0 -0.1707803,-0.05814 -0.054504,-0.06177 -0.054504,-0.123543 0,-0.06541 0.061772,-0.105376 0.061772,-0.0436 0.1635131,-0.0654 0.1017414,-0.02544 0.2325519,-0.0327 0.1308104,-0.0109 0.2652545,-0.0109 0.1126423,0 0.25072,0.0109 0.1380777,0.0073 0.2579873,0.0436 0.1199095,0.0327 0.1998492,0.101742 0.07994,0.0654 0.07994,0.181681 0,0.09084 -0.069039,0.188948 -0.069039,0.09811 -0.1598794,0.185315 -0.090841,0.08721 -0.1816812,0.156246 -0.087207,0.0654 -0.1271768,0.09447 0.3851641,0 0.559578,0.192582 0.1744139,0.192582 0.1744139,0.552311 0,0.225284 -0.083573,0.392431 -0.07994,0.167147 -0.2180174,0.279789 -0.1344441,0.109009 -0.3124916,0.163513 -0.1744139,0.0545 -0.3597287,0.0545 -0.1526122,0 -0.3015908,-0.02544 -0.1453449,-0.02544 -0.2616209,-0.08721 -0.1162759,-0.0654 -0.1889484,-0.17078 -0.069039,-0.109009 -0.069039,-0.268888 0,-0.167147 0.1816811,-0.167147 0.054504,0 0.083573,0.02907 0.032703,0.02544 0.054504,0.0654 0.025435,0.03634 0.050871,0.08357 0.025435,0.04724 0.072672,0.08721 0.050871,0.03634 0.1308105,0.0654 0.083573,0.02544 0.2180174,0.02544 0.105375,0 0.2071165,-0.0218 0.1017415,-0.02543 0.1816812,-0.07994 0.07994,-0.0545 0.1271768,-0.145345 0.050871,-0.09447 0.050871,-0.232552 0,-0.268888 -0.1126423,-0.381531 -0.1090087,-0.112642 -0.308858,-0.112642 -0.050871,0 -0.094474,0.01817 -0.043603,0.01453 -0.087207,0.03634 -0.043603,0.01817 -0.090841,0.03634 -0.047237,0.01453 -0.1053751,0.01453 -0.058138,0 -0.1017415,-0.05087 -0.043604,-0.0545 -0.043604,-0.138077 0,-0.05814 0.054504,-0.134444 0.058138,-0.07631 0.1562458,-0.174414 0.1017415,-0.09811 0.2434528,-0.214384 0.1417113,-0.11991 0.3161252,-0.257987 -0.036336,0 -0.087207,0 -0.047237,0 -0.098108,0.0036 -0.047237,0 -0.094474,0 -0.047237,0 -0.07994,0 -0.1380777,0 -0.2725218,0 -0.1308104,-0.0036 -0.2398191,-0.0036 z"
       style="font-style:normal;font-variant:normal;font-weight:normal;font-stretch:normal;font-size:3.63362336px;font-family:Sniglet;-inkscape-font-specification:'Sniglet, Normal';font-variant-ligatures:normal;font-variant-caps:normal;font-variant-numeric:normal;font-feature-settings:normal;text-align:start;writing-mode:lr-tb;text-anchor:start;stroke-width:0.26458424;fill:#c8c8c8;fill-opacity:1"
       id="path892"
       inkscape:connector-curvature="0" />
  </g>
  <g
     aria-label="4"
     style="font-style:normal;font-weight:normal;font-size:10.58336926px;line-height:1.25;font-family:sans-serif;letter-spacing:0px;word-spacing:0px;fill:#c8c8c8;fill-opacity:1;stroke:none;stroke-width:0.26458424"
     id="text838-4-7"
     transform="translate(0,-2.3332479)">
    <path
       d="m 4.0660294,73.722663 q -0.00363,0.138078 -0.00363,0.301591 0,0.163513 -0.010901,0.305224 -0.00727,0.109009 -0.050871,0.141711 -0.03997,0.02907 -0.1126423,0.02907 -0.065405,0 -0.1017415,-0.02544 -0.032703,-0.0218 -0.050871,-0.09811 -0.014535,-0.07994 -0.018168,-0.228918 -0.00363,-0.152612 -0.00363,-0.406966 -0.1199095,0 -0.2289182,0.0036 -0.1090087,0.0036 -0.2107502,0.0036 -0.1526122,0 -0.279789,-0.0073 -0.1235432,-0.0073 -0.2143838,-0.02544 -0.087207,-0.0218 -0.1380776,-0.05814 -0.047237,-0.03634 -0.047237,-0.09447 0,-0.07994 0.065405,-0.19985 0.065405,-0.123543 0.163513,-0.265254 0.098108,-0.141712 0.2071166,-0.287057 0.1126423,-0.148978 0.2071165,-0.276155 0.043603,-0.05814 0.1235432,-0.159879 0.083573,-0.105375 0.1780475,-0.207117 0.094474,-0.105375 0.1889484,-0.181681 0.094474,-0.07631 0.1598795,-0.07631 0.061772,0 0.1090087,0.03997 0.047237,0.03997 0.054504,0.185315 0.014534,0.21075 0.018168,0.443302 0.00363,0.228918 0.00363,0.454203 v 0.359728 q 0.1017414,0.0073 0.163513,0.01817 0.061772,0.0109 0.094474,0.0327 0.032703,0.01817 0.043604,0.04724 0.010901,0.02907 0.010901,0.07267 0,0.09084 -0.083573,0.123543 -0.083573,0.02907 -0.2361855,0.03634 z M 3.7099343,72.534468 q -0.1598794,0.192582 -0.2725217,0.33066 -0.1090087,0.134444 -0.1889484,0.232552 -0.076306,0.09811 -0.1344441,0.167146 -0.054504,0.06904 -0.098108,0.123544 0.1671466,-0.0073 0.3415606,-0.0073 0.1780475,-0.0036 0.3524614,-0.0036 z"
       style="font-style:normal;font-variant:normal;font-weight:normal;font-stretch:normal;font-size:3.63362336px;font-family:Sniglet;-inkscape-font-specification:'Sniglet, Normal';font-variant-ligatures:normal;font-variant-caps:normal;font-variant-numeric:normal;font-feature-settings:normal;text-align:start;writing-mode:lr-tb;text-anchor:start;stroke-width:0.26458424;fill:#c8c8c8;fill-opacity:1"
       id="path895"
       inkscape:connector-curvature="0" />
  </g>
  <g
     aria-label="LOCK N th"
     style="font-style:normal;font-weight:normal;font-size:10.58336926px;line-height:1.25;font-family:sans-serif;letter-spacing:0px;word-spacing:0px;fill:#c8c8c8;fill-opacity:1;stroke:none;stroke-width:0.26458424"
     id="text856">
    <path
       d="m 3.3551163,60.197301 q 0,0.116276 0,0.207117 0,0.08721 -0.00363,0.167147 0,0.07994 -0.00363,0.159879 -0.00363,0.07994 -0.00727,0.178048 0.25072,-0.02907 0.3924313,-0.04724 0.1417113,-0.01817 0.221651,-0.02907 0.083573,-0.0109 0.1271769,-0.01453 0.047237,-0.0036 0.1090087,-0.0036 0.1598794,0 0.1598794,0.156246 0,0.06177 -0.065405,0.105375 -0.061772,0.0436 -0.1598794,0.07631 -0.094474,0.02907 -0.2143838,0.05087 -0.116276,0.01817 -0.2289183,0.02544 -0.1090087,0.0109 -0.1998493,0.01453 -0.087207,0.0036 -0.1235432,0.0036 -0.1308105,0 -0.2034829,-0.01817 -0.072672,-0.01453 -0.1090088,-0.09447 -0.036336,-0.08357 -0.047237,-0.25072 -0.00727,-0.167146 -0.00727,-0.472371 0,-0.294323 0,-0.523242 0,-0.228918 0.00363,-0.410599 0.00363,-0.181681 0.00363,-0.323392 0.00363,-0.141712 0.010901,-0.257988 0.00727,-0.148978 0.050871,-0.192582 0.043604,-0.04724 0.1090087,-0.04724 0.036336,0 0.061772,0.0073 0.029069,0.0036 0.050871,0.02907 0.021802,0.02544 0.032703,0.07267 0.014534,0.04724 0.018168,0.134444 0.014534,0.319759 0.018168,0.63225 0.00363,0.312492 0.00363,0.664953 z"
       style="font-style:normal;font-variant:normal;font-weight:normal;font-stretch:normal;font-size:3.6336236px;font-family:Sniglet;-inkscape-font-specification:'Sniglet, Normal';font-variant-ligatures:normal;font-variant-caps:normal;font-variant-numeric:normal;font-feature-settings:normal;text-align:start;writing-mode:lr-tb;text-anchor:start;stroke-width:0.26458424;fill:#c8c8c8;fill-opacity:1"
       id="path875" />
    <path
       d="m 5.4275308,61.247419 q -0.2180174,0 -0.4105994,-0.08721 -0.1889485,-0.08721 -0.3306598,-0.25072 -0.1417113,-0.167147 -0.2252847,-0.406966 -0.07994,-0.239819 -0.07994,-0.545044 0,-0.287056 0.069039,-0.526875 0.072672,-0.239819 0.2107501,-0.414233 0.1417114,-0.174414 0.3488279,-0.268888 0.2071165,-0.09811 0.4796383,-0.09811 0.2216511,0 0.4215004,0.07994 0.1998493,0.07994 0.3488278,0.239819 0.1526122,0.159879 0.2398192,0.399698 0.087207,0.239819 0.087207,0.559578 0,0.265255 -0.072672,0.505074 -0.069039,0.239819 -0.2143838,0.4215 -0.1417113,0.178048 -0.3597288,0.287057 -0.2180174,0.105375 -0.5123409,0.105375 z m 0.00727,-0.341561 q 0.1998493,0 0.3488278,-0.07994 0.1489786,-0.08357 0.2470864,-0.218017 0.098108,-0.134444 0.145345,-0.308858 0.047237,-0.178048 0.047237,-0.363362 0,-0.225285 -0.061772,-0.399699 -0.058138,-0.178048 -0.1598795,-0.297957 -0.1017414,-0.11991 -0.2361855,-0.181681 -0.1344441,-0.06541 -0.2870563,-0.06541 -0.1816811,0 -0.3197588,0.07631 -0.1344441,0.07631 -0.2289183,0.207116 -0.090841,0.130811 -0.1380777,0.308858 -0.047237,0.174414 -0.047237,0.374263 0,0.214384 0.054504,0.392432 0.054504,0.174414 0.145345,0.297957 0.094474,0.123543 0.221651,0.192582 0.1271768,0.06541 0.2688882,0.06541 z"
       style="font-style:normal;font-variant:normal;font-weight:normal;font-stretch:normal;font-size:3.6336236px;font-family:Sniglet;-inkscape-font-specification:'Sniglet, Normal';font-variant-ligatures:normal;font-variant-caps:normal;font-variant-numeric:normal;font-feature-settings:normal;text-align:start;writing-mode:lr-tb;text-anchor:start;stroke-width:0.26458424;fill:#c8c8c8;fill-opacity:1"
       id="path877" />
    <path
       d="m 8.0092204,58.638477 q 0.1199096,0 0.2398192,0.0218 0.1235432,0.01817 0.221651,0.06177 0.098108,0.03997 0.1598795,0.101742 0.065405,0.05814 0.065405,0.138077 0,0.08357 -0.043604,0.127177 -0.043603,0.0436 -0.1090087,0.0436 -0.061772,0 -0.1090087,-0.01817 -0.047237,-0.0218 -0.1090087,-0.04724 -0.058138,-0.02544 -0.1417114,-0.0436 -0.083573,-0.0218 -0.221651,-0.0218 -0.1380777,0 -0.2652545,0.07267 -0.1235432,0.06904 -0.2180174,0.196215 -0.090841,0.123544 -0.145345,0.294324 -0.054504,0.17078 -0.054504,0.37063 0,0.247086 0.061772,0.425134 0.065405,0.178047 0.1671467,0.294323 0.1017414,0.112642 0.2289182,0.17078 0.1308105,0.0545 0.2616209,0.0545 0.1562459,0 0.2616209,-0.0327 0.1053751,-0.0327 0.1780476,-0.07267 0.076306,-0.03997 0.1308104,-0.07267 0.054504,-0.0327 0.1053751,-0.0327 0.061772,0 0.098108,0.03634 0.036336,0.0327 0.036336,0.119909 0,0.07267 -0.058138,0.148979 -0.054504,0.07267 -0.163513,0.134444 -0.1053751,0.05814 -0.2543537,0.09811 -0.1489786,0.03634 -0.3342934,0.03634 -0.2034829,0 -0.4069658,-0.07994 Q 7.3915044,61.083906 7.231625,60.92766 7.0753791,60.76778 6.9772713,60.531595 6.8791635,60.291776 6.8791635,59.97565 q 0,-0.316125 0.087207,-0.563211 0.090841,-0.247087 0.2434528,-0.417867 0.1562458,-0.174414 0.3597288,-0.265254 0.2071165,-0.09084 0.4396684,-0.09084 z"
       style="font-style:normal;font-variant:normal;font-weight:normal;font-stretch:normal;font-size:3.6336236px;font-family:Sniglet;-inkscape-font-specification:'Sniglet, Normal';font-variant-ligatures:normal;font-variant-caps:normal;font-variant-numeric:normal;font-feature-settings:normal;text-align:start;writing-mode:lr-tb;text-anchor:start;stroke-width:0.26458424;fill:#c8c8c8;fill-opacity:1"
       id="path879" />
    <path
       d="m 9.1487589,60.985798 q -0.00727,-0.130811 -0.010901,-0.272522 0,-0.141711 -0.00363,-0.305224 -0.00363,-0.163513 -0.00363,-0.352462 0,-0.192582 0,-0.428767 0,-0.257988 0.00363,-0.439669 0.00363,-0.185315 0.018168,-0.301591 0.018168,-0.116276 0.054504,-0.17078 0.036336,-0.0545 0.1017415,-0.0545 0.061772,0 0.1090087,0.03997 0.047237,0.03997 0.054504,0.185314 0.00727,0.130811 0.010901,0.232552 0.00363,0.101742 0.00727,0.203483 0.00363,0.09811 0.00363,0.207117 0,0.105375 0,0.239819 v 0.188948 l 0.7775959,-0.890237 q 0.152612,-0.174414 0.236185,-0.228919 0.08357,-0.05814 0.145345,-0.05814 0.07267,0 0.105375,0.03634 0.03634,0.03634 0.03634,0.09084 0,0.0218 -0.0073,0.0436 -0.0073,0.0218 -0.0327,0.06177 -0.0218,0.03634 -0.06904,0.09447 -0.04724,0.0545 -0.127177,0.141712 l -0.505074,0.548677 0.795764,1.13369 q 0.02907,0.03997 0.0436,0.08357 0.01817,0.0436 0.01817,0.08357 0,0.06904 -0.03997,0.112642 -0.03634,0.04724 -0.13081,0.04724 -0.07631,0 -0.138078,-0.0436 -0.05814,-0.03997 -0.109008,-0.119909 L 9.8028111,60.073758 9.4903195,60.415319 q -0.00363,0.138078 -0.00727,0.276155 -0.00363,0.138078 -0.010901,0.29069 -0.00363,0.08721 -0.018168,0.134444 -0.010901,0.04724 -0.032703,0.07267 -0.021802,0.02544 -0.050871,0.02907 -0.025435,0.0073 -0.061772,0.0073 -0.065405,0 -0.1090087,-0.0436 -0.043603,-0.04724 -0.050871,-0.196215 z"
       style="font-style:normal;font-variant:normal;font-weight:normal;font-stretch:normal;font-size:3.6336236px;font-family:Sniglet;-inkscape-font-specification:'Sniglet, Normal';font-variant-ligatures:normal;font-variant-caps:normal;font-variant-numeric:normal;font-feature-settings:normal;text-align:start;writing-mode:lr-tb;text-anchor:start;stroke-width:0.26458424;fill:#c8c8c8;fill-opacity:1"
       id="path881" />
    <path
       d="m 13.43388,61.040302 q -0.08357,-0.159879 -0.156246,-0.316125 -0.06904,-0.15988 -0.152612,-0.348828 -0.07994,-0.188948 -0.185315,-0.417867 -0.101741,-0.232552 -0.25072,-0.54141 -0.0545,0.272522 -0.09811,0.49054 -0.0436,0.214383 -0.08357,0.399698 -0.03997,0.185315 -0.07631,0.348828 -0.03634,0.163513 -0.07631,0.327026 -0.0218,0.08721 -0.0436,0.134444 -0.0218,0.04724 -0.05087,0.07267 -0.02544,0.02544 -0.05451,0.02907 -0.02907,0.0073 -0.06541,0.0073 -0.06541,0 -0.101741,-0.0436 -0.0327,-0.04724 -0.0109,-0.196215 0.06177,-0.399699 0.141711,-0.799397 0.07994,-0.403333 0.163513,-0.8321 0.05087,-0.243453 0.08357,-0.381531 0.0327,-0.138077 0.06541,-0.207116 0.0327,-0.06904 0.06904,-0.08721 0.03997,-0.01817 0.09811,-0.01817 0.05814,0 0.134444,0.09084 0.07994,0.08721 0.163513,0.232552 0.08357,0.145345 0.174414,0.334294 0.09084,0.188948 0.178048,0.388797 0.08721,0.19985 0.163513,0.396065 0.07994,0.196216 0.145345,0.356095 0.0327,-0.17078 0.07267,-0.374263 0.03997,-0.207116 0.09084,-0.457836 0.05814,-0.287057 0.09811,-0.472371 0.0436,-0.188949 0.07994,-0.297958 0.03997,-0.109008 0.08357,-0.152612 0.0436,-0.0436 0.109009,-0.0436 0.06177,0 0.101741,0.03997 0.03997,0.03997 0.01817,0.185314 -0.01817,0.130811 -0.03634,0.232552 -0.01454,0.101742 -0.0327,0.203483 -0.01453,0.09811 -0.03634,0.207117 -0.0218,0.105375 -0.05087,0.239819 -0.0327,0.163513 -0.06177,0.312492 -0.02907,0.148978 -0.06177,0.294323 -0.0327,0.145345 -0.06541,0.294324 -0.0327,0.148978 -0.07267,0.312491 -0.0218,0.08721 -0.0436,0.134444 -0.0218,0.04724 -0.05087,0.07267 -0.02543,0.02544 -0.0545,0.02907 -0.02907,0.0073 -0.06541,0.0073 -0.06177,0 -0.09811,-0.03634 -0.03634,-0.03634 -0.09811,-0.148979 z"
       style="font-style:italic;fill:#c8c8c8;fill-opacity:1"
       id="path883" />
    <path
       d="m 15.210789,60.515336 q -0.0085,-0.1778 -0.01129,-0.420512 0,-0.245534 0,-0.55598 -0.02822,0.0028 -0.06773,0.0028 -0.03669,0 -0.05927,0 -0.0508,0 -0.09313,-0.0028 -0.03951,-0.0028 -0.07056,-0.01693 -0.03104,-0.01411 -0.04798,-0.03951 -0.01693,-0.02822 -0.01693,-0.0762 0,-0.135467 0.2032,-0.135467 0.03105,0 0.0762,0 0.04515,0 0.0762,0.0056 0,-0.149579 0.0056,-0.23989 0.0056,-0.09031 0.01976,-0.13829 0.01693,-0.0508 0.04233,-0.06491 0.02822,-0.01693 0.07056,-0.01693 0.04516,0 0.07338,0.03104 0.02822,0.03104 0.04233,0.07902 0.01693,0.04798 0.01976,0.107245 0.0056,0.05927 0.0056,0.115711 0,0.03951 -0.0028,0.07338 0,0.03104 0,0.05644 0.03951,-0.01129 0.08184,-0.01129 0.04233,-0.0028 0.08184,-0.0028 0.104423,0 0.160867,0.03387 0.05645,0.03104 0.05645,0.104423 0,0.04516 -0.01976,0.07338 -0.01975,0.0254 -0.05362,0.03951 -0.03105,0.01411 -0.0762,0.01976 -0.04233,0.0028 -0.09313,0.0028 -0.02822,0 -0.06491,0 -0.03669,0 -0.06773,-0.0056 0,0.149578 0,0.273756 0,0.124178 -0.0028,0.23989 -0.0028,0.112889 -0.0056,0.225778 -0.0028,0.11289 -0.0085,0.23989 -0.0028,0.06773 -0.01411,0.104423 -0.0085,0.03669 -0.0254,0.05644 -0.01693,0.01976 -0.03951,0.0254 -0.01975,0.0028 -0.04798,0.0028 -0.0508,0 -0.08749,-0.03387 -0.03387,-0.03669 -0.03951,-0.152401 z"
       style="font-style:normal;font-variant:normal;font-weight:normal;font-stretch:normal;font-size:2.82223201px;font-family:Sniglet;-inkscape-font-specification:'Sniglet, Normal';font-variant-ligatures:normal;font-variant-caps:normal;font-variant-numeric:normal;font-feature-settings:normal;text-align:start;writing-mode:lr-tb;text-anchor:start;fill:#c8c8c8;fill-opacity:1"
       id="path885"
       inkscape:connector-curvature="0" />
    <path
       d="m 16.74745,59.538844 q -0.104422,0 -0.189089,0.03104 -0.08185,0.03104 -0.186268,0.08467 0,0.0028 0,0.05362 0,0.0508 -0.0028,0.129823 0,0.07902 -0.0028,0.1778 0,0.09596 -0.0028,0.194734 0,0.09596 -0.0056,0.183445 -0.0028,0.08749 -0.0056,0.146756 -0.0056,0.05927 -0.01411,0.09313 -0.0056,0.03387 -0.01693,0.0508 -0.0085,0.01411 -0.0254,0.01693 -0.01693,0.0028 -0.03669,0.0028 -0.04798,0 -0.0762,-0.0056 -0.0254,-0.0028 -0.04233,-0.01693 -0.01693,-0.01693 -0.0254,-0.04798 -0.0056,-0.03104 -0.01129,-0.08467 -0.0056,-0.05362 -0.01129,-0.146756 -0.0028,-0.09596 -0.0056,-0.211667 -0.0028,-0.118534 -0.0056,-0.251179 0,-0.132645 0,-0.262468 0,-0.129822 0,-0.273756 0.0028,-0.146756 0.0056,-0.279401 0.0028,-0.135467 0.0056,-0.23989 0.0028,-0.107245 0.0085,-0.158045 0.0056,-0.07338 0.0254,-0.127 0.02258,-0.05362 0.09596,-0.05362 0.05645,0 0.09031,0.03951 0.03669,0.03951 0.04233,0.149578 0.0056,0.09878 0.0085,0.276579 0.0056,0.174978 0.0085,0.395112 0.03951,-0.03104 0.09596,-0.05644 0.05645,-0.02822 0.118534,-0.04516 0.06209,-0.01976 0.127,-0.03104 0.06491,-0.01129 0.121356,-0.01129 0.135467,0 0.234246,0.06491 0.1016,0.06209 0.160867,0.180623 0.03951,0.0762 0.05927,0.169333 0.01975,0.09031 0.02822,0.191912 0.0028,0.04516 0.0056,0.09031 0.0028,0.04233 0.0028,0.09313 0.0028,0.04798 0.0028,0.110067 0,0.06209 0,0.146756 0,0.08467 -0.0028,0.158045 -0.0028,0.07056 -0.01693,0.124179 -0.01129,0.0508 -0.03951,0.08184 -0.02822,0.02822 -0.07902,0.02822 -0.07338,0 -0.110067,-0.04516 -0.03387,-0.04798 -0.03387,-0.112889 0,-0.0028 0,-0.05927 0,-0.05644 -0.0028,-0.129823 0,-0.0762 -0.0028,-0.1524 0,-0.0762 -0.0028,-0.124179 -0.0028,-0.04515 -0.0085,-0.09595 -0.0028,-0.05362 -0.01129,-0.107245 -0.0056,-0.05362 -0.01693,-0.101601 -0.01129,-0.0508 -0.02822,-0.09031 -0.03951,-0.09313 -0.09878,-0.118534 -0.05927,-0.0254 -0.127001,-0.0254 z"
       style="font-style:normal;font-variant:normal;font-weight:normal;font-stretch:normal;font-size:2.82223201px;font-family:Sniglet;-inkscape-font-specification:'Sniglet, Normal';font-variant-ligatures:normal;font-variant-caps:normal;font-variant-numeric:normal;font-feature-settings:normal;text-align:start;writing-mode:lr-tb;text-anchor:start;fill:#c8c8c8;fill-opacity:1"
       id="path887"
       inkscape:connector-curvature="0" />
  </g>
</svg>
