<?xml version="1.0" encoding="UTF-8" standalone="no"?>
<svg
   xmlns:dc="http://purl.org/dc/elements/1.1/"
   xmlns:cc="http://creativecommons.org/ns#"
   xmlns:rdf="http://www.w3.org/1999/02/22-rdf-syntax-ns#"
   xmlns:svg="http://www.w3.org/2000/svg"
   xmlns="http://www.w3.org/2000/svg"
   xmlns:xlink="http://www.w3.org/1999/xlink"
   xmlns:sodipodi="http://sodipodi.sourceforge.net/DTD/sodipodi-0.dtd"
   xmlns:inkscape="http://www.inkscape.org/namespaces/inkscape"
   width="300"
   height="380"
   viewBox="0 0 79.375 100.542"
   version="1.1"
   id="svg161"
   sodipodi:docname="TwelveKey_dark.svg"
   inkscape:version="0.92.4 (5da689c313, 2019-01-14)">
  <metadata
     id="metadata165">
    <rdf:RDF>
      <cc:Work
         rdf:about="">
        <dc:format>image/svg+xml</dc:format>
        <dc:type
           rdf:resource="http://purl.org/dc/dcmitype/StillImage" />
        <dc:title></dc:title>
      </cc:Work>
    </rdf:RDF>
  </metadata>
  <sodipodi:namedview
     pagecolor="#ffffff"
     bordercolor="#666666"
     borderopacity="1"
     objecttolerance="10"
     gridtolerance="10"
     guidetolerance="10"
     inkscape:pageopacity="0"
     inkscape:pageshadow="2"
     inkscape:window-width="1920"
     inkscape:window-height="1017"
     id="namedview163"
     showgrid="false"
     inkscape:zoom="2.2368644"
     inkscape:cx="150"
     inkscape:cy="190.00189"
     inkscape:window-x="-8"
     inkscape:window-y="-8"
     inkscape:window-maximized="1"
     inkscape:current-layer="svg161" />
  <defs
     id="defs37">
    <linearGradient
       id="a">
      <stop
         offset="0"
         id="stop2" />
      <stop
         offset="1"
         stop-color="#8c8c8c"
         id="stop4" />
    </linearGradient>
    <linearGradient
       xlink:href="#a"
       id="f"
       x1="66.15"
       y1="224.204"
       x2="66.15"
       y2="233.271"
       gradientUnits="userSpaceOnUse"
       gradientTransform="translate(-12.158 -167.375)" />
    <linearGradient
       xlink:href="#a"
       id="e"
       x1="98.709"
       y1="167.24"
       x2="98.709"
       y2="197.734"
       gradientUnits="userSpaceOnUse"
       gradientTransform="matrix(3.5455 0 0 1.37485 -310.718 -221.141)" />
    <linearGradient
       xlink:href="#b"
       id="g"
       x1="26.759"
       y1="162"
       x2="30.999"
       y2="162"
       gradientUnits="userSpaceOnUse"
       gradientTransform="matrix(1 0 0 .56406 0 70.452)" />
    <linearGradient
       id="b">
      <stop
         offset="0"
         stop-color="#fff"
         id="stop10" />
      <stop
         offset="1"
         stop-color="#fff"
         stop-opacity="0"
         id="stop12" />
    </linearGradient>
    <linearGradient
       xlink:href="#c"
       id="h"
       x1="26.759"
       y1="162"
       x2="30.999"
       y2="162"
       gradientUnits="userSpaceOnUse"
       gradientTransform="matrix(.99995 0 0 .53173 135.453 -112.052)" />
    <linearGradient
       id="c">
      <stop
         offset="0"
         stop-color="#fff"
         stop-opacity=".992"
         id="stop16" />
      <stop
         offset="1"
         stop-color="#fff"
         stop-opacity="0"
         id="stop18" />
    </linearGradient>
    <linearGradient
       xlink:href="#a"
       id="i"
       x1="66.15"
       y1="224.204"
       x2="66.15"
       y2="233.271"
       gradientUnits="userSpaceOnUse"
       gradientTransform="matrix(.62166 0 0 .7049 -1.448 -74.013)" />
    <linearGradient
       id="d">
      <stop
         offset="0"
         id="stop22" />
      <stop
         offset="1"
         stop-color="#fff"
         id="stop24" />
    </linearGradient>
    <linearGradient
       xlink:href="#d"
       id="j"
       gradientUnits="userSpaceOnUse"
       gradientTransform="translate(32.958 -15.82) scale(1.25816)"
       x1="24.039"
       y1="62.948"
       x2="24.039"
       y2="59.622" />
    <linearGradient
       xlink:href="#d"
       id="k"
       gradientUnits="userSpaceOnUse"
       gradientTransform="translate(-69.402 -137.27) scale(1.00722)"
       x1="24.039"
       y1="62.948"
       x2="24.039"
       y2="59.622" />
    <linearGradient
       xlink:href="#d"
       id="l"
       gradientUnits="userSpaceOnUse"
       gradientTransform="translate(32.958 -15.82) scale(1.25816)"
       x1="24.039"
       y1="62.948"
       x2="24.039"
       y2="59.622" />
    <linearGradient
       xlink:href="#d"
       id="m"
       gradientUnits="userSpaceOnUse"
       gradientTransform="translate(-69.402 -137.27) scale(1.00722)"
       x1="24.039"
       y1="62.948"
       x2="24.039"
       y2="59.622" />
    <linearGradient
       xlink:href="#d"
       id="n"
       gradientUnits="userSpaceOnUse"
       gradientTransform="translate(32.958 -15.82) scale(1.25816)"
       x1="24.039"
       y1="62.948"
       x2="24.039"
       y2="59.622" />
    <linearGradient
       xlink:href="#d"
       id="o"
       gradientUnits="userSpaceOnUse"
       gradientTransform="translate(-69.402 -137.27) scale(1.00722)"
       x1="24.039"
       y1="62.948"
       x2="24.039"
       y2="59.622" />
    <linearGradient
       xlink:href="#d"
       id="p"
       gradientUnits="userSpaceOnUse"
       gradientTransform="translate(32.958 -15.82) scale(1.25816)"
       x1="24.039"
       y1="62.948"
       x2="24.039"
       y2="59.622" />
    <linearGradient
       xlink:href="#d"
       id="q"
       gradientUnits="userSpaceOnUse"
       gradientTransform="translate(-69.402 -137.27) scale(1.00722)"
       x1="24.039"
       y1="62.948"
       x2="24.039"
       y2="59.622" />
    <linearGradient
       xlink:href="#d"
       id="r"
       gradientUnits="userSpaceOnUse"
       gradientTransform="translate(32.958 -15.82) scale(1.25816)"
       x1="24.039"
       y1="62.948"
       x2="24.039"
       y2="59.622" />
    <linearGradient
       xlink:href="#d"
       id="s"
       gradientUnits="userSpaceOnUse"
       gradientTransform="translate(-69.402 -137.27) scale(1.00722)"
       x1="24.039"
       y1="62.948"
       x2="24.039"
       y2="59.622" />
  </defs>
  <path
     d="M0 0h79.375v100.541H0zm0 0"
     fill="#191919"
     id="path39" />
  <g
     aria-label="MAX VEL"
     style="line-height:1.25"
     font-weight="400"
     font-size="2.822"
     font-family="Sniglet"
     letter-spacing="0"
     word-spacing="0"
     fill="#c8c8c8"
     stroke-width=".265"
     id="g43">
    <path
       d="M21.129 69.554q-.13-.285-.232-.55-.098-.268-.17-.477-.064.35-.11.706-.041.355-.11.68-.016.073-.061.099-.045.022-.076.022-.051 0-.082-.03-.029-.032-.029-.08 0-.065.015-.198.016-.135.04-.304.024-.17.056-.356.03-.186.062-.358.033-.175.062-.316.03-.142.053-.218.037-.13.15-.13.068 0 .116.068.048.065.101.203.057.136.133.345.079.209.203.49.121-.281.195-.487.076-.21.127-.345.053-.138.101-.203.048-.068.119-.068.065 0 .099.034.034.031.05.096.02.08.048.22.029.139.06.31.034.17.065.356l.056.356q.026.17.04.307.017.136.017.21 0 .045-.031.073-.032.025-.08.025-.03 0-.076-.022-.045-.026-.062-.1-.034-.16-.062-.332l-.05-.347-.046-.353q-.022-.178-.048-.353-.037.113-.084.248-.048.136-.102.274-.054.136-.11.268-.057.133-.11.24-.02.037-.054.057-.03.017-.065.017-.036 0-.07-.017-.031-.02-.048-.06zM23.65 69.89q-.029-.068-.063-.155-.03-.09-.067-.19-.085.004-.178.006H22.932q-.098 0-.18-.002l-.065.186q-.03.087-.06.155-.056.144-.163.144-.04 0-.076-.025-.034-.026-.034-.074t.017-.124q.017-.079.042-.166l.06-.184q.03-.096.059-.178.028-.09.079-.228l.113-.294.118-.299q.06-.15.108-.26.01-.028.028-.062.017-.036.04-.067.025-.031.053-.054.031-.023.068-.023.036 0 .067.026.031.022.054.056.025.034.042.07.02.038.031.066.046.113.102.26.06.146.116.296.059.15.11.285.05.135.082.228.025.082.056.175.034.093.062.184.028.09.045.17.02.075.02.123t-.037.074q-.034.025-.073.025-.05 0-.093-.034-.042-.036-.074-.11zm-.5-.62q.068 0 .135.002.068 0 .136.003l-.068-.198-.065-.189-.053-.166-.04-.139q-.011-.036-.025-.059-.014-.022-.037-.022t-.037.025q-.014.023-.025.06-.034.115-.096.301l-.127.387q.076-.003.152-.003.077-.003.15-.003zM24.814 69.292l-.42.652q-.04.062-.088.093-.045.034-.104.034-.074 0-.105-.037-.028-.034-.028-.087 0-.031.011-.065.014-.034.037-.065l.525-.75-.525-.752q-.023-.03-.037-.065-.011-.033-.011-.064 0-.054.028-.088.031-.037.105-.037.059 0 .104.034.048.031.088.093l.42.652.42-.652q.04-.062.085-.093.048-.034.108-.034.073 0 .101.037.031.034.031.088 0 .03-.014.064-.011.034-.034.065l-.525.751.525.75q.023.032.034.066.014.034.014.065 0 .053-.03.087-.03.037-.102.037-.06 0-.108-.034-.045-.031-.084-.093zM27.173 69.921q-.037.068-.068.099-.028.031-.073.031t-.079-.031q-.034-.031-.073-.096-.051-.085-.116-.234-.062-.15-.127-.325-.065-.178-.127-.367t-.113-.355q-.048-.167-.079-.291-.028-.127-.028-.18 0-.057.022-.085.023-.028.088-.028.037 0 .062.02.028.016.07.1.034.066.074.17.04.105.082.232.045.127.09.268l.09.276q.046.139.085.266l.073.228.077-.231.087-.265.09-.277q.046-.141.09-.265l.085-.229q.04-.104.07-.172.04-.082.069-.102.03-.02.062-.02.065 0 .087.034.026.031.026.094 0 .056-.017.135-.017.079-.06.212-.04.13-.107.324l-.166.477q-.026.076-.06.158-.03.082-.064.161l-.063.147q-.03.07-.059.121zM28.013 69.605q-.006-.09-.012-.245-.005-.156-.005-.32v-.191l.005-.206q.006-.21.026-.328.022-.118.084-.177.065-.06.181-.074.116-.014.308-.014h.059q.06 0 .141.003.082 0 .17.003.09.002.149.005.062.006.099.017.04.009.059.026.02.014.025.036.006.02.006.045 0 .065-.037.096-.036.029-.15.037-.056.006-.166.009h-.22q-.113 0-.203.002h-.113q-.073.003-.104.034-.029.028-.029.139l.003.124q.006.096.006.27h.234q.15 0 .243.006.096.003.146.017.054.014.074.045.02.031.02.082 0 .026-.006.048-.003.02-.023.037-.02.014-.056.025-.037.009-.104.014-.082.006-.156.009h-.378v.344l.006.096q.003.045.011.076.011.031.037.051.028.02.079.028.053.009.14.009h.608q.098 0 .124.037.025.036.025.098 0 .051-.022.08-.023.025-.11.036-.085.014-.257.017-.17.003-.469.003-.127 0-.209-.023-.081-.022-.132-.076-.051-.054-.076-.138-.023-.088-.031-.212zM29.795 69.247v.16q0 .068-.003.13l-.002.125-.006.138.305-.037.172-.022q.065-.009.099-.012.036-.003.084-.003.125 0 .125.122 0 .048-.051.082-.048.034-.124.059-.074.023-.167.04-.09.014-.178.02-.084.008-.155.01l-.096.003q-.101 0-.158-.014-.056-.011-.085-.073-.028-.065-.036-.195-.006-.13-.006-.367v-.406q0-.178.003-.32.003-.14.003-.25.003-.11.008-.2.006-.116.04-.15.034-.037.084-.037.029 0 .048.006.023.002.04.022.017.02.025.057.012.036.014.104.012.248.015.491.002.243.002.517z"
       style="-inkscape-font-specification:'Sniglet, Normal';font-variant-ligatures:normal;font-variant-caps:normal;font-variant-numeric:normal;font-feature-settings:normal;text-align:start"
       id="path41" />
  </g>
  <rect
     rx="2.34"
     ry="2.34"
     y="53.188"
     x="60.926"
     height="39.763"
     width="14.513"
     fill="#3e3e3e"
     stroke="#c8c8c8"
     stroke-width=".191"
     paint-order="stroke markers fill"
     id="rect45" />
  <g
     style="line-height:1.25"
     id="g49">
    <path
       word-spacing="0"
       letter-spacing="0"
       font-weight="400"
       aria-label="♫"
       font-size="3.528"
       style="-inkscape-font-specification:'Arial, Normal';font-variant-ligatures:normal;font-variant-caps:normal;font-variant-numeric:normal;font-feature-settings:normal;text-align:start"
       d="M48.15 96.87l-1.63.115v-2.06q0-.23.065-.333.064-.104.22-.147.153-.043.348-.002.223.047.356.19.133.146.133.33 0 .186-.157.286-.158.103-.408.05-.082-.018-.143-.044-.064-.027-.205-.11v1.345l1.219-.085v-1.554q0-.225.065-.337.066-.11.226-.151.16-.04.348 0 .223.047.354.19.13.14.13.325 0 .195-.156.294-.156.1-.408.047-.16-.034-.357-.16z"
       font-family="Arial"
       fill="#969696"
       id="path47" />
  </g>
  <g
     style="line-height:1.25"
     id="g53">
    <path
       word-spacing="0"
       letter-spacing="0"
       font-size="3.528"
       font-weight="400"
       aria-label="IMPROMPT"
       d="M30.132 96.698q-.007-.127-.01-.265 0-.137-.004-.296-.003-.159-.003-.342v-.417q0-.25.003-.426.004-.18.021-.293.018-.113.053-.166.039-.053.102-.053.032 0 .06.007.029.007.05.032.02.02.035.067.018.042.021.113.007.127.01.225l.008.198q.003.095.003.201v.536q0 .145-.003.286l-.007.286-.01.303q-.004.085-.018.13-.015.047-.036.071-.02.025-.05.028-.027.007-.063.007-.063 0-.109-.042-.046-.046-.053-.19zm1.754-.381q-.162-.357-.29-.688-.123-.335-.211-.596-.081.437-.138.882-.053.444-.137.85-.021.092-.078.123-.056.028-.095.028-.064 0-.102-.038-.036-.04-.036-.1 0-.08.018-.246.021-.17.05-.381.031-.212.07-.445.039-.232.078-.448l.077-.395q.039-.176.067-.271.046-.163.187-.163.085 0 .145.085.06.081.127.254.07.17.166.43.098.262.254.614.151-.352.243-.61.095-.261.159-.43.067-.173.127-.254.06-.085.148-.085.081 0 .123.042.043.039.064.12.025.099.06.275.035.173.074.388.042.212.081.445t.07.444q.032.212.05.385.021.17.021.261 0 .056-.039.092-.038.031-.098.031-.04 0-.096-.028-.056-.032-.077-.123-.043-.201-.078-.417l-.063-.433-.057-.441q-.028-.223-.06-.441-.046.14-.106.31-.06.17-.127.342-.067.17-.137.335-.07.166-.138.3-.024.046-.067.07-.039.022-.08.022-.047 0-.09-.021-.038-.025-.06-.074zm2.005.377q0 .085-.018.13-.014.047-.039.071-.02.025-.053.029-.028.007-.056.007-.095 0-.127-.043-.028-.042-.039-.19-.007-.078-.01-.226-.004-.148-.007-.353 0-.204-.004-.451v-.522q0-.131.032-.265t.12-.243q.091-.11.25-.177.162-.067.42-.067.18 0 .342.039.162.039.286.134.123.095.198.254.074.159.074.395 0 .247-.082.41-.08.162-.229.257-.148.095-.353.134-.204.039-.448.039h-.12q-.06 0-.134-.007zm1.016-1.485q0-.236-.134-.356-.13-.12-.438-.12-.116 0-.2.021-.082.018-.135.067-.053.046-.08.127-.026.081-.026.205v.275q0 .151.004.286.081.004.18.004h.19q.106 0 .219-.015.116-.014.208-.063.092-.053.152-.152.06-.102.06-.278zm1.451.84l-.102.007h-.223q-.06 0-.134-.007v.716q0 .113-.056.14-.053.026-.134.026-.042 0-.067-.007-.025-.004-.042-.018-.015-.018-.025-.05-.007-.031-.01-.088-.008-.063-.011-.183-.004-.123-.007-.318 0-.194-.004-.469v-.652q0-.145.035-.279.036-.138.127-.24.092-.106.247-.17.16-.063.402-.063.173 0 .336.039.165.039.292.134.127.095.205.258.078.162.078.405 0 .325-.141.505-.138.176-.381.25l.472.65q.064.084.064.172 0 .07-.05.11-.046.042-.116.042-.078 0-.134-.042-.057-.046-.106-.117zm.554-.822q0-.244-.148-.36-.145-.12-.462-.12-.117 0-.194.021-.078.018-.124.07-.046.054-.067.149-.018.091-.018.236v.24q0 .138.004.25.081.005.18.005h.19q.1 0 .208-.011.113-.014.209-.064.095-.052.158-.148.064-.099.064-.268zm1.609 1.725q-.212 0-.398-.085-.184-.085-.322-.243-.137-.163-.218-.395-.078-.233-.078-.53 0-.278.067-.511.07-.233.205-.402.137-.17.338-.261.202-.096.466-.096.215 0 .41.078.193.078.338.233.148.155.233.388.085.233.085.543 0 .258-.071.49-.067.233-.208.41-.138.173-.35.278-.211.103-.497.103zm.007-.332q.194 0 .339-.077.145-.082.24-.212t.14-.3q.047-.173.047-.353 0-.218-.06-.388-.057-.173-.155-.29-.1-.115-.23-.175-.13-.064-.278-.064-.177 0-.31.074-.131.074-.223.201-.088.127-.134.3-.046.17-.046.363 0 .209.053.381.053.17.141.29.092.12.215.187.124.063.261.063zm2.384-.303q-.162-.357-.29-.688-.123-.335-.21-.596-.082.437-.138.882-.053.444-.138.85-.021.092-.078.123-.056.028-.095.028-.063 0-.102-.038-.036-.04-.036-.1 0-.08.018-.246.021-.17.05-.381.031-.212.07-.445.039-.232.078-.448l.077-.395q.04-.176.067-.271.046-.163.187-.163.085 0 .145.085.06.081.127.254.07.17.166.43.099.262.254.614.151-.352.243-.61.095-.261.159-.43.067-.173.127-.254.06-.085.148-.085.081 0 .124.042.042.039.063.12.025.099.06.275.035.173.074.388.042.212.081.445t.07.444q.033.212.05.385.021.17.021.261 0 .056-.038.092-.04.031-.1.031-.038 0-.094-.028-.057-.032-.078-.123-.042-.201-.078-.417l-.063-.433-.057-.441q-.028-.223-.06-.441-.045.14-.105.31-.06.17-.127.342-.067.17-.138.335-.07.166-.138.3-.024.046-.067.07-.038.022-.08.022-.047 0-.089-.021-.039-.025-.06-.074zm2.005.377q0 .085-.018.13-.014.047-.038.071-.022.025-.053.029-.029.007-.057.007-.095 0-.127-.043-.028-.042-.039-.19-.007-.078-.01-.226-.004-.148-.007-.353 0-.204-.004-.451v-.522q0-.131.032-.265t.12-.243q.092-.11.25-.177.163-.067.42-.067.18 0 .342.039.163.039.286.134.124.095.198.254.074.159.074.395 0 .247-.081.41-.082.162-.23.257-.148.095-.352.134-.205.039-.449.039h-.12q-.06 0-.134-.007zm1.016-1.485q0-.236-.134-.356-.13-.12-.438-.12-.116 0-.2.021-.082.018-.135.067-.053.046-.08.127-.025.081-.025.205v.275q0 .151.003.286.081.004.18.004h.19q.106 0 .22-.015.116-.014.207-.063.092-.053.152-.152.06-.102.06-.278zm1.974-.437q-.099.007-.212.01l-.243.007.007.18.007.166q.004.085.004.176.003.092.003.205v.307q0 .144-.003.293l-.007.292q-.004.149-.011.307-.003.085-.018.13-.01.047-.031.072-.022.024-.05.028-.028.007-.063.007-.064 0-.11-.043-.042-.045-.049-.19-.007-.127-.01-.268 0-.141-.004-.304-.004-.162-.004-.349v-.758q.004-.145.011-.25h-.145q-.148 0-.254-.005-.102-.004-.169-.017-.067-.018-.099-.053-.028-.036-.028-.1 0-.03.007-.055.007-.029.032-.05.025-.025.067-.039.046-.014.116-.02l.12-.008.106-.007q.053-.004.11-.004h.13q.208 0 .392.004.186.004.395.014.084.007.13.021.046.011.07.032.025.021.029.05.007.028.007.063 0 .064-.046.106-.042.042-.187.05z"
       style="-inkscape-font-specification:'Sniglet, Normal';font-variant-ligatures:normal;font-variant-caps:normal;font-variant-numeric:normal;font-feature-settings:normal;text-align:start"
       font-family="Sniglet"
       fill="#c8c8c8"
       id="path51" />
  </g>
  <path
     word-spacing="0"
     letter-spacing="0"
     font-size="2.822"
     font-weight="400"
     d="M66.172 81.022q.094 0 .192.017.1.017.18.05.083.031.136.08.054.048.054.11 0 .064-.034.098t-.085.034q-.048 0-.09-.017l-.09-.036q-.051-.02-.122-.037-.07-.017-.177-.017-.12 0-.223.057-.102.053-.18.152-.08.096-.125.23-.045.131-.045.286 0 .19.048.328t.124.228q.079.09.175.136.099.042.197.042.16 0 .254-.045.096-.048.153-.12.003-.06.003-.142v-.178q0-.037-.006-.057-.006-.022-.028-.034-.023-.01-.068-.014-.042-.003-.116-.003-.09 0-.147-.022-.056-.026-.056-.105 0-.056.028-.09.03-.037.124-.042h.054q.04-.003.082-.003h.155q.085 0 .136.017.05.014.09.067.02.028.022.1.006.07.006.163v.728q0 .076-.042.113-.04.036-.093.036-.065 0-.107-.033-.04-.03-.04-.102v-.11q-.073.085-.175.121-.1.037-.25.037-.156 0-.306-.062t-.265-.184q-.116-.124-.19-.307-.07-.186-.07-.432t.07-.437q.074-.192.198-.325.125-.135.29-.206.168-.07.36-.07zm2.114 1.854q-.03-.068-.062-.155-.031-.09-.068-.19l-.178.007h-.41q-.098 0-.18-.003l-.065.186q-.03.087-.06.155-.055.144-.163.144-.04 0-.076-.025-.034-.026-.034-.074t.017-.124q.017-.079.042-.166l.06-.184q.03-.096.059-.178.028-.09.079-.228l.113-.294.118-.299q.06-.15.108-.26.01-.028.028-.062.017-.036.04-.067.025-.03.053-.054.03-.023.068-.023.036 0 .067.026.03.022.054.056.025.034.042.07.02.038.03.066l.103.26q.06.146.116.296.059.15.11.285.05.135.08.228l.058.175q.034.093.062.184.028.09.045.17.02.075.02.123t-.037.074q-.034.025-.073.025-.05 0-.093-.034-.043-.036-.074-.11zm-.5-.62l.136.002q.067 0 .135.003l-.068-.197-.065-.19-.053-.166-.04-.138q-.011-.037-.025-.06-.014-.022-.037-.022-.022 0-.036.025-.015.023-.026.06-.034.115-.096.301l-.127.387q.076-.003.153-.003.076-.003.15-.003zm1.876-.952q-.08.006-.17.008l-.194.006.006.144.006.133q.003.067.003.14.003.074.003.164v.246q0 .116-.003.234l-.006.234-.008.246q-.003.068-.014.104-.008.037-.026.057-.017.02-.04.022-.022.006-.05.006-.051 0-.088-.034-.034-.036-.04-.152-.005-.102-.007-.214 0-.113-.003-.243t-.003-.28v-.606q.003-.116.008-.2h-.116q-.118 0-.203-.004-.082-.003-.136-.014-.053-.014-.08-.042-.021-.028-.021-.08 0-.024.006-.044.006-.023.025-.04.02-.02.054-.03.037-.012.093-.018l.096-.006.085-.006q.042-.003.087-.003h.105q.166 0 .313.003.15.003.316.012.068.006.104.016.037.008.057.026.02.017.022.04.006.022.006.05 0 .05-.036.085-.034.034-.15.04zm.402 1.287q-.006-.09-.012-.246-.006-.155-.006-.318v-.192l.006-.206q.006-.21.026-.328.022-.118.084-.178.065-.059.18-.073.117-.014.309-.014h.059q.06 0 .14.003.083 0 .17.003l.15.006q.062.006.099.017.04.008.059.025.02.014.025.037.006.02.006.045 0 .065-.036.096-.037.028-.15.037-.056.006-.166.008h-.22q-.113 0-.204.003h-.113q-.073.003-.104.034-.028.028-.028.138l.003.124q.006.096.006.271h.234q.15 0 .243.006.096.003.146.017.054.014.074.045.02.031.02.082 0 .025-.006.048-.003.02-.023.037-.02.014-.056.025-.037.008-.105.014-.082.006-.155.008h-.378v.344l.006.096q.003.046.01.077.012.03.038.05.028.02.079.03.053.007.14.007h.608q.099 0 .124.036.025.037.025.1 0 .05-.022.078-.023.026-.11.037-.085.014-.257.017-.17.003-.47.003-.126 0-.207-.023-.082-.022-.133-.076-.05-.054-.076-.138-.023-.088-.031-.212z"
     style="line-height:1.25;-inkscape-font-specification:'Sniglet, Normal';font-variant-ligatures:normal;font-variant-caps:normal;font-variant-numeric:normal;font-feature-settings:normal;text-align:start"
     font-family="Sniglet"
     fill="#c8c8c8"
     id="path55" />
  <path
     word-spacing="0"
     letter-spacing="0"
     font-size="10.667"
     font-weight="400"
     d="M67.482 68.245q.093 0 .186.017.096.014.173.048.076.031.124.079.05.045.05.107 0 .065-.033.099-.034.034-.085.034-.048 0-.085-.014-.036-.017-.084-.037-.046-.02-.11-.034-.065-.017-.173-.017-.107 0-.206.057-.096.053-.17.152-.07.096-.112.229-.042.132-.042.288 0 .191.048.33.05.138.13.228.079.088.177.133.102.042.204.042.12 0 .203-.025.082-.025.138-.056.06-.031.102-.057.042-.025.082-.025.048 0 .076.028.028.025.028.093 0 .056-.045.116-.043.056-.127.104-.082.045-.198.076-.116.029-.26.029-.157 0-.316-.063-.155-.062-.28-.183-.12-.124-.196-.308-.077-.186-.077-.431 0-.246.068-.438.07-.192.19-.324.12-.136.279-.206.16-.071.34-.071zm1.642 1.885q-.037.068-.068.1-.028.03-.073.03-.046 0-.08-.03-.033-.032-.073-.097-.05-.085-.116-.234-.062-.15-.127-.325-.064-.177-.127-.367-.062-.189-.112-.355-.048-.167-.08-.29-.028-.128-.028-.182 0-.056.023-.084.023-.028.087-.028.037 0 .063.02.028.016.07.101.034.065.073.17.04.104.082.23.045.128.09.269l.09.276q.046.139.086.266l.073.228.076-.231.088-.265.09-.277q.045-.141.09-.265l.085-.229q.04-.104.07-.172.04-.082.068-.102.03-.02.062-.02.065 0 .088.034.025.031.025.094 0 .056-.017.135-.016.08-.06.212-.04.13-.106.324l-.167.477q-.025.076-.06.158-.03.082-.064.161-.03.076-.062.147-.031.07-.06.121z"
     style="line-height:1.25;-inkscape-font-specification:'Sniglet, Normal';font-variant-ligatures:normal;font-variant-caps:normal;font-variant-numeric:normal;font-feature-settings:normal;text-align:start"
     font-family="Sniglet"
     fill="#c8c8c8"
     id="path57" />
  <g
     style="line-height:1.25"
     id="g61">
    <path
       word-spacing="0"
       letter-spacing="0"
       font-size="2.822"
       font-weight="400"
       aria-label="OCT +1"
       style="-inkscape-font-specification:'Sniglet, Normal';font-variant-ligatures:normal;font-variant-caps:normal;font-variant-numeric:normal;font-feature-settings:normal;text-align:start"
       d="M65.163 57.179q-.17 0-.32-.068-.146-.068-.256-.195-.11-.13-.175-.316-.062-.186-.062-.423 0-.223.054-.41.056-.186.164-.321.11-.136.27-.21.16-.075.373-.075.172 0 .327.062.156.062.27.186.12.124.188.31.067.187.067.435 0 .206-.056.393-.054.186-.167.327-.11.138-.28.223-.17.082-.397.082zm.006-.266q.155 0 .27-.062.117-.065.193-.17.076-.103.113-.24.037-.137.037-.281 0-.175-.048-.31-.046-.14-.125-.232-.08-.093-.183-.141-.104-.051-.223-.051-.141 0-.248.06-.105.059-.178.16-.07.102-.107.24-.037.136-.037.29 0 .167.042.306.042.135.113.23.073.097.172.15.099.05.21.05zm1.999-1.761q.093 0 .187.017.096.014.172.048.076.03.124.08.05.044.05.106 0 .065-.033.1-.034.033-.085.033-.048 0-.085-.014-.036-.017-.084-.037-.045-.02-.11-.034-.065-.016-.173-.016-.107 0-.206.056-.096.054-.17.152-.07.096-.112.229-.042.133-.042.288 0 .192.048.33.05.138.13.229.079.087.178.132.1.043.203.043.12 0 .203-.026.082-.025.138-.056.06-.031.102-.057.042-.025.082-.025.048 0 .076.028.028.025.028.093 0 .057-.045.116-.042.056-.127.104-.082.046-.198.077-.115.028-.26.028-.157 0-.315-.062-.156-.062-.28-.184-.121-.124-.197-.307-.076-.187-.076-.432 0-.246.067-.438.07-.192.19-.324.12-.136.279-.206.16-.07.34-.07zm1.914.283q-.08.006-.17.008l-.194.006.006.143.006.133q.003.068.003.14.003.075.003.165v.245q0 .116-.003.235l-.006.234-.008.245q-.003.068-.014.105-.008.037-.026.056-.016.02-.04.023-.022.006-.05.006-.05 0-.087-.034-.034-.037-.04-.152-.006-.102-.008-.215 0-.113-.003-.243t-.003-.28v-.605q.003-.117.008-.201h-.116q-.118 0-.203-.003-.082-.003-.135-.014-.054-.014-.08-.043-.022-.028-.022-.08 0-.024.006-.044.006-.022.026-.04.02-.02.053-.03.037-.012.093-.017l.096-.006.085-.006q.042-.003.087-.003h.105q.166 0 .313.003.15.003.316.01.068.007.105.018.036.008.056.025.02.017.023.04.006.022.006.05 0 .05-.037.085-.034.034-.15.04zm1.94.857q-.063.006-.137.008-.07 0-.155.003v.127q0 .096-.003.164t-.017.11q-.011.043-.04.062-.028.02-.078.02-.026 0-.048-.006-.02-.006-.037-.025-.017-.02-.031-.054-.012-.037-.017-.093l-.006-.073-.006-.068v-.16q-.144 0-.237-.004-.09-.003-.147-.014-.054-.014-.076-.042-.02-.028-.02-.08 0-.025.006-.044.006-.023.025-.04.02-.017.054-.028.037-.014.093-.02l.073-.006q.034-.003.068-.003.034-.003.07-.003h.09q.004-.073.004-.144l.008-.147q.003-.067.014-.104.01-.037.028-.056.017-.02.04-.023.022-.006.05-.006.05 0 .085.037.034.034.04.15l.006.137.006.159q.14 0 .293.008.068.006.105.016.037.008.056.026.02.017.023.04.006.022.006.05 0 .05-.037.085-.034.034-.15.04zm.763.684q-.006-.102-.008-.212 0-.11-.003-.237t-.003-.274v-.686l-.17.088q-.07.045-.112.053-.04.008-.087.008-.043 0-.077-.036-.03-.037-.03-.088 0-.05.033-.087.037-.04.085-.071.062-.042.133-.085.073-.042.14-.076.068-.037.125-.056.06-.023.099-.023.02 0 .04.006.022.006.039.023.02.017.03.053.015.034.018.093.006.102.008.178l.006.15q.003.07.003.15v.425q0 .116-.003.23l-.006.228-.008.242q-.003.068-.015.105-.008.037-.025.056-.017.02-.04.023-.02.006-.047.006-.051 0-.085-.034-.034-.037-.04-.152z"
       font-family="Sniglet"
       fill="#c8c8c8"
       id="path59" />
  </g>
  <g
     style="line-height:1.25"
     id="g65">
    <path
       word-spacing="0"
       letter-spacing="0"
       font-size="2.822"
       font-weight="400"
       aria-label="OCTAVE"
       style="-inkscape-font-specification:'Sniglet, Normal';font-variant-ligatures:normal;font-variant-caps:normal;font-variant-numeric:normal;font-feature-settings:normal;text-align:start"
       d="M28.945 57.211q-.17 0-.319-.068-.146-.068-.257-.195-.11-.13-.174-.316-.063-.186-.063-.423 0-.223.054-.41.056-.186.164-.32.11-.137.27-.21.162-.076.373-.076.172 0 .328.062.155.062.27.186.12.124.187.31.068.187.068.435 0 .206-.057.393-.054.186-.166.327-.11.138-.28.223-.17.082-.398.082zm.006-.266q.155 0 .27-.062.116-.065.193-.17.076-.104.113-.239.036-.138.036-.282 0-.175-.048-.31-.045-.139-.124-.232t-.183-.14q-.105-.052-.223-.052-.14 0-.249.06-.104.06-.177.16-.07.102-.108.24-.036.136-.036.29 0 .167.042.306.042.135.113.231.073.096.172.15.1.05.21.05zm2-1.76q.093 0 .186.016.096.014.172.048.076.031.124.08.05.044.05.106 0 .065-.033.1-.034.033-.085.033-.048 0-.084-.014l-.085-.037q-.045-.02-.11-.034-.065-.016-.172-.016-.108 0-.206.056-.096.054-.17.152-.07.096-.113.23-.042.132-.042.287 0 .192.048.33.05.138.13.23.08.086.178.131.101.043.203.043.121 0 .203-.026.082-.025.138-.056.06-.03.102-.057.042-.025.082-.025.048 0 .076.028.028.026.028.093 0 .057-.045.116-.042.056-.127.104-.082.046-.197.077-.116.028-.26.028-.158 0-.316-.062-.155-.062-.28-.184-.12-.124-.197-.307-.076-.187-.076-.432 0-.246.067-.438.071-.19.19-.324.12-.136.28-.206.16-.07.34-.07zm1.913.281q-.079.006-.17.008l-.194.006.006.144.005.133q.003.068.003.141.003.074.003.164v.245q0 .116-.003.235l-.006.234q-.002.118-.008.245-.003.068-.014.105-.009.037-.026.056-.017.02-.04.023-.022.006-.05.006-.05 0-.087-.034-.034-.037-.04-.152-.005-.102-.008-.215 0-.113-.003-.243t-.003-.279v-.606q.003-.117.01-.2h-.117q-.119 0-.203-.004-.082-.003-.136-.014-.053-.014-.079-.043-.022-.028-.022-.079 0-.025.005-.045.006-.022.026-.04.02-.02.053-.03.037-.012.093-.017l.096-.006.085-.006q.042-.003.087-.003h.105q.166 0 .313.003.15.003.316.011.068.006.105.017.036.008.056.025.02.017.023.04.005.022.005.05 0 .051-.036.085-.034.034-.15.04zm1.397 1.572q-.029-.067-.062-.155-.03-.09-.068-.189l-.178.006h-.41q-.098 0-.18-.003l-.065.186q-.03.088-.059.156-.056.144-.164.144-.04 0-.076-.026-.034-.025-.034-.073 0-.048.017-.124.017-.08.043-.167l.06-.183q.03-.096.06-.178.026-.09.077-.229l.113-.293.118-.3q.06-.149.108-.26.011-.027.028-.06.017-.038.04-.069.025-.03.053-.053.031-.023.068-.023.037 0 .068.025.03.023.053.057.026.034.043.07.02.037.03.065.046.113.102.26.06.147.116.296.06.15.11.285.05.136.082.23.025.081.056.174.034.093.062.183.03.09.045.17.02.076.02.124t-.036.073q-.034.026-.074.026-.05 0-.093-.034-.042-.037-.073-.11zm-.5-.62q.068 0 .136.003.067 0 .135.003l-.068-.198-.065-.19-.053-.166-.04-.138q-.01-.037-.025-.06-.014-.022-.037-.022-.022 0-.036.026-.015.022-.026.06-.034.115-.096.301l-.127.387q.076-.003.153-.003.076-.003.15-.003zm1.631.652q-.037.067-.068.098-.028.031-.073.031t-.08-.03q-.033-.032-.072-.097-.05-.084-.116-.234-.062-.15-.127-.324-.065-.178-.127-.367-.062-.19-.113-.356-.048-.166-.08-.29-.027-.128-.027-.18 0-.058.022-.086.023-.028.088-.028.036 0 .062.02.028.016.07.101.034.065.074.17.04.104.082.23.045.128.09.27l.09.276.085.265.073.228.076-.23.088-.266.09-.277q.045-.14.09-.265l.085-.229q.04-.104.07-.172.04-.082.07-.1.03-.02.061-.02.065 0 .087.033.026.03.026.093 0 .056-.017.135-.017.08-.06.212-.04.13-.107.325l-.166.476q-.026.077-.06.16-.03.08-.065.16-.03.076-.062.146-.03.07-.059.121zm.84-.317q-.006-.09-.01-.245-.007-.155-.007-.319v-.192l.005-.206q.006-.209.026-.327.022-.119.084-.178.065-.06.18-.074.117-.014.31-.014h.058q.06 0 .14.003.083 0 .17.003l.15.006q.062.006.1.017.04.008.058.026.02.014.025.036.006.02.006.046 0 .064-.037.095-.037.03-.15.037-.056.006-.166.008h-.22q-.113 0-.203.003h-.113q-.074.003-.105.034-.028.028-.028.138l.003.125q.006.096.006.27h.234q.15 0 .243.006.096.003.146.017.054.014.074.046.02.03.02.081 0 .026-.006.048-.003.02-.023.037-.02.014-.056.025-.037.008-.105.015-.08.006-.155.008h-.378v.343l.006.097q.002.045.01.076.012.031.038.05.028.02.08.03.052.007.14.007h.607q.098 0 .124.037.025.036.025.1 0 .05-.022.078-.023.025-.11.036-.085.014-.257.017-.17.003-.469.003-.127 0-.209-.022-.082-.023-.132-.077-.05-.053-.077-.138-.022-.087-.03-.212z"
       font-family="Sniglet"
       fill="#c8c8c8"
       id="path63" />
  </g>
  <path
     word-spacing="0"
     letter-spacing="0"
     font-size="2.822"
     font-weight="400"
     d="M8.958 80.953q.093 0 .192.017.1.017.18.05.082.032.136.08.054.048.054.11 0 .065-.034.098-.034.034-.085.034-.048 0-.09-.017l-.09-.036q-.05-.02-.122-.037-.07-.017-.178-.017-.118 0-.223.057-.1.053-.18.152-.08.096-.124.23-.046.131-.046.286 0 .19.048.328t.125.228q.08.09.174.136.1.042.198.042.16 0 .254-.045.096-.048.152-.12.003-.06.003-.142v-.178q0-.037-.006-.057-.006-.022-.028-.034-.022-.01-.067-.014-.043-.003-.116-.003-.09 0-.147-.022-.056-.026-.056-.105 0-.056.028-.09.03-.037.124-.042h.054q.04-.003.081-.003h.156q.084 0 .135.017.05.014.09.067.02.03.023.1.006.07.006.163v.728q0 .076-.042.113-.04.037-.093.037-.065 0-.108-.034-.04-.03-.04-.102v-.11q-.073.085-.174.121-.099.037-.25.037-.157 0-.306-.062-.15-.062-.265-.184-.116-.124-.19-.307-.07-.186-.07-.432 0-.245.07-.437.074-.192.198-.325.124-.135.29-.206.167-.07.36-.07zm2.113 1.854l-.062-.155q-.03-.09-.068-.19l-.177.007h-.41q-.098 0-.18-.003l-.065.186q-.03.088-.06.155-.056.144-.163.144-.04 0-.076-.025-.034-.026-.034-.074t.017-.124q.017-.079.042-.166.028-.09.06-.184.03-.096.06-.178.027-.09.078-.228l.112-.294.12-.299q.06-.15.106-.26l.028-.062q.017-.036.04-.067.025-.03.054-.054.03-.022.067-.022.037 0 .068.025.031.023.054.056.025.034.042.07.02.038.03.066.046.113.102.26.06.146.116.296.06.15.11.285.051.135.082.228.025.082.056.175.034.094.063.184.028.09.045.17.02.075.02.123t-.037.074q-.034.025-.074.025-.05 0-.093-.034-.042-.036-.073-.11zm-.5-.62l.136.002q.068 0 .136.003l-.068-.197-.065-.19q-.028-.09-.054-.166l-.04-.138q-.01-.037-.024-.06-.015-.022-.037-.022-.023 0-.037.025-.014.023-.025.06-.034.115-.096.302l-.127.386q.076-.003.152-.003.076-.003.15-.003zm1.876-.952q-.079.006-.169.008l-.195.006.006.144.006.133q.003.067.003.14.003.074.003.164v.246q0 .116-.003.234l-.006.234-.008.246q-.003.068-.014.104-.008.037-.025.057-.017.02-.04.022-.022.006-.05.006-.05 0-.088-.033-.034-.037-.04-.153-.006-.1-.008-.214 0-.113-.003-.243t-.003-.28v-.606q.003-.116.008-.2h-.114q-.119 0-.203-.004-.082-.003-.136-.014-.054-.014-.079-.042-.023-.028-.023-.079 0-.025.006-.045.006-.023.026-.04.02-.02.053-.03.037-.012.094-.018l.096-.006.084-.006q.043-.003.088-.003h.104q.167 0 .313.003.15.003.317.012.067.006.104.016.037.008.056.026.02.017.023.04.006.022.006.05 0 .051-.037.085-.034.034-.15.04zm.402 1.287q-.006-.09-.01-.246-.007-.155-.007-.318v-.192l.006-.206q.006-.21.025-.328.023-.118.085-.178.065-.059.18-.073.116-.014.308-.014h.06q.06 0 .14.003.082 0 .17.003l.15.006q.062.006.098.017.04.008.06.025.02.014.025.037.006.02.006.045 0 .065-.037.096-.036.028-.15.037-.056.006-.166.008h-.22q-.113 0-.203.003h-.113q-.073.003-.104.034-.029.028-.029.138l.003.124q.006.096.006.271h.235q.15 0 .242.006.096.003.147.017.054.014.073.045.02.031.02.082 0 .025-.006.048-.003.02-.022.037-.02.014-.057.025-.036.008-.104.014-.082.006-.155.008h-.379v.344l.006.096q.003.046.012.077.011.03.036.05.03.02.08.03.053.007.14.007h.607q.1 0 .125.036.025.037.025.1 0 .05-.023.078-.022.026-.11.037-.084.014-.257.017-.169.003-.468.003-.127 0-.209-.023-.082-.022-.133-.076-.05-.054-.076-.138-.022-.088-.03-.212z"
     style="line-height:1.25;-inkscape-font-specification:'Sniglet, Normal';font-variant-ligatures:normal;font-variant-caps:normal;font-variant-numeric:normal;font-feature-settings:normal;text-align:start"
     font-family="Sniglet"
     fill="#c8c8c8"
     id="path67" />
  <path
     word-spacing="0"
     letter-spacing="0"
     font-size="10.667"
     font-weight="400"
     d="M10.404 68.06q.093 0 .186.017.096.014.172.048.076.03.124.08.051.044.051.106 0 .065-.034.1-.034.033-.084.033-.048 0-.085-.014l-.085-.037q-.045-.02-.11-.034-.065-.017-.172-.017-.107 0-.206.056-.096.054-.17.153-.07.096-.112.228-.043.133-.043.288 0 .192.048.33.051.14.13.23.08.087.178.132.102.042.203.042.122 0 .204-.025.081-.026.138-.057.06-.03.101-.056.043-.026.082-.026.048 0 .076.03.03.024.03.092 0 .056-.047.115-.042.057-.127.105-.08.045-.197.076-.116.028-.26.028-.158 0-.316-.062-.155-.062-.28-.183-.12-.124-.197-.308-.076-.186-.076-.432 0-.245.068-.437.07-.192.19-.325.12-.135.28-.206.16-.07.34-.07zm1.641 1.885q-.036.068-.067.1-.029.03-.074.03t-.079-.03q-.034-.032-.073-.097-.05-.085-.116-.234-.062-.15-.127-.325-.065-.178-.127-.367t-.113-.355q-.048-.167-.079-.29-.028-.128-.028-.18 0-.058.023-.086.022-.029.087-.029.037 0 .062.02.028.017.07.102.035.065.074.17.04.103.082.23.045.127.09.27l.09.275q.046.138.085.265l.074.23.076-.232.087-.266.09-.276q.046-.14.091-.266.045-.124.085-.228.04-.105.07-.172.04-.082.068-.102.031-.02.062-.02.065 0 .088.034.025.031.025.093 0 .057-.017.136-.017.08-.06.211-.039.13-.106.325l-.167.477q-.025.076-.06.158-.03.082-.064.16-.03.077-.062.148-.03.07-.06.121z"
     style="line-height:1.25;-inkscape-font-specification:'Sniglet, Normal';font-variant-ligatures:normal;font-variant-caps:normal;font-variant-numeric:normal;font-feature-settings:normal;text-align:start"
     font-family="Sniglet"
     fill="#c8c8c8"
     id="path69" />
  <path
     word-spacing="0"
     letter-spacing="0"
     font-size="2.822"
     font-weight="400"
     d="M9.543 57.266q-.17 0-.319-.068-.146-.067-.257-.194-.11-.13-.175-.316-.062-.187-.062-.424 0-.223.054-.41.056-.185.164-.321.11-.135.27-.21.161-.075.373-.075.172 0 .328.062.155.062.27.187.12.124.187.31t.067.435q0 .206-.056.392-.054.186-.166.327-.11.139-.28.223-.17.082-.398.082zM9.55 57q.155 0 .271-.062.116-.065.192-.17.076-.104.113-.24.037-.138.037-.282 0-.175-.048-.31-.046-.138-.125-.232-.079-.093-.183-.14-.104-.051-.223-.051-.14 0-.248.059-.105.06-.178.16-.07.102-.107.24-.037.136-.037.29 0 .168.042.306.043.136.113.232.074.096.172.15.1.05.21.05zm2-1.761q.092 0 .186.017.096.014.172.048.076.03.124.079.05.045.05.107 0 .065-.033.099-.034.034-.085.034-.048 0-.085-.014-.036-.017-.084-.037-.045-.02-.11-.034-.065-.017-.172-.017-.108 0-.206.056-.096.054-.17.153-.07.096-.113.228-.042.133-.042.288 0 .192.048.33.05.139.13.23.08.087.178.132.101.042.203.042.121 0 .203-.025.082-.026.138-.057.06-.03.102-.056.042-.026.082-.026.048 0 .076.029.028.025.028.093 0 .056-.045.115-.042.057-.127.105-.082.045-.198.076-.115.028-.26.028-.157 0-.315-.062-.155-.062-.28-.183-.12-.125-.197-.308-.076-.186-.076-.432 0-.245.067-.437.07-.192.19-.325.12-.135.28-.206.16-.07.34-.07zm1.913.282q-.079.006-.17.008l-.194.006.006.144.006.133q.003.067.003.14.003.074.003.164v.246q0 .116-.003.234l-.006.234-.008.246q-.003.068-.014.104-.008.037-.025.057-.017.02-.04.022-.023.006-.05.006-.052 0-.088-.034-.034-.036-.04-.152-.006-.102-.008-.214 0-.113-.003-.243t-.003-.28v-.606q.003-.116.008-.2h-.115q-.119 0-.204-.004-.08-.003-.135-.014-.054-.014-.08-.042-.022-.028-.022-.08 0-.024.006-.044.006-.023.026-.04.02-.02.053-.03.037-.012.093-.018l.096-.006.085-.006q.042-.003.088-.003h.104q.166 0 .313.003.15.003.316.012.068.006.105.016.036.008.056.026.02.017.023.04.006.022.006.05 0 .05-.037.085-.034.034-.15.04z"
     style="line-height:1.25;-inkscape-font-specification:'Sniglet, Normal';font-variant-ligatures:normal;font-variant-caps:normal;font-variant-numeric:normal;font-feature-settings:normal;text-align:start"
     font-family="Sniglet"
     fill="#c8c8c8"
     id="path71" />
  <g
     style="line-height:1.25"
     id="g75">
    <path
       word-spacing="0"
       letter-spacing="0"
       font-size="4.233"
       font-weight="400"
       aria-label="TWELVE-KEY"
       style="-inkscape-font-specification:'Sniglet, Normal';font-variant-ligatures:normal;font-variant-caps:normal;font-variant-numeric:normal;font-feature-settings:normal;text-align:start"
       d="M29.754 3.948q-.119.008-.254.013l-.292.008.008.216.009.199q.004.101.004.211.004.11.004.246v.368q0 .174-.004.352l-.009.351q-.004.178-.012.368-.005.102-.022.157-.012.055-.038.085-.025.03-.059.034-.034.008-.076.008-.076 0-.131-.051-.051-.055-.06-.229-.008-.152-.012-.322 0-.169-.005-.364-.004-.194-.004-.419v-.91q.004-.173.013-.3h-.174q-.177 0-.304-.004-.123-.004-.204-.022-.08-.02-.118-.063-.034-.042-.034-.119 0-.038.008-.067.009-.034.039-.06.03-.03.08-.046.055-.017.14-.026l.144-.008.127-.008q.063-.004.13-.004h.158q.25 0 .47.004.224.004.474.017.101.008.156.026.055.012.085.038.03.025.034.059.008.034.008.076 0 .076-.055.127-.05.051-.224.06zm1.82.415q.025-.06.076-.097.055-.038.114-.038.055 0 .106.038.05.034.08.093.161.33.318.715.157.381.284.724.072-.525.156-1.058.085-.534.19-1.02.013-.055.039-.09.025-.037.055-.054.03-.022.06-.03.033-.008.054-.008.072 0 .119.042.046.038.046.106 0 .076-.025.271-.026.19-.068.449-.042.254-.097.542-.051.288-.102.554-.05.267-.097.487-.047.22-.076.335-.026.097-.077.148-.05.046-.148.046-.101 0-.173-.089-.068-.093-.153-.287-.08-.195-.194-.496-.115-.305-.297-.728-.186.423-.305.728-.114.305-.199.5-.08.195-.152.288-.072.089-.17.089-.169 0-.224-.195-.034-.114-.08-.33-.047-.22-.097-.487l-.098-.55q-.05-.288-.089-.542-.038-.254-.063-.445-.021-.195-.021-.27 0-.073.046-.12.047-.046.131-.046.06 0 .115.038.055.034.08.144.102.487.178 1.02.08.534.17 1.059.13-.31.262-.657.131-.347.326-.778zm2.082 1.516q-.009-.136-.017-.369-.009-.233-.009-.478v-.288l.009-.309q.008-.313.038-.491.034-.178.127-.267.097-.089.27-.11.174-.021.462-.021h.089q.089 0 .212.004.122 0 .254.004l.224.008q.093.008.148.025.06.013.089.038.03.022.038.055.009.03.009.068 0 .098-.055.144-.055.042-.225.055-.084.008-.25.013h-.33q-.17 0-.305.004h-.169q-.11.004-.156.05-.043.043-.043.208l.004.186q.009.144.009.407h.351q.225 0 .364.008.144.004.22.025.08.021.11.068.03.046.03.123 0 .038-.008.072-.005.03-.034.055-.03.02-.085.038-.055.012-.157.02-.122.009-.232.014h-.568v.516l.009.144q.004.068.017.114.017.047.055.076.042.03.118.043.08.012.212.012h.91q.148 0 .186.055.039.055.039.149 0 .076-.034.118-.034.038-.165.055-.127.021-.386.026-.254.004-.702.004-.19 0-.314-.034-.122-.034-.199-.115-.076-.08-.114-.207-.034-.131-.046-.318zm2.762-.538v.241q0 .102-.004.195 0 .093-.004.186l-.009.208q.292-.034.457-.055l.259-.034q.097-.013.148-.017.055-.004.127-.004.186 0 .186.182 0 .072-.076.123-.072.05-.186.089-.11.033-.25.059-.136.021-.267.03-.127.012-.233.016-.101.004-.144.004-.152 0-.237-.02-.084-.018-.127-.11-.042-.098-.055-.293-.008-.195-.008-.55v-.61q0-.267.004-.478.004-.212.004-.377.004-.165.013-.3.008-.174.06-.225.05-.055.126-.055.043 0 .072.008.034.004.06.034.025.03.038.085.016.055.02.156.018.373.022.737t.004.775zm2.312 1.012q-.055.101-.102.148-.042.046-.11.046t-.118-.046q-.051-.047-.11-.144-.077-.127-.174-.351-.093-.225-.19-.487-.098-.267-.191-.55-.093-.284-.17-.534-.071-.25-.118-.436-.042-.19-.042-.27 0-.086.034-.128.033-.042.13-.042.056 0 .094.03.042.025.106.152.05.097.11.254.06.156.123.347.067.19.135.402l.136.415.127.398q.059.19.11.343.05-.157.114-.347.063-.195.131-.398l.136-.415q.067-.212.135-.398l.127-.343q.06-.157.106-.258.06-.123.102-.153.046-.03.093-.03.097 0 .13.052.039.046.039.14 0 .084-.025.202-.026.119-.09.318-.059.195-.16.487l-.25.715q-.038.115-.089.237-.046.123-.097.242-.047.114-.093.22-.047.106-.09.182zm1.259-.474q-.009-.136-.017-.369-.008-.233-.008-.478v-.288l.008-.309q.009-.313.038-.491.034-.178.127-.267.098-.089.271-.11.174-.021.462-.021h.088q.09 0 .212.004.123 0 .254.004l.224.008q.094.008.149.025.059.013.089.038.03.022.038.055.008.03.008.068 0 .098-.055.144-.055.042-.224.055-.085.008-.25.013h-.33q-.17 0-.305.004h-.17q-.11.004-.156.05-.042.043-.042.208l.004.186q.008.144.008.407h.352q.224 0 .364.008.144.004.22.025.08.021.11.068.03.046.03.123 0 .038-.009.072-.004.03-.034.055-.03.02-.084.038-.055.012-.157.02-.123.009-.233.014h-.567v.516l.008.144q.005.068.017.114.017.047.055.076.043.03.119.043.08.012.211.012h.91q.149 0 .187.055.038.055.038.149 0 .076-.034.118-.034.038-.165.055-.127.021-.385.026-.254.004-.703.004-.19 0-.313-.034t-.2-.115q-.075-.08-.113-.207-.034-.131-.047-.318zm3.753-.416q-.195.009-.449.018-.254.004-.6.004-.145 0-.246-.004-.102-.004-.165-.022-.064-.02-.093-.063-.03-.042-.03-.119 0-.038.008-.067.009-.034.039-.06.03-.025.08-.042.055-.021.14-.03.063-.003.11-.007.05-.004.097-.004.047-.004.097-.004h.127q.23 0 .44.004.212 0 .441.012.102.008.157.026.055.012.084.038.03.025.034.059.009.034.009.076 0 .076-.055.127-.051.051-.225.06zm.641.797q-.008-.153-.012-.318 0-.165-.004-.355-.005-.191-.005-.411v-.5q0-.3.005-.512.004-.216.02-.351.022-.136.064-.2.043-.063.119-.063.072 0 .127.047.055.046.063.216.009.152.013.27l.008.238q.005.114.005.241v.5l.906-1.038q.177-.203.275-.266.097-.068.17-.068.084 0 .122.042.042.043.042.106 0 .026-.008.051-.009.025-.038.072-.026.042-.08.11-.056.064-.149.165l-.588.64.927 1.32q.034.047.05.098.022.05.022.097 0 .08-.047.131-.042.055-.152.055-.09 0-.161-.05-.068-.047-.127-.14l-.805-1.19-.364.398-.008.322q-.004.16-.013.338-.004.102-.021.157-.013.055-.038.085-.026.03-.06.034-.029.008-.071.008-.077 0-.127-.051-.051-.055-.06-.229zm2.419-.381q-.009-.136-.017-.369-.008-.233-.008-.478v-.288l.008-.309q.009-.313.038-.491.034-.178.127-.267.098-.089.271-.11.174-.021.462-.021h.088q.09 0 .212.004.123 0 .254.004l.224.008q.094.008.149.025.059.013.089.038.03.022.038.055.008.03.008.068 0 .098-.055.144-.055.042-.224.055-.085.008-.25.013h-.33q-.17 0-.305.004h-.17q-.11.004-.156.05-.042.043-.042.208l.004.186q.008.144.008.407h.352q.224 0 .364.008.144.004.22.025.08.021.11.068.03.046.03.123 0 .038-.009.072-.004.03-.034.055-.03.02-.084.038-.055.012-.157.02-.123.009-.233.014h-.567v.516l.008.144q.005.068.017.114.017.047.055.076.043.03.119.043.08.012.212.012h.91q.148 0 .186.055.038.055.038.149 0 .076-.034.118-.034.038-.165.055-.127.021-.385.026-.254.004-.703.004-.19 0-.313-.034t-.2-.115q-.075-.08-.113-.207-.034-.131-.047-.318zm3.105.381l-.016-.496q-.005-.266-.005-.614l-.842-1.206q-.034-.047-.055-.097-.017-.051-.017-.098 0-.08.042-.131.047-.055.157-.055.089 0 .157.05.072.047.13.14l.632 1.004.63-1.004q.06-.093.127-.14.072-.05.161-.05.11 0 .153.055.046.05.046.131 0 .047-.021.098-.017.05-.05.097l-.826 1.181q0 .288-.009.555-.004.262-.017.575-.004.102-.02.157-.014.055-.039.085-.025.03-.06.034-.029.008-.071.008-.076 0-.127-.051-.051-.055-.06-.229z"
       font-family="Sniglet"
       fill="#969696"
       id="path73" />
  </g>
  <rect
     ry=".817"
     y="8.963"
     x=".789"
     height="41.574"
     width="77.778"
     fill="url(#e)"
     id="rect77" />
  <rect
     y="9.26"
     x="1.059"
     height="41.01"
     width="77.258"
     rx=".609"
     ry=".609"
     fill="#333"
     paint-order="markers stroke fill"
     id="rect79" />
  <path
     d="M19.05 10.59l.048 18.245 3.397 1.85v18.278h-9.282V30.685l3.46-1.85V10.59zm32.702 0l.048 18.245 3.397 1.85v18.278h-9.282V30.685l3.46-1.85V10.59zm8.477 0l-.047 18.245-3.397 1.85v18.278h9.282V30.685l-3.461-1.85V10.59zm-52.049 0l.048 18.245 3.397 1.85v18.278H2.343V30.685L2.336 10.59h3.468zm19.34 0l-.048 18.245-3.397 1.85v18.278h9.282V30.685l.008-20.095h-3.469zm13.362 0l.048 18.245 3.397 1.85v18.278h-9.282V30.685l-.007-20.095h3.468zm30.217 0l-.048 18.245-3.397 1.85v18.278h9.283V30.685l.007-20.095h-3.469z"
     fill="#999"
     stroke="#000"
     stroke-width=".265"
     id="path81" />
  <path
     word-spacing="0"
     letter-spacing="0"
     font-size="2.822"
     font-weight="400"
     d="M25.92 56.26c-.102.004-.227.007-.377.008-.146.004-.314.006-.504.006a.701.701 0 0 1-.214-.023c-.042-.015-.064-.053-.064-.116 0-.017.002-.032.004-.045a.094.094 0 0 1 .02-.04.097.097 0 0 1 .042-.03.274.274 0 0 1 .073-.017l.095-.006c.034-.002.072-.003.113-.003.043-.002.092-.003.146-.003h.192a9.247 9.247 0 0 1 .471.011.288.288 0 0 1 .082.014.119.119 0 0 1 .044.028c.01.011.016.025.018.04a.278.278 0 0 1 .004.05c0 .034-.01.062-.029.085-.017.023-.056.036-.117.04zm14.283.015c-.044.004-.09.007-.14.008l-.154.003v.127c0 .064-.001.119-.003.164a.365.365 0 0 1-.017.11.1.1 0 0 1-.04.062.134.134 0 0 1-.078.02.19.19 0 0 1-.048-.006.081.081 0 0 1-.037-.025.185.185 0 0 1-.03-.054.47.47 0 0 1-.018-.093l-.005-.073-.006-.068v-.161c-.096 0-.175-.001-.237-.003a.977.977 0 0 1-.147-.014.142.142 0 0 1-.076-.042.14.14 0 0 1-.02-.08c0-.017.002-.032.006-.045a.086.086 0 0 1 .025-.04.17.17 0 0 1 .054-.027.383.383 0 0 1 .093-.02l.073-.006a.773.773 0 0 1 .068-.003.796.796 0 0 1 .07-.003h.09c.003-.049.004-.097.004-.144l.008-.147a.456.456 0 0 1 .014-.104.168.168 0 0 1 .029-.057.058.058 0 0 1 .04-.022.19.19 0 0 1 .05-.006c.033 0 .061.012.085.037.022.022.036.072.04.15l.005.137.005.158c.094 0 .192.003.294.008.045.004.08.01.104.017a.122.122 0 0 1 .057.026c.013.011.02.025.022.04a.19.19 0 0 1 .006.05.113.113 0 0 1-.037.085c-.023.023-.073.036-.15.04z"
     style="line-height:1.25;-inkscape-font-specification:'Sniglet, Normal';font-variant-ligatures:normal;font-variant-caps:normal;font-variant-numeric:normal;font-feature-settings:normal;text-align:start"
     font-family="Sniglet"
     fill="#c8c8c8"
     id="path83" />
  <rect
     ry="1.614"
     y="56.829"
     x="50.293"
     height="9.067"
     width="7.488"
     fill="url(#f)"
     id="rect85" />
  <g
     transform="translate(-26.39 -161.247)"
     id="g91">
    <rect
       width="4.24"
       height=".439"
       x="26.759"
       y="161.611"
       ry=".206"
       fill="url(#g)"
       id="rect87" />
    <rect
       width="4.24"
       height=".413"
       x="162.21"
       y="-26.119"
       ry=".194"
       transform="matrix(.00655 .99998 -.99973 .02317 0 0)"
       fill="url(#h)"
       id="rect89" />
  </g>
  <rect
     ry=".529"
     y="84.029"
     x="37.375"
     height="6.391"
     width="4.655"
     fill="url(#i)"
     id="rect93" />
  <g
     aria-label="10V"
     style="line-height:1.25"
     font-weight="400"
     font-size="2.822"
     font-family="Sniglet"
     letter-spacing="0"
     word-spacing="0"
     fill="#c8c8c8"
     stroke-width=".265"
     id="g97">
    <path
       d="M34.192 70.937q-.005-.101-.008-.211 0-.11-.003-.238-.003-.127-.003-.273V69.529l-.17.087q-.07.046-.112.054-.04.009-.088.009-.042 0-.076-.037-.03-.037-.03-.088 0-.05.033-.087.037-.04.085-.07.062-.043.132-.085.074-.043.141-.077.068-.036.125-.056.059-.023.098-.023.02 0 .04.006.023.006.04.023.02.017.03.053.015.034.017.093l.009.178.006.15q.002.07.002.15v.425q0 .116-.002.23l-.006.228q-.003.115-.009.242-.002.068-.014.105-.008.036-.025.056-.017.02-.04.023-.02.005-.048.005-.05 0-.084-.033-.034-.037-.04-.153zM34.744 70.147q0-.172.031-.353.034-.18.119-.327.085-.147.228-.24.147-.093.373-.093.178 0 .302.053.127.054.209.142.082.087.127.2.045.11.068.231.022.122.025.24.006.119.006.218 0 .197-.048.364-.046.163-.142.282-.093.118-.237.186-.14.065-.333.065-.2 0-.341-.076-.138-.08-.226-.209-.085-.133-.124-.308-.037-.177-.037-.375zm.282-.006q0 .139.023.266.025.124.08.22.053.093.137.15.088.056.212.056.119 0 .206-.048.09-.048.15-.133.059-.087.087-.206.028-.118.028-.257 0-.104-.008-.237-.009-.135-.054-.254-.042-.118-.135-.2-.093-.082-.26-.082-.141 0-.231.068-.088.068-.141.175-.054.104-.074.234-.02.127-.02.248zM37.285 71q-.036.067-.067.098-.028.031-.074.031-.045 0-.079-.03-.034-.032-.073-.097-.05-.085-.116-.234-.062-.15-.127-.325-.065-.177-.127-.367-.062-.189-.113-.355-.048-.167-.079-.29-.028-.128-.028-.181 0-.057.023-.085.022-.028.087-.028.037 0 .062.02.028.016.07.101.035.065.074.17.04.104.082.23.045.128.09.269l.09.276q.046.139.085.266.04.127.074.228l.076-.231.087-.265.09-.277q.046-.141.091-.265l.085-.229q.04-.104.07-.172.04-.082.068-.102.031-.02.062-.02.065 0 .088.034.025.032.025.094 0 .056-.017.135-.017.08-.06.212-.039.13-.106.324l-.167.477q-.025.076-.06.158-.03.082-.064.161l-.062.147q-.031.07-.06.121z"
       style="-inkscape-font-specification:'Sniglet, Normal';font-variant-ligatures:normal;font-variant-caps:normal;font-variant-numeric:normal;font-feature-settings:normal;text-align:start"
       id="path95" />
  </g>
  <g
     aria-label="5V"
     style="line-height:1.25"
     font-weight="400"
     font-size="2.822"
     font-family="Sniglet"
     letter-spacing="0"
     word-spacing="0"
     fill="#c8c8c8"
     stroke-width=".265"
     id="g101">
    <path
       d="M40.054 69.137q.098 0 .194.005.096.006.17.023.076.014.121.045.048.028.048.076 0 .054-.042.093-.04.04-.172.04-.167 0-.266.003-.096 0-.155.002l-.09.006-.077.006q-.039.002-.062.014-.02.008-.03.034-.01.022-.012.065-.003.039-.003.101v.076q.003.031.003.068.212.009.39.037.18.028.31.099.133.067.206.189.073.12.073.319 0 .2-.053.333-.054.13-.144.211-.088.08-.206.113-.116.031-.24.031-.107 0-.226-.02-.118-.022-.22-.079-.102-.056-.17-.152-.064-.099-.064-.248 0-.088.042-.133.045-.045.102-.045.048 0 .09.034.042.03.045.115.003.085.04.139.036.053.093.084.056.031.127.043.07.011.144.011.178 0 .268-.102.09-.101.09-.316 0-.138-.065-.217-.062-.082-.16-.121-.097-.043-.212-.054-.116-.014-.22-.017l-.178-.006q-.074-.005-.09-.028-.02-.028-.032-.07-.01-.045-.017-.093l-.008-.094v-.087q0-.164.031-.268.031-.105.107-.164.076-.06.2-.079.128-.022.32-.022zM41.712 71q-.037.067-.068.098-.028.031-.073.031t-.08-.03q-.033-.032-.073-.097-.05-.085-.115-.234-.062-.15-.127-.325-.065-.177-.127-.367-.062-.189-.113-.355-.048-.167-.08-.29-.027-.128-.027-.181 0-.057.022-.085.023-.028.088-.028.036 0 .062.02.028.016.07.101.034.065.074.17.04.104.082.23.045.128.09.269l.09.276.085.266.073.228.076-.231.088-.265.09-.277q.045-.141.09-.265l.085-.229q.04-.104.07-.172.04-.082.068-.102.031-.02.063-.02.064 0 .087.034.025.032.025.094 0 .056-.016.135-.017.08-.06.212-.04.13-.107.324l-.167.477q-.025.076-.059.158-.03.082-.065.161-.03.076-.062.147-.03.07-.06.121z"
       style="-inkscape-font-specification:'Sniglet, Normal';font-variant-ligatures:normal;font-variant-caps:normal;font-variant-numeric:normal;font-feature-settings:normal;text-align:start"
       id="path99" />
  </g>
  <g
     aria-label="1V"
     style="line-height:1.25"
     font-weight="400"
     font-size="2.822"
     font-family="Sniglet"
     letter-spacing="0"
     word-spacing="0"
     fill="#c8c8c8"
     stroke-width=".265"
     id="g105">
    <path
       d="M45.022 70.937q-.005-.101-.008-.211 0-.11-.003-.238-.003-.127-.003-.273V69.529l-.169.087q-.07.046-.113.054-.04.009-.087.009-.043 0-.077-.037-.03-.037-.03-.088 0-.05.033-.087.037-.04.085-.07.062-.043.133-.085.073-.043.14-.077.068-.036.125-.056.06-.023.099-.023.02 0 .04.006.022.006.039.023.02.017.03.053.015.034.018.093l.008.178.006.15q.002.07.002.15v.425q0 .116-.002.23l-.006.228-.008.242q-.003.068-.015.105-.008.036-.025.056-.017.02-.04.023-.02.005-.047.005-.051 0-.085-.033-.034-.037-.04-.153zM46.401 71q-.036.067-.067.098-.029.031-.074.031t-.079-.03q-.034-.032-.073-.097-.05-.085-.116-.234-.062-.15-.127-.325-.065-.177-.127-.367-.062-.189-.113-.355-.048-.167-.079-.29-.028-.128-.028-.181 0-.057.023-.085.022-.028.087-.028.037 0 .062.02.028.016.07.101.035.065.074.17.04.104.082.23.045.128.09.269l.09.276q.046.139.085.266.04.127.074.228.033-.104.076-.231l.087-.265.09-.277q.046-.141.09-.265l.086-.229q.04-.104.07-.172.04-.082.068-.102.03-.02.062-.02.065 0 .087.034.026.032.026.094 0 .056-.017.135-.017.08-.06.212-.039.13-.107.324l-.166.477q-.025.076-.06.158-.03.082-.064.161l-.062.147q-.031.07-.06.121z"
       style="-inkscape-font-specification:'Sniglet, Normal';font-variant-ligatures:normal;font-variant-caps:normal;font-variant-numeric:normal;font-feature-settings:normal;text-align:start"
       id="path103" />
  </g>
  <g
     aria-label="2ST"
     style="line-height:1.25"
     font-weight="400"
     font-size="2.822"
     font-family="Sniglet"
     letter-spacing="0"
     word-spacing="0"
     fill="#c8c8c8"
     stroke-width=".265"
     id="g109">
    <path
       d="M49.52 69.396q-.101 0-.169.023-.067.02-.113.053-.045.034-.073.071-.025.037-.05.07-.023.034-.052.057-.025.02-.065.02-.067 0-.095-.034-.026-.037-.026-.096 0-.124.093-.231.028-.034.076-.071.051-.04.119-.07.07-.032.16-.051.094-.023.21-.023.307 0 .477.15.169.15.169.42 0 .054-.011.119-.009.065-.037.135-.025.07-.073.147-.048.076-.127.155-.07.07-.15.13-.079.06-.164.118l-.177.127q-.09.065-.184.15.09.048.195.062.104.014.234.014.121 0 .195-.005.073-.006.118-.014l.07-.015q.026-.005.055-.005.104 0 .104.096 0 .084-.07.13-.071.045-.17.067-.099.02-.203.023-.105.006-.172.006-.037 0-.105-.006-.065-.003-.14-.014-.077-.011-.156-.031-.076-.023-.141-.057-.062-.036-.102-.087-.04-.054-.04-.127 0-.099.071-.186.074-.09.18-.175.108-.088.232-.173.125-.087.232-.177.107-.093.178-.192.073-.1.073-.215 0-.144-.099-.214-.096-.074-.276-.074zM51.226 69.108q.08 0 .18.015.105.01.196.045.09.03.152.084.062.051.062.127 0 .046-.025.077-.026.03-.082.03-.042 0-.088-.016-.042-.017-.098-.034-.054-.02-.127-.037-.071-.017-.167-.017-.186 0-.277.068-.087.065-.087.18 0 .08.04.133.039.054.104.093.068.037.15.062.084.026.172.048.098.026.194.062.1.037.175.096.077.06.122.15.048.09.048.229 0 .144-.054.26-.054.112-.147.194-.093.079-.223.124-.13.042-.282.042-.085 0-.197-.016-.113-.015-.215-.051-.101-.04-.172-.102-.07-.065-.07-.158 0-.056.028-.09.03-.034.09-.034.048 0 .079.02.031.017.054.04.084.073.191.098.108.025.22.025.066 0 .136-.008.073-.011.133-.042.059-.031.099-.088.039-.06.039-.158 0-.09-.037-.147-.034-.059-.093-.099-.06-.039-.14-.064-.08-.026-.173-.051-.104-.028-.206-.062t-.18-.09q-.08-.06-.13-.147-.049-.09-.049-.229 0-.138.051-.243.051-.104.139-.175.087-.07.206-.107.12-.037.26-.037zM53.278 69.385q-.079.006-.17.008l-.194.006.006.144.005.133q.003.067.003.14.003.074.003.164v.246q0 .116-.003.234l-.006.234q-.002.119-.008.246-.003.068-.014.104-.009.037-.026.057-.017.02-.04.022-.022.006-.05.006-.05 0-.087-.034-.034-.036-.04-.152-.005-.102-.008-.215 0-.113-.003-.242-.003-.13-.003-.28v-.336-.27q.003-.116.009-.201h-.116q-.119 0-.203-.003-.082-.003-.136-.014-.053-.014-.079-.042-.022-.028-.022-.08 0-.025.005-.044.006-.023.026-.04.02-.02.053-.03.037-.012.093-.018l.096-.005.085-.006q.042-.003.087-.003h.105q.166 0 .313.003.15.003.316.011.068.006.105.017.036.009.056.026.02.016.023.04.005.022.005.05 0 .05-.036.085-.034.033-.15.039z"
       style="-inkscape-font-specification:'Sniglet, Normal';font-variant-ligatures:normal;font-variant-caps:normal;font-variant-numeric:normal;font-feature-settings:normal;text-align:start"
       id="path107" />
  </g>
  <g
     aria-label="ST"
     style="line-height:1.25"
     font-weight="400"
     font-size="2.822"
     font-family="Sniglet"
     letter-spacing="0"
     word-spacing="0"
     fill="#c8c8c8"
     stroke-width=".265"
     id="g113">
    <path
       d="M55.269 69.108q.079 0 .18.015.105.01.195.045.09.03.153.084.062.051.062.127 0 .046-.026.077-.025.03-.082.03-.042 0-.087-.016-.042-.017-.099-.034-.054-.02-.127-.037-.07-.017-.166-.017-.187 0-.277.068-.087.065-.087.18 0 .08.039.133.04.054.104.093.068.037.15.062.085.026.172.048.099.026.195.062.099.037.175.096.076.06.121.15.048.09.048.229 0 .144-.053.26-.054.112-.147.194-.093.079-.223.124-.13.042-.282.042-.085 0-.198-.016-.113-.015-.214-.051-.102-.04-.173-.102-.07-.065-.07-.158 0-.056.028-.09.031-.034.09-.034.048 0 .08.02.03.017.053.04.085.073.192.098.107.025.22.025.065 0 .136-.008.073-.011.132-.042.06-.031.099-.088.04-.06.04-.158 0-.09-.037-.147-.034-.059-.093-.099-.06-.039-.141-.064-.08-.026-.173-.051-.104-.028-.206-.062-.101-.034-.18-.09-.08-.06-.13-.147-.048-.09-.048-.229 0-.138.05-.243.052-.104.14-.175.087-.07.205-.107.121-.037.26-.037zM57.32 69.385q-.078.006-.169.008l-.194.006.005.144.006.133q.003.067.003.14.002.074.002.164v.246l-.002.234-.006.234q-.003.119-.009.246-.002.068-.014.104-.008.037-.025.057-.017.02-.04.022-.022.006-.05.006-.051 0-.088-.034-.034-.036-.04-.152-.005-.102-.008-.215 0-.113-.003-.242-.002-.13-.002-.28v-.336-.27q.002-.116.008-.201h-.116q-.118 0-.203-.003-.082-.003-.135-.014-.054-.014-.08-.042-.022-.028-.022-.08 0-.025.006-.044.005-.023.025-.04.02-.02.054-.03.036-.012.093-.018l.096-.005.084-.006q.043-.003.088-.003h.104q.167 0 .314.003.15.003.316.011.067.006.104.017.037.009.057.026.02.016.022.04.006.022.006.05 0 .05-.037.085-.034.033-.15.039z"
       style="-inkscape-font-specification:'Sniglet, Normal';font-variant-ligatures:normal;font-variant-caps:normal;font-variant-numeric:normal;font-feature-settings:normal;text-align:start"
       id="path111" />
  </g>
  <rect
     rx="2.34"
     ry="2.34"
     y="78.916"
     x="46.976"
     height="14.036"
     width="13.802"
     fill="#3e3e3e"
     stroke="#c8c8c8"
     stroke-width=".265"
     paint-order="stroke markers fill"
     id="rect115" />
  <g
     aria-label="VEL"
     style="line-height:1.25"
     font-weight="400"
     font-size="2.822"
     font-family="Sniglet"
     letter-spacing="0"
     word-spacing="0"
     fill="#c8c8c8"
     stroke-width=".265"
     id="g119">
    <path
       d="M24.09 82.918q-.037.068-.068.1-.028.03-.073.03t-.08-.03q-.033-.032-.073-.097-.05-.084-.115-.234-.063-.15-.127-.325-.065-.177-.127-.367-.063-.189-.113-.355-.048-.167-.08-.29-.028-.128-.028-.181 0-.057.023-.085.023-.028.087-.028.037 0 .063.02.028.016.07.101.034.065.074.17.039.104.081.23.046.128.09.269l.091.276.085.266.073.228.076-.231.088-.265.09-.277q.045-.141.09-.265l.085-.229q.04-.104.07-.172.04-.082.068-.102.031-.02.062-.02.065 0 .088.035.025.03.025.093 0 .056-.017.135-.017.08-.059.212-.04.13-.107.324l-.167.477q-.025.077-.059.158-.031.082-.065.161-.03.076-.062.147-.031.07-.06.121zM24.93 82.602q-.006-.09-.012-.245t-.006-.32v-.191l.006-.206q.006-.209.025-.327.023-.119.085-.178.065-.06.18-.074.116-.014.308-.014h.06q.059 0 .14.003.083 0 .17.003l.15.005q.062.006.098.017.04.009.06.026.02.014.025.036.006.02.006.046 0 .065-.037.096-.037.028-.15.036-.056.006-.166.009h-.22q-.113 0-.203.003h-.113q-.074.002-.105.033-.028.029-.028.139l.003.124q.005.096.005.27h.235q.15 0 .242.006.096.003.147.017.054.014.073.046.02.03.02.081 0 .026-.005.048-.003.02-.023.037-.02.014-.056.025-.037.009-.105.015l-.155.008h-.378v.344l.005.096q.003.045.012.077.011.03.036.05.029.02.08.029.053.008.14.008h.607q.1 0 .125.037.025.036.025.098 0 .051-.023.08-.022.025-.11.036-.084.014-.257.017-.169.003-.468.003-.127 0-.209-.023-.082-.022-.133-.076-.05-.053-.076-.138-.022-.088-.03-.212zM26.771 82.244v.16q0 .068-.003.13 0 .063-.003.125l-.005.138.305-.037.172-.022q.065-.009.099-.012.036-.002.084-.002.124 0 .124.121 0 .048-.05.082-.048.034-.125.06-.073.022-.166.039-.09.014-.178.02-.085.008-.155.01l-.096.003q-.102 0-.158-.014-.057-.01-.085-.073-.028-.065-.036-.195-.006-.13-.006-.367v-.406q0-.178.003-.319.003-.141.003-.251.002-.11.008-.2.006-.116.04-.15.033-.037.084-.037.028 0 .048.006.023.003.04.022.017.02.025.057.011.037.014.104.012.249.014.491.003.243.003.517z"
       style="-inkscape-font-specification:'Sniglet, Normal';font-variant-ligatures:normal;font-variant-caps:normal;font-variant-numeric:normal;font-feature-settings:normal;text-align:start"
       id="path117" />
  </g>
  <g
     aria-label="BIPOL"
     style="line-height:1.25"
     font-weight="400"
     font-size="2.822"
     font-family="Sniglet"
     letter-spacing="0"
     word-spacing="0"
     fill="#c8c8c8"
     stroke-width=".265"
     id="g123">
    <path
       d="M36.783 82.969q-.158 0-.254-.026-.096-.025-.15-.07-.05-.048-.07-.116-.017-.068-.026-.152-.008-.1-.014-.26-.003-.164-.003-.339v-.177q.003-.096.003-.187l.006-.172q.002-.079.008-.135.009-.088.028-.158.02-.07.074-.122.056-.05.155-.076.101-.028.268-.028.378 0 .564.141.19.138.19.395 0 .133-.06.246-.056.112-.197.169.079.014.144.06.065.044.11.11.048.061.07.14.026.077.026.156 0 .101-.043.208-.042.105-.144.192-.101.088-.27.144-.167.057-.415.057zm.59-.61q0-.101-.049-.164-.045-.062-.118-.093-.073-.034-.164-.045-.09-.011-.18-.011h-.147q-.076 0-.141.003l-.006.121-.005.119v.152q0 .076.01.127.012.05.043.082.031.03.088.045.059.011.15.011.248 0 .383-.087.136-.088.136-.26zm-.523-1.14q-.093 0-.152.017-.056.014-.088.04-.028.025-.04.061-.008.037-.008.08v.395q.04.002.082.002h.085q.102 0 .198-.014.098-.014.177-.048.08-.034.127-.093.048-.06.048-.152 0-.127-.104-.206-.102-.082-.325-.082zM37.951 82.794q-.005-.102-.008-.212 0-.11-.003-.237t-.003-.274v-.333q0-.2.003-.341.003-.144.017-.234.014-.09.042-.133.031-.042.082-.042.025 0 .048.005.022.006.04.026.016.016.028.053.014.034.017.09l.008.181.006.158q.002.076.002.161v.429q0 .116-.002.229l-.006.228-.008.243q-.003.068-.015.104-.01.037-.028.057-.017.02-.04.022-.022.006-.05.006-.05 0-.088-.034-.036-.037-.042-.152zM38.88 82.79q0 .069-.014.105-.011.037-.031.057-.017.02-.042.022-.023.006-.046.006-.076 0-.101-.034-.023-.034-.031-.152-.006-.062-.009-.18l-.005-.283q0-.164-.003-.361v-.418q0-.104.025-.212.026-.107.096-.194.074-.088.2-.142.13-.053.336-.053.144 0 .274.03.13.032.229.108t.158.203q.06.127.06.316 0 .198-.066.328-.065.13-.183.206-.119.076-.282.107-.164.031-.359.031h-.096q-.048 0-.107-.006zm.813-1.187q0-.19-.107-.285-.105-.096-.35-.096-.094 0-.161.017-.065.014-.107.053-.043.037-.065.102-.02.065-.02.164v.22q0 .121.003.228.065.003.144.003h.152q.085 0 .175-.011.093-.011.166-.05.074-.043.122-.122.048-.082.048-.223zM40.958 82.997q-.17 0-.319-.068-.146-.068-.257-.195-.11-.13-.175-.316-.062-.186-.062-.423 0-.223.054-.41.056-.185.164-.32.11-.136.27-.21.162-.076.373-.076.172 0 .328.062.155.062.27.186.119.125.187.31.067.187.067.435 0 .207-.056.393-.054.186-.166.327-.11.138-.28.223-.17.082-.398.082zm.006-.265q.155 0 .27-.062.116-.065.193-.17.076-.104.113-.24.036-.138.036-.282 0-.175-.048-.31-.045-.139-.124-.232t-.183-.14q-.105-.052-.223-.052-.141 0-.249.06-.104.059-.177.16-.071.102-.108.24-.036.136-.036.291 0 .167.042.305.042.135.113.231.073.096.172.15.099.05.209.05zM42.424 82.181v.161q0 .068-.002.13 0 .062-.003.124l-.006.138q.195-.022.305-.036l.172-.023.099-.011q.037-.003.085-.003.124 0 .124.121 0 .048-.051.082-.048.034-.124.06-.074.022-.167.04-.09.013-.178.019-.084.008-.155.011l-.096.003q-.101 0-.158-.014-.056-.011-.084-.074-.029-.064-.037-.194-.006-.13-.006-.367v-.407q0-.177.003-.318.003-.142.003-.252.003-.11.008-.2.006-.116.04-.15.034-.036.085-.036.028 0 .048.005.022.003.039.023t.025.056q.012.037.015.105.01.248.014.49.002.244.002.517z"
       style="-inkscape-font-specification:'Sniglet, Normal';font-variant-ligatures:normal;font-variant-caps:normal;font-variant-numeric:normal;font-feature-settings:normal;text-align:start"
       id="path121" />
  </g>
  <g
     aria-label="VEL"
     style="line-height:1.25"
     font-weight="400"
     font-size="2.822"
     font-family="Sniglet"
     letter-spacing="0"
     word-spacing="0"
     fill="#c8c8c8"
     stroke-width=".265"
     id="g127">
    <path
       d="M52.757 82.921q-.036.068-.067.1-.029.03-.074.03t-.079-.03q-.034-.032-.073-.097-.051-.084-.116-.234-.062-.15-.127-.325-.065-.177-.127-.367-.062-.189-.113-.355-.048-.167-.079-.29-.028-.128-.028-.181 0-.057.023-.085.022-.028.087-.028.037 0 .062.02.028.016.07.101.035.065.074.17.04.104.082.23.045.128.09.269l.09.276q.046.139.085.266.04.127.074.228.033-.104.076-.231l.087-.265.09-.277q.046-.141.09-.265l.086-.229q.04-.104.07-.172.04-.082.068-.102.03-.02.062-.02.065 0 .087.035.026.03.026.093 0 .056-.017.135-.017.08-.06.212-.039.13-.107.324l-.166.477q-.026.077-.06.158-.03.082-.064.161l-.062.147q-.031.07-.06.121zM53.597 82.605q-.006-.09-.011-.245-.006-.155-.006-.32v-.191l.006-.206q.005-.209.025-.327.023-.119.085-.178.065-.06.18-.074.116-.014.308-.014h.06q.058 0 .14.003.082 0 .17.003l.15.005q.061.006.098.017.04.009.06.026.019.014.025.036.005.02.005.046 0 .065-.037.096-.036.028-.15.036-.056.006-.166.009h-.22q-.113 0-.203.003h-.113q-.073.002-.104.033-.028.029-.028.139l.002.124q.006.096.006.27h.234q.15 0 .243.006.096.003.147.017.053.014.073.046.02.03.02.081 0 .026-.006.048-.003.02-.022.037-.02.014-.057.025-.037.009-.104.015l-.155.008h-.379v.344l.006.096q.003.045.011.077.012.03.037.05.028.02.079.029.054.008.141.008h.607q.099 0 .124.037.025.036.025.099 0 .05-.022.079-.023.025-.11.036-.085.014-.257.017-.17.003-.468.003-.127 0-.21-.023-.081-.022-.132-.076-.05-.053-.076-.138-.023-.088-.031-.212zM55.439 82.247v.16q0 .068-.003.13 0 .063-.003.125l-.006.138.305-.037.172-.022q.065-.009.1-.012.036-.002.084-.002.124 0 .124.121 0 .048-.05.082-.049.034-.125.06-.073.022-.167.039-.09.014-.177.02-.085.008-.156.01l-.095.003q-.102 0-.159-.014-.056-.01-.084-.073-.028-.065-.037-.195-.006-.13-.006-.367v-.406q0-.178.003-.319.003-.141.003-.251.003-.11.009-.2.005-.116.04-.15.033-.037.084-.037.028 0 .048.006.022.003.04.022.016.02.025.057.011.037.014.104.011.249.014.491.003.243.003.517z"
       style="-inkscape-font-specification:'Sniglet, Normal';font-variant-ligatures:normal;font-variant-caps:normal;font-variant-numeric:normal;font-feature-settings:normal;text-align:start"
       id="path125" />
  </g>
  <path
     d="M45.685 87.27H43.2M32.86 74.294h-2.485M48.073 61.34h-2.484"
     fill="none"
     stroke="#c8c8c8"
     stroke-width=".132"
     id="path129" />
</svg>
