<?xml version="1.0" encoding="UTF-8" standalone="no"?>
<svg
   xmlns:dc="http://purl.org/dc/elements/1.1/"
   xmlns:cc="http://creativecommons.org/ns#"
   xmlns:rdf="http://www.w3.org/1999/02/22-rdf-syntax-ns#"
   xmlns:svg="http://www.w3.org/2000/svg"
   xmlns="http://www.w3.org/2000/svg"
   xmlns:xlink="http://www.w3.org/1999/xlink"
   xmlns:sodipodi="http://sodipodi.sourceforge.net/DTD/sodipodi-0.dtd"
   xmlns:inkscape="http://www.inkscape.org/namespaces/inkscape"
   width="101.6mm"
   height="128.5mm"
   viewBox="0 0 101.6 128.50044"
   version="1.1"
   id="svg116"
   sodipodi:docname="TwelveKey_dark.svg"
   inkscape:version="0.92.2 (5c3e80d, 2017-08-06)">
  <metadata
     id="metadata120">
    <rdf:RDF>
      <cc:Work
         rdf:about="">
        <dc:format>image/svg+xml</dc:format>
        <dc:type
           rdf:resource="http://purl.org/dc/dcmitype/StillImage" />
        <dc:title />
      </cc:Work>
    </rdf:RDF>
  </metadata>
  <sodipodi:namedview
     pagecolor="#ffffff"
     bordercolor="#666666"
     borderopacity="1"
     objecttolerance="10"
     gridtolerance="10"
     guidetolerance="10"
     inkscape:pageopacity="0"
     inkscape:pageshadow="2"
     inkscape:window-width="1366"
     inkscape:window-height="705"
     id="namedview118"
     showgrid="false"
     inkscape:document-units="mm"
     units="mm"
     inkscape:zoom="1.0192121"
     inkscape:cx="-22.849533"
     inkscape:cy="226.54927"
     inkscape:window-x="251"
     inkscape:window-y="1072"
     inkscape:window-maximized="1"
     inkscape:current-layer="svg116" />
  <defs
     id="defs22">
    <linearGradient
       id="a">
      <stop
         offset="0"
         id="stop2" />
      <stop
         offset="1"
         stop-color="#8c8c8c"
         id="stop4" />
    </linearGradient>
    <linearGradient
       xlink:href="#a"
       id="e"
       x1="66.150002"
       y1="224.20399"
       x2="66.150002"
       y2="233.271"
       gradientUnits="userSpaceOnUse"
       gradientTransform="matrix(1.2800044,0,0,1.2800044,-15.562293,-214.33698)" />
    <linearGradient
       xlink:href="#a"
       id="d"
       x1="98.709"
       y1="167.24001"
       x2="98.709"
       y2="197.73399"
       gradientUnits="userSpaceOnUse"
       gradientTransform="matrix(4.5382556,0,0,1.759814,-397.72041,-283.1577)" />
    <linearGradient
       xlink:href="#b"
       id="f"
       x1="26.759001"
       y1="162"
       x2="30.999001"
       y2="162"
       gradientUnits="userSpaceOnUse"
       gradientTransform="matrix(1,0,0,0.56406,0,70.452)" />
    <linearGradient
       id="b">
      <stop
         offset="0"
         stop-color="#fff"
         id="stop10" />
      <stop
         offset="1"
         stop-color="#fff"
         stop-opacity="0"
         id="stop12" />
    </linearGradient>
    <linearGradient
       xlink:href="#c"
       id="g"
       x1="26.759001"
       y1="162"
       x2="30.999001"
       y2="162"
       gradientUnits="userSpaceOnUse"
       gradientTransform="matrix(0.99995,0,0,0.53173,135.453,-112.052)" />
    <linearGradient
       id="c">
      <stop
         offset="0"
         stop-color="#fff"
         stop-opacity=".992"
         id="stop16" />
      <stop
         offset="1"
         stop-color="#fff"
         stop-opacity="0"
         id="stop18" />
    </linearGradient>
    <linearGradient
       xlink:href="#a"
       id="h"
       x1="66.150002"
       y1="224.20399"
       x2="66.150002"
       y2="233.271"
       gradientUnits="userSpaceOnUse"
       gradientTransform="matrix(0.79572754,0,0,0.9022751,-1.8534464,-94.833206)" />
  </defs>
  <path
     d="M 0,0 H 101.60035 V 128.50044 H 0 Z m 0,0"
     id="path24"
     inkscape:connector-curvature="0"
     style="fill:#1e1e1e;stroke-width:1;fill-opacity:1" />
  <g
     style="line-height:1.25;stroke-width:0.78124732"
     id="g28"
     transform="matrix(1.2800044,0,0,1.2800044,0,-0.09623859)">
    <path
       d="m 21.129,69.554 q -0.13,-0.285 -0.232,-0.55 -0.098,-0.268 -0.17,-0.477 -0.064,0.35 -0.11,0.706 -0.041,0.355 -0.11,0.68 -0.016,0.073 -0.061,0.099 -0.045,0.022 -0.076,0.022 -0.051,0 -0.082,-0.03 -0.029,-0.032 -0.029,-0.08 0,-0.065 0.015,-0.198 0.016,-0.135 0.04,-0.304 0.024,-0.17 0.056,-0.356 0.03,-0.186 0.062,-0.358 0.033,-0.175 0.062,-0.316 0.03,-0.142 0.053,-0.218 0.037,-0.13 0.15,-0.13 0.068,0 0.116,0.068 0.048,0.065 0.101,0.203 0.057,0.136 0.133,0.345 0.079,0.209 0.203,0.49 0.121,-0.281 0.195,-0.487 0.076,-0.21 0.127,-0.345 0.053,-0.138 0.101,-0.203 0.048,-0.068 0.119,-0.068 0.065,0 0.099,0.034 0.034,0.031 0.05,0.096 0.02,0.08 0.048,0.22 0.029,0.139 0.06,0.31 0.034,0.17 0.065,0.356 l 0.056,0.356 q 0.026,0.17 0.04,0.307 0.017,0.136 0.017,0.21 0,0.045 -0.031,0.073 -0.032,0.025 -0.08,0.025 -0.03,0 -0.076,-0.022 -0.045,-0.026 -0.062,-0.1 -0.034,-0.16 -0.062,-0.332 L 21.866,69.233 21.82,68.88 q -0.022,-0.178 -0.048,-0.353 -0.037,0.113 -0.084,0.248 -0.048,0.136 -0.102,0.274 -0.054,0.136 -0.11,0.268 -0.057,0.133 -0.11,0.24 -0.02,0.037 -0.054,0.057 -0.03,0.017 -0.065,0.017 -0.036,0 -0.07,-0.017 -0.031,-0.02 -0.048,-0.06 z m 2.521,0.336 q -0.029,-0.068 -0.063,-0.155 -0.03,-0.09 -0.067,-0.19 -0.085,0.004 -0.178,0.006 h -0.41 q -0.098,0 -0.18,-0.002 l -0.065,0.186 q -0.03,0.087 -0.06,0.155 -0.056,0.144 -0.163,0.144 -0.04,0 -0.076,-0.025 -0.034,-0.026 -0.034,-0.074 0,-0.048 0.017,-0.124 0.017,-0.079 0.042,-0.166 l 0.06,-0.184 q 0.03,-0.096 0.059,-0.178 0.028,-0.09 0.079,-0.228 l 0.113,-0.294 0.118,-0.299 q 0.06,-0.15 0.108,-0.26 0.01,-0.028 0.028,-0.062 0.017,-0.036 0.04,-0.067 0.025,-0.031 0.053,-0.054 0.031,-0.023 0.068,-0.023 0.036,0 0.067,0.026 0.031,0.022 0.054,0.056 0.025,0.034 0.042,0.07 0.02,0.038 0.031,0.066 0.046,0.113 0.102,0.26 0.06,0.146 0.116,0.296 0.059,0.15 0.11,0.285 0.05,0.135 0.082,0.228 0.025,0.082 0.056,0.175 0.034,0.093 0.062,0.184 0.028,0.09 0.045,0.17 0.02,0.075 0.02,0.123 0,0.048 -0.037,0.074 -0.034,0.025 -0.073,0.025 -0.05,0 -0.093,-0.034 -0.042,-0.036 -0.074,-0.11 z m -0.5,-0.62 q 0.068,0 0.135,0.002 0.068,0 0.136,0.003 l -0.068,-0.198 -0.065,-0.189 -0.053,-0.166 -0.04,-0.139 q -0.011,-0.036 -0.025,-0.059 -0.014,-0.022 -0.037,-0.022 -0.023,0 -0.037,0.025 -0.014,0.023 -0.025,0.06 -0.034,0.115 -0.096,0.301 l -0.127,0.387 q 0.076,-0.003 0.152,-0.003 0.077,-0.003 0.15,-0.003 z m 1.664,0.022 -0.42,0.652 q -0.04,0.062 -0.088,0.093 -0.045,0.034 -0.104,0.034 -0.074,0 -0.105,-0.037 -0.028,-0.034 -0.028,-0.087 0,-0.031 0.011,-0.065 0.014,-0.034 0.037,-0.065 l 0.525,-0.75 -0.525,-0.752 q -0.023,-0.03 -0.037,-0.065 -0.011,-0.033 -0.011,-0.064 0,-0.054 0.028,-0.088 0.031,-0.037 0.105,-0.037 0.059,0 0.104,0.034 0.048,0.031 0.088,0.093 l 0.42,0.652 0.42,-0.652 q 0.04,-0.062 0.085,-0.093 0.048,-0.034 0.108,-0.034 0.073,0 0.101,0.037 0.031,0.034 0.031,0.088 0,0.03 -0.014,0.064 -0.011,0.034 -0.034,0.065 l -0.525,0.751 0.525,0.75 q 0.023,0.032 0.034,0.066 0.014,0.034 0.014,0.065 0,0.053 -0.03,0.087 -0.03,0.037 -0.102,0.037 -0.06,0 -0.108,-0.034 -0.045,-0.031 -0.084,-0.093 z m 2.359,0.629 q -0.037,0.068 -0.068,0.099 -0.028,0.031 -0.073,0.031 -0.045,0 -0.079,-0.031 -0.034,-0.031 -0.073,-0.096 -0.051,-0.085 -0.116,-0.234 -0.062,-0.15 -0.127,-0.325 -0.065,-0.178 -0.127,-0.367 -0.062,-0.189 -0.113,-0.355 -0.048,-0.167 -0.079,-0.291 -0.028,-0.127 -0.028,-0.18 0,-0.057 0.022,-0.085 0.023,-0.028 0.088,-0.028 0.037,0 0.062,0.02 0.028,0.016 0.07,0.1 0.034,0.066 0.074,0.17 0.04,0.105 0.082,0.232 0.045,0.127 0.09,0.268 l 0.09,0.276 q 0.046,0.139 0.085,0.266 l 0.073,0.228 0.077,-0.231 0.087,-0.265 0.09,-0.277 q 0.046,-0.141 0.09,-0.265 l 0.085,-0.229 q 0.04,-0.104 0.07,-0.172 0.04,-0.082 0.069,-0.102 0.03,-0.02 0.062,-0.02 0.065,0 0.087,0.034 0.026,0.031 0.026,0.094 0,0.056 -0.017,0.135 -0.017,0.079 -0.06,0.212 -0.04,0.13 -0.107,0.324 l -0.166,0.477 q -0.026,0.076 -0.06,0.158 -0.03,0.082 -0.064,0.161 L 27.232,69.8 q -0.03,0.07 -0.059,0.121 z m 0.84,-0.316 q -0.006,-0.09 -0.012,-0.245 -0.005,-0.156 -0.005,-0.32 v -0.191 l 0.005,-0.206 q 0.006,-0.21 0.026,-0.328 0.022,-0.118 0.084,-0.177 0.065,-0.06 0.181,-0.074 0.116,-0.014 0.308,-0.014 h 0.059 q 0.06,0 0.141,0.003 0.082,0 0.17,0.003 0.09,0.002 0.149,0.005 0.062,0.006 0.099,0.017 0.04,0.009 0.059,0.026 0.02,0.014 0.025,0.036 0.006,0.02 0.006,0.045 0,0.065 -0.037,0.096 -0.036,0.029 -0.15,0.037 -0.056,0.006 -0.166,0.009 h -0.22 q -0.113,0 -0.203,0.002 h -0.113 q -0.073,0.003 -0.104,0.034 -0.029,0.028 -0.029,0.139 l 0.003,0.124 q 0.006,0.096 0.006,0.27 h 0.234 q 0.15,0 0.243,0.006 0.096,0.003 0.146,0.017 0.054,0.014 0.074,0.045 0.02,0.031 0.02,0.082 0,0.026 -0.006,0.048 -0.003,0.02 -0.023,0.037 -0.02,0.014 -0.056,0.025 -0.037,0.009 -0.104,0.014 -0.082,0.006 -0.156,0.009 h -0.378 v 0.344 l 0.006,0.096 q 0.003,0.045 0.011,0.076 0.011,0.031 0.037,0.051 0.028,0.02 0.079,0.028 0.053,0.009 0.14,0.009 h 0.608 q 0.098,0 0.124,0.037 0.025,0.036 0.025,0.098 0,0.051 -0.022,0.08 -0.023,0.025 -0.11,0.036 -0.085,0.014 -0.257,0.017 -0.17,0.003 -0.469,0.003 -0.127,0 -0.209,-0.023 -0.081,-0.022 -0.132,-0.076 -0.051,-0.054 -0.076,-0.138 -0.023,-0.088 -0.031,-0.212 z m 1.782,-0.358 v 0.16 q 0,0.068 -0.003,0.13 l -0.002,0.125 -0.006,0.138 0.305,-0.037 0.172,-0.022 q 0.065,-0.009 0.099,-0.012 0.036,-0.003 0.084,-0.003 0.125,0 0.125,0.122 0,0.048 -0.051,0.082 -0.048,0.034 -0.124,0.059 -0.074,0.023 -0.167,0.04 -0.09,0.014 -0.178,0.02 -0.084,0.008 -0.155,0.01 l -0.096,0.003 q -0.101,0 -0.158,-0.014 -0.056,-0.011 -0.085,-0.073 -0.028,-0.065 -0.036,-0.195 -0.006,-0.13 -0.006,-0.367 v -0.406 q 0,-0.178 0.003,-0.32 0.003,-0.14 0.003,-0.25 0.003,-0.11 0.008,-0.2 0.006,-0.116 0.04,-0.15 0.034,-0.037 0.084,-0.037 0.029,0 0.048,0.006 0.023,0.002 0.04,0.022 0.017,0.02 0.025,0.057 0.012,0.036 0.014,0.104 0.012,0.248 0.015,0.491 0.002,0.243 0.002,0.517 z"
       style="font-weight:400;font-size:2.82200003px;font-family:Sniglet;-inkscape-font-specification:'Sniglet, Normal';font-variant-ligatures:normal;font-variant-caps:normal;font-variant-numeric:normal;font-feature-settings:normal;text-align:start;letter-spacing:0;word-spacing:0;fill:#c8c8c8;stroke-width:0.78124732"
       aria-label="MAX VEL"
       font-weight="400"
       font-size="2.822"
       letter-spacing="0"
       word-spacing="0"
       id="path26"
       inkscape:connector-curvature="0" />
  </g>
  <rect
     rx="2.3399999"
     ry="2.3399999"
     y="67.984642"
     x="77.98555"
     height="50.896816"
     width="18.576704"
     id="rect30"
     style="fill:#3e3e3e;stroke:#8c8c8c;stroke-width:0.191;paint-order:stroke markers fill;stroke-opacity:1" />
  <g
     style="line-height:1.25;stroke-width:0.78124732"
     id="g34"
     transform="matrix(1.2800044,0,0,1.2800044,0,-0.09623859)">
    <path
       word-spacing="0"
       letter-spacing="0"
       font-weight="400"
       aria-label="♫"
       font-size="3.528"
       style="font-weight:400;font-size:3.52800012px;font-family:Arial;-inkscape-font-specification:'Arial, Normal';font-variant-ligatures:normal;font-variant-caps:normal;font-variant-numeric:normal;font-feature-settings:normal;text-align:start;letter-spacing:0;word-spacing:0;fill:#969696;stroke-width:0.78124732"
       d="m 48.15,96.87 -1.63,0.115 v -2.06 q 0,-0.23 0.065,-0.333 0.064,-0.104 0.22,-0.147 0.153,-0.043 0.348,-0.002 0.223,0.047 0.356,0.19 0.133,0.146 0.133,0.33 0,0.186 -0.157,0.286 -0.158,0.103 -0.408,0.05 -0.082,-0.018 -0.143,-0.044 -0.064,-0.027 -0.205,-0.11 v 1.345 l 1.219,-0.085 v -1.554 q 0,-0.225 0.065,-0.337 0.066,-0.11 0.226,-0.151 0.16,-0.04 0.348,0 0.223,0.047 0.354,0.19 0.13,0.14 0.13,0.325 0,0.195 -0.156,0.294 -0.156,0.1 -0.408,0.047 -0.16,-0.034 -0.357,-0.16 z"
       id="path32"
       inkscape:connector-curvature="0" />
  </g>
  <g
     style="line-height:1.25;stroke-width:0.78124732"
     id="g38"
     transform="matrix(1.2800044,0,0,1.2800044,0,-0.09623859)">
    <path
       word-spacing="0"
       letter-spacing="0"
       font-size="3.528"
       font-weight="400"
       aria-label="IMPROMPT"
       d="m 30.132,96.698 q -0.007,-0.127 -0.01,-0.265 0,-0.137 -0.004,-0.296 -0.003,-0.159 -0.003,-0.342 v -0.417 q 0,-0.25 0.003,-0.426 0.004,-0.18 0.021,-0.293 0.018,-0.113 0.053,-0.166 0.039,-0.053 0.102,-0.053 0.032,0 0.06,0.007 0.029,0.007 0.05,0.032 0.02,0.02 0.035,0.067 0.018,0.042 0.021,0.113 0.007,0.127 0.01,0.225 l 0.008,0.198 q 0.003,0.095 0.003,0.201 v 0.536 q 0,0.145 -0.003,0.286 l -0.007,0.286 -0.01,0.303 q -0.004,0.085 -0.018,0.13 -0.015,0.047 -0.036,0.071 -0.02,0.025 -0.05,0.028 -0.027,0.007 -0.063,0.007 -0.063,0 -0.109,-0.042 -0.046,-0.046 -0.053,-0.19 z m 1.754,-0.381 q -0.162,-0.357 -0.29,-0.688 -0.123,-0.335 -0.211,-0.596 -0.081,0.437 -0.138,0.882 -0.053,0.444 -0.137,0.85 -0.021,0.092 -0.078,0.123 -0.056,0.028 -0.095,0.028 -0.064,0 -0.102,-0.038 -0.036,-0.04 -0.036,-0.1 0,-0.08 0.018,-0.246 0.021,-0.17 0.05,-0.381 0.031,-0.212 0.07,-0.445 0.039,-0.232 0.078,-0.448 l 0.077,-0.395 q 0.039,-0.176 0.067,-0.271 0.046,-0.163 0.187,-0.163 0.085,0 0.145,0.085 0.06,0.081 0.127,0.254 0.07,0.17 0.166,0.43 0.098,0.262 0.254,0.614 0.151,-0.352 0.243,-0.61 0.095,-0.261 0.159,-0.43 0.067,-0.173 0.127,-0.254 0.06,-0.085 0.148,-0.085 0.081,0 0.123,0.042 0.043,0.039 0.064,0.12 0.025,0.099 0.06,0.275 0.035,0.173 0.074,0.388 0.042,0.212 0.081,0.445 0.039,0.233 0.07,0.444 0.032,0.212 0.05,0.385 0.021,0.17 0.021,0.261 0,0.056 -0.039,0.092 -0.038,0.031 -0.098,0.031 -0.04,0 -0.096,-0.028 -0.056,-0.032 -0.077,-0.123 -0.043,-0.201 -0.078,-0.417 L 32.807,95.915 32.75,95.474 q -0.028,-0.223 -0.06,-0.441 -0.046,0.14 -0.106,0.31 -0.06,0.17 -0.127,0.342 -0.067,0.17 -0.137,0.335 -0.07,0.166 -0.138,0.3 -0.024,0.046 -0.067,0.07 -0.039,0.022 -0.08,0.022 -0.047,0 -0.09,-0.021 -0.038,-0.025 -0.06,-0.074 z m 2.005,0.377 q 0,0.085 -0.018,0.13 -0.014,0.047 -0.039,0.071 -0.02,0.025 -0.053,0.029 -0.028,0.007 -0.056,0.007 -0.095,0 -0.127,-0.043 -0.028,-0.042 -0.039,-0.19 -0.007,-0.078 -0.01,-0.226 -0.004,-0.148 -0.007,-0.353 0,-0.204 -0.004,-0.451 v -0.522 q 0,-0.131 0.032,-0.265 0.032,-0.134 0.12,-0.243 0.091,-0.11 0.25,-0.177 0.162,-0.067 0.42,-0.067 0.18,0 0.342,0.039 0.162,0.039 0.286,0.134 0.123,0.095 0.198,0.254 0.074,0.159 0.074,0.395 0,0.247 -0.082,0.41 -0.08,0.162 -0.229,0.257 -0.148,0.095 -0.353,0.134 -0.204,0.039 -0.448,0.039 h -0.12 q -0.06,0 -0.134,-0.007 z m 1.016,-1.485 q 0,-0.236 -0.134,-0.356 -0.13,-0.12 -0.438,-0.12 -0.116,0 -0.2,0.021 -0.082,0.018 -0.135,0.067 -0.053,0.046 -0.08,0.127 -0.026,0.081 -0.026,0.205 v 0.275 q 0,0.151 0.004,0.286 0.081,0.004 0.18,0.004 h 0.19 q 0.106,0 0.219,-0.015 0.116,-0.014 0.208,-0.063 0.092,-0.053 0.152,-0.152 0.06,-0.102 0.06,-0.278 z m 1.451,0.84 -0.102,0.007 h -0.223 q -0.06,0 -0.134,-0.007 v 0.716 q 0,0.113 -0.056,0.14 -0.053,0.026 -0.134,0.026 -0.042,0 -0.067,-0.007 -0.025,-0.004 -0.042,-0.018 -0.015,-0.018 -0.025,-0.05 -0.007,-0.031 -0.01,-0.088 -0.008,-0.063 -0.011,-0.183 -0.004,-0.123 -0.007,-0.318 0,-0.194 -0.004,-0.469 v -0.652 q 0,-0.145 0.035,-0.279 0.036,-0.138 0.127,-0.24 0.092,-0.106 0.247,-0.17 0.16,-0.063 0.402,-0.063 0.173,0 0.336,0.039 0.165,0.039 0.292,0.134 0.127,0.095 0.205,0.258 0.078,0.162 0.078,0.405 0,0.325 -0.141,0.505 -0.138,0.176 -0.381,0.25 l 0.472,0.65 q 0.064,0.084 0.064,0.172 0,0.07 -0.05,0.11 -0.046,0.042 -0.116,0.042 -0.078,0 -0.134,-0.042 -0.057,-0.046 -0.106,-0.117 z m 0.554,-0.822 q 0,-0.244 -0.148,-0.36 -0.145,-0.12 -0.462,-0.12 -0.117,0 -0.194,0.021 -0.078,0.018 -0.124,0.07 -0.046,0.054 -0.067,0.149 -0.018,0.091 -0.018,0.236 v 0.24 q 0,0.138 0.004,0.25 0.081,0.005 0.18,0.005 h 0.19 q 0.1,0 0.208,-0.011 0.113,-0.014 0.209,-0.064 0.095,-0.052 0.158,-0.148 0.064,-0.099 0.064,-0.268 z m 1.609,1.725 q -0.212,0 -0.398,-0.085 -0.184,-0.085 -0.322,-0.243 -0.137,-0.163 -0.218,-0.395 -0.078,-0.233 -0.078,-0.53 0,-0.278 0.067,-0.511 0.07,-0.233 0.205,-0.402 0.137,-0.17 0.338,-0.261 0.202,-0.096 0.466,-0.096 0.215,0 0.41,0.078 0.193,0.078 0.338,0.233 0.148,0.155 0.233,0.388 0.085,0.233 0.085,0.543 0,0.258 -0.071,0.49 -0.067,0.233 -0.208,0.41 -0.138,0.173 -0.35,0.278 -0.211,0.103 -0.497,0.103 z m 0.007,-0.332 q 0.194,0 0.339,-0.077 0.145,-0.082 0.24,-0.212 0.095,-0.13 0.14,-0.3 0.047,-0.173 0.047,-0.353 0,-0.218 -0.06,-0.388 -0.057,-0.173 -0.155,-0.29 -0.1,-0.115 -0.23,-0.175 -0.13,-0.064 -0.278,-0.064 -0.177,0 -0.31,0.074 -0.131,0.074 -0.223,0.201 -0.088,0.127 -0.134,0.3 -0.046,0.17 -0.046,0.363 0,0.209 0.053,0.381 0.053,0.17 0.141,0.29 0.092,0.12 0.215,0.187 0.124,0.063 0.261,0.063 z m 2.384,-0.303 q -0.162,-0.357 -0.29,-0.688 -0.123,-0.335 -0.21,-0.596 -0.082,0.437 -0.138,0.882 -0.053,0.444 -0.138,0.85 -0.021,0.092 -0.078,0.123 -0.056,0.028 -0.095,0.028 -0.063,0 -0.102,-0.038 -0.036,-0.04 -0.036,-0.1 0,-0.08 0.018,-0.246 0.021,-0.17 0.05,-0.381 0.031,-0.212 0.07,-0.445 0.039,-0.232 0.078,-0.448 l 0.077,-0.395 q 0.04,-0.176 0.067,-0.271 0.046,-0.163 0.187,-0.163 0.085,0 0.145,0.085 0.06,0.081 0.127,0.254 0.07,0.17 0.166,0.43 0.099,0.262 0.254,0.614 0.151,-0.352 0.243,-0.61 0.095,-0.261 0.159,-0.43 0.067,-0.173 0.127,-0.254 0.06,-0.085 0.148,-0.085 0.081,0 0.124,0.042 0.042,0.039 0.063,0.12 0.025,0.099 0.06,0.275 0.035,0.173 0.074,0.388 0.042,0.212 0.081,0.445 0.039,0.233 0.07,0.444 0.033,0.212 0.05,0.385 0.021,0.17 0.021,0.261 0,0.056 -0.038,0.092 -0.04,0.031 -0.1,0.031 -0.038,0 -0.094,-0.028 -0.057,-0.032 -0.078,-0.123 -0.042,-0.201 -0.078,-0.417 l -0.063,-0.433 -0.057,-0.441 q -0.028,-0.223 -0.06,-0.441 -0.045,0.14 -0.105,0.31 -0.06,0.17 -0.127,0.342 -0.067,0.17 -0.138,0.335 -0.07,0.166 -0.138,0.3 -0.024,0.046 -0.067,0.07 -0.038,0.022 -0.08,0.022 -0.047,0 -0.089,-0.021 -0.039,-0.025 -0.06,-0.074 z m 2.005,0.377 q 0,0.085 -0.018,0.13 -0.014,0.047 -0.038,0.071 -0.022,0.025 -0.053,0.029 -0.029,0.007 -0.057,0.007 -0.095,0 -0.127,-0.043 -0.028,-0.042 -0.039,-0.19 -0.007,-0.078 -0.01,-0.226 -0.004,-0.148 -0.007,-0.353 0,-0.204 -0.004,-0.451 v -0.522 q 0,-0.131 0.032,-0.265 0.032,-0.134 0.12,-0.243 0.092,-0.11 0.25,-0.177 0.163,-0.067 0.42,-0.067 0.18,0 0.342,0.039 0.163,0.039 0.286,0.134 0.124,0.095 0.198,0.254 0.074,0.159 0.074,0.395 0,0.247 -0.081,0.41 -0.082,0.162 -0.23,0.257 -0.148,0.095 -0.352,0.134 -0.205,0.039 -0.449,0.039 h -0.12 q -0.06,0 -0.134,-0.007 z m 1.016,-1.485 q 0,-0.236 -0.134,-0.356 -0.13,-0.12 -0.438,-0.12 -0.116,0 -0.2,0.021 -0.082,0.018 -0.135,0.067 -0.053,0.046 -0.08,0.127 -0.025,0.081 -0.025,0.205 v 0.275 q 0,0.151 0.003,0.286 0.081,0.004 0.18,0.004 h 0.19 q 0.106,0 0.22,-0.015 0.116,-0.014 0.207,-0.063 0.092,-0.053 0.152,-0.152 0.06,-0.102 0.06,-0.278 z m 1.974,-0.437 q -0.099,0.007 -0.212,0.01 l -0.243,0.007 0.007,0.18 0.007,0.166 q 0.004,0.085 0.004,0.176 0.003,0.092 0.003,0.205 v 0.307 q 0,0.144 -0.003,0.293 l -0.007,0.292 q -0.004,0.149 -0.011,0.307 -0.003,0.085 -0.018,0.13 -0.01,0.047 -0.031,0.072 -0.022,0.024 -0.05,0.028 -0.028,0.007 -0.063,0.007 -0.064,0 -0.11,-0.043 -0.042,-0.045 -0.049,-0.19 -0.007,-0.127 -0.01,-0.268 0,-0.141 -0.004,-0.304 -0.004,-0.162 -0.004,-0.349 V 95.04 q 0.004,-0.145 0.011,-0.25 h -0.145 q -0.148,0 -0.254,-0.005 -0.102,-0.004 -0.169,-0.017 -0.067,-0.018 -0.099,-0.053 -0.028,-0.036 -0.028,-0.1 0,-0.03 0.007,-0.055 0.007,-0.029 0.032,-0.05 0.025,-0.025 0.067,-0.039 0.046,-0.014 0.116,-0.02 l 0.12,-0.008 0.106,-0.007 q 0.053,-0.004 0.11,-0.004 h 0.13 q 0.208,0 0.392,0.004 0.186,0.004 0.395,0.014 0.084,0.007 0.13,0.021 0.046,0.011 0.07,0.032 0.025,0.021 0.029,0.05 0.007,0.028 0.007,0.063 0,0.064 -0.046,0.106 -0.042,0.042 -0.187,0.05 z"
       style="font-weight:400;font-size:3.52800012px;font-family:Sniglet;-inkscape-font-specification:'Sniglet, Normal';font-variant-ligatures:normal;font-variant-caps:normal;font-variant-numeric:normal;font-feature-settings:normal;text-align:start;letter-spacing:0;word-spacing:0;fill:#c8c8c8;stroke-width:0.78124732"
       id="path36"
       inkscape:connector-curvature="0" />
  </g>
  <path
     word-spacing="0"
     letter-spacing="0"
     font-size="2.822"
     font-weight="400"
     d="m 84.700451,103.61227 q 0.120321,0 0.245761,0.0218 0.128,0.0218 0.230401,0.064 0.10624,0.0397 0.17408,0.1024 0.06912,0.0614 0.06912,0.1408 0,0.0819 -0.04352,0.12545 -0.04352,0.0435 -0.1088,0.0435 -0.06144,0 -0.1152,-0.0218 l -0.115201,-0.0461 q -0.06528,-0.0256 -0.15616,-0.0474 -0.0896,-0.0218 -0.226561,-0.0218 -0.153601,0 -0.285441,0.073 -0.13056,0.0678 -0.230401,0.19456 -0.1024,0.12288 -0.16,0.2944 -0.0576,0.16768 -0.0576,0.36608 0,0.2432 0.06144,0.41984 0.06144,0.17664 0.15872,0.29184 0.101121,0.1152 0.224001,0.17408 0.12672,0.0538 0.252161,0.0538 0.204801,0 0.325121,-0.0576 0.12288,-0.0614 0.195841,-0.1536 0.0038,-0.0768 0.0038,-0.18176 v -0.22784 q 0,-0.0474 -0.0077,-0.073 -0.0077,-0.0282 -0.03584,-0.0435 -0.02944,-0.0128 -0.08704,-0.0179 -0.05376,-0.004 -0.14848,-0.004 -0.115201,0 -0.188161,-0.0282 -0.07168,-0.0333 -0.07168,-0.1344 0,-0.0717 0.03584,-0.1152 0.0384,-0.0474 0.15872,-0.0538 h 0.06912 q 0.0512,-0.004 0.10496,-0.004 h 0.198401 q 0.1088,0 0.17408,0.0218 0.064,0.0179 0.115201,0.0858 0.0256,0.0358 0.02816,0.128 0.0077,0.0896 0.0077,0.20864 v 0.93184 q 0,0.0973 -0.05376,0.14464 -0.0512,0.0461 -0.119041,0.0461 -0.0832,0 -0.13696,-0.0422 -0.0512,-0.0384 -0.0512,-0.13056 v -0.1408 q -0.09344,0.1088 -0.224001,0.15488 -0.128001,0.0474 -0.320001,0.0474 -0.199681,0 -0.391682,-0.0794 -0.192,-0.0794 -0.339201,-0.23552 -0.14848,-0.15872 -0.243201,-0.39296 -0.0896,-0.23808 -0.0896,-0.55296 0,-0.31488 0.0896,-0.55936 0.09472,-0.24576 0.253441,-0.41601 0.160001,-0.1728 0.371202,-0.26368 0.21504,-0.0896 0.460801,-0.0896 z m 2.705929,2.37313 q -0.0384,-0.087 -0.07936,-0.1984 -0.03968,-0.1152 -0.08704,-0.2432 l -0.227841,0.009 h -0.524802 q -0.12544,0 -0.2304,-0.004 l -0.0832,0.23808 q -0.0384,0.11136 -0.0768,0.1984 -0.0704,0.18432 -0.208641,0.18432 -0.0512,0 -0.09728,-0.032 -0.04352,-0.0333 -0.04352,-0.0947 0,-0.0614 0.02176,-0.15872 0.02176,-0.10112 0.05376,-0.21248 l 0.0768,-0.23552 q 0.0384,-0.12288 0.07552,-0.22784 0.03584,-0.1152 0.10112,-0.29184 l 0.14464,-0.37632 0.151041,-0.38272 q 0.0768,-0.19201 0.13824,-0.33281 0.0128,-0.0358 0.03584,-0.0794 0.02176,-0.0461 0.0512,-0.0858 0.032,-0.0384 0.06784,-0.0691 0.0384,-0.0294 0.08704,-0.0294 0.04608,0 0.08576,0.0333 0.0384,0.0282 0.06912,0.0717 0.032,0.0435 0.05376,0.0896 0.0256,0.0486 0.0384,0.0845 l 0.131841,0.33281 q 0.0768,0.18688 0.14848,0.37888 0.07552,0.192 0.140801,0.3648 0.064,0.1728 0.1024,0.29184 l 0.07424,0.224 q 0.04352,0.11904 0.07936,0.23552 0.03584,0.1152 0.0576,0.2176 0.0256,0.096 0.0256,0.15744 0,0.0614 -0.04736,0.0947 -0.04352,0.032 -0.09344,0.032 -0.064,0 -0.11904,-0.0435 -0.05504,-0.0461 -0.09472,-0.1408 z m -0.640002,-0.7936 0.174081,0.003 q 0.08576,0 0.1728,0.004 l -0.08704,-0.25216 -0.0832,-0.2432 -0.06784,-0.21248 -0.0512,-0.17664 q -0.01408,-0.0474 -0.032,-0.0768 -0.01792,-0.0282 -0.04736,-0.0282 -0.02816,0 -0.04608,0.032 -0.0192,0.0294 -0.03328,0.0768 -0.04352,0.1472 -0.122881,0.38528 l -0.16256,0.49536 q 0.09728,-0.004 0.195841,-0.004 0.09728,-0.004 0.192,-0.004 z m 2.401289,-1.21857 q -0.102401,0.008 -0.217601,0.0102 l -0.248321,0.008 0.0077,0.18432 0.0077,0.17024 q 0.0038,0.0858 0.0038,0.1792 0.0038,0.0947 0.0038,0.20992 v 0.31488 q 0,0.14848 -0.0038,0.29952 l -0.0077,0.29952 -0.01024,0.31488 q -0.0038,0.087 -0.01792,0.13312 -0.01024,0.0474 -0.03328,0.073 -0.02176,0.0256 -0.0512,0.0282 -0.02816,0.008 -0.064,0.008 -0.06528,0 -0.11264,-0.0435 -0.04352,-0.0461 -0.0512,-0.19456 -0.0064,-0.13056 -0.009,-0.27392 0,-0.14464 -0.0038,-0.31104 -0.0038,-0.1664 -0.0038,-0.3584 v -0.77568 q 0.0038,-0.14848 0.01024,-0.256 h -0.148481 q -0.15104,0 -0.259841,-0.005 -0.10496,-0.004 -0.17408,-0.0179 -0.06784,-0.0179 -0.102401,-0.0538 -0.02688,-0.0358 -0.02688,-0.1024 0,-0.0307 0.0077,-0.0563 0.0077,-0.0294 0.032,-0.0512 0.0256,-0.0256 0.06912,-0.0384 0.04736,-0.0154 0.11904,-0.023 l 0.122881,-0.008 0.1088,-0.008 q 0.05376,-0.004 0.11136,-0.004 h 0.134401 q 0.21248,0 0.400641,0.004 0.192001,0.004 0.404482,0.0154 0.08704,0.008 0.13312,0.0205 0.04736,0.0102 0.07296,0.0333 0.0256,0.0218 0.02816,0.0512 0.0077,0.0282 0.0077,0.064 0,0.064 -0.04608,0.1088 -0.04352,0.0435 -0.192,0.0512 z m 0.514561,1.64737 q -0.0077,-0.1152 -0.01536,-0.31488 -0.0077,-0.1984 -0.0077,-0.40704 v -0.24576 l 0.0077,-0.26368 q 0.0077,-0.2688 0.03328,-0.41985 0.02816,-0.15104 0.107521,-0.22784 0.0832,-0.0755 0.230401,-0.0934 0.14976,-0.0179 0.395521,-0.0179 h 0.07552 q 0.0768,0 0.179201,0.004 0.10624,0 0.2176,0.004 l 0.192001,0.008 q 0.07936,0.008 0.126721,0.0218 0.0512,0.0102 0.07552,0.032 0.0256,0.0179 0.032,0.0474 0.0077,0.0256 0.0077,0.0576 0,0.0832 -0.04608,0.12288 -0.04736,0.0358 -0.192001,0.0474 -0.07168,0.008 -0.212481,0.0102 h -0.281601 q -0.14464,0 -0.26112,0.004 H 90.20191 q -0.09344,0.004 -0.13312,0.0435 -0.03584,0.0358 -0.03584,0.17664 l 0.0038,0.15872 q 0.0077,0.12288 0.0077,0.34688 h 0.299521 q 0.192,0 0.311041,0.008 0.12288,0.004 0.18688,0.0218 0.06912,0.0179 0.09472,0.0576 0.0256,0.0397 0.0256,0.10496 0,0.032 -0.0077,0.0614 -0.0038,0.0256 -0.02944,0.0474 -0.0256,0.0179 -0.07168,0.032 -0.04736,0.0102 -0.1344,0.0179 -0.104961,0.008 -0.198401,0.0102 H 90.03679 v 0.44032 l 0.0077,0.12288 q 0.0038,0.0589 0.0128,0.0986 0.01536,0.0384 0.04864,0.064 0.03584,0.0256 0.10112,0.0384 0.06784,0.009 0.179201,0.009 h 0.778242 q 0.126721,0 0.158721,0.0461 0.032,0.0474 0.032,0.128 0,0.064 -0.02816,0.0998 -0.02944,0.0333 -0.140801,0.0474 -0.1088,0.0179 -0.328961,0.0218 -0.2176,0.004 -0.601602,0.004 -0.16128,0 -0.264961,-0.0294 -0.10496,-0.0282 -0.17024,-0.0973 -0.064,-0.0691 -0.09728,-0.17664 -0.02944,-0.11264 -0.03968,-0.27136 z"
     style="font-weight:400;font-size:2.82200003px;line-height:1.25;font-family:Sniglet;-inkscape-font-specification:'Sniglet, Normal';font-variant-ligatures:normal;font-variant-caps:normal;font-variant-numeric:normal;font-feature-settings:normal;text-align:start;letter-spacing:0;word-spacing:0;fill:#c8c8c8;stroke-width:1"
     id="path40"
     inkscape:connector-curvature="0" />
  <path
     word-spacing="0"
     letter-spacing="0"
     font-size="10.667"
     font-weight="400"
     d="m 86.377257,87.25766 q 0.11904,0 0.238081,0.02176 0.12288,0.01792 0.221441,0.06144 0.09728,0.03968 0.15872,0.10112 0.064,0.0576 0.064,0.136961 0,0.0832 -0.04224,0.12672 -0.04352,0.04352 -0.1088,0.04352 -0.06144,0 -0.108801,-0.01792 -0.04608,-0.02176 -0.10752,-0.04736 -0.05888,-0.0256 -0.1408,-0.04352 -0.0832,-0.02176 -0.221441,-0.02176 -0.136961,0 -0.263681,0.07296 -0.122881,0.06784 -0.217601,0.194561 -0.0896,0.12288 -0.14336,0.293121 -0.05376,0.168961 -0.05376,0.368641 0,0.244481 0.06144,0.422402 0.064,0.17664 0.1664,0.291841 0.101121,0.11264 0.226561,0.17024 0.13056,0.05376 0.261121,0.05376 0.1536,0 0.259841,-0.032 0.10496,-0.032 0.17664,-0.07168 0.0768,-0.03968 0.130561,-0.07296 0.05376,-0.032 0.10496,-0.032 0.06144,0 0.09728,0.03584 0.03584,0.032 0.03584,0.11904 0,0.07168 -0.0576,0.148481 -0.05504,0.07168 -0.16256,0.13312 -0.10496,0.0576 -0.253441,0.09728 -0.14848,0.03712 -0.332801,0.03712 -0.200961,0 -0.404482,-0.08064 -0.1984,-0.07936 -0.358401,-0.23424 -0.1536,-0.158721 -0.250881,-0.394242 -0.09856,-0.238081 -0.09856,-0.551682 0,-0.314881 0.08704,-0.560642 0.0896,-0.24576 0.243201,-0.414721 0.153601,-0.174081 0.357121,-0.263681 0.204801,-0.09088 0.435202,-0.09088 z m 2.101767,2.412808 q -0.04736,0.08704 -0.08704,0.128001 -0.03584,0.0384 -0.09344,0.0384 -0.05888,0 -0.102401,-0.0384 -0.04224,-0.04096 -0.09344,-0.124161 -0.064,-0.1088 -0.148481,-0.299521 -0.07936,-0.192001 -0.16256,-0.416001 -0.08192,-0.226561 -0.162561,-0.469762 -0.07936,-0.241921 -0.14336,-0.454402 -0.06144,-0.21376 -0.102401,-0.371201 -0.03584,-0.16384 -0.03584,-0.232961 0,-0.07168 0.02944,-0.10752 0.02944,-0.03584 0.111361,-0.03584 0.04736,0 0.08064,0.0256 0.03584,0.02048 0.0896,0.12928 0.04352,0.0832 0.09344,0.217601 0.0512,0.133121 0.10496,0.294401 0.0576,0.163841 0.1152,0.344321 l 0.115201,0.353282 q 0.05888,0.17792 0.11008,0.340481 l 0.09344,0.291841 0.09728,-0.295681 0.11264,-0.339201 0.115201,-0.354562 q 0.0576,-0.18048 0.1152,-0.339201 l 0.1088,-0.293121 q 0.0512,-0.13312 0.0896,-0.220161 0.0512,-0.10496 0.08704,-0.13056 0.0384,-0.0256 0.07936,-0.0256 0.0832,0 0.112641,0.04352 0.032,0.03968 0.032,0.12032 0,0.07168 -0.02176,0.172801 -0.02048,0.1024 -0.0768,0.271361 -0.0512,0.166401 -0.13568,0.414721 l -0.213761,0.610562 q -0.032,0.09728 -0.0768,0.202241 -0.0384,0.104961 -0.08192,0.206081 -0.0384,0.09728 -0.07936,0.188161 -0.03968,0.0896 -0.0768,0.15488 z"
     style="font-weight:400;font-size:10.66699982px;line-height:1.25;font-family:Sniglet;-inkscape-font-specification:'Sniglet, Normal';font-variant-ligatures:normal;font-variant-caps:normal;font-variant-numeric:normal;font-feature-settings:normal;text-align:start;letter-spacing:0;word-spacing:0;fill:#c8c8c8;stroke-width:1"
     id="path42"
     inkscape:connector-curvature="0" />
  <g
     style="line-height:1.25;stroke-width:0.78124732"
     id="g46"
     transform="matrix(1.2800044,0,0,1.2800044,0,-0.09623859)">
    <path
       word-spacing="0"
       letter-spacing="0"
       font-size="2.822"
       font-weight="400"
       aria-label="OCT +1"
       style="font-weight:400;font-size:2.82200003px;font-family:Sniglet;-inkscape-font-specification:'Sniglet, Normal';font-variant-ligatures:normal;font-variant-caps:normal;font-variant-numeric:normal;font-feature-settings:normal;text-align:start;letter-spacing:0;word-spacing:0;fill:#c8c8c8;stroke-width:0.78124732"
       d="m 65.163,57.179 q -0.17,0 -0.32,-0.068 -0.146,-0.068 -0.256,-0.195 -0.11,-0.13 -0.175,-0.316 -0.062,-0.186 -0.062,-0.423 0,-0.223 0.054,-0.41 0.056,-0.186 0.164,-0.321 0.11,-0.136 0.27,-0.21 0.16,-0.075 0.373,-0.075 0.172,0 0.327,0.062 0.156,0.062 0.27,0.186 0.12,0.124 0.188,0.31 0.067,0.187 0.067,0.435 0,0.206 -0.056,0.393 -0.054,0.186 -0.167,0.327 -0.11,0.138 -0.28,0.223 -0.17,0.082 -0.397,0.082 z m 0.006,-0.266 q 0.155,0 0.27,-0.062 0.117,-0.065 0.193,-0.17 0.076,-0.103 0.113,-0.24 0.037,-0.137 0.037,-0.281 0,-0.175 -0.048,-0.31 -0.046,-0.14 -0.125,-0.232 -0.08,-0.093 -0.183,-0.141 -0.104,-0.051 -0.223,-0.051 -0.141,0 -0.248,0.06 -0.105,0.059 -0.178,0.16 -0.07,0.102 -0.107,0.24 -0.037,0.136 -0.037,0.29 0,0.167 0.042,0.306 0.042,0.135 0.113,0.23 0.073,0.097 0.172,0.15 0.099,0.05 0.21,0.05 z m 1.999,-1.761 q 0.093,0 0.187,0.017 0.096,0.014 0.172,0.048 0.076,0.03 0.124,0.08 0.05,0.044 0.05,0.106 0,0.065 -0.033,0.1 -0.034,0.033 -0.085,0.033 -0.048,0 -0.085,-0.014 -0.036,-0.017 -0.084,-0.037 -0.045,-0.02 -0.11,-0.034 -0.065,-0.016 -0.173,-0.016 -0.107,0 -0.206,0.056 -0.096,0.054 -0.17,0.152 -0.07,0.096 -0.112,0.229 -0.042,0.133 -0.042,0.288 0,0.192 0.048,0.33 0.05,0.138 0.13,0.229 0.079,0.087 0.178,0.132 0.1,0.043 0.203,0.043 0.12,0 0.203,-0.026 0.082,-0.025 0.138,-0.056 0.06,-0.031 0.102,-0.057 0.042,-0.025 0.082,-0.025 0.048,0 0.076,0.028 0.028,0.025 0.028,0.093 0,0.057 -0.045,0.116 -0.042,0.056 -0.127,0.104 -0.082,0.046 -0.198,0.077 -0.115,0.028 -0.26,0.028 -0.157,0 -0.315,-0.062 -0.156,-0.062 -0.28,-0.184 -0.121,-0.124 -0.197,-0.307 -0.076,-0.187 -0.076,-0.432 0,-0.246 0.067,-0.438 0.07,-0.192 0.19,-0.324 0.12,-0.136 0.279,-0.206 0.16,-0.07 0.34,-0.07 z m 1.914,0.283 q -0.08,0.006 -0.17,0.008 l -0.194,0.006 0.006,0.143 0.006,0.133 q 0.003,0.068 0.003,0.14 0.003,0.075 0.003,0.165 v 0.245 q 0,0.116 -0.003,0.235 l -0.006,0.234 -0.008,0.245 q -0.003,0.068 -0.014,0.105 -0.008,0.037 -0.026,0.056 -0.016,0.02 -0.04,0.023 -0.022,0.006 -0.05,0.006 -0.05,0 -0.087,-0.034 -0.034,-0.037 -0.04,-0.152 -0.006,-0.102 -0.008,-0.215 0,-0.113 -0.003,-0.243 -0.003,-0.13 -0.003,-0.28 V 55.65 q 0.003,-0.117 0.008,-0.201 H 68.34 q -0.118,0 -0.203,-0.003 -0.082,-0.003 -0.135,-0.014 -0.054,-0.014 -0.08,-0.043 -0.022,-0.028 -0.022,-0.08 0,-0.024 0.006,-0.044 0.006,-0.022 0.026,-0.04 0.02,-0.02 0.053,-0.03 0.037,-0.012 0.093,-0.017 l 0.096,-0.006 0.085,-0.006 q 0.042,-0.003 0.087,-0.003 h 0.105 q 0.166,0 0.313,0.003 0.15,0.003 0.316,0.01 0.068,0.007 0.105,0.018 0.036,0.008 0.056,0.025 0.02,0.017 0.023,0.04 0.006,0.022 0.006,0.05 0,0.05 -0.037,0.085 -0.034,0.034 -0.15,0.04 z m 1.94,0.857 q -0.063,0.006 -0.137,0.008 -0.07,0 -0.155,0.003 v 0.127 q 0,0.096 -0.003,0.164 -0.003,0.068 -0.017,0.11 -0.011,0.043 -0.04,0.062 -0.028,0.02 -0.078,0.02 -0.026,0 -0.048,-0.006 -0.02,-0.006 -0.037,-0.025 -0.017,-0.02 -0.031,-0.054 -0.012,-0.037 -0.017,-0.093 l -0.006,-0.073 -0.006,-0.068 v -0.16 q -0.144,0 -0.237,-0.004 -0.09,-0.003 -0.147,-0.014 -0.054,-0.014 -0.076,-0.042 -0.02,-0.028 -0.02,-0.08 0,-0.025 0.006,-0.044 0.006,-0.023 0.025,-0.04 0.02,-0.017 0.054,-0.028 0.037,-0.014 0.093,-0.02 l 0.073,-0.006 q 0.034,-0.003 0.068,-0.003 0.034,-0.003 0.07,-0.003 h 0.09 Q 70.45,55.95 70.45,55.879 l 0.008,-0.147 q 0.003,-0.067 0.014,-0.104 0.01,-0.037 0.028,-0.056 0.017,-0.02 0.04,-0.023 0.022,-0.006 0.05,-0.006 0.05,0 0.085,0.037 0.034,0.034 0.04,0.15 l 0.006,0.137 0.006,0.159 q 0.14,0 0.293,0.008 0.068,0.006 0.105,0.016 0.037,0.008 0.056,0.026 0.02,0.017 0.023,0.04 0.006,0.022 0.006,0.05 0,0.05 -0.037,0.085 -0.034,0.034 -0.15,0.04 z m 0.763,0.684 q -0.006,-0.102 -0.008,-0.212 0,-0.11 -0.003,-0.237 -0.003,-0.127 -0.003,-0.274 v -0.686 l -0.17,0.088 q -0.07,0.045 -0.112,0.053 -0.04,0.008 -0.087,0.008 -0.043,0 -0.077,-0.036 -0.03,-0.037 -0.03,-0.088 0,-0.05 0.033,-0.087 0.037,-0.04 0.085,-0.071 0.062,-0.042 0.133,-0.085 0.073,-0.042 0.14,-0.076 0.068,-0.037 0.125,-0.056 0.06,-0.023 0.099,-0.023 0.02,0 0.04,0.006 0.022,0.006 0.039,0.023 0.02,0.017 0.03,0.053 0.015,0.034 0.018,0.093 0.006,0.102 0.008,0.178 l 0.006,0.15 q 0.003,0.07 0.003,0.15 v 0.425 q 0,0.116 -0.003,0.23 l -0.006,0.228 -0.008,0.242 q -0.003,0.068 -0.015,0.105 -0.008,0.037 -0.025,0.056 -0.017,0.02 -0.04,0.023 -0.02,0.006 -0.047,0.006 -0.051,0 -0.085,-0.034 -0.034,-0.037 -0.04,-0.152 z"
       id="path44"
       inkscape:connector-curvature="0" />
  </g>
  <g
     style="line-height:1.25;stroke-width:0.78124732"
     id="g50"
     transform="matrix(1.2800044,0,0,1.2800044,0,-0.09623859)">
    <path
       word-spacing="0"
       letter-spacing="0"
       font-size="2.822"
       font-weight="400"
       aria-label="OCTAVE"
       style="font-weight:400;font-size:2.82200003px;font-family:Sniglet;-inkscape-font-specification:'Sniglet, Normal';font-variant-ligatures:normal;font-variant-caps:normal;font-variant-numeric:normal;font-feature-settings:normal;text-align:start;letter-spacing:0;word-spacing:0;fill:#c8c8c8;stroke-width:0.78124732"
       d="m 28.945,57.211 q -0.17,0 -0.319,-0.068 -0.146,-0.068 -0.257,-0.195 -0.11,-0.13 -0.174,-0.316 -0.063,-0.186 -0.063,-0.423 0,-0.223 0.054,-0.41 0.056,-0.186 0.164,-0.32 0.11,-0.137 0.27,-0.21 0.162,-0.076 0.373,-0.076 0.172,0 0.328,0.062 0.155,0.062 0.27,0.186 0.12,0.124 0.187,0.31 0.068,0.187 0.068,0.435 0,0.206 -0.057,0.393 -0.054,0.186 -0.166,0.327 -0.11,0.138 -0.28,0.223 -0.17,0.082 -0.398,0.082 z m 0.006,-0.266 q 0.155,0 0.27,-0.062 0.116,-0.065 0.193,-0.17 0.076,-0.104 0.113,-0.239 0.036,-0.138 0.036,-0.282 0,-0.175 -0.048,-0.31 -0.045,-0.139 -0.124,-0.232 -0.079,-0.093 -0.183,-0.14 -0.105,-0.052 -0.223,-0.052 -0.14,0 -0.249,0.06 -0.104,0.06 -0.177,0.16 -0.07,0.102 -0.108,0.24 -0.036,0.136 -0.036,0.29 0,0.167 0.042,0.306 0.042,0.135 0.113,0.231 0.073,0.096 0.172,0.15 0.1,0.05 0.21,0.05 z m 2,-1.76 q 0.093,0 0.186,0.016 0.096,0.014 0.172,0.048 0.076,0.031 0.124,0.08 0.05,0.044 0.05,0.106 0,0.065 -0.033,0.1 -0.034,0.033 -0.085,0.033 -0.048,0 -0.084,-0.014 l -0.085,-0.037 q -0.045,-0.02 -0.11,-0.034 -0.065,-0.016 -0.172,-0.016 -0.108,0 -0.206,0.056 -0.096,0.054 -0.17,0.152 -0.07,0.096 -0.113,0.23 -0.042,0.132 -0.042,0.287 0,0.192 0.048,0.33 0.05,0.138 0.13,0.23 0.08,0.086 0.178,0.131 0.101,0.043 0.203,0.043 0.121,0 0.203,-0.026 0.082,-0.025 0.138,-0.056 0.06,-0.03 0.102,-0.057 0.042,-0.025 0.082,-0.025 0.048,0 0.076,0.028 0.028,0.026 0.028,0.093 0,0.057 -0.045,0.116 -0.042,0.056 -0.127,0.104 -0.082,0.046 -0.197,0.077 -0.116,0.028 -0.26,0.028 -0.158,0 -0.316,-0.062 -0.155,-0.062 -0.28,-0.184 -0.12,-0.124 -0.197,-0.307 -0.076,-0.187 -0.076,-0.432 0,-0.246 0.067,-0.438 0.071,-0.19 0.19,-0.324 0.12,-0.136 0.28,-0.206 0.16,-0.07 0.34,-0.07 z m 1.913,0.281 q -0.079,0.006 -0.17,0.008 l -0.194,0.006 0.006,0.144 0.005,0.133 q 0.003,0.068 0.003,0.141 0.003,0.074 0.003,0.164 v 0.245 q 0,0.116 -0.003,0.235 l -0.006,0.234 q -0.002,0.118 -0.008,0.245 -0.003,0.068 -0.014,0.105 -0.009,0.037 -0.026,0.056 -0.017,0.02 -0.04,0.023 -0.022,0.006 -0.05,0.006 -0.05,0 -0.087,-0.034 -0.034,-0.037 -0.04,-0.152 -0.005,-0.102 -0.008,-0.215 0,-0.113 -0.003,-0.243 -0.003,-0.13 -0.003,-0.279 v -0.606 q 0.003,-0.117 0.01,-0.2 h -0.117 q -0.119,0 -0.203,-0.004 -0.082,-0.003 -0.136,-0.014 -0.053,-0.014 -0.079,-0.043 -0.022,-0.028 -0.022,-0.079 0,-0.025 0.005,-0.045 0.006,-0.022 0.026,-0.04 0.02,-0.02 0.053,-0.03 0.037,-0.012 0.093,-0.017 l 0.096,-0.006 0.085,-0.006 q 0.042,-0.003 0.087,-0.003 h 0.105 q 0.166,0 0.313,0.003 0.15,0.003 0.316,0.011 0.068,0.006 0.105,0.017 0.036,0.008 0.056,0.025 0.02,0.017 0.023,0.04 0.005,0.022 0.005,0.05 0,0.051 -0.036,0.085 -0.034,0.034 -0.15,0.04 z m 1.397,1.572 q -0.029,-0.067 -0.062,-0.155 -0.03,-0.09 -0.068,-0.189 L 33.953,56.7 h -0.41 q -0.098,0 -0.18,-0.003 l -0.065,0.186 q -0.03,0.088 -0.059,0.156 -0.056,0.144 -0.164,0.144 -0.04,0 -0.076,-0.026 -0.034,-0.025 -0.034,-0.073 0,-0.048 0.017,-0.124 0.017,-0.08 0.043,-0.167 l 0.06,-0.183 q 0.03,-0.096 0.06,-0.178 0.026,-0.09 0.077,-0.229 l 0.113,-0.293 0.118,-0.3 q 0.06,-0.149 0.108,-0.26 0.011,-0.027 0.028,-0.06 0.017,-0.038 0.04,-0.069 0.025,-0.03 0.053,-0.053 0.031,-0.023 0.068,-0.023 0.037,0 0.068,0.025 0.03,0.023 0.053,0.057 0.026,0.034 0.043,0.07 0.02,0.037 0.03,0.065 0.046,0.113 0.102,0.26 0.06,0.147 0.116,0.296 0.06,0.15 0.11,0.285 0.05,0.136 0.082,0.23 0.025,0.081 0.056,0.174 0.034,0.093 0.062,0.183 0.03,0.09 0.045,0.17 0.02,0.076 0.02,0.124 0,0.048 -0.036,0.073 -0.034,0.026 -0.074,0.026 -0.05,0 -0.093,-0.034 -0.042,-0.037 -0.073,-0.11 z m -0.5,-0.62 q 0.068,0 0.136,0.003 0.067,0 0.135,0.003 l -0.068,-0.198 -0.065,-0.19 -0.053,-0.166 -0.04,-0.138 q -0.01,-0.037 -0.025,-0.06 -0.014,-0.022 -0.037,-0.022 -0.022,0 -0.036,0.026 -0.015,0.022 -0.026,0.06 -0.034,0.115 -0.096,0.301 l -0.127,0.387 q 0.076,-0.003 0.153,-0.003 0.076,-0.003 0.15,-0.003 z m 1.631,0.652 q -0.037,0.067 -0.068,0.098 -0.028,0.031 -0.073,0.031 -0.045,0 -0.08,-0.03 -0.033,-0.032 -0.072,-0.097 -0.05,-0.084 -0.116,-0.234 -0.062,-0.15 -0.127,-0.324 -0.065,-0.178 -0.127,-0.367 -0.062,-0.19 -0.113,-0.356 -0.048,-0.166 -0.08,-0.29 -0.027,-0.128 -0.027,-0.18 0,-0.058 0.022,-0.086 0.023,-0.028 0.088,-0.028 0.036,0 0.062,0.02 0.028,0.016 0.07,0.101 0.034,0.065 0.074,0.17 0.04,0.104 0.082,0.23 0.045,0.128 0.09,0.27 l 0.09,0.276 0.085,0.265 0.073,0.228 0.076,-0.23 0.088,-0.266 0.09,-0.277 q 0.045,-0.14 0.09,-0.265 L 35.674,55.5 q 0.04,-0.104 0.07,-0.172 0.04,-0.082 0.07,-0.1 0.03,-0.02 0.061,-0.02 0.065,0 0.087,0.033 0.026,0.03 0.026,0.093 0,0.056 -0.017,0.135 -0.017,0.08 -0.06,0.212 -0.04,0.13 -0.107,0.325 l -0.166,0.476 q -0.026,0.077 -0.06,0.16 -0.03,0.08 -0.065,0.16 -0.03,0.076 -0.062,0.146 -0.03,0.07 -0.059,0.121 z m 0.84,-0.317 q -0.006,-0.09 -0.01,-0.245 -0.007,-0.155 -0.007,-0.319 v -0.192 l 0.005,-0.206 q 0.006,-0.209 0.026,-0.327 0.022,-0.119 0.084,-0.178 0.065,-0.06 0.18,-0.074 0.117,-0.014 0.31,-0.014 h 0.058 q 0.06,0 0.14,0.003 0.083,0 0.17,0.003 l 0.15,0.006 q 0.062,0.006 0.1,0.017 0.04,0.008 0.058,0.026 0.02,0.014 0.025,0.036 0.006,0.02 0.006,0.046 0,0.064 -0.037,0.095 -0.037,0.03 -0.15,0.037 -0.056,0.006 -0.166,0.008 h -0.22 q -0.113,0 -0.203,0.003 h -0.113 q -0.074,0.003 -0.105,0.034 -0.028,0.028 -0.028,0.138 l 0.003,0.125 q 0.006,0.096 0.006,0.27 h 0.234 q 0.15,0 0.243,0.006 0.096,0.003 0.146,0.017 0.054,0.014 0.074,0.046 0.02,0.03 0.02,0.081 0,0.026 -0.006,0.048 -0.003,0.02 -0.023,0.037 -0.02,0.014 -0.056,0.025 -0.037,0.008 -0.105,0.015 -0.08,0.006 -0.155,0.008 h -0.378 v 0.343 l 0.006,0.097 q 0.002,0.045 0.01,0.076 0.012,0.031 0.038,0.05 0.028,0.02 0.08,0.03 0.052,0.007 0.14,0.007 h 0.607 q 0.098,0 0.124,0.037 0.025,0.036 0.025,0.1 0,0.05 -0.022,0.078 -0.023,0.025 -0.11,0.036 -0.085,0.014 -0.257,0.017 -0.17,0.003 -0.469,0.003 -0.127,0 -0.209,-0.022 -0.082,-0.023 -0.132,-0.077 -0.05,-0.053 -0.077,-0.138 -0.022,-0.087 -0.03,-0.212 z"
       id="path48"
       inkscape:connector-curvature="0" />
  </g>
  <path
     word-spacing="0"
     letter-spacing="0"
     font-size="2.822"
     font-weight="400"
     d="m 11.466279,103.52395 q 0.119041,0 0.245761,0.0218 0.128001,0.0218 0.230401,0.064 0.10496,0.041 0.174081,0.1024 0.06912,0.0614 0.06912,0.1408 0,0.0832 -0.04352,0.12544 -0.04352,0.0435 -0.108801,0.0435 -0.06144,0 -0.1152,-0.0218 l -0.1152,-0.0461 q -0.064,-0.0256 -0.156161,-0.0474 -0.0896,-0.0218 -0.227841,-0.0218 -0.15104,0 -0.285441,0.073 -0.128,0.0678 -0.230401,0.19457 -0.1024,0.12288 -0.15872,0.2944 -0.05888,0.16768 -0.05888,0.36608 0,0.2432 0.06144,0.41984 0.06144,0.17664 0.16,0.29184 0.102401,0.1152 0.222721,0.17408 0.128001,0.0538 0.253441,0.0538 0.204801,0 0.325121,-0.0576 0.122881,-0.0614 0.194561,-0.1536 0.0038,-0.0768 0.0038,-0.18176 v -0.22784 q 0,-0.0474 -0.0077,-0.073 -0.0077,-0.0282 -0.03584,-0.0435 -0.02816,-0.0128 -0.08576,-0.0179 -0.05504,-0.004 -0.14848,-0.004 -0.1152,0 -0.188161,-0.0282 -0.07168,-0.0333 -0.07168,-0.1344 0,-0.0717 0.03584,-0.1152 0.0384,-0.0474 0.158721,-0.0538 h 0.06912 q 0.0512,-0.004 0.10368,-0.004 h 0.199681 q 0.10752,0 0.172801,0.0218 0.064,0.0179 0.1152,0.0858 0.0256,0.0384 0.02944,0.128 0.0077,0.0896 0.0077,0.20864 v 0.93184 q 0,0.0973 -0.05376,0.14464 -0.0512,0.0474 -0.11904,0.0474 -0.0832,0 -0.138241,-0.0435 -0.0512,-0.0384 -0.0512,-0.13056 v -0.1408 q -0.09344,0.1088 -0.222721,0.15488 -0.12672,0.0474 -0.320001,0.0474 -0.200961,0 -0.391681,-0.0794 -0.192001,-0.0794 -0.339201,-0.23552 -0.148481,-0.15872 -0.243201,-0.39296 -0.0896,-0.23808 -0.0896,-0.55296 0,-0.3136 0.0896,-0.55936 0.09472,-0.24576 0.253441,-0.41601 0.15872,-0.1728 0.371201,-0.26368 0.213761,-0.0896 0.460801,-0.0896 z m 2.70465,2.37313 -0.07936,-0.1984 q -0.0384,-0.1152 -0.08704,-0.2432 l -0.226561,0.009 h -0.524801 q -0.125441,0 -0.230401,-0.004 l -0.0832,0.23808 q -0.0384,0.11264 -0.0768,0.1984 -0.07168,0.18432 -0.208641,0.18432 -0.0512,0 -0.09728,-0.032 -0.04352,-0.0333 -0.04352,-0.0947 0,-0.0614 0.02176,-0.15872 0.02176,-0.10112 0.05376,-0.21248 0.03584,-0.1152 0.0768,-0.23552 0.0384,-0.12288 0.0768,-0.22784 0.03456,-0.1152 0.09984,-0.29184 l 0.143361,-0.37632 0.1536,-0.38272 q 0.0768,-0.19201 0.135681,-0.33281 l 0.03584,-0.0794 q 0.02176,-0.0461 0.0512,-0.0858 0.032,-0.0384 0.06912,-0.0691 0.0384,-0.0282 0.08576,-0.0282 0.04736,0 0.08704,0.032 0.03968,0.0294 0.06912,0.0717 0.032,0.0435 0.05376,0.0896 0.0256,0.0486 0.0384,0.0845 0.05888,0.14464 0.130561,0.33281 0.0768,0.18688 0.14848,0.37888 0.0768,0.192 0.140801,0.3648 0.06528,0.1728 0.10496,0.29184 0.032,0.10496 0.07168,0.224 0.04352,0.12032 0.08064,0.23552 0.03584,0.1152 0.0576,0.2176 0.0256,0.096 0.0256,0.15744 0,0.0614 -0.04736,0.0947 -0.04352,0.032 -0.09472,0.032 -0.064,0 -0.11904,-0.0435 -0.05376,-0.0461 -0.09344,-0.1408 z m -0.640002,-0.7936 0.17408,0.003 q 0.08704,0 0.174081,0.004 l -0.08704,-0.25216 -0.0832,-0.2432 q -0.03584,-0.1152 -0.06912,-0.21248 l -0.0512,-0.17664 q -0.0128,-0.0474 -0.03072,-0.0768 -0.0192,-0.0282 -0.04736,-0.0282 -0.02944,0 -0.04736,0.032 -0.01792,0.0294 -0.032,0.0768 -0.04352,0.1472 -0.12288,0.38656 l -0.162561,0.49408 q 0.09728,-0.004 0.194561,-0.004 0.09728,-0.004 0.192001,-0.004 z m 2.401288,-1.21857 q -0.101121,0.008 -0.216321,0.0102 l -0.249601,0.008 0.0077,0.18433 0.0077,0.17024 q 0.0038,0.0858 0.0038,0.1792 0.0038,0.0947 0.0038,0.20992 v 0.31488 q 0,0.14848 -0.0038,0.29952 l -0.0077,0.29952 -0.01024,0.31488 q -0.0038,0.087 -0.01792,0.13312 -0.01024,0.0474 -0.032,0.073 -0.02176,0.0256 -0.0512,0.0282 -0.02816,0.008 -0.064,0.008 -0.064,0 -0.112641,-0.0422 -0.04352,-0.0474 -0.0512,-0.19584 -0.0077,-0.128 -0.01024,-0.27392 0,-0.14464 -0.0038,-0.31104 -0.0038,-0.1664 -0.0038,-0.3584 v -0.77568 q 0.0038,-0.14848 0.01024,-0.25601 h -0.14592 q -0.152321,0 -0.259841,-0.005 -0.104961,-0.004 -0.174081,-0.0179 -0.06912,-0.0179 -0.10112,-0.0538 -0.02944,-0.0358 -0.02944,-0.10112 0,-0.032 0.0077,-0.0576 0.0077,-0.0294 0.03328,-0.0512 0.0256,-0.0256 0.06784,-0.0384 0.04736,-0.0154 0.12032,-0.023 l 0.122881,-0.008 0.10752,-0.008 q 0.05504,-0.004 0.112641,-0.004 h 0.13312 q 0.213761,0 0.400641,0.004 0.192001,0.004 0.405762,0.0154 0.08576,0.008 0.13312,0.0205 0.04736,0.0102 0.07168,0.0333 0.0256,0.0218 0.02944,0.0512 0.0077,0.0282 0.0077,0.064 0,0.0653 -0.04736,0.1088 -0.04352,0.0435 -0.192,0.0512 z m 0.514562,1.64737 q -0.0077,-0.1152 -0.0128,-0.31488 -0.009,-0.1984 -0.009,-0.40704 v -0.24576 l 0.0077,-0.26368 q 0.0077,-0.2688 0.032,-0.41985 0.02944,-0.15104 0.1088,-0.22784 0.0832,-0.0755 0.230401,-0.0934 0.14848,-0.0179 0.394241,-0.0179 h 0.0768 q 0.0768,0 0.179201,0.004 0.10496,0 0.217601,0.004 l 0.192,0.008 q 0.07936,0.008 0.125441,0.0218 0.0512,0.0102 0.0768,0.032 0.0256,0.0179 0.032,0.0474 0.0077,0.0256 0.0077,0.0576 0,0.0832 -0.04736,0.12288 -0.04608,0.0358 -0.192001,0.0474 -0.07168,0.008 -0.21248,0.0102 H 17.37222 q -0.144641,0 -0.259841,0.004 h -0.144641 q -0.09344,0.004 -0.13312,0.0435 -0.03712,0.0358 -0.03712,0.17665 l 0.0038,0.15872 q 0.0077,0.12288 0.0077,0.34688 h 0.300801 q 0.192,0 0.309761,0.008 0.12288,0.004 0.188161,0.0218 0.06912,0.0179 0.09344,0.0576 0.0256,0.0397 0.0256,0.10496 0,0.032 -0.0077,0.0614 -0.0038,0.0256 -0.02816,0.0474 -0.0256,0.0179 -0.07296,0.032 -0.04608,0.0102 -0.133121,0.0179 -0.10496,0.008 -0.198401,0.0102 h -0.485121 v 0.44032 l 0.0077,0.12288 q 0.0038,0.0589 0.01536,0.0986 0.01408,0.0384 0.04608,0.064 0.0384,0.0256 0.1024,0.0384 0.06784,0.009 0.179201,0.009 h 0.776963 q 0.128,0 0.16,0.0461 0.032,0.0474 0.032,0.128 0,0.064 -0.02944,0.0998 -0.02816,0.0333 -0.1408,0.0474 -0.107521,0.0179 -0.328961,0.0218 -0.216321,0.004 -0.599042,0.004 -0.162561,0 -0.267521,-0.0294 -0.104961,-0.0282 -0.170241,-0.0973 -0.064,-0.0691 -0.09728,-0.17664 -0.02816,-0.11264 -0.0384,-0.27136 z"
     style="font-weight:400;font-size:2.82200003px;line-height:1.25;font-family:Sniglet;-inkscape-font-specification:'Sniglet, Normal';font-variant-ligatures:normal;font-variant-caps:normal;font-variant-numeric:normal;font-feature-settings:normal;text-align:start;letter-spacing:0;word-spacing:0;fill:#c8c8c8;stroke-width:1"
     id="path52"
     inkscape:connector-curvature="0" />
  <path
     word-spacing="0"
     letter-spacing="0"
     font-size="10.667"
     font-weight="400"
     d="m 13.317166,87.020859 q 0.11904,0 0.238081,0.02176 0.12288,0.01792 0.22016,0.06144 0.09728,0.0384 0.158721,0.102401 0.06528,0.05632 0.06528,0.13568 0,0.0832 -0.04352,0.128001 -0.04352,0.04224 -0.10752,0.04224 -0.06144,0 -0.108801,-0.01792 l -0.1088,-0.04736 q -0.0576,-0.0256 -0.140801,-0.04352 -0.0832,-0.02176 -0.22016,-0.02176 -0.136961,0 -0.263681,0.07168 -0.122881,0.06912 -0.217601,0.195841 -0.0896,0.122881 -0.143361,0.291841 -0.05504,0.170241 -0.05504,0.368641 0,0.245761 0.06144,0.422402 0.06528,0.1792 0.166401,0.294401 0.1024,0.11136 0.227841,0.16896 0.13056,0.05376 0.259841,0.05376 0.15616,0 0.261121,-0.032 0.10368,-0.03328 0.17664,-0.07296 0.0768,-0.0384 0.129281,-0.07168 0.05504,-0.03328 0.10496,-0.03328 0.06144,0 0.09728,0.0384 0.0384,0.03072 0.0384,0.11776 0,0.07168 -0.06016,0.147201 -0.05376,0.07296 -0.16256,0.1344 -0.102401,0.0576 -0.252161,0.09728 -0.148481,0.03584 -0.332801,0.03584 -0.202241,0 -0.404482,-0.07936 -0.1984,-0.07936 -0.358401,-0.234241 -0.1536,-0.158721 -0.252161,-0.394242 -0.09728,-0.23808 -0.09728,-0.552961 0,-0.313602 0.08704,-0.559362 0.0896,-0.245761 0.243201,-0.416002 0.153601,-0.1728 0.358401,-0.263681 0.204801,-0.0896 0.435202,-0.0896 z m 2.100487,2.412808 q -0.04608,0.08704 -0.08576,0.128001 -0.03712,0.0384 -0.09472,0.0384 -0.0576,0 -0.10112,-0.0384 -0.04352,-0.04096 -0.09344,-0.124161 -0.064,-0.1088 -0.148481,-0.299521 -0.07936,-0.192 -0.16256,-0.416001 -0.0832,-0.227841 -0.162561,-0.469762 -0.07936,-0.241921 -0.14464,-0.454401 -0.06144,-0.213761 -0.101121,-0.371202 -0.03584,-0.16384 -0.03584,-0.2304 0,-0.07424 0.02944,-0.110081 0.02816,-0.03712 0.111361,-0.03712 0.04736,0 0.07936,0.0256 0.03584,0.02176 0.0896,0.130561 0.0448,0.0832 0.09472,0.2176 0.0512,0.131841 0.10496,0.294401 0.0576,0.162561 0.1152,0.345602 l 0.115201,0.352001 q 0.05888,0.17664 0.1088,0.339201 l 0.09472,0.294401 0.09728,-0.296961 0.11136,-0.340481 0.1152,-0.353281 q 0.05888,-0.179201 0.116481,-0.340482 0.0576,-0.15872 0.1088,-0.291841 0.0512,-0.1344 0.0896,-0.22016 0.0512,-0.104961 0.08704,-0.130561 0.03968,-0.0256 0.07936,-0.0256 0.0832,0 0.112641,0.04352 0.032,0.03968 0.032,0.119041 0,0.07296 -0.02176,0.17408 -0.02176,0.102401 -0.0768,0.270081 -0.04992,0.166401 -0.13568,0.416002 l -0.213761,0.610562 q -0.032,0.09728 -0.0768,0.20224 -0.0384,0.104961 -0.08192,0.204801 -0.0384,0.09856 -0.07936,0.189441 -0.0384,0.0896 -0.0768,0.15488 z"
     style="font-weight:400;font-size:10.66699982px;line-height:1.25;font-family:Sniglet;-inkscape-font-specification:'Sniglet, Normal';font-variant-ligatures:normal;font-variant-caps:normal;font-variant-numeric:normal;font-feature-settings:normal;text-align:start;letter-spacing:0;word-spacing:0;fill:#c8c8c8;stroke-width:1"
     id="path54"
     inkscape:connector-curvature="0" />
  <path
     word-spacing="0"
     letter-spacing="0"
     font-size="2.822"
     font-weight="400"
     d="m 12.215082,73.204491 q -0.217601,0 -0.408321,-0.08704 -0.186881,-0.08576 -0.328962,-0.248321 -0.1408,-0.1664 -0.224,-0.404481 -0.07936,-0.239361 -0.07936,-0.542722 0,-0.285441 0.06912,-0.524802 0.07168,-0.236801 0.20992,-0.410881 0.140801,-0.172801 0.345602,-0.268801 0.20608,-0.096 0.477441,-0.096 0.220161,0 0.419842,0.07936 0.1984,0.07936 0.345601,0.239361 0.1536,0.15872 0.239361,0.396801 0.08576,0.238081 0.08576,0.556802 0,0.263681 -0.07168,0.501762 -0.06912,0.238081 -0.212481,0.418561 -0.140801,0.177921 -0.358401,0.285441 -0.217601,0.10496 -0.509442,0.10496 z m 0.009,-0.340481 q 0.198401,0 0.346881,-0.07936 0.148481,-0.0832 0.245761,-0.217601 0.09728,-0.13312 0.144641,-0.307201 0.04736,-0.17664 0.04736,-0.360961 0,-0.224001 -0.06144,-0.396801 -0.05888,-0.176641 -0.160001,-0.296961 -0.10112,-0.119041 -0.234241,-0.179201 -0.13312,-0.06528 -0.285441,-0.06528 -0.1792,0 -0.317441,0.07552 -0.1344,0.0768 -0.227841,0.204801 -0.0896,0.13056 -0.13696,0.307201 -0.04736,0.17408 -0.04736,0.371201 0,0.215041 0.05376,0.391681 0.05504,0.174081 0.14464,0.296961 0.09472,0.122881 0.220161,0.192001 0.128001,0.064 0.268801,0.064 z m 2.560009,-2.254087 q 0.11776,0 0.238081,0.02176 0.12288,0.01792 0.22016,0.06144 0.09728,0.0384 0.158721,0.10112 0.064,0.0576 0.064,0.136961 0,0.0832 -0.04224,0.12672 -0.04352,0.04352 -0.1088,0.04352 -0.06144,0 -0.108801,-0.01792 -0.04608,-0.02176 -0.10752,-0.04736 -0.0576,-0.0256 -0.140801,-0.04352 -0.0832,-0.02176 -0.22016,-0.02176 -0.138241,0 -0.263681,0.07168 -0.122881,0.06912 -0.217601,0.195841 -0.0896,0.12288 -0.14464,0.291841 -0.05376,0.17024 -0.05376,0.368641 0,0.245761 0.06144,0.422401 0.064,0.177921 0.1664,0.294401 0.1024,0.111361 0.227841,0.168961 0.12928,0.05376 0.259841,0.05376 0.15488,0 0.259841,-0.032 0.10496,-0.03328 0.17664,-0.07296 0.0768,-0.0384 0.130561,-0.07168 0.05376,-0.03328 0.10496,-0.03328 0.06144,0 0.09728,0.03712 0.03584,0.032 0.03584,0.11904 0,0.07168 -0.0576,0.147201 -0.05376,0.07296 -0.16256,0.1344 -0.104961,0.0576 -0.253441,0.09728 -0.147201,0.03584 -0.332801,0.03584 -0.200961,0 -0.403202,-0.07936 -0.1984,-0.07936 -0.358401,-0.234241 -0.1536,-0.16 -0.252161,-0.394241 -0.09728,-0.238081 -0.09728,-0.552962 0,-0.313601 0.08576,-0.559362 0.0896,-0.245761 0.243201,-0.416001 0.153601,-0.172801 0.358401,-0.263681 0.204801,-0.0896 0.435202,-0.0896 z m 2.448648,0.360961 q -0.10112,0.0077 -0.217601,0.01024 l -0.24832,0.0077 0.0077,0.18432 0.0077,0.170241 q 0.0038,0.08576 0.0038,0.179201 0.0038,0.09472 0.0038,0.20992 v 0.314881 q 0,0.148481 -0.0038,0.299522 l -0.0077,0.299521 -0.01024,0.314881 q -0.0038,0.08704 -0.01792,0.13312 -0.01024,0.04736 -0.032,0.07296 -0.02176,0.0256 -0.0512,0.02816 -0.02944,0.0077 -0.064,0.0077 -0.06656,0 -0.11264,-0.04352 -0.04352,-0.04608 -0.0512,-0.19456 -0.0077,-0.130561 -0.01024,-0.273921 0,-0.144641 -0.0038,-0.311041 -0.0038,-0.166401 -0.0038,-0.358402 v -0.775682 q 0.0038,-0.148481 0.01024,-0.256001 h -0.1472 q -0.152321,0 -0.261121,-0.0051 -0.1024,-0.0038 -0.172801,-0.01792 -0.06912,-0.01792 -0.1024,-0.05376 -0.02816,-0.03584 -0.02816,-0.102401 0,-0.03072 0.0077,-0.05632 0.0077,-0.02944 0.03328,-0.0512 0.0256,-0.0256 0.06784,-0.0384 0.04736,-0.01536 0.119041,-0.02304 l 0.12288,-0.0077 0.108801,-0.0077 q 0.05376,-0.0038 0.11264,-0.0038 h 0.13312 q 0.212481,0 0.400642,0.0038 0.192,0.0038 0.404481,0.01536 0.08704,0.0077 0.134401,0.02048 0.04608,0.01024 0.07168,0.03328 0.0256,0.02176 0.02944,0.0512 0.0077,0.02816 0.0077,0.064 0,0.064 -0.04736,0.108801 -0.04352,0.04352 -0.192001,0.0512 z"
     style="font-weight:400;font-size:2.82200003px;line-height:1.25;font-family:Sniglet;-inkscape-font-specification:'Sniglet, Normal';font-variant-ligatures:normal;font-variant-caps:normal;font-variant-numeric:normal;font-feature-settings:normal;text-align:start;letter-spacing:0;word-spacing:0;fill:#c8c8c8;stroke-width:1"
     id="path56"
     inkscape:connector-curvature="0" />
  <g
     style="line-height:1.25;stroke-width:0.78124732"
     id="g60"
     transform="matrix(1.2800044,0,0,1.2800044,0,-0.09623859)">
    <path
       word-spacing="0"
       letter-spacing="0"
       font-size="4.233"
       font-weight="400"
       aria-label="TWELVE-KEY"
       style="font-weight:400;font-size:4.2329998px;font-family:Sniglet;-inkscape-font-specification:'Sniglet, Normal';font-variant-ligatures:normal;font-variant-caps:normal;font-variant-numeric:normal;font-feature-settings:normal;text-align:start;letter-spacing:0;word-spacing:0;fill:#c8c8c8;stroke-width:0.78124732"
       d="M 29.754,3.948 Q 29.635,3.956 29.5,3.961 l -0.292,0.008 0.008,0.216 0.009,0.199 q 0.004,0.101 0.004,0.211 0.004,0.11 0.004,0.246 v 0.368 q 0,0.174 -0.004,0.352 L 29.22,5.912 Q 29.216,6.09 29.208,6.28 29.203,6.382 29.186,6.437 29.174,6.492 29.148,6.522 29.123,6.552 29.089,6.556 29.055,6.564 29.013,6.564 28.937,6.564 28.882,6.513 28.831,6.458 28.822,6.284 28.814,6.132 28.81,5.962 28.81,5.793 28.805,5.598 28.801,5.404 28.801,5.179 v -0.91 q 0.004,-0.173 0.013,-0.3 H 28.64 q -0.177,0 -0.304,-0.004 Q 28.213,3.961 28.132,3.943 28.052,3.923 28.014,3.88 27.98,3.838 27.98,3.761 q 0,-0.038 0.008,-0.067 0.009,-0.034 0.039,-0.06 0.03,-0.03 0.08,-0.046 0.055,-0.017 0.14,-0.026 l 0.144,-0.008 0.127,-0.008 q 0.063,-0.004 0.13,-0.004 h 0.158 q 0.25,0 0.47,0.004 0.224,0.004 0.474,0.017 0.101,0.008 0.156,0.026 0.055,0.012 0.085,0.038 0.03,0.025 0.034,0.059 0.008,0.034 0.008,0.076 0,0.076 -0.055,0.127 -0.05,0.051 -0.224,0.06 z m 1.82,0.415 q 0.025,-0.06 0.076,-0.097 0.055,-0.038 0.114,-0.038 0.055,0 0.106,0.038 0.05,0.034 0.08,0.093 0.161,0.33 0.318,0.715 0.157,0.381 0.284,0.724 0.072,-0.525 0.156,-1.058 0.085,-0.534 0.19,-1.02 0.013,-0.055 0.039,-0.09 0.025,-0.037 0.055,-0.054 0.03,-0.022 0.06,-0.03 0.033,-0.008 0.054,-0.008 0.072,0 0.119,0.042 0.046,0.038 0.046,0.106 0,0.076 -0.025,0.271 -0.026,0.19 -0.068,0.449 -0.042,0.254 -0.097,0.542 -0.051,0.288 -0.102,0.554 -0.05,0.267 -0.097,0.487 -0.047,0.22 -0.076,0.335 -0.026,0.097 -0.077,0.148 -0.05,0.046 -0.148,0.046 -0.101,0 -0.173,-0.089 Q 32.34,6.336 32.255,6.142 32.175,5.947 32.061,5.646 31.946,5.341 31.764,4.918 q -0.186,0.423 -0.305,0.728 -0.114,0.305 -0.199,0.5 -0.08,0.195 -0.152,0.288 -0.072,0.089 -0.17,0.089 -0.169,0 -0.224,-0.195 Q 30.68,6.214 30.634,5.998 30.587,5.778 30.537,5.511 L 30.439,4.961 Q 30.389,4.673 30.35,4.419 30.312,4.165 30.287,3.974 30.266,3.779 30.266,3.704 q 0,-0.073 0.046,-0.12 0.047,-0.046 0.131,-0.046 0.06,0 0.115,0.038 0.055,0.034 0.08,0.144 0.102,0.487 0.178,1.02 0.08,0.534 0.17,1.059 0.13,-0.31 0.262,-0.657 0.131,-0.347 0.326,-0.778 z m 2.082,1.516 Q 33.647,5.743 33.639,5.51 33.63,5.277 33.63,5.032 V 4.744 l 0.009,-0.309 q 0.008,-0.313 0.038,-0.491 0.034,-0.178 0.127,-0.267 0.097,-0.089 0.27,-0.11 0.174,-0.021 0.462,-0.021 h 0.089 q 0.089,0 0.212,0.004 0.122,0 0.254,0.004 l 0.224,0.008 q 0.093,0.008 0.148,0.025 0.06,0.013 0.089,0.038 0.03,0.022 0.038,0.055 0.009,0.03 0.009,0.068 0,0.098 -0.055,0.144 -0.055,0.042 -0.225,0.055 -0.084,0.008 -0.25,0.013 h -0.33 q -0.17,0 -0.305,0.004 h -0.169 q -0.11,0.004 -0.156,0.05 -0.043,0.043 -0.043,0.208 l 0.004,0.186 q 0.009,0.144 0.009,0.407 h 0.351 q 0.225,0 0.364,0.008 0.144,0.004 0.22,0.025 0.08,0.021 0.11,0.068 0.03,0.046 0.03,0.123 0,0.038 -0.008,0.072 -0.005,0.03 -0.034,0.055 -0.03,0.02 -0.085,0.038 -0.055,0.012 -0.157,0.02 -0.122,0.009 -0.232,0.014 H 34.07 v 0.516 l 0.009,0.144 q 0.004,0.068 0.017,0.114 0.017,0.047 0.055,0.076 0.042,0.03 0.118,0.043 0.08,0.012 0.212,0.012 h 0.91 q 0.148,0 0.186,0.055 0.039,0.055 0.039,0.149 0,0.076 -0.034,0.118 Q 35.548,6.503 35.417,6.52 35.29,6.541 35.031,6.546 34.777,6.55 34.329,6.55 34.139,6.55 34.015,6.516 33.893,6.482 33.816,6.401 33.74,6.321 33.702,6.194 33.668,6.063 33.656,5.876 Z m 2.762,-0.538 v 0.241 q 0,0.102 -0.004,0.195 0,0.093 -0.004,0.186 l -0.009,0.208 q 0.292,-0.034 0.457,-0.055 l 0.259,-0.034 q 0.097,-0.013 0.148,-0.017 0.055,-0.004 0.127,-0.004 0.186,0 0.186,0.182 0,0.072 -0.076,0.123 -0.072,0.05 -0.186,0.089 -0.11,0.033 -0.25,0.059 -0.136,0.021 -0.267,0.03 -0.127,0.012 -0.233,0.016 -0.101,0.004 -0.144,0.004 -0.152,0 -0.237,-0.02 Q 36.101,6.526 36.058,6.434 36.016,6.336 36.003,6.141 35.995,5.946 35.995,5.591 v -0.61 q 0,-0.267 0.004,-0.478 0.004,-0.212 0.004,-0.377 0.004,-0.165 0.013,-0.3 0.008,-0.174 0.06,-0.225 0.05,-0.055 0.126,-0.055 0.043,0 0.072,0.008 0.034,0.004 0.06,0.034 0.025,0.03 0.038,0.085 0.016,0.055 0.02,0.156 0.018,0.373 0.022,0.737 0.004,0.364 0.004,0.775 z M 38.73,6.353 Q 38.675,6.454 38.628,6.501 38.586,6.547 38.518,6.547 38.45,6.547 38.4,6.501 38.349,6.454 38.29,6.357 38.213,6.23 38.116,6.006 38.023,5.781 37.926,5.519 37.828,5.252 37.735,4.969 37.642,4.685 37.565,4.435 37.494,4.185 37.447,3.999 q -0.042,-0.19 -0.042,-0.27 0,-0.086 0.034,-0.128 0.033,-0.042 0.13,-0.042 0.056,0 0.094,0.03 0.042,0.025 0.106,0.152 0.05,0.097 0.11,0.254 0.06,0.156 0.123,0.347 0.067,0.19 0.135,0.402 l 0.136,0.415 0.127,0.398 q 0.059,0.19 0.11,0.343 0.05,-0.157 0.114,-0.347 0.063,-0.195 0.131,-0.398 L 38.891,4.74 q 0.067,-0.212 0.135,-0.398 l 0.127,-0.343 q 0.06,-0.157 0.106,-0.258 0.06,-0.123 0.102,-0.153 0.046,-0.03 0.093,-0.03 0.097,0 0.13,0.052 0.039,0.046 0.039,0.14 0,0.084 -0.025,0.202 -0.026,0.119 -0.09,0.318 -0.059,0.195 -0.16,0.487 l -0.25,0.715 q -0.038,0.115 -0.089,0.237 -0.046,0.123 -0.097,0.242 -0.047,0.114 -0.093,0.22 -0.047,0.106 -0.09,0.182 z M 39.989,5.879 Q 39.98,5.743 39.972,5.51 39.964,5.277 39.964,5.032 V 4.744 L 39.972,4.435 Q 39.981,4.122 40.01,3.944 40.044,3.766 40.137,3.677 40.235,3.588 40.408,3.567 40.582,3.546 40.87,3.546 h 0.088 q 0.09,0 0.212,0.004 0.123,0 0.254,0.004 l 0.224,0.008 q 0.094,0.008 0.149,0.025 0.059,0.013 0.089,0.038 0.03,0.022 0.038,0.055 0.008,0.03 0.008,0.068 0,0.098 -0.055,0.144 -0.055,0.042 -0.224,0.055 -0.085,0.008 -0.25,0.013 h -0.33 q -0.17,0 -0.305,0.004 h -0.17 Q 40.488,3.968 40.442,4.014 40.4,4.057 40.4,4.222 l 0.004,0.186 q 0.008,0.144 0.008,0.407 h 0.352 q 0.224,0 0.364,0.008 0.144,0.004 0.22,0.025 0.08,0.021 0.11,0.068 0.03,0.046 0.03,0.123 0,0.038 -0.009,0.072 -0.004,0.03 -0.034,0.055 -0.03,0.02 -0.084,0.038 -0.055,0.012 -0.157,0.02 -0.123,0.009 -0.233,0.014 h -0.567 v 0.516 l 0.008,0.144 q 0.005,0.068 0.017,0.114 0.017,0.047 0.055,0.076 0.043,0.03 0.119,0.043 0.08,0.012 0.211,0.012 h 0.91 q 0.149,0 0.187,0.055 0.038,0.055 0.038,0.149 0,0.076 -0.034,0.118 Q 41.881,6.503 41.75,6.52 41.623,6.541 41.365,6.546 41.111,6.55 40.662,6.55 40.472,6.55 40.349,6.516 40.226,6.482 40.149,6.401 40.074,6.321 40.036,6.194 40.002,6.063 39.989,5.876 Z m 3.753,-0.416 q -0.195,0.009 -0.449,0.018 -0.254,0.004 -0.6,0.004 -0.145,0 -0.246,-0.004 -0.102,-0.004 -0.165,-0.022 -0.064,-0.02 -0.093,-0.063 -0.03,-0.042 -0.03,-0.119 0,-0.038 0.008,-0.067 0.009,-0.034 0.039,-0.06 0.03,-0.025 0.08,-0.042 0.055,-0.021 0.14,-0.03 0.063,-0.003 0.11,-0.007 0.05,-0.004 0.097,-0.004 0.047,-0.004 0.097,-0.004 h 0.127 q 0.23,0 0.44,0.004 0.212,0 0.441,0.012 0.102,0.008 0.157,0.026 0.055,0.012 0.084,0.038 0.03,0.025 0.034,0.059 0.009,0.034 0.009,0.076 0,0.076 -0.055,0.127 -0.051,0.051 -0.225,0.06 z M 44.383,6.26 Q 44.375,6.107 44.371,5.942 44.371,5.777 44.367,5.587 44.362,5.396 44.362,5.176 v -0.5 q 0,-0.3 0.005,-0.512 0.004,-0.216 0.02,-0.351 0.022,-0.136 0.064,-0.2 0.043,-0.063 0.119,-0.063 0.072,0 0.127,0.047 0.055,0.046 0.063,0.216 0.009,0.152 0.013,0.27 l 0.008,0.238 q 0.005,0.114 0.005,0.241 v 0.5 l 0.906,-1.038 q 0.177,-0.203 0.275,-0.266 0.097,-0.068 0.17,-0.068 0.084,0 0.122,0.042 0.042,0.043 0.042,0.106 0,0.026 -0.008,0.051 -0.009,0.025 -0.038,0.072 -0.026,0.042 -0.08,0.11 -0.056,0.064 -0.149,0.165 l -0.588,0.64 0.927,1.32 q 0.034,0.047 0.05,0.098 0.022,0.05 0.022,0.097 0,0.08 -0.047,0.131 -0.042,0.055 -0.152,0.055 -0.09,0 -0.161,-0.05 Q 46.009,6.48 45.95,6.387 l -0.805,-1.19 -0.364,0.398 -0.008,0.322 q -0.004,0.16 -0.013,0.338 -0.004,0.102 -0.021,0.157 -0.013,0.055 -0.038,0.085 -0.026,0.03 -0.06,0.034 -0.029,0.008 -0.071,0.008 -0.077,0 -0.127,-0.051 -0.051,-0.055 -0.06,-0.229 z M 46.802,5.879 Q 46.793,5.743 46.785,5.51 46.777,5.277 46.777,5.032 V 4.744 l 0.008,-0.309 q 0.009,-0.313 0.038,-0.491 0.034,-0.178 0.127,-0.267 0.098,-0.089 0.271,-0.11 0.174,-0.021 0.462,-0.021 h 0.088 q 0.09,0 0.212,0.004 0.123,0 0.254,0.004 l 0.224,0.008 q 0.094,0.008 0.149,0.025 0.059,0.013 0.089,0.038 0.03,0.022 0.038,0.055 0.008,0.03 0.008,0.068 0,0.098 -0.055,0.144 -0.055,0.042 -0.224,0.055 -0.085,0.008 -0.25,0.013 h -0.33 q -0.17,0 -0.305,0.004 h -0.17 q -0.11,0.004 -0.156,0.05 -0.042,0.043 -0.042,0.208 l 0.004,0.186 q 0.008,0.144 0.008,0.407 h 0.352 q 0.224,0 0.364,0.008 0.144,0.004 0.22,0.025 0.08,0.021 0.11,0.068 0.03,0.046 0.03,0.123 0,0.038 -0.009,0.072 -0.004,0.03 -0.034,0.055 -0.03,0.02 -0.084,0.038 -0.055,0.012 -0.157,0.02 -0.123,0.009 -0.233,0.014 h -0.567 v 0.516 l 0.008,0.144 q 0.005,0.068 0.017,0.114 0.017,0.047 0.055,0.076 0.043,0.03 0.119,0.043 0.08,0.012 0.212,0.012 h 0.91 q 0.148,0 0.186,0.055 0.038,0.055 0.038,0.149 0,0.076 -0.034,0.118 Q 48.694,6.503 48.563,6.52 48.436,6.541 48.178,6.546 47.924,6.55 47.475,6.55 47.285,6.55 47.162,6.516 47.039,6.482 46.962,6.401 46.887,6.321 46.849,6.194 46.815,6.063 46.802,5.876 Z M 49.907,6.26 49.891,5.764 Q 49.886,5.498 49.886,5.15 L 49.044,3.944 Q 49.01,3.897 48.989,3.847 48.972,3.796 48.972,3.749 q 0,-0.08 0.042,-0.131 0.047,-0.055 0.157,-0.055 0.089,0 0.157,0.05 0.072,0.047 0.13,0.14 l 0.632,1.004 0.63,-1.004 q 0.06,-0.093 0.127,-0.14 0.072,-0.05 0.161,-0.05 0.11,0 0.153,0.055 0.046,0.05 0.046,0.131 0,0.047 -0.021,0.098 -0.017,0.05 -0.05,0.097 L 50.31,5.125 q 0,0.288 -0.009,0.555 -0.004,0.262 -0.017,0.575 -0.004,0.102 -0.02,0.157 -0.014,0.055 -0.039,0.085 -0.025,0.03 -0.06,0.034 -0.029,0.008 -0.071,0.008 -0.076,0 -0.127,-0.051 -0.051,-0.055 -0.06,-0.229 z"
       id="path58"
       inkscape:connector-curvature="0" />
  </g>
  <rect
     ry="0.81699997"
     y="11.376444"
     x="1.0099235"
     height="53.214905"
     width="99.556183"
     id="rect62"
     style="fill:url(#d);stroke-width:1"
     rx="0.81699997" />
  <rect
     y="11.7566"
     x="1.3555247"
     height="52.492977"
     width="98.890587"
     rx="0.60900003"
     ry="0.60900003"
     id="rect64"
     style="fill:#333333;stroke-width:1;paint-order:markers stroke fill" />
  <path
     d="m 24.384084,13.459006 0.06144,23.35368 4.348175,2.368009 v 23.39592 H 16.912698 v -23.39592 l 4.428815,-2.368009 v -23.35368 z m 41.858704,0 0.06144,23.35368 4.348175,2.368009 v 23.39592 H 58.771402 v -23.39592 l 4.428815,-2.368009 v -23.35368 z m 10.850597,0 -0.06016,23.35368 -4.348175,2.368009 v 23.39592 h 11.881001 v -23.39592 l -4.430096,-2.368009 v -23.35368 z m -66.622949,0 0.06144,23.35368 4.348175,2.368009 v 23.39592 H 2.9990503 v -23.39592 l -0.00896,-25.721689 h 4.4390552 z m 24.755285,0 -0.06144,23.35368 -4.348175,2.368009 v 23.39592 h 11.881001 v -23.39592 l 0.01024,-25.721689 h -4.440335 z m 17.103419,0 0.06144,23.35368 4.348175,2.368009 v 23.39592 H 44.857754 v -23.39592 l -0.009,-25.721689 h 4.439055 z m 38.677893,0 -0.06144,23.35368 -4.348175,2.368009 v 23.39592 h 11.882281 v -23.39592 l 0.009,-25.721689 h -4.440336 z"
     id="path66"
     inkscape:connector-curvature="0"
     style="fill:#999999;stroke:#000000;stroke-width:0.26499999" />
  <rect
     ry="1.614"
     y="72.645142"
     x="64.375259"
     height="11.605801"
     width="9.5846729"
     id="rect68"
     style="fill:url(#e);stroke-width:1"
     rx="1.614" />
  <rect
     ry="0.52899998"
     y="107.46126"
     x="47.840164"
     height="8.1805077"
     width="5.9584208"
     id="rect76"
     style="fill:url(#h);stroke-width:1"
     rx="0.52899998" />
  <g
     style="line-height:1.25;stroke-width:0.78124732"
     id="g80"
     transform="matrix(1.2800044,0,0,1.2800044,0,-0.09623859)">
    <path
       d="m 34.192,70.937 q -0.005,-0.101 -0.008,-0.211 0,-0.11 -0.003,-0.238 -0.003,-0.127 -0.003,-0.273 v -0.686 l -0.17,0.087 q -0.07,0.046 -0.112,0.054 -0.04,0.009 -0.088,0.009 -0.042,0 -0.076,-0.037 -0.03,-0.037 -0.03,-0.088 0,-0.05 0.033,-0.087 0.037,-0.04 0.085,-0.07 0.062,-0.043 0.132,-0.085 0.074,-0.043 0.141,-0.077 0.068,-0.036 0.125,-0.056 0.059,-0.023 0.098,-0.023 0.02,0 0.04,0.006 0.023,0.006 0.04,0.023 0.02,0.017 0.03,0.053 0.015,0.034 0.017,0.093 l 0.009,0.178 0.006,0.15 q 0.002,0.07 0.002,0.15 v 0.425 q 0,0.116 -0.002,0.23 l -0.006,0.228 q -0.003,0.115 -0.009,0.242 -0.002,0.068 -0.014,0.105 -0.008,0.036 -0.025,0.056 -0.017,0.02 -0.04,0.023 -0.02,0.005 -0.048,0.005 -0.05,0 -0.084,-0.033 -0.034,-0.037 -0.04,-0.153 z m 0.552,-0.79 q 0,-0.172 0.031,-0.353 0.034,-0.18 0.119,-0.327 0.085,-0.147 0.228,-0.24 0.147,-0.093 0.373,-0.093 0.178,0 0.302,0.053 0.127,0.054 0.209,0.142 0.082,0.087 0.127,0.2 0.045,0.11 0.068,0.231 0.022,0.122 0.025,0.24 0.006,0.119 0.006,0.218 0,0.197 -0.048,0.364 -0.046,0.163 -0.142,0.282 -0.093,0.118 -0.237,0.186 -0.14,0.065 -0.333,0.065 -0.2,0 -0.341,-0.076 -0.138,-0.08 -0.226,-0.209 -0.085,-0.133 -0.124,-0.308 -0.037,-0.177 -0.037,-0.375 z m 0.282,-0.006 q 0,0.139 0.023,0.266 0.025,0.124 0.08,0.22 0.053,0.093 0.137,0.15 0.088,0.056 0.212,0.056 0.119,0 0.206,-0.048 0.09,-0.048 0.15,-0.133 0.059,-0.087 0.087,-0.206 0.028,-0.118 0.028,-0.257 0,-0.104 -0.008,-0.237 -0.009,-0.135 -0.054,-0.254 -0.042,-0.118 -0.135,-0.2 -0.093,-0.082 -0.26,-0.082 -0.141,0 -0.231,0.068 -0.088,0.068 -0.141,0.175 -0.054,0.104 -0.074,0.234 -0.02,0.127 -0.02,0.248 z M 37.285,71 q -0.036,0.067 -0.067,0.098 -0.028,0.031 -0.074,0.031 -0.045,0 -0.079,-0.03 -0.034,-0.032 -0.073,-0.097 -0.05,-0.085 -0.116,-0.234 -0.062,-0.15 -0.127,-0.325 -0.065,-0.177 -0.127,-0.367 -0.062,-0.189 -0.113,-0.355 -0.048,-0.167 -0.079,-0.29 -0.028,-0.128 -0.028,-0.181 0,-0.057 0.023,-0.085 0.022,-0.028 0.087,-0.028 0.037,0 0.062,0.02 0.028,0.016 0.07,0.101 0.035,0.065 0.074,0.17 0.04,0.104 0.082,0.23 0.045,0.128 0.09,0.269 l 0.09,0.276 q 0.046,0.139 0.085,0.266 0.04,0.127 0.074,0.228 l 0.076,-0.231 0.087,-0.265 0.09,-0.277 q 0.046,-0.141 0.091,-0.265 l 0.085,-0.229 q 0.04,-0.104 0.07,-0.172 0.04,-0.082 0.068,-0.102 0.031,-0.02 0.062,-0.02 0.065,0 0.088,0.034 0.025,0.032 0.025,0.094 0,0.056 -0.017,0.135 -0.017,0.08 -0.06,0.212 -0.039,0.13 -0.106,0.324 l -0.167,0.477 q -0.025,0.076 -0.06,0.158 -0.03,0.082 -0.064,0.161 l -0.062,0.147 q -0.031,0.07 -0.06,0.121 z"
       style="font-weight:400;font-size:2.82200003px;font-family:Sniglet;-inkscape-font-specification:'Sniglet, Normal';font-variant-ligatures:normal;font-variant-caps:normal;font-variant-numeric:normal;font-feature-settings:normal;text-align:start;letter-spacing:0;word-spacing:0;fill:#c8c8c8;stroke-width:0.78124732"
       aria-label="10V"
       font-weight="400"
       font-size="2.822"
       letter-spacing="0"
       word-spacing="0"
       id="path78"
       inkscape:connector-curvature="0" />
  </g>
  <g
     style="line-height:1.25;stroke-width:0.78124732"
     id="g84"
     transform="matrix(1.2800044,0,0,1.2800044,0,-0.09623859)">
    <path
       d="m 40.054,69.137 q 0.098,0 0.194,0.005 0.096,0.006 0.17,0.023 0.076,0.014 0.121,0.045 0.048,0.028 0.048,0.076 0,0.054 -0.042,0.093 -0.04,0.04 -0.172,0.04 -0.167,0 -0.266,0.003 -0.096,0 -0.155,0.002 l -0.09,0.006 -0.077,0.006 q -0.039,0.002 -0.062,0.014 -0.02,0.008 -0.03,0.034 -0.01,0.022 -0.012,0.065 -0.003,0.039 -0.003,0.101 v 0.076 q 0.003,0.031 0.003,0.068 0.212,0.009 0.39,0.037 0.18,0.028 0.31,0.099 0.133,0.067 0.206,0.189 0.073,0.12 0.073,0.319 0,0.2 -0.053,0.333 -0.054,0.13 -0.144,0.211 -0.088,0.08 -0.206,0.113 -0.116,0.031 -0.24,0.031 -0.107,0 -0.226,-0.02 -0.118,-0.022 -0.22,-0.079 -0.102,-0.056 -0.17,-0.152 -0.064,-0.099 -0.064,-0.248 0,-0.088 0.042,-0.133 0.045,-0.045 0.102,-0.045 0.048,0 0.09,0.034 0.042,0.03 0.045,0.115 0.003,0.085 0.04,0.139 0.036,0.053 0.093,0.084 0.056,0.031 0.127,0.043 0.07,0.011 0.144,0.011 0.178,0 0.268,-0.102 0.09,-0.101 0.09,-0.316 0,-0.138 -0.065,-0.217 -0.062,-0.082 -0.16,-0.121 -0.097,-0.043 -0.212,-0.054 -0.116,-0.014 -0.22,-0.017 l -0.178,-0.006 q -0.074,-0.005 -0.09,-0.028 -0.02,-0.028 -0.032,-0.07 -0.01,-0.045 -0.017,-0.093 L 39.396,69.757 V 69.67 q 0,-0.164 0.031,-0.268 0.031,-0.105 0.107,-0.164 0.076,-0.06 0.2,-0.079 0.128,-0.022 0.32,-0.022 z M 41.712,71 q -0.037,0.067 -0.068,0.098 -0.028,0.031 -0.073,0.031 -0.045,0 -0.08,-0.03 -0.033,-0.032 -0.073,-0.097 -0.05,-0.085 -0.115,-0.234 -0.062,-0.15 -0.127,-0.325 -0.065,-0.177 -0.127,-0.367 -0.062,-0.189 -0.113,-0.355 -0.048,-0.167 -0.08,-0.29 -0.027,-0.128 -0.027,-0.181 0,-0.057 0.022,-0.085 0.023,-0.028 0.088,-0.028 0.036,0 0.062,0.02 0.028,0.016 0.07,0.101 0.034,0.065 0.074,0.17 0.04,0.104 0.082,0.23 0.045,0.128 0.09,0.269 l 0.09,0.276 0.085,0.266 0.073,0.228 0.076,-0.231 0.088,-0.265 0.09,-0.277 q 0.045,-0.141 0.09,-0.265 l 0.085,-0.229 q 0.04,-0.104 0.07,-0.172 0.04,-0.082 0.068,-0.102 0.031,-0.02 0.063,-0.02 0.064,0 0.087,0.034 0.025,0.032 0.025,0.094 0,0.056 -0.016,0.135 -0.017,0.08 -0.06,0.212 -0.04,0.13 -0.107,0.324 l -0.167,0.477 q -0.025,0.076 -0.059,0.158 -0.03,0.082 -0.065,0.161 -0.03,0.076 -0.062,0.147 -0.03,0.07 -0.06,0.121 z"
       style="font-weight:400;font-size:2.82200003px;font-family:Sniglet;-inkscape-font-specification:'Sniglet, Normal';font-variant-ligatures:normal;font-variant-caps:normal;font-variant-numeric:normal;font-feature-settings:normal;text-align:start;letter-spacing:0;word-spacing:0;fill:#c8c8c8;stroke-width:0.78124732"
       aria-label="5V"
       font-weight="400"
       font-size="2.822"
       letter-spacing="0"
       word-spacing="0"
       id="path82"
       inkscape:connector-curvature="0" />
  </g>
  <g
     style="line-height:1.25;stroke-width:0.78124732"
     id="g88"
     transform="matrix(1.2800044,0,0,1.2800044,0,-0.09623859)">
    <path
       d="m 45.022,70.937 q -0.005,-0.101 -0.008,-0.211 0,-0.11 -0.003,-0.238 -0.003,-0.127 -0.003,-0.273 v -0.686 l -0.169,0.087 q -0.07,0.046 -0.113,0.054 -0.04,0.009 -0.087,0.009 -0.043,0 -0.077,-0.037 -0.03,-0.037 -0.03,-0.088 0,-0.05 0.033,-0.087 0.037,-0.04 0.085,-0.07 0.062,-0.043 0.133,-0.085 0.073,-0.043 0.14,-0.077 0.068,-0.036 0.125,-0.056 0.06,-0.023 0.099,-0.023 0.02,0 0.04,0.006 0.022,0.006 0.039,0.023 0.02,0.017 0.03,0.053 0.015,0.034 0.018,0.093 l 0.008,0.178 0.006,0.15 q 0.002,0.07 0.002,0.15 v 0.425 q 0,0.116 -0.002,0.23 l -0.006,0.228 -0.008,0.242 q -0.003,0.068 -0.015,0.105 -0.008,0.036 -0.025,0.056 -0.017,0.02 -0.04,0.023 -0.02,0.005 -0.047,0.005 -0.051,0 -0.085,-0.033 -0.034,-0.037 -0.04,-0.153 z M 46.401,71 q -0.036,0.067 -0.067,0.098 -0.029,0.031 -0.074,0.031 -0.045,0 -0.079,-0.03 -0.034,-0.032 -0.073,-0.097 -0.05,-0.085 -0.116,-0.234 -0.062,-0.15 -0.127,-0.325 -0.065,-0.177 -0.127,-0.367 -0.062,-0.189 -0.113,-0.355 -0.048,-0.167 -0.079,-0.29 -0.028,-0.128 -0.028,-0.181 0,-0.057 0.023,-0.085 0.022,-0.028 0.087,-0.028 0.037,0 0.062,0.02 0.028,0.016 0.07,0.101 0.035,0.065 0.074,0.17 0.04,0.104 0.082,0.23 0.045,0.128 0.09,0.269 l 0.09,0.276 q 0.046,0.139 0.085,0.266 0.04,0.127 0.074,0.228 0.033,-0.104 0.076,-0.231 l 0.087,-0.265 0.09,-0.277 q 0.046,-0.141 0.09,-0.265 l 0.086,-0.229 q 0.04,-0.104 0.07,-0.172 0.04,-0.082 0.068,-0.102 0.03,-0.02 0.062,-0.02 0.065,0 0.087,0.034 0.026,0.032 0.026,0.094 0,0.056 -0.017,0.135 -0.017,0.08 -0.06,0.212 -0.039,0.13 -0.107,0.324 l -0.166,0.477 q -0.025,0.076 -0.06,0.158 -0.03,0.082 -0.064,0.161 l -0.062,0.147 q -0.031,0.07 -0.06,0.121 z"
       style="font-weight:400;font-size:2.82200003px;font-family:Sniglet;-inkscape-font-specification:'Sniglet, Normal';font-variant-ligatures:normal;font-variant-caps:normal;font-variant-numeric:normal;font-feature-settings:normal;text-align:start;letter-spacing:0;word-spacing:0;fill:#c8c8c8;stroke-width:0.78124732"
       aria-label="1V"
       font-weight="400"
       font-size="2.822"
       letter-spacing="0"
       word-spacing="0"
       id="path86"
       inkscape:connector-curvature="0" />
  </g>
  <g
     style="line-height:1.25;stroke-width:0.78124732"
     id="g92"
     transform="matrix(1.2800044,0,0,1.2800044,0,-0.09623859)">
    <path
       d="m 49.52,69.396 q -0.101,0 -0.169,0.023 -0.067,0.02 -0.113,0.053 -0.045,0.034 -0.073,0.071 -0.025,0.037 -0.05,0.07 -0.023,0.034 -0.052,0.057 -0.025,0.02 -0.065,0.02 -0.067,0 -0.095,-0.034 -0.026,-0.037 -0.026,-0.096 0,-0.124 0.093,-0.231 0.028,-0.034 0.076,-0.071 0.051,-0.04 0.119,-0.07 0.07,-0.032 0.16,-0.051 0.094,-0.023 0.21,-0.023 0.307,0 0.477,0.15 0.169,0.15 0.169,0.42 0,0.054 -0.011,0.119 -0.009,0.065 -0.037,0.135 -0.025,0.07 -0.073,0.147 -0.048,0.076 -0.127,0.155 -0.07,0.07 -0.15,0.13 -0.079,0.06 -0.164,0.118 l -0.177,0.127 q -0.09,0.065 -0.184,0.15 0.09,0.048 0.195,0.062 0.104,0.014 0.234,0.014 0.121,0 0.195,-0.005 Q 49.955,70.83 50,70.822 l 0.07,-0.015 q 0.026,-0.005 0.055,-0.005 0.104,0 0.104,0.096 0,0.084 -0.07,0.13 -0.071,0.045 -0.17,0.067 -0.099,0.02 -0.203,0.023 -0.105,0.006 -0.172,0.006 -0.037,0 -0.105,-0.006 -0.065,-0.003 -0.14,-0.014 -0.077,-0.011 -0.156,-0.031 -0.076,-0.023 -0.141,-0.057 -0.062,-0.036 -0.102,-0.087 -0.04,-0.054 -0.04,-0.127 0,-0.099 0.071,-0.186 0.074,-0.09 0.18,-0.175 0.108,-0.088 0.232,-0.173 0.125,-0.087 0.232,-0.177 0.107,-0.093 0.178,-0.192 0.073,-0.1 0.073,-0.215 0,-0.144 -0.099,-0.214 -0.096,-0.074 -0.276,-0.074 z m 1.706,-0.288 q 0.08,0 0.18,0.015 0.105,0.01 0.196,0.045 0.09,0.03 0.152,0.084 0.062,0.051 0.062,0.127 0,0.046 -0.025,0.077 -0.026,0.03 -0.082,0.03 -0.042,0 -0.088,-0.016 -0.042,-0.017 -0.098,-0.034 -0.054,-0.02 -0.127,-0.037 -0.071,-0.017 -0.167,-0.017 -0.186,0 -0.277,0.068 -0.087,0.065 -0.087,0.18 0,0.08 0.04,0.133 0.039,0.054 0.104,0.093 0.068,0.037 0.15,0.062 0.084,0.026 0.172,0.048 0.098,0.026 0.194,0.062 0.1,0.037 0.175,0.096 0.077,0.06 0.122,0.15 0.048,0.09 0.048,0.229 0,0.144 -0.054,0.26 -0.054,0.112 -0.147,0.194 -0.093,0.079 -0.223,0.124 -0.13,0.042 -0.282,0.042 -0.085,0 -0.197,-0.016 -0.113,-0.015 -0.215,-0.051 -0.101,-0.04 -0.172,-0.102 -0.07,-0.065 -0.07,-0.158 0,-0.056 0.028,-0.09 0.03,-0.034 0.09,-0.034 0.048,0 0.079,0.02 0.031,0.017 0.054,0.04 0.084,0.073 0.191,0.098 0.108,0.025 0.22,0.025 0.066,0 0.136,-0.008 0.073,-0.011 0.133,-0.042 0.059,-0.031 0.099,-0.088 0.039,-0.06 0.039,-0.158 0,-0.09 -0.037,-0.147 -0.034,-0.059 -0.093,-0.099 -0.06,-0.039 -0.14,-0.064 -0.08,-0.026 -0.173,-0.051 -0.104,-0.028 -0.206,-0.062 -0.102,-0.034 -0.18,-0.09 -0.08,-0.06 -0.13,-0.147 -0.049,-0.09 -0.049,-0.229 0,-0.138 0.051,-0.243 0.051,-0.104 0.139,-0.175 0.087,-0.07 0.206,-0.107 0.12,-0.037 0.26,-0.037 z m 2.052,0.277 q -0.079,0.006 -0.17,0.008 l -0.194,0.006 0.006,0.144 0.005,0.133 q 0.003,0.067 0.003,0.14 0.003,0.074 0.003,0.164 v 0.246 q 0,0.116 -0.003,0.234 l -0.006,0.234 q -0.002,0.119 -0.008,0.246 -0.003,0.068 -0.014,0.104 -0.009,0.037 -0.026,0.057 -0.017,0.02 -0.04,0.022 -0.022,0.006 -0.05,0.006 -0.05,0 -0.087,-0.034 -0.034,-0.036 -0.04,-0.152 -0.005,-0.102 -0.008,-0.215 0,-0.113 -0.003,-0.242 -0.003,-0.13 -0.003,-0.28 V 69.6 q 0.003,-0.116 0.009,-0.201 h -0.116 q -0.119,0 -0.203,-0.003 -0.082,-0.003 -0.136,-0.014 -0.053,-0.014 -0.079,-0.042 -0.022,-0.028 -0.022,-0.08 0,-0.025 0.005,-0.044 0.006,-0.023 0.026,-0.04 0.02,-0.02 0.053,-0.03 0.037,-0.012 0.093,-0.018 l 0.096,-0.005 0.085,-0.006 q 0.042,-0.003 0.087,-0.003 h 0.105 q 0.166,0 0.313,0.003 0.15,0.003 0.316,0.011 0.068,0.006 0.105,0.017 0.036,0.009 0.056,0.026 0.02,0.016 0.023,0.04 0.005,0.022 0.005,0.05 0,0.05 -0.036,0.085 -0.034,0.033 -0.15,0.039 z"
       style="font-weight:400;font-size:2.82200003px;font-family:Sniglet;-inkscape-font-specification:'Sniglet, Normal';font-variant-ligatures:normal;font-variant-caps:normal;font-variant-numeric:normal;font-feature-settings:normal;text-align:start;letter-spacing:0;word-spacing:0;fill:#c8c8c8;stroke-width:0.78124732"
       aria-label="2ST"
       font-weight="400"
       font-size="2.822"
       letter-spacing="0"
       word-spacing="0"
       id="path90"
       inkscape:connector-curvature="0" />
  </g>
  <g
     style="line-height:1.25;stroke-width:0.78124732"
     id="g96"
     transform="matrix(1.2800044,0,0,1.2800044,0,-0.09623859)">
    <path
       d="m 55.269,69.108 q 0.079,0 0.18,0.015 0.105,0.01 0.195,0.045 0.09,0.03 0.153,0.084 0.062,0.051 0.062,0.127 0,0.046 -0.026,0.077 -0.025,0.03 -0.082,0.03 -0.042,0 -0.087,-0.016 -0.042,-0.017 -0.099,-0.034 -0.054,-0.02 -0.127,-0.037 -0.07,-0.017 -0.166,-0.017 -0.187,0 -0.277,0.068 -0.087,0.065 -0.087,0.18 0,0.08 0.039,0.133 0.04,0.054 0.104,0.093 0.068,0.037 0.15,0.062 0.085,0.026 0.172,0.048 0.099,0.026 0.195,0.062 0.099,0.037 0.175,0.096 0.076,0.06 0.121,0.15 0.048,0.09 0.048,0.229 0,0.144 -0.053,0.26 -0.054,0.112 -0.147,0.194 -0.093,0.079 -0.223,0.124 -0.13,0.042 -0.282,0.042 -0.085,0 -0.198,-0.016 -0.113,-0.015 -0.214,-0.051 -0.102,-0.04 -0.173,-0.102 -0.07,-0.065 -0.07,-0.158 0,-0.056 0.028,-0.09 0.031,-0.034 0.09,-0.034 0.048,0 0.08,0.02 0.03,0.017 0.053,0.04 0.085,0.073 0.192,0.098 0.107,0.025 0.22,0.025 0.065,0 0.136,-0.008 0.073,-0.011 0.132,-0.042 0.06,-0.031 0.099,-0.088 0.04,-0.06 0.04,-0.158 0,-0.09 -0.037,-0.147 -0.034,-0.059 -0.093,-0.099 -0.06,-0.039 -0.141,-0.064 -0.08,-0.026 -0.173,-0.051 -0.104,-0.028 -0.206,-0.062 -0.101,-0.034 -0.18,-0.09 -0.08,-0.06 -0.13,-0.147 -0.048,-0.09 -0.048,-0.229 0,-0.138 0.05,-0.243 0.052,-0.104 0.14,-0.175 0.087,-0.07 0.205,-0.107 0.121,-0.037 0.26,-0.037 z m 2.051,0.277 q -0.078,0.006 -0.169,0.008 l -0.194,0.006 0.005,0.144 0.006,0.133 q 0.003,0.067 0.003,0.14 0.002,0.074 0.002,0.164 v 0.246 l -0.002,0.234 -0.006,0.234 q -0.003,0.119 -0.009,0.246 -0.002,0.068 -0.014,0.104 -0.008,0.037 -0.025,0.057 -0.017,0.02 -0.04,0.022 -0.022,0.006 -0.05,0.006 -0.051,0 -0.088,-0.034 -0.034,-0.036 -0.04,-0.152 -0.005,-0.102 -0.008,-0.215 0,-0.113 -0.003,-0.242 -0.002,-0.13 -0.002,-0.28 V 69.6 q 0.002,-0.116 0.008,-0.201 h -0.116 q -0.118,0 -0.203,-0.003 -0.082,-0.003 -0.135,-0.014 -0.054,-0.014 -0.08,-0.042 -0.022,-0.028 -0.022,-0.08 0,-0.025 0.006,-0.044 0.005,-0.023 0.025,-0.04 0.02,-0.02 0.054,-0.03 0.036,-0.012 0.093,-0.018 l 0.096,-0.005 0.084,-0.006 q 0.043,-0.003 0.088,-0.003 h 0.104 q 0.167,0 0.314,0.003 0.15,0.003 0.316,0.011 0.067,0.006 0.104,0.017 0.037,0.009 0.057,0.026 0.02,0.016 0.022,0.04 0.006,0.022 0.006,0.05 0,0.05 -0.037,0.085 -0.034,0.033 -0.15,0.039 z"
       style="font-weight:400;font-size:2.82200003px;font-family:Sniglet;-inkscape-font-specification:'Sniglet, Normal';font-variant-ligatures:normal;font-variant-caps:normal;font-variant-numeric:normal;font-feature-settings:normal;text-align:start;letter-spacing:0;word-spacing:0;fill:#c8c8c8;stroke-width:0.78124732"
       aria-label="ST"
       font-weight="400"
       font-size="2.822"
       letter-spacing="0"
       word-spacing="0"
       id="path94"
       inkscape:connector-curvature="0" />
  </g>
  <rect
     rx="2.3399999"
     ry="2.3399999"
     y="100.9166"
     x="60.213398"
     height="17.966143"
     width="17.66662"
     id="rect98"
     style="fill:#3e3e3e;stroke:#8c8c8c;stroke-width:0.26499999;stroke-opacity:1;paint-order:stroke markers fill" />
  <g
     style="line-height:1.25;stroke-width:0.78124732"
     id="g102"
     transform="matrix(1.2800044,0,0,1.2800044,0,-0.09623859)">
    <path
       d="m 24.09,82.918 q -0.037,0.068 -0.068,0.1 -0.028,0.03 -0.073,0.03 -0.045,0 -0.08,-0.03 -0.033,-0.032 -0.073,-0.097 -0.05,-0.084 -0.115,-0.234 -0.063,-0.15 -0.127,-0.325 -0.065,-0.177 -0.127,-0.367 -0.063,-0.189 -0.113,-0.355 -0.048,-0.167 -0.08,-0.29 -0.028,-0.128 -0.028,-0.181 0,-0.057 0.023,-0.085 0.023,-0.028 0.087,-0.028 0.037,0 0.063,0.02 0.028,0.016 0.07,0.101 0.034,0.065 0.074,0.17 0.039,0.104 0.081,0.23 0.046,0.128 0.09,0.269 l 0.091,0.276 0.085,0.266 0.073,0.228 0.076,-0.231 0.088,-0.265 0.09,-0.277 q 0.045,-0.141 0.09,-0.265 l 0.085,-0.229 q 0.04,-0.104 0.07,-0.172 0.04,-0.082 0.068,-0.102 0.031,-0.02 0.062,-0.02 0.065,0 0.088,0.035 0.025,0.03 0.025,0.093 0,0.056 -0.017,0.135 -0.017,0.08 -0.059,0.212 -0.04,0.13 -0.107,0.324 l -0.167,0.477 q -0.025,0.077 -0.059,0.158 -0.031,0.082 -0.065,0.161 -0.03,0.076 -0.062,0.147 -0.031,0.07 -0.06,0.121 z m 0.84,-0.316 q -0.006,-0.09 -0.012,-0.245 -0.006,-0.155 -0.006,-0.32 v -0.191 l 0.006,-0.206 q 0.006,-0.209 0.025,-0.327 0.023,-0.119 0.085,-0.178 0.065,-0.06 0.18,-0.074 0.116,-0.014 0.308,-0.014 h 0.06 q 0.059,0 0.14,0.003 0.083,0 0.17,0.003 l 0.15,0.005 q 0.062,0.006 0.098,0.017 0.04,0.009 0.06,0.026 0.02,0.014 0.025,0.036 0.006,0.02 0.006,0.046 0,0.065 -0.037,0.096 -0.037,0.028 -0.15,0.036 -0.056,0.006 -0.166,0.009 h -0.22 q -0.113,0 -0.203,0.003 h -0.113 q -0.074,0.002 -0.105,0.033 -0.028,0.029 -0.028,0.139 l 0.003,0.124 q 0.005,0.096 0.005,0.27 h 0.235 q 0.15,0 0.242,0.006 0.096,0.003 0.147,0.017 0.054,0.014 0.073,0.046 0.02,0.03 0.02,0.081 0,0.026 -0.005,0.048 -0.003,0.02 -0.023,0.037 -0.02,0.014 -0.056,0.025 -0.037,0.009 -0.105,0.015 l -0.155,0.008 h -0.378 v 0.344 l 0.005,0.096 q 0.003,0.045 0.012,0.077 0.011,0.03 0.036,0.05 0.029,0.02 0.08,0.029 0.053,0.008 0.14,0.008 h 0.607 q 0.1,0 0.125,0.037 0.025,0.036 0.025,0.098 0,0.051 -0.023,0.08 -0.022,0.025 -0.11,0.036 -0.084,0.014 -0.257,0.017 -0.169,0.003 -0.468,0.003 -0.127,0 -0.209,-0.023 -0.082,-0.022 -0.133,-0.076 -0.05,-0.053 -0.076,-0.138 -0.022,-0.088 -0.03,-0.212 z m 1.841,-0.358 v 0.16 q 0,0.068 -0.003,0.13 0,0.063 -0.003,0.125 l -0.005,0.138 0.305,-0.037 0.172,-0.022 q 0.065,-0.009 0.099,-0.012 0.036,-0.002 0.084,-0.002 0.124,0 0.124,0.121 0,0.048 -0.05,0.082 -0.048,0.034 -0.125,0.06 -0.073,0.022 -0.166,0.039 -0.09,0.014 -0.178,0.02 -0.085,0.008 -0.155,0.01 l -0.096,0.003 q -0.102,0 -0.158,-0.014 -0.057,-0.01 -0.085,-0.073 -0.028,-0.065 -0.036,-0.195 -0.006,-0.13 -0.006,-0.367 v -0.406 q 0,-0.178 0.003,-0.319 0.003,-0.141 0.003,-0.251 0.002,-0.11 0.008,-0.2 0.006,-0.116 0.04,-0.15 0.033,-0.037 0.084,-0.037 0.028,0 0.048,0.006 0.023,0.003 0.04,0.022 0.017,0.02 0.025,0.057 0.011,0.037 0.014,0.104 0.012,0.249 0.014,0.491 0.003,0.243 0.003,0.517 z"
       style="font-weight:400;font-size:2.82200003px;font-family:Sniglet;-inkscape-font-specification:'Sniglet, Normal';font-variant-ligatures:normal;font-variant-caps:normal;font-variant-numeric:normal;font-feature-settings:normal;text-align:start;letter-spacing:0;word-spacing:0;fill:#c8c8c8;stroke-width:0.78124732"
       aria-label="VEL"
       font-weight="400"
       font-size="2.822"
       letter-spacing="0"
       word-spacing="0"
       id="path100"
       inkscape:connector-curvature="0" />
  </g>
  <g
     style="line-height:1.25;stroke-width:0.78124732"
     id="g106"
     transform="matrix(1.2800044,0,0,1.2800044,0,-0.09623859)">
    <path
       d="m 36.783,82.969 q -0.158,0 -0.254,-0.026 -0.096,-0.025 -0.15,-0.07 -0.05,-0.048 -0.07,-0.116 -0.017,-0.068 -0.026,-0.152 -0.008,-0.1 -0.014,-0.26 -0.003,-0.164 -0.003,-0.339 v -0.177 q 0.003,-0.096 0.003,-0.187 l 0.006,-0.172 q 0.002,-0.079 0.008,-0.135 0.009,-0.088 0.028,-0.158 0.02,-0.07 0.074,-0.122 0.056,-0.05 0.155,-0.076 0.101,-0.028 0.268,-0.028 0.378,0 0.564,0.141 0.19,0.138 0.19,0.395 0,0.133 -0.06,0.246 -0.056,0.112 -0.197,0.169 0.079,0.014 0.144,0.06 0.065,0.044 0.11,0.11 0.048,0.061 0.07,0.14 0.026,0.077 0.026,0.156 0,0.101 -0.043,0.208 -0.042,0.105 -0.144,0.192 -0.101,0.088 -0.27,0.144 -0.167,0.057 -0.415,0.057 z m 0.59,-0.61 q 0,-0.101 -0.049,-0.164 -0.045,-0.062 -0.118,-0.093 -0.073,-0.034 -0.164,-0.045 -0.09,-0.011 -0.18,-0.011 h -0.147 q -0.076,0 -0.141,0.003 l -0.006,0.121 -0.005,0.119 v 0.152 q 0,0.076 0.01,0.127 0.012,0.05 0.043,0.082 0.031,0.03 0.088,0.045 0.059,0.011 0.15,0.011 0.248,0 0.383,-0.087 0.136,-0.088 0.136,-0.26 z m -0.523,-1.14 q -0.093,0 -0.152,0.017 -0.056,0.014 -0.088,0.04 -0.028,0.025 -0.04,0.061 -0.008,0.037 -0.008,0.08 v 0.395 q 0.04,0.002 0.082,0.002 h 0.085 q 0.102,0 0.198,-0.014 0.098,-0.014 0.177,-0.048 0.08,-0.034 0.127,-0.093 0.048,-0.06 0.048,-0.152 0,-0.127 -0.104,-0.206 -0.102,-0.082 -0.325,-0.082 z m 1.101,1.575 q -0.005,-0.102 -0.008,-0.212 0,-0.11 -0.003,-0.237 -0.003,-0.127 -0.003,-0.274 v -0.333 q 0,-0.2 0.003,-0.341 0.003,-0.144 0.017,-0.234 0.014,-0.09 0.042,-0.133 0.031,-0.042 0.082,-0.042 0.025,0 0.048,0.005 0.022,0.006 0.04,0.026 0.016,0.016 0.028,0.053 0.014,0.034 0.017,0.09 l 0.008,0.181 0.006,0.158 q 0.002,0.076 0.002,0.161 v 0.429 q 0,0.116 -0.002,0.229 l -0.006,0.228 -0.008,0.243 q -0.003,0.068 -0.015,0.104 -0.01,0.037 -0.028,0.057 -0.017,0.02 -0.04,0.022 -0.022,0.006 -0.05,0.006 -0.05,0 -0.088,-0.034 -0.036,-0.037 -0.042,-0.152 z M 38.88,82.79 q 0,0.069 -0.014,0.105 -0.011,0.037 -0.031,0.057 -0.017,0.02 -0.042,0.022 -0.023,0.006 -0.046,0.006 -0.076,0 -0.101,-0.034 -0.023,-0.034 -0.031,-0.152 -0.006,-0.062 -0.009,-0.18 l -0.005,-0.283 q 0,-0.164 -0.003,-0.361 v -0.418 q 0,-0.104 0.025,-0.212 0.026,-0.107 0.096,-0.194 0.074,-0.088 0.2,-0.142 0.13,-0.053 0.336,-0.053 0.144,0 0.274,0.03 0.13,0.032 0.229,0.108 0.099,0.076 0.158,0.203 0.06,0.127 0.06,0.316 0,0.198 -0.066,0.328 -0.065,0.13 -0.183,0.206 -0.119,0.076 -0.282,0.107 -0.164,0.031 -0.359,0.031 H 38.99 q -0.048,0 -0.107,-0.006 z m 0.813,-1.187 q 0,-0.19 -0.107,-0.285 -0.105,-0.096 -0.35,-0.096 -0.094,0 -0.161,0.017 -0.065,0.014 -0.107,0.053 -0.043,0.037 -0.065,0.102 -0.02,0.065 -0.02,0.164 v 0.22 q 0,0.121 0.003,0.228 0.065,0.003 0.144,0.003 h 0.152 q 0.085,0 0.175,-0.011 0.093,-0.011 0.166,-0.05 0.074,-0.043 0.122,-0.122 0.048,-0.082 0.048,-0.223 z m 1.265,1.394 q -0.17,0 -0.319,-0.068 -0.146,-0.068 -0.257,-0.195 -0.11,-0.13 -0.175,-0.316 -0.062,-0.186 -0.062,-0.423 0,-0.223 0.054,-0.41 0.056,-0.185 0.164,-0.32 0.11,-0.136 0.27,-0.21 0.162,-0.076 0.373,-0.076 0.172,0 0.328,0.062 0.155,0.062 0.27,0.186 0.119,0.125 0.187,0.31 0.067,0.187 0.067,0.435 0,0.207 -0.056,0.393 -0.054,0.186 -0.166,0.327 -0.11,0.138 -0.28,0.223 -0.17,0.082 -0.398,0.082 z m 0.006,-0.265 q 0.155,0 0.27,-0.062 0.116,-0.065 0.193,-0.17 0.076,-0.104 0.113,-0.24 0.036,-0.138 0.036,-0.282 0,-0.175 -0.048,-0.31 -0.045,-0.139 -0.124,-0.232 -0.079,-0.093 -0.183,-0.14 -0.105,-0.052 -0.223,-0.052 -0.141,0 -0.249,0.06 -0.104,0.059 -0.177,0.16 -0.071,0.102 -0.108,0.24 -0.036,0.136 -0.036,0.291 0,0.167 0.042,0.305 0.042,0.135 0.113,0.231 0.073,0.096 0.172,0.15 0.099,0.05 0.209,0.05 z m 1.46,-0.551 v 0.161 q 0,0.068 -0.002,0.13 0,0.062 -0.003,0.124 l -0.006,0.138 q 0.195,-0.022 0.305,-0.036 l 0.172,-0.023 0.099,-0.011 q 0.037,-0.003 0.085,-0.003 0.124,0 0.124,0.121 0,0.048 -0.051,0.082 -0.048,0.034 -0.124,0.06 -0.074,0.022 -0.167,0.04 -0.09,0.013 -0.178,0.019 -0.084,0.008 -0.155,0.011 l -0.096,0.003 q -0.101,0 -0.158,-0.014 -0.056,-0.011 -0.084,-0.074 -0.029,-0.064 -0.037,-0.194 -0.006,-0.13 -0.006,-0.367 v -0.407 q 0,-0.177 0.003,-0.318 0.003,-0.142 0.003,-0.252 0.003,-0.11 0.008,-0.2 0.006,-0.116 0.04,-0.15 0.034,-0.036 0.085,-0.036 0.028,0 0.048,0.005 0.022,0.003 0.039,0.023 0.017,0.02 0.025,0.056 0.012,0.037 0.015,0.105 0.01,0.248 0.014,0.49 0.002,0.244 0.002,0.517 z"
       style="font-weight:400;font-size:2.82200003px;font-family:Sniglet;-inkscape-font-specification:'Sniglet, Normal';font-variant-ligatures:normal;font-variant-caps:normal;font-variant-numeric:normal;font-feature-settings:normal;text-align:start;letter-spacing:0;word-spacing:0;fill:#c8c8c8;stroke-width:0.78124732"
       aria-label="BIPOL"
       font-weight="400"
       font-size="2.822"
       letter-spacing="0"
       word-spacing="0"
       id="path104"
       inkscape:connector-curvature="0" />
  </g>
  <g
     style="line-height:1.25;stroke-width:0.78124732"
     id="g110"
     transform="matrix(1.2800044,0,0,1.2800044,0,-0.09623859)">
    <path
       d="m 52.757,82.921 q -0.036,0.068 -0.067,0.1 -0.029,0.03 -0.074,0.03 -0.045,0 -0.079,-0.03 -0.034,-0.032 -0.073,-0.097 -0.051,-0.084 -0.116,-0.234 -0.062,-0.15 -0.127,-0.325 -0.065,-0.177 -0.127,-0.367 -0.062,-0.189 -0.113,-0.355 -0.048,-0.167 -0.079,-0.29 -0.028,-0.128 -0.028,-0.181 0,-0.057 0.023,-0.085 0.022,-0.028 0.087,-0.028 0.037,0 0.062,0.02 0.028,0.016 0.07,0.101 0.035,0.065 0.074,0.17 0.04,0.104 0.082,0.23 0.045,0.128 0.09,0.269 l 0.09,0.276 q 0.046,0.139 0.085,0.266 0.04,0.127 0.074,0.228 0.033,-0.104 0.076,-0.231 l 0.087,-0.265 0.09,-0.277 q 0.046,-0.141 0.09,-0.265 l 0.086,-0.229 q 0.04,-0.104 0.07,-0.172 0.04,-0.082 0.068,-0.102 0.03,-0.02 0.062,-0.02 0.065,0 0.087,0.035 0.026,0.03 0.026,0.093 0,0.056 -0.017,0.135 -0.017,0.08 -0.06,0.212 -0.039,0.13 -0.107,0.324 l -0.166,0.477 q -0.026,0.077 -0.06,0.158 -0.03,0.082 -0.064,0.161 L 52.817,82.8 q -0.031,0.07 -0.06,0.121 z m 0.84,-0.316 Q 53.591,82.515 53.586,82.36 53.58,82.205 53.58,82.04 v -0.191 l 0.006,-0.206 q 0.005,-0.209 0.025,-0.327 0.023,-0.119 0.085,-0.178 0.065,-0.06 0.18,-0.074 0.116,-0.014 0.308,-0.014 h 0.06 q 0.058,0 0.14,0.003 0.082,0 0.17,0.003 l 0.15,0.005 q 0.061,0.006 0.098,0.017 0.04,0.009 0.06,0.026 0.019,0.014 0.025,0.036 0.005,0.02 0.005,0.046 0,0.065 -0.037,0.096 -0.036,0.028 -0.15,0.036 -0.056,0.006 -0.166,0.009 h -0.22 q -0.113,0 -0.203,0.003 h -0.113 q -0.073,0.002 -0.104,0.033 -0.028,0.029 -0.028,0.139 l 0.002,0.124 q 0.006,0.096 0.006,0.27 h 0.234 q 0.15,0 0.243,0.006 0.096,0.003 0.147,0.017 0.053,0.014 0.073,0.046 0.02,0.03 0.02,0.081 0,0.026 -0.006,0.048 -0.003,0.02 -0.022,0.037 -0.02,0.014 -0.057,0.025 -0.037,0.009 -0.104,0.015 l -0.155,0.008 h -0.379 v 0.344 l 0.006,0.096 q 0.003,0.045 0.011,0.077 0.012,0.03 0.037,0.05 0.028,0.02 0.079,0.029 0.054,0.008 0.141,0.008 h 0.607 q 0.099,0 0.124,0.037 0.025,0.036 0.025,0.099 0,0.05 -0.022,0.079 -0.023,0.025 -0.11,0.036 -0.085,0.014 -0.257,0.017 -0.17,0.003 -0.468,0.003 -0.127,0 -0.21,-0.023 -0.081,-0.022 -0.132,-0.076 -0.05,-0.053 -0.076,-0.138 -0.023,-0.088 -0.031,-0.212 z m 1.842,-0.358 v 0.16 q 0,0.068 -0.003,0.13 0,0.063 -0.003,0.125 l -0.006,0.138 0.305,-0.037 0.172,-0.022 q 0.065,-0.009 0.1,-0.012 0.036,-0.002 0.084,-0.002 0.124,0 0.124,0.121 0,0.048 -0.05,0.082 -0.049,0.034 -0.125,0.06 -0.073,0.022 -0.167,0.039 -0.09,0.014 -0.177,0.02 -0.085,0.008 -0.156,0.01 l -0.095,0.003 q -0.102,0 -0.159,-0.014 -0.056,-0.01 -0.084,-0.073 -0.028,-0.065 -0.037,-0.195 -0.006,-0.13 -0.006,-0.367 v -0.406 q 0,-0.178 0.003,-0.319 0.003,-0.141 0.003,-0.251 0.003,-0.11 0.009,-0.2 0.005,-0.116 0.04,-0.15 0.033,-0.037 0.084,-0.037 0.028,0 0.048,0.006 0.022,0.003 0.04,0.022 0.016,0.02 0.025,0.057 0.011,0.037 0.014,0.104 0.011,0.249 0.014,0.491 0.003,0.243 0.003,0.517 z"
       style="font-weight:400;font-size:2.82200003px;font-family:Sniglet;-inkscape-font-specification:'Sniglet, Normal';font-variant-ligatures:normal;font-variant-caps:normal;font-variant-numeric:normal;font-feature-settings:normal;text-align:start;letter-spacing:0;word-spacing:0;fill:#c8c8c8;stroke-width:0.78124732"
       aria-label="VEL"
       font-weight="400"
       font-size="2.822"
       letter-spacing="0"
       word-spacing="0"
       id="path108"
       inkscape:connector-curvature="0" />
  </g>
  <path
     d="M 58.477001,111.60974 H 55.29619 M 42.060945,95.000405 H 38.880134 M 61.533652,78.419229 h -3.179531"
     id="path112"
     inkscape:connector-curvature="0"
     style="fill:none;stroke:#c8c8c8;stroke-width:0.132" />
  <path
     word-spacing="0"
     letter-spacing="0"
     font-size="3.528"
     font-weight="400"
     d="m 50.226093,72.362249 -0.115201,0.1408 a 0.18560064,0.18560064 0 0 1 -0.13696,0.0576 0.19200066,0.19200066 0 0 1 -0.125441,-0.04864 0.30208104,0.30208104 0 0 1 -0.0512,-0.064 0.14848051,0.14848051 0 0 1 -0.01664,-0.07168 c 0,-0.02688 0.009,-0.06016 0.0256,-0.09984 a 1.0316835,1.0316835 0 0 1 0.08192,-0.14848 l 0.312322,-0.512002 c 0.08704,-0.14592 0.1664,-0.270081 0.2432,-0.371201 a 1.1788841,1.1788841 0 0 1 0.203521,-0.227841 c 0.064,-0.0512 0.128001,-0.0768 0.198401,-0.0768 a 0.3200011,0.3200011 0 0 1 0.20352,0.08064 1.152004,1.152004 0 0 1 0.203521,0.230401 c 0.07168,0.09984 0.153601,0.222721 0.243201,0.371201 0.08704,0.147201 0.189441,0.316161 0.307201,0.505602 a 1.2531243,1.2531243 0 0 1 0.08576,0.14848 c 0.0128,0.03072 0.02176,0.064 0.02304,0.09984 0,0.0256 -0.0064,0.04864 -0.01792,0.07168 a 0.28544098,0.28544098 0 0 1 -0.0512,0.064 0.19200066,0.19200066 0 0 1 -0.12544,0.04864 0.16896058,0.16896058 0 0 1 -0.130561,-0.05888 2.3769682,2.3769682 0 0 1 -0.1216,-0.1408 c -0.403201,-0.385282 -0.965123,-0.366082 -1.237764,0 z M 31.88235,71.138564 a 9.0470711,9.0470711 0 0 0 -0.115201,-0.1408 0.18560064,0.18560064 0 0 0 -0.13696,-0.0576 0.19200066,0.19200066 0 0 0 -0.125441,0.04864 0.30208104,0.30208104 0 0 0 -0.0512,0.064 0.14848051,0.14848051 0 0 0 -0.01664,0.07168 c 0,0.0256 0.009,0.06016 0.0256,0.09984 0.01664,0.0384 0.04352,0.0896 0.08192,0.14848 l 0.312322,0.510722 c 0.08704,0.1472 0.16768,0.271361 0.2432,0.371201 0.07296,0.102401 0.140801,0.177921 0.204801,0.229121 0.064,0.0512 0.128,0.0768 0.197121,0.0768 a 0.3200011,0.3200011 0 0 0 0.2048,-0.08064 1.152004,1.152004 0 0 0 0.202241,-0.230401 c 0.07168,-0.09984 0.153601,-0.222721 0.243201,-0.371201 0.08704,-0.147201 0.189441,-0.316161 0.307201,-0.505602 a 1.2531243,1.2531243 0 0 0 0.08576,-0.14848 0.28928099,0.28928099 0 0 0 0.02304,-0.09984 0.1459205,0.1459205 0 0 0 -0.01792,-0.07168 0.28544098,0.28544098 0 0 0 -0.0512,-0.064 0.19200066,0.19200066 0 0 0 -0.12544,-0.04864 0.16896058,0.16896058 0 0 0 -0.130561,0.05888 c -0.0384,0.04096 -0.08064,0.08832 -0.1216,0.13952 -0.403202,0.386562 -0.965123,0.367362 -1.237764,0 z"
     style="font-weight:400;font-size:3.52800012px;line-height:1.25;font-family:Sniglet;-inkscape-font-specification:'Sniglet, Normal';font-variant-ligatures:normal;font-variant-caps:normal;font-variant-numeric:normal;font-feature-settings:normal;text-align:start;letter-spacing:0;word-spacing:0;fill:#c8c8c8;stroke-width:1"
     id="path114"
     inkscape:connector-curvature="0" />
</svg>
