<?xml version="1.0" encoding="UTF-8" standalone="no"?>
<svg
   xmlns:dc="http://purl.org/dc/elements/1.1/"
   xmlns:cc="http://creativecommons.org/ns#"
   xmlns:rdf="http://www.w3.org/1999/02/22-rdf-syntax-ns#"
   xmlns:svg="http://www.w3.org/2000/svg"
   xmlns="http://www.w3.org/2000/svg"
   xmlns:sodipodi="http://sodipodi.sourceforge.net/DTD/sodipodi-0.dtd"
   xmlns:inkscape="http://www.inkscape.org/namespaces/inkscape"
   width="12.192mm"
   height="12.192mm"
   viewBox="0 0 12.192001 12.192001"
   version="1.1"
   id="svg8"
   sodipodi:docname="BlackKnobLargeWithMark.svg"
   inkscape:version="0.92.2 (5c3e80d, 2017-08-06)">
  <metadata
     id="metadata14">
    <rdf:RDF>
      <cc:Work
         rdf:about="">
        <dc:format>image/svg+xml</dc:format>
        <dc:type
           rdf:resource="http://purl.org/dc/dcmitype/StillImage" />
        <dc:title></dc:title>
      </cc:Work>
    </rdf:RDF>
  </metadata>
  <defs
     id="defs12" />
  <sodipodi:namedview
     pagecolor="#ffffff"
     bordercolor="#666666"
     borderopacity="1"
     objecttolerance="10"
     gridtolerance="10"
     guidetolerance="10"
     inkscape:pageopacity="0"
     inkscape:pageshadow="2"
     inkscape:window-width="1920"
     inkscape:window-height="1017"
     id="namedview10"
     showgrid="false"
     inkscape:document-units="mm"
     units="mm"
     inkscape:zoom="6.5555556"
     inkscape:cx="18"
     inkscape:cy="18"
     inkscape:window-x="-8"
     inkscape:window-y="-8"
     inkscape:window-maximized="1"
     inkscape:current-layer="svg8" />
  <path
     d="M 12.08328,5.4604743 C 11.817366,5.0314953 11.374176,4.6127912 11.126246,4.0129912 10.878317,3.4170444 10.895017,2.805685 10.780687,2.3201938 A 6.0415124,6.0403841 0 0 0 9.8750381,1.4134298 C 9.386887,1.299121 8.7779827,1.3145334 8.1806399,1.0679347 7.5820124,0.81876729 7.1606609,0.37566023 6.7328864,0.11108036 a 6.0440816,6.0429529 0 0 0 -1.2717621,0 C 5.0320652,0.37822897 4.6107137,0.81876729 4.0120862,1.0679347 3.4147434,1.3145334 2.8045545,1.299121 2.3164034,1.4134298 A 6.0389431,6.0378154 0 0 0 1.4107546,2.3189095 C 1.2977091,2.8069694 1.3131244,3.4170444 1.0639104,4.0142756 0.81855026,4.6127912 0.37279122,5.0314953 0.10944654,5.4604743 a 6.0440816,6.0429529 0 0 0 0,1.272809 C 0.37279122,7.1609779 0.81598105,7.5809664 1.065195,8.179482 1.3131244,8.7754289 1.2964245,9.3867882 1.4120393,9.8735641 1.6805224,10.2075 1.9836899,10.511896 2.317688,10.780328 c 0.4881511,0.114309 1.0970554,0.09761 1.6943982,0.345496 0.5986275,0.247883 1.019979,0.693558 1.4464689,0.956854 a 6.1404272,6.1392805 0 0 0 1.2730467,0 C 7.1593763,11.816814 7.5794432,11.374991 8.1780706,11.125824 8.7766981,10.87794 9.3856023,10.894637 9.8737535,10.780328 A 6.0376585,6.036531 0 0 0 10.779402,9.8748484 c 0.11433,-0.4880602 0.09763,-1.0994195 0.34556,-1.6953664 0.247929,-0.5985156 0.693688,-1.0185041 0.957033,-1.4461987 a 6.1725424,6.1713897 0 0 0 0,-1.2715246"
     id="path2"
     inkscape:connector-curvature="0"
     style="fill-rule:evenodd;stroke:#787878;stroke-width:0.153;stroke-linecap:round;stroke-linejoin:round" />
  <ellipse
     cy="6.0962367"
     cx="6.0520444"
     id="ellipse4"
     style="fill:#464646;stroke:#595959;stroke-width:0.10299999"
     rx="4.794158"
     ry="4.7932625" />
  <rect
     ry="0.26300001"
     y="0.0674119"
     x="5.7180457"
     height="5.0218801"
     width="0.74121898"
     rx="0.26300001"
     id="rect6"
     style="fill:#e7e7e7;stroke:#2b2b2b;stroke-width:0.133;stroke-linejoin:round" />
</svg>
