<?xml version="1.0" encoding="UTF-8" standalone="no"?>
<svg
   xmlns:dc="http://purl.org/dc/elements/1.1/"
   xmlns:cc="http://creativecommons.org/ns#"
   xmlns:rdf="http://www.w3.org/1999/02/22-rdf-syntax-ns#"
   xmlns:svg="http://www.w3.org/2000/svg"
   xmlns="http://www.w3.org/2000/svg"
   xmlns:sodipodi="http://sodipodi.sourceforge.net/DTD/sodipodi-0.dtd"
   xmlns:inkscape="http://www.inkscape.org/namespaces/inkscape"
   width="12.192mm"
   height="12.192mm"
   viewBox="0 0 12.192001 12.191323"
   version="1.1"
   id="svg6"
   sodipodi:docname="BlackKnobLarge.svg"
   inkscape:version="0.92.2 (5c3e80d, 2017-08-06)">
  <metadata
     id="metadata12">
    <rdf:RDF>
      <cc:Work
         rdf:about="">
        <dc:format>image/svg+xml</dc:format>
        <dc:type
           rdf:resource="http://purl.org/dc/dcmitype/StillImage" />
        <dc:title></dc:title>
      </cc:Work>
    </rdf:RDF>
  </metadata>
  <defs
     id="defs10" />
  <sodipodi:namedview
     pagecolor="#ffffff"
     bordercolor="#666666"
     borderopacity="1"
     objecttolerance="10"
     gridtolerance="10"
     guidetolerance="10"
     inkscape:pageopacity="0"
     inkscape:pageshadow="2"
     inkscape:window-width="1920"
     inkscape:window-height="1017"
     id="namedview8"
     showgrid="false"
     inkscape:document-units="mm"
     units="mm"
     inkscape:zoom="9.2704408"
     inkscape:cx="22.73649"
     inkscape:cy="15.18609"
     inkscape:window-x="-8"
     inkscape:window-y="-8"
     inkscape:window-maximized="1"
     inkscape:current-layer="svg6" />
  <path
     d="M 12.081999,5.4594094 C 11.816113,5.0316804 11.372971,4.6116582 11.125068,4.0130944 10.877165,3.4158151 10.893863,2.8056911 10.779545,2.3175919 A 6.0408681,6.0408699 0 0 0 9.8727085,1.4120394 C 9.3846095,1.2990059 8.7757701,1.3144196 8.1797755,1.067801 7.5799275,0.81861357 7.1586209,0.37418639 6.7321765,0.11086971 a 6.043437,6.0434389 0 0 0 -1.2716265,0 C 5.0315366,0.37547086 4.6115145,0.81732909 4.0116665,1.067801 3.4156718,1.3144196 2.805548,1.2990059 2.3187334,1.4120394 A 6.0382991,6.038301 0 0 0 1.4118967,2.3175919 C 1.2975788,2.8056911 1.3129925,3.4158151 1.0650895,4.0130944 0.81975553,4.6116582 0.37404402,5.0316804 0.10944295,5.4594094 a 6.043437,6.0434389 0 0 0 0,1.2729114 c 0.26460107,0.427729 0.7090281,0.8477513 0.95564655,1.446315 0.247903,0.5972793 0.2324893,1.2074033 0.3468072,1.6942178 0.269739,0.3339634 0.5728742,0.6383824 0.9068367,0.9068374 0.4880991,0.114318 1.0969384,0.09762 1.6929331,0.345523 0.599848,0.247903 1.0198701,0.693614 1.447599,0.956931 a 6.1397723,6.1397742 0 0 0 1.272911,0 c 0.4277289,-0.265885 0.847751,-0.707744 1.4463145,-0.956931 0.5972791,-0.247903 1.207403,-0.231205 1.695502,-0.345523 0.333963,-0.269739 0.635813,-0.57159 0.905552,-0.9055529 0.114318,-0.488099 0.09762,-1.098223 0.345523,-1.6942178 0.247903,-0.5985638 0.69233,-1.0198705 0.956931,-1.4475995 a 6.1718841,6.171886 0 0 0 0,-1.2716269"
     id="path2"
     inkscape:connector-curvature="0"
     style="fill-rule:evenodd;stroke:#787878;stroke-width:0.15299998;stroke-linecap:round;stroke-linejoin:round" />
  <ellipse
     cy="6.0952225"
     cx="6.0514069"
     id="circle4"
     style="fill:#464646;stroke:#595959;stroke-width:0.10299999"
     rx="4.7936468"
     ry="4.7936482" />
</svg>
