<?xml version="1.0" encoding="UTF-8" standalone="no"?>
<!-- Created with Inkscape (http://www.inkscape.org/) -->

<svg
   width="67.732002mm"
   height="28.448mm"
   viewBox="0 0 67.732002 28.448"
   version="1.1"
   id="svg927"
   inkscape:version="1.1 (c68e22c387, 2021-05-23)"
   sodipodi:docname="KeyboardMed.svg"
   xmlns:inkscape="http://www.inkscape.org/namespaces/inkscape"
   xmlns:sodipodi="http://sodipodi.sourceforge.net/DTD/sodipodi-0.dtd"
   xmlns="http://www.w3.org/2000/svg"
   xmlns:svg="http://www.w3.org/2000/svg">
  <sodipodi:namedview
     id="namedview929"
     pagecolor="#ffffff"
     bordercolor="#666666"
     borderopacity="1.0"
     inkscape:pageshadow="2"
     inkscape:pageopacity="0.0"
     inkscape:pagecheckerboard="0"
     inkscape:document-units="mm"
     showgrid="false"
     width="67.732mm"
     inkscape:zoom="2.2129279"
     inkscape:cx="106.87199"
     inkscape:cy="29.146906"
     inkscape:window-width="1920"
     inkscape:window-height="1057"
     inkscape:window-x="-8"
     inkscape:window-y="1072"
     inkscape:window-maximized="1"
     inkscape:current-layer="layer1" />
  <defs
     id="defs924" />
  <g
     inkscape:label="Layer 1"
     inkscape:groupmode="layer"
     id="layer1">
    <rect
       y="0"
       x="0"
       height="28.44788"
       width="67.732193"
       rx="0.6089977"
       ry="0.6089977"
       id="rect24"
       style="fill:#333333;stroke-width:0.999996;paint-order:markers stroke fill" />
    <path
       d="m 15.774653,1.1865519 0.04096,12.2085891 2.978547,1.651192 V 27.283082 H 10.655954 V 15.046333 l 3.033588,-1.651192 V 1.1878319 Z m 28.66932,0 0.04224,12.2085891 2.978546,1.651192 V 27.283082 H 39.325274 V 15.046333 l 3.034867,-1.651192 V 1.1878319 Z m 7.431649,0 -0.04224,12.2085891 -2.977268,1.651192 v 12.236749 h 8.136929 V 15.046333 l -3.03359,-1.651192 V 1.1878319 Z m -45.6318095,0 0.04224,12.2085891 2.978548,1.651192 V 27.283082 H 1.1263935 V 15.046333 l -0.0077,-13.8597811 h 3.041267 z m 16.9560895,0 -0.04224,12.2085891 -2.978548,1.651192 V 27.283082 H 28.31732 V 15.046333 l 0.0064,-13.8585011 h -3.041267 z m 11.71451,0 0.04224,12.2085891 2.977268,1.651192 V 27.283082 H 29.796994 V 15.046333 l -0.0077,-13.8585011 h 3.041267 z m 26.490771,0 -0.041,12.2085891 -2.97855,1.651192 v 12.236749 h 8.13693 V 15.046333 l 0.006,-13.8585011 h -3.03999 z"
       id="path26"
       inkscape:connector-curvature="0"
       style="fill:#999999;stroke:#000000;stroke-width:0.264999" />
  </g>
</svg>
