<?xml version="1.0" encoding="utf-8"?>
<!-- Generator: Adobe Illustrator 25.2.3, SVG Export Plug-In . SVG Version: 6.00 Build 0)  -->
<svg version="1.0"
	 id="svg15246" inkscape:version="0.92.3 (2405546, 2018-03-11)" sodipodi:docname="Rogan1S.svg" xmlns:cc="http://creativecommons.org/ns#" xmlns:dc="http://purl.org/dc/elements/1.1/" xmlns:inkscape="http://www.inkscape.org/namespaces/inkscape" xmlns:rdf="http://www.w3.org/1999/02/22-rdf-syntax-ns#" xmlns:sodipodi="http://sodipodi.sourceforge.net/DTD/sodipodi-0.dtd" xmlns:svg="http://www.w3.org/2000/svg"
	 xmlns="http://www.w3.org/2000/svg" xmlns:xlink="http://www.w3.org/1999/xlink" x="0px" y="0px" width="31.3984px"
	 height="31.39844px" viewBox="0 0 31.3984 31.39844" enable-background="new 0 0 31.3984 31.39844" xml:space="preserve">
<sodipodi:namedview  bordercolor="#666666" borderopacity="1.0" fit-margin-bottom="0" fit-margin-left="0" fit-margin-right="0" fit-margin-top="0" id="base" inkscape:bbox-nodes="true" inkscape:bbox-paths="true" inkscape:current-layer="svg15246" inkscape:cx="18.353384" inkscape:cy="13.429799" inkscape:document-units="mm" inkscape:object-paths="true" inkscape:pageopacity="0.0" inkscape:pageshadow="2" inkscape:snap-bbox="true" inkscape:snap-bbox-edge-midpoints="true" inkscape:snap-bbox-midpoints="true" inkscape:snap-center="true" inkscape:snap-intersection-paths="true" inkscape:snap-midpoints="true" inkscape:snap-object-midpoints="true" inkscape:snap-page="true" inkscape:snap-smooth-nodes="true" inkscape:snap-text-baseline="true" inkscape:window-height="1080" inkscape:window-maximized="0" inkscape:window-width="1274" inkscape:window-x="646" inkscape:window-y="301" inkscape:zoom="11.2" pagecolor="#ffffff" showgrid="false" units="px">
	</sodipodi:namedview>
<g id="g25" transform="translate(-13.676421,50.15326)" opacity="0.32">
	<g id="g7">
		<path id="path5" inkscape:connector-curvature="0" d="M40.70975-39.7876c0.03958,0.08446,0.0652,0.17613,0.10286,0.26161
			c0.12455,0.28171,0.23553,0.57013,0.33913,0.8624c0.0681,0.19293,0.13341,0.38616,0.1922,0.58329
			c0.10121,0.33794,0.18919,0.68121,0.26251,1.0304c0.01562,0.0748,0.04185,0.14534,0.05617,0.2206
			c0.06707,0.35332,0.41013,0.585,0.76623,0.53496l0.39081-0.05492c0.00028,0.00192,0.00034,0.00394,0.00062,0.00595
			l1.00501-0.14125c-0.23843-1.72336-0.76606-3.35307-1.55104-4.82965l-0.91794,0.4881
			c0.00174,0.0033,0.00403,0.00619,0.00577,0.00948l-0.42188,0.22434c-0.25462,0.18198-0.36612,0.51509-0.23048,0.8047
			L40.70975-39.7876z"/>
	</g>
	<g id="g11">
		<path id="path9" inkscape:connector-curvature="0" d="M16.31192-36.29445c0.35617,0.05009,0.69921-0.18158,0.7663-0.53491
			c0.01432-0.07531,0.04061-0.14585,0.05622-0.22065c0.0731-0.34827,0.1609-0.69058,0.26177-1.02766
			c0.05924-0.19885,0.12501-0.39371,0.19373-0.58829c0.10342-0.29153,0.21406-0.57932,0.33834-0.86035
			c0.03766-0.08542,0.06327-0.17692,0.1028-0.26131c0.13563-0.28966,0.02419-0.62271-0.23047-0.80474l-0.42183-0.22429
			c0.00176-0.0033,0.00404-0.00619,0.00579-0.00948l-0.91794-0.48812c-0.78498,1.47659-1.31262,3.10629-1.55106,4.82965
			l1.00501,0.14126c0.00028-0.00201,0.00034-0.00393,0.00062-0.00595L16.31192-36.29445z"/>
	</g>
	<g id="g15">
		<path id="path13" inkscape:connector-curvature="0" d="M23.5939-22.61559c0.1521-0.31187,0.04509-0.69092-0.24985-0.86825
			c-0.92618-0.50924-1.77948-1.12831-2.54384-1.84616c-0.23911-0.21748-0.59613-0.2114-0.84762-0.0159l-0.3518,0.33976
			c-0.00211-0.0022-0.00386-0.00467-0.00596-0.00686l-0.71904,0.69434c1.17687,1.21652,2.56474,2.22085,4.10238,2.97147
			l0.44097-0.90408c-0.0008-0.00039-0.00165-0.00062-0.00245-0.00101L23.5939-22.61559z"/>
	</g>
	<g id="g19">
		<path id="path17" inkscape:connector-curvature="0" d="M37.94062-25.32997c-0.76431,0.71779-1.61761,1.33692-2.54373,1.8461
			c-0.295,0.17726-0.40211,0.55643-0.25002,0.8683l0.17721,0.36333c-0.0008,0.00039-0.00165,0.00062-0.00247,0.00101
			l0.44097,0.90409c1.53764-0.75061,2.92558-1.75494,4.10245-2.97146c-0.20344-0.1964-0.43937-0.42427-0.71903-0.69434
			c-0.00211,0.0022-0.00385,0.00458-0.00595,0.00677l-0.35174-0.3397c-0.25138-0.19555-0.60857-0.20168-0.84769,0.01583
			L37.94062-25.32997z"/>
	</g>
	<g id="g23">
		<path id="path21" inkscape:connector-curvature="0" d="M27.08479-47.43427c0.06242,0.35422,0.38876,0.60888,0.74553,0.5635
			c0.07605-0.00966,0.15126-0.00645,0.22723-0.01471c0.35382-0.0381,0.70651-0.06037,1.05826-0.0686
			c0.20741-0.00511,0.41307-0.00277,0.61936,0.00245c0.30923,0.00827,0.61712,0.02457,0.92279,0.05591
			c0.09288,0.00942,0.18782,0.0055,0.2803,0.01702c0.31739,0.03948,0.59971-0.16942,0.69413-0.46788l0.08296-0.47049
			c0.00366,0.00066,0.00714,0.00192,0.01081,0.00258l0.18056-1.02385c-1.64689-0.29027-3.35988-0.28848-5.07258,0.01731
			l0.17623,0.99947c0.00201-0.00035,0.00394-0.00091,0.00586-0.00124L27.08479-47.43427z"/>
	</g>
</g>
<g id="g37" transform="translate(-13.676421,50.15326)" opacity="0.4">
	<path id="path27" inkscape:connector-curvature="0" opacity="0.4" enable-background="new    " d="M15.92055-36.34333
		c-0.08735,0.62419-0.13155,1.25383-0.13155,1.88415c-0.00001,3.51875,1.36741,6.90329,3.81174,9.43448l-0.87142,0.82899
		c-0.27092,0.2616-0.71199,0.25451-0.96134-0.02772c-2.49283-2.82232-3.87797-6.46739-3.87797-10.2483
		c0-0.49248,0.02346-0.98462,0.07038-1.47466c0.03578-0.37372,0.38632-0.63674,0.75811-0.58448L15.92055-36.34333z"/>
	<path id="path29" inkscape:connector-curvature="0" opacity="0.4" enable-background="new    " d="M41.35739-40.83347
		c-0.29622-0.55633-0.63057-1.09169-1.00106-1.60163c-2.06827-2.84672-5.16393-4.78112-8.62922-5.39215l0.21772-1.18288
		c0.06541-0.37088,0.42642-0.6244,0.79403-0.54263c3.67567,0.81805,6.93879,2.95279,9.16116,6.01162
		c0.28947,0.39843,0.55977,0.81036,0.80985,1.23439c0.19072,0.32338,0.06171,0.74221-0.26978,0.91847L41.35739-40.83347z"/>
	<path id="path31" inkscape:connector-curvature="0" opacity="0.4" enable-background="new    " d="M17.38224-40.83347
		c0.29622-0.55633,0.63057-1.09169,1.00107-1.60163c2.06827-2.84672,5.16392-4.78112,8.62922-5.39215l-0.21772-1.18288
		c-0.06541-0.37088-0.42642-0.6244-0.79402-0.54263c-3.67566,0.81805-6.93879,2.9528-9.16116,6.01163
		c-0.28947,0.39843-0.55977,0.81037-0.80985,1.23439c-0.19072,0.32338-0.06173,0.74221,0.26977,0.91847L17.38224-40.83347z"/>
	<path id="path33" inkscape:connector-curvature="0" opacity="0.4" enable-background="new    " d="M35.32403-22.25222
		c-1.85428,0.90436-3.89054,1.37446-5.95366,1.37446c-2.06221,0-4.09744-0.46983-5.95121-1.37346l-0.53332,1.07481
		c-0.16516,0.33868-0.0221,0.75636,0.32362,0.90636c1.94214,0.84251,4.03906,1.27877,6.16096,1.27877
		c2.12185,0,4.21876-0.43624,6.16097-1.27876c0.34566-0.15,0.48873-0.56768,0.32357-0.90636l-0.53087-1.07584
		c-0.0008,0.00039-0.00165,0.00062-0.00247,0.00101"/>
	<path id="path35" inkscape:connector-curvature="0" opacity="0.4" enable-background="new    " d="M39.14-25.02466
		c2.44429-2.53118,3.81178-5.91571,3.81178-9.43446c0-0.63231-0.04419-1.26395-0.13216-1.89012l1.20271-0.18163
		c0.37179-0.0522,0.72239,0.21083,0.75811,0.58455c0.04692,0.49004,0.07042,0.98212,0.07042,1.47466
		c-0.00001,3.78093-1.38521,7.42599-3.87806,10.24824c-0.24928,0.28228-0.68929,0.29045-0.96014,0.02885L39.14-25.02466z"/>
</g>
<path id="path39" inkscape:connector-curvature="0" fill="#424242" d="M29.14327,13.80391l-0.39083,0.05498
	c-0.35613,0.05007-0.69919-0.18158-0.76629-0.53503c-0.19684-1.03678-0.51755-2.02907-0.9528-2.95813
	c-0.14851-0.31714-0.01034-0.69539,0.29881-0.85966l0.35356-0.18784c-0.96861-1.82167-2.33962-3.39908-4.00876-4.61162
	c-1.15383-0.83831-2.43387-1.47359-3.78354-1.90962l-0.00256-0.01955c-0.6013-0.19533-1.21568-0.34854-1.83849-0.45838
	l-0.0685,0.38865c-0.06247,0.35412-0.38876,0.6089-0.74562,0.56353c-1.04683-0.1332-2.08976-0.13477-3.10792-0.00806
	c-0.34736,0.04335-0.66444-0.20505-0.72518-0.54979l-0.06945-0.39435c-1.05454,0.18606-2.07752,0.50095-3.05339,0.92514
	c-0.0409,0.01767-0.07917,0.04113-0.1199,0.05913C9.75628,3.48466,9.35534,3.67731,8.96837,3.898
	c-0.43263,0.2455-0.85268,0.5147-1.25725,0.80859C6.04204,5.91914,4.67091,7.49643,3.70237,9.318l0.35356,0.18807
	c0.30904,0.16415,0.44726,0.54252,0.29875,0.85954c-0.43519,0.92916-0.75596,1.92146-0.95285,2.95824
	c-0.06705,0.35345-0.41016,0.5851-0.76624,0.53503l-0.39073-0.05498c-0.088,0.62622-0.13225,1.25781-0.13225,1.89017
	c0,3.51875,1.36749,6.9033,3.8118,9.43456l0.29194-0.28216c0.25321-0.24439,0.65796-0.25914,0.91492-0.01855
	c0.75724,0.70858,1.60299,1.32184,2.51841,1.82626c0.31104,0.17142,0.42352,0.56432,0.2678,0.88357l-0.17717,0.36317
	c1.8543,0.90447,3.89058,1.37458,5.95368,1.37458c2.06315,0,4.09944-0.47011,5.95368-1.37446l-0.17723-0.36328
	c-0.1556-0.31925-0.04319-0.71215,0.26785-0.88357c0.91542-0.50443,1.76117-1.11768,2.51835-1.82626
	c0.25701-0.24048,0.66181-0.22583,0.91492,0.01855l0.29205,0.28216c2.44432-2.53115,3.8118-5.9158,3.8118-9.43455
	C29.27541,15.06194,29.23122,14.43025,29.14327,13.80391z"/>
<path fill="#333333" d="M15.69403,0C7.02643,0,0,7.02655,0,15.69422c0,8.60071,6.92084,15.57684,15.49615,15.68396v-0.22632
	c-2.05408-0.02637-4.08154-0.45239-5.96307-1.26868c-0.34576-0.14996-0.48877-0.56769-0.32361-0.90625l0.0863-0.17413
	c-1.53528-0.75024-2.92108-1.75323-4.09637-2.96814l-0.14648,0.12292c-0.27094,0.2616-0.71198,0.25452-0.9613-0.02771
	c-2.49286-2.82239-3.87799-6.46741-3.87799-10.24841c0-0.49237,0.02344-0.9845,0.07037-1.47461
	c0.03577-0.37366,0.38629-0.63672,0.75818-0.58441l0.19977,0.03107c0.23889-1.71417,0.76398-3.33539,1.54388-4.80518
	L2.62311,8.76496C2.29163,8.58875,2.1626,8.16992,2.35333,7.8465c0.25012-0.42407,0.52045-0.83594,0.80988-1.23431
	c2.22235-3.0589,5.48547-5.19373,9.16113-6.01166c0.36768-0.08185,0.72864,0.17169,0.79407,0.5426l0.03931,0.18909
	c1.71277-0.30573,3.42572-0.30756,5.07257-0.01733l0.03815-0.17175c0.06543-0.37091,0.42639-0.62445,0.79401-0.5426
	c3.67572,0.81793,6.93878,2.95276,9.16119,6.01166c0.28943,0.39838,0.55975,0.81024,0.80981,1.23431
	c0.19073,0.32343,0.06171,0.74225-0.26978,0.91846l-0.16162,0.08282c0.78003,1.46967,1.30481,3.09088,1.54388,4.80481
	l0.20001-0.03015c0.37177-0.05231,0.72235,0.21075,0.75812,0.58441c0.04688,0.49011,0.07037,0.98224,0.07037,1.47473
	c0,3.78088-1.38519,7.42603-3.87805,10.24829c-0.24927,0.28223-0.68927,0.29041-0.96008,0.02881l-0.14764-0.12402
	c-1.17523,1.21478-2.5611,2.21771-4.09607,2.96796l0.086,0.17432c0.16516,0.33856,0.02203,0.75629-0.32361,0.90625
	c-1.9422,0.84259-4.03912,1.27881-6.16095,1.27881c-0.06525,0-0.1297-0.00922-0.19489-0.01001v0.22638
	c0.06561,0.00079,0.12909,0.00983,0.19489,0.00983c8.6676,0,15.69409-7.02643,15.69409-15.69397
	C31.38812,7.02655,24.36163,0,15.69403,0z"/>
</svg>
