<?xml version="1.0" encoding="utf-8"?>
<!-- Generator: Adobe Illustrator 25.2.3, SVG Export Plug-In . SVG Version: 6.00 Build 0)  -->
<svg version="1.0"
	 id="svg15246" xmlns:cc="http://creativecommons.org/ns#" xmlns:dc="http://purl.org/dc/elements/1.1/" xmlns:inkscape="http://www.inkscape.org/namespaces/inkscape" xmlns:rdf="http://www.w3.org/1999/02/22-rdf-syntax-ns#" xmlns:sodipodi="http://sodipodi.sourceforge.net/DTD/sodipodi-0.dtd" xmlns:svg="http://www.w3.org/2000/svg"
	 xmlns="http://www.w3.org/2000/svg" xmlns:xlink="http://www.w3.org/1999/xlink" x="0px" y="0px" width="39.6836px"
	 height="39.68359px" viewBox="0 0 39.6836 39.68359" enable-background="new 0 0 39.6836 39.68359" xml:space="preserve">
<sodipodi:namedview  bordercolor="#666666" borderopacity="1.0" fit-margin-bottom="0" fit-margin-left="0" fit-margin-right="0" fit-margin-top="0" id="base" inkscape:current-layer="layer1" inkscape:cx="34.656219" inkscape:cy="23.675099" inkscape:document-units="mm" inkscape:pageopacity="0.0" inkscape:pageshadow="2" inkscape:window-height="1434" inkscape:window-maximized="0" inkscape:window-width="1274" inkscape:window-x="1280" inkscape:window-y="0" inkscape:zoom="5.6" pagecolor="#ffffff" showgrid="false" units="px">
	</sodipodi:namedview>
<g>
	<path opacity="0.35" d="M19.84185,0C8.88351,0,0,8.88352,0,19.84174C0,30.8002,8.88351,39.6836,19.84185,39.6836
		S39.6837,30.8002,39.6837,19.84174C39.6837,8.88352,30.80019,0,19.84185,0z M19.84185,38.39191
		c-10.24497,0-18.55016-8.30508-18.55016-18.55018c0-10.24485,8.30519-18.54993,18.55016-18.54993
		s18.55016,8.30508,18.55016,18.54993C38.39201,30.08683,30.08681,38.39191,19.84185,38.39191z"/>
	<g>
		<path fill="#424242" d="M34.54179,19.83718c0-0.68432-0.04782-1.3679-0.14304-2.04559l-0.42295,0.05943
			c-0.38543,0.05416-0.7567-0.19654-0.8293-0.57892c-0.21305-1.12217-0.5602-2.19609-1.03122-3.20162
			c-0.1607-0.34307-0.01114-0.75249,0.32336-0.93034l0.38266-0.20347c-1.04828-1.97146-2.53206-3.67842-4.33848-4.99082
			s-3.88829-2.19613-6.08726-2.58387l-0.07648,0.4338c-0.06664,0.378-0.4167,0.64202-0.79727,0.59213
			c-0.54985-0.07209-1.10901-0.11387-1.67859-0.11387c-0.56963,0-1.1288,0.04179-1.67866,0.11387
			c-0.38057,0.04989-0.73062-0.21413-0.79727-0.59213l-0.07648-0.43375c-2.1989,0.38768-4.28083,1.2714-6.0872,2.5838
			C9.39719,9.2583,7.91334,10.9652,6.86512,12.93666l0.38259,0.20342c0.3345,0.17785,0.48407,0.58727,0.32337,0.93034
			c-0.471,1.00553-0.81818,2.07948-1.03124,3.20166c-0.0726,0.38238-0.44388,0.63308-0.82931,0.57892l-0.42288-0.05942
			c-0.09521,0.67768-0.14304,1.36127-0.14304,2.04559c0,3.80818,1.4799,7.47111,4.12531,10.21049l0.31603-0.30519
			c0.27399-0.26459,0.71202-0.28044,0.99012-0.02018c0.81949,0.7669,1.7349,1.43053,2.72562,1.97655
			c0.3366,0.18552,0.4583,0.61068,0.28982,0.95612l-0.19178,0.39319c2.00688,0.97876,4.21063,1.48753,6.44347,1.48753
			c2.23283,0,4.43659-0.50877,6.4434-1.48752l-0.19175-0.39318c-0.16847-0.34545-0.04676-0.77061,0.28984-0.95612
			c0.9907-0.54602,1.90605-1.20961,2.72555-1.97654c0.27812-0.26027,0.71616-0.24443,0.99017,0.02016l0.31605,0.30519
			C33.06182,27.30829,34.54179,23.64536,34.54179,19.83718z"/>
		<g opacity="0.32">
			<g>
				<path d="M32.1153,14.07045c0.04284,0.0914,0.07057,0.19061,0.11132,0.28312c0.1348,0.30488,0.25491,0.61701,0.36703,0.93333
					c0.0737,0.20881,0.14439,0.41792,0.20801,0.63128c0.10954,0.36573,0.20475,0.73725,0.2841,1.11515
					c0.0169,0.08095,0.0453,0.1573,0.06079,0.23874c0.07259,0.38239,0.44386,0.63312,0.82927,0.57897l0.42296-0.05944
					c0.00031,0.00209,0.00037,0.0043,0.00068,0.00639l1.08768-0.15287c-0.25804-1.86506-0.82908-3.62882-1.67863-5.22686
					l-0.99345,0.52825c0.0019,0.00356,0.00436,0.0067,0.00627,0.01027l-0.45658,0.2428
					C32.08918,13.39651,31.96852,13.75702,32.1153,14.07045z"/>
			</g>
			<g>
				<path d="M5.71053,17.85095c0.38547,0.05421,0.75673-0.19651,0.82933-0.5789c0.01549-0.08151,0.04395-0.15785,0.06085-0.2388
					c0.07911-0.37692,0.17414-0.74739,0.28331-1.1122c0.06411-0.2152,0.13529-0.4261,0.20967-0.63668
					c0.11193-0.31551,0.23167-0.62697,0.36617-0.93112c0.04075-0.09245,0.06848-0.19147,0.11126-0.28281
					c0.14679-0.31349,0.02619-0.67393-0.24944-0.87094l-0.45652-0.24274c0.00191-0.00356,0.00436-0.0067,0.00627-0.01027
					l-0.99345-0.52826c-0.84955,1.59804-1.42059,3.3618-1.67864,5.22692l1.08768,0.15287
					c0.00031-0.00215,0.00037-0.0043,0.00068-0.00645L5.71053,17.85095z"/>
			</g>
			<g>
				<path d="M13.59154,32.65493c0.16461-0.33752,0.04881-0.74776-0.2704-0.93966c-1.00236-0.55112-1.92586-1.22112-2.7531-1.99801
					c-0.25878-0.23536-0.64517-0.22878-0.91735-0.01721l-0.38073,0.3677c-0.00227-0.00233-0.00418-0.00504-0.00645-0.00738
					l-0.77819,0.75144c1.27368,1.31658,2.77572,2.40352,4.43985,3.21588l0.47724-0.97845
					c-0.00086-0.00043-0.00178-0.00068-0.00264-0.00111L13.59154,32.65493z"/>
			</g>
			<g>
				<path d="M29.11841,29.71727c-0.82718,0.77683-1.75068,1.44689-2.75298,1.99795c-0.31927,0.19184-0.4352,0.6022-0.27058,0.93972
					l0.19178,0.39321c-0.00086,0.00043-0.00178,0.00068-0.00264,0.00111l0.47724,0.97845
					c1.66413-0.81236,3.16623-1.89929,4.43991-3.21587c-0.22018-0.21256-0.47552-0.45917-0.77819-0.75145
					c-0.00227,0.0024-0.00418,0.00498-0.00645,0.00738l-0.38067-0.36764C29.76377,29.48849,29.37719,29.48185,29.11841,29.71727z"/>
			</g>
			<g>
				<path d="M18.15101,6.38387c0.10017-0.0125,0.20309-0.00821,0.30367-0.01838c0.33162-0.03399,0.66559-0.05176,1.00107-0.06065
					c0.22136-0.00557,0.44209-0.00818,0.66466-0.00275c0.38169,0.00884,0.76444,0.03309,1.14837,0.0744
					c0.08221,0.00894,0.1636,0.00552,0.24584,0.01596c0.38611,0.04913,0.7393-0.22649,0.80689-0.60977l0.07417-0.42063
					c0.00208,0.00035,0.00421,0.00098,0.00629,0.00133l0.19072-1.08168c-1.85353-0.33092-3.70743-0.33287-5.48979-0.01872
					l0.19541,1.10806c0.00398-0.00071,0.00772-0.00208,0.0117-0.00279l0.08982,0.50926
					C17.50199,6.20045,17.80757,6.42661,18.15101,6.38387z"/>
			</g>
		</g>
		<path opacity="0.4" d="M34.39948,17.79801"/>
		<g>
			<path opacity="0.4" d="M5.28697,17.79805c-0.09454,0.67553-0.14236,1.35696-0.14236,2.03913
				c0,3.80818,1.4799,7.47111,4.12531,10.21049l-0.94311,0.89718c-0.2932,0.28312-0.77057,0.27544-1.04041-0.03
				C4.5885,27.8604,3.08941,23.91551,3.08942,19.8236c0-0.53299,0.02539-1.06561,0.07616-1.59595
				c0.03873-0.40446,0.41811-0.68912,0.82048-0.63256L5.28697,17.79805z"/>
			<path opacity="0.4" d="M26.28658,33.04818c-2.00681,0.97875-4.21057,1.48752-6.4434,1.48752
				c-2.23185,0-4.4345-0.50846-6.44076-1.48642l-0.57719,1.16322c-0.17875,0.36653-0.02391,0.81857,0.35024,0.9809
				c2.1019,0.91182,4.37131,1.38395,6.66776,1.38395c2.29639,0,4.5658-0.47213,6.66776-1.38395
				c0.37409-0.16233,0.52893-0.61437,0.35018-0.9809l-0.57454-1.16433c-0.00086,0.00043-0.00178,0.00068-0.00264,0.00111"/>
			<path opacity="0.4" d="M30.41645,30.04769c2.64535-2.73937,4.12532-6.4023,4.12532-10.21048
				c0-0.68432-0.04782-1.3679-0.14304-2.04559l1.30165-0.19657c0.40237-0.05649,0.78181,0.22817,0.82048,0.63263
				c0.05077,0.53035,0.07622,1.0629,0.07622,1.59595c0,4.09192-1.49915,8.0368-4.19706,11.09119
				c-0.26978,0.3055-0.74598,0.31435-1.03912,0.03123L30.41645,30.04769z"/>
			<path opacity="0.4" d="M9.94933,8.97083c0.36574-0.33316,0.75157-0.64492,1.15075-0.94046
				c0.0359-0.02655,0.06743-0.05803,0.10357-0.08433c0.43888-0.3189,0.89535-0.61025,1.36447-0.87752
				c0.4068-0.23063,0.82742-0.43396,1.25383-0.62402c0.05815-0.02631,0.11304-0.05926,0.1715-0.08458
				c0.97575-0.42044,1.9971-0.73466,3.04606-0.93849c0.0847-0.01647,0.16633-0.04426,0.25141-0.05926l-0.24089-1.29722
				c-0.00037-0.00221-0.00191-0.00369-0.00227-0.0059v-0.0418c-0.08931-0.3779-0.45861-0.63287-0.84187-0.5478
				c-2.23738,0.49764-4.35176,1.44966-6.21032,2.79998C9.99304,6.27141,9.99082,6.27362,9.9883,6.27534
				C9.98652,6.27682,9.98455,6.2778,9.98277,6.27903c-1.85843,1.35033-3.41751,3.06675-4.58221,5.0411
				c-0.1994,0.33807-0.07081,0.7681,0.26087,0.96996l0.04008,0.01303c0.00172,0.00098,0.0027,0.0027,0.00443,0.00344
				l1.15917,0.63017c0.03922-0.07376,0.08913-0.14064,0.12957-0.21366l0.00012,0.00025
				c0.51953-0.938,1.1363-1.81551,1.83999-2.61632c0.02588-0.02901,0.05575-0.05483,0.08188-0.08384
				C9.24405,9.65657,9.58612,9.30301,9.94933,8.97083z"/>
			<path opacity="0.4" d="M34.27298,11.31054c-0.75212-1.27484-1.68392-2.42749-2.73945-3.45818
				c-0.04395-0.04303-0.08624-0.08753-0.13062-0.12982c-0.31361-0.29972-0.64031-0.58419-0.9771-0.85907
				c-0.07026-0.05753-0.14033-0.11482-0.21157-0.17113c-0.17617-0.13916-0.34139-0.29062-0.52334-0.4229
				c-0.16191-0.11753-0.33599-0.21489-0.5017-0.32652c-0.07776-0.05237-0.15693-0.10228-0.23561-0.15342
				c-0.36082-0.23407-0.72649-0.45781-1.10329-0.66312c-0.0603-0.0327-0.12263-0.06196-0.18336-0.09417
				c-1.32107-0.69877-2.72279-1.23723-4.18629-1.56276c-0.19516-0.04327-0.38559,0.00295-0.5384,0.1072
				c-0.16732,0.10622-0.29419,0.27661-0.33125,0.48683l-0.21526,1.29869c0.08157,0.01426,0.16166,0.0359,0.24298,0.05163v0.00541
				c1.5608,0.30291,3.05933,0.85268,4.43874,1.62914c0.11236,0.06344,0.21815,0.1372,0.32867,0.20358
				c0.31644,0.18932,0.62882,0.38602,0.93087,0.59993c0.153,0.10843,0.29874,0.2262,0.44743,0.34053
				c0.2648,0.20334,0.52457,0.41233,0.77419,0.63263c0.15023,0.13253,0.29658,0.26898,0.44134,0.40765
				c0.23524,0.22522,0.4615,0.45904,0.68101,0.69926c0.1321,0.14457,0.26511,0.28816,0.39155,0.4379
				c0.22614,0.26825,0.43778,0.54805,0.64431,0.83203c0.09829,0.13498,0.20272,0.26505,0.29659,0.40372
				c0.29037,0.42954,0.56342,0.87137,0.80788,1.33115h0.00006h0.00006l1.14626-0.62058
				c0.00344-0.00172,0.00529-0.00516,0.00867-0.00713l0.00424-0.00246C34.33985,12.11577,34.47976,11.66091,34.27298,11.31054z"/>
		</g>
		<g>
			<path fill="#333333" d="M28.62129,36.06413c0.0761-0.04081,0.14906-0.08606,0.22442-0.1281
				c0.39801-0.22473,0.79017-0.45781,1.17103-0.71131c0.22645-0.149,0.44343-0.30955,0.66287-0.46789
				c0.22067-0.16129,0.44245-0.31939,0.65605-0.49052c0.35695-0.28251,0.69791-0.58173,1.03285-0.88907
				c0.06491-0.06049,0.13228-0.11728,0.19639-0.1785c3.56927-3.37016,5.81077-8.12875,5.82712-13.42113
				c-0.03012-9.48523-7.17949-17.28402-16.38428-18.35529c-0.10413-0.01328-0.2085-0.03196-0.31257-0.04327
				c-0.60927-0.06048-1.2266-0.09343-1.85179-0.09343c-8.9135,0-16.35245,6.28865-18.13798,14.66967
				c-0.03879,0.18735-0.06854,0.3779-0.10161,0.56747c-0.19461,1.07692-0.31214,2.18113-0.31214,3.31435
				c0,7.67266,4.65843,14.25562,11.30044,17.07921c0.11931,0.04966,0.24458,0.08999,0.36543,0.13744
				c0.37563,0.15023,0.75557,0.2921,1.14288,0.41823C19.12531,39.07335,24.32589,38.41097,28.62129,36.06413z M18.26144,36.49612
				c-0.06811-0.00639-0.13627-0.01057-0.20432-0.0177c-1.68079-0.18023-3.32727-0.61074-4.88162-1.28493
				c-0.37416-0.16252-0.529-0.61443-0.35025-0.98103l0.09995-0.20481c-1.66413-0.81236-3.16617-1.89936-4.43985-3.216l-0.03092,0.03
				c-0.00049-0.00049-0.00111-0.00098-0.0016-0.00148l-0.13498,0.13031c-0.29388,0.27538-0.76405,0.26702-1.03144-0.03565
				c-0.98337-1.11331-1.80286-2.34733-2.45313-3.66127c-0.02772-0.05606-0.05741-0.11089-0.08452-0.16719
				c-0.18797-0.39069-0.35744-0.78974-0.51449-1.19346c-0.03289-0.08483-0.06577-0.1694-0.09737-0.25472
				c-0.14679-0.39634-0.27913-0.7981-0.39567-1.20526c-0.02606-0.09097-0.0493-0.18268-0.07376-0.27415
				c-0.11077-0.41331-0.21016-0.82981-0.28915-1.25148c-0.01291-0.06885-0.02151-0.13843-0.03356-0.20727
				c-0.16473-0.94439-0.25528-1.90575-0.25528-2.87645c0-0.53305,0.02539-1.06561,0.07616-1.59595
				c0.01838-0.19202,0.1171-0.35332,0.25503-0.46765c0.14119-0.10917,0.32295-0.16842,0.51295-0.15269l-0.02305-0.00762
				c0.02569,0.00098,0.04954-0.00836,0.07554-0.00467L4.19942,17.625c0.25804-1.86493,0.82908-3.62882,1.67864-5.22698
				l-0.17205-0.09146c-0.35928-0.1908-0.49918-0.64566-0.29247-0.99603c1.1631-1.9714,2.71991-3.68586,4.57508-5.0352
				c1.85708-1.34836,3.96937-2.29939,6.20442-2.7963c0.39721-0.08827,0.78642,0.18514,0.85699,0.58591l0.03381,0.19178
				c1.78239-0.31422,3.63627-0.31226,5.48985,0.01869l0.03731-0.21194c0.00455-0.02582,0.02065-0.04573,0.02778-0.07032v0.0241
				c0.04383-0.18539,0.15631-0.34004,0.30371-0.4406c0.1514-0.09589,0.33543-0.1399,0.52371-0.0981
				c0.52008,0.11581,1.03445,0.25595,1.54144,0.42069c0.92381,0.30021,1.81055,0.68352,2.65819,1.13248
				c0.06122,0.03245,0.12398,0.06171,0.18484,0.09491c0.37692,0.20555,0.74284,0.42905,1.10188,0.66238
				c0.07923,0.05139,0.15908,0.10179,0.23745,0.15441c0.35098,0.23677,0.69232,0.48683,1.02406,0.74892
				c0.07137,0.0563,0.14156,0.11359,0.21194,0.17113c0.33586,0.27439,0.66318,0.55911,0.97692,0.85907
				c0.04444,0.04229,0.08673,0.08679,0.13068,0.12982c1.04932,1.02479,1.97018,2.18604,2.7255,3.4658
				c0.20518,0.34766,0.06946,0.79638-0.28269,0.99086l-0.16781,0.08925c0.00037,0.00074,0.00061,0.00123,0.00098,0.00197
				c-0.01303,0.00688-0.02557,0.01352-0.03799,0.02016c0.85853,1.61833,1.42815,3.3827,1.6865,5.21641l0.22571-0.03172
				c0.40385-0.0568,0.78587,0.23013,0.82466,0.63607c0.16092,1.68643,0.06147,3.38491-0.28626,5.03864
				c-0.01439,0.06811-0.03172,0.13548-0.04696,0.20334c-0.10406,0.46593-0.2286,0.92767-0.37262,1.3845
				c-0.03153,0.09982-0.06436,0.19867-0.09767,0.29775c-0.14322,0.42634-0.3047,0.84506-0.48105,1.25714
				c-0.04543,0.10572-0.08925,0.21243-0.13683,0.31717c-0.18545,0.40962-0.39002,0.80965-0.60743,1.20231
				c-0.05071,0.09146-0.09712,0.18514-0.14955,0.27587c-0.24833,0.42929-0.51726,0.84653-0.80284,1.25247
				c-0.03086,0.04376-0.05753,0.08999-0.08888,0.13351c-0.32769,0.45634-0.67763,0.89768-1.0508,1.32008
				c-0.06411,0.07253-0.14119,0.12564-0.2235,0.16473c-0.26136,0.11753-0.58358,0.06934-0.80314-0.1426
				c-0.04672-0.04524-0.10763-0.104-0.15976-0.15441c-0.00363,0.00393-0.0078,0.00713-0.01143,0.01082l-0.00725-0.00688
				c-0.63945,0.66164-1.3314,1.26378-2.0673,1.8015c-0.73922,0.53428-1.52632,1.0066-2.35386,1.41056l0.00449,0.00934
				c-0.00473,0.00221-0.0091,0.00492-0.01383,0.00738l0.09663,0.19817c0.13394,0.27439,0.0804,0.59697-0.11218,0.80941
				c-0.06251,0.06614-0.13671,0.12294-0.2254,0.16154c-0.51799,0.22448-1.0465,0.42142-1.58268,0.5923
				c-0.04604,0.01476-0.09325,0.02459-0.13941,0.03885c-0.47933,0.14826-0.9645,0.27636-1.45489,0.38061
				c-0.0989,0.02114-0.19885,0.0359-0.29812,0.05532c-0.44405,0.0863-0.89104,0.1576-1.34136,0.20776
				c-0.1123,0.01254-0.22491,0.02114-0.3374,0.03147c-0.44847,0.04057-0.89891,0.06491-1.35076,0.06934
				c-0.10278,0.00098-0.20543,0.00148-0.3082,0.00074C19.21746,36.56571,18.73819,36.54137,18.26144,36.49612z"/>
		</g>
	</g>
</g>
</svg>
