<?xml version="1.0" encoding="UTF-8" standalone="no"?>
<!-- Generator: Adobe Illustrator 25.0.0, SVG Export Plug-In . SVG Version: 6.00 Build 0)  -->

<svg
   xmlns:dc="http://purl.org/dc/elements/1.1/"
   xmlns:cc="http://creativecommons.org/ns#"
   xmlns:rdf="http://www.w3.org/1999/02/22-rdf-syntax-ns#"
   xmlns:svg="http://www.w3.org/2000/svg"
   xmlns="http://www.w3.org/2000/svg"
   xmlns:sodipodi="http://sodipodi.sourceforge.net/DTD/sodipodi-0.dtd"
   xmlns:inkscape="http://www.inkscape.org/namespaces/inkscape"
   version="1.0"
   id="svg15246"
   x="0px"
   y="0px"
   width="31.3984px"
   height="31.39844px"
   viewBox="0 0 31.3984 31.39844"
   enable-background="new 0 0 31.3984 31.39844"
   xml:space="preserve"
   sodipodi:docname="Rogan1S.svg"
   inkscape:version="0.92.3 (2405546, 2018-03-11)"><metadata
   id="metadata13"><rdf:RDF><cc:Work
       rdf:about=""><dc:format>image/svg+xml</dc:format><dc:type
         rdf:resource="http://purl.org/dc/dcmitype/StillImage" /><dc:title></dc:title></cc:Work></rdf:RDF></metadata><defs
   id="defs11" />
<sodipodi:namedview
   bordercolor="#666666"
   borderopacity="1.0"
   fit-margin-bottom="0"
   fit-margin-left="0"
   fit-margin-right="0"
   fit-margin-top="0"
   id="base"
   inkscape:current-layer="svg15246"
   inkscape:cx="18.353384"
   inkscape:cy="13.429799"
   inkscape:document-units="mm"
   inkscape:pageopacity="0.0"
   inkscape:pageshadow="2"
   inkscape:window-height="1080"
   inkscape:window-maximized="0"
   inkscape:window-width="1274"
   inkscape:window-x="646"
   inkscape:window-y="301"
   inkscape:zoom="11.2"
   pagecolor="#ffffff"
   showgrid="false"
   units="px"
   inkscape:snap-bbox="true"
   inkscape:bbox-paths="true"
   inkscape:bbox-nodes="true"
   inkscape:snap-bbox-edge-midpoints="true"
   inkscape:snap-bbox-midpoints="true"
   inkscape:object-paths="true"
   inkscape:snap-intersection-paths="true"
   inkscape:snap-smooth-nodes="true"
   inkscape:snap-midpoints="true"
   inkscape:snap-object-midpoints="true"
   inkscape:snap-center="true"
   inkscape:snap-text-baseline="true"
   inkscape:snap-page="true">
	</sodipodi:namedview>
<linearGradient
   id="SVGID_1_"
   gradientUnits="userSpaceOnUse"
   x1="714.70374"
   y1="-3999.3999"
   x2="746.10217"
   y2="-3999.3999"
   gradientTransform="matrix(0 1 -1 0 -3983.70068 -714.69348)">
	<stop
   offset="0"
   style="stop-color:#F2EEF0"
   id="stop3" />
	<stop
   offset="1"
   style="stop-color:#000000"
   id="stop5" />
</linearGradient>

<g
   id="g881"
   transform="matrix(0.91541868,0,0,0.91541868,14.059385,-44.59788)"><path
     id="path3"
     d="m 1.7856788,48.71856 c -9.4684398,0 -17.1440998,7.675781 -17.1440998,17.14429 0,9.468381 7.67566,17.144041 17.1440998,17.144041 9.4684412,0 17.1441712,-7.67566 17.1441712,-17.144041 0,-9.468509 -7.67572,-17.14429 -17.1441712,-17.14429 z m 11.6255512,28.357171 -0.16125,-0.1355 c -1.28381,1.32703 -2.79773,2.42261 -4.4745513,3.24219 l 0.09393,0.19043 c 0.18042,0.36987 0.02411,0.82617 -0.35345,0.98999 -2.1217,0.92041 -4.4123499,1.39697 -6.7302199,1.39697 -2.31798996,0 -4.60864,-0.47656 -6.73022,-1.39697 -0.37769,-0.16382 -0.5339398,-0.62012 -0.35352,-0.98999 l 0.0943,-0.19019 c -1.6771198,-0.81958 -3.1909799,-1.91528 -4.4748499,-3.24243 l -0.16003,0.13428 c -0.2959599,0.28577 -0.7777699,0.27808 -1.0501099,-0.03027 -2.72321,-3.083131 -4.23633,-7.064941 -4.23633,-11.195311 0,-0.53784 0.02563,-1.07544 0.0769,-1.61084 0.03906,-0.4082 0.422,-0.69556 0.82819,-0.63843 l 0.21826,0.03394 c 0.26093,-1.87256 0.83459,-3.64355 1.68652,-5.249149 l -0.17774,-0.09106 c -0.36212,-0.19251 -0.50305,-0.65003 -0.29468,-1.0033 0.2732,-0.46326 0.56848,-0.91321 0.88471,-1.34839 2.4276699,-3.34155 5.99231,-5.673581 10.0075598,-6.567141 0.40161,-0.08936 0.79596,0.18762 0.86743,0.59277 l 0.04297,0.20654 c 1.87097,-0.33398 3.74219,-0.33594 5.5412599,-0.01892 l 0.04163,-0.18762 c 0.07147,-0.40515 0.46582,-0.68213 0.86737,-0.59277 4.01532,0.89355 7.5799013,3.225591 10.0076313,6.567141 0.31622,0.43518 0.61151,0.88513 0.8847,1.34839 0.20831,0.35327 0.06738,0.81079 -0.29474,1.0033 l -0.17657,0.09045 c 0.85211,1.605469 1.42542,3.376459 1.68658,5.248779 l 0.21844,-0.03296 c 0.40613,-0.05713 0.78912,0.23022 0.82819,0.63843 0.05121,0.5354 0.0769,1.073 0.0769,1.61096 0,4.13025 -1.51318,8.11218 -4.23639,11.195191 -0.27227,0.30835 -0.75292,0.31726 -1.04882,0.03149 z"
     style="fill:#333333"
     inkscape:connector-curvature="0" /><g
     style="opacity:0.32000002"
     id="g25"
     transform="translate(-13.676421,50.15326)"><g
       id="g7"><path
         inkscape:connector-curvature="0"
         id="path5"
         d="m 27.84911,9.88871 c 0.04324,0.09226 0.07123,0.1924 0.11236,0.28578 0.13606,0.30774 0.2573,0.6228 0.37046,0.94208 0.07439,0.21076 0.14574,0.42184 0.20996,0.63719 0.11056,0.36916 0.20667,0.74415 0.28677,1.1256 0.01706,0.08171 0.04572,0.15877 0.06136,0.24098 0.07327,0.38597 0.44802,0.63905 0.83703,0.58439 l 0.42692,-0.06 c 3.1e-4,0.0021 3.7e-4,0.0043 6.8e-4,0.0065 l 1.09787,-0.1543 C 30.99206,11.61434 30.41568,9.83405 29.55817,8.22103 l -1.00275,0.5332 c 0.0019,0.0036 0.0044,0.00676 0.0063,0.01036 l -0.46086,0.24507 c -0.27815,0.1988 -0.39994,0.56269 -0.25178,0.87905 z" /></g><g
       id="g11"><path
         inkscape:connector-curvature="0"
         id="path9"
         d="M 1.19701,13.70461 C 1.58609,13.75933 1.96083,13.50626 2.03411,13.12028 2.04975,13.03801 2.07847,12.96095 2.09553,12.87924 2.17538,12.49879 2.2713,12.12485 2.38149,11.75662 2.4462,11.5394 2.51805,11.32653 2.59312,11.11397 2.7061,10.7955 2.82696,10.48112 2.96272,10.17413 3.00386,10.08082 3.03184,9.98086 3.07502,9.88867 3.22318,9.57225 3.10145,9.20842 2.82325,9.00957 L 2.36245,8.76456 C 2.36437,8.76096 2.36686,8.7578 2.36878,8.7542 L 1.36603,8.22098 c -0.85751,1.61302 -1.4339,3.3933 -1.69437,5.2759 l 1.09787,0.15431 c 3.1e-4,-0.0022 3.7e-4,-0.0043 6.8e-4,-0.0065 z" /></g><g
       id="g15"><path
         inkscape:connector-curvature="0"
         id="path13"
         d="M 9.15182,28.64735 C 9.31797,28.30667 9.20108,27.89259 8.87889,27.69888 7.86714,27.14259 6.93499,26.46631 6.10001,25.68214 5.83881,25.44457 5.4488,25.45121 5.17407,25.66477 l -0.3843,0.37115 c -0.0023,-0.0024 -0.00422,-0.0051 -0.00651,-0.0075 l -0.78548,0.75849 c 1.28561,1.32892 2.80171,2.42605 4.48143,3.24602 l 0.48171,-0.98761 c -8.7e-4,-4.3e-4 -0.0018,-6.8e-4 -0.00267,-0.0011 z" /></g><g
       id="g19"><path
         inkscape:connector-curvature="0"
         id="path17"
         d="m 24.82412,25.68217 c -0.83493,0.78411 -1.76707,1.46045 -2.77876,2.01667 -0.32226,0.19364 -0.43927,0.60784 -0.27312,0.94853 l 0.19358,0.3969 c -8.7e-4,4.3e-4 -0.0018,6.8e-4 -0.0027,0.0011 l 0.48171,0.98762 c 1.67972,-0.81997 3.19589,-1.91709 4.4815,-3.24601 -0.22224,-0.21455 -0.47997,-0.46347 -0.78547,-0.75849 -0.0023,0.0024 -0.0042,0.005 -0.0065,0.0074 L 25.75012,25.6648 c -0.27461,-0.21362 -0.6648,-0.22032 -0.92601,0.0173 z" /></g><g
       id="g23"><path
         inkscape:connector-curvature="0"
         id="path21"
         d="m 12.96526,1.53552 c 0.06819,0.38695 0.42468,0.66514 0.81441,0.61556 0.08308,-0.01055 0.16524,-0.00704 0.24822,-0.01607 0.38651,-0.04162 0.77179,-0.06595 1.15604,-0.07494 0.22658,-0.00558 0.45124,-0.00303 0.67659,0.00268 0.3378,0.00904 0.67414,0.02684 1.00805,0.06108 0.10146,0.01029 0.20517,0.00601 0.3062,0.01859 0.34672,0.04313 0.65512,-0.18507 0.75827,-0.51111 l 0.09063,-0.51396 c 0.004,7.2e-4 0.0078,0.0021 0.01181,0.00282 L 18.23272,0.00172 C 16.43366,-0.31537 14.5624,-0.31341 12.69145,0.02063 l 0.19251,1.09182 c 0.0022,-3.8e-4 0.0043,-9.9e-4 0.0064,-0.00136 z" /></g></g><g
     style="opacity:0.4"
     id="g37"
     transform="translate(-13.676421,50.15326)"><path
       style="opacity:0.4"
       inkscape:connector-curvature="0"
       id="path27"
       d="m 0.76948,13.65122 c -0.09542,0.68186 -0.1437,1.36968 -0.1437,2.05824 -10e-6,3.84387 1.49375,7.54113 4.16393,10.30619 L 3.83777,26.92124 C 3.54182,27.20701 3.05999,27.19926 2.78761,26.89096 0.06445,23.80787 -1.44867,19.82601 -1.44867,15.69575 c 0,-0.53798 0.02563,-1.07559 0.07688,-1.61091 0.03909,-0.40825 0.42202,-0.69557 0.82816,-0.63849 z" /><path
       style="opacity:0.4"
       inkscape:connector-curvature="0"
       id="path29"
       d="M 28.55659,8.74621 C 28.233,8.13848 27.86776,7.55365 27.46303,6.99659 25.20366,3.88684 21.82198,1.77371 18.0365,1.10623 l 0.23784,-1.29218 c 0.07145,-0.40515 0.46582,-0.68209 0.86739,-0.59277 4.01529,0.89363 7.57991,3.22562 10.00762,6.56707 0.31622,0.43524 0.61149,0.88523 0.88468,1.34844 0.20834,0.35326 0.06742,0.81079 -0.2947,1.00333 z" /><path
       style="opacity:0.4"
       inkscape:connector-curvature="0"
       id="path31"
       d="M 2.36622,8.74621 C 2.68981,8.13848 3.05505,7.55365 3.45978,6.99659 5.71915,3.88684 9.10083,1.77371 12.88631,1.10623 L 12.64847,-0.18595 C 12.57702,-0.5911 12.18265,-0.86804 11.78108,-0.77872 7.7658,0.11492 4.20117,2.44691 1.77346,5.78836 1.45724,6.2236 1.16197,6.6736 0.88878,7.1368 0.68044,7.49006 0.82135,7.94759 1.18348,8.14013 Z" /><path
       style="opacity:0.4"
       inkscape:connector-curvature="0"
       id="path33"
       d="m 21.96577,29.04429 c -2.02561,0.98792 -4.25001,1.50145 -6.50376,1.50145 -2.25275,0 -4.47603,-0.51324 -6.50108,-1.50036 l -0.5826,1.17412 c -0.18042,0.36997 -0.02414,0.82624 0.35352,0.9901 2.12159,0.92036 4.41225,1.39693 6.73021,1.39693 2.3179,0 4.60856,-0.47655 6.73022,-1.39691 0.3776,-0.16386 0.53389,-0.62013 0.35347,-0.9901 l -0.57992,-1.17524 c -8.7e-4,4.3e-4 -0.0018,6.8e-4 -0.0027,0.0011" /><path
       style="opacity:0.4"
       inkscape:connector-curvature="0"
       id="path35"
       d="m 26.13432,26.01569 c 2.67013,-2.76505 4.16397,-6.4623 4.16397,-10.30617 0,-0.69073 -0.04827,-1.38073 -0.14437,-2.06476 l 1.31384,-0.19841 c 0.40614,-0.05702 0.78914,0.23031 0.82816,0.63856 0.05125,0.53532 0.07693,1.07286 0.07693,1.61091 -1e-5,4.13027 -1.5132,8.11212 -4.23638,11.19514 -0.27231,0.30836 -0.75297,0.31729 -1.04885,0.03152 z" /></g><path
     id="path39"
     d="m 16.47758,63.7979 -0.42694,0.06006 C 15.6616,63.91265 15.28685,63.6596 15.21354,63.27349 14.99851,62.14092 14.64817,61.05694 14.17271,60.04204 14.01048,59.6956 14.16142,59.2824 14.49913,59.10295 l 0.38623,-0.2052 c -1.05811,-1.989989 -2.55579,-3.713139 -4.37915,-5.037719 -1.2604413,-0.91577 -2.6587513,-1.60974 -4.1331213,-2.08606 l -0.0028,-0.02136 c -0.65686,-0.21338 -1.328,-0.38074 -2.00836,-0.50073 l -0.07483,0.42456 c -0.06824,0.38684 -0.4246799,0.66516 -0.8145099,0.6156 -1.14355,-0.14551 -2.28284,-0.14722 -3.39507996,-0.0088 -0.37946,0.04736 -0.72583,-0.224 -0.79218,-0.60059 l -0.07587,-0.43079 c -1.15198004,0.20325 -2.26947004,0.54724 -3.33551004,1.01062 -0.04468,0.0193 -0.08649,0.04493 -0.13098,0.06459 -0.44366,0.19812 -0.88165,0.40857 -1.3043798,0.64965 -0.4726,0.26819 -0.93146,0.56226 -1.37341,0.8833 -1.8233001,1.32458 -3.32111,3.04761 -4.37915,5.037479 l 0.38623,0.20545 c 0.33759,0.17932 0.48859,0.59265 0.32635,0.93896 -0.4754,1.01501 -0.82581,2.099 -1.04089,3.23157 -0.07324,0.38611 -0.44806,0.63916 -0.83704,0.58447 l -0.42683,-0.06006 c -0.09613,0.68408 -0.14447,1.37402 -0.14447,2.06482 0,3.84387 1.49384,7.54114 4.1639999,10.306271 l 0.31891,-0.30823 c 0.27661,-0.26697 0.71875,-0.28308 0.9994501,-0.02026 0.82721,0.77405 1.7511,1.44397 2.7510998,1.995 0.33978,0.18726 0.46265,0.61646 0.29254,0.96521 l -0.19354,0.39673 c 2.02563,0.98804 4.25006004,1.50159 6.50378,1.50159 2.25378,0 4.4782099,-0.51355 6.5037799,-1.50146 l -0.1936,-0.39685 c -0.16998,-0.34875 -0.04718,-0.77795 0.2926,-0.96521 1,-0.55103 1.9238913,-1.22095 2.7510413,-1.995 0.28076,-0.2627 0.72296,-0.2467 0.99945,0.02026 l 0.31903,0.30823 c 2.67017,-2.765011 4.164,-6.462401 4.164,-10.306271 10e-6,-0.69056 -0.04827,-1.38062 -0.14434,-2.06483 z"
     style="fill:#424242"
     inkscape:connector-curvature="0" /></g></svg>