<?xml version="1.0" encoding="UTF-8" standalone="no"?>
<svg
   xmlns:dc="http://purl.org/dc/elements/1.1/"
   xmlns:cc="http://creativecommons.org/ns#"
   xmlns:rdf="http://www.w3.org/1999/02/22-rdf-syntax-ns#"
   xmlns:svg="http://www.w3.org/2000/svg"
   xmlns="http://www.w3.org/2000/svg"
   xmlns:sodipodi="http://sodipodi.sourceforge.net/DTD/sodipodi-0.dtd"
   xmlns:inkscape="http://www.inkscape.org/namespaces/inkscape"
   width="8.1280003mm"
   height="8.1280003mm"
   viewBox="0 0 8.1280004 8.1280004"
   version="1.1"
   id="svg8"
   sodipodi:docname="RoundSmallBlackKnob.svg"
   inkscape:version="0.92.2 (5c3e80d, 2017-08-06)">
  <metadata
     id="metadata14">
    <rdf:RDF>
      <cc:Work
         rdf:about="">
        <dc:format>image/svg+xml</dc:format>
        <dc:type
           rdf:resource="http://purl.org/dc/dcmitype/StillImage" />
        <dc:title></dc:title>
      </cc:Work>
    </rdf:RDF>
  </metadata>
  <defs
     id="defs12" />
  <sodipodi:namedview
     pagecolor="#ffffff"
     bordercolor="#666666"
     borderopacity="1"
     objecttolerance="10"
     gridtolerance="10"
     guidetolerance="10"
     inkscape:pageopacity="0"
     inkscape:pageshadow="2"
     inkscape:window-width="1920"
     inkscape:window-height="1017"
     id="namedview10"
     showgrid="false"
     inkscape:document-units="mm"
     units="mm"
     inkscape:zoom="19.666667"
     inkscape:cx="14.123092"
     inkscape:cy="13.367244"
     inkscape:window-x="-8"
     inkscape:window-y="-8"
     inkscape:window-maximized="1"
     inkscape:current-layer="svg8" />
  <path
     d="M 8.0426302,3.6417877 C 7.8664982,3.3576622 7.5708021,3.0786792 7.4062408,2.6801321 7.2416795,2.2841562 7.2519646,1.8778953 7.1773978,1.5552007 A 4.0150384,4.0150409 0 0 0 6.5744349,0.95223746 C 6.2504549,0.87638494 5.8467655,0.88795567 5.4495042,0.72339427 5.0496717,0.55754724 4.7706889,0.26313662 4.4878492,0.0870045 a 4.0163241,4.0163266 0 0 0 -0.8459479,0 C 3.3577759,0.26313662 3.0775075,0.55754724 2.6789606,0.72339427 2.282985,0.88667003 1.8780099,0.87767058 1.5540299,0.95223746 A 4.0124671,4.0124696 0 0 0 0.95106699,1.553915 C 0.87650015,1.8778953 0.88678523,2.2841562 0.7209383,2.6801321 0.55766264,3.0786792 0.26196657,3.3576622 0.08583456,3.6417877 a 4.0163241,4.0163266 0 0 0 0,0.8459484 C 0.26196657,4.7718617 0.55637701,5.0508447 0.7209383,5.4493918 0.8854996,5.8453677 0.87521451,6.2516286 0.95235262,6.5743232 1.1310559,6.7967382 1.331615,6.9985831 1.5540299,7.1785721 c 0.32398,0.074567 0.7289551,0.064282 1.1249307,0.2288432 0.3985469,0.1645614 0.6788153,0.4602576 0.9629407,0.6351041 a 4.0806058,4.0806083 0 0 0 0.8459479,0 C 4.7706889,7.8663873 5.0496717,7.5732623 5.4482186,7.4074153 5.8467655,7.2428539 6.2504549,7.253139 6.5744349,7.1772864 6.7968498,6.9985831 6.9986945,6.7967382 7.1773978,6.5756088 7.2532503,6.2516286 7.2416795,5.8453677 7.4062408,5.4493918 7.5708021,5.0508447 7.8664982,4.7718617 8.0426302,4.4877361 a 4.101176,4.1011785 0 0 0 0,-0.8459484"
     id="path2"
     inkscape:connector-curvature="0"
     style="fill-rule:evenodd;stroke:#787878;stroke-width:0.12700002;stroke-linecap:round;stroke-linejoin:round" />
  <ellipse
     cy="4.0647616"
     cx="4.0340204"
     id="circle4"
     style="fill:#464646;stroke:#595959;stroke-width:0.086"
     rx="3.1858037"
     ry="3.1858056" />
  <rect
     ry="0.26300001"
     y="0.071576864"
     x="3.8026056"
     height="3.3375108"
     width="0.47311372"
     rx="0.26300001"
     id="rect6"
     style="fill:#e7e7e7;stroke:#2b2b2b;stroke-width:0.133;stroke-linejoin:round" />
</svg>
