<?xml version="1.0" encoding="UTF-8" standalone="no"?>
<svg
   xmlns:dc="http://purl.org/dc/elements/1.1/"
   xmlns:cc="http://creativecommons.org/ns#"
   xmlns:rdf="http://www.w3.org/1999/02/22-rdf-syntax-ns#"
   xmlns:svg="http://www.w3.org/2000/svg"
   xmlns="http://www.w3.org/2000/svg"
   xmlns:sodipodi="http://sodipodi.sourceforge.net/DTD/sodipodi-0.dtd"
   xmlns:inkscape="http://www.inkscape.org/namespaces/inkscape"
   width="9.4826698mm"
   height="9.4826698mm"
   viewBox="0 0 9.4826699 9.4826698"
   version="1.1"
   id="svg8"
   sodipodi:docname="RoundMediumBlackKnob.svg"
   inkscape:version="0.92.2 (5c3e80d, 2017-08-06)">
  <metadata
     id="metadata14">
    <rdf:RDF>
      <cc:Work
         rdf:about="">
        <dc:format>image/svg+xml</dc:format>
        <dc:type
           rdf:resource="http://purl.org/dc/dcmitype/StillImage" />
        <dc:title></dc:title>
      </cc:Work>
    </rdf:RDF>
  </metadata>
  <defs
     id="defs12" />
  <sodipodi:namedview
     pagecolor="#ffffff"
     bordercolor="#666666"
     borderopacity="1"
     objecttolerance="10"
     gridtolerance="10"
     guidetolerance="10"
     inkscape:pageopacity="0"
     inkscape:pageshadow="2"
     inkscape:window-width="1920"
     inkscape:window-height="1017"
     id="namedview10"
     showgrid="false"
     inkscape:zoom="14.410716"
     inkscape:cx="8.1932134"
     inkscape:cy="13.561189"
     inkscape:window-x="-8"
     inkscape:window-y="-8"
     inkscape:window-maximized="1"
     inkscape:current-layer="svg8"
     inkscape:document-units="mm"
     units="mm" />
  <path
     d="M 9.3935971,4.2468811 C 9.1876436,3.9146009 8.8418826,3.5883351 8.649459,3.1222407 8.4570353,2.6591536 8.4690619,2.1840381 8.3818699,1.8066521 A 4.6948348,4.6955237 0 0 0 7.6768178,1.1014967 C 7.297984,1.0127884 6.8259449,1.0263202 6.3614222,0.83386838 5.8938931,0.63991293 5.567675,0.29560469 5.236947,0.08962105 a 4.6963381,4.6970273 0 0 0 -0.9891775,0 C 3.9155381,0.29560469 3.5878167,0.63991293 3.1217909,0.83386838 2.6587716,1.0248166 2.1852292,1.014292 1.8063953,1.1014967 A 4.6918282,4.6925167 0 0 0 1.1013432,1.8051486 C 1.0141512,2.1840381 1.0261777,2.6591536 0.83225082,3.1222407 0.64133055,3.5883351 0.29556942,3.9146009 0.08961606,4.2468811 a 4.6963381,4.6970273 0 0 0 0,0.9893226 c 0.20595336,0.3322801 0.55021119,0.658546 0.74263476,1.1246404 0.19242358,0.4630871 0.18039708,0.9382026 0.27059568,1.3155886 0.20896,0.2601107 0.4434763,0.4961649 0.7035488,0.706659 0.3788339,0.087205 0.8523763,0.075176 1.3153956,0.2676284 0.4660258,0.1924517 0.7937472,0.5382637 1.1259786,0.7427437 a 4.7715036,4.7722038 0 0 0 0.9891775,0 C 5.567675,9.1874802 5.8938931,8.8446754 6.3599189,8.6507201 6.8259449,8.4582682 7.297984,8.4702964 7.6768178,8.3815882 7.9368903,8.1725976 8.1729099,7.9365434 8.3818699,7.6779362 8.4705654,7.2990467 8.4570356,6.8239312 8.649459,6.3608441 8.8418826,5.8947497 9.1876436,5.5684838 9.3935971,5.2362037 a 4.7955565,4.7962602 0 0 0 0,-0.9893226"
     id="path2"
     inkscape:connector-curvature="0"
     style="fill-rule:evenodd;stroke:#787878;stroke-width:0.127;stroke-linecap:round;stroke-linejoin:round" />
  <ellipse
     cy="4.7415419"
     cx="4.7062788"
     id="circle4"
     style="fill:#464646;stroke:#595959;stroke-width:0.086"
     rx="3.7252002"
     ry="3.7257469" />
  <rect
     style="fill:#e7e7e7;stroke:#2b2b2b;stroke-width:0.13300002;stroke-linejoin:round"
     ry="0.26300001"
     y="0.070282847"
     x="4.472033"
     height="3.8695979"
     width="0.53860468"
     rx="0.26300001"
     id="rect6" />
</svg>
