<?xml version="1.0" encoding="UTF-8" standalone="no"?>
<svg
   xmlns:dc="http://purl.org/dc/elements/1.1/"
   xmlns:cc="http://creativecommons.org/ns#"
   xmlns:rdf="http://www.w3.org/1999/02/22-rdf-syntax-ns#"
   xmlns:svg="http://www.w3.org/2000/svg"
   xmlns="http://www.w3.org/2000/svg"
   xmlns:sodipodi="http://sodipodi.sourceforge.net/DTD/sodipodi-0.dtd"
   xmlns:inkscape="http://www.inkscape.org/namespaces/inkscape"
   width="9.4826698mm"
   height="9.4826698mm"
   viewBox="0 0 9.4826698 9.4826698"
   version="1.1"
   id="svg8"
   sodipodi:docname="RoundMediumBlackKnobNoMark.svg"
   inkscape:version="0.92.2 (5c3e80d, 2017-08-06)">
  <metadata
     id="metadata14">
    <rdf:RDF>
      <cc:Work
         rdf:about="">
        <dc:format>image/svg+xml</dc:format>
        <dc:type
           rdf:resource="http://purl.org/dc/dcmitype/StillImage" />
        <dc:title></dc:title>
      </cc:Work>
    </rdf:RDF>
  </metadata>
  <defs
     id="defs12" />
  <sodipodi:namedview
     pagecolor="#ffffff"
     bordercolor="#666666"
     borderopacity="1"
     objecttolerance="10"
     gridtolerance="10"
     guidetolerance="10"
     inkscape:pageopacity="0"
     inkscape:pageshadow="2"
     inkscape:window-width="1366"
     inkscape:window-height="705"
     id="namedview10"
     showgrid="false"
     inkscape:zoom="11.889226"
     inkscape:cx="3.3819936"
     inkscape:cy="13.415473"
     inkscape:window-x="251"
     inkscape:window-y="1072"
     inkscape:window-maximized="1"
     inkscape:current-layer="svg8"
     inkscape:document-units="mm"
     units="mm" />
  <path
     d="M 9.3935971,4.2468809 C 9.1876436,3.9146007 8.8418826,3.5883349 8.649459,3.1222405 8.4570353,2.6591534 8.4690619,2.1840379 8.3818699,1.8066519 A 4.6948348,4.6955237 0 0 0 7.6768178,1.1014965 C 7.297984,1.0127882 6.8259449,1.02632 6.3614222,0.83386808 5.8938931,0.63991276 5.567675,0.29560439 5.236947,0.08962088 a 4.6963381,4.6970273 0 0 0 -0.9891775,0 C 3.9155381,0.29560439 3.5878167,0.63991276 3.1217909,0.83386808 2.6587716,1.0248164 2.1852292,1.0142916 1.8063953,1.1014965 A 4.6918282,4.6925167 0 0 0 1.1013432,1.8051484 C 1.0141512,2.1840379 1.0261777,2.6591534 0.83225082,3.1222405 0.64133055,3.5883349 0.29556942,3.9146007 0.08961606,4.2468809 a 4.6963381,4.6970273 0 0 0 0,0.9893226 C 0.29556942,5.5684836 0.63982725,5.8947495 0.83225082,6.3608439 1.0246744,6.823931 1.0126479,7.2990465 1.1028465,7.6764325 c 0.20896,0.2601107 0.4434763,0.4961649 0.7035488,0.706659 0.3788339,0.087205 0.8523763,0.075176 1.3153956,0.2676284 0.4660258,0.1924517 0.7937472,0.5382637 1.1259786,0.7427437 a 4.7715036,4.7722038 0 0 0 0.9891775,0 C 5.567675,9.18748 5.8938931,8.8446752 6.3599189,8.6507199 6.8259449,8.458268 7.297984,8.4702962 7.6768178,8.381588 7.9368903,8.1725974 8.1729099,7.9365432 8.3818699,7.677936 8.4705654,7.2990465 8.4570356,6.823931 8.649459,6.3608439 8.8418826,5.8947495 9.1876436,5.5684836 9.3935971,5.2362035 a 4.7955565,4.7962602 0 0 0 0,-0.9893226"
     id="path2"
     inkscape:connector-curvature="0"
     style="fill-rule:evenodd;stroke:#787878;stroke-width:0.127;stroke-linecap:round;stroke-linejoin:round" />
  <ellipse
     cy="4.7415419"
     cx="4.7062788"
     id="circle4"
     style="fill:#464646;stroke:#595959;stroke-width:0.086"
     rx="3.7252002"
     ry="3.7257469" />
</svg>
